<?xml version="1.0" encoding="UTF-8"?>
<svg xmlns="http://www.w3.org/2000/svg" xmlns:xlink="http://www.w3.org/1999/xlink" width="303.039998" height="425.039998" viewBox="0 0 303.039998 425.039998">
<path fill-rule="nonzero" fill="rgb(0%, 0%, 0%)" fill-opacity="1" stroke-width="0.3985" stroke-linecap="butt" stroke-linejoin="miter" stroke="rgb(0%, 0%, 0%)" stroke-opacity="1" stroke-miterlimit="10" d="M 1.409388 0.000707626 C 1.409388 0.777075 0.776575 1.409887 0.000207901 1.409887 C -0.777624 1.409887 -1.410437 0.777075 -1.410437 0.000707626 C -1.410437 -0.777124 -0.777624 -1.409937 0.000207901 -1.409937 C 0.776575 -1.409937 1.409388 -0.777124 1.409388 0.000707626 Z M 1.409388 0.000707626 " transform="matrix(2.666667, 0, 0, -2.666667, 77.698664, 63.802668)"/>
<path fill-rule="nonzero" fill="rgb(0%, 0%, 0%)" fill-opacity="1" d="M 37.980469 26.578125 C 37.980469 26.492188 38.0625 26.203125 38.0625 26.203125 C 38.0625 26.160156 38.0625 25.910156 37.730469 25.910156 C 37.480469 25.910156 37.4375 25.992188 37.3125 26.453125 L 35.769531 32.578125 C 31.5625 32.742188 27.644531 36.242188 27.644531 39.867188 C 27.644531 42.410156 29.519531 44.492188 32.769531 44.703125 C 32.5625 45.492188 32.355469 46.367188 32.144531 47.203125 C 31.8125 48.453125 31.5625 49.453125 31.5625 49.535156 C 31.5625 49.785156 31.769531 49.828125 31.894531 49.828125 C 32.019531 49.828125 32.0625 49.785156 32.144531 49.703125 C 32.1875 49.660156 32.355469 49.035156 32.4375 48.660156 L 33.4375 44.703125 C 37.730469 44.535156 41.605469 40.953125 41.605469 37.410156 C 41.605469 35.285156 40.1875 32.867188 36.480469 32.578125 Z M 32.894531 44.117188 C 31.3125 44.035156 29.394531 43.078125 29.394531 40.453125 C 29.394531 37.242188 31.6875 33.535156 35.644531 33.160156 Z M 36.3125 33.160156 C 38.355469 33.285156 39.855469 34.492188 39.855469 36.828125 C 39.855469 39.992188 37.5625 43.785156 33.605469 44.117188 Z M 36.3125 33.160156 "/>
<path fill-rule="nonzero" fill="rgb(0%, 0%, 0%)" fill-opacity="1" d="M 50.976562 50.742188 C 50.976562 50.660156 50.976562 50.617188 50.515625 50.160156 C 47.226562 46.828125 46.351562 41.785156 46.351562 37.703125 C 46.351562 33.078125 47.351562 28.453125 50.640625 25.160156 C 50.976562 24.828125 50.976562 24.785156 50.976562 24.703125 C 50.976562 24.492188 50.890625 24.410156 50.726562 24.410156 C 50.433594 24.410156 48.058594 26.242188 46.476562 29.617188 C 45.140625 32.535156 44.808594 35.492188 44.808594 37.703125 C 44.808594 39.785156 45.101562 42.992188 46.558594 46.035156 C 48.183594 49.285156 50.433594 51.035156 50.726562 51.035156 C 50.890625 51.035156 50.976562 50.953125 50.976562 50.742188 Z M 50.976562 50.742188 "/>
<path fill-rule="nonzero" fill="rgb(0%, 0%, 0%)" fill-opacity="1" d="M 62.429688 34.328125 C 61.929688 33.328125 61.179688 32.617188 59.972656 32.617188 C 56.890625 32.617188 53.597656 36.535156 53.597656 40.410156 C 53.597656 42.910156 55.054688 44.660156 57.097656 44.660156 C 57.640625 44.660156 58.972656 44.535156 60.554688 42.660156 C 60.765625 43.785156 61.722656 44.660156 62.972656 44.660156 C 63.929688 44.660156 64.515625 44.035156 64.972656 43.203125 C 65.390625 42.242188 65.765625 40.617188 65.765625 40.578125 C 65.765625 40.285156 65.515625 40.285156 65.429688 40.285156 C 65.179688 40.285156 65.140625 40.410156 65.054688 40.785156 C 64.597656 42.492188 64.140625 44.078125 63.054688 44.078125 C 62.304688 44.078125 62.265625 43.367188 62.265625 42.867188 C 62.265625 42.285156 62.304688 42.035156 62.597656 40.867188 C 62.890625 39.785156 62.929688 39.492188 63.179688 38.492188 L 64.140625 34.785156 C 64.304688 34.035156 64.304688 33.992188 64.304688 33.867188 C 64.304688 33.410156 64.015625 33.160156 63.554688 33.160156 C 62.890625 33.160156 62.515625 33.742188 62.429688 34.328125 Z M 60.722656 41.203125 C 60.554688 41.703125 60.554688 41.742188 60.179688 42.203125 C 59.015625 43.660156 57.929688 44.078125 57.179688 44.078125 C 55.847656 44.078125 55.472656 42.617188 55.472656 41.578125 C 55.472656 40.242188 56.304688 36.992188 56.929688 35.742188 C 57.765625 34.203125 58.929688 33.203125 60.015625 33.203125 C 61.722656 33.203125 62.097656 35.367188 62.097656 35.535156 C 62.097656 35.703125 62.054688 35.867188 62.015625 35.992188 Z M 60.722656 41.203125 "/>
<path fill-rule="nonzero" fill="rgb(0%, 0%, 0%)" fill-opacity="1" d="M 74.226562 37.703125 C 74.226562 35.660156 73.933594 32.453125 72.476562 29.410156 C 70.894531 26.160156 68.601562 24.410156 68.351562 24.410156 C 68.183594 24.410156 68.058594 24.535156 68.058594 24.703125 C 68.058594 24.785156 68.058594 24.828125 68.558594 25.328125 C 71.183594 27.953125 72.683594 32.160156 72.683594 37.703125 C 72.683594 42.285156 71.726562 46.953125 68.433594 50.285156 C 68.058594 50.617188 68.058594 50.660156 68.058594 50.742188 C 68.058594 50.910156 68.183594 51.035156 68.351562 51.035156 C 68.601562 51.035156 71.019531 49.203125 72.558594 45.828125 C 73.933594 42.910156 74.226562 39.953125 74.226562 37.703125 Z M 74.226562 37.703125 "/>
<path fill-rule="nonzero" fill="rgb(0%, 0%, 0%)" fill-opacity="1" stroke-width="0.3985" stroke-linecap="butt" stroke-linejoin="miter" stroke="rgb(0%, 0%, 0%)" stroke-opacity="1" stroke-miterlimit="10" d="M 61.320032 0.000707626 C 61.320032 0.777075 60.68722 1.409887 59.909388 1.409887 C 59.13302 1.409887 58.500208 0.777075 58.500208 0.000707626 C 58.500208 -0.777124 59.13302 -1.409937 59.909388 -1.409937 C 60.68722 -1.409937 61.320032 -0.777124 61.320032 0.000707626 Z M 61.320032 0.000707626 " transform="matrix(2.666667, 0, 0, -2.666667, 77.698664, 63.802668)"/>
<path fill-rule="nonzero" fill="rgb(0%, 0%, 0%)" fill-opacity="1" d="M 248.519531 24.25 C 248.519531 24.164062 248.601562 23.875 248.601562 23.875 C 248.601562 23.832031 248.601562 23.582031 248.269531 23.582031 C 248.019531 23.582031 247.976562 23.664062 247.851562 24.125 L 246.308594 30.25 C 242.101562 30.414062 238.183594 33.914062 238.183594 37.539062 C 238.183594 40.082031 240.058594 42.164062 243.308594 42.375 C 243.101562 43.164062 242.894531 44.039062 242.683594 44.875 C 242.351562 46.125 242.101562 47.125 242.101562 47.207031 C 242.101562 47.457031 242.308594 47.5 242.433594 47.5 C 242.558594 47.5 242.601562 47.457031 242.683594 47.375 C 242.726562 47.332031 242.894531 46.707031 242.976562 46.332031 L 243.976562 42.375 C 248.269531 42.207031 252.144531 38.625 252.144531 35.082031 C 252.144531 32.957031 250.726562 30.539062 247.019531 30.25 Z M 243.433594 41.789062 C 241.851562 41.707031 239.933594 40.75 239.933594 38.125 C 239.933594 34.914062 242.226562 31.207031 246.183594 30.832031 Z M 246.851562 30.832031 C 248.894531 30.957031 250.394531 32.164062 250.394531 34.5 C 250.394531 37.664062 248.101562 41.457031 244.144531 41.789062 Z M 246.851562 30.832031 "/>
<path fill-rule="nonzero" fill="rgb(0%, 0%, 0%)" fill-opacity="1" d="M 261.515625 48.414062 C 261.515625 48.332031 261.515625 48.289062 261.054688 47.832031 C 257.765625 44.5 256.890625 39.457031 256.890625 35.375 C 256.890625 30.75 257.890625 26.125 261.179688 22.832031 C 261.515625 22.5 261.515625 22.457031 261.515625 22.375 C 261.515625 22.164062 261.429688 22.082031 261.265625 22.082031 C 260.972656 22.082031 258.597656 23.914062 257.015625 27.289062 C 255.679688 30.207031 255.347656 33.164062 255.347656 35.375 C 255.347656 37.457031 255.640625 40.664062 257.097656 43.707031 C 258.722656 46.957031 260.972656 48.707031 261.265625 48.707031 C 261.429688 48.707031 261.515625 48.625 261.515625 48.414062 Z M 261.515625 48.414062 "/>
<path fill-rule="nonzero" fill="rgb(0%, 0%, 0%)" fill-opacity="1" d="M 272.96875 32 C 272.46875 31 271.71875 30.289062 270.511719 30.289062 C 267.429688 30.289062 264.136719 34.207031 264.136719 38.082031 C 264.136719 40.582031 265.59375 42.332031 267.636719 42.332031 C 268.179688 42.332031 269.511719 42.207031 271.09375 40.332031 C 271.304688 41.457031 272.261719 42.332031 273.511719 42.332031 C 274.46875 42.332031 275.054688 41.707031 275.511719 40.875 C 275.929688 39.914062 276.304688 38.289062 276.304688 38.25 C 276.304688 37.957031 276.054688 37.957031 275.96875 37.957031 C 275.71875 37.957031 275.679688 38.082031 275.59375 38.457031 C 275.136719 40.164062 274.679688 41.75 273.59375 41.75 C 272.84375 41.75 272.804688 41.039062 272.804688 40.539062 C 272.804688 39.957031 272.84375 39.707031 273.136719 38.539062 C 273.429688 37.457031 273.46875 37.164062 273.71875 36.164062 L 274.679688 32.457031 C 274.84375 31.707031 274.84375 31.664062 274.84375 31.539062 C 274.84375 31.082031 274.554688 30.832031 274.09375 30.832031 C 273.429688 30.832031 273.054688 31.414062 272.96875 32 Z M 271.261719 38.875 C 271.09375 39.375 271.09375 39.414062 270.71875 39.875 C 269.554688 41.332031 268.46875 41.75 267.71875 41.75 C 266.386719 41.75 266.011719 40.289062 266.011719 39.25 C 266.011719 37.914062 266.84375 34.664062 267.46875 33.414062 C 268.304688 31.875 269.46875 30.875 270.554688 30.875 C 272.261719 30.875 272.636719 33.039062 272.636719 33.207031 C 272.636719 33.375 272.59375 33.539062 272.554688 33.664062 Z M 271.261719 38.875 "/>
<path fill-rule="nonzero" fill="rgb(0%, 0%, 0%)" fill-opacity="1" d="M 282.472656 23.609375 C 282.640625 23.316406 282.640625 23.148438 282.640625 23.023438 C 282.640625 22.441406 282.140625 22.023438 281.558594 22.023438 C 280.847656 22.023438 280.640625 22.609375 280.558594 22.898438 L 278.097656 30.941406 C 278.058594 30.984375 277.972656 31.191406 277.972656 31.234375 C 277.972656 31.441406 278.558594 31.648438 278.722656 31.648438 C 278.847656 31.648438 278.847656 31.609375 278.972656 31.316406 Z M 282.472656 23.609375 "/>
<path fill-rule="nonzero" fill="rgb(0%, 0%, 0%)" fill-opacity="1" d="M 292.21875 35.375 C 292.21875 33.332031 291.925781 30.125 290.46875 27.082031 C 288.886719 23.832031 286.59375 22.082031 286.34375 22.082031 C 286.175781 22.082031 286.050781 22.207031 286.050781 22.375 C 286.050781 22.457031 286.050781 22.5 286.550781 23 C 289.175781 25.625 290.675781 29.832031 290.675781 35.375 C 290.675781 39.957031 289.71875 44.625 286.425781 47.957031 C 286.050781 48.289062 286.050781 48.332031 286.050781 48.414062 C 286.050781 48.582031 286.175781 48.707031 286.34375 48.707031 C 286.59375 48.707031 289.011719 46.875 290.550781 43.5 C 291.925781 40.582031 292.21875 37.625 292.21875 35.375 Z M 292.21875 35.375 "/>
<path fill-rule="nonzero" fill="rgb(0%, 0%, 0%)" fill-opacity="1" stroke-width="0.3985" stroke-linecap="butt" stroke-linejoin="miter" stroke="rgb(0%, 0%, 0%)" stroke-opacity="1" stroke-miterlimit="10" d="M 61.320032 -59.909937 C 61.320032 -59.132105 60.68722 -58.499292 59.909388 -58.499292 C 59.13302 -58.499292 58.500208 -59.132105 58.500208 -59.909937 C 58.500208 -60.687769 59.13302 -61.320581 59.909388 -61.320581 C 60.68722 -61.320581 61.320032 -60.687769 61.320032 -59.909937 Z M 61.320032 -59.909937 " transform="matrix(2.666667, 0, 0, -2.666667, 77.698664, 63.802668)"/>
<path fill-rule="nonzero" fill="rgb(0%, 0%, 0%)" fill-opacity="1" d="M 249.246094 241.640625 C 249.246094 241.515625 249.289062 241.351562 249.289062 241.226562 C 249.289062 240.976562 249.121094 240.933594 248.996094 240.933594 C 248.703125 240.933594 248.703125 241.015625 248.578125 241.476562 L 244.164062 259.058594 C 242.164062 258.808594 241.164062 257.808594 241.164062 256.058594 C 241.164062 255.515625 241.164062 254.851562 242.578125 251.140625 C 242.703125 250.808594 242.871094 250.351562 242.871094 249.808594 C 242.871094 248.640625 242.039062 247.640625 240.703125 247.640625 C 238.164062 247.640625 237.203125 251.515625 237.203125 251.726562 C 237.203125 252.015625 237.453125 252.015625 237.496094 252.015625 C 237.789062 252.015625 237.789062 251.933594 237.914062 251.515625 C 238.664062 249.015625 239.703125 248.226562 240.621094 248.226562 C 240.828125 248.226562 241.289062 248.226562 241.289062 249.058594 C 241.289062 249.765625 240.996094 250.433594 240.664062 251.351562 C 239.371094 254.726562 239.371094 255.390625 239.371094 255.851562 C 239.371094 258.390625 241.453125 259.476562 243.996094 259.640625 C 243.789062 260.601562 243.789062 260.640625 243.414062 262.058594 C 243.371094 262.351562 242.828125 264.476562 242.828125 264.558594 C 242.828125 264.601562 242.828125 264.851562 243.121094 264.851562 C 243.203125 264.851562 243.328125 264.851562 243.371094 264.726562 C 243.453125 264.683594 243.621094 264.015625 243.703125 263.640625 L 244.703125 259.683594 C 245.703125 259.683594 248.039062 259.683594 250.539062 256.851562 C 251.621094 255.601562 252.164062 254.433594 252.453125 253.640625 C 252.703125 252.976562 253.289062 250.683594 253.289062 249.515625 C 253.289062 248.015625 252.578125 247.640625 252.121094 247.640625 C 251.453125 247.640625 250.789062 248.351562 250.789062 248.933594 C 250.789062 249.265625 250.953125 249.433594 251.203125 249.640625 C 251.496094 249.933594 252.164062 250.601562 252.164062 251.890625 C 252.164062 253.601562 250.789062 255.765625 249.828125 256.726562 C 247.496094 259.101562 245.789062 259.101562 244.828125 259.101562 Z M 249.246094 241.640625 "/>
<path fill-rule="nonzero" fill="rgb(0%, 0%, 0%)" fill-opacity="1" d="M 263.464844 265.765625 C 263.464844 265.683594 263.464844 265.640625 263.003906 265.183594 C 259.714844 261.851562 258.839844 256.808594 258.839844 252.726562 C 258.839844 248.101562 259.839844 243.476562 263.128906 240.183594 C 263.464844 239.851562 263.464844 239.808594 263.464844 239.726562 C 263.464844 239.515625 263.378906 239.433594 263.214844 239.433594 C 262.921875 239.433594 260.546875 241.265625 258.964844 244.640625 C 257.628906 247.558594 257.296875 250.515625 257.296875 252.726562 C 257.296875 254.808594 257.589844 258.015625 259.046875 261.058594 C 260.671875 264.308594 262.921875 266.058594 263.214844 266.058594 C 263.378906 266.058594 263.464844 265.976562 263.464844 265.765625 Z M 263.464844 265.765625 "/>
<path fill-rule="nonzero" fill="rgb(0%, 0%, 0%)" fill-opacity="1" d="M 274.917969 249.351562 C 274.417969 248.351562 273.667969 247.640625 272.460938 247.640625 C 269.378906 247.640625 266.085938 251.558594 266.085938 255.433594 C 266.085938 257.933594 267.542969 259.683594 269.585938 259.683594 C 270.128906 259.683594 271.460938 259.558594 273.042969 257.683594 C 273.253906 258.808594 274.210938 259.683594 275.460938 259.683594 C 276.417969 259.683594 277.003906 259.058594 277.460938 258.226562 C 277.878906 257.265625 278.253906 255.640625 278.253906 255.601562 C 278.253906 255.308594 278.003906 255.308594 277.917969 255.308594 C 277.667969 255.308594 277.628906 255.433594 277.542969 255.808594 C 277.085938 257.515625 276.628906 259.101562 275.542969 259.101562 C 274.792969 259.101562 274.753906 258.390625 274.753906 257.890625 C 274.753906 257.308594 274.792969 257.058594 275.085938 255.890625 C 275.378906 254.808594 275.417969 254.515625 275.667969 253.515625 L 276.628906 249.808594 C 276.792969 249.058594 276.792969 249.015625 276.792969 248.890625 C 276.792969 248.433594 276.503906 248.183594 276.042969 248.183594 C 275.378906 248.183594 275.003906 248.765625 274.917969 249.351562 Z M 273.210938 256.226562 C 273.042969 256.726562 273.042969 256.765625 272.667969 257.226562 C 271.503906 258.683594 270.417969 259.101562 269.667969 259.101562 C 268.335938 259.101562 267.960938 257.640625 267.960938 256.601562 C 267.960938 255.265625 268.792969 252.015625 269.417969 250.765625 C 270.253906 249.226562 271.417969 248.226562 272.503906 248.226562 C 274.210938 248.226562 274.585938 250.390625 274.585938 250.558594 C 274.585938 250.726562 274.542969 250.890625 274.503906 251.015625 Z M 273.210938 256.226562 "/>
<path fill-rule="nonzero" fill="rgb(0%, 0%, 0%)" fill-opacity="1" d="M 284.421875 240.960938 C 284.589844 240.667969 284.589844 240.503906 284.589844 240.378906 C 284.589844 239.792969 284.089844 239.378906 283.507812 239.378906 C 282.796875 239.378906 282.589844 239.960938 282.507812 240.253906 L 280.046875 248.292969 C 280.007812 248.335938 279.921875 248.542969 279.921875 248.585938 C 279.921875 248.792969 280.507812 249.003906 280.671875 249.003906 C 280.796875 249.003906 280.796875 248.960938 280.921875 248.667969 Z M 284.421875 240.960938 "/>
<path fill-rule="nonzero" fill="rgb(0%, 0%, 0%)" fill-opacity="1" d="M 294.167969 252.726562 C 294.167969 250.683594 293.875 247.476562 292.417969 244.433594 C 290.835938 241.183594 288.542969 239.433594 288.292969 239.433594 C 288.125 239.433594 288 239.558594 288 239.726562 C 288 239.808594 288 239.851562 288.5 240.351562 C 291.125 242.976562 292.625 247.183594 292.625 252.726562 C 292.625 257.308594 291.667969 261.976562 288.375 265.308594 C 288 265.640625 288 265.683594 288 265.765625 C 288 265.933594 288.125 266.058594 288.292969 266.058594 C 288.542969 266.058594 290.960938 264.226562 292.5 260.851562 C 293.875 257.933594 294.167969 254.976562 294.167969 252.726562 Z M 294.167969 252.726562 "/>
<path fill-rule="nonzero" fill="rgb(0%, 0%, 0%)" fill-opacity="1" stroke-width="0.3985" stroke-linecap="butt" stroke-linejoin="miter" stroke="rgb(0%, 0%, 0%)" stroke-opacity="1" stroke-miterlimit="10" d="M 1.409388 -59.909937 C 1.409388 -59.132105 0.776575 -58.499292 0.000207901 -58.499292 C -0.777624 -58.499292 -1.410437 -59.132105 -1.410437 -59.909937 C -1.410437 -60.687769 -0.777624 -61.320581 0.000207901 -61.320581 C 0.776575 -61.320581 1.409388 -60.687769 1.409388 -59.909937 Z M 1.409388 -59.909937 " transform="matrix(2.666667, 0, 0, -2.666667, 77.698664, 63.802668)"/>
<path fill-rule="nonzero" fill="rgb(0%, 0%, 0%)" fill-opacity="1" d="M 37.199219 239.304688 C 37.199219 239.179688 37.242188 239.015625 37.242188 238.890625 C 37.242188 238.640625 37.074219 238.597656 36.949219 238.597656 C 36.65625 238.597656 36.65625 238.679688 36.53125 239.140625 L 32.117188 256.722656 C 30.117188 256.472656 29.117188 255.472656 29.117188 253.722656 C 29.117188 253.179688 29.117188 252.515625 30.53125 248.804688 C 30.65625 248.472656 30.824219 248.015625 30.824219 247.472656 C 30.824219 246.304688 29.992188 245.304688 28.65625 245.304688 C 26.117188 245.304688 25.15625 249.179688 25.15625 249.390625 C 25.15625 249.679688 25.40625 249.679688 25.449219 249.679688 C 25.742188 249.679688 25.742188 249.597656 25.867188 249.179688 C 26.617188 246.679688 27.65625 245.890625 28.574219 245.890625 C 28.78125 245.890625 29.242188 245.890625 29.242188 246.722656 C 29.242188 247.429688 28.949219 248.097656 28.617188 249.015625 C 27.324219 252.390625 27.324219 253.054688 27.324219 253.515625 C 27.324219 256.054688 29.40625 257.140625 31.949219 257.304688 C 31.742188 258.265625 31.742188 258.304688 31.367188 259.722656 C 31.324219 260.015625 30.78125 262.140625 30.78125 262.222656 C 30.78125 262.265625 30.78125 262.515625 31.074219 262.515625 C 31.15625 262.515625 31.28125 262.515625 31.324219 262.390625 C 31.40625 262.347656 31.574219 261.679688 31.65625 261.304688 L 32.65625 257.347656 C 33.65625 257.347656 35.992188 257.347656 38.492188 254.515625 C 39.574219 253.265625 40.117188 252.097656 40.40625 251.304688 C 40.65625 250.640625 41.242188 248.347656 41.242188 247.179688 C 41.242188 245.679688 40.53125 245.304688 40.074219 245.304688 C 39.40625 245.304688 38.742188 246.015625 38.742188 246.597656 C 38.742188 246.929688 38.90625 247.097656 39.15625 247.304688 C 39.449219 247.597656 40.117188 248.265625 40.117188 249.554688 C 40.117188 251.265625 38.742188 253.429688 37.78125 254.390625 C 35.449219 256.765625 33.742188 256.765625 32.78125 256.765625 Z M 37.199219 239.304688 "/>
<path fill-rule="nonzero" fill="rgb(0%, 0%, 0%)" fill-opacity="1" d="M 51.414062 263.429688 C 51.414062 263.347656 51.414062 263.304688 50.957031 262.847656 C 47.664062 259.515625 46.789062 254.472656 46.789062 250.390625 C 46.789062 245.765625 47.789062 241.140625 51.082031 237.847656 C 51.414062 237.515625 51.414062 237.472656 51.414062 237.390625 C 51.414062 237.179688 51.332031 237.097656 51.164062 237.097656 C 50.875 237.097656 48.5 238.929688 46.914062 242.304688 C 45.582031 245.222656 45.25 248.179688 45.25 250.390625 C 45.25 252.472656 45.539062 255.679688 47 258.722656 C 48.625 261.972656 50.875 263.722656 51.164062 263.722656 C 51.332031 263.722656 51.414062 263.640625 51.414062 263.429688 Z M 51.414062 263.429688 "/>
<path fill-rule="nonzero" fill="rgb(0%, 0%, 0%)" fill-opacity="1" d="M 62.871094 247.015625 C 62.371094 246.015625 61.621094 245.304688 60.414062 245.304688 C 57.328125 245.304688 54.039062 249.222656 54.039062 253.097656 C 54.039062 255.597656 55.496094 257.347656 57.539062 257.347656 C 58.078125 257.347656 59.414062 257.222656 60.996094 255.347656 C 61.203125 256.472656 62.164062 257.347656 63.414062 257.347656 C 64.371094 257.347656 64.953125 256.722656 65.414062 255.890625 C 65.828125 254.929688 66.203125 253.304688 66.203125 253.265625 C 66.203125 252.972656 65.953125 252.972656 65.871094 252.972656 C 65.621094 252.972656 65.578125 253.097656 65.496094 253.472656 C 65.039062 255.179688 64.578125 256.765625 63.496094 256.765625 C 62.746094 256.765625 62.703125 256.054688 62.703125 255.554688 C 62.703125 254.972656 62.746094 254.722656 63.039062 253.554688 C 63.328125 252.472656 63.371094 252.179688 63.621094 251.179688 L 64.578125 247.472656 C 64.746094 246.722656 64.746094 246.679688 64.746094 246.554688 C 64.746094 246.097656 64.453125 245.847656 63.996094 245.847656 C 63.328125 245.847656 62.953125 246.429688 62.871094 247.015625 Z M 61.164062 253.890625 C 60.996094 254.390625 60.996094 254.429688 60.621094 254.890625 C 59.453125 256.347656 58.371094 256.765625 57.621094 256.765625 C 56.289062 256.765625 55.914062 255.304688 55.914062 254.265625 C 55.914062 252.929688 56.746094 249.679688 57.371094 248.429688 C 58.203125 246.890625 59.371094 245.890625 60.453125 245.890625 C 62.164062 245.890625 62.539062 248.054688 62.539062 248.222656 C 62.539062 248.390625 62.496094 248.554688 62.453125 248.679688 Z M 61.164062 253.890625 "/>
<path fill-rule="nonzero" fill="rgb(0%, 0%, 0%)" fill-opacity="1" d="M 74.667969 250.390625 C 74.667969 248.347656 74.375 245.140625 72.917969 242.097656 C 71.332031 238.847656 69.042969 237.097656 68.792969 237.097656 C 68.625 237.097656 68.5 237.222656 68.5 237.390625 C 68.5 237.472656 68.5 237.515625 69 238.015625 C 71.625 240.640625 73.125 244.847656 73.125 250.390625 C 73.125 254.972656 72.167969 259.640625 68.875 262.972656 C 68.5 263.304688 68.5 263.347656 68.5 263.429688 C 68.5 263.597656 68.625 263.722656 68.792969 263.722656 C 69.042969 263.722656 71.457031 261.890625 73 258.515625 C 74.375 255.597656 74.667969 252.640625 74.667969 250.390625 Z M 74.667969 250.390625 "/>
<path fill-rule="nonzero" fill="rgb(0%, 0%, 0%)" fill-opacity="1" stroke-width="0.3985" stroke-linecap="butt" stroke-linejoin="miter" stroke="rgb(0%, 0%, 0%)" stroke-opacity="1" stroke-miterlimit="10" d="M 1.409388 -119.820581 C 1.409388 -119.042749 0.776575 -118.409937 0.000207901 -118.409937 C -0.777624 -118.409937 -1.410437 -119.042749 -1.410437 -119.820581 C -1.410437 -120.596949 -0.777624 -121.229761 0.000207901 -121.229761 C 0.776575 -121.229761 1.409388 -120.596949 1.409388 -119.820581 Z M 1.409388 -119.820581 " transform="matrix(2.666667, 0, 0, -2.666667, 77.698664, 63.802668)"/>
<path fill-rule="nonzero" fill="rgb(0%, 0%, 0%)" fill-opacity="1" d="M 80.59375 396.59375 C 80.09375 395.59375 79.34375 394.882812 78.136719 394.882812 C 75.050781 394.882812 71.761719 398.800781 71.761719 402.675781 C 71.761719 405.175781 73.21875 406.925781 75.261719 406.925781 C 75.800781 406.925781 77.136719 406.800781 78.71875 404.925781 C 78.925781 406.050781 79.886719 406.925781 81.136719 406.925781 C 82.09375 406.925781 82.675781 406.300781 83.136719 405.46875 C 83.550781 404.507812 83.925781 402.882812 83.925781 402.84375 C 83.925781 402.550781 83.675781 402.550781 83.59375 402.550781 C 83.34375 402.550781 83.300781 402.675781 83.21875 403.050781 C 82.761719 404.757812 82.300781 406.34375 81.21875 406.34375 C 80.46875 406.34375 80.425781 405.632812 80.425781 405.132812 C 80.425781 404.550781 80.46875 404.300781 80.761719 403.132812 C 81.050781 402.050781 81.09375 401.757812 81.34375 400.757812 L 82.300781 397.050781 C 82.46875 396.300781 82.46875 396.257812 82.46875 396.132812 C 82.46875 395.675781 82.175781 395.425781 81.71875 395.425781 C 81.050781 395.425781 80.675781 396.007812 80.59375 396.59375 Z M 78.886719 403.46875 C 78.71875 403.96875 78.71875 404.007812 78.34375 404.46875 C 77.175781 405.925781 76.09375 406.34375 75.34375 406.34375 C 74.011719 406.34375 73.636719 404.882812 73.636719 403.84375 C 73.636719 402.507812 74.46875 399.257812 75.09375 398.007812 C 75.925781 396.46875 77.09375 395.46875 78.175781 395.46875 C 79.886719 395.46875 80.261719 397.632812 80.261719 397.800781 C 80.261719 397.96875 80.21875 398.132812 80.175781 398.257812 Z M 78.886719 403.46875 "/>
<path fill-rule="nonzero" fill="rgb(0%, 0%, 0%)" fill-opacity="1" stroke-width="0.3985" stroke-linecap="butt" stroke-linejoin="miter" stroke="rgb(0%, 0%, 0%)" stroke-opacity="1" stroke-miterlimit="10" d="M 61.320032 -119.820581 C 61.320032 -119.042749 60.68722 -118.409937 59.909388 -118.409937 C 59.13302 -118.409937 58.500208 -119.042749 58.500208 -119.820581 C 58.500208 -120.596949 59.13302 -121.229761 59.909388 -121.229761 C 60.68722 -121.229761 61.320032 -120.596949 61.320032 -119.820581 Z M 61.320032 -119.820581 " transform="matrix(2.666667, 0, 0, -2.666667, 77.698664, 63.802668)"/>
<path fill-rule="nonzero" fill="rgb(0%, 0%, 0%)" fill-opacity="1" d="M 236.628906 406.539062 C 236.128906 405.539062 235.378906 404.832031 234.171875 404.832031 C 231.085938 404.832031 227.796875 408.746094 227.796875 412.621094 C 227.796875 415.121094 229.253906 416.871094 231.296875 416.871094 C 231.835938 416.871094 233.171875 416.746094 234.753906 414.871094 C 234.960938 415.996094 235.921875 416.871094 237.171875 416.871094 C 238.128906 416.871094 238.710938 416.246094 239.171875 415.414062 C 239.585938 414.457031 239.960938 412.832031 239.960938 412.789062 C 239.960938 412.496094 239.710938 412.496094 239.628906 412.496094 C 239.378906 412.496094 239.335938 412.621094 239.253906 412.996094 C 238.796875 414.707031 238.335938 416.289062 237.253906 416.289062 C 236.503906 416.289062 236.460938 415.582031 236.460938 415.082031 C 236.460938 414.496094 236.503906 414.246094 236.796875 413.082031 C 237.085938 411.996094 237.128906 411.707031 237.378906 410.707031 L 238.335938 406.996094 C 238.503906 406.246094 238.503906 406.207031 238.503906 406.082031 C 238.503906 405.621094 238.210938 405.371094 237.753906 405.371094 C 237.085938 405.371094 236.710938 405.957031 236.628906 406.539062 Z M 234.921875 413.414062 C 234.753906 413.914062 234.753906 413.957031 234.378906 414.414062 C 233.210938 415.871094 232.128906 416.289062 231.378906 416.289062 C 230.046875 416.289062 229.671875 414.832031 229.671875 413.789062 C 229.671875 412.457031 230.503906 409.207031 231.128906 407.957031 C 231.960938 406.414062 233.128906 405.414062 234.210938 405.414062 C 235.921875 405.414062 236.296875 407.582031 236.296875 407.746094 C 236.296875 407.914062 236.253906 408.082031 236.210938 408.207031 Z M 234.921875 413.414062 "/>
<path fill-rule="nonzero" fill="rgb(0%, 0%, 0%)" fill-opacity="1" d="M 246.128906 398.148438 C 246.296875 397.859375 246.296875 397.691406 246.296875 397.566406 C 246.296875 396.984375 245.796875 396.566406 245.214844 396.566406 C 244.503906 396.566406 244.296875 397.148438 244.214844 397.441406 L 241.753906 405.484375 C 241.714844 405.523438 241.628906 405.734375 241.628906 405.773438 C 241.628906 405.984375 242.214844 406.191406 242.378906 406.191406 C 242.503906 406.191406 242.503906 406.148438 242.628906 405.859375 Z M 246.128906 398.148438 "/>
<path fill="none" stroke-width="0.59776" stroke-linecap="butt" stroke-linejoin="miter" stroke="rgb(0%, 0%, 0%)" stroke-opacity="1" stroke-miterlimit="10" d="M 58.300989 0.000707626 L 2.206263 0.000707626 " transform="matrix(2.666667, 0, 0, -2.666667, 77.698664, 63.802668)"/>
<path fill="none" stroke-width="0.59776" stroke-linecap="round" stroke-linejoin="round" stroke="rgb(0%, 0%, 0%)" stroke-opacity="1" stroke-miterlimit="10" d="M -2.311787 2.750269 C -1.889912 1.100855 -0.948017 0.320093 0.00120163 -0.000707626 C -0.948017 -0.320044 -1.889912 -1.10227 -2.311787 -2.750219 " transform="matrix(-2.666667, 0, 0, 2.666667, 82.784454, 63.802668)"/>
<path fill-rule="nonzero" fill="rgb(0%, 0%, 0%)" fill-opacity="1" d="M 130.011719 29.71875 C 130.011719 29.632812 130.09375 29.34375 130.09375 29.34375 C 130.09375 29.300781 130.09375 29.050781 129.761719 29.050781 C 129.511719 29.050781 129.46875 29.132812 129.34375 29.59375 L 127.804688 35.71875 C 123.59375 35.882812 119.679688 39.382812 119.679688 43.007812 C 119.679688 45.550781 121.554688 47.632812 124.804688 47.84375 C 124.59375 48.632812 124.386719 49.507812 124.179688 50.34375 C 123.84375 51.59375 123.59375 52.59375 123.59375 52.675781 C 123.59375 52.925781 123.804688 52.96875 123.929688 52.96875 C 124.054688 52.96875 124.09375 52.925781 124.179688 52.84375 C 124.21875 52.800781 124.386719 52.175781 124.46875 51.800781 L 125.46875 47.84375 C 129.761719 47.675781 133.636719 44.09375 133.636719 40.550781 C 133.636719 38.425781 132.21875 36.007812 128.511719 35.71875 Z M 124.929688 47.257812 C 123.34375 47.175781 121.429688 46.21875 121.429688 43.59375 C 121.429688 40.382812 123.71875 36.675781 127.679688 36.300781 Z M 128.34375 36.300781 C 130.386719 36.425781 131.886719 37.632812 131.886719 39.96875 C 131.886719 43.132812 129.59375 46.925781 125.636719 47.257812 Z M 128.34375 36.300781 "/>
<path fill-rule="nonzero" fill="rgb(0%, 0%, 0%)" fill-opacity="1" d="M 143.007812 53.882812 C 143.007812 53.800781 143.007812 53.757812 142.550781 53.300781 C 139.257812 49.96875 138.382812 44.925781 138.382812 40.84375 C 138.382812 36.21875 139.382812 31.59375 142.675781 28.300781 C 143.007812 27.96875 143.007812 27.925781 143.007812 27.84375 C 143.007812 27.632812 142.925781 27.550781 142.757812 27.550781 C 142.464844 27.550781 140.089844 29.382812 138.507812 32.757812 C 137.175781 35.675781 136.839844 38.632812 136.839844 40.84375 C 136.839844 42.925781 137.132812 46.132812 138.589844 49.175781 C 140.214844 52.425781 142.464844 54.175781 142.757812 54.175781 C 142.925781 54.175781 143.007812 54.09375 143.007812 53.882812 Z M 143.007812 53.882812 "/>
<path fill-rule="nonzero" fill="rgb(0%, 0%, 0%)" fill-opacity="1" d="M 145.753906 50.757812 C 145.546875 51.675781 145.464844 51.84375 144.296875 51.84375 C 144.003906 51.84375 143.714844 51.84375 143.714844 52.34375 C 143.714844 52.550781 143.839844 52.675781 144.046875 52.675781 C 144.753906 52.675781 145.546875 52.59375 146.253906 52.59375 C 147.171875 52.59375 148.046875 52.675781 148.921875 52.675781 C 149.046875 52.675781 149.378906 52.675781 149.378906 52.132812 C 149.378906 51.84375 149.128906 51.84375 148.753906 51.84375 C 147.421875 51.84375 147.421875 51.675781 147.421875 51.425781 C 147.421875 51.09375 148.546875 46.757812 148.714844 46.09375 C 149.046875 46.882812 149.796875 47.800781 151.171875 47.800781 C 154.253906 47.800781 157.589844 43.925781 157.589844 40.007812 C 157.589844 37.507812 156.046875 35.757812 154.046875 35.757812 C 152.714844 35.757812 151.421875 36.71875 150.546875 37.757812 C 150.296875 36.300781 149.128906 35.757812 148.171875 35.757812 C 146.921875 35.757812 146.421875 36.800781 146.214844 37.257812 C 145.714844 38.175781 145.378906 39.757812 145.378906 39.84375 C 145.378906 40.132812 145.628906 40.132812 145.671875 40.132812 C 145.964844 40.132812 145.964844 40.09375 146.128906 39.507812 C 146.589844 37.632812 147.128906 36.34375 148.089844 36.34375 C 148.546875 36.34375 148.921875 36.550781 148.921875 37.550781 C 148.921875 38.175781 148.839844 38.46875 148.714844 38.925781 Z M 150.421875 39.21875 C 150.589844 38.507812 151.339844 37.757812 151.796875 37.34375 C 152.753906 36.550781 153.503906 36.34375 153.964844 36.34375 C 155.003906 36.34375 155.671875 37.257812 155.671875 38.84375 C 155.671875 40.425781 154.796875 43.46875 154.296875 44.46875 C 153.378906 46.34375 152.128906 47.21875 151.128906 47.21875 C 149.378906 47.21875 149.046875 45.007812 149.046875 44.84375 C 149.046875 44.800781 149.046875 44.757812 149.128906 44.425781 Z M 150.421875 39.21875 "/>
<path fill-rule="nonzero" fill="rgb(0%, 0%, 0%)" fill-opacity="1" d="M 165.582031 40.84375 C 165.582031 38.800781 165.289062 35.59375 163.832031 32.550781 C 162.246094 29.300781 159.957031 27.550781 159.707031 27.550781 C 159.539062 27.550781 159.414062 27.675781 159.414062 27.84375 C 159.414062 27.925781 159.414062 27.96875 159.914062 28.46875 C 162.539062 31.09375 164.039062 35.300781 164.039062 40.84375 C 164.039062 45.425781 163.082031 50.09375 159.789062 53.425781 C 159.414062 53.757812 159.414062 53.800781 159.414062 53.882812 C 159.414062 54.050781 159.539062 54.175781 159.707031 54.175781 C 159.957031 54.175781 162.371094 52.34375 163.914062 48.96875 C 165.289062 46.050781 165.582031 43.09375 165.582031 40.84375 Z M 165.582031 40.84375 "/>
<path fill-rule="nonzero" fill="rgb(0%, 0%, 0%)" fill-opacity="1" d="M 182.078125 33.660156 C 182.371094 33.660156 182.828125 33.660156 182.828125 33.246094 C 182.828125 32.746094 182.371094 32.746094 182.078125 32.746094 L 170.996094 32.746094 C 170.703125 32.746094 170.246094 32.746094 170.246094 33.203125 C 170.246094 33.660156 170.660156 33.660156 170.996094 33.660156 Z M 182.078125 33.660156 "/>
<path fill-rule="nonzero" fill="rgb(0%, 0%, 0%)" fill-opacity="1" d="M 191.058594 26.035156 C 191.058594 25.535156 191.058594 25.535156 190.515625 25.535156 C 189.308594 26.703125 187.640625 26.703125 186.890625 26.703125 L 186.890625 27.371094 C 187.308594 27.371094 188.558594 27.371094 189.558594 26.871094 L 189.558594 36.328125 C 189.558594 36.953125 189.558594 37.203125 187.726562 37.203125 L 187.015625 37.203125 L 187.015625 37.871094 C 187.351562 37.871094 189.640625 37.785156 190.308594 37.785156 C 190.890625 37.785156 193.226562 37.871094 193.640625 37.871094 L 193.640625 37.203125 L 192.933594 37.203125 C 191.058594 37.203125 191.058594 36.953125 191.058594 36.328125 Z M 191.058594 26.035156 "/>
<path fill="none" stroke-width="0.59776" stroke-linecap="butt" stroke-linejoin="miter" stroke="rgb(0%, 0%, 0%)" stroke-opacity="1" stroke-miterlimit="10" d="M 1.608606 -59.909937 L 57.703333 -59.909937 " transform="matrix(2.666667, 0, 0, -2.666667, 77.698664, 63.802668)"/>
<path fill="none" stroke-width="0.59776" stroke-linecap="round" stroke-linejoin="round" stroke="rgb(0%, 0%, 0%)" stroke-opacity="1" stroke-miterlimit="10" d="M -2.312401 2.749794 C -1.890526 1.101845 -0.948631 0.321083 0.000587463 0.000282288 C -0.948631 -0.320518 -1.890526 -1.10128 -2.312401 -2.749229 " transform="matrix(2.666667, 0, 0, -2.666667, 232.373433, 223.563253)"/>
<path fill-rule="nonzero" fill="rgb(0%, 0%, 0%)" fill-opacity="1" d="M 144.269531 189.519531 C 144.269531 189.394531 144.308594 189.226562 144.308594 189.101562 C 144.308594 188.851562 144.144531 188.8125 144.019531 188.8125 C 143.726562 188.8125 143.726562 188.894531 143.601562 189.351562 L 139.183594 206.9375 C 137.183594 206.6875 136.183594 205.6875 136.183594 203.9375 C 136.183594 203.394531 136.183594 202.726562 137.601562 199.019531 C 137.726562 198.6875 137.894531 198.226562 137.894531 197.6875 C 137.894531 196.519531 137.058594 195.519531 135.726562 195.519531 C 133.183594 195.519531 132.226562 199.394531 132.226562 199.601562 C 132.226562 199.894531 132.476562 199.894531 132.519531 199.894531 C 132.808594 199.894531 132.808594 199.8125 132.933594 199.394531 C 133.683594 196.894531 134.726562 196.101562 135.644531 196.101562 C 135.851562 196.101562 136.308594 196.101562 136.308594 196.9375 C 136.308594 197.644531 136.019531 198.3125 135.683594 199.226562 C 134.394531 202.601562 134.394531 203.269531 134.394531 203.726562 C 134.394531 206.269531 136.476562 207.351562 139.019531 207.519531 C 138.808594 208.476562 138.808594 208.519531 138.433594 209.9375 C 138.394531 210.226562 137.851562 212.351562 137.851562 212.4375 C 137.851562 212.476562 137.851562 212.726562 138.144531 212.726562 C 138.226562 212.726562 138.351562 212.726562 138.394531 212.601562 C 138.476562 212.5625 138.644531 211.894531 138.726562 211.519531 L 139.726562 207.5625 C 140.726562 207.5625 143.058594 207.5625 145.558594 204.726562 C 146.644531 203.476562 147.183594 202.3125 147.476562 201.519531 C 147.726562 200.851562 148.308594 198.5625 148.308594 197.394531 C 148.308594 195.894531 147.601562 195.519531 147.144531 195.519531 C 146.476562 195.519531 145.808594 196.226562 145.808594 196.8125 C 145.808594 197.144531 145.976562 197.3125 146.226562 197.519531 C 146.519531 197.8125 147.183594 198.476562 147.183594 199.769531 C 147.183594 201.476562 145.808594 203.644531 144.851562 204.601562 C 142.519531 206.976562 140.808594 206.976562 139.851562 206.976562 Z M 144.269531 189.519531 "/>
<path fill-rule="nonzero" fill="rgb(0%, 0%, 0%)" fill-opacity="1" d="M 158.484375 213.644531 C 158.484375 213.5625 158.484375 213.519531 158.027344 213.0625 C 154.734375 209.726562 153.859375 204.6875 153.859375 200.601562 C 153.859375 195.976562 154.859375 191.351562 158.152344 188.0625 C 158.484375 187.726562 158.484375 187.6875 158.484375 187.601562 C 158.484375 187.394531 158.402344 187.3125 158.234375 187.3125 C 157.941406 187.3125 155.566406 189.144531 153.984375 192.519531 C 152.652344 195.4375 152.316406 198.394531 152.316406 200.601562 C 152.316406 202.6875 152.609375 205.894531 154.066406 208.9375 C 155.691406 212.1875 157.941406 213.9375 158.234375 213.9375 C 158.402344 213.9375 158.484375 213.851562 158.484375 213.644531 Z M 158.484375 213.644531 "/>
<path fill-rule="nonzero" fill="rgb(0%, 0%, 0%)" fill-opacity="1" d="M 161.230469 210.519531 C 161.023438 211.4375 160.941406 211.601562 159.773438 211.601562 C 159.480469 211.601562 159.191406 211.601562 159.191406 212.101562 C 159.191406 212.3125 159.316406 212.4375 159.523438 212.4375 C 160.230469 212.4375 161.023438 212.351562 161.730469 212.351562 C 162.648438 212.351562 163.523438 212.4375 164.398438 212.4375 C 164.523438 212.4375 164.855469 212.4375 164.855469 211.894531 C 164.855469 211.601562 164.605469 211.601562 164.230469 211.601562 C 162.898438 211.601562 162.898438 211.4375 162.898438 211.1875 C 162.898438 210.851562 164.023438 206.519531 164.191406 205.851562 C 164.523438 206.644531 165.273438 207.5625 166.648438 207.5625 C 169.730469 207.5625 173.066406 203.6875 173.066406 199.769531 C 173.066406 197.269531 171.523438 195.519531 169.523438 195.519531 C 168.191406 195.519531 166.898438 196.476562 166.023438 197.519531 C 165.773438 196.0625 164.605469 195.519531 163.648438 195.519531 C 162.398438 195.519531 161.898438 196.5625 161.691406 197.019531 C 161.191406 197.9375 160.855469 199.519531 160.855469 199.601562 C 160.855469 199.894531 161.105469 199.894531 161.148438 199.894531 C 161.441406 199.894531 161.441406 199.851562 161.605469 199.269531 C 162.066406 197.394531 162.605469 196.101562 163.566406 196.101562 C 164.023438 196.101562 164.398438 196.3125 164.398438 197.3125 C 164.398438 197.9375 164.316406 198.226562 164.191406 198.6875 Z M 165.898438 198.976562 C 166.066406 198.269531 166.816406 197.519531 167.273438 197.101562 C 168.230469 196.3125 168.980469 196.101562 169.441406 196.101562 C 170.480469 196.101562 171.148438 197.019531 171.148438 198.601562 C 171.148438 200.1875 170.273438 203.226562 169.773438 204.226562 C 168.855469 206.101562 167.605469 206.976562 166.605469 206.976562 C 164.855469 206.976562 164.523438 204.769531 164.523438 204.601562 C 164.523438 204.5625 164.523438 204.519531 164.605469 204.1875 Z M 165.898438 198.976562 "/>
<path fill-rule="nonzero" fill="rgb(0%, 0%, 0%)" fill-opacity="1" d="M 181.058594 200.601562 C 181.058594 198.5625 180.765625 195.351562 179.308594 192.3125 C 177.726562 189.0625 175.433594 187.3125 175.183594 187.3125 C 175.015625 187.3125 174.890625 187.4375 174.890625 187.601562 C 174.890625 187.6875 174.890625 187.726562 175.390625 188.226562 C 178.015625 190.851562 179.515625 195.0625 179.515625 200.601562 C 179.515625 205.1875 178.558594 209.851562 175.265625 213.1875 C 174.890625 213.519531 174.890625 213.5625 174.890625 213.644531 C 174.890625 213.8125 175.015625 213.9375 175.183594 213.9375 C 175.433594 213.9375 177.851562 212.101562 179.390625 208.726562 C 180.765625 205.8125 181.058594 202.851562 181.058594 200.601562 Z M 181.058594 200.601562 "/>
<path fill="none" stroke-width="0.59776" stroke-linecap="butt" stroke-linejoin="miter" stroke="rgb(0%, 0%, 0%)" stroke-opacity="1" stroke-miterlimit="10" d="M 0.000207901 -1.609156 L 0.000207901 -57.702417 " transform="matrix(2.666667, 0, 0, -2.666667, 77.698664, 63.802668)"/>
<path fill="none" stroke-width="0.59776" stroke-linecap="round" stroke-linejoin="round" stroke="rgb(0%, 0%, 0%)" stroke-opacity="1" stroke-miterlimit="10" d="M -2.311852 2.74972 C -1.889977 1.10177 -0.948082 0.319544 0.00113678 0.000207901 C -0.948082 -0.320593 -1.889977 -1.101355 -2.311852 -2.750769 " transform="matrix(0, 2.666667, 2.666667, 0, 77.698664, 218.477437)"/>
<path fill-rule="nonzero" fill="rgb(0%, 0%, 0%)" fill-opacity="1" d="M 67.234375 135.359375 C 67.234375 135.234375 67.152344 135.109375 66.984375 135.109375 C 66.691406 135.109375 65.609375 136.152344 65.191406 136.945312 C 64.609375 135.484375 63.566406 135.070312 62.691406 135.070312 C 59.566406 135.070312 56.316406 138.984375 56.316406 142.859375 C 56.316406 145.445312 57.859375 147.109375 59.816406 147.109375 C 60.941406 147.109375 61.984375 146.484375 62.941406 145.527344 C 62.691406 146.445312 61.816406 150.027344 61.734375 150.277344 C 61.527344 151.027344 61.316406 151.109375 59.816406 151.152344 C 59.484375 151.152344 59.234375 151.152344 59.234375 151.695312 C 59.234375 151.695312 59.234375 151.984375 59.566406 151.984375 C 60.402344 151.984375 61.359375 151.902344 62.234375 151.902344 C 63.109375 151.902344 64.066406 151.984375 64.984375 151.984375 C 65.109375 151.984375 65.441406 151.984375 65.441406 151.445312 C 65.441406 151.152344 65.191406 151.152344 64.734375 151.152344 C 63.484375 151.152344 63.484375 150.984375 63.484375 150.734375 C 63.484375 150.527344 63.527344 150.359375 63.566406 150.152344 Z M 59.902344 146.527344 C 58.277344 146.527344 58.191406 144.484375 58.191406 144.027344 C 58.191406 142.734375 58.941406 139.859375 59.402344 138.734375 C 60.234375 136.777344 61.609375 135.652344 62.691406 135.652344 C 64.441406 135.652344 64.816406 137.820312 64.816406 137.984375 C 64.816406 138.152344 63.359375 143.984375 63.277344 144.070312 C 62.859375 144.820312 61.359375 146.527344 59.902344 146.527344 Z M 59.902344 146.527344 "/>
<path fill="none" stroke-width="0.59776" stroke-linecap="butt" stroke-linejoin="miter" stroke="rgb(0%, 0%, 0%)" stroke-opacity="1" stroke-miterlimit="10" d="M 1.608606 -119.820581 L 57.703333 -119.820581 " transform="matrix(2.666667, 0, 0, -2.666667, 77.698664, 63.802668)"/>
<path fill="none" stroke-width="0.59776" stroke-linecap="round" stroke-linejoin="round" stroke="rgb(0%, 0%, 0%)" stroke-opacity="1" stroke-miterlimit="10" d="M -2.312401 2.750824 C -1.890526 1.10141 -0.948631 0.320648 0.000587463 -0.000152588 C -0.948631 -0.319489 -1.890526 -1.101715 -2.312401 -2.749664 " transform="matrix(2.666667, 0, 0, -2.666667, 232.373433, 383.323812)"/>
<path fill-rule="nonzero" fill="rgb(0%, 0%, 0%)" fill-opacity="1" d="M 152.105469 371.757812 C 151.894531 372.671875 151.8125 372.839844 150.644531 372.839844 C 150.355469 372.839844 150.0625 372.839844 150.0625 373.339844 C 150.0625 373.546875 150.1875 373.671875 150.394531 373.671875 C 151.105469 373.671875 151.894531 373.589844 152.605469 373.589844 C 153.519531 373.589844 154.394531 373.671875 155.269531 373.671875 C 155.394531 373.671875 155.730469 373.671875 155.730469 373.132812 C 155.730469 372.839844 155.480469 372.839844 155.105469 372.839844 C 153.769531 372.839844 153.769531 372.671875 153.769531 372.421875 C 153.769531 372.089844 154.894531 367.757812 155.0625 367.089844 C 155.394531 367.882812 156.144531 368.796875 157.519531 368.796875 C 160.605469 368.796875 163.9375 364.921875 163.9375 361.007812 C 163.9375 358.507812 162.394531 356.757812 160.394531 356.757812 C 159.0625 356.757812 157.769531 357.714844 156.894531 358.757812 C 156.644531 357.296875 155.480469 356.757812 154.519531 356.757812 C 153.269531 356.757812 152.769531 357.796875 152.5625 358.257812 C 152.0625 359.171875 151.730469 360.757812 151.730469 360.839844 C 151.730469 361.132812 151.980469 361.132812 152.019531 361.132812 C 152.3125 361.132812 152.3125 361.089844 152.480469 360.507812 C 152.9375 358.632812 153.480469 357.339844 154.4375 357.339844 C 154.894531 357.339844 155.269531 357.546875 155.269531 358.546875 C 155.269531 359.171875 155.1875 359.464844 155.0625 359.921875 Z M 156.769531 360.214844 C 156.9375 359.507812 157.6875 358.757812 158.144531 358.339844 C 159.105469 357.546875 159.855469 357.339844 160.3125 357.339844 C 161.355469 357.339844 162.019531 358.257812 162.019531 359.839844 C 162.019531 361.421875 161.144531 364.464844 160.644531 365.464844 C 159.730469 367.339844 158.480469 368.214844 157.480469 368.214844 C 155.730469 368.214844 155.394531 366.007812 155.394531 365.839844 C 155.394531 365.796875 155.394531 365.757812 155.480469 365.421875 Z M 156.769531 360.214844 "/>
</svg>
