<?xml version="1.0" encoding="UTF-8"?>
<svg xmlns="http://www.w3.org/2000/svg" xmlns:xlink="http://www.w3.org/1999/xlink" width="363.333333" height="143.493337" viewBox="0 0 363.333333 143.493337">
<defs>
<clipPath id="clip-0">
<path clip-rule="nonzero" d="M 89 0 L 313 0 L 313 143.488281 L 89 143.488281 Z M 89 0 "/>
</clipPath>
<clipPath id="clip-1">
<path clip-rule="nonzero" d="M 119 5 L 282.667969 5 L 282.667969 143.488281 L 119 143.488281 Z M 119 5 "/>
</clipPath>
</defs>
<path fill-rule="nonzero" fill="rgb(0%, 0%, 0%)" fill-opacity="1" d="M 41.433594 22.566406 C 41.183594 20.898438 40.101562 19.398438 38.015625 19.398438 C 36.390625 19.398438 34.683594 19.855469 32.601562 21.898438 C 30.390625 24.105469 30.226562 26.605469 30.226562 27.398438 C 30.226562 29.066406 31.390625 32.148438 35.101562 32.148438 C 41.433594 32.148438 44.183594 23.230469 44.183594 19.398438 C 44.183594 15.191406 41.726562 12.523438 38.433594 12.523438 C 34.601562 12.523438 33.351562 15.980469 33.351562 16.730469 C 33.351562 17.105469 33.601562 17.648438 34.390625 17.648438 C 35.265625 17.648438 35.808594 16.855469 35.808594 16.273438 C 35.808594 15.316406 34.976562 15.316406 34.558594 15.316406 C 35.726562 13.355469 37.640625 13.191406 38.390625 13.191406 C 40.351562 13.191406 42.183594 14.566406 42.183594 18.023438 C 42.183594 19.066406 42.015625 20.398438 41.476562 22.566406 Z M 35.183594 31.398438 C 32.265625 31.398438 32.265625 28.648438 32.265625 28.398438 C 32.265625 27.691406 32.933594 23.980469 34.015625 22.355469 C 35.058594 20.855469 36.390625 19.980469 38.015625 19.980469 C 40.933594 19.980469 40.976562 22.980469 40.976562 23.523438 C 40.976562 25.441406 39.265625 31.398438 35.183594 31.398438 Z M 35.183594 31.398438 "/>
<path fill-rule="nonzero" fill="rgb(0%, 0%, 0%)" fill-opacity="1" d="M 52.726562 23.148438 L 57.265625 23.148438 C 61.015625 23.148438 64.726562 20.398438 64.726562 17.441406 C 64.726562 15.355469 62.976562 13.398438 59.476562 13.398438 L 50.890625 13.398438 C 50.390625 13.398438 50.101562 13.398438 50.101562 13.898438 C 50.101562 14.230469 50.308594 14.230469 50.851562 14.230469 C 51.183594 14.230469 51.683594 14.273438 51.976562 14.273438 C 52.433594 14.355469 52.558594 14.398438 52.558594 14.730469 C 52.558594 14.816406 52.558594 14.898438 52.476562 15.230469 L 48.890625 29.480469 C 48.640625 30.523438 48.601562 30.730469 46.476562 30.730469 C 46.058594 30.730469 45.765625 30.730469 45.765625 31.230469 C 45.765625 31.566406 46.058594 31.566406 46.140625 31.566406 C 46.890625 31.566406 48.765625 31.480469 49.515625 31.480469 C 50.101562 31.480469 50.683594 31.523438 51.226562 31.523438 C 51.808594 31.523438 52.390625 31.566406 52.933594 31.566406 C 53.140625 31.566406 53.476562 31.566406 53.476562 31.023438 C 53.476562 30.730469 53.226562 30.730469 52.726562 30.730469 C 51.765625 30.730469 51.015625 30.730469 51.015625 30.273438 C 51.015625 30.105469 51.058594 29.980469 51.101562 29.816406 Z M 54.640625 15.230469 C 54.890625 14.316406 54.933594 14.230469 56.101562 14.230469 L 58.640625 14.230469 C 60.851562 14.230469 62.265625 14.941406 62.265625 16.773438 C 62.265625 17.816406 61.726562 20.105469 60.683594 21.066406 C 59.351562 22.273438 57.765625 22.480469 56.601562 22.480469 L 52.851562 22.480469 Z M 54.640625 15.230469 "/>
<path fill-rule="nonzero" fill="rgb(0%, 0%, 0%)" fill-opacity="1" d="M 74.257812 37.941406 C 74.257812 37.855469 74.257812 37.816406 73.800781 37.355469 C 70.507812 34.023438 69.632812 28.980469 69.632812 24.898438 C 69.632812 20.273438 70.632812 15.648438 73.925781 12.355469 C 74.257812 12.023438 74.257812 11.980469 74.257812 11.898438 C 74.257812 11.691406 74.175781 11.605469 74.007812 11.605469 C 73.714844 11.605469 71.339844 13.441406 69.757812 16.816406 C 68.425781 19.730469 68.089844 22.691406 68.089844 24.898438 C 68.089844 26.980469 68.382812 30.191406 69.839844 33.230469 C 71.464844 36.480469 73.714844 38.230469 74.007812 38.230469 C 74.175781 38.230469 74.257812 38.148438 74.257812 37.941406 Z M 74.257812 37.941406 "/>
<path fill-rule="nonzero" fill="rgb(0%, 0%, 0%)" fill-opacity="1" d="M 79.148438 29.523438 L 81.984375 26.773438 C 86.109375 23.105469 87.691406 21.691406 87.691406 19.023438 C 87.691406 15.980469 85.316406 13.855469 82.066406 13.855469 C 79.066406 13.855469 77.109375 16.316406 77.109375 18.691406 C 77.109375 20.148438 78.441406 20.148438 78.523438 20.148438 C 78.984375 20.148438 79.898438 19.855469 79.898438 18.730469 C 79.898438 18.066406 79.398438 17.355469 78.484375 17.355469 C 78.273438 17.355469 78.234375 17.355469 78.148438 17.398438 C 78.734375 15.648438 80.191406 14.691406 81.734375 14.691406 C 84.148438 14.691406 85.273438 16.855469 85.273438 19.023438 C 85.273438 21.148438 83.984375 23.230469 82.484375 24.898438 L 77.398438 30.566406 C 77.109375 30.855469 77.109375 30.941406 77.109375 31.566406 L 86.984375 31.566406 L 87.691406 26.941406 L 87.066406 26.941406 C 86.898438 27.730469 86.734375 28.898438 86.441406 29.316406 C 86.273438 29.523438 84.523438 29.523438 83.941406 29.523438 Z M 79.148438 29.523438 "/>
<path fill-rule="nonzero" fill="rgb(0%, 0%, 0%)" fill-opacity="1" d="M 96.726562 24.898438 C 96.726562 22.855469 96.433594 19.648438 94.976562 16.605469 C 93.390625 13.355469 91.101562 11.605469 90.851562 11.605469 C 90.683594 11.605469 90.558594 11.730469 90.558594 11.898438 C 90.558594 11.980469 90.558594 12.023438 91.058594 12.523438 C 93.683594 15.148438 95.183594 19.355469 95.183594 24.898438 C 95.183594 29.480469 94.226562 34.148438 90.933594 37.480469 C 90.558594 37.816406 90.558594 37.855469 90.558594 37.941406 C 90.558594 38.105469 90.683594 38.230469 90.851562 38.230469 C 91.101562 38.230469 93.515625 36.398438 95.058594 33.023438 C 96.433594 30.105469 96.726562 27.148438 96.726562 24.898438 Z M 96.726562 24.898438 "/>
<path fill-rule="nonzero" fill="rgb(0%, 0%, 0%)" fill-opacity="1" d="M 115.652344 24.191406 L 110.359375 18.898438 C 110.027344 18.566406 109.984375 18.523438 109.777344 18.523438 C 109.484375 18.523438 109.234375 18.730469 109.234375 19.066406 C 109.234375 19.230469 109.277344 19.273438 109.566406 19.566406 L 114.902344 24.898438 L 109.566406 30.273438 C 109.277344 30.566406 109.234375 30.605469 109.234375 30.773438 C 109.234375 31.105469 109.484375 31.316406 109.777344 31.316406 C 109.984375 31.316406 110.027344 31.273438 110.359375 30.941406 L 115.652344 25.648438 L 121.152344 31.148438 C 121.191406 31.191406 121.359375 31.316406 121.527344 31.316406 C 121.859375 31.316406 122.066406 31.105469 122.066406 30.773438 C 122.066406 30.730469 122.066406 30.648438 121.984375 30.480469 C 121.941406 30.441406 117.734375 26.273438 116.402344 24.898438 L 121.277344 20.066406 C 121.402344 19.898438 121.816406 19.566406 121.941406 19.398438 C 121.941406 19.355469 122.066406 19.230469 122.066406 19.066406 C 122.066406 18.730469 121.859375 18.523438 121.527344 18.523438 C 121.316406 18.523438 121.234375 18.605469 120.941406 18.898438 Z M 115.652344 24.191406 "/>
<path fill-rule="nonzero" fill="rgb(0%, 0%, 0%)" fill-opacity="1" d="M 144.175781 22.566406 C 143.925781 20.898438 142.84375 19.398438 140.761719 19.398438 C 139.136719 19.398438 137.425781 19.855469 135.34375 21.898438 C 133.136719 24.105469 132.96875 26.605469 132.96875 27.398438 C 132.96875 29.066406 134.136719 32.148438 137.84375 32.148438 C 144.175781 32.148438 146.925781 23.230469 146.925781 19.398438 C 146.925781 15.191406 144.46875 12.523438 141.175781 12.523438 C 137.34375 12.523438 136.09375 15.980469 136.09375 16.730469 C 136.09375 17.105469 136.34375 17.648438 137.136719 17.648438 C 138.011719 17.648438 138.550781 16.855469 138.550781 16.273438 C 138.550781 15.316406 137.71875 15.316406 137.300781 15.316406 C 138.46875 13.355469 140.386719 13.191406 141.136719 13.191406 C 143.09375 13.191406 144.925781 14.566406 144.925781 18.023438 C 144.925781 19.066406 144.761719 20.398438 144.21875 22.566406 Z M 137.925781 31.398438 C 135.011719 31.398438 135.011719 28.648438 135.011719 28.398438 C 135.011719 27.691406 135.675781 23.980469 136.761719 22.355469 C 137.800781 20.855469 139.136719 19.980469 140.761719 19.980469 C 143.675781 19.980469 143.71875 22.980469 143.71875 23.523438 C 143.71875 25.441406 142.011719 31.398438 137.925781 31.398438 Z M 137.925781 31.398438 "/>
<path fill-rule="nonzero" fill="rgb(0%, 0%, 0%)" fill-opacity="1" d="M 159.214844 13.023438 C 159.046875 12.648438 158.964844 12.523438 158.503906 12.523438 C 158.089844 12.523438 158.003906 12.648438 157.839844 13.023438 L 148.839844 31.023438 C 148.714844 31.273438 148.714844 31.316406 148.714844 31.355469 C 148.714844 31.566406 148.878906 31.566406 149.296875 31.566406 L 167.753906 31.566406 C 168.171875 31.566406 168.339844 31.566406 168.339844 31.355469 C 168.339844 31.316406 168.339844 31.273438 168.214844 31.023438 Z M 157.671875 15.191406 L 164.839844 29.566406 L 150.503906 29.566406 Z M 157.671875 15.191406 "/>
<path fill-rule="nonzero" fill="rgb(0%, 0%, 0%)" fill-opacity="1" d="M 175.8125 10.089844 C 175.8125 9.589844 175.8125 9.589844 175.273438 9.589844 C 174.0625 10.757812 172.398438 10.757812 171.648438 10.757812 L 171.648438 11.421875 C 172.0625 11.421875 173.3125 11.421875 174.3125 10.921875 L 174.3125 20.382812 C 174.3125 21.007812 174.3125 21.257812 172.480469 21.257812 L 171.773438 21.257812 L 171.773438 21.921875 C 172.105469 21.921875 174.398438 21.839844 175.0625 21.839844 C 175.648438 21.839844 177.980469 21.921875 178.398438 21.921875 L 178.398438 21.257812 L 177.6875 21.257812 C 175.8125 21.257812 175.8125 21.007812 175.8125 20.382812 Z M 175.8125 10.089844 "/>
<path fill-rule="nonzero" fill="rgb(0%, 0%, 0%)" fill-opacity="1" d="M 280.476562 22.566406 C 280.226562 20.898438 279.144531 19.398438 277.0625 19.398438 C 275.4375 19.398438 273.726562 19.855469 271.644531 21.898438 C 269.4375 24.105469 269.269531 26.605469 269.269531 27.398438 C 269.269531 29.066406 270.4375 32.148438 274.144531 32.148438 C 280.476562 32.148438 283.226562 23.230469 283.226562 19.398438 C 283.226562 15.191406 280.769531 12.523438 277.476562 12.523438 C 273.644531 12.523438 272.394531 15.980469 272.394531 16.730469 C 272.394531 17.105469 272.644531 17.648438 273.4375 17.648438 C 274.3125 17.648438 274.851562 16.855469 274.851562 16.273438 C 274.851562 15.316406 274.019531 15.316406 273.601562 15.316406 C 274.769531 13.355469 276.6875 13.191406 277.4375 13.191406 C 279.394531 13.191406 281.226562 14.566406 281.226562 18.023438 C 281.226562 19.066406 281.0625 20.398438 280.519531 22.566406 Z M 274.226562 31.398438 C 271.3125 31.398438 271.3125 28.648438 271.3125 28.398438 C 271.3125 27.691406 271.976562 23.980469 273.0625 22.355469 C 274.101562 20.855469 275.4375 19.980469 277.0625 19.980469 C 279.976562 19.980469 280.019531 22.980469 280.019531 23.523438 C 280.019531 25.441406 278.3125 31.398438 274.226562 31.398438 Z M 274.226562 31.398438 "/>
<path fill-rule="nonzero" fill="rgb(0%, 0%, 0%)" fill-opacity="1" d="M 291.769531 23.148438 L 296.3125 23.148438 C 300.0625 23.148438 303.769531 20.398438 303.769531 17.441406 C 303.769531 15.355469 302.019531 13.398438 298.519531 13.398438 L 289.9375 13.398438 C 289.4375 13.398438 289.144531 13.398438 289.144531 13.898438 C 289.144531 14.230469 289.351562 14.230469 289.894531 14.230469 C 290.226562 14.230469 290.726562 14.273438 291.019531 14.273438 C 291.476562 14.355469 291.601562 14.398438 291.601562 14.730469 C 291.601562 14.816406 291.601562 14.898438 291.519531 15.230469 L 287.9375 29.480469 C 287.6875 30.523438 287.644531 30.730469 285.519531 30.730469 C 285.101562 30.730469 284.8125 30.730469 284.8125 31.230469 C 284.8125 31.566406 285.101562 31.566406 285.1875 31.566406 C 285.9375 31.566406 287.8125 31.480469 288.5625 31.480469 C 289.144531 31.480469 289.726562 31.523438 290.269531 31.523438 C 290.851562 31.523438 291.4375 31.566406 291.976562 31.566406 C 292.1875 31.566406 292.519531 31.566406 292.519531 31.023438 C 292.519531 30.730469 292.269531 30.730469 291.769531 30.730469 C 290.8125 30.730469 290.0625 30.730469 290.0625 30.273438 C 290.0625 30.105469 290.101562 29.980469 290.144531 29.816406 Z M 293.6875 15.230469 C 293.9375 14.316406 293.976562 14.230469 295.144531 14.230469 L 297.6875 14.230469 C 299.894531 14.230469 301.3125 14.941406 301.3125 16.773438 C 301.3125 17.816406 300.769531 20.105469 299.726562 21.066406 C 298.394531 22.273438 296.8125 22.480469 295.644531 22.480469 L 291.894531 22.480469 Z M 293.6875 15.230469 "/>
<path fill-rule="nonzero" fill="rgb(0%, 0%, 0%)" fill-opacity="1" d="M 313.304688 37.941406 C 313.304688 37.855469 313.304688 37.816406 312.84375 37.355469 C 309.554688 34.023438 308.679688 28.980469 308.679688 24.898438 C 308.679688 20.273438 309.679688 15.648438 312.96875 12.355469 C 313.304688 12.023438 313.304688 11.980469 313.304688 11.898438 C 313.304688 11.691406 313.21875 11.605469 313.054688 11.605469 C 312.761719 11.605469 310.386719 13.441406 308.804688 16.816406 C 307.46875 19.730469 307.136719 22.691406 307.136719 24.898438 C 307.136719 26.980469 307.429688 30.191406 308.886719 33.230469 C 310.511719 36.480469 312.761719 38.230469 313.054688 38.230469 C 313.21875 38.230469 313.304688 38.148438 313.304688 37.941406 Z M 313.304688 37.941406 "/>
<path fill-rule="nonzero" fill="rgb(0%, 0%, 0%)" fill-opacity="1" d="M 318.195312 29.523438 L 321.027344 26.773438 C 325.152344 23.105469 326.738281 21.691406 326.738281 19.023438 C 326.738281 15.980469 324.363281 13.855469 321.113281 13.855469 C 318.113281 13.855469 316.152344 16.316406 316.152344 18.691406 C 316.152344 20.148438 317.488281 20.148438 317.570312 20.148438 C 318.027344 20.148438 318.945312 19.855469 318.945312 18.730469 C 318.945312 18.066406 318.445312 17.355469 317.527344 17.355469 C 317.320312 17.355469 317.277344 17.355469 317.195312 17.398438 C 317.777344 15.648438 319.238281 14.691406 320.777344 14.691406 C 323.195312 14.691406 324.320312 16.855469 324.320312 19.023438 C 324.320312 21.148438 323.027344 23.230469 321.527344 24.898438 L 316.445312 30.566406 C 316.152344 30.855469 316.152344 30.941406 316.152344 31.566406 L 326.027344 31.566406 L 326.738281 26.941406 L 326.113281 26.941406 C 325.945312 27.730469 325.777344 28.898438 325.488281 29.316406 C 325.320312 29.523438 323.570312 29.523438 322.988281 29.523438 Z M 318.195312 29.523438 "/>
<path fill-rule="nonzero" fill="rgb(0%, 0%, 0%)" fill-opacity="1" d="M 335.769531 24.898438 C 335.769531 22.855469 335.476562 19.648438 334.019531 16.605469 C 332.4375 13.355469 330.144531 11.605469 329.894531 11.605469 C 329.726562 11.605469 329.601562 11.730469 329.601562 11.898438 C 329.601562 11.980469 329.601562 12.023438 330.101562 12.523438 C 332.726562 15.148438 334.226562 19.355469 334.226562 24.898438 C 334.226562 29.480469 333.269531 34.148438 329.976562 37.480469 C 329.601562 37.816406 329.601562 37.855469 329.601562 37.941406 C 329.601562 38.105469 329.726562 38.230469 329.894531 38.230469 C 330.144531 38.230469 332.5625 36.398438 334.101562 33.023438 C 335.476562 30.105469 335.769531 27.148438 335.769531 24.898438 Z M 335.769531 24.898438 "/>
<path fill-rule="nonzero" fill="rgb(0%, 0%, 0%)" fill-opacity="1" d="M 80.066406 118.699219 L 84.609375 118.699219 C 88.359375 118.699219 92.066406 115.949219 92.066406 112.992188 C 92.066406 110.910156 90.316406 108.949219 86.816406 108.949219 L 78.234375 108.949219 C 77.734375 108.949219 77.441406 108.949219 77.441406 109.449219 C 77.441406 109.785156 77.652344 109.785156 78.191406 109.785156 C 78.527344 109.785156 79.027344 109.824219 79.316406 109.824219 C 79.777344 109.910156 79.902344 109.949219 79.902344 110.285156 C 79.902344 110.367188 79.902344 110.449219 79.816406 110.785156 L 76.234375 125.035156 C 75.984375 126.074219 75.941406 126.285156 73.816406 126.285156 C 73.402344 126.285156 73.109375 126.285156 73.109375 126.785156 C 73.109375 127.117188 73.402344 127.117188 73.484375 127.117188 C 74.234375 127.117188 76.109375 127.035156 76.859375 127.035156 C 77.441406 127.035156 78.027344 127.074219 78.566406 127.074219 C 79.152344 127.074219 79.734375 127.117188 80.277344 127.117188 C 80.484375 127.117188 80.816406 127.117188 80.816406 126.574219 C 80.816406 126.285156 80.566406 126.285156 80.066406 126.285156 C 79.109375 126.285156 78.359375 126.285156 78.359375 125.824219 C 78.359375 125.660156 78.402344 125.535156 78.441406 125.367188 Z M 81.984375 110.785156 C 82.234375 109.867188 82.277344 109.785156 83.441406 109.785156 L 85.984375 109.785156 C 88.191406 109.785156 89.609375 110.492188 89.609375 112.324219 C 89.609375 113.367188 89.066406 115.660156 88.027344 116.617188 C 86.691406 117.824219 85.109375 118.035156 83.941406 118.035156 L 80.191406 118.035156 Z M 81.984375 110.785156 "/>
<path fill-rule="nonzero" fill="rgb(0%, 0%, 0%)" fill-opacity="1" d="M 101.5625 133.492188 C 101.5625 133.410156 101.5625 133.367188 101.105469 132.910156 C 97.8125 129.574219 96.9375 124.535156 96.9375 120.449219 C 96.9375 115.824219 97.9375 111.199219 101.230469 107.910156 C 101.5625 107.574219 101.5625 107.535156 101.5625 107.449219 C 101.5625 107.242188 101.480469 107.160156 101.3125 107.160156 C 101.019531 107.160156 98.644531 108.992188 97.0625 112.367188 C 95.730469 115.285156 95.394531 118.242188 95.394531 120.449219 C 95.394531 122.535156 95.6875 125.742188 97.144531 128.785156 C 98.769531 132.035156 101.019531 133.785156 101.3125 133.785156 C 101.480469 133.785156 101.5625 133.699219 101.5625 133.492188 Z M 101.5625 133.492188 "/>
<path fill-rule="nonzero" fill="rgb(0%, 0%, 0%)" fill-opacity="1" d="M 106.453125 125.074219 L 109.285156 122.324219 C 113.410156 118.660156 114.996094 117.242188 114.996094 114.574219 C 114.996094 111.535156 112.621094 109.410156 109.371094 109.410156 C 106.371094 109.410156 104.410156 111.867188 104.410156 114.242188 C 104.410156 115.699219 105.746094 115.699219 105.828125 115.699219 C 106.285156 115.699219 107.203125 115.410156 107.203125 114.285156 C 107.203125 113.617188 106.703125 112.910156 105.785156 112.910156 C 105.578125 112.910156 105.535156 112.910156 105.453125 112.949219 C 106.035156 111.199219 107.496094 110.242188 109.035156 110.242188 C 111.453125 110.242188 112.578125 112.410156 112.578125 114.574219 C 112.578125 116.699219 111.285156 118.785156 109.785156 120.449219 L 104.703125 126.117188 C 104.410156 126.410156 104.410156 126.492188 104.410156 127.117188 L 114.285156 127.117188 L 114.996094 122.492188 L 114.371094 122.492188 C 114.203125 123.285156 114.035156 124.449219 113.746094 124.867188 C 113.578125 125.074219 111.828125 125.074219 111.246094 125.074219 Z M 106.453125 125.074219 "/>
<path fill-rule="nonzero" fill="rgb(0%, 0%, 0%)" fill-opacity="1" d="M 124.027344 120.449219 C 124.027344 118.410156 123.738281 115.199219 122.277344 112.160156 C 120.695312 108.910156 118.402344 107.160156 118.152344 107.160156 C 117.988281 107.160156 117.863281 107.285156 117.863281 107.449219 C 117.863281 107.535156 117.863281 107.574219 118.363281 108.074219 C 120.988281 110.699219 122.488281 114.910156 122.488281 120.449219 C 122.488281 125.035156 121.527344 129.699219 118.238281 133.035156 C 117.863281 133.367188 117.863281 133.410156 117.863281 133.492188 C 117.863281 133.660156 117.988281 133.785156 118.152344 133.785156 C 118.402344 133.785156 120.820312 131.949219 122.363281 128.574219 C 123.738281 125.660156 124.027344 122.699219 124.027344 120.449219 Z M 124.027344 120.449219 "/>
<path fill-rule="nonzero" fill="rgb(0%, 0%, 0%)" fill-opacity="1" d="M 136.304688 125.1875 C 136.304688 123.144531 136.054688 121.644531 135.21875 120.355469 C 134.636719 119.519531 133.46875 118.769531 132.011719 118.769531 C 127.679688 118.769531 127.679688 123.855469 127.679688 125.1875 C 127.679688 126.519531 127.679688 131.480469 132.011719 131.480469 C 136.304688 131.480469 136.304688 126.519531 136.304688 125.1875 Z M 132.011719 130.9375 C 131.136719 130.9375 130.011719 130.4375 129.636719 128.9375 C 129.386719 127.855469 129.386719 126.3125 129.386719 124.9375 C 129.386719 123.5625 129.386719 122.144531 129.636719 121.144531 C 130.054688 119.6875 131.21875 119.269531 132.011719 119.269531 C 133.011719 119.269531 133.96875 119.894531 134.304688 120.980469 C 134.59375 121.980469 134.636719 123.3125 134.636719 124.9375 C 134.636719 126.3125 134.636719 127.6875 134.386719 128.855469 C 134.011719 130.5625 132.761719 130.9375 132.011719 130.9375 Z M 132.011719 130.9375 "/>
<path fill-rule="nonzero" fill="rgb(0%, 0%, 0%)" fill-opacity="1" d="M 290.796875 118.117188 C 290.546875 116.449219 289.460938 114.949219 287.378906 114.949219 C 285.753906 114.949219 284.046875 115.410156 281.960938 117.449219 C 279.753906 119.660156 279.585938 122.160156 279.585938 122.949219 C 279.585938 124.617188 280.753906 127.699219 284.460938 127.699219 C 290.796875 127.699219 293.546875 118.785156 293.546875 114.949219 C 293.546875 110.742188 291.085938 108.074219 287.796875 108.074219 C 283.960938 108.074219 282.710938 111.535156 282.710938 112.285156 C 282.710938 112.660156 282.960938 113.199219 283.753906 113.199219 C 284.628906 113.199219 285.171875 112.410156 285.171875 111.824219 C 285.171875 110.867188 284.335938 110.867188 283.921875 110.867188 C 285.085938 108.910156 287.003906 108.742188 287.753906 108.742188 C 289.710938 108.742188 291.546875 110.117188 291.546875 113.574219 C 291.546875 114.617188 291.378906 115.949219 290.835938 118.117188 Z M 284.546875 126.949219 C 281.628906 126.949219 281.628906 124.199219 281.628906 123.949219 C 281.628906 123.242188 282.296875 119.535156 283.378906 117.910156 C 284.421875 116.410156 285.753906 115.535156 287.378906 115.535156 C 290.296875 115.535156 290.335938 118.535156 290.335938 119.074219 C 290.335938 120.992188 288.628906 126.949219 284.546875 126.949219 Z M 284.546875 126.949219 "/>
<path fill-rule="nonzero" fill="rgb(0%, 0%, 0%)" fill-opacity="1" d="M 305.832031 108.574219 C 305.664062 108.199219 305.582031 108.074219 305.125 108.074219 C 304.707031 108.074219 304.625 108.199219 304.457031 108.574219 L 295.457031 126.574219 C 295.332031 126.824219 295.332031 126.867188 295.332031 126.910156 C 295.332031 127.117188 295.5 127.117188 295.914062 127.117188 L 314.375 127.117188 C 314.789062 127.117188 314.957031 127.117188 314.957031 126.910156 C 314.957031 126.867188 314.957031 126.824219 314.832031 126.574219 Z M 304.289062 110.742188 L 311.457031 125.117188 L 297.125 125.117188 Z M 304.289062 110.742188 "/>
<path fill-rule="nonzero" fill="rgb(0%, 0%, 0%)" fill-opacity="1" d="M 325.597656 114.101562 L 324.972656 114.101562 C 324.933594 114.519531 324.722656 115.601562 324.472656 115.769531 C 324.347656 115.894531 322.933594 115.894531 322.640625 115.894531 L 319.222656 115.894531 C 321.183594 114.1875 321.847656 113.644531 322.933594 112.769531 C 324.308594 111.6875 325.597656 110.519531 325.597656 108.769531 C 325.597656 106.519531 323.640625 105.144531 321.265625 105.144531 C 318.972656 105.144531 317.390625 106.769531 317.390625 108.476562 C 317.390625 109.394531 318.183594 109.519531 318.390625 109.519531 C 318.808594 109.519531 319.347656 109.1875 319.347656 108.519531 C 319.347656 108.1875 319.222656 107.519531 318.265625 107.519531 C 318.847656 106.226562 320.097656 105.8125 320.972656 105.8125 C 322.847656 105.8125 323.808594 107.269531 323.808594 108.769531 C 323.808594 110.394531 322.640625 111.644531 322.058594 112.3125 L 317.597656 116.769531 C 317.390625 116.9375 317.390625 116.976562 317.390625 117.476562 L 325.058594 117.476562 Z M 325.597656 114.101562 "/>
<path fill="none" stroke-width="0.39848" stroke-linecap="butt" stroke-linejoin="miter" stroke="rgb(0%, 0%, 0%)" stroke-opacity="1" stroke-miterlimit="10" d="M 3.640892 17.598763 L 26.753197 17.598763 " transform="matrix(2.666667, 0, 0, -2.666667, 183.802673, 71.848002)"/>
<path fill="none" stroke-width="0.39848" stroke-linecap="round" stroke-linejoin="round" stroke="rgb(0%, 0%, 0%)" stroke-opacity="1" stroke-miterlimit="10" d="M -2.074181 2.391626 C -1.694786 0.954615 -0.851036 0.279322 0.000038147 0.00100136 C -0.851036 -0.280249 -1.694786 -0.955542 -2.074181 -2.389624 " transform="matrix(2.666667, 0, 0, -2.666667, 255.67568, 24.920639)"/>
<path fill-rule="nonzero" fill="rgb(0%, 0%, 0%)" fill-opacity="1" d="M 214.824219 16.636719 C 213.613281 16.636719 213.449219 16.636719 213.449219 15.84375 L 213.449219 12.84375 C 213.53125 12.929688 214.40625 13.886719 215.949219 13.886719 C 218.40625 13.886719 220.488281 12.054688 220.488281 9.71875 C 220.488281 7.429688 218.613281 5.511719 216.238281 5.511719 C 215.199219 5.511719 214.113281 5.929688 213.363281 6.679688 L 213.363281 5.511719 L 210.574219 5.71875 L 210.574219 6.386719 C 211.863281 6.386719 211.949219 6.511719 211.949219 7.261719 L 211.949219 15.84375 C 211.949219 16.636719 211.78125 16.636719 210.574219 16.636719 L 210.574219 17.34375 C 210.613281 17.34375 211.90625 17.261719 212.699219 17.261719 C 213.363281 17.261719 214.65625 17.304688 214.824219 17.34375 Z M 213.449219 7.511719 C 213.988281 6.59375 215.074219 6.136719 216.03125 6.136719 C 217.613281 6.136719 218.824219 7.761719 218.824219 9.71875 C 218.824219 11.84375 217.40625 13.386719 215.863281 13.386719 C 214.199219 13.386719 213.488281 11.96875 213.449219 11.84375 Z M 213.449219 7.511719 "/>
<path fill-rule="nonzero" fill="rgb(0%, 0%, 0%)" fill-opacity="1" d="M 225.082031 9.46875 C 225.082031 7.929688 225.789062 6.054688 227.582031 6.054688 C 227.414062 6.179688 227.246094 6.429688 227.246094 6.71875 C 227.246094 7.34375 227.746094 7.554688 228.082031 7.554688 C 228.539062 7.554688 228.957031 7.261719 228.957031 6.71875 C 228.957031 6.09375 228.332031 5.511719 227.457031 5.511719 C 226.539062 5.511719 225.496094 6.09375 224.957031 7.511719 L 224.957031 5.511719 L 222.289062 5.71875 L 222.289062 6.386719 C 223.539062 6.386719 223.664062 6.511719 223.664062 7.429688 L 223.664062 12.261719 C 223.664062 13.054688 223.496094 13.054688 222.289062 13.054688 L 222.289062 13.71875 C 222.371094 13.71875 223.621094 13.636719 224.414062 13.636719 C 225.207031 13.636719 225.996094 13.679688 226.832031 13.71875 L 226.832031 13.054688 L 226.457031 13.054688 C 225.082031 13.054688 225.082031 12.84375 225.082031 12.21875 Z M 225.082031 9.46875 "/>
<path fill-rule="nonzero" fill="rgb(0%, 0%, 0%)" fill-opacity="1" d="M 234.984375 10.207031 C 234.984375 9.832031 234.941406 9.832031 234.484375 9.832031 C 233.566406 10.667969 232.066406 10.667969 231.816406 10.667969 L 231.609375 10.667969 L 231.609375 11.25 L 231.816406 11.25 C 232.109375 11.25 232.984375 11.207031 233.777344 10.875 L 233.777344 17.542969 C 233.777344 17.917969 233.777344 18.082031 232.359375 18.082031 L 231.691406 18.082031 L 231.691406 18.667969 C 232.402344 18.625 233.609375 18.625 234.359375 18.625 C 235.152344 18.625 236.316406 18.625 237.066406 18.667969 L 237.066406 18.082031 L 236.402344 18.082031 C 234.984375 18.082031 234.984375 17.917969 234.984375 17.542969 Z M 234.984375 10.207031 "/>
<path fill="none" stroke-width="0.39848" stroke-linecap="butt" stroke-linejoin="miter" stroke="rgb(0%, 0%, 0%)" stroke-opacity="1" stroke-miterlimit="10" d="M -29.426491 8.76722 L -29.426491 -9.00573 " transform="matrix(2.666667, 0, 0, -2.666667, 183.802673, 71.848002)"/>
<path fill="none" stroke-width="0.39848" stroke-linecap="round" stroke-linejoin="round" stroke="rgb(0%, 0%, 0%)" stroke-opacity="1" stroke-miterlimit="10" d="M -2.070515 2.389835 C -1.69112 0.957218 -0.851765 0.277531 -0.00069046 -0.000789642 C -0.851765 -0.277645 -1.69112 -0.957333 -2.070515 -2.391415 " transform="matrix(0, 2.666667, 2.666667, 0, 105.334137, 96.396372)"/>
<path fill-rule="nonzero" fill="rgb(0%, 0%, 0%)" fill-opacity="1" d="M 82.109375 65.109375 C 81.984375 64.777344 81.945312 64.691406 81.734375 64.691406 C 81.527344 64.691406 81.445312 64.859375 81.320312 65.066406 L 77.109375 76.191406 C 76.859375 76.777344 76.484375 77.066406 75.984375 77.109375 C 75.902344 77.109375 75.609375 77.152344 75.609375 77.441406 C 75.609375 77.777344 75.902344 77.777344 76.234375 77.777344 L 79.195312 77.777344 C 79.527344 77.777344 79.820312 77.777344 79.820312 77.441406 C 79.820312 77.152344 79.570312 77.152344 79.402344 77.109375 C 79.152344 77.109375 78.695312 77.027344 78.695312 75.902344 C 78.695312 75.316406 78.820312 74.691406 78.945312 74.109375 L 83.027344 74.109375 C 83.695312 75.941406 83.695312 76.234375 83.734375 76.609375 C 83.277344 77.066406 82.777344 77.109375 82.570312 77.109375 C 82.359375 77.152344 82.234375 77.277344 82.234375 77.441406 C 82.234375 77.777344 82.527344 77.777344 82.859375 77.777344 L 87.695312 77.777344 C 88.027344 77.777344 88.359375 77.777344 88.359375 77.441406 C 88.359375 77.191406 88.109375 77.152344 87.945312 77.109375 C 87.527344 77.066406 87.195312 76.734375 86.820312 75.902344 Z M 79.152344 73.484375 C 79.570312 71.816406 80.152344 70.234375 80.777344 68.691406 C 81.359375 69.941406 82.484375 72.609375 82.777344 73.484375 Z M 78.027344 75.527344 L 78.070312 75.566406 L 78.070312 75.734375 C 78.027344 75.777344 78.027344 75.816406 78.027344 75.902344 C 78.027344 75.984375 78.027344 76.691406 78.320312 77.109375 L 77.320312 77.109375 C 77.527344 76.859375 77.609375 76.652344 77.734375 76.359375 Z M 81.070312 67.691406 L 81.734375 65.902344 L 86.234375 76.152344 C 86.320312 76.359375 86.527344 76.777344 86.777344 77.109375 L 84.152344 77.109375 C 84.320312 77.027344 84.402344 76.734375 84.402344 76.527344 C 84.402344 75.402344 82.777344 71.609375 81.984375 69.777344 Z M 81.070312 67.691406 "/>
<path fill-rule="nonzero" fill="rgb(0%, 0%, 0%)" fill-opacity="1" d="M 96.710938 76.183594 C 96.710938 75.226562 96.710938 71.601562 93.210938 71.601562 C 89.75 71.601562 89.75 75.226562 89.75 76.183594 C 89.75 77.144531 89.75 80.726562 93.210938 80.726562 C 96.710938 80.726562 96.710938 77.144531 96.710938 76.183594 Z M 93.210938 80.269531 C 92.75 80.269531 91.625 80.101562 91.292969 78.769531 C 91.085938 78.058594 91.085938 77.101562 91.085938 76.019531 C 91.085938 75.019531 91.085938 74.101562 91.292969 73.351562 C 91.625 72.226562 92.667969 72.019531 93.210938 72.019531 C 94.210938 72.019531 94.917969 72.519531 95.167969 73.476562 C 95.375 74.144531 95.375 75.226562 95.375 76.019531 C 95.375 76.933594 95.375 78.019531 95.167969 78.808594 C 94.835938 80.101562 93.75 80.269531 93.210938 80.269531 Z M 93.210938 80.269531 "/>
<path fill="none" stroke-width="0.39848" stroke-linecap="butt" stroke-linejoin="miter" stroke="rgb(0%, 0%, 0%)" stroke-opacity="1" stroke-miterlimit="10" d="M 44.82058 8.76722 L 44.82058 -8.369987 " transform="matrix(2.666667, 0, 0, -2.666667, 183.802673, 71.848002)"/>
<path fill="none" stroke-width="0.39848" stroke-linecap="round" stroke-linejoin="round" stroke="rgb(0%, 0%, 0%)" stroke-opacity="1" stroke-miterlimit="10" d="M -2.073021 2.389938 C -1.695091 0.955856 -0.851341 0.280563 0.00119781 -0.000686646 C -0.851341 -0.279007 -1.695091 -0.958694 -2.073021 -2.391312 " transform="matrix(0, 2.666667, 2.666667, 0, 303.32605, 94.696025)"/>
<path fill-rule="nonzero" fill="rgb(0%, 0%, 0%)" fill-opacity="1" d="M 315.582031 68.515625 C 317.121094 67.851562 317.789062 67.601562 318.246094 67.351562 C 318.621094 67.226562 318.789062 67.140625 318.789062 66.765625 C 318.789062 66.476562 318.539062 66.183594 318.207031 66.183594 C 318.082031 66.183594 318.039062 66.183594 317.832031 66.351562 L 315.289062 68.058594 L 315.582031 65.308594 C 315.621094 64.976562 315.582031 64.515625 314.996094 64.515625 C 314.789062 64.515625 314.414062 64.640625 314.414062 65.058594 C 314.414062 65.226562 314.496094 65.765625 314.539062 65.976562 C 314.582031 66.265625 314.707031 67.640625 314.746094 68.058594 L 312.207031 66.351562 C 312.039062 66.265625 311.996094 66.183594 311.832031 66.183594 C 311.457031 66.183594 311.246094 66.476562 311.246094 66.765625 C 311.246094 67.140625 311.457031 67.265625 311.621094 67.308594 L 314.414062 68.515625 C 312.914062 69.183594 312.207031 69.433594 311.746094 69.640625 C 311.414062 69.808594 311.246094 69.890625 311.246094 70.226562 C 311.246094 70.558594 311.457031 70.808594 311.832031 70.808594 C 311.957031 70.808594 311.996094 70.808594 312.207031 70.640625 L 314.746094 68.976562 L 314.414062 71.933594 C 314.414062 72.351562 314.789062 72.515625 314.996094 72.515625 C 315.246094 72.515625 315.582031 72.351562 315.582031 71.933594 C 315.582031 71.765625 315.496094 71.226562 315.496094 71.058594 C 315.457031 70.726562 315.332031 69.390625 315.289062 68.976562 L 317.496094 70.433594 C 317.996094 70.808594 318.039062 70.808594 318.207031 70.808594 C 318.539062 70.808594 318.789062 70.558594 318.789062 70.226562 C 318.789062 69.851562 318.539062 69.765625 318.371094 69.683594 Z M 315.582031 68.515625 "/>
<path fill-rule="nonzero" fill="rgb(0%, 0%, 0%)" fill-opacity="1" d="M 324.382812 71.082031 C 324.675781 70.707031 325.300781 70.207031 326.507812 70.207031 C 327.507812 70.207031 329.050781 70.707031 329.050781 72.832031 C 329.050781 73.457031 328.925781 74.125 328.757812 74.707031 C 328.589844 74.082031 327.925781 73.125 326.382812 73.125 C 325.425781 73.125 324.425781 73.292969 323.132812 74.332031 C 321.925781 75.332031 321.839844 76.582031 321.839844 76.957031 C 321.839844 77.625 322.132812 78.207031 322.757812 78.75 C 323.425781 79.375 324.214844 79.5 325.050781 79.5 C 329.007812 79.5 330.339844 75.082031 330.339844 73.417969 C 330.339844 71.25 328.757812 69.707031 326.507812 69.707031 C 324.050781 69.707031 323.464844 71.457031 323.464844 71.917969 C 323.464844 72.207031 323.675781 72.457031 324.007812 72.457031 C 324.507812 72.457031 324.839844 72.042969 324.839844 71.625 C 324.839844 71.167969 324.382812 71.082031 324.382812 71.082031 Z M 325.089844 78.957031 C 323.589844 78.957031 323.132812 78.125 323.132812 77.375 C 323.132812 77.207031 323.300781 75.417969 324.175781 74.5 C 325.089844 73.542969 326.132812 73.542969 326.464844 73.542969 C 327.882812 73.542969 328.507812 74.5 328.507812 75.417969 C 328.507812 76.082031 327.757812 78.957031 325.089844 78.957031 Z M 325.089844 78.957031 "/>
<path fill-rule="nonzero" fill="rgb(0%, 0%, 0%)" fill-opacity="1" d="M 339.171875 70 C 339.003906 69.75 338.921875 69.707031 338.628906 69.707031 C 338.339844 69.707031 338.253906 69.75 338.089844 70 L 332.628906 78.875 C 332.503906 79 332.503906 79.042969 332.503906 79.042969 C 332.503906 79.207031 332.628906 79.207031 332.839844 79.207031 L 344.378906 79.207031 C 344.589844 79.207031 344.714844 79.207031 344.714844 79.042969 C 344.714844 79.042969 344.714844 79 344.628906 78.875 Z M 338.128906 71.042969 L 342.421875 78 L 333.839844 78 Z M 338.128906 71.042969 "/>
<path fill-rule="nonzero" fill="rgb(0%, 0%, 0%)" fill-opacity="1" d="M 353.746094 72.710938 L 353.160156 72.710938 C 353.160156 72.960938 352.996094 73.796875 352.785156 73.921875 C 352.703125 74.003906 351.578125 74.003906 351.371094 74.003906 L 348.785156 74.003906 C 349.660156 73.378906 350.621094 72.628906 351.410156 72.085938 C 352.621094 71.253906 353.746094 70.503906 353.746094 69.085938 C 353.746094 67.378906 352.121094 66.460938 350.246094 66.460938 C 348.453125 66.460938 347.121094 67.460938 347.121094 68.796875 C 347.121094 69.460938 347.703125 69.585938 347.910156 69.585938 C 348.246094 69.585938 348.660156 69.335938 348.660156 68.796875 C 348.660156 68.335938 348.328125 68.046875 347.910156 68.046875 C 348.285156 67.421875 349.078125 67.046875 349.953125 67.046875 C 351.246094 67.046875 352.328125 67.796875 352.328125 69.085938 C 352.328125 70.210938 351.535156 71.085938 350.535156 71.921875 L 347.285156 74.671875 C 347.160156 74.796875 347.121094 74.796875 347.121094 74.878906 L 347.121094 75.296875 L 353.285156 75.296875 Z M 353.746094 72.710938 "/>
<g clip-path="url(#clip-0)">
<path fill="none" stroke-width="2.33075" stroke-linecap="butt" stroke-linejoin="miter" stroke="rgb(0%, 0%, 0%)" stroke-opacity="1" stroke-miterlimit="10" d="M -2.57444 -5.276237 L 15.312767 3.357552 " transform="matrix(2.666667, 0, 0, -2.666667, 183.802673, 71.848002)"/>
</g>
<g clip-path="url(#clip-1)">
<path fill="none" stroke-width="1.53377" stroke-linecap="butt" stroke-linejoin="miter" stroke="rgb(100%, 100%, 100%)" stroke-opacity="1" stroke-miterlimit="10" d="M -2.57444 -5.276237 L 15.312767 3.357552 " transform="matrix(2.666667, 0, 0, -2.666667, 183.802673, 71.848002)"/>
</g>
<path fill="none" stroke-width="0.39848" stroke-linecap="round" stroke-linejoin="round" stroke="rgb(0%, 0%, 0%)" stroke-opacity="1" stroke-miterlimit="10" d="M -1.295199 2.563136 C -0.664353 1.207817 1.021916 0.0473908 1.988961 0.00190558 C 1.022603 -0.0489131 -0.668046 -1.205969 -1.295839 -2.560491 " transform="matrix(2.401413, -1.159147, -1.159147, -2.401413, 224.632141, 62.892105)"/>
<path fill-rule="nonzero" fill="rgb(0%, 0%, 0%)" fill-opacity="1" d="M 215.503906 79.96875 C 215.503906 79.929688 215.546875 79.679688 215.546875 79.679688 C 215.546875 79.554688 215.503906 79.386719 215.253906 79.386719 C 214.878906 79.386719 213.339844 79.554688 212.878906 79.59375 C 212.753906 79.59375 212.464844 79.636719 212.464844 80.011719 C 212.464844 80.261719 212.753906 80.261719 212.964844 80.261719 C 213.839844 80.261719 213.839844 80.429688 213.839844 80.554688 C 213.839844 80.679688 213.796875 80.804688 213.796875 80.96875 L 211.171875 91.46875 C 211.046875 91.804688 211.046875 91.84375 211.046875 91.886719 C 211.046875 92.179688 211.296875 92.46875 211.714844 92.46875 C 211.921875 92.46875 212.253906 92.386719 212.464844 92.011719 C 212.503906 91.886719 212.671875 91.21875 212.753906 90.84375 L 213.214844 89.179688 C 213.253906 88.886719 213.464844 88.179688 213.503906 87.929688 C 213.671875 87.21875 213.671875 87.179688 214.046875 86.59375 C 214.671875 85.679688 215.589844 84.636719 217.046875 84.636719 C 218.089844 84.636719 218.128906 85.46875 218.128906 85.929688 C 218.128906 87.054688 217.339844 89.09375 217.046875 89.886719 C 216.839844 90.429688 216.753906 90.59375 216.753906 90.886719 C 216.753906 91.886719 217.589844 92.46875 218.503906 92.46875 C 220.378906 92.46875 221.214844 89.929688 221.214844 89.636719 C 221.214844 89.386719 220.964844 89.386719 220.878906 89.386719 C 220.628906 89.386719 220.628906 89.511719 220.546875 89.71875 C 220.128906 91.21875 219.296875 91.96875 218.589844 91.96875 C 218.171875 91.96875 218.089844 91.71875 218.089844 91.304688 C 218.089844 90.886719 218.214844 90.636719 218.546875 89.804688 C 218.753906 89.21875 219.503906 87.261719 219.503906 86.21875 C 219.503906 85.929688 219.503906 85.136719 218.839844 84.59375 C 218.503906 84.386719 217.964844 84.09375 217.089844 84.09375 C 215.753906 84.09375 214.753906 84.84375 214.089844 85.636719 Z M 215.503906 79.96875 "/>
<path fill-rule="nonzero" fill="rgb(0%, 0%, 0%)" fill-opacity="1" d="M 227.402344 86.503906 C 227.402344 86.128906 227.359375 86.128906 226.902344 86.128906 C 225.984375 86.960938 224.484375 86.960938 224.234375 86.960938 L 224.027344 86.960938 L 224.027344 87.546875 L 224.234375 87.546875 C 224.527344 87.546875 225.402344 87.503906 226.191406 87.171875 L 226.191406 93.835938 C 226.191406 94.210938 226.191406 94.378906 224.777344 94.378906 L 224.109375 94.378906 L 224.109375 94.960938 C 224.816406 94.921875 226.027344 94.921875 226.777344 94.921875 C 227.566406 94.921875 228.734375 94.921875 229.484375 94.960938 L 229.484375 94.378906 L 228.816406 94.378906 C 227.402344 94.378906 227.402344 94.210938 227.402344 93.835938 Z M 227.402344 86.503906 "/>
<path fill="none" stroke-width="0.39848" stroke-linecap="butt" stroke-linejoin="miter" stroke="rgb(0%, 0%, 0%)" stroke-opacity="1" stroke-miterlimit="10" d="M -12.441628 -18.237175 L 30.620384 -18.237175 " transform="matrix(2.666667, 0, 0, -2.666667, 183.802673, 71.848002)"/>
<path fill="none" stroke-width="0.39848" stroke-linecap="round" stroke-linejoin="round" stroke="rgb(0%, 0%, 0%)" stroke-opacity="1" stroke-miterlimit="10" d="M -2.071815 2.388828 C -1.692421 0.956211 -0.848671 0.279453 -0.00199127 -0.00179672 C -0.848671 -0.278652 -1.692421 -0.953945 -2.071815 -2.392422 " transform="matrix(2.666667, 0, 0, -2.666667, 265.993591, 120.475677)"/>
<path fill-rule="nonzero" fill="rgb(0%, 0%, 0%)" fill-opacity="1" d="M 249.25 101.542969 C 248.960938 101.542969 248.5 101.542969 248.5 101.960938 C 248.5 102.460938 248.917969 102.460938 249.25 102.460938 L 255.75 102.460938 C 256.375 102.460938 256.460938 102.335938 256.460938 101.753906 L 256.460938 95.167969 C 256.460938 94.878906 256.460938 94.460938 256.042969 94.460938 C 255.542969 94.460938 255.542969 94.960938 255.542969 95.253906 L 255.542969 101.542969 Z M 249.25 101.542969 "/>
</svg>
