<?xml version="1.0" encoding="UTF-8"?>
<svg xmlns="http://www.w3.org/2000/svg" xmlns:xlink="http://www.w3.org/1999/xlink" width="282.506673" height="276.639994" viewBox="0 0 282.506673 276.639994">
<defs>
<clipPath id="clip-0">
<path clip-rule="nonzero" d="M 104 68 L 222 68 L 222 276.636719 L 104 276.636719 Z M 104 68 "/>
</clipPath>
<clipPath id="clip-1">
<path clip-rule="nonzero" d="M 78 118 L 196 118 L 196 276.636719 L 78 276.636719 Z M 78 118 "/>
</clipPath>
<clipPath id="clip-2">
<path clip-rule="nonzero" d="M 219 111 L 282.511719 111 L 282.511719 179 L 219 179 Z M 219 111 "/>
</clipPath>
</defs>
<path fill="none" stroke-width="0.3985" stroke-linecap="butt" stroke-linejoin="miter" stroke="rgb(0%, 0%, 0%)" stroke-opacity="1" stroke-dasharray="0.3985 3.9851" stroke-miterlimit="10" d="M 9.97049 9.267956 L 38.829376 -2.377552 " transform="matrix(2.666667, 0, 0, -2.666667, 150.079997, 138.76533)"/>
<g clip-path="url(#clip-0)">
<path fill="none" stroke-width="1.19553" stroke-linecap="butt" stroke-linejoin="miter" stroke="rgb(0%, 0%, 0%)" stroke-opacity="1" stroke-miterlimit="10" d="M 9.97049 9.267956 L 0.000762939 -38.53722 " transform="matrix(2.666667, 0, 0, -2.666667, 150.079997, 138.76533)"/>
</g>
<path fill="none" stroke-width="1.19553" stroke-linecap="butt" stroke-linejoin="miter" stroke="rgb(0%, 0%, 0%)" stroke-opacity="1" stroke-miterlimit="10" d="M -0.00216675 38.536999 L 9.97049 9.267956 " transform="matrix(2.666667, 0, 0, -2.666667, 150.079997, 138.76533)"/>
<path fill="none" stroke-width="0.3985" stroke-linecap="butt" stroke-linejoin="miter" stroke="rgb(0%, 0%, 0%)" stroke-opacity="1" stroke-dasharray="0.3985 3.9851" stroke-miterlimit="10" d="M -38.826385 2.377331 L 9.97049 9.267956 " transform="matrix(2.666667, 0, 0, -2.666667, 150.079997, 138.76533)"/>
<path fill-rule="nonzero" fill="rgb(0%, 0%, 0%)" fill-opacity="1" stroke-width="0.79701" stroke-linecap="butt" stroke-linejoin="miter" stroke="rgb(0%, 25.098039%, 0%)" stroke-opacity="1" stroke-miterlimit="10" d="M 11.379669 9.267956 C 11.379669 10.044323 10.751251 10.677135 9.97049 10.677135 C 9.192657 10.677135 8.56424 10.044323 8.56424 9.267956 C 8.56424 8.490124 9.192657 7.857311 9.97049 7.857311 C 10.751251 7.857311 11.379669 8.490124 11.379669 9.267956 Z M 11.379669 9.267956 " transform="matrix(2.666667, 0, 0, -2.666667, 150.079997, 138.76533)"/>
<path fill-rule="nonzero" fill="rgb(0%, 0%, 94.901961%)" fill-opacity="0.1" d="M 123.488281 163.480469 L 253.625 145.105469 L 150.074219 36 Z M 123.488281 163.480469 "/>
<path fill="none" stroke-width="0.3985" stroke-linecap="butt" stroke-linejoin="miter" stroke="rgb(0%, 0%, 0%)" stroke-opacity="1" stroke-miterlimit="10" d="M 38.829376 -2.377552 L 0.000762939 -38.53722 " transform="matrix(2.666667, 0, 0, -2.666667, 150.079997, 138.76533)"/>
<path fill="none" stroke-width="0.3985" stroke-linecap="butt" stroke-linejoin="miter" stroke="rgb(0%, 0%, 0%)" stroke-opacity="1" stroke-miterlimit="10" d="M 38.829376 -2.377552 L -0.00216675 38.536999 " transform="matrix(2.666667, 0, 0, -2.666667, 150.079997, 138.76533)"/>
<path fill="none" stroke-width="0.3985" stroke-linecap="butt" stroke-linejoin="miter" stroke="rgb(0%, 0%, 0%)" stroke-opacity="1" stroke-miterlimit="10" d="M 38.829376 -2.377552 L -9.971893 -9.268177 " transform="matrix(2.666667, 0, 0, -2.666667, 150.079997, 138.76533)"/>
<path fill="none" stroke-width="0.3985" stroke-linecap="butt" stroke-linejoin="miter" stroke="rgb(0%, 0%, 0%)" stroke-opacity="1" stroke-miterlimit="10" d="M 0.000762939 -38.53722 L -38.826385 2.377331 " transform="matrix(2.666667, 0, 0, -2.666667, 150.079997, 138.76533)"/>
<g clip-path="url(#clip-1)">
<path fill="none" stroke-width="1.19553" stroke-linecap="butt" stroke-linejoin="miter" stroke="rgb(0%, 0%, 0%)" stroke-opacity="1" stroke-miterlimit="10" d="M 0.000762939 -38.53722 L -9.971893 -9.268177 " transform="matrix(2.666667, 0, 0, -2.666667, 150.079997, 138.76533)"/>
</g>
<path fill="none" stroke-width="0.3985" stroke-linecap="butt" stroke-linejoin="miter" stroke="rgb(0%, 0%, 0%)" stroke-opacity="1" stroke-miterlimit="10" d="M -0.00216675 38.536999 L -38.826385 2.377331 " transform="matrix(2.666667, 0, 0, -2.666667, 150.079997, 138.76533)"/>
<path fill="none" stroke-width="1.19553" stroke-linecap="butt" stroke-linejoin="miter" stroke="rgb(100%, 0%, 0%)" stroke-opacity="1" stroke-miterlimit="10" d="M -9.971893 -9.268177 L -0.00216675 38.536999 " transform="matrix(2.666667, 0, 0, -2.666667, 150.079997, 138.76533)"/>
<path fill="none" stroke-width="0.3985" stroke-linecap="butt" stroke-linejoin="miter" stroke="rgb(0%, 0%, 0%)" stroke-opacity="1" stroke-miterlimit="10" d="M -9.971893 -9.268177 L -38.826385 2.377331 " transform="matrix(2.666667, 0, 0, -2.666667, 150.079997, 138.76533)"/>
<path fill-rule="nonzero" fill="rgb(0%, 0%, 0%)" fill-opacity="1" d="M 257.375 145.105469 C 257.375 143.03125 255.699219 141.355469 253.625 141.355469 C 251.550781 141.355469 249.863281 143.03125 249.863281 145.105469 C 249.863281 147.175781 251.550781 148.863281 253.625 148.863281 C 255.699219 148.863281 257.375 147.175781 257.375 145.105469 Z M 257.375 145.105469 "/>
<g clip-path="url(#clip-2)">
<path fill="none" stroke-width="0.79701" stroke-linecap="butt" stroke-linejoin="miter" stroke="rgb(0%, 25.098039%, 0%)" stroke-opacity="1" stroke-miterlimit="10" d="M 40.235626 -2.377552 C 40.235626 -1.59972 39.607208 -0.971302 38.829376 -0.971302 C 38.051544 -0.971302 37.418732 -1.59972 37.418732 -2.377552 C 37.418732 -3.153919 38.051544 -3.786732 38.829376 -3.786732 C 39.607208 -3.786732 40.235626 -3.153919 40.235626 -2.377552 Z M 40.235626 -2.377552 " transform="matrix(2.666667, 0, 0, -2.666667, 150.079997, 138.76533)"/>
</g>
<path fill-rule="nonzero" fill="rgb(0%, 0%, 0%)" fill-opacity="1" d="M 268.65625 121.765625 C 268.65625 121.765625 268.65625 121.472656 268.324219 121.472656 C 267.738281 121.472656 265.78125 121.679688 265.074219 121.765625 C 264.863281 121.765625 264.574219 121.804688 264.574219 122.265625 C 264.574219 122.597656 264.824219 122.597656 265.238281 122.597656 C 266.488281 122.597656 266.53125 122.765625 266.53125 123.054688 C 266.53125 123.222656 266.324219 124.140625 266.199219 124.679688 L 263.988281 133.347656 C 263.699219 134.679688 263.574219 135.140625 263.574219 136.054688 C 263.574219 138.554688 264.988281 140.222656 266.949219 140.222656 C 270.074219 140.222656 273.363281 136.265625 273.363281 132.429688 C 273.363281 130.015625 271.949219 128.179688 269.824219 128.179688 C 268.613281 128.179688 267.488281 128.972656 266.699219 129.765625 Z M 266.199219 131.804688 C 266.324219 131.222656 266.324219 131.179688 266.574219 130.890625 C 267.863281 129.179688 269.074219 128.765625 269.78125 128.765625 C 270.738281 128.765625 271.449219 129.554688 271.449219 131.265625 C 271.449219 132.847656 270.574219 135.890625 270.074219 136.890625 C 269.199219 138.679688 267.988281 139.640625 266.949219 139.640625 C 266.03125 139.640625 265.15625 138.929688 265.15625 136.972656 C 265.15625 136.429688 265.15625 135.929688 265.574219 134.265625 Z M 266.199219 131.804688 "/>
<path fill-rule="nonzero" fill="rgb(0%, 0%, 0%)" fill-opacity="1" stroke-width="0.79701" stroke-linecap="butt" stroke-linejoin="miter" stroke="rgb(0%, 25.098039%, 0%)" stroke-opacity="1" stroke-miterlimit="10" d="M 1.411407 -38.53722 C 1.411407 -37.759388 0.778595 -37.13097 0.000762939 -37.13097 C -0.775604 -37.13097 -1.408417 -37.759388 -1.408417 -38.53722 C -1.408417 -39.317982 -0.775604 -39.947865 0.000762939 -39.947865 C 0.778595 -39.947865 1.411407 -39.317982 1.411407 -38.53722 Z M 1.411407 -38.53722 " transform="matrix(2.666667, 0, 0, -2.666667, 150.079997, 138.76533)"/>
<path fill-rule="nonzero" fill="rgb(0%, 0%, 0%)" fill-opacity="1" d="M 156.011719 255.039062 C 156.136719 254.664062 156.136719 254.625 156.136719 254.414062 C 156.136719 253.957031 155.761719 253.707031 155.347656 253.707031 C 155.097656 253.707031 154.679688 253.875 154.429688 254.25 C 154.386719 254.414062 154.136719 255.207031 154.054688 255.707031 C 153.847656 256.375 153.679688 257.125 153.511719 257.832031 L 152.304688 262.625 C 152.222656 263 151.054688 264.875 149.304688 264.875 C 147.972656 264.875 147.679688 263.707031 147.679688 262.707031 C 147.679688 261.5 148.136719 259.832031 149.011719 257.5 C 149.429688 256.414062 149.554688 256.125 149.554688 255.582031 C 149.554688 254.414062 148.722656 253.414062 147.386719 253.414062 C 144.847656 253.414062 143.886719 257.289062 143.886719 257.5 C 143.886719 257.789062 144.136719 257.789062 144.179688 257.789062 C 144.472656 257.789062 144.472656 257.707031 144.597656 257.289062 C 145.347656 254.789062 146.386719 254 147.304688 254 C 147.511719 254 147.972656 254 147.972656 254.832031 C 147.972656 255.5 147.679688 256.207031 147.511719 256.707031 C 146.429688 259.539062 145.972656 261.039062 145.972656 262.289062 C 145.972656 264.664062 147.636719 265.457031 149.222656 265.457031 C 150.261719 265.457031 151.136719 265 151.886719 264.25 C 151.554688 265.625 151.222656 266.957031 150.179688 268.375 C 149.472656 269.25 148.472656 270.039062 147.261719 270.039062 C 146.886719 270.039062 145.679688 269.957031 145.222656 268.914062 C 145.636719 268.914062 146.011719 268.914062 146.347656 268.582031 C 146.636719 268.375 146.886719 268 146.886719 267.5 C 146.886719 266.664062 146.179688 266.582031 145.929688 266.582031 C 145.304688 266.582031 144.429688 267 144.429688 268.289062 C 144.429688 269.625 145.597656 270.625 147.261719 270.625 C 149.972656 270.625 152.722656 268.207031 153.472656 265.207031 Z M 156.011719 255.039062 "/>
<path fill-rule="nonzero" fill="rgb(0%, 0%, 0%)" fill-opacity="1" stroke-width="0.79701" stroke-linecap="butt" stroke-linejoin="miter" stroke="rgb(0%, 25.098039%, 0%)" stroke-opacity="1" stroke-miterlimit="10" d="M 1.407013 38.536999 C 1.407013 39.31776 0.7742 39.947643 -0.00216675 39.947643 C -0.779999 39.947643 -1.408417 39.31776 -1.408417 38.536999 C -1.408417 37.759167 -0.779999 37.130749 -0.00216675 37.130749 C 0.7742 37.130749 1.407013 37.759167 1.407013 38.536999 Z M 1.407013 38.536999 " transform="matrix(2.666667, 0, 0, -2.666667, 150.079997, 138.76533)"/>
<path fill-rule="nonzero" fill="rgb(0%, 0%, 0%)" fill-opacity="1" d="M 152.5 11.78125 C 152.625 11.199219 152.875 10.199219 152.875 10.03125 C 152.875 9.574219 152.5 9.324219 152.125 9.324219 C 151.792969 9.324219 151.332031 9.53125 151.125 10.074219 C 151.042969 10.238281 149.792969 15.324219 149.625 16.03125 C 149.417969 16.824219 149.375 17.28125 149.375 17.78125 C 149.375 18.074219 149.375 18.113281 149.417969 18.238281 C 148.792969 19.65625 148 20.488281 146.957031 20.488281 C 144.832031 20.488281 144.832031 18.53125 144.832031 18.074219 C 144.832031 17.238281 144.957031 16.199219 146.207031 12.90625 C 146.5 12.113281 146.667969 11.738281 146.667969 11.199219 C 146.667969 10.03125 145.792969 9.03125 144.5 9.03125 C 141.957031 9.03125 141 12.90625 141 13.113281 C 141 13.40625 141.25 13.40625 141.292969 13.40625 C 141.582031 13.40625 141.582031 13.324219 141.707031 12.90625 C 142.457031 10.449219 143.457031 9.613281 144.417969 9.613281 C 144.667969 9.613281 145.082031 9.65625 145.082031 10.488281 C 145.082031 11.15625 144.792969 11.90625 144.582031 12.363281 C 143.417969 15.488281 143.125 16.699219 143.125 17.738281 C 143.125 20.15625 144.875 21.074219 146.875 21.074219 C 147.332031 21.074219 148.582031 21.074219 149.625 19.199219 C 150.332031 20.90625 152.167969 21.074219 152.957031 21.074219 C 154.957031 21.074219 156.125 19.40625 156.832031 17.824219 C 157.707031 15.738281 158.582031 12.15625 158.582031 10.90625 C 158.582031 9.449219 157.875 9.03125 157.417969 9.03125 C 156.75 9.03125 156.082031 9.738281 156.082031 10.324219 C 156.082031 10.65625 156.25 10.824219 156.457031 11.03125 C 156.75 11.324219 157.417969 11.988281 157.417969 13.28125 C 157.417969 14.199219 156.667969 16.78125 155.957031 18.15625 C 155.292969 19.574219 154.332031 20.488281 153.042969 20.488281 C 151.792969 20.488281 151.082031 19.699219 151.082031 18.15625 C 151.082031 17.449219 151.25 16.613281 151.375 16.238281 Z M 152.5 11.78125 "/>
<path fill-rule="nonzero" fill="rgb(0%, 0%, 0%)" fill-opacity="1" stroke-width="0.79701" stroke-linecap="butt" stroke-linejoin="miter" stroke="rgb(0%, 25.098039%, 0%)" stroke-opacity="1" stroke-miterlimit="10" d="M -37.420135 2.377331 C -37.420135 3.158092 -38.050018 3.78651 -38.826385 3.78651 C -39.608612 3.78651 -40.23703 3.158092 -40.23703 2.377331 C -40.23703 1.599499 -39.608612 0.971081 -38.826385 0.971081 C -38.050018 0.971081 -37.420135 1.599499 -37.420135 2.377331 Z M -37.420135 2.377331 " transform="matrix(2.666667, 0, 0, -2.666667, 150.079997, 138.76533)"/>
<path fill-rule="nonzero" fill="rgb(0%, 0%, 0%)" fill-opacity="1" d="M 37.839844 111.132812 C 37.878906 111.007812 37.921875 110.84375 37.921875 110.675781 C 37.921875 110.21875 37.628906 109.96875 37.171875 109.96875 C 36.921875 109.96875 36.171875 110.132812 36.089844 111.09375 C 35.589844 110.132812 34.671875 109.425781 33.589844 109.425781 C 30.589844 109.425781 27.296875 113.132812 27.296875 116.96875 C 27.296875 119.59375 28.878906 121.175781 30.796875 121.175781 C 32.378906 121.175781 33.628906 119.925781 33.878906 119.632812 L 33.921875 119.675781 C 33.378906 122.007812 33.046875 123.132812 33.046875 123.175781 C 32.921875 123.425781 32.046875 126.050781 29.214844 126.050781 C 28.714844 126.050781 27.839844 126.007812 27.089844 125.757812 C 27.878906 125.550781 28.171875 124.84375 28.171875 124.382812 C 28.171875 123.96875 27.878906 123.46875 27.171875 123.46875 C 26.589844 123.46875 25.753906 123.925781 25.753906 125.007812 C 25.753906 126.09375 26.714844 126.632812 29.253906 126.632812 C 32.589844 126.632812 34.503906 124.550781 34.921875 122.96875 Z M 34.421875 117.757812 C 34.253906 118.46875 33.628906 119.132812 33.046875 119.632812 C 32.503906 120.09375 31.671875 120.59375 30.878906 120.59375 C 29.546875 120.59375 29.171875 119.21875 29.171875 118.132812 C 29.171875 116.882812 29.921875 113.71875 30.671875 112.382812 C 31.378906 111.09375 32.503906 110.007812 33.628906 110.007812 C 35.378906 110.007812 35.753906 112.175781 35.753906 112.300781 C 35.753906 112.425781 35.714844 112.59375 35.671875 112.675781 Z M 34.421875 117.757812 "/>
<path fill-rule="nonzero" fill="rgb(0%, 0%, 0%)" fill-opacity="1" stroke-width="0.79701" stroke-linecap="butt" stroke-linejoin="miter" stroke="rgb(0%, 25.098039%, 0%)" stroke-opacity="1" stroke-miterlimit="10" d="M -8.561249 -9.268177 C -8.561249 -8.490345 -9.194061 -7.857533 -9.971893 -7.857533 C -10.74826 -7.857533 -11.381073 -8.490345 -11.381073 -9.268177 C -11.381073 -10.044544 -10.74826 -10.674427 -9.971893 -10.674427 C -9.194061 -10.674427 -8.561249 -10.044544 -8.561249 -9.268177 Z M -8.561249 -9.268177 " transform="matrix(2.666667, 0, 0, -2.666667, 150.079997, 138.76533)"/>
<path fill-rule="nonzero" fill="rgb(0%, 0%, 0%)" fill-opacity="1" d="M 106.617188 154.769531 C 106.535156 155.183594 106.367188 155.808594 106.367188 155.933594 C 106.367188 156.394531 106.742188 156.644531 107.160156 156.644531 C 107.492188 156.644531 107.953125 156.433594 108.160156 155.894531 C 108.203125 155.808594 109.078125 152.183594 109.203125 151.683594 C 109.410156 150.808594 109.910156 148.976562 110.035156 148.226562 C 110.160156 147.894531 110.910156 146.644531 111.535156 146.058594 C 111.742188 145.894531 112.535156 145.183594 113.660156 145.183594 C 114.367188 145.183594 114.742188 145.519531 114.785156 145.519531 C 113.992188 145.644531 113.410156 146.269531 113.410156 146.976562 C 113.410156 147.394531 113.703125 147.894531 114.410156 147.894531 C 115.117188 147.894531 115.867188 147.269531 115.867188 146.308594 C 115.867188 145.394531 115.035156 144.601562 113.660156 144.601562 C 111.953125 144.601562 110.785156 145.894531 110.285156 146.644531 C 110.035156 145.433594 109.078125 144.601562 107.828125 144.601562 C 106.617188 144.601562 106.117188 145.644531 105.867188 146.101562 C 105.410156 147.019531 105.078125 148.601562 105.078125 148.683594 C 105.078125 148.976562 105.328125 148.976562 105.367188 148.976562 C 105.660156 148.976562 105.660156 148.933594 105.828125 148.351562 C 106.285156 146.476562 106.828125 145.183594 107.785156 145.183594 C 108.203125 145.183594 108.578125 145.394531 108.578125 146.394531 C 108.578125 146.976562 108.492188 147.269531 108.160156 148.644531 Z M 106.617188 154.769531 "/>
<path fill-rule="nonzero" fill="rgb(0%, 0%, 0%)" fill-opacity="1" stroke-width="0.79701" stroke-linecap="butt" stroke-linejoin="miter" stroke="rgb(0%, 25.098039%, 0%)" stroke-opacity="1" stroke-miterlimit="10" d="M 11.379669 9.267956 C 11.379669 10.044323 10.751251 10.677135 9.97049 10.677135 C 9.192657 10.677135 8.56424 10.044323 8.56424 9.267956 C 8.56424 8.490124 9.192657 7.857311 9.97049 7.857311 C 10.751251 7.857311 11.379669 8.490124 11.379669 9.267956 Z M 11.379669 9.267956 " transform="matrix(2.666667, 0, 0, -2.666667, 150.079997, 138.76533)"/>
<path fill-rule="nonzero" fill="rgb(0%, 0%, 0%)" fill-opacity="1" d="M 195.558594 99.652344 C 195.558594 96.859375 193.726562 95.152344 191.308594 95.152344 C 187.769531 95.152344 184.183594 98.941406 184.183594 102.691406 C 184.183594 105.316406 185.976562 107.191406 188.433594 107.191406 C 191.976562 107.191406 195.558594 103.527344 195.558594 99.652344 Z M 188.476562 106.609375 C 187.308594 106.609375 186.144531 105.777344 186.144531 103.691406 C 186.144531 102.402344 186.851562 99.527344 187.683594 98.191406 C 189.019531 96.152344 190.558594 95.734375 191.308594 95.734375 C 192.851562 95.734375 193.644531 97.027344 193.644531 98.609375 C 193.644531 99.652344 193.101562 102.441406 192.101562 104.152344 C 191.144531 105.691406 189.683594 106.609375 188.476562 106.609375 Z M 188.476562 106.609375 "/>
</svg>
