<?xml version="1.0" encoding="UTF-8"?>
<svg xmlns="http://www.w3.org/2000/svg" xmlns:xlink="http://www.w3.org/1999/xlink" width="202.82666" height="225.039998" viewBox="0 0 202.82666 225.039998">
<path fill-rule="nonzero" fill="rgb(0%, 0%, 0%)" fill-opacity="1" d="M 112.9375 36.925781 C 112.9375 35.199219 111.53125 33.800781 109.800781 33.800781 C 108.074219 33.800781 106.675781 35.199219 106.675781 36.925781 C 106.675781 38.65625 108.074219 40.0625 109.800781 40.0625 C 111.53125 40.0625 112.9375 38.65625 112.9375 36.925781 Z M 112.9375 36.925781 "/>
<path fill-rule="nonzero" fill="rgb(0%, 0%, 0%)" fill-opacity="1" d="M 109.867188 10.417969 C 109.867188 8.960938 109.15625 8.542969 108.699219 8.542969 C 108.03125 8.542969 107.367188 9.25 107.367188 9.835938 C 107.367188 10.167969 107.492188 10.335938 107.78125 10.625 C 108.367188 11.167969 108.699219 11.835938 108.699219 12.792969 C 108.699219 13.917969 107.074219 20 103.992188 20 C 102.617188 20 101.992188 19.085938 101.992188 17.667969 C 101.992188 16.210938 102.742188 14.25 103.53125 12.042969 C 103.742188 11.585938 103.867188 11.210938 103.867188 10.710938 C 103.867188 9.542969 103.03125 8.542969 101.699219 8.542969 C 99.199219 8.542969 98.199219 12.417969 98.199219 12.625 C 98.199219 12.917969 98.449219 12.917969 98.492188 12.917969 C 98.78125 12.917969 98.78125 12.835938 98.90625 12.417969 C 99.699219 9.75 100.824219 9.125 101.617188 9.125 C 101.824219 9.125 102.28125 9.125 102.28125 9.960938 C 102.28125 10.625 101.992188 11.375 101.824219 11.835938 C 100.65625 14.917969 100.324219 16.125 100.324219 17.292969 C 100.324219 20.167969 102.65625 20.585938 103.867188 20.585938 C 108.324219 20.585938 109.867188 11.792969 109.867188 10.417969 Z M 109.867188 10.417969 "/>
<path fill-rule="nonzero" fill="rgb(0%, 0%, 0%)" fill-opacity="1" d="M 116.492188 12.445312 C 116.492188 11.945312 116.492188 11.945312 115.953125 11.945312 C 114.742188 13.109375 113.078125 13.109375 112.328125 13.109375 L 112.328125 13.777344 C 112.742188 13.777344 113.992188 13.777344 114.992188 13.277344 L 114.992188 22.734375 C 114.992188 23.359375 114.992188 23.609375 113.160156 23.609375 L 112.453125 23.609375 L 112.453125 24.277344 C 112.785156 24.277344 115.078125 24.195312 115.742188 24.195312 C 116.328125 24.195312 118.660156 24.277344 119.078125 24.277344 L 119.078125 23.609375 L 118.367188 23.609375 C 116.492188 23.609375 116.492188 23.359375 116.492188 22.734375 Z M 116.492188 12.445312 "/>
<path fill-rule="nonzero" fill="rgb(0%, 0%, 0%)" fill-opacity="1" d="M 112.9375 188.113281 C 112.9375 186.386719 111.53125 184.980469 109.800781 184.980469 C 108.074219 184.980469 106.675781 186.386719 106.675781 188.113281 C 106.675781 189.84375 108.074219 191.238281 109.800781 191.238281 C 111.53125 191.238281 112.9375 189.84375 112.9375 188.113281 Z M 112.9375 188.113281 "/>
<path fill-rule="nonzero" fill="rgb(0%, 0%, 0%)" fill-opacity="1" d="M 109.867188 202.324219 C 109.867188 200.867188 109.15625 200.449219 108.699219 200.449219 C 108.03125 200.449219 107.367188 201.160156 107.367188 201.742188 C 107.367188 202.074219 107.492188 202.242188 107.78125 202.535156 C 108.367188 203.074219 108.699219 203.742188 108.699219 204.699219 C 108.699219 205.824219 107.074219 211.910156 103.992188 211.910156 C 102.617188 211.910156 101.992188 210.992188 101.992188 209.574219 C 101.992188 208.117188 102.742188 206.160156 103.53125 203.949219 C 103.742188 203.492188 103.867188 203.117188 103.867188 202.617188 C 103.867188 201.449219 103.03125 200.449219 101.699219 200.449219 C 99.199219 200.449219 98.199219 204.324219 98.199219 204.535156 C 98.199219 204.824219 98.449219 204.824219 98.492188 204.824219 C 98.78125 204.824219 98.78125 204.742188 98.90625 204.324219 C 99.699219 201.660156 100.824219 201.035156 101.617188 201.035156 C 101.824219 201.035156 102.28125 201.035156 102.28125 201.867188 C 102.28125 202.535156 101.992188 203.285156 101.824219 203.742188 C 100.65625 206.824219 100.324219 208.035156 100.324219 209.199219 C 100.324219 212.074219 102.65625 212.492188 103.867188 212.492188 C 108.324219 212.492188 109.867188 203.699219 109.867188 202.324219 Z M 109.867188 202.324219 "/>
<path fill-rule="nonzero" fill="rgb(0%, 0%, 0%)" fill-opacity="1" d="M 119.660156 212.808594 L 119.035156 212.808594 C 118.992188 213.226562 118.785156 214.308594 118.535156 214.476562 C 118.410156 214.601562 116.992188 214.601562 116.703125 214.601562 L 113.285156 214.601562 C 115.242188 212.890625 115.910156 212.351562 116.992188 211.476562 C 118.367188 210.390625 119.660156 209.226562 119.660156 207.476562 C 119.660156 205.226562 117.703125 203.851562 115.328125 203.851562 C 113.035156 203.851562 111.453125 205.476562 111.453125 207.183594 C 111.453125 208.101562 112.242188 208.226562 112.453125 208.226562 C 112.867188 208.226562 113.410156 207.890625 113.410156 207.226562 C 113.410156 206.890625 113.285156 206.226562 112.328125 206.226562 C 112.910156 204.933594 114.160156 204.515625 115.035156 204.515625 C 116.910156 204.515625 117.867188 205.976562 117.867188 207.476562 C 117.867188 209.101562 116.703125 210.351562 116.117188 211.015625 L 111.660156 215.476562 C 111.453125 215.640625 111.453125 215.683594 111.453125 216.183594 L 119.117188 216.183594 Z M 119.660156 212.808594 "/>
<path fill="none" stroke-width="0.3985" stroke-linecap="butt" stroke-linejoin="miter" stroke="rgb(0%, 0%, 0%)" stroke-opacity="1" stroke-miterlimit="10" d="M -1.059322 56.081062 C -19.794674 45.264656 -19.794674 11.42823 -1.059322 0.611824 " transform="matrix(2.666667, 0, 0, -2.666667, 109.805328, 188.112)"/>
<path fill-rule="nonzero" fill="rgb(0%, 0%, 0%)" fill-opacity="1" d="M 26.964844 117.128906 C 26.921875 117.210938 26.839844 117.292969 26.839844 117.378906 C 26.839844 117.503906 27.003906 117.753906 27.171875 117.753906 C 27.296875 117.753906 27.378906 117.667969 28.128906 116.917969 C 28.339844 116.710938 28.878906 116.210938 29.089844 116.003906 C 29.339844 118.085938 30.089844 120.085938 32.046875 120.085938 C 33.128906 120.085938 34.046875 119.460938 34.589844 119.042969 C 34.964844 118.792969 36.214844 117.753906 36.214844 117.503906 C 36.214844 117.417969 36.128906 117.167969 35.921875 117.167969 C 35.839844 117.167969 35.796875 117.210938 35.546875 117.417969 C 33.839844 119.085938 32.878906 119.503906 32.089844 119.503906 C 30.921875 119.503906 30.464844 118.085938 30.464844 116.042969 C 30.464844 115.878906 30.546875 114.667969 30.628906 114.503906 C 30.671875 114.417969 30.671875 114.378906 31.214844 113.835938 C 33.339844 111.710938 37.128906 107.210938 37.128906 103.085938 C 37.128906 102.628906 37.128906 101.003906 35.546875 101.003906 C 33.339844 101.003906 31.378906 105.378906 31.128906 106.003906 C 29.839844 108.917969 29.003906 112.003906 29.003906 115.167969 Z M 30.753906 113.417969 C 30.796875 113.085938 31.964844 107.210938 33.464844 104.085938 C 34.171875 102.667969 34.753906 101.585938 35.589844 101.585938 C 36.503906 101.585938 36.503906 102.542969 36.503906 102.960938 C 36.503906 107.417969 32.003906 112.085938 30.753906 113.417969 Z M 30.753906 113.417969 "/>
<path fill-rule="nonzero" fill="rgb(0%, 0%, 0%)" fill-opacity="1" d="M 43.824219 111.902344 C 43.824219 111.402344 43.824219 111.402344 43.28125 111.402344 C 42.074219 112.570312 40.40625 112.570312 39.65625 112.570312 L 39.65625 113.234375 C 40.074219 113.234375 41.324219 113.234375 42.324219 112.734375 L 42.324219 122.195312 C 42.324219 122.820312 42.324219 123.070312 40.492188 123.070312 L 39.78125 123.070312 L 39.78125 123.734375 C 40.117188 123.734375 42.40625 123.652344 43.074219 123.652344 C 43.65625 123.652344 45.992188 123.734375 46.40625 123.734375 L 46.40625 123.070312 L 45.699219 123.070312 C 43.824219 123.070312 43.824219 122.820312 43.824219 122.195312 Z M 43.824219 111.902344 "/>
<path fill-rule="nonzero" fill="rgb(0%, 0%, 0%)" fill-opacity="1" d="M 57.574219 120.359375 L 56.949219 120.359375 C 56.90625 120.777344 56.699219 121.859375 56.449219 122.027344 C 56.324219 122.152344 54.90625 122.152344 54.613281 122.152344 L 51.199219 122.152344 C 53.15625 120.445312 53.824219 119.902344 54.90625 119.027344 C 56.28125 117.945312 57.574219 116.777344 57.574219 115.027344 C 57.574219 112.777344 55.613281 111.402344 53.238281 111.402344 C 50.949219 111.402344 49.363281 113.027344 49.363281 114.734375 C 49.363281 115.652344 50.15625 115.777344 50.363281 115.777344 C 50.78125 115.777344 51.324219 115.445312 51.324219 114.777344 C 51.324219 114.445312 51.199219 113.777344 50.238281 113.777344 C 50.824219 112.484375 52.074219 112.070312 52.949219 112.070312 C 54.824219 112.070312 55.78125 113.527344 55.78125 115.027344 C 55.78125 116.652344 54.613281 117.902344 54.03125 118.570312 L 49.574219 123.027344 C 49.363281 123.195312 49.363281 123.234375 49.363281 123.734375 L 57.03125 123.734375 Z M 57.574219 120.359375 "/>
<path fill="none" stroke-width="0.3985" stroke-linecap="butt" stroke-linejoin="miter" stroke="rgb(0%, 0%, 0%)" stroke-opacity="1" stroke-miterlimit="10" d="M 1.061771 56.081062 C 19.791264 45.264656 19.791264 11.42823 1.061771 0.611824 " transform="matrix(2.666667, 0, 0, -2.666667, 109.805328, 188.112)"/>
<path fill-rule="nonzero" fill="rgb(0%, 0%, 0%)" fill-opacity="1" d="M 161.820312 114.664062 C 161.734375 115.082031 161.570312 115.707031 161.570312 115.832031 C 161.570312 116.289062 161.945312 116.539062 162.359375 116.539062 C 162.695312 116.539062 163.152344 116.332031 163.359375 115.789062 C 163.402344 115.707031 164.277344 112.082031 164.402344 111.582031 C 164.609375 110.707031 165.109375 108.871094 165.234375 108.121094 C 165.359375 107.789062 166.109375 106.539062 166.734375 105.957031 C 166.945312 105.789062 167.734375 105.082031 168.859375 105.082031 C 169.570312 105.082031 169.945312 105.414062 169.984375 105.414062 C 169.195312 105.539062 168.609375 106.164062 168.609375 106.871094 C 168.609375 107.289062 168.902344 107.789062 169.609375 107.789062 C 170.320312 107.789062 171.070312 107.164062 171.070312 106.207031 C 171.070312 105.289062 170.234375 104.496094 168.859375 104.496094 C 167.152344 104.496094 165.984375 105.789062 165.484375 106.539062 C 165.234375 105.332031 164.277344 104.496094 163.027344 104.496094 C 161.820312 104.496094 161.320312 105.539062 161.070312 105.996094 C 160.609375 106.914062 160.277344 108.496094 160.277344 108.582031 C 160.277344 108.871094 160.527344 108.871094 160.570312 108.871094 C 160.859375 108.871094 160.859375 108.832031 161.027344 108.246094 C 161.484375 106.371094 162.027344 105.082031 162.984375 105.082031 C 163.402344 105.082031 163.777344 105.289062 163.777344 106.289062 C 163.777344 106.871094 163.695312 107.164062 163.359375 108.539062 Z M 161.820312 114.664062 "/>
<path fill-rule="nonzero" fill="rgb(0%, 0%, 0%)" fill-opacity="1" d="M 180.847656 116.855469 L 180.222656 116.855469 C 180.179688 117.273438 179.972656 118.355469 179.722656 118.523438 C 179.597656 118.648438 178.179688 118.648438 177.886719 118.648438 L 174.472656 118.648438 C 176.429688 116.941406 177.097656 116.398438 178.179688 115.523438 C 179.554688 114.441406 180.847656 113.273438 180.847656 111.523438 C 180.847656 109.273438 178.886719 107.898438 176.511719 107.898438 C 174.222656 107.898438 172.636719 109.523438 172.636719 111.230469 C 172.636719 112.148438 173.429688 112.273438 173.636719 112.273438 C 174.054688 112.273438 174.597656 111.941406 174.597656 111.273438 C 174.597656 110.941406 174.472656 110.273438 173.511719 110.273438 C 174.097656 108.980469 175.347656 108.566406 176.222656 108.566406 C 178.097656 108.566406 179.054688 110.023438 179.054688 111.523438 C 179.054688 113.148438 177.886719 114.398438 177.304688 115.066406 L 172.847656 119.523438 C 172.636719 119.691406 172.636719 119.730469 172.636719 120.230469 L 180.304688 120.230469 Z M 180.847656 116.855469 "/>
<path fill-rule="nonzero" fill="rgb(0%, 0%, 0%)" fill-opacity="1" d="M 188.261719 108.398438 C 188.261719 107.898438 188.261719 107.898438 187.71875 107.898438 C 186.511719 109.066406 184.84375 109.066406 184.09375 109.066406 L 184.09375 109.730469 C 184.511719 109.730469 185.761719 109.730469 186.761719 109.230469 L 186.761719 118.691406 C 186.761719 119.316406 186.761719 119.566406 184.929688 119.566406 L 184.21875 119.566406 L 184.21875 120.230469 C 184.554688 120.230469 186.84375 120.148438 187.511719 120.148438 C 188.09375 120.148438 190.429688 120.230469 190.84375 120.230469 L 190.84375 119.566406 L 190.136719 119.566406 C 188.261719 119.566406 188.261719 119.316406 188.261719 118.691406 Z M 188.261719 108.398438 "/>
<path fill="none" stroke-width="0.3985" stroke-linecap="butt" stroke-linejoin="miter" stroke="rgb(0%, 0%, 0%)" stroke-opacity="1" stroke-miterlimit="10" d="M 1.006107 55.994637 C 3.776127 54.069832 5.240971 52.846687 5.233646 52.854012 " transform="matrix(2.666667, 0, 0, -2.666667, 109.805328, 188.112)"/>
<path fill-rule="nonzero" fill="rgb(0%, 0%, 0%)" fill-opacity="1" stroke-width="0.3985" stroke-linecap="butt" stroke-linejoin="miter" stroke="rgb(0%, 0%, 0%)" stroke-opacity="1" stroke-miterlimit="10" d="M 4.691833 0.000950647 L 0.644721 1.524907 L 1.974779 -0.00125972 L 0.642692 -1.526715 Z M 4.691833 0.000950647 " transform="matrix(1.891893, 1.879147, 1.879147, -1.891893, 120.215515, 43.642186)"/>
<path fill="none" stroke-width="0.3985" stroke-linecap="butt" stroke-linejoin="miter" stroke="rgb(0%, 0%, 0%)" stroke-opacity="1" stroke-miterlimit="10" d="M 1.006107 0.69825 C 3.776127 2.624519 5.240971 3.846199 5.233646 3.838875 " transform="matrix(2.666667, 0, 0, -2.666667, 109.805328, 188.112)"/>
<path fill-rule="nonzero" fill="rgb(0%, 0%, 0%)" fill-opacity="1" stroke-width="0.3985" stroke-linecap="butt" stroke-linejoin="miter" stroke="rgb(0%, 0%, 0%)" stroke-opacity="1" stroke-miterlimit="10" d="M 4.69237 -0.000410676 L 0.643229 1.527255 L 1.974283 0.000760352 L 0.644225 -1.525406 Z M 4.69237 -0.000410676 " transform="matrix(1.891893, -1.879147, -1.879147, -1.891893, 120.215515, 181.398905)"/>
</svg>
