<?xml version="1.0" encoding="UTF-8"?>
<svg xmlns="http://www.w3.org/2000/svg" xmlns:xlink="http://www.w3.org/1999/xlink" width="305.679993" height="223.226664" viewBox="0 0 305.679993 223.226664">
<defs>
<clipPath id="clip-0">
<path clip-rule="nonzero" d="M 109 48 L 305.675781 48 L 305.675781 223.230469 L 109 223.230469 Z M 109 48 "/>
</clipPath>
</defs>
<path fill-rule="nonzero" fill="rgb(0%, 0%, 0%)" fill-opacity="1" d="M 53.765625 16.15625 C 54.015625 15.199219 54.058594 14.949219 56.058594 14.949219 C 56.640625 14.949219 56.890625 14.949219 56.890625 14.40625 C 56.890625 14.117188 56.640625 14.117188 56.183594 14.117188 L 52.683594 14.117188 C 51.976562 14.117188 51.933594 14.117188 51.640625 14.617188 L 41.933594 29.78125 L 39.851562 14.742188 C 39.765625 14.117188 39.726562 14.117188 39.015625 14.117188 L 35.390625 14.117188 C 34.890625 14.117188 34.601562 14.117188 34.601562 14.617188 C 34.601562 14.949219 34.851562 14.949219 35.351562 14.949219 C 35.726562 14.949219 36.183594 14.992188 36.515625 14.992188 C 36.933594 15.074219 37.101562 15.117188 37.101562 15.449219 C 37.101562 15.53125 37.058594 15.617188 36.976562 15.949219 L 33.601562 29.449219 C 33.351562 30.53125 32.890625 31.367188 30.726562 31.449219 C 30.601562 31.449219 30.265625 31.492188 30.265625 31.949219 C 30.265625 32.199219 30.433594 32.28125 30.640625 32.28125 C 31.476562 32.28125 32.390625 32.199219 33.308594 32.199219 C 34.183594 32.199219 35.140625 32.28125 36.015625 32.28125 C 36.140625 32.28125 36.515625 32.28125 36.515625 31.742188 C 36.515625 31.449219 36.226562 31.449219 36.015625 31.449219 C 34.515625 31.449219 34.226562 30.90625 34.226562 30.28125 C 34.226562 30.117188 34.226562 29.949219 34.308594 29.65625 L 37.933594 15.199219 L 37.976562 15.199219 L 40.265625 31.65625 C 40.308594 31.992188 40.351562 32.28125 40.640625 32.28125 C 40.933594 32.28125 41.101562 31.992188 41.226562 31.824219 L 51.976562 14.992188 L 52.015625 14.992188 L 48.183594 30.199219 C 47.933594 31.242188 47.890625 31.449219 45.765625 31.449219 C 45.351562 31.449219 45.058594 31.449219 45.058594 31.949219 C 45.058594 32.28125 45.351562 32.28125 45.433594 32.28125 C 46.183594 32.28125 47.976562 32.199219 48.726562 32.199219 C 49.808594 32.199219 50.976562 32.28125 52.058594 32.28125 C 52.226562 32.28125 52.558594 32.28125 52.558594 31.742188 C 52.558594 31.449219 52.308594 31.449219 51.808594 31.449219 C 50.851562 31.449219 50.101562 31.449219 50.101562 30.992188 C 50.101562 30.867188 50.101562 30.824219 50.226562 30.324219 Z M 53.765625 16.15625 "/>
<path fill-rule="nonzero" fill="rgb(0%, 0%, 0%)" fill-opacity="1" d="M 60.75 23.933594 C 60.75 23.890625 60.792969 23.640625 60.792969 23.640625 C 60.792969 23.515625 60.75 23.351562 60.5 23.351562 C 60.125 23.351562 58.585938 23.515625 58.125 23.558594 C 58 23.558594 57.710938 23.601562 57.710938 23.976562 C 57.710938 24.226562 58 24.226562 58.210938 24.226562 C 59.085938 24.226562 59.085938 24.390625 59.085938 24.515625 C 59.085938 24.640625 59.042969 24.765625 59.042969 24.933594 L 56.417969 35.433594 C 56.292969 35.765625 56.292969 35.808594 56.292969 35.851562 C 56.292969 36.140625 56.542969 36.433594 56.960938 36.433594 C 57.460938 36.433594 57.667969 36.101562 57.792969 35.683594 C 57.835938 35.601562 58.625 32.308594 58.710938 32.058594 C 60.042969 32.183594 61.085938 32.640625 61.085938 33.601562 C 61.085938 33.683594 61.085938 33.765625 61.042969 33.976562 C 60.960938 34.226562 60.960938 34.351562 60.960938 34.558594 C 60.960938 35.851562 62.042969 36.433594 62.960938 36.433594 C 64.75 36.433594 65.292969 33.640625 65.292969 33.601562 C 65.292969 33.351562 65.085938 33.351562 65 33.351562 C 64.75 33.351562 64.710938 33.476562 64.625 33.808594 C 64.417969 34.601562 63.917969 35.933594 63 35.933594 C 62.5 35.933594 62.335938 35.476562 62.335938 34.976562 C 62.335938 34.640625 62.335938 34.601562 62.460938 34.140625 C 62.5 34.058594 62.542969 33.765625 62.542969 33.558594 C 62.542969 31.890625 60.335938 31.640625 59.542969 31.601562 C 60.085938 31.265625 60.75 30.640625 61.085938 30.351562 C 62.042969 29.476562 62.960938 28.601562 64 28.601562 C 64.210938 28.601562 64.460938 28.640625 64.625 28.851562 C 63.835938 28.976562 63.667969 29.601562 63.667969 29.890625 C 63.667969 30.265625 63.960938 30.558594 64.375 30.558594 C 64.917969 30.558594 65.460938 30.140625 65.460938 29.390625 C 65.460938 28.765625 65 28.058594 64.042969 28.058594 C 62.960938 28.058594 62 28.851562 61.042969 29.726562 C 60.25 30.433594 59.667969 31.015625 58.875 31.351562 Z M 60.75 23.933594 "/>
<path fill-rule="nonzero" fill="rgb(0%, 0%, 0%)" fill-opacity="1" d="M 84.222656 24.90625 L 78.933594 19.617188 C 78.597656 19.28125 78.558594 19.242188 78.347656 19.242188 C 78.058594 19.242188 77.808594 19.449219 77.808594 19.78125 C 77.808594 19.949219 77.847656 19.992188 78.140625 20.28125 L 83.472656 25.617188 L 78.140625 30.992188 C 77.847656 31.28125 77.808594 31.324219 77.808594 31.492188 C 77.808594 31.824219 78.058594 32.03125 78.347656 32.03125 C 78.558594 32.03125 78.597656 31.992188 78.933594 31.65625 L 84.222656 26.367188 L 89.722656 31.867188 C 89.765625 31.90625 89.933594 32.03125 90.097656 32.03125 C 90.433594 32.03125 90.640625 31.824219 90.640625 31.492188 C 90.640625 31.449219 90.640625 31.367188 90.558594 31.199219 C 90.515625 31.15625 86.308594 26.992188 84.972656 25.617188 L 89.847656 20.78125 C 89.972656 20.617188 90.390625 20.28125 90.515625 20.117188 C 90.515625 20.074219 90.640625 19.949219 90.640625 19.78125 C 90.640625 19.449219 90.433594 19.242188 90.097656 19.242188 C 89.890625 19.242188 89.808594 19.324219 89.515625 19.617188 Z M 84.222656 24.90625 "/>
<path fill-rule="nonzero" fill="rgb(0%, 0%, 0%)" fill-opacity="1" d="M 112.75 23.28125 C 112.5 21.617188 111.417969 20.117188 109.332031 20.117188 C 107.707031 20.117188 106 20.574219 103.917969 22.617188 C 101.707031 24.824219 101.542969 27.324219 101.542969 28.117188 C 101.542969 29.78125 102.707031 32.867188 106.417969 32.867188 C 112.75 32.867188 115.5 23.949219 115.5 20.117188 C 115.5 15.90625 113.042969 13.242188 109.75 13.242188 C 105.917969 13.242188 104.667969 16.699219 104.667969 17.449219 C 104.667969 17.824219 104.917969 18.367188 105.707031 18.367188 C 106.582031 18.367188 107.125 17.574219 107.125 16.992188 C 107.125 16.03125 106.292969 16.03125 105.875 16.03125 C 107.042969 14.074219 108.957031 13.90625 109.707031 13.90625 C 111.667969 13.90625 113.5 15.28125 113.5 18.742188 C 113.5 19.78125 113.332031 21.117188 112.792969 23.28125 Z M 106.5 32.117188 C 103.582031 32.117188 103.582031 29.367188 103.582031 29.117188 C 103.582031 28.40625 104.25 24.699219 105.332031 23.074219 C 106.375 21.574219 107.707031 20.699219 109.332031 20.699219 C 112.25 20.699219 112.292969 23.699219 112.292969 24.242188 C 112.292969 26.15625 110.582031 32.117188 106.5 32.117188 Z M 106.5 32.117188 "/>
<path fill-rule="nonzero" fill="rgb(0%, 0%, 0%)" fill-opacity="1" d="M 127.789062 13.742188 C 127.625 13.367188 127.539062 13.242188 127.082031 13.242188 C 126.664062 13.242188 126.582031 13.367188 126.414062 13.742188 L 117.414062 31.742188 C 117.289062 31.992188 117.289062 32.03125 117.289062 32.074219 C 117.289062 32.28125 117.457031 32.28125 117.875 32.28125 L 136.332031 32.28125 C 136.75 32.28125 136.914062 32.28125 136.914062 32.074219 C 136.914062 32.03125 136.914062 31.992188 136.789062 31.742188 Z M 126.25 15.90625 L 133.414062 30.28125 L 119.082031 30.28125 Z M 126.25 15.90625 "/>
<path fill-rule="nonzero" fill="rgb(0%, 0%, 0%)" fill-opacity="1" d="M 144.011719 10.308594 C 144.011719 10.265625 144.054688 10.015625 144.054688 10.015625 C 144.054688 9.890625 144.011719 9.722656 143.761719 9.722656 C 143.386719 9.722656 141.84375 9.890625 141.386719 9.933594 C 141.261719 9.933594 140.96875 9.972656 140.96875 10.347656 C 140.96875 10.597656 141.261719 10.597656 141.46875 10.597656 C 142.34375 10.597656 142.34375 10.765625 142.34375 10.890625 C 142.34375 11.015625 142.304688 11.140625 142.304688 11.308594 L 139.679688 21.808594 C 139.554688 22.140625 139.554688 22.183594 139.554688 22.222656 C 139.554688 22.515625 139.804688 22.808594 140.21875 22.808594 C 140.71875 22.808594 140.929688 22.472656 141.054688 22.058594 C 141.09375 21.972656 141.886719 18.683594 141.96875 18.433594 C 143.304688 18.558594 144.34375 19.015625 144.34375 19.972656 C 144.34375 20.058594 144.34375 20.140625 144.304688 20.347656 C 144.21875 20.597656 144.21875 20.722656 144.21875 20.933594 C 144.21875 22.222656 145.304688 22.808594 146.21875 22.808594 C 148.011719 22.808594 148.554688 20.015625 148.554688 19.972656 C 148.554688 19.722656 148.34375 19.722656 148.261719 19.722656 C 148.011719 19.722656 147.96875 19.847656 147.886719 20.183594 C 147.679688 20.972656 147.179688 22.308594 146.261719 22.308594 C 145.761719 22.308594 145.59375 21.847656 145.59375 21.347656 C 145.59375 21.015625 145.59375 20.972656 145.71875 20.515625 C 145.761719 20.433594 145.804688 20.140625 145.804688 19.933594 C 145.804688 18.265625 143.59375 18.015625 142.804688 17.972656 C 143.34375 17.640625 144.011719 17.015625 144.34375 16.722656 C 145.304688 15.847656 146.21875 14.972656 147.261719 14.972656 C 147.46875 14.972656 147.71875 15.015625 147.886719 15.222656 C 147.09375 15.347656 146.929688 15.972656 146.929688 16.265625 C 146.929688 16.640625 147.21875 16.933594 147.636719 16.933594 C 148.179688 16.933594 148.71875 16.515625 148.71875 15.765625 C 148.71875 15.140625 148.261719 14.433594 147.304688 14.433594 C 146.21875 14.433594 145.261719 15.222656 144.304688 16.097656 C 143.511719 16.808594 142.929688 17.390625 142.136719 17.722656 Z M 144.011719 10.308594 "/>
<path fill-rule="nonzero" fill="rgb(0%, 0%, 0%)" fill-opacity="1" d="M 262.535156 16.15625 C 262.785156 15.199219 262.824219 14.949219 264.824219 14.949219 C 265.410156 14.949219 265.660156 14.949219 265.660156 14.40625 C 265.660156 14.117188 265.410156 14.117188 264.949219 14.117188 L 261.449219 14.117188 C 260.742188 14.117188 260.699219 14.117188 260.410156 14.617188 L 250.699219 29.78125 L 248.617188 14.742188 C 248.535156 14.117188 248.492188 14.117188 247.785156 14.117188 L 244.160156 14.117188 C 243.660156 14.117188 243.367188 14.117188 243.367188 14.617188 C 243.367188 14.949219 243.617188 14.949219 244.117188 14.949219 C 244.492188 14.949219 244.949219 14.992188 245.285156 14.992188 C 245.699219 15.074219 245.867188 15.117188 245.867188 15.449219 C 245.867188 15.53125 245.824219 15.617188 245.742188 15.949219 L 242.367188 29.449219 C 242.117188 30.53125 241.660156 31.367188 239.492188 31.449219 C 239.367188 31.449219 239.035156 31.492188 239.035156 31.949219 C 239.035156 32.199219 239.199219 32.28125 239.410156 32.28125 C 240.242188 32.28125 241.160156 32.199219 242.074219 32.199219 C 242.949219 32.199219 243.910156 32.28125 244.785156 32.28125 C 244.910156 32.28125 245.285156 32.28125 245.285156 31.742188 C 245.285156 31.449219 244.992188 31.449219 244.785156 31.449219 C 243.285156 31.449219 242.992188 30.90625 242.992188 30.28125 C 242.992188 30.117188 242.992188 29.949219 243.074219 29.65625 L 246.699219 15.199219 L 246.742188 15.199219 L 249.035156 31.65625 C 249.074219 31.992188 249.117188 32.28125 249.410156 32.28125 C 249.699219 32.28125 249.867188 31.992188 249.992188 31.824219 L 260.742188 14.992188 L 260.785156 14.992188 L 256.949219 30.199219 C 256.699219 31.242188 256.660156 31.449219 254.535156 31.449219 C 254.117188 31.449219 253.824219 31.449219 253.824219 31.949219 C 253.824219 32.28125 254.117188 32.28125 254.199219 32.28125 C 254.949219 32.28125 256.742188 32.199219 257.492188 32.199219 C 258.574219 32.199219 259.742188 32.28125 260.824219 32.28125 C 260.992188 32.28125 261.324219 32.28125 261.324219 31.742188 C 261.324219 31.449219 261.074219 31.449219 260.574219 31.449219 C 259.617188 31.449219 258.867188 31.449219 258.867188 30.992188 C 258.867188 30.867188 258.867188 30.824219 258.992188 30.324219 Z M 262.535156 16.15625 "/>
<path fill-rule="nonzero" fill="rgb(0%, 0%, 0%)" fill-opacity="1" d="M 269.515625 23.933594 C 269.515625 23.890625 269.558594 23.640625 269.558594 23.640625 C 269.558594 23.515625 269.515625 23.351562 269.265625 23.351562 C 268.890625 23.351562 267.347656 23.515625 266.890625 23.558594 C 266.765625 23.558594 266.472656 23.601562 266.472656 23.976562 C 266.472656 24.226562 266.765625 24.226562 266.972656 24.226562 C 267.847656 24.226562 267.847656 24.390625 267.847656 24.515625 C 267.847656 24.640625 267.808594 24.765625 267.808594 24.933594 L 265.183594 35.433594 C 265.058594 35.765625 265.058594 35.808594 265.058594 35.851562 C 265.058594 36.140625 265.308594 36.433594 265.722656 36.433594 C 266.222656 36.433594 266.433594 36.101562 266.558594 35.683594 C 266.597656 35.601562 267.390625 32.308594 267.472656 32.058594 C 268.808594 32.183594 269.847656 32.640625 269.847656 33.601562 C 269.847656 33.683594 269.847656 33.765625 269.808594 33.976562 C 269.722656 34.226562 269.722656 34.351562 269.722656 34.558594 C 269.722656 35.851562 270.808594 36.433594 271.722656 36.433594 C 273.515625 36.433594 274.058594 33.640625 274.058594 33.601562 C 274.058594 33.351562 273.847656 33.351562 273.765625 33.351562 C 273.515625 33.351562 273.472656 33.476562 273.390625 33.808594 C 273.183594 34.601562 272.683594 35.933594 271.765625 35.933594 C 271.265625 35.933594 271.097656 35.476562 271.097656 34.976562 C 271.097656 34.640625 271.097656 34.601562 271.222656 34.140625 C 271.265625 34.058594 271.308594 33.765625 271.308594 33.558594 C 271.308594 31.890625 269.097656 31.640625 268.308594 31.601562 C 268.847656 31.265625 269.515625 30.640625 269.847656 30.351562 C 270.808594 29.476562 271.722656 28.601562 272.765625 28.601562 C 272.972656 28.601562 273.222656 28.640625 273.390625 28.851562 C 272.597656 28.976562 272.433594 29.601562 272.433594 29.890625 C 272.433594 30.265625 272.722656 30.558594 273.140625 30.558594 C 273.683594 30.558594 274.222656 30.140625 274.222656 29.390625 C 274.222656 28.765625 273.765625 28.058594 272.808594 28.058594 C 271.722656 28.058594 270.765625 28.851562 269.808594 29.726562 C 269.015625 30.433594 268.433594 31.015625 267.640625 31.351562 Z M 269.515625 23.933594 "/>
<path fill-rule="nonzero" fill="rgb(0%, 0%, 0%)" fill-opacity="1" d="M 69.890625 116.273438 L 64.804688 104.1875 C 64.597656 103.648438 64.597656 103.648438 63.847656 103.648438 L 58.929688 103.648438 C 58.429688 103.648438 58.054688 103.648438 58.054688 104.105469 C 58.054688 104.5625 58.515625 104.5625 58.640625 104.5625 C 58.972656 104.5625 59.679688 104.648438 60.265625 104.855469 L 60.265625 119.023438 C 60.265625 119.605469 60.265625 120.773438 58.472656 120.9375 C 57.972656 120.980469 57.972656 121.355469 57.972656 121.398438 C 57.972656 121.855469 58.390625 121.855469 58.890625 121.855469 L 62.972656 121.855469 C 63.472656 121.855469 63.847656 121.855469 63.847656 121.398438 C 63.847656 121.148438 63.640625 120.9375 63.429688 120.9375 C 61.390625 120.773438 61.390625 119.648438 61.390625 119.023438 L 61.390625 105.8125 L 61.429688 105.773438 L 67.890625 121.3125 C 68.140625 121.773438 68.304688 121.855469 68.472656 121.855469 C 68.804688 121.855469 68.847656 121.648438 69.015625 121.3125 L 75.515625 105.773438 L 75.554688 105.8125 L 75.554688 119.023438 C 75.554688 119.605469 75.554688 120.773438 73.722656 120.9375 C 73.222656 120.980469 73.222656 121.355469 73.222656 121.398438 C 73.222656 121.855469 73.640625 121.855469 74.140625 121.855469 L 81.222656 121.855469 C 81.722656 121.855469 82.097656 121.855469 82.097656 121.398438 C 82.097656 121.148438 81.890625 120.9375 81.679688 120.9375 C 79.640625 120.773438 79.640625 119.648438 79.640625 119.023438 L 79.640625 106.480469 C 79.640625 105.898438 79.640625 104.730469 81.429688 104.5625 C 81.722656 104.5625 81.929688 104.398438 81.929688 104.105469 C 81.929688 103.648438 81.554688 103.648438 81.054688 103.648438 L 75.929688 103.648438 C 75.265625 103.648438 75.179688 103.648438 74.972656 104.1875 Z M 69.097656 116.773438 C 69.304688 117.1875 69.347656 117.230469 69.679688 117.355469 L 68.472656 120.148438 L 68.429688 120.148438 L 62.390625 105.6875 C 62.265625 105.355469 62.015625 104.898438 61.679688 104.5625 L 63.972656 104.5625 Z M 61.054688 120.9375 L 60.640625 120.9375 C 60.679688 120.855469 60.722656 120.773438 60.765625 120.730469 C 60.804688 120.6875 60.804688 120.648438 60.847656 120.648438 Z M 76.472656 104.5625 L 79.304688 104.5625 C 78.679688 105.230469 78.679688 105.9375 78.679688 106.398438 L 78.679688 119.105469 C 78.679688 119.5625 78.679688 120.273438 79.304688 120.9375 L 75.890625 120.9375 C 76.472656 120.273438 76.472656 119.5625 76.472656 119.105469 Z M 76.472656 104.5625 "/>
<path fill-rule="nonzero" fill="rgb(0%, 0%, 0%)" fill-opacity="1" d="M 88.441406 113.507812 C 88.441406 113.464844 88.484375 113.214844 88.484375 113.214844 C 88.484375 113.089844 88.441406 112.921875 88.191406 112.921875 C 87.816406 112.921875 86.273438 113.089844 85.816406 113.132812 C 85.691406 113.132812 85.398438 113.171875 85.398438 113.546875 C 85.398438 113.796875 85.691406 113.796875 85.898438 113.796875 C 86.773438 113.796875 86.773438 113.964844 86.773438 114.089844 C 86.773438 114.214844 86.734375 114.339844 86.734375 114.507812 L 84.109375 125.007812 C 83.984375 125.339844 83.984375 125.382812 83.984375 125.421875 C 83.984375 125.714844 84.234375 126.007812 84.648438 126.007812 C 85.148438 126.007812 85.359375 125.671875 85.484375 125.257812 C 85.523438 125.171875 86.316406 121.882812 86.398438 121.632812 C 87.734375 121.757812 88.773438 122.214844 88.773438 123.171875 C 88.773438 123.257812 88.773438 123.339844 88.734375 123.546875 C 88.648438 123.796875 88.648438 123.921875 88.648438 124.132812 C 88.648438 125.421875 89.734375 126.007812 90.648438 126.007812 C 92.441406 126.007812 92.984375 123.214844 92.984375 123.171875 C 92.984375 122.921875 92.773438 122.921875 92.691406 122.921875 C 92.441406 122.921875 92.398438 123.046875 92.316406 123.382812 C 92.109375 124.171875 91.609375 125.507812 90.691406 125.507812 C 90.191406 125.507812 90.023438 125.046875 90.023438 124.546875 C 90.023438 124.214844 90.023438 124.171875 90.148438 123.714844 C 90.191406 123.632812 90.234375 123.339844 90.234375 123.132812 C 90.234375 121.464844 88.023438 121.214844 87.234375 121.171875 C 87.773438 120.839844 88.441406 120.214844 88.773438 119.921875 C 89.734375 119.046875 90.648438 118.171875 91.691406 118.171875 C 91.898438 118.171875 92.148438 118.214844 92.316406 118.421875 C 91.523438 118.546875 91.359375 119.171875 91.359375 119.464844 C 91.359375 119.839844 91.648438 120.132812 92.066406 120.132812 C 92.609375 120.132812 93.148438 119.714844 93.148438 118.964844 C 93.148438 118.339844 92.691406 117.632812 91.734375 117.632812 C 90.648438 117.632812 89.691406 118.421875 88.734375 119.296875 C 87.941406 120.007812 87.359375 120.589844 86.566406 120.921875 Z M 88.441406 113.507812 "/>
<path fill-rule="nonzero" fill="rgb(0%, 0%, 0%)" fill-opacity="1" d="M 108.183594 121.632812 C 108.472656 121.632812 108.933594 121.632812 108.933594 121.214844 C 108.933594 120.714844 108.472656 120.714844 108.183594 120.714844 L 97.097656 120.714844 C 96.808594 120.714844 96.347656 120.714844 96.347656 121.171875 C 96.347656 121.632812 96.765625 121.632812 97.097656 121.632812 Z M 108.183594 121.632812 "/>
<path fill-rule="nonzero" fill="rgb(0%, 0%, 0%)" fill-opacity="1" d="M 117.164062 114.007812 C 117.164062 113.507812 117.164062 113.507812 116.621094 113.507812 C 115.414062 114.671875 113.746094 114.671875 112.996094 114.671875 L 112.996094 115.339844 C 113.414062 115.339844 114.664062 115.339844 115.664062 114.839844 L 115.664062 124.296875 C 115.664062 124.921875 115.664062 125.171875 113.828125 125.171875 L 113.121094 125.171875 L 113.121094 125.839844 C 113.453125 125.839844 115.746094 125.757812 116.414062 125.757812 C 116.996094 125.757812 119.328125 125.839844 119.746094 125.839844 L 119.746094 125.171875 L 119.039062 125.171875 C 117.164062 125.171875 117.164062 124.921875 117.164062 124.296875 Z M 117.164062 114.007812 "/>
<path fill-rule="nonzero" fill="rgb(0%, 0%, 0%)" fill-opacity="1" d="M 250.625 116.273438 L 245.542969 104.1875 C 245.335938 103.648438 245.335938 103.648438 244.585938 103.648438 L 239.667969 103.648438 C 239.167969 103.648438 238.792969 103.648438 238.792969 104.105469 C 238.792969 104.5625 239.25 104.5625 239.375 104.5625 C 239.710938 104.5625 240.417969 104.648438 241 104.855469 L 241 119.023438 C 241 119.605469 241 120.773438 239.210938 120.9375 C 238.710938 120.980469 238.710938 121.355469 238.710938 121.398438 C 238.710938 121.855469 239.125 121.855469 239.625 121.855469 L 243.710938 121.855469 C 244.210938 121.855469 244.585938 121.855469 244.585938 121.398438 C 244.585938 121.148438 244.375 120.9375 244.167969 120.9375 C 242.125 120.773438 242.125 119.648438 242.125 119.023438 L 242.125 105.8125 L 242.167969 105.773438 L 248.625 121.3125 C 248.875 121.773438 249.042969 121.855469 249.210938 121.855469 C 249.542969 121.855469 249.585938 121.648438 249.75 121.3125 L 256.25 105.773438 L 256.292969 105.8125 L 256.292969 119.023438 C 256.292969 119.605469 256.292969 120.773438 254.460938 120.9375 C 253.960938 120.980469 253.960938 121.355469 253.960938 121.398438 C 253.960938 121.855469 254.375 121.855469 254.875 121.855469 L 261.960938 121.855469 C 262.460938 121.855469 262.835938 121.855469 262.835938 121.398438 C 262.835938 121.148438 262.625 120.9375 262.417969 120.9375 C 260.375 120.773438 260.375 119.648438 260.375 119.023438 L 260.375 106.480469 C 260.375 105.898438 260.375 104.730469 262.167969 104.5625 C 262.460938 104.5625 262.667969 104.398438 262.667969 104.105469 C 262.667969 103.648438 262.292969 103.648438 261.792969 103.648438 L 256.667969 103.648438 C 256 103.648438 255.917969 103.648438 255.710938 104.1875 Z M 249.835938 116.773438 C 250.042969 117.1875 250.085938 117.230469 250.417969 117.355469 L 249.210938 120.148438 L 249.167969 120.148438 L 243.125 105.6875 C 243 105.355469 242.75 104.898438 242.417969 104.5625 L 244.710938 104.5625 Z M 241.792969 120.9375 L 241.375 120.9375 C 241.417969 120.855469 241.460938 120.773438 241.5 120.730469 C 241.542969 120.6875 241.542969 120.648438 241.585938 120.648438 Z M 257.210938 104.5625 L 260.042969 104.5625 C 259.417969 105.230469 259.417969 105.9375 259.417969 106.398438 L 259.417969 119.105469 C 259.417969 119.5625 259.417969 120.273438 260.042969 120.9375 L 256.625 120.9375 C 257.210938 120.273438 257.210938 119.5625 257.210938 119.105469 Z M 257.210938 104.5625 "/>
<path fill-rule="nonzero" fill="rgb(0%, 0%, 0%)" fill-opacity="1" d="M 269.175781 113.507812 C 269.175781 113.464844 269.214844 113.214844 269.214844 113.214844 C 269.214844 113.089844 269.175781 112.921875 268.925781 112.921875 C 268.550781 112.921875 267.007812 113.089844 266.550781 113.132812 C 266.425781 113.132812 266.132812 113.171875 266.132812 113.546875 C 266.132812 113.796875 266.425781 113.796875 266.632812 113.796875 C 267.507812 113.796875 267.507812 113.964844 267.507812 114.089844 C 267.507812 114.214844 267.464844 114.339844 267.464844 114.507812 L 264.839844 125.007812 C 264.714844 125.339844 264.714844 125.382812 264.714844 125.421875 C 264.714844 125.714844 264.964844 126.007812 265.382812 126.007812 C 265.882812 126.007812 266.089844 125.671875 266.214844 125.257812 C 266.257812 125.171875 267.050781 121.882812 267.132812 121.632812 C 268.464844 121.757812 269.507812 122.214844 269.507812 123.171875 C 269.507812 123.257812 269.507812 123.339844 269.464844 123.546875 C 269.382812 123.796875 269.382812 123.921875 269.382812 124.132812 C 269.382812 125.421875 270.464844 126.007812 271.382812 126.007812 C 273.175781 126.007812 273.714844 123.214844 273.714844 123.171875 C 273.714844 122.921875 273.507812 122.921875 273.425781 122.921875 C 273.175781 122.921875 273.132812 123.046875 273.050781 123.382812 C 272.839844 124.171875 272.339844 125.507812 271.425781 125.507812 C 270.925781 125.507812 270.757812 125.046875 270.757812 124.546875 C 270.757812 124.214844 270.757812 124.171875 270.882812 123.714844 C 270.925781 123.632812 270.964844 123.339844 270.964844 123.132812 C 270.964844 121.464844 268.757812 121.214844 267.964844 121.171875 C 268.507812 120.839844 269.175781 120.214844 269.507812 119.921875 C 270.464844 119.046875 271.382812 118.171875 272.425781 118.171875 C 272.632812 118.171875 272.882812 118.214844 273.050781 118.421875 C 272.257812 118.546875 272.089844 119.171875 272.089844 119.464844 C 272.089844 119.839844 272.382812 120.132812 272.800781 120.132812 C 273.339844 120.132812 273.882812 119.714844 273.882812 118.964844 C 273.882812 118.339844 273.425781 117.632812 272.464844 117.632812 C 271.382812 117.632812 270.425781 118.421875 269.464844 119.296875 C 268.675781 120.007812 268.089844 120.589844 267.300781 120.921875 Z M 269.175781 113.507812 "/>
<path fill-rule="nonzero" fill="rgb(0%, 0%, 0%)" fill-opacity="1" d="M 260.828125 205.617188 C 260.203125 207.867188 259.285156 211.160156 259.285156 213.203125 C 259.285156 213.910156 259.703125 214.242188 260.367188 214.242188 C 261.410156 214.242188 263.410156 213.078125 263.410156 212.578125 C 263.410156 212.410156 263.285156 212.367188 263.160156 212.367188 C 262.828125 212.367188 262.367188 212.617188 262.078125 212.785156 C 261.703125 212.703125 261.535156 212.453125 261.535156 212.078125 C 261.535156 208.828125 264.535156 199.535156 265.328125 197.578125 C 265.660156 196.828125 265.992188 195.742188 265.992188 195.535156 C 265.992188 195.328125 265.828125 195.328125 265.742188 195.328125 C 265.160156 195.328125 263.953125 196.035156 263.742188 196.578125 C 263.410156 197.492188 263.367188 197.617188 263.035156 198.617188 C 262.160156 201.117188 259.535156 205.535156 256.910156 208.617188 C 256.078125 209.535156 253.453125 212.617188 251.578125 212.617188 C 250.328125 212.617188 249.492188 211.535156 249.492188 209.785156 C 249.492188 207.910156 250.535156 205.535156 252.160156 201.867188 C 253.117188 199.703125 253.910156 197.828125 253.910156 196.617188 C 253.910156 195.367188 253.035156 195.328125 252.578125 195.328125 C 250.535156 195.328125 247.953125 196.992188 247.953125 197.535156 C 247.953125 197.703125 248.160156 197.703125 248.242188 197.703125 C 248.578125 197.703125 249.078125 197.492188 249.492188 197.203125 C 249.660156 197.078125 250.078125 196.785156 250.828125 196.785156 C 251.410156 196.785156 251.617188 197.160156 251.617188 197.742188 C 251.617188 198.910156 250.660156 201.117188 249.578125 203.660156 C 247.828125 207.660156 247.242188 209.328125 247.242188 210.867188 C 247.242188 212.660156 247.953125 214.078125 249.828125 214.078125 C 251.492188 214.078125 253.910156 212.992188 256.617188 210.453125 C 258.453125 208.742188 259.617188 207.160156 260.785156 205.617188 Z M 260.828125 205.617188 "/>
<path fill="none" stroke-width="0.39848" stroke-linecap="butt" stroke-linejoin="miter" stroke="rgb(0%, 0%, 0%)" stroke-opacity="1" stroke-miterlimit="10" d="M 3.854427 32.239231 L 26.971127 32.239231 " transform="matrix(2.666667, 0, 0, -2.666667, 152.951996, 111.608002)"/>
<path fill="none" stroke-width="0.39848" stroke-linecap="round" stroke-linejoin="round" stroke="rgb(0%, 0%, 0%)" stroke-opacity="1" stroke-miterlimit="10" d="M -2.072456 2.390555 C -1.693062 0.957938 -0.849312 0.278251 0.00176239 -0.0000696182 C -0.849312 -0.28132 -1.693062 -0.956613 -2.072456 -2.390695 " transform="matrix(2.666667, 0, 0, -2.666667, 225.40155, 25.636533)"/>
<path fill-rule="nonzero" fill="rgb(0%, 0%, 0%)" fill-opacity="1" d="M 184.546875 17.351562 C 183.339844 17.351562 183.171875 17.351562 183.171875 16.558594 L 183.171875 13.558594 C 183.257812 13.644531 184.132812 14.601562 185.671875 14.601562 C 188.132812 14.601562 190.214844 12.769531 190.214844 10.433594 C 190.214844 8.144531 188.339844 6.226562 185.964844 6.226562 C 184.921875 6.226562 183.839844 6.644531 183.089844 7.394531 L 183.089844 6.226562 L 180.296875 6.433594 L 180.296875 7.101562 C 181.589844 7.101562 181.671875 7.226562 181.671875 7.976562 L 181.671875 16.558594 C 181.671875 17.351562 181.507812 17.351562 180.296875 17.351562 L 180.296875 18.058594 C 180.339844 18.058594 181.632812 17.976562 182.421875 17.976562 C 183.089844 17.976562 184.382812 18.019531 184.546875 18.058594 Z M 183.171875 8.226562 C 183.714844 7.308594 184.796875 6.851562 185.757812 6.851562 C 187.339844 6.851562 188.546875 8.476562 188.546875 10.433594 C 188.546875 12.558594 187.132812 14.101562 185.589844 14.101562 C 183.921875 14.101562 183.214844 12.683594 183.171875 12.558594 Z M 183.171875 8.226562 "/>
<path fill-rule="nonzero" fill="rgb(0%, 0%, 0%)" fill-opacity="1" d="M 194.804688 10.183594 C 194.804688 8.644531 195.515625 6.769531 197.304688 6.769531 C 197.140625 6.894531 196.972656 7.144531 196.972656 7.433594 C 196.972656 8.058594 197.472656 8.269531 197.804688 8.269531 C 198.265625 8.269531 198.679688 7.976562 198.679688 7.433594 C 198.679688 6.808594 198.054688 6.226562 197.179688 6.226562 C 196.265625 6.226562 195.222656 6.808594 194.679688 8.226562 L 194.679688 6.226562 L 192.015625 6.433594 L 192.015625 7.101562 C 193.265625 7.101562 193.390625 7.226562 193.390625 8.144531 L 193.390625 12.976562 C 193.390625 13.769531 193.222656 13.769531 192.015625 13.769531 L 192.015625 14.433594 C 192.097656 14.433594 193.347656 14.351562 194.140625 14.351562 C 194.929688 14.351562 195.722656 14.394531 196.554688 14.433594 L 196.554688 13.769531 L 196.179688 13.769531 C 194.804688 13.769531 194.804688 13.558594 194.804688 12.933594 Z M 194.804688 10.183594 "/>
<path fill-rule="nonzero" fill="rgb(0%, 0%, 0%)" fill-opacity="1" d="M 204.707031 10.921875 C 204.707031 10.546875 204.664062 10.546875 204.207031 10.546875 C 203.289062 11.378906 201.789062 11.378906 201.539062 11.378906 L 201.332031 11.378906 L 201.332031 11.960938 L 201.539062 11.960938 C 201.832031 11.960938 202.707031 11.921875 203.5 11.585938 L 203.5 18.253906 C 203.5 18.628906 203.5 18.796875 202.082031 18.796875 L 201.414062 18.796875 L 201.414062 19.378906 C 202.125 19.335938 203.332031 19.335938 204.082031 19.335938 C 204.875 19.335938 206.039062 19.335938 206.789062 19.378906 L 206.789062 18.796875 L 206.125 18.796875 C 204.707031 18.796875 204.707031 18.628906 204.707031 18.253906 Z M 204.707031 10.921875 "/>
<path fill="none" stroke-width="0.39848" stroke-linecap="butt" stroke-linejoin="miter" stroke="rgb(0%, 0%, 0%)" stroke-opacity="1" stroke-miterlimit="10" d="M -23.532291 24.403782 L -23.532291 7.270969 " transform="matrix(2.666667, 0, 0, -2.666667, 152.951996, 111.608002)"/>
<path fill="none" stroke-width="0.39848" stroke-linecap="round" stroke-linejoin="round" stroke="rgb(0%, 0%, 0%)" stroke-opacity="1" stroke-miterlimit="10" d="M -2.071754 2.391121 C -1.693825 0.957039 -0.850075 0.277351 -0.00193024 0.000495911 C -0.850075 -0.277824 -1.693825 -0.957512 -2.071754 -2.390129 " transform="matrix(0, 2.666667, 2.666667, 0, 90.197896, 92.755147)"/>
<path fill-rule="nonzero" fill="rgb(0%, 0%, 0%)" fill-opacity="1" d="M 42.296875 61.128906 C 42.171875 60.796875 42.128906 60.714844 41.921875 60.714844 C 41.714844 60.714844 41.628906 60.878906 41.503906 61.089844 L 37.296875 72.214844 C 37.046875 72.796875 36.671875 73.089844 36.171875 73.128906 C 36.089844 73.128906 35.796875 73.171875 35.796875 73.464844 C 35.796875 73.796875 36.089844 73.796875 36.421875 73.796875 L 39.378906 73.796875 C 39.714844 73.796875 40.003906 73.796875 40.003906 73.464844 C 40.003906 73.171875 39.753906 73.171875 39.589844 73.128906 C 39.339844 73.128906 38.878906 73.046875 38.878906 71.921875 C 38.878906 71.339844 39.003906 70.714844 39.128906 70.128906 L 43.214844 70.128906 C 43.878906 71.964844 43.878906 72.253906 43.921875 72.628906 C 43.464844 73.089844 42.964844 73.128906 42.753906 73.128906 C 42.546875 73.171875 42.421875 73.296875 42.421875 73.464844 C 42.421875 73.796875 42.714844 73.796875 43.046875 73.796875 L 47.878906 73.796875 C 48.214844 73.796875 48.546875 73.796875 48.546875 73.464844 C 48.546875 73.214844 48.296875 73.171875 48.128906 73.128906 C 47.714844 73.089844 47.378906 72.753906 47.003906 71.921875 Z M 39.339844 69.503906 C 39.753906 67.839844 40.339844 66.253906 40.964844 64.714844 C 41.546875 65.964844 42.671875 68.628906 42.964844 69.503906 Z M 38.214844 71.546875 L 38.253906 71.589844 L 38.253906 71.753906 C 38.214844 71.796875 38.214844 71.839844 38.214844 71.921875 C 38.214844 72.003906 38.214844 72.714844 38.503906 73.128906 L 37.503906 73.128906 C 37.714844 72.878906 37.796875 72.671875 37.921875 72.378906 Z M 41.253906 63.714844 L 41.921875 61.921875 L 46.421875 72.171875 C 46.503906 72.378906 46.714844 72.796875 46.964844 73.128906 L 44.339844 73.128906 C 44.503906 73.046875 44.589844 72.753906 44.589844 72.546875 C 44.589844 71.421875 42.964844 67.628906 42.171875 65.796875 Z M 41.253906 63.714844 "/>
<path fill-rule="nonzero" fill="rgb(0%, 0%, 0%)" fill-opacity="1" d="M 53.769531 67.90625 C 53.851562 67.699219 53.851562 67.699219 53.851562 67.617188 C 53.851562 67.40625 53.644531 67.40625 53.433594 67.40625 L 51.808594 67.53125 C 51.558594 67.53125 51.519531 67.53125 51.476562 67.617188 C 51.433594 67.65625 51.394531 67.824219 51.394531 67.90625 C 51.394531 68.117188 51.601562 68.117188 51.769531 68.117188 C 51.808594 68.117188 52.019531 68.117188 52.226562 68.15625 C 52.476562 68.199219 52.476562 68.242188 52.476562 68.324219 C 52.476562 68.367188 52.476562 68.40625 52.433594 68.65625 L 50.601562 75.992188 C 50.558594 76.15625 50.558594 76.199219 50.558594 76.28125 C 50.558594 76.574219 50.769531 76.78125 51.058594 76.78125 C 51.558594 76.78125 51.683594 76.28125 51.726562 76.074219 L 52.351562 73.65625 C 52.683594 73.65625 54.351562 73.742188 54.351562 74.699219 C 54.351562 74.78125 54.351562 74.824219 54.308594 74.992188 C 54.269531 75.199219 54.269531 75.242188 54.269531 75.324219 C 54.269531 76.28125 55.101562 76.78125 55.894531 76.78125 C 57.226562 76.78125 57.769531 74.867188 57.769531 74.699219 C 57.769531 74.53125 57.558594 74.53125 57.476562 74.53125 C 57.269531 74.53125 57.226562 74.574219 57.183594 74.824219 C 57.058594 75.28125 56.644531 76.324219 55.933594 76.324219 C 55.433594 76.324219 55.394531 75.824219 55.394531 75.53125 C 55.394531 75.53125 55.394531 75.324219 55.433594 75.117188 C 55.476562 74.90625 55.519531 74.742188 55.519531 74.65625 C 55.519531 73.492188 54.019531 73.28125 53.144531 73.199219 C 53.519531 72.992188 54.101562 72.53125 54.308594 72.367188 C 55.058594 71.78125 55.808594 71.199219 56.558594 71.199219 C 56.851562 71.199219 56.933594 71.28125 57.019531 71.367188 C 57.019531 71.367188 56.933594 71.40625 56.894531 71.40625 C 56.308594 71.617188 56.308594 72.15625 56.308594 72.199219 C 56.308594 72.40625 56.476562 72.742188 56.894531 72.742188 C 57.144531 72.742188 57.726562 72.53125 57.726562 71.78125 C 57.726562 71.15625 57.226562 70.742188 56.558594 70.742188 C 55.683594 70.742188 54.894531 71.367188 53.933594 72.117188 C 53.476562 72.492188 53.019531 72.824219 52.476562 73.074219 Z M 53.769531 67.90625 "/>
<path fill-rule="nonzero" fill="rgb(0%, 0%, 0%)" fill-opacity="1" d="M 70.886719 73.660156 C 71.09375 73.660156 71.429688 73.660156 71.429688 73.285156 C 71.429688 72.910156 71.09375 72.910156 70.886719 72.910156 L 61.886719 72.910156 C 61.679688 72.910156 61.304688 72.910156 61.304688 73.285156 C 61.304688 73.660156 61.679688 73.660156 61.886719 73.660156 Z M 70.886719 73.660156 "/>
<path fill-rule="nonzero" fill="rgb(0%, 0%, 0%)" fill-opacity="1" d="M 78.863281 68.15625 C 78.863281 67.78125 78.820312 67.78125 78.363281 67.78125 C 77.445312 68.617188 75.945312 68.617188 75.695312 68.617188 L 75.488281 68.617188 L 75.488281 69.199219 L 75.695312 69.199219 C 75.988281 69.199219 76.863281 69.15625 77.652344 68.824219 L 77.652344 75.492188 C 77.652344 75.867188 77.652344 76.03125 76.238281 76.03125 L 75.570312 76.03125 L 75.570312 76.617188 C 76.277344 76.574219 77.488281 76.574219 78.238281 76.574219 C 79.027344 76.574219 80.195312 76.574219 80.945312 76.617188 L 80.945312 76.03125 L 80.277344 76.03125 C 78.863281 76.03125 78.863281 75.867188 78.863281 75.492188 Z M 78.863281 68.15625 "/>
<path fill="none" stroke-width="0.39848" stroke-linecap="butt" stroke-linejoin="miter" stroke="rgb(0%, 0%, 0%)" stroke-opacity="1" stroke-miterlimit="10" d="M 39.142513 24.403782 L 39.142513 7.270969 " transform="matrix(2.666667, 0, 0, -2.666667, 152.951996, 111.608002)"/>
<path fill="none" stroke-width="0.39848" stroke-linecap="round" stroke-linejoin="round" stroke="rgb(0%, 0%, 0%)" stroke-opacity="1" stroke-miterlimit="10" d="M -2.071754 2.388557 C -1.693825 0.95594 -0.850075 0.279182 -0.00193024 -0.00206757 C -0.850075 -0.278923 -1.693825 -0.954216 -2.071754 -2.392693 " transform="matrix(0, 2.666667, 2.666667, 0, 257.337545, 92.755147)"/>
<path fill-rule="nonzero" fill="rgb(0%, 0%, 0%)" fill-opacity="1" d="M 269.59375 65.910156 C 271.136719 65.246094 271.804688 64.996094 272.261719 64.746094 C 272.636719 64.621094 272.804688 64.535156 272.804688 64.160156 C 272.804688 63.871094 272.554688 63.578125 272.21875 63.578125 C 272.09375 63.578125 272.054688 63.578125 271.84375 63.746094 L 269.304688 65.453125 L 269.59375 62.703125 C 269.636719 62.371094 269.59375 61.910156 269.011719 61.910156 C 268.804688 61.910156 268.429688 62.035156 268.429688 62.453125 C 268.429688 62.621094 268.511719 63.160156 268.554688 63.371094 C 268.59375 63.660156 268.71875 65.035156 268.761719 65.453125 L 266.21875 63.746094 C 266.054688 63.660156 266.011719 63.578125 265.84375 63.578125 C 265.46875 63.578125 265.261719 63.871094 265.261719 64.160156 C 265.261719 64.535156 265.46875 64.660156 265.636719 64.703125 L 268.429688 65.910156 C 266.929688 66.578125 266.21875 66.828125 265.761719 67.035156 C 265.429688 67.203125 265.261719 67.285156 265.261719 67.621094 C 265.261719 67.953125 265.46875 68.203125 265.84375 68.203125 C 265.96875 68.203125 266.011719 68.203125 266.21875 68.035156 L 268.761719 66.371094 L 268.429688 69.328125 C 268.429688 69.746094 268.804688 69.910156 269.011719 69.910156 C 269.261719 69.910156 269.59375 69.746094 269.59375 69.328125 C 269.59375 69.160156 269.511719 68.621094 269.511719 68.453125 C 269.46875 68.121094 269.34375 66.785156 269.304688 66.371094 L 271.511719 67.828125 C 272.011719 68.203125 272.054688 68.203125 272.21875 68.203125 C 272.554688 68.203125 272.804688 67.953125 272.804688 67.621094 C 272.804688 67.246094 272.554688 67.160156 272.386719 67.078125 Z M 269.59375 65.910156 "/>
<path fill-rule="nonzero" fill="rgb(0%, 0%, 0%)" fill-opacity="1" d="M 280.6875 70.492188 L 278.144531 64.449219 C 278.019531 64.15625 278.019531 64.15625 277.644531 64.15625 L 275.1875 64.15625 C 274.9375 64.15625 274.726562 64.15625 274.726562 64.40625 C 274.726562 64.65625 274.976562 64.65625 275.0625 64.65625 C 275.226562 64.65625 275.5625 64.65625 275.851562 64.78125 L 275.851562 71.867188 C 275.851562 72.15625 275.851562 72.742188 274.9375 72.824219 C 274.6875 72.824219 274.6875 73.03125 274.6875 73.03125 C 274.6875 73.28125 274.9375 73.28125 275.144531 73.28125 L 277.226562 73.28125 C 277.4375 73.28125 277.644531 73.28125 277.644531 73.03125 C 277.644531 72.90625 277.5625 72.824219 277.4375 72.824219 C 276.4375 72.742188 276.4375 72.199219 276.4375 71.867188 L 276.4375 65.242188 L 279.6875 72.992188 C 279.769531 73.242188 279.894531 73.28125 279.9375 73.28125 C 280.101562 73.28125 280.144531 73.15625 280.226562 73.03125 L 283.476562 65.242188 L 283.476562 71.867188 C 283.476562 72.15625 283.476562 72.742188 282.601562 72.824219 C 282.351562 72.824219 282.351562 73.03125 282.351562 73.03125 C 282.351562 73.28125 282.5625 73.28125 282.769531 73.28125 L 286.351562 73.28125 C 286.5625 73.28125 286.769531 73.28125 286.769531 73.03125 C 286.769531 72.90625 286.6875 72.824219 286.5625 72.824219 C 285.519531 72.742188 285.519531 72.199219 285.519531 71.867188 L 285.519531 65.574219 C 285.519531 65.324219 285.519531 64.742188 286.4375 64.65625 C 286.5625 64.617188 286.6875 64.574219 286.6875 64.40625 C 286.6875 64.15625 286.476562 64.15625 286.269531 64.15625 L 283.6875 64.15625 C 283.351562 64.15625 283.3125 64.15625 283.1875 64.449219 Z M 280.269531 70.742188 C 280.394531 70.949219 280.394531 70.949219 280.5625 71.03125 L 279.976562 72.449219 L 279.9375 72.449219 L 276.894531 65.199219 C 276.851562 65.03125 276.726562 64.78125 276.5625 64.65625 L 277.726562 64.65625 Z M 276.269531 72.824219 L 276.019531 72.824219 C 276.0625 72.78125 276.101562 72.742188 276.101562 72.699219 C 276.144531 72.699219 276.144531 72.699219 276.144531 72.65625 Z M 283.9375 64.65625 L 285.351562 64.65625 C 285.0625 64.992188 285.0625 65.324219 285.0625 65.574219 L 285.0625 71.90625 C 285.0625 72.15625 285.0625 72.492188 285.394531 72.824219 L 283.644531 72.824219 C 283.9375 72.492188 283.9375 72.15625 283.9375 71.90625 Z M 283.9375 64.65625 "/>
<path fill-rule="nonzero" fill="rgb(0%, 0%, 0%)" fill-opacity="1" d="M 291.898438 69.222656 C 291.980469 69.015625 291.980469 69.015625 291.980469 68.929688 C 291.980469 68.722656 291.773438 68.722656 291.566406 68.722656 L 289.941406 68.847656 C 289.691406 68.847656 289.648438 68.847656 289.605469 68.929688 C 289.566406 68.972656 289.523438 69.140625 289.523438 69.222656 C 289.523438 69.429688 289.730469 69.429688 289.898438 69.429688 C 289.941406 69.429688 290.148438 69.429688 290.355469 69.472656 C 290.605469 69.515625 290.605469 69.554688 290.605469 69.640625 C 290.605469 69.679688 290.605469 69.722656 290.566406 69.972656 L 288.730469 77.304688 C 288.691406 77.472656 288.691406 77.515625 288.691406 77.597656 C 288.691406 77.890625 288.898438 78.097656 289.191406 78.097656 C 289.691406 78.097656 289.816406 77.597656 289.855469 77.390625 L 290.480469 74.972656 C 290.816406 74.972656 292.480469 75.054688 292.480469 76.015625 C 292.480469 76.097656 292.480469 76.140625 292.441406 76.304688 C 292.398438 76.515625 292.398438 76.554688 292.398438 76.640625 C 292.398438 77.597656 293.230469 78.097656 294.023438 78.097656 C 295.355469 78.097656 295.898438 76.179688 295.898438 76.015625 C 295.898438 75.847656 295.691406 75.847656 295.605469 75.847656 C 295.398438 75.847656 295.355469 75.890625 295.316406 76.140625 C 295.191406 76.597656 294.773438 77.640625 294.066406 77.640625 C 293.566406 77.640625 293.523438 77.140625 293.523438 76.847656 C 293.523438 76.847656 293.523438 76.640625 293.566406 76.429688 C 293.605469 76.222656 293.648438 76.054688 293.648438 75.972656 C 293.648438 74.804688 292.148438 74.597656 291.273438 74.515625 C 291.648438 74.304688 292.230469 73.847656 292.441406 73.679688 C 293.191406 73.097656 293.941406 72.515625 294.691406 72.515625 C 294.980469 72.515625 295.066406 72.597656 295.148438 72.679688 C 295.148438 72.679688 295.066406 72.722656 295.023438 72.722656 C 294.441406 72.929688 294.441406 73.472656 294.441406 73.515625 C 294.441406 73.722656 294.605469 74.054688 295.023438 74.054688 C 295.273438 74.054688 295.855469 73.847656 295.855469 73.097656 C 295.855469 72.472656 295.355469 72.054688 294.691406 72.054688 C 293.816406 72.054688 293.023438 72.679688 292.066406 73.429688 C 291.605469 73.804688 291.148438 74.140625 290.605469 74.390625 Z M 291.898438 69.222656 "/>
<path fill="none" stroke-width="2.33075" stroke-linecap="butt" stroke-linejoin="miter" stroke="rgb(0%, 0%, 0%)" stroke-opacity="1" stroke-miterlimit="10" d="M 0.584896 11.576145 L 16.658627 20.192356 " transform="matrix(2.666667, 0, 0, -2.666667, 152.951996, 111.608002)"/>
<path fill="none" stroke-width="1.53377" stroke-linecap="butt" stroke-linejoin="miter" stroke="rgb(100%, 100%, 100%)" stroke-opacity="1" stroke-miterlimit="10" d="M 0.584896 11.576145 L 16.658627 20.192356 " transform="matrix(2.666667, 0, 0, -2.666667, 152.951996, 111.608002)"/>
<path fill="none" stroke-width="0.39848" stroke-linecap="round" stroke-linejoin="round" stroke="rgb(0%, 0%, 0%)" stroke-opacity="1" stroke-miterlimit="10" d="M -1.29373 2.560803 C -0.666884 1.209306 1.023779 0.0471626 1.98973 -0.00188639 C 1.026341 -0.0472851 -0.666629 -1.205783 -1.296927 -2.56157 " transform="matrix(2.350267, -1.259733, -1.259733, -2.350267, 197.372009, 57.763814)"/>
<path fill-rule="nonzero" fill="rgb(0%, 0%, 0%)" fill-opacity="1" d="M 154.042969 46.460938 C 154.042969 46.417969 154.082031 46.167969 154.082031 46.167969 C 154.082031 46.042969 154.042969 45.878906 153.792969 45.878906 C 153.417969 45.878906 151.875 46.042969 151.417969 46.085938 C 151.292969 46.085938 151 46.128906 151 46.503906 C 151 46.753906 151.292969 46.753906 151.5 46.753906 C 152.375 46.753906 152.375 46.917969 152.375 47.042969 C 152.375 47.167969 152.332031 47.292969 152.332031 47.460938 L 149.707031 57.960938 C 149.582031 58.292969 149.582031 58.335938 149.582031 58.378906 C 149.582031 58.667969 149.832031 58.960938 150.25 58.960938 C 150.457031 58.960938 150.792969 58.878906 151 58.503906 C 151.042969 58.378906 151.207031 57.710938 151.292969 57.335938 L 151.75 55.667969 C 151.792969 55.378906 152 54.667969 152.042969 54.417969 C 152.207031 53.710938 152.207031 53.667969 152.582031 53.085938 C 153.207031 52.167969 154.125 51.128906 155.582031 51.128906 C 156.625 51.128906 156.667969 51.960938 156.667969 52.417969 C 156.667969 53.542969 155.875 55.585938 155.582031 56.378906 C 155.375 56.917969 155.292969 57.085938 155.292969 57.378906 C 155.292969 58.378906 156.125 58.960938 157.042969 58.960938 C 158.917969 58.960938 159.75 56.417969 159.75 56.128906 C 159.75 55.878906 159.5 55.878906 159.417969 55.878906 C 159.167969 55.878906 159.167969 56.003906 159.082031 56.210938 C 158.667969 57.710938 157.832031 58.460938 157.125 58.460938 C 156.707031 58.460938 156.625 58.210938 156.625 57.792969 C 156.625 57.378906 156.75 57.128906 157.082031 56.292969 C 157.292969 55.710938 158.042969 53.753906 158.042969 52.710938 C 158.042969 52.417969 158.042969 51.628906 157.375 51.085938 C 157.042969 50.878906 156.5 50.585938 155.625 50.585938 C 154.292969 50.585938 153.292969 51.335938 152.625 52.128906 Z M 154.042969 46.460938 "/>
<path fill-rule="nonzero" fill="rgb(0%, 0%, 0%)" fill-opacity="1" d="M 165.519531 52.90625 C 165.605469 52.695312 165.605469 52.695312 165.605469 52.613281 C 165.605469 52.40625 165.394531 52.40625 165.1875 52.40625 L 163.5625 52.53125 C 163.3125 52.53125 163.269531 52.53125 163.230469 52.613281 C 163.1875 52.65625 163.144531 52.820312 163.144531 52.90625 C 163.144531 53.113281 163.355469 53.113281 163.519531 53.113281 C 163.5625 53.113281 163.769531 53.113281 163.980469 53.15625 C 164.230469 53.195312 164.230469 53.238281 164.230469 53.320312 C 164.230469 53.363281 164.230469 53.40625 164.1875 53.65625 L 162.355469 60.988281 C 162.3125 61.15625 162.3125 61.195312 162.3125 61.28125 C 162.3125 61.570312 162.519531 61.78125 162.8125 61.78125 C 163.3125 61.78125 163.4375 61.28125 163.480469 61.070312 L 164.105469 58.65625 C 164.4375 58.65625 166.105469 58.738281 166.105469 59.695312 C 166.105469 59.78125 166.105469 59.820312 166.0625 59.988281 C 166.019531 60.195312 166.019531 60.238281 166.019531 60.320312 C 166.019531 61.28125 166.855469 61.78125 167.644531 61.78125 C 168.980469 61.78125 169.519531 59.863281 169.519531 59.695312 C 169.519531 59.53125 169.3125 59.53125 169.230469 59.53125 C 169.019531 59.53125 168.980469 59.570312 168.9375 59.820312 C 168.8125 60.28125 168.394531 61.320312 167.6875 61.320312 C 167.1875 61.320312 167.144531 60.820312 167.144531 60.53125 C 167.144531 60.53125 167.144531 60.320312 167.1875 60.113281 C 167.230469 59.90625 167.269531 59.738281 167.269531 59.65625 C 167.269531 58.488281 165.769531 58.28125 164.894531 58.195312 C 165.269531 57.988281 165.855469 57.53125 166.0625 57.363281 C 166.8125 56.78125 167.5625 56.195312 168.3125 56.195312 C 168.605469 56.195312 168.6875 56.28125 168.769531 56.363281 C 168.769531 56.363281 168.6875 56.40625 168.644531 56.40625 C 168.0625 56.613281 168.0625 57.15625 168.0625 57.195312 C 168.0625 57.40625 168.230469 57.738281 168.644531 57.738281 C 168.894531 57.738281 169.480469 57.53125 169.480469 56.78125 C 169.480469 56.15625 168.980469 55.738281 168.3125 55.738281 C 167.4375 55.738281 166.644531 56.363281 165.6875 57.113281 C 165.230469 57.488281 164.769531 57.820312 164.230469 58.070312 Z M 165.519531 52.90625 "/>
<path fill="none" stroke-width="0.39848" stroke-linecap="butt" stroke-linejoin="miter" stroke="rgb(0%, 0%, 0%)" stroke-opacity="1" stroke-miterlimit="10" d="M -6.786198 -1.349636 L 27.095638 -1.349636 " transform="matrix(2.666667, 0, 0, -2.666667, 152.951996, 111.608002)"/>
<path fill="none" stroke-width="0.39848" stroke-linecap="round" stroke-linejoin="round" stroke="rgb(0%, 0%, 0%)" stroke-opacity="1" stroke-miterlimit="10" d="M -2.071518 2.392059 C -1.692123 0.957977 -0.848373 0.27829 -0.00169373 0.00143433 C -0.848373 -0.279816 -1.692123 -0.956573 -2.071518 -2.389191 " transform="matrix(2.666667, 0, 0, -2.666667, 225.742798, 115.210856)"/>
<path fill-rule="nonzero" fill="rgb(0%, 0%, 0%)" fill-opacity="1" d="M 161.585938 101.753906 C 161.503906 102.003906 161.417969 102.210938 161.417969 102.546875 C 161.417969 103.421875 162.128906 104.085938 163.167969 104.085938 C 165.003906 104.085938 165.835938 101.546875 165.835938 101.253906 C 165.835938 101.003906 165.585938 101.003906 165.542969 101.003906 C 165.292969 101.003906 165.253906 101.128906 165.167969 101.335938 C 164.753906 102.835938 163.960938 103.585938 163.210938 103.585938 C 162.835938 103.585938 162.753906 103.335938 162.753906 102.921875 C 162.753906 102.503906 162.878906 102.171875 163.042969 101.753906 C 163.253906 101.253906 163.460938 100.753906 163.628906 100.253906 C 163.792969 99.796875 164.503906 98.128906 164.542969 97.878906 C 164.628906 97.710938 164.667969 97.503906 164.667969 97.296875 C 164.667969 96.421875 163.917969 95.710938 162.917969 95.710938 C 161.042969 95.710938 160.210938 98.253906 160.210938 98.585938 C 160.210938 98.796875 160.460938 98.796875 160.542969 98.796875 C 160.792969 98.796875 160.792969 98.710938 160.878906 98.503906 C 161.335938 96.921875 162.167969 96.253906 162.835938 96.253906 C 163.128906 96.253906 163.292969 96.378906 163.292969 96.878906 C 163.292969 97.335938 163.210938 97.585938 162.753906 98.753906 Z M 161.585938 101.753906 "/>
<path fill-rule="nonzero" fill="rgb(0%, 0%, 0%)" fill-opacity="1" d="M 171.625 98.03125 C 171.707031 97.820312 171.707031 97.820312 171.707031 97.738281 C 171.707031 97.53125 171.5 97.53125 171.289062 97.53125 L 169.664062 97.65625 C 169.414062 97.65625 169.375 97.65625 169.332031 97.738281 C 169.289062 97.78125 169.25 97.945312 169.25 98.03125 C 169.25 98.238281 169.457031 98.238281 169.625 98.238281 C 169.664062 98.238281 169.875 98.238281 170.082031 98.28125 C 170.332031 98.320312 170.332031 98.363281 170.332031 98.445312 C 170.332031 98.488281 170.332031 98.53125 170.289062 98.78125 L 168.457031 106.113281 C 168.414062 106.28125 168.414062 106.320312 168.414062 106.40625 C 168.414062 106.695312 168.625 106.90625 168.914062 106.90625 C 169.414062 106.90625 169.539062 106.40625 169.582031 106.195312 L 170.207031 103.78125 C 170.539062 103.78125 172.207031 103.863281 172.207031 104.820312 C 172.207031 104.90625 172.207031 104.945312 172.164062 105.113281 C 172.125 105.320312 172.125 105.363281 172.125 105.445312 C 172.125 106.40625 172.957031 106.90625 173.75 106.90625 C 175.082031 106.90625 175.625 104.988281 175.625 104.820312 C 175.625 104.65625 175.414062 104.65625 175.332031 104.65625 C 175.125 104.65625 175.082031 104.695312 175.039062 104.945312 C 174.914062 105.40625 174.5 106.445312 173.789062 106.445312 C 173.289062 106.445312 173.25 105.945312 173.25 105.65625 C 173.25 105.65625 173.25 105.445312 173.289062 105.238281 C 173.332031 105.03125 173.375 104.863281 173.375 104.78125 C 173.375 103.613281 171.875 103.40625 171 103.320312 C 171.375 103.113281 171.957031 102.65625 172.164062 102.488281 C 172.914062 101.90625 173.664062 101.320312 174.414062 101.320312 C 174.707031 101.320312 174.789062 101.40625 174.875 101.488281 C 174.875 101.488281 174.789062 101.53125 174.75 101.53125 C 174.164062 101.738281 174.164062 102.28125 174.164062 102.320312 C 174.164062 102.53125 174.332031 102.863281 174.75 102.863281 C 175 102.863281 175.582031 102.65625 175.582031 101.90625 C 175.582031 101.28125 175.082031 100.863281 174.414062 100.863281 C 173.539062 100.863281 172.75 101.488281 171.789062 102.238281 C 171.332031 102.613281 170.875 102.945312 170.332031 103.195312 Z M 171.625 98.03125 "/>
<path fill-rule="nonzero" fill="rgb(0%, 0%, 0%)" fill-opacity="1" d="M 188.742188 103.78125 C 188.953125 103.78125 189.285156 103.78125 189.285156 103.40625 C 189.285156 103.03125 188.953125 103.03125 188.742188 103.03125 L 179.742188 103.03125 C 179.535156 103.03125 179.160156 103.03125 179.160156 103.40625 C 179.160156 103.78125 179.535156 103.78125 179.742188 103.78125 Z M 188.742188 103.78125 "/>
<path fill-rule="nonzero" fill="rgb(0%, 0%, 0%)" fill-opacity="1" d="M 196.714844 98.28125 C 196.714844 97.90625 196.675781 97.90625 196.214844 97.90625 C 195.300781 98.738281 193.800781 98.738281 193.550781 98.738281 L 193.339844 98.738281 L 193.339844 99.320312 L 193.550781 99.320312 C 193.839844 99.320312 194.714844 99.28125 195.507812 98.945312 L 195.507812 105.613281 C 195.507812 105.988281 195.507812 106.15625 194.089844 106.15625 L 193.425781 106.15625 L 193.425781 106.738281 C 194.132812 106.695312 195.339844 106.695312 196.089844 106.695312 C 196.882812 106.695312 198.050781 106.695312 198.800781 106.738281 L 198.800781 106.15625 L 198.132812 106.15625 C 196.714844 106.15625 196.714844 105.988281 196.714844 105.613281 Z M 196.714844 98.28125 "/>
<path fill="none" stroke-width="0.39848" stroke-linecap="butt" stroke-linejoin="miter" stroke="rgb(0%, 0%, 0%)" stroke-opacity="1" stroke-miterlimit="10" d="M -7.739811 -10.014187 L 30.690365 -31.084499 " transform="matrix(2.666667, 0, 0, -2.666667, 152.951996, 111.608002)"/>
<path fill="none" stroke-width="0.39848" stroke-linecap="round" stroke-linejoin="round" stroke="rgb(0%, 0%, 0%)" stroke-opacity="1" stroke-miterlimit="10" d="M -2.070191 2.38998 C -1.69533 0.956605 -0.85081 0.278565 0.000797617 0.00202091 C -0.8488 -0.276654 -1.691689 -0.957614 -2.073375 -2.391444 " transform="matrix(2.338187, 1.281893, 1.281893, -2.338187, 235.257263, 194.753703)"/>
<path fill-rule="nonzero" fill="rgb(0%, 0%, 0%)" fill-opacity="1" d="M 139.941406 178.5 L 141.730469 178.5 C 142.105469 178.5 142.355469 178.5 142.355469 178.085938 C 142.355469 177.835938 142.105469 177.835938 141.773438 177.835938 L 140.066406 177.835938 C 140.480469 175.460938 140.605469 174.625 140.773438 174.085938 C 140.855469 173.667969 141.273438 173.292969 141.730469 173.292969 C 141.730469 173.292969 142.230469 173.292969 142.605469 173.5 C 141.816406 173.75 141.773438 174.417969 141.773438 174.5 C 141.773438 174.917969 142.105469 175.210938 142.523438 175.210938 C 143.023438 175.210938 143.566406 174.792969 143.566406 174.085938 C 143.566406 173.210938 142.691406 172.75 141.730469 172.75 C 140.898438 172.75 139.980469 173.210938 139.480469 174.125 C 139.105469 174.835938 138.980469 175.667969 138.566406 177.835938 L 137.105469 177.835938 C 136.730469 177.835938 136.480469 177.835938 136.480469 178.25 C 136.480469 178.5 136.730469 178.5 137.066406 178.5 L 138.441406 178.5 C 138.441406 178.625 137.273438 185.292969 136.816406 187.292969 C 136.730469 187.710938 136.398438 189.085938 135.523438 189.085938 C 135.480469 189.085938 135.066406 189.085938 134.691406 188.875 C 135.441406 188.625 135.523438 187.960938 135.523438 187.875 C 135.523438 187.460938 135.191406 187.167969 134.773438 187.167969 C 134.273438 187.167969 133.730469 187.585938 133.730469 188.292969 C 133.730469 189.125 134.605469 189.625 135.523438 189.625 C 136.691406 189.625 137.523438 188.417969 137.730469 188 C 138.398438 186.75 138.855469 184.460938 138.898438 184.25 Z M 139.941406 178.5 "/>
<path fill-rule="nonzero" fill="rgb(0%, 0%, 0%)" fill-opacity="1" d="M 147.589844 179.945312 C 147.671875 179.738281 147.671875 179.738281 147.671875 179.652344 C 147.671875 179.445312 147.464844 179.445312 147.257812 179.445312 L 145.632812 179.570312 C 145.382812 179.570312 145.339844 179.570312 145.296875 179.652344 C 145.257812 179.695312 145.214844 179.863281 145.214844 179.945312 C 145.214844 180.152344 145.421875 180.152344 145.589844 180.152344 C 145.632812 180.152344 145.839844 180.152344 146.046875 180.195312 C 146.296875 180.238281 146.296875 180.277344 146.296875 180.363281 C 146.296875 180.402344 146.296875 180.445312 146.257812 180.695312 L 144.421875 188.027344 C 144.382812 188.195312 144.382812 188.238281 144.382812 188.320312 C 144.382812 188.613281 144.589844 188.820312 144.882812 188.820312 C 145.382812 188.820312 145.507812 188.320312 145.546875 188.113281 L 146.171875 185.695312 C 146.507812 185.695312 148.171875 185.777344 148.171875 186.738281 C 148.171875 186.820312 148.171875 186.863281 148.132812 187.027344 C 148.089844 187.238281 148.089844 187.277344 148.089844 187.363281 C 148.089844 188.320312 148.921875 188.820312 149.714844 188.820312 C 151.046875 188.820312 151.589844 186.902344 151.589844 186.738281 C 151.589844 186.570312 151.382812 186.570312 151.296875 186.570312 C 151.089844 186.570312 151.046875 186.613281 151.007812 186.863281 C 150.882812 187.320312 150.464844 188.363281 149.757812 188.363281 C 149.257812 188.363281 149.214844 187.863281 149.214844 187.570312 C 149.214844 187.570312 149.214844 187.363281 149.257812 187.152344 C 149.296875 186.945312 149.339844 186.777344 149.339844 186.695312 C 149.339844 185.527344 147.839844 185.320312 146.964844 185.238281 C 147.339844 185.027344 147.921875 184.570312 148.132812 184.402344 C 148.882812 183.820312 149.632812 183.238281 150.382812 183.238281 C 150.671875 183.238281 150.757812 183.320312 150.839844 183.402344 C 150.839844 183.402344 150.757812 183.445312 150.714844 183.445312 C 150.132812 183.652344 150.132812 184.195312 150.132812 184.238281 C 150.132812 184.445312 150.296875 184.777344 150.714844 184.777344 C 150.964844 184.777344 151.546875 184.570312 151.546875 183.820312 C 151.546875 183.195312 151.046875 182.777344 150.382812 182.777344 C 149.507812 182.777344 148.714844 183.402344 147.757812 184.152344 C 147.296875 184.527344 146.839844 184.863281 146.296875 185.113281 Z M 147.589844 179.945312 "/>
<path fill-rule="nonzero" fill="rgb(0%, 0%, 0%)" fill-opacity="1" d="M 164.707031 185.699219 C 164.917969 185.699219 165.25 185.699219 165.25 185.324219 C 165.25 184.949219 164.917969 184.949219 164.707031 184.949219 L 155.707031 184.949219 C 155.5 184.949219 155.125 184.949219 155.125 185.324219 C 155.125 185.699219 155.5 185.699219 155.707031 185.699219 Z M 164.707031 185.699219 "/>
<path fill-rule="nonzero" fill="rgb(0%, 0%, 0%)" fill-opacity="1" d="M 172.683594 180.195312 C 172.683594 179.820312 172.640625 179.820312 172.183594 179.820312 C 171.265625 180.652344 169.765625 180.652344 169.515625 180.652344 L 169.308594 180.652344 L 169.308594 181.238281 L 169.515625 181.238281 C 169.808594 181.238281 170.683594 181.195312 171.476562 180.863281 L 171.476562 187.527344 C 171.476562 187.902344 171.476562 188.070312 170.058594 188.070312 L 169.390625 188.070312 L 169.390625 188.652344 C 170.101562 188.613281 171.308594 188.613281 172.058594 188.613281 C 172.851562 188.613281 174.015625 188.613281 174.765625 188.652344 L 174.765625 188.070312 L 174.101562 188.070312 C 172.683594 188.070312 172.683594 187.902344 172.683594 187.527344 Z M 172.683594 180.195312 "/>
<path fill-rule="nonzero" fill="rgb(0%, 0%, 0%)" fill-opacity="1" d="M 210.910156 97.660156 C 210.617188 97.660156 210.160156 97.660156 210.160156 98.078125 C 210.160156 98.578125 210.574219 98.578125 210.910156 98.578125 L 217.410156 98.578125 C 218.035156 98.578125 218.117188 98.453125 218.117188 97.871094 L 218.117188 91.285156 C 218.117188 90.996094 218.117188 90.578125 217.699219 90.578125 C 217.199219 90.578125 217.199219 91.078125 217.199219 91.371094 L 217.199219 97.660156 Z M 210.910156 97.660156 "/>
<path fill="none" stroke-width="0.39848" stroke-linecap="butt" stroke-linejoin="miter" stroke="rgb(0%, 0%, 0%)" stroke-opacity="1" stroke-miterlimit="10" d="M 39.142513 -9.18655 L 39.142513 -27.151394 " transform="matrix(2.666667, 0, 0, -2.666667, 152.951996, 111.608002)"/>
<path fill="none" stroke-width="0.39848" stroke-linecap="round" stroke-linejoin="round" stroke="rgb(0%, 0%, 0%)" stroke-opacity="1" stroke-miterlimit="10" d="M -2.071457 2.388557 C -1.692062 0.95594 -0.848312 0.279182 -0.000167847 -0.00206757 C -0.848312 -0.278923 -1.692062 -0.954216 -2.071457 -2.392693 " transform="matrix(0, 2.666667, 2.666667, 0, 257.337545, 184.543416)"/>
<path fill-rule="nonzero" fill="rgb(0%, 0%, 0%)" fill-opacity="1" d="M 271.179688 157.902344 L 272.96875 157.902344 C 273.34375 157.902344 273.59375 157.902344 273.59375 157.488281 C 273.59375 157.238281 273.34375 157.238281 273.011719 157.238281 L 271.304688 157.238281 C 271.71875 154.863281 271.84375 154.027344 272.011719 153.488281 C 272.09375 153.070312 272.511719 152.695312 272.96875 152.695312 C 272.96875 152.695312 273.46875 152.695312 273.84375 152.902344 C 273.054688 153.152344 273.011719 153.820312 273.011719 153.902344 C 273.011719 154.320312 273.34375 154.613281 273.761719 154.613281 C 274.261719 154.613281 274.804688 154.195312 274.804688 153.488281 C 274.804688 152.613281 273.929688 152.152344 272.96875 152.152344 C 272.136719 152.152344 271.21875 152.613281 270.71875 153.527344 C 270.34375 154.238281 270.21875 155.070312 269.804688 157.238281 L 268.34375 157.238281 C 267.96875 157.238281 267.71875 157.238281 267.71875 157.652344 C 267.71875 157.902344 267.96875 157.902344 268.304688 157.902344 L 269.679688 157.902344 C 269.679688 158.027344 268.511719 164.695312 268.054688 166.695312 C 267.96875 167.113281 267.636719 168.488281 266.761719 168.488281 C 266.71875 168.488281 266.304688 168.488281 265.929688 168.277344 C 266.679688 168.027344 266.761719 167.363281 266.761719 167.277344 C 266.761719 166.863281 266.429688 166.570312 266.011719 166.570312 C 265.511719 166.570312 264.96875 166.988281 264.96875 167.695312 C 264.96875 168.527344 265.84375 169.027344 266.761719 169.027344 C 267.929688 169.027344 268.761719 167.820312 268.96875 167.402344 C 269.636719 166.152344 270.09375 163.863281 270.136719 163.652344 Z M 271.179688 157.902344 "/>
<path fill-rule="nonzero" fill="rgb(0%, 0%, 0%)" fill-opacity="1" d="M 278.828125 159.347656 C 278.910156 159.140625 278.910156 159.140625 278.910156 159.054688 C 278.910156 158.847656 278.703125 158.847656 278.492188 158.847656 L 276.867188 158.972656 C 276.617188 158.972656 276.578125 158.972656 276.535156 159.054688 C 276.492188 159.097656 276.453125 159.265625 276.453125 159.347656 C 276.453125 159.554688 276.660156 159.554688 276.828125 159.554688 C 276.867188 159.554688 277.078125 159.554688 277.285156 159.597656 C 277.535156 159.640625 277.535156 159.679688 277.535156 159.765625 C 277.535156 159.804688 277.535156 159.847656 277.492188 160.097656 L 275.660156 167.429688 C 275.617188 167.597656 275.617188 167.640625 275.617188 167.722656 C 275.617188 168.015625 275.828125 168.222656 276.117188 168.222656 C 276.617188 168.222656 276.742188 167.722656 276.785156 167.515625 L 277.410156 165.097656 C 277.742188 165.097656 279.410156 165.179688 279.410156 166.140625 C 279.410156 166.222656 279.410156 166.265625 279.367188 166.429688 C 279.328125 166.640625 279.328125 166.679688 279.328125 166.765625 C 279.328125 167.722656 280.160156 168.222656 280.953125 168.222656 C 282.285156 168.222656 282.828125 166.304688 282.828125 166.140625 C 282.828125 165.972656 282.617188 165.972656 282.535156 165.972656 C 282.328125 165.972656 282.285156 166.015625 282.242188 166.265625 C 282.117188 166.722656 281.703125 167.765625 280.992188 167.765625 C 280.492188 167.765625 280.453125 167.265625 280.453125 166.972656 C 280.453125 166.972656 280.453125 166.765625 280.492188 166.554688 C 280.535156 166.347656 280.578125 166.179688 280.578125 166.097656 C 280.578125 164.929688 279.078125 164.722656 278.203125 164.640625 C 278.578125 164.429688 279.160156 163.972656 279.367188 163.804688 C 280.117188 163.222656 280.867188 162.640625 281.617188 162.640625 C 281.910156 162.640625 281.992188 162.722656 282.078125 162.804688 C 282.078125 162.804688 281.992188 162.847656 281.953125 162.847656 C 281.367188 163.054688 281.367188 163.597656 281.367188 163.640625 C 281.367188 163.847656 281.535156 164.179688 281.953125 164.179688 C 282.203125 164.179688 282.785156 163.972656 282.785156 163.222656 C 282.785156 162.597656 282.285156 162.179688 281.617188 162.179688 C 280.742188 162.179688 279.953125 162.804688 278.992188 163.554688 C 278.535156 163.929688 278.078125 164.265625 277.535156 164.515625 Z M 278.828125 159.347656 "/>
<g clip-path="url(#clip-0)">
<path fill="none" stroke-width="2.33075" stroke-linecap="butt" stroke-linejoin="miter" stroke="rgb(0%, 0%, 0%)" stroke-opacity="1" stroke-miterlimit="10" d="M 27.983334 -9.18655 L 16.58392 -17.181667 " transform="matrix(2.666667, 0, 0, -2.666667, 152.951996, 111.608002)"/>
</g>
<path fill="none" stroke-width="1.53377" stroke-linecap="butt" stroke-linejoin="miter" stroke="rgb(100%, 100%, 100%)" stroke-opacity="1" stroke-miterlimit="10" d="M 27.983334 -9.18655 L 16.58392 -17.181667 " transform="matrix(2.666667, 0, 0, -2.666667, 152.951996, 111.608002)"/>
<path fill="none" stroke-width="0.39848" stroke-linecap="round" stroke-linejoin="round" stroke="rgb(0%, 0%, 0%)" stroke-opacity="1" stroke-miterlimit="10" d="M -1.293405 2.559374 C -0.666528 1.208543 1.025646 0.0496589 1.99333 0.0005071 C 1.022889 -0.0486242 -0.668194 -1.206252 -1.293123 -2.560878 " transform="matrix(-2.182747, 1.531787, 1.531787, 2.182747, 197.18219, 157.426005)"/>
</svg>
