<?xml version="1.0" encoding="UTF-8"?>
<svg xmlns="http://www.w3.org/2000/svg" xmlns:xlink="http://www.w3.org/1999/xlink" width="397.786662" height="151.626668" viewBox="0 0 397.786662 151.626668">
<path fill-rule="nonzero" fill="rgb(0%, 0%, 0%)" fill-opacity="1" d="M 53.765625 18.640625 C 54.015625 17.683594 54.058594 17.433594 56.058594 17.433594 C 56.640625 17.433594 56.890625 17.433594 56.890625 16.890625 C 56.890625 16.597656 56.640625 16.597656 56.183594 16.597656 L 52.683594 16.597656 C 51.976562 16.597656 51.933594 16.597656 51.640625 17.097656 L 41.933594 32.265625 L 39.851562 17.222656 C 39.765625 16.597656 39.726562 16.597656 39.015625 16.597656 L 35.390625 16.597656 C 34.890625 16.597656 34.601562 16.597656 34.601562 17.097656 C 34.601562 17.433594 34.851562 17.433594 35.351562 17.433594 C 35.726562 17.433594 36.183594 17.472656 36.515625 17.472656 C 36.933594 17.558594 37.101562 17.597656 37.101562 17.933594 C 37.101562 18.015625 37.058594 18.097656 36.976562 18.433594 L 33.601562 31.933594 C 33.351562 33.015625 32.890625 33.847656 30.726562 33.933594 C 30.601562 33.933594 30.265625 33.972656 30.265625 34.433594 C 30.265625 34.683594 30.433594 34.765625 30.640625 34.765625 C 31.476562 34.765625 32.390625 34.683594 33.308594 34.683594 C 34.183594 34.683594 35.140625 34.765625 36.015625 34.765625 C 36.140625 34.765625 36.515625 34.765625 36.515625 34.222656 C 36.515625 33.933594 36.226562 33.933594 36.015625 33.933594 C 34.515625 33.933594 34.226562 33.390625 34.226562 32.765625 C 34.226562 32.597656 34.226562 32.433594 34.308594 32.140625 L 37.933594 17.683594 L 37.976562 17.683594 L 40.265625 34.140625 C 40.308594 34.472656 40.351562 34.765625 40.640625 34.765625 C 40.933594 34.765625 41.101562 34.472656 41.226562 34.308594 L 51.976562 17.472656 L 52.015625 17.472656 L 48.183594 32.683594 C 47.933594 33.722656 47.890625 33.933594 45.765625 33.933594 C 45.351562 33.933594 45.058594 33.933594 45.058594 34.433594 C 45.058594 34.765625 45.351562 34.765625 45.433594 34.765625 C 46.183594 34.765625 47.976562 34.683594 48.726562 34.683594 C 49.808594 34.683594 50.976562 34.765625 52.058594 34.765625 C 52.226562 34.765625 52.558594 34.765625 52.558594 34.222656 C 52.558594 33.933594 52.308594 33.933594 51.808594 33.933594 C 50.851562 33.933594 50.101562 33.933594 50.101562 33.472656 C 50.101562 33.347656 50.101562 33.308594 50.226562 32.808594 Z M 53.765625 18.640625 "/>
<path fill-rule="nonzero" fill="rgb(0%, 0%, 0%)" fill-opacity="1" d="M 57.164062 37.582031 C 57.121094 37.832031 56.996094 38.289062 56.996094 38.332031 C 56.996094 38.75 57.332031 38.914062 57.621094 38.914062 C 57.957031 38.914062 58.246094 38.707031 58.371094 38.539062 C 58.457031 38.375 58.582031 37.75 58.707031 37.375 C 58.789062 37.039062 58.996094 36.164062 59.082031 35.707031 C 59.207031 35.289062 59.332031 34.875 59.414062 34.457031 C 59.621094 33.707031 59.664062 33.539062 60.207031 32.789062 C 60.707031 32.039062 61.582031 31.082031 62.996094 31.082031 C 64.039062 31.082031 64.082031 32.039062 64.082031 32.375 C 64.082031 33.5 63.289062 35.539062 62.996094 36.332031 C 62.789062 36.875 62.707031 37.039062 62.707031 37.332031 C 62.707031 38.332031 63.496094 38.914062 64.457031 38.914062 C 66.332031 38.914062 67.121094 36.375 67.121094 36.082031 C 67.121094 35.832031 66.914062 35.832031 66.832031 35.832031 C 66.582031 35.832031 66.582031 35.957031 66.496094 36.164062 C 66.082031 37.664062 65.246094 38.414062 64.539062 38.414062 C 64.121094 38.414062 64.039062 38.164062 64.039062 37.75 C 64.039062 37.332031 64.164062 37.082031 64.496094 36.25 C 64.707031 35.664062 65.457031 33.707031 65.457031 32.664062 C 65.457031 30.875 64.039062 30.539062 63.039062 30.539062 C 61.496094 30.539062 60.457031 31.5 59.914062 32.25 C 59.789062 30.957031 58.707031 30.539062 57.914062 30.539062 C 57.121094 30.539062 56.707031 31.125 56.457031 31.539062 C 56.039062 32.25 55.789062 33.289062 55.789062 33.414062 C 55.789062 33.625 56.039062 33.625 56.121094 33.625 C 56.371094 33.625 56.371094 33.582031 56.496094 33.082031 C 56.789062 32 57.164062 31.082031 57.871094 31.082031 C 58.371094 31.082031 58.496094 31.5 58.496094 32 C 58.496094 32.332031 58.332031 33.039062 58.164062 33.539062 C 58.039062 34.039062 57.871094 34.789062 57.789062 35.207031 Z M 57.164062 37.582031 "/>
<path fill-rule="nonzero" fill="rgb(0%, 0%, 0%)" fill-opacity="1" d="M 85.613281 27.390625 L 80.320312 22.097656 C 79.988281 21.765625 79.945312 21.722656 79.738281 21.722656 C 79.445312 21.722656 79.195312 21.933594 79.195312 22.265625 C 79.195312 22.433594 79.238281 22.472656 79.53125 22.765625 L 84.863281 28.097656 L 79.53125 33.472656 C 79.238281 33.765625 79.195312 33.808594 79.195312 33.972656 C 79.195312 34.308594 79.445312 34.515625 79.738281 34.515625 C 79.945312 34.515625 79.988281 34.472656 80.320312 34.140625 L 85.613281 28.847656 L 91.113281 34.347656 C 91.15625 34.390625 91.320312 34.515625 91.488281 34.515625 C 91.820312 34.515625 92.03125 34.308594 92.03125 33.972656 C 92.03125 33.933594 92.03125 33.847656 91.945312 33.683594 C 91.90625 33.640625 87.695312 29.472656 86.363281 28.097656 L 91.238281 23.265625 C 91.363281 23.097656 91.78125 22.765625 91.90625 22.597656 C 91.90625 22.558594 92.03125 22.433594 92.03125 22.265625 C 92.03125 21.933594 91.820312 21.722656 91.488281 21.722656 C 91.28125 21.722656 91.195312 21.808594 90.90625 22.097656 Z M 85.613281 27.390625 "/>
<path fill-rule="nonzero" fill="rgb(0%, 0%, 0%)" fill-opacity="1" d="M 114.140625 25.765625 C 113.890625 24.097656 112.804688 22.597656 110.722656 22.597656 C 109.097656 22.597656 107.390625 23.058594 105.304688 25.097656 C 103.097656 27.308594 102.929688 29.808594 102.929688 30.597656 C 102.929688 32.265625 104.097656 35.347656 107.804688 35.347656 C 114.140625 35.347656 116.890625 26.433594 116.890625 22.597656 C 116.890625 18.390625 114.429688 15.722656 111.140625 15.722656 C 107.304688 15.722656 106.054688 19.183594 106.054688 19.933594 C 106.054688 20.308594 106.304688 20.847656 107.097656 20.847656 C 107.972656 20.847656 108.515625 20.058594 108.515625 19.472656 C 108.515625 18.515625 107.679688 18.515625 107.265625 18.515625 C 108.429688 16.558594 110.347656 16.390625 111.097656 16.390625 C 113.054688 16.390625 114.890625 17.765625 114.890625 21.222656 C 114.890625 22.265625 114.722656 23.597656 114.179688 25.765625 Z M 107.890625 34.597656 C 104.972656 34.597656 104.972656 31.847656 104.972656 31.597656 C 104.972656 30.890625 105.640625 27.183594 106.722656 25.558594 C 107.765625 24.058594 109.097656 23.183594 110.722656 23.183594 C 113.640625 23.183594 113.679688 26.183594 113.679688 26.722656 C 113.679688 28.640625 111.972656 34.597656 107.890625 34.597656 Z M 107.890625 34.597656 "/>
<path fill-rule="nonzero" fill="rgb(0%, 0%, 0%)" fill-opacity="1" d="M 125.429688 26.347656 L 129.972656 26.347656 C 133.722656 26.347656 137.429688 23.597656 137.429688 20.640625 C 137.429688 18.558594 135.679688 16.597656 132.179688 16.597656 L 123.597656 16.597656 C 123.097656 16.597656 122.804688 16.597656 122.804688 17.097656 C 122.804688 17.433594 123.015625 17.433594 123.554688 17.433594 C 123.890625 17.433594 124.390625 17.472656 124.679688 17.472656 C 125.140625 17.558594 125.265625 17.597656 125.265625 17.933594 C 125.265625 18.015625 125.265625 18.097656 125.179688 18.433594 L 121.597656 32.683594 C 121.347656 33.722656 121.304688 33.933594 119.179688 33.933594 C 118.765625 33.933594 118.472656 33.933594 118.472656 34.433594 C 118.472656 34.765625 118.765625 34.765625 118.847656 34.765625 C 119.597656 34.765625 121.472656 34.683594 122.222656 34.683594 C 122.804688 34.683594 123.390625 34.722656 123.929688 34.722656 C 124.515625 34.722656 125.097656 34.765625 125.640625 34.765625 C 125.847656 34.765625 126.179688 34.765625 126.179688 34.222656 C 126.179688 33.933594 125.929688 33.933594 125.429688 33.933594 C 124.472656 33.933594 123.722656 33.933594 123.722656 33.472656 C 123.722656 33.308594 123.765625 33.183594 123.804688 33.015625 Z M 127.347656 18.433594 C 127.597656 17.515625 127.640625 17.433594 128.804688 17.433594 L 131.347656 17.433594 C 133.554688 17.433594 134.972656 18.140625 134.972656 19.972656 C 134.972656 21.015625 134.429688 23.308594 133.390625 24.265625 C 132.054688 25.472656 130.472656 25.683594 129.304688 25.683594 L 125.554688 25.683594 Z M 127.347656 18.433594 "/>
<path fill-rule="nonzero" fill="rgb(0%, 0%, 0%)" fill-opacity="1" d="M 146.964844 41.140625 C 146.964844 41.058594 146.964844 41.015625 146.507812 40.558594 C 143.214844 37.222656 142.339844 32.183594 142.339844 28.097656 C 142.339844 23.472656 143.339844 18.847656 146.632812 15.558594 C 146.964844 15.222656 146.964844 15.183594 146.964844 15.097656 C 146.964844 14.890625 146.882812 14.808594 146.714844 14.808594 C 146.421875 14.808594 144.046875 16.640625 142.464844 20.015625 C 141.132812 22.933594 140.796875 25.890625 140.796875 28.097656 C 140.796875 30.183594 141.089844 33.390625 142.546875 36.433594 C 144.171875 39.683594 146.421875 41.433594 146.714844 41.433594 C 146.882812 41.433594 146.964844 41.347656 146.964844 41.140625 Z M 146.964844 41.140625 "/>
<path fill-rule="nonzero" fill="rgb(0%, 0%, 0%)" fill-opacity="1" d="M 150.839844 33.183594 C 150.757812 33.597656 150.589844 34.222656 150.589844 34.347656 C 150.589844 34.808594 150.964844 35.058594 151.382812 35.058594 C 151.714844 35.058594 152.171875 34.847656 152.382812 34.308594 C 152.382812 34.265625 152.714844 33.015625 152.882812 32.347656 L 153.464844 29.972656 C 153.589844 29.347656 153.757812 28.765625 153.921875 28.183594 C 154.007812 27.722656 154.214844 26.933594 154.257812 26.847656 C 154.632812 26.015625 156.046875 23.597656 158.589844 23.597656 C 159.796875 23.597656 160.007812 24.597656 160.007812 25.472656 C 160.007812 27.097656 158.714844 30.515625 158.296875 31.640625 C 158.046875 32.265625 158.007812 32.597656 158.007812 32.890625 C 158.007812 34.140625 158.964844 35.058594 160.214844 35.058594 C 162.714844 35.058594 163.671875 31.183594 163.671875 30.972656 C 163.671875 30.683594 163.464844 30.683594 163.382812 30.683594 C 163.089844 30.683594 163.089844 30.765625 162.964844 31.183594 C 162.421875 32.972656 161.546875 34.472656 160.257812 34.472656 C 159.796875 34.472656 159.632812 34.222656 159.632812 33.597656 C 159.632812 32.933594 159.839844 32.308594 160.089844 31.722656 C 160.589844 30.308594 161.714844 27.390625 161.714844 25.847656 C 161.714844 24.097656 160.589844 23.015625 158.671875 23.015625 C 156.257812 23.015625 154.964844 24.722656 154.507812 25.347656 C 154.382812 23.847656 153.296875 23.015625 152.046875 23.015625 C 150.839844 23.015625 150.339844 24.058594 150.089844 24.515625 C 149.632812 25.433594 149.296875 27.015625 149.296875 27.097656 C 149.296875 27.390625 149.546875 27.390625 149.589844 27.390625 C 149.882812 27.390625 149.882812 27.347656 150.046875 26.765625 C 150.507812 24.890625 151.046875 23.597656 152.007812 23.597656 C 152.507812 23.597656 152.796875 23.933594 152.796875 24.808594 C 152.796875 25.390625 152.714844 25.683594 152.382812 27.058594 Z M 150.839844 33.183594 "/>
<path fill-rule="nonzero" fill="rgb(0%, 0%, 0%)" fill-opacity="1" d="M 172.117188 28.097656 C 172.117188 26.058594 171.824219 22.847656 170.367188 19.808594 C 168.785156 16.558594 166.492188 14.808594 166.242188 14.808594 C 166.074219 14.808594 165.949219 14.933594 165.949219 15.097656 C 165.949219 15.183594 165.949219 15.222656 166.449219 15.722656 C 169.074219 18.347656 170.574219 22.558594 170.574219 28.097656 C 170.574219 32.683594 169.617188 37.347656 166.324219 40.683594 C 165.949219 41.015625 165.949219 41.058594 165.949219 41.140625 C 165.949219 41.308594 166.074219 41.433594 166.242188 41.433594 C 166.492188 41.433594 168.910156 39.597656 170.449219 36.222656 C 171.824219 33.308594 172.117188 30.347656 172.117188 28.097656 Z M 172.117188 28.097656 "/>
<path fill-rule="nonzero" fill="rgb(0%, 0%, 0%)" fill-opacity="1" d="M 286.066406 18.640625 C 286.316406 17.683594 286.359375 17.433594 288.359375 17.433594 C 288.941406 17.433594 289.191406 17.433594 289.191406 16.890625 C 289.191406 16.597656 288.941406 16.597656 288.484375 16.597656 L 284.984375 16.597656 C 284.277344 16.597656 284.234375 16.597656 283.941406 17.097656 L 274.234375 32.265625 L 272.152344 17.222656 C 272.066406 16.597656 272.027344 16.597656 271.316406 16.597656 L 267.691406 16.597656 C 267.191406 16.597656 266.902344 16.597656 266.902344 17.097656 C 266.902344 17.433594 267.152344 17.433594 267.652344 17.433594 C 268.027344 17.433594 268.484375 17.472656 268.816406 17.472656 C 269.234375 17.558594 269.402344 17.597656 269.402344 17.933594 C 269.402344 18.015625 269.359375 18.097656 269.277344 18.433594 L 265.902344 31.933594 C 265.652344 33.015625 265.191406 33.847656 263.027344 33.933594 C 262.902344 33.933594 262.566406 33.972656 262.566406 34.433594 C 262.566406 34.683594 262.734375 34.765625 262.941406 34.765625 C 263.777344 34.765625 264.691406 34.683594 265.609375 34.683594 C 266.484375 34.683594 267.441406 34.765625 268.316406 34.765625 C 268.441406 34.765625 268.816406 34.765625 268.816406 34.222656 C 268.816406 33.933594 268.527344 33.933594 268.316406 33.933594 C 266.816406 33.933594 266.527344 33.390625 266.527344 32.765625 C 266.527344 32.597656 266.527344 32.433594 266.609375 32.140625 L 270.234375 17.683594 L 270.277344 17.683594 L 272.566406 34.140625 C 272.609375 34.472656 272.652344 34.765625 272.941406 34.765625 C 273.234375 34.765625 273.402344 34.472656 273.527344 34.308594 L 284.277344 17.472656 L 284.316406 17.472656 L 280.484375 32.683594 C 280.234375 33.722656 280.191406 33.933594 278.066406 33.933594 C 277.652344 33.933594 277.359375 33.933594 277.359375 34.433594 C 277.359375 34.765625 277.652344 34.765625 277.734375 34.765625 C 278.484375 34.765625 280.277344 34.683594 281.027344 34.683594 C 282.109375 34.683594 283.277344 34.765625 284.359375 34.765625 C 284.527344 34.765625 284.859375 34.765625 284.859375 34.222656 C 284.859375 33.933594 284.609375 33.933594 284.109375 33.933594 C 283.152344 33.933594 282.402344 33.933594 282.402344 33.472656 C 282.402344 33.347656 282.402344 33.308594 282.527344 32.808594 Z M 286.066406 18.640625 "/>
<path fill-rule="nonzero" fill="rgb(0%, 0%, 0%)" fill-opacity="1" d="M 289.464844 37.582031 C 289.425781 37.832031 289.300781 38.289062 289.300781 38.332031 C 289.300781 38.75 289.632812 38.914062 289.925781 38.914062 C 290.257812 38.914062 290.550781 38.707031 290.675781 38.539062 C 290.757812 38.375 290.882812 37.75 291.007812 37.375 C 291.089844 37.039062 291.300781 36.164062 291.382812 35.707031 C 291.507812 35.289062 291.632812 34.875 291.714844 34.457031 C 291.925781 33.707031 291.964844 33.539062 292.507812 32.789062 C 293.007812 32.039062 293.882812 31.082031 295.300781 31.082031 C 296.339844 31.082031 296.382812 32.039062 296.382812 32.375 C 296.382812 33.5 295.589844 35.539062 295.300781 36.332031 C 295.089844 36.875 295.007812 37.039062 295.007812 37.332031 C 295.007812 38.332031 295.800781 38.914062 296.757812 38.914062 C 298.632812 38.914062 299.425781 36.375 299.425781 36.082031 C 299.425781 35.832031 299.214844 35.832031 299.132812 35.832031 C 298.882812 35.832031 298.882812 35.957031 298.800781 36.164062 C 298.382812 37.664062 297.550781 38.414062 296.839844 38.414062 C 296.425781 38.414062 296.339844 38.164062 296.339844 37.75 C 296.339844 37.332031 296.464844 37.082031 296.800781 36.25 C 297.007812 35.664062 297.757812 33.707031 297.757812 32.664062 C 297.757812 30.875 296.339844 30.539062 295.339844 30.539062 C 293.800781 30.539062 292.757812 31.5 292.214844 32.25 C 292.089844 30.957031 291.007812 30.539062 290.214844 30.539062 C 289.425781 30.539062 289.007812 31.125 288.757812 31.539062 C 288.339844 32.25 288.089844 33.289062 288.089844 33.414062 C 288.089844 33.625 288.339844 33.625 288.425781 33.625 C 288.675781 33.625 288.675781 33.582031 288.800781 33.082031 C 289.089844 32 289.464844 31.082031 290.175781 31.082031 C 290.675781 31.082031 290.800781 31.5 290.800781 32 C 290.800781 32.332031 290.632812 33.039062 290.464844 33.539062 C 290.339844 34.039062 290.175781 34.789062 290.089844 35.207031 Z M 289.464844 37.582031 "/>
<path fill-rule="nonzero" fill="rgb(0%, 0%, 0%)" fill-opacity="1" d="M 317.914062 27.390625 L 312.621094 22.097656 C 312.289062 21.765625 312.246094 21.722656 312.039062 21.722656 C 311.746094 21.722656 311.496094 21.933594 311.496094 22.265625 C 311.496094 22.433594 311.539062 22.472656 311.832031 22.765625 L 317.164062 28.097656 L 311.832031 33.472656 C 311.539062 33.765625 311.496094 33.808594 311.496094 33.972656 C 311.496094 34.308594 311.746094 34.515625 312.039062 34.515625 C 312.246094 34.515625 312.289062 34.472656 312.621094 34.140625 L 317.914062 28.847656 L 323.414062 34.347656 C 323.457031 34.390625 323.621094 34.515625 323.789062 34.515625 C 324.121094 34.515625 324.332031 34.308594 324.332031 33.972656 C 324.332031 33.933594 324.332031 33.847656 324.246094 33.683594 C 324.207031 33.640625 319.996094 29.472656 318.664062 28.097656 L 323.539062 23.265625 C 323.664062 23.097656 324.082031 22.765625 324.207031 22.597656 C 324.207031 22.558594 324.332031 22.433594 324.332031 22.265625 C 324.332031 21.933594 324.121094 21.722656 323.789062 21.722656 C 323.582031 21.722656 323.496094 21.808594 323.207031 22.097656 Z M 317.914062 27.390625 "/>
<path fill-rule="nonzero" fill="rgb(0%, 0%, 0%)" fill-opacity="1" d="M 346.441406 25.765625 C 346.191406 24.097656 345.109375 22.597656 343.023438 22.597656 C 341.398438 22.597656 339.691406 23.058594 337.609375 25.097656 C 335.398438 27.308594 335.234375 29.808594 335.234375 30.597656 C 335.234375 32.265625 336.398438 35.347656 340.109375 35.347656 C 346.441406 35.347656 349.191406 26.433594 349.191406 22.597656 C 349.191406 18.390625 346.734375 15.722656 343.441406 15.722656 C 339.609375 15.722656 338.359375 19.183594 338.359375 19.933594 C 338.359375 20.308594 338.609375 20.847656 339.398438 20.847656 C 340.273438 20.847656 340.816406 20.058594 340.816406 19.472656 C 340.816406 18.515625 339.984375 18.515625 339.566406 18.515625 C 340.734375 16.558594 342.648438 16.390625 343.398438 16.390625 C 345.359375 16.390625 347.191406 17.765625 347.191406 21.222656 C 347.191406 22.265625 347.023438 23.597656 346.484375 25.765625 Z M 340.191406 34.597656 C 337.273438 34.597656 337.273438 31.847656 337.273438 31.597656 C 337.273438 30.890625 337.941406 27.183594 339.023438 25.558594 C 340.066406 24.058594 341.398438 23.183594 343.023438 23.183594 C 345.941406 23.183594 345.984375 26.183594 345.984375 26.722656 C 345.984375 28.640625 344.273438 34.597656 340.191406 34.597656 Z M 340.191406 34.597656 "/>
<path fill-rule="nonzero" fill="rgb(0%, 0%, 0%)" fill-opacity="1" d="M 361.480469 16.222656 C 361.3125 15.847656 361.230469 15.722656 360.773438 15.722656 C 360.355469 15.722656 360.273438 15.847656 360.105469 16.222656 L 351.105469 34.222656 C 350.980469 34.472656 350.980469 34.515625 350.980469 34.558594 C 350.980469 34.765625 351.148438 34.765625 351.5625 34.765625 L 370.023438 34.765625 C 370.4375 34.765625 370.605469 34.765625 370.605469 34.558594 C 370.605469 34.515625 370.605469 34.472656 370.480469 34.222656 Z M 359.9375 18.390625 L 367.105469 32.765625 L 352.773438 32.765625 Z M 359.9375 18.390625 "/>
<path fill-rule="nonzero" fill="rgb(0%, 0%, 0%)" fill-opacity="1" d="M 374.121094 23.957031 C 374.078125 24.207031 373.953125 24.664062 373.953125 24.707031 C 373.953125 25.121094 374.285156 25.289062 374.578125 25.289062 C 374.910156 25.289062 375.203125 25.082031 375.328125 24.914062 C 375.410156 24.746094 375.535156 24.121094 375.660156 23.746094 C 375.746094 23.414062 375.953125 22.539062 376.035156 22.082031 C 376.160156 21.664062 376.285156 21.246094 376.371094 20.832031 C 376.578125 20.082031 376.621094 19.914062 377.160156 19.164062 C 377.660156 18.414062 378.535156 17.457031 379.953125 17.457031 C 380.996094 17.457031 381.035156 18.414062 381.035156 18.746094 C 381.035156 19.871094 380.246094 21.914062 379.953125 22.707031 C 379.746094 23.246094 379.660156 23.414062 379.660156 23.707031 C 379.660156 24.707031 380.453125 25.289062 381.410156 25.289062 C 383.285156 25.289062 384.078125 22.746094 384.078125 22.457031 C 384.078125 22.207031 383.871094 22.207031 383.785156 22.207031 C 383.535156 22.207031 383.535156 22.332031 383.453125 22.539062 C 383.035156 24.039062 382.203125 24.789062 381.496094 24.789062 C 381.078125 24.789062 380.996094 24.539062 380.996094 24.121094 C 380.996094 23.707031 381.121094 23.457031 381.453125 22.621094 C 381.660156 22.039062 382.410156 20.082031 382.410156 19.039062 C 382.410156 17.246094 380.996094 16.914062 379.996094 16.914062 C 378.453125 16.914062 377.410156 17.871094 376.871094 18.621094 C 376.746094 17.332031 375.660156 16.914062 374.871094 16.914062 C 374.078125 16.914062 373.660156 17.496094 373.410156 17.914062 C 372.996094 18.621094 372.746094 19.664062 372.746094 19.789062 C 372.746094 19.996094 372.996094 19.996094 373.078125 19.996094 C 373.328125 19.996094 373.328125 19.957031 373.453125 19.457031 C 373.746094 18.371094 374.121094 17.457031 374.828125 17.457031 C 375.328125 17.457031 375.453125 17.871094 375.453125 18.371094 C 375.453125 18.707031 375.285156 19.414062 375.121094 19.914062 C 374.996094 20.414062 374.828125 21.164062 374.746094 21.582031 Z M 374.121094 23.957031 "/>
<path fill-rule="nonzero" fill="rgb(0%, 0%, 0%)" fill-opacity="1" d="M 98.167969 110.871094 C 98.417969 109.910156 98.457031 109.660156 100.457031 109.660156 C 101.042969 109.660156 101.292969 109.660156 101.292969 109.121094 C 101.292969 108.828125 101.042969 108.828125 100.582031 108.828125 L 97.082031 108.828125 C 96.375 108.828125 96.332031 108.828125 96.042969 109.328125 L 86.332031 124.496094 L 84.25 109.453125 C 84.167969 108.828125 84.125 108.828125 83.417969 108.828125 L 79.792969 108.828125 C 79.292969 108.828125 79 108.828125 79 109.328125 C 79 109.660156 79.25 109.660156 79.75 109.660156 C 80.125 109.660156 80.582031 109.703125 80.917969 109.703125 C 81.332031 109.785156 81.5 109.828125 81.5 110.160156 C 81.5 110.246094 81.457031 110.328125 81.375 110.660156 L 78 124.160156 C 77.75 125.246094 77.292969 126.078125 75.125 126.160156 C 75 126.160156 74.667969 126.203125 74.667969 126.660156 C 74.667969 126.910156 74.832031 126.996094 75.042969 126.996094 C 75.875 126.996094 76.792969 126.910156 77.707031 126.910156 C 78.582031 126.910156 79.542969 126.996094 80.417969 126.996094 C 80.542969 126.996094 80.917969 126.996094 80.917969 126.453125 C 80.917969 126.160156 80.625 126.160156 80.417969 126.160156 C 78.917969 126.160156 78.625 125.621094 78.625 124.996094 C 78.625 124.828125 78.625 124.660156 78.707031 124.371094 L 82.332031 109.910156 L 82.375 109.910156 L 84.667969 126.371094 C 84.707031 126.703125 84.75 126.996094 85.042969 126.996094 C 85.332031 126.996094 85.5 126.703125 85.625 126.535156 L 96.375 109.703125 L 96.417969 109.703125 L 92.582031 124.910156 C 92.332031 125.953125 92.292969 126.160156 90.167969 126.160156 C 89.75 126.160156 89.457031 126.160156 89.457031 126.660156 C 89.457031 126.996094 89.75 126.996094 89.832031 126.996094 C 90.582031 126.996094 92.375 126.910156 93.125 126.910156 C 94.207031 126.910156 95.375 126.996094 96.457031 126.996094 C 96.625 126.996094 96.957031 126.996094 96.957031 126.453125 C 96.957031 126.160156 96.707031 126.160156 96.207031 126.160156 C 95.25 126.160156 94.5 126.160156 94.5 125.703125 C 94.5 125.578125 94.5 125.535156 94.625 125.035156 Z M 98.167969 110.871094 "/>
<path fill-rule="nonzero" fill="rgb(0%, 0%, 0%)" fill-opacity="1" d="M 113.480469 119.1875 C 113.730469 119.105469 113.898438 118.9375 113.898438 118.730469 C 113.898438 118.4375 113.691406 118.230469 113.441406 118.230469 C 113.398438 118.230469 113.316406 118.230469 113.066406 118.355469 L 101.730469 123.8125 C 101.441406 123.9375 101.316406 124.105469 101.316406 124.3125 C 101.316406 124.519531 101.441406 124.644531 101.730469 124.8125 L 113.066406 130.230469 C 113.316406 130.355469 113.398438 130.355469 113.441406 130.355469 C 113.730469 130.355469 113.898438 130.105469 113.898438 129.9375 C 113.898438 129.605469 113.648438 129.519531 113.480469 129.4375 L 102.816406 124.3125 Z M 113.148438 134.4375 C 113.441406 134.4375 113.898438 134.4375 113.898438 134.019531 C 113.898438 133.5625 113.441406 133.5625 113.148438 133.5625 L 102.066406 133.5625 C 101.730469 133.5625 101.316406 133.5625 101.316406 134.019531 C 101.316406 134.4375 101.773438 134.4375 102.066406 134.4375 Z M 113.148438 134.4375 "/>
<path fill-rule="nonzero" fill="rgb(0%, 0%, 0%)" fill-opacity="1" d="M 118.171875 129.8125 C 118.128906 130.0625 118.003906 130.519531 118.003906 130.5625 C 118.003906 130.980469 118.335938 131.144531 118.628906 131.144531 C 118.960938 131.144531 119.253906 130.9375 119.378906 130.769531 C 119.460938 130.605469 119.585938 129.980469 119.710938 129.605469 C 119.796875 129.269531 120.003906 128.394531 120.085938 127.9375 C 120.210938 127.519531 120.335938 127.105469 120.421875 126.6875 C 120.628906 125.9375 120.671875 125.769531 121.210938 125.019531 C 121.710938 124.269531 122.585938 123.3125 124.003906 123.3125 C 125.046875 123.3125 125.085938 124.269531 125.085938 124.605469 C 125.085938 125.730469 124.296875 127.769531 124.003906 128.5625 C 123.796875 129.105469 123.710938 129.269531 123.710938 129.5625 C 123.710938 130.5625 124.503906 131.144531 125.460938 131.144531 C 127.335938 131.144531 128.128906 128.605469 128.128906 128.3125 C 128.128906 128.0625 127.921875 128.0625 127.835938 128.0625 C 127.585938 128.0625 127.585938 128.1875 127.503906 128.394531 C 127.085938 129.894531 126.253906 130.644531 125.546875 130.644531 C 125.128906 130.644531 125.046875 130.394531 125.046875 129.980469 C 125.046875 129.5625 125.171875 129.3125 125.503906 128.480469 C 125.710938 127.894531 126.460938 125.9375 126.460938 124.894531 C 126.460938 123.105469 125.046875 122.769531 124.046875 122.769531 C 122.503906 122.769531 121.460938 123.730469 120.921875 124.480469 C 120.796875 123.1875 119.710938 122.769531 118.921875 122.769531 C 118.128906 122.769531 117.710938 123.355469 117.460938 123.769531 C 117.046875 124.480469 116.796875 125.519531 116.796875 125.644531 C 116.796875 125.855469 117.046875 125.855469 117.128906 125.855469 C 117.378906 125.855469 117.378906 125.8125 117.503906 125.3125 C 117.796875 124.230469 118.171875 123.3125 118.878906 123.3125 C 119.378906 123.3125 119.503906 123.730469 119.503906 124.230469 C 119.503906 124.5625 119.335938 125.269531 119.171875 125.769531 C 119.046875 126.269531 118.878906 127.019531 118.796875 127.4375 Z M 118.171875 129.8125 "/>
<path fill-rule="nonzero" fill="rgb(0%, 0%, 0%)" fill-opacity="1" d="M 316.488281 121.410156 L 311.402344 109.328125 C 311.195312 108.785156 311.195312 108.785156 310.445312 108.785156 L 305.527344 108.785156 C 305.027344 108.785156 304.652344 108.785156 304.652344 109.246094 C 304.652344 109.703125 305.113281 109.703125 305.238281 109.703125 C 305.570312 109.703125 306.277344 109.785156 306.863281 109.996094 L 306.863281 124.160156 C 306.863281 124.746094 306.863281 125.910156 305.070312 126.078125 C 304.570312 126.121094 304.570312 126.496094 304.570312 126.535156 C 304.570312 126.996094 304.988281 126.996094 305.488281 126.996094 L 309.570312 126.996094 C 310.070312 126.996094 310.445312 126.996094 310.445312 126.535156 C 310.445312 126.285156 310.238281 126.078125 310.027344 126.078125 C 307.988281 125.910156 307.988281 124.785156 307.988281 124.160156 L 307.988281 110.953125 L 308.027344 110.910156 L 314.488281 126.453125 C 314.738281 126.910156 314.902344 126.996094 315.070312 126.996094 C 315.402344 126.996094 315.445312 126.785156 315.613281 126.453125 L 322.113281 110.910156 L 322.152344 110.953125 L 322.152344 124.160156 C 322.152344 124.746094 322.152344 125.910156 320.320312 126.078125 C 319.820312 126.121094 319.820312 126.496094 319.820312 126.535156 C 319.820312 126.996094 320.238281 126.996094 320.738281 126.996094 L 327.820312 126.996094 C 328.320312 126.996094 328.695312 126.996094 328.695312 126.535156 C 328.695312 126.285156 328.488281 126.078125 328.277344 126.078125 C 326.238281 125.910156 326.238281 124.785156 326.238281 124.160156 L 326.238281 111.621094 C 326.238281 111.035156 326.238281 109.871094 328.027344 109.703125 C 328.320312 109.703125 328.527344 109.535156 328.527344 109.246094 C 328.527344 108.785156 328.152344 108.785156 327.652344 108.785156 L 322.527344 108.785156 C 321.863281 108.785156 321.777344 108.785156 321.570312 109.328125 Z M 315.695312 121.910156 C 315.902344 122.328125 315.945312 122.371094 316.277344 122.496094 L 315.070312 125.285156 L 315.027344 125.285156 L 308.988281 110.828125 C 308.863281 110.496094 308.613281 110.035156 308.277344 109.703125 L 310.570312 109.703125 Z M 307.652344 126.078125 L 307.238281 126.078125 C 307.277344 125.996094 307.320312 125.910156 307.363281 125.871094 C 307.402344 125.828125 307.402344 125.785156 307.445312 125.785156 Z M 323.070312 109.703125 L 325.902344 109.703125 C 325.277344 110.371094 325.277344 111.078125 325.277344 111.535156 L 325.277344 124.246094 C 325.277344 124.703125 325.277344 125.410156 325.902344 126.078125 L 322.488281 126.078125 C 323.070312 125.410156 323.070312 124.703125 323.070312 124.246094 Z M 323.070312 109.703125 "/>
<path fill-rule="nonzero" fill="rgb(0%, 0%, 0%)" fill-opacity="1" d="M 331.453125 129.8125 C 331.410156 130.0625 331.285156 130.519531 331.285156 130.5625 C 331.285156 130.980469 331.621094 131.144531 331.910156 131.144531 C 332.246094 131.144531 332.535156 130.9375 332.660156 130.769531 C 332.746094 130.605469 332.871094 129.980469 332.996094 129.605469 C 333.078125 129.269531 333.285156 128.394531 333.371094 127.9375 C 333.496094 127.519531 333.621094 127.105469 333.703125 126.6875 C 333.910156 125.9375 333.953125 125.769531 334.496094 125.019531 C 334.996094 124.269531 335.871094 123.3125 337.285156 123.3125 C 338.328125 123.3125 338.371094 124.269531 338.371094 124.605469 C 338.371094 125.730469 337.578125 127.769531 337.285156 128.5625 C 337.078125 129.105469 336.996094 129.269531 336.996094 129.5625 C 336.996094 130.5625 337.785156 131.144531 338.746094 131.144531 C 340.621094 131.144531 341.410156 128.605469 341.410156 128.3125 C 341.410156 128.0625 341.203125 128.0625 341.121094 128.0625 C 340.871094 128.0625 340.871094 128.1875 340.785156 128.394531 C 340.371094 129.894531 339.535156 130.644531 338.828125 130.644531 C 338.410156 130.644531 338.328125 130.394531 338.328125 129.980469 C 338.328125 129.5625 338.453125 129.3125 338.785156 128.480469 C 338.996094 127.894531 339.746094 125.9375 339.746094 124.894531 C 339.746094 123.105469 338.328125 122.769531 337.328125 122.769531 C 335.785156 122.769531 334.746094 123.730469 334.203125 124.480469 C 334.078125 123.1875 332.996094 122.769531 332.203125 122.769531 C 331.410156 122.769531 330.996094 123.355469 330.746094 123.769531 C 330.328125 124.480469 330.078125 125.519531 330.078125 125.644531 C 330.078125 125.855469 330.328125 125.855469 330.410156 125.855469 C 330.660156 125.855469 330.660156 125.8125 330.785156 125.3125 C 331.078125 124.230469 331.453125 123.3125 332.160156 123.3125 C 332.660156 123.3125 332.785156 123.730469 332.785156 124.230469 C 332.785156 124.5625 332.621094 125.269531 332.453125 125.769531 C 332.328125 126.269531 332.160156 127.019531 332.078125 127.4375 Z M 331.453125 129.8125 "/>
<path fill="none" stroke-width="0.39848" stroke-linecap="butt" stroke-linejoin="miter" stroke="rgb(0%, 0%, 0%)" stroke-opacity="1" stroke-miterlimit="10" d="M -7.863426 17.441126 L 15.250343 17.441126 " transform="matrix(2.666667, 0, 0, -2.666667, 207.738668, 74.634669)"/>
<path fill="none" stroke-width="0.39848" stroke-linecap="round" stroke-linejoin="round" stroke="rgb(0%, 0%, 0%)" stroke-opacity="1" stroke-miterlimit="10" d="M -2.073158 2.38984 C -1.693764 0.955758 -0.850014 0.280465 0.00106049 -0.000784874 C -0.850014 -0.27764 -1.693764 -0.957328 -2.073158 -2.39141 " transform="matrix(2.666667, 0, 0, -2.666667, 248.934672, 28.122907)"/>
<path fill-rule="nonzero" fill="rgb(0%, 0%, 0%)" fill-opacity="1" d="M 179.511719 7.183594 C 179.511719 6.644531 179.054688 6.101562 178.429688 6.101562 C 177.886719 6.101562 177.386719 6.558594 177.386719 7.183594 C 177.386719 7.851562 177.929688 8.269531 178.429688 8.269531 C 179.054688 8.269531 179.511719 7.808594 179.511719 7.183594 Z M 176.679688 10.644531 L 176.679688 11.308594 C 177.84375 11.308594 178.011719 11.433594 178.011719 12.351562 L 178.011719 17.183594 C 178.011719 17.976562 177.84375 17.976562 176.636719 17.976562 L 176.636719 18.644531 C 176.679688 18.644531 177.96875 18.558594 178.71875 18.558594 C 179.386719 18.558594 180.054688 18.601562 180.679688 18.644531 L 180.679688 17.976562 C 179.59375 17.976562 179.429688 17.976562 179.429688 17.183594 L 179.429688 10.433594 Z M 176.679688 10.644531 "/>
<path fill-rule="nonzero" fill="rgb(0%, 0%, 0%)" fill-opacity="1" d="M 188.226562 5.933594 L 188.226562 6.601562 C 189.476562 6.601562 189.601562 6.769531 189.601562 7.644531 L 189.601562 11.519531 C 188.933594 10.851562 188.019531 10.433594 187.019531 10.433594 C 184.519531 10.433594 182.476562 12.308594 182.476562 14.644531 C 182.476562 16.976562 184.433594 18.808594 186.769531 18.808594 C 188.308594 18.808594 189.226562 18.019531 189.519531 17.683594 L 189.519531 18.808594 L 192.394531 18.644531 L 192.394531 17.976562 C 191.144531 17.976562 191.019531 17.851562 191.019531 16.933594 L 191.019531 5.726562 Z M 189.519531 16.683594 C 189.058594 17.558594 188.101562 18.308594 186.894531 18.308594 C 185.851562 18.308594 185.101562 17.683594 184.726562 17.144531 C 184.351562 16.601562 184.144531 15.851562 184.144531 14.683594 C 184.144531 14.226562 184.144531 12.851562 184.894531 11.976562 C 185.644531 11.144531 186.558594 10.976562 187.101562 10.976562 C 187.976562 10.976562 188.808594 11.394531 189.308594 12.058594 C 189.519531 12.351562 189.519531 12.351562 189.519531 12.726562 Z M 189.519531 16.683594 "/>
<path fill-rule="nonzero" fill="rgb(0%, 0%, 0%)" fill-opacity="1" d="M 206.34375 9.933594 C 206.550781 9.726562 206.59375 9.601562 206.59375 9.476562 C 206.59375 9.183594 206.386719 9.019531 206.175781 9.019531 C 205.96875 9.019531 205.925781 9.058594 205.71875 9.308594 L 201.636719 13.351562 L 197.550781 9.269531 C 197.34375 9.101562 197.300781 9.019531 197.136719 9.019531 C 196.84375 9.019531 196.636719 9.226562 196.636719 9.476562 C 196.636719 9.644531 196.71875 9.683594 196.925781 9.933594 L 200.96875 13.976562 L 196.925781 18.019531 C 196.675781 18.308594 196.636719 18.394531 196.636719 18.476562 C 196.636719 18.769531 196.84375 18.976562 197.136719 18.976562 C 197.300781 18.976562 197.34375 18.894531 197.550781 18.683594 L 201.636719 14.644531 L 205.886719 18.851562 C 205.96875 18.933594 206.050781 18.976562 206.175781 18.976562 C 206.386719 18.976562 206.59375 18.808594 206.59375 18.476562 C 206.59375 18.351562 206.59375 18.308594 206.511719 18.269531 C 206.46875 18.183594 202.886719 14.558594 202.300781 14.019531 Z M 206.34375 9.933594 "/>
<path fill-rule="nonzero" fill="rgb(0%, 0%, 0%)" fill-opacity="1" d="M 215.933594 14.019531 C 217.472656 13.351562 218.140625 13.101562 218.597656 12.851562 C 218.972656 12.726562 219.140625 12.644531 219.140625 12.269531 C 219.140625 11.976562 218.890625 11.683594 218.558594 11.683594 C 218.433594 11.683594 218.390625 11.683594 218.183594 11.851562 L 215.640625 13.558594 L 215.933594 10.808594 C 215.972656 10.476562 215.933594 10.019531 215.347656 10.019531 C 215.140625 10.019531 214.765625 10.144531 214.765625 10.558594 C 214.765625 10.726562 214.847656 11.269531 214.890625 11.476562 C 214.933594 11.769531 215.058594 13.144531 215.097656 13.558594 L 212.558594 11.851562 C 212.390625 11.769531 212.347656 11.683594 212.183594 11.683594 C 211.808594 11.683594 211.597656 11.976562 211.597656 12.269531 C 211.597656 12.644531 211.808594 12.769531 211.972656 12.808594 L 214.765625 14.019531 C 213.265625 14.683594 212.558594 14.933594 212.097656 15.144531 C 211.765625 15.308594 211.597656 15.394531 211.597656 15.726562 C 211.597656 16.058594 211.808594 16.308594 212.183594 16.308594 C 212.308594 16.308594 212.347656 16.308594 212.558594 16.144531 L 215.097656 14.476562 L 214.765625 17.433594 C 214.765625 17.851562 215.140625 18.019531 215.347656 18.019531 C 215.597656 18.019531 215.933594 17.851562 215.933594 17.433594 C 215.933594 17.269531 215.847656 16.726562 215.847656 16.558594 C 215.808594 16.226562 215.683594 14.894531 215.640625 14.476562 L 217.847656 15.933594 C 218.347656 16.308594 218.390625 16.308594 218.558594 16.308594 C 218.890625 16.308594 219.140625 16.058594 219.140625 15.726562 C 219.140625 15.351562 218.890625 15.269531 218.722656 15.183594 Z M 215.933594 14.019531 "/>
<path fill-rule="nonzero" fill="rgb(0%, 0%, 0%)" fill-opacity="1" d="M 224.75 13.742188 C 225.039062 13.367188 225.664062 12.867188 226.875 12.867188 C 227.875 12.867188 229.414062 13.367188 229.414062 15.492188 C 229.414062 16.117188 229.289062 16.785156 229.125 17.367188 C 228.957031 16.742188 228.289062 15.785156 226.75 15.785156 C 225.789062 15.785156 224.789062 15.949219 223.5 16.992188 C 222.289062 17.992188 222.207031 19.242188 222.207031 19.617188 C 222.207031 20.285156 222.5 20.867188 223.125 21.410156 C 223.789062 22.035156 224.582031 22.160156 225.414062 22.160156 C 229.375 22.160156 230.707031 17.742188 230.707031 16.074219 C 230.707031 13.910156 229.125 12.367188 226.875 12.367188 C 224.414062 12.367188 223.832031 14.117188 223.832031 14.574219 C 223.832031 14.867188 224.039062 15.117188 224.375 15.117188 C 224.875 15.117188 225.207031 14.699219 225.207031 14.285156 C 225.207031 13.824219 224.75 13.742188 224.75 13.742188 Z M 225.457031 21.617188 C 223.957031 21.617188 223.5 20.785156 223.5 20.035156 C 223.5 19.867188 223.664062 18.074219 224.539062 17.160156 C 225.457031 16.199219 226.5 16.199219 226.832031 16.199219 C 228.25 16.199219 228.875 17.160156 228.875 18.074219 C 228.875 18.742188 228.125 21.617188 225.457031 21.617188 Z M 225.457031 21.617188 "/>
<path fill-rule="nonzero" fill="rgb(0%, 0%, 0%)" fill-opacity="1" d="M 239.539062 12.660156 C 239.371094 12.410156 239.289062 12.367188 238.996094 12.367188 C 238.703125 12.367188 238.621094 12.410156 238.453125 12.660156 L 232.996094 21.535156 C 232.871094 21.660156 232.871094 21.699219 232.871094 21.699219 C 232.871094 21.867188 232.996094 21.867188 233.203125 21.867188 L 244.746094 21.867188 C 244.953125 21.867188 245.078125 21.867188 245.078125 21.699219 C 245.078125 21.699219 245.078125 21.660156 244.996094 21.535156 Z M 238.496094 13.699219 L 242.789062 20.660156 L 234.203125 20.660156 Z M 238.496094 13.699219 "/>
<path fill-rule="nonzero" fill="rgb(0%, 0%, 0%)" fill-opacity="1" d="M 248.863281 16.664062 C 248.78125 17 248.65625 17.582031 248.65625 17.625 C 248.65625 17.914062 248.90625 18.125 249.15625 18.125 C 249.320312 18.125 249.613281 18 249.78125 17.664062 C 249.78125 17.582031 249.945312 16.957031 250.03125 16.625 C 250.488281 14.832031 250.488281 14.789062 250.488281 14.75 C 250.695312 14.414062 251.65625 12.539062 253.238281 12.539062 C 253.90625 12.539062 254.195312 12.875 254.195312 13.5 C 254.195312 14.25 253.613281 15.625 253.320312 16.375 C 253.238281 16.539062 253.195312 16.707031 253.195312 16.914062 C 253.195312 17.625 253.863281 18.125 254.65625 18.125 C 256.070312 18.125 256.78125 16.375 256.78125 16.039062 C 256.78125 15.875 256.570312 15.875 256.53125 15.875 C 256.28125 15.875 256.28125 15.914062 256.195312 16.164062 C 255.945312 16.957031 255.320312 17.664062 254.695312 17.664062 C 254.40625 17.664062 254.28125 17.457031 254.28125 17.164062 C 254.28125 16.875 254.363281 16.75 254.488281 16.457031 C 254.695312 15.914062 255.320312 14.414062 255.320312 13.664062 C 255.320312 12.664062 254.613281 12.082031 253.320312 12.082031 C 252.113281 12.082031 251.28125 12.832031 250.820312 13.414062 C 250.78125 12.289062 249.695312 12.082031 249.195312 12.082031 C 247.863281 12.082031 247.488281 14.125 247.488281 14.125 C 247.488281 14.332031 247.695312 14.332031 247.78125 14.332031 C 247.988281 14.332031 248.03125 14.25 248.070312 14.082031 C 248.28125 13.289062 248.570312 12.539062 249.15625 12.539062 C 249.570312 12.539062 249.695312 12.957031 249.695312 13.25 C 249.695312 13.414062 249.53125 13.914062 249.488281 14.289062 C 249.363281 14.625 249.238281 15.164062 249.195312 15.457031 Z M 248.863281 16.664062 "/>
<path fill="none" stroke-width="0.39848" stroke-linecap="butt" stroke-linejoin="miter" stroke="rgb(0%, 0%, 0%)" stroke-opacity="1" stroke-miterlimit="10" d="M -39.668114 8.612513 L -39.668114 -8.578894 " transform="matrix(2.666667, 0, 0, -2.666667, 207.738668, 74.634669)"/>
<path fill="none" stroke-width="0.39848" stroke-linecap="round" stroke-linejoin="round" stroke="rgb(0%, 0%, 0%)" stroke-opacity="1" stroke-miterlimit="10" d="M -2.072395 2.392696 C -1.693001 0.955685 -0.849251 0.278927 -0.00110626 -0.00232315 C -0.849251 -0.279179 -1.693001 -0.954472 -2.072395 -2.392948 " transform="matrix(0, 2.666667, 2.666667, 0, 101.963226, 98.045919)"/>
<path fill-rule="nonzero" fill="rgb(0%, 0%, 0%)" fill-opacity="1" d="M 81.648438 70.714844 C 81.273438 70.089844 80.648438 69.589844 79.730469 69.589844 C 77.355469 69.589844 74.9375 72.214844 74.9375 74.882812 C 74.9375 76.714844 76.148438 77.964844 77.773438 77.964844 C 78.773438 77.964844 79.648438 77.425781 80.398438 76.675781 C 80.730469 77.800781 81.8125 77.964844 82.3125 77.964844 C 82.980469 77.964844 83.4375 77.589844 83.773438 77.007812 C 84.1875 76.257812 84.4375 75.214844 84.4375 75.132812 C 84.4375 74.882812 84.1875 74.882812 84.148438 74.882812 C 83.855469 74.882812 83.855469 74.964844 83.730469 75.464844 C 83.480469 76.382812 83.148438 77.464844 82.355469 77.464844 C 81.898438 77.464844 81.730469 77.050781 81.730469 76.550781 C 81.730469 76.257812 81.898438 75.550781 82.023438 75.089844 C 82.148438 74.589844 82.355469 73.839844 82.4375 73.425781 L 82.8125 72.007812 C 82.9375 71.507812 83.148438 70.632812 83.148438 70.550781 C 83.148438 70.132812 82.8125 69.964844 82.523438 69.964844 C 82.1875 69.964844 81.773438 70.175781 81.648438 70.714844 Z M 80.480469 75.464844 C 80.355469 76.007812 79.9375 76.382812 79.523438 76.714844 C 79.355469 76.882812 78.605469 77.464844 77.8125 77.464844 C 77.105469 77.464844 76.4375 76.964844 76.4375 75.675781 C 76.4375 74.675781 76.980469 72.632812 77.4375 71.882812 C 78.273438 70.382812 79.230469 70.132812 79.730469 70.132812 C 81.023438 70.132812 81.398438 71.550781 81.398438 71.757812 C 81.398438 71.800781 81.355469 71.964844 81.355469 72.007812 Z M 80.480469 75.464844 "/>
<path fill-rule="nonzero" fill="rgb(0%, 0%, 0%)" fill-opacity="1" d="M 90.628906 71.996094 C 90.628906 71.621094 90.589844 71.621094 90.128906 71.621094 C 89.214844 72.457031 87.714844 72.457031 87.464844 72.457031 L 87.253906 72.457031 L 87.253906 73.039062 L 87.464844 73.039062 C 87.753906 73.039062 88.628906 72.996094 89.421875 72.664062 L 89.421875 79.332031 C 89.421875 79.707031 89.421875 79.871094 88.003906 79.871094 L 87.339844 79.871094 L 87.339844 80.457031 C 88.046875 80.414062 89.253906 80.414062 90.003906 80.414062 C 90.796875 80.414062 91.964844 80.414062 92.714844 80.457031 L 92.714844 79.871094 L 92.046875 79.871094 C 90.628906 79.871094 90.628906 79.707031 90.628906 79.332031 Z M 90.628906 71.996094 "/>
<path fill="none" stroke-width="0.39848" stroke-linecap="butt" stroke-linejoin="miter" stroke="rgb(0%, 0%, 0%)" stroke-opacity="1" stroke-miterlimit="10" d="M 43.558449 9.608606 L 43.558449 -8.52323 " transform="matrix(2.666667, 0, 0, -2.666667, 207.738668, 74.634669)"/>
<path fill="none" stroke-width="0.39848" stroke-linecap="round" stroke-linejoin="round" stroke="rgb(0%, 0%, 0%)" stroke-opacity="1" stroke-miterlimit="10" d="M -2.071236 2.391571 C -1.691841 0.954559 -0.848091 0.279266 -0.00141144 0.000946045 C -0.848091 -0.280304 -1.691841 -0.955597 -2.071236 -2.389679 " transform="matrix(0, 2.666667, 2.666667, 0, 323.892008, 97.898295)"/>
<path fill-rule="nonzero" fill="rgb(0%, 0%, 0%)" fill-opacity="1" d="M 336.984375 66.132812 C 336.859375 65.800781 336.816406 65.714844 336.609375 65.714844 C 336.398438 65.714844 336.316406 65.882812 336.191406 66.089844 L 331.984375 77.214844 C 331.734375 77.800781 331.359375 78.089844 330.859375 78.132812 C 330.773438 78.132812 330.484375 78.175781 330.484375 78.464844 C 330.484375 78.800781 330.773438 78.800781 331.109375 78.800781 L 334.066406 78.800781 C 334.398438 78.800781 334.691406 78.800781 334.691406 78.464844 C 334.691406 78.175781 334.441406 78.175781 334.273438 78.132812 C 334.023438 78.132812 333.566406 78.050781 333.566406 76.925781 C 333.566406 76.339844 333.691406 75.714844 333.816406 75.132812 L 337.898438 75.132812 C 338.566406 76.964844 338.566406 77.257812 338.609375 77.632812 C 338.148438 78.089844 337.648438 78.132812 337.441406 78.132812 C 337.234375 78.175781 337.109375 78.300781 337.109375 78.464844 C 337.109375 78.800781 337.398438 78.800781 337.734375 78.800781 L 342.566406 78.800781 C 342.898438 78.800781 343.234375 78.800781 343.234375 78.464844 C 343.234375 78.214844 342.984375 78.175781 342.816406 78.132812 C 342.398438 78.089844 342.066406 77.757812 341.691406 76.925781 Z M 334.023438 74.507812 C 334.441406 72.839844 335.023438 71.257812 335.648438 69.714844 C 336.234375 70.964844 337.359375 73.632812 337.648438 74.507812 Z M 332.898438 76.550781 L 332.941406 76.589844 L 332.941406 76.757812 C 332.898438 76.800781 332.898438 76.839844 332.898438 76.925781 C 332.898438 77.007812 332.898438 77.714844 333.191406 78.132812 L 332.191406 78.132812 C 332.398438 77.882812 332.484375 77.675781 332.609375 77.382812 Z M 335.941406 68.714844 L 336.609375 66.925781 L 341.109375 77.175781 C 341.191406 77.382812 341.398438 77.800781 341.648438 78.132812 L 339.023438 78.132812 C 339.191406 78.050781 339.273438 77.757812 339.273438 77.550781 C 339.273438 76.425781 337.648438 72.632812 336.859375 70.800781 Z M 335.941406 68.714844 "/>
<path fill-rule="nonzero" fill="rgb(0%, 0%, 0%)" fill-opacity="1" d="M 346.164062 80.164062 C 346.082031 80.496094 345.957031 81.082031 345.957031 81.121094 C 345.957031 81.414062 346.207031 81.621094 346.457031 81.621094 C 346.621094 81.621094 346.914062 81.496094 347.082031 81.164062 C 347.082031 81.082031 347.246094 80.457031 347.332031 80.121094 C 347.789062 78.332031 347.789062 78.289062 347.789062 78.246094 C 347.996094 77.914062 348.957031 76.039062 350.539062 76.039062 C 351.207031 76.039062 351.496094 76.371094 351.496094 76.996094 C 351.496094 77.746094 350.914062 79.121094 350.621094 79.871094 C 350.539062 80.039062 350.496094 80.207031 350.496094 80.414062 C 350.496094 81.121094 351.164062 81.621094 351.957031 81.621094 C 353.371094 81.621094 354.082031 79.871094 354.082031 79.539062 C 354.082031 79.371094 353.871094 79.371094 353.832031 79.371094 C 353.582031 79.371094 353.582031 79.414062 353.496094 79.664062 C 353.246094 80.457031 352.621094 81.164062 351.996094 81.164062 C 351.707031 81.164062 351.582031 80.957031 351.582031 80.664062 C 351.582031 80.371094 351.664062 80.246094 351.789062 79.957031 C 351.996094 79.414062 352.621094 77.914062 352.621094 77.164062 C 352.621094 76.164062 351.914062 75.582031 350.621094 75.582031 C 349.414062 75.582031 348.582031 76.332031 348.121094 76.914062 C 348.082031 75.789062 346.996094 75.582031 346.496094 75.582031 C 345.164062 75.582031 344.789062 77.621094 344.789062 77.621094 C 344.789062 77.832031 344.996094 77.832031 345.082031 77.832031 C 345.289062 77.832031 345.332031 77.746094 345.371094 77.582031 C 345.582031 76.789062 345.871094 76.039062 346.457031 76.039062 C 346.871094 76.039062 346.996094 76.457031 346.996094 76.746094 C 346.996094 76.914062 346.832031 77.414062 346.789062 77.789062 C 346.664062 78.121094 346.539062 78.664062 346.496094 78.957031 Z M 346.164062 80.164062 "/>
<path fill="none" stroke-width="0.39848" stroke-linecap="butt" stroke-linejoin="miter" stroke="rgb(0%, 0%, 0%)" stroke-opacity="1" stroke-miterlimit="10" d="M -24.51577 -17.1453 L 31.250832 -17.1453 " transform="matrix(2.666667, 0, 0, -2.666667, 207.738668, 74.634669)"/>
<path fill="none" stroke-width="0.39848" stroke-linecap="round" stroke-linejoin="round" stroke="rgb(0%, 0%, 0%)" stroke-opacity="1" stroke-miterlimit="10" d="M -2.073036 2.390102 C -1.695107 0.957485 -0.851357 0.277798 0.00118256 -0.000522614 C -0.851357 -0.277378 -1.695107 -0.957066 -2.073036 -2.391148 " transform="matrix(2.666667, 0, 0, -2.666667, 291.602315, 120.354075)"/>
<path fill-rule="nonzero" fill="rgb(0%, 0%, 0%)" fill-opacity="1" d="M 197.160156 130.640625 C 198.703125 129.972656 199.367188 129.722656 199.828125 129.472656 C 200.203125 129.347656 200.367188 129.265625 200.367188 128.890625 C 200.367188 128.597656 200.117188 128.304688 199.785156 128.304688 C 199.660156 128.304688 199.617188 128.304688 199.410156 128.472656 L 196.867188 130.179688 L 197.160156 127.429688 C 197.203125 127.097656 197.160156 126.640625 196.578125 126.640625 C 196.367188 126.640625 195.992188 126.765625 195.992188 127.179688 C 195.992188 127.347656 196.078125 127.890625 196.117188 128.097656 C 196.160156 128.390625 196.285156 129.765625 196.328125 130.179688 L 193.785156 128.472656 C 193.617188 128.390625 193.578125 128.304688 193.410156 128.304688 C 193.035156 128.304688 192.828125 128.597656 192.828125 128.890625 C 192.828125 129.265625 193.035156 129.390625 193.203125 129.429688 L 195.992188 130.640625 C 194.492188 131.304688 193.785156 131.554688 193.328125 131.765625 C 192.992188 131.929688 192.828125 132.015625 192.828125 132.347656 C 192.828125 132.679688 193.035156 132.929688 193.410156 132.929688 C 193.535156 132.929688 193.578125 132.929688 193.785156 132.765625 L 196.328125 131.097656 L 195.992188 134.054688 C 195.992188 134.472656 196.367188 134.640625 196.578125 134.640625 C 196.828125 134.640625 197.160156 134.472656 197.160156 134.054688 C 197.160156 133.890625 197.078125 133.347656 197.078125 133.179688 C 197.035156 132.847656 196.910156 131.515625 196.867188 131.097656 L 199.078125 132.554688 C 199.578125 132.929688 199.617188 132.929688 199.785156 132.929688 C 200.117188 132.929688 200.367188 132.679688 200.367188 132.347656 C 200.367188 131.972656 200.117188 131.890625 199.953125 131.804688 Z M 197.160156 130.640625 "/>
<path fill-rule="nonzero" fill="rgb(0%, 0%, 0%)" fill-opacity="1" d="M 208.253906 135.21875 L 205.710938 129.175781 C 205.585938 128.886719 205.585938 128.886719 205.210938 128.886719 L 202.753906 128.886719 C 202.503906 128.886719 202.296875 128.886719 202.296875 129.136719 C 202.296875 129.386719 202.546875 129.386719 202.628906 129.386719 C 202.796875 129.386719 203.128906 129.386719 203.421875 129.511719 L 203.421875 136.59375 C 203.421875 136.886719 203.421875 137.46875 202.503906 137.550781 C 202.253906 137.550781 202.253906 137.761719 202.253906 137.761719 C 202.253906 138.011719 202.503906 138.011719 202.710938 138.011719 L 204.796875 138.011719 C 205.003906 138.011719 205.210938 138.011719 205.210938 137.761719 C 205.210938 137.636719 205.128906 137.550781 205.003906 137.550781 C 204.003906 137.46875 204.003906 136.925781 204.003906 136.59375 L 204.003906 129.96875 L 207.253906 137.71875 C 207.335938 137.96875 207.460938 138.011719 207.503906 138.011719 C 207.671875 138.011719 207.710938 137.886719 207.796875 137.761719 L 211.046875 129.96875 L 211.046875 136.59375 C 211.046875 136.886719 211.046875 137.46875 210.171875 137.550781 C 209.921875 137.550781 209.921875 137.761719 209.921875 137.761719 C 209.921875 138.011719 210.128906 138.011719 210.335938 138.011719 L 213.921875 138.011719 C 214.128906 138.011719 214.335938 138.011719 214.335938 137.761719 C 214.335938 137.636719 214.253906 137.550781 214.128906 137.550781 C 213.085938 137.46875 213.085938 136.925781 213.085938 136.59375 L 213.085938 130.300781 C 213.085938 130.050781 213.085938 129.46875 214.003906 129.386719 C 214.128906 129.34375 214.253906 129.300781 214.253906 129.136719 C 214.253906 128.886719 214.046875 128.886719 213.835938 128.886719 L 211.253906 128.886719 C 210.921875 128.886719 210.878906 128.886719 210.753906 129.175781 Z M 207.835938 135.46875 C 207.960938 135.675781 207.960938 135.675781 208.128906 135.761719 L 207.546875 137.175781 L 207.503906 137.175781 L 204.460938 129.925781 C 204.421875 129.761719 204.296875 129.511719 204.128906 129.386719 L 205.296875 129.386719 Z M 203.835938 137.550781 L 203.585938 137.550781 C 203.628906 137.511719 203.671875 137.46875 203.671875 137.425781 C 203.710938 137.425781 203.710938 137.425781 203.710938 137.386719 Z M 211.503906 129.386719 L 212.921875 129.386719 C 212.628906 129.71875 212.628906 130.050781 212.628906 130.300781 L 212.628906 136.636719 C 212.628906 136.886719 212.628906 137.21875 212.960938 137.550781 L 211.210938 137.550781 C 211.503906 137.21875 211.503906 136.886719 211.503906 136.636719 Z M 211.503906 129.386719 "/>
<path fill-rule="nonzero" fill="rgb(0%, 0%, 0%)" fill-opacity="1" d="M 226.550781 134.199219 C 226.71875 134.113281 226.84375 133.988281 226.84375 133.824219 C 226.84375 133.613281 226.675781 133.449219 226.507812 133.449219 C 226.425781 133.449219 226.34375 133.449219 226.21875 133.53125 L 217.007812 137.699219 C 216.84375 137.78125 216.71875 137.90625 216.71875 138.113281 C 216.71875 138.28125 216.84375 138.40625 217.007812 138.488281 L 226.175781 142.65625 C 226.382812 142.78125 226.46875 142.78125 226.507812 142.78125 C 226.675781 142.78125 226.84375 142.574219 226.84375 142.40625 C 226.84375 142.199219 226.71875 142.074219 226.507812 141.988281 L 217.96875 138.113281 Z M 226.300781 145.90625 C 226.507812 145.90625 226.84375 145.90625 226.84375 145.53125 C 226.84375 145.15625 226.507812 145.15625 226.300781 145.15625 L 217.300781 145.15625 C 217.09375 145.15625 216.71875 145.15625 216.71875 145.53125 C 216.71875 145.90625 217.09375 145.90625 217.300781 145.90625 Z M 226.300781 145.90625 "/>
<path fill-rule="nonzero" fill="rgb(0%, 0%, 0%)" fill-opacity="1" d="M 231.566406 141.699219 C 231.480469 142.03125 231.355469 142.613281 231.355469 142.65625 C 231.355469 142.949219 231.605469 143.15625 231.855469 143.15625 C 232.023438 143.15625 232.316406 143.03125 232.480469 142.699219 C 232.480469 142.613281 232.648438 141.988281 232.730469 141.65625 C 233.191406 139.863281 233.191406 139.824219 233.191406 139.78125 C 233.398438 139.449219 234.355469 137.574219 235.941406 137.574219 C 236.605469 137.574219 236.898438 137.90625 236.898438 138.53125 C 236.898438 139.28125 236.316406 140.65625 236.023438 141.40625 C 235.941406 141.574219 235.898438 141.738281 235.898438 141.949219 C 235.898438 142.65625 236.566406 143.15625 237.355469 143.15625 C 238.773438 143.15625 239.480469 141.40625 239.480469 141.074219 C 239.480469 140.90625 239.273438 140.90625 239.230469 140.90625 C 238.980469 140.90625 238.980469 140.949219 238.898438 141.199219 C 238.648438 141.988281 238.023438 142.699219 237.398438 142.699219 C 237.105469 142.699219 236.980469 142.488281 236.980469 142.199219 C 236.980469 141.90625 237.066406 141.78125 237.191406 141.488281 C 237.398438 140.949219 238.023438 139.449219 238.023438 138.699219 C 238.023438 137.699219 237.316406 137.113281 236.023438 137.113281 C 234.816406 137.113281 233.980469 137.863281 233.523438 138.449219 C 233.480469 137.324219 232.398438 137.113281 231.898438 137.113281 C 230.566406 137.113281 230.191406 139.15625 230.191406 139.15625 C 230.191406 139.363281 230.398438 139.363281 230.480469 139.363281 C 230.691406 139.363281 230.730469 139.28125 230.773438 139.113281 C 230.980469 138.324219 231.273438 137.574219 231.855469 137.574219 C 232.273438 137.574219 232.398438 137.988281 232.398438 138.28125 C 232.398438 138.449219 232.230469 138.949219 232.191406 139.324219 C 232.066406 139.65625 231.941406 140.199219 231.898438 140.488281 Z M 231.566406 141.699219 "/>
</svg>
