<?xml version="1.0" encoding="UTF-8"?>
<svg xmlns="http://www.w3.org/2000/svg" xmlns:xlink="http://www.w3.org/1999/xlink" width="387.493327" height="154.453328" viewBox="0 0 387.493327 154.453328">
<path fill-rule="nonzero" fill="rgb(0%, 0%, 0%)" fill-opacity="1" d="M 53.765625 21.46875 C 54.015625 20.511719 54.058594 20.261719 56.058594 20.261719 C 56.640625 20.261719 56.890625 20.261719 56.890625 19.71875 C 56.890625 19.429688 56.640625 19.429688 56.183594 19.429688 L 52.683594 19.429688 C 51.976562 19.429688 51.933594 19.429688 51.640625 19.929688 L 41.933594 35.09375 L 39.851562 20.054688 C 39.765625 19.429688 39.726562 19.429688 39.015625 19.429688 L 35.390625 19.429688 C 34.890625 19.429688 34.601562 19.429688 34.601562 19.929688 C 34.601562 20.261719 34.851562 20.261719 35.351562 20.261719 C 35.726562 20.261719 36.183594 20.304688 36.515625 20.304688 C 36.933594 20.386719 37.101562 20.429688 37.101562 20.761719 C 37.101562 20.84375 37.058594 20.929688 36.976562 21.261719 L 33.601562 34.761719 C 33.351562 35.84375 32.890625 36.679688 30.726562 36.761719 C 30.601562 36.761719 30.265625 36.804688 30.265625 37.261719 C 30.265625 37.511719 30.433594 37.59375 30.640625 37.59375 C 31.476562 37.59375 32.390625 37.511719 33.308594 37.511719 C 34.183594 37.511719 35.140625 37.59375 36.015625 37.59375 C 36.140625 37.59375 36.515625 37.59375 36.515625 37.054688 C 36.515625 36.761719 36.226562 36.761719 36.015625 36.761719 C 34.515625 36.761719 34.226562 36.21875 34.226562 35.59375 C 34.226562 35.429688 34.226562 35.261719 34.308594 34.96875 L 37.933594 20.511719 L 37.976562 20.511719 L 40.265625 36.96875 C 40.308594 37.304688 40.351562 37.59375 40.640625 37.59375 C 40.933594 37.59375 41.101562 37.304688 41.226562 37.136719 L 51.976562 20.304688 L 52.015625 20.304688 L 48.183594 35.511719 C 47.933594 36.554688 47.890625 36.761719 45.765625 36.761719 C 45.351562 36.761719 45.058594 36.761719 45.058594 37.261719 C 45.058594 37.59375 45.351562 37.59375 45.433594 37.59375 C 46.183594 37.59375 47.976562 37.511719 48.726562 37.511719 C 49.808594 37.511719 50.976562 37.59375 52.058594 37.59375 C 52.226562 37.59375 52.558594 37.59375 52.558594 37.054688 C 52.558594 36.761719 52.308594 36.761719 51.808594 36.761719 C 50.851562 36.761719 50.101562 36.761719 50.101562 36.304688 C 50.101562 36.179688 50.101562 36.136719 50.226562 35.636719 Z M 53.765625 21.46875 "/>
<path fill-rule="nonzero" fill="rgb(0%, 0%, 0%)" fill-opacity="1" d="M 64.289062 38.203125 L 63.664062 38.203125 C 63.621094 38.621094 63.414062 39.703125 63.164062 39.871094 C 63.039062 39.996094 61.621094 39.996094 61.332031 39.996094 L 57.914062 39.996094 C 59.871094 38.285156 60.539062 37.746094 61.621094 36.871094 C 62.996094 35.785156 64.289062 34.621094 64.289062 32.871094 C 64.289062 30.621094 62.332031 29.246094 59.957031 29.246094 C 57.664062 29.246094 56.082031 30.871094 56.082031 32.578125 C 56.082031 33.496094 56.871094 33.621094 57.082031 33.621094 C 57.496094 33.621094 58.039062 33.285156 58.039062 32.621094 C 58.039062 32.285156 57.914062 31.621094 56.957031 31.621094 C 57.539062 30.328125 58.789062 29.910156 59.664062 29.910156 C 61.539062 29.910156 62.496094 31.371094 62.496094 32.871094 C 62.496094 34.496094 61.332031 35.746094 60.746094 36.410156 L 56.289062 40.871094 C 56.082031 41.035156 56.082031 41.078125 56.082031 41.578125 L 63.746094 41.578125 Z M 64.289062 38.203125 "/>
<path fill-rule="nonzero" fill="rgb(0%, 0%, 0%)" fill-opacity="1" d="M 83.070312 30.21875 L 77.78125 24.929688 C 77.445312 24.59375 77.40625 24.554688 77.195312 24.554688 C 76.90625 24.554688 76.65625 24.761719 76.65625 25.09375 C 76.65625 25.261719 76.695312 25.304688 76.988281 25.59375 L 82.320312 30.929688 L 76.988281 36.304688 C 76.695312 36.59375 76.65625 36.636719 76.65625 36.804688 C 76.65625 37.136719 76.90625 37.34375 77.195312 37.34375 C 77.40625 37.34375 77.445312 37.304688 77.78125 36.96875 L 83.070312 31.679688 L 88.570312 37.179688 C 88.613281 37.21875 88.78125 37.34375 88.945312 37.34375 C 89.28125 37.34375 89.488281 37.136719 89.488281 36.804688 C 89.488281 36.761719 89.488281 36.679688 89.40625 36.511719 C 89.363281 36.46875 85.15625 32.304688 83.820312 30.929688 L 88.695312 26.09375 C 88.820312 25.929688 89.238281 25.59375 89.363281 25.429688 C 89.363281 25.386719 89.488281 25.261719 89.488281 25.09375 C 89.488281 24.761719 89.28125 24.554688 88.945312 24.554688 C 88.738281 24.554688 88.65625 24.636719 88.363281 24.929688 Z M 83.070312 30.21875 "/>
<path fill-rule="nonzero" fill="rgb(0%, 0%, 0%)" fill-opacity="1" d="M 111.59375 28.59375 C 111.34375 26.929688 110.261719 25.429688 108.179688 25.429688 C 106.554688 25.429688 104.84375 25.886719 102.761719 27.929688 C 100.554688 30.136719 100.386719 32.636719 100.386719 33.429688 C 100.386719 35.09375 101.554688 38.179688 105.261719 38.179688 C 111.59375 38.179688 114.34375 29.261719 114.34375 25.429688 C 114.34375 21.21875 111.886719 18.554688 108.59375 18.554688 C 104.761719 18.554688 103.511719 22.011719 103.511719 22.761719 C 103.511719 23.136719 103.761719 23.679688 104.554688 23.679688 C 105.429688 23.679688 105.96875 22.886719 105.96875 22.304688 C 105.96875 21.34375 105.136719 21.34375 104.71875 21.34375 C 105.886719 19.386719 107.804688 19.21875 108.554688 19.21875 C 110.511719 19.21875 112.34375 20.59375 112.34375 24.054688 C 112.34375 25.09375 112.179688 26.429688 111.636719 28.59375 Z M 105.34375 37.429688 C 102.429688 37.429688 102.429688 34.679688 102.429688 34.429688 C 102.429688 33.71875 103.09375 30.011719 104.179688 28.386719 C 105.21875 26.886719 106.554688 26.011719 108.179688 26.011719 C 111.09375 26.011719 111.136719 29.011719 111.136719 29.554688 C 111.136719 31.46875 109.429688 37.429688 105.34375 37.429688 Z M 105.34375 37.429688 "/>
<path fill-rule="nonzero" fill="rgb(0%, 0%, 0%)" fill-opacity="1" d="M 122.886719 29.179688 L 127.429688 29.179688 C 131.179688 29.179688 134.886719 26.429688 134.886719 23.46875 C 134.886719 21.386719 133.136719 19.429688 129.636719 19.429688 L 121.054688 19.429688 C 120.554688 19.429688 120.261719 19.429688 120.261719 19.929688 C 120.261719 20.261719 120.46875 20.261719 121.011719 20.261719 C 121.34375 20.261719 121.84375 20.304688 122.136719 20.304688 C 122.59375 20.386719 122.71875 20.429688 122.71875 20.761719 C 122.71875 20.84375 122.71875 20.929688 122.636719 21.261719 L 119.054688 35.511719 C 118.804688 36.554688 118.761719 36.761719 116.636719 36.761719 C 116.21875 36.761719 115.929688 36.761719 115.929688 37.261719 C 115.929688 37.59375 116.21875 37.59375 116.304688 37.59375 C 117.054688 37.59375 118.929688 37.511719 119.679688 37.511719 C 120.261719 37.511719 120.84375 37.554688 121.386719 37.554688 C 121.96875 37.554688 122.554688 37.59375 123.09375 37.59375 C 123.304688 37.59375 123.636719 37.59375 123.636719 37.054688 C 123.636719 36.761719 123.386719 36.761719 122.886719 36.761719 C 121.929688 36.761719 121.179688 36.761719 121.179688 36.304688 C 121.179688 36.136719 121.21875 36.011719 121.261719 35.84375 Z M 124.804688 21.261719 C 125.054688 20.34375 125.09375 20.261719 126.261719 20.261719 L 128.804688 20.261719 C 131.011719 20.261719 132.429688 20.96875 132.429688 22.804688 C 132.429688 23.84375 131.886719 26.136719 130.84375 27.09375 C 129.511719 28.304688 127.929688 28.511719 126.761719 28.511719 L 123.011719 28.511719 Z M 124.804688 21.261719 "/>
<path fill-rule="nonzero" fill="rgb(0%, 0%, 0%)" fill-opacity="1" d="M 144.421875 43.96875 C 144.421875 43.886719 144.421875 43.84375 143.964844 43.386719 C 140.671875 40.054688 139.796875 35.011719 139.796875 30.929688 C 139.796875 26.304688 140.796875 21.679688 144.089844 18.386719 C 144.421875 18.054688 144.421875 18.011719 144.421875 17.929688 C 144.421875 17.71875 144.339844 17.636719 144.171875 17.636719 C 143.882812 17.636719 141.507812 19.46875 139.921875 22.84375 C 138.589844 25.761719 138.257812 28.71875 138.257812 30.929688 C 138.257812 33.011719 138.546875 36.21875 140.007812 39.261719 C 141.632812 42.511719 143.882812 44.261719 144.171875 44.261719 C 144.339844 44.261719 144.421875 44.179688 144.421875 43.96875 Z M 144.421875 43.96875 "/>
<path fill-rule="nonzero" fill="rgb(0%, 0%, 0%)" fill-opacity="1" d="M 149.316406 35.554688 L 152.148438 32.804688 C 156.273438 29.136719 157.855469 27.71875 157.855469 25.054688 C 157.855469 22.011719 155.480469 19.886719 152.230469 19.886719 C 149.230469 19.886719 147.273438 22.34375 147.273438 24.71875 C 147.273438 26.179688 148.605469 26.179688 148.691406 26.179688 C 149.148438 26.179688 150.066406 25.886719 150.066406 24.761719 C 150.066406 24.09375 149.566406 23.386719 148.648438 23.386719 C 148.441406 23.386719 148.398438 23.386719 148.316406 23.429688 C 148.898438 21.679688 150.355469 20.71875 151.898438 20.71875 C 154.316406 20.71875 155.441406 22.886719 155.441406 25.054688 C 155.441406 27.179688 154.148438 29.261719 152.648438 30.929688 L 147.566406 36.59375 C 147.273438 36.886719 147.273438 36.96875 147.273438 37.59375 L 157.148438 37.59375 L 157.855469 32.96875 L 157.230469 32.96875 C 157.066406 33.761719 156.898438 34.929688 156.605469 35.34375 C 156.441406 35.554688 154.691406 35.554688 154.105469 35.554688 Z M 149.316406 35.554688 "/>
<path fill-rule="nonzero" fill="rgb(0%, 0%, 0%)" fill-opacity="1" d="M 166.890625 30.929688 C 166.890625 28.886719 166.597656 25.679688 165.140625 22.636719 C 163.558594 19.386719 161.265625 17.636719 161.015625 17.636719 C 160.847656 17.636719 160.722656 17.761719 160.722656 17.929688 C 160.722656 18.011719 160.722656 18.054688 161.222656 18.554688 C 163.847656 21.179688 165.347656 25.386719 165.347656 30.929688 C 165.347656 35.511719 164.390625 40.179688 161.097656 43.511719 C 160.722656 43.84375 160.722656 43.886719 160.722656 43.96875 C 160.722656 44.136719 160.847656 44.261719 161.015625 44.261719 C 161.265625 44.261719 163.683594 42.429688 165.222656 39.054688 C 166.597656 36.136719 166.890625 33.179688 166.890625 30.929688 Z M 166.890625 30.929688 "/>
<path fill-rule="nonzero" fill="rgb(0%, 0%, 0%)" fill-opacity="1" d="M 280.863281 21.46875 C 281.113281 20.511719 281.15625 20.261719 283.15625 20.261719 C 283.738281 20.261719 283.988281 20.261719 283.988281 19.71875 C 283.988281 19.429688 283.738281 19.429688 283.28125 19.429688 L 279.78125 19.429688 C 279.074219 19.429688 279.03125 19.429688 278.738281 19.929688 L 269.03125 35.09375 L 266.949219 20.054688 C 266.863281 19.429688 266.824219 19.429688 266.113281 19.429688 L 262.488281 19.429688 C 261.988281 19.429688 261.699219 19.429688 261.699219 19.929688 C 261.699219 20.261719 261.949219 20.261719 262.449219 20.261719 C 262.824219 20.261719 263.28125 20.304688 263.613281 20.304688 C 264.03125 20.386719 264.199219 20.429688 264.199219 20.761719 C 264.199219 20.84375 264.15625 20.929688 264.074219 21.261719 L 260.699219 34.761719 C 260.449219 35.84375 259.988281 36.679688 257.824219 36.761719 C 257.699219 36.761719 257.363281 36.804688 257.363281 37.261719 C 257.363281 37.511719 257.53125 37.59375 257.738281 37.59375 C 258.574219 37.59375 259.488281 37.511719 260.40625 37.511719 C 261.28125 37.511719 262.238281 37.59375 263.113281 37.59375 C 263.238281 37.59375 263.613281 37.59375 263.613281 37.054688 C 263.613281 36.761719 263.324219 36.761719 263.113281 36.761719 C 261.613281 36.761719 261.324219 36.21875 261.324219 35.59375 C 261.324219 35.429688 261.324219 35.261719 261.40625 34.96875 L 265.03125 20.511719 L 265.074219 20.511719 L 267.363281 36.96875 C 267.40625 37.304688 267.449219 37.59375 267.738281 37.59375 C 268.03125 37.59375 268.199219 37.304688 268.324219 37.136719 L 279.074219 20.304688 L 279.113281 20.304688 L 275.28125 35.511719 C 275.03125 36.554688 274.988281 36.761719 272.863281 36.761719 C 272.449219 36.761719 272.15625 36.761719 272.15625 37.261719 C 272.15625 37.59375 272.449219 37.59375 272.53125 37.59375 C 273.28125 37.59375 275.074219 37.511719 275.824219 37.511719 C 276.90625 37.511719 278.074219 37.59375 279.15625 37.59375 C 279.324219 37.59375 279.65625 37.59375 279.65625 37.054688 C 279.65625 36.761719 279.40625 36.761719 278.90625 36.761719 C 277.949219 36.761719 277.199219 36.761719 277.199219 36.304688 C 277.199219 36.179688 277.199219 36.136719 277.324219 35.636719 Z M 280.863281 21.46875 "/>
<path fill-rule="nonzero" fill="rgb(0%, 0%, 0%)" fill-opacity="1" d="M 291.386719 38.203125 L 290.761719 38.203125 C 290.722656 38.621094 290.511719 39.703125 290.261719 39.871094 C 290.136719 39.996094 288.722656 39.996094 288.429688 39.996094 L 285.011719 39.996094 C 286.972656 38.285156 287.636719 37.746094 288.722656 36.871094 C 290.097656 35.785156 291.386719 34.621094 291.386719 32.871094 C 291.386719 30.621094 289.429688 29.246094 287.054688 29.246094 C 284.761719 29.246094 283.179688 30.871094 283.179688 32.578125 C 283.179688 33.496094 283.972656 33.621094 284.179688 33.621094 C 284.597656 33.621094 285.136719 33.285156 285.136719 32.621094 C 285.136719 32.285156 285.011719 31.621094 284.054688 31.621094 C 284.636719 30.328125 285.886719 29.910156 286.761719 29.910156 C 288.636719 29.910156 289.597656 31.371094 289.597656 32.871094 C 289.597656 34.496094 288.429688 35.746094 287.847656 36.410156 L 283.386719 40.871094 C 283.179688 41.035156 283.179688 41.078125 283.179688 41.578125 L 290.847656 41.578125 Z M 291.386719 38.203125 "/>
<path fill-rule="nonzero" fill="rgb(0%, 0%, 0%)" fill-opacity="1" d="M 310.167969 30.21875 L 304.875 24.929688 C 304.542969 24.59375 304.5 24.554688 304.292969 24.554688 C 304 24.554688 303.75 24.761719 303.75 25.09375 C 303.75 25.261719 303.792969 25.304688 304.085938 25.59375 L 309.417969 30.929688 L 304.085938 36.304688 C 303.792969 36.59375 303.75 36.636719 303.75 36.804688 C 303.75 37.136719 304 37.34375 304.292969 37.34375 C 304.5 37.34375 304.542969 37.304688 304.875 36.96875 L 310.167969 31.679688 L 315.667969 37.179688 C 315.710938 37.21875 315.875 37.34375 316.042969 37.34375 C 316.375 37.34375 316.585938 37.136719 316.585938 36.804688 C 316.585938 36.761719 316.585938 36.679688 316.5 36.511719 C 316.460938 36.46875 312.25 32.304688 310.917969 30.929688 L 315.792969 26.09375 C 315.917969 25.929688 316.335938 25.59375 316.460938 25.429688 C 316.460938 25.386719 316.585938 25.261719 316.585938 25.09375 C 316.585938 24.761719 316.375 24.554688 316.042969 24.554688 C 315.835938 24.554688 315.75 24.636719 315.460938 24.929688 Z M 310.167969 30.21875 "/>
<path fill-rule="nonzero" fill="rgb(0%, 0%, 0%)" fill-opacity="1" d="M 338.695312 28.59375 C 338.445312 26.929688 337.359375 25.429688 335.277344 25.429688 C 333.652344 25.429688 331.945312 25.886719 329.859375 27.929688 C 327.652344 30.136719 327.484375 32.636719 327.484375 33.429688 C 327.484375 35.09375 328.652344 38.179688 332.359375 38.179688 C 338.695312 38.179688 341.445312 29.261719 341.445312 25.429688 C 341.445312 21.21875 338.984375 18.554688 335.695312 18.554688 C 331.859375 18.554688 330.609375 22.011719 330.609375 22.761719 C 330.609375 23.136719 330.859375 23.679688 331.652344 23.679688 C 332.527344 23.679688 333.070312 22.886719 333.070312 22.304688 C 333.070312 21.34375 332.234375 21.34375 331.820312 21.34375 C 332.984375 19.386719 334.902344 19.21875 335.652344 19.21875 C 337.609375 19.21875 339.445312 20.59375 339.445312 24.054688 C 339.445312 25.09375 339.277344 26.429688 338.734375 28.59375 Z M 332.445312 37.429688 C 329.527344 37.429688 329.527344 34.679688 329.527344 34.429688 C 329.527344 33.71875 330.195312 30.011719 331.277344 28.386719 C 332.320312 26.886719 333.652344 26.011719 335.277344 26.011719 C 338.195312 26.011719 338.234375 29.011719 338.234375 29.554688 C 338.234375 31.46875 336.527344 37.429688 332.445312 37.429688 Z M 332.445312 37.429688 "/>
<path fill-rule="nonzero" fill="rgb(0%, 0%, 0%)" fill-opacity="1" d="M 353.730469 19.054688 C 353.566406 18.679688 353.480469 18.554688 353.023438 18.554688 C 352.605469 18.554688 352.523438 18.679688 352.355469 19.054688 L 343.355469 37.054688 C 343.230469 37.304688 343.230469 37.34375 343.230469 37.386719 C 343.230469 37.59375 343.398438 37.59375 343.816406 37.59375 L 362.273438 37.59375 C 362.691406 37.59375 362.855469 37.59375 362.855469 37.386719 C 362.855469 37.34375 362.855469 37.304688 362.730469 37.054688 Z M 352.191406 21.21875 L 359.355469 35.59375 L 345.023438 35.59375 Z M 352.191406 21.21875 "/>
<path fill-rule="nonzero" fill="rgb(0%, 0%, 0%)" fill-opacity="1" d="M 373.496094 24.578125 L 372.871094 24.578125 C 372.832031 24.992188 372.621094 26.078125 372.371094 26.242188 C 372.246094 26.367188 370.832031 26.367188 370.539062 26.367188 L 367.121094 26.367188 C 369.082031 24.660156 369.746094 24.117188 370.832031 23.242188 C 372.207031 22.160156 373.496094 20.992188 373.496094 19.242188 C 373.496094 16.992188 371.539062 15.617188 369.164062 15.617188 C 366.871094 15.617188 365.289062 17.242188 365.289062 18.953125 C 365.289062 19.867188 366.082031 19.992188 366.289062 19.992188 C 366.707031 19.992188 367.246094 19.660156 367.246094 18.992188 C 367.246094 18.660156 367.121094 17.992188 366.164062 17.992188 C 366.746094 16.703125 367.996094 16.285156 368.871094 16.285156 C 370.746094 16.285156 371.707031 17.742188 371.707031 19.242188 C 371.707031 20.867188 370.539062 22.117188 369.957031 22.785156 L 365.496094 27.242188 C 365.289062 27.410156 365.289062 27.453125 365.289062 27.953125 L 372.957031 27.953125 Z M 373.496094 24.578125 "/>
<path fill-rule="nonzero" fill="rgb(0%, 0%, 0%)" fill-opacity="1" d="M 96.835938 113.699219 C 97.085938 112.742188 97.128906 112.492188 99.128906 112.492188 C 99.710938 112.492188 99.960938 112.492188 99.960938 111.949219 C 99.960938 111.65625 99.710938 111.65625 99.253906 111.65625 L 95.753906 111.65625 C 95.042969 111.65625 95.003906 111.65625 94.710938 112.15625 L 85.003906 127.324219 L 82.917969 112.28125 C 82.835938 111.65625 82.792969 111.65625 82.085938 111.65625 L 78.460938 111.65625 C 77.960938 111.65625 77.667969 111.65625 77.667969 112.15625 C 77.667969 112.492188 77.917969 112.492188 78.417969 112.492188 C 78.792969 112.492188 79.253906 112.53125 79.585938 112.53125 C 80.003906 112.617188 80.167969 112.65625 80.167969 112.992188 C 80.167969 113.074219 80.128906 113.15625 80.042969 113.492188 L 76.667969 126.992188 C 76.417969 128.074219 75.960938 128.90625 73.792969 128.992188 C 73.667969 128.992188 73.335938 129.03125 73.335938 129.492188 C 73.335938 129.742188 73.503906 129.824219 73.710938 129.824219 C 74.542969 129.824219 75.460938 129.742188 76.378906 129.742188 C 77.253906 129.742188 78.210938 129.824219 79.085938 129.824219 C 79.210938 129.824219 79.585938 129.824219 79.585938 129.28125 C 79.585938 128.992188 79.292969 128.992188 79.085938 128.992188 C 77.585938 128.992188 77.292969 128.449219 77.292969 127.824219 C 77.292969 127.65625 77.292969 127.492188 77.378906 127.199219 L 81.003906 112.742188 L 81.042969 112.742188 L 83.335938 129.199219 C 83.378906 129.53125 83.417969 129.824219 83.710938 129.824219 C 84.003906 129.824219 84.167969 129.53125 84.292969 129.367188 L 95.042969 112.53125 L 95.085938 112.53125 L 91.253906 127.742188 C 91.003906 128.78125 90.960938 128.992188 88.835938 128.992188 C 88.417969 128.992188 88.128906 128.992188 88.128906 129.492188 C 88.128906 129.824219 88.417969 129.824219 88.503906 129.824219 C 89.253906 129.824219 91.042969 129.742188 91.792969 129.742188 C 92.878906 129.742188 94.042969 129.824219 95.128906 129.824219 C 95.292969 129.824219 95.628906 129.824219 95.628906 129.28125 C 95.628906 128.992188 95.378906 128.992188 94.878906 128.992188 C 93.917969 128.992188 93.167969 128.992188 93.167969 128.53125 C 93.167969 128.40625 93.167969 128.367188 93.292969 127.867188 Z M 96.835938 113.699219 "/>
<path fill-rule="nonzero" fill="rgb(0%, 0%, 0%)" fill-opacity="1" d="M 112.152344 122.015625 C 112.402344 121.933594 112.566406 121.765625 112.566406 121.558594 C 112.566406 121.265625 112.359375 121.058594 112.109375 121.058594 C 112.066406 121.058594 111.984375 121.058594 111.734375 121.183594 L 100.402344 126.640625 C 100.109375 126.765625 99.984375 126.933594 99.984375 127.140625 C 99.984375 127.351562 100.109375 127.476562 100.402344 127.640625 L 111.734375 133.058594 C 111.984375 133.183594 112.066406 133.183594 112.109375 133.183594 C 112.402344 133.183594 112.566406 132.933594 112.566406 132.765625 C 112.566406 132.433594 112.316406 132.351562 112.152344 132.265625 L 101.484375 127.140625 Z M 111.816406 137.265625 C 112.109375 137.265625 112.566406 137.265625 112.566406 136.851562 C 112.566406 136.390625 112.109375 136.390625 111.816406 136.390625 L 100.734375 136.390625 C 100.402344 136.390625 99.984375 136.390625 99.984375 136.851562 C 99.984375 137.265625 100.441406 137.265625 100.734375 137.265625 Z M 111.816406 137.265625 "/>
<path fill-rule="nonzero" fill="rgb(0%, 0%, 0%)" fill-opacity="1" d="M 120.796875 121.976562 C 120.796875 121.476562 120.796875 121.476562 120.257812 121.476562 C 119.046875 122.640625 117.382812 122.640625 116.632812 122.640625 L 116.632812 123.308594 C 117.046875 123.308594 118.296875 123.308594 119.296875 122.808594 L 119.296875 132.265625 C 119.296875 132.890625 119.296875 133.140625 117.464844 133.140625 L 116.757812 133.140625 L 116.757812 133.808594 C 117.089844 133.808594 119.382812 133.726562 120.046875 133.726562 C 120.632812 133.726562 122.964844 133.808594 123.382812 133.808594 L 123.382812 133.140625 L 122.671875 133.140625 C 120.796875 133.140625 120.796875 132.890625 120.796875 132.265625 Z M 120.796875 121.976562 "/>
<path fill-rule="nonzero" fill="rgb(0%, 0%, 0%)" fill-opacity="1" d="M 310.011719 124.242188 L 304.929688 112.15625 C 304.71875 111.617188 304.71875 111.617188 303.96875 111.617188 L 299.054688 111.617188 C 298.554688 111.617188 298.179688 111.617188 298.179688 112.074219 C 298.179688 112.53125 298.636719 112.53125 298.761719 112.53125 C 299.09375 112.53125 299.804688 112.617188 300.386719 112.824219 L 300.386719 126.992188 C 300.386719 127.574219 300.386719 128.742188 298.59375 128.90625 C 298.09375 128.949219 298.09375 129.324219 298.09375 129.367188 C 298.09375 129.824219 298.511719 129.824219 299.011719 129.824219 L 303.09375 129.824219 C 303.59375 129.824219 303.96875 129.824219 303.96875 129.367188 C 303.96875 129.117188 303.761719 128.90625 303.554688 128.90625 C 301.511719 128.742188 301.511719 127.617188 301.511719 126.992188 L 301.511719 113.78125 L 301.554688 113.742188 L 308.011719 129.28125 C 308.261719 129.742188 308.429688 129.824219 308.59375 129.824219 C 308.929688 129.824219 308.96875 129.617188 309.136719 129.28125 L 315.636719 113.742188 L 315.679688 113.78125 L 315.679688 126.992188 C 315.679688 127.574219 315.679688 128.742188 313.84375 128.90625 C 313.34375 128.949219 313.34375 129.324219 313.34375 129.367188 C 313.34375 129.824219 313.761719 129.824219 314.261719 129.824219 L 321.34375 129.824219 C 321.84375 129.824219 322.21875 129.824219 322.21875 129.367188 C 322.21875 129.117188 322.011719 128.90625 321.804688 128.90625 C 319.761719 128.742188 319.761719 127.617188 319.761719 126.992188 L 319.761719 114.449219 C 319.761719 113.867188 319.761719 112.699219 321.554688 112.53125 C 321.84375 112.53125 322.054688 112.367188 322.054688 112.074219 C 322.054688 111.617188 321.679688 111.617188 321.179688 111.617188 L 316.054688 111.617188 C 315.386719 111.617188 315.304688 111.617188 315.09375 112.15625 Z M 309.21875 124.742188 C 309.429688 125.15625 309.46875 125.199219 309.804688 125.324219 L 308.59375 128.117188 L 308.554688 128.117188 L 302.511719 113.65625 C 302.386719 113.324219 302.136719 112.867188 301.804688 112.53125 L 304.09375 112.53125 Z M 301.179688 128.90625 L 300.761719 128.90625 C 300.804688 128.824219 300.84375 128.742188 300.886719 128.699219 C 300.929688 128.65625 300.929688 128.617188 300.96875 128.617188 Z M 316.59375 112.53125 L 319.429688 112.53125 C 318.804688 113.199219 318.804688 113.90625 318.804688 114.367188 L 318.804688 127.074219 C 318.804688 127.53125 318.804688 128.242188 319.429688 128.90625 L 316.011719 128.90625 C 316.59375 128.242188 316.59375 127.53125 316.59375 127.074219 Z M 316.59375 112.53125 "/>
<path fill-rule="nonzero" fill="rgb(0%, 0%, 0%)" fill-opacity="1" d="M 328.9375 121.976562 C 328.9375 121.476562 328.9375 121.476562 328.394531 121.476562 C 327.1875 122.640625 325.519531 122.640625 324.769531 122.640625 L 324.769531 123.308594 C 325.1875 123.308594 326.4375 123.308594 327.4375 122.808594 L 327.4375 132.265625 C 327.4375 132.890625 327.4375 133.140625 325.601562 133.140625 L 324.894531 133.140625 L 324.894531 133.808594 C 325.226562 133.808594 327.519531 133.726562 328.1875 133.726562 C 328.769531 133.726562 331.101562 133.808594 331.519531 133.808594 L 331.519531 133.140625 L 330.8125 133.140625 C 328.9375 133.140625 328.9375 132.890625 328.9375 132.265625 Z M 328.9375 121.976562 "/>
<path fill="none" stroke-width="0.39848" stroke-linecap="butt" stroke-linejoin="miter" stroke="rgb(0%, 0%, 0%)" stroke-opacity="1" stroke-miterlimit="10" d="M -7.886063 17.124043 L 15.227707 17.124043 " transform="matrix(2.666667, 0, 0, -2.666667, 202.592, 76.613332)"/>
<path fill="none" stroke-width="0.39848" stroke-linecap="round" stroke-linejoin="round" stroke="rgb(0%, 0%, 0%)" stroke-opacity="1" stroke-miterlimit="10" d="M -2.073303 2.391568 C -1.695374 0.954556 -0.851624 0.279263 0.000915527 0.000943184 C -0.851624 -0.280307 -1.695374 -0.9556 -2.073303 -2.389682 " transform="matrix(2.666667, 0, 0, -2.666667, 243.728027, 30.951734)"/>
<path fill-rule="nonzero" fill="rgb(0%, 0%, 0%)" fill-opacity="1" d="M 175.636719 7.171875 C 175.636719 6.628906 175.179688 6.085938 174.554688 6.085938 C 174.011719 6.085938 173.511719 6.546875 173.511719 7.171875 C 173.511719 7.835938 174.054688 8.253906 174.554688 8.253906 C 175.179688 8.253906 175.636719 7.796875 175.636719 7.171875 Z M 172.804688 10.628906 L 172.804688 11.296875 C 173.96875 11.296875 174.136719 11.421875 174.136719 12.335938 L 174.136719 17.171875 C 174.136719 17.960938 173.96875 17.960938 172.761719 17.960938 L 172.761719 18.628906 C 172.804688 18.628906 174.09375 18.546875 174.84375 18.546875 C 175.511719 18.546875 176.179688 18.585938 176.804688 18.628906 L 176.804688 17.960938 C 175.71875 17.960938 175.554688 17.960938 175.554688 17.171875 L 175.554688 10.421875 Z M 172.804688 10.628906 "/>
<path fill-rule="nonzero" fill="rgb(0%, 0%, 0%)" fill-opacity="1" d="M 184.351562 5.921875 L 184.351562 6.585938 C 185.601562 6.585938 185.726562 6.753906 185.726562 7.628906 L 185.726562 11.503906 C 185.058594 10.835938 184.144531 10.421875 183.144531 10.421875 C 180.644531 10.421875 178.601562 12.296875 178.601562 14.628906 C 178.601562 16.960938 180.558594 18.796875 182.894531 18.796875 C 184.433594 18.796875 185.351562 18.003906 185.644531 17.671875 L 185.644531 18.796875 L 188.519531 18.628906 L 188.519531 17.960938 C 187.269531 17.960938 187.144531 17.835938 187.144531 16.921875 L 187.144531 5.710938 Z M 185.644531 16.671875 C 185.183594 17.546875 184.226562 18.296875 183.019531 18.296875 C 181.976562 18.296875 181.226562 17.671875 180.851562 17.128906 C 180.476562 16.585938 180.269531 15.835938 180.269531 14.671875 C 180.269531 14.210938 180.269531 12.835938 181.019531 11.960938 C 181.769531 11.128906 182.683594 10.960938 183.226562 10.960938 C 184.101562 10.960938 184.933594 11.378906 185.433594 12.046875 C 185.644531 12.335938 185.644531 12.335938 185.644531 12.710938 Z M 185.644531 16.671875 "/>
<path fill-rule="nonzero" fill="rgb(0%, 0%, 0%)" fill-opacity="1" d="M 202.46875 9.921875 C 202.675781 9.710938 202.71875 9.585938 202.71875 9.460938 C 202.71875 9.171875 202.511719 9.003906 202.300781 9.003906 C 202.09375 9.003906 202.050781 9.046875 201.84375 9.296875 L 197.761719 13.335938 L 193.675781 9.253906 C 193.46875 9.085938 193.425781 9.003906 193.261719 9.003906 C 192.96875 9.003906 192.761719 9.210938 192.761719 9.460938 C 192.761719 9.628906 192.84375 9.671875 193.050781 9.921875 L 197.09375 13.960938 L 193.050781 18.003906 C 192.800781 18.296875 192.761719 18.378906 192.761719 18.460938 C 192.761719 18.753906 192.96875 18.960938 193.261719 18.960938 C 193.425781 18.960938 193.46875 18.878906 193.675781 18.671875 L 197.761719 14.628906 L 202.011719 18.835938 C 202.09375 18.921875 202.175781 18.960938 202.300781 18.960938 C 202.511719 18.960938 202.71875 18.796875 202.71875 18.460938 C 202.71875 18.335938 202.71875 18.296875 202.636719 18.253906 C 202.59375 18.171875 199.011719 14.546875 198.425781 14.003906 Z M 202.46875 9.921875 "/>
<path fill-rule="nonzero" fill="rgb(0%, 0%, 0%)" fill-opacity="1" d="M 212.058594 14.003906 C 213.597656 13.335938 214.265625 13.085938 214.722656 12.835938 C 215.097656 12.710938 215.265625 12.628906 215.265625 12.253906 C 215.265625 11.960938 215.015625 11.671875 214.683594 11.671875 C 214.558594 11.671875 214.515625 11.671875 214.308594 11.835938 L 211.765625 13.546875 L 212.058594 10.796875 C 212.097656 10.460938 212.058594 10.003906 211.472656 10.003906 C 211.265625 10.003906 210.890625 10.128906 210.890625 10.546875 C 210.890625 10.710938 210.972656 11.253906 211.015625 11.460938 C 211.058594 11.753906 211.183594 13.128906 211.222656 13.546875 L 208.683594 11.835938 C 208.515625 11.753906 208.472656 11.671875 208.308594 11.671875 C 207.933594 11.671875 207.722656 11.960938 207.722656 12.253906 C 207.722656 12.628906 207.933594 12.753906 208.097656 12.796875 L 210.890625 14.003906 C 209.390625 14.671875 208.683594 14.921875 208.222656 15.128906 C 207.890625 15.296875 207.722656 15.378906 207.722656 15.710938 C 207.722656 16.046875 207.933594 16.296875 208.308594 16.296875 C 208.433594 16.296875 208.472656 16.296875 208.683594 16.128906 L 211.222656 14.460938 L 210.890625 17.421875 C 210.890625 17.835938 211.265625 18.003906 211.472656 18.003906 C 211.722656 18.003906 212.058594 17.835938 212.058594 17.421875 C 212.058594 17.253906 211.972656 16.710938 211.972656 16.546875 C 211.933594 16.210938 211.808594 14.878906 211.765625 14.460938 L 213.972656 15.921875 C 214.472656 16.296875 214.515625 16.296875 214.683594 16.296875 C 215.015625 16.296875 215.265625 16.046875 215.265625 15.710938 C 215.265625 15.335938 215.015625 15.253906 214.847656 15.171875 Z M 212.058594 14.003906 "/>
<path fill-rule="nonzero" fill="rgb(0%, 0%, 0%)" fill-opacity="1" d="M 220.875 16.570312 C 221.167969 16.195312 221.792969 15.695312 223 15.695312 C 224 15.695312 225.542969 16.195312 225.542969 18.320312 C 225.542969 18.945312 225.417969 19.613281 225.25 20.195312 C 225.085938 19.570312 224.417969 18.613281 222.875 18.613281 C 221.917969 18.613281 220.917969 18.78125 219.625 19.820312 C 218.417969 20.820312 218.335938 22.070312 218.335938 22.445312 C 218.335938 23.113281 218.625 23.695312 219.25 24.238281 C 219.917969 24.863281 220.710938 24.988281 221.542969 24.988281 C 225.5 24.988281 226.835938 20.570312 226.835938 18.90625 C 226.835938 16.738281 225.25 15.195312 223 15.195312 C 220.542969 15.195312 219.960938 16.945312 219.960938 17.40625 C 219.960938 17.695312 220.167969 17.945312 220.5 17.945312 C 221 17.945312 221.335938 17.53125 221.335938 17.113281 C 221.335938 16.65625 220.875 16.570312 220.875 16.570312 Z M 221.585938 24.445312 C 220.085938 24.445312 219.625 23.613281 219.625 22.863281 C 219.625 22.695312 219.792969 20.90625 220.667969 19.988281 C 221.585938 19.03125 222.625 19.03125 222.960938 19.03125 C 224.375 19.03125 225 19.988281 225 20.90625 C 225 21.570312 224.25 24.445312 221.585938 24.445312 Z M 221.585938 24.445312 "/>
<path fill-rule="nonzero" fill="rgb(0%, 0%, 0%)" fill-opacity="1" d="M 235.664062 15.488281 C 235.496094 15.238281 235.414062 15.195312 235.121094 15.195312 C 234.828125 15.195312 234.746094 15.238281 234.578125 15.488281 L 229.121094 24.363281 C 228.996094 24.488281 228.996094 24.53125 228.996094 24.53125 C 228.996094 24.695312 229.121094 24.695312 229.328125 24.695312 L 240.871094 24.695312 C 241.078125 24.695312 241.203125 24.695312 241.203125 24.53125 C 241.203125 24.53125 241.203125 24.488281 241.121094 24.363281 Z M 234.621094 16.53125 L 238.914062 23.488281 L 230.328125 23.488281 Z M 234.621094 16.53125 "/>
<path fill-rule="nonzero" fill="rgb(0%, 0%, 0%)" fill-opacity="1" d="M 250.238281 18.199219 L 249.65625 18.199219 C 249.65625 18.449219 249.488281 19.285156 249.28125 19.410156 C 249.195312 19.492188 248.070312 19.492188 247.863281 19.492188 L 245.28125 19.492188 C 246.15625 18.867188 247.113281 18.117188 247.90625 17.574219 C 249.113281 16.742188 250.238281 15.992188 250.238281 14.574219 C 250.238281 12.867188 248.613281 11.949219 246.738281 11.949219 C 244.945312 11.949219 243.613281 12.949219 243.613281 14.285156 C 243.613281 14.949219 244.195312 15.074219 244.40625 15.074219 C 244.738281 15.074219 245.15625 14.824219 245.15625 14.285156 C 245.15625 13.824219 244.820312 13.535156 244.40625 13.535156 C 244.78125 12.910156 245.570312 12.535156 246.445312 12.535156 C 247.738281 12.535156 248.820312 13.285156 248.820312 14.574219 C 248.820312 15.699219 248.03125 16.574219 247.03125 17.410156 L 243.78125 20.160156 C 243.65625 20.285156 243.613281 20.285156 243.613281 20.367188 L 243.613281 20.785156 L 249.78125 20.785156 Z M 250.238281 18.199219 "/>
<path fill="none" stroke-width="0.39848" stroke-linecap="butt" stroke-linejoin="miter" stroke="rgb(0%, 0%, 0%)" stroke-opacity="1" stroke-miterlimit="10" d="M -38.71077 8.2925 L -38.71077 -8.898907 " transform="matrix(2.666667, 0, 0, -2.666667, 202.592, 76.613332)"/>
<path fill="none" stroke-width="0.39848" stroke-linecap="round" stroke-linejoin="round" stroke="rgb(0%, 0%, 0%)" stroke-opacity="1" stroke-miterlimit="10" d="M -2.06974 2.391994 C -1.69474 0.954983 -0.85099 0.27969 0.0000839233 0.00136948 C -0.85099 -0.279881 -1.69474 -0.955173 -2.06974 -2.392185 " transform="matrix(0, 2.666667, 2.666667, 0, 99.359629, 100.874776)"/>
<path fill-rule="nonzero" fill="rgb(0%, 0%, 0%)" fill-opacity="1" d="M 79.042969 73.546875 C 78.667969 72.921875 78.042969 72.421875 77.128906 72.421875 C 74.753906 72.421875 72.335938 75.046875 72.335938 77.710938 C 72.335938 79.546875 73.542969 80.796875 75.167969 80.796875 C 76.167969 80.796875 77.042969 80.253906 77.792969 79.503906 C 78.128906 80.628906 79.210938 80.796875 79.710938 80.796875 C 80.378906 80.796875 80.835938 80.421875 81.167969 79.835938 C 81.585938 79.085938 81.835938 78.046875 81.835938 77.960938 C 81.835938 77.710938 81.585938 77.710938 81.542969 77.710938 C 81.253906 77.710938 81.253906 77.796875 81.128906 78.296875 C 80.878906 79.210938 80.542969 80.296875 79.753906 80.296875 C 79.292969 80.296875 79.128906 79.878906 79.128906 79.378906 C 79.128906 79.085938 79.292969 78.378906 79.417969 77.921875 C 79.542969 77.421875 79.753906 76.671875 79.835938 76.253906 L 80.210938 74.835938 C 80.335938 74.335938 80.542969 73.460938 80.542969 73.378906 C 80.542969 72.960938 80.210938 72.796875 79.917969 72.796875 C 79.585938 72.796875 79.167969 73.003906 79.042969 73.546875 Z M 77.878906 78.296875 C 77.753906 78.835938 77.335938 79.210938 76.917969 79.546875 C 76.753906 79.710938 76.003906 80.296875 75.210938 80.296875 C 74.503906 80.296875 73.835938 79.796875 73.835938 78.503906 C 73.835938 77.503906 74.378906 75.460938 74.835938 74.710938 C 75.667969 73.210938 76.628906 72.960938 77.128906 72.960938 C 78.417969 72.960938 78.792969 74.378906 78.792969 74.585938 C 78.792969 74.628906 78.753906 74.796875 78.753906 74.835938 Z M 77.878906 78.296875 "/>
<path fill-rule="nonzero" fill="rgb(0%, 0%, 0%)" fill-opacity="1" d="M 88.027344 74.828125 C 88.027344 74.453125 87.984375 74.453125 87.527344 74.453125 C 86.609375 75.285156 85.109375 75.285156 84.859375 75.285156 L 84.652344 75.285156 L 84.652344 75.867188 L 84.859375 75.867188 C 85.152344 75.867188 86.027344 75.828125 86.820312 75.492188 L 86.820312 82.160156 C 86.820312 82.535156 86.820312 82.703125 85.402344 82.703125 L 84.734375 82.703125 L 84.734375 83.285156 C 85.445312 83.242188 86.652344 83.242188 87.402344 83.242188 C 88.195312 83.242188 89.359375 83.242188 90.109375 83.285156 L 90.109375 82.703125 L 89.445312 82.703125 C 88.027344 82.703125 88.027344 82.535156 88.027344 82.160156 Z M 88.027344 74.828125 "/>
<path fill="none" stroke-width="0.39848" stroke-linecap="butt" stroke-linejoin="miter" stroke="rgb(0%, 0%, 0%)" stroke-opacity="1" stroke-miterlimit="10" d="M 42.582199 9.288593 L 42.582199 -8.844707 " transform="matrix(2.666667, 0, 0, -2.666667, 202.592, 76.613332)"/>
<path fill="none" stroke-width="0.39848" stroke-linecap="round" stroke-linejoin="round" stroke="rgb(0%, 0%, 0%)" stroke-opacity="1" stroke-miterlimit="10" d="M -2.072971 2.391441 C -1.695042 0.95443 -0.851292 0.279137 0.00124741 0.000816345 C -0.851292 -0.280434 -1.695042 -0.955727 -2.072971 -2.389809 " transform="matrix(0, 2.666667, 2.666667, 0, 316.142354, 100.727142)"/>
<path fill-rule="nonzero" fill="rgb(0%, 0%, 0%)" fill-opacity="1" d="M 329.234375 68.960938 C 329.109375 68.628906 329.066406 68.546875 328.859375 68.546875 C 328.648438 68.546875 328.566406 68.710938 328.441406 68.921875 L 324.234375 80.046875 C 323.984375 80.628906 323.609375 80.921875 323.109375 80.960938 C 323.023438 80.960938 322.734375 81.003906 322.734375 81.296875 C 322.734375 81.628906 323.023438 81.628906 323.359375 81.628906 L 326.316406 81.628906 C 326.648438 81.628906 326.941406 81.628906 326.941406 81.296875 C 326.941406 81.003906 326.691406 81.003906 326.523438 80.960938 C 326.273438 80.960938 325.816406 80.878906 325.816406 79.753906 C 325.816406 79.171875 325.941406 78.546875 326.066406 77.960938 L 330.148438 77.960938 C 330.816406 79.796875 330.816406 80.085938 330.859375 80.460938 C 330.398438 80.921875 329.898438 80.960938 329.691406 80.960938 C 329.484375 81.003906 329.359375 81.128906 329.359375 81.296875 C 329.359375 81.628906 329.648438 81.628906 329.984375 81.628906 L 334.816406 81.628906 C 335.148438 81.628906 335.484375 81.628906 335.484375 81.296875 C 335.484375 81.046875 335.234375 81.003906 335.066406 80.960938 C 334.648438 80.921875 334.316406 80.585938 333.941406 79.753906 Z M 326.273438 77.335938 C 326.691406 75.671875 327.273438 74.085938 327.898438 72.546875 C 328.484375 73.796875 329.609375 76.460938 329.898438 77.335938 Z M 325.148438 79.378906 L 325.191406 79.421875 L 325.191406 79.585938 C 325.148438 79.628906 325.148438 79.671875 325.148438 79.753906 C 325.148438 79.835938 325.148438 80.546875 325.441406 80.960938 L 324.441406 80.960938 C 324.648438 80.710938 324.734375 80.503906 324.859375 80.210938 Z M 328.191406 71.546875 L 328.859375 69.753906 L 333.359375 80.003906 C 333.441406 80.210938 333.648438 80.628906 333.898438 80.960938 L 331.273438 80.960938 C 331.441406 80.878906 331.523438 80.585938 331.523438 80.378906 C 331.523438 79.253906 329.898438 75.460938 329.109375 73.628906 Z M 328.191406 71.546875 "/>
<path fill-rule="nonzero" fill="rgb(0%, 0%, 0%)" fill-opacity="1" d="M 341.125 75.828125 C 341.125 75.453125 341.082031 75.453125 340.625 75.453125 C 339.707031 76.285156 338.207031 76.285156 337.957031 76.285156 L 337.75 76.285156 L 337.75 76.867188 L 337.957031 76.867188 C 338.25 76.867188 339.125 76.828125 339.914062 76.492188 L 339.914062 83.160156 C 339.914062 83.535156 339.914062 83.703125 338.5 83.703125 L 337.832031 83.703125 L 337.832031 84.285156 C 338.539062 84.242188 339.75 84.242188 340.5 84.242188 C 341.289062 84.242188 342.457031 84.242188 343.207031 84.285156 L 343.207031 83.703125 L 342.539062 83.703125 C 341.125 83.703125 341.125 83.535156 341.125 83.160156 Z M 341.125 75.828125 "/>
<path fill="none" stroke-width="0.39848" stroke-linecap="butt" stroke-linejoin="miter" stroke="rgb(0%, 0%, 0%)" stroke-opacity="1" stroke-miterlimit="10" d="M -24.038895 -17.465313 L 30.750656 -17.465313 " transform="matrix(2.666667, 0, 0, -2.666667, 202.592, 76.613332)"/>
<path fill="none" stroke-width="0.39848" stroke-linecap="round" stroke-linejoin="round" stroke="rgb(0%, 0%, 0%)" stroke-opacity="1" stroke-miterlimit="10" d="M -2.073914 2.393288 C -1.694519 0.954811 -0.850769 0.279518 0.000305176 -0.00173187 C -0.850769 -0.278587 -1.694519 -0.955345 -2.073914 -2.392357 " transform="matrix(2.666667, 0, 0, -2.666667, 285.124186, 123.182882)"/>
<path fill-rule="nonzero" fill="rgb(0%, 0%, 0%)" fill-opacity="1" d="M 193.316406 133.46875 C 194.855469 132.800781 195.523438 132.550781 195.980469 132.300781 C 196.355469 132.175781 196.523438 132.09375 196.523438 131.71875 C 196.523438 131.425781 196.273438 131.136719 195.941406 131.136719 C 195.816406 131.136719 195.773438 131.136719 195.566406 131.300781 L 193.023438 133.011719 L 193.316406 130.261719 C 193.355469 129.925781 193.316406 129.46875 192.730469 129.46875 C 192.523438 129.46875 192.148438 129.59375 192.148438 130.011719 C 192.148438 130.175781 192.230469 130.71875 192.273438 130.925781 C 192.316406 131.21875 192.441406 132.59375 192.480469 133.011719 L 189.941406 131.300781 C 189.773438 131.21875 189.730469 131.136719 189.566406 131.136719 C 189.191406 131.136719 188.980469 131.425781 188.980469 131.71875 C 188.980469 132.09375 189.191406 132.21875 189.355469 132.261719 L 192.148438 133.46875 C 190.648438 134.136719 189.941406 134.386719 189.480469 134.59375 C 189.148438 134.761719 188.980469 134.84375 188.980469 135.175781 C 188.980469 135.511719 189.191406 135.761719 189.566406 135.761719 C 189.691406 135.761719 189.730469 135.761719 189.941406 135.59375 L 192.480469 133.925781 L 192.148438 136.886719 C 192.148438 137.300781 192.523438 137.46875 192.730469 137.46875 C 192.980469 137.46875 193.316406 137.300781 193.316406 136.886719 C 193.316406 136.71875 193.230469 136.175781 193.230469 136.011719 C 193.191406 135.675781 193.066406 134.34375 193.023438 133.925781 L 195.230469 135.386719 C 195.730469 135.761719 195.773438 135.761719 195.941406 135.761719 C 196.273438 135.761719 196.523438 135.511719 196.523438 135.175781 C 196.523438 134.800781 196.273438 134.71875 196.105469 134.636719 Z M 193.316406 133.46875 "/>
<path fill-rule="nonzero" fill="rgb(0%, 0%, 0%)" fill-opacity="1" d="M 204.410156 138.046875 L 201.867188 132.003906 C 201.742188 131.710938 201.742188 131.710938 201.367188 131.710938 L 198.910156 131.710938 C 198.660156 131.710938 198.449219 131.710938 198.449219 131.960938 C 198.449219 132.210938 198.699219 132.210938 198.785156 132.210938 C 198.949219 132.210938 199.285156 132.210938 199.574219 132.335938 L 199.574219 139.421875 C 199.574219 139.710938 199.574219 140.296875 198.660156 140.378906 C 198.410156 140.378906 198.410156 140.585938 198.410156 140.585938 C 198.410156 140.835938 198.660156 140.835938 198.867188 140.835938 L 200.949219 140.835938 C 201.160156 140.835938 201.367188 140.835938 201.367188 140.585938 C 201.367188 140.460938 201.285156 140.378906 201.160156 140.378906 C 200.160156 140.296875 200.160156 139.753906 200.160156 139.421875 L 200.160156 132.796875 L 203.410156 140.546875 C 203.492188 140.796875 203.617188 140.835938 203.660156 140.835938 C 203.824219 140.835938 203.867188 140.710938 203.949219 140.585938 L 207.199219 132.796875 L 207.199219 139.421875 C 207.199219 139.710938 207.199219 140.296875 206.324219 140.378906 C 206.074219 140.378906 206.074219 140.585938 206.074219 140.585938 C 206.074219 140.835938 206.285156 140.835938 206.492188 140.835938 L 210.074219 140.835938 C 210.285156 140.835938 210.492188 140.835938 210.492188 140.585938 C 210.492188 140.460938 210.410156 140.378906 210.285156 140.378906 C 209.242188 140.296875 209.242188 139.753906 209.242188 139.421875 L 209.242188 133.128906 C 209.242188 132.878906 209.242188 132.296875 210.160156 132.210938 C 210.285156 132.171875 210.410156 132.128906 210.410156 131.960938 C 210.410156 131.710938 210.199219 131.710938 209.992188 131.710938 L 207.410156 131.710938 C 207.074219 131.710938 207.035156 131.710938 206.910156 132.003906 Z M 203.992188 138.296875 C 204.117188 138.503906 204.117188 138.503906 204.285156 138.585938 L 203.699219 140.003906 L 203.660156 140.003906 L 200.617188 132.753906 C 200.574219 132.585938 200.449219 132.335938 200.285156 132.210938 L 201.449219 132.210938 Z M 199.992188 140.378906 L 199.742188 140.378906 C 199.785156 140.335938 199.824219 140.296875 199.824219 140.253906 C 199.867188 140.253906 199.867188 140.253906 199.867188 140.210938 Z M 207.660156 132.210938 L 209.074219 132.210938 C 208.785156 132.546875 208.785156 132.878906 208.785156 133.128906 L 208.785156 139.460938 C 208.785156 139.710938 208.785156 140.046875 209.117188 140.378906 L 207.367188 140.378906 C 207.660156 140.046875 207.660156 139.710938 207.660156 139.460938 Z M 207.660156 132.210938 "/>
<path fill-rule="nonzero" fill="rgb(0%, 0%, 0%)" fill-opacity="1" d="M 222.703125 137.027344 C 222.871094 136.945312 222.996094 136.820312 222.996094 136.652344 C 222.996094 136.445312 222.828125 136.277344 222.664062 136.277344 C 222.578125 136.277344 222.496094 136.277344 222.371094 136.359375 L 213.164062 140.527344 C 212.996094 140.609375 212.871094 140.734375 212.871094 140.945312 C 212.871094 141.109375 212.996094 141.234375 213.164062 141.320312 L 222.328125 145.484375 C 222.539062 145.609375 222.621094 145.609375 222.664062 145.609375 C 222.828125 145.609375 222.996094 145.402344 222.996094 145.234375 C 222.996094 145.027344 222.871094 144.902344 222.664062 144.820312 L 214.121094 140.945312 Z M 222.453125 148.734375 C 222.664062 148.734375 222.996094 148.734375 222.996094 148.359375 C 222.996094 147.984375 222.664062 147.984375 222.453125 147.984375 L 213.453125 147.984375 C 213.246094 147.984375 212.871094 147.984375 212.871094 148.359375 C 212.871094 148.734375 213.246094 148.734375 213.453125 148.734375 Z M 222.453125 148.734375 "/>
<path fill-rule="nonzero" fill="rgb(0%, 0%, 0%)" fill-opacity="1" d="M 230.425781 137.359375 C 230.425781 136.984375 230.386719 136.984375 229.925781 136.984375 C 229.011719 137.820312 227.511719 137.820312 227.261719 137.820312 L 227.050781 137.820312 L 227.050781 138.402344 L 227.261719 138.402344 C 227.550781 138.402344 228.425781 138.359375 229.21875 138.027344 L 229.21875 144.695312 C 229.21875 145.070312 229.21875 145.234375 227.800781 145.234375 L 227.136719 145.234375 L 227.136719 145.820312 C 227.84375 145.777344 229.050781 145.777344 229.800781 145.777344 C 230.59375 145.777344 231.761719 145.777344 232.511719 145.820312 L 232.511719 145.234375 L 231.84375 145.234375 C 230.425781 145.234375 230.425781 145.070312 230.425781 144.695312 Z M 230.425781 137.359375 "/>
</svg>
