<?xml version="1.0" encoding="UTF-8"?>
<svg xmlns="http://www.w3.org/2000/svg" xmlns:xlink="http://www.w3.org/1999/xlink" width="372.133341" height="244.400004" viewBox="0 0 372.133341 244.400004">
<defs>
<clipPath id="clip-0">
<path clip-rule="nonzero" d="M 201 0 L 372.136719 0 L 372.136719 244.394531 L 201 244.394531 Z M 201 0 "/>
</clipPath>
<clipPath id="clip-1">
<path clip-rule="nonzero" d="M 231 0 L 372.136719 0 L 372.136719 244.394531 L 231 244.394531 Z M 231 0 "/>
</clipPath>
</defs>
<path fill-rule="nonzero" fill="rgb(0%, 0%, 0%)" fill-opacity="1" d="M 146.082031 15.417969 C 146.289062 14.667969 146.375 14.503906 146.707031 14.417969 C 146.957031 14.378906 147.832031 14.378906 148.375 14.378906 C 151.082031 14.378906 152.25 14.460938 152.25 16.542969 C 152.25 16.960938 152.164062 18.003906 152.039062 18.667969 C 152.039062 18.792969 151.957031 19.085938 151.957031 19.167969 C 151.957031 19.335938 152.039062 19.542969 152.289062 19.542969 C 152.582031 19.542969 152.625 19.335938 152.707031 18.917969 L 153.414062 14.292969 C 153.457031 14.167969 153.457031 13.917969 153.457031 13.835938 C 153.457031 13.542969 153.207031 13.542969 152.75 13.542969 L 138 13.542969 C 137.375 13.542969 137.332031 13.585938 137.125 14.085938 L 135.539062 18.753906 C 135.539062 18.792969 135.375 19.167969 135.375 19.253906 C 135.375 19.378906 135.539062 19.542969 135.707031 19.542969 C 135.957031 19.542969 136 19.378906 136.164062 18.960938 C 137.582031 14.835938 138.289062 14.378906 142.207031 14.378906 L 143.25 14.378906 C 144 14.378906 144 14.460938 144 14.710938 C 144 14.835938 143.914062 15.167969 143.875 15.253906 L 140.332031 29.460938 C 140.082031 30.417969 140 30.710938 137.164062 30.710938 C 136.207031 30.710938 136.039062 30.710938 136.039062 31.210938 C 136.039062 31.542969 136.332031 31.542969 136.5 31.542969 C 137.207031 31.542969 137.957031 31.503906 138.664062 31.503906 C 139.414062 31.503906 140.207031 31.460938 140.957031 31.460938 C 141.707031 31.460938 142.414062 31.503906 143.164062 31.503906 C 143.914062 31.503906 144.707031 31.542969 145.457031 31.542969 C 145.707031 31.542969 146.039062 31.542969 146.039062 31.003906 C 146.039062 30.710938 145.832031 30.710938 145.125 30.710938 C 144.5 30.710938 144.125 30.710938 143.457031 30.667969 C 142.664062 30.585938 142.457031 30.503906 142.457031 30.085938 C 142.457031 30.042969 142.457031 29.917969 142.582031 29.542969 Z M 146.082031 15.417969 "/>
<path fill-rule="nonzero" fill="rgb(0%, 0%, 0%)" fill-opacity="1" d="M 156.316406 23.902344 C 156.316406 23.613281 156.066406 23.195312 155.566406 23.195312 C 155.066406 23.195312 154.523438 23.695312 154.523438 24.238281 C 154.523438 24.527344 154.734375 24.945312 155.273438 24.945312 C 155.773438 24.945312 156.316406 24.402344 156.316406 23.902344 Z M 152.523438 33.363281 C 152.441406 33.613281 152.359375 33.820312 152.359375 34.152344 C 152.359375 35.027344 153.066406 35.695312 154.109375 35.695312 C 155.941406 35.695312 156.773438 33.152344 156.773438 32.863281 C 156.773438 32.613281 156.523438 32.613281 156.484375 32.613281 C 156.234375 32.613281 156.191406 32.738281 156.109375 32.945312 C 155.691406 34.445312 154.898438 35.195312 154.148438 35.195312 C 153.773438 35.195312 153.691406 34.945312 153.691406 34.527344 C 153.691406 34.113281 153.816406 33.777344 153.984375 33.363281 C 154.191406 32.863281 154.398438 32.363281 154.566406 31.863281 C 154.734375 31.402344 155.441406 29.738281 155.484375 29.488281 C 155.566406 29.320312 155.609375 29.113281 155.609375 28.902344 C 155.609375 28.027344 154.859375 27.320312 153.859375 27.320312 C 151.984375 27.320312 151.148438 29.863281 151.148438 30.195312 C 151.148438 30.402344 151.398438 30.402344 151.484375 30.402344 C 151.734375 30.402344 151.734375 30.320312 151.816406 30.113281 C 152.273438 28.527344 153.109375 27.863281 153.773438 27.863281 C 154.066406 27.863281 154.234375 27.988281 154.234375 28.488281 C 154.234375 28.945312 154.148438 29.195312 153.691406 30.363281 Z M 152.523438 33.363281 "/>
<path fill-rule="nonzero" fill="rgb(0%, 0%, 0%)" fill-opacity="1" d="M 265.058594 13.085938 C 265.058594 13.003906 264.976562 12.792969 264.726562 12.792969 C 264.601562 12.792969 264.601562 12.835938 264.269531 13.210938 L 262.976562 14.710938 C 262.308594 13.460938 260.933594 12.792969 259.183594 12.792969 C 255.808594 12.792969 252.644531 15.878906 252.644531 19.085938 C 252.644531 21.210938 254.019531 22.460938 255.394531 22.835938 L 258.226562 23.585938 C 259.226562 23.835938 260.683594 24.253906 260.683594 26.417969 C 260.683594 28.792969 258.519531 31.292969 255.894531 31.292969 C 254.183594 31.292969 251.226562 30.710938 251.226562 27.417969 C 251.226562 26.792969 251.394531 26.128906 251.394531 26.003906 C 251.433594 25.878906 251.433594 25.835938 251.433594 25.792969 C 251.433594 25.542969 251.269531 25.503906 251.144531 25.503906 C 251.019531 25.503906 250.933594 25.542969 250.851562 25.628906 C 250.769531 25.710938 249.269531 31.792969 249.269531 31.878906 C 249.269531 32.003906 249.394531 32.128906 249.558594 32.128906 C 249.683594 32.128906 249.726562 32.085938 250.058594 31.710938 L 251.351562 30.210938 C 252.476562 31.753906 254.308594 32.128906 255.851562 32.128906 C 259.476562 32.128906 262.601562 28.585938 262.601562 25.292969 C 262.601562 23.460938 261.683594 22.542969 261.308594 22.167969 C 260.683594 21.585938 260.269531 21.460938 257.933594 20.878906 C 257.308594 20.710938 256.394531 20.417969 256.144531 20.378906 C 255.433594 20.128906 254.519531 19.378906 254.519531 17.960938 C 254.519531 15.792969 256.644531 13.542969 259.183594 13.542969 C 261.351562 13.542969 262.976562 14.710938 262.976562 17.667969 C 262.976562 18.503906 262.894531 19.003906 262.894531 19.167969 C 262.894531 19.167969 262.894531 19.417969 263.183594 19.417969 C 263.476562 19.417969 263.519531 19.335938 263.601562 18.878906 Z M 265.058594 13.085938 "/>
<path fill-rule="nonzero" fill="rgb(0%, 0%, 0%)" fill-opacity="1" d="M 271.921875 10.066406 C 271.921875 9.566406 271.921875 9.566406 271.382812 9.566406 C 270.171875 10.734375 268.507812 10.734375 267.757812 10.734375 L 267.757812 11.402344 C 268.171875 11.402344 269.421875 11.402344 270.421875 10.902344 L 270.421875 20.359375 C 270.421875 20.984375 270.421875 21.234375 268.589844 21.234375 L 267.882812 21.234375 L 267.882812 21.902344 C 268.214844 21.902344 270.507812 21.816406 271.171875 21.816406 C 271.757812 21.816406 274.089844 21.902344 274.507812 21.902344 L 274.507812 21.234375 L 273.796875 21.234375 C 271.921875 21.234375 271.921875 20.984375 271.921875 20.359375 Z M 271.921875 10.066406 "/>
<path fill-rule="nonzero" fill="rgb(0%, 0%, 0%)" fill-opacity="1" d="M 144.90625 108.316406 C 145.113281 107.566406 145.199219 107.398438 145.53125 107.316406 C 145.78125 107.273438 146.65625 107.273438 147.199219 107.273438 C 149.90625 107.273438 151.074219 107.355469 151.074219 109.441406 C 151.074219 109.855469 150.988281 110.898438 150.863281 111.566406 C 150.863281 111.691406 150.78125 111.980469 150.78125 112.066406 C 150.78125 112.230469 150.863281 112.441406 151.113281 112.441406 C 151.40625 112.441406 151.449219 112.230469 151.53125 111.816406 L 152.238281 107.191406 C 152.28125 107.066406 152.28125 106.816406 152.28125 106.730469 C 152.28125 106.441406 152.03125 106.441406 151.574219 106.441406 L 136.824219 106.441406 C 136.199219 106.441406 136.15625 106.480469 135.949219 106.980469 L 134.363281 111.648438 C 134.363281 111.691406 134.199219 112.066406 134.199219 112.148438 C 134.199219 112.273438 134.363281 112.441406 134.53125 112.441406 C 134.78125 112.441406 134.824219 112.273438 134.988281 111.855469 C 136.40625 107.730469 137.113281 107.273438 141.03125 107.273438 L 142.074219 107.273438 C 142.824219 107.273438 142.824219 107.355469 142.824219 107.605469 C 142.824219 107.730469 142.738281 108.066406 142.699219 108.148438 L 139.15625 122.355469 C 138.90625 123.316406 138.824219 123.605469 135.988281 123.605469 C 135.03125 123.605469 134.863281 123.605469 134.863281 124.105469 C 134.863281 124.441406 135.15625 124.441406 135.324219 124.441406 C 136.03125 124.441406 136.78125 124.398438 137.488281 124.398438 C 138.238281 124.398438 139.03125 124.355469 139.78125 124.355469 C 140.53125 124.355469 141.238281 124.398438 141.988281 124.398438 C 142.738281 124.398438 143.53125 124.441406 144.28125 124.441406 C 144.53125 124.441406 144.863281 124.441406 144.863281 123.898438 C 144.863281 123.605469 144.65625 123.605469 143.949219 123.605469 C 143.324219 123.605469 142.949219 123.605469 142.28125 123.566406 C 141.488281 123.480469 141.28125 123.398438 141.28125 122.980469 C 141.28125 122.941406 141.28125 122.816406 141.40625 122.441406 Z M 144.90625 108.316406 "/>
<path fill-rule="nonzero" fill="rgb(0%, 0%, 0%)" fill-opacity="1" d="M 157.265625 116.800781 C 157.265625 116.507812 157.015625 116.089844 156.515625 116.089844 C 155.972656 116.089844 155.472656 116.632812 155.472656 117.132812 C 155.472656 117.425781 155.683594 117.839844 156.222656 117.839844 C 156.722656 117.839844 157.265625 117.339844 157.265625 116.800781 Z M 153.308594 129.339844 C 153.015625 130.632812 152.015625 131.675781 150.933594 131.675781 C 150.683594 131.675781 150.472656 131.675781 150.265625 131.589844 C 150.722656 131.339844 150.890625 130.925781 150.890625 130.632812 C 150.890625 130.175781 150.515625 129.964844 150.140625 129.964844 C 149.597656 129.964844 149.097656 130.464844 149.097656 131.050781 C 149.097656 131.757812 149.808594 132.214844 150.933594 132.214844 C 152.058594 132.214844 154.222656 131.550781 154.808594 129.300781 L 156.472656 122.632812 C 156.515625 122.425781 156.558594 122.257812 156.558594 121.964844 C 156.558594 120.964844 155.683594 120.214844 154.597656 120.214844 C 152.515625 120.214844 151.347656 122.800781 151.347656 123.089844 C 151.347656 123.300781 151.597656 123.300781 151.640625 123.300781 C 151.847656 123.300781 151.890625 123.257812 152.015625 122.964844 C 152.472656 121.882812 153.433594 120.757812 154.515625 120.757812 C 154.972656 120.757812 155.140625 121.050781 155.140625 121.675781 C 155.140625 121.882812 155.140625 122.132812 155.097656 122.214844 Z M 153.308594 129.339844 "/>
<path fill-rule="nonzero" fill="rgb(0%, 0%, 0%)" fill-opacity="1" d="M 265.058594 105.980469 C 265.058594 105.898438 264.976562 105.691406 264.726562 105.691406 C 264.601562 105.691406 264.601562 105.730469 264.269531 106.105469 L 262.976562 107.605469 C 262.308594 106.355469 260.933594 105.691406 259.183594 105.691406 C 255.808594 105.691406 252.644531 108.773438 252.644531 111.980469 C 252.644531 114.105469 254.019531 115.355469 255.394531 115.730469 L 258.226562 116.480469 C 259.226562 116.730469 260.683594 117.148438 260.683594 119.316406 C 260.683594 121.691406 258.519531 124.191406 255.894531 124.191406 C 254.183594 124.191406 251.226562 123.605469 251.226562 120.316406 C 251.226562 119.691406 251.394531 119.023438 251.394531 118.898438 C 251.433594 118.773438 251.433594 118.730469 251.433594 118.691406 C 251.433594 118.441406 251.269531 118.398438 251.144531 118.398438 C 251.019531 118.398438 250.933594 118.441406 250.851562 118.523438 C 250.769531 118.605469 249.269531 124.691406 249.269531 124.773438 C 249.269531 124.898438 249.394531 125.023438 249.558594 125.023438 C 249.683594 125.023438 249.726562 124.980469 250.058594 124.605469 L 251.351562 123.105469 C 252.476562 124.648438 254.308594 125.023438 255.851562 125.023438 C 259.476562 125.023438 262.601562 121.480469 262.601562 118.191406 C 262.601562 116.355469 261.683594 115.441406 261.308594 115.066406 C 260.683594 114.480469 260.269531 114.355469 257.933594 113.773438 C 257.308594 113.605469 256.394531 113.316406 256.144531 113.273438 C 255.433594 113.023438 254.519531 112.273438 254.519531 110.855469 C 254.519531 108.691406 256.644531 106.441406 259.183594 106.441406 C 261.351562 106.441406 262.976562 107.605469 262.976562 110.566406 C 262.976562 111.398438 262.894531 111.898438 262.894531 112.066406 C 262.894531 112.066406 262.894531 112.316406 263.183594 112.316406 C 263.476562 112.316406 263.519531 112.230469 263.601562 111.773438 Z M 265.058594 105.980469 "/>
<path fill-rule="nonzero" fill="rgb(0%, 0%, 0%)" fill-opacity="1" d="M 271.921875 102.964844 C 271.921875 102.464844 271.921875 102.464844 271.382812 102.464844 C 270.171875 103.632812 268.507812 103.632812 267.757812 103.632812 L 267.757812 104.300781 C 268.171875 104.300781 269.421875 104.300781 270.421875 103.800781 L 270.421875 113.257812 C 270.421875 113.882812 270.421875 114.132812 268.589844 114.132812 L 267.882812 114.132812 L 267.882812 114.800781 C 268.214844 114.800781 270.507812 114.714844 271.171875 114.714844 C 271.757812 114.714844 274.089844 114.800781 274.507812 114.800781 L 274.507812 114.132812 L 273.796875 114.132812 C 271.921875 114.132812 271.921875 113.882812 271.921875 113.257812 Z M 271.921875 102.964844 "/>
<path fill-rule="nonzero" fill="rgb(0%, 0%, 0%)" fill-opacity="1" d="M 143.96875 204.828125 C 144.175781 204.078125 144.257812 203.914062 144.59375 203.828125 C 144.84375 203.789062 145.71875 203.789062 146.257812 203.789062 C 148.96875 203.789062 150.132812 203.871094 150.132812 205.953125 C 150.132812 206.371094 150.050781 207.414062 149.925781 208.078125 C 149.925781 208.203125 149.84375 208.496094 149.84375 208.578125 C 149.84375 208.746094 149.925781 208.953125 150.175781 208.953125 C 150.46875 208.953125 150.507812 208.746094 150.59375 208.328125 L 151.300781 203.703125 C 151.34375 203.578125 151.34375 203.328125 151.34375 203.246094 C 151.34375 202.953125 151.09375 202.953125 150.632812 202.953125 L 135.882812 202.953125 C 135.257812 202.953125 135.21875 202.996094 135.007812 203.496094 L 133.425781 208.164062 C 133.425781 208.203125 133.257812 208.578125 133.257812 208.664062 C 133.257812 208.789062 133.425781 208.953125 133.59375 208.953125 C 133.84375 208.953125 133.882812 208.789062 134.050781 208.371094 C 135.46875 204.246094 136.175781 203.789062 140.09375 203.789062 L 141.132812 203.789062 C 141.882812 203.789062 141.882812 203.871094 141.882812 204.121094 C 141.882812 204.246094 141.800781 204.578125 141.757812 204.664062 L 138.21875 218.871094 C 137.96875 219.828125 137.882812 220.121094 135.050781 220.121094 C 134.09375 220.121094 133.925781 220.121094 133.925781 220.621094 C 133.925781 220.953125 134.21875 220.953125 134.382812 220.953125 C 135.09375 220.953125 135.84375 220.914062 136.550781 220.914062 C 137.300781 220.914062 138.09375 220.871094 138.84375 220.871094 C 139.59375 220.871094 140.300781 220.914062 141.050781 220.914062 C 141.800781 220.914062 142.59375 220.953125 143.34375 220.953125 C 143.59375 220.953125 143.925781 220.953125 143.925781 220.414062 C 143.925781 220.121094 143.71875 220.121094 143.007812 220.121094 C 142.382812 220.121094 142.007812 220.121094 141.34375 220.078125 C 140.550781 219.996094 140.34375 219.914062 140.34375 219.496094 C 140.34375 219.453125 140.34375 219.328125 140.46875 218.953125 Z M 143.96875 204.828125 "/>
<path fill-rule="nonzero" fill="rgb(0%, 0%, 0%)" fill-opacity="1" d="M 153.992188 212.605469 C 153.992188 212.5625 154.035156 212.3125 154.035156 212.3125 C 154.035156 212.1875 153.992188 212.023438 153.742188 212.023438 C 153.367188 212.023438 151.828125 212.1875 151.367188 212.230469 C 151.242188 212.230469 150.953125 212.273438 150.953125 212.648438 C 150.953125 212.898438 151.242188 212.898438 151.453125 212.898438 C 152.328125 212.898438 152.328125 213.0625 152.328125 213.1875 C 152.328125 213.3125 152.285156 213.4375 152.285156 213.605469 L 149.660156 224.105469 C 149.535156 224.4375 149.535156 224.480469 149.535156 224.523438 C 149.535156 224.8125 149.785156 225.105469 150.203125 225.105469 C 150.703125 225.105469 150.910156 224.773438 151.035156 224.355469 C 151.078125 224.273438 151.867188 220.980469 151.953125 220.730469 C 153.285156 220.855469 154.328125 221.3125 154.328125 222.273438 C 154.328125 222.355469 154.328125 222.4375 154.285156 222.648438 C 154.203125 222.898438 154.203125 223.023438 154.203125 223.230469 C 154.203125 224.523438 155.285156 225.105469 156.203125 225.105469 C 157.992188 225.105469 158.535156 222.3125 158.535156 222.273438 C 158.535156 222.023438 158.328125 222.023438 158.242188 222.023438 C 157.992188 222.023438 157.953125 222.148438 157.867188 222.480469 C 157.660156 223.273438 157.160156 224.605469 156.242188 224.605469 C 155.742188 224.605469 155.578125 224.148438 155.578125 223.648438 C 155.578125 223.3125 155.578125 223.273438 155.703125 222.8125 C 155.742188 222.730469 155.785156 222.4375 155.785156 222.230469 C 155.785156 220.5625 153.578125 220.3125 152.785156 220.273438 C 153.328125 219.9375 153.992188 219.3125 154.328125 219.023438 C 155.285156 218.148438 156.203125 217.273438 157.242188 217.273438 C 157.453125 217.273438 157.703125 217.3125 157.867188 217.523438 C 157.078125 217.648438 156.910156 218.273438 156.910156 218.5625 C 156.910156 218.9375 157.203125 219.230469 157.617188 219.230469 C 158.160156 219.230469 158.703125 218.8125 158.703125 218.0625 C 158.703125 217.4375 158.242188 216.730469 157.285156 216.730469 C 156.203125 216.730469 155.242188 217.523438 154.285156 218.398438 C 153.492188 219.105469 152.910156 219.6875 152.117188 220.023438 Z M 153.992188 212.605469 "/>
<path fill-rule="nonzero" fill="rgb(0%, 0%, 0%)" fill-opacity="1" d="M 265.058594 202.496094 C 265.058594 202.414062 264.976562 202.203125 264.726562 202.203125 C 264.601562 202.203125 264.601562 202.246094 264.269531 202.621094 L 262.976562 204.121094 C 262.308594 202.871094 260.933594 202.203125 259.183594 202.203125 C 255.808594 202.203125 252.644531 205.289062 252.644531 208.496094 C 252.644531 210.621094 254.019531 211.871094 255.394531 212.246094 L 258.226562 212.996094 C 259.226562 213.246094 260.683594 213.664062 260.683594 215.828125 C 260.683594 218.203125 258.519531 220.703125 255.894531 220.703125 C 254.183594 220.703125 251.226562 220.121094 251.226562 216.828125 C 251.226562 216.203125 251.394531 215.539062 251.394531 215.414062 C 251.433594 215.289062 251.433594 215.246094 251.433594 215.203125 C 251.433594 214.953125 251.269531 214.914062 251.144531 214.914062 C 251.019531 214.914062 250.933594 214.953125 250.851562 215.039062 C 250.769531 215.121094 249.269531 221.203125 249.269531 221.289062 C 249.269531 221.414062 249.394531 221.539062 249.558594 221.539062 C 249.683594 221.539062 249.726562 221.496094 250.058594 221.121094 L 251.351562 219.621094 C 252.476562 221.164062 254.308594 221.539062 255.851562 221.539062 C 259.476562 221.539062 262.601562 217.996094 262.601562 214.703125 C 262.601562 212.871094 261.683594 211.953125 261.308594 211.578125 C 260.683594 210.996094 260.269531 210.871094 257.933594 210.289062 C 257.308594 210.121094 256.394531 209.828125 256.144531 209.789062 C 255.433594 209.539062 254.519531 208.789062 254.519531 207.371094 C 254.519531 205.203125 256.644531 202.953125 259.183594 202.953125 C 261.351562 202.953125 262.976562 204.121094 262.976562 207.078125 C 262.976562 207.914062 262.894531 208.414062 262.894531 208.578125 C 262.894531 208.578125 262.894531 208.828125 263.183594 208.828125 C 263.476562 208.828125 263.519531 208.746094 263.601562 208.289062 Z M 265.058594 202.496094 "/>
<path fill-rule="nonzero" fill="rgb(0%, 0%, 0%)" fill-opacity="1" d="M 271.921875 199.480469 C 271.921875 198.980469 271.921875 198.980469 271.382812 198.980469 C 270.171875 200.144531 268.507812 200.144531 267.757812 200.144531 L 267.757812 200.8125 C 268.171875 200.8125 269.421875 200.8125 270.421875 200.3125 L 270.421875 209.769531 C 270.421875 210.394531 270.421875 210.644531 268.589844 210.644531 L 267.882812 210.644531 L 267.882812 211.3125 C 268.214844 211.3125 270.507812 211.230469 271.171875 211.230469 C 271.757812 211.230469 274.089844 211.3125 274.507812 211.3125 L 274.507812 210.644531 L 273.796875 210.644531 C 271.921875 210.644531 271.921875 210.394531 271.921875 209.769531 Z M 271.921875 199.480469 "/>
<path fill="none" stroke-width="2.33075" stroke-linecap="butt" stroke-linejoin="miter" stroke="rgb(0%, 0%, 0%)" stroke-opacity="1" stroke-miterlimit="10" d="M -12.764847 34.699551 L 11.539841 34.699551 " transform="matrix(2.666667, 0, 0, -2.666667, 205.133341, 117.426666)"/>
<path fill="none" stroke-width="1.53377" stroke-linecap="butt" stroke-linejoin="miter" stroke="rgb(100%, 100%, 100%)" stroke-opacity="1" stroke-miterlimit="10" d="M -12.764847 34.699551 L 11.539841 34.699551 " transform="matrix(2.666667, 0, 0, -2.666667, 205.133341, 117.426666)"/>
<path fill-rule="nonzero" fill="rgb(0%, 0%, 0%)" fill-opacity="1" d="M 198.546875 7.183594 C 198.546875 6.644531 198.085938 6.101562 197.460938 6.101562 C 196.921875 6.101562 196.421875 6.558594 196.421875 7.183594 C 196.421875 7.851562 196.960938 8.269531 197.460938 8.269531 C 198.085938 8.269531 198.546875 7.808594 198.546875 7.183594 Z M 195.710938 10.644531 L 195.710938 11.308594 C 196.878906 11.308594 197.046875 11.433594 197.046875 12.351562 L 197.046875 17.183594 C 197.046875 17.976562 196.878906 17.976562 195.671875 17.976562 L 195.671875 18.644531 C 195.710938 18.644531 197.003906 18.558594 197.753906 18.558594 C 198.421875 18.558594 199.085938 18.601562 199.710938 18.644531 L 199.710938 17.976562 C 198.628906 17.976562 198.460938 17.976562 198.460938 17.183594 L 198.460938 10.433594 Z M 195.710938 10.644531 "/>
<path fill-rule="nonzero" fill="rgb(0%, 0%, 0%)" fill-opacity="1" d="M 207.261719 5.933594 L 207.261719 6.601562 C 208.511719 6.601562 208.636719 6.769531 208.636719 7.644531 L 208.636719 11.519531 C 207.96875 10.851562 207.054688 10.433594 206.054688 10.433594 C 203.554688 10.433594 201.511719 12.308594 201.511719 14.644531 C 201.511719 16.976562 203.46875 18.808594 205.804688 18.808594 C 207.34375 18.808594 208.261719 18.019531 208.554688 17.683594 L 208.554688 18.808594 L 211.429688 18.644531 L 211.429688 17.976562 C 210.179688 17.976562 210.054688 17.851562 210.054688 16.933594 L 210.054688 5.726562 Z M 208.554688 16.683594 C 208.09375 17.558594 207.136719 18.308594 205.929688 18.308594 C 204.886719 18.308594 204.136719 17.683594 203.761719 17.144531 C 203.386719 16.601562 203.179688 15.851562 203.179688 14.683594 C 203.179688 14.226562 203.179688 12.851562 203.929688 11.976562 C 204.679688 11.144531 205.59375 10.976562 206.136719 10.976562 C 207.011719 10.976562 207.84375 11.394531 208.34375 12.058594 C 208.554688 12.351562 208.554688 12.351562 208.554688 12.726562 Z M 208.554688 16.683594 "/>
<path fill="none" stroke-width="0.39848" stroke-linecap="butt" stroke-linejoin="miter" stroke="rgb(0%, 0%, 0%)" stroke-opacity="1" stroke-miterlimit="10" d="M -21.827835 26.862637 L -21.827835 8.426113 " transform="matrix(2.666667, 0, 0, -2.666667, 205.133341, 117.426666)"/>
<path fill="none" stroke-width="0.39848" stroke-linecap="round" stroke-linejoin="round" stroke="rgb(0%, 0%, 0%)" stroke-opacity="1" stroke-miterlimit="10" d="M -2.074512 2.392788 C -1.695118 0.955776 -0.851368 0.279018 -0.000293732 -0.0022316 C -0.851368 -0.279087 -1.695118 -0.95438 -2.074512 -2.392857 " transform="matrix(0, 2.666667, 2.666667, 0, 146.931732, 95.489065)"/>
<path fill-rule="nonzero" fill="rgb(0%, 0%, 0%)" fill-opacity="1" d="M 120.15625 63.390625 C 120.28125 62.847656 120.324219 62.808594 120.738281 62.765625 C 120.824219 62.765625 121.449219 62.765625 121.824219 62.765625 C 122.988281 62.765625 123.449219 62.765625 123.90625 62.890625 C 124.738281 63.140625 124.78125 63.683594 124.78125 64.347656 C 124.78125 64.640625 124.78125 64.890625 124.65625 65.847656 L 124.613281 66.058594 C 124.613281 66.265625 124.738281 66.347656 124.949219 66.347656 C 125.238281 66.347656 125.238281 66.183594 125.28125 65.890625 L 125.78125 62.347656 C 125.78125 62.097656 125.574219 62.097656 125.238281 62.097656 L 113.824219 62.097656 C 113.363281 62.097656 113.324219 62.097656 113.199219 62.472656 L 111.988281 65.765625 C 111.988281 65.847656 111.90625 66.015625 111.90625 66.097656 C 111.90625 66.183594 111.949219 66.347656 112.238281 66.347656 C 112.488281 66.347656 112.488281 66.265625 112.613281 65.890625 C 113.699219 62.933594 114.324219 62.765625 117.15625 62.765625 L 117.90625 62.765625 C 118.488281 62.765625 118.488281 62.765625 118.488281 62.933594 C 118.488281 62.933594 118.488281 63.058594 118.40625 63.308594 L 115.949219 73.097656 C 115.78125 73.765625 115.738281 73.972656 113.78125 73.972656 C 113.113281 73.972656 112.949219 73.972656 112.949219 74.390625 C 112.949219 74.433594 112.988281 74.640625 113.28125 74.640625 C 113.78125 74.640625 114.363281 74.597656 114.863281 74.597656 C 115.40625 74.597656 115.949219 74.558594 116.449219 74.558594 C 116.988281 74.558594 117.613281 74.558594 118.15625 74.597656 C 118.65625 74.597656 119.199219 74.640625 119.699219 74.640625 C 119.863281 74.640625 120.113281 74.640625 120.113281 74.222656 C 120.113281 73.972656 119.949219 73.972656 119.363281 73.972656 C 119.03125 73.972656 118.65625 73.933594 118.28125 73.933594 C 117.65625 73.890625 117.613281 73.808594 117.613281 73.597656 C 117.613281 73.433594 117.613281 73.433594 117.699219 73.140625 Z M 120.15625 63.390625 "/>
<path fill-rule="nonzero" fill="rgb(0%, 0%, 0%)" fill-opacity="1" d="M 130.457031 69.003906 C 130.457031 68.710938 130.207031 68.421875 129.871094 68.421875 C 129.457031 68.421875 129.039062 68.835938 129.039062 69.210938 C 129.039062 69.546875 129.289062 69.796875 129.621094 69.796875 C 130.082031 69.796875 130.457031 69.378906 130.457031 69.003906 Z M 127.539062 77.878906 C 127.289062 78.921875 126.457031 79.585938 125.664062 79.585938 C 125.414062 79.585938 125.289062 79.546875 125.164062 79.503906 C 125.496094 79.296875 125.582031 78.960938 125.582031 78.796875 C 125.582031 78.585938 125.414062 78.253906 124.996094 78.253906 C 124.539062 78.253906 124.164062 78.671875 124.164062 79.085938 C 124.164062 79.671875 124.746094 80.003906 125.664062 80.003906 C 126.582031 80.003906 128.289062 79.546875 128.707031 77.921875 L 129.914062 73.128906 C 129.914062 73.003906 129.957031 72.878906 129.957031 72.710938 C 129.957031 71.960938 129.246094 71.421875 128.332031 71.421875 C 126.707031 71.421875 125.746094 73.210938 125.746094 73.460938 C 125.746094 73.671875 125.957031 73.671875 125.996094 73.671875 C 126.207031 73.671875 126.246094 73.628906 126.289062 73.460938 C 126.914062 72.171875 127.832031 71.878906 128.289062 71.878906 C 128.789062 71.878906 128.832031 72.335938 128.832031 72.585938 C 128.832031 72.753906 128.832031 72.796875 128.789062 72.921875 Z M 127.539062 77.878906 "/>
<path fill-rule="nonzero" fill="rgb(0%, 0%, 0%)" fill-opacity="1" d="M 137.496094 69.003906 C 137.496094 68.671875 137.285156 68.421875 136.910156 68.421875 C 136.535156 68.421875 136.121094 68.796875 136.121094 69.210938 C 136.121094 69.585938 136.410156 69.796875 136.703125 69.796875 C 137.121094 69.796875 137.496094 69.421875 137.496094 69.003906 Z M 138.121094 75.378906 C 138.121094 75.210938 137.910156 75.210938 137.871094 75.210938 C 137.621094 75.210938 137.621094 75.253906 137.535156 75.503906 C 137.328125 76.210938 136.703125 77.003906 136.035156 77.003906 C 135.746094 77.003906 135.660156 76.796875 135.660156 76.503906 C 135.660156 76.210938 135.703125 76.046875 135.828125 75.796875 C 135.910156 75.546875 136.035156 75.296875 136.121094 75.085938 C 136.160156 74.960938 136.660156 73.753906 136.871094 73.253906 C 136.953125 73.003906 137.035156 72.796875 137.035156 72.585938 C 137.035156 71.960938 136.410156 71.421875 135.578125 71.421875 C 134.203125 71.421875 133.453125 73.128906 133.453125 73.460938 C 133.453125 73.671875 133.660156 73.671875 133.746094 73.671875 C 133.953125 73.671875 133.953125 73.585938 134.035156 73.421875 C 134.328125 72.460938 134.953125 71.878906 135.535156 71.878906 C 135.785156 71.878906 135.953125 72.003906 135.953125 72.378906 C 135.953125 72.421875 135.953125 72.585938 135.871094 72.835938 C 135.785156 73.085938 135.160156 74.503906 134.996094 74.960938 C 134.871094 75.210938 134.871094 75.210938 134.703125 75.671875 C 134.621094 75.878906 134.535156 76.046875 134.535156 76.253906 C 134.535156 76.960938 135.203125 77.460938 135.996094 77.460938 C 137.371094 77.460938 138.121094 75.710938 138.121094 75.378906 Z M 138.121094 75.378906 "/>
<path fill="none" stroke-width="0.39848" stroke-linecap="butt" stroke-linejoin="miter" stroke="rgb(0%, 0%, 0%)" stroke-opacity="1" stroke-miterlimit="10" d="M -30.889359 29.046719 C -61.674515 9.835293 -61.674515 -11.472324 -32.018753 -29.973301 " transform="matrix(2.666667, 0, 0, -2.666667, 205.133341, 117.426666)"/>
<path fill="none" stroke-width="0.39848" stroke-linecap="round" stroke-linejoin="round" stroke="rgb(0%, 0%, 0%)" stroke-opacity="1" stroke-miterlimit="10" d="M -2.073325 2.392337 C -1.694351 0.957431 -0.850342 0.277111 -0.00104274 0.000662376 C -0.848457 -0.279403 -1.692462 -0.957911 -2.072325 -2.391436 " transform="matrix(2.2624, 1.411493, 1.411493, -2.2624, 120.200643, 197.639689)"/>
<path fill-rule="nonzero" fill="rgb(0%, 0%, 0%)" fill-opacity="1" d="M 32.457031 113.132812 C 32.582031 112.59375 32.625 112.550781 33.039062 112.507812 C 33.125 112.507812 33.75 112.507812 34.125 112.507812 C 35.289062 112.507812 35.75 112.507812 36.207031 112.632812 C 37.039062 112.882812 37.082031 113.425781 37.082031 114.09375 C 37.082031 114.382812 37.082031 114.632812 36.957031 115.59375 L 36.914062 115.800781 C 36.914062 116.007812 37.039062 116.09375 37.25 116.09375 C 37.539062 116.09375 37.539062 115.925781 37.582031 115.632812 L 38.082031 112.09375 C 38.082031 111.84375 37.875 111.84375 37.539062 111.84375 L 26.125 111.84375 C 25.664062 111.84375 25.625 111.84375 25.5 112.21875 L 24.289062 115.507812 C 24.289062 115.59375 24.207031 115.757812 24.207031 115.84375 C 24.207031 115.925781 24.25 116.09375 24.539062 116.09375 C 24.789062 116.09375 24.789062 116.007812 24.914062 115.632812 C 26 112.675781 26.625 112.507812 29.457031 112.507812 L 30.207031 112.507812 C 30.789062 112.507812 30.789062 112.507812 30.789062 112.675781 C 30.789062 112.675781 30.789062 112.800781 30.707031 113.050781 L 28.25 122.84375 C 28.082031 123.507812 28.039062 123.71875 26.082031 123.71875 C 25.414062 123.71875 25.25 123.71875 25.25 124.132812 C 25.25 124.175781 25.289062 124.382812 25.582031 124.382812 C 26.082031 124.382812 26.664062 124.34375 27.164062 124.34375 C 27.707031 124.34375 28.25 124.300781 28.75 124.300781 C 29.289062 124.300781 29.914062 124.300781 30.457031 124.34375 C 30.957031 124.34375 31.5 124.382812 32 124.382812 C 32.164062 124.382812 32.414062 124.382812 32.414062 123.96875 C 32.414062 123.71875 32.25 123.71875 31.664062 123.71875 C 31.332031 123.71875 30.957031 123.675781 30.582031 123.675781 C 29.957031 123.632812 29.914062 123.550781 29.914062 123.34375 C 29.914062 123.175781 29.914062 123.175781 30 122.882812 Z M 32.457031 113.132812 "/>
<path fill-rule="nonzero" fill="rgb(0%, 0%, 0%)" fill-opacity="1" d="M 40.839844 118.496094 C 40.921875 118.285156 40.921875 118.285156 40.921875 118.203125 C 40.921875 117.996094 40.714844 117.996094 40.507812 117.996094 L 38.882812 118.121094 C 38.632812 118.121094 38.589844 118.121094 38.546875 118.203125 C 38.507812 118.246094 38.464844 118.410156 38.464844 118.496094 C 38.464844 118.703125 38.671875 118.703125 38.839844 118.703125 C 38.882812 118.703125 39.089844 118.703125 39.296875 118.746094 C 39.546875 118.785156 39.546875 118.828125 39.546875 118.910156 C 39.546875 118.953125 39.546875 118.996094 39.507812 119.246094 L 37.671875 126.578125 C 37.632812 126.746094 37.632812 126.785156 37.632812 126.871094 C 37.632812 127.160156 37.839844 127.371094 38.132812 127.371094 C 38.632812 127.371094 38.757812 126.871094 38.796875 126.660156 L 39.421875 124.246094 C 39.757812 124.246094 41.421875 124.328125 41.421875 125.285156 C 41.421875 125.371094 41.421875 125.410156 41.382812 125.578125 C 41.339844 125.785156 41.339844 125.828125 41.339844 125.910156 C 41.339844 126.871094 42.171875 127.371094 42.964844 127.371094 C 44.296875 127.371094 44.839844 125.453125 44.839844 125.285156 C 44.839844 125.121094 44.632812 125.121094 44.546875 125.121094 C 44.339844 125.121094 44.296875 125.160156 44.257812 125.410156 C 44.132812 125.871094 43.714844 126.910156 43.007812 126.910156 C 42.507812 126.910156 42.464844 126.410156 42.464844 126.121094 C 42.464844 126.121094 42.464844 125.910156 42.507812 125.703125 C 42.546875 125.496094 42.589844 125.328125 42.589844 125.246094 C 42.589844 124.078125 41.089844 123.871094 40.214844 123.785156 C 40.589844 123.578125 41.171875 123.121094 41.382812 122.953125 C 42.132812 122.371094 42.882812 121.785156 43.632812 121.785156 C 43.921875 121.785156 44.007812 121.871094 44.089844 121.953125 C 44.089844 121.953125 44.007812 121.996094 43.964844 121.996094 C 43.382812 122.203125 43.382812 122.746094 43.382812 122.785156 C 43.382812 122.996094 43.546875 123.328125 43.964844 123.328125 C 44.214844 123.328125 44.796875 123.121094 44.796875 122.371094 C 44.796875 121.746094 44.296875 121.328125 43.632812 121.328125 C 42.757812 121.328125 41.964844 121.953125 41.007812 122.703125 C 40.546875 123.078125 40.089844 123.410156 39.546875 123.660156 Z M 40.839844 118.496094 "/>
<path fill-rule="nonzero" fill="rgb(0%, 0%, 0%)" fill-opacity="1" d="M 51.496094 118.910156 C 51.496094 118.578125 51.289062 118.328125 50.914062 118.328125 C 50.539062 118.328125 50.121094 118.703125 50.121094 119.121094 C 50.121094 119.496094 50.414062 119.703125 50.703125 119.703125 C 51.121094 119.703125 51.496094 119.328125 51.496094 118.910156 Z M 52.121094 125.285156 C 52.121094 125.121094 51.914062 125.121094 51.871094 125.121094 C 51.621094 125.121094 51.621094 125.160156 51.539062 125.410156 C 51.328125 126.121094 50.703125 126.910156 50.039062 126.910156 C 49.746094 126.910156 49.664062 126.703125 49.664062 126.410156 C 49.664062 126.121094 49.703125 125.953125 49.828125 125.703125 C 49.914062 125.453125 50.039062 125.203125 50.121094 124.996094 C 50.164062 124.871094 50.664062 123.660156 50.871094 123.160156 C 50.953125 122.910156 51.039062 122.703125 51.039062 122.496094 C 51.039062 121.871094 50.414062 121.328125 49.578125 121.328125 C 48.203125 121.328125 47.453125 123.035156 47.453125 123.371094 C 47.453125 123.578125 47.664062 123.578125 47.746094 123.578125 C 47.953125 123.578125 47.953125 123.496094 48.039062 123.328125 C 48.328125 122.371094 48.953125 121.785156 49.539062 121.785156 C 49.789062 121.785156 49.953125 121.910156 49.953125 122.285156 C 49.953125 122.328125 49.953125 122.496094 49.871094 122.746094 C 49.789062 122.996094 49.164062 124.410156 48.996094 124.871094 C 48.871094 125.121094 48.871094 125.121094 48.703125 125.578125 C 48.621094 125.785156 48.539062 125.953125 48.539062 126.160156 C 48.539062 126.871094 49.203125 127.371094 49.996094 127.371094 C 51.371094 127.371094 52.121094 125.621094 52.121094 125.285156 Z M 52.121094 125.285156 "/>
<path fill="none" stroke-width="2.33075" stroke-linecap="butt" stroke-linejoin="miter" stroke="rgb(0%, 0%, 0%)" stroke-opacity="1" stroke-miterlimit="10" d="M 21.610641 28.359707 L 21.610641 9.328457 " transform="matrix(2.666667, 0, 0, -2.666667, 205.133341, 117.426666)"/>
<path fill="none" stroke-width="1.53377" stroke-linecap="butt" stroke-linejoin="miter" stroke="rgb(100%, 100%, 100%)" stroke-opacity="1" stroke-miterlimit="10" d="M 21.610641 28.359707 L 21.610641 9.328457 " transform="matrix(2.666667, 0, 0, -2.666667, 205.133341, 117.426666)"/>
<g clip-path="url(#clip-0)">
<path fill="none" stroke-width="2.33075" stroke-linecap="butt" stroke-linejoin="miter" stroke="rgb(0%, 0%, 0%)" stroke-opacity="1" stroke-miterlimit="10" d="M 31.679977 28.418301 C 61.461716 9.835293 61.461716 -11.472324 31.679977 -30.050938 " transform="matrix(2.666667, 0, 0, -2.666667, 205.133341, 117.426666)"/>
</g>
<g clip-path="url(#clip-1)">
<path fill="none" stroke-width="1.53377" stroke-linecap="butt" stroke-linejoin="miter" stroke="rgb(100%, 100%, 100%)" stroke-opacity="1" stroke-miterlimit="10" d="M 31.679977 28.418301 C 61.461716 9.835293 61.461716 -11.472324 31.679977 -30.050938 " transform="matrix(2.666667, 0, 0, -2.666667, 205.133341, 117.426666)"/>
</g>
<path fill="none" stroke-width="0.39848" stroke-linecap="butt" stroke-linejoin="miter" stroke="rgb(0%, 0%, 0%)" stroke-opacity="1" stroke-miterlimit="10" d="M -12.323929 -0.140293 L 11.141403 -0.140293 " transform="matrix(2.666667, 0, 0, -2.666667, 205.133341, 117.426666)"/>
<path fill="none" stroke-width="0.39848" stroke-linecap="round" stroke-linejoin="round" stroke="rgb(0%, 0%, 0%)" stroke-opacity="1" stroke-miterlimit="10" d="M -2.071548 2.392193 C -1.693619 0.955181 -0.849869 0.279888 -0.00172424 -0.00136185 C -0.849869 -0.279682 -1.693619 -0.954975 -2.071548 -2.391987 " transform="matrix(2.666667, 0, 0, -2.666667, 235.379598, 117.79715)"/>
<path fill-rule="nonzero" fill="rgb(0%, 0%, 0%)" fill-opacity="1" d="M 198.355469 125.511719 C 198.480469 124.972656 198.519531 124.929688 198.9375 124.886719 C 199.019531 124.886719 199.644531 124.886719 200.019531 124.886719 C 201.1875 124.886719 201.644531 124.886719 202.105469 125.011719 C 202.9375 125.261719 202.980469 125.804688 202.980469 126.472656 C 202.980469 126.761719 202.980469 127.011719 202.855469 127.972656 L 202.8125 128.179688 C 202.8125 128.386719 202.9375 128.472656 203.144531 128.472656 C 203.4375 128.472656 203.4375 128.304688 203.480469 128.011719 L 203.980469 124.472656 C 203.980469 124.222656 203.769531 124.222656 203.4375 124.222656 L 192.019531 124.222656 C 191.5625 124.222656 191.519531 124.222656 191.394531 124.597656 L 190.1875 127.886719 C 190.1875 127.972656 190.105469 128.136719 190.105469 128.222656 C 190.105469 128.304688 190.144531 128.472656 190.4375 128.472656 C 190.6875 128.472656 190.6875 128.386719 190.8125 128.011719 C 191.894531 125.054688 192.519531 124.886719 195.355469 124.886719 L 196.105469 124.886719 C 196.6875 124.886719 196.6875 124.886719 196.6875 125.054688 C 196.6875 125.054688 196.6875 125.179688 196.605469 125.429688 L 194.144531 135.222656 C 193.980469 135.886719 193.9375 136.097656 191.980469 136.097656 C 191.3125 136.097656 191.144531 136.097656 191.144531 136.511719 C 191.144531 136.554688 191.1875 136.761719 191.480469 136.761719 C 191.980469 136.761719 192.5625 136.722656 193.0625 136.722656 C 193.605469 136.722656 194.144531 136.679688 194.644531 136.679688 C 195.1875 136.679688 195.8125 136.679688 196.355469 136.722656 C 196.855469 136.722656 197.394531 136.761719 197.894531 136.761719 C 198.0625 136.761719 198.3125 136.761719 198.3125 136.347656 C 198.3125 136.097656 198.144531 136.097656 197.5625 136.097656 C 197.230469 136.097656 196.855469 136.054688 196.480469 136.054688 C 195.855469 136.011719 195.8125 135.929688 195.8125 135.722656 C 195.8125 135.554688 195.8125 135.554688 195.894531 135.261719 Z M 198.355469 125.511719 "/>
<path fill-rule="nonzero" fill="rgb(0%, 0%, 0%)" fill-opacity="1" d="M 207.113281 131.128906 C 207.113281 130.792969 206.902344 130.542969 206.527344 130.542969 C 206.152344 130.542969 205.738281 130.917969 205.738281 131.335938 C 205.738281 131.710938 206.027344 131.917969 206.320312 131.917969 C 206.738281 131.917969 207.113281 131.542969 207.113281 131.128906 Z M 207.738281 137.503906 C 207.738281 137.335938 207.527344 137.335938 207.488281 137.335938 C 207.238281 137.335938 207.238281 137.378906 207.152344 137.628906 C 206.945312 138.335938 206.320312 139.128906 205.652344 139.128906 C 205.363281 139.128906 205.277344 138.917969 205.277344 138.628906 C 205.277344 138.335938 205.320312 138.167969 205.445312 137.917969 C 205.527344 137.667969 205.652344 137.417969 205.738281 137.210938 C 205.777344 137.085938 206.277344 135.878906 206.488281 135.378906 C 206.570312 135.128906 206.652344 134.917969 206.652344 134.710938 C 206.652344 134.085938 206.027344 133.542969 205.195312 133.542969 C 203.820312 133.542969 203.070312 135.253906 203.070312 135.585938 C 203.070312 135.792969 203.277344 135.792969 203.363281 135.792969 C 203.570312 135.792969 203.570312 135.710938 203.652344 135.542969 C 203.945312 134.585938 204.570312 134.003906 205.152344 134.003906 C 205.402344 134.003906 205.570312 134.128906 205.570312 134.503906 C 205.570312 134.542969 205.570312 134.710938 205.488281 134.960938 C 205.402344 135.210938 204.777344 136.628906 204.613281 137.085938 C 204.488281 137.335938 204.488281 137.335938 204.320312 137.792969 C 204.238281 138.003906 204.152344 138.167969 204.152344 138.378906 C 204.152344 139.085938 204.820312 139.585938 205.613281 139.585938 C 206.988281 139.585938 207.738281 137.835938 207.738281 137.503906 Z M 207.738281 137.503906 "/>
<path fill-rule="nonzero" fill="rgb(0%, 0%, 0%)" fill-opacity="1" d="M 215.734375 131.128906 C 215.734375 130.835938 215.484375 130.542969 215.148438 130.542969 C 214.734375 130.542969 214.316406 130.960938 214.316406 131.335938 C 214.316406 131.667969 214.566406 131.917969 214.898438 131.917969 C 215.359375 131.917969 215.734375 131.503906 215.734375 131.128906 Z M 212.816406 140.003906 C 212.566406 141.042969 211.734375 141.710938 210.941406 141.710938 C 210.691406 141.710938 210.566406 141.667969 210.441406 141.628906 C 210.773438 141.417969 210.859375 141.085938 210.859375 140.917969 C 210.859375 140.710938 210.691406 140.378906 210.273438 140.378906 C 209.816406 140.378906 209.441406 140.792969 209.441406 141.210938 C 209.441406 141.792969 210.023438 142.128906 210.941406 142.128906 C 211.859375 142.128906 213.566406 141.667969 213.984375 140.042969 L 215.191406 135.253906 C 215.191406 135.128906 215.234375 135.003906 215.234375 134.835938 C 215.234375 134.085938 214.523438 133.542969 213.609375 133.542969 C 211.984375 133.542969 211.023438 135.335938 211.023438 135.585938 C 211.023438 135.792969 211.234375 135.792969 211.273438 135.792969 C 211.484375 135.792969 211.523438 135.753906 211.566406 135.585938 C 212.191406 134.292969 213.109375 134.003906 213.566406 134.003906 C 214.066406 134.003906 214.109375 134.460938 214.109375 134.710938 C 214.109375 134.878906 214.109375 134.917969 214.066406 135.042969 Z M 212.816406 140.003906 "/>
<path fill="none" stroke-width="0.39848" stroke-linecap="butt" stroke-linejoin="miter" stroke="rgb(0%, 0%, 0%)" stroke-opacity="1" stroke-miterlimit="10" d="M -21.827835 -9.327793 L -21.827835 -27.765781 " transform="matrix(2.666667, 0, 0, -2.666667, 205.133341, 117.426666)"/>
<path fill="none" stroke-width="0.39848" stroke-linecap="round" stroke-linejoin="round" stroke="rgb(0%, 0%, 0%)" stroke-opacity="1" stroke-miterlimit="10" d="M -2.071121 2.392788 C -1.693192 0.955776 -0.849442 0.279018 -0.001297 -0.0022316 C -0.849442 -0.279087 -1.693192 -0.95438 -2.071121 -2.392857 " transform="matrix(0, 2.666667, 2.666667, 0, 146.931732, 192.003459)"/>
<path fill-rule="nonzero" fill="rgb(0%, 0%, 0%)" fill-opacity="1" d="M 116.957031 159.820312 C 117.082031 159.28125 117.121094 159.238281 117.539062 159.195312 C 117.621094 159.195312 118.246094 159.195312 118.621094 159.195312 C 119.789062 159.195312 120.246094 159.195312 120.707031 159.320312 C 121.539062 159.570312 121.582031 160.113281 121.582031 160.78125 C 121.582031 161.070312 121.582031 161.320312 121.457031 162.28125 L 121.414062 162.488281 C 121.414062 162.695312 121.539062 162.78125 121.746094 162.78125 C 122.039062 162.78125 122.039062 162.613281 122.082031 162.320312 L 122.582031 158.78125 C 122.582031 158.53125 122.371094 158.53125 122.039062 158.53125 L 110.621094 158.53125 C 110.164062 158.53125 110.121094 158.53125 109.996094 158.90625 L 108.789062 162.195312 C 108.789062 162.28125 108.707031 162.445312 108.707031 162.53125 C 108.707031 162.613281 108.746094 162.78125 109.039062 162.78125 C 109.289062 162.78125 109.289062 162.695312 109.414062 162.320312 C 110.496094 159.363281 111.121094 159.195312 113.957031 159.195312 L 114.707031 159.195312 C 115.289062 159.195312 115.289062 159.195312 115.289062 159.363281 C 115.289062 159.363281 115.289062 159.488281 115.207031 159.738281 L 112.746094 169.53125 C 112.582031 170.195312 112.539062 170.40625 110.582031 170.40625 C 109.914062 170.40625 109.746094 170.40625 109.746094 170.820312 C 109.746094 170.863281 109.789062 171.070312 110.082031 171.070312 C 110.582031 171.070312 111.164062 171.03125 111.664062 171.03125 C 112.207031 171.03125 112.746094 170.988281 113.246094 170.988281 C 113.789062 170.988281 114.414062 170.988281 114.957031 171.03125 C 115.457031 171.03125 115.996094 171.070312 116.496094 171.070312 C 116.664062 171.070312 116.914062 171.070312 116.914062 170.65625 C 116.914062 170.40625 116.746094 170.40625 116.164062 170.40625 C 115.832031 170.40625 115.457031 170.363281 115.082031 170.363281 C 114.457031 170.320312 114.414062 170.238281 114.414062 170.03125 C 114.414062 169.863281 114.414062 169.863281 114.496094 169.570312 Z M 116.957031 159.820312 "/>
<path fill-rule="nonzero" fill="rgb(0%, 0%, 0%)" fill-opacity="1" d="M 125.339844 165.183594 C 125.421875 164.972656 125.421875 164.972656 125.421875 164.890625 C 125.421875 164.683594 125.214844 164.683594 125.003906 164.683594 L 123.378906 164.808594 C 123.128906 164.808594 123.089844 164.808594 123.046875 164.890625 C 123.003906 164.933594 122.964844 165.097656 122.964844 165.183594 C 122.964844 165.390625 123.171875 165.390625 123.339844 165.390625 C 123.378906 165.390625 123.589844 165.390625 123.796875 165.433594 C 124.046875 165.472656 124.046875 165.515625 124.046875 165.597656 C 124.046875 165.640625 124.046875 165.683594 124.003906 165.933594 L 122.171875 173.265625 C 122.128906 173.433594 122.128906 173.472656 122.128906 173.558594 C 122.128906 173.847656 122.339844 174.058594 122.628906 174.058594 C 123.128906 174.058594 123.253906 173.558594 123.296875 173.347656 L 123.921875 170.933594 C 124.253906 170.933594 125.921875 171.015625 125.921875 171.972656 C 125.921875 172.058594 125.921875 172.097656 125.878906 172.265625 C 125.839844 172.472656 125.839844 172.515625 125.839844 172.597656 C 125.839844 173.558594 126.671875 174.058594 127.464844 174.058594 C 128.796875 174.058594 129.339844 172.140625 129.339844 171.972656 C 129.339844 171.808594 129.128906 171.808594 129.046875 171.808594 C 128.839844 171.808594 128.796875 171.847656 128.753906 172.097656 C 128.628906 172.558594 128.214844 173.597656 127.503906 173.597656 C 127.003906 173.597656 126.964844 173.097656 126.964844 172.808594 C 126.964844 172.808594 126.964844 172.597656 127.003906 172.390625 C 127.046875 172.183594 127.089844 172.015625 127.089844 171.933594 C 127.089844 170.765625 125.589844 170.558594 124.714844 170.472656 C 125.089844 170.265625 125.671875 169.808594 125.878906 169.640625 C 126.628906 169.058594 127.378906 168.472656 128.128906 168.472656 C 128.421875 168.472656 128.503906 168.558594 128.589844 168.640625 C 128.589844 168.640625 128.503906 168.683594 128.464844 168.683594 C 127.878906 168.890625 127.878906 169.433594 127.878906 169.472656 C 127.878906 169.683594 128.046875 170.015625 128.464844 170.015625 C 128.714844 170.015625 129.296875 169.808594 129.296875 169.058594 C 129.296875 168.433594 128.796875 168.015625 128.128906 168.015625 C 127.253906 168.015625 126.464844 168.640625 125.503906 169.390625 C 125.046875 169.765625 124.589844 170.097656 124.046875 170.347656 Z M 125.339844 165.183594 "/>
<path fill-rule="nonzero" fill="rgb(0%, 0%, 0%)" fill-opacity="1" d="M 137.535156 165.597656 C 137.535156 165.308594 137.285156 165.015625 136.953125 165.015625 C 136.535156 165.015625 136.121094 165.433594 136.121094 165.808594 C 136.121094 166.140625 136.371094 166.390625 136.703125 166.390625 C 137.160156 166.390625 137.535156 165.972656 137.535156 165.597656 Z M 134.621094 174.472656 C 134.371094 175.515625 133.535156 176.183594 132.746094 176.183594 C 132.496094 176.183594 132.371094 176.140625 132.246094 176.097656 C 132.578125 175.890625 132.660156 175.558594 132.660156 175.390625 C 132.660156 175.183594 132.496094 174.847656 132.078125 174.847656 C 131.621094 174.847656 131.246094 175.265625 131.246094 175.683594 C 131.246094 176.265625 131.828125 176.597656 132.746094 176.597656 C 133.660156 176.597656 135.371094 176.140625 135.785156 174.515625 L 136.996094 169.722656 C 136.996094 169.597656 137.035156 169.472656 137.035156 169.308594 C 137.035156 168.558594 136.328125 168.015625 135.410156 168.015625 C 133.785156 168.015625 132.828125 169.808594 132.828125 170.058594 C 132.828125 170.265625 133.035156 170.265625 133.078125 170.265625 C 133.285156 170.265625 133.328125 170.222656 133.371094 170.058594 C 133.996094 168.765625 134.910156 168.472656 135.371094 168.472656 C 135.871094 168.472656 135.910156 168.933594 135.910156 169.183594 C 135.910156 169.347656 135.910156 169.390625 135.871094 169.515625 Z M 134.621094 174.472656 "/>
<path fill="none" stroke-width="2.33075" stroke-linecap="butt" stroke-linejoin="miter" stroke="rgb(0%, 0%, 0%)" stroke-opacity="1" stroke-miterlimit="10" d="M 21.610641 -6.480137 L 21.610641 -26.863438 " transform="matrix(2.666667, 0, 0, -2.666667, 205.133341, 117.426666)"/>
<path fill="none" stroke-width="1.53377" stroke-linecap="butt" stroke-linejoin="miter" stroke="rgb(100%, 100%, 100%)" stroke-opacity="1" stroke-miterlimit="10" d="M 21.610641 -6.480137 L 21.610641 -26.863438 " transform="matrix(2.666667, 0, 0, -2.666667, 205.133341, 117.426666)"/>
<path fill="none" stroke-width="0.39848" stroke-linecap="butt" stroke-linejoin="miter" stroke="rgb(0%, 0%, 0%)" stroke-opacity="1" stroke-miterlimit="10" d="M -11.972366 -36.332188 L 11.141403 -36.332188 " transform="matrix(2.666667, 0, 0, -2.666667, 205.133341, 117.426666)"/>
<path fill="none" stroke-width="0.39848" stroke-linecap="round" stroke-linejoin="round" stroke="rgb(0%, 0%, 0%)" stroke-opacity="1" stroke-miterlimit="10" d="M -2.071548 2.390266 C -1.693619 0.956184 -0.849869 0.276497 -0.00172424 -0.000358582 C -0.849869 -0.277214 -1.693619 -0.956902 -2.071548 -2.390984 " transform="matrix(2.666667, 0, 0, -2.666667, 235.379598, 214.311544)"/>
<path fill-rule="nonzero" fill="rgb(0%, 0%, 0%)" fill-opacity="1" d="M 182.441406 222.027344 C 182.566406 221.484375 182.609375 221.445312 183.023438 221.402344 C 183.109375 221.402344 183.734375 221.402344 184.109375 221.402344 C 185.273438 221.402344 185.734375 221.402344 186.191406 221.527344 C 187.023438 221.777344 187.066406 222.320312 187.066406 222.984375 C 187.066406 223.277344 187.066406 223.527344 186.941406 224.484375 L 186.898438 224.695312 C 186.898438 224.902344 187.023438 224.984375 187.234375 224.984375 C 187.523438 224.984375 187.523438 224.820312 187.566406 224.527344 L 188.066406 220.984375 C 188.066406 220.734375 187.859375 220.734375 187.523438 220.734375 L 176.109375 220.734375 C 175.648438 220.734375 175.609375 220.734375 175.484375 221.109375 L 174.273438 224.402344 C 174.273438 224.484375 174.191406 224.652344 174.191406 224.734375 C 174.191406 224.820312 174.234375 224.984375 174.523438 224.984375 C 174.773438 224.984375 174.773438 224.902344 174.898438 224.527344 C 175.984375 221.570312 176.609375 221.402344 179.441406 221.402344 L 180.191406 221.402344 C 180.773438 221.402344 180.773438 221.402344 180.773438 221.570312 C 180.773438 221.570312 180.773438 221.695312 180.691406 221.945312 L 178.234375 231.734375 C 178.066406 232.402344 178.023438 232.609375 176.066406 232.609375 C 175.398438 232.609375 175.234375 232.609375 175.234375 233.027344 C 175.234375 233.070312 175.273438 233.277344 175.566406 233.277344 C 176.066406 233.277344 176.648438 233.234375 177.148438 233.234375 C 177.691406 233.234375 178.234375 233.195312 178.734375 233.195312 C 179.273438 233.195312 179.898438 233.195312 180.441406 233.234375 C 180.941406 233.234375 181.484375 233.277344 181.984375 233.277344 C 182.148438 233.277344 182.398438 233.277344 182.398438 232.859375 C 182.398438 232.609375 182.234375 232.609375 181.648438 232.609375 C 181.316406 232.609375 180.941406 232.570312 180.566406 232.570312 C 179.941406 232.527344 179.898438 232.445312 179.898438 232.234375 C 179.898438 232.070312 179.898438 232.070312 179.984375 231.777344 Z M 182.441406 222.027344 "/>
<path fill-rule="nonzero" fill="rgb(0%, 0%, 0%)" fill-opacity="1" d="M 191.199219 227.640625 C 191.199219 227.308594 190.992188 227.058594 190.617188 227.058594 C 190.242188 227.058594 189.824219 227.433594 189.824219 227.851562 C 189.824219 228.226562 190.117188 228.433594 190.40625 228.433594 C 190.824219 228.433594 191.199219 228.058594 191.199219 227.640625 Z M 191.824219 234.015625 C 191.824219 233.851562 191.617188 233.851562 191.574219 233.851562 C 191.324219 233.851562 191.324219 233.890625 191.242188 234.140625 C 191.03125 234.851562 190.40625 235.640625 189.742188 235.640625 C 189.449219 235.640625 189.367188 235.433594 189.367188 235.140625 C 189.367188 234.851562 189.40625 234.683594 189.53125 234.433594 C 189.617188 234.183594 189.742188 233.933594 189.824219 233.726562 C 189.867188 233.601562 190.367188 232.390625 190.574219 231.890625 C 190.65625 231.640625 190.742188 231.433594 190.742188 231.226562 C 190.742188 230.601562 190.117188 230.058594 189.28125 230.058594 C 187.90625 230.058594 187.15625 231.765625 187.15625 232.101562 C 187.15625 232.308594 187.367188 232.308594 187.449219 232.308594 C 187.65625 232.308594 187.65625 232.226562 187.742188 232.058594 C 188.03125 231.101562 188.65625 230.515625 189.242188 230.515625 C 189.492188 230.515625 189.65625 230.640625 189.65625 231.015625 C 189.65625 231.058594 189.65625 231.226562 189.574219 231.476562 C 189.492188 231.726562 188.867188 233.140625 188.699219 233.601562 C 188.574219 233.851562 188.574219 233.851562 188.40625 234.308594 C 188.324219 234.515625 188.242188 234.683594 188.242188 234.890625 C 188.242188 235.601562 188.90625 236.101562 189.699219 236.101562 C 191.074219 236.101562 191.824219 234.351562 191.824219 234.015625 Z M 191.824219 234.015625 "/>
<path fill-rule="nonzero" fill="rgb(0%, 0%, 0%)" fill-opacity="1" d="M 199.820312 227.640625 C 199.820312 227.351562 199.570312 227.058594 199.238281 227.058594 C 198.820312 227.058594 198.40625 227.476562 198.40625 227.851562 C 198.40625 228.183594 198.65625 228.433594 198.988281 228.433594 C 199.445312 228.433594 199.820312 228.015625 199.820312 227.640625 Z M 196.90625 236.515625 C 196.65625 237.558594 195.820312 238.226562 195.03125 238.226562 C 194.78125 238.226562 194.65625 238.183594 194.53125 238.140625 C 194.863281 237.933594 194.945312 237.601562 194.945312 237.433594 C 194.945312 237.226562 194.78125 236.890625 194.363281 236.890625 C 193.90625 236.890625 193.53125 237.308594 193.53125 237.726562 C 193.53125 238.308594 194.113281 238.640625 195.03125 238.640625 C 195.945312 238.640625 197.65625 238.183594 198.070312 236.558594 L 199.28125 231.765625 C 199.28125 231.640625 199.320312 231.515625 199.320312 231.351562 C 199.320312 230.601562 198.613281 230.058594 197.695312 230.058594 C 196.070312 230.058594 195.113281 231.851562 195.113281 232.101562 C 195.113281 232.308594 195.320312 232.308594 195.363281 232.308594 C 195.570312 232.308594 195.613281 232.265625 195.65625 232.101562 C 196.28125 230.808594 197.195312 230.515625 197.65625 230.515625 C 198.15625 230.515625 198.195312 230.976562 198.195312 231.226562 C 198.195312 231.390625 198.195312 231.433594 198.15625 231.558594 Z M 196.90625 236.515625 "/>
<path fill-rule="nonzero" fill="rgb(0%, 0%, 0%)" fill-opacity="1" d="M 212 222.027344 C 212.125 221.484375 212.167969 221.445312 212.585938 221.402344 C 212.667969 221.402344 213.292969 221.402344 213.667969 221.402344 C 214.835938 221.402344 215.292969 221.402344 215.75 221.527344 C 216.585938 221.777344 216.625 222.320312 216.625 222.984375 C 216.625 223.277344 216.625 223.527344 216.5 224.484375 L 216.460938 224.695312 C 216.460938 224.902344 216.585938 224.984375 216.792969 224.984375 C 217.085938 224.984375 217.085938 224.820312 217.125 224.527344 L 217.625 220.984375 C 217.625 220.734375 217.417969 220.734375 217.085938 220.734375 L 205.667969 220.734375 C 205.210938 220.734375 205.167969 220.734375 205.042969 221.109375 L 203.835938 224.402344 C 203.835938 224.484375 203.75 224.652344 203.75 224.734375 C 203.75 224.820312 203.792969 224.984375 204.085938 224.984375 C 204.335938 224.984375 204.335938 224.902344 204.460938 224.527344 C 205.542969 221.570312 206.167969 221.402344 209 221.402344 L 209.75 221.402344 C 210.335938 221.402344 210.335938 221.402344 210.335938 221.570312 C 210.335938 221.570312 210.335938 221.695312 210.25 221.945312 L 207.792969 231.734375 C 207.625 232.402344 207.585938 232.609375 205.625 232.609375 C 204.960938 232.609375 204.792969 232.609375 204.792969 233.027344 C 204.792969 233.070312 204.835938 233.277344 205.125 233.277344 C 205.625 233.277344 206.210938 233.234375 206.710938 233.234375 C 207.25 233.234375 207.792969 233.195312 208.292969 233.195312 C 208.835938 233.195312 209.460938 233.195312 210 233.234375 C 210.5 233.234375 211.042969 233.277344 211.542969 233.277344 C 211.710938 233.277344 211.960938 233.277344 211.960938 232.859375 C 211.960938 232.609375 211.792969 232.609375 211.210938 232.609375 C 210.875 232.609375 210.5 232.570312 210.125 232.570312 C 209.5 232.527344 209.460938 232.445312 209.460938 232.234375 C 209.460938 232.070312 209.460938 232.070312 209.542969 231.777344 Z M 212 222.027344 "/>
<path fill-rule="nonzero" fill="rgb(0%, 0%, 0%)" fill-opacity="1" d="M 222.300781 227.804688 C 222.300781 227.511719 222.050781 227.222656 221.71875 227.222656 C 221.300781 227.222656 220.882812 227.636719 220.882812 228.011719 C 220.882812 228.347656 221.132812 228.597656 221.46875 228.597656 C 221.925781 228.597656 222.300781 228.179688 222.300781 227.804688 Z M 219.382812 236.679688 C 219.132812 237.722656 218.300781 238.386719 217.507812 238.386719 C 217.257812 238.386719 217.132812 238.347656 217.007812 238.304688 C 217.34375 238.097656 217.425781 237.761719 217.425781 237.597656 C 217.425781 237.386719 217.257812 237.054688 216.84375 237.054688 C 216.382812 237.054688 216.007812 237.472656 216.007812 237.886719 C 216.007812 238.472656 216.59375 238.804688 217.507812 238.804688 C 218.425781 238.804688 220.132812 238.347656 220.550781 236.722656 L 221.757812 231.929688 C 221.757812 231.804688 221.800781 231.679688 221.800781 231.511719 C 221.800781 230.761719 221.09375 230.222656 220.175781 230.222656 C 218.550781 230.222656 217.59375 232.011719 217.59375 232.261719 C 217.59375 232.472656 217.800781 232.472656 217.84375 232.472656 C 218.050781 232.472656 218.09375 232.429688 218.132812 232.261719 C 218.757812 230.972656 219.675781 230.679688 220.132812 230.679688 C 220.632812 230.679688 220.675781 231.136719 220.675781 231.386719 C 220.675781 231.554688 220.675781 231.597656 220.632812 231.722656 Z M 219.382812 236.679688 "/>
<path fill-rule="nonzero" fill="rgb(0%, 0%, 0%)" fill-opacity="1" d="M 228.964844 227.386719 C 229.046875 227.179688 229.046875 227.179688 229.046875 227.097656 C 229.046875 226.886719 228.839844 226.886719 228.632812 226.886719 L 227.007812 227.011719 C 226.757812 227.011719 226.714844 227.011719 226.671875 227.097656 C 226.632812 227.136719 226.589844 227.304688 226.589844 227.386719 C 226.589844 227.597656 226.796875 227.597656 226.964844 227.597656 C 227.007812 227.597656 227.214844 227.597656 227.421875 227.636719 C 227.671875 227.679688 227.671875 227.722656 227.671875 227.804688 C 227.671875 227.847656 227.671875 227.886719 227.632812 228.136719 L 225.796875 235.472656 C 225.757812 235.636719 225.757812 235.679688 225.757812 235.761719 C 225.757812 236.054688 225.964844 236.261719 226.257812 236.261719 C 226.757812 236.261719 226.882812 235.761719 226.921875 235.554688 L 227.546875 233.136719 C 227.882812 233.136719 229.546875 233.222656 229.546875 234.179688 C 229.546875 234.261719 229.546875 234.304688 229.507812 234.472656 C 229.464844 234.679688 229.464844 234.722656 229.464844 234.804688 C 229.464844 235.761719 230.296875 236.261719 231.089844 236.261719 C 232.421875 236.261719 232.964844 234.347656 232.964844 234.179688 C 232.964844 234.011719 232.757812 234.011719 232.671875 234.011719 C 232.464844 234.011719 232.421875 234.054688 232.382812 234.304688 C 232.257812 234.761719 231.839844 235.804688 231.132812 235.804688 C 230.632812 235.804688 230.589844 235.304688 230.589844 235.011719 C 230.589844 235.011719 230.589844 234.804688 230.632812 234.597656 C 230.671875 234.386719 230.714844 234.222656 230.714844 234.136719 C 230.714844 232.972656 229.214844 232.761719 228.339844 232.679688 C 228.714844 232.472656 229.296875 232.011719 229.507812 231.847656 C 230.257812 231.261719 231.007812 230.679688 231.757812 230.679688 C 232.046875 230.679688 232.132812 230.761719 232.214844 230.847656 C 232.214844 230.847656 232.132812 230.886719 232.089844 230.886719 C 231.507812 231.097656 231.507812 231.636719 231.507812 231.679688 C 231.507812 231.886719 231.671875 232.222656 232.089844 232.222656 C 232.339844 232.222656 232.921875 232.011719 232.921875 231.261719 C 232.921875 230.636719 232.421875 230.222656 231.757812 230.222656 C 230.882812 230.222656 230.089844 230.847656 229.132812 231.597656 C 228.671875 231.972656 228.214844 232.304688 227.671875 232.554688 Z M 228.964844 227.386719 "/>
<path fill="none" stroke-width="2.33075" stroke-linecap="butt" stroke-linejoin="miter" stroke="rgb(0%, 0%, 0%)" stroke-opacity="1" stroke-miterlimit="10" d="M -31.327347 -0.320469 L -47.206253 -0.625156 " transform="matrix(2.666667, 0, 0, -2.666667, 205.133341, 117.426666)"/>
<path fill="none" stroke-width="1.53377" stroke-linecap="butt" stroke-linejoin="miter" stroke="rgb(100%, 100%, 100%)" stroke-opacity="1" stroke-miterlimit="10" d="M -31.327347 -0.320469 L -47.206253 -0.625156 " transform="matrix(2.666667, 0, 0, -2.666667, 205.133341, 117.426666)"/>
<path fill="none" stroke-width="0.39848" stroke-linecap="round" stroke-linejoin="round" stroke="rgb(0%, 0%, 0%)" stroke-opacity="1" stroke-miterlimit="10" d="M -1.293484 2.56202 C -0.665853 1.209422 1.023259 0.0475383 1.990784 -0.00170376 C 1.024343 -0.0491823 -0.665156 -1.209556 -1.293122 -2.560157 " transform="matrix(-2.666107, 0.0509067, 0.0509067, 2.666107, 79.245229, 119.090698)"/>
<path fill-rule="nonzero" fill="rgb(0%, 0%, 0%)" fill-opacity="1" d="M 76.320312 93.808594 C 76.320312 93.433594 76.320312 93.265625 75.988281 93.265625 C 75.652344 93.265625 75.652344 93.433594 75.652344 93.808594 L 75.652344 107.015625 C 75.652344 107.351562 75.652344 107.558594 75.988281 107.558594 C 76.277344 107.558594 77.488281 106.683594 77.863281 106.433594 C 79.277344 105.433594 81.363281 103.726562 81.363281 101.226562 C 81.363281 99.601562 79.945312 98.640625 78.570312 98.640625 C 78.488281 98.640625 77.152344 98.640625 76.320312 99.351562 Z M 76.320312 100.890625 C 76.320312 100.476562 76.320312 100.140625 76.863281 99.808594 C 77.113281 99.683594 77.613281 99.476562 78.320312 99.476562 C 79.652344 99.476562 79.738281 100.933594 79.738281 101.226562 C 79.738281 103.515625 77.902344 105.433594 76.320312 106.683594 Z M 76.320312 100.890625 "/>
<path fill-rule="nonzero" fill="rgb(0%, 0%, 0%)" fill-opacity="1" d="M 88.085938 101.710938 C 88.085938 101.378906 87.875 101.128906 87.5 101.128906 C 87.125 101.128906 86.710938 101.503906 86.710938 101.917969 C 86.710938 102.292969 87 102.503906 87.292969 102.503906 C 87.710938 102.503906 88.085938 102.128906 88.085938 101.710938 Z M 88.710938 108.085938 C 88.710938 107.917969 88.5 107.917969 88.460938 107.917969 C 88.210938 107.917969 88.210938 107.960938 88.125 108.210938 C 87.917969 108.917969 87.292969 109.710938 86.625 109.710938 C 86.335938 109.710938 86.25 109.503906 86.25 109.210938 C 86.25 108.917969 86.292969 108.753906 86.417969 108.503906 C 86.5 108.253906 86.625 108.003906 86.710938 107.792969 C 86.75 107.667969 87.25 106.460938 87.460938 105.960938 C 87.542969 105.710938 87.625 105.503906 87.625 105.292969 C 87.625 104.667969 87 104.128906 86.167969 104.128906 C 84.792969 104.128906 84.042969 105.835938 84.042969 106.167969 C 84.042969 106.378906 84.25 106.378906 84.335938 106.378906 C 84.542969 106.378906 84.542969 106.292969 84.625 106.128906 C 84.917969 105.167969 85.542969 104.585938 86.125 104.585938 C 86.375 104.585938 86.542969 104.710938 86.542969 105.085938 C 86.542969 105.128906 86.542969 105.292969 86.460938 105.542969 C 86.375 105.792969 85.75 107.210938 85.585938 107.667969 C 85.460938 107.917969 85.460938 107.917969 85.292969 108.378906 C 85.210938 108.585938 85.125 108.753906 85.125 108.960938 C 85.125 109.667969 85.792969 110.167969 86.585938 110.167969 C 87.960938 110.167969 88.710938 108.417969 88.710938 108.085938 Z M 88.710938 108.085938 "/>
<path fill-rule="nonzero" fill="rgb(0%, 0%, 0%)" fill-opacity="1" d="M 96.707031 101.710938 C 96.707031 101.417969 96.457031 101.128906 96.125 101.128906 C 95.707031 101.128906 95.289062 101.542969 95.289062 101.917969 C 95.289062 102.253906 95.539062 102.503906 95.875 102.503906 C 96.332031 102.503906 96.707031 102.085938 96.707031 101.710938 Z M 93.789062 110.585938 C 93.539062 111.628906 92.707031 112.292969 91.914062 112.292969 C 91.664062 112.292969 91.539062 112.253906 91.414062 112.210938 C 91.75 112.003906 91.832031 111.667969 91.832031 111.503906 C 91.832031 111.292969 91.664062 110.960938 91.25 110.960938 C 90.789062 110.960938 90.414062 111.378906 90.414062 111.792969 C 90.414062 112.378906 91 112.710938 91.914062 112.710938 C 92.832031 112.710938 94.539062 112.253906 94.957031 110.628906 L 96.164062 105.835938 C 96.164062 105.710938 96.207031 105.585938 96.207031 105.417969 C 96.207031 104.667969 95.5 104.128906 94.582031 104.128906 C 92.957031 104.128906 92 105.917969 92 106.167969 C 92 106.378906 92.207031 106.378906 92.25 106.378906 C 92.457031 106.378906 92.5 106.335938 92.539062 106.167969 C 93.164062 104.878906 94.082031 104.585938 94.539062 104.585938 C 95.039062 104.585938 95.082031 105.042969 95.082031 105.292969 C 95.082031 105.460938 95.082031 105.503906 95.039062 105.628906 Z M 93.789062 110.585938 "/>
<path fill-rule="nonzero" fill="rgb(0%, 0%, 0%)" fill-opacity="1" d="M 103.371094 101.292969 C 103.453125 101.085938 103.453125 101.085938 103.453125 101.003906 C 103.453125 100.792969 103.246094 100.792969 103.039062 100.792969 L 101.414062 100.917969 C 101.164062 100.917969 101.121094 100.917969 101.078125 101.003906 C 101.039062 101.042969 100.996094 101.210938 100.996094 101.292969 C 100.996094 101.503906 101.203125 101.503906 101.371094 101.503906 C 101.414062 101.503906 101.621094 101.503906 101.828125 101.542969 C 102.078125 101.585938 102.078125 101.628906 102.078125 101.710938 C 102.078125 101.753906 102.078125 101.792969 102.039062 102.042969 L 100.203125 109.378906 C 100.164062 109.542969 100.164062 109.585938 100.164062 109.667969 C 100.164062 109.960938 100.371094 110.167969 100.664062 110.167969 C 101.164062 110.167969 101.289062 109.667969 101.328125 109.460938 L 101.953125 107.042969 C 102.289062 107.042969 103.953125 107.128906 103.953125 108.085938 C 103.953125 108.167969 103.953125 108.210938 103.914062 108.378906 C 103.871094 108.585938 103.871094 108.628906 103.871094 108.710938 C 103.871094 109.667969 104.703125 110.167969 105.496094 110.167969 C 106.828125 110.167969 107.371094 108.253906 107.371094 108.085938 C 107.371094 107.917969 107.164062 107.917969 107.078125 107.917969 C 106.871094 107.917969 106.828125 107.960938 106.789062 108.210938 C 106.664062 108.667969 106.246094 109.710938 105.539062 109.710938 C 105.039062 109.710938 104.996094 109.210938 104.996094 108.917969 C 104.996094 108.917969 104.996094 108.710938 105.039062 108.503906 C 105.078125 108.292969 105.121094 108.128906 105.121094 108.042969 C 105.121094 106.878906 103.621094 106.667969 102.746094 106.585938 C 103.121094 106.378906 103.703125 105.917969 103.914062 105.753906 C 104.664062 105.167969 105.414062 104.585938 106.164062 104.585938 C 106.453125 104.585938 106.539062 104.667969 106.621094 104.753906 C 106.621094 104.753906 106.539062 104.792969 106.496094 104.792969 C 105.914062 105.003906 105.914062 105.542969 105.914062 105.585938 C 105.914062 105.792969 106.078125 106.128906 106.496094 106.128906 C 106.746094 106.128906 107.328125 105.917969 107.328125 105.167969 C 107.328125 104.542969 106.828125 104.128906 106.164062 104.128906 C 105.289062 104.128906 104.496094 104.753906 103.539062 105.503906 C 103.078125 105.878906 102.621094 106.210938 102.078125 106.460938 Z M 103.371094 101.292969 "/>
</svg>
