<?xml version="1.0" encoding="UTF-8"?>
<svg xmlns="http://www.w3.org/2000/svg" xmlns:xlink="http://www.w3.org/1999/xlink" width="420.58667" height="155.279999" viewBox="0 0 420.58667 155.279999">
<path fill-rule="nonzero" fill="rgb(0%, 0%, 0%)" fill-opacity="1" d="M 53.765625 22.292969 C 54.015625 21.335938 54.058594 21.085938 56.058594 21.085938 C 56.640625 21.085938 56.890625 21.085938 56.890625 20.542969 C 56.890625 20.253906 56.640625 20.253906 56.183594 20.253906 L 52.683594 20.253906 C 51.976562 20.253906 51.933594 20.253906 51.640625 20.753906 L 41.933594 35.917969 L 39.851562 20.878906 C 39.765625 20.253906 39.726562 20.253906 39.015625 20.253906 L 35.390625 20.253906 C 34.890625 20.253906 34.601562 20.253906 34.601562 20.753906 C 34.601562 21.085938 34.851562 21.085938 35.351562 21.085938 C 35.726562 21.085938 36.183594 21.128906 36.515625 21.128906 C 36.933594 21.210938 37.101562 21.253906 37.101562 21.585938 C 37.101562 21.667969 37.058594 21.753906 36.976562 22.085938 L 33.601562 35.585938 C 33.351562 36.667969 32.890625 37.503906 30.726562 37.585938 C 30.601562 37.585938 30.265625 37.628906 30.265625 38.085938 C 30.265625 38.335938 30.433594 38.417969 30.640625 38.417969 C 31.476562 38.417969 32.390625 38.335938 33.308594 38.335938 C 34.183594 38.335938 35.140625 38.417969 36.015625 38.417969 C 36.140625 38.417969 36.515625 38.417969 36.515625 37.878906 C 36.515625 37.585938 36.226562 37.585938 36.015625 37.585938 C 34.515625 37.585938 34.226562 37.042969 34.226562 36.417969 C 34.226562 36.253906 34.226562 36.085938 34.308594 35.792969 L 37.933594 21.335938 L 37.976562 21.335938 L 40.265625 37.792969 C 40.308594 38.128906 40.351562 38.417969 40.640625 38.417969 C 40.933594 38.417969 41.101562 38.128906 41.226562 37.960938 L 51.976562 21.128906 L 52.015625 21.128906 L 48.183594 36.335938 C 47.933594 37.378906 47.890625 37.585938 45.765625 37.585938 C 45.351562 37.585938 45.058594 37.585938 45.058594 38.085938 C 45.058594 38.417969 45.351562 38.417969 45.433594 38.417969 C 46.183594 38.417969 47.976562 38.335938 48.726562 38.335938 C 49.808594 38.335938 50.976562 38.417969 52.058594 38.417969 C 52.226562 38.417969 52.558594 38.417969 52.558594 37.878906 C 52.558594 37.585938 52.308594 37.585938 51.808594 37.585938 C 50.851562 37.585938 50.101562 37.585938 50.101562 37.128906 C 50.101562 37.003906 50.101562 36.960938 50.226562 36.460938 Z M 53.765625 22.292969 "/>
<path fill-rule="nonzero" fill="rgb(0%, 0%, 0%)" fill-opacity="1" d="M 57.164062 41.234375 C 57.121094 41.484375 56.996094 41.945312 56.996094 41.984375 C 56.996094 42.402344 57.332031 42.570312 57.621094 42.570312 C 57.957031 42.570312 58.246094 42.359375 58.371094 42.195312 C 58.457031 42.027344 58.582031 41.402344 58.707031 41.027344 C 58.789062 40.695312 58.996094 39.820312 59.082031 39.359375 C 59.207031 38.945312 59.332031 38.527344 59.414062 38.109375 C 59.621094 37.359375 59.664062 37.195312 60.207031 36.445312 C 60.707031 35.695312 61.582031 34.734375 62.996094 34.734375 C 64.039062 34.734375 64.082031 35.695312 64.082031 36.027344 C 64.082031 37.152344 63.289062 39.195312 62.996094 39.984375 C 62.789062 40.527344 62.707031 40.695312 62.707031 40.984375 C 62.707031 41.984375 63.496094 42.570312 64.457031 42.570312 C 66.332031 42.570312 67.121094 40.027344 67.121094 39.734375 C 67.121094 39.484375 66.914062 39.484375 66.832031 39.484375 C 66.582031 39.484375 66.582031 39.609375 66.496094 39.820312 C 66.082031 41.320312 65.246094 42.070312 64.539062 42.070312 C 64.121094 42.070312 64.039062 41.820312 64.039062 41.402344 C 64.039062 40.984375 64.164062 40.734375 64.496094 39.902344 C 64.707031 39.320312 65.457031 37.359375 65.457031 36.320312 C 65.457031 34.527344 64.039062 34.195312 63.039062 34.195312 C 61.496094 34.195312 60.457031 35.152344 59.914062 35.902344 C 59.789062 34.609375 58.707031 34.195312 57.914062 34.195312 C 57.121094 34.195312 56.707031 34.777344 56.457031 35.195312 C 56.039062 35.902344 55.789062 36.945312 55.789062 37.070312 C 55.789062 37.277344 56.039062 37.277344 56.121094 37.277344 C 56.371094 37.277344 56.371094 37.234375 56.496094 36.734375 C 56.789062 35.652344 57.164062 34.734375 57.871094 34.734375 C 58.371094 34.734375 58.496094 35.152344 58.496094 35.652344 C 58.496094 35.984375 58.332031 36.695312 58.164062 37.195312 C 58.039062 37.695312 57.871094 38.445312 57.789062 38.859375 Z M 57.164062 41.234375 "/>
<path fill-rule="nonzero" fill="rgb(0%, 0%, 0%)" fill-opacity="1" d="M 85.613281 31.042969 L 80.320312 25.753906 C 79.988281 25.417969 79.945312 25.378906 79.738281 25.378906 C 79.445312 25.378906 79.195312 25.585938 79.195312 25.917969 C 79.195312 26.085938 79.238281 26.128906 79.53125 26.417969 L 84.863281 31.753906 L 79.53125 37.128906 C 79.238281 37.417969 79.195312 37.460938 79.195312 37.628906 C 79.195312 37.960938 79.445312 38.167969 79.738281 38.167969 C 79.945312 38.167969 79.988281 38.128906 80.320312 37.792969 L 85.613281 32.503906 L 91.113281 38.003906 C 91.15625 38.042969 91.320312 38.167969 91.488281 38.167969 C 91.820312 38.167969 92.03125 37.960938 92.03125 37.628906 C 92.03125 37.585938 92.03125 37.503906 91.945312 37.335938 C 91.90625 37.292969 87.695312 33.128906 86.363281 31.753906 L 91.238281 26.917969 C 91.363281 26.753906 91.78125 26.417969 91.90625 26.253906 C 91.90625 26.210938 92.03125 26.085938 92.03125 25.917969 C 92.03125 25.585938 91.820312 25.378906 91.488281 25.378906 C 91.28125 25.378906 91.195312 25.460938 90.90625 25.753906 Z M 85.613281 31.042969 "/>
<path fill-rule="nonzero" fill="rgb(0%, 0%, 0%)" fill-opacity="1" d="M 114.140625 29.417969 C 113.890625 27.753906 112.804688 26.253906 110.722656 26.253906 C 109.097656 26.253906 107.390625 26.710938 105.304688 28.753906 C 103.097656 30.960938 102.929688 33.460938 102.929688 34.253906 C 102.929688 35.917969 104.097656 39.003906 107.804688 39.003906 C 114.140625 39.003906 116.890625 30.085938 116.890625 26.253906 C 116.890625 22.042969 114.429688 19.378906 111.140625 19.378906 C 107.304688 19.378906 106.054688 22.835938 106.054688 23.585938 C 106.054688 23.960938 106.304688 24.503906 107.097656 24.503906 C 107.972656 24.503906 108.515625 23.710938 108.515625 23.128906 C 108.515625 22.167969 107.679688 22.167969 107.265625 22.167969 C 108.429688 20.210938 110.347656 20.042969 111.097656 20.042969 C 113.054688 20.042969 114.890625 21.417969 114.890625 24.878906 C 114.890625 25.917969 114.722656 27.253906 114.179688 29.417969 Z M 107.890625 38.253906 C 104.972656 38.253906 104.972656 35.503906 104.972656 35.253906 C 104.972656 34.542969 105.640625 30.835938 106.722656 29.210938 C 107.765625 27.710938 109.097656 26.835938 110.722656 26.835938 C 113.640625 26.835938 113.679688 29.835938 113.679688 30.378906 C 113.679688 32.292969 111.972656 38.253906 107.890625 38.253906 Z M 107.890625 38.253906 "/>
<path fill-rule="nonzero" fill="rgb(0%, 0%, 0%)" fill-opacity="1" d="M 129.175781 19.878906 C 129.011719 19.503906 128.925781 19.378906 128.46875 19.378906 C 128.050781 19.378906 127.96875 19.503906 127.800781 19.878906 L 118.800781 37.878906 C 118.675781 38.128906 118.675781 38.167969 118.675781 38.210938 C 118.675781 38.417969 118.84375 38.417969 119.261719 38.417969 L 137.71875 38.417969 C 138.136719 38.417969 138.300781 38.417969 138.300781 38.210938 C 138.300781 38.167969 138.300781 38.128906 138.175781 37.878906 Z M 127.636719 22.042969 L 134.800781 36.417969 L 120.46875 36.417969 Z M 127.636719 22.042969 "/>
<path fill-rule="nonzero" fill="rgb(0%, 0%, 0%)" fill-opacity="1" d="M 148.347656 44.792969 C 148.347656 44.710938 148.347656 44.667969 147.890625 44.210938 C 144.597656 40.878906 143.722656 35.835938 143.722656 31.753906 C 143.722656 27.128906 144.722656 22.503906 148.015625 19.210938 C 148.347656 18.878906 148.347656 18.835938 148.347656 18.753906 C 148.347656 18.542969 148.265625 18.460938 148.097656 18.460938 C 147.808594 18.460938 145.433594 20.292969 143.847656 23.667969 C 142.515625 26.585938 142.183594 29.542969 142.183594 31.753906 C 142.183594 33.835938 142.472656 37.042969 143.933594 40.085938 C 145.558594 43.335938 147.808594 45.085938 148.097656 45.085938 C 148.265625 45.085938 148.347656 45.003906 148.347656 44.792969 Z M 148.347656 44.792969 "/>
<path fill-rule="nonzero" fill="rgb(0%, 0%, 0%)" fill-opacity="1" d="M 152.230469 36.835938 C 152.148438 37.253906 151.980469 37.878906 151.980469 38.003906 C 151.980469 38.460938 152.355469 38.710938 152.773438 38.710938 C 153.105469 38.710938 153.566406 38.503906 153.773438 37.960938 C 153.773438 37.917969 154.105469 36.667969 154.273438 36.003906 L 154.855469 33.628906 C 154.980469 33.003906 155.148438 32.417969 155.316406 31.835938 C 155.398438 31.378906 155.605469 30.585938 155.648438 30.503906 C 156.023438 29.667969 157.441406 27.253906 159.980469 27.253906 C 161.191406 27.253906 161.398438 28.253906 161.398438 29.128906 C 161.398438 30.753906 160.105469 34.167969 159.691406 35.292969 C 159.441406 35.917969 159.398438 36.253906 159.398438 36.542969 C 159.398438 37.792969 160.355469 38.710938 161.605469 38.710938 C 164.105469 38.710938 165.066406 34.835938 165.066406 34.628906 C 165.066406 34.335938 164.855469 34.335938 164.773438 34.335938 C 164.480469 34.335938 164.480469 34.417969 164.355469 34.835938 C 163.816406 36.628906 162.941406 38.128906 161.648438 38.128906 C 161.191406 38.128906 161.023438 37.878906 161.023438 37.253906 C 161.023438 36.585938 161.230469 35.960938 161.480469 35.378906 C 161.980469 33.960938 163.105469 31.042969 163.105469 29.503906 C 163.105469 27.753906 161.980469 26.667969 160.066406 26.667969 C 157.648438 26.667969 156.355469 28.378906 155.898438 29.003906 C 155.773438 27.503906 154.691406 26.667969 153.441406 26.667969 C 152.230469 26.667969 151.730469 27.710938 151.480469 28.167969 C 151.023438 29.085938 150.691406 30.667969 150.691406 30.753906 C 150.691406 31.042969 150.941406 31.042969 150.980469 31.042969 C 151.273438 31.042969 151.273438 31.003906 151.441406 30.417969 C 151.898438 28.542969 152.441406 27.253906 153.398438 27.253906 C 153.898438 27.253906 154.191406 27.585938 154.191406 28.460938 C 154.191406 29.042969 154.105469 29.335938 153.773438 30.710938 Z M 152.230469 36.835938 "/>
<path fill-rule="nonzero" fill="rgb(0%, 0%, 0%)" fill-opacity="1" d="M 173.511719 31.753906 C 173.511719 29.710938 173.21875 26.503906 171.761719 23.460938 C 170.179688 20.210938 167.886719 18.460938 167.636719 18.460938 C 167.46875 18.460938 167.34375 18.585938 167.34375 18.753906 C 167.34375 18.835938 167.34375 18.878906 167.84375 19.378906 C 170.46875 22.003906 171.96875 26.210938 171.96875 31.753906 C 171.96875 36.335938 171.011719 41.003906 167.71875 44.335938 C 167.34375 44.667969 167.34375 44.710938 167.34375 44.792969 C 167.34375 44.960938 167.46875 45.085938 167.636719 45.085938 C 167.886719 45.085938 170.304688 43.253906 171.84375 39.878906 C 173.21875 36.960938 173.511719 34.003906 173.511719 31.753906 Z M 173.511719 31.753906 "/>
<path fill-rule="nonzero" fill="rgb(0%, 0%, 0%)" fill-opacity="1" d="M 287.460938 22.292969 C 287.710938 21.335938 287.753906 21.085938 289.753906 21.085938 C 290.335938 21.085938 290.585938 21.085938 290.585938 20.542969 C 290.585938 20.253906 290.335938 20.253906 289.878906 20.253906 L 286.378906 20.253906 C 285.671875 20.253906 285.628906 20.253906 285.335938 20.753906 L 275.628906 35.917969 L 273.546875 20.878906 C 273.460938 20.253906 273.421875 20.253906 272.710938 20.253906 L 269.085938 20.253906 C 268.585938 20.253906 268.296875 20.253906 268.296875 20.753906 C 268.296875 21.085938 268.546875 21.085938 269.046875 21.085938 C 269.421875 21.085938 269.878906 21.128906 270.210938 21.128906 C 270.628906 21.210938 270.796875 21.253906 270.796875 21.585938 C 270.796875 21.667969 270.753906 21.753906 270.671875 22.085938 L 267.296875 35.585938 C 267.046875 36.667969 266.585938 37.503906 264.421875 37.585938 C 264.296875 37.585938 263.960938 37.628906 263.960938 38.085938 C 263.960938 38.335938 264.128906 38.417969 264.335938 38.417969 C 265.171875 38.417969 266.085938 38.335938 267.003906 38.335938 C 267.878906 38.335938 268.835938 38.417969 269.710938 38.417969 C 269.835938 38.417969 270.210938 38.417969 270.210938 37.878906 C 270.210938 37.585938 269.921875 37.585938 269.710938 37.585938 C 268.210938 37.585938 267.921875 37.042969 267.921875 36.417969 C 267.921875 36.253906 267.921875 36.085938 268.003906 35.792969 L 271.628906 21.335938 L 271.671875 21.335938 L 273.960938 37.792969 C 274.003906 38.128906 274.046875 38.417969 274.335938 38.417969 C 274.628906 38.417969 274.796875 38.128906 274.921875 37.960938 L 285.671875 21.128906 L 285.710938 21.128906 L 281.878906 36.335938 C 281.628906 37.378906 281.585938 37.585938 279.460938 37.585938 C 279.046875 37.585938 278.753906 37.585938 278.753906 38.085938 C 278.753906 38.417969 279.046875 38.417969 279.128906 38.417969 C 279.878906 38.417969 281.671875 38.335938 282.421875 38.335938 C 283.503906 38.335938 284.671875 38.417969 285.753906 38.417969 C 285.921875 38.417969 286.253906 38.417969 286.253906 37.878906 C 286.253906 37.585938 286.003906 37.585938 285.503906 37.585938 C 284.546875 37.585938 283.796875 37.585938 283.796875 37.128906 C 283.796875 37.003906 283.796875 36.960938 283.921875 36.460938 Z M 287.460938 22.292969 "/>
<path fill-rule="nonzero" fill="rgb(0%, 0%, 0%)" fill-opacity="1" d="M 290.859375 41.234375 C 290.820312 41.484375 290.695312 41.945312 290.695312 41.984375 C 290.695312 42.402344 291.027344 42.570312 291.320312 42.570312 C 291.652344 42.570312 291.945312 42.359375 292.070312 42.195312 C 292.152344 42.027344 292.277344 41.402344 292.402344 41.027344 C 292.484375 40.695312 292.695312 39.820312 292.777344 39.359375 C 292.902344 38.945312 293.027344 38.527344 293.109375 38.109375 C 293.320312 37.359375 293.359375 37.195312 293.902344 36.445312 C 294.402344 35.695312 295.277344 34.734375 296.695312 34.734375 C 297.734375 34.734375 297.777344 35.695312 297.777344 36.027344 C 297.777344 37.152344 296.984375 39.195312 296.695312 39.984375 C 296.484375 40.527344 296.402344 40.695312 296.402344 40.984375 C 296.402344 41.984375 297.195312 42.570312 298.152344 42.570312 C 300.027344 42.570312 300.820312 40.027344 300.820312 39.734375 C 300.820312 39.484375 300.609375 39.484375 300.527344 39.484375 C 300.277344 39.484375 300.277344 39.609375 300.195312 39.820312 C 299.777344 41.320312 298.945312 42.070312 298.234375 42.070312 C 297.820312 42.070312 297.734375 41.820312 297.734375 41.402344 C 297.734375 40.984375 297.859375 40.734375 298.195312 39.902344 C 298.402344 39.320312 299.152344 37.359375 299.152344 36.320312 C 299.152344 34.527344 297.734375 34.195312 296.734375 34.195312 C 295.195312 34.195312 294.152344 35.152344 293.609375 35.902344 C 293.484375 34.609375 292.402344 34.195312 291.609375 34.195312 C 290.820312 34.195312 290.402344 34.777344 290.152344 35.195312 C 289.734375 35.902344 289.484375 36.945312 289.484375 37.070312 C 289.484375 37.277344 289.734375 37.277344 289.820312 37.277344 C 290.070312 37.277344 290.070312 37.234375 290.195312 36.734375 C 290.484375 35.652344 290.859375 34.734375 291.570312 34.734375 C 292.070312 34.734375 292.195312 35.152344 292.195312 35.652344 C 292.195312 35.984375 292.027344 36.695312 291.859375 37.195312 C 291.734375 37.695312 291.570312 38.445312 291.484375 38.859375 Z M 290.859375 41.234375 "/>
<path fill-rule="nonzero" fill="rgb(0%, 0%, 0%)" fill-opacity="1" d="M 319.308594 31.042969 L 314.019531 25.753906 C 313.683594 25.417969 313.644531 25.378906 313.433594 25.378906 C 313.144531 25.378906 312.894531 25.585938 312.894531 25.917969 C 312.894531 26.085938 312.933594 26.128906 313.226562 26.417969 L 318.558594 31.753906 L 313.226562 37.128906 C 312.933594 37.417969 312.894531 37.460938 312.894531 37.628906 C 312.894531 37.960938 313.144531 38.167969 313.433594 38.167969 C 313.644531 38.167969 313.683594 38.128906 314.019531 37.792969 L 319.308594 32.503906 L 324.808594 38.003906 C 324.851562 38.042969 325.019531 38.167969 325.183594 38.167969 C 325.519531 38.167969 325.726562 37.960938 325.726562 37.628906 C 325.726562 37.585938 325.726562 37.503906 325.644531 37.335938 C 325.601562 37.292969 321.394531 33.128906 320.058594 31.753906 L 324.933594 26.917969 C 325.058594 26.753906 325.476562 26.417969 325.601562 26.253906 C 325.601562 26.210938 325.726562 26.085938 325.726562 25.917969 C 325.726562 25.585938 325.519531 25.378906 325.183594 25.378906 C 324.976562 25.378906 324.894531 25.460938 324.601562 25.753906 Z M 319.308594 31.042969 "/>
<path fill-rule="nonzero" fill="rgb(0%, 0%, 0%)" fill-opacity="1" d="M 347.832031 29.417969 C 347.582031 27.753906 346.5 26.253906 344.417969 26.253906 C 342.792969 26.253906 341.082031 26.710938 339 28.753906 C 336.792969 30.960938 336.625 33.460938 336.625 34.253906 C 336.625 35.917969 337.792969 39.003906 341.5 39.003906 C 347.832031 39.003906 350.582031 30.085938 350.582031 26.253906 C 350.582031 22.042969 348.125 19.378906 344.832031 19.378906 C 341 19.378906 339.75 22.835938 339.75 23.585938 C 339.75 23.960938 340 24.503906 340.792969 24.503906 C 341.667969 24.503906 342.207031 23.710938 342.207031 23.128906 C 342.207031 22.167969 341.375 22.167969 340.957031 22.167969 C 342.125 20.210938 344.042969 20.042969 344.792969 20.042969 C 346.75 20.042969 348.582031 21.417969 348.582031 24.878906 C 348.582031 25.917969 348.417969 27.253906 347.875 29.417969 Z M 341.582031 38.253906 C 338.667969 38.253906 338.667969 35.503906 338.667969 35.253906 C 338.667969 34.542969 339.332031 30.835938 340.417969 29.210938 C 341.457031 27.710938 342.792969 26.835938 344.417969 26.835938 C 347.332031 26.835938 347.375 29.835938 347.375 30.378906 C 347.375 32.292969 345.667969 38.253906 341.582031 38.253906 Z M 341.582031 38.253906 "/>
<path fill-rule="nonzero" fill="rgb(0%, 0%, 0%)" fill-opacity="1" d="M 362.871094 19.878906 C 362.707031 19.503906 362.621094 19.378906 362.164062 19.378906 C 361.746094 19.378906 361.664062 19.503906 361.496094 19.878906 L 352.496094 37.878906 C 352.371094 38.128906 352.371094 38.167969 352.371094 38.210938 C 352.371094 38.417969 352.539062 38.417969 352.957031 38.417969 L 371.414062 38.417969 C 371.832031 38.417969 371.996094 38.417969 371.996094 38.210938 C 371.996094 38.167969 371.996094 38.128906 371.871094 37.878906 Z M 361.332031 22.042969 L 368.496094 36.417969 L 354.164062 36.417969 Z M 361.332031 22.042969 "/>
<path fill-rule="nonzero" fill="rgb(0%, 0%, 0%)" fill-opacity="1" d="M 365.234375 25.460938 C 365.109375 25.210938 365.066406 25.125 364.777344 25.125 C 364.441406 25.125 364.402344 25.210938 364.277344 25.460938 L 357.984375 38.042969 C 357.902344 38.210938 357.902344 38.25 357.902344 38.25 C 357.902344 38.417969 358.027344 38.417969 358.316406 38.417969 L 371.191406 38.417969 C 371.484375 38.417969 371.609375 38.417969 371.609375 38.25 C 371.609375 38.25 371.609375 38.210938 371.527344 38.042969 Z M 364.152344 26.960938 L 369.152344 37 L 359.152344 37 Z M 364.152344 26.960938 "/>
<path fill-rule="nonzero" fill="rgb(0%, 0%, 0%)" fill-opacity="1" d="M 381.316406 44.792969 C 381.316406 44.710938 381.316406 44.667969 380.859375 44.210938 C 377.566406 40.878906 376.691406 35.835938 376.691406 31.753906 C 376.691406 27.128906 377.691406 22.503906 380.984375 19.210938 C 381.316406 18.878906 381.316406 18.835938 381.316406 18.753906 C 381.316406 18.542969 381.234375 18.460938 381.066406 18.460938 C 380.773438 18.460938 378.398438 20.292969 376.816406 23.667969 C 375.484375 26.585938 375.148438 29.542969 375.148438 31.753906 C 375.148438 33.835938 375.441406 37.042969 376.898438 40.085938 C 378.523438 43.335938 380.773438 45.085938 381.066406 45.085938 C 381.234375 45.085938 381.316406 45.003906 381.316406 44.792969 Z M 381.316406 44.792969 "/>
<path fill-rule="nonzero" fill="rgb(0%, 0%, 0%)" fill-opacity="1" d="M 385.1875 36.835938 C 385.105469 37.253906 384.9375 37.878906 384.9375 38.003906 C 384.9375 38.460938 385.3125 38.710938 385.730469 38.710938 C 386.0625 38.710938 386.523438 38.503906 386.730469 37.960938 C 386.730469 37.917969 387.0625 36.667969 387.230469 36.003906 L 387.8125 33.628906 C 387.9375 33.003906 388.105469 32.417969 388.273438 31.835938 C 388.355469 31.378906 388.5625 30.585938 388.605469 30.503906 C 388.980469 29.667969 390.398438 27.253906 392.9375 27.253906 C 394.148438 27.253906 394.355469 28.253906 394.355469 29.128906 C 394.355469 30.753906 393.0625 34.167969 392.648438 35.292969 C 392.398438 35.917969 392.355469 36.253906 392.355469 36.542969 C 392.355469 37.792969 393.3125 38.710938 394.5625 38.710938 C 397.0625 38.710938 398.023438 34.835938 398.023438 34.628906 C 398.023438 34.335938 397.8125 34.335938 397.730469 34.335938 C 397.4375 34.335938 397.4375 34.417969 397.3125 34.835938 C 396.773438 36.628906 395.898438 38.128906 394.605469 38.128906 C 394.148438 38.128906 393.980469 37.878906 393.980469 37.253906 C 393.980469 36.585938 394.1875 35.960938 394.4375 35.378906 C 394.9375 33.960938 396.0625 31.042969 396.0625 29.503906 C 396.0625 27.753906 394.9375 26.667969 393.023438 26.667969 C 390.605469 26.667969 389.3125 28.378906 388.855469 29.003906 C 388.730469 27.503906 387.648438 26.667969 386.398438 26.667969 C 385.1875 26.667969 384.6875 27.710938 384.4375 28.167969 C 383.980469 29.085938 383.648438 30.667969 383.648438 30.753906 C 383.648438 31.042969 383.898438 31.042969 383.9375 31.042969 C 384.230469 31.042969 384.230469 31.003906 384.398438 30.417969 C 384.855469 28.542969 385.398438 27.253906 386.355469 27.253906 C 386.855469 27.253906 387.148438 27.585938 387.148438 28.460938 C 387.148438 29.042969 387.0625 29.335938 386.730469 30.710938 Z M 385.1875 36.835938 "/>
<path fill-rule="nonzero" fill="rgb(0%, 0%, 0%)" fill-opacity="1" d="M 406.46875 31.753906 C 406.46875 29.710938 406.175781 26.503906 404.71875 23.460938 C 403.136719 20.210938 400.84375 18.460938 400.59375 18.460938 C 400.425781 18.460938 400.300781 18.585938 400.300781 18.753906 C 400.300781 18.835938 400.300781 18.878906 400.800781 19.378906 C 403.425781 22.003906 404.925781 26.210938 404.925781 31.753906 C 404.925781 36.335938 403.96875 41.003906 400.675781 44.335938 C 400.300781 44.667969 400.300781 44.710938 400.300781 44.792969 C 400.300781 44.960938 400.425781 45.085938 400.59375 45.085938 C 400.84375 45.085938 403.261719 43.253906 404.800781 39.878906 C 406.175781 36.960938 406.46875 34.003906 406.46875 31.753906 Z M 406.46875 31.753906 "/>
<path fill-rule="nonzero" fill="rgb(0%, 0%, 0%)" fill-opacity="1" d="M 98.863281 114.523438 C 99.113281 113.566406 99.152344 113.316406 101.152344 113.316406 C 101.738281 113.316406 101.988281 113.316406 101.988281 112.773438 C 101.988281 112.480469 101.738281 112.480469 101.277344 112.480469 L 97.777344 112.480469 C 97.070312 112.480469 97.027344 112.480469 96.738281 112.980469 L 87.027344 128.148438 L 84.945312 113.105469 C 84.863281 112.480469 84.820312 112.480469 84.113281 112.480469 L 80.488281 112.480469 C 79.988281 112.480469 79.695312 112.480469 79.695312 112.980469 C 79.695312 113.316406 79.945312 113.316406 80.445312 113.316406 C 80.820312 113.316406 81.277344 113.355469 81.613281 113.355469 C 82.027344 113.441406 82.195312 113.480469 82.195312 113.816406 C 82.195312 113.898438 82.152344 113.980469 82.070312 114.316406 L 78.695312 127.816406 C 78.445312 128.898438 77.988281 129.730469 75.820312 129.816406 C 75.695312 129.816406 75.363281 129.855469 75.363281 130.316406 C 75.363281 130.566406 75.527344 130.648438 75.738281 130.648438 C 76.570312 130.648438 77.488281 130.566406 78.402344 130.566406 C 79.277344 130.566406 80.238281 130.648438 81.113281 130.648438 C 81.238281 130.648438 81.613281 130.648438 81.613281 130.105469 C 81.613281 129.816406 81.320312 129.816406 81.113281 129.816406 C 79.613281 129.816406 79.320312 129.273438 79.320312 128.648438 C 79.320312 128.480469 79.320312 128.316406 79.402344 128.023438 L 83.027344 113.566406 L 83.070312 113.566406 L 85.363281 130.023438 C 85.402344 130.355469 85.445312 130.648438 85.738281 130.648438 C 86.027344 130.648438 86.195312 130.355469 86.320312 130.191406 L 97.070312 113.355469 L 97.113281 113.355469 L 93.277344 128.566406 C 93.027344 129.605469 92.988281 129.816406 90.863281 129.816406 C 90.445312 129.816406 90.152344 129.816406 90.152344 130.316406 C 90.152344 130.648438 90.445312 130.648438 90.527344 130.648438 C 91.277344 130.648438 93.070312 130.566406 93.820312 130.566406 C 94.902344 130.566406 96.070312 130.648438 97.152344 130.648438 C 97.320312 130.648438 97.652344 130.648438 97.652344 130.105469 C 97.652344 129.816406 97.402344 129.816406 96.902344 129.816406 C 95.945312 129.816406 95.195312 129.816406 95.195312 129.355469 C 95.195312 129.230469 95.195312 129.191406 95.320312 128.691406 Z M 98.863281 114.523438 "/>
<path fill-rule="nonzero" fill="rgb(0%, 0%, 0%)" fill-opacity="1" d="M 114.175781 122.839844 C 114.425781 122.757812 114.59375 122.589844 114.59375 122.382812 C 114.59375 122.089844 114.386719 121.882812 114.136719 121.882812 C 114.09375 121.882812 114.011719 121.882812 113.761719 122.007812 L 102.425781 127.464844 C 102.136719 127.589844 102.011719 127.757812 102.011719 127.964844 C 102.011719 128.171875 102.136719 128.296875 102.425781 128.464844 L 113.761719 133.882812 C 114.011719 134.007812 114.09375 134.007812 114.136719 134.007812 C 114.425781 134.007812 114.59375 133.757812 114.59375 133.589844 C 114.59375 133.257812 114.34375 133.171875 114.175781 133.089844 L 103.511719 127.964844 Z M 113.84375 138.089844 C 114.136719 138.089844 114.59375 138.089844 114.59375 137.671875 C 114.59375 137.214844 114.136719 137.214844 113.84375 137.214844 L 102.761719 137.214844 C 102.425781 137.214844 102.011719 137.214844 102.011719 137.671875 C 102.011719 138.089844 102.46875 138.089844 102.761719 138.089844 Z M 113.84375 138.089844 "/>
<path fill-rule="nonzero" fill="rgb(0%, 0%, 0%)" fill-opacity="1" d="M 118.867188 133.464844 C 118.824219 133.714844 118.699219 134.171875 118.699219 134.214844 C 118.699219 134.632812 119.03125 134.796875 119.324219 134.796875 C 119.65625 134.796875 119.949219 134.589844 120.074219 134.421875 C 120.15625 134.257812 120.28125 133.632812 120.40625 133.257812 C 120.492188 132.921875 120.699219 132.046875 120.78125 131.589844 C 120.90625 131.171875 121.03125 130.757812 121.117188 130.339844 C 121.324219 129.589844 121.367188 129.421875 121.90625 128.671875 C 122.40625 127.921875 123.28125 126.964844 124.699219 126.964844 C 125.742188 126.964844 125.78125 127.921875 125.78125 128.257812 C 125.78125 129.382812 124.992188 131.421875 124.699219 132.214844 C 124.492188 132.757812 124.40625 132.921875 124.40625 133.214844 C 124.40625 134.214844 125.199219 134.796875 126.15625 134.796875 C 128.03125 134.796875 128.824219 132.257812 128.824219 131.964844 C 128.824219 131.714844 128.617188 131.714844 128.53125 131.714844 C 128.28125 131.714844 128.28125 131.839844 128.199219 132.046875 C 127.78125 133.546875 126.949219 134.296875 126.242188 134.296875 C 125.824219 134.296875 125.742188 134.046875 125.742188 133.632812 C 125.742188 133.214844 125.867188 132.964844 126.199219 132.132812 C 126.40625 131.546875 127.15625 129.589844 127.15625 128.546875 C 127.15625 126.757812 125.742188 126.421875 124.742188 126.421875 C 123.199219 126.421875 122.15625 127.382812 121.617188 128.132812 C 121.492188 126.839844 120.40625 126.421875 119.617188 126.421875 C 118.824219 126.421875 118.40625 127.007812 118.15625 127.421875 C 117.742188 128.132812 117.492188 129.171875 117.492188 129.296875 C 117.492188 129.507812 117.742188 129.507812 117.824219 129.507812 C 118.074219 129.507812 118.074219 129.464844 118.199219 128.964844 C 118.492188 127.882812 118.867188 126.964844 119.574219 126.964844 C 120.074219 126.964844 120.199219 127.382812 120.199219 127.882812 C 120.199219 128.214844 120.03125 128.921875 119.867188 129.421875 C 119.742188 129.921875 119.574219 130.671875 119.492188 131.089844 Z M 118.867188 133.464844 "/>
<path fill-rule="nonzero" fill="rgb(0%, 0%, 0%)" fill-opacity="1" d="M 328.585938 125.066406 L 323.503906 112.980469 C 323.292969 112.441406 323.292969 112.441406 322.542969 112.441406 L 317.628906 112.441406 C 317.128906 112.441406 316.753906 112.441406 316.753906 112.898438 C 316.753906 113.355469 317.210938 113.355469 317.335938 113.355469 C 317.667969 113.355469 318.378906 113.441406 318.960938 113.648438 L 318.960938 127.816406 C 318.960938 128.398438 318.960938 129.566406 317.167969 129.730469 C 316.667969 129.773438 316.667969 130.148438 316.667969 130.191406 C 316.667969 130.648438 317.085938 130.648438 317.585938 130.648438 L 321.667969 130.648438 C 322.167969 130.648438 322.542969 130.648438 322.542969 130.191406 C 322.542969 129.941406 322.335938 129.730469 322.128906 129.730469 C 320.085938 129.566406 320.085938 128.441406 320.085938 127.816406 L 320.085938 114.605469 L 320.128906 114.566406 L 326.585938 130.105469 C 326.835938 130.566406 327.003906 130.648438 327.167969 130.648438 C 327.503906 130.648438 327.542969 130.441406 327.710938 130.105469 L 334.210938 114.566406 L 334.253906 114.605469 L 334.253906 127.816406 C 334.253906 128.398438 334.253906 129.566406 332.417969 129.730469 C 331.917969 129.773438 331.917969 130.148438 331.917969 130.191406 C 331.917969 130.648438 332.335938 130.648438 332.835938 130.648438 L 339.917969 130.648438 C 340.417969 130.648438 340.792969 130.648438 340.792969 130.191406 C 340.792969 129.941406 340.585938 129.730469 340.378906 129.730469 C 338.335938 129.566406 338.335938 128.441406 338.335938 127.816406 L 338.335938 115.273438 C 338.335938 114.691406 338.335938 113.523438 340.128906 113.355469 C 340.417969 113.355469 340.628906 113.191406 340.628906 112.898438 C 340.628906 112.441406 340.253906 112.441406 339.753906 112.441406 L 334.628906 112.441406 C 333.960938 112.441406 333.878906 112.441406 333.667969 112.980469 Z M 327.792969 125.566406 C 328.003906 125.980469 328.042969 126.023438 328.378906 126.148438 L 327.167969 128.941406 L 327.128906 128.941406 L 321.085938 114.480469 C 320.960938 114.148438 320.710938 113.691406 320.378906 113.355469 L 322.667969 113.355469 Z M 319.753906 129.730469 L 319.335938 129.730469 C 319.378906 129.648438 319.417969 129.566406 319.460938 129.523438 C 319.503906 129.480469 319.503906 129.441406 319.542969 129.441406 Z M 335.167969 113.355469 L 338.003906 113.355469 C 337.378906 114.023438 337.378906 114.730469 337.378906 115.191406 L 337.378906 127.898438 C 337.378906 128.355469 337.378906 129.066406 338.003906 129.730469 L 334.585938 129.730469 C 335.167969 129.066406 335.167969 128.355469 335.167969 127.898438 Z M 335.167969 113.355469 "/>
<path fill-rule="nonzero" fill="rgb(0%, 0%, 0%)" fill-opacity="1" d="M 343.550781 133.464844 C 343.507812 133.714844 343.382812 134.171875 343.382812 134.214844 C 343.382812 134.632812 343.71875 134.796875 344.007812 134.796875 C 344.34375 134.796875 344.632812 134.589844 344.757812 134.421875 C 344.84375 134.257812 344.96875 133.632812 345.09375 133.257812 C 345.175781 132.921875 345.382812 132.046875 345.46875 131.589844 C 345.59375 131.171875 345.71875 130.757812 345.800781 130.339844 C 346.007812 129.589844 346.050781 129.421875 346.59375 128.671875 C 347.09375 127.921875 347.96875 126.964844 349.382812 126.964844 C 350.425781 126.964844 350.46875 127.921875 350.46875 128.257812 C 350.46875 129.382812 349.675781 131.421875 349.382812 132.214844 C 349.175781 132.757812 349.09375 132.921875 349.09375 133.214844 C 349.09375 134.214844 349.882812 134.796875 350.84375 134.796875 C 352.71875 134.796875 353.507812 132.257812 353.507812 131.964844 C 353.507812 131.714844 353.300781 131.714844 353.21875 131.714844 C 352.96875 131.714844 352.96875 131.839844 352.882812 132.046875 C 352.46875 133.546875 351.632812 134.296875 350.925781 134.296875 C 350.507812 134.296875 350.425781 134.046875 350.425781 133.632812 C 350.425781 133.214844 350.550781 132.964844 350.882812 132.132812 C 351.09375 131.546875 351.84375 129.589844 351.84375 128.546875 C 351.84375 126.757812 350.425781 126.421875 349.425781 126.421875 C 347.882812 126.421875 346.84375 127.382812 346.300781 128.132812 C 346.175781 126.839844 345.09375 126.421875 344.300781 126.421875 C 343.507812 126.421875 343.09375 127.007812 342.84375 127.421875 C 342.425781 128.132812 342.175781 129.171875 342.175781 129.296875 C 342.175781 129.507812 342.425781 129.507812 342.507812 129.507812 C 342.757812 129.507812 342.757812 129.464844 342.882812 128.964844 C 343.175781 127.882812 343.550781 126.964844 344.257812 126.964844 C 344.757812 126.964844 344.882812 127.382812 344.882812 127.882812 C 344.882812 128.214844 344.71875 128.921875 344.550781 129.421875 C 344.425781 129.921875 344.257812 130.671875 344.175781 131.089844 Z M 343.550781 133.464844 "/>
<path fill="none" stroke-width="0.39848" stroke-linecap="butt" stroke-linejoin="miter" stroke="rgb(0%, 0%, 0%)" stroke-opacity="1" stroke-miterlimit="10" d="M -11.619408 17.440031 L 11.497292 17.440031 " transform="matrix(2.666667, 0, 0, -2.666667, 219.141337, 78.287999)"/>
<path fill="none" stroke-width="0.39848" stroke-linecap="round" stroke-linejoin="round" stroke="rgb(0%, 0%, 0%)" stroke-opacity="1" stroke-miterlimit="10" d="M -2.072807 2.393141 C -1.693413 0.954664 -0.849663 0.279371 0.00141144 -0.00187874 C -0.849663 -0.278734 -1.693413 -0.955492 -2.072807 -2.392504 " transform="matrix(2.666667, 0, 0, -2.666667, 250.328267, 31.77624)"/>
<path fill-rule="nonzero" fill="rgb(0%, 0%, 0%)" fill-opacity="1" d="M 174.242188 7.183594 C 174.242188 6.644531 173.785156 6.101562 173.160156 6.101562 C 172.617188 6.101562 172.117188 6.558594 172.117188 7.183594 C 172.117188 7.851562 172.660156 8.269531 173.160156 8.269531 C 173.785156 8.269531 174.242188 7.808594 174.242188 7.183594 Z M 171.410156 10.644531 L 171.410156 11.308594 C 172.574219 11.308594 172.742188 11.433594 172.742188 12.351562 L 172.742188 17.183594 C 172.742188 17.976562 172.574219 17.976562 171.367188 17.976562 L 171.367188 18.644531 C 171.410156 18.644531 172.699219 18.558594 173.449219 18.558594 C 174.117188 18.558594 174.785156 18.601562 175.410156 18.644531 L 175.410156 17.976562 C 174.324219 17.976562 174.160156 17.976562 174.160156 17.183594 L 174.160156 10.433594 Z M 171.410156 10.644531 "/>
<path fill-rule="nonzero" fill="rgb(0%, 0%, 0%)" fill-opacity="1" d="M 182.957031 5.933594 L 182.957031 6.601562 C 184.207031 6.601562 184.332031 6.769531 184.332031 7.644531 L 184.332031 11.519531 C 183.664062 10.851562 182.75 10.433594 181.75 10.433594 C 179.25 10.433594 177.207031 12.308594 177.207031 14.644531 C 177.207031 16.976562 179.164062 18.808594 181.5 18.808594 C 183.039062 18.808594 183.957031 18.019531 184.25 17.683594 L 184.25 18.808594 L 187.125 18.644531 L 187.125 17.976562 C 185.875 17.976562 185.75 17.851562 185.75 16.933594 L 185.75 5.726562 Z M 184.25 16.683594 C 183.789062 17.558594 182.832031 18.308594 181.625 18.308594 C 180.582031 18.308594 179.832031 17.683594 179.457031 17.144531 C 179.082031 16.601562 178.875 15.851562 178.875 14.683594 C 178.875 14.226562 178.875 12.851562 179.625 11.976562 C 180.375 11.144531 181.289062 10.976562 181.832031 10.976562 C 182.707031 10.976562 183.539062 11.394531 184.039062 12.058594 C 184.25 12.351562 184.25 12.351562 184.25 12.726562 Z M 184.25 16.683594 "/>
<path fill-rule="nonzero" fill="rgb(0%, 0%, 0%)" fill-opacity="1" d="M 201.074219 9.933594 C 201.28125 9.726562 201.324219 9.601562 201.324219 9.476562 C 201.324219 9.183594 201.117188 9.019531 200.90625 9.019531 C 200.699219 9.019531 200.65625 9.058594 200.449219 9.308594 L 196.367188 13.351562 L 192.28125 9.269531 C 192.074219 9.101562 192.03125 9.019531 191.867188 9.019531 C 191.574219 9.019531 191.367188 9.226562 191.367188 9.476562 C 191.367188 9.644531 191.449219 9.683594 191.65625 9.933594 L 195.699219 13.976562 L 191.65625 18.019531 C 191.40625 18.308594 191.367188 18.394531 191.367188 18.476562 C 191.367188 18.769531 191.574219 18.976562 191.867188 18.976562 C 192.03125 18.976562 192.074219 18.894531 192.28125 18.683594 L 196.367188 14.644531 L 200.617188 18.851562 C 200.699219 18.933594 200.78125 18.976562 200.90625 18.976562 C 201.117188 18.976562 201.324219 18.808594 201.324219 18.476562 C 201.324219 18.351562 201.324219 18.308594 201.242188 18.269531 C 201.199219 18.183594 197.617188 14.558594 197.03125 14.019531 Z M 201.074219 9.933594 "/>
<path fill-rule="nonzero" fill="rgb(0%, 0%, 0%)" fill-opacity="1" d="M 210.664062 14.019531 C 212.203125 13.351562 212.871094 13.101562 213.328125 12.851562 C 213.703125 12.726562 213.871094 12.644531 213.871094 12.269531 C 213.871094 11.976562 213.621094 11.683594 213.289062 11.683594 C 213.164062 11.683594 213.121094 11.683594 212.914062 11.851562 L 210.371094 13.558594 L 210.664062 10.808594 C 210.703125 10.476562 210.664062 10.019531 210.078125 10.019531 C 209.871094 10.019531 209.496094 10.144531 209.496094 10.558594 C 209.496094 10.726562 209.578125 11.269531 209.621094 11.476562 C 209.664062 11.769531 209.789062 13.144531 209.828125 13.558594 L 207.289062 11.851562 C 207.121094 11.769531 207.078125 11.683594 206.914062 11.683594 C 206.539062 11.683594 206.328125 11.976562 206.328125 12.269531 C 206.328125 12.644531 206.539062 12.769531 206.703125 12.808594 L 209.496094 14.019531 C 207.996094 14.683594 207.289062 14.933594 206.828125 15.144531 C 206.496094 15.308594 206.328125 15.394531 206.328125 15.726562 C 206.328125 16.058594 206.539062 16.308594 206.914062 16.308594 C 207.039062 16.308594 207.078125 16.308594 207.289062 16.144531 L 209.828125 14.476562 L 209.496094 17.433594 C 209.496094 17.851562 209.871094 18.019531 210.078125 18.019531 C 210.328125 18.019531 210.664062 17.851562 210.664062 17.433594 C 210.664062 17.269531 210.578125 16.726562 210.578125 16.558594 C 210.539062 16.226562 210.414062 14.894531 210.371094 14.476562 L 212.578125 15.933594 C 213.078125 16.308594 213.121094 16.308594 213.289062 16.308594 C 213.621094 16.308594 213.871094 16.058594 213.871094 15.726562 C 213.871094 15.351562 213.621094 15.269531 213.453125 15.183594 Z M 210.664062 14.019531 "/>
<path fill-rule="nonzero" fill="rgb(0%, 0%, 0%)" fill-opacity="1" d="M 219.480469 14.074219 C 219.769531 13.699219 220.394531 13.199219 221.605469 13.199219 C 222.605469 13.199219 224.144531 13.699219 224.144531 15.824219 C 224.144531 16.449219 224.019531 17.117188 223.855469 17.699219 C 223.6875 17.074219 223.019531 16.117188 221.480469 16.117188 C 220.519531 16.117188 219.519531 16.285156 218.230469 17.324219 C 217.019531 18.324219 216.9375 19.574219 216.9375 19.949219 C 216.9375 20.617188 217.230469 21.199219 217.855469 21.742188 C 218.519531 22.367188 219.3125 22.492188 220.144531 22.492188 C 224.105469 22.492188 225.4375 18.074219 225.4375 16.410156 C 225.4375 14.242188 223.855469 12.699219 221.605469 12.699219 C 219.144531 12.699219 218.5625 14.449219 218.5625 14.910156 C 218.5625 15.199219 218.769531 15.449219 219.105469 15.449219 C 219.605469 15.449219 219.9375 15.035156 219.9375 14.617188 C 219.9375 14.160156 219.480469 14.074219 219.480469 14.074219 Z M 220.1875 21.949219 C 218.6875 21.949219 218.230469 21.117188 218.230469 20.367188 C 218.230469 20.199219 218.394531 18.410156 219.269531 17.492188 C 220.1875 16.535156 221.230469 16.535156 221.5625 16.535156 C 222.980469 16.535156 223.605469 17.492188 223.605469 18.410156 C 223.605469 19.074219 222.855469 21.949219 220.1875 21.949219 Z M 220.1875 21.949219 "/>
<path fill-rule="nonzero" fill="rgb(0%, 0%, 0%)" fill-opacity="1" d="M 234.269531 12.992188 C 234.101562 12.742188 234.019531 12.699219 233.726562 12.699219 C 233.433594 12.699219 233.351562 12.742188 233.183594 12.992188 L 227.726562 21.867188 C 227.601562 21.992188 227.601562 22.035156 227.601562 22.035156 C 227.601562 22.199219 227.726562 22.199219 227.933594 22.199219 L 239.476562 22.199219 C 239.683594 22.199219 239.808594 22.199219 239.808594 22.035156 C 239.808594 22.035156 239.808594 21.992188 239.726562 21.867188 Z M 233.226562 14.035156 L 237.519531 20.992188 L 228.933594 20.992188 Z M 233.226562 14.035156 "/>
<path fill-rule="nonzero" fill="rgb(0%, 0%, 0%)" fill-opacity="1" d="M 235.558594 13.242188 C 235.433594 12.992188 235.390625 12.949219 235.140625 12.949219 C 234.976562 12.949219 234.851562 12.949219 234.726562 13.15625 L 229.933594 21.90625 C 229.851562 22.03125 229.851562 22.074219 229.851562 22.074219 C 229.851562 22.199219 229.976562 22.199219 230.183594 22.199219 L 240.140625 22.199219 C 240.351562 22.199219 240.433594 22.199219 240.433594 22.074219 C 240.433594 22.074219 240.433594 22.03125 240.351562 21.90625 Z M 234.726562 14.199219 L 238.515625 21.117188 L 230.890625 21.117188 Z M 234.726562 14.199219 "/>
<path fill-rule="nonzero" fill="rgb(0%, 0%, 0%)" fill-opacity="1" d="M 247.148438 12.535156 C 247.148438 12.535156 247.191406 12.492188 247.191406 12.410156 C 247.191406 12.367188 247.148438 12.242188 246.941406 12.242188 C 246.691406 12.242188 243.273438 14.367188 243.273438 18.867188 C 243.273438 23.367188 246.691406 25.535156 246.941406 25.535156 C 247.148438 25.535156 247.191406 25.410156 247.191406 25.324219 C 247.191406 25.242188 247.109375 25.199219 247.066406 25.160156 C 244.734375 23.285156 244.273438 20.574219 244.273438 18.867188 C 244.273438 15.617188 245.773438 13.492188 247.148438 12.535156 Z M 247.148438 12.535156 "/>
<path fill-rule="nonzero" fill="rgb(0%, 0%, 0%)" fill-opacity="1" d="M 251.054688 20.910156 C 250.972656 21.242188 250.847656 21.824219 250.847656 21.867188 C 250.847656 22.160156 251.097656 22.367188 251.347656 22.367188 C 251.511719 22.367188 251.804688 22.242188 251.972656 21.910156 C 251.972656 21.824219 252.136719 21.199219 252.222656 20.867188 C 252.679688 19.074219 252.679688 19.035156 252.679688 18.992188 C 252.886719 18.660156 253.847656 16.785156 255.429688 16.785156 C 256.097656 16.785156 256.390625 17.117188 256.390625 17.742188 C 256.390625 18.492188 255.804688 19.867188 255.511719 20.617188 C 255.429688 20.785156 255.386719 20.949219 255.386719 21.160156 C 255.386719 21.867188 256.054688 22.367188 256.847656 22.367188 C 258.265625 22.367188 258.972656 20.617188 258.972656 20.285156 C 258.972656 20.117188 258.765625 20.117188 258.722656 20.117188 C 258.472656 20.117188 258.472656 20.160156 258.390625 20.410156 C 258.140625 21.199219 257.515625 21.910156 256.890625 21.910156 C 256.597656 21.910156 256.472656 21.699219 256.472656 21.410156 C 256.472656 21.117188 256.554688 20.992188 256.679688 20.699219 C 256.890625 20.160156 257.515625 18.660156 257.515625 17.910156 C 257.515625 16.910156 256.804688 16.324219 255.511719 16.324219 C 254.304688 16.324219 253.472656 17.074219 253.011719 17.660156 C 252.972656 16.535156 251.886719 16.324219 251.386719 16.324219 C 250.054688 16.324219 249.679688 18.367188 249.679688 18.367188 C 249.679688 18.574219 249.886719 18.574219 249.972656 18.574219 C 250.179688 18.574219 250.222656 18.492188 250.261719 18.324219 C 250.472656 17.535156 250.761719 16.785156 251.347656 16.785156 C 251.761719 16.785156 251.886719 17.199219 251.886719 17.492188 C 251.886719 17.660156 251.722656 18.160156 251.679688 18.535156 C 251.554688 18.867188 251.429688 19.410156 251.386719 19.699219 Z M 251.054688 20.910156 "/>
<path fill-rule="nonzero" fill="rgb(0%, 0%, 0%)" fill-opacity="1" d="M 265.378906 18.867188 C 265.378906 14.367188 261.960938 12.242188 261.671875 12.242188 C 261.460938 12.242188 261.460938 12.410156 261.460938 12.410156 C 261.460938 12.449219 261.460938 12.492188 261.546875 12.574219 C 263.546875 14.160156 264.335938 16.492188 264.335938 18.867188 C 264.335938 20.074219 264.128906 21.324219 263.671875 22.410156 C 263.046875 23.910156 262.171875 24.660156 261.546875 25.199219 C 261.503906 25.199219 261.460938 25.285156 261.460938 25.324219 C 261.460938 25.367188 261.460938 25.535156 261.671875 25.535156 C 261.960938 25.535156 265.378906 23.410156 265.378906 18.867188 Z M 265.378906 18.867188 "/>
<path fill="none" stroke-width="0.39848" stroke-linecap="butt" stroke-linejoin="miter" stroke="rgb(0%, 0%, 0%)" stroke-opacity="1" stroke-miterlimit="10" d="M -43.681908 8.611418 L -43.681908 -8.579988 " transform="matrix(2.666667, 0, 0, -2.666667, 219.141337, 78.287999)"/>
<path fill="none" stroke-width="0.39848" stroke-linecap="round" stroke-linejoin="round" stroke="rgb(0%, 0%, 0%)" stroke-opacity="1" stroke-miterlimit="10" d="M -2.071301 2.389088 C -1.691906 0.955006 -0.848156 0.279713 -0.0000114441 -0.00153732 C -0.848156 -0.278393 -1.691906 -0.955151 -2.071301 -2.392162 " transform="matrix(0, 2.666667, 2.666667, 0, 102.66035, 101.699249)"/>
<path fill-rule="nonzero" fill="rgb(0%, 0%, 0%)" fill-opacity="1" d="M 82.34375 74.371094 C 81.96875 73.746094 81.34375 73.246094 80.429688 73.246094 C 78.054688 73.246094 75.636719 75.871094 75.636719 78.535156 C 75.636719 80.371094 76.84375 81.621094 78.46875 81.621094 C 79.46875 81.621094 80.34375 81.078125 81.09375 80.328125 C 81.429688 81.453125 82.511719 81.621094 83.011719 81.621094 C 83.679688 81.621094 84.136719 81.246094 84.46875 80.660156 C 84.886719 79.910156 85.136719 78.871094 85.136719 78.785156 C 85.136719 78.535156 84.886719 78.535156 84.84375 78.535156 C 84.554688 78.535156 84.554688 78.621094 84.429688 79.121094 C 84.179688 80.035156 83.84375 81.121094 83.054688 81.121094 C 82.59375 81.121094 82.429688 80.703125 82.429688 80.203125 C 82.429688 79.910156 82.59375 79.203125 82.71875 78.746094 C 82.84375 78.246094 83.054688 77.496094 83.136719 77.078125 L 83.511719 75.660156 C 83.636719 75.160156 83.84375 74.285156 83.84375 74.203125 C 83.84375 73.785156 83.511719 73.621094 83.21875 73.621094 C 82.886719 73.621094 82.46875 73.828125 82.34375 74.371094 Z M 81.179688 79.121094 C 81.054688 79.660156 80.636719 80.035156 80.21875 80.371094 C 80.054688 80.535156 79.304688 81.121094 78.511719 81.121094 C 77.804688 81.121094 77.136719 80.621094 77.136719 79.328125 C 77.136719 78.328125 77.679688 76.285156 78.136719 75.535156 C 78.96875 74.035156 79.929688 73.785156 80.429688 73.785156 C 81.71875 73.785156 82.09375 75.203125 82.09375 75.410156 C 82.09375 75.453125 82.054688 75.621094 82.054688 75.660156 Z M 81.179688 79.121094 "/>
<path fill-rule="nonzero" fill="rgb(0%, 0%, 0%)" fill-opacity="1" d="M 91.328125 75.652344 C 91.328125 75.277344 91.285156 75.277344 90.828125 75.277344 C 89.910156 76.109375 88.410156 76.109375 88.160156 76.109375 L 87.953125 76.109375 L 87.953125 76.691406 L 88.160156 76.691406 C 88.453125 76.691406 89.328125 76.652344 90.117188 76.316406 L 90.117188 82.984375 C 90.117188 83.359375 90.117188 83.527344 88.703125 83.527344 L 88.035156 83.527344 L 88.035156 84.109375 C 88.742188 84.066406 89.953125 84.066406 90.703125 84.066406 C 91.492188 84.066406 92.660156 84.066406 93.410156 84.109375 L 93.410156 83.527344 L 92.742188 83.527344 C 91.328125 83.527344 91.328125 83.359375 91.328125 82.984375 Z M 91.328125 75.652344 "/>
<path fill="none" stroke-width="0.39848" stroke-linecap="butt" stroke-linejoin="miter" stroke="rgb(0%, 0%, 0%)" stroke-opacity="1" stroke-miterlimit="10" d="M 43.817604 8.611418 L 43.817604 -8.524324 " transform="matrix(2.666667, 0, 0, -2.666667, 219.141337, 78.287999)"/>
<path fill="none" stroke-width="0.39848" stroke-linecap="round" stroke-linejoin="round" stroke="rgb(0%, 0%, 0%)" stroke-opacity="1" stroke-miterlimit="10" d="M -2.074535 2.389549 C -1.695141 0.956932 -0.851391 0.280174 -0.00031662 -0.00107574 C -0.851391 -0.277931 -1.695141 -0.957619 -2.074535 -2.391701 " transform="matrix(0, 2.666667, 2.666667, 0, 335.99115, 101.551626)"/>
<path fill-rule="nonzero" fill="rgb(0%, 0%, 0%)" fill-opacity="1" d="M 349.082031 71.113281 C 348.957031 70.78125 348.914062 70.699219 348.707031 70.699219 C 348.496094 70.699219 348.414062 70.863281 348.289062 71.074219 L 344.082031 82.199219 C 343.832031 82.78125 343.457031 83.074219 342.957031 83.113281 C 342.871094 83.113281 342.582031 83.15625 342.582031 83.449219 C 342.582031 83.78125 342.871094 83.78125 343.207031 83.78125 L 346.164062 83.78125 C 346.496094 83.78125 346.789062 83.78125 346.789062 83.449219 C 346.789062 83.15625 346.539062 83.15625 346.371094 83.113281 C 346.121094 83.113281 345.664062 83.03125 345.664062 81.90625 C 345.664062 81.324219 345.789062 80.699219 345.914062 80.113281 L 349.996094 80.113281 C 350.664062 81.949219 350.664062 82.238281 350.707031 82.613281 C 350.246094 83.074219 349.746094 83.113281 349.539062 83.113281 C 349.332031 83.15625 349.207031 83.28125 349.207031 83.449219 C 349.207031 83.78125 349.496094 83.78125 349.832031 83.78125 L 354.664062 83.78125 C 354.996094 83.78125 355.332031 83.78125 355.332031 83.449219 C 355.332031 83.199219 355.082031 83.15625 354.914062 83.113281 C 354.496094 83.074219 354.164062 82.738281 353.789062 81.90625 Z M 346.121094 79.488281 C 346.539062 77.824219 347.121094 76.238281 347.746094 74.699219 C 348.332031 75.949219 349.457031 78.613281 349.746094 79.488281 Z M 344.996094 81.53125 L 345.039062 81.574219 L 345.039062 81.738281 C 344.996094 81.78125 344.996094 81.824219 344.996094 81.90625 C 344.996094 81.988281 344.996094 82.699219 345.289062 83.113281 L 344.289062 83.113281 C 344.496094 82.863281 344.582031 82.65625 344.707031 82.363281 Z M 348.039062 73.699219 L 348.707031 71.90625 L 353.207031 82.15625 C 353.289062 82.363281 353.496094 82.78125 353.746094 83.113281 L 351.121094 83.113281 C 351.289062 83.03125 351.371094 82.738281 351.371094 82.53125 C 351.371094 81.40625 349.746094 77.613281 348.957031 75.78125 Z M 348.039062 73.699219 "/>
<path fill-rule="nonzero" fill="rgb(0%, 0%, 0%)" fill-opacity="1" d="M 358.261719 85.144531 C 358.179688 85.480469 358.054688 86.0625 358.054688 86.105469 C 358.054688 86.394531 358.304688 86.605469 358.554688 86.605469 C 358.722656 86.605469 359.011719 86.480469 359.179688 86.144531 C 359.179688 86.0625 359.347656 85.4375 359.429688 85.105469 C 359.886719 83.3125 359.886719 83.269531 359.886719 83.230469 C 360.097656 82.894531 361.054688 81.019531 362.636719 81.019531 C 363.304688 81.019531 363.597656 81.355469 363.597656 81.980469 C 363.597656 82.730469 363.011719 84.105469 362.722656 84.855469 C 362.636719 85.019531 362.597656 85.1875 362.597656 85.394531 C 362.597656 86.105469 363.261719 86.605469 364.054688 86.605469 C 365.472656 86.605469 366.179688 84.855469 366.179688 84.519531 C 366.179688 84.355469 365.972656 84.355469 365.929688 84.355469 C 365.679688 84.355469 365.679688 84.394531 365.597656 84.644531 C 365.347656 85.4375 364.722656 86.144531 364.097656 86.144531 C 363.804688 86.144531 363.679688 85.9375 363.679688 85.644531 C 363.679688 85.355469 363.761719 85.230469 363.886719 84.9375 C 364.097656 84.394531 364.722656 82.894531 364.722656 82.144531 C 364.722656 81.144531 364.011719 80.5625 362.722656 80.5625 C 361.511719 80.5625 360.679688 81.3125 360.222656 81.894531 C 360.179688 80.769531 359.097656 80.5625 358.597656 80.5625 C 357.261719 80.5625 356.886719 82.605469 356.886719 82.605469 C 356.886719 82.8125 357.097656 82.8125 357.179688 82.8125 C 357.386719 82.8125 357.429688 82.730469 357.472656 82.5625 C 357.679688 81.769531 357.972656 81.019531 358.554688 81.019531 C 358.972656 81.019531 359.097656 81.4375 359.097656 81.730469 C 359.097656 81.894531 358.929688 82.394531 358.886719 82.769531 C 358.761719 83.105469 358.636719 83.644531 358.597656 83.9375 Z M 358.261719 85.144531 "/>
<path fill="none" stroke-width="0.39848" stroke-linecap="butt" stroke-linejoin="miter" stroke="rgb(0%, 0%, 0%)" stroke-opacity="1" stroke-miterlimit="10" d="M -28.529564 -17.146395 L 31.509987 -17.146395 " transform="matrix(2.666667, 0, 0, -2.666667, 219.141337, 78.287999)"/>
<path fill="none" stroke-width="0.39848" stroke-linecap="round" stroke-linejoin="round" stroke="rgb(0%, 0%, 0%)" stroke-opacity="1" stroke-miterlimit="10" d="M -2.072128 2.389011 C -1.692734 0.956394 -0.848984 0.279636 -0.000839233 -0.00161362 C -0.848984 -0.278469 -1.692734 -0.958157 -2.072128 -2.392239 " transform="matrix(2.666667, 0, 0, -2.666667, 303.701457, 124.007416)"/>
<path fill-rule="nonzero" fill="rgb(0%, 0%, 0%)" fill-opacity="1" d="M 203.558594 134.292969 C 205.097656 133.625 205.765625 133.375 206.222656 133.125 C 206.597656 133 206.765625 132.917969 206.765625 132.542969 C 206.765625 132.25 206.515625 131.960938 206.183594 131.960938 C 206.058594 131.960938 206.015625 131.960938 205.808594 132.125 L 203.265625 133.835938 L 203.558594 131.085938 C 203.597656 130.75 203.558594 130.292969 202.972656 130.292969 C 202.765625 130.292969 202.390625 130.417969 202.390625 130.835938 C 202.390625 131 202.472656 131.542969 202.515625 131.75 C 202.558594 132.042969 202.683594 133.417969 202.722656 133.835938 L 200.183594 132.125 C 200.015625 132.042969 199.972656 131.960938 199.808594 131.960938 C 199.433594 131.960938 199.222656 132.25 199.222656 132.542969 C 199.222656 132.917969 199.433594 133.042969 199.597656 133.085938 L 202.390625 134.292969 C 200.890625 134.960938 200.183594 135.210938 199.722656 135.417969 C 199.390625 135.585938 199.222656 135.667969 199.222656 136 C 199.222656 136.335938 199.433594 136.585938 199.808594 136.585938 C 199.933594 136.585938 199.972656 136.585938 200.183594 136.417969 L 202.722656 134.75 L 202.390625 137.710938 C 202.390625 138.125 202.765625 138.292969 202.972656 138.292969 C 203.222656 138.292969 203.558594 138.125 203.558594 137.710938 C 203.558594 137.542969 203.472656 137 203.472656 136.835938 C 203.433594 136.5 203.308594 135.167969 203.265625 134.75 L 205.472656 136.210938 C 205.972656 136.585938 206.015625 136.585938 206.183594 136.585938 C 206.515625 136.585938 206.765625 136.335938 206.765625 136 C 206.765625 135.625 206.515625 135.542969 206.347656 135.460938 Z M 203.558594 134.292969 "/>
<path fill-rule="nonzero" fill="rgb(0%, 0%, 0%)" fill-opacity="1" d="M 214.652344 138.871094 L 212.109375 132.828125 C 211.984375 132.535156 211.984375 132.535156 211.609375 132.535156 L 209.152344 132.535156 C 208.902344 132.535156 208.691406 132.535156 208.691406 132.785156 C 208.691406 133.035156 208.941406 133.035156 209.027344 133.035156 C 209.191406 133.035156 209.527344 133.035156 209.816406 133.160156 L 209.816406 140.246094 C 209.816406 140.535156 209.816406 141.121094 208.902344 141.203125 C 208.652344 141.203125 208.652344 141.410156 208.652344 141.410156 C 208.652344 141.660156 208.902344 141.660156 209.109375 141.660156 L 211.191406 141.660156 C 211.402344 141.660156 211.609375 141.660156 211.609375 141.410156 C 211.609375 141.285156 211.527344 141.203125 211.402344 141.203125 C 210.402344 141.121094 210.402344 140.578125 210.402344 140.246094 L 210.402344 133.621094 L 213.652344 141.371094 C 213.734375 141.621094 213.859375 141.660156 213.902344 141.660156 C 214.066406 141.660156 214.109375 141.535156 214.191406 141.410156 L 217.441406 133.621094 L 217.441406 140.246094 C 217.441406 140.535156 217.441406 141.121094 216.566406 141.203125 C 216.316406 141.203125 216.316406 141.410156 216.316406 141.410156 C 216.316406 141.660156 216.527344 141.660156 216.734375 141.660156 L 220.316406 141.660156 C 220.527344 141.660156 220.734375 141.660156 220.734375 141.410156 C 220.734375 141.285156 220.652344 141.203125 220.527344 141.203125 C 219.484375 141.121094 219.484375 140.578125 219.484375 140.246094 L 219.484375 133.953125 C 219.484375 133.703125 219.484375 133.121094 220.402344 133.035156 C 220.527344 132.996094 220.652344 132.953125 220.652344 132.785156 C 220.652344 132.535156 220.441406 132.535156 220.234375 132.535156 L 217.652344 132.535156 C 217.316406 132.535156 217.277344 132.535156 217.152344 132.828125 Z M 214.234375 139.121094 C 214.359375 139.328125 214.359375 139.328125 214.527344 139.410156 L 213.941406 140.828125 L 213.902344 140.828125 L 210.859375 133.578125 C 210.816406 133.410156 210.691406 133.160156 210.527344 133.035156 L 211.691406 133.035156 Z M 210.234375 141.203125 L 209.984375 141.203125 C 210.027344 141.160156 210.066406 141.121094 210.066406 141.078125 C 210.109375 141.078125 210.109375 141.078125 210.109375 141.035156 Z M 217.902344 133.035156 L 219.316406 133.035156 C 219.027344 133.371094 219.027344 133.703125 219.027344 133.953125 L 219.027344 140.285156 C 219.027344 140.535156 219.027344 140.871094 219.359375 141.203125 L 217.609375 141.203125 C 217.902344 140.871094 217.902344 140.535156 217.902344 140.285156 Z M 217.902344 133.035156 "/>
<path fill-rule="nonzero" fill="rgb(0%, 0%, 0%)" fill-opacity="1" d="M 232.945312 137.851562 C 233.113281 137.769531 233.238281 137.644531 233.238281 137.476562 C 233.238281 137.269531 233.070312 137.101562 232.902344 137.101562 C 232.820312 137.101562 232.738281 137.101562 232.613281 137.183594 L 223.402344 141.351562 C 223.238281 141.433594 223.113281 141.558594 223.113281 141.769531 C 223.113281 141.933594 223.238281 142.058594 223.402344 142.144531 L 232.570312 146.308594 C 232.777344 146.433594 232.863281 146.433594 232.902344 146.433594 C 233.070312 146.433594 233.238281 146.226562 233.238281 146.058594 C 233.238281 145.851562 233.113281 145.726562 232.902344 145.644531 L 224.363281 141.769531 Z M 232.695312 149.558594 C 232.902344 149.558594 233.238281 149.558594 233.238281 149.183594 C 233.238281 148.808594 232.902344 148.808594 232.695312 148.808594 L 223.695312 148.808594 C 223.488281 148.808594 223.113281 148.808594 223.113281 149.183594 C 223.113281 149.558594 223.488281 149.558594 223.695312 149.558594 Z M 232.695312 149.558594 "/>
<path fill-rule="nonzero" fill="rgb(0%, 0%, 0%)" fill-opacity="1" d="M 237.960938 145.351562 C 237.878906 145.683594 237.753906 146.269531 237.753906 146.308594 C 237.753906 146.601562 238.003906 146.808594 238.253906 146.808594 C 238.421875 146.808594 238.710938 146.683594 238.878906 146.351562 C 238.878906 146.269531 239.046875 145.644531 239.128906 145.308594 C 239.585938 143.519531 239.585938 143.476562 239.585938 143.433594 C 239.796875 143.101562 240.753906 141.226562 242.335938 141.226562 C 243.003906 141.226562 243.296875 141.558594 243.296875 142.183594 C 243.296875 142.933594 242.710938 144.308594 242.421875 145.058594 C 242.335938 145.226562 242.296875 145.394531 242.296875 145.601562 C 242.296875 146.308594 242.960938 146.808594 243.753906 146.808594 C 245.171875 146.808594 245.878906 145.058594 245.878906 144.726562 C 245.878906 144.558594 245.671875 144.558594 245.628906 144.558594 C 245.378906 144.558594 245.378906 144.601562 245.296875 144.851562 C 245.046875 145.644531 244.421875 146.351562 243.796875 146.351562 C 243.503906 146.351562 243.378906 146.144531 243.378906 145.851562 C 243.378906 145.558594 243.460938 145.433594 243.585938 145.144531 C 243.796875 144.601562 244.421875 143.101562 244.421875 142.351562 C 244.421875 141.351562 243.710938 140.769531 242.421875 140.769531 C 241.210938 140.769531 240.378906 141.519531 239.921875 142.101562 C 239.878906 140.976562 238.796875 140.769531 238.296875 140.769531 C 236.960938 140.769531 236.585938 142.808594 236.585938 142.808594 C 236.585938 143.019531 236.796875 143.019531 236.878906 143.019531 C 237.085938 143.019531 237.128906 142.933594 237.171875 142.769531 C 237.378906 141.976562 237.671875 141.226562 238.253906 141.226562 C 238.671875 141.226562 238.796875 141.644531 238.796875 141.933594 C 238.796875 142.101562 238.628906 142.601562 238.585938 142.976562 C 238.460938 143.308594 238.335938 143.851562 238.296875 144.144531 Z M 237.960938 145.351562 "/>
</svg>
