<?xml version="1.0" encoding="UTF-8"?>
<svg xmlns="http://www.w3.org/2000/svg" xmlns:xlink="http://www.w3.org/1999/xlink" width="322.853333" height="137.519999" viewBox="0 0 322.853333 137.519999">
<defs>
<clipPath id="clip-0">
<path clip-rule="nonzero" d="M 86 0 L 295 0 L 295 137.519531 L 86 137.519531 Z M 86 0 "/>
</clipPath>
</defs>
<path fill-rule="nonzero" fill="rgb(0%, 0%, 0%)" fill-opacity="1" d="M 53.765625 15.449219 C 54.015625 14.488281 54.058594 14.238281 56.058594 14.238281 C 56.640625 14.238281 56.890625 14.238281 56.890625 13.699219 C 56.890625 13.40625 56.640625 13.40625 56.183594 13.40625 L 52.683594 13.40625 C 51.976562 13.40625 51.933594 13.40625 51.640625 13.90625 L 41.933594 29.074219 L 39.851562 14.03125 C 39.765625 13.40625 39.726562 13.40625 39.015625 13.40625 L 35.390625 13.40625 C 34.890625 13.40625 34.601562 13.40625 34.601562 13.90625 C 34.601562 14.238281 34.851562 14.238281 35.351562 14.238281 C 35.726562 14.238281 36.183594 14.28125 36.515625 14.28125 C 36.933594 14.363281 37.101562 14.40625 37.101562 14.738281 C 37.101562 14.824219 37.058594 14.90625 36.976562 15.238281 L 33.601562 28.738281 C 33.351562 29.824219 32.890625 30.65625 30.726562 30.738281 C 30.601562 30.738281 30.265625 30.78125 30.265625 31.238281 C 30.265625 31.488281 30.433594 31.574219 30.640625 31.574219 C 31.476562 31.574219 32.390625 31.488281 33.308594 31.488281 C 34.183594 31.488281 35.140625 31.574219 36.015625 31.574219 C 36.140625 31.574219 36.515625 31.574219 36.515625 31.03125 C 36.515625 30.738281 36.226562 30.738281 36.015625 30.738281 C 34.515625 30.738281 34.226562 30.199219 34.226562 29.574219 C 34.226562 29.40625 34.226562 29.238281 34.308594 28.949219 L 37.933594 14.488281 L 37.976562 14.488281 L 40.265625 30.949219 C 40.308594 31.28125 40.351562 31.574219 40.640625 31.574219 C 40.933594 31.574219 41.101562 31.28125 41.226562 31.113281 L 51.976562 14.28125 L 52.015625 14.28125 L 48.183594 29.488281 C 47.933594 30.53125 47.890625 30.738281 45.765625 30.738281 C 45.351562 30.738281 45.058594 30.738281 45.058594 31.238281 C 45.058594 31.574219 45.351562 31.574219 45.433594 31.574219 C 46.183594 31.574219 47.976562 31.488281 48.726562 31.488281 C 49.808594 31.488281 50.976562 31.574219 52.058594 31.574219 C 52.226562 31.574219 52.558594 31.574219 52.558594 31.03125 C 52.558594 30.738281 52.308594 30.738281 51.808594 30.738281 C 50.851562 30.738281 50.101562 30.738281 50.101562 30.28125 C 50.101562 30.15625 50.101562 30.113281 50.226562 29.613281 Z M 53.765625 15.449219 "/>
<path fill-rule="nonzero" fill="rgb(0%, 0%, 0%)" fill-opacity="1" d="M 61.121094 23.722656 C 61.121094 23.222656 61.121094 23.222656 60.582031 23.222656 C 59.371094 24.390625 57.707031 24.390625 56.957031 24.390625 L 56.957031 25.058594 C 57.371094 25.058594 58.621094 25.058594 59.621094 24.558594 L 59.621094 34.015625 C 59.621094 34.640625 59.621094 34.890625 57.789062 34.890625 L 57.082031 34.890625 L 57.082031 35.558594 C 57.414062 35.558594 59.707031 35.472656 60.371094 35.472656 C 60.957031 35.472656 63.289062 35.558594 63.707031 35.558594 L 63.707031 34.890625 L 62.996094 34.890625 C 61.121094 34.890625 61.121094 34.640625 61.121094 34.015625 Z M 61.121094 23.722656 "/>
<path fill-rule="nonzero" fill="rgb(0%, 0%, 0%)" fill-opacity="1" d="M 83.070312 24.199219 L 77.777344 18.90625 C 77.445312 18.574219 77.402344 18.53125 77.195312 18.53125 C 76.902344 18.53125 76.652344 18.738281 76.652344 19.074219 C 76.652344 19.238281 76.695312 19.28125 76.984375 19.574219 L 82.320312 24.90625 L 76.984375 30.28125 C 76.695312 30.574219 76.652344 30.613281 76.652344 30.78125 C 76.652344 31.113281 76.902344 31.324219 77.195312 31.324219 C 77.402344 31.324219 77.445312 31.28125 77.777344 30.949219 L 83.070312 25.65625 L 88.570312 31.15625 C 88.609375 31.199219 88.777344 31.324219 88.945312 31.324219 C 89.277344 31.324219 89.484375 31.113281 89.484375 30.78125 C 89.484375 30.738281 89.484375 30.65625 89.402344 30.488281 C 89.359375 30.449219 85.152344 26.28125 83.820312 24.90625 L 88.695312 20.074219 C 88.820312 19.90625 89.234375 19.574219 89.359375 19.40625 C 89.359375 19.363281 89.484375 19.238281 89.484375 19.074219 C 89.484375 18.738281 89.277344 18.53125 88.945312 18.53125 C 88.734375 18.53125 88.652344 18.613281 88.359375 18.90625 Z M 83.070312 24.199219 "/>
<path fill-rule="nonzero" fill="rgb(0%, 0%, 0%)" fill-opacity="1" d="M 111.59375 22.574219 C 111.34375 20.90625 110.261719 19.40625 108.179688 19.40625 C 106.554688 19.40625 104.84375 19.863281 102.761719 21.90625 C 100.554688 24.113281 100.386719 26.613281 100.386719 27.40625 C 100.386719 29.074219 101.554688 32.15625 105.261719 32.15625 C 111.59375 32.15625 114.34375 23.238281 114.34375 19.40625 C 114.34375 15.199219 111.886719 12.53125 108.59375 12.53125 C 104.761719 12.53125 103.511719 15.988281 103.511719 16.738281 C 103.511719 17.113281 103.761719 17.65625 104.554688 17.65625 C 105.429688 17.65625 105.96875 16.863281 105.96875 16.28125 C 105.96875 15.324219 105.136719 15.324219 104.71875 15.324219 C 105.886719 13.363281 107.804688 13.199219 108.554688 13.199219 C 110.511719 13.199219 112.34375 14.574219 112.34375 18.03125 C 112.34375 19.074219 112.179688 20.40625 111.636719 22.574219 Z M 105.34375 31.40625 C 102.429688 31.40625 102.429688 28.65625 102.429688 28.40625 C 102.429688 27.699219 103.09375 23.988281 104.179688 22.363281 C 105.21875 20.863281 106.554688 19.988281 108.179688 19.988281 C 111.09375 19.988281 111.136719 22.988281 111.136719 23.53125 C 111.136719 25.449219 109.429688 31.40625 105.34375 31.40625 Z M 105.34375 31.40625 "/>
<path fill-rule="nonzero" fill="rgb(0%, 0%, 0%)" fill-opacity="1" d="M 126.632812 13.03125 C 126.464844 12.65625 126.382812 12.53125 125.925781 12.53125 C 125.507812 12.53125 125.425781 12.65625 125.257812 13.03125 L 116.257812 31.03125 C 116.132812 31.28125 116.132812 31.324219 116.132812 31.363281 C 116.132812 31.574219 116.300781 31.574219 116.714844 31.574219 L 135.175781 31.574219 C 135.589844 31.574219 135.757812 31.574219 135.757812 31.363281 C 135.757812 31.324219 135.757812 31.28125 135.632812 31.03125 Z M 125.089844 15.199219 L 132.257812 29.574219 L 117.925781 29.574219 Z M 125.089844 15.199219 "/>
<path fill-rule="nonzero" fill="rgb(0%, 0%, 0%)" fill-opacity="1" d="M 128.996094 18.617188 C 128.871094 18.367188 128.828125 18.28125 128.539062 18.28125 C 128.203125 18.28125 128.164062 18.367188 128.039062 18.617188 L 121.746094 31.199219 C 121.664062 31.367188 121.664062 31.40625 121.664062 31.40625 C 121.664062 31.574219 121.789062 31.574219 122.078125 31.574219 L 134.953125 31.574219 C 135.246094 31.574219 135.371094 31.574219 135.371094 31.40625 C 135.371094 31.40625 135.371094 31.367188 135.289062 31.199219 Z M 127.914062 20.117188 L 132.914062 30.15625 L 122.914062 30.15625 Z M 127.914062 20.117188 "/>
<path fill-rule="nonzero" fill="rgb(0%, 0%, 0%)" fill-opacity="1" d="M 145.078125 37.949219 C 145.078125 37.863281 145.078125 37.824219 144.617188 37.363281 C 141.328125 34.03125 140.453125 28.988281 140.453125 24.90625 C 140.453125 20.28125 141.453125 15.65625 144.742188 12.363281 C 145.078125 12.03125 145.078125 11.988281 145.078125 11.90625 C 145.078125 11.699219 144.992188 11.613281 144.828125 11.613281 C 144.535156 11.613281 142.160156 13.449219 140.578125 16.824219 C 139.242188 19.738281 138.910156 22.699219 138.910156 24.90625 C 138.910156 26.988281 139.203125 30.199219 140.660156 33.238281 C 142.285156 36.488281 144.535156 38.238281 144.828125 38.238281 C 144.992188 38.238281 145.078125 38.15625 145.078125 37.949219 Z M 145.078125 37.949219 "/>
<path fill-rule="nonzero" fill="rgb(0%, 0%, 0%)" fill-opacity="1" d="M 154.425781 14.574219 C 154.425781 13.90625 154.425781 13.863281 153.800781 13.863281 C 152.136719 15.574219 149.800781 15.574219 148.96875 15.574219 L 148.96875 16.40625 C 149.511719 16.40625 151.050781 16.40625 152.425781 15.699219 L 152.425781 29.488281 C 152.425781 30.449219 152.34375 30.738281 149.96875 30.738281 L 149.136719 30.738281 L 149.136719 31.574219 C 150.050781 31.488281 152.34375 31.488281 153.425781 31.488281 C 154.46875 31.488281 156.800781 31.488281 157.71875 31.574219 L 157.71875 30.738281 L 156.886719 30.738281 C 154.46875 30.738281 154.425781 30.449219 154.425781 29.488281 Z M 154.425781 14.574219 "/>
<path fill-rule="nonzero" fill="rgb(0%, 0%, 0%)" fill-opacity="1" d="M 167.542969 24.90625 C 167.542969 22.863281 167.25 19.65625 165.792969 16.613281 C 164.210938 13.363281 161.917969 11.613281 161.667969 11.613281 C 161.5 11.613281 161.375 11.738281 161.375 11.90625 C 161.375 11.988281 161.375 12.03125 161.875 12.53125 C 164.5 15.15625 166 19.363281 166 24.90625 C 166 29.488281 165.042969 34.15625 161.75 37.488281 C 161.375 37.824219 161.375 37.863281 161.375 37.949219 C 161.375 38.113281 161.5 38.238281 161.667969 38.238281 C 161.917969 38.238281 164.335938 36.40625 165.875 33.03125 C 167.25 30.113281 167.542969 27.15625 167.542969 24.90625 Z M 167.542969 24.90625 "/>
<path fill-rule="nonzero" fill="rgb(0%, 0%, 0%)" fill-opacity="1" d="M 281.519531 15.449219 C 281.769531 14.488281 281.8125 14.238281 283.8125 14.238281 C 284.394531 14.238281 284.644531 14.238281 284.644531 13.699219 C 284.644531 13.40625 284.394531 13.40625 283.9375 13.40625 L 280.4375 13.40625 C 279.730469 13.40625 279.6875 13.40625 279.394531 13.90625 L 269.6875 29.074219 L 267.605469 14.03125 C 267.519531 13.40625 267.480469 13.40625 266.769531 13.40625 L 263.144531 13.40625 C 262.644531 13.40625 262.355469 13.40625 262.355469 13.90625 C 262.355469 14.238281 262.605469 14.238281 263.105469 14.238281 C 263.480469 14.238281 263.9375 14.28125 264.269531 14.28125 C 264.6875 14.363281 264.855469 14.40625 264.855469 14.738281 C 264.855469 14.824219 264.8125 14.90625 264.730469 15.238281 L 261.355469 28.738281 C 261.105469 29.824219 260.644531 30.65625 258.480469 30.738281 C 258.355469 30.738281 258.019531 30.78125 258.019531 31.238281 C 258.019531 31.488281 258.1875 31.574219 258.394531 31.574219 C 259.230469 31.574219 260.144531 31.488281 261.0625 31.488281 C 261.9375 31.488281 262.894531 31.574219 263.769531 31.574219 C 263.894531 31.574219 264.269531 31.574219 264.269531 31.03125 C 264.269531 30.738281 263.980469 30.738281 263.769531 30.738281 C 262.269531 30.738281 261.980469 30.199219 261.980469 29.574219 C 261.980469 29.40625 261.980469 29.238281 262.0625 28.949219 L 265.6875 14.488281 L 265.730469 14.488281 L 268.019531 30.949219 C 268.0625 31.28125 268.105469 31.574219 268.394531 31.574219 C 268.6875 31.574219 268.855469 31.28125 268.980469 31.113281 L 279.730469 14.28125 L 279.769531 14.28125 L 275.9375 29.488281 C 275.6875 30.53125 275.644531 30.738281 273.519531 30.738281 C 273.105469 30.738281 272.8125 30.738281 272.8125 31.238281 C 272.8125 31.574219 273.105469 31.574219 273.1875 31.574219 C 273.9375 31.574219 275.730469 31.488281 276.480469 31.488281 C 277.5625 31.488281 278.730469 31.574219 279.8125 31.574219 C 279.980469 31.574219 280.3125 31.574219 280.3125 31.03125 C 280.3125 30.738281 280.0625 30.738281 279.5625 30.738281 C 278.605469 30.738281 277.855469 30.738281 277.855469 30.28125 C 277.855469 30.15625 277.855469 30.113281 277.980469 29.613281 Z M 281.519531 15.449219 "/>
<path fill-rule="nonzero" fill="rgb(0%, 0%, 0%)" fill-opacity="1" d="M 288.878906 23.722656 C 288.878906 23.222656 288.878906 23.222656 288.335938 23.222656 C 287.128906 24.390625 285.460938 24.390625 284.710938 24.390625 L 284.710938 25.058594 C 285.128906 25.058594 286.378906 25.058594 287.378906 24.558594 L 287.378906 34.015625 C 287.378906 34.640625 287.378906 34.890625 285.542969 34.890625 L 284.835938 34.890625 L 284.835938 35.558594 C 285.167969 35.558594 287.460938 35.472656 288.128906 35.472656 C 288.710938 35.472656 291.042969 35.558594 291.460938 35.558594 L 291.460938 34.890625 L 290.753906 34.890625 C 288.878906 34.890625 288.878906 34.640625 288.878906 34.015625 Z M 288.878906 23.722656 "/>
<path fill-rule="nonzero" fill="rgb(0%, 0%, 0%)" fill-opacity="1" d="M 69.25 107.675781 C 69.5 106.71875 69.542969 106.46875 71.542969 106.46875 C 72.125 106.46875 72.375 106.46875 72.375 105.925781 C 72.375 105.636719 72.125 105.636719 71.667969 105.636719 L 68.167969 105.636719 C 67.460938 105.636719 67.417969 105.636719 67.125 106.136719 L 57.417969 121.300781 L 55.335938 106.261719 C 55.25 105.636719 55.210938 105.636719 54.5 105.636719 L 50.875 105.636719 C 50.375 105.636719 50.085938 105.636719 50.085938 106.136719 C 50.085938 106.46875 50.335938 106.46875 50.835938 106.46875 C 51.210938 106.46875 51.667969 106.511719 52 106.511719 C 52.417969 106.59375 52.585938 106.636719 52.585938 106.96875 C 52.585938 107.050781 52.542969 107.136719 52.460938 107.46875 L 49.085938 120.96875 C 48.835938 122.050781 48.375 122.886719 46.210938 122.96875 C 46.085938 122.96875 45.75 123.011719 45.75 123.46875 C 45.75 123.71875 45.917969 123.800781 46.125 123.800781 C 46.960938 123.800781 47.875 123.71875 48.792969 123.71875 C 49.667969 123.71875 50.625 123.800781 51.5 123.800781 C 51.625 123.800781 52 123.800781 52 123.261719 C 52 122.96875 51.710938 122.96875 51.5 122.96875 C 50 122.96875 49.710938 122.425781 49.710938 121.800781 C 49.710938 121.636719 49.710938 121.46875 49.792969 121.175781 L 53.417969 106.71875 L 53.460938 106.71875 L 55.75 123.175781 C 55.792969 123.511719 55.835938 123.800781 56.125 123.800781 C 56.417969 123.800781 56.585938 123.511719 56.710938 123.34375 L 67.460938 106.511719 L 67.5 106.511719 L 63.667969 121.71875 C 63.417969 122.761719 63.375 122.96875 61.25 122.96875 C 60.835938 122.96875 60.542969 122.96875 60.542969 123.46875 C 60.542969 123.800781 60.835938 123.800781 60.917969 123.800781 C 61.667969 123.800781 63.460938 123.71875 64.210938 123.71875 C 65.292969 123.71875 66.460938 123.800781 67.542969 123.800781 C 67.710938 123.800781 68.042969 123.800781 68.042969 123.261719 C 68.042969 122.96875 67.792969 122.96875 67.292969 122.96875 C 66.335938 122.96875 65.585938 122.96875 65.585938 122.511719 C 65.585938 122.386719 65.585938 122.34375 65.710938 121.84375 Z M 69.25 107.675781 "/>
<path fill-rule="nonzero" fill="rgb(0%, 0%, 0%)" fill-opacity="1" d="M 79.984375 121.871094 C 79.984375 119.828125 79.734375 118.328125 78.898438 117.035156 C 78.316406 116.203125 77.148438 115.453125 75.691406 115.453125 C 71.359375 115.453125 71.359375 120.535156 71.359375 121.871094 C 71.359375 123.203125 71.359375 128.160156 75.691406 128.160156 C 79.984375 128.160156 79.984375 123.203125 79.984375 121.871094 Z M 75.691406 127.621094 C 74.816406 127.621094 73.691406 127.121094 73.316406 125.621094 C 73.066406 124.535156 73.066406 122.996094 73.066406 121.621094 C 73.066406 120.246094 73.066406 118.828125 73.316406 117.828125 C 73.734375 116.371094 74.898438 115.953125 75.691406 115.953125 C 76.691406 115.953125 77.648438 116.578125 77.984375 117.660156 C 78.273438 118.660156 78.316406 119.996094 78.316406 121.621094 C 78.316406 122.996094 78.316406 124.371094 78.066406 125.535156 C 77.691406 127.246094 76.441406 127.621094 75.691406 127.621094 Z M 75.691406 127.621094 "/>
<path fill-rule="nonzero" fill="rgb(0%, 0%, 0%)" fill-opacity="1" d="M 107.945312 115.09375 C 108.363281 115.09375 108.863281 115.09375 108.863281 114.59375 C 108.863281 114.050781 108.363281 114.050781 107.988281 114.050781 L 92.070312 114.050781 C 91.695312 114.050781 91.195312 114.050781 91.195312 114.59375 C 91.195312 115.09375 91.695312 115.09375 92.070312 115.09375 Z M 107.988281 120.261719 C 108.363281 120.261719 108.863281 120.261719 108.863281 119.71875 C 108.863281 119.21875 108.363281 119.21875 107.945312 119.21875 L 92.070312 119.21875 C 91.695312 119.21875 91.195312 119.21875 91.195312 119.71875 C 91.195312 120.261719 91.695312 120.261719 92.070312 120.261719 Z M 107.988281 120.261719 "/>
<path fill-rule="nonzero" fill="rgb(0%, 0%, 0%)" fill-opacity="1" d="M 130.113281 118.21875 L 125.03125 106.136719 C 124.820312 105.59375 124.820312 105.59375 124.070312 105.59375 L 119.15625 105.59375 C 118.65625 105.59375 118.28125 105.59375 118.28125 106.050781 C 118.28125 106.511719 118.738281 106.511719 118.863281 106.511719 C 119.195312 106.511719 119.90625 106.59375 120.488281 106.800781 L 120.488281 120.96875 C 120.488281 121.550781 120.488281 122.71875 118.695312 122.886719 C 118.195312 122.925781 118.195312 123.300781 118.195312 123.34375 C 118.195312 123.800781 118.613281 123.800781 119.113281 123.800781 L 123.195312 123.800781 C 123.695312 123.800781 124.070312 123.800781 124.070312 123.34375 C 124.070312 123.09375 123.863281 122.886719 123.65625 122.886719 C 121.613281 122.71875 121.613281 121.59375 121.613281 120.96875 L 121.613281 107.761719 L 121.65625 107.71875 L 128.113281 123.261719 C 128.363281 123.71875 128.53125 123.800781 128.695312 123.800781 C 129.03125 123.800781 129.070312 123.59375 129.238281 123.261719 L 135.738281 107.71875 L 135.78125 107.761719 L 135.78125 120.96875 C 135.78125 121.550781 135.78125 122.71875 133.945312 122.886719 C 133.445312 122.925781 133.445312 123.300781 133.445312 123.34375 C 133.445312 123.800781 133.863281 123.800781 134.363281 123.800781 L 141.445312 123.800781 C 141.945312 123.800781 142.320312 123.800781 142.320312 123.34375 C 142.320312 123.09375 142.113281 122.886719 141.90625 122.886719 C 139.863281 122.71875 139.863281 121.59375 139.863281 120.96875 L 139.863281 108.425781 C 139.863281 107.84375 139.863281 106.675781 141.65625 106.511719 C 141.945312 106.511719 142.15625 106.34375 142.15625 106.050781 C 142.15625 105.59375 141.78125 105.59375 141.28125 105.59375 L 136.15625 105.59375 C 135.488281 105.59375 135.40625 105.59375 135.195312 106.136719 Z M 129.320312 118.71875 C 129.53125 119.136719 129.570312 119.175781 129.90625 119.300781 L 128.695312 122.09375 L 128.65625 122.09375 L 122.613281 107.636719 C 122.488281 107.300781 122.238281 106.84375 121.90625 106.511719 L 124.195312 106.511719 Z M 121.28125 122.886719 L 120.863281 122.886719 C 120.90625 122.800781 120.945312 122.71875 120.988281 122.675781 C 121.03125 122.636719 121.03125 122.59375 121.070312 122.59375 Z M 136.695312 106.511719 L 139.53125 106.511719 C 138.90625 107.175781 138.90625 107.886719 138.90625 108.34375 L 138.90625 121.050781 C 138.90625 121.511719 138.90625 122.21875 139.53125 122.886719 L 136.113281 122.886719 C 136.695312 122.21875 136.695312 121.511719 136.695312 121.050781 Z M 136.695312 106.511719 "/>
<path fill-rule="nonzero" fill="rgb(0%, 0%, 0%)" fill-opacity="1" d="M 152.414062 121.871094 C 152.414062 119.828125 152.164062 118.328125 151.332031 117.035156 C 150.75 116.203125 149.582031 115.453125 148.125 115.453125 C 143.789062 115.453125 143.789062 120.535156 143.789062 121.871094 C 143.789062 123.203125 143.789062 128.160156 148.125 128.160156 C 152.414062 128.160156 152.414062 123.203125 152.414062 121.871094 Z M 148.125 127.621094 C 147.25 127.621094 146.125 127.121094 145.75 125.621094 C 145.5 124.535156 145.5 122.996094 145.5 121.621094 C 145.5 120.246094 145.5 118.828125 145.75 117.828125 C 146.164062 116.371094 147.332031 115.953125 148.125 115.953125 C 149.125 115.953125 150.082031 116.578125 150.414062 117.660156 C 150.707031 118.660156 150.75 119.996094 150.75 121.621094 C 150.75 122.996094 150.75 124.371094 150.5 125.535156 C 150.125 127.246094 148.875 127.621094 148.125 127.621094 Z M 148.125 127.621094 "/>
<path fill-rule="nonzero" fill="rgb(0%, 0%, 0%)" fill-opacity="1" d="M 269.613281 118.21875 L 264.527344 106.136719 C 264.320312 105.59375 264.320312 105.59375 263.570312 105.59375 L 258.652344 105.59375 C 258.152344 105.59375 257.777344 105.59375 257.777344 106.050781 C 257.777344 106.511719 258.238281 106.511719 258.363281 106.511719 C 258.695312 106.511719 259.402344 106.59375 259.988281 106.800781 L 259.988281 120.96875 C 259.988281 121.550781 259.988281 122.71875 258.195312 122.886719 C 257.695312 122.925781 257.695312 123.300781 257.695312 123.34375 C 257.695312 123.800781 258.113281 123.800781 258.613281 123.800781 L 262.695312 123.800781 C 263.195312 123.800781 263.570312 123.800781 263.570312 123.34375 C 263.570312 123.09375 263.363281 122.886719 263.152344 122.886719 C 261.113281 122.71875 261.113281 121.59375 261.113281 120.96875 L 261.113281 107.761719 L 261.152344 107.71875 L 267.613281 123.261719 C 267.863281 123.71875 268.027344 123.800781 268.195312 123.800781 C 268.527344 123.800781 268.570312 123.59375 268.738281 123.261719 L 275.238281 107.71875 L 275.277344 107.761719 L 275.277344 120.96875 C 275.277344 121.550781 275.277344 122.71875 273.445312 122.886719 C 272.945312 122.925781 272.945312 123.300781 272.945312 123.34375 C 272.945312 123.800781 273.363281 123.800781 273.863281 123.800781 L 280.945312 123.800781 C 281.445312 123.800781 281.820312 123.800781 281.820312 123.34375 C 281.820312 123.09375 281.613281 122.886719 281.402344 122.886719 C 279.363281 122.71875 279.363281 121.59375 279.363281 120.96875 L 279.363281 108.425781 C 279.363281 107.84375 279.363281 106.675781 281.152344 106.511719 C 281.445312 106.511719 281.652344 106.34375 281.652344 106.050781 C 281.652344 105.59375 281.277344 105.59375 280.777344 105.59375 L 275.652344 105.59375 C 274.988281 105.59375 274.902344 105.59375 274.695312 106.136719 Z M 268.820312 118.71875 C 269.027344 119.136719 269.070312 119.175781 269.402344 119.300781 L 268.195312 122.09375 L 268.152344 122.09375 L 262.113281 107.636719 C 261.988281 107.300781 261.738281 106.84375 261.402344 106.511719 L 263.695312 106.511719 Z M 260.777344 122.886719 L 260.363281 122.886719 C 260.402344 122.800781 260.445312 122.71875 260.488281 122.675781 C 260.527344 122.636719 260.527344 122.59375 260.570312 122.59375 Z M 276.195312 106.511719 L 279.027344 106.511719 C 278.402344 107.175781 278.402344 107.886719 278.402344 108.34375 L 278.402344 121.050781 C 278.402344 121.511719 278.402344 122.21875 279.027344 122.886719 L 275.613281 122.886719 C 276.195312 122.21875 276.195312 121.511719 276.195312 121.050781 Z M 276.195312 106.511719 "/>
<path fill-rule="nonzero" fill="rgb(0%, 0%, 0%)" fill-opacity="1" d="M 288.535156 115.953125 C 288.535156 115.453125 288.535156 115.453125 287.996094 115.453125 C 286.785156 116.621094 285.121094 116.621094 284.371094 116.621094 L 284.371094 117.285156 C 284.785156 117.285156 286.035156 117.285156 287.035156 116.785156 L 287.035156 126.246094 C 287.035156 126.871094 287.035156 127.121094 285.203125 127.121094 L 284.496094 127.121094 L 284.496094 127.785156 C 284.828125 127.785156 287.121094 127.703125 287.785156 127.703125 C 288.371094 127.703125 290.703125 127.785156 291.121094 127.785156 L 291.121094 127.121094 L 290.410156 127.121094 C 288.535156 127.121094 288.535156 126.871094 288.535156 126.246094 Z M 288.535156 115.953125 "/>
<path fill="none" stroke-width="0.39848" stroke-linecap="butt" stroke-linejoin="miter" stroke="rgb(0%, 0%, 0%)" stroke-opacity="1" stroke-miterlimit="10" d="M 7.63203 16.796831 L 30.7458 16.796831 " transform="matrix(2.666667, 0, 0, -2.666667, 161.866669, 69.717331)"/>
<path fill="none" stroke-width="0.39848" stroke-linecap="round" stroke-linejoin="round" stroke="rgb(0%, 0%, 0%)" stroke-opacity="1" stroke-miterlimit="10" d="M -2.070732 2.392277 C -1.695732 0.958195 -0.851982 0.278507 0.000556946 0.00165176 C -0.851982 -0.279598 -1.695732 -0.956356 -2.070732 -2.388973 " transform="matrix(2.666667, 0, 0, -2.666667, 244.385234, 24.930186)"/>
<path fill-rule="nonzero" fill="rgb(0%, 0%, 0%)" fill-opacity="1" d="M 203.53125 16.644531 C 202.324219 16.644531 202.15625 16.644531 202.15625 15.851562 L 202.15625 12.851562 C 202.242188 12.9375 203.117188 13.894531 204.65625 13.894531 C 207.117188 13.894531 209.199219 12.0625 209.199219 9.726562 C 209.199219 7.4375 207.324219 5.519531 204.949219 5.519531 C 203.90625 5.519531 202.824219 5.9375 202.074219 6.6875 L 202.074219 5.519531 L 199.28125 5.726562 L 199.28125 6.394531 C 200.574219 6.394531 200.65625 6.519531 200.65625 7.269531 L 200.65625 15.851562 C 200.65625 16.644531 200.492188 16.644531 199.28125 16.644531 L 199.28125 17.351562 C 199.324219 17.351562 200.617188 17.269531 201.40625 17.269531 C 202.074219 17.269531 203.367188 17.3125 203.53125 17.351562 Z M 202.15625 7.519531 C 202.699219 6.601562 203.78125 6.144531 204.742188 6.144531 C 206.324219 6.144531 207.53125 7.769531 207.53125 9.726562 C 207.53125 11.851562 206.117188 13.394531 204.574219 13.394531 C 202.90625 13.394531 202.199219 11.976562 202.15625 11.851562 Z M 202.15625 7.519531 "/>
<path fill-rule="nonzero" fill="rgb(0%, 0%, 0%)" fill-opacity="1" d="M 213.789062 9.476562 C 213.789062 7.9375 214.496094 6.0625 216.289062 6.0625 C 216.121094 6.1875 215.957031 6.4375 215.957031 6.726562 C 215.957031 7.351562 216.457031 7.5625 216.789062 7.5625 C 217.246094 7.5625 217.664062 7.269531 217.664062 6.726562 C 217.664062 6.101562 217.039062 5.519531 216.164062 5.519531 C 215.246094 5.519531 214.207031 6.101562 213.664062 7.519531 L 213.664062 5.519531 L 210.996094 5.726562 L 210.996094 6.394531 C 212.246094 6.394531 212.371094 6.519531 212.371094 7.4375 L 212.371094 12.269531 C 212.371094 13.0625 212.207031 13.0625 210.996094 13.0625 L 210.996094 13.726562 C 211.082031 13.726562 212.332031 13.644531 213.121094 13.644531 C 213.914062 13.644531 214.707031 13.6875 215.539062 13.726562 L 215.539062 13.0625 L 215.164062 13.0625 C 213.789062 13.0625 213.789062 12.851562 213.789062 12.226562 Z M 213.789062 9.476562 "/>
<path fill-rule="nonzero" fill="rgb(0%, 0%, 0%)" fill-opacity="1" d="M 223.695312 10.214844 C 223.695312 9.839844 223.652344 9.839844 223.195312 9.839844 C 222.277344 10.671875 220.777344 10.671875 220.527344 10.671875 L 220.320312 10.671875 L 220.320312 11.253906 L 220.527344 11.253906 C 220.820312 11.253906 221.695312 11.214844 222.484375 10.878906 L 222.484375 17.546875 C 222.484375 17.921875 222.484375 18.089844 221.070312 18.089844 L 220.402344 18.089844 L 220.402344 18.671875 C 221.109375 18.628906 222.320312 18.628906 223.070312 18.628906 C 223.859375 18.628906 225.027344 18.628906 225.777344 18.671875 L 225.777344 18.089844 L 225.109375 18.089844 C 223.695312 18.089844 223.695312 17.921875 223.695312 17.546875 Z M 223.695312 10.214844 "/>
<path fill="none" stroke-width="0.39848" stroke-linecap="butt" stroke-linejoin="miter" stroke="rgb(0%, 0%, 0%)" stroke-opacity="1" stroke-miterlimit="10" d="M -23.317188 7.963823 L -23.317188 -9.171919 " transform="matrix(2.666667, 0, 0, -2.666667, 161.866669, 69.717331)"/>
<path fill="none" stroke-width="0.39848" stroke-linecap="round" stroke-linejoin="round" stroke="rgb(0%, 0%, 0%)" stroke-opacity="1" stroke-miterlimit="10" d="M -2.073673 2.390026 C -1.694279 0.955944 -0.850529 0.280651 0.000545502 -0.000598907 C -0.850529 -0.277454 -1.694279 -0.957142 -2.073673 -2.391224 " transform="matrix(0, 2.666667, 2.666667, 0, 99.689097, 94.705577)"/>
<path fill-rule="nonzero" fill="rgb(0%, 0%, 0%)" fill-opacity="1" d="M 76.464844 64.269531 C 76.339844 63.9375 76.296875 63.851562 76.089844 63.851562 C 75.882812 63.851562 75.796875 64.019531 75.671875 64.226562 L 71.464844 75.351562 C 71.214844 75.9375 70.839844 76.226562 70.339844 76.269531 C 70.257812 76.269531 69.964844 76.3125 69.964844 76.601562 C 69.964844 76.9375 70.257812 76.9375 70.589844 76.9375 L 73.546875 76.9375 C 73.882812 76.9375 74.171875 76.9375 74.171875 76.601562 C 74.171875 76.3125 73.921875 76.3125 73.757812 76.269531 C 73.507812 76.269531 73.046875 76.1875 73.046875 75.0625 C 73.046875 74.476562 73.171875 73.851562 73.296875 73.269531 L 77.382812 73.269531 C 78.046875 75.101562 78.046875 75.394531 78.089844 75.769531 C 77.632812 76.226562 77.132812 76.269531 76.921875 76.269531 C 76.714844 76.3125 76.589844 76.4375 76.589844 76.601562 C 76.589844 76.9375 76.882812 76.9375 77.214844 76.9375 L 82.046875 76.9375 C 82.382812 76.9375 82.714844 76.9375 82.714844 76.601562 C 82.714844 76.351562 82.464844 76.3125 82.296875 76.269531 C 81.882812 76.226562 81.546875 75.894531 81.171875 75.0625 Z M 73.507812 72.644531 C 73.921875 70.976562 74.507812 69.394531 75.132812 67.851562 C 75.714844 69.101562 76.839844 71.769531 77.132812 72.644531 Z M 72.382812 74.6875 L 72.421875 74.726562 L 72.421875 74.894531 C 72.382812 74.9375 72.382812 74.976562 72.382812 75.0625 C 72.382812 75.144531 72.382812 75.851562 72.671875 76.269531 L 71.671875 76.269531 C 71.882812 76.019531 71.964844 75.8125 72.089844 75.519531 Z M 75.421875 66.851562 L 76.089844 65.0625 L 80.589844 75.3125 C 80.671875 75.519531 80.882812 75.9375 81.132812 76.269531 L 78.507812 76.269531 C 78.671875 76.1875 78.757812 75.894531 78.757812 75.6875 C 78.757812 74.5625 77.132812 70.769531 76.339844 68.9375 Z M 75.421875 66.851562 "/>
<path fill-rule="nonzero" fill="rgb(0%, 0%, 0%)" fill-opacity="1" d="M 91.0625 75.34375 C 91.0625 74.382812 91.0625 70.757812 87.5625 70.757812 C 84.105469 70.757812 84.105469 74.382812 84.105469 75.34375 C 84.105469 76.300781 84.105469 79.882812 87.5625 79.882812 C 91.0625 79.882812 91.0625 76.300781 91.0625 75.34375 Z M 87.5625 79.425781 C 87.105469 79.425781 85.980469 79.257812 85.648438 77.925781 C 85.4375 77.21875 85.4375 76.257812 85.4375 75.175781 C 85.4375 74.175781 85.4375 73.257812 85.648438 72.507812 C 85.980469 71.382812 87.023438 71.175781 87.5625 71.175781 C 88.5625 71.175781 89.273438 71.675781 89.523438 72.632812 C 89.730469 73.300781 89.730469 74.382812 89.730469 75.175781 C 89.730469 76.09375 89.730469 77.175781 89.523438 77.96875 C 89.1875 79.257812 88.105469 79.425781 87.5625 79.425781 Z M 87.5625 79.425781 "/>
<path fill="none" stroke-width="0.39848" stroke-linecap="butt" stroke-linejoin="miter" stroke="rgb(0%, 0%, 0%)" stroke-opacity="1" stroke-miterlimit="10" d="M 42.701855 8.959917 L 42.701855 -9.171919 " transform="matrix(2.666667, 0, 0, -2.666667, 161.866669, 69.717331)"/>
<path fill="none" stroke-width="0.39848" stroke-linecap="round" stroke-linejoin="round" stroke="rgb(0%, 0%, 0%)" stroke-opacity="1" stroke-miterlimit="10" d="M -2.073673 2.392624 C -1.694279 0.955612 -0.850529 0.278854 0.000545502 -0.00239563 C -0.850529 -0.279251 -1.694279 -0.954544 -2.073673 -2.393021 " transform="matrix(0, 2.666667, 2.666667, 0, 275.74467, 94.705577)"/>
<path fill-rule="nonzero" fill="rgb(0%, 0%, 0%)" fill-opacity="1" d="M 288 66.867188 C 289.542969 66.199219 290.207031 65.949219 290.667969 65.699219 C 291.042969 65.574219 291.207031 65.492188 291.207031 65.117188 C 291.207031 64.824219 290.957031 64.53125 290.625 64.53125 C 290.5 64.53125 290.457031 64.53125 290.25 64.699219 L 287.707031 66.40625 L 288 63.65625 C 288.042969 63.324219 288 62.867188 287.417969 62.867188 C 287.207031 62.867188 286.832031 62.992188 286.832031 63.40625 C 286.832031 63.574219 286.917969 64.117188 286.957031 64.324219 C 287 64.617188 287.125 65.992188 287.167969 66.40625 L 284.625 64.699219 C 284.457031 64.617188 284.417969 64.53125 284.25 64.53125 C 283.875 64.53125 283.667969 64.824219 283.667969 65.117188 C 283.667969 65.492188 283.875 65.617188 284.042969 65.65625 L 286.832031 66.867188 C 285.332031 67.53125 284.625 67.78125 284.167969 67.992188 C 283.832031 68.15625 283.667969 68.242188 283.667969 68.574219 C 283.667969 68.90625 283.875 69.15625 284.25 69.15625 C 284.375 69.15625 284.417969 69.15625 284.625 68.992188 L 287.167969 67.324219 L 286.832031 70.28125 C 286.832031 70.699219 287.207031 70.867188 287.417969 70.867188 C 287.667969 70.867188 288 70.699219 288 70.28125 C 288 70.117188 287.917969 69.574219 287.917969 69.40625 C 287.875 69.074219 287.75 67.742188 287.707031 67.324219 L 289.917969 68.78125 C 290.417969 69.15625 290.457031 69.15625 290.625 69.15625 C 290.957031 69.15625 291.207031 68.90625 291.207031 68.574219 C 291.207031 68.199219 290.957031 68.117188 290.792969 68.03125 Z M 288 66.867188 "/>
<path fill-rule="nonzero" fill="rgb(0%, 0%, 0%)" fill-opacity="1" d="M 299.09375 71.441406 L 296.550781 65.402344 C 296.425781 65.109375 296.425781 65.109375 296.050781 65.109375 L 293.59375 65.109375 C 293.34375 65.109375 293.136719 65.109375 293.136719 65.359375 C 293.136719 65.609375 293.386719 65.609375 293.46875 65.609375 C 293.636719 65.609375 293.96875 65.609375 294.261719 65.734375 L 294.261719 72.816406 C 294.261719 73.109375 294.261719 73.691406 293.34375 73.777344 C 293.09375 73.777344 293.09375 73.984375 293.09375 73.984375 C 293.09375 74.234375 293.34375 74.234375 293.550781 74.234375 L 295.636719 74.234375 C 295.84375 74.234375 296.050781 74.234375 296.050781 73.984375 C 296.050781 73.859375 295.96875 73.777344 295.84375 73.777344 C 294.84375 73.691406 294.84375 73.152344 294.84375 72.816406 L 294.84375 66.191406 L 298.09375 73.941406 C 298.175781 74.191406 298.300781 74.234375 298.34375 74.234375 C 298.511719 74.234375 298.550781 74.109375 298.636719 73.984375 L 301.886719 66.191406 L 301.886719 72.816406 C 301.886719 73.109375 301.886719 73.691406 301.011719 73.777344 C 300.761719 73.777344 300.761719 73.984375 300.761719 73.984375 C 300.761719 74.234375 300.96875 74.234375 301.175781 74.234375 L 304.761719 74.234375 C 304.96875 74.234375 305.175781 74.234375 305.175781 73.984375 C 305.175781 73.859375 305.09375 73.777344 304.96875 73.777344 C 303.925781 73.691406 303.925781 73.152344 303.925781 72.816406 L 303.925781 66.527344 C 303.925781 66.277344 303.925781 65.691406 304.84375 65.609375 C 304.96875 65.566406 305.09375 65.527344 305.09375 65.359375 C 305.09375 65.109375 304.886719 65.109375 304.675781 65.109375 L 302.09375 65.109375 C 301.761719 65.109375 301.71875 65.109375 301.59375 65.402344 Z M 298.675781 71.691406 C 298.800781 71.902344 298.800781 71.902344 298.96875 71.984375 L 298.386719 73.402344 L 298.34375 73.402344 L 295.300781 66.152344 C 295.261719 65.984375 295.136719 65.734375 294.96875 65.609375 L 296.136719 65.609375 Z M 294.675781 73.777344 L 294.425781 73.777344 C 294.46875 73.734375 294.511719 73.691406 294.511719 73.652344 C 294.550781 73.652344 294.550781 73.652344 294.550781 73.609375 Z M 302.34375 65.609375 L 303.761719 65.609375 C 303.46875 65.941406 303.46875 66.277344 303.46875 66.527344 L 303.46875 72.859375 C 303.46875 73.109375 303.46875 73.441406 303.800781 73.777344 L 302.050781 73.777344 C 302.34375 73.441406 302.34375 73.109375 302.34375 72.859375 Z M 302.34375 65.609375 "/>
<path fill-rule="nonzero" fill="rgb(0%, 0%, 0%)" fill-opacity="1" d="M 310.722656 69.761719 C 310.722656 69.386719 310.679688 69.386719 310.222656 69.386719 C 309.304688 70.222656 307.804688 70.222656 307.554688 70.222656 L 307.347656 70.222656 L 307.347656 70.804688 L 307.554688 70.804688 C 307.847656 70.804688 308.722656 70.761719 309.511719 70.429688 L 309.511719 77.097656 C 309.511719 77.472656 309.511719 77.636719 308.097656 77.636719 L 307.429688 77.636719 L 307.429688 78.222656 C 308.136719 78.179688 309.347656 78.179688 310.097656 78.179688 C 310.886719 78.179688 312.054688 78.179688 312.804688 78.222656 L 312.804688 77.636719 L 312.136719 77.636719 C 310.722656 77.636719 310.722656 77.472656 310.722656 77.097656 Z M 310.722656 69.761719 "/>
<g clip-path="url(#clip-0)">
<path fill="none" stroke-width="2.33075" stroke-linecap="butt" stroke-linejoin="miter" stroke="rgb(0%, 0%, 0%)" stroke-opacity="1" stroke-miterlimit="10" d="M 4.730175 -3.098677 L 16.850292 3.25728 " transform="matrix(2.666667, 0, 0, -2.666667, 161.866669, 69.717331)"/>
</g>
<path fill="none" stroke-width="1.53377" stroke-linecap="butt" stroke-linejoin="miter" stroke="rgb(100%, 100%, 100%)" stroke-opacity="1" stroke-miterlimit="10" d="M 4.730175 -3.098677 L 16.850292 3.25728 " transform="matrix(2.666667, 0, 0, -2.666667, 161.866669, 69.717331)"/>
<path fill="none" stroke-width="0.39848" stroke-linecap="round" stroke-linejoin="round" stroke="rgb(0%, 0%, 0%)" stroke-opacity="1" stroke-miterlimit="10" d="M -1.295334 2.55939 C -0.667748 1.206832 1.022404 0.048354 1.989282 -0.00015558 C 1.023813 -0.0499598 -0.666392 -1.205158 -1.293031 -2.562064 " transform="matrix(2.361947, -1.2376, -1.2376, -2.361947, 206.801229, 61.035787)"/>
<path fill-rule="nonzero" fill="rgb(0%, 0%, 0%)" fill-opacity="1" d="M 205.3125 74.988281 C 205.3125 74.949219 205.355469 74.699219 205.355469 74.699219 C 205.355469 74.574219 205.3125 74.40625 205.0625 74.40625 C 204.6875 74.40625 203.148438 74.574219 202.6875 74.613281 C 202.5625 74.613281 202.273438 74.65625 202.273438 75.03125 C 202.273438 75.28125 202.5625 75.28125 202.773438 75.28125 C 203.648438 75.28125 203.648438 75.449219 203.648438 75.574219 C 203.648438 75.699219 203.605469 75.824219 203.605469 75.988281 L 200.980469 86.488281 C 200.855469 86.824219 200.855469 86.863281 200.855469 86.90625 C 200.855469 87.199219 201.105469 87.488281 201.523438 87.488281 C 201.730469 87.488281 202.0625 87.40625 202.273438 87.03125 C 202.3125 86.90625 202.480469 86.238281 202.5625 85.863281 L 203.023438 84.199219 C 203.0625 83.90625 203.273438 83.199219 203.3125 82.949219 C 203.480469 82.238281 203.480469 82.199219 203.855469 81.613281 C 204.480469 80.699219 205.398438 79.65625 206.855469 79.65625 C 207.898438 79.65625 207.9375 80.488281 207.9375 80.949219 C 207.9375 82.074219 207.148438 84.113281 206.855469 84.90625 C 206.648438 85.449219 206.5625 85.613281 206.5625 85.90625 C 206.5625 86.90625 207.398438 87.488281 208.3125 87.488281 C 210.1875 87.488281 211.023438 84.949219 211.023438 84.65625 C 211.023438 84.40625 210.773438 84.40625 210.6875 84.40625 C 210.4375 84.40625 210.4375 84.53125 210.355469 84.738281 C 209.9375 86.238281 209.105469 86.988281 208.398438 86.988281 C 207.980469 86.988281 207.898438 86.738281 207.898438 86.324219 C 207.898438 85.90625 208.023438 85.65625 208.355469 84.824219 C 208.5625 84.238281 209.3125 82.28125 209.3125 81.238281 C 209.3125 80.949219 209.3125 80.15625 208.648438 79.613281 C 208.3125 79.40625 207.773438 79.113281 206.898438 79.113281 C 205.5625 79.113281 204.5625 79.863281 203.898438 80.65625 Z M 205.3125 74.988281 "/>
<path fill-rule="nonzero" fill="rgb(0%, 0%, 0%)" fill-opacity="1" d="M 217.210938 81.519531 C 217.210938 81.144531 217.167969 81.144531 216.710938 81.144531 C 215.792969 81.980469 214.292969 81.980469 214.042969 81.980469 L 213.835938 81.980469 L 213.835938 82.5625 L 214.042969 82.5625 C 214.335938 82.5625 215.210938 82.519531 216 82.1875 L 216 88.855469 C 216 89.230469 216 89.394531 214.585938 89.394531 L 213.917969 89.394531 L 213.917969 89.980469 C 214.625 89.9375 215.835938 89.9375 216.585938 89.9375 C 217.375 89.9375 218.542969 89.9375 219.292969 89.980469 L 219.292969 89.394531 L 218.625 89.394531 C 217.210938 89.394531 217.210938 89.230469 217.210938 88.855469 Z M 217.210938 81.519531 "/>
<path fill="none" stroke-width="0.39848" stroke-linecap="butt" stroke-linejoin="miter" stroke="rgb(0%, 0%, 0%)" stroke-opacity="1" stroke-miterlimit="10" d="M 1.823925 -17.789595 L 30.874706 -17.789595 " transform="matrix(2.666667, 0, 0, -2.666667, 161.866669, 69.717331)"/>
<path fill="none" stroke-width="0.39848" stroke-linecap="round" stroke-linejoin="round" stroke="rgb(0%, 0%, 0%)" stroke-opacity="1" stroke-miterlimit="10" d="M -2.072723 2.392521 C -1.694794 0.955509 -0.851044 0.278751 0.00149536 0.0018959 C -0.851044 -0.279354 -1.694794 -0.954647 -2.072723 -2.393124 " transform="matrix(2.666667, 0, 0, -2.666667, 244.726481, 117.161306)"/>
<path fill-rule="nonzero" fill="rgb(0%, 0%, 0%)" fill-opacity="1" d="M 250.757812 99.8125 C 250.464844 99.8125 250.007812 99.8125 250.007812 100.230469 C 250.007812 100.730469 250.425781 100.730469 250.757812 100.730469 L 257.257812 100.730469 C 257.882812 100.730469 257.964844 100.605469 257.964844 100.023438 L 257.964844 93.4375 C 257.964844 93.148438 257.964844 92.730469 257.550781 92.730469 C 257.050781 92.730469 257.050781 93.230469 257.050781 93.523438 L 257.050781 99.8125 Z M 250.757812 99.8125 "/>
</svg>
