<?xml version="1.0" encoding="UTF-8"?>
<svg xmlns="http://www.w3.org/2000/svg" xmlns:xlink="http://www.w3.org/1999/xlink" width="286.533325" height="271.440002" viewBox="0 0 286.533325 271.440002">
<defs>
<clipPath id="clip-0">
<path clip-rule="nonzero" d="M 36 21.332031 L 286.53125 21.332031 L 286.53125 271.4375 L 36 271.4375 Z M 36 21.332031 "/>
</clipPath>
<clipPath id="clip-1">
<path clip-rule="nonzero" d="M 43 28 L 286.53125 28 L 286.53125 271.4375 L 43 271.4375 Z M 43 28 "/>
</clipPath>
</defs>
<g clip-path="url(#clip-0)">
<path fill="none" stroke-width="0.3985" stroke-linecap="butt" stroke-linejoin="miter" stroke="rgb(0%, 0%, 0%)" stroke-opacity="1" stroke-miterlimit="10" d="M 0.000293732 0.000221252 L 85.040333 0.000221252 M 0.000293732 28.347878 L 85.040333 28.347878 M 0.000293732 56.695534 L 85.040333 56.695534 M 0.000293732 85.031471 L 85.040333 85.031471 M 0.000293732 0.000221252 L 0.000293732 85.038795 M 28.34795 0.000221252 L 28.34795 85.038795 M 56.692677 0.000221252 L 56.692677 85.038795 M 85.031544 0.000221252 L 85.031544 85.038795 M 0.000293732 28.347878 L 56.692677 85.038795 M 0.000293732 0.000221252 L 85.040333 85.038795 M 28.34795 0.000221252 L 85.040333 56.695534 M 56.692677 0.000221252 L 85.040333 28.347878 " transform="matrix(2.666667, 0, 0, -2.666667, 51.799998, 263.46934)"/>
</g>
<path fill="none" stroke-width="1.59404" stroke-linecap="butt" stroke-linejoin="miter" stroke="rgb(0%, 0%, 0%)" stroke-opacity="1" stroke-miterlimit="10" d="M 0.000293732 56.695534 L 28.34795 85.038795 " transform="matrix(2.666667, 0, 0, -2.666667, 51.799998, 263.46934)"/>
<path fill="none" stroke-width="1.59404" stroke-linecap="butt" stroke-linejoin="miter" stroke="rgb(0%, 0%, 0%)" stroke-opacity="1" stroke-miterlimit="10" d="M 0.000293732 28.347878 L 0.000293732 56.695534 " transform="matrix(2.666667, 0, 0, -2.666667, 51.799998, 263.46934)"/>
<path fill="none" stroke-width="1.59404" stroke-linecap="butt" stroke-linejoin="miter" stroke="rgb(0%, 0%, 0%)" stroke-opacity="1" stroke-miterlimit="10" d="M 0.000293732 28.347878 L 28.34795 28.347878 " transform="matrix(2.666667, 0, 0, -2.666667, 51.799998, 263.46934)"/>
<path fill="none" stroke-width="1.59404" stroke-linecap="butt" stroke-linejoin="miter" stroke="rgb(0%, 0%, 0%)" stroke-opacity="1" stroke-miterlimit="10" d="M 28.34795 28.347878 L 56.692677 56.695534 " transform="matrix(2.666667, 0, 0, -2.666667, 51.799998, 263.46934)"/>
<path fill="none" stroke-width="1.59404" stroke-linecap="butt" stroke-linejoin="miter" stroke="rgb(0%, 0%, 0%)" stroke-opacity="1" stroke-miterlimit="10" d="M 56.692677 56.695534 L 56.692677 85.038795 " transform="matrix(2.666667, 0, 0, -2.666667, 51.799998, 263.46934)"/>
<path fill="none" stroke-width="1.59404" stroke-linecap="butt" stroke-linejoin="miter" stroke="rgb(0%, 0%, 0%)" stroke-opacity="1" stroke-miterlimit="10" d="M 28.34795 85.038795 L 56.692677 85.038795 " transform="matrix(2.666667, 0, 0, -2.666667, 51.799998, 263.46934)"/>
<g clip-path="url(#clip-1)">
<path fill-rule="nonzero" fill="rgb(0%, 0%, 0%)" fill-opacity="1" d="M 59.769531 263.46875 C 59.769531 259.0625 56.199219 255.5 51.800781 255.5 C 47.394531 255.5 43.832031 259.0625 43.832031 263.46875 C 43.832031 267.875 47.394531 271.4375 51.800781 271.4375 C 56.199219 271.4375 59.769531 267.875 59.769531 263.46875 Z M 59.769531 187.875 C 59.769531 183.480469 56.199219 179.90625 51.800781 179.90625 C 47.394531 179.90625 43.832031 183.480469 43.832031 187.875 C 43.832031 192.28125 47.394531 195.84375 51.800781 195.84375 C 56.199219 195.84375 59.769531 192.28125 59.769531 187.875 Z M 59.769531 112.28125 C 59.769531 107.886719 56.199219 104.3125 51.800781 104.3125 C 47.394531 104.3125 43.832031 107.886719 43.832031 112.28125 C 43.832031 116.6875 47.394531 120.261719 51.800781 120.261719 C 56.199219 120.261719 59.769531 116.6875 59.769531 112.28125 Z M 59.769531 36.699219 C 59.769531 32.292969 56.199219 28.730469 51.800781 28.730469 C 47.394531 28.730469 43.832031 32.292969 43.832031 36.699219 C 43.832031 41.09375 47.394531 44.667969 51.800781 44.667969 C 56.199219 44.667969 59.769531 41.09375 59.769531 36.699219 Z M 135.363281 263.46875 C 135.363281 259.0625 131.792969 255.5 127.394531 255.5 C 122.988281 255.5 119.417969 259.0625 119.417969 263.46875 C 119.417969 267.875 122.988281 271.4375 127.394531 271.4375 C 131.792969 271.4375 135.363281 267.875 135.363281 263.46875 Z M 135.363281 187.875 C 135.363281 183.480469 131.792969 179.90625 127.394531 179.90625 C 122.988281 179.90625 119.417969 183.480469 119.417969 187.875 C 119.417969 192.28125 122.988281 195.84375 127.394531 195.84375 C 131.792969 195.84375 135.363281 192.28125 135.363281 187.875 Z M 135.363281 112.28125 C 135.363281 107.886719 131.792969 104.3125 127.394531 104.3125 C 122.988281 104.3125 119.417969 107.886719 119.417969 112.28125 C 119.417969 116.6875 122.988281 120.261719 127.394531 120.261719 C 131.792969 120.261719 135.363281 116.6875 135.363281 112.28125 Z M 135.363281 36.699219 C 135.363281 32.292969 131.792969 28.730469 127.394531 28.730469 C 122.988281 28.730469 119.417969 32.292969 119.417969 36.699219 C 119.417969 41.09375 122.988281 44.667969 127.394531 44.667969 C 131.792969 44.667969 135.363281 41.09375 135.363281 36.699219 Z M 210.957031 263.46875 C 210.957031 259.0625 207.386719 255.5 202.980469 255.5 C 198.582031 255.5 195.011719 259.0625 195.011719 263.46875 C 195.011719 267.875 198.582031 271.4375 202.980469 271.4375 C 207.386719 271.4375 210.957031 267.875 210.957031 263.46875 Z M 210.957031 187.875 C 210.957031 183.480469 207.386719 179.90625 202.980469 179.90625 C 198.582031 179.90625 195.011719 183.480469 195.011719 187.875 C 195.011719 192.28125 198.582031 195.84375 202.980469 195.84375 C 207.386719 195.84375 210.957031 192.28125 210.957031 187.875 Z M 210.957031 112.28125 C 210.957031 107.886719 207.386719 104.3125 202.980469 104.3125 C 198.582031 104.3125 195.011719 107.886719 195.011719 112.28125 C 195.011719 116.6875 198.582031 120.261719 202.980469 120.261719 C 207.386719 120.261719 210.957031 116.6875 210.957031 112.28125 Z M 210.957031 36.699219 C 210.957031 32.292969 207.386719 28.730469 202.980469 28.730469 C 198.582031 28.730469 195.011719 32.292969 195.011719 36.699219 C 195.011719 41.09375 198.582031 44.667969 202.980469 44.667969 C 207.386719 44.667969 210.957031 41.09375 210.957031 36.699219 Z M 286.542969 263.46875 C 286.542969 259.0625 282.980469 255.5 278.574219 255.5 C 274.175781 255.5 270.605469 259.0625 270.605469 263.46875 C 270.605469 267.875 274.175781 271.4375 278.574219 271.4375 C 282.980469 271.4375 286.542969 267.875 286.542969 263.46875 Z M 286.542969 187.875 C 286.542969 183.480469 282.980469 179.90625 278.574219 179.90625 C 274.175781 179.90625 270.605469 183.480469 270.605469 187.875 C 270.605469 192.28125 274.175781 195.84375 278.574219 195.84375 C 282.980469 195.84375 286.542969 192.28125 286.542969 187.875 Z M 286.542969 112.28125 C 286.542969 107.886719 282.980469 104.3125 278.574219 104.3125 C 274.175781 104.3125 270.605469 107.886719 270.605469 112.28125 C 270.605469 116.6875 274.175781 120.261719 278.574219 120.261719 C 282.980469 120.261719 286.542969 116.6875 286.542969 112.28125 Z M 286.542969 36.699219 C 286.542969 32.292969 282.980469 28.730469 278.574219 28.730469 C 274.175781 28.730469 270.605469 32.292969 270.605469 36.699219 C 270.605469 41.09375 274.175781 44.667969 278.574219 44.667969 C 282.980469 44.667969 286.542969 41.09375 286.542969 36.699219 Z M 286.542969 36.699219 "/>
</g>
<path fill-rule="nonzero" fill="rgb(0%, 0%, 0%)" fill-opacity="1" d="M 113.878906 17.269531 C 113.378906 16.269531 112.628906 15.558594 111.421875 15.558594 C 108.335938 15.558594 105.046875 19.476562 105.046875 23.351562 C 105.046875 25.851562 106.503906 27.601562 108.546875 27.601562 C 109.085938 27.601562 110.421875 27.476562 112.003906 25.601562 C 112.210938 26.726562 113.171875 27.601562 114.421875 27.601562 C 115.378906 27.601562 115.960938 26.976562 116.421875 26.144531 C 116.835938 25.183594 117.210938 23.558594 117.210938 23.519531 C 117.210938 23.226562 116.960938 23.226562 116.878906 23.226562 C 116.628906 23.226562 116.585938 23.351562 116.503906 23.726562 C 116.046875 25.433594 115.585938 27.019531 114.503906 27.019531 C 113.753906 27.019531 113.710938 26.308594 113.710938 25.808594 C 113.710938 25.226562 113.753906 24.976562 114.046875 23.808594 C 114.335938 22.726562 114.378906 22.433594 114.628906 21.433594 L 115.585938 17.726562 C 115.753906 16.976562 115.753906 16.933594 115.753906 16.808594 C 115.753906 16.351562 115.460938 16.101562 115.003906 16.101562 C 114.335938 16.101562 113.960938 16.683594 113.878906 17.269531 Z M 112.171875 24.144531 C 112.003906 24.644531 112.003906 24.683594 111.628906 25.144531 C 110.460938 26.601562 109.378906 27.019531 108.628906 27.019531 C 107.296875 27.019531 106.921875 25.558594 106.921875 24.519531 C 106.921875 23.183594 107.753906 19.933594 108.378906 18.683594 C 109.210938 17.144531 110.378906 16.144531 111.460938 16.144531 C 113.171875 16.144531 113.546875 18.308594 113.546875 18.476562 C 113.546875 18.644531 113.503906 18.808594 113.460938 18.933594 Z M 112.171875 24.144531 "/>
<path fill-rule="nonzero" fill="rgb(0%, 0%, 0%)" fill-opacity="1" d="M 188.527344 9.144531 C 188.527344 9.144531 188.527344 8.851562 188.195312 8.851562 C 187.609375 8.851562 185.652344 9.058594 184.945312 9.144531 C 184.734375 9.144531 184.445312 9.183594 184.445312 9.644531 C 184.445312 9.976562 184.695312 9.976562 185.109375 9.976562 C 186.359375 9.976562 186.402344 10.144531 186.402344 10.433594 C 186.402344 10.601562 186.195312 11.519531 186.070312 12.058594 L 183.859375 20.726562 C 183.570312 22.058594 183.445312 22.519531 183.445312 23.433594 C 183.445312 25.933594 184.859375 27.601562 186.820312 27.601562 C 189.945312 27.601562 193.234375 23.644531 193.234375 19.808594 C 193.234375 17.394531 191.820312 15.558594 189.695312 15.558594 C 188.484375 15.558594 187.359375 16.351562 186.570312 17.144531 Z M 186.070312 19.183594 C 186.195312 18.601562 186.195312 18.558594 186.445312 18.269531 C 187.734375 16.558594 188.945312 16.144531 189.652344 16.144531 C 190.609375 16.144531 191.320312 16.933594 191.320312 18.644531 C 191.320312 20.226562 190.445312 23.269531 189.945312 24.269531 C 189.070312 26.058594 187.859375 27.019531 186.820312 27.019531 C 185.902344 27.019531 185.027344 26.308594 185.027344 24.351562 C 185.027344 23.808594 185.027344 23.308594 185.445312 21.644531 Z M 186.070312 19.183594 "/>
<path fill-rule="nonzero" fill="rgb(0%, 0%, 0%)" fill-opacity="1" d="M 36.296875 87.109375 L 38.589844 87.109375 C 39.128906 87.109375 39.378906 87.109375 39.378906 86.566406 C 39.378906 86.273438 39.128906 86.273438 38.671875 86.273438 L 36.464844 86.273438 L 37.003906 83.234375 C 37.128906 82.691406 37.503906 80.816406 37.671875 80.484375 C 37.878906 79.984375 38.339844 79.566406 38.921875 79.566406 C 39.003906 79.566406 39.714844 79.566406 40.214844 80.066406 C 39.046875 80.148438 38.753906 81.109375 38.753906 81.484375 C 38.753906 82.109375 39.253906 82.441406 39.753906 82.441406 C 40.464844 82.441406 41.214844 81.816406 41.214844 80.816406 C 41.214844 79.609375 40.003906 78.984375 38.921875 78.984375 C 38.003906 78.984375 36.339844 79.484375 35.546875 82.109375 C 35.378906 82.648438 35.296875 82.941406 34.671875 86.273438 L 32.839844 86.273438 C 32.296875 86.273438 32.003906 86.273438 32.003906 86.773438 C 32.003906 87.109375 32.253906 87.109375 32.753906 87.109375 L 34.503906 87.109375 L 32.546875 97.609375 C 32.046875 100.191406 31.589844 102.609375 30.214844 102.609375 C 30.089844 102.609375 29.464844 102.609375 28.921875 102.109375 C 30.171875 102.023438 30.421875 101.066406 30.421875 100.691406 C 30.421875 100.066406 29.921875 99.734375 29.421875 99.734375 C 28.714844 99.734375 27.964844 100.359375 27.964844 101.359375 C 27.964844 102.523438 29.128906 103.191406 30.214844 103.191406 C 31.671875 103.191406 32.753906 101.609375 33.214844 100.609375 C 34.089844 98.941406 34.671875 95.734375 34.714844 95.523438 Z M 36.296875 87.109375 "/>
<path fill-rule="nonzero" fill="rgb(0%, 0%, 0%)" fill-opacity="1" d="M 116.632812 93.027344 C 116.632812 91.566406 115.921875 91.152344 115.464844 91.152344 C 114.796875 91.152344 114.132812 91.859375 114.132812 92.441406 C 114.132812 92.777344 114.257812 92.941406 114.546875 93.234375 C 115.132812 93.777344 115.464844 94.441406 115.464844 95.402344 C 115.464844 96.527344 113.839844 102.609375 110.757812 102.609375 C 109.382812 102.609375 108.757812 101.691406 108.757812 100.277344 C 108.757812 98.816406 109.507812 96.859375 110.296875 94.652344 C 110.507812 94.191406 110.632812 93.816406 110.632812 93.316406 C 110.632812 92.152344 109.796875 91.152344 108.464844 91.152344 C 105.964844 91.152344 104.964844 95.027344 104.964844 95.234375 C 104.964844 95.527344 105.214844 95.527344 105.257812 95.527344 C 105.546875 95.527344 105.546875 95.441406 105.671875 95.027344 C 106.464844 92.359375 107.589844 91.734375 108.382812 91.734375 C 108.589844 91.734375 109.046875 91.734375 109.046875 92.566406 C 109.046875 93.234375 108.757812 93.984375 108.589844 94.441406 C 107.421875 97.527344 107.089844 98.734375 107.089844 99.902344 C 107.089844 102.777344 109.421875 103.191406 110.632812 103.191406 C 115.089844 103.191406 116.632812 94.402344 116.632812 93.027344 Z M 116.632812 93.027344 "/>
<path fill-rule="nonzero" fill="rgb(0%, 0%, 0%)" fill-opacity="1" d="M 192.640625 92.816406 C 192.183594 92.816406 191.847656 92.816406 191.472656 93.152344 C 191.015625 93.566406 190.972656 94.027344 190.972656 94.191406 C 190.972656 94.859375 191.472656 95.152344 191.972656 95.152344 C 192.722656 95.152344 193.433594 94.484375 193.433594 93.441406 C 193.433594 92.152344 192.183594 91.152344 190.308594 91.152344 C 186.722656 91.152344 183.183594 94.941406 183.183594 98.691406 C 183.183594 101.109375 184.722656 103.191406 187.515625 103.191406 C 191.308594 103.191406 193.515625 100.359375 193.515625 100.066406 C 193.515625 99.902344 193.390625 99.691406 193.222656 99.691406 C 193.058594 99.691406 193.015625 99.777344 192.847656 99.984375 C 190.765625 102.609375 187.847656 102.609375 187.558594 102.609375 C 185.890625 102.609375 185.140625 101.316406 185.140625 99.691406 C 185.140625 98.609375 185.683594 96.027344 186.597656 94.402344 C 187.433594 92.859375 188.890625 91.734375 190.347656 91.734375 C 191.222656 91.734375 192.265625 92.066406 192.640625 92.816406 Z M 192.640625 92.816406 "/>
<path fill-rule="nonzero" fill="rgb(0%, 0%, 0%)" fill-opacity="1" d="M 35 172.367188 C 35.792969 172.367188 37.75 172.28125 39.085938 171.742188 C 40.960938 170.949219 41.085938 169.367188 41.085938 168.992188 C 41.085938 167.824219 40.085938 166.742188 38.25 166.742188 C 35.292969 166.742188 31.25 169.324219 31.25 173.992188 C 31.25 176.699219 32.835938 178.78125 35.460938 178.78125 C 39.25 178.78125 41.460938 175.949219 41.460938 175.65625 C 41.460938 175.492188 41.335938 175.28125 41.167969 175.28125 C 41 175.28125 40.960938 175.367188 40.792969 175.574219 C 38.710938 178.199219 35.792969 178.199219 35.5 178.199219 C 33.417969 178.199219 33.167969 175.949219 33.167969 175.117188 C 33.167969 174.78125 33.210938 173.992188 33.585938 172.367188 Z M 33.75 171.78125 C 34.792969 167.742188 37.542969 167.324219 38.25 167.324219 C 39.460938 167.324219 40.210938 168.117188 40.210938 168.992188 C 40.210938 171.78125 35.960938 171.78125 34.835938 171.78125 Z M 33.75 171.78125 "/>
<path fill-rule="nonzero" fill="rgb(0%, 0%, 0%)" fill-opacity="1" d="M 117.886719 160.324219 C 117.886719 160.324219 117.886719 160.03125 117.554688 160.03125 C 117.136719 160.03125 114.636719 160.28125 114.179688 160.324219 C 113.96875 160.367188 113.804688 160.492188 113.804688 160.824219 C 113.804688 161.15625 114.054688 161.15625 114.429688 161.15625 C 115.71875 161.15625 115.761719 161.324219 115.761719 161.617188 L 115.679688 162.15625 L 114.09375 168.449219 C 113.59375 167.449219 112.84375 166.742188 111.636719 166.742188 C 108.554688 166.742188 105.261719 170.65625 105.261719 174.53125 C 105.261719 177.03125 106.71875 178.78125 108.761719 178.78125 C 109.304688 178.78125 110.636719 178.65625 112.21875 176.78125 C 112.429688 177.90625 113.386719 178.78125 114.636719 178.78125 C 115.59375 178.78125 116.179688 178.15625 116.636719 177.324219 C 117.054688 176.367188 117.429688 174.742188 117.429688 174.699219 C 117.429688 174.40625 117.179688 174.40625 117.09375 174.40625 C 116.84375 174.40625 116.804688 174.53125 116.71875 174.90625 C 116.261719 176.617188 115.804688 178.199219 114.71875 178.199219 C 113.96875 178.199219 113.929688 177.492188 113.929688 176.992188 C 113.929688 176.324219 113.96875 176.15625 114.054688 175.699219 Z M 112.386719 175.324219 C 112.21875 175.824219 112.21875 175.867188 111.84375 176.324219 C 110.679688 177.78125 109.59375 178.199219 108.84375 178.199219 C 107.511719 178.199219 107.136719 176.742188 107.136719 175.699219 C 107.136719 174.367188 107.96875 171.117188 108.59375 169.867188 C 109.429688 168.324219 110.59375 167.324219 111.679688 167.324219 C 113.386719 167.324219 113.761719 169.492188 113.761719 169.65625 C 113.761719 169.824219 113.71875 169.992188 113.679688 170.117188 Z M 112.386719 175.324219 "/>
</svg>
