<?xml version="1.0" encoding="UTF-8"?>
<svg xmlns="http://www.w3.org/2000/svg" xmlns:xlink="http://www.w3.org/1999/xlink" width="568.82666" height="130.666667" viewBox="0 0 568.82666 130.666667">
<path fill-rule="nonzero" fill="rgb(0%, 0%, 0%)" fill-opacity="1" d="M 41.515625 25.925781 L 36.433594 13.84375 C 36.226562 13.300781 36.226562 13.300781 35.476562 13.300781 L 30.558594 13.300781 C 30.058594 13.300781 29.683594 13.300781 29.683594 13.757812 C 29.683594 14.21875 30.140625 14.21875 30.265625 14.21875 C 30.601562 14.21875 31.308594 14.300781 31.890625 14.507812 L 31.890625 28.675781 C 31.890625 29.257812 31.890625 30.425781 30.101562 30.59375 C 29.601562 30.632812 29.601562 31.007812 29.601562 31.050781 C 29.601562 31.507812 30.015625 31.507812 30.515625 31.507812 L 34.601562 31.507812 C 35.101562 31.507812 35.476562 31.507812 35.476562 31.050781 C 35.476562 30.800781 35.265625 30.59375 35.058594 30.59375 C 33.015625 30.425781 33.015625 29.300781 33.015625 28.675781 L 33.015625 15.46875 L 33.058594 15.425781 L 39.515625 30.96875 C 39.765625 31.425781 39.933594 31.507812 40.101562 31.507812 C 40.433594 31.507812 40.476562 31.300781 40.640625 30.96875 L 47.140625 15.425781 L 47.183594 15.46875 L 47.183594 28.675781 C 47.183594 29.257812 47.183594 30.425781 45.351562 30.59375 C 44.851562 30.632812 44.851562 31.007812 44.851562 31.050781 C 44.851562 31.507812 45.265625 31.507812 45.765625 31.507812 L 52.851562 31.507812 C 53.351562 31.507812 53.726562 31.507812 53.726562 31.050781 C 53.726562 30.800781 53.515625 30.59375 53.308594 30.59375 C 51.265625 30.425781 51.265625 29.300781 51.265625 28.675781 L 51.265625 16.132812 C 51.265625 15.550781 51.265625 14.382812 53.058594 14.21875 C 53.351562 14.21875 53.558594 14.050781 53.558594 13.757812 C 53.558594 13.300781 53.183594 13.300781 52.683594 13.300781 L 47.558594 13.300781 C 46.890625 13.300781 46.808594 13.300781 46.601562 13.84375 Z M 40.726562 26.425781 C 40.933594 26.84375 40.976562 26.882812 41.308594 27.007812 L 40.101562 29.800781 L 40.058594 29.800781 L 34.015625 15.34375 C 33.890625 15.007812 33.640625 14.550781 33.308594 14.21875 L 35.601562 14.21875 Z M 32.683594 30.59375 L 32.265625 30.59375 C 32.308594 30.507812 32.351562 30.425781 32.390625 30.382812 C 32.433594 30.34375 32.433594 30.300781 32.476562 30.300781 Z M 48.101562 14.21875 L 50.933594 14.21875 C 50.308594 14.882812 50.308594 15.59375 50.308594 16.050781 L 50.308594 28.757812 C 50.308594 29.21875 50.308594 29.925781 50.933594 30.59375 L 47.515625 30.59375 C 48.101562 29.925781 48.101562 29.21875 48.101562 28.757812 Z M 48.101562 14.21875 "/>
<path fill-rule="nonzero" fill="rgb(0%, 0%, 0%)" fill-opacity="1" d="M 63.816406 29.578125 C 63.816406 27.535156 63.566406 26.035156 62.730469 24.742188 C 62.148438 23.910156 60.980469 23.160156 59.523438 23.160156 C 55.191406 23.160156 55.191406 28.242188 55.191406 29.578125 C 55.191406 30.910156 55.191406 35.867188 59.523438 35.867188 C 63.816406 35.867188 63.816406 30.910156 63.816406 29.578125 Z M 59.523438 35.328125 C 58.648438 35.328125 57.523438 34.828125 57.148438 33.328125 C 56.898438 32.242188 56.898438 30.703125 56.898438 29.328125 C 56.898438 27.953125 56.898438 26.535156 57.148438 25.535156 C 57.566406 24.078125 58.730469 23.660156 59.523438 23.660156 C 60.523438 23.660156 61.480469 24.285156 61.816406 25.367188 C 62.105469 26.367188 62.148438 27.703125 62.148438 29.328125 C 62.148438 30.703125 62.148438 32.078125 61.898438 33.242188 C 61.523438 34.953125 60.273438 35.328125 59.523438 35.328125 Z M 59.523438 35.328125 "/>
<path fill-rule="nonzero" fill="rgb(0%, 0%, 0%)" fill-opacity="1" d="M 165.1875 25.925781 L 160.101562 13.84375 C 159.894531 13.300781 159.894531 13.300781 159.144531 13.300781 L 154.226562 13.300781 C 153.726562 13.300781 153.351562 13.300781 153.351562 13.757812 C 153.351562 14.21875 153.8125 14.21875 153.9375 14.21875 C 154.269531 14.21875 154.976562 14.300781 155.5625 14.507812 L 155.5625 28.675781 C 155.5625 29.257812 155.5625 30.425781 153.769531 30.59375 C 153.269531 30.632812 153.269531 31.007812 153.269531 31.050781 C 153.269531 31.507812 153.6875 31.507812 154.1875 31.507812 L 158.269531 31.507812 C 158.769531 31.507812 159.144531 31.507812 159.144531 31.050781 C 159.144531 30.800781 158.9375 30.59375 158.726562 30.59375 C 156.6875 30.425781 156.6875 29.300781 156.6875 28.675781 L 156.6875 15.46875 L 156.726562 15.425781 L 163.1875 30.96875 C 163.4375 31.425781 163.601562 31.507812 163.769531 31.507812 C 164.101562 31.507812 164.144531 31.300781 164.3125 30.96875 L 170.8125 15.425781 L 170.851562 15.46875 L 170.851562 28.675781 C 170.851562 29.257812 170.851562 30.425781 169.019531 30.59375 C 168.519531 30.632812 168.519531 31.007812 168.519531 31.050781 C 168.519531 31.507812 168.9375 31.507812 169.4375 31.507812 L 176.519531 31.507812 C 177.019531 31.507812 177.394531 31.507812 177.394531 31.050781 C 177.394531 30.800781 177.1875 30.59375 176.976562 30.59375 C 174.9375 30.425781 174.9375 29.300781 174.9375 28.675781 L 174.9375 16.132812 C 174.9375 15.550781 174.9375 14.382812 176.726562 14.21875 C 177.019531 14.21875 177.226562 14.050781 177.226562 13.757812 C 177.226562 13.300781 176.851562 13.300781 176.351562 13.300781 L 171.226562 13.300781 C 170.5625 13.300781 170.476562 13.300781 170.269531 13.84375 Z M 164.394531 26.425781 C 164.601562 26.84375 164.644531 26.882812 164.976562 27.007812 L 163.769531 29.800781 L 163.726562 29.800781 L 157.6875 15.34375 C 157.5625 15.007812 157.3125 14.550781 156.976562 14.21875 L 159.269531 14.21875 Z M 156.351562 30.59375 L 155.9375 30.59375 C 155.976562 30.507812 156.019531 30.425781 156.0625 30.382812 C 156.101562 30.34375 156.101562 30.300781 156.144531 30.300781 Z M 171.769531 14.21875 L 174.601562 14.21875 C 173.976562 14.882812 173.976562 15.59375 173.976562 16.050781 L 173.976562 28.757812 C 173.976562 29.21875 173.976562 29.925781 174.601562 30.59375 L 171.1875 30.59375 C 171.769531 29.925781 171.769531 29.21875 171.769531 28.757812 Z M 171.769531 14.21875 "/>
<path fill-rule="nonzero" fill="rgb(0%, 0%, 0%)" fill-opacity="1" d="M 184.113281 23.660156 C 184.113281 23.160156 184.113281 23.160156 183.570312 23.160156 C 182.363281 24.328125 180.695312 24.328125 179.945312 24.328125 L 179.945312 24.992188 C 180.363281 24.992188 181.613281 24.992188 182.613281 24.492188 L 182.613281 33.953125 C 182.613281 34.578125 182.613281 34.828125 180.777344 34.828125 L 180.070312 34.828125 L 180.070312 35.492188 C 180.402344 35.492188 182.695312 35.410156 183.363281 35.410156 C 183.945312 35.410156 186.277344 35.492188 186.695312 35.492188 L 186.695312 34.828125 L 185.988281 34.828125 C 184.113281 34.828125 184.113281 34.578125 184.113281 33.953125 Z M 184.113281 23.660156 "/>
<path fill-rule="nonzero" fill="rgb(0%, 0%, 0%)" fill-opacity="1" d="M 288.859375 25.925781 L 283.773438 13.84375 C 283.566406 13.300781 283.566406 13.300781 282.816406 13.300781 L 277.898438 13.300781 C 277.398438 13.300781 277.023438 13.300781 277.023438 13.757812 C 277.023438 14.21875 277.484375 14.21875 277.609375 14.21875 C 277.941406 14.21875 278.648438 14.300781 279.234375 14.507812 L 279.234375 28.675781 C 279.234375 29.257812 279.234375 30.425781 277.441406 30.59375 C 276.941406 30.632812 276.941406 31.007812 276.941406 31.050781 C 276.941406 31.507812 277.359375 31.507812 277.859375 31.507812 L 281.941406 31.507812 C 282.441406 31.507812 282.816406 31.507812 282.816406 31.050781 C 282.816406 30.800781 282.609375 30.59375 282.398438 30.59375 C 280.359375 30.425781 280.359375 29.300781 280.359375 28.675781 L 280.359375 15.46875 L 280.398438 15.425781 L 286.859375 30.96875 C 287.109375 31.425781 287.273438 31.507812 287.441406 31.507812 C 287.773438 31.507812 287.816406 31.300781 287.984375 30.96875 L 294.484375 15.425781 L 294.523438 15.46875 L 294.523438 28.675781 C 294.523438 29.257812 294.523438 30.425781 292.691406 30.59375 C 292.191406 30.632812 292.191406 31.007812 292.191406 31.050781 C 292.191406 31.507812 292.609375 31.507812 293.109375 31.507812 L 300.191406 31.507812 C 300.691406 31.507812 301.066406 31.507812 301.066406 31.050781 C 301.066406 30.800781 300.859375 30.59375 300.648438 30.59375 C 298.609375 30.425781 298.609375 29.300781 298.609375 28.675781 L 298.609375 16.132812 C 298.609375 15.550781 298.609375 14.382812 300.398438 14.21875 C 300.691406 14.21875 300.898438 14.050781 300.898438 13.757812 C 300.898438 13.300781 300.523438 13.300781 300.023438 13.300781 L 294.898438 13.300781 C 294.234375 13.300781 294.148438 13.300781 293.941406 13.84375 Z M 288.066406 26.425781 C 288.273438 26.84375 288.316406 26.882812 288.648438 27.007812 L 287.441406 29.800781 L 287.398438 29.800781 L 281.359375 15.34375 C 281.234375 15.007812 280.984375 14.550781 280.648438 14.21875 L 282.941406 14.21875 Z M 280.023438 30.59375 L 279.609375 30.59375 C 279.648438 30.507812 279.691406 30.425781 279.734375 30.382812 C 279.773438 30.34375 279.773438 30.300781 279.816406 30.300781 Z M 295.441406 14.21875 L 298.273438 14.21875 C 297.648438 14.882812 297.648438 15.59375 297.648438 16.050781 L 297.648438 28.757812 C 297.648438 29.21875 297.648438 29.925781 298.273438 30.59375 L 294.859375 30.59375 C 295.441406 29.925781 295.441406 29.21875 295.441406 28.757812 Z M 295.441406 14.21875 "/>
<path fill-rule="nonzero" fill="rgb(0%, 0%, 0%)" fill-opacity="1" d="M 310.949219 32.117188 L 310.324219 32.117188 C 310.28125 32.535156 310.074219 33.617188 309.824219 33.785156 C 309.699219 33.910156 308.28125 33.910156 307.988281 33.910156 L 304.574219 33.910156 C 306.53125 32.203125 307.199219 31.660156 308.28125 30.785156 C 309.65625 29.703125 310.949219 28.535156 310.949219 26.785156 C 310.949219 24.535156 308.988281 23.160156 306.613281 23.160156 C 304.324219 23.160156 302.738281 24.785156 302.738281 26.492188 C 302.738281 27.410156 303.53125 27.535156 303.738281 27.535156 C 304.15625 27.535156 304.699219 27.203125 304.699219 26.535156 C 304.699219 26.203125 304.574219 25.535156 303.613281 25.535156 C 304.199219 24.242188 305.449219 23.828125 306.324219 23.828125 C 308.199219 23.828125 309.15625 25.285156 309.15625 26.785156 C 309.15625 28.410156 307.988281 29.660156 307.40625 30.328125 L 302.949219 34.785156 C 302.738281 34.953125 302.738281 34.992188 302.738281 35.492188 L 310.40625 35.492188 Z M 310.949219 32.117188 "/>
<path fill-rule="nonzero" fill="rgb(0%, 0%, 0%)" fill-opacity="1" d="M 405.234375 24.84375 C 405.234375 24.09375 404.609375 23.46875 403.859375 23.46875 C 403.070312 23.46875 402.445312 24.09375 402.445312 24.84375 C 402.445312 25.632812 403.070312 26.257812 403.859375 26.257812 C 404.609375 26.257812 405.234375 25.632812 405.234375 24.84375 Z M 405.234375 24.84375 "/>
<path fill-rule="nonzero" fill="rgb(0%, 0%, 0%)" fill-opacity="1" d="M 417.003906 24.84375 C 417.003906 24.09375 416.378906 23.46875 415.628906 23.46875 C 414.835938 23.46875 414.210938 24.09375 414.210938 24.84375 C 414.210938 25.632812 414.835938 26.257812 415.628906 26.257812 C 416.378906 26.257812 417.003906 25.632812 417.003906 24.84375 Z M 417.003906 24.84375 "/>
<path fill-rule="nonzero" fill="rgb(0%, 0%, 0%)" fill-opacity="1" d="M 428.800781 24.84375 C 428.800781 24.09375 428.175781 23.46875 427.425781 23.46875 C 426.632812 23.46875 426.007812 24.09375 426.007812 24.84375 C 426.007812 25.632812 426.632812 26.257812 427.425781 26.257812 C 428.175781 26.257812 428.800781 25.632812 428.800781 24.84375 Z M 428.800781 24.84375 "/>
<path fill-rule="nonzero" fill="rgb(0%, 0%, 0%)" fill-opacity="1" d="M 530.183594 25.925781 L 525.101562 13.84375 C 524.890625 13.300781 524.890625 13.300781 524.140625 13.300781 L 519.226562 13.300781 C 518.726562 13.300781 518.351562 13.300781 518.351562 13.757812 C 518.351562 14.21875 518.808594 14.21875 518.933594 14.21875 C 519.265625 14.21875 519.976562 14.300781 520.558594 14.507812 L 520.558594 28.675781 C 520.558594 29.257812 520.558594 30.425781 518.765625 30.59375 C 518.265625 30.632812 518.265625 31.007812 518.265625 31.050781 C 518.265625 31.507812 518.683594 31.507812 519.183594 31.507812 L 523.265625 31.507812 C 523.765625 31.507812 524.140625 31.507812 524.140625 31.050781 C 524.140625 30.800781 523.933594 30.59375 523.726562 30.59375 C 521.683594 30.425781 521.683594 29.300781 521.683594 28.675781 L 521.683594 15.46875 L 521.726562 15.425781 L 528.183594 30.96875 C 528.433594 31.425781 528.601562 31.507812 528.765625 31.507812 C 529.101562 31.507812 529.140625 31.300781 529.308594 30.96875 L 535.808594 15.425781 L 535.851562 15.46875 L 535.851562 28.675781 C 535.851562 29.257812 535.851562 30.425781 534.015625 30.59375 C 533.515625 30.632812 533.515625 31.007812 533.515625 31.050781 C 533.515625 31.507812 533.933594 31.507812 534.433594 31.507812 L 541.515625 31.507812 C 542.015625 31.507812 542.390625 31.507812 542.390625 31.050781 C 542.390625 30.800781 542.183594 30.59375 541.976562 30.59375 C 539.933594 30.425781 539.933594 29.300781 539.933594 28.675781 L 539.933594 16.132812 C 539.933594 15.550781 539.933594 14.382812 541.726562 14.21875 C 542.015625 14.21875 542.226562 14.050781 542.226562 13.757812 C 542.226562 13.300781 541.851562 13.300781 541.351562 13.300781 L 536.226562 13.300781 C 535.558594 13.300781 535.476562 13.300781 535.265625 13.84375 Z M 529.390625 26.425781 C 529.601562 26.84375 529.640625 26.882812 529.976562 27.007812 L 528.765625 29.800781 L 528.726562 29.800781 L 522.683594 15.34375 C 522.558594 15.007812 522.308594 14.550781 521.976562 14.21875 L 524.265625 14.21875 Z M 521.351562 30.59375 L 520.933594 30.59375 C 520.976562 30.507812 521.015625 30.425781 521.058594 30.382812 C 521.101562 30.34375 521.101562 30.300781 521.140625 30.300781 Z M 536.765625 14.21875 L 539.601562 14.21875 C 538.976562 14.882812 538.976562 15.59375 538.976562 16.050781 L 538.976562 28.757812 C 538.976562 29.21875 538.976562 29.925781 539.601562 30.59375 L 536.183594 30.59375 C 536.765625 29.925781 536.765625 29.21875 536.765625 28.757812 Z M 536.765625 14.21875 "/>
<path fill-rule="nonzero" fill="rgb(0%, 0%, 0%)" fill-opacity="1" d="M 545.152344 34.328125 C 545.109375 34.578125 544.984375 35.035156 544.984375 35.078125 C 544.984375 35.492188 545.316406 35.660156 545.609375 35.660156 C 545.941406 35.660156 546.234375 35.453125 546.359375 35.285156 C 546.441406 35.117188 546.566406 34.492188 546.691406 34.117188 C 546.777344 33.785156 546.984375 32.910156 547.066406 32.453125 C 547.191406 32.035156 547.316406 31.617188 547.402344 31.203125 C 547.609375 30.453125 547.652344 30.285156 548.191406 29.535156 C 548.691406 28.785156 549.566406 27.828125 550.984375 27.828125 C 552.027344 27.828125 552.066406 28.785156 552.066406 29.117188 C 552.066406 30.242188 551.277344 32.285156 550.984375 33.078125 C 550.777344 33.617188 550.691406 33.785156 550.691406 34.078125 C 550.691406 35.078125 551.484375 35.660156 552.441406 35.660156 C 554.316406 35.660156 555.109375 33.117188 555.109375 32.828125 C 555.109375 32.578125 554.902344 32.578125 554.816406 32.578125 C 554.566406 32.578125 554.566406 32.703125 554.484375 32.910156 C 554.066406 34.410156 553.234375 35.160156 552.527344 35.160156 C 552.109375 35.160156 552.027344 34.910156 552.027344 34.492188 C 552.027344 34.078125 552.152344 33.828125 552.484375 32.992188 C 552.691406 32.410156 553.441406 30.453125 553.441406 29.410156 C 553.441406 27.617188 552.027344 27.285156 551.027344 27.285156 C 549.484375 27.285156 548.441406 28.242188 547.902344 28.992188 C 547.777344 27.703125 546.691406 27.285156 545.902344 27.285156 C 545.109375 27.285156 544.691406 27.867188 544.441406 28.285156 C 544.027344 28.992188 543.777344 30.035156 543.777344 30.160156 C 543.777344 30.367188 544.027344 30.367188 544.109375 30.367188 C 544.359375 30.367188 544.359375 30.328125 544.484375 29.828125 C 544.777344 28.742188 545.152344 27.828125 545.859375 27.828125 C 546.359375 27.828125 546.484375 28.242188 546.484375 28.742188 C 546.484375 29.078125 546.316406 29.785156 546.152344 30.285156 C 546.027344 30.785156 545.859375 31.535156 545.777344 31.953125 Z M 545.152344 34.328125 "/>
<path fill-rule="nonzero" fill="rgb(0%, 0%, 0%)" fill-opacity="1" d="M 298.480469 113.0625 C 297.855469 115.3125 296.9375 118.601562 296.9375 120.644531 C 296.9375 121.351562 297.355469 121.6875 298.019531 121.6875 C 299.0625 121.6875 301.0625 120.519531 301.0625 120.019531 C 301.0625 119.851562 300.9375 119.8125 300.8125 119.8125 C 300.480469 119.8125 300.019531 120.0625 299.730469 120.226562 C 299.355469 120.144531 299.1875 119.894531 299.1875 119.519531 C 299.1875 116.269531 302.1875 106.976562 302.980469 105.019531 C 303.3125 104.269531 303.644531 103.1875 303.644531 102.976562 C 303.644531 102.769531 303.480469 102.769531 303.394531 102.769531 C 302.8125 102.769531 301.605469 103.476562 301.394531 104.019531 C 301.0625 104.9375 301.019531 105.0625 300.6875 106.0625 C 299.8125 108.5625 297.1875 112.976562 294.5625 116.0625 C 293.730469 116.976562 291.105469 120.0625 289.230469 120.0625 C 287.980469 120.0625 287.144531 118.976562 287.144531 117.226562 C 287.144531 115.351562 288.1875 112.976562 289.8125 109.3125 C 290.769531 107.144531 291.5625 105.269531 291.5625 104.0625 C 291.5625 102.8125 290.6875 102.769531 290.230469 102.769531 C 288.1875 102.769531 285.605469 104.4375 285.605469 104.976562 C 285.605469 105.144531 285.8125 105.144531 285.894531 105.144531 C 286.230469 105.144531 286.730469 104.9375 287.144531 104.644531 C 287.3125 104.519531 287.730469 104.226562 288.480469 104.226562 C 289.0625 104.226562 289.269531 104.601562 289.269531 105.1875 C 289.269531 106.351562 288.3125 108.5625 287.230469 111.101562 C 285.480469 115.101562 284.894531 116.769531 284.894531 118.3125 C 284.894531 120.101562 285.605469 121.519531 287.480469 121.519531 C 289.144531 121.519531 291.5625 120.4375 294.269531 117.894531 C 296.105469 116.1875 297.269531 114.601562 298.4375 113.0625 Z M 298.480469 113.0625 "/>
<path fill="none" stroke-width="0.39848" stroke-linecap="butt" stroke-linejoin="miter" stroke="rgb(0%, 0%, 0%)" stroke-opacity="1" stroke-miterlimit="10" d="M -80.669731 15.82827 L -57.557426 15.82827 " transform="matrix(2.666667, 0, 0, -2.666667, 293.256002, 67.072001)"/>
<path fill="none" stroke-width="0.39848" stroke-linecap="round" stroke-linejoin="round" stroke="rgb(0%, 0%, 0%)" stroke-opacity="1" stroke-miterlimit="10" d="M -2.074375 2.392324 C -1.694981 0.958242 -0.851231 0.278555 -0.000156403 0.00169945 C -0.851231 -0.279551 -1.694981 -0.956308 -2.074375 -2.388926 " transform="matrix(2.666667, 0, 0, -2.666667, 140.301198, 24.867813)"/>
<path fill-rule="nonzero" fill="rgb(0%, 0%, 0%)" fill-opacity="1" d="M 102.84375 13.789062 C 102.757812 14.039062 102.675781 14.246094 102.675781 14.578125 C 102.675781 15.453125 103.382812 16.121094 104.425781 16.121094 C 106.257812 16.121094 107.09375 13.578125 107.09375 13.289062 C 107.09375 13.039062 106.84375 13.039062 106.800781 13.039062 C 106.550781 13.039062 106.507812 13.164062 106.425781 13.371094 C 106.007812 14.871094 105.21875 15.621094 104.46875 15.621094 C 104.09375 15.621094 104.007812 15.371094 104.007812 14.953125 C 104.007812 14.539062 104.132812 14.203125 104.300781 13.789062 C 104.507812 13.289062 104.71875 12.789062 104.882812 12.289062 C 105.050781 11.828125 105.757812 10.164062 105.800781 9.914062 C 105.882812 9.746094 105.925781 9.539062 105.925781 9.328125 C 105.925781 8.453125 105.175781 7.746094 104.175781 7.746094 C 102.300781 7.746094 101.46875 10.289062 101.46875 10.621094 C 101.46875 10.828125 101.71875 10.828125 101.800781 10.828125 C 102.050781 10.828125 102.050781 10.746094 102.132812 10.539062 C 102.59375 8.953125 103.425781 8.289062 104.09375 8.289062 C 104.382812 8.289062 104.550781 8.414062 104.550781 8.914062 C 104.550781 9.371094 104.46875 9.621094 104.007812 10.789062 Z M 102.84375 13.789062 "/>
<path fill-rule="nonzero" fill="rgb(0%, 0%, 0%)" fill-opacity="1" d="M 116.003906 14.359375 C 116.003906 13.402344 116.003906 9.777344 112.503906 9.777344 C 109.046875 9.777344 109.046875 13.402344 109.046875 14.359375 C 109.046875 15.320312 109.046875 18.902344 112.503906 18.902344 C 116.003906 18.902344 116.003906 15.320312 116.003906 14.359375 Z M 112.503906 18.445312 C 112.046875 18.445312 110.921875 18.277344 110.589844 16.945312 C 110.378906 16.234375 110.378906 15.277344 110.378906 14.195312 C 110.378906 13.195312 110.378906 12.277344 110.589844 11.527344 C 110.921875 10.402344 111.964844 10.195312 112.503906 10.195312 C 113.503906 10.195312 114.214844 10.695312 114.464844 11.652344 C 114.671875 12.320312 114.671875 13.402344 114.671875 14.195312 C 114.671875 15.109375 114.671875 16.195312 114.464844 16.984375 C 114.128906 18.277344 113.046875 18.445312 112.503906 18.445312 Z M 112.503906 18.445312 "/>
<path fill="none" stroke-width="0.39848" stroke-linecap="butt" stroke-linejoin="miter" stroke="rgb(0%, 0%, 0%)" stroke-opacity="1" stroke-miterlimit="10" d="M -80.669731 11.694481 L -7.830376 -14.644875 " transform="matrix(2.666667, 0, 0, -2.666667, 293.256002, 67.072001)"/>
<path fill="none" stroke-width="0.39848" stroke-linecap="round" stroke-linejoin="round" stroke="rgb(0%, 0%, 0%)" stroke-opacity="1" stroke-miterlimit="10" d="M -2.069811 2.390692 C -1.693028 0.956768 -0.849205 0.277435 -0.000664141 -0.00141657 C -0.851825 -0.279617 -1.693812 -0.957947 -2.072827 -2.391025 " transform="matrix(2.50768, 0.906827, 0.906827, -2.50768, 272.87795, 106.30955)"/>
<path fill-rule="nonzero" fill="rgb(0%, 0%, 0%)" fill-opacity="1" d="M 189.597656 53.980469 L 191.386719 53.980469 C 191.761719 53.980469 192.011719 53.980469 192.011719 53.566406 C 192.011719 53.316406 191.761719 53.316406 191.429688 53.316406 L 189.722656 53.316406 C 190.136719 50.941406 190.261719 50.105469 190.429688 49.566406 C 190.511719 49.148438 190.929688 48.773438 191.386719 48.773438 C 191.386719 48.773438 191.886719 48.773438 192.261719 48.980469 C 191.472656 49.230469 191.429688 49.898438 191.429688 49.980469 C 191.429688 50.398438 191.761719 50.691406 192.179688 50.691406 C 192.679688 50.691406 193.222656 50.273438 193.222656 49.566406 C 193.222656 48.691406 192.347656 48.230469 191.386719 48.230469 C 190.554688 48.230469 189.636719 48.691406 189.136719 49.605469 C 188.761719 50.316406 188.636719 51.148438 188.222656 53.316406 L 186.761719 53.316406 C 186.386719 53.316406 186.136719 53.316406 186.136719 53.730469 C 186.136719 53.980469 186.386719 53.980469 186.722656 53.980469 L 188.097656 53.980469 C 188.097656 54.105469 186.929688 60.773438 186.472656 62.773438 C 186.386719 63.191406 186.054688 64.566406 185.179688 64.566406 C 185.136719 64.566406 184.722656 64.566406 184.347656 64.355469 C 185.097656 64.105469 185.179688 63.441406 185.179688 63.355469 C 185.179688 62.941406 184.847656 62.648438 184.429688 62.648438 C 183.929688 62.648438 183.386719 63.066406 183.386719 63.773438 C 183.386719 64.605469 184.261719 65.105469 185.179688 65.105469 C 186.347656 65.105469 187.179688 63.898438 187.386719 63.480469 C 188.054688 62.230469 188.511719 59.941406 188.554688 59.730469 Z M 189.597656 53.980469 "/>
<path fill-rule="nonzero" fill="rgb(0%, 0%, 0%)" fill-opacity="1" d="M 200.371094 59.71875 C 200.371094 58.761719 200.371094 55.136719 196.871094 55.136719 C 193.414062 55.136719 193.414062 58.761719 193.414062 59.71875 C 193.414062 60.679688 193.414062 64.261719 196.871094 64.261719 C 200.371094 64.261719 200.371094 60.679688 200.371094 59.71875 Z M 196.871094 63.804688 C 196.414062 63.804688 195.289062 63.636719 194.953125 62.304688 C 194.746094 61.59375 194.746094 60.636719 194.746094 59.554688 C 194.746094 58.554688 194.746094 57.636719 194.953125 56.886719 C 195.289062 55.761719 196.328125 55.554688 196.871094 55.554688 C 197.871094 55.554688 198.578125 56.054688 198.828125 57.011719 C 199.039062 57.679688 199.039062 58.761719 199.039062 59.554688 C 199.039062 60.46875 199.039062 61.554688 198.828125 62.34375 C 198.496094 63.636719 197.414062 63.804688 196.871094 63.804688 Z M 196.871094 63.804688 "/>
<path fill="none" stroke-width="0.39848" stroke-linecap="butt" stroke-linejoin="miter" stroke="rgb(0%, 0%, 0%)" stroke-opacity="1" stroke-miterlimit="10" d="M -34.295708 15.82827 L -11.181938 15.82827 " transform="matrix(2.666667, 0, 0, -2.666667, 293.256002, 67.072001)"/>
<path fill="none" stroke-width="0.39848" stroke-linecap="round" stroke-linejoin="round" stroke="rgb(0%, 0%, 0%)" stroke-opacity="1" stroke-miterlimit="10" d="M -2.071724 2.392324 C -1.693794 0.958242 -0.850044 0.278555 -0.00189972 0.00169945 C -0.850044 -0.279551 -1.693794 -0.956308 -2.071724 -2.388926 " transform="matrix(2.666667, 0, 0, -2.666667, 263.973816, 24.867813)"/>
<path fill-rule="nonzero" fill="rgb(0%, 0%, 0%)" fill-opacity="1" d="M 226.515625 13.789062 C 226.429688 14.039062 226.347656 14.246094 226.347656 14.578125 C 226.347656 15.453125 227.054688 16.121094 228.097656 16.121094 C 229.929688 16.121094 230.765625 13.578125 230.765625 13.289062 C 230.765625 13.039062 230.515625 13.039062 230.472656 13.039062 C 230.222656 13.039062 230.179688 13.164062 230.097656 13.371094 C 229.679688 14.871094 228.890625 15.621094 228.140625 15.621094 C 227.765625 15.621094 227.679688 15.371094 227.679688 14.953125 C 227.679688 14.539062 227.804688 14.203125 227.972656 13.789062 C 228.179688 13.289062 228.390625 12.789062 228.554688 12.289062 C 228.722656 11.828125 229.429688 10.164062 229.472656 9.914062 C 229.554688 9.746094 229.597656 9.539062 229.597656 9.328125 C 229.597656 8.453125 228.847656 7.746094 227.847656 7.746094 C 225.972656 7.746094 225.140625 10.289062 225.140625 10.621094 C 225.140625 10.828125 225.390625 10.828125 225.472656 10.828125 C 225.722656 10.828125 225.722656 10.746094 225.804688 10.539062 C 226.265625 8.953125 227.097656 8.289062 227.765625 8.289062 C 228.054688 8.289062 228.222656 8.414062 228.222656 8.914062 C 228.222656 9.371094 228.140625 9.621094 227.679688 10.789062 Z M 226.515625 13.789062 "/>
<path fill-rule="nonzero" fill="rgb(0%, 0%, 0%)" fill-opacity="1" d="M 236.96875 10.152344 C 236.96875 9.777344 236.925781 9.777344 236.46875 9.777344 C 235.550781 10.609375 234.050781 10.609375 233.800781 10.609375 L 233.59375 10.609375 L 233.59375 11.195312 L 233.800781 11.195312 C 234.09375 11.195312 234.96875 11.152344 235.761719 10.820312 L 235.761719 17.484375 C 235.761719 17.859375 235.761719 18.027344 234.34375 18.027344 L 233.675781 18.027344 L 233.675781 18.609375 C 234.386719 18.570312 235.59375 18.570312 236.34375 18.570312 C 237.136719 18.570312 238.300781 18.570312 239.050781 18.609375 L 239.050781 18.027344 L 238.386719 18.027344 C 236.96875 18.027344 236.96875 17.859375 236.96875 17.484375 Z M 236.96875 10.152344 "/>
<path fill="none" stroke-width="0.39848" stroke-linecap="butt" stroke-linejoin="miter" stroke="rgb(0%, 0%, 0%)" stroke-opacity="1" stroke-miterlimit="10" d="M -34.893364 7.991356 L -7.776176 -11.617043 " transform="matrix(2.666667, 0, 0, -2.666667, 293.256002, 67.072001)"/>
<path fill="none" stroke-width="0.39848" stroke-linecap="round" stroke-linejoin="round" stroke="rgb(0%, 0%, 0%)" stroke-opacity="1" stroke-miterlimit="10" d="M -2.07224 2.391912 C -1.695163 0.958034 -0.849926 0.276698 0.000602737 0.000520616 C -0.849914 -0.278289 -1.694181 -0.955718 -2.072853 -2.391975 " transform="matrix(2.160773, 1.562587, 1.562587, -2.160773, 272.947103, 98.363464)"/>
<path fill-rule="nonzero" fill="rgb(0%, 0%, 0%)" fill-opacity="1" d="M 250.632812 55.011719 L 252.421875 55.011719 C 252.796875 55.011719 253.046875 55.011719 253.046875 54.59375 C 253.046875 54.34375 252.796875 54.34375 252.464844 54.34375 L 250.757812 54.34375 C 251.171875 51.96875 251.296875 51.136719 251.464844 50.59375 C 251.546875 50.175781 251.964844 49.800781 252.421875 49.800781 C 252.421875 49.800781 252.921875 49.800781 253.296875 50.011719 C 252.507812 50.261719 252.464844 50.925781 252.464844 51.011719 C 252.464844 51.425781 252.796875 51.71875 253.214844 51.71875 C 253.714844 51.71875 254.257812 51.300781 254.257812 50.59375 C 254.257812 49.71875 253.382812 49.261719 252.421875 49.261719 C 251.589844 49.261719 250.671875 49.71875 250.171875 50.636719 C 249.796875 51.34375 249.671875 52.175781 249.257812 54.34375 L 247.796875 54.34375 C 247.421875 54.34375 247.171875 54.34375 247.171875 54.761719 C 247.171875 55.011719 247.421875 55.011719 247.757812 55.011719 L 249.132812 55.011719 C 249.132812 55.136719 247.964844 61.800781 247.507812 63.800781 C 247.421875 64.21875 247.089844 65.59375 246.214844 65.59375 C 246.171875 65.59375 245.757812 65.59375 245.382812 65.386719 C 246.132812 65.136719 246.214844 64.46875 246.214844 64.386719 C 246.214844 63.96875 245.882812 63.675781 245.464844 63.675781 C 244.964844 63.675781 244.421875 64.09375 244.421875 64.800781 C 244.421875 65.636719 245.296875 66.136719 246.214844 66.136719 C 247.382812 66.136719 248.214844 64.925781 248.421875 64.511719 C 249.089844 63.261719 249.546875 60.96875 249.589844 60.761719 Z M 250.632812 55.011719 "/>
<path fill-rule="nonzero" fill="rgb(0%, 0%, 0%)" fill-opacity="1" d="M 258.695312 56.542969 C 258.695312 56.167969 258.65625 56.167969 258.195312 56.167969 C 257.28125 57 255.78125 57 255.53125 57 L 255.320312 57 L 255.320312 57.582031 L 255.53125 57.582031 C 255.820312 57.582031 256.695312 57.542969 257.488281 57.207031 L 257.488281 63.875 C 257.488281 64.25 257.488281 64.417969 256.070312 64.417969 L 255.40625 64.417969 L 255.40625 65 C 256.113281 64.957031 257.320312 64.957031 258.070312 64.957031 C 258.863281 64.957031 260.03125 64.957031 260.78125 65 L 260.78125 64.417969 L 260.113281 64.417969 C 258.695312 64.417969 258.695312 64.25 258.695312 63.875 Z M 258.695312 56.542969 "/>
<path fill="none" stroke-width="0.39848" stroke-linecap="butt" stroke-linejoin="miter" stroke="rgb(0%, 0%, 0%)" stroke-opacity="1" stroke-miterlimit="10" d="M 12.084175 15.82827 L 35.19648 15.82827 " transform="matrix(2.666667, 0, 0, -2.666667, 293.256002, 67.072001)"/>
<path fill="none" stroke-width="0.39848" stroke-linecap="round" stroke-linejoin="round" stroke="rgb(0%, 0%, 0%)" stroke-opacity="1" stroke-miterlimit="10" d="M -2.070526 2.392324 C -1.691132 0.958242 -0.851776 0.278555 -0.000701904 0.00169945 C -0.851776 -0.279551 -1.691132 -0.956308 -2.070526 -2.388926 " transform="matrix(2.666667, 0, 0, -2.666667, 387.646403, 24.867813)"/>
<path fill-rule="nonzero" fill="rgb(0%, 0%, 0%)" fill-opacity="1" d="M 350.1875 13.789062 C 350.101562 14.039062 350.019531 14.246094 350.019531 14.578125 C 350.019531 15.453125 350.726562 16.121094 351.769531 16.121094 C 353.601562 16.121094 354.4375 13.578125 354.4375 13.289062 C 354.4375 13.039062 354.1875 13.039062 354.144531 13.039062 C 353.894531 13.039062 353.851562 13.164062 353.769531 13.371094 C 353.351562 14.871094 352.5625 15.621094 351.8125 15.621094 C 351.4375 15.621094 351.351562 15.371094 351.351562 14.953125 C 351.351562 14.539062 351.476562 14.203125 351.644531 13.789062 C 351.851562 13.289062 352.0625 12.789062 352.226562 12.289062 C 352.394531 11.828125 353.101562 10.164062 353.144531 9.914062 C 353.226562 9.746094 353.269531 9.539062 353.269531 9.328125 C 353.269531 8.453125 352.519531 7.746094 351.519531 7.746094 C 349.644531 7.746094 348.8125 10.289062 348.8125 10.621094 C 348.8125 10.828125 349.0625 10.828125 349.144531 10.828125 C 349.394531 10.828125 349.394531 10.746094 349.476562 10.539062 C 349.9375 8.953125 350.769531 8.289062 351.4375 8.289062 C 351.726562 8.289062 351.894531 8.414062 351.894531 8.914062 C 351.894531 9.371094 351.8125 9.621094 351.351562 10.789062 Z M 350.1875 13.789062 "/>
<path fill-rule="nonzero" fill="rgb(0%, 0%, 0%)" fill-opacity="1" d="M 363.183594 16.027344 L 362.597656 16.027344 C 362.597656 16.277344 362.433594 17.109375 362.222656 17.234375 C 362.140625 17.320312 361.015625 17.320312 360.808594 17.320312 L 358.222656 17.320312 C 359.097656 16.695312 360.058594 15.945312 360.847656 15.402344 C 362.058594 14.570312 363.183594 13.820312 363.183594 12.402344 C 363.183594 10.695312 361.558594 9.777344 359.683594 9.777344 C 357.890625 9.777344 356.558594 10.777344 356.558594 12.109375 C 356.558594 12.777344 357.140625 12.902344 357.347656 12.902344 C 357.683594 12.902344 358.097656 12.652344 358.097656 12.109375 C 358.097656 11.652344 357.765625 11.359375 357.347656 11.359375 C 357.722656 10.734375 358.515625 10.359375 359.390625 10.359375 C 360.683594 10.359375 361.765625 11.109375 361.765625 12.402344 C 361.765625 13.527344 360.972656 14.402344 359.972656 15.234375 L 356.722656 17.984375 C 356.597656 18.109375 356.558594 18.109375 356.558594 18.195312 L 356.558594 18.609375 L 362.722656 18.609375 Z M 363.183594 16.027344 "/>
<path fill="none" stroke-width="0.39848" stroke-linecap="butt" stroke-linejoin="miter" stroke="rgb(0%, 0%, 0%)" stroke-opacity="1" stroke-miterlimit="10" d="M 0.649605 7.991356 L 0.649605 -9.144386 " transform="matrix(2.666667, 0, 0, -2.666667, 293.256002, 67.072001)"/>
<path fill="none" stroke-width="0.39848" stroke-linecap="round" stroke-linejoin="round" stroke="rgb(0%, 0%, 0%)" stroke-opacity="1" stroke-miterlimit="10" d="M -2.073494 2.389259 C -1.694099 0.956642 -0.850349 0.279884 0.000724792 -0.00136566 C -0.850349 -0.278221 -1.694099 -0.957909 -2.073494 -2.391991 " transform="matrix(0, 2.666667, 2.666667, 0, 294.991923, 91.986348)"/>
<path fill-rule="nonzero" fill="rgb(0%, 0%, 0%)" fill-opacity="1" d="M 308.832031 66.453125 L 310.621094 66.453125 C 310.996094 66.453125 311.246094 66.453125 311.246094 66.035156 C 311.246094 65.785156 310.996094 65.785156 310.664062 65.785156 L 308.957031 65.785156 C 309.371094 63.410156 309.496094 62.578125 309.664062 62.035156 C 309.746094 61.621094 310.164062 61.246094 310.621094 61.246094 C 310.621094 61.246094 311.121094 61.246094 311.496094 61.453125 C 310.707031 61.703125 310.664062 62.371094 310.664062 62.453125 C 310.664062 62.871094 310.996094 63.160156 311.414062 63.160156 C 311.914062 63.160156 312.457031 62.746094 312.457031 62.035156 C 312.457031 61.160156 311.582031 60.703125 310.621094 60.703125 C 309.789062 60.703125 308.871094 61.160156 308.371094 62.078125 C 307.996094 62.785156 307.871094 63.621094 307.457031 65.785156 L 305.996094 65.785156 C 305.621094 65.785156 305.371094 65.785156 305.371094 66.203125 C 305.371094 66.453125 305.621094 66.453125 305.957031 66.453125 L 307.332031 66.453125 C 307.332031 66.578125 306.164062 73.246094 305.707031 75.246094 C 305.621094 75.660156 305.289062 77.035156 304.414062 77.035156 C 304.371094 77.035156 303.957031 77.035156 303.582031 76.828125 C 304.332031 76.578125 304.414062 75.910156 304.414062 75.828125 C 304.414062 75.410156 304.082031 75.121094 303.664062 75.121094 C 303.164062 75.121094 302.621094 75.535156 302.621094 76.246094 C 302.621094 77.078125 303.496094 77.578125 304.414062 77.578125 C 305.582031 77.578125 306.414062 76.371094 306.621094 75.953125 C 307.289062 74.703125 307.746094 72.410156 307.789062 72.203125 Z M 308.832031 66.453125 "/>
<path fill-rule="nonzero" fill="rgb(0%, 0%, 0%)" fill-opacity="1" d="M 319.4375 73.859375 L 318.855469 73.859375 C 318.855469 74.109375 318.6875 74.941406 318.480469 75.066406 C 318.398438 75.152344 317.273438 75.152344 317.0625 75.152344 L 314.480469 75.152344 C 315.355469 74.527344 316.3125 73.777344 317.105469 73.234375 C 318.3125 72.402344 319.4375 71.652344 319.4375 70.234375 C 319.4375 68.527344 317.8125 67.609375 315.9375 67.609375 C 314.148438 67.609375 312.8125 68.609375 312.8125 69.941406 C 312.8125 70.609375 313.398438 70.734375 313.605469 70.734375 C 313.9375 70.734375 314.355469 70.484375 314.355469 69.941406 C 314.355469 69.484375 314.023438 69.191406 313.605469 69.191406 C 313.980469 68.566406 314.773438 68.191406 315.648438 68.191406 C 316.9375 68.191406 318.023438 68.941406 318.023438 70.234375 C 318.023438 71.359375 317.230469 72.234375 316.230469 73.066406 L 312.980469 75.816406 C 312.855469 75.941406 312.8125 75.941406 312.8125 76.027344 L 312.8125 76.441406 L 318.980469 76.441406 Z M 319.4375 73.859375 "/>
<path fill="none" stroke-width="0.39848" stroke-linecap="butt" stroke-linejoin="miter" stroke="rgb(0%, 0%, 0%)" stroke-opacity="1" stroke-miterlimit="10" d="M 56.205269 15.82827 L 79.317574 15.82827 " transform="matrix(2.666667, 0, 0, -2.666667, 293.256002, 67.072001)"/>
<path fill="none" stroke-width="0.39848" stroke-linecap="round" stroke-linejoin="round" stroke="rgb(0%, 0%, 0%)" stroke-opacity="1" stroke-miterlimit="10" d="M -2.071075 2.392324 C -1.691681 0.958242 -0.847931 0.278555 -0.00125122 0.00169945 C -0.847931 -0.279551 -1.691681 -0.956308 -2.071075 -2.388926 " transform="matrix(2.666667, 0, 0, -2.666667, 505.304118, 24.867813)"/>
<path fill-rule="nonzero" fill="rgb(0%, 0%, 0%)" fill-opacity="1" d="M 454.800781 11.574219 C 454.714844 11.824219 454.632812 12.03125 454.632812 12.367188 C 454.632812 13.242188 455.339844 13.90625 456.382812 13.90625 C 458.214844 13.90625 459.050781 11.367188 459.050781 11.074219 C 459.050781 10.824219 458.800781 10.824219 458.757812 10.824219 C 458.507812 10.824219 458.464844 10.949219 458.382812 11.15625 C 457.964844 12.65625 457.175781 13.40625 456.425781 13.40625 C 456.050781 13.40625 455.964844 13.15625 455.964844 12.742188 C 455.964844 12.324219 456.089844 11.992188 456.257812 11.574219 C 456.464844 11.074219 456.675781 10.574219 456.839844 10.074219 C 457.007812 9.617188 457.714844 7.949219 457.757812 7.699219 C 457.839844 7.53125 457.882812 7.324219 457.882812 7.117188 C 457.882812 6.242188 457.132812 5.53125 456.132812 5.53125 C 454.257812 5.53125 453.425781 8.074219 453.425781 8.40625 C 453.425781 8.617188 453.675781 8.617188 453.757812 8.617188 C 454.007812 8.617188 454.007812 8.53125 454.089844 8.324219 C 454.550781 6.742188 455.382812 6.074219 456.050781 6.074219 C 456.339844 6.074219 456.507812 6.199219 456.507812 6.699219 C 456.507812 7.15625 456.425781 7.40625 455.964844 8.574219 Z M 454.800781 11.574219 "/>
<path fill-rule="nonzero" fill="rgb(0%, 0%, 0%)" fill-opacity="1" d="M 462.546875 15.105469 C 462.460938 15.4375 462.335938 16.023438 462.335938 16.0625 C 462.335938 16.355469 462.585938 16.5625 462.835938 16.5625 C 463.003906 16.5625 463.296875 16.4375 463.460938 16.105469 C 463.460938 16.023438 463.628906 15.398438 463.710938 15.0625 C 464.171875 13.273438 464.171875 13.230469 464.171875 13.1875 C 464.378906 12.855469 465.335938 10.980469 466.921875 10.980469 C 467.585938 10.980469 467.878906 11.3125 467.878906 11.9375 C 467.878906 12.6875 467.296875 14.0625 467.003906 14.8125 C 466.921875 14.980469 466.878906 15.148438 466.878906 15.355469 C 466.878906 16.0625 467.546875 16.5625 468.335938 16.5625 C 469.753906 16.5625 470.460938 14.8125 470.460938 14.480469 C 470.460938 14.3125 470.253906 14.3125 470.210938 14.3125 C 469.960938 14.3125 469.960938 14.355469 469.878906 14.605469 C 469.628906 15.398438 469.003906 16.105469 468.378906 16.105469 C 468.085938 16.105469 467.960938 15.898438 467.960938 15.605469 C 467.960938 15.3125 468.046875 15.1875 468.171875 14.898438 C 468.378906 14.355469 469.003906 12.855469 469.003906 12.105469 C 469.003906 11.105469 468.296875 10.523438 467.003906 10.523438 C 465.796875 10.523438 464.960938 11.273438 464.503906 11.855469 C 464.460938 10.730469 463.378906 10.523438 462.878906 10.523438 C 461.546875 10.523438 461.171875 12.5625 461.171875 12.5625 C 461.171875 12.773438 461.378906 12.773438 461.460938 12.773438 C 461.671875 12.773438 461.710938 12.6875 461.753906 12.523438 C 461.960938 11.730469 462.253906 10.980469 462.835938 10.980469 C 463.253906 10.980469 463.378906 11.398438 463.378906 11.6875 C 463.378906 11.855469 463.210938 12.355469 463.171875 12.730469 C 463.046875 13.0625 462.921875 13.605469 462.878906 13.898438 Z M 462.546875 15.105469 "/>
<path fill-rule="nonzero" fill="rgb(0%, 0%, 0%)" fill-opacity="1" d="M 483.371094 13.4375 C 483.578125 13.4375 483.910156 13.4375 483.910156 13.0625 C 483.910156 12.6875 483.578125 12.6875 483.371094 12.6875 L 474.371094 12.6875 C 474.160156 12.6875 473.785156 12.6875 473.785156 13.0625 C 473.785156 13.4375 474.160156 13.4375 474.371094 13.4375 Z M 483.371094 13.4375 "/>
<path fill-rule="nonzero" fill="rgb(0%, 0%, 0%)" fill-opacity="1" d="M 491.34375 7.9375 C 491.34375 7.5625 491.304688 7.5625 490.84375 7.5625 C 489.929688 8.398438 488.429688 8.398438 488.179688 8.398438 L 487.96875 8.398438 L 487.96875 8.980469 L 488.179688 8.980469 C 488.46875 8.980469 489.34375 8.9375 490.136719 8.605469 L 490.136719 15.273438 C 490.136719 15.648438 490.136719 15.8125 488.71875 15.8125 L 488.054688 15.8125 L 488.054688 16.398438 C 488.761719 16.355469 489.96875 16.355469 490.71875 16.355469 C 491.511719 16.355469 492.679688 16.355469 493.429688 16.398438 L 493.429688 15.8125 L 492.761719 15.8125 C 491.34375 15.8125 491.34375 15.648438 491.34375 15.273438 Z M 491.34375 7.9375 "/>
<path fill="none" stroke-width="0.39848" stroke-linecap="butt" stroke-linejoin="miter" stroke="rgb(0%, 0%, 0%)" stroke-opacity="1" stroke-miterlimit="10" d="M 79.716011 11.441063 L 9.13105 -14.586281 " transform="matrix(2.666667, 0, 0, -2.666667, 293.256002, 67.072001)"/>
<path fill="none" stroke-width="0.39848" stroke-linecap="round" stroke-linejoin="round" stroke="rgb(0%, 0%, 0%)" stroke-opacity="1" stroke-miterlimit="10" d="M -2.07023 2.389139 C -1.695912 0.956806 -0.85014 0.278057 0.000436823 0.00191254 C -0.852379 -0.278502 -1.692201 -0.955595 -2.071079 -2.38969 " transform="matrix(-2.50192, 0.92248, 0.92248, 2.50192, 317.104797, 106.151062)"/>
<path fill-rule="nonzero" fill="rgb(0%, 0%, 0%)" fill-opacity="1" d="M 389.160156 54.242188 L 390.949219 54.242188 C 391.324219 54.242188 391.574219 54.242188 391.574219 53.824219 C 391.574219 53.574219 391.324219 53.574219 390.992188 53.574219 L 389.285156 53.574219 C 389.699219 51.199219 389.824219 50.367188 389.992188 49.824219 C 390.074219 49.410156 390.492188 49.035156 390.949219 49.035156 C 390.949219 49.035156 391.449219 49.035156 391.824219 49.242188 C 391.035156 49.492188 390.992188 50.160156 390.992188 50.242188 C 390.992188 50.660156 391.324219 50.949219 391.742188 50.949219 C 392.242188 50.949219 392.785156 50.535156 392.785156 49.824219 C 392.785156 48.949219 391.910156 48.492188 390.949219 48.492188 C 390.117188 48.492188 389.199219 48.949219 388.699219 49.867188 C 388.324219 50.574219 388.199219 51.410156 387.785156 53.574219 L 386.324219 53.574219 C 385.949219 53.574219 385.699219 53.574219 385.699219 53.992188 C 385.699219 54.242188 385.949219 54.242188 386.285156 54.242188 L 387.660156 54.242188 C 387.660156 54.367188 386.492188 61.035156 386.035156 63.035156 C 385.949219 63.449219 385.617188 64.824219 384.742188 64.824219 C 384.699219 64.824219 384.285156 64.824219 383.910156 64.617188 C 384.660156 64.367188 384.742188 63.699219 384.742188 63.617188 C 384.742188 63.199219 384.410156 62.910156 383.992188 62.910156 C 383.492188 62.910156 382.949219 63.324219 382.949219 64.035156 C 382.949219 64.867188 383.824219 65.367188 384.742188 65.367188 C 385.910156 65.367188 386.742188 64.160156 386.949219 63.742188 C 387.617188 62.492188 388.074219 60.199219 388.117188 59.992188 Z M 389.160156 54.242188 "/>
<path fill-rule="nonzero" fill="rgb(0%, 0%, 0%)" fill-opacity="1" d="M 394.515625 62.941406 C 394.433594 63.273438 394.308594 63.855469 394.308594 63.898438 C 394.308594 64.191406 394.558594 64.398438 394.808594 64.398438 C 394.976562 64.398438 395.265625 64.273438 395.433594 63.941406 C 395.433594 63.855469 395.601562 63.230469 395.683594 62.898438 C 396.140625 61.105469 396.140625 61.066406 396.140625 61.023438 C 396.351562 60.691406 397.308594 58.816406 398.890625 58.816406 C 399.558594 58.816406 399.851562 59.148438 399.851562 59.773438 C 399.851562 60.523438 399.265625 61.898438 398.976562 62.648438 C 398.890625 62.816406 398.851562 62.980469 398.851562 63.191406 C 398.851562 63.898438 399.515625 64.398438 400.308594 64.398438 C 401.726562 64.398438 402.433594 62.648438 402.433594 62.316406 C 402.433594 62.148438 402.226562 62.148438 402.183594 62.148438 C 401.933594 62.148438 401.933594 62.191406 401.851562 62.441406 C 401.601562 63.230469 400.976562 63.941406 400.351562 63.941406 C 400.058594 63.941406 399.933594 63.730469 399.933594 63.441406 C 399.933594 63.148438 400.015625 63.023438 400.140625 62.730469 C 400.351562 62.191406 400.976562 60.691406 400.976562 59.941406 C 400.976562 58.941406 400.265625 58.355469 398.976562 58.355469 C 397.765625 58.355469 396.933594 59.105469 396.476562 59.691406 C 396.433594 58.566406 395.351562 58.355469 394.851562 58.355469 C 393.515625 58.355469 393.140625 60.398438 393.140625 60.398438 C 393.140625 60.605469 393.351562 60.605469 393.433594 60.605469 C 393.640625 60.605469 393.683594 60.523438 393.726562 60.355469 C 393.933594 59.566406 394.226562 58.816406 394.808594 58.816406 C 395.226562 58.816406 395.351562 59.230469 395.351562 59.523438 C 395.351562 59.691406 395.183594 60.191406 395.140625 60.566406 C 395.015625 60.898438 394.890625 61.441406 394.851562 61.730469 Z M 394.515625 62.941406 "/>
</svg>
