<?xml version="1.0" encoding="UTF-8"?>
<svg xmlns="http://www.w3.org/2000/svg" xmlns:xlink="http://www.w3.org/1999/xlink" width="270.426676" height="116.906667" viewBox="0 0 270.426676 116.906667">
<defs>
<clipPath id="clip-0">
<path clip-rule="nonzero" d="M 203 90 L 210 90 L 210 116.90625 L 203 116.90625 Z M 203 90 "/>
</clipPath>
<clipPath id="clip-1">
<path clip-rule="nonzero" d="M 231 107 L 234.667969 107 L 234.667969 116 L 231 116 Z M 231 107 "/>
</clipPath>
<clipPath id="clip-2">
<path clip-rule="nonzero" d="M 255 90 L 262 90 L 262 116.90625 L 255 116.90625 Z M 255 90 "/>
</clipPath>
</defs>
<path fill-rule="nonzero" fill="rgb(0%, 0%, 0%)" fill-opacity="1" d="M 57.75 11.519531 L 62.289062 11.519531 C 66.039062 11.519531 69.75 8.769531 69.75 5.8125 C 69.75 3.726562 68 1.769531 64.5 1.769531 L 55.914062 1.769531 C 55.414062 1.769531 55.125 1.769531 55.125 2.269531 C 55.125 2.601562 55.332031 2.601562 55.875 2.601562 C 56.207031 2.601562 56.707031 2.644531 57 2.644531 C 57.457031 2.726562 57.582031 2.769531 57.582031 3.101562 C 57.582031 3.1875 57.582031 3.269531 57.5 3.601562 L 53.914062 17.851562 C 53.664062 18.894531 53.625 19.101562 51.5 19.101562 C 51.082031 19.101562 50.789062 19.101562 50.789062 19.601562 C 50.789062 19.9375 51.082031 19.9375 51.164062 19.9375 C 51.914062 19.9375 53.789062 19.851562 54.539062 19.851562 C 55.125 19.851562 55.707031 19.894531 56.25 19.894531 C 56.832031 19.894531 57.414062 19.9375 57.957031 19.9375 C 58.164062 19.9375 58.5 19.9375 58.5 19.394531 C 58.5 19.101562 58.25 19.101562 57.75 19.101562 C 56.789062 19.101562 56.039062 19.101562 56.039062 18.644531 C 56.039062 18.476562 56.082031 18.351562 56.125 18.1875 Z M 59.664062 3.601562 C 59.914062 2.6875 59.957031 2.601562 61.125 2.601562 L 63.664062 2.601562 C 65.875 2.601562 67.289062 3.3125 67.289062 5.144531 C 67.289062 6.1875 66.75 8.476562 65.707031 9.4375 C 64.375 10.644531 62.789062 10.851562 61.625 10.851562 L 57.875 10.851562 Z M 59.664062 3.601562 "/>
<path fill-rule="nonzero" fill="rgb(0%, 0%, 0%)" fill-opacity="1" d="M 155.949219 17.851562 C 155.949219 18.8125 155.867188 19.101562 153.824219 19.101562 L 153.199219 19.101562 L 153.199219 19.9375 L 168.535156 19.9375 L 169.660156 13.0625 L 168.992188 13.0625 C 168.324219 17.1875 167.699219 19.101562 163.160156 19.101562 L 159.617188 19.101562 C 158.367188 19.101562 158.324219 18.9375 158.324219 18.0625 L 158.324219 10.9375 L 160.699219 10.9375 C 163.285156 10.9375 163.574219 11.8125 163.574219 14.0625 L 164.242188 14.0625 L 164.242188 7.019531 L 163.574219 7.019531 C 163.574219 9.3125 163.285156 10.144531 160.699219 10.144531 L 158.324219 10.144531 L 158.324219 3.726562 C 158.324219 2.851562 158.367188 2.6875 159.617188 2.6875 L 163.035156 2.6875 C 167.117188 2.6875 167.824219 4.144531 168.242188 7.851562 L 168.910156 7.851562 L 168.160156 1.851562 L 153.199219 1.851562 L 153.199219 2.6875 L 153.824219 2.6875 C 155.867188 2.6875 155.949219 2.976562 155.949219 3.9375 Z M 155.949219 17.851562 "/>
<path fill-rule="nonzero" fill="rgb(0%, 0%, 0%)" fill-opacity="1" d="M 176.808594 2.351562 C 176.558594 1.769531 176.472656 1.769531 175.847656 1.769531 L 171.390625 1.769531 L 171.390625 2.601562 L 172.015625 2.601562 C 174.058594 2.601562 174.097656 2.894531 174.097656 3.851562 L 174.097656 17.144531 C 174.097656 17.851562 174.097656 19.101562 171.390625 19.101562 L 171.390625 19.9375 C 172.308594 19.894531 173.597656 19.851562 174.472656 19.851562 C 175.347656 19.851562 176.683594 19.894531 177.597656 19.9375 L 177.597656 19.101562 C 174.847656 19.101562 174.847656 17.851562 174.847656 17.144531 L 174.847656 2.8125 L 174.890625 2.8125 L 181.308594 19.351562 C 181.433594 19.6875 181.558594 19.9375 181.808594 19.9375 C 182.097656 19.9375 182.183594 19.726562 182.308594 19.4375 L 188.847656 2.601562 L 188.847656 17.851562 C 188.847656 18.8125 188.808594 19.101562 186.765625 19.101562 L 186.140625 19.101562 L 186.140625 19.9375 C 187.097656 19.851562 188.933594 19.851562 189.972656 19.851562 C 190.972656 19.851562 192.765625 19.851562 193.765625 19.9375 L 193.765625 19.101562 L 193.097656 19.101562 C 191.058594 19.101562 191.015625 18.8125 191.015625 17.851562 L 191.015625 3.851562 C 191.015625 2.894531 191.058594 2.601562 193.097656 2.601562 L 193.765625 2.601562 L 193.765625 1.769531 L 189.265625 1.769531 C 188.558594 1.769531 188.558594 1.8125 188.390625 2.269531 L 182.558594 17.269531 Z M 176.808594 2.351562 "/>
<path fill-rule="nonzero" fill="rgb(0%, 0%, 0%)" fill-opacity="1" d="M 204.175781 19.296875 C 204.175781 17.046875 202.386719 15.296875 200.175781 15.296875 C 197.96875 15.296875 196.175781 17.085938 196.175781 19.253906 C 196.175781 21.503906 198.011719 23.253906 200.175781 23.253906 C 202.425781 23.253906 204.175781 21.460938 204.175781 19.296875 Z M 204.175781 19.296875 "/>
<path fill-rule="nonzero" fill="rgb(0%, 0%, 0%)" fill-opacity="1" d="M 215.765625 26.3125 C 215.765625 26.226562 215.765625 26.1875 215.308594 25.726562 C 212.015625 22.394531 211.140625 17.351562 211.140625 13.269531 C 211.140625 8.644531 212.140625 4.019531 215.433594 0.726562 C 215.765625 0.394531 215.765625 0.351562 215.765625 0.269531 C 215.765625 0.0625 215.683594 -0.0234375 215.515625 -0.0234375 C 215.222656 -0.0234375 212.847656 1.8125 211.265625 5.1875 C 209.933594 8.101562 209.597656 11.0625 209.597656 13.269531 C 209.597656 15.351562 209.890625 18.5625 211.347656 21.601562 C 212.972656 24.851562 215.222656 26.601562 215.515625 26.601562 C 215.683594 26.601562 215.765625 26.519531 215.765625 26.3125 Z M 215.765625 26.3125 "/>
<path fill-rule="nonzero" fill="rgb(0%, 0%, 0%)" fill-opacity="1" d="M 233.136719 2.6875 C 233.386719 2.351562 233.386719 2.269531 233.386719 2.1875 C 233.386719 1.726562 232.96875 1.726562 232.511719 1.726562 L 220.34375 1.726562 C 219.46875 1.726562 219.46875 1.8125 219.386719 2.476562 L 219.011719 6.101562 L 218.96875 6.4375 C 218.96875 6.8125 219.261719 6.9375 219.429688 6.9375 C 219.679688 6.9375 219.84375 6.769531 219.886719 6.519531 C 219.96875 5.894531 220.21875 4.726562 221.84375 3.726562 C 223.34375 2.726562 225.21875 2.644531 226.136719 2.644531 L 228.261719 2.644531 L 218.304688 18.976562 C 218.054688 19.3125 218.054688 19.394531 218.054688 19.476562 C 218.054688 19.9375 218.46875 19.9375 218.96875 19.9375 L 232.59375 19.9375 C 233.386719 19.9375 233.386719 19.894531 233.511719 19.1875 L 234.21875 13.9375 C 234.21875 13.644531 233.96875 13.476562 233.761719 13.476562 C 233.34375 13.476562 233.304688 13.726562 233.21875 14.269531 C 232.761719 16.4375 230.71875 19.019531 226.929688 19.019531 L 223.136719 19.019531 Z M 220.304688 2.644531 L 221.71875 2.644531 L 221.71875 2.6875 C 221.011719 3.101562 220.511719 3.5625 220.179688 3.851562 Z M 229.386719 2.644531 L 232.09375 2.644531 L 222.054688 19.019531 L 219.34375 19.019531 Z M 230.761719 18.976562 C 231.511719 18.5625 232.21875 17.976562 232.84375 17.226562 C 232.761719 17.769531 232.71875 18.0625 232.59375 19.019531 L 230.761719 19.019531 Z M 230.761719 18.976562 "/>
<path fill-rule="nonzero" fill="rgb(0%, 0%, 0%)" fill-opacity="1" d="M 240.433594 19.894531 C 240.433594 18.144531 239.765625 17.101562 238.722656 17.101562 C 237.847656 17.101562 237.308594 17.769531 237.308594 18.519531 C 237.308594 19.226562 237.847656 19.9375 238.722656 19.9375 C 239.015625 19.9375 239.390625 19.8125 239.640625 19.601562 C 239.722656 19.519531 239.765625 19.519531 239.765625 19.519531 C 239.808594 19.519531 239.808594 19.519531 239.808594 19.894531 C 239.808594 21.894531 238.890625 23.476562 238.015625 24.351562 C 237.722656 24.644531 237.722656 24.6875 237.722656 24.769531 C 237.722656 24.976562 237.847656 25.0625 237.972656 25.0625 C 238.265625 25.0625 240.433594 23.019531 240.433594 19.894531 Z M 240.433594 19.894531 "/>
<path fill-rule="nonzero" fill="rgb(0%, 0%, 0%)" fill-opacity="1" d="M 254.65625 2.9375 C 254.65625 2.269531 254.65625 2.226562 254.03125 2.226562 C 252.367188 3.9375 250.03125 3.9375 249.199219 3.9375 L 249.199219 4.769531 C 249.742188 4.769531 251.28125 4.769531 252.65625 4.0625 L 252.65625 17.851562 C 252.65625 18.8125 252.574219 19.101562 250.199219 19.101562 L 249.367188 19.101562 L 249.367188 19.9375 C 250.28125 19.851562 252.574219 19.851562 253.65625 19.851562 C 254.699219 19.851562 257.03125 19.851562 257.949219 19.9375 L 257.949219 19.101562 L 257.117188 19.101562 C 254.699219 19.101562 254.65625 18.8125 254.65625 17.851562 Z M 254.65625 2.9375 "/>
<path fill-rule="nonzero" fill="rgb(0%, 0%, 0%)" fill-opacity="1" d="M 267.773438 13.269531 C 267.773438 11.226562 267.484375 8.019531 266.023438 4.976562 C 264.441406 1.726562 262.148438 -0.0234375 261.898438 -0.0234375 C 261.734375 -0.0234375 261.609375 0.101562 261.609375 0.269531 C 261.609375 0.351562 261.609375 0.394531 262.109375 0.894531 C 264.734375 3.519531 266.234375 7.726562 266.234375 13.269531 C 266.234375 17.851562 265.273438 22.519531 261.984375 25.851562 C 261.609375 26.1875 261.609375 26.226562 261.609375 26.3125 C 261.609375 26.476562 261.734375 26.601562 261.898438 26.601562 C 262.148438 26.601562 264.566406 24.769531 266.109375 21.394531 C 267.484375 18.476562 267.773438 15.519531 267.773438 13.269531 Z M 267.773438 13.269531 "/>
<path fill-rule="nonzero" fill="rgb(0%, 0%, 0%)" fill-opacity="1" d="M 59.910156 104.679688 L 54.824219 92.597656 C 54.617188 92.054688 54.617188 92.054688 53.867188 92.054688 L 48.949219 92.054688 C 48.449219 92.054688 48.074219 92.054688 48.074219 92.515625 C 48.074219 92.972656 48.535156 92.972656 48.660156 92.972656 C 48.992188 92.972656 49.699219 93.054688 50.285156 93.265625 L 50.285156 107.429688 C 50.285156 108.015625 50.285156 109.179688 48.492188 109.347656 C 47.992188 109.390625 47.992188 109.765625 47.992188 109.804688 C 47.992188 110.265625 48.410156 110.265625 48.910156 110.265625 L 52.992188 110.265625 C 53.492188 110.265625 53.867188 110.265625 53.867188 109.804688 C 53.867188 109.554688 53.660156 109.347656 53.449219 109.347656 C 51.410156 109.179688 51.410156 108.054688 51.410156 107.429688 L 51.410156 94.222656 L 51.449219 94.179688 L 57.910156 109.722656 C 58.160156 110.179688 58.324219 110.265625 58.492188 110.265625 C 58.824219 110.265625 58.867188 110.054688 59.035156 109.722656 L 65.535156 94.179688 L 65.574219 94.222656 L 65.574219 107.429688 C 65.574219 108.015625 65.574219 109.179688 63.742188 109.347656 C 63.242188 109.390625 63.242188 109.765625 63.242188 109.804688 C 63.242188 110.265625 63.660156 110.265625 64.160156 110.265625 L 71.242188 110.265625 C 71.742188 110.265625 72.117188 110.265625 72.117188 109.804688 C 72.117188 109.554688 71.910156 109.347656 71.699219 109.347656 C 69.660156 109.179688 69.660156 108.054688 69.660156 107.429688 L 69.660156 94.890625 C 69.660156 94.304688 69.660156 93.140625 71.449219 92.972656 C 71.742188 92.972656 71.949219 92.804688 71.949219 92.515625 C 71.949219 92.054688 71.574219 92.054688 71.074219 92.054688 L 65.949219 92.054688 C 65.285156 92.054688 65.199219 92.054688 64.992188 92.597656 Z M 59.117188 105.179688 C 59.324219 105.597656 59.367188 105.640625 59.699219 105.765625 L 58.492188 108.554688 L 58.449219 108.554688 L 52.410156 94.097656 C 52.285156 93.765625 52.035156 93.304688 51.699219 92.972656 L 53.992188 92.972656 Z M 51.074219 109.347656 L 50.660156 109.347656 C 50.699219 109.265625 50.742188 109.179688 50.785156 109.140625 C 50.824219 109.097656 50.824219 109.054688 50.867188 109.054688 Z M 66.492188 92.972656 L 69.324219 92.972656 C 68.699219 93.640625 68.699219 94.347656 68.699219 94.804688 L 68.699219 107.515625 C 68.699219 107.972656 68.699219 108.679688 69.324219 109.347656 L 65.910156 109.347656 C 66.492188 108.679688 66.492188 107.972656 66.492188 107.515625 Z M 66.492188 92.972656 "/>
<path fill-rule="nonzero" fill="rgb(0%, 0%, 0%)" fill-opacity="1" d="M 162.058594 108.179688 C 162.058594 109.140625 161.972656 109.429688 159.933594 109.429688 L 159.308594 109.429688 L 159.308594 110.265625 L 174.640625 110.265625 L 175.765625 103.390625 L 175.097656 103.390625 C 174.433594 107.515625 173.808594 109.429688 169.265625 109.429688 L 165.722656 109.429688 C 164.472656 109.429688 164.433594 109.265625 164.433594 108.390625 L 164.433594 101.265625 L 166.808594 101.265625 C 169.390625 101.265625 169.683594 102.140625 169.683594 104.390625 L 170.347656 104.390625 L 170.347656 97.347656 L 169.683594 97.347656 C 169.683594 99.640625 169.390625 100.472656 166.808594 100.472656 L 164.433594 100.472656 L 164.433594 94.054688 C 164.433594 93.179688 164.472656 93.015625 165.722656 93.015625 L 169.140625 93.015625 C 173.222656 93.015625 173.933594 94.472656 174.347656 98.179688 L 175.015625 98.179688 L 174.265625 92.179688 L 159.308594 92.179688 L 159.308594 93.015625 L 159.933594 93.015625 C 161.972656 93.015625 162.058594 93.304688 162.058594 94.265625 Z M 162.058594 108.179688 "/>
<path fill-rule="nonzero" fill="rgb(0%, 0%, 0%)" fill-opacity="1" d="M 182.914062 92.679688 C 182.664062 92.097656 182.582031 92.097656 181.957031 92.097656 L 177.496094 92.097656 L 177.496094 92.929688 L 178.121094 92.929688 C 180.164062 92.929688 180.207031 93.222656 180.207031 94.179688 L 180.207031 107.472656 C 180.207031 108.179688 180.207031 109.429688 177.496094 109.429688 L 177.496094 110.265625 C 178.414062 110.222656 179.707031 110.179688 180.582031 110.179688 C 181.457031 110.179688 182.789062 110.222656 183.707031 110.265625 L 183.707031 109.429688 C 180.957031 109.429688 180.957031 108.179688 180.957031 107.472656 L 180.957031 93.140625 L 180.996094 93.140625 L 187.414062 109.679688 C 187.539062 110.015625 187.664062 110.265625 187.914062 110.265625 C 188.207031 110.265625 188.289062 110.054688 188.414062 109.765625 L 194.957031 92.929688 L 194.957031 108.179688 C 194.957031 109.140625 194.914062 109.429688 192.871094 109.429688 L 192.246094 109.429688 L 192.246094 110.265625 C 193.207031 110.179688 195.039062 110.179688 196.082031 110.179688 C 197.082031 110.179688 198.871094 110.179688 199.871094 110.265625 L 199.871094 109.429688 L 199.207031 109.429688 C 197.164062 109.429688 197.121094 109.140625 197.121094 108.179688 L 197.121094 94.179688 C 197.121094 93.222656 197.164062 92.929688 199.207031 92.929688 L 199.871094 92.929688 L 199.871094 92.097656 L 195.371094 92.097656 C 194.664062 92.097656 194.664062 92.140625 194.496094 92.597656 L 188.664062 107.597656 Z M 182.914062 92.679688 "/>
<g clip-path="url(#clip-0)">
<path fill-rule="nonzero" fill="rgb(0%, 0%, 0%)" fill-opacity="1" d="M 209.625 116.640625 C 209.625 116.554688 209.625 116.515625 209.167969 116.054688 C 205.875 112.722656 205 107.679688 205 103.597656 C 205 98.972656 206 94.347656 209.292969 91.054688 C 209.625 90.722656 209.625 90.679688 209.625 90.597656 C 209.625 90.390625 209.542969 90.304688 209.375 90.304688 C 209.082031 90.304688 206.707031 92.140625 205.125 95.515625 C 203.792969 98.429688 203.457031 101.390625 203.457031 103.597656 C 203.457031 105.679688 203.75 108.890625 205.207031 111.929688 C 206.832031 115.179688 209.082031 116.929688 209.375 116.929688 C 209.542969 116.929688 209.625 116.847656 209.625 116.640625 Z M 209.625 116.640625 "/>
</g>
<path fill-rule="nonzero" fill="rgb(0%, 0%, 0%)" fill-opacity="1" d="M 227.03125 93.015625 C 227.28125 92.679688 227.28125 92.597656 227.28125 92.515625 C 227.28125 92.054688 226.863281 92.054688 226.40625 92.054688 L 214.238281 92.054688 C 213.363281 92.054688 213.363281 92.140625 213.28125 92.804688 L 212.90625 96.429688 L 212.863281 96.765625 C 212.863281 97.140625 213.15625 97.265625 213.324219 97.265625 C 213.574219 97.265625 213.738281 97.097656 213.78125 96.847656 C 213.863281 96.222656 214.113281 95.054688 215.738281 94.054688 C 217.238281 93.054688 219.113281 92.972656 220.03125 92.972656 L 222.15625 92.972656 L 212.199219 109.304688 C 211.949219 109.640625 211.949219 109.722656 211.949219 109.804688 C 211.949219 110.265625 212.363281 110.265625 212.863281 110.265625 L 226.488281 110.265625 C 227.28125 110.265625 227.28125 110.222656 227.40625 109.515625 L 228.113281 104.265625 C 228.113281 103.972656 227.863281 103.804688 227.65625 103.804688 C 227.238281 103.804688 227.199219 104.054688 227.113281 104.597656 C 226.65625 106.765625 224.613281 109.347656 220.824219 109.347656 L 217.03125 109.347656 Z M 214.199219 92.972656 L 215.613281 92.972656 L 215.613281 93.015625 C 214.90625 93.429688 214.40625 93.890625 214.074219 94.179688 Z M 223.28125 92.972656 L 225.988281 92.972656 L 215.949219 109.347656 L 213.238281 109.347656 Z M 224.65625 109.304688 C 225.40625 108.890625 226.113281 108.304688 226.738281 107.554688 C 226.65625 108.097656 226.613281 108.390625 226.488281 109.347656 L 224.65625 109.347656 Z M 224.65625 109.304688 "/>
<g clip-path="url(#clip-1)">
<path fill-rule="nonzero" fill="rgb(0%, 0%, 0%)" fill-opacity="1" d="M 234.324219 110.222656 C 234.324219 108.472656 233.660156 107.429688 232.617188 107.429688 C 231.742188 107.429688 231.199219 108.097656 231.199219 108.847656 C 231.199219 109.554688 231.742188 110.265625 232.617188 110.265625 C 232.910156 110.265625 233.285156 110.140625 233.535156 109.929688 C 233.617188 109.847656 233.660156 109.847656 233.660156 109.847656 C 233.699219 109.847656 233.699219 109.847656 233.699219 110.222656 C 233.699219 112.222656 232.785156 113.804688 231.910156 114.679688 C 231.617188 114.972656 231.617188 115.015625 231.617188 115.097656 C 231.617188 115.304688 231.742188 115.390625 231.867188 115.390625 C 232.160156 115.390625 234.324219 113.347656 234.324219 110.222656 Z M 234.324219 110.222656 "/>
</g>
<path fill-rule="nonzero" fill="rgb(0%, 0%, 0%)" fill-opacity="1" d="M 248.550781 93.265625 C 248.550781 92.597656 248.550781 92.554688 247.925781 92.554688 C 246.257812 94.265625 243.925781 94.265625 243.09375 94.265625 L 243.09375 95.097656 C 243.632812 95.097656 245.175781 95.097656 246.550781 94.390625 L 246.550781 108.179688 C 246.550781 109.140625 246.46875 109.429688 244.09375 109.429688 L 243.257812 109.429688 L 243.257812 110.265625 C 244.175781 110.179688 246.46875 110.179688 247.550781 110.179688 C 248.59375 110.179688 250.925781 110.179688 251.84375 110.265625 L 251.84375 109.429688 L 251.007812 109.429688 C 248.59375 109.429688 248.550781 109.140625 248.550781 108.179688 Z M 248.550781 93.265625 "/>
<g clip-path="url(#clip-2)">
<path fill-rule="nonzero" fill="rgb(0%, 0%, 0%)" fill-opacity="1" d="M 261.667969 103.597656 C 261.667969 101.554688 261.375 98.347656 259.917969 95.304688 C 258.335938 92.054688 256.042969 90.304688 255.792969 90.304688 C 255.625 90.304688 255.5 90.429688 255.5 90.597656 C 255.5 90.679688 255.5 90.722656 256 91.222656 C 258.625 93.847656 260.125 98.054688 260.125 103.597656 C 260.125 108.179688 259.167969 112.847656 255.875 116.179688 C 255.5 116.515625 255.5 116.554688 255.5 116.640625 C 255.5 116.804688 255.625 116.929688 255.792969 116.929688 C 256.042969 116.929688 258.460938 115.097656 260 111.722656 C 261.375 108.804688 261.667969 105.847656 261.667969 103.597656 Z M 261.667969 103.597656 "/>
</g>
<path fill="none" stroke-width="0.39848" stroke-linecap="butt" stroke-linejoin="miter" stroke="rgb(0%, 0%, 0%)" stroke-opacity="1" stroke-miterlimit="10" d="M -30.011112 16.937138 L -6.084354 16.937138 " transform="matrix(2.666667, 0, 0, -2.666667, 158.986664, 58.458669)"/>
<path fill="none" stroke-width="0.39848" stroke-linecap="round" stroke-linejoin="round" stroke="rgb(0%, 0%, 0%)" stroke-opacity="1" stroke-miterlimit="10" d="M -2.071465 2.391022 C -1.69207 0.958405 -0.84832 0.278717 -0.000175476 0.000396729 C -0.84832 -0.280853 -1.69207 -0.956146 -2.071465 -2.390228 " transform="matrix(2.666667, 0, 0, -2.666667, 143.293437, 13.294027)"/>
<path fill="none" stroke-width="0.39848" stroke-linecap="butt" stroke-linejoin="miter" stroke="rgb(0%, 0%, 0%)" stroke-opacity="1" stroke-miterlimit="10" d="M -37.089237 11.257938 L -37.089237 -8.975948 " transform="matrix(2.666667, 0, 0, -2.666667, 158.986664, 58.458669)"/>
<path fill="none" stroke-width="0.39848" stroke-linecap="round" stroke-linejoin="round" stroke="rgb(0%, 0%, 0%)" stroke-opacity="1" stroke-miterlimit="10" d="M -2.071507 2.391966 C -1.692112 0.954954 -0.848362 0.279661 -0.00168228 0.00134087 C -0.848362 -0.279909 -1.692112 -0.955202 -2.071507 -2.392214 " transform="matrix(0, 2.666667, 2.666667, 0, 60.078456, 82.930267)"/>
<path fill-rule="nonzero" fill="rgb(0%, 0%, 0%)" fill-opacity="1" d="M 28.582031 60.398438 C 27.375 60.398438 27.207031 60.398438 27.207031 59.605469 L 27.207031 56.605469 C 27.289062 56.6875 28.164062 57.648438 29.707031 57.648438 C 32.164062 57.648438 34.25 55.8125 34.25 53.480469 C 34.25 51.1875 32.375 49.273438 30 49.273438 C 28.957031 49.273438 27.875 49.6875 27.125 50.4375 L 27.125 49.273438 L 24.332031 49.480469 L 24.332031 50.148438 C 25.625 50.148438 25.707031 50.273438 25.707031 51.023438 L 25.707031 59.605469 C 25.707031 60.398438 25.539062 60.398438 24.332031 60.398438 L 24.332031 61.105469 C 24.375 61.105469 25.664062 61.023438 26.457031 61.023438 C 27.125 61.023438 28.414062 61.0625 28.582031 61.105469 Z M 27.207031 51.273438 C 27.75 50.355469 28.832031 49.898438 29.789062 49.898438 C 31.375 49.898438 32.582031 51.523438 32.582031 53.480469 C 32.582031 55.605469 31.164062 57.148438 29.625 57.148438 C 27.957031 57.148438 27.25 55.730469 27.207031 55.605469 Z M 27.207031 51.273438 "/>
<path fill-rule="nonzero" fill="rgb(0%, 0%, 0%)" fill-opacity="1" d="M 38.839844 53.230469 C 38.839844 51.6875 39.546875 49.8125 41.339844 49.8125 C 41.171875 49.9375 41.007812 50.1875 41.007812 50.480469 C 41.007812 51.105469 41.507812 51.3125 41.839844 51.3125 C 42.296875 51.3125 42.714844 51.023438 42.714844 50.480469 C 42.714844 49.855469 42.089844 49.273438 41.214844 49.273438 C 40.296875 49.273438 39.257812 49.855469 38.714844 51.273438 L 38.714844 49.273438 L 36.046875 49.480469 L 36.046875 50.148438 C 37.296875 50.148438 37.421875 50.273438 37.421875 51.1875 L 37.421875 56.023438 C 37.421875 56.8125 37.257812 56.8125 36.046875 56.8125 L 36.046875 57.480469 C 36.132812 57.480469 37.382812 57.398438 38.171875 57.398438 C 38.964844 57.398438 39.757812 57.4375 40.589844 57.480469 L 40.589844 56.8125 L 40.214844 56.8125 C 38.839844 56.8125 38.839844 56.605469 38.839844 55.980469 Z M 38.839844 53.230469 "/>
<path fill-rule="nonzero" fill="rgb(0%, 0%, 0%)" fill-opacity="1" d="M 48.746094 53.964844 C 48.746094 53.589844 48.703125 53.589844 48.246094 53.589844 C 47.328125 54.425781 45.828125 54.425781 45.578125 54.425781 L 45.371094 54.425781 L 45.371094 55.007812 L 45.578125 55.007812 C 45.871094 55.007812 46.746094 54.964844 47.535156 54.632812 L 47.535156 61.300781 C 47.535156 61.675781 47.535156 61.839844 46.121094 61.839844 L 45.453125 61.839844 L 45.453125 62.425781 C 46.160156 62.382812 47.371094 62.382812 48.121094 62.382812 C 48.910156 62.382812 50.078125 62.382812 50.828125 62.425781 L 50.828125 61.839844 L 50.160156 61.839844 C 48.746094 61.839844 48.746094 61.675781 48.746094 61.300781 Z M 48.746094 53.964844 "/>
<path fill-rule="nonzero" fill="rgb(0%, 0%, 0%)" fill-opacity="1" d="M 94.921875 28.847656 C 94.921875 28.554688 94.921875 28.140625 94.460938 28.140625 C 94.003906 28.140625 94.003906 28.597656 94.003906 28.929688 L 94.003906 35.179688 L 87.671875 35.179688 C 87.378906 35.179688 86.960938 35.179688 86.960938 35.640625 C 86.960938 36.097656 87.378906 36.097656 87.671875 36.097656 L 94.171875 36.097656 C 94.796875 36.097656 94.921875 35.972656 94.921875 35.390625 Z M 94.921875 28.847656 "/>
<path fill="none" stroke-width="0.39848" stroke-linecap="butt" stroke-linejoin="miter" stroke="rgb(0%, 0%, 0%)" stroke-opacity="1" stroke-miterlimit="10" d="M 19.650021 8.766239 L 19.650021 -8.366573 " transform="matrix(2.666667, 0, 0, -2.666667, 158.986664, 58.458669)"/>
<path fill="none" stroke-width="0.39848" stroke-linecap="round" stroke-linejoin="round" stroke="rgb(0%, 0%, 0%)" stroke-opacity="1" stroke-miterlimit="10" d="M -2.072041 2.391846 C -1.692646 0.957764 -0.848896 0.278076 -0.00221634 0.0012207 C -0.848896 -0.280029 -1.692646 -0.956787 -2.072041 -2.389404 " transform="matrix(0, 2.666667, 2.666667, 0, 211.383464, 81.306691)"/>
<path fill-rule="nonzero" fill="rgb(0%, 0%, 0%)" fill-opacity="1" d="M 179.890625 62.90625 C 178.679688 62.90625 178.515625 62.90625 178.515625 62.113281 L 178.515625 59.113281 C 178.597656 59.199219 179.472656 60.15625 181.015625 60.15625 C 183.472656 60.15625 185.554688 58.324219 185.554688 55.988281 C 185.554688 53.699219 183.679688 51.78125 181.304688 51.78125 C 180.265625 51.78125 179.179688 52.199219 178.429688 52.949219 L 178.429688 51.78125 L 175.640625 51.988281 L 175.640625 52.65625 C 176.929688 52.65625 177.015625 52.78125 177.015625 53.53125 L 177.015625 62.113281 C 177.015625 62.90625 176.847656 62.90625 175.640625 62.90625 L 175.640625 63.613281 C 175.679688 63.613281 176.972656 63.53125 177.765625 63.53125 C 178.429688 63.53125 179.722656 63.574219 179.890625 63.613281 Z M 178.515625 53.78125 C 179.054688 52.863281 180.140625 52.40625 181.097656 52.40625 C 182.679688 52.40625 183.890625 54.03125 183.890625 55.988281 C 183.890625 58.113281 182.472656 59.65625 180.929688 59.65625 C 179.265625 59.65625 178.554688 58.238281 178.515625 58.113281 Z M 178.515625 53.78125 "/>
<path fill-rule="nonzero" fill="rgb(0%, 0%, 0%)" fill-opacity="1" d="M 190.148438 55.738281 C 190.148438 54.199219 190.855469 52.324219 192.648438 52.324219 C 192.480469 52.449219 192.3125 52.699219 192.3125 52.988281 C 192.3125 53.613281 192.8125 53.824219 193.148438 53.824219 C 193.605469 53.824219 194.023438 53.53125 194.023438 52.988281 C 194.023438 52.363281 193.398438 51.78125 192.523438 51.78125 C 191.605469 51.78125 190.5625 52.363281 190.023438 53.78125 L 190.023438 51.78125 L 187.355469 51.988281 L 187.355469 52.65625 C 188.605469 52.65625 188.730469 52.78125 188.730469 53.699219 L 188.730469 58.53125 C 188.730469 59.324219 188.5625 59.324219 187.355469 59.324219 L 187.355469 59.988281 C 187.4375 59.988281 188.6875 59.90625 189.480469 59.90625 C 190.273438 59.90625 191.0625 59.949219 191.898438 59.988281 L 191.898438 59.324219 L 191.523438 59.324219 C 190.148438 59.324219 190.148438 59.113281 190.148438 58.488281 Z M 190.148438 55.738281 "/>
<path fill-rule="nonzero" fill="rgb(0%, 0%, 0%)" fill-opacity="1" d="M 200.050781 56.476562 C 200.050781 56.101562 200.011719 56.101562 199.550781 56.101562 C 198.636719 56.933594 197.136719 56.933594 196.886719 56.933594 L 196.675781 56.933594 L 196.675781 57.515625 L 196.886719 57.515625 C 197.175781 57.515625 198.050781 57.476562 198.84375 57.140625 L 198.84375 63.808594 C 198.84375 64.183594 198.84375 64.351562 197.425781 64.351562 L 196.761719 64.351562 L 196.761719 64.933594 C 197.46875 64.890625 198.675781 64.890625 199.425781 64.890625 C 200.21875 64.890625 201.386719 64.890625 202.136719 64.933594 L 202.136719 64.351562 L 201.46875 64.351562 C 200.050781 64.351562 200.050781 64.183594 200.050781 63.808594 Z M 200.050781 56.476562 "/>
<path fill="none" stroke-width="0.39848" stroke-linecap="butt" stroke-linejoin="miter" stroke="rgb(0%, 0%, 0%)" stroke-opacity="1" stroke-miterlimit="10" d="M -29.198124 -16.937374 L -3.796268 -16.937374 " transform="matrix(2.666667, 0, 0, -2.666667, 158.986664, 58.458669)"/>
<path fill="none" stroke-width="0.39848" stroke-linecap="round" stroke-linejoin="round" stroke="rgb(0%, 0%, 0%)" stroke-opacity="1" stroke-miterlimit="10" d="M -2.071964 2.389992 C -1.69257 0.95591 -0.84882 0.280617 -0.00214005 -0.00063324 C -0.84882 -0.277489 -1.69257 -0.957176 -2.071964 -2.391258 " transform="matrix(2.666667, 0, 0, -2.666667, 149.400238, 103.623311)"/>
<path fill-rule="nonzero" fill="rgb(0%, 0%, 0%)" fill-opacity="1" d="M 104.011719 84.453125 L 102.425781 84.453125 L 102.425781 97.367188 L 104.011719 97.367188 Z M 104.011719 84.453125 "/>
<path fill-rule="nonzero" fill="rgb(0%, 0%, 0%)" fill-opacity="1" d="M 108.839844 84.617188 L 106.964844 84.617188 L 106.964844 86.492188 L 108.839844 86.492188 Z M 108.714844 89.117188 L 107.132812 89.117188 L 107.132812 97.367188 L 108.714844 97.367188 Z M 108.714844 89.117188 "/>
<path fill-rule="nonzero" fill="rgb(0%, 0%, 0%)" fill-opacity="1" d="M 118.921875 91.867188 C 118.921875 90.410156 118.503906 88.953125 116.210938 88.953125 C 115.171875 88.953125 114.128906 89.367188 113.335938 90.328125 L 113.335938 88.992188 L 111.835938 88.992188 L 111.835938 97.367188 L 113.460938 97.367188 L 113.460938 92.867188 C 113.460938 91.617188 113.960938 90.160156 115.421875 90.160156 C 117.335938 90.160156 117.335938 91.453125 117.335938 91.992188 L 117.335938 97.367188 L 118.921875 97.367188 Z M 118.921875 91.867188 "/>
<path fill-rule="nonzero" fill="rgb(0%, 0%, 0%)" fill-opacity="1" d="M 126.027344 92.328125 L 129.363281 89.117188 L 127.527344 89.117188 L 123.570312 92.953125 L 123.570312 84.453125 L 122.113281 84.453125 L 122.113281 97.367188 L 123.488281 97.367188 L 123.488281 94.785156 L 125.070312 93.242188 L 128.152344 97.367188 L 129.777344 97.367188 Z M 126.027344 92.328125 "/>
</svg>
