<?xml version="1.0" encoding="UTF-8"?>
<svg xmlns="http://www.w3.org/2000/svg" xmlns:xlink="http://www.w3.org/1999/xlink" width="174.919998" height="168.440002" viewBox="0 0 174.919998 168.440002">
<defs>
<clipPath id="clip-0">
<path clip-rule="nonzero" d="M 12 0 L 174.921875 0 L 174.921875 133 L 12 133 Z M 12 0 "/>
</clipPath>
<clipPath id="clip-1">
<path clip-rule="nonzero" d="M 39 31 L 174.921875 31 L 174.921875 168.4375 L 39 168.4375 Z M 39 31 "/>
</clipPath>
</defs>
<path fill-rule="nonzero" fill="rgb(0%, 0%, 0%)" fill-opacity="1" d="M 23.496094 13.195312 L 23.933594 12.539062 L 21.339844 22.445312 C 21.214844 22.914062 21.121094 23.257812 20.964844 23.539062 C 20.808594 24.007812 20.402344 24.507812 19.964844 24.695312 C 19.746094 24.789062 19.433594 24.851562 19.121094 24.851562 L 19.027344 25.132812 L 24.777344 25.132812 L 24.871094 24.851562 C 24.246094 24.851562 23.746094 24.789062 23.496094 24.601562 C 23.214844 24.382812 23.152344 23.945312 23.152344 23.539062 C 23.152344 23.226562 23.214844 22.789062 23.371094 22.257812 L 25.339844 14.789062 C 25.496094 14.164062 25.621094 13.664062 25.746094 13.289062 C 25.964844 12.695312 26.402344 12.039062 26.839844 11.726562 C 27.058594 11.601562 27.339844 11.570312 27.683594 11.570312 L 27.777344 11.289062 L 24.183594 11.289062 L 17.496094 22.007812 L 17.214844 22.007812 L 15.933594 11.289062 L 11.652344 11.289062 L 11.558594 11.570312 C 12.183594 11.570312 12.589844 11.570312 12.808594 11.695312 C 13.089844 11.820312 13.433594 12.320312 13.433594 12.695312 C 13.433594 13.007812 13.371094 13.507812 13.183594 14.164062 L 10.996094 22.445312 C 10.839844 23.070312 10.339844 23.757812 9.871094 24.164062 C 9.433594 24.570312 8.746094 24.851562 8.183594 24.851562 L 8.121094 25.132812 L 13.089844 25.132812 L 13.183594 24.851562 C 12.714844 24.820312 12.183594 24.726562 11.964844 24.414062 C 11.746094 24.101562 11.433594 23.570312 11.433594 23.070312 C 11.433594 22.789062 11.433594 22.507812 11.496094 22.257812 L 13.902344 13.195312 L 14.027344 12.757812 L 15.496094 25.132812 L 16.089844 25.132812 Z M 23.496094 13.195312 "/>
<path fill-rule="nonzero" fill="rgb(0%, 0%, 0%)" fill-opacity="1" d="M 30.96875 22.359375 C 30.34375 22.359375 29.6875 22.859375 29.21875 23.484375 L 29.125 23.484375 L 30.625 18.015625 L 28.375 18.109375 L 28.28125 18.328125 C 28.875 18.328125 29.34375 18.453125 29.34375 18.890625 C 29.34375 18.953125 29.3125 19.140625 29.25 19.328125 L 26.71875 28.703125 L 27.6875 28.703125 L 28.40625 26.140625 L 28.78125 26.015625 L 29.5625 27.890625 C 29.71875 28.234375 29.84375 28.484375 29.96875 28.640625 C 30.09375 28.765625 30.25 28.828125 30.4375 28.828125 C 31.375 28.828125 31.6875 28.234375 32.1875 27.046875 L 31.9375 26.921875 C 31.65625 27.515625 31.4375 28.109375 31 28.109375 C 30.8125 28.109375 30.5625 27.546875 30.40625 27.109375 L 29.78125 25.578125 L 30.0625 25.421875 C 30.71875 25.109375 31.3125 24.796875 31.6875 24.421875 C 32.0625 24.078125 32.28125 23.703125 32.28125 23.328125 C 32.28125 22.671875 31.8125 22.359375 30.96875 22.359375 Z M 28.59375 25.703125 C 28.71875 25.109375 29.21875 23.953125 29.59375 23.578125 C 29.84375 23.265625 30.375 22.671875 30.84375 22.671875 C 31.375 22.671875 31.375 23.140625 31.375 23.453125 C 31.34375 24.546875 29.40625 25.359375 28.59375 25.703125 Z M 28.59375 25.703125 "/>
<path fill-rule="nonzero" fill="rgb(0%, 0%, 0%)" fill-opacity="1" d="M 50.308594 24.445312 L 45.871094 20.007812 L 50.308594 15.570312 L 49.527344 14.757812 L 45.089844 19.226562 L 40.652344 14.757812 L 39.871094 15.570312 L 44.277344 20.007812 L 39.871094 24.445312 L 40.652344 25.226562 L 45.089844 20.789062 L 49.527344 25.226562 Z M 50.308594 24.445312 "/>
<path fill-rule="nonzero" fill="rgb(0%, 0%, 0%)" fill-opacity="1" d="M 65.964844 11.570312 L 65.433594 12.289062 C 65.027344 11.882812 64.589844 11.570312 64.152344 11.382812 C 63.683594 11.164062 63.183594 11.101562 62.621094 11.101562 C 62.027344 11.101562 61.496094 11.195312 60.964844 11.382812 C 60.464844 11.601562 59.996094 11.851562 59.621094 12.195312 C 59.246094 12.539062 58.933594 12.945312 58.683594 13.382812 C 58.464844 13.851562 58.371094 14.320312 58.371094 14.851562 C 58.371094 15.414062 58.496094 15.882812 58.746094 16.320312 C 59.027344 16.726562 59.308594 17.132812 59.683594 17.445312 C 60.058594 17.820312 60.464844 18.164062 60.902344 18.476562 C 61.371094 18.757812 61.746094 19.101562 62.121094 19.445312 C 62.496094 19.789062 62.808594 20.132812 63.058594 20.539062 C 63.308594 20.914062 63.433594 21.351562 63.433594 21.851562 C 63.433594 23.445312 62.558594 24.882812 60.496094 24.882812 C 58.402344 24.882812 57.371094 22.695312 57.214844 20.570312 L 56.777344 20.570312 L 56.027344 25.132812 L 56.464844 25.132812 L 57.027344 23.757812 C 58.027344 24.789062 59.152344 25.320312 60.464844 25.320312 C 61.121094 25.320312 61.714844 25.226562 62.277344 24.976562 C 62.808594 24.726562 63.308594 24.445312 63.714844 24.039062 C 64.152344 23.632812 64.464844 23.164062 64.683594 22.632812 C 64.933594 22.101562 65.058594 21.539062 65.058594 20.914062 C 65.058594 20.320312 64.933594 19.757812 64.683594 19.320312 C 64.464844 18.851562 64.152344 18.445312 63.777344 18.101562 C 63.433594 17.726562 63.027344 17.382812 62.589844 17.101562 C 62.152344 16.789062 61.777344 16.507812 61.402344 16.195312 C 61.027344 15.914062 60.746094 15.601562 60.496094 15.257812 C 60.246094 14.914062 60.121094 14.570312 60.121094 14.132812 C 60.121094 12.757812 60.621094 11.507812 62.683594 11.507812 C 64.402344 11.507812 65.089844 13.257812 65.152344 15.070312 L 65.589844 15.070312 L 66.339844 11.570312 Z M 65.964844 11.570312 "/>
<path fill-rule="nonzero" fill="rgb(0%, 0%, 0%)" fill-opacity="1" d="M 71.734375 11.558594 C 71.109375 11.558594 70.453125 12.058594 69.984375 12.683594 L 69.890625 12.683594 L 71.390625 7.214844 L 69.140625 7.308594 L 69.046875 7.527344 C 69.640625 7.527344 70.109375 7.652344 70.109375 8.089844 C 70.109375 8.152344 70.078125 8.339844 70.015625 8.527344 L 67.484375 17.902344 L 68.453125 17.902344 L 69.171875 15.339844 L 69.546875 15.214844 L 70.328125 17.089844 C 70.484375 17.433594 70.609375 17.683594 70.734375 17.839844 C 70.859375 17.964844 71.015625 18.027344 71.203125 18.027344 C 72.140625 18.027344 72.453125 17.433594 72.953125 16.246094 L 72.703125 16.121094 C 72.421875 16.714844 72.203125 17.308594 71.765625 17.308594 C 71.578125 17.308594 71.328125 16.746094 71.171875 16.308594 L 70.546875 14.777344 L 70.828125 14.621094 C 71.484375 14.308594 72.078125 13.996094 72.453125 13.621094 C 72.828125 13.277344 73.046875 12.902344 73.046875 12.527344 C 73.046875 11.871094 72.578125 11.558594 71.734375 11.558594 Z M 69.359375 14.902344 C 69.484375 14.308594 69.984375 13.152344 70.359375 12.777344 C 70.609375 12.464844 71.140625 11.871094 71.609375 11.871094 C 72.140625 11.871094 72.140625 12.339844 72.140625 12.652344 C 72.109375 13.746094 70.171875 14.558594 69.359375 14.902344 Z M 69.359375 14.902344 "/>
<path fill-rule="nonzero" fill="rgb(0%, 0%, 0%)" fill-opacity="1" d="M 154.984375 13.195312 L 155.421875 12.539062 L 152.828125 22.445312 C 152.703125 22.914062 152.609375 23.257812 152.453125 23.539062 C 152.296875 24.007812 151.890625 24.507812 151.453125 24.695312 C 151.234375 24.789062 150.921875 24.851562 150.609375 24.851562 L 150.515625 25.132812 L 156.265625 25.132812 L 156.359375 24.851562 C 155.734375 24.851562 155.234375 24.789062 154.984375 24.601562 C 154.703125 24.382812 154.640625 23.945312 154.640625 23.539062 C 154.640625 23.226562 154.703125 22.789062 154.859375 22.257812 L 156.828125 14.789062 C 156.984375 14.164062 157.109375 13.664062 157.234375 13.289062 C 157.453125 12.695312 157.890625 12.039062 158.328125 11.726562 C 158.546875 11.601562 158.828125 11.570312 159.171875 11.570312 L 159.265625 11.289062 L 155.671875 11.289062 L 148.984375 22.007812 L 148.703125 22.007812 L 147.421875 11.289062 L 143.140625 11.289062 L 143.046875 11.570312 C 143.671875 11.570312 144.078125 11.570312 144.296875 11.695312 C 144.578125 11.820312 144.921875 12.320312 144.921875 12.695312 C 144.921875 13.007812 144.859375 13.507812 144.671875 14.164062 L 142.484375 22.445312 C 142.328125 23.070312 141.828125 23.757812 141.359375 24.164062 C 140.921875 24.570312 140.234375 24.851562 139.671875 24.851562 L 139.609375 25.132812 L 144.578125 25.132812 L 144.671875 24.851562 C 144.203125 24.820312 143.671875 24.726562 143.453125 24.414062 C 143.234375 24.101562 142.921875 23.570312 142.921875 23.070312 C 142.921875 22.789062 142.921875 22.507812 142.984375 22.257812 L 145.390625 13.195312 L 145.515625 12.757812 L 146.984375 25.132812 L 147.578125 25.132812 Z M 154.984375 13.195312 "/>
<path fill-rule="nonzero" fill="rgb(0%, 0%, 0%)" fill-opacity="1" d="M 162.460938 22.359375 C 161.835938 22.359375 161.179688 22.859375 160.710938 23.484375 L 160.617188 23.484375 L 162.117188 18.015625 L 159.867188 18.109375 L 159.773438 18.328125 C 160.367188 18.328125 160.835938 18.453125 160.835938 18.890625 C 160.835938 18.953125 160.804688 19.140625 160.742188 19.328125 L 158.210938 28.703125 L 159.179688 28.703125 L 159.898438 26.140625 L 160.273438 26.015625 L 161.054688 27.890625 C 161.210938 28.234375 161.335938 28.484375 161.460938 28.640625 C 161.585938 28.765625 161.742188 28.828125 161.929688 28.828125 C 162.867188 28.828125 163.179688 28.234375 163.679688 27.046875 L 163.429688 26.921875 C 163.148438 27.515625 162.929688 28.109375 162.492188 28.109375 C 162.304688 28.109375 162.054688 27.546875 161.898438 27.109375 L 161.273438 25.578125 L 161.554688 25.421875 C 162.210938 25.109375 162.804688 24.796875 163.179688 24.421875 C 163.554688 24.078125 163.773438 23.703125 163.773438 23.328125 C 163.773438 22.671875 163.304688 22.359375 162.460938 22.359375 Z M 160.085938 25.703125 C 160.210938 25.109375 160.710938 23.953125 161.085938 23.578125 C 161.335938 23.265625 161.867188 22.671875 162.335938 22.671875 C 162.867188 22.671875 162.867188 23.140625 162.867188 23.453125 C 162.835938 24.546875 160.898438 25.359375 160.085938 25.703125 Z M 160.085938 25.703125 "/>
<path fill-rule="nonzero" fill="rgb(0%, 0%, 0%)" fill-opacity="1" d="M 36.023438 92.347656 L 36.023438 79.160156 L 33.117188 79.160156 L 28.929688 90.816406 L 28.867188 90.816406 L 24.867188 79.160156 L 21.773438 79.160156 L 21.773438 92.347656 L 22.648438 92.347656 L 22.648438 83.003906 L 22.679688 83.003906 L 25.929688 92.347656 L 29.304688 92.347656 L 32.679688 82.941406 L 32.710938 82.941406 L 32.710938 92.347656 Z M 35.148438 91.472656 L 33.585938 91.472656 L 33.585938 80.035156 L 35.148438 80.035156 Z M 28.210938 91.472656 L 26.554688 91.472656 L 22.992188 81.253906 L 22.585938 80.035156 L 24.179688 80.035156 Z M 28.210938 91.472656 "/>
<path fill-rule="nonzero" fill="rgb(0%, 0%, 0%)" fill-opacity="1" d="M 41.257812 89.566406 C 40.632812 89.566406 39.976562 90.066406 39.507812 90.691406 L 39.414062 90.691406 L 40.914062 85.222656 L 38.664062 85.316406 L 38.570312 85.535156 C 39.164062 85.535156 39.632812 85.660156 39.632812 86.097656 C 39.632812 86.160156 39.601562 86.347656 39.539062 86.535156 L 37.007812 95.910156 L 37.976562 95.910156 L 38.695312 93.347656 L 39.070312 93.222656 L 39.851562 95.097656 C 40.007812 95.441406 40.132812 95.691406 40.257812 95.847656 C 40.382812 95.972656 40.539062 96.035156 40.726562 96.035156 C 41.664062 96.035156 41.976562 95.441406 42.476562 94.253906 L 42.226562 94.128906 C 41.945312 94.722656 41.726562 95.316406 41.289062 95.316406 C 41.101562 95.316406 40.851562 94.753906 40.695312 94.316406 L 40.070312 92.785156 L 40.351562 92.628906 C 41.007812 92.316406 41.601562 92.003906 41.976562 91.628906 C 42.351562 91.285156 42.570312 90.910156 42.570312 90.535156 C 42.570312 89.878906 42.101562 89.566406 41.257812 89.566406 Z M 38.882812 92.910156 C 39.007812 92.316406 39.507812 91.160156 39.882812 90.785156 C 40.132812 90.472656 40.664062 89.878906 41.132812 89.878906 C 41.664062 89.878906 41.664062 90.347656 41.664062 90.660156 C 41.632812 91.753906 39.695312 92.566406 38.882812 92.910156 Z M 38.882812 92.910156 "/>
<path fill-rule="nonzero" fill="rgb(0%, 0%, 0%)" fill-opacity="1" d="M 52.535156 92.597656 L 52.535156 91.753906 L 45.097656 91.753906 L 45.097656 92.597656 Z M 52.535156 92.597656 "/>
<path fill-rule="nonzero" fill="rgb(0%, 0%, 0%)" fill-opacity="1" d="M 60.898438 95.910156 L 60.898438 95.378906 L 60.335938 95.378906 C 58.898438 95.378906 58.898438 95.191406 58.898438 94.722656 L 58.898438 86.660156 C 58.898438 86.285156 58.867188 86.253906 58.460938 86.253906 C 57.523438 87.191406 56.210938 87.191406 55.617188 87.191406 L 55.617188 87.722656 C 55.960938 87.722656 56.929688 87.722656 57.710938 87.316406 L 57.710938 94.722656 C 57.710938 95.191406 57.710938 95.378906 56.273438 95.378906 L 55.710938 95.378906 L 55.710938 95.910156 L 58.304688 95.847656 Z M 60.898438 95.910156 "/>
<path fill-rule="nonzero" fill="rgb(0%, 0%, 0%)" fill-opacity="1" d="M 156.484375 92.347656 L 156.484375 79.160156 L 153.578125 79.160156 L 149.390625 90.816406 L 149.328125 90.816406 L 145.328125 79.160156 L 142.234375 79.160156 L 142.234375 92.347656 L 143.109375 92.347656 L 143.109375 83.003906 L 143.140625 83.003906 L 146.390625 92.347656 L 149.765625 92.347656 L 153.140625 82.941406 L 153.171875 82.941406 L 153.171875 92.347656 Z M 155.609375 91.472656 L 154.046875 91.472656 L 154.046875 80.035156 L 155.609375 80.035156 Z M 148.671875 91.472656 L 147.015625 91.472656 L 143.453125 81.253906 L 143.046875 80.035156 L 144.640625 80.035156 Z M 148.671875 91.472656 "/>
<path fill-rule="nonzero" fill="rgb(0%, 0%, 0%)" fill-opacity="1" d="M 161.714844 89.566406 C 161.089844 89.566406 160.433594 90.066406 159.964844 90.691406 L 159.871094 90.691406 L 161.371094 85.222656 L 159.121094 85.316406 L 159.027344 85.535156 C 159.621094 85.535156 160.089844 85.660156 160.089844 86.097656 C 160.089844 86.160156 160.058594 86.347656 159.996094 86.535156 L 157.464844 95.910156 L 158.433594 95.910156 L 159.152344 93.347656 L 159.527344 93.222656 L 160.308594 95.097656 C 160.464844 95.441406 160.589844 95.691406 160.714844 95.847656 C 160.839844 95.972656 160.996094 96.035156 161.183594 96.035156 C 162.121094 96.035156 162.433594 95.441406 162.933594 94.253906 L 162.683594 94.128906 C 162.402344 94.722656 162.183594 95.316406 161.746094 95.316406 C 161.558594 95.316406 161.308594 94.753906 161.152344 94.316406 L 160.527344 92.785156 L 160.808594 92.628906 C 161.464844 92.316406 162.058594 92.003906 162.433594 91.628906 C 162.808594 91.285156 163.027344 90.910156 163.027344 90.535156 C 163.027344 89.878906 162.558594 89.566406 161.714844 89.566406 Z M 159.339844 92.910156 C 159.464844 92.316406 159.964844 91.160156 160.339844 90.785156 C 160.589844 90.472656 161.121094 89.878906 161.589844 89.878906 C 162.121094 89.878906 162.121094 90.347656 162.121094 90.660156 C 162.089844 91.753906 160.152344 92.566406 159.339844 92.910156 Z M 159.339844 92.910156 "/>
<path fill-rule="nonzero" fill="rgb(0%, 0%, 0%)" fill-opacity="1" d="M 162.109375 146.867188 L 162.015625 146.742188 C 161.390625 146.835938 159.765625 147.242188 159.296875 147.679688 C 159.078125 147.898438 158.328125 150.460938 158.140625 150.960938 C 157.359375 153.429688 156.546875 155.429688 154.609375 157.210938 C 153.515625 158.210938 151.828125 159.304688 150.328125 159.304688 C 150.015625 159.304688 149.765625 159.179688 149.765625 158.835938 C 149.765625 155.960938 152.203125 150.085938 153.171875 147.117188 C 153.015625 146.992188 152.828125 146.960938 152.640625 146.960938 C 150.484375 146.960938 143.546875 148.960938 143.546875 151.617188 C 143.546875 152.367188 144.703125 154.179688 145.546875 154.179688 C 145.640625 154.179688 145.765625 154.179688 145.859375 154.117188 C 145.515625 153.679688 145.390625 153.117188 145.390625 152.585938 C 145.390625 150.242188 148.734375 148.054688 150.859375 147.992188 C 149.828125 150.867188 147.421875 156.554688 147.421875 159.398438 C 147.421875 160.273438 147.765625 160.992188 148.734375 160.992188 C 150.828125 160.992188 155.234375 157.929688 156.609375 156.335938 C 156.328125 157.210938 156.078125 158.117188 156.078125 159.023438 C 156.078125 159.585938 156.203125 161.210938 156.984375 161.210938 C 157.921875 161.210938 159.359375 160.367188 159.484375 159.398438 C 159.359375 159.523438 159.140625 159.585938 158.953125 159.585938 C 158.390625 159.585938 158.390625 158.804688 158.390625 158.398438 C 158.390625 156.367188 160.859375 148.335938 162.109375 146.867188 Z M 162.109375 146.867188 "/>
<path fill="none" stroke-width="0.5579" stroke-linecap="butt" stroke-linejoin="miter" stroke="rgb(0%, 0%, 0%)" stroke-opacity="1" stroke-miterlimit="10" d="M -1.564842 32.107094 L 21.388283 32.107094 " transform="matrix(2, 0, 0, -2, 87.199997, 84.222)"/>
<path fill="none" stroke-width="0.5579" stroke-linecap="round" stroke-linejoin="round" stroke="rgb(0%, 0%, 0%)" stroke-opacity="1" stroke-miterlimit="10" d="M -2.901054 3.345524 C -2.369804 1.337711 -1.190117 0.392399 0.00128937 0.00177383 C -1.190117 -0.388851 -2.369804 -1.33807 -2.901054 -3.345882 " transform="matrix(2, 0, 0, -2, 130.536484, 20.01136)"/>
<path fill-rule="nonzero" fill="rgb(0%, 0%, 0%)" fill-opacity="1" d="M 104.398438 8.660156 C 104.398438 6.847656 102.898438 5.378906 101.054688 5.378906 C 100.242188 5.378906 99.398438 5.691406 98.804688 6.253906 L 98.804688 5.378906 L 96.617188 5.535156 L 96.617188 6.066406 C 97.617188 6.066406 97.710938 6.128906 97.710938 6.753906 L 97.710938 13.441406 C 97.710938 14.066406 97.554688 14.066406 96.617188 14.066406 L 96.617188 14.597656 C 96.617188 14.597656 97.648438 14.535156 98.273438 14.535156 C 98.804688 14.535156 99.804688 14.597656 99.929688 14.597656 L 99.929688 14.066406 C 98.992188 14.066406 98.835938 14.066406 98.835938 13.441406 L 98.835938 11.097656 C 98.929688 11.160156 99.617188 11.941406 100.835938 11.941406 C 102.742188 11.941406 104.398438 10.503906 104.398438 8.660156 Z M 103.054688 8.660156 C 103.054688 10.316406 101.960938 11.535156 100.742188 11.535156 C 99.460938 11.535156 98.898438 10.410156 98.835938 10.316406 L 98.835938 6.941406 C 99.273438 6.222656 100.117188 5.847656 100.898438 5.847656 C 102.117188 5.847656 103.054688 7.128906 103.054688 8.660156 Z M 103.054688 8.660156 "/>
<path fill-rule="nonzero" fill="rgb(0%, 0%, 0%)" fill-opacity="1" d="M 110.984375 6.316406 C 110.984375 5.816406 110.515625 5.378906 109.859375 5.378906 C 109.109375 5.378906 108.328125 5.816406 107.890625 6.941406 L 107.859375 6.941406 L 107.859375 5.378906 L 105.796875 5.535156 L 105.796875 6.066406 C 106.765625 6.066406 106.890625 6.160156 106.890625 6.878906 L 106.890625 10.628906 C 106.890625 11.253906 106.734375 11.253906 105.796875 11.253906 L 105.796875 11.785156 C 105.859375 11.785156 106.859375 11.722656 107.453125 11.722656 L 109.328125 11.785156 L 109.328125 11.253906 L 109.046875 11.253906 C 107.984375 11.253906 107.984375 11.097656 107.984375 10.597656 L 107.984375 8.472656 C 107.984375 7.253906 108.546875 5.785156 109.921875 5.785156 C 109.796875 5.878906 109.671875 6.066406 109.671875 6.316406 C 109.671875 6.785156 110.046875 6.972656 110.328125 6.972656 C 110.671875 6.972656 110.984375 6.753906 110.984375 6.316406 Z M 110.984375 6.316406 "/>
<path fill-rule="nonzero" fill="rgb(0%, 0%, 0%)" fill-opacity="1" d="M 117.101562 15.160156 L 117.101562 14.722656 L 116.632812 14.722656 C 115.507812 14.722656 115.507812 14.597656 115.507812 14.222656 L 115.507812 8.191406 C 115.507812 7.878906 115.476562 7.878906 115.132812 7.878906 C 114.414062 8.566406 113.289062 8.566406 112.882812 8.566406 L 112.882812 9.003906 C 113.195312 9.003906 113.914062 9.003906 114.570312 8.691406 L 114.570312 14.222656 C 114.570312 14.597656 114.570312 14.722656 113.445312 14.722656 L 112.976562 14.722656 L 112.976562 15.160156 C 113.570312 15.128906 114.414062 15.128906 115.039062 15.128906 C 115.664062 15.128906 116.507812 15.128906 117.101562 15.160156 Z M 117.101562 15.160156 "/>
<path fill="none" stroke-width="0.5579" stroke-linecap="butt" stroke-linejoin="miter" stroke="rgb(0%, 0%, 0%)" stroke-opacity="1" stroke-miterlimit="10" d="M -22.68203 23.857094 L -22.68203 6.880531 " transform="matrix(2, 0, 0, -2, 87.199997, 84.222)"/>
<path fill="none" stroke-width="0.5579" stroke-linecap="round" stroke-linejoin="round" stroke="rgb(0%, 0%, 0%)" stroke-opacity="1" stroke-miterlimit="10" d="M -2.899326 3.347895 C -2.371983 1.340082 -1.188389 0.390863 -0.000888824 0.000238419 C -1.188389 -0.390387 -2.371983 -1.339605 -2.899326 -3.347418 " transform="matrix(0, 2, 2, 0, 41.835461, 71.017403)"/>
<path fill-rule="nonzero" fill="rgb(0%, 0%, 0%)" fill-opacity="1" d="M 17.050781 51.398438 C 17.050781 49.304688 16.394531 47.585938 14.832031 47.585938 C 13.613281 47.585938 12.300781 48.742188 12.300781 49.398438 C 12.300781 49.898438 12.675781 50.085938 12.957031 50.085938 C 13.269531 50.085938 13.457031 49.835938 13.488281 49.804688 C 13.425781 49.773438 13.363281 49.617188 13.363281 49.429688 C 13.363281 49.304688 13.613281 48.023438 14.863281 48.023438 C 15.925781 48.023438 16.144531 49.367188 16.144531 50.554688 C 16.144531 51.429688 16.019531 52.242188 16.019531 52.242188 L 15.988281 52.242188 C 15.988281 52.242188 15.425781 51.335938 14.269531 51.335938 C 11.363281 51.335938 10.175781 54.148438 10.175781 55.648438 C 10.175781 57.023438 10.957031 57.867188 12.582031 57.867188 C 15.082031 57.867188 17.050781 55.335938 17.050781 51.398438 Z M 15.394531 53.023438 C 15.394531 53.398438 15.019531 57.523438 12.675781 57.523438 C 11.863281 57.523438 11.488281 57.054688 11.488281 56.148438 C 11.488281 55.210938 12.082031 51.679688 14.175781 51.679688 C 14.988281 51.679688 15.394531 52.179688 15.394531 53.023438 Z M 15.394531 53.023438 "/>
<path fill-rule="nonzero" fill="rgb(0%, 0%, 0%)" fill-opacity="1" d="M 19.65625 55.722656 C 19.1875 55.722656 18.71875 56.097656 18.375 56.566406 L 18.28125 56.566406 L 19.40625 52.441406 L 17.71875 52.503906 L 17.65625 52.660156 C 18.09375 52.660156 18.46875 52.785156 18.46875 53.097656 C 18.46875 53.160156 18.4375 53.285156 18.375 53.441406 L 16.46875 60.503906 L 17.21875 60.503906 L 17.75 58.566406 L 18 58.472656 L 18.59375 59.910156 C 18.71875 60.160156 18.8125 60.347656 18.90625 60.441406 C 19 60.535156 19.125 60.597656 19.28125 60.597656 C 19.96875 60.597656 20.21875 60.128906 20.59375 59.253906 L 20.40625 59.160156 C 20.1875 59.597656 20.03125 60.066406 19.6875 60.066406 C 19.5625 60.066406 19.375 59.628906 19.25 59.316406 L 18.78125 58.128906 L 19 58.035156 C 19.5 57.785156 19.9375 57.566406 20.21875 57.285156 C 20.5 57.003906 20.65625 56.722656 20.65625 56.441406 C 20.65625 55.941406 20.3125 55.722656 19.65625 55.722656 Z M 17.875 58.222656 C 17.96875 57.785156 18.375 56.941406 18.625 56.628906 C 18.8125 56.410156 19.21875 55.941406 19.59375 55.941406 C 20 55.941406 20 56.316406 20 56.535156 C 19.96875 57.347656 18.5 57.972656 17.875 58.222656 Z M 17.875 58.222656 "/>
<path fill-rule="nonzero" fill="rgb(0%, 0%, 0%)" fill-opacity="1" d="M 28.164062 58.003906 L 28.164062 57.378906 L 22.570312 57.378906 L 22.570312 58.003906 Z M 28.164062 58.003906 "/>
<path fill-rule="nonzero" fill="rgb(0%, 0%, 0%)" fill-opacity="1" d="M 34.820312 60.503906 L 34.820312 60.066406 L 34.351562 60.066406 C 33.226562 60.066406 33.226562 59.941406 33.226562 59.566406 L 33.226562 53.535156 C 33.226562 53.222656 33.195312 53.222656 32.851562 53.222656 C 32.132812 53.910156 31.007812 53.910156 30.601562 53.910156 L 30.601562 54.347656 C 30.914062 54.347656 31.632812 54.347656 32.289062 54.035156 L 32.289062 59.566406 C 32.289062 59.941406 32.289062 60.066406 31.164062 60.066406 L 30.695312 60.066406 L 30.695312 60.503906 C 31.289062 60.472656 32.132812 60.472656 32.757812 60.472656 C 33.382812 60.472656 34.226562 60.472656 34.820312 60.503906 Z M 34.820312 60.503906 "/>
<path fill="none" stroke-width="0.5579" stroke-linecap="butt" stroke-linejoin="miter" stroke="rgb(0%, 0%, 0%)" stroke-opacity="1" stroke-miterlimit="10" d="M 32.872658 23.857094 L 32.872658 6.880531 " transform="matrix(2, 0, 0, -2, 87.199997, 84.222)"/>
<path fill="none" stroke-width="0.5579" stroke-linecap="round" stroke-linejoin="round" stroke="rgb(0%, 0%, 0%)" stroke-opacity="1" stroke-miterlimit="10" d="M -2.899326 3.346886 C -2.371983 1.339073 -1.188389 0.389854 -0.000888824 -0.000770569 C -1.188389 -0.391396 -2.371983 -1.340614 -2.899326 -3.348427 " transform="matrix(0, 2, 2, 0, 152.946854, 71.017403)"/>
<path fill-rule="nonzero" fill="rgb(0%, 0%, 0%)" fill-opacity="1" d="M 163.734375 51.039062 C 163.734375 50.789062 163.546875 50.507812 163.265625 50.507812 C 162.953125 50.507812 161.734375 51.726562 161.328125 51.945312 C 161.328125 51.132812 161.734375 50.320312 161.734375 49.851562 C 161.734375 49.539062 161.546875 49.351562 161.234375 49.351562 C 160.921875 49.351562 160.765625 49.539062 160.765625 49.851562 C 160.765625 50.414062 161.109375 51.164062 161.109375 51.945312 C 160.640625 51.695312 159.515625 50.476562 159.203125 50.476562 C 158.953125 50.476562 158.703125 50.695312 158.703125 50.976562 C 158.703125 51.476562 160.421875 51.820312 160.984375 52.132812 C 160.390625 52.507812 159.234375 52.664062 158.953125 52.851562 C 158.828125 52.976562 158.703125 53.101562 158.703125 53.289062 C 158.703125 53.539062 158.890625 53.789062 159.171875 53.789062 C 159.484375 53.789062 160.671875 52.601562 161.109375 52.351562 C 161.109375 53.164062 160.703125 53.976562 160.703125 54.476562 C 160.703125 54.757812 160.921875 54.976562 161.203125 54.976562 C 161.515625 54.976562 161.671875 54.757812 161.671875 54.476562 C 161.671875 53.882812 161.328125 53.132812 161.328125 52.351562 C 161.796875 52.601562 162.953125 53.820312 163.234375 53.820312 C 163.484375 53.820312 163.734375 53.601562 163.734375 53.320312 C 163.734375 53.132812 163.609375 53.007812 163.453125 52.914062 C 163.078125 52.664062 162.078125 52.507812 161.453125 52.132812 C 162.140625 51.726562 163.046875 51.695312 163.484375 51.445312 C 163.640625 51.351562 163.734375 51.226562 163.734375 51.039062 Z M 163.734375 51.039062 "/>
<path fill-rule="nonzero" fill="rgb(0%, 0%, 0%)" fill-opacity="1" d="M 167.835938 53.953125 C 167.367188 53.953125 166.898438 54.328125 166.554688 54.796875 L 166.460938 54.796875 L 167.585938 50.671875 L 165.898438 50.734375 L 165.835938 50.890625 C 166.273438 50.890625 166.648438 51.015625 166.648438 51.328125 C 166.648438 51.390625 166.617188 51.515625 166.554688 51.671875 L 164.648438 58.734375 L 165.398438 58.734375 L 165.929688 56.796875 L 166.179688 56.703125 L 166.773438 58.140625 C 166.898438 58.390625 166.992188 58.578125 167.085938 58.671875 C 167.179688 58.765625 167.304688 58.828125 167.460938 58.828125 C 168.148438 58.828125 168.398438 58.359375 168.773438 57.484375 L 168.585938 57.390625 C 168.367188 57.828125 168.210938 58.296875 167.867188 58.296875 C 167.742188 58.296875 167.554688 57.859375 167.429688 57.546875 L 166.960938 56.359375 L 167.179688 56.265625 C 167.679688 56.015625 168.117188 55.796875 168.398438 55.515625 C 168.679688 55.234375 168.835938 54.953125 168.835938 54.671875 C 168.835938 54.171875 168.492188 53.953125 167.835938 53.953125 Z M 166.054688 56.453125 C 166.148438 56.015625 166.554688 55.171875 166.804688 54.859375 C 166.992188 54.640625 167.398438 54.171875 167.773438 54.171875 C 168.179688 54.171875 168.179688 54.546875 168.179688 54.765625 C 168.148438 55.578125 166.679688 56.203125 166.054688 56.453125 Z M 166.054688 56.453125 "/>
<g clip-path="url(#clip-0)">
<path fill="none" stroke-width="2.49017" stroke-linecap="butt" stroke-linejoin="miter" stroke="rgb(0%, 0%, 0%)" stroke-opacity="1" stroke-miterlimit="10" d="M -2.080467 10.962563 L 12.333595 19.681313 " transform="matrix(2, 0, 0, -2, 87.199997, 84.222)"/>
</g>
<path fill="none" stroke-width="1.37434" stroke-linecap="butt" stroke-linejoin="miter" stroke="rgb(100%, 100%, 100%)" stroke-opacity="1" stroke-miterlimit="10" d="M -2.080467 10.962563 L 12.333595 19.681313 " transform="matrix(2, 0, 0, -2, 87.199997, 84.222)"/>
<path fill="none" stroke-width="0.5579" stroke-linecap="round" stroke-linejoin="round" stroke="rgb(0%, 0%, 0%)" stroke-opacity="1" stroke-miterlimit="10" d="M -1.296793 2.559253 C -0.667896 1.206359 1.024924 0.0499431 1.990148 0.000234877 C 1.023894 -0.0498763 -0.667898 -1.208823 -1.29382 -2.560541 " transform="matrix(1.71118, -1.03512, -1.03512, -1.71118, 111.868179, 44.857319)"/>
<path fill-rule="nonzero" fill="rgb(0%, 0%, 0%)" fill-opacity="1" d="M 85.777344 44.742188 C 87.027344 44.742188 87.714844 43.773438 88.152344 43.054688 L 87.871094 42.867188 C 87.589844 43.273438 87.089844 44.148438 86.589844 44.148438 C 86.308594 44.148438 86.214844 43.773438 86.214844 43.585938 C 86.214844 43.273438 87.339844 39.992188 87.339844 39.554688 C 87.339844 38.773438 87.058594 38.273438 86.277344 38.273438 C 85.933594 38.273438 85.339844 38.398438 85.027344 38.585938 C 84.714844 38.804688 84.433594 39.085938 84.183594 39.429688 L 84.121094 39.585938 L 85.589844 33.929688 L 83.433594 34.054688 L 83.402344 34.273438 C 83.808594 34.273438 83.996094 34.398438 84.121094 34.492188 C 84.308594 34.585938 84.402344 34.804688 84.402344 34.960938 C 84.402344 35.242188 84.308594 35.585938 84.214844 35.835938 L 81.777344 44.617188 L 82.621094 44.617188 C 83.152344 42.960938 83.714844 40.960938 84.496094 39.710938 C 84.808594 39.148438 85.339844 38.617188 85.996094 38.617188 C 86.558594 38.617188 86.402344 39.585938 86.308594 40.023438 C 86.246094 40.242188 86.152344 40.554688 85.996094 40.960938 C 85.496094 42.585938 85.183594 43.335938 85.183594 43.992188 C 85.183594 44.460938 85.339844 44.742188 85.777344 44.742188 Z M 85.777344 44.742188 "/>
<path fill-rule="nonzero" fill="rgb(0%, 0%, 0%)" fill-opacity="1" d="M 91.757812 42.6875 C 91.289062 42.6875 90.820312 43.0625 90.476562 43.53125 L 90.382812 43.53125 L 91.507812 39.40625 L 89.820312 39.46875 L 89.757812 39.625 C 90.195312 39.625 90.570312 39.75 90.570312 40.0625 C 90.570312 40.125 90.539062 40.25 90.476562 40.40625 L 88.570312 47.46875 L 89.320312 47.46875 L 89.851562 45.53125 L 90.101562 45.4375 L 90.695312 46.875 C 90.820312 47.125 90.914062 47.3125 91.007812 47.40625 C 91.101562 47.5 91.226562 47.5625 91.382812 47.5625 C 92.070312 47.5625 92.320312 47.09375 92.695312 46.21875 L 92.507812 46.125 C 92.289062 46.5625 92.132812 47.03125 91.789062 47.03125 C 91.664062 47.03125 91.476562 46.59375 91.351562 46.28125 L 90.882812 45.09375 L 91.101562 45 C 91.601562 44.75 92.039062 44.53125 92.320312 44.25 C 92.601562 43.96875 92.757812 43.6875 92.757812 43.40625 C 92.757812 42.90625 92.414062 42.6875 91.757812 42.6875 Z M 89.976562 45.1875 C 90.070312 44.75 90.476562 43.90625 90.726562 43.59375 C 90.914062 43.375 91.320312 42.90625 91.695312 42.90625 C 92.101562 42.90625 92.101562 43.28125 92.101562 43.5 C 92.070312 44.3125 90.601562 44.9375 89.976562 45.1875 Z M 89.976562 45.1875 "/>
<path fill="none" stroke-width="0.5579" stroke-linecap="butt" stroke-linejoin="miter" stroke="rgb(0%, 0%, 0%)" stroke-opacity="1" stroke-miterlimit="10" d="M -7.455467 -1.502281 L 21.763283 -1.502281 " transform="matrix(2, 0, 0, -2, 87.199997, 84.222)"/>
<path fill="none" stroke-width="0.5579" stroke-linecap="round" stroke-linejoin="round" stroke="rgb(0%, 0%, 0%)" stroke-opacity="1" stroke-miterlimit="10" d="M -2.899651 3.346275 C -2.372307 1.338463 -1.188713 0.389244 -0.00121307 -0.00138092 C -1.188713 -0.392006 -2.372307 -1.337318 -2.899651 -3.349037 " transform="matrix(2, 0, 0, -2, 131.283676, 87.223801)"/>
<path fill="none" stroke-width="0.5579" stroke-linecap="butt" stroke-linejoin="miter" stroke="rgb(0%, 0%, 0%)" stroke-opacity="1" stroke-miterlimit="10" d="M -9.252342 -9.748375 L 23.142189 -29.646812 " transform="matrix(2, 0, 0, -2, 87.199997, 84.222)"/>
<path fill="none" stroke-width="0.5579" stroke-linecap="round" stroke-linejoin="round" stroke="rgb(0%, 0%, 0%)" stroke-opacity="1" stroke-miterlimit="10" d="M -2.900099 3.348748 C -2.372106 1.339557 -1.189812 0.392377 0.000134484 0.000028873 C -1.189732 -0.39151 -2.373177 -1.338404 -2.899069 -3.348462 " transform="matrix(1.70414, 1.04664, 1.04664, -1.70414, 133.960678, 143.804596)"/>
<path fill-rule="nonzero" fill="rgb(0%, 0%, 0%)" fill-opacity="1" d="M 72.117188 142.074219 C 71.804688 142.074219 71.742188 141.886719 71.679688 141.636719 C 71.617188 141.386719 71.492188 141.105469 71.179688 141.105469 C 70.929688 141.105469 70.804688 141.324219 70.804688 141.542969 C 70.804688 142.136719 71.554688 142.417969 72.023438 142.417969 C 72.867188 142.417969 72.929688 142.167969 73.304688 141.636719 C 73.554688 141.355469 73.710938 140.949219 73.898438 140.449219 C 74.085938 139.949219 74.398438 139.292969 74.585938 138.511719 L 75.898438 133.480469 L 77.085938 133.480469 L 77.210938 133.136719 L 75.992188 133.136719 C 76.304688 132.011719 76.773438 130.042969 77.085938 129.449219 C 77.210938 129.261719 77.460938 128.980469 77.835938 128.980469 C 78.117188 128.980469 78.242188 129.167969 78.304688 129.417969 C 78.367188 129.699219 78.460938 129.949219 78.804688 129.949219 C 79.054688 129.949219 79.179688 129.761719 79.179688 129.542969 C 79.179688 128.949219 78.429688 128.667969 77.929688 128.667969 C 76.117188 128.699219 75.429688 131.605469 75.023438 133.136719 L 73.835938 133.136719 L 73.742188 133.480469 L 74.929688 133.480469 L 73.023438 140.667969 C 72.929688 141.011719 72.648438 142.074219 72.117188 142.074219 Z M 72.117188 142.074219 "/>
<path fill-rule="nonzero" fill="rgb(0%, 0%, 0%)" fill-opacity="1" d="M 79.386719 137.425781 C 78.917969 137.425781 78.449219 137.800781 78.105469 138.269531 L 78.011719 138.269531 L 79.136719 134.144531 L 77.449219 134.207031 L 77.386719 134.363281 C 77.824219 134.363281 78.199219 134.488281 78.199219 134.800781 C 78.199219 134.863281 78.167969 134.988281 78.105469 135.144531 L 76.199219 142.207031 L 76.949219 142.207031 L 77.480469 140.269531 L 77.730469 140.175781 L 78.324219 141.613281 C 78.449219 141.863281 78.542969 142.050781 78.636719 142.144531 C 78.730469 142.238281 78.855469 142.300781 79.011719 142.300781 C 79.699219 142.300781 79.949219 141.832031 80.324219 140.957031 L 80.136719 140.863281 C 79.917969 141.300781 79.761719 141.769531 79.417969 141.769531 C 79.292969 141.769531 79.105469 141.332031 78.980469 141.019531 L 78.511719 139.832031 L 78.730469 139.738281 C 79.230469 139.488281 79.667969 139.269531 79.949219 138.988281 C 80.230469 138.707031 80.386719 138.425781 80.386719 138.144531 C 80.386719 137.644531 80.042969 137.425781 79.386719 137.425781 Z M 77.605469 139.925781 C 77.699219 139.488281 78.105469 138.644531 78.355469 138.332031 C 78.542969 138.113281 78.949219 137.644531 79.324219 137.644531 C 79.730469 137.644531 79.730469 138.019531 79.730469 138.238281 C 79.699219 139.050781 78.230469 139.675781 77.605469 139.925781 Z M 77.605469 139.925781 "/>
<path fill-rule="nonzero" fill="rgb(0%, 0%, 0%)" fill-opacity="1" d="M 87.890625 139.707031 L 87.890625 139.082031 L 82.296875 139.082031 L 82.296875 139.707031 Z M 87.890625 139.707031 "/>
<path fill-rule="nonzero" fill="rgb(0%, 0%, 0%)" fill-opacity="1" d="M 94.550781 142.207031 L 94.550781 141.769531 L 94.082031 141.769531 C 92.957031 141.769531 92.957031 141.644531 92.957031 141.269531 L 92.957031 135.238281 C 92.957031 134.925781 92.925781 134.925781 92.582031 134.925781 C 91.863281 135.613281 90.738281 135.613281 90.332031 135.613281 L 90.332031 136.050781 C 90.644531 136.050781 91.363281 136.050781 92.019531 135.738281 L 92.019531 141.269531 C 92.019531 141.644531 92.019531 141.769531 90.894531 141.769531 L 90.425781 141.769531 L 90.425781 142.207031 C 91.019531 142.175781 91.863281 142.175781 92.488281 142.175781 C 93.113281 142.175781 93.957031 142.175781 94.550781 142.207031 Z M 94.550781 142.207031 "/>
<path fill-rule="nonzero" fill="rgb(0%, 0%, 0%)" fill-opacity="1" d="M 121.878906 73.9375 L 121.878906 74.8125 L 126.972656 74.8125 L 126.972656 69.71875 L 126.097656 69.71875 L 126.097656 73.9375 Z M 121.878906 73.9375 "/>
<path fill="none" stroke-width="0.5579" stroke-linecap="butt" stroke-linejoin="miter" stroke="rgb(0%, 0%, 0%)" stroke-opacity="1" stroke-miterlimit="10" d="M 32.872658 -9.748375 L 32.872658 -26.724937 " transform="matrix(2, 0, 0, -2, 87.199997, 84.222)"/>
<path fill="none" stroke-width="0.5579" stroke-linecap="round" stroke-linejoin="round" stroke="rgb(0%, 0%, 0%)" stroke-opacity="1" stroke-miterlimit="10" d="M -2.900078 3.346886 C -2.372734 1.339073 -1.18914 0.389854 -0.00164032 -0.000770569 C -1.18914 -0.391396 -2.372734 -1.340614 -2.900078 -3.348427 " transform="matrix(0, 2, 2, 0, 152.946854, 138.229843)"/>
<path fill-rule="nonzero" fill="rgb(0%, 0%, 0%)" fill-opacity="1" d="M 158.503906 127.757812 C 158.191406 127.757812 158.128906 127.570312 158.066406 127.320312 C 158.003906 127.070312 157.878906 126.789062 157.566406 126.789062 C 157.316406 126.789062 157.191406 127.007812 157.191406 127.226562 C 157.191406 127.820312 157.941406 128.101562 158.410156 128.101562 C 159.253906 128.101562 159.316406 127.851562 159.691406 127.320312 C 159.941406 127.039062 160.097656 126.632812 160.285156 126.132812 C 160.472656 125.632812 160.785156 124.976562 160.972656 124.195312 L 162.285156 119.164062 L 163.472656 119.164062 L 163.597656 118.820312 L 162.378906 118.820312 C 162.691406 117.695312 163.160156 115.726562 163.472656 115.132812 C 163.597656 114.945312 163.847656 114.664062 164.222656 114.664062 C 164.503906 114.664062 164.628906 114.851562 164.691406 115.101562 C 164.753906 115.382812 164.847656 115.632812 165.191406 115.632812 C 165.441406 115.632812 165.566406 115.445312 165.566406 115.226562 C 165.566406 114.632812 164.816406 114.351562 164.316406 114.351562 C 162.503906 114.382812 161.816406 117.289062 161.410156 118.820312 L 160.222656 118.820312 L 160.128906 119.164062 L 161.316406 119.164062 L 159.410156 126.351562 C 159.316406 126.695312 159.035156 127.757812 158.503906 127.757812 Z M 158.503906 127.757812 "/>
<path fill-rule="nonzero" fill="rgb(0%, 0%, 0%)" fill-opacity="1" d="M 165.773438 123.109375 C 165.304688 123.109375 164.835938 123.484375 164.492188 123.953125 L 164.398438 123.953125 L 165.523438 119.828125 L 163.835938 119.890625 L 163.773438 120.046875 C 164.210938 120.046875 164.585938 120.171875 164.585938 120.484375 C 164.585938 120.546875 164.554688 120.671875 164.492188 120.828125 L 162.585938 127.890625 L 163.335938 127.890625 L 163.867188 125.953125 L 164.117188 125.859375 L 164.710938 127.296875 C 164.835938 127.546875 164.929688 127.734375 165.023438 127.828125 C 165.117188 127.921875 165.242188 127.984375 165.398438 127.984375 C 166.085938 127.984375 166.335938 127.515625 166.710938 126.640625 L 166.523438 126.546875 C 166.304688 126.984375 166.148438 127.453125 165.804688 127.453125 C 165.679688 127.453125 165.492188 127.015625 165.367188 126.703125 L 164.898438 125.515625 L 165.117188 125.421875 C 165.617188 125.171875 166.054688 124.953125 166.335938 124.671875 C 166.617188 124.390625 166.773438 124.109375 166.773438 123.828125 C 166.773438 123.328125 166.429688 123.109375 165.773438 123.109375 Z M 163.992188 125.609375 C 164.085938 125.171875 164.492188 124.328125 164.742188 124.015625 C 164.929688 123.796875 165.335938 123.328125 165.710938 123.328125 C 166.117188 123.328125 166.117188 123.703125 166.117188 123.921875 C 166.085938 124.734375 164.617188 125.359375 163.992188 125.609375 Z M 163.992188 125.609375 "/>
<g clip-path="url(#clip-1)">
<path fill="none" stroke-width="2.49017" stroke-linecap="butt" stroke-linejoin="miter" stroke="rgb(0%, 0%, 0%)" stroke-opacity="1" stroke-miterlimit="10" d="M 22.321877 -9.033531 L 11.427345 -16.810875 " transform="matrix(2, 0, 0, -2, 87.199997, 84.222)"/>
</g>
<path fill="none" stroke-width="1.37434" stroke-linecap="butt" stroke-linejoin="miter" stroke="rgb(100%, 100%, 100%)" stroke-opacity="1" stroke-miterlimit="10" d="M 22.321877 -9.033531 L 11.427345 -16.810875 " transform="matrix(2, 0, 0, -2, 87.199997, 84.222)"/>
<path fill="none" stroke-width="0.5579" stroke-linecap="round" stroke-linejoin="round" stroke="rgb(0%, 0%, 0%)" stroke-opacity="1" stroke-miterlimit="10" d="M -1.293024 2.559104 C -0.66433 1.207753 1.024238 0.0500107 1.9906 -0.00161564 C 1.024252 -0.0508027 -0.667152 -1.209498 -1.295901 -2.560581 " transform="matrix(-1.62756, 1.16218, 1.16218, 1.62756, 110.054199, 117.845444)"/>
</svg>
