<?xml version="1.0" encoding="UTF-8"?>
<svg xmlns="http://www.w3.org/2000/svg" xmlns:xlink="http://www.w3.org/1999/xlink" width="533.419983" height="457.899994" viewBox="0 0 533.419983 457.899994">
<path fill-rule="nonzero" fill="rgb(0%, 0%, 0%)" fill-opacity="1" d="M 102.273438 376.242188 C 102.273438 373.125 99.75 370.601562 96.632812 370.601562 C 93.523438 370.601562 91 373.125 91 376.242188 C 91 379.351562 93.523438 381.875 96.632812 381.875 C 99.75 381.875 102.273438 379.351562 102.273438 376.242188 Z M 102.273438 376.242188 "/>
<path fill-rule="nonzero" fill="rgb(0%, 0%, 0%)" fill-opacity="1" d="M 117.171875 388.605469 C 117.171875 387.511719 116.640625 387.199219 116.296875 387.199219 C 115.796875 387.199219 115.296875 387.730469 115.296875 388.167969 C 115.296875 388.417969 115.390625 388.542969 115.609375 388.761719 C 116.046875 389.167969 116.296875 389.667969 116.296875 390.386719 C 116.296875 391.230469 115.078125 395.792969 112.765625 395.792969 C 111.734375 395.792969 111.265625 395.105469 111.265625 394.042969 C 111.265625 392.949219 111.828125 391.480469 112.421875 389.824219 C 112.578125 389.480469 112.671875 389.199219 112.671875 388.824219 C 112.671875 387.949219 112.046875 387.199219 111.046875 387.199219 C 109.171875 387.199219 108.421875 390.105469 108.421875 390.261719 C 108.421875 390.480469 108.609375 390.480469 108.640625 390.480469 C 108.859375 390.480469 108.859375 390.417969 108.953125 390.105469 C 109.546875 388.105469 110.390625 387.636719 110.984375 387.636719 C 111.140625 387.636719 111.484375 387.636719 111.484375 388.261719 C 111.484375 388.761719 111.265625 389.324219 111.140625 389.667969 C 110.265625 391.980469 110.015625 392.886719 110.015625 393.761719 C 110.015625 395.917969 111.765625 396.230469 112.671875 396.230469 C 116.015625 396.230469 117.171875 389.636719 117.171875 388.605469 Z M 117.171875 388.605469 "/>
<path fill-rule="nonzero" fill="rgb(0%, 0%, 0%)" fill-opacity="1" d="M 122.140625 390.125 C 122.140625 389.75 122.140625 389.75 121.734375 389.75 C 120.828125 390.625 119.578125 390.625 119.015625 390.625 L 119.015625 391.125 C 119.328125 391.125 120.265625 391.125 121.015625 390.75 L 121.015625 397.84375 C 121.015625 398.3125 121.015625 398.5 119.640625 398.5 L 119.109375 398.5 L 119.109375 399 C 119.359375 399 121.078125 398.9375 121.578125 398.9375 C 122.015625 398.9375 123.765625 399 124.078125 399 L 124.078125 398.5 L 123.546875 398.5 C 122.140625 398.5 122.140625 398.3125 122.140625 397.84375 Z M 122.140625 390.125 "/>
<path fill-rule="nonzero" fill="rgb(0%, 0%, 0%)" fill-opacity="1" d="M 442.429688 376.242188 C 442.429688 373.125 439.90625 370.601562 436.796875 370.601562 C 433.679688 370.601562 431.164062 373.125 431.164062 376.242188 C 431.164062 379.351562 433.679688 381.875 436.796875 381.875 C 439.90625 381.875 442.429688 379.351562 442.429688 376.242188 Z M 442.429688 376.242188 "/>
<path fill-rule="nonzero" fill="rgb(0%, 0%, 0%)" fill-opacity="1" d="M 436.839844 390.328125 C 436.839844 389.234375 436.308594 388.921875 435.964844 388.921875 C 435.464844 388.921875 434.964844 389.453125 434.964844 389.890625 C 434.964844 390.140625 435.058594 390.265625 435.277344 390.484375 C 435.714844 390.890625 435.964844 391.390625 435.964844 392.109375 C 435.964844 392.953125 434.746094 397.515625 432.433594 397.515625 C 431.402344 397.515625 430.933594 396.828125 430.933594 395.765625 C 430.933594 394.671875 431.496094 393.203125 432.089844 391.546875 C 432.246094 391.203125 432.339844 390.921875 432.339844 390.546875 C 432.339844 389.671875 431.714844 388.921875 430.714844 388.921875 C 428.839844 388.921875 428.089844 391.828125 428.089844 391.984375 C 428.089844 392.203125 428.277344 392.203125 428.308594 392.203125 C 428.527344 392.203125 428.527344 392.140625 428.621094 391.828125 C 429.214844 389.828125 430.058594 389.359375 430.652344 389.359375 C 430.808594 389.359375 431.152344 389.359375 431.152344 389.984375 C 431.152344 390.484375 430.933594 391.046875 430.808594 391.390625 C 429.933594 393.703125 429.683594 394.609375 429.683594 395.484375 C 429.683594 397.640625 431.433594 397.953125 432.339844 397.953125 C 435.683594 397.953125 436.839844 391.359375 436.839844 390.328125 Z M 436.839844 390.328125 "/>
<path fill-rule="nonzero" fill="rgb(0%, 0%, 0%)" fill-opacity="1" d="M 444.1875 398.191406 L 443.71875 398.191406 C 443.6875 398.503906 443.53125 399.316406 443.34375 399.441406 C 443.25 399.535156 442.1875 399.535156 441.96875 399.535156 L 439.40625 399.535156 C 440.875 398.253906 441.375 397.847656 442.1875 397.191406 C 443.21875 396.378906 444.1875 395.503906 444.1875 394.191406 C 444.1875 392.503906 442.71875 391.472656 440.9375 391.472656 C 439.21875 391.472656 438.03125 392.691406 438.03125 393.972656 C 438.03125 394.660156 438.625 394.753906 438.78125 394.753906 C 439.09375 394.753906 439.5 394.503906 439.5 394.003906 C 439.5 393.753906 439.40625 393.253906 438.6875 393.253906 C 439.125 392.285156 440.0625 391.972656 440.71875 391.972656 C 442.125 391.972656 442.84375 393.066406 442.84375 394.191406 C 442.84375 395.410156 441.96875 396.347656 441.53125 396.847656 L 438.1875 400.191406 C 438.03125 400.316406 438.03125 400.347656 438.03125 400.722656 L 443.78125 400.722656 Z M 444.1875 398.191406 "/>
<path fill-rule="nonzero" fill="rgb(0%, 0%, 0%)" fill-opacity="1" d="M 272.351562 81.664062 C 272.351562 78.546875 269.828125 76.023438 266.71875 76.023438 C 263.601562 76.023438 261.078125 78.546875 261.078125 81.664062 C 261.078125 84.773438 263.601562 87.296875 266.71875 87.296875 C 269.828125 87.296875 272.351562 84.773438 272.351562 81.664062 Z M 272.351562 81.664062 "/>
<path fill-rule="nonzero" fill="rgb(0%, 0%, 0%)" fill-opacity="1" d="M 266.757812 58.351562 C 266.757812 57.257812 266.226562 56.945312 265.882812 56.945312 C 265.382812 56.945312 264.882812 57.476562 264.882812 57.914062 C 264.882812 58.164062 264.976562 58.289062 265.195312 58.507812 C 265.632812 58.914062 265.882812 59.414062 265.882812 60.132812 C 265.882812 60.976562 264.664062 65.539062 262.351562 65.539062 C 261.320312 65.539062 260.851562 64.851562 260.851562 63.789062 C 260.851562 62.695312 261.414062 61.226562 262.007812 59.570312 C 262.164062 59.226562 262.257812 58.945312 262.257812 58.570312 C 262.257812 57.695312 261.632812 56.945312 260.632812 56.945312 C 258.757812 56.945312 258.007812 59.851562 258.007812 60.007812 C 258.007812 60.226562 258.195312 60.226562 258.226562 60.226562 C 258.445312 60.226562 258.445312 60.164062 258.539062 59.851562 C 259.132812 57.851562 259.976562 57.382812 260.570312 57.382812 C 260.726562 57.382812 261.070312 57.382812 261.070312 58.007812 C 261.070312 58.507812 260.851562 59.070312 260.726562 59.414062 C 259.851562 61.726562 259.601562 62.632812 259.601562 63.507812 C 259.601562 65.664062 261.351562 65.976562 262.257812 65.976562 C 265.601562 65.976562 266.757812 59.382812 266.757812 58.351562 Z M 266.757812 58.351562 "/>
<path fill-rule="nonzero" fill="rgb(0%, 0%, 0%)" fill-opacity="1" d="M 270.886719 64.089844 C 271.980469 64.089844 272.761719 64.839844 272.761719 66.339844 C 272.761719 68.058594 271.730469 68.589844 270.949219 68.589844 C 270.386719 68.589844 269.136719 68.433594 268.574219 67.589844 C 269.230469 67.589844 269.386719 67.121094 269.386719 66.808594 C 269.386719 66.371094 269.042969 66.058594 268.605469 66.058594 C 268.230469 66.058594 267.824219 66.308594 267.824219 66.871094 C 267.824219 68.183594 269.261719 69.027344 270.949219 69.027344 C 272.886719 69.027344 274.230469 67.714844 274.230469 66.339844 C 274.230469 65.246094 273.355469 64.152344 271.824219 63.839844 C 273.261719 63.308594 273.792969 62.277344 273.792969 61.402344 C 273.792969 60.308594 272.542969 59.496094 270.980469 59.496094 C 269.449219 59.496094 268.261719 60.246094 268.261719 61.371094 C 268.261719 61.839844 268.574219 62.089844 268.980469 62.089844 C 269.417969 62.089844 269.699219 61.777344 269.699219 61.402344 C 269.699219 60.996094 269.417969 60.683594 268.980469 60.652344 C 269.480469 60.058594 270.417969 59.902344 270.949219 59.902344 C 271.574219 59.902344 272.449219 60.214844 272.449219 61.402344 C 272.449219 61.996094 272.261719 62.652344 271.886719 63.058594 C 271.449219 63.589844 271.042969 63.621094 270.355469 63.683594 C 270.011719 63.714844 269.980469 63.714844 269.917969 63.714844 C 269.886719 63.714844 269.761719 63.746094 269.761719 63.902344 C 269.761719 64.089844 269.886719 64.089844 270.136719 64.089844 Z M 270.886719 64.089844 "/>
<path fill="none" stroke-width="1.19553" stroke-linecap="butt" stroke-linejoin="miter" stroke="rgb(0%, 50.196078%, 50.196078%)" stroke-opacity="1" stroke-miterlimit="10" d="M 168.612686 2.54187 L 89.370499 139.79187 " transform="matrix(2, 0, 0, -2, 96.634003, 376.23999)"/>
<path fill-rule="nonzero" fill="rgb(0%, 50.196078%, 50.196078%)" fill-opacity="1" stroke-width="1.19553" stroke-linecap="butt" stroke-linejoin="miter" stroke="rgb(0%, 50.196078%, 50.196078%)" stroke-opacity="1" stroke-miterlimit="10" d="M 7.504721 0.000921414 L 1.929529 2.110202 L 3.782129 -0.00137074 L 1.930097 -2.107564 Z M 7.504721 0.000921414 " transform="matrix(-1, -1.73202, -1.73202, 1, 278.85788, 102.692719)"/>
<path fill-rule="nonzero" fill="rgb(0%, 50.196078%, 50.196078%)" fill-opacity="1" d="M 321.480469 240.773438 C 322.074219 240.773438 323.542969 240.710938 324.542969 240.304688 C 325.949219 239.710938 326.042969 238.523438 326.042969 238.242188 C 326.042969 237.367188 325.292969 236.554688 323.917969 236.554688 C 321.699219 236.554688 318.667969 238.492188 318.667969 241.992188 C 318.667969 244.023438 319.855469 245.585938 321.824219 245.585938 C 324.667969 245.585938 326.324219 243.460938 326.324219 243.242188 C 326.324219 243.117188 326.230469 242.960938 326.105469 242.960938 C 325.980469 242.960938 325.949219 243.023438 325.824219 243.179688 C 324.261719 245.148438 322.074219 245.148438 321.855469 245.148438 C 320.292969 245.148438 320.105469 243.460938 320.105469 242.835938 C 320.105469 242.585938 320.136719 241.992188 320.417969 240.773438 Z M 320.542969 240.335938 C 321.324219 237.304688 323.386719 236.992188 323.917969 236.992188 C 324.824219 236.992188 325.386719 237.585938 325.386719 238.242188 C 325.386719 240.335938 322.199219 240.335938 321.355469 240.335938 Z M 320.542969 240.335938 "/>
<path fill-rule="nonzero" fill="rgb(0%, 50.196078%, 50.196078%)" fill-opacity="1" d="M 334.070312 245.824219 L 333.601562 245.824219 C 333.570312 246.136719 333.414062 246.949219 333.226562 247.074219 C 333.132812 247.167969 332.070312 247.167969 331.851562 247.167969 L 329.289062 247.167969 C 330.757812 245.886719 331.257812 245.480469 332.070312 244.824219 C 333.101562 244.011719 334.070312 243.136719 334.070312 241.824219 C 334.070312 240.136719 332.601562 239.105469 330.820312 239.105469 C 329.101562 239.105469 327.914062 240.324219 327.914062 241.605469 C 327.914062 242.292969 328.507812 242.386719 328.664062 242.386719 C 328.976562 242.386719 329.382812 242.136719 329.382812 241.636719 C 329.382812 241.386719 329.289062 240.886719 328.570312 240.886719 C 329.007812 239.917969 329.945312 239.605469 330.601562 239.605469 C 332.007812 239.605469 332.726562 240.699219 332.726562 241.824219 C 332.726562 243.042969 331.851562 243.980469 331.414062 244.480469 L 328.070312 247.824219 C 327.914062 247.949219 327.914062 247.980469 327.914062 248.355469 L 333.664062 248.355469 Z M 334.070312 245.824219 "/>
<path fill-rule="nonzero" fill="rgb(0%, 50.196078%, 50.196078%)" fill-opacity="1" d="M 338.785156 243.699219 C 339.878906 243.699219 340.660156 244.449219 340.660156 245.949219 C 340.660156 247.667969 339.628906 248.199219 338.847656 248.199219 C 338.285156 248.199219 337.035156 248.042969 336.472656 247.199219 C 337.128906 247.199219 337.285156 246.730469 337.285156 246.417969 C 337.285156 245.980469 336.941406 245.667969 336.503906 245.667969 C 336.128906 245.667969 335.722656 245.917969 335.722656 246.480469 C 335.722656 247.792969 337.160156 248.636719 338.847656 248.636719 C 340.785156 248.636719 342.128906 247.324219 342.128906 245.949219 C 342.128906 244.855469 341.253906 243.761719 339.722656 243.449219 C 341.160156 242.917969 341.691406 241.886719 341.691406 241.011719 C 341.691406 239.917969 340.441406 239.105469 338.878906 239.105469 C 337.347656 239.105469 336.160156 239.855469 336.160156 240.980469 C 336.160156 241.449219 336.472656 241.699219 336.878906 241.699219 C 337.316406 241.699219 337.597656 241.386719 337.597656 241.011719 C 337.597656 240.605469 337.316406 240.292969 336.878906 240.261719 C 337.378906 239.667969 338.316406 239.511719 338.847656 239.511719 C 339.472656 239.511719 340.347656 239.824219 340.347656 241.011719 C 340.347656 241.605469 340.160156 242.261719 339.785156 242.667969 C 339.347656 243.199219 338.941406 243.230469 338.253906 243.292969 C 337.910156 243.324219 337.878906 243.324219 337.816406 243.324219 C 337.785156 243.324219 337.660156 243.355469 337.660156 243.511719 C 337.660156 243.699219 337.785156 243.699219 338.035156 243.699219 Z M 338.785156 243.699219 "/>
<path fill="none" stroke-width="1.19553" stroke-linecap="butt" stroke-linejoin="miter" stroke="rgb(92.54902%, 0%, 54.901961%)" stroke-opacity="1" stroke-miterlimit="10" d="M 2.936905 -0.00109863 L 161.42128 -0.00109863 " transform="matrix(2, 0, 0, -2, 96.634003, 376.23999)"/>
<path fill-rule="nonzero" fill="rgb(92.54902%, 0%, 54.901961%)" fill-opacity="1" stroke-width="1.19553" stroke-linecap="butt" stroke-linejoin="miter" stroke="rgb(92.54902%, 0%, 54.901961%)" stroke-opacity="1" stroke-miterlimit="10" d="M 7.502869 -0.00109863 L 1.92865 2.108276 L 3.784119 -0.00109863 L 1.92865 -2.110474 Z M 7.502869 -0.00109863 " transform="matrix(2, 0, 0, -2, 412.509888, 376.23999)"/>
<path fill-rule="nonzero" fill="rgb(92.54902%, 0%, 54.901961%)" fill-opacity="1" d="M 257.355469 360.820312 C 257.949219 360.820312 259.417969 360.757812 260.417969 360.351562 C 261.824219 359.757812 261.917969 358.570312 261.917969 358.289062 C 261.917969 357.414062 261.167969 356.601562 259.792969 356.601562 C 257.574219 356.601562 254.542969 358.539062 254.542969 362.039062 C 254.542969 364.070312 255.730469 365.632812 257.699219 365.632812 C 260.542969 365.632812 262.199219 363.507812 262.199219 363.289062 C 262.199219 363.164062 262.105469 363.007812 261.980469 363.007812 C 261.855469 363.007812 261.824219 363.070312 261.699219 363.226562 C 260.136719 365.195312 257.949219 365.195312 257.730469 365.195312 C 256.167969 365.195312 255.980469 363.507812 255.980469 362.882812 C 255.980469 362.632812 256.011719 362.039062 256.292969 360.820312 Z M 256.417969 360.382812 C 257.199219 357.351562 259.261719 357.039062 259.792969 357.039062 C 260.699219 357.039062 261.261719 357.632812 261.261719 358.289062 C 261.261719 360.382812 258.074219 360.382812 257.230469 360.382812 Z M 256.417969 360.382812 "/>
<path fill-rule="nonzero" fill="rgb(92.54902%, 0%, 54.901961%)" fill-opacity="1" d="M 267.570312 359.527344 C 267.570312 359.152344 267.570312 359.152344 267.164062 359.152344 C 266.257812 360.027344 265.007812 360.027344 264.445312 360.027344 L 264.445312 360.527344 C 264.757812 360.527344 265.695312 360.527344 266.445312 360.152344 L 266.445312 367.246094 C 266.445312 367.714844 266.445312 367.902344 265.070312 367.902344 L 264.539062 367.902344 L 264.539062 368.402344 C 264.789062 368.402344 266.507812 368.339844 267.007812 368.339844 C 267.445312 368.339844 269.195312 368.402344 269.507812 368.402344 L 269.507812 367.902344 L 268.976562 367.902344 C 267.570312 367.902344 267.570312 367.714844 267.570312 367.246094 Z M 267.570312 359.527344 "/>
<path fill-rule="nonzero" fill="rgb(92.54902%, 0%, 54.901961%)" fill-opacity="1" d="M 277.882812 365.871094 L 277.414062 365.871094 C 277.382812 366.183594 277.226562 366.996094 277.039062 367.121094 C 276.945312 367.214844 275.882812 367.214844 275.664062 367.214844 L 273.101562 367.214844 C 274.570312 365.933594 275.070312 365.527344 275.882812 364.871094 C 276.914062 364.058594 277.882812 363.183594 277.882812 361.871094 C 277.882812 360.183594 276.414062 359.152344 274.632812 359.152344 C 272.914062 359.152344 271.726562 360.371094 271.726562 361.652344 C 271.726562 362.339844 272.320312 362.433594 272.476562 362.433594 C 272.789062 362.433594 273.195312 362.183594 273.195312 361.683594 C 273.195312 361.433594 273.101562 360.933594 272.382812 360.933594 C 272.820312 359.964844 273.757812 359.652344 274.414062 359.652344 C 275.820312 359.652344 276.539062 360.746094 276.539062 361.871094 C 276.539062 363.089844 275.664062 364.027344 275.226562 364.527344 L 271.882812 367.871094 C 271.726562 367.996094 271.726562 368.027344 271.726562 368.402344 L 277.476562 368.402344 Z M 277.882812 365.871094 "/>
<path fill="none" stroke-width="1.19553" stroke-linecap="butt" stroke-linejoin="miter" stroke="rgb(0%, 0%, 100%)" stroke-opacity="1" stroke-miterlimit="10" d="M 83.573624 144.744995 L 4.331436 7.498901 " transform="matrix(2, 0, 0, -2, 96.634003, 376.23999)"/>
<path fill-rule="nonzero" fill="rgb(0%, 0%, 100%)" fill-opacity="1" stroke-width="1.19553" stroke-linecap="butt" stroke-linejoin="miter" stroke="rgb(0%, 0%, 100%)" stroke-opacity="1" stroke-miterlimit="10" d="M 7.503009 -0.000306363 L 1.931768 2.110132 L 3.78237 -0.00139715 L 1.9312 -2.107634 Z M 7.503009 -0.000306363 " transform="matrix(-1, 1.73202, 1.73202, 1, 108.776978, 355.208069)"/>
<path fill-rule="nonzero" fill="rgb(0%, 0%, 100%)" fill-opacity="1" d="M 193.230469 240.773438 C 193.824219 240.773438 195.292969 240.710938 196.292969 240.304688 C 197.699219 239.710938 197.792969 238.523438 197.792969 238.242188 C 197.792969 237.367188 197.042969 236.554688 195.667969 236.554688 C 193.449219 236.554688 190.417969 238.492188 190.417969 241.992188 C 190.417969 244.023438 191.605469 245.585938 193.574219 245.585938 C 196.417969 245.585938 198.074219 243.460938 198.074219 243.242188 C 198.074219 243.117188 197.980469 242.960938 197.855469 242.960938 C 197.730469 242.960938 197.699219 243.023438 197.574219 243.179688 C 196.011719 245.148438 193.824219 245.148438 193.605469 245.148438 C 192.042969 245.148438 191.855469 243.460938 191.855469 242.835938 C 191.855469 242.585938 191.886719 241.992188 192.167969 240.773438 Z M 192.292969 240.335938 C 193.074219 237.304688 195.136719 236.992188 195.667969 236.992188 C 196.574219 236.992188 197.136719 237.585938 197.136719 238.242188 C 197.136719 240.335938 193.949219 240.335938 193.105469 240.335938 Z M 192.292969 240.335938 "/>
<path fill-rule="nonzero" fill="rgb(0%, 0%, 100%)" fill-opacity="1" d="M 202.601562 243.699219 C 203.695312 243.699219 204.476562 244.449219 204.476562 245.949219 C 204.476562 247.667969 203.445312 248.199219 202.664062 248.199219 C 202.101562 248.199219 200.851562 248.042969 200.289062 247.199219 C 200.945312 247.199219 201.101562 246.730469 201.101562 246.417969 C 201.101562 245.980469 200.757812 245.667969 200.320312 245.667969 C 199.945312 245.667969 199.539062 245.917969 199.539062 246.480469 C 199.539062 247.792969 200.976562 248.636719 202.664062 248.636719 C 204.601562 248.636719 205.945312 247.324219 205.945312 245.949219 C 205.945312 244.855469 205.070312 243.761719 203.539062 243.449219 C 204.976562 242.917969 205.507812 241.886719 205.507812 241.011719 C 205.507812 239.917969 204.257812 239.105469 202.695312 239.105469 C 201.164062 239.105469 199.976562 239.855469 199.976562 240.980469 C 199.976562 241.449219 200.289062 241.699219 200.695312 241.699219 C 201.132812 241.699219 201.414062 241.386719 201.414062 241.011719 C 201.414062 240.605469 201.132812 240.292969 200.695312 240.261719 C 201.195312 239.667969 202.132812 239.511719 202.664062 239.511719 C 203.289062 239.511719 204.164062 239.824219 204.164062 241.011719 C 204.164062 241.605469 203.976562 242.261719 203.601562 242.667969 C 203.164062 243.199219 202.757812 243.230469 202.070312 243.292969 C 201.726562 243.324219 201.695312 243.324219 201.632812 243.324219 C 201.601562 243.324219 201.476562 243.355469 201.476562 243.511719 C 201.476562 243.699219 201.601562 243.699219 201.851562 243.699219 Z M 202.601562 243.699219 "/>
<path fill-rule="nonzero" fill="rgb(0%, 0%, 100%)" fill-opacity="1" d="M 211.382812 239.480469 C 211.382812 239.105469 211.382812 239.105469 210.976562 239.105469 C 210.070312 239.980469 208.820312 239.980469 208.257812 239.980469 L 208.257812 240.480469 C 208.570312 240.480469 209.507812 240.480469 210.257812 240.105469 L 210.257812 247.199219 C 210.257812 247.667969 210.257812 247.855469 208.882812 247.855469 L 208.351562 247.855469 L 208.351562 248.355469 C 208.601562 248.355469 210.320312 248.292969 210.820312 248.292969 C 211.257812 248.292969 213.007812 248.355469 213.320312 248.355469 L 213.320312 247.855469 L 212.789062 247.855469 C 211.382812 247.855469 211.382812 247.667969 211.382812 247.199219 Z M 211.382812 239.480469 "/>
<path fill-rule="nonzero" fill="rgb(50.196078%, 50.196078%, 50.196078%)" fill-opacity="1" d="M 153.789062 321.90625 C 153.789062 320.34375 152.523438 319.085938 150.96875 319.085938 C 149.414062 319.085938 148.15625 320.34375 148.15625 321.90625 C 148.15625 323.460938 149.414062 324.71875 150.96875 324.71875 C 152.523438 324.71875 153.789062 323.460938 153.789062 321.90625 Z M 153.789062 321.90625 "/>
<path fill-rule="nonzero" fill="rgb(0%, 0%, 0%)" fill-opacity="1" d="M 169.433594 302.390625 C 169.433594 301.296875 168.902344 300.984375 168.558594 300.984375 C 168.058594 300.984375 167.558594 301.515625 167.558594 301.953125 C 167.558594 302.203125 167.652344 302.328125 167.871094 302.546875 C 168.308594 302.953125 168.558594 303.453125 168.558594 304.171875 C 168.558594 305.015625 167.339844 309.578125 165.027344 309.578125 C 163.996094 309.578125 163.527344 308.890625 163.527344 307.828125 C 163.527344 306.734375 164.089844 305.265625 164.683594 303.609375 C 164.839844 303.265625 164.933594 302.984375 164.933594 302.609375 C 164.933594 301.734375 164.308594 300.984375 163.308594 300.984375 C 161.433594 300.984375 160.683594 303.890625 160.683594 304.046875 C 160.683594 304.265625 160.871094 304.265625 160.902344 304.265625 C 161.121094 304.265625 161.121094 304.203125 161.214844 303.890625 C 161.808594 301.890625 162.652344 301.421875 163.246094 301.421875 C 163.402344 301.421875 163.746094 301.421875 163.746094 302.046875 C 163.746094 302.546875 163.527344 303.109375 163.402344 303.453125 C 162.527344 305.765625 162.277344 306.671875 162.277344 307.546875 C 162.277344 309.703125 164.027344 310.015625 164.933594 310.015625 C 168.277344 310.015625 169.433594 303.421875 169.433594 302.390625 Z M 169.433594 302.390625 "/>
<path fill-rule="nonzero" fill="rgb(0%, 0%, 0%)" fill-opacity="1" d="M 174.402344 303.910156 C 174.402344 303.535156 174.402344 303.535156 173.996094 303.535156 C 173.089844 304.410156 171.839844 304.410156 171.277344 304.410156 L 171.277344 304.910156 C 171.589844 304.910156 172.527344 304.910156 173.277344 304.535156 L 173.277344 311.628906 C 173.277344 312.097656 173.277344 312.285156 171.902344 312.285156 L 171.371094 312.285156 L 171.371094 312.785156 C 171.621094 312.785156 173.339844 312.722656 173.839844 312.722656 C 174.277344 312.722656 176.027344 312.785156 176.339844 312.785156 L 176.339844 312.285156 L 175.808594 312.285156 C 174.402344 312.285156 174.402344 312.097656 174.402344 311.628906 Z M 174.402344 303.910156 "/>
<path fill-rule="nonzero" fill="rgb(0%, 0%, 0%)" fill-opacity="1" d="M 182.339844 303.910156 C 182.339844 303.535156 182.339844 303.535156 181.933594 303.535156 C 181.027344 304.410156 179.777344 304.410156 179.214844 304.410156 L 179.214844 304.910156 C 179.527344 304.910156 180.464844 304.910156 181.214844 304.535156 L 181.214844 311.628906 C 181.214844 312.097656 181.214844 312.285156 179.839844 312.285156 L 179.308594 312.285156 L 179.308594 312.785156 C 179.558594 312.785156 181.277344 312.722656 181.777344 312.722656 C 182.214844 312.722656 183.964844 312.785156 184.277344 312.785156 L 184.277344 312.285156 L 183.746094 312.285156 C 182.339844 312.285156 182.339844 312.097656 182.339844 311.628906 Z M 182.339844 303.910156 "/>
<path fill-rule="nonzero" fill="rgb(50.196078%, 50.196078%, 50.196078%)" fill-opacity="1" d="M 153.789062 430.578125 C 153.789062 429.023438 152.523438 427.757812 150.96875 427.757812 C 149.414062 427.757812 148.15625 429.023438 148.15625 430.578125 C 148.15625 432.132812 149.414062 433.398438 150.96875 433.398438 C 152.523438 433.398438 153.789062 432.132812 153.789062 430.578125 Z M 153.789062 430.578125 "/>
<path fill-rule="nonzero" fill="rgb(0%, 0%, 0%)" fill-opacity="1" d="M 169.433594 440.867188 C 169.433594 439.773438 168.902344 439.460938 168.558594 439.460938 C 168.058594 439.460938 167.558594 439.992188 167.558594 440.429688 C 167.558594 440.679688 167.652344 440.804688 167.871094 441.023438 C 168.308594 441.429688 168.558594 441.929688 168.558594 442.648438 C 168.558594 443.492188 167.339844 448.054688 165.027344 448.054688 C 163.996094 448.054688 163.527344 447.367188 163.527344 446.304688 C 163.527344 445.210938 164.089844 443.742188 164.683594 442.085938 C 164.839844 441.742188 164.933594 441.460938 164.933594 441.085938 C 164.933594 440.210938 164.308594 439.460938 163.308594 439.460938 C 161.433594 439.460938 160.683594 442.367188 160.683594 442.523438 C 160.683594 442.742188 160.871094 442.742188 160.902344 442.742188 C 161.121094 442.742188 161.121094 442.679688 161.214844 442.367188 C 161.808594 440.367188 162.652344 439.898438 163.246094 439.898438 C 163.402344 439.898438 163.746094 439.898438 163.746094 440.523438 C 163.746094 441.023438 163.527344 441.585938 163.402344 441.929688 C 162.527344 444.242188 162.277344 445.148438 162.277344 446.023438 C 162.277344 448.179688 164.027344 448.492188 164.933594 448.492188 C 168.277344 448.492188 169.433594 441.898438 169.433594 440.867188 Z M 169.433594 440.867188 "/>
<path fill-rule="nonzero" fill="rgb(0%, 0%, 0%)" fill-opacity="1" d="M 174.402344 442.386719 C 174.402344 442.011719 174.402344 442.011719 173.996094 442.011719 C 173.089844 442.886719 171.839844 442.886719 171.277344 442.886719 L 171.277344 443.386719 C 171.589844 443.386719 172.527344 443.386719 173.277344 443.011719 L 173.277344 450.105469 C 173.277344 450.574219 173.277344 450.761719 171.902344 450.761719 L 171.371094 450.761719 L 171.371094 451.261719 C 171.621094 451.261719 173.339844 451.199219 173.839844 451.199219 C 174.277344 451.199219 176.027344 451.261719 176.339844 451.261719 L 176.339844 450.761719 L 175.808594 450.761719 C 174.402344 450.761719 174.402344 450.574219 174.402344 450.105469 Z M 174.402344 442.386719 "/>
<path fill-rule="nonzero" fill="rgb(0%, 0%, 0%)" fill-opacity="1" d="M 184.714844 448.730469 L 184.246094 448.730469 C 184.214844 449.042969 184.058594 449.855469 183.871094 449.980469 C 183.777344 450.074219 182.714844 450.074219 182.496094 450.074219 L 179.933594 450.074219 C 181.402344 448.792969 181.902344 448.386719 182.714844 447.730469 C 183.746094 446.917969 184.714844 446.042969 184.714844 444.730469 C 184.714844 443.042969 183.246094 442.011719 181.464844 442.011719 C 179.746094 442.011719 178.558594 443.230469 178.558594 444.511719 C 178.558594 445.199219 179.152344 445.292969 179.308594 445.292969 C 179.621094 445.292969 180.027344 445.042969 180.027344 444.542969 C 180.027344 444.292969 179.933594 443.792969 179.214844 443.792969 C 179.652344 442.824219 180.589844 442.511719 181.246094 442.511719 C 182.652344 442.511719 183.371094 443.605469 183.371094 444.730469 C 183.371094 445.949219 182.496094 446.886719 182.058594 447.386719 L 178.714844 450.730469 C 178.558594 450.855469 178.558594 450.886719 178.558594 451.261719 L 184.308594 451.261719 Z M 184.714844 448.730469 "/>
<path fill-rule="nonzero" fill="rgb(50.196078%, 50.196078%, 50.196078%)" fill-opacity="1" d="M 45.117188 430.578125 C 45.117188 429.023438 43.851562 427.757812 42.296875 427.757812 C 40.742188 427.757812 39.476562 429.023438 39.476562 430.578125 C 39.476562 432.132812 40.742188 433.398438 42.296875 433.398438 C 43.851562 433.398438 45.117188 432.132812 45.117188 430.578125 Z M 45.117188 430.578125 "/>
<path fill-rule="nonzero" fill="rgb(0%, 0%, 0%)" fill-opacity="1" d="M 15.984375 440.867188 C 15.984375 439.773438 15.453125 439.460938 15.109375 439.460938 C 14.609375 439.460938 14.109375 439.992188 14.109375 440.429688 C 14.109375 440.679688 14.203125 440.804688 14.421875 441.023438 C 14.859375 441.429688 15.109375 441.929688 15.109375 442.648438 C 15.109375 443.492188 13.890625 448.054688 11.578125 448.054688 C 10.546875 448.054688 10.078125 447.367188 10.078125 446.304688 C 10.078125 445.210938 10.640625 443.742188 11.234375 442.085938 C 11.390625 441.742188 11.484375 441.460938 11.484375 441.085938 C 11.484375 440.210938 10.859375 439.460938 9.859375 439.460938 C 7.984375 439.460938 7.234375 442.367188 7.234375 442.523438 C 7.234375 442.742188 7.421875 442.742188 7.453125 442.742188 C 7.671875 442.742188 7.671875 442.679688 7.765625 442.367188 C 8.359375 440.367188 9.203125 439.898438 9.796875 439.898438 C 9.953125 439.898438 10.296875 439.898438 10.296875 440.523438 C 10.296875 441.023438 10.078125 441.585938 9.953125 441.929688 C 9.078125 444.242188 8.828125 445.148438 8.828125 446.023438 C 8.828125 448.179688 10.578125 448.492188 11.484375 448.492188 C 14.828125 448.492188 15.984375 441.898438 15.984375 440.867188 Z M 15.984375 440.867188 "/>
<path fill-rule="nonzero" fill="rgb(0%, 0%, 0%)" fill-opacity="1" d="M 20.953125 442.386719 C 20.953125 442.011719 20.953125 442.011719 20.546875 442.011719 C 19.640625 442.886719 18.390625 442.886719 17.828125 442.886719 L 17.828125 443.386719 C 18.140625 443.386719 19.078125 443.386719 19.828125 443.011719 L 19.828125 450.105469 C 19.828125 450.574219 19.828125 450.761719 18.453125 450.761719 L 17.921875 450.761719 L 17.921875 451.261719 C 18.171875 451.261719 19.890625 451.199219 20.390625 451.199219 C 20.828125 451.199219 22.578125 451.261719 22.890625 451.261719 L 22.890625 450.761719 L 22.359375 450.761719 C 20.953125 450.761719 20.953125 450.574219 20.953125 450.105469 Z M 20.953125 442.386719 "/>
<path fill-rule="nonzero" fill="rgb(0%, 0%, 0%)" fill-opacity="1" d="M 28.046875 446.605469 C 29.140625 446.605469 29.921875 447.355469 29.921875 448.855469 C 29.921875 450.574219 28.890625 451.105469 28.109375 451.105469 C 27.546875 451.105469 26.296875 450.949219 25.734375 450.105469 C 26.390625 450.105469 26.546875 449.636719 26.546875 449.324219 C 26.546875 448.886719 26.203125 448.574219 25.765625 448.574219 C 25.390625 448.574219 24.984375 448.824219 24.984375 449.386719 C 24.984375 450.699219 26.421875 451.542969 28.109375 451.542969 C 30.046875 451.542969 31.390625 450.230469 31.390625 448.855469 C 31.390625 447.761719 30.515625 446.667969 28.984375 446.355469 C 30.421875 445.824219 30.953125 444.792969 30.953125 443.917969 C 30.953125 442.824219 29.703125 442.011719 28.140625 442.011719 C 26.609375 442.011719 25.421875 442.761719 25.421875 443.886719 C 25.421875 444.355469 25.734375 444.605469 26.140625 444.605469 C 26.578125 444.605469 26.859375 444.292969 26.859375 443.917969 C 26.859375 443.511719 26.578125 443.199219 26.140625 443.167969 C 26.640625 442.574219 27.578125 442.417969 28.109375 442.417969 C 28.734375 442.417969 29.609375 442.730469 29.609375 443.917969 C 29.609375 444.511719 29.421875 445.167969 29.046875 445.574219 C 28.609375 446.105469 28.203125 446.136719 27.515625 446.199219 C 27.171875 446.230469 27.140625 446.230469 27.078125 446.230469 C 27.046875 446.230469 26.921875 446.261719 26.921875 446.417969 C 26.921875 446.605469 27.046875 446.605469 27.296875 446.605469 Z M 28.046875 446.605469 "/>
<path fill-rule="nonzero" fill="rgb(50.196078%, 50.196078%, 50.196078%)" fill-opacity="1" d="M 45.117188 321.90625 C 45.117188 320.34375 43.851562 319.085938 42.296875 319.085938 C 40.742188 319.085938 39.476562 320.34375 39.476562 321.90625 C 39.476562 323.460938 40.742188 324.71875 42.296875 324.71875 C 43.851562 324.71875 45.117188 323.460938 45.117188 321.90625 Z M 45.117188 321.90625 "/>
<path fill-rule="nonzero" fill="rgb(0%, 0%, 0%)" fill-opacity="1" d="M 15.984375 302.390625 C 15.984375 301.296875 15.453125 300.984375 15.109375 300.984375 C 14.609375 300.984375 14.109375 301.515625 14.109375 301.953125 C 14.109375 302.203125 14.203125 302.328125 14.421875 302.546875 C 14.859375 302.953125 15.109375 303.453125 15.109375 304.171875 C 15.109375 305.015625 13.890625 309.578125 11.578125 309.578125 C 10.546875 309.578125 10.078125 308.890625 10.078125 307.828125 C 10.078125 306.734375 10.640625 305.265625 11.234375 303.609375 C 11.390625 303.265625 11.484375 302.984375 11.484375 302.609375 C 11.484375 301.734375 10.859375 300.984375 9.859375 300.984375 C 7.984375 300.984375 7.234375 303.890625 7.234375 304.046875 C 7.234375 304.265625 7.421875 304.265625 7.453125 304.265625 C 7.671875 304.265625 7.671875 304.203125 7.765625 303.890625 C 8.359375 301.890625 9.203125 301.421875 9.796875 301.421875 C 9.953125 301.421875 10.296875 301.421875 10.296875 302.046875 C 10.296875 302.546875 10.078125 303.109375 9.953125 303.453125 C 9.078125 305.765625 8.828125 306.671875 8.828125 307.546875 C 8.828125 309.703125 10.578125 310.015625 11.484375 310.015625 C 14.828125 310.015625 15.984375 303.421875 15.984375 302.390625 Z M 15.984375 302.390625 "/>
<path fill-rule="nonzero" fill="rgb(0%, 0%, 0%)" fill-opacity="1" d="M 20.953125 303.910156 C 20.953125 303.535156 20.953125 303.535156 20.546875 303.535156 C 19.640625 304.410156 18.390625 304.410156 17.828125 304.410156 L 17.828125 304.910156 C 18.140625 304.910156 19.078125 304.910156 19.828125 304.535156 L 19.828125 311.628906 C 19.828125 312.097656 19.828125 312.285156 18.453125 312.285156 L 17.921875 312.285156 L 17.921875 312.785156 C 18.171875 312.785156 19.890625 312.722656 20.390625 312.722656 C 20.828125 312.722656 22.578125 312.785156 22.890625 312.785156 L 22.890625 312.285156 L 22.359375 312.285156 C 20.953125 312.285156 20.953125 312.097656 20.953125 311.628906 Z M 20.953125 303.910156 "/>
<path fill-rule="nonzero" fill="rgb(0%, 0%, 0%)" fill-opacity="1" d="M 31.609375 310.503906 L 31.609375 310.003906 L 30.046875 310.003906 L 30.046875 303.785156 C 30.046875 303.503906 30.046875 303.378906 29.765625 303.378906 C 29.578125 303.378906 29.515625 303.378906 29.390625 303.597656 L 24.765625 310.003906 L 24.765625 310.503906 L 28.890625 310.503906 L 28.890625 311.628906 C 28.890625 312.128906 28.890625 312.285156 27.734375 312.285156 L 27.359375 312.285156 L 27.359375 312.785156 C 28.078125 312.753906 28.953125 312.722656 29.453125 312.722656 C 29.984375 312.722656 30.859375 312.753906 31.578125 312.785156 L 31.578125 312.285156 L 31.203125 312.285156 C 30.046875 312.285156 30.046875 312.128906 30.046875 311.628906 L 30.046875 310.503906 Z M 28.984375 304.910156 L 28.984375 310.003906 L 25.296875 310.003906 Z M 28.984375 304.910156 "/>
<path fill-rule="nonzero" fill="rgb(50.196078%, 50.196078%, 50.196078%)" fill-opacity="1" d="M 493.953125 321.90625 C 493.953125 320.34375 492.6875 319.085938 491.132812 319.085938 C 489.578125 319.085938 488.3125 320.34375 488.3125 321.90625 C 488.3125 323.460938 489.578125 324.71875 491.132812 324.71875 C 492.6875 324.71875 493.953125 323.460938 493.953125 321.90625 Z M 493.953125 321.90625 "/>
<path fill-rule="nonzero" fill="rgb(0%, 0%, 0%)" fill-opacity="1" d="M 509.59375 302.390625 C 509.59375 301.296875 509.0625 300.984375 508.71875 300.984375 C 508.21875 300.984375 507.71875 301.515625 507.71875 301.953125 C 507.71875 302.203125 507.8125 302.328125 508.03125 302.546875 C 508.46875 302.953125 508.71875 303.453125 508.71875 304.171875 C 508.71875 305.015625 507.5 309.578125 505.1875 309.578125 C 504.15625 309.578125 503.6875 308.890625 503.6875 307.828125 C 503.6875 306.734375 504.25 305.265625 504.84375 303.609375 C 505 303.265625 505.09375 302.984375 505.09375 302.609375 C 505.09375 301.734375 504.46875 300.984375 503.46875 300.984375 C 501.59375 300.984375 500.84375 303.890625 500.84375 304.046875 C 500.84375 304.265625 501.03125 304.265625 501.0625 304.265625 C 501.28125 304.265625 501.28125 304.203125 501.375 303.890625 C 501.96875 301.890625 502.8125 301.421875 503.40625 301.421875 C 503.5625 301.421875 503.90625 301.421875 503.90625 302.046875 C 503.90625 302.546875 503.6875 303.109375 503.5625 303.453125 C 502.6875 305.765625 502.4375 306.671875 502.4375 307.546875 C 502.4375 309.703125 504.1875 310.015625 505.09375 310.015625 C 508.4375 310.015625 509.59375 303.421875 509.59375 302.390625 Z M 509.59375 302.390625 "/>
<path fill-rule="nonzero" fill="rgb(0%, 0%, 0%)" fill-opacity="1" d="M 516.9375 310.253906 L 516.46875 310.253906 C 516.4375 310.566406 516.28125 311.378906 516.09375 311.503906 C 516 311.597656 514.9375 311.597656 514.71875 311.597656 L 512.15625 311.597656 C 513.625 310.316406 514.125 309.910156 514.9375 309.253906 C 515.96875 308.441406 516.9375 307.566406 516.9375 306.253906 C 516.9375 304.566406 515.46875 303.535156 513.6875 303.535156 C 511.96875 303.535156 510.78125 304.753906 510.78125 306.035156 C 510.78125 306.722656 511.375 306.816406 511.53125 306.816406 C 511.84375 306.816406 512.25 306.566406 512.25 306.066406 C 512.25 305.816406 512.15625 305.316406 511.4375 305.316406 C 511.875 304.347656 512.8125 304.035156 513.46875 304.035156 C 514.875 304.035156 515.59375 305.128906 515.59375 306.253906 C 515.59375 307.472656 514.71875 308.410156 514.28125 308.910156 L 510.9375 312.253906 C 510.78125 312.378906 510.78125 312.410156 510.78125 312.785156 L 516.53125 312.785156 Z M 516.9375 310.253906 "/>
<path fill-rule="nonzero" fill="rgb(0%, 0%, 0%)" fill-opacity="1" d="M 522.5 303.910156 C 522.5 303.535156 522.5 303.535156 522.09375 303.535156 C 521.1875 304.410156 519.9375 304.410156 519.375 304.410156 L 519.375 304.910156 C 519.6875 304.910156 520.625 304.910156 521.375 304.535156 L 521.375 311.628906 C 521.375 312.097656 521.375 312.285156 520 312.285156 L 519.46875 312.285156 L 519.46875 312.785156 C 519.71875 312.785156 521.4375 312.722656 521.9375 312.722656 C 522.375 312.722656 524.125 312.785156 524.4375 312.785156 L 524.4375 312.285156 L 523.90625 312.285156 C 522.5 312.285156 522.5 312.097656 522.5 311.628906 Z M 522.5 303.910156 "/>
<path fill-rule="nonzero" fill="rgb(50.196078%, 50.196078%, 50.196078%)" fill-opacity="1" d="M 493.953125 430.578125 C 493.953125 429.023438 492.6875 427.757812 491.132812 427.757812 C 489.578125 427.757812 488.3125 429.023438 488.3125 430.578125 C 488.3125 432.132812 489.578125 433.398438 491.132812 433.398438 C 492.6875 433.398438 493.953125 432.132812 493.953125 430.578125 Z M 493.953125 430.578125 "/>
<path fill-rule="nonzero" fill="rgb(0%, 0%, 0%)" fill-opacity="1" d="M 509.59375 440.867188 C 509.59375 439.773438 509.0625 439.460938 508.71875 439.460938 C 508.21875 439.460938 507.71875 439.992188 507.71875 440.429688 C 507.71875 440.679688 507.8125 440.804688 508.03125 441.023438 C 508.46875 441.429688 508.71875 441.929688 508.71875 442.648438 C 508.71875 443.492188 507.5 448.054688 505.1875 448.054688 C 504.15625 448.054688 503.6875 447.367188 503.6875 446.304688 C 503.6875 445.210938 504.25 443.742188 504.84375 442.085938 C 505 441.742188 505.09375 441.460938 505.09375 441.085938 C 505.09375 440.210938 504.46875 439.460938 503.46875 439.460938 C 501.59375 439.460938 500.84375 442.367188 500.84375 442.523438 C 500.84375 442.742188 501.03125 442.742188 501.0625 442.742188 C 501.28125 442.742188 501.28125 442.679688 501.375 442.367188 C 501.96875 440.367188 502.8125 439.898438 503.40625 439.898438 C 503.5625 439.898438 503.90625 439.898438 503.90625 440.523438 C 503.90625 441.023438 503.6875 441.585938 503.5625 441.929688 C 502.6875 444.242188 502.4375 445.148438 502.4375 446.023438 C 502.4375 448.179688 504.1875 448.492188 505.09375 448.492188 C 508.4375 448.492188 509.59375 441.898438 509.59375 440.867188 Z M 509.59375 440.867188 "/>
<path fill-rule="nonzero" fill="rgb(0%, 0%, 0%)" fill-opacity="1" d="M 516.9375 448.730469 L 516.46875 448.730469 C 516.4375 449.042969 516.28125 449.855469 516.09375 449.980469 C 516 450.074219 514.9375 450.074219 514.71875 450.074219 L 512.15625 450.074219 C 513.625 448.792969 514.125 448.386719 514.9375 447.730469 C 515.96875 446.917969 516.9375 446.042969 516.9375 444.730469 C 516.9375 443.042969 515.46875 442.011719 513.6875 442.011719 C 511.96875 442.011719 510.78125 443.230469 510.78125 444.511719 C 510.78125 445.199219 511.375 445.292969 511.53125 445.292969 C 511.84375 445.292969 512.25 445.042969 512.25 444.542969 C 512.25 444.292969 512.15625 443.792969 511.4375 443.792969 C 511.875 442.824219 512.8125 442.511719 513.46875 442.511719 C 514.875 442.511719 515.59375 443.605469 515.59375 444.730469 C 515.59375 445.949219 514.71875 446.886719 514.28125 447.386719 L 510.9375 450.730469 C 510.78125 450.855469 510.78125 450.886719 510.78125 451.261719 L 516.53125 451.261719 Z M 516.9375 448.730469 "/>
<path fill-rule="nonzero" fill="rgb(0%, 0%, 0%)" fill-opacity="1" d="M 524.875 448.730469 L 524.40625 448.730469 C 524.375 449.042969 524.21875 449.855469 524.03125 449.980469 C 523.9375 450.074219 522.875 450.074219 522.65625 450.074219 L 520.09375 450.074219 C 521.5625 448.792969 522.0625 448.386719 522.875 447.730469 C 523.90625 446.917969 524.875 446.042969 524.875 444.730469 C 524.875 443.042969 523.40625 442.011719 521.625 442.011719 C 519.90625 442.011719 518.71875 443.230469 518.71875 444.511719 C 518.71875 445.199219 519.3125 445.292969 519.46875 445.292969 C 519.78125 445.292969 520.1875 445.042969 520.1875 444.542969 C 520.1875 444.292969 520.09375 443.792969 519.375 443.792969 C 519.8125 442.824219 520.75 442.511719 521.40625 442.511719 C 522.8125 442.511719 523.53125 443.605469 523.53125 444.730469 C 523.53125 445.949219 522.65625 446.886719 522.21875 447.386719 L 518.875 450.730469 C 518.71875 450.855469 518.71875 450.886719 518.71875 451.261719 L 524.46875 451.261719 Z M 524.875 448.730469 "/>
<path fill-rule="nonzero" fill="rgb(50.196078%, 50.196078%, 50.196078%)" fill-opacity="1" d="M 385.273438 430.578125 C 385.273438 429.023438 384.015625 427.757812 382.460938 427.757812 C 380.90625 427.757812 379.640625 429.023438 379.640625 430.578125 C 379.640625 432.132812 380.90625 433.398438 382.460938 433.398438 C 384.015625 433.398438 385.273438 432.132812 385.273438 430.578125 Z M 385.273438 430.578125 "/>
<path fill-rule="nonzero" fill="rgb(0%, 0%, 0%)" fill-opacity="1" d="M 356.144531 440.867188 C 356.144531 439.773438 355.613281 439.460938 355.269531 439.460938 C 354.769531 439.460938 354.269531 439.992188 354.269531 440.429688 C 354.269531 440.679688 354.363281 440.804688 354.582031 441.023438 C 355.019531 441.429688 355.269531 441.929688 355.269531 442.648438 C 355.269531 443.492188 354.050781 448.054688 351.738281 448.054688 C 350.707031 448.054688 350.238281 447.367188 350.238281 446.304688 C 350.238281 445.210938 350.800781 443.742188 351.394531 442.085938 C 351.550781 441.742188 351.644531 441.460938 351.644531 441.085938 C 351.644531 440.210938 351.019531 439.460938 350.019531 439.460938 C 348.144531 439.460938 347.394531 442.367188 347.394531 442.523438 C 347.394531 442.742188 347.582031 442.742188 347.613281 442.742188 C 347.832031 442.742188 347.832031 442.679688 347.925781 442.367188 C 348.519531 440.367188 349.363281 439.898438 349.957031 439.898438 C 350.113281 439.898438 350.457031 439.898438 350.457031 440.523438 C 350.457031 441.023438 350.238281 441.585938 350.113281 441.929688 C 349.238281 444.242188 348.988281 445.148438 348.988281 446.023438 C 348.988281 448.179688 350.738281 448.492188 351.644531 448.492188 C 354.988281 448.492188 356.144531 441.898438 356.144531 440.867188 Z M 356.144531 440.867188 "/>
<path fill-rule="nonzero" fill="rgb(0%, 0%, 0%)" fill-opacity="1" d="M 363.492188 448.730469 L 363.023438 448.730469 C 362.992188 449.042969 362.835938 449.855469 362.648438 449.980469 C 362.554688 450.074219 361.492188 450.074219 361.273438 450.074219 L 358.710938 450.074219 C 360.179688 448.792969 360.679688 448.386719 361.492188 447.730469 C 362.523438 446.917969 363.492188 446.042969 363.492188 444.730469 C 363.492188 443.042969 362.023438 442.011719 360.242188 442.011719 C 358.523438 442.011719 357.335938 443.230469 357.335938 444.511719 C 357.335938 445.199219 357.929688 445.292969 358.085938 445.292969 C 358.398438 445.292969 358.804688 445.042969 358.804688 444.542969 C 358.804688 444.292969 358.710938 443.792969 357.992188 443.792969 C 358.429688 442.824219 359.367188 442.511719 360.023438 442.511719 C 361.429688 442.511719 362.148438 443.605469 362.148438 444.730469 C 362.148438 445.949219 361.273438 446.886719 360.835938 447.386719 L 357.492188 450.730469 C 357.335938 450.855469 357.335938 450.886719 357.335938 451.261719 L 363.085938 451.261719 Z M 363.492188 448.730469 "/>
<path fill-rule="nonzero" fill="rgb(0%, 0%, 0%)" fill-opacity="1" d="M 368.207031 446.605469 C 369.300781 446.605469 370.082031 447.355469 370.082031 448.855469 C 370.082031 450.574219 369.050781 451.105469 368.269531 451.105469 C 367.707031 451.105469 366.457031 450.949219 365.894531 450.105469 C 366.550781 450.105469 366.707031 449.636719 366.707031 449.324219 C 366.707031 448.886719 366.363281 448.574219 365.925781 448.574219 C 365.550781 448.574219 365.144531 448.824219 365.144531 449.386719 C 365.144531 450.699219 366.582031 451.542969 368.269531 451.542969 C 370.207031 451.542969 371.550781 450.230469 371.550781 448.855469 C 371.550781 447.761719 370.675781 446.667969 369.144531 446.355469 C 370.582031 445.824219 371.113281 444.792969 371.113281 443.917969 C 371.113281 442.824219 369.863281 442.011719 368.300781 442.011719 C 366.769531 442.011719 365.582031 442.761719 365.582031 443.886719 C 365.582031 444.355469 365.894531 444.605469 366.300781 444.605469 C 366.738281 444.605469 367.019531 444.292969 367.019531 443.917969 C 367.019531 443.511719 366.738281 443.199219 366.300781 443.167969 C 366.800781 442.574219 367.738281 442.417969 368.269531 442.417969 C 368.894531 442.417969 369.769531 442.730469 369.769531 443.917969 C 369.769531 444.511719 369.582031 445.167969 369.207031 445.574219 C 368.769531 446.105469 368.363281 446.136719 367.675781 446.199219 C 367.332031 446.230469 367.300781 446.230469 367.238281 446.230469 C 367.207031 446.230469 367.082031 446.261719 367.082031 446.417969 C 367.082031 446.605469 367.207031 446.605469 367.457031 446.605469 Z M 368.207031 446.605469 "/>
<path fill-rule="nonzero" fill="rgb(50.196078%, 50.196078%, 50.196078%)" fill-opacity="1" d="M 385.273438 321.90625 C 385.273438 320.34375 384.015625 319.085938 382.460938 319.085938 C 380.90625 319.085938 379.640625 320.34375 379.640625 321.90625 C 379.640625 323.460938 380.90625 324.71875 382.460938 324.71875 C 384.015625 324.71875 385.273438 323.460938 385.273438 321.90625 Z M 385.273438 321.90625 "/>
<path fill-rule="nonzero" fill="rgb(0%, 0%, 0%)" fill-opacity="1" d="M 356.144531 302.390625 C 356.144531 301.296875 355.613281 300.984375 355.269531 300.984375 C 354.769531 300.984375 354.269531 301.515625 354.269531 301.953125 C 354.269531 302.203125 354.363281 302.328125 354.582031 302.546875 C 355.019531 302.953125 355.269531 303.453125 355.269531 304.171875 C 355.269531 305.015625 354.050781 309.578125 351.738281 309.578125 C 350.707031 309.578125 350.238281 308.890625 350.238281 307.828125 C 350.238281 306.734375 350.800781 305.265625 351.394531 303.609375 C 351.550781 303.265625 351.644531 302.984375 351.644531 302.609375 C 351.644531 301.734375 351.019531 300.984375 350.019531 300.984375 C 348.144531 300.984375 347.394531 303.890625 347.394531 304.046875 C 347.394531 304.265625 347.582031 304.265625 347.613281 304.265625 C 347.832031 304.265625 347.832031 304.203125 347.925781 303.890625 C 348.519531 301.890625 349.363281 301.421875 349.957031 301.421875 C 350.113281 301.421875 350.457031 301.421875 350.457031 302.046875 C 350.457031 302.546875 350.238281 303.109375 350.113281 303.453125 C 349.238281 305.765625 348.988281 306.671875 348.988281 307.546875 C 348.988281 309.703125 350.738281 310.015625 351.644531 310.015625 C 354.988281 310.015625 356.144531 303.421875 356.144531 302.390625 Z M 356.144531 302.390625 "/>
<path fill-rule="nonzero" fill="rgb(0%, 0%, 0%)" fill-opacity="1" d="M 363.492188 310.253906 L 363.023438 310.253906 C 362.992188 310.566406 362.835938 311.378906 362.648438 311.503906 C 362.554688 311.597656 361.492188 311.597656 361.273438 311.597656 L 358.710938 311.597656 C 360.179688 310.316406 360.679688 309.910156 361.492188 309.253906 C 362.523438 308.441406 363.492188 307.566406 363.492188 306.253906 C 363.492188 304.566406 362.023438 303.535156 360.242188 303.535156 C 358.523438 303.535156 357.335938 304.753906 357.335938 306.035156 C 357.335938 306.722656 357.929688 306.816406 358.085938 306.816406 C 358.398438 306.816406 358.804688 306.566406 358.804688 306.066406 C 358.804688 305.816406 358.710938 305.316406 357.992188 305.316406 C 358.429688 304.347656 359.367188 304.035156 360.023438 304.035156 C 361.429688 304.035156 362.148438 305.128906 362.148438 306.253906 C 362.148438 307.472656 361.273438 308.410156 360.835938 308.910156 L 357.492188 312.253906 C 357.335938 312.378906 357.335938 312.410156 357.335938 312.785156 L 363.085938 312.785156 Z M 363.492188 310.253906 "/>
<path fill-rule="nonzero" fill="rgb(0%, 0%, 0%)" fill-opacity="1" d="M 371.769531 310.503906 L 371.769531 310.003906 L 370.207031 310.003906 L 370.207031 303.785156 C 370.207031 303.503906 370.207031 303.378906 369.925781 303.378906 C 369.738281 303.378906 369.675781 303.378906 369.550781 303.597656 L 364.925781 310.003906 L 364.925781 310.503906 L 369.050781 310.503906 L 369.050781 311.628906 C 369.050781 312.128906 369.050781 312.285156 367.894531 312.285156 L 367.519531 312.285156 L 367.519531 312.785156 C 368.238281 312.753906 369.113281 312.722656 369.613281 312.722656 C 370.144531 312.722656 371.019531 312.753906 371.738281 312.785156 L 371.738281 312.285156 L 371.363281 312.285156 C 370.207031 312.285156 370.207031 312.128906 370.207031 311.628906 L 370.207031 310.503906 Z M 369.144531 304.910156 L 369.144531 310.003906 L 365.457031 310.003906 Z M 369.144531 304.910156 "/>
<path fill-rule="nonzero" fill="rgb(50.196078%, 50.196078%, 50.196078%)" fill-opacity="1" d="M 323.867188 27.320312 C 323.867188 25.765625 322.609375 24.507812 321.054688 24.507812 C 319.492188 24.507812 318.234375 25.765625 318.234375 27.320312 C 318.234375 28.882812 319.492188 30.140625 321.054688 30.140625 C 322.609375 30.140625 323.867188 28.882812 323.867188 27.320312 Z M 323.867188 27.320312 "/>
<path fill-rule="nonzero" fill="rgb(0%, 0%, 0%)" fill-opacity="1" d="M 339.511719 7.8125 C 339.511719 6.71875 338.980469 6.40625 338.636719 6.40625 C 338.136719 6.40625 337.636719 6.9375 337.636719 7.375 C 337.636719 7.625 337.730469 7.75 337.949219 7.96875 C 338.386719 8.375 338.636719 8.875 338.636719 9.59375 C 338.636719 10.4375 337.417969 15 335.105469 15 C 334.074219 15 333.605469 14.3125 333.605469 13.25 C 333.605469 12.15625 334.167969 10.6875 334.761719 9.03125 C 334.917969 8.6875 335.011719 8.40625 335.011719 8.03125 C 335.011719 7.15625 334.386719 6.40625 333.386719 6.40625 C 331.511719 6.40625 330.761719 9.3125 330.761719 9.46875 C 330.761719 9.6875 330.949219 9.6875 330.980469 9.6875 C 331.199219 9.6875 331.199219 9.625 331.292969 9.3125 C 331.886719 7.3125 332.730469 6.84375 333.324219 6.84375 C 333.480469 6.84375 333.824219 6.84375 333.824219 7.46875 C 333.824219 7.96875 333.605469 8.53125 333.480469 8.875 C 332.605469 11.1875 332.355469 12.09375 332.355469 12.96875 C 332.355469 15.125 334.105469 15.4375 335.011719 15.4375 C 338.355469 15.4375 339.511719 8.84375 339.511719 7.8125 Z M 339.511719 7.8125 "/>
<path fill-rule="nonzero" fill="rgb(0%, 0%, 0%)" fill-opacity="1" d="M 343.636719 13.550781 C 344.730469 13.550781 345.511719 14.300781 345.511719 15.800781 C 345.511719 17.519531 344.480469 18.050781 343.699219 18.050781 C 343.136719 18.050781 341.886719 17.894531 341.324219 17.050781 C 341.980469 17.050781 342.136719 16.582031 342.136719 16.269531 C 342.136719 15.832031 341.792969 15.519531 341.355469 15.519531 C 340.980469 15.519531 340.574219 15.769531 340.574219 16.332031 C 340.574219 17.644531 342.011719 18.488281 343.699219 18.488281 C 345.636719 18.488281 346.980469 17.175781 346.980469 15.800781 C 346.980469 14.707031 346.105469 13.613281 344.574219 13.300781 C 346.011719 12.769531 346.542969 11.738281 346.542969 10.863281 C 346.542969 9.769531 345.292969 8.957031 343.730469 8.957031 C 342.199219 8.957031 341.011719 9.707031 341.011719 10.832031 C 341.011719 11.300781 341.324219 11.550781 341.730469 11.550781 C 342.167969 11.550781 342.449219 11.238281 342.449219 10.863281 C 342.449219 10.457031 342.167969 10.144531 341.730469 10.113281 C 342.230469 9.519531 343.167969 9.363281 343.699219 9.363281 C 344.324219 9.363281 345.199219 9.675781 345.199219 10.863281 C 345.199219 11.457031 345.011719 12.113281 344.636719 12.519531 C 344.199219 13.050781 343.792969 13.082031 343.105469 13.144531 C 342.761719 13.175781 342.730469 13.175781 342.667969 13.175781 C 342.636719 13.175781 342.511719 13.207031 342.511719 13.363281 C 342.511719 13.550781 342.636719 13.550781 342.886719 13.550781 Z M 343.636719 13.550781 "/>
<path fill-rule="nonzero" fill="rgb(0%, 0%, 0%)" fill-opacity="1" d="M 352.417969 9.332031 C 352.417969 8.957031 352.417969 8.957031 352.011719 8.957031 C 351.105469 9.832031 349.855469 9.832031 349.292969 9.832031 L 349.292969 10.332031 C 349.605469 10.332031 350.542969 10.332031 351.292969 9.957031 L 351.292969 17.050781 C 351.292969 17.519531 351.292969 17.707031 349.917969 17.707031 L 349.386719 17.707031 L 349.386719 18.207031 C 349.636719 18.207031 351.355469 18.144531 351.855469 18.144531 C 352.292969 18.144531 354.042969 18.207031 354.355469 18.207031 L 354.355469 17.707031 L 353.824219 17.707031 C 352.417969 17.707031 352.417969 17.519531 352.417969 17.050781 Z M 352.417969 9.332031 "/>
<path fill-rule="nonzero" fill="rgb(50.196078%, 50.196078%, 50.196078%)" fill-opacity="1" d="M 323.867188 136 C 323.867188 134.445312 322.609375 133.179688 321.054688 133.179688 C 319.492188 133.179688 318.234375 134.445312 318.234375 136 C 318.234375 137.554688 319.492188 138.8125 321.054688 138.8125 C 322.609375 138.8125 323.867188 137.554688 323.867188 136 Z M 323.867188 136 "/>
<path fill-rule="nonzero" fill="rgb(0%, 0%, 0%)" fill-opacity="1" d="M 339.511719 146.289062 C 339.511719 145.195312 338.980469 144.882812 338.636719 144.882812 C 338.136719 144.882812 337.636719 145.414062 337.636719 145.851562 C 337.636719 146.101562 337.730469 146.226562 337.949219 146.445312 C 338.386719 146.851562 338.636719 147.351562 338.636719 148.070312 C 338.636719 148.914062 337.417969 153.476562 335.105469 153.476562 C 334.074219 153.476562 333.605469 152.789062 333.605469 151.726562 C 333.605469 150.632812 334.167969 149.164062 334.761719 147.507812 C 334.917969 147.164062 335.011719 146.882812 335.011719 146.507812 C 335.011719 145.632812 334.386719 144.882812 333.386719 144.882812 C 331.511719 144.882812 330.761719 147.789062 330.761719 147.945312 C 330.761719 148.164062 330.949219 148.164062 330.980469 148.164062 C 331.199219 148.164062 331.199219 148.101562 331.292969 147.789062 C 331.886719 145.789062 332.730469 145.320312 333.324219 145.320312 C 333.480469 145.320312 333.824219 145.320312 333.824219 145.945312 C 333.824219 146.445312 333.605469 147.007812 333.480469 147.351562 C 332.605469 149.664062 332.355469 150.570312 332.355469 151.445312 C 332.355469 153.601562 334.105469 153.914062 335.011719 153.914062 C 338.355469 153.914062 339.511719 147.320312 339.511719 146.289062 Z M 339.511719 146.289062 "/>
<path fill-rule="nonzero" fill="rgb(0%, 0%, 0%)" fill-opacity="1" d="M 343.636719 152.027344 C 344.730469 152.027344 345.511719 152.777344 345.511719 154.277344 C 345.511719 155.996094 344.480469 156.527344 343.699219 156.527344 C 343.136719 156.527344 341.886719 156.371094 341.324219 155.527344 C 341.980469 155.527344 342.136719 155.058594 342.136719 154.746094 C 342.136719 154.308594 341.792969 153.996094 341.355469 153.996094 C 340.980469 153.996094 340.574219 154.246094 340.574219 154.808594 C 340.574219 156.121094 342.011719 156.964844 343.699219 156.964844 C 345.636719 156.964844 346.980469 155.652344 346.980469 154.277344 C 346.980469 153.183594 346.105469 152.089844 344.574219 151.777344 C 346.011719 151.246094 346.542969 150.214844 346.542969 149.339844 C 346.542969 148.246094 345.292969 147.433594 343.730469 147.433594 C 342.199219 147.433594 341.011719 148.183594 341.011719 149.308594 C 341.011719 149.777344 341.324219 150.027344 341.730469 150.027344 C 342.167969 150.027344 342.449219 149.714844 342.449219 149.339844 C 342.449219 148.933594 342.167969 148.621094 341.730469 148.589844 C 342.230469 147.996094 343.167969 147.839844 343.699219 147.839844 C 344.324219 147.839844 345.199219 148.152344 345.199219 149.339844 C 345.199219 149.933594 345.011719 150.589844 344.636719 150.996094 C 344.199219 151.527344 343.792969 151.558594 343.105469 151.621094 C 342.761719 151.652344 342.730469 151.652344 342.667969 151.652344 C 342.636719 151.652344 342.511719 151.683594 342.511719 151.839844 C 342.511719 152.027344 342.636719 152.027344 342.886719 152.027344 Z M 343.636719 152.027344 "/>
<path fill-rule="nonzero" fill="rgb(0%, 0%, 0%)" fill-opacity="1" d="M 354.792969 154.152344 L 354.324219 154.152344 C 354.292969 154.464844 354.136719 155.277344 353.949219 155.402344 C 353.855469 155.496094 352.792969 155.496094 352.574219 155.496094 L 350.011719 155.496094 C 351.480469 154.214844 351.980469 153.808594 352.792969 153.152344 C 353.824219 152.339844 354.792969 151.464844 354.792969 150.152344 C 354.792969 148.464844 353.324219 147.433594 351.542969 147.433594 C 349.824219 147.433594 348.636719 148.652344 348.636719 149.933594 C 348.636719 150.621094 349.230469 150.714844 349.386719 150.714844 C 349.699219 150.714844 350.105469 150.464844 350.105469 149.964844 C 350.105469 149.714844 350.011719 149.214844 349.292969 149.214844 C 349.730469 148.246094 350.667969 147.933594 351.324219 147.933594 C 352.730469 147.933594 353.449219 149.027344 353.449219 150.152344 C 353.449219 151.371094 352.574219 152.308594 352.136719 152.808594 L 348.792969 156.152344 C 348.636719 156.277344 348.636719 156.308594 348.636719 156.683594 L 354.386719 156.683594 Z M 354.792969 154.152344 "/>
<path fill-rule="nonzero" fill="rgb(50.196078%, 50.196078%, 50.196078%)" fill-opacity="1" d="M 215.195312 136 C 215.195312 134.445312 213.9375 133.179688 212.375 133.179688 C 210.820312 133.179688 209.5625 134.445312 209.5625 136 C 209.5625 137.554688 210.820312 138.8125 212.375 138.8125 C 213.9375 138.8125 215.195312 137.554688 215.195312 136 Z M 215.195312 136 "/>
<path fill-rule="nonzero" fill="rgb(0%, 0%, 0%)" fill-opacity="1" d="M 186.066406 146.289062 C 186.066406 145.195312 185.535156 144.882812 185.191406 144.882812 C 184.691406 144.882812 184.191406 145.414062 184.191406 145.851562 C 184.191406 146.101562 184.285156 146.226562 184.503906 146.445312 C 184.941406 146.851562 185.191406 147.351562 185.191406 148.070312 C 185.191406 148.914062 183.972656 153.476562 181.660156 153.476562 C 180.628906 153.476562 180.160156 152.789062 180.160156 151.726562 C 180.160156 150.632812 180.722656 149.164062 181.316406 147.507812 C 181.472656 147.164062 181.566406 146.882812 181.566406 146.507812 C 181.566406 145.632812 180.941406 144.882812 179.941406 144.882812 C 178.066406 144.882812 177.316406 147.789062 177.316406 147.945312 C 177.316406 148.164062 177.503906 148.164062 177.535156 148.164062 C 177.753906 148.164062 177.753906 148.101562 177.847656 147.789062 C 178.441406 145.789062 179.285156 145.320312 179.878906 145.320312 C 180.035156 145.320312 180.378906 145.320312 180.378906 145.945312 C 180.378906 146.445312 180.160156 147.007812 180.035156 147.351562 C 179.160156 149.664062 178.910156 150.570312 178.910156 151.445312 C 178.910156 153.601562 180.660156 153.914062 181.566406 153.914062 C 184.910156 153.914062 186.066406 147.320312 186.066406 146.289062 Z M 186.066406 146.289062 "/>
<path fill-rule="nonzero" fill="rgb(0%, 0%, 0%)" fill-opacity="1" d="M 190.191406 152.027344 C 191.285156 152.027344 192.066406 152.777344 192.066406 154.277344 C 192.066406 155.996094 191.035156 156.527344 190.253906 156.527344 C 189.691406 156.527344 188.441406 156.371094 187.878906 155.527344 C 188.535156 155.527344 188.691406 155.058594 188.691406 154.746094 C 188.691406 154.308594 188.347656 153.996094 187.910156 153.996094 C 187.535156 153.996094 187.128906 154.246094 187.128906 154.808594 C 187.128906 156.121094 188.566406 156.964844 190.253906 156.964844 C 192.191406 156.964844 193.535156 155.652344 193.535156 154.277344 C 193.535156 153.183594 192.660156 152.089844 191.128906 151.777344 C 192.566406 151.246094 193.097656 150.214844 193.097656 149.339844 C 193.097656 148.246094 191.847656 147.433594 190.285156 147.433594 C 188.753906 147.433594 187.566406 148.183594 187.566406 149.308594 C 187.566406 149.777344 187.878906 150.027344 188.285156 150.027344 C 188.722656 150.027344 189.003906 149.714844 189.003906 149.339844 C 189.003906 148.933594 188.722656 148.621094 188.285156 148.589844 C 188.785156 147.996094 189.722656 147.839844 190.253906 147.839844 C 190.878906 147.839844 191.753906 148.152344 191.753906 149.339844 C 191.753906 149.933594 191.566406 150.589844 191.191406 150.996094 C 190.753906 151.527344 190.347656 151.558594 189.660156 151.621094 C 189.316406 151.652344 189.285156 151.652344 189.222656 151.652344 C 189.191406 151.652344 189.066406 151.683594 189.066406 151.839844 C 189.066406 152.027344 189.191406 152.027344 189.441406 152.027344 Z M 190.191406 152.027344 "/>
<path fill-rule="nonzero" fill="rgb(0%, 0%, 0%)" fill-opacity="1" d="M 198.128906 152.027344 C 199.222656 152.027344 200.003906 152.777344 200.003906 154.277344 C 200.003906 155.996094 198.972656 156.527344 198.191406 156.527344 C 197.628906 156.527344 196.378906 156.371094 195.816406 155.527344 C 196.472656 155.527344 196.628906 155.058594 196.628906 154.746094 C 196.628906 154.308594 196.285156 153.996094 195.847656 153.996094 C 195.472656 153.996094 195.066406 154.246094 195.066406 154.808594 C 195.066406 156.121094 196.503906 156.964844 198.191406 156.964844 C 200.128906 156.964844 201.472656 155.652344 201.472656 154.277344 C 201.472656 153.183594 200.597656 152.089844 199.066406 151.777344 C 200.503906 151.246094 201.035156 150.214844 201.035156 149.339844 C 201.035156 148.246094 199.785156 147.433594 198.222656 147.433594 C 196.691406 147.433594 195.503906 148.183594 195.503906 149.308594 C 195.503906 149.777344 195.816406 150.027344 196.222656 150.027344 C 196.660156 150.027344 196.941406 149.714844 196.941406 149.339844 C 196.941406 148.933594 196.660156 148.621094 196.222656 148.589844 C 196.722656 147.996094 197.660156 147.839844 198.191406 147.839844 C 198.816406 147.839844 199.691406 148.152344 199.691406 149.339844 C 199.691406 149.933594 199.503906 150.589844 199.128906 150.996094 C 198.691406 151.527344 198.285156 151.558594 197.597656 151.621094 C 197.253906 151.652344 197.222656 151.652344 197.160156 151.652344 C 197.128906 151.652344 197.003906 151.683594 197.003906 151.839844 C 197.003906 152.027344 197.128906 152.027344 197.378906 152.027344 Z M 198.128906 152.027344 "/>
<path fill-rule="nonzero" fill="rgb(50.196078%, 50.196078%, 50.196078%)" fill-opacity="1" d="M 215.195312 27.320312 C 215.195312 25.765625 213.9375 24.507812 212.375 24.507812 C 210.820312 24.507812 209.5625 25.765625 209.5625 27.320312 C 209.5625 28.882812 210.820312 30.140625 212.375 30.140625 C 213.9375 30.140625 215.195312 28.882812 215.195312 27.320312 Z M 215.195312 27.320312 "/>
<path fill-rule="nonzero" fill="rgb(0%, 0%, 0%)" fill-opacity="1" d="M 186.066406 7.8125 C 186.066406 6.71875 185.535156 6.40625 185.191406 6.40625 C 184.691406 6.40625 184.191406 6.9375 184.191406 7.375 C 184.191406 7.625 184.285156 7.75 184.503906 7.96875 C 184.941406 8.375 185.191406 8.875 185.191406 9.59375 C 185.191406 10.4375 183.972656 15 181.660156 15 C 180.628906 15 180.160156 14.3125 180.160156 13.25 C 180.160156 12.15625 180.722656 10.6875 181.316406 9.03125 C 181.472656 8.6875 181.566406 8.40625 181.566406 8.03125 C 181.566406 7.15625 180.941406 6.40625 179.941406 6.40625 C 178.066406 6.40625 177.316406 9.3125 177.316406 9.46875 C 177.316406 9.6875 177.503906 9.6875 177.535156 9.6875 C 177.753906 9.6875 177.753906 9.625 177.847656 9.3125 C 178.441406 7.3125 179.285156 6.84375 179.878906 6.84375 C 180.035156 6.84375 180.378906 6.84375 180.378906 7.46875 C 180.378906 7.96875 180.160156 8.53125 180.035156 8.875 C 179.160156 11.1875 178.910156 12.09375 178.910156 12.96875 C 178.910156 15.125 180.660156 15.4375 181.566406 15.4375 C 184.910156 15.4375 186.066406 8.84375 186.066406 7.8125 Z M 186.066406 7.8125 "/>
<path fill-rule="nonzero" fill="rgb(0%, 0%, 0%)" fill-opacity="1" d="M 190.191406 13.550781 C 191.285156 13.550781 192.066406 14.300781 192.066406 15.800781 C 192.066406 17.519531 191.035156 18.050781 190.253906 18.050781 C 189.691406 18.050781 188.441406 17.894531 187.878906 17.050781 C 188.535156 17.050781 188.691406 16.582031 188.691406 16.269531 C 188.691406 15.832031 188.347656 15.519531 187.910156 15.519531 C 187.535156 15.519531 187.128906 15.769531 187.128906 16.332031 C 187.128906 17.644531 188.566406 18.488281 190.253906 18.488281 C 192.191406 18.488281 193.535156 17.175781 193.535156 15.800781 C 193.535156 14.707031 192.660156 13.613281 191.128906 13.300781 C 192.566406 12.769531 193.097656 11.738281 193.097656 10.863281 C 193.097656 9.769531 191.847656 8.957031 190.285156 8.957031 C 188.753906 8.957031 187.566406 9.707031 187.566406 10.832031 C 187.566406 11.300781 187.878906 11.550781 188.285156 11.550781 C 188.722656 11.550781 189.003906 11.238281 189.003906 10.863281 C 189.003906 10.457031 188.722656 10.144531 188.285156 10.113281 C 188.785156 9.519531 189.722656 9.363281 190.253906 9.363281 C 190.878906 9.363281 191.753906 9.675781 191.753906 10.863281 C 191.753906 11.457031 191.566406 12.113281 191.191406 12.519531 C 190.753906 13.050781 190.347656 13.082031 189.660156 13.144531 C 189.316406 13.175781 189.285156 13.175781 189.222656 13.175781 C 189.191406 13.175781 189.066406 13.207031 189.066406 13.363281 C 189.066406 13.550781 189.191406 13.550781 189.441406 13.550781 Z M 190.191406 13.550781 "/>
<path fill-rule="nonzero" fill="rgb(0%, 0%, 0%)" fill-opacity="1" d="M 201.691406 15.925781 L 201.691406 15.425781 L 200.128906 15.425781 L 200.128906 9.207031 C 200.128906 8.925781 200.128906 8.800781 199.847656 8.800781 C 199.660156 8.800781 199.597656 8.800781 199.472656 9.019531 L 194.847656 15.425781 L 194.847656 15.925781 L 198.972656 15.925781 L 198.972656 17.050781 C 198.972656 17.550781 198.972656 17.707031 197.816406 17.707031 L 197.441406 17.707031 L 197.441406 18.207031 C 198.160156 18.175781 199.035156 18.144531 199.535156 18.144531 C 200.066406 18.144531 200.941406 18.175781 201.660156 18.207031 L 201.660156 17.707031 L 201.285156 17.707031 C 200.128906 17.707031 200.128906 17.550781 200.128906 17.050781 L 200.128906 15.925781 Z M 199.066406 10.332031 L 199.066406 15.425781 L 195.378906 15.425781 Z M 199.066406 10.332031 "/>
<path fill="none" stroke-width="0.3985" stroke-linecap="butt" stroke-linejoin="miter" stroke="rgb(0%, 0%, 0%)" stroke-opacity="1" stroke-dasharray="2.98883 2.98883" stroke-miterlimit="10" d="M 27.167374 25.69812 L 27.167374 -25.700317 " transform="matrix(2, 0, 0, -2, 96.634003, 376.23999)"/>
<path fill="none" stroke-width="0.3985" stroke-linecap="butt" stroke-linejoin="miter" stroke="rgb(0%, 0%, 0%)" stroke-opacity="1" stroke-dasharray="2.98883 2.98883" stroke-miterlimit="10" d="M 25.698624 -27.169067 L -25.699814 -27.169067 " transform="matrix(2, 0, 0, -2, 96.634003, 376.23999)"/>
<path fill="none" stroke-width="0.3985" stroke-linecap="butt" stroke-linejoin="miter" stroke="rgb(0%, 0%, 0%)" stroke-opacity="1" stroke-dasharray="2.98883 2.98883" stroke-miterlimit="10" d="M -27.168564 -25.700317 L -27.168564 25.69812 " transform="matrix(2, 0, 0, -2, 96.634003, 376.23999)"/>
<path fill="none" stroke-width="0.3985" stroke-linecap="butt" stroke-linejoin="miter" stroke="rgb(0%, 0%, 0%)" stroke-opacity="1" stroke-dasharray="2.98883 2.98883" stroke-miterlimit="10" d="M -25.699814 27.16687 L 25.698624 27.16687 " transform="matrix(2, 0, 0, -2, 96.634003, 376.23999)"/>
<path fill="none" stroke-width="0.3985" stroke-linecap="butt" stroke-linejoin="miter" stroke="rgb(0%, 0%, 0%)" stroke-opacity="1" stroke-dasharray="2.98883 2.98883" stroke-miterlimit="10" d="M 197.249405 25.69812 L 197.249405 -25.700317 " transform="matrix(2, 0, 0, -2, 96.634003, 376.23999)"/>
<path fill="none" stroke-width="0.3985" stroke-linecap="butt" stroke-linejoin="miter" stroke="rgb(0%, 0%, 0%)" stroke-opacity="1" stroke-dasharray="2.98883 2.98883" stroke-miterlimit="10" d="M 195.780655 -27.169067 L 144.382217 -27.169067 " transform="matrix(2, 0, 0, -2, 96.634003, 376.23999)"/>
<path fill="none" stroke-width="0.3985" stroke-linecap="butt" stroke-linejoin="miter" stroke="rgb(0%, 0%, 0%)" stroke-opacity="1" stroke-dasharray="2.98883 2.98883" stroke-miterlimit="10" d="M 142.913467 -25.700317 L 142.913467 25.69812 " transform="matrix(2, 0, 0, -2, 96.634003, 376.23999)"/>
<path fill="none" stroke-width="0.3985" stroke-linecap="butt" stroke-linejoin="miter" stroke="rgb(0%, 0%, 0%)" stroke-opacity="1" stroke-dasharray="2.98883 2.98883" stroke-miterlimit="10" d="M 144.382217 27.16687 L 195.780655 27.16687 " transform="matrix(2, 0, 0, -2, 96.634003, 376.23999)"/>
<path fill="none" stroke-width="0.3985" stroke-linecap="butt" stroke-linejoin="miter" stroke="rgb(0%, 0%, 0%)" stroke-opacity="1" stroke-dasharray="2.98883 2.98883" stroke-miterlimit="10" d="M 112.210342 172.991089 L 112.210342 121.588745 " transform="matrix(2, 0, 0, -2, 96.634003, 376.23999)"/>
<path fill="none" stroke-width="0.3985" stroke-linecap="butt" stroke-linejoin="miter" stroke="rgb(0%, 0%, 0%)" stroke-opacity="1" stroke-dasharray="2.98883 2.98883" stroke-miterlimit="10" d="M 110.741592 120.119995 L 59.339249 120.119995 " transform="matrix(2, 0, 0, -2, 96.634003, 376.23999)"/>
<path fill="none" stroke-width="0.3985" stroke-linecap="butt" stroke-linejoin="miter" stroke="rgb(0%, 0%, 0%)" stroke-opacity="1" stroke-dasharray="2.98883 2.98883" stroke-miterlimit="10" d="M 57.870499 121.588745 L 57.870499 172.991089 " transform="matrix(2, 0, 0, -2, 96.634003, 376.23999)"/>
<path fill="none" stroke-width="0.3985" stroke-linecap="butt" stroke-linejoin="miter" stroke="rgb(0%, 0%, 0%)" stroke-opacity="1" stroke-dasharray="2.98883 2.98883" stroke-miterlimit="10" d="M 59.339249 174.459839 L 110.741592 174.459839 " transform="matrix(2, 0, 0, -2, 96.634003, 376.23999)"/>
<path fill="none" stroke-width="1.59404" stroke-linecap="butt" stroke-linejoin="miter" stroke="rgb(0%, 0%, 0%)" stroke-opacity="1" stroke-miterlimit="10" d="M 2.07753 2.077026 L 21.257217 21.256714 " transform="matrix(2, 0, 0, -2, 96.634003, 376.23999)"/>
<path fill-rule="nonzero" fill="rgb(0%, 0%, 0%)" fill-opacity="1" stroke-width="1.59404" stroke-linecap="butt" stroke-linejoin="miter" stroke="rgb(0%, 0%, 0%)" stroke-opacity="1" stroke-miterlimit="10" d="M 8.910617 -0.00035606 L 2.574217 2.402725 L 4.687271 0.0024061 L 2.574217 -2.403437 Z M 8.910617 -0.00035606 " transform="matrix(1.4142, -1.4142, -1.4142, -1.4142, 133.085602, 339.788391)"/>
<path fill="none" stroke-width="0.79701" stroke-linecap="butt" stroke-linejoin="miter" stroke="rgb(0%, 0%, 0%)" stroke-opacity="1" stroke-miterlimit="10" d="M 172.159561 2.077026 L 192.991592 22.909058 " transform="matrix(2, 0, 0, -2, 96.634003, 376.23999)"/>
<path fill-rule="nonzero" fill="rgb(0%, 0%, 0%)" fill-opacity="1" stroke-width="0.79701" stroke-linecap="butt" stroke-linejoin="miter" stroke="rgb(0%, 0%, 0%)" stroke-opacity="1" stroke-miterlimit="10" d="M 6.098553 -0.00114371 L 1.286866 1.816359 L 2.877871 -0.00114371 L 1.286866 -1.818647 Z M 6.098553 -0.00114371 " transform="matrix(1.4142, -1.4142, -1.4142, -1.4142, 478.826935, 334.208893)"/>
<path fill="none" stroke-width="0.79701" stroke-linecap="butt" stroke-linejoin="miter" stroke="rgb(0%, 0%, 0%)" stroke-opacity="1" stroke-dasharray="2.98883 2.98883" stroke-miterlimit="10" d="M 82.964249 149.366089 L 62.132217 170.19812 " transform="matrix(2, 0, 0, -2, 96.634003, 376.23999)"/>
<path fill-rule="nonzero" fill="rgb(0%, 0%, 0%)" fill-opacity="1" stroke-width="0.79701" stroke-linecap="butt" stroke-linejoin="miter" stroke="rgb(0%, 0%, 0%)" stroke-opacity="1" stroke-miterlimit="10" d="M 6.096442 -0.000198261 L 1.284755 1.817305 L 2.87576 -0.000198261 L 1.284755 -1.817701 Z M 6.096442 -0.000198261 " transform="matrix(-1.4142, -1.4142, -1.4142, 1.4142, 224.683807, 39.629681)"/>
<path fill="none" stroke-width="0.79701" stroke-linecap="butt" stroke-linejoin="miter" stroke="rgb(0%, 0%, 0%)" stroke-opacity="1" stroke-dasharray="0.79701 1.99255" stroke-miterlimit="10" d="M -2.07872 2.077026 L -22.910751 22.909058 " transform="matrix(2, 0, 0, -2, 96.634003, 376.23999)"/>
<path fill-rule="nonzero" fill="rgb(0%, 0%, 0%)" fill-opacity="1" stroke-width="0.79701" stroke-linecap="butt" stroke-linejoin="miter" stroke="rgb(0%, 0%, 0%)" stroke-opacity="1" stroke-miterlimit="10" d="M 6.098605 0.00119631 L 1.286918 1.818699 L 2.877924 0.00119631 L 1.286918 -1.816307 Z M 6.098605 0.00119631 " transform="matrix(-1.4142, -1.4142, -1.4142, 1.4142, 54.602901, 334.208893)"/>
<path fill="none" stroke-width="1.59404" stroke-linecap="butt" stroke-linejoin="miter" stroke="rgb(0%, 0%, 0%)" stroke-opacity="1" stroke-miterlimit="10" d="M 168.003311 2.077026 L 148.823624 21.256714 " transform="matrix(2, 0, 0, -2, 96.634003, 376.23999)"/>
<path fill-rule="nonzero" fill="rgb(0%, 0%, 0%)" fill-opacity="1" stroke-width="1.59404" stroke-linecap="butt" stroke-linejoin="miter" stroke="rgb(0%, 0%, 0%)" stroke-opacity="1" stroke-miterlimit="10" d="M 8.910661 0.000399219 L 2.57426 2.403481 L 4.687314 -0.00236294 L 2.57426 -2.402682 Z M 8.910661 0.000399219 " transform="matrix(-1.4142, -1.4142, -1.4142, 1.4142, 400.344208, 339.788391)"/>
<path fill="none" stroke-width="0.79701" stroke-linecap="butt" stroke-linejoin="miter" stroke="rgb(0%, 0%, 0%)" stroke-opacity="1" stroke-miterlimit="10" d="M 82.964249 145.213745 L 62.132217 124.381714 " transform="matrix(2, 0, 0, -2, 96.634003, 376.23999)"/>
<path fill-rule="nonzero" fill="rgb(0%, 0%, 0%)" fill-opacity="1" stroke-width="0.79701" stroke-linecap="butt" stroke-linejoin="miter" stroke="rgb(0%, 0%, 0%)" stroke-opacity="1" stroke-miterlimit="10" d="M 6.095993 -0.00025086 L 1.284306 1.817252 L 2.878073 0.0025113 L 1.287068 -1.814992 Z M 6.095993 -0.00025086 " transform="matrix(-1.4142, 1.4142, 1.4142, 1.4142, 224.683807, 123.691902)"/>
<path fill="none" stroke-width="0.79701" stroke-linecap="butt" stroke-linejoin="miter" stroke="rgb(0%, 0%, 0%)" stroke-opacity="1" stroke-dasharray="2.98883 2.98883" stroke-miterlimit="10" d="M -2.07872 -2.075317 L -22.910751 -22.911255 " transform="matrix(2, 0, 0, -2, 96.634003, 376.23999)"/>
<path fill-rule="nonzero" fill="rgb(0%, 0%, 0%)" fill-opacity="1" stroke-width="0.79701" stroke-linecap="butt" stroke-linejoin="miter" stroke="rgb(0%, 0%, 0%)" stroke-opacity="1" stroke-miterlimit="10" d="M 6.100159 0.000357409 L 1.288472 1.81786 L 2.879477 0.000357409 L 1.288472 -1.817145 Z M 6.100159 0.000357409 " transform="matrix(-1.4142, 1.4142, 1.4142, 1.4142, 54.602901, 418.271088)"/>
<path fill="none" stroke-width="0.79701" stroke-linecap="butt" stroke-linejoin="miter" stroke="rgb(92.54902%, 0%, 54.901961%)" stroke-opacity="1" stroke-miterlimit="10" d="M 195.780655 27.16687 L 148.936905 27.16687 " transform="matrix(2, 0, 0, -2, 96.634003, 376.23999)"/>
<path fill-rule="nonzero" fill="rgb(92.54902%, 0%, 54.901961%)" fill-opacity="1" stroke-width="0.79701" stroke-linecap="butt" stroke-linejoin="miter" stroke="rgb(92.54902%, 0%, 54.901961%)" stroke-opacity="1" stroke-miterlimit="10" d="M 6.098999 0.00167847 L 1.286499 1.818085 L 2.876343 0.00167847 L 1.286499 -1.818634 Z M 6.098999 0.00167847 " transform="matrix(-2, 0, 0, 2, 399.862061, 321.902893)"/>
<path fill="none" stroke-width="0.79701" stroke-linecap="butt" stroke-linejoin="miter" stroke="rgb(92.54902%, 0%, 54.901961%)" stroke-opacity="1" stroke-miterlimit="10" d="M 57.870499 172.991089 L 57.870499 126.143433 " transform="matrix(2, 0, 0, -2, 96.634003, 376.23999)"/>
<path fill-rule="nonzero" fill="rgb(92.54902%, 0%, 54.901961%)" fill-opacity="1" stroke-width="0.79701" stroke-linecap="butt" stroke-linejoin="miter" stroke="rgb(92.54902%, 0%, 54.901961%)" stroke-opacity="1" stroke-miterlimit="10" d="M 6.097252 -0.00138855 L 1.288658 1.818924 L 2.878502 -0.00138855 L 1.288658 -1.817795 Z M 6.097252 -0.00138855 " transform="matrix(0, 2, 2, 0, 212.377777, 118.594559)"/>
<path fill="none" stroke-width="0.79701" stroke-linecap="butt" stroke-linejoin="miter" stroke="rgb(92.54902%, 0%, 54.901961%)" stroke-opacity="1" stroke-miterlimit="10" d="M -27.168564 25.69812 L -27.168564 -21.14563 " transform="matrix(2, 0, 0, -2, 96.634003, 376.23999)"/>
<path fill-rule="nonzero" fill="rgb(92.54902%, 0%, 54.901961%)" fill-opacity="1" stroke-width="0.79701" stroke-linecap="butt" stroke-linejoin="miter" stroke="rgb(92.54902%, 0%, 54.901961%)" stroke-opacity="1" stroke-miterlimit="10" d="M 6.096725 -0.00000190735 L 1.288132 1.816404 L 2.877975 -0.00000190735 L 1.288132 -1.816408 Z M 6.096725 -0.00000190735 " transform="matrix(0, 2, 2, 0, 42.296879, 413.173737)"/>
<path fill="none" stroke-width="0.79701" stroke-linecap="butt" stroke-linejoin="miter" stroke="rgb(0%, 50.196078%, 50.196078%)" stroke-opacity="1" stroke-miterlimit="10" d="M 59.339249 120.119995 L 106.186905 120.119995 " transform="matrix(2, 0, 0, -2, 96.634003, 376.23999)"/>
<path fill-rule="nonzero" fill="rgb(0%, 50.196078%, 50.196078%)" fill-opacity="1" stroke-width="0.79701" stroke-linecap="butt" stroke-linejoin="miter" stroke="rgb(0%, 50.196078%, 50.196078%)" stroke-opacity="1" stroke-miterlimit="10" d="M 6.097549 -0.00102997 L 1.285049 1.815376 L 2.878799 -0.00102997 L 1.285049 -1.817436 Z M 6.097549 -0.00102997 " transform="matrix(2, 0, 0, -2, 303.648651, 135.99794)"/>
<path fill="none" stroke-width="0.79701" stroke-linecap="butt" stroke-linejoin="miter" stroke="rgb(0%, 50.196078%, 50.196078%)" stroke-opacity="1" stroke-miterlimit="10" d="M -25.699814 -27.169067 L 21.143936 -27.169067 " transform="matrix(2, 0, 0, -2, 96.634003, 376.23999)"/>
<path fill-rule="nonzero" fill="rgb(0%, 50.196078%, 50.196078%)" fill-opacity="1" stroke-width="0.79701" stroke-linecap="butt" stroke-linejoin="miter" stroke="rgb(0%, 50.196078%, 50.196078%)" stroke-opacity="1" stroke-miterlimit="10" d="M 6.098946 -0.00050354 L 1.286446 1.815903 L 2.876289 -0.00050354 L 1.286446 -1.81691 Z M 6.098946 -0.00050354 " transform="matrix(2, 0, 0, -2, 133.567734, 430.577118)"/>
<path fill="none" stroke-width="0.79701" stroke-linecap="butt" stroke-linejoin="miter" stroke="rgb(0%, 0%, 100%)" stroke-opacity="1" stroke-miterlimit="10" d="M 27.167374 -25.700317 L 27.167374 21.147339 " transform="matrix(2, 0, 0, -2, 96.634003, 376.23999)"/>
<path fill-rule="nonzero" fill="rgb(0%, 0%, 100%)" fill-opacity="1" stroke-width="0.79701" stroke-linecap="butt" stroke-linejoin="miter" stroke="rgb(0%, 0%, 100%)" stroke-opacity="1" stroke-miterlimit="10" d="M 6.09845 0.00118256 L 1.28595 1.817589 L 2.8797 0.00118256 L 1.28595 -1.81913 Z M 6.09845 0.00118256 " transform="matrix(0, -2, -2, 0, 150.971115, 339.306274)"/>
<path fill="none" stroke-width="1.59404" stroke-linecap="butt" stroke-linejoin="miter" stroke="rgb(0%, 0%, 0%)" stroke-opacity="1" stroke-miterlimit="10" d="M 87.116592 145.213745 L 106.300186 126.030151 " transform="matrix(2, 0, 0, -2, 96.634003, 376.23999)"/>
<path fill-rule="nonzero" fill="rgb(0%, 0%, 0%)" fill-opacity="1" stroke-width="1.59404" stroke-linecap="butt" stroke-linejoin="miter" stroke="rgb(0%, 0%, 0%)" stroke-opacity="1" stroke-miterlimit="10" d="M 8.908805 0.000205004 L 2.575166 2.400524 L 4.68822 0.000205004 L 2.575166 -2.400114 Z M 8.908805 0.000205004 " transform="matrix(1.4142, 1.4142, 1.4142, -1.4142, 303.166504, 118.112396)"/>
<path fill="none" stroke-width="0.79701" stroke-linecap="butt" stroke-linejoin="miter" stroke="rgb(0%, 0%, 0%)" stroke-opacity="1" stroke-miterlimit="10" d="M 2.07753 -2.075317 L 22.909561 -22.911255 " transform="matrix(2, 0, 0, -2, 96.634003, 376.23999)"/>
<path fill-rule="nonzero" fill="rgb(0%, 0%, 0%)" fill-opacity="1" stroke-width="0.79701" stroke-linecap="butt" stroke-linejoin="miter" stroke="rgb(0%, 0%, 0%)" stroke-opacity="1" stroke-miterlimit="10" d="M 6.099319 -0.00119766 L 1.287632 1.816305 L 2.878637 -0.00119766 L 1.287632 -1.818701 Z M 6.099319 -0.00119766 " transform="matrix(1.4142, 1.4142, 1.4142, -1.4142, 138.6651, 418.271088)"/>
</svg>
