<?xml version="1.0" encoding="UTF-8"?>
<svg xmlns="http://www.w3.org/2000/svg" xmlns:xlink="http://www.w3.org/1999/xlink" width="300.82666" height="157.599996" viewBox="0 0 300.82666 157.599996">
<path fill-rule="nonzero" fill="rgb(0%, 0%, 0%)" fill-opacity="1" d="M 95.03125 20.433594 C 95.242188 19.683594 95.324219 19.519531 95.65625 19.433594 C 95.90625 19.394531 96.78125 19.394531 97.324219 19.394531 C 100.03125 19.394531 101.199219 19.476562 101.199219 21.558594 C 101.199219 21.976562 101.117188 23.019531 100.992188 23.683594 C 100.992188 23.808594 100.90625 24.101562 100.90625 24.183594 C 100.90625 24.351562 100.992188 24.558594 101.242188 24.558594 C 101.53125 24.558594 101.574219 24.351562 101.65625 23.933594 L 102.367188 19.308594 C 102.40625 19.183594 102.40625 18.933594 102.40625 18.851562 C 102.40625 18.558594 102.15625 18.558594 101.699219 18.558594 L 86.949219 18.558594 C 86.324219 18.558594 86.28125 18.601562 86.074219 19.101562 L 84.492188 23.769531 C 84.492188 23.808594 84.324219 24.183594 84.324219 24.269531 C 84.324219 24.394531 84.492188 24.558594 84.65625 24.558594 C 84.90625 24.558594 84.949219 24.394531 85.117188 23.976562 C 86.53125 19.851562 87.242188 19.394531 91.15625 19.394531 L 92.199219 19.394531 C 92.949219 19.394531 92.949219 19.476562 92.949219 19.726562 C 92.949219 19.851562 92.867188 20.183594 92.824219 20.269531 L 89.28125 34.476562 C 89.03125 35.433594 88.949219 35.726562 86.117188 35.726562 C 85.15625 35.726562 84.992188 35.726562 84.992188 36.226562 C 84.992188 36.558594 85.28125 36.558594 85.449219 36.558594 C 86.15625 36.558594 86.90625 36.519531 87.617188 36.519531 C 88.367188 36.519531 89.15625 36.476562 89.90625 36.476562 C 90.65625 36.476562 91.367188 36.519531 92.117188 36.519531 C 92.867188 36.519531 93.65625 36.558594 94.40625 36.558594 C 94.65625 36.558594 94.992188 36.558594 94.992188 36.019531 C 94.992188 35.726562 94.78125 35.726562 94.074219 35.726562 C 93.449219 35.726562 93.074219 35.726562 92.40625 35.683594 C 91.617188 35.601562 91.40625 35.519531 91.40625 35.101562 C 91.40625 35.058594 91.40625 34.933594 91.53125 34.558594 Z M 95.03125 20.433594 "/>
<path fill-rule="nonzero" fill="rgb(0%, 0%, 0%)" fill-opacity="1" d="M 105.265625 28.917969 C 105.265625 28.628906 105.015625 28.210938 104.515625 28.210938 C 104.015625 28.210938 103.472656 28.710938 103.472656 29.253906 C 103.472656 29.542969 103.683594 29.960938 104.222656 29.960938 C 104.722656 29.960938 105.265625 29.417969 105.265625 28.917969 Z M 101.472656 38.378906 C 101.390625 38.628906 101.308594 38.835938 101.308594 39.167969 C 101.308594 40.042969 102.015625 40.710938 103.058594 40.710938 C 104.890625 40.710938 105.722656 38.167969 105.722656 37.878906 C 105.722656 37.628906 105.472656 37.628906 105.433594 37.628906 C 105.183594 37.628906 105.140625 37.753906 105.058594 37.960938 C 104.640625 39.460938 103.847656 40.210938 103.097656 40.210938 C 102.722656 40.210938 102.640625 39.960938 102.640625 39.542969 C 102.640625 39.128906 102.765625 38.792969 102.933594 38.378906 C 103.140625 37.878906 103.347656 37.378906 103.515625 36.878906 C 103.683594 36.417969 104.390625 34.753906 104.433594 34.503906 C 104.515625 34.335938 104.558594 34.128906 104.558594 33.917969 C 104.558594 33.042969 103.808594 32.335938 102.808594 32.335938 C 100.933594 32.335938 100.097656 34.878906 100.097656 35.210938 C 100.097656 35.417969 100.347656 35.417969 100.433594 35.417969 C 100.683594 35.417969 100.683594 35.335938 100.765625 35.128906 C 101.222656 33.542969 102.058594 32.878906 102.722656 32.878906 C 103.015625 32.878906 103.183594 33.003906 103.183594 33.503906 C 103.183594 33.960938 103.097656 34.210938 102.640625 35.378906 Z M 101.472656 38.378906 "/>
<path fill-rule="nonzero" fill="rgb(0%, 0%, 0%)" fill-opacity="1" d="M 210.257812 20.433594 C 210.464844 19.683594 210.546875 19.519531 210.882812 19.433594 C 211.132812 19.394531 212.007812 19.394531 212.546875 19.394531 C 215.257812 19.394531 216.421875 19.476562 216.421875 21.558594 C 216.421875 21.976562 216.339844 23.019531 216.214844 23.683594 C 216.214844 23.808594 216.132812 24.101562 216.132812 24.183594 C 216.132812 24.351562 216.214844 24.558594 216.464844 24.558594 C 216.757812 24.558594 216.796875 24.351562 216.882812 23.933594 L 217.589844 19.308594 C 217.632812 19.183594 217.632812 18.933594 217.632812 18.851562 C 217.632812 18.558594 217.382812 18.558594 216.921875 18.558594 L 202.171875 18.558594 C 201.546875 18.558594 201.507812 18.601562 201.296875 19.101562 L 199.714844 23.769531 C 199.714844 23.808594 199.546875 24.183594 199.546875 24.269531 C 199.546875 24.394531 199.714844 24.558594 199.882812 24.558594 C 200.132812 24.558594 200.171875 24.394531 200.339844 23.976562 C 201.757812 19.851562 202.464844 19.394531 206.382812 19.394531 L 207.421875 19.394531 C 208.171875 19.394531 208.171875 19.476562 208.171875 19.726562 C 208.171875 19.851562 208.089844 20.183594 208.046875 20.269531 L 204.507812 34.476562 C 204.257812 35.433594 204.171875 35.726562 201.339844 35.726562 C 200.382812 35.726562 200.214844 35.726562 200.214844 36.226562 C 200.214844 36.558594 200.507812 36.558594 200.671875 36.558594 C 201.382812 36.558594 202.132812 36.519531 202.839844 36.519531 C 203.589844 36.519531 204.382812 36.476562 205.132812 36.476562 C 205.882812 36.476562 206.589844 36.519531 207.339844 36.519531 C 208.089844 36.519531 208.882812 36.558594 209.632812 36.558594 C 209.882812 36.558594 210.214844 36.558594 210.214844 36.019531 C 210.214844 35.726562 210.007812 35.726562 209.296875 35.726562 C 208.671875 35.726562 208.296875 35.726562 207.632812 35.683594 C 206.839844 35.601562 206.632812 35.519531 206.632812 35.101562 C 206.632812 35.058594 206.632812 34.933594 206.757812 34.558594 Z M 210.257812 20.433594 "/>
<path fill-rule="nonzero" fill="rgb(0%, 0%, 0%)" fill-opacity="1" d="M 222.613281 28.917969 C 222.613281 28.628906 222.363281 28.210938 221.863281 28.210938 C 221.324219 28.210938 220.824219 28.753906 220.824219 29.253906 C 220.824219 29.542969 221.03125 29.960938 221.574219 29.960938 C 222.074219 29.960938 222.613281 29.460938 222.613281 28.917969 Z M 218.65625 41.460938 C 218.363281 42.753906 217.363281 43.792969 216.28125 43.792969 C 216.03125 43.792969 215.824219 43.792969 215.613281 43.710938 C 216.074219 43.460938 216.238281 43.042969 216.238281 42.753906 C 216.238281 42.292969 215.863281 42.085938 215.488281 42.085938 C 214.949219 42.085938 214.449219 42.585938 214.449219 43.167969 C 214.449219 43.878906 215.15625 44.335938 216.28125 44.335938 C 217.40625 44.335938 219.574219 43.667969 220.15625 41.417969 L 221.824219 34.753906 C 221.863281 34.542969 221.90625 34.378906 221.90625 34.085938 C 221.90625 33.085938 221.03125 32.335938 219.949219 32.335938 C 217.863281 32.335938 216.699219 34.917969 216.699219 35.210938 C 216.699219 35.417969 216.949219 35.417969 216.988281 35.417969 C 217.199219 35.417969 217.238281 35.378906 217.363281 35.085938 C 217.824219 34.003906 218.78125 32.878906 219.863281 32.878906 C 220.324219 32.878906 220.488281 33.167969 220.488281 33.792969 C 220.488281 34.003906 220.488281 34.253906 220.449219 34.335938 Z M 218.65625 41.460938 "/>
<path fill-rule="nonzero" fill="rgb(0%, 0%, 0%)" fill-opacity="1" d="M 98.179688 114.613281 C 98.179688 114.53125 98.097656 114.320312 97.847656 114.320312 C 97.722656 114.320312 97.722656 114.363281 97.386719 114.738281 L 96.097656 116.238281 C 95.429688 114.988281 94.054688 114.320312 92.304688 114.320312 C 88.929688 114.320312 85.761719 117.40625 85.761719 120.613281 C 85.761719 122.738281 87.136719 123.988281 88.511719 124.363281 L 91.347656 125.113281 C 92.347656 125.363281 93.804688 125.78125 93.804688 127.945312 C 93.804688 130.320312 91.636719 132.820312 89.011719 132.820312 C 87.304688 132.820312 84.347656 132.238281 84.347656 128.945312 C 84.347656 128.320312 84.511719 127.65625 84.511719 127.53125 C 84.554688 127.40625 84.554688 127.363281 84.554688 127.320312 C 84.554688 127.070312 84.386719 127.03125 84.261719 127.03125 C 84.136719 127.03125 84.054688 127.070312 83.972656 127.15625 C 83.886719 127.238281 82.386719 133.320312 82.386719 133.40625 C 82.386719 133.53125 82.511719 133.65625 82.679688 133.65625 C 82.804688 133.65625 82.847656 133.613281 83.179688 133.238281 L 84.472656 131.738281 C 85.597656 133.28125 87.429688 133.65625 88.972656 133.65625 C 92.597656 133.65625 95.722656 130.113281 95.722656 126.820312 C 95.722656 124.988281 94.804688 124.070312 94.429688 123.695312 C 93.804688 123.113281 93.386719 122.988281 91.054688 122.40625 C 90.429688 122.238281 89.511719 121.945312 89.261719 121.90625 C 88.554688 121.65625 87.636719 120.90625 87.636719 119.488281 C 87.636719 117.320312 89.761719 115.070312 92.304688 115.070312 C 94.472656 115.070312 96.097656 116.238281 96.097656 119.195312 C 96.097656 120.03125 96.011719 120.53125 96.011719 120.695312 C 96.011719 120.695312 96.011719 120.945312 96.304688 120.945312 C 96.597656 120.945312 96.636719 120.863281 96.722656 120.40625 Z M 98.179688 114.613281 "/>
<path fill-rule="nonzero" fill="rgb(0%, 0%, 0%)" fill-opacity="1" d="M 105.042969 111.597656 C 105.042969 111.097656 105.042969 111.097656 104.5 111.097656 C 103.292969 112.265625 101.625 112.265625 100.875 112.265625 L 100.875 112.933594 C 101.292969 112.933594 102.542969 112.933594 103.542969 112.433594 L 103.542969 121.890625 C 103.542969 122.515625 103.542969 122.765625 101.710938 122.765625 L 101 122.765625 L 101 123.433594 C 101.335938 123.433594 103.625 123.347656 104.292969 123.347656 C 104.875 123.347656 107.210938 123.433594 107.625 123.433594 L 107.625 122.765625 L 106.917969 122.765625 C 105.042969 122.765625 105.042969 122.515625 105.042969 121.890625 Z M 105.042969 111.597656 "/>
<path fill-rule="nonzero" fill="rgb(0%, 0%, 0%)" fill-opacity="1" d="M 214.578125 114.613281 C 214.578125 114.53125 214.496094 114.320312 214.246094 114.320312 C 214.121094 114.320312 214.121094 114.363281 213.789062 114.738281 L 212.496094 116.238281 C 211.828125 114.988281 210.453125 114.320312 208.703125 114.320312 C 205.328125 114.320312 202.164062 117.40625 202.164062 120.613281 C 202.164062 122.738281 203.539062 123.988281 204.914062 124.363281 L 207.746094 125.113281 C 208.746094 125.363281 210.203125 125.78125 210.203125 127.945312 C 210.203125 130.320312 208.039062 132.820312 205.414062 132.820312 C 203.703125 132.820312 200.746094 132.238281 200.746094 128.945312 C 200.746094 128.320312 200.914062 127.65625 200.914062 127.53125 C 200.953125 127.40625 200.953125 127.363281 200.953125 127.320312 C 200.953125 127.070312 200.789062 127.03125 200.664062 127.03125 C 200.539062 127.03125 200.453125 127.070312 200.371094 127.15625 C 200.289062 127.238281 198.789062 133.320312 198.789062 133.40625 C 198.789062 133.53125 198.914062 133.65625 199.078125 133.65625 C 199.203125 133.65625 199.246094 133.613281 199.578125 133.238281 L 200.871094 131.738281 C 201.996094 133.28125 203.828125 133.65625 205.371094 133.65625 C 208.996094 133.65625 212.121094 130.113281 212.121094 126.820312 C 212.121094 124.988281 211.203125 124.070312 210.828125 123.695312 C 210.203125 123.113281 209.789062 122.988281 207.453125 122.40625 C 206.828125 122.238281 205.914062 121.945312 205.664062 121.90625 C 204.953125 121.65625 204.039062 120.90625 204.039062 119.488281 C 204.039062 117.320312 206.164062 115.070312 208.703125 115.070312 C 210.871094 115.070312 212.496094 116.238281 212.496094 119.195312 C 212.496094 120.03125 212.414062 120.53125 212.414062 120.695312 C 212.414062 120.695312 212.414062 120.945312 212.703125 120.945312 C 212.996094 120.945312 213.039062 120.863281 213.121094 120.40625 Z M 214.578125 114.613281 "/>
<path fill-rule="nonzero" fill="rgb(0%, 0%, 0%)" fill-opacity="1" d="M 221.445312 111.597656 C 221.445312 111.097656 221.445312 111.097656 220.902344 111.097656 C 219.695312 112.265625 218.027344 112.265625 217.277344 112.265625 L 217.277344 112.933594 C 217.695312 112.933594 218.945312 112.933594 219.945312 112.433594 L 219.945312 121.890625 C 219.945312 122.515625 219.945312 122.765625 218.113281 122.765625 L 217.402344 122.765625 L 217.402344 123.433594 C 217.738281 123.433594 220.027344 123.347656 220.695312 123.347656 C 221.277344 123.347656 223.613281 123.433594 224.027344 123.433594 L 224.027344 122.765625 L 223.320312 122.765625 C 221.445312 122.765625 221.445312 122.515625 221.445312 121.890625 Z M 221.445312 111.597656 "/>
<path fill="none" stroke-width="0.39848" stroke-linecap="butt" stroke-linejoin="miter" stroke="rgb(0%, 0%, 0%)" stroke-opacity="1" stroke-miterlimit="10" d="M -12.761955 17.182762 L 11.922127 17.182762 " transform="matrix(2.666667, 0, 0, -2.666667, 154.082662, 75.738668)"/>
<path fill="none" stroke-width="0.39848" stroke-linecap="round" stroke-linejoin="round" stroke="rgb(0%, 0%, 0%)" stroke-opacity="1" stroke-miterlimit="10" d="M -2.071709 2.390186 C -1.693779 0.957569 -0.850029 0.277882 -0.00188446 -0.00043869 C -0.850029 -0.277294 -1.693779 -0.956982 -2.071709 -2.391064 " transform="matrix(2.666667, 0, 0, -2.666667, 186.411275, 29.916799)"/>
<path fill-rule="nonzero" fill="rgb(0%, 0%, 0%)" fill-opacity="1" d="M 147.757812 7.171875 C 147.882812 6.628906 147.921875 6.589844 148.339844 6.546875 C 148.421875 6.546875 149.046875 6.546875 149.421875 6.546875 C 150.589844 6.546875 151.046875 6.546875 151.507812 6.671875 C 152.339844 6.921875 152.382812 7.464844 152.382812 8.128906 C 152.382812 8.421875 152.382812 8.671875 152.257812 9.628906 L 152.214844 9.839844 C 152.214844 10.046875 152.339844 10.128906 152.546875 10.128906 C 152.839844 10.128906 152.839844 9.964844 152.882812 9.671875 L 153.382812 6.128906 C 153.382812 5.878906 153.171875 5.878906 152.839844 5.878906 L 141.421875 5.878906 C 140.964844 5.878906 140.921875 5.878906 140.796875 6.253906 L 139.589844 9.546875 C 139.589844 9.628906 139.507812 9.796875 139.507812 9.878906 C 139.507812 9.964844 139.546875 10.128906 139.839844 10.128906 C 140.089844 10.128906 140.089844 10.046875 140.214844 9.671875 C 141.296875 6.714844 141.921875 6.546875 144.757812 6.546875 L 145.507812 6.546875 C 146.089844 6.546875 146.089844 6.546875 146.089844 6.714844 C 146.089844 6.714844 146.089844 6.839844 146.007812 7.089844 L 143.546875 16.878906 C 143.382812 17.546875 143.339844 17.753906 141.382812 17.753906 C 140.714844 17.753906 140.546875 17.753906 140.546875 18.171875 C 140.546875 18.214844 140.589844 18.421875 140.882812 18.421875 C 141.382812 18.421875 141.964844 18.378906 142.464844 18.378906 C 143.007812 18.378906 143.546875 18.339844 144.046875 18.339844 C 144.589844 18.339844 145.214844 18.339844 145.757812 18.378906 C 146.257812 18.378906 146.796875 18.421875 147.296875 18.421875 C 147.464844 18.421875 147.714844 18.421875 147.714844 18.003906 C 147.714844 17.753906 147.546875 17.753906 146.964844 17.753906 C 146.632812 17.753906 146.257812 17.714844 145.882812 17.714844 C 145.257812 17.671875 145.214844 17.589844 145.214844 17.378906 C 145.214844 17.214844 145.214844 17.214844 145.296875 16.921875 Z M 147.757812 7.171875 "/>
<path fill-rule="nonzero" fill="rgb(0%, 0%, 0%)" fill-opacity="1" d="M 158.054688 12.789062 C 158.054688 12.496094 157.804688 12.203125 157.472656 12.203125 C 157.054688 12.203125 156.640625 12.621094 156.640625 12.996094 C 156.640625 13.328125 156.890625 13.578125 157.222656 13.578125 C 157.679688 13.578125 158.054688 13.164062 158.054688 12.789062 Z M 155.140625 21.664062 C 154.890625 22.703125 154.054688 23.371094 153.265625 23.371094 C 153.015625 23.371094 152.890625 23.328125 152.765625 23.289062 C 153.097656 23.078125 153.179688 22.746094 153.179688 22.578125 C 153.179688 22.371094 153.015625 22.039062 152.597656 22.039062 C 152.140625 22.039062 151.765625 22.453125 151.765625 22.871094 C 151.765625 23.453125 152.347656 23.789062 153.265625 23.789062 C 154.179688 23.789062 155.890625 23.328125 156.304688 21.703125 L 157.515625 16.914062 C 157.515625 16.789062 157.554688 16.664062 157.554688 16.496094 C 157.554688 15.746094 156.847656 15.203125 155.929688 15.203125 C 154.304688 15.203125 153.347656 16.996094 153.347656 17.246094 C 153.347656 17.453125 153.554688 17.453125 153.597656 17.453125 C 153.804688 17.453125 153.847656 17.414062 153.890625 17.246094 C 154.515625 15.953125 155.429688 15.664062 155.890625 15.664062 C 156.390625 15.664062 156.429688 16.121094 156.429688 16.371094 C 156.429688 16.539062 156.429688 16.578125 156.390625 16.703125 Z M 155.140625 21.664062 "/>
<path fill-rule="nonzero" fill="rgb(0%, 0%, 0%)" fill-opacity="1" d="M 165.09375 12.789062 C 165.09375 12.453125 164.886719 12.203125 164.511719 12.203125 C 164.136719 12.203125 163.71875 12.578125 163.71875 12.996094 C 163.71875 13.371094 164.011719 13.578125 164.304688 13.578125 C 164.71875 13.578125 165.09375 13.203125 165.09375 12.789062 Z M 165.71875 19.164062 C 165.71875 18.996094 165.511719 18.996094 165.46875 18.996094 C 165.21875 18.996094 165.21875 19.039062 165.136719 19.289062 C 164.929688 19.996094 164.304688 20.789062 163.636719 20.789062 C 163.34375 20.789062 163.261719 20.578125 163.261719 20.289062 C 163.261719 19.996094 163.304688 19.828125 163.429688 19.578125 C 163.511719 19.328125 163.636719 19.078125 163.71875 18.871094 C 163.761719 18.746094 164.261719 17.539062 164.46875 17.039062 C 164.554688 16.789062 164.636719 16.578125 164.636719 16.371094 C 164.636719 15.746094 164.011719 15.203125 163.179688 15.203125 C 161.804688 15.203125 161.054688 16.914062 161.054688 17.246094 C 161.054688 17.453125 161.261719 17.453125 161.34375 17.453125 C 161.554688 17.453125 161.554688 17.371094 161.636719 17.203125 C 161.929688 16.246094 162.554688 15.664062 163.136719 15.664062 C 163.386719 15.664062 163.554688 15.789062 163.554688 16.164062 C 163.554688 16.203125 163.554688 16.371094 163.46875 16.621094 C 163.386719 16.871094 162.761719 18.289062 162.59375 18.746094 C 162.46875 18.996094 162.46875 18.996094 162.304688 19.453125 C 162.21875 19.664062 162.136719 19.828125 162.136719 20.039062 C 162.136719 20.746094 162.804688 21.246094 163.59375 21.246094 C 164.96875 21.246094 165.71875 19.496094 165.71875 19.164062 Z M 165.71875 19.164062 "/>
<path fill="none" stroke-width="0.39848" stroke-linecap="butt" stroke-linejoin="miter" stroke="rgb(0%, 0%, 0%)" stroke-opacity="1" stroke-miterlimit="10" d="M -21.823479 9.347313 L -21.823479 -9.144875 " transform="matrix(2.666667, 0, 0, -2.666667, 154.082662, 75.738668)"/>
<path fill="none" stroke-width="0.39848" stroke-linecap="round" stroke-linejoin="round" stroke="rgb(0%, 0%, 0%)" stroke-opacity="1" stroke-miterlimit="10" d="M -2.072426 2.392746 C -1.693031 0.954269 -0.849281 0.278976 0.00179291 0.00212097 C -0.849281 -0.279129 -1.693031 -0.955887 -2.072426 -2.388504 " transform="matrix(0, 2.666667, 2.666667, 0, 95.881063, 100.651469)"/>
<path fill-rule="nonzero" fill="rgb(0%, 0%, 0%)" fill-opacity="1" d="M 30 66.730469 C 26.5 69.1875 25.539062 73.144531 25.539062 75.980469 C 25.539062 78.605469 26.332031 82.6875 30 85.269531 C 30.164062 85.269531 30.375 85.269531 30.375 85.0625 C 30.375 84.9375 30.332031 84.894531 30.207031 84.769531 C 27.707031 82.519531 26.832031 79.394531 26.832031 76.019531 C 26.832031 70.980469 28.75 68.519531 30.25 67.144531 C 30.332031 67.0625 30.375 67.019531 30.375 66.9375 C 30.375 66.730469 30.164062 66.730469 30 66.730469 Z M 30 66.730469 "/>
<path fill-rule="nonzero" fill="rgb(0%, 0%, 0%)" fill-opacity="1" d="M 37.554688 77.269531 L 37.554688 76.019531 L 32.09375 76.019531 L 32.09375 77.269531 Z M 37.554688 77.269531 "/>
<path fill-rule="nonzero" fill="rgb(0%, 0%, 0%)" fill-opacity="1" d="M 40.546875 66.730469 C 40.421875 66.730469 40.214844 66.730469 40.214844 66.9375 C 40.214844 67.019531 40.253906 67.0625 40.378906 67.230469 C 41.964844 68.6875 43.753906 71.1875 43.753906 75.980469 C 43.753906 79.855469 42.546875 82.8125 40.546875 84.605469 C 40.214844 84.9375 40.214844 84.9375 40.214844 85.0625 C 40.214844 85.144531 40.253906 85.269531 40.421875 85.269531 C 40.671875 85.269531 42.421875 84.0625 43.671875 81.730469 C 44.464844 80.1875 45.003906 78.1875 45.003906 76.019531 C 45.003906 73.394531 44.214844 69.3125 40.546875 66.730469 Z M 40.546875 66.730469 "/>
<path fill-rule="nonzero" fill="rgb(0%, 0%, 0%)" fill-opacity="1" d="M 61.015625 76.4375 C 61.304688 76.4375 61.765625 76.4375 61.765625 76.019531 C 61.765625 75.519531 61.304688 75.519531 61.015625 75.519531 L 49.929688 75.519531 C 49.640625 75.519531 49.179688 75.519531 49.179688 75.980469 C 49.179688 76.4375 49.597656 76.4375 49.929688 76.4375 Z M 61.015625 76.4375 "/>
<path fill-rule="nonzero" fill="rgb(0%, 0%, 0%)" fill-opacity="1" d="M 74.121094 73.5625 L 75.871094 71.769531 C 78.246094 69.4375 78.996094 68.730469 80.660156 68.605469 C 80.910156 68.605469 81.121094 68.605469 81.121094 68.230469 C 81.121094 68.019531 80.910156 67.9375 80.871094 67.9375 C 80.328125 67.9375 79.660156 68.019531 79.121094 68.019531 C 78.621094 68.019531 77.453125 67.9375 76.953125 67.9375 C 76.828125 67.9375 76.578125 68.019531 76.578125 68.355469 C 76.578125 68.394531 76.578125 68.605469 76.871094 68.605469 C 77.035156 68.644531 77.496094 68.6875 77.496094 69.105469 C 77.496094 69.355469 77.203125 69.644531 77.035156 69.855469 C 76.871094 69.980469 74.535156 72.269531 73.828125 72.980469 L 71.953125 69.355469 C 71.910156 69.269531 71.871094 69.144531 71.871094 69.105469 C 71.871094 68.9375 72.203125 68.644531 72.871094 68.605469 C 72.996094 68.605469 73.246094 68.605469 73.246094 68.230469 C 73.246094 68.1875 73.246094 67.9375 72.910156 67.9375 C 72.535156 67.9375 72.078125 68.019531 71.703125 68.019531 C 71.285156 68.019531 70.871094 68.019531 70.496094 68.019531 C 70.160156 68.019531 69.703125 68.019531 69.371094 68.019531 C 69.078125 67.980469 68.660156 67.9375 68.371094 67.9375 C 68.285156 67.9375 67.996094 67.9375 67.996094 68.355469 C 67.996094 68.605469 68.246094 68.605469 68.535156 68.605469 C 69.621094 68.605469 69.703125 68.8125 69.871094 69.1875 L 72.496094 74.3125 L 71.453125 75.355469 C 71.078125 75.6875 70.203125 76.519531 69.871094 76.855469 C 67.621094 79.105469 66.871094 79.894531 65.160156 79.980469 C 64.910156 79.980469 64.703125 79.980469 64.703125 80.394531 C 64.703125 80.480469 64.785156 80.644531 64.996094 80.644531 C 65.496094 80.644531 66.160156 80.5625 66.703125 80.5625 C 67.035156 80.5625 67.496094 80.5625 67.785156 80.605469 C 68.121094 80.605469 68.535156 80.644531 68.871094 80.644531 C 68.953125 80.644531 69.246094 80.644531 69.246094 80.269531 C 69.246094 79.980469 69.035156 79.980469 68.910156 79.980469 C 68.746094 79.9375 68.328125 79.894531 68.328125 79.519531 C 68.328125 79.230469 68.578125 78.980469 68.996094 78.5625 L 72.746094 74.855469 L 74.996094 79.269531 C 75.121094 79.4375 75.121094 79.480469 75.121094 79.519531 C 75.121094 79.605469 74.785156 79.9375 74.121094 79.980469 C 73.953125 79.980469 73.746094 79.980469 73.746094 80.394531 C 73.746094 80.394531 73.746094 80.644531 74.035156 80.644531 C 74.453125 80.644531 74.910156 80.605469 75.285156 80.605469 C 75.660156 80.605469 76.121094 80.5625 76.496094 80.5625 C 76.828125 80.5625 77.246094 80.5625 77.578125 80.605469 C 77.910156 80.605469 78.285156 80.644531 78.578125 80.644531 C 78.703125 80.644531 78.996094 80.644531 78.996094 80.230469 C 78.996094 79.980469 78.746094 79.980469 78.453125 79.980469 C 77.371094 79.980469 77.285156 79.769531 77.121094 79.4375 Z M 74.121094 73.5625 "/>
<path fill-rule="nonzero" fill="rgb(0%, 0%, 0%)" fill-opacity="1" d="M 86.457031 75.011719 C 86.457031 74.679688 86.25 74.429688 85.875 74.429688 C 85.5 74.429688 85.082031 74.804688 85.082031 75.21875 C 85.082031 75.59375 85.375 75.804688 85.667969 75.804688 C 86.082031 75.804688 86.457031 75.429688 86.457031 75.011719 Z M 87.082031 81.386719 C 87.082031 81.21875 86.875 81.21875 86.832031 81.21875 C 86.582031 81.21875 86.582031 81.261719 86.5 81.511719 C 86.292969 82.21875 85.667969 83.011719 85 83.011719 C 84.707031 83.011719 84.625 82.804688 84.625 82.511719 C 84.625 82.21875 84.667969 82.054688 84.792969 81.804688 C 84.875 81.554688 85 81.304688 85.082031 81.09375 C 85.125 80.96875 85.625 79.761719 85.832031 79.261719 C 85.917969 79.011719 86 78.804688 86 78.59375 C 86 77.96875 85.375 77.429688 84.542969 77.429688 C 83.167969 77.429688 82.417969 79.136719 82.417969 79.46875 C 82.417969 79.679688 82.625 79.679688 82.707031 79.679688 C 82.917969 79.679688 82.917969 79.59375 83 79.429688 C 83.292969 78.46875 83.917969 77.886719 84.5 77.886719 C 84.75 77.886719 84.917969 78.011719 84.917969 78.386719 C 84.917969 78.429688 84.917969 78.59375 84.832031 78.84375 C 84.75 79.09375 84.125 80.511719 83.957031 80.96875 C 83.832031 81.21875 83.832031 81.21875 83.667969 81.679688 C 83.582031 81.886719 83.5 82.054688 83.5 82.261719 C 83.5 82.96875 84.167969 83.46875 84.957031 83.46875 C 86.332031 83.46875 87.082031 81.71875 87.082031 81.386719 Z M 87.082031 81.386719 "/>
<path fill="none" stroke-width="0.39848" stroke-linecap="butt" stroke-linejoin="miter" stroke="rgb(0%, 0%, 0%)" stroke-opacity="1" stroke-miterlimit="10" d="M 21.824471 7.992332 L 21.824471 -9.144875 " transform="matrix(2.666667, 0, 0, -2.666667, 154.082662, 75.738668)"/>
<path fill="none" stroke-width="0.39848" stroke-linecap="round" stroke-linejoin="round" stroke="rgb(0%, 0%, 0%)" stroke-opacity="1" stroke-miterlimit="10" d="M -2.072426 2.389496 C -1.693031 0.955414 -0.849281 0.280121 0.00179291 -0.00112915 C -0.849281 -0.277985 -1.693031 -0.957672 -2.072426 -2.391754 " transform="matrix(0, 2.666667, 2.666667, 0, 212.284261, 100.651469)"/>
<path fill-rule="nonzero" fill="rgb(0%, 0%, 0%)" fill-opacity="1" d="M 225.125 68.242188 C 221.625 70.699219 220.667969 74.65625 220.667969 77.492188 C 220.667969 80.117188 221.457031 84.199219 225.125 86.78125 C 225.292969 86.78125 225.5 86.78125 225.5 86.574219 C 225.5 86.449219 225.457031 86.40625 225.332031 86.28125 C 222.832031 84.03125 221.957031 80.90625 221.957031 77.53125 C 221.957031 72.492188 223.875 70.03125 225.375 68.65625 C 225.457031 68.574219 225.5 68.53125 225.5 68.449219 C 225.5 68.242188 225.292969 68.242188 225.125 68.242188 Z M 225.125 68.242188 "/>
<path fill-rule="nonzero" fill="rgb(0%, 0%, 0%)" fill-opacity="1" d="M 232.679688 78.78125 L 232.679688 77.53125 L 227.21875 77.53125 L 227.21875 78.78125 Z M 232.679688 78.78125 "/>
<path fill-rule="nonzero" fill="rgb(0%, 0%, 0%)" fill-opacity="1" d="M 235.671875 68.242188 C 235.546875 68.242188 235.339844 68.242188 235.339844 68.449219 C 235.339844 68.53125 235.378906 68.574219 235.503906 68.742188 C 237.089844 70.199219 238.878906 72.699219 238.878906 77.492188 C 238.878906 81.367188 237.671875 84.324219 235.671875 86.117188 C 235.339844 86.449219 235.339844 86.449219 235.339844 86.574219 C 235.339844 86.65625 235.378906 86.78125 235.546875 86.78125 C 235.796875 86.78125 237.546875 85.574219 238.796875 83.242188 C 239.589844 81.699219 240.128906 79.699219 240.128906 77.53125 C 240.128906 74.90625 239.339844 70.824219 235.671875 68.242188 Z M 235.671875 68.242188 "/>
<path fill-rule="nonzero" fill="rgb(0%, 0%, 0%)" fill-opacity="1" d="M 256.140625 77.949219 C 256.433594 77.949219 256.890625 77.949219 256.890625 77.53125 C 256.890625 77.03125 256.433594 77.03125 256.140625 77.03125 L 245.058594 77.03125 C 244.765625 77.03125 244.308594 77.03125 244.308594 77.492188 C 244.308594 77.949219 244.722656 77.949219 245.058594 77.949219 Z M 256.140625 77.949219 "/>
<path fill-rule="nonzero" fill="rgb(0%, 0%, 0%)" fill-opacity="1" d="M 269.246094 75.074219 L 270.996094 73.28125 C 273.371094 70.949219 274.121094 70.242188 275.785156 70.117188 C 276.035156 70.117188 276.246094 70.117188 276.246094 69.742188 C 276.246094 69.53125 276.035156 69.449219 275.996094 69.449219 C 275.453125 69.449219 274.785156 69.53125 274.246094 69.53125 C 273.746094 69.53125 272.578125 69.449219 272.078125 69.449219 C 271.953125 69.449219 271.703125 69.53125 271.703125 69.867188 C 271.703125 69.90625 271.703125 70.117188 271.996094 70.117188 C 272.160156 70.15625 272.621094 70.199219 272.621094 70.617188 C 272.621094 70.867188 272.328125 71.15625 272.160156 71.367188 C 271.996094 71.492188 269.660156 73.78125 268.953125 74.492188 L 267.078125 70.867188 C 267.035156 70.78125 266.996094 70.65625 266.996094 70.617188 C 266.996094 70.449219 267.328125 70.15625 267.996094 70.117188 C 268.121094 70.117188 268.371094 70.117188 268.371094 69.742188 C 268.371094 69.699219 268.371094 69.449219 268.035156 69.449219 C 267.660156 69.449219 267.203125 69.53125 266.828125 69.53125 C 266.410156 69.53125 265.996094 69.53125 265.621094 69.53125 C 265.285156 69.53125 264.828125 69.53125 264.496094 69.53125 C 264.203125 69.492188 263.785156 69.449219 263.496094 69.449219 C 263.410156 69.449219 263.121094 69.449219 263.121094 69.867188 C 263.121094 70.117188 263.371094 70.117188 263.660156 70.117188 C 264.746094 70.117188 264.828125 70.324219 264.996094 70.699219 L 267.621094 75.824219 L 266.578125 76.867188 C 266.203125 77.199219 265.328125 78.03125 264.996094 78.367188 C 262.746094 80.617188 261.996094 81.40625 260.285156 81.492188 C 260.035156 81.492188 259.828125 81.492188 259.828125 81.90625 C 259.828125 81.992188 259.910156 82.15625 260.121094 82.15625 C 260.621094 82.15625 261.285156 82.074219 261.828125 82.074219 C 262.160156 82.074219 262.621094 82.074219 262.910156 82.117188 C 263.246094 82.117188 263.660156 82.15625 263.996094 82.15625 C 264.078125 82.15625 264.371094 82.15625 264.371094 81.78125 C 264.371094 81.492188 264.160156 81.492188 264.035156 81.492188 C 263.871094 81.449219 263.453125 81.40625 263.453125 81.03125 C 263.453125 80.742188 263.703125 80.492188 264.121094 80.074219 L 267.871094 76.367188 L 270.121094 80.78125 C 270.246094 80.949219 270.246094 80.992188 270.246094 81.03125 C 270.246094 81.117188 269.910156 81.449219 269.246094 81.492188 C 269.078125 81.492188 268.871094 81.492188 268.871094 81.90625 C 268.871094 81.90625 268.871094 82.15625 269.160156 82.15625 C 269.578125 82.15625 270.035156 82.117188 270.410156 82.117188 C 270.785156 82.117188 271.246094 82.074219 271.621094 82.074219 C 271.953125 82.074219 272.371094 82.074219 272.703125 82.117188 C 273.035156 82.117188 273.410156 82.15625 273.703125 82.15625 C 273.828125 82.15625 274.121094 82.15625 274.121094 81.742188 C 274.121094 81.492188 273.871094 81.492188 273.578125 81.492188 C 272.496094 81.492188 272.410156 81.28125 272.246094 80.949219 Z M 269.246094 75.074219 "/>
<path fill-rule="nonzero" fill="rgb(0%, 0%, 0%)" fill-opacity="1" d="M 283.125 76.523438 C 283.125 76.234375 282.875 75.941406 282.542969 75.941406 C 282.125 75.941406 281.707031 76.359375 281.707031 76.734375 C 281.707031 77.066406 281.957031 77.316406 282.292969 77.316406 C 282.75 77.316406 283.125 76.898438 283.125 76.523438 Z M 280.207031 85.398438 C 279.957031 86.441406 279.125 87.109375 278.332031 87.109375 C 278.082031 87.109375 277.957031 87.066406 277.832031 87.023438 C 278.167969 86.816406 278.25 86.484375 278.25 86.316406 C 278.25 86.109375 278.082031 85.773438 277.667969 85.773438 C 277.207031 85.773438 276.832031 86.191406 276.832031 86.609375 C 276.832031 87.191406 277.417969 87.523438 278.332031 87.523438 C 279.25 87.523438 280.957031 87.066406 281.375 85.441406 L 282.582031 80.648438 C 282.582031 80.523438 282.625 80.398438 282.625 80.234375 C 282.625 79.484375 281.917969 78.941406 281 78.941406 C 279.375 78.941406 278.417969 80.734375 278.417969 80.984375 C 278.417969 81.191406 278.625 81.191406 278.667969 81.191406 C 278.875 81.191406 278.917969 81.148438 278.957031 80.984375 C 279.582031 79.691406 280.5 79.398438 280.957031 79.398438 C 281.457031 79.398438 281.5 79.859375 281.5 80.109375 C 281.5 80.273438 281.5 80.316406 281.457031 80.441406 Z M 280.207031 85.398438 "/>
<path fill="none" stroke-width="0.39848" stroke-linecap="butt" stroke-linejoin="miter" stroke="rgb(0%, 0%, 0%)" stroke-opacity="1" stroke-miterlimit="10" d="M -11.757072 -19.007668 L 11.355232 -19.007668 " transform="matrix(2.666667, 0, 0, -2.666667, 154.082662, 75.738668)"/>
<path fill="none" stroke-width="0.39848" stroke-linecap="round" stroke-linejoin="round" stroke="rgb(0%, 0%, 0%)" stroke-opacity="1" stroke-miterlimit="10" d="M -2.072174 2.392647 C -1.69278 0.95417 -0.84903 0.278877 -0.00234985 0.00202179 C -0.84903 -0.279228 -1.69278 -0.955986 -2.072174 -2.388603 " transform="matrix(2.666667, 0, 0, -2.666667, 184.900798, 126.431173)"/>
<path fill-rule="nonzero" fill="rgb(0%, 0%, 0%)" fill-opacity="1" d="M 126.609375 132.71875 C 123.109375 135.175781 122.152344 139.132812 122.152344 141.96875 C 122.152344 144.59375 122.941406 148.675781 126.609375 151.257812 C 126.777344 151.257812 126.984375 151.257812 126.984375 151.050781 C 126.984375 150.925781 126.941406 150.882812 126.816406 150.757812 C 124.316406 148.507812 123.441406 145.382812 123.441406 142.007812 C 123.441406 136.96875 125.359375 134.507812 126.859375 133.132812 C 126.941406 133.050781 126.984375 133.007812 126.984375 132.925781 C 126.984375 132.71875 126.777344 132.71875 126.609375 132.71875 Z M 126.609375 132.71875 "/>
<path fill-rule="nonzero" fill="rgb(0%, 0%, 0%)" fill-opacity="1" d="M 134.164062 143.257812 L 134.164062 142.007812 L 128.707031 142.007812 L 128.707031 143.257812 Z M 134.164062 143.257812 "/>
<path fill-rule="nonzero" fill="rgb(0%, 0%, 0%)" fill-opacity="1" d="M 137.15625 132.71875 C 137.03125 132.71875 136.824219 132.71875 136.824219 132.925781 C 136.824219 133.007812 136.867188 133.050781 136.992188 133.21875 C 138.574219 134.675781 140.367188 137.175781 140.367188 141.96875 C 140.367188 145.84375 139.15625 148.800781 137.15625 150.59375 C 136.824219 150.925781 136.824219 150.925781 136.824219 151.050781 C 136.824219 151.132812 136.867188 151.257812 137.03125 151.257812 C 137.28125 151.257812 139.03125 150.050781 140.28125 147.71875 C 141.074219 146.175781 141.617188 144.175781 141.617188 142.007812 C 141.617188 139.382812 140.824219 135.300781 137.15625 132.71875 Z M 137.15625 132.71875 "/>
<path fill-rule="nonzero" fill="rgb(0%, 0%, 0%)" fill-opacity="1" d="M 152.367188 142.425781 L 158.078125 142.425781 C 158.328125 142.425781 158.742188 142.425781 158.742188 142.007812 C 158.742188 141.507812 158.328125 141.507812 158.078125 141.507812 L 152.367188 141.507812 L 152.367188 135.800781 C 152.367188 135.59375 152.367188 135.132812 151.953125 135.132812 C 151.492188 135.132812 151.492188 135.550781 151.492188 135.800781 L 151.492188 141.507812 L 145.785156 141.507812 C 145.535156 141.507812 145.078125 141.507812 145.078125 141.96875 C 145.078125 142.425781 145.492188 142.425781 145.785156 142.425781 L 151.492188 142.425781 L 151.492188 148.132812 C 151.492188 148.382812 151.492188 148.84375 151.910156 148.84375 C 152.367188 148.84375 152.367188 148.382812 152.367188 148.132812 Z M 152.367188 142.425781 "/>
<path fill-rule="nonzero" fill="rgb(0%, 0%, 0%)" fill-opacity="1" d="M 161.101562 149.632812 C 161.019531 149.882812 161.019531 150.007812 161.019531 150.007812 C 161.019531 150.425781 161.351562 150.59375 161.644531 150.59375 C 162.351562 150.59375 162.476562 150.050781 162.601562 149.46875 C 162.851562 148.507812 163.394531 146.382812 163.558594 145.675781 C 163.726562 145.925781 164.351562 146.800781 165.601562 146.800781 C 168.019531 146.800781 170.519531 144.300781 170.519531 141.59375 C 170.519531 139.59375 169.226562 138.425781 167.558594 138.425781 C 165.769531 138.425781 163.519531 140.050781 162.851562 142.675781 Z M 165.601562 146.300781 C 164.226562 146.300781 163.808594 144.925781 163.808594 144.675781 C 163.808594 144.632812 163.933594 144.21875 163.976562 144.007812 C 164.558594 141.71875 164.644531 141.300781 165.183594 140.46875 C 165.851562 139.507812 166.808594 138.96875 167.519531 138.96875 C 168.308594 138.96875 169.019531 139.507812 169.019531 140.84375 C 169.019531 141.675781 168.519531 143.757812 167.976562 144.675781 C 167.101562 146.007812 166.183594 146.300781 165.601562 146.300781 Z M 165.601562 146.300781 "/>
<path fill-rule="nonzero" fill="rgb(0%, 0%, 0%)" fill-opacity="1" d="M 177.914062 141 C 177.914062 140.710938 177.664062 140.417969 177.332031 140.417969 C 176.914062 140.417969 176.496094 140.835938 176.496094 141.210938 C 176.496094 141.542969 176.746094 141.792969 177.082031 141.792969 C 177.539062 141.792969 177.914062 141.375 177.914062 141 Z M 174.996094 149.875 C 174.746094 150.917969 173.914062 151.585938 173.121094 151.585938 C 172.871094 151.585938 172.746094 151.542969 172.621094 151.5 C 172.957031 151.292969 173.039062 150.960938 173.039062 150.792969 C 173.039062 150.585938 172.871094 150.25 172.457031 150.25 C 171.996094 150.25 171.621094 150.667969 171.621094 151.085938 C 171.621094 151.667969 172.207031 152 173.121094 152 C 174.039062 152 175.746094 151.542969 176.164062 149.917969 L 177.371094 145.125 C 177.371094 145 177.414062 144.875 177.414062 144.710938 C 177.414062 143.960938 176.707031 143.417969 175.789062 143.417969 C 174.164062 143.417969 173.207031 145.210938 173.207031 145.460938 C 173.207031 145.667969 173.414062 145.667969 173.457031 145.667969 C 173.664062 145.667969 173.707031 145.625 173.746094 145.460938 C 174.371094 144.167969 175.289062 143.875 175.746094 143.875 C 176.246094 143.875 176.289062 144.335938 176.289062 144.585938 C 176.289062 144.75 176.289062 144.792969 176.246094 144.917969 Z M 174.996094 149.875 "/>
<path fill-rule="nonzero" fill="rgb(0%, 0%, 0%)" fill-opacity="1" d="M 184.96875 141 C 184.96875 140.667969 184.757812 140.417969 184.382812 140.417969 C 184.007812 140.417969 183.59375 140.792969 183.59375 141.210938 C 183.59375 141.585938 183.882812 141.792969 184.175781 141.792969 C 184.59375 141.792969 184.96875 141.417969 184.96875 141 Z M 185.59375 147.375 C 185.59375 147.210938 185.382812 147.210938 185.34375 147.210938 C 185.09375 147.210938 185.09375 147.25 185.007812 147.5 C 184.800781 148.210938 184.175781 149 183.507812 149 C 183.21875 149 183.132812 148.792969 183.132812 148.5 C 183.132812 148.210938 183.175781 148.042969 183.300781 147.792969 C 183.382812 147.542969 183.507812 147.292969 183.59375 147.085938 C 183.632812 146.960938 184.132812 145.75 184.34375 145.25 C 184.425781 145 184.507812 144.792969 184.507812 144.585938 C 184.507812 143.960938 183.882812 143.417969 183.050781 143.417969 C 181.675781 143.417969 180.925781 145.125 180.925781 145.460938 C 180.925781 145.667969 181.132812 145.667969 181.21875 145.667969 C 181.425781 145.667969 181.425781 145.585938 181.507812 145.417969 C 181.800781 144.460938 182.425781 143.875 183.007812 143.875 C 183.257812 143.875 183.425781 144 183.425781 144.375 C 183.425781 144.417969 183.425781 144.585938 183.34375 144.835938 C 183.257812 145.085938 182.632812 146.5 182.46875 146.960938 C 182.34375 147.210938 182.34375 147.210938 182.175781 147.667969 C 182.09375 147.875 182.007812 148.042969 182.007812 148.25 C 182.007812 148.960938 182.675781 149.460938 183.46875 149.460938 C 184.84375 149.460938 185.59375 147.710938 185.59375 147.375 Z M 185.59375 147.375 "/>
</svg>
