<?xml version="1.0" encoding="UTF-8"?>
<svg xmlns="http://www.w3.org/2000/svg" xmlns:xlink="http://www.w3.org/1999/xlink" width="335.866659" height="155.920003" viewBox="0 0 335.866659 155.920003">
<path fill-rule="nonzero" fill="rgb(0%, 0%, 0%)" fill-opacity="1" d="M 95.03125 20.453125 C 95.238281 19.703125 95.320312 19.535156 95.65625 19.453125 C 95.90625 19.410156 96.78125 19.410156 97.320312 19.410156 C 100.03125 19.410156 101.195312 19.496094 101.195312 21.578125 C 101.195312 21.996094 101.113281 23.035156 100.988281 23.703125 C 100.988281 23.828125 100.90625 24.121094 100.90625 24.203125 C 100.90625 24.371094 100.988281 24.578125 101.238281 24.578125 C 101.53125 24.578125 101.570312 24.371094 101.65625 23.953125 L 102.363281 19.328125 C 102.40625 19.203125 102.40625 18.953125 102.40625 18.871094 C 102.40625 18.578125 102.15625 18.578125 101.695312 18.578125 L 86.945312 18.578125 C 86.320312 18.578125 86.28125 18.621094 86.070312 19.121094 L 84.488281 23.785156 C 84.488281 23.828125 84.320312 24.203125 84.320312 24.285156 C 84.320312 24.410156 84.488281 24.578125 84.65625 24.578125 C 84.90625 24.578125 84.945312 24.410156 85.113281 23.996094 C 86.53125 19.871094 87.238281 19.410156 91.15625 19.410156 L 92.195312 19.410156 C 92.945312 19.410156 92.945312 19.496094 92.945312 19.746094 C 92.945312 19.871094 92.863281 20.203125 92.820312 20.285156 L 89.28125 34.496094 C 89.03125 35.453125 88.945312 35.746094 86.113281 35.746094 C 85.15625 35.746094 84.988281 35.746094 84.988281 36.246094 C 84.988281 36.578125 85.28125 36.578125 85.445312 36.578125 C 86.15625 36.578125 86.90625 36.535156 87.613281 36.535156 C 88.363281 36.535156 89.15625 36.496094 89.90625 36.496094 C 90.65625 36.496094 91.363281 36.535156 92.113281 36.535156 C 92.863281 36.535156 93.65625 36.578125 94.40625 36.578125 C 94.65625 36.578125 94.988281 36.578125 94.988281 36.035156 C 94.988281 35.746094 94.78125 35.746094 94.070312 35.746094 C 93.445312 35.746094 93.070312 35.746094 92.40625 35.703125 C 91.613281 35.621094 91.40625 35.535156 91.40625 35.121094 C 91.40625 35.078125 91.40625 34.953125 91.53125 34.578125 Z M 95.03125 20.453125 "/>
<path fill-rule="nonzero" fill="rgb(0%, 0%, 0%)" fill-opacity="1" d="M 105.261719 28.941406 C 105.261719 28.648438 105.011719 28.230469 104.511719 28.230469 C 104.011719 28.230469 103.472656 28.730469 103.472656 29.273438 C 103.472656 29.566406 103.679688 29.980469 104.222656 29.980469 C 104.722656 29.980469 105.261719 29.441406 105.261719 28.941406 Z M 101.472656 38.398438 C 101.386719 38.648438 101.304688 38.855469 101.304688 39.191406 C 101.304688 40.066406 102.011719 40.730469 103.054688 40.730469 C 104.886719 40.730469 105.722656 38.191406 105.722656 37.898438 C 105.722656 37.648438 105.472656 37.648438 105.429688 37.648438 C 105.179688 37.648438 105.136719 37.773438 105.054688 37.980469 C 104.636719 39.480469 103.847656 40.230469 103.097656 40.230469 C 102.722656 40.230469 102.636719 39.980469 102.636719 39.566406 C 102.636719 39.148438 102.761719 38.816406 102.929688 38.398438 C 103.136719 37.898438 103.347656 37.398438 103.511719 36.898438 C 103.679688 36.441406 104.386719 34.773438 104.429688 34.523438 C 104.511719 34.355469 104.554688 34.148438 104.554688 33.941406 C 104.554688 33.066406 103.804688 32.355469 102.804688 32.355469 C 100.929688 32.355469 100.097656 34.898438 100.097656 35.230469 C 100.097656 35.441406 100.347656 35.441406 100.429688 35.441406 C 100.679688 35.441406 100.679688 35.355469 100.761719 35.148438 C 101.222656 33.566406 102.054688 32.898438 102.722656 32.898438 C 103.011719 32.898438 103.179688 33.023438 103.179688 33.523438 C 103.179688 33.980469 103.097656 34.230469 102.636719 35.398438 Z M 101.472656 38.398438 "/>
<path fill-rule="nonzero" fill="rgb(0%, 0%, 0%)" fill-opacity="1" d="M 245.300781 20.453125 C 245.507812 19.703125 245.59375 19.535156 245.925781 19.453125 C 246.175781 19.410156 247.050781 19.410156 247.59375 19.410156 C 250.300781 19.410156 251.46875 19.496094 251.46875 21.578125 C 251.46875 21.996094 251.382812 23.035156 251.257812 23.703125 C 251.257812 23.828125 251.175781 24.121094 251.175781 24.203125 C 251.175781 24.371094 251.257812 24.578125 251.507812 24.578125 C 251.800781 24.578125 251.84375 24.371094 251.925781 23.953125 L 252.632812 19.328125 C 252.675781 19.203125 252.675781 18.953125 252.675781 18.871094 C 252.675781 18.578125 252.425781 18.578125 251.96875 18.578125 L 237.21875 18.578125 C 236.59375 18.578125 236.550781 18.621094 236.34375 19.121094 L 234.757812 23.785156 C 234.757812 23.828125 234.59375 24.203125 234.59375 24.285156 C 234.59375 24.410156 234.757812 24.578125 234.925781 24.578125 C 235.175781 24.578125 235.21875 24.410156 235.382812 23.996094 C 236.800781 19.871094 237.507812 19.410156 241.425781 19.410156 L 242.46875 19.410156 C 243.21875 19.410156 243.21875 19.496094 243.21875 19.746094 C 243.21875 19.871094 243.132812 20.203125 243.09375 20.285156 L 239.550781 34.496094 C 239.300781 35.453125 239.21875 35.746094 236.382812 35.746094 C 235.425781 35.746094 235.257812 35.746094 235.257812 36.246094 C 235.257812 36.578125 235.550781 36.578125 235.71875 36.578125 C 236.425781 36.578125 237.175781 36.535156 237.882812 36.535156 C 238.632812 36.535156 239.425781 36.496094 240.175781 36.496094 C 240.925781 36.496094 241.632812 36.535156 242.382812 36.535156 C 243.132812 36.535156 243.925781 36.578125 244.675781 36.578125 C 244.925781 36.578125 245.257812 36.578125 245.257812 36.035156 C 245.257812 35.746094 245.050781 35.746094 244.34375 35.746094 C 243.71875 35.746094 243.34375 35.746094 242.675781 35.703125 C 241.882812 35.621094 241.675781 35.535156 241.675781 35.121094 C 241.675781 35.078125 241.675781 34.953125 241.800781 34.578125 Z M 245.300781 20.453125 "/>
<path fill-rule="nonzero" fill="rgb(0%, 0%, 0%)" fill-opacity="1" d="M 257.660156 28.941406 C 257.660156 28.648438 257.410156 28.230469 256.910156 28.230469 C 256.367188 28.230469 255.867188 28.773438 255.867188 29.273438 C 255.867188 29.566406 256.078125 29.980469 256.617188 29.980469 C 257.117188 29.980469 257.660156 29.480469 257.660156 28.941406 Z M 253.703125 41.480469 C 253.410156 42.773438 252.410156 43.816406 251.328125 43.816406 C 251.078125 43.816406 250.867188 43.816406 250.660156 43.730469 C 251.117188 43.480469 251.285156 43.066406 251.285156 42.773438 C 251.285156 42.316406 250.910156 42.105469 250.535156 42.105469 C 249.992188 42.105469 249.492188 42.605469 249.492188 43.191406 C 249.492188 43.898438 250.203125 44.355469 251.328125 44.355469 C 252.453125 44.355469 254.617188 43.691406 255.203125 41.441406 L 256.867188 34.773438 C 256.910156 34.566406 256.953125 34.398438 256.953125 34.105469 C 256.953125 33.105469 256.078125 32.355469 254.992188 32.355469 C 252.910156 32.355469 251.742188 34.941406 251.742188 35.230469 C 251.742188 35.441406 251.992188 35.441406 252.035156 35.441406 C 252.242188 35.441406 252.285156 35.398438 252.410156 35.105469 C 252.867188 34.023438 253.828125 32.898438 254.910156 32.898438 C 255.367188 32.898438 255.535156 33.191406 255.535156 33.816406 C 255.535156 34.023438 255.535156 34.273438 255.492188 34.355469 Z M 253.703125 41.480469 "/>
<path fill-rule="nonzero" fill="rgb(0%, 0%, 0%)" fill-opacity="1" d="M 71.402344 113.933594 C 71.445312 113.808594 71.527344 113.726562 71.527344 113.640625 C 71.527344 113.515625 71.445312 113.433594 71.320312 113.433594 C 70.359375 113.433594 69.109375 113.851562 67.984375 114.558594 C 66.734375 115.308594 65.734375 116.308594 64.984375 117.308594 C 64.195312 118.476562 63.777344 119.558594 63.777344 120.515625 C 63.777344 121.058594 63.902344 121.558594 64.152344 121.976562 C 64.902344 123.351562 66.570312 123.933594 68.609375 123.933594 C 69.070312 123.933594 69.570312 123.890625 70.070312 123.808594 C 70.070312 123.976562 70.109375 124.140625 70.152344 124.265625 C 70.445312 125.476562 71.445312 126.101562 72.984375 126.101562 C 74.109375 126.101562 75.070312 125.558594 76.027344 124.726562 C 75.195312 126.183594 74.820312 127.601562 73.820312 129.015625 C 72.902344 130.308594 71.195312 131.390625 70.027344 131.390625 C 67.695312 131.390625 65.859375 130.933594 65.859375 129.726562 C 65.859375 129.476562 65.945312 129.183594 66.109375 128.851562 C 66.277344 129.140625 66.570312 129.265625 66.902344 129.265625 C 67.570312 129.265625 68.359375 128.726562 68.359375 128.226562 C 68.359375 127.558594 67.984375 127.308594 67.484375 127.308594 C 66.945312 127.308594 66.320312 127.640625 65.984375 128.101562 C 65.484375 128.765625 65.277344 129.351562 65.277344 129.808594 C 65.277344 131.433594 67.609375 131.976562 69.945312 131.976562 C 72.027344 131.976562 74.777344 131.183594 76.070312 129.308594 C 77.402344 127.390625 76.902344 125.890625 78.152344 124.101562 C 79.027344 122.890625 79.320312 121.390625 80.820312 120.515625 C 80.859375 120.476562 80.902344 120.390625 80.902344 120.351562 L 80.859375 120.101562 C 80.859375 120.101562 80.859375 120.101562 80.859375 120.058594 C 80.820312 119.976562 80.734375 119.890625 80.652344 119.890625 C 80.609375 119.890625 80.570312 119.890625 80.527344 119.933594 C 79.320312 120.640625 78.359375 121.558594 77.570312 122.558594 C 76.109375 124.015625 74.695312 125.515625 73.070312 125.515625 C 72.195312 125.515625 71.734375 125.015625 71.734375 124.308594 L 71.734375 124.140625 C 71.777344 123.933594 71.859375 123.640625 71.945312 123.390625 C 73.277344 122.976562 74.652344 122.308594 75.984375 121.515625 C 78.570312 119.976562 80.902344 117.890625 82.445312 115.726562 C 82.859375 115.140625 83.070312 114.558594 83.070312 114.015625 C 83.070312 113.765625 83.027344 113.558594 82.945312 113.351562 C 82.652344 112.640625 81.859375 112.351562 80.945312 112.351562 C 79.570312 112.351562 77.859375 113.476562 76.445312 114.640625 C 74.402344 116.308594 72.777344 118.226562 71.445312 120.101562 C 70.652344 121.183594 70.195312 122.265625 70.070312 123.226562 C 69.609375 123.308594 69.152344 123.351562 68.734375 123.351562 C 66.945312 123.351562 65.652344 122.808594 65.195312 121.726562 C 65.109375 121.476562 65.070312 121.183594 65.070312 120.890625 C 65.070312 119.976562 65.527344 118.808594 66.402344 117.558594 C 67.027344 116.683594 67.777344 115.765625 68.777344 115.015625 C 69.609375 114.390625 70.527344 114.015625 71.234375 114.015625 C 71.320312 114.015625 71.359375 113.976562 71.402344 113.933594 Z M 73.695312 120.351562 C 74.984375 118.558594 76.527344 116.390625 77.820312 115.058594 C 78.859375 113.933594 79.984375 112.933594 80.820312 112.933594 C 81.445312 112.933594 81.820312 113.183594 81.859375 113.558594 L 81.859375 113.683594 C 81.859375 114.140625 81.527344 114.765625 81.070312 115.433594 C 79.609375 117.476562 77.609375 119.515625 75.195312 121.058594 C 74.234375 121.683594 73.234375 122.183594 72.277344 122.558594 C 72.652344 121.890625 73.152344 121.140625 73.695312 120.351562 Z M 73.695312 120.351562 "/>
<path fill-rule="nonzero" fill="rgb(0%, 0%, 0%)" fill-opacity="1" d="M 93.074219 137.765625 C 93.074219 137.683594 93.074219 137.640625 92.617188 137.183594 C 89.324219 133.851562 88.449219 128.808594 88.449219 124.726562 C 88.449219 120.101562 89.449219 115.476562 92.742188 112.183594 C 93.074219 111.851562 93.074219 111.808594 93.074219 111.726562 C 93.074219 111.515625 92.992188 111.433594 92.824219 111.433594 C 92.53125 111.433594 90.15625 113.265625 88.574219 116.640625 C 87.242188 119.558594 86.90625 122.515625 86.90625 124.726562 C 86.90625 126.808594 87.199219 130.015625 88.65625 133.058594 C 90.28125 136.308594 92.53125 138.058594 92.824219 138.058594 C 92.992188 138.058594 93.074219 137.976562 93.074219 137.765625 Z M 93.074219 137.765625 "/>
<path fill-rule="nonzero" fill="rgb(0%, 0%, 0%)" fill-opacity="1" d="M 96.945312 129.808594 C 96.863281 130.226562 96.695312 130.851562 96.695312 130.976562 C 96.695312 131.433594 97.070312 131.683594 97.488281 131.683594 C 97.820312 131.683594 98.28125 131.476562 98.488281 130.933594 C 98.488281 130.890625 98.820312 129.640625 98.988281 128.976562 L 99.570312 126.601562 C 99.695312 125.976562 99.863281 125.390625 100.03125 124.808594 C 100.113281 124.351562 100.320312 123.558594 100.363281 123.476562 C 100.738281 122.640625 102.15625 120.226562 104.695312 120.226562 C 105.90625 120.226562 106.113281 121.226562 106.113281 122.101562 C 106.113281 122.765625 105.945312 123.515625 105.738281 124.308594 L 104.988281 127.390625 L 104.445312 129.390625 C 104.363281 129.933594 104.113281 130.851562 104.113281 130.976562 C 104.113281 131.433594 104.488281 131.683594 104.863281 131.683594 C 105.695312 131.683594 105.863281 131.015625 106.070312 130.183594 C 106.445312 128.683594 107.445312 124.808594 107.65625 123.765625 C 107.738281 123.433594 109.15625 120.226562 112.070312 120.226562 C 113.195312 120.226562 113.488281 121.140625 113.488281 122.101562 C 113.488281 123.601562 112.363281 126.640625 111.820312 128.058594 C 111.613281 128.683594 111.488281 128.976562 111.488281 129.515625 C 111.488281 130.765625 112.40625 131.683594 113.65625 131.683594 C 116.15625 131.683594 117.15625 127.808594 117.15625 127.601562 C 117.15625 127.308594 116.90625 127.308594 116.820312 127.308594 C 116.570312 127.308594 116.570312 127.390625 116.445312 127.808594 C 116.03125 129.226562 115.195312 131.101562 113.738281 131.101562 C 113.28125 131.101562 113.070312 130.851562 113.070312 130.226562 C 113.070312 129.558594 113.320312 128.933594 113.570312 128.351562 C 114.070312 126.933594 115.195312 124.015625 115.195312 122.476562 C 115.195312 120.765625 114.113281 119.640625 112.113281 119.640625 C 110.15625 119.640625 108.78125 120.808594 107.78125 122.226562 C 107.78125 121.890625 107.695312 120.976562 106.945312 120.351562 C 106.28125 119.765625 105.445312 119.640625 104.78125 119.640625 C 102.363281 119.640625 101.070312 121.351562 100.613281 121.976562 C 100.488281 120.433594 99.363281 119.640625 98.15625 119.640625 C 96.945312 119.640625 96.445312 120.683594 96.195312 121.140625 C 95.738281 122.101562 95.40625 123.640625 95.40625 123.726562 C 95.40625 124.015625 95.65625 124.015625 95.695312 124.015625 C 95.988281 124.015625 95.988281 123.976562 96.15625 123.390625 C 96.613281 121.515625 97.15625 120.226562 98.113281 120.226562 C 98.53125 120.226562 98.90625 120.433594 98.90625 121.433594 C 98.90625 122.015625 98.820312 122.308594 98.488281 123.683594 Z M 96.945312 129.808594 "/>
<path fill-rule="nonzero" fill="rgb(0%, 0%, 0%)" fill-opacity="1" d="M 125.609375 124.726562 C 125.609375 122.683594 125.316406 119.476562 123.859375 116.433594 C 122.273438 113.183594 119.984375 111.433594 119.734375 111.433594 C 119.566406 111.433594 119.441406 111.558594 119.441406 111.726562 C 119.441406 111.808594 119.441406 111.851562 119.941406 112.351562 C 122.566406 114.976562 124.066406 119.183594 124.066406 124.726562 C 124.066406 129.308594 123.109375 133.976562 119.816406 137.308594 C 119.441406 137.640625 119.441406 137.683594 119.441406 137.765625 C 119.441406 137.933594 119.566406 138.058594 119.734375 138.058594 C 119.984375 138.058594 122.398438 136.226562 123.941406 132.851562 C 125.316406 129.933594 125.609375 126.976562 125.609375 124.726562 Z M 125.609375 124.726562 "/>
<path fill-rule="nonzero" fill="rgb(0%, 0%, 0%)" fill-opacity="1" d="M 222.851562 113.933594 C 222.890625 113.808594 222.976562 113.726562 222.976562 113.640625 C 222.976562 113.515625 222.890625 113.433594 222.765625 113.433594 C 221.808594 113.433594 220.558594 113.851562 219.433594 114.558594 C 218.183594 115.308594 217.183594 116.308594 216.433594 117.308594 C 215.640625 118.476562 215.226562 119.558594 215.226562 120.515625 C 215.226562 121.058594 215.351562 121.558594 215.601562 121.976562 C 216.351562 123.351562 218.015625 123.933594 220.058594 123.933594 C 220.515625 123.933594 221.015625 123.890625 221.515625 123.808594 C 221.515625 123.976562 221.558594 124.140625 221.601562 124.265625 C 221.890625 125.476562 222.890625 126.101562 224.433594 126.101562 C 225.558594 126.101562 226.515625 125.558594 227.476562 124.726562 C 226.640625 126.183594 226.265625 127.601562 225.265625 129.015625 C 224.351562 130.308594 222.640625 131.390625 221.476562 131.390625 C 219.140625 131.390625 217.308594 130.933594 217.308594 129.726562 C 217.308594 129.476562 217.390625 129.183594 217.558594 128.851562 C 217.726562 129.140625 218.015625 129.265625 218.351562 129.265625 C 219.015625 129.265625 219.808594 128.726562 219.808594 128.226562 C 219.808594 127.558594 219.433594 127.308594 218.933594 127.308594 C 218.390625 127.308594 217.765625 127.640625 217.433594 128.101562 C 216.933594 128.765625 216.726562 129.351562 216.726562 129.808594 C 216.726562 131.433594 219.058594 131.976562 221.390625 131.976562 C 223.476562 131.976562 226.226562 131.183594 227.515625 129.308594 C 228.851562 127.390625 228.351562 125.890625 229.601562 124.101562 C 230.476562 122.890625 230.765625 121.390625 232.265625 120.515625 C 232.308594 120.476562 232.351562 120.390625 232.351562 120.351562 L 232.308594 120.101562 C 232.308594 120.101562 232.308594 120.101562 232.308594 120.058594 C 232.265625 119.976562 232.183594 119.890625 232.101562 119.890625 C 232.058594 119.890625 232.015625 119.890625 231.976562 119.933594 C 230.765625 120.640625 229.808594 121.558594 229.015625 122.558594 C 227.558594 124.015625 226.140625 125.515625 224.515625 125.515625 C 223.640625 125.515625 223.183594 125.015625 223.183594 124.308594 L 223.183594 124.140625 C 223.226562 123.933594 223.308594 123.640625 223.390625 123.390625 C 224.726562 122.976562 226.101562 122.308594 227.433594 121.515625 C 230.015625 119.976562 232.351562 117.890625 233.890625 115.726562 C 234.308594 115.140625 234.515625 114.558594 234.515625 114.015625 C 234.515625 113.765625 234.476562 113.558594 234.390625 113.351562 C 234.101562 112.640625 233.308594 112.351562 232.390625 112.351562 C 231.015625 112.351562 229.308594 113.476562 227.890625 114.640625 C 225.851562 116.308594 224.226562 118.226562 222.890625 120.101562 C 222.101562 121.183594 221.640625 122.265625 221.515625 123.226562 C 221.058594 123.308594 220.601562 123.351562 220.183594 123.351562 C 218.390625 123.351562 217.101562 122.808594 216.640625 121.726562 C 216.558594 121.476562 216.515625 121.183594 216.515625 120.890625 C 216.515625 119.976562 216.976562 118.808594 217.851562 117.558594 C 218.476562 116.683594 219.226562 115.765625 220.226562 115.015625 C 221.058594 114.390625 221.976562 114.015625 222.683594 114.015625 C 222.765625 114.015625 222.808594 113.976562 222.851562 113.933594 Z M 225.140625 120.351562 C 226.433594 118.558594 227.976562 116.390625 229.265625 115.058594 C 230.308594 113.933594 231.433594 112.933594 232.265625 112.933594 C 232.890625 112.933594 233.265625 113.183594 233.308594 113.558594 L 233.308594 113.683594 C 233.308594 114.140625 232.976562 114.765625 232.515625 115.433594 C 231.058594 117.476562 229.058594 119.515625 226.640625 121.058594 C 225.683594 121.683594 224.683594 122.183594 223.726562 122.558594 C 224.101562 121.890625 224.601562 121.140625 225.140625 120.351562 Z M 225.140625 120.351562 "/>
<path fill-rule="nonzero" fill="rgb(0%, 0%, 0%)" fill-opacity="1" d="M 244.523438 137.765625 C 244.523438 137.683594 244.523438 137.640625 244.0625 137.183594 C 240.773438 133.851562 239.898438 128.808594 239.898438 124.726562 C 239.898438 120.101562 240.898438 115.476562 244.1875 112.183594 C 244.523438 111.851562 244.523438 111.808594 244.523438 111.726562 C 244.523438 111.515625 244.4375 111.433594 244.273438 111.433594 C 243.980469 111.433594 241.605469 113.265625 240.023438 116.640625 C 238.6875 119.558594 238.355469 122.515625 238.355469 124.726562 C 238.355469 126.808594 238.648438 130.015625 240.105469 133.058594 C 241.730469 136.308594 243.980469 138.058594 244.273438 138.058594 C 244.4375 138.058594 244.523438 137.976562 244.523438 137.765625 Z M 244.523438 137.765625 "/>
<path fill-rule="nonzero" fill="rgb(0%, 0%, 0%)" fill-opacity="1" d="M 248.398438 129.808594 C 248.3125 130.226562 248.148438 130.851562 248.148438 130.976562 C 248.148438 131.433594 248.523438 131.683594 248.9375 131.683594 C 249.273438 131.683594 249.730469 131.476562 249.9375 130.933594 C 249.9375 130.890625 250.273438 129.640625 250.4375 128.976562 L 251.023438 126.601562 C 251.148438 125.976562 251.3125 125.390625 251.480469 124.808594 C 251.5625 124.351562 251.773438 123.558594 251.8125 123.476562 C 252.1875 122.640625 253.605469 120.226562 256.148438 120.226562 C 257.355469 120.226562 257.5625 121.226562 257.5625 122.101562 C 257.5625 122.765625 257.398438 123.515625 257.1875 124.308594 L 256.4375 127.390625 L 255.898438 129.390625 C 255.8125 129.933594 255.5625 130.851562 255.5625 130.976562 C 255.5625 131.433594 255.9375 131.683594 256.3125 131.683594 C 257.148438 131.683594 257.3125 131.015625 257.523438 130.183594 C 257.898438 128.683594 258.898438 124.808594 259.105469 123.765625 C 259.1875 123.433594 260.605469 120.226562 263.523438 120.226562 C 264.648438 120.226562 264.9375 121.140625 264.9375 122.101562 C 264.9375 123.601562 263.8125 126.640625 263.273438 128.058594 C 263.0625 128.683594 262.9375 128.976562 262.9375 129.515625 C 262.9375 130.765625 263.855469 131.683594 265.105469 131.683594 C 267.605469 131.683594 268.605469 127.808594 268.605469 127.601562 C 268.605469 127.308594 268.355469 127.308594 268.273438 127.308594 C 268.023438 127.308594 268.023438 127.390625 267.898438 127.808594 C 267.480469 129.226562 266.648438 131.101562 265.1875 131.101562 C 264.730469 131.101562 264.523438 130.851562 264.523438 130.226562 C 264.523438 129.558594 264.773438 128.933594 265.023438 128.351562 C 265.523438 126.933594 266.648438 124.015625 266.648438 122.476562 C 266.648438 120.765625 265.5625 119.640625 263.5625 119.640625 C 261.605469 119.640625 260.230469 120.808594 259.230469 122.226562 C 259.230469 121.890625 259.148438 120.976562 258.398438 120.351562 C 257.730469 119.765625 256.898438 119.640625 256.230469 119.640625 C 253.8125 119.640625 252.523438 121.351562 252.0625 121.976562 C 251.9375 120.433594 250.8125 119.640625 249.605469 119.640625 C 248.398438 119.640625 247.898438 120.683594 247.648438 121.140625 C 247.1875 122.101562 246.855469 123.640625 246.855469 123.726562 C 246.855469 124.015625 247.105469 124.015625 247.148438 124.015625 C 247.4375 124.015625 247.4375 123.976562 247.605469 123.390625 C 248.0625 121.515625 248.605469 120.226562 249.5625 120.226562 C 249.980469 120.226562 250.355469 120.433594 250.355469 121.433594 C 250.355469 122.015625 250.273438 122.308594 249.9375 123.683594 Z M 248.398438 129.808594 "/>
<path fill-rule="nonzero" fill="rgb(0%, 0%, 0%)" fill-opacity="1" d="M 277.054688 124.726562 C 277.054688 122.683594 276.765625 119.476562 275.304688 116.433594 C 273.722656 113.183594 271.429688 111.433594 271.179688 111.433594 C 271.015625 111.433594 270.890625 111.558594 270.890625 111.726562 C 270.890625 111.808594 270.890625 111.851562 271.390625 112.351562 C 274.015625 114.976562 275.515625 119.183594 275.515625 124.726562 C 275.515625 129.308594 274.554688 133.976562 271.265625 137.308594 C 270.890625 137.640625 270.890625 137.683594 270.890625 137.765625 C 270.890625 137.933594 271.015625 138.058594 271.179688 138.058594 C 271.429688 138.058594 273.847656 136.226562 275.390625 132.851562 C 276.765625 129.933594 277.054688 126.976562 277.054688 124.726562 Z M 277.054688 124.726562 "/>
<path fill="none" stroke-width="0.39848" stroke-linecap="butt" stroke-linejoin="miter" stroke="rgb(0%, 0%, 0%)" stroke-opacity="1" stroke-miterlimit="10" d="M -19.333954 18.109438 L 18.494171 18.109438 " transform="matrix(2.666667, 0, 0, -2.666667, 171.607992, 78.229335)"/>
<path fill="none" stroke-width="0.39848" stroke-linecap="round" stroke-linejoin="round" stroke="rgb(0%, 0%, 0%)" stroke-opacity="1" stroke-miterlimit="10" d="M -2.070999 2.390332 C -1.691605 0.95625 -0.847855 0.276563 -0.00117493 -0.000292778 C -0.847855 -0.277148 -1.691605 -0.956836 -2.070999 -2.390918 " transform="matrix(2.666667, 0, 0, -2.666667, 221.460164, 29.936719)"/>
<path fill-rule="nonzero" fill="rgb(0%, 0%, 0%)" fill-opacity="1" d="M 165.28125 7.191406 C 165.40625 6.648438 165.449219 6.605469 165.863281 6.566406 C 165.949219 6.566406 166.574219 6.566406 166.949219 6.566406 C 168.113281 6.566406 168.574219 6.566406 169.03125 6.691406 C 169.863281 6.941406 169.90625 7.480469 169.90625 8.148438 C 169.90625 8.441406 169.90625 8.691406 169.78125 9.648438 L 169.738281 9.855469 C 169.738281 10.066406 169.863281 10.148438 170.074219 10.148438 C 170.363281 10.148438 170.363281 9.980469 170.40625 9.691406 L 170.90625 6.148438 C 170.90625 5.898438 170.699219 5.898438 170.363281 5.898438 L 158.949219 5.898438 C 158.488281 5.898438 158.449219 5.898438 158.324219 6.273438 L 157.113281 9.566406 C 157.113281 9.648438 157.03125 9.816406 157.03125 9.898438 C 157.03125 9.980469 157.074219 10.148438 157.363281 10.148438 C 157.613281 10.148438 157.613281 10.066406 157.738281 9.691406 C 158.824219 6.730469 159.449219 6.566406 162.28125 6.566406 L 163.03125 6.566406 C 163.613281 6.566406 163.613281 6.566406 163.613281 6.730469 C 163.613281 6.730469 163.613281 6.855469 163.53125 7.105469 L 161.074219 16.898438 C 160.90625 17.566406 160.863281 17.773438 158.90625 17.773438 C 158.238281 17.773438 158.074219 17.773438 158.074219 18.191406 C 158.074219 18.230469 158.113281 18.441406 158.40625 18.441406 C 158.90625 18.441406 159.488281 18.398438 159.988281 18.398438 C 160.53125 18.398438 161.074219 18.355469 161.574219 18.355469 C 162.113281 18.355469 162.738281 18.355469 163.28125 18.398438 C 163.78125 18.398438 164.324219 18.441406 164.824219 18.441406 C 164.988281 18.441406 165.238281 18.441406 165.238281 18.023438 C 165.238281 17.773438 165.074219 17.773438 164.488281 17.773438 C 164.15625 17.773438 163.78125 17.730469 163.40625 17.730469 C 162.78125 17.691406 162.738281 17.605469 162.738281 17.398438 C 162.738281 17.230469 162.738281 17.230469 162.824219 16.941406 Z M 165.28125 7.191406 "/>
<path fill-rule="nonzero" fill="rgb(0%, 0%, 0%)" fill-opacity="1" d="M 175.578125 12.804688 C 175.578125 12.511719 175.328125 12.222656 174.996094 12.222656 C 174.578125 12.222656 174.160156 12.636719 174.160156 13.011719 C 174.160156 13.347656 174.410156 13.597656 174.746094 13.597656 C 175.203125 13.597656 175.578125 13.179688 175.578125 12.804688 Z M 172.660156 21.679688 C 172.410156 22.722656 171.578125 23.386719 170.785156 23.386719 C 170.535156 23.386719 170.410156 23.347656 170.285156 23.304688 C 170.621094 23.097656 170.703125 22.761719 170.703125 22.597656 C 170.703125 22.386719 170.535156 22.054688 170.121094 22.054688 C 169.660156 22.054688 169.285156 22.472656 169.285156 22.886719 C 169.285156 23.472656 169.871094 23.804688 170.785156 23.804688 C 171.703125 23.804688 173.410156 23.347656 173.828125 21.722656 L 175.035156 16.929688 C 175.035156 16.804688 175.078125 16.679688 175.078125 16.511719 C 175.078125 15.761719 174.371094 15.222656 173.453125 15.222656 C 171.828125 15.222656 170.871094 17.011719 170.871094 17.261719 C 170.871094 17.472656 171.078125 17.472656 171.121094 17.472656 C 171.328125 17.472656 171.371094 17.429688 171.410156 17.261719 C 172.035156 15.972656 172.953125 15.679688 173.410156 15.679688 C 173.910156 15.679688 173.953125 16.136719 173.953125 16.386719 C 173.953125 16.554688 173.953125 16.597656 173.910156 16.722656 Z M 172.660156 21.679688 "/>
<path fill-rule="nonzero" fill="rgb(0%, 0%, 0%)" fill-opacity="1" d="M 182.632812 12.804688 C 182.632812 12.472656 182.421875 12.222656 182.046875 12.222656 C 181.671875 12.222656 181.257812 12.597656 181.257812 13.011719 C 181.257812 13.386719 181.546875 13.597656 181.839844 13.597656 C 182.257812 13.597656 182.632812 13.222656 182.632812 12.804688 Z M 183.257812 19.179688 C 183.257812 19.011719 183.046875 19.011719 183.007812 19.011719 C 182.757812 19.011719 182.757812 19.054688 182.671875 19.304688 C 182.464844 20.011719 181.839844 20.804688 181.171875 20.804688 C 180.882812 20.804688 180.796875 20.597656 180.796875 20.304688 C 180.796875 20.011719 180.839844 19.847656 180.964844 19.597656 C 181.046875 19.347656 181.171875 19.097656 181.257812 18.886719 C 181.296875 18.761719 181.796875 17.554688 182.007812 17.054688 C 182.089844 16.804688 182.171875 16.597656 182.171875 16.386719 C 182.171875 15.761719 181.546875 15.222656 180.714844 15.222656 C 179.339844 15.222656 178.589844 16.929688 178.589844 17.261719 C 178.589844 17.472656 178.796875 17.472656 178.882812 17.472656 C 179.089844 17.472656 179.089844 17.386719 179.171875 17.222656 C 179.464844 16.261719 180.089844 15.679688 180.671875 15.679688 C 180.921875 15.679688 181.089844 15.804688 181.089844 16.179688 C 181.089844 16.222656 181.089844 16.386719 181.007812 16.636719 C 180.921875 16.886719 180.296875 18.304688 180.132812 18.761719 C 180.007812 19.011719 180.007812 19.011719 179.839844 19.472656 C 179.757812 19.679688 179.671875 19.847656 179.671875 20.054688 C 179.671875 20.761719 180.339844 21.261719 181.132812 21.261719 C 182.507812 21.261719 183.257812 19.511719 183.257812 19.179688 Z M 183.257812 19.179688 "/>
<path fill="none" stroke-width="0.39848" stroke-linecap="butt" stroke-linejoin="miter" stroke="rgb(0%, 0%, 0%)" stroke-opacity="1" stroke-miterlimit="10" d="M -28.395477 10.276918 L -28.395477 -8.215269 " transform="matrix(2.666667, 0, 0, -2.666667, 171.607992, 78.229335)"/>
<path fill="none" stroke-width="0.39848" stroke-linecap="round" stroke-linejoin="round" stroke="rgb(0%, 0%, 0%)" stroke-opacity="1" stroke-miterlimit="10" d="M -2.072571 2.392086 C -1.693176 0.958004 -0.849426 0.278316 -0.00128174 0.00146103 C -0.849426 -0.279789 -1.693176 -0.956547 -2.072571 -2.389164 " transform="matrix(0, 2.666667, 2.666667, 0, 95.882823, 100.671387)"/>
<path fill-rule="nonzero" fill="rgb(0%, 0%, 0%)" fill-opacity="1" d="M 30.003906 66.746094 C 26.503906 69.207031 25.542969 73.164062 25.542969 75.996094 C 25.542969 78.621094 26.335938 82.707031 30.003906 85.289062 C 30.167969 85.289062 30.378906 85.289062 30.378906 85.082031 C 30.378906 84.957031 30.335938 84.914062 30.210938 84.789062 C 27.710938 82.539062 26.835938 79.414062 26.835938 76.039062 C 26.835938 70.996094 28.753906 68.539062 30.253906 67.164062 C 30.335938 67.082031 30.378906 67.039062 30.378906 66.957031 C 30.378906 66.746094 30.167969 66.746094 30.003906 66.746094 Z M 30.003906 66.746094 "/>
<path fill-rule="nonzero" fill="rgb(0%, 0%, 0%)" fill-opacity="1" d="M 37.554688 77.289062 L 37.554688 76.039062 L 32.09375 76.039062 L 32.09375 77.289062 Z M 37.554688 77.289062 "/>
<path fill-rule="nonzero" fill="rgb(0%, 0%, 0%)" fill-opacity="1" d="M 40.546875 66.746094 C 40.421875 66.746094 40.214844 66.746094 40.214844 66.957031 C 40.214844 67.039062 40.253906 67.082031 40.378906 67.246094 C 41.964844 68.707031 43.753906 71.207031 43.753906 75.996094 C 43.753906 79.871094 42.546875 82.832031 40.546875 84.621094 C 40.214844 84.957031 40.214844 84.957031 40.214844 85.082031 C 40.214844 85.164062 40.253906 85.289062 40.421875 85.289062 C 40.671875 85.289062 42.421875 84.082031 43.671875 81.746094 C 44.464844 80.207031 45.003906 78.207031 45.003906 76.039062 C 45.003906 73.414062 44.214844 69.332031 40.546875 66.746094 Z M 40.546875 66.746094 "/>
<path fill-rule="nonzero" fill="rgb(0%, 0%, 0%)" fill-opacity="1" d="M 61.015625 76.457031 C 61.304688 76.457031 61.765625 76.457031 61.765625 76.039062 C 61.765625 75.539062 61.304688 75.539062 61.015625 75.539062 L 49.929688 75.539062 C 49.640625 75.539062 49.179688 75.539062 49.179688 75.996094 C 49.179688 76.457031 49.597656 76.457031 49.929688 76.457031 Z M 61.015625 76.457031 "/>
<path fill-rule="nonzero" fill="rgb(0%, 0%, 0%)" fill-opacity="1" d="M 74.121094 73.582031 L 75.871094 71.789062 C 78.246094 69.457031 78.996094 68.746094 80.660156 68.621094 C 80.910156 68.621094 81.121094 68.621094 81.121094 68.246094 C 81.121094 68.039062 80.910156 67.957031 80.871094 67.957031 C 80.328125 67.957031 79.660156 68.039062 79.121094 68.039062 C 78.621094 68.039062 77.453125 67.957031 76.953125 67.957031 C 76.828125 67.957031 76.578125 68.039062 76.578125 68.371094 C 76.578125 68.414062 76.578125 68.621094 76.871094 68.621094 C 77.035156 68.664062 77.496094 68.707031 77.496094 69.121094 C 77.496094 69.371094 77.203125 69.664062 77.035156 69.871094 C 76.871094 69.996094 74.535156 72.289062 73.828125 72.996094 L 71.953125 69.371094 C 71.910156 69.289062 71.871094 69.164062 71.871094 69.121094 C 71.871094 68.957031 72.203125 68.664062 72.871094 68.621094 C 72.996094 68.621094 73.246094 68.621094 73.246094 68.246094 C 73.246094 68.207031 73.246094 67.957031 72.910156 67.957031 C 72.535156 67.957031 72.078125 68.039062 71.703125 68.039062 C 71.285156 68.039062 70.871094 68.039062 70.496094 68.039062 C 70.160156 68.039062 69.703125 68.039062 69.371094 68.039062 C 69.078125 67.996094 68.660156 67.957031 68.371094 67.957031 C 68.285156 67.957031 67.996094 67.957031 67.996094 68.371094 C 67.996094 68.621094 68.246094 68.621094 68.535156 68.621094 C 69.621094 68.621094 69.703125 68.832031 69.871094 69.207031 L 72.496094 74.332031 L 71.453125 75.371094 C 71.078125 75.707031 70.203125 76.539062 69.871094 76.871094 C 67.621094 79.121094 66.871094 79.914062 65.160156 79.996094 C 64.910156 79.996094 64.703125 79.996094 64.703125 80.414062 C 64.703125 80.496094 64.785156 80.664062 64.996094 80.664062 C 65.496094 80.664062 66.160156 80.582031 66.703125 80.582031 C 67.035156 80.582031 67.496094 80.582031 67.785156 80.621094 C 68.121094 80.621094 68.535156 80.664062 68.871094 80.664062 C 68.953125 80.664062 69.246094 80.664062 69.246094 80.289062 C 69.246094 79.996094 69.035156 79.996094 68.910156 79.996094 C 68.746094 79.957031 68.328125 79.914062 68.328125 79.539062 C 68.328125 79.246094 68.578125 78.996094 68.996094 78.582031 L 72.746094 74.871094 L 74.996094 79.289062 C 75.121094 79.457031 75.121094 79.496094 75.121094 79.539062 C 75.121094 79.621094 74.785156 79.957031 74.121094 79.996094 C 73.953125 79.996094 73.746094 79.996094 73.746094 80.414062 C 73.746094 80.414062 73.746094 80.664062 74.035156 80.664062 C 74.453125 80.664062 74.910156 80.621094 75.285156 80.621094 C 75.660156 80.621094 76.121094 80.582031 76.496094 80.582031 C 76.828125 80.582031 77.246094 80.582031 77.578125 80.621094 C 77.910156 80.621094 78.285156 80.664062 78.578125 80.664062 C 78.703125 80.664062 78.996094 80.664062 78.996094 80.246094 C 78.996094 79.996094 78.746094 79.996094 78.453125 79.996094 C 77.371094 79.996094 77.285156 79.789062 77.121094 79.457031 Z M 74.121094 73.582031 "/>
<path fill-rule="nonzero" fill="rgb(0%, 0%, 0%)" fill-opacity="1" d="M 86.457031 75.027344 C 86.457031 74.695312 86.25 74.445312 85.875 74.445312 C 85.5 74.445312 85.082031 74.820312 85.082031 75.238281 C 85.082031 75.613281 85.375 75.820312 85.667969 75.820312 C 86.082031 75.820312 86.457031 75.445312 86.457031 75.027344 Z M 87.082031 81.402344 C 87.082031 81.238281 86.875 81.238281 86.832031 81.238281 C 86.582031 81.238281 86.582031 81.277344 86.5 81.527344 C 86.292969 82.238281 85.667969 83.027344 85 83.027344 C 84.707031 83.027344 84.625 82.820312 84.625 82.527344 C 84.625 82.238281 84.667969 82.070312 84.792969 81.820312 C 84.875 81.570312 85 81.320312 85.082031 81.113281 C 85.125 80.988281 85.625 79.777344 85.832031 79.277344 C 85.917969 79.027344 86 78.820312 86 78.613281 C 86 77.988281 85.375 77.445312 84.542969 77.445312 C 83.167969 77.445312 82.417969 79.152344 82.417969 79.488281 C 82.417969 79.695312 82.625 79.695312 82.707031 79.695312 C 82.917969 79.695312 82.917969 79.613281 83 79.445312 C 83.292969 78.488281 83.917969 77.902344 84.5 77.902344 C 84.75 77.902344 84.917969 78.027344 84.917969 78.402344 C 84.917969 78.445312 84.917969 78.613281 84.832031 78.863281 C 84.75 79.113281 84.125 80.527344 83.957031 80.988281 C 83.832031 81.238281 83.832031 81.238281 83.667969 81.695312 C 83.582031 81.902344 83.5 82.070312 83.5 82.277344 C 83.5 82.988281 84.167969 83.488281 84.957031 83.488281 C 86.332031 83.488281 87.082031 81.738281 87.082031 81.402344 Z M 87.082031 81.402344 "/>
<path fill="none" stroke-width="0.39848" stroke-linecap="butt" stroke-linejoin="miter" stroke="rgb(0%, 0%, 0%)" stroke-opacity="1" stroke-miterlimit="10" d="M 28.396515 8.917543 L 28.396515 -8.215269 " transform="matrix(2.666667, 0, 0, -2.666667, 171.607992, 78.229335)"/>
<path fill="none" stroke-width="0.39848" stroke-linecap="round" stroke-linejoin="round" stroke="rgb(0%, 0%, 0%)" stroke-opacity="1" stroke-miterlimit="10" d="M -2.072571 2.390198 C -1.693176 0.957581 -0.849426 0.277893 -0.00128174 -0.000427246 C -0.849426 -0.277283 -1.693176 -0.95697 -2.072571 -2.391052 " transform="matrix(0, 2.666667, 2.666667, 0, 247.333171, 100.671387)"/>
<path fill-rule="nonzero" fill="rgb(0%, 0%, 0%)" fill-opacity="1" d="M 260.171875 68.261719 C 256.671875 70.71875 255.714844 74.679688 255.714844 77.511719 C 255.714844 80.136719 256.507812 84.21875 260.171875 86.804688 C 260.339844 86.804688 260.546875 86.804688 260.546875 86.59375 C 260.546875 86.46875 260.507812 86.429688 260.382812 86.304688 C 257.882812 84.054688 257.007812 80.929688 257.007812 77.554688 C 257.007812 72.511719 258.921875 70.054688 260.421875 68.679688 C 260.507812 68.59375 260.546875 68.554688 260.546875 68.46875 C 260.546875 68.261719 260.339844 68.261719 260.171875 68.261719 Z M 260.171875 68.261719 "/>
<path fill-rule="nonzero" fill="rgb(0%, 0%, 0%)" fill-opacity="1" d="M 267.722656 78.804688 L 267.722656 77.554688 L 262.265625 77.554688 L 262.265625 78.804688 Z M 267.722656 78.804688 "/>
<path fill-rule="nonzero" fill="rgb(0%, 0%, 0%)" fill-opacity="1" d="M 270.71875 68.261719 C 270.59375 68.261719 270.382812 68.261719 270.382812 68.46875 C 270.382812 68.554688 270.425781 68.59375 270.550781 68.761719 C 272.132812 70.21875 273.925781 72.71875 273.925781 77.511719 C 273.925781 81.386719 272.71875 84.34375 270.71875 86.136719 C 270.382812 86.46875 270.382812 86.46875 270.382812 86.59375 C 270.382812 86.679688 270.425781 86.804688 270.59375 86.804688 C 270.84375 86.804688 272.59375 85.59375 273.84375 83.261719 C 274.632812 81.71875 275.175781 79.71875 275.175781 77.554688 C 275.175781 74.929688 274.382812 70.84375 270.71875 68.261719 Z M 270.71875 68.261719 "/>
<path fill-rule="nonzero" fill="rgb(0%, 0%, 0%)" fill-opacity="1" d="M 291.183594 77.96875 C 291.476562 77.96875 291.933594 77.96875 291.933594 77.554688 C 291.933594 77.054688 291.476562 77.054688 291.183594 77.054688 L 280.101562 77.054688 C 279.808594 77.054688 279.351562 77.054688 279.351562 77.511719 C 279.351562 77.96875 279.769531 77.96875 280.101562 77.96875 Z M 291.183594 77.96875 "/>
<path fill-rule="nonzero" fill="rgb(0%, 0%, 0%)" fill-opacity="1" d="M 304.289062 75.09375 L 306.039062 73.304688 C 308.414062 70.96875 309.164062 70.261719 310.832031 70.136719 C 311.082031 70.136719 311.289062 70.136719 311.289062 69.761719 C 311.289062 69.554688 311.082031 69.46875 311.039062 69.46875 C 310.5 69.46875 309.832031 69.554688 309.289062 69.554688 C 308.789062 69.554688 307.625 69.46875 307.125 69.46875 C 307 69.46875 306.75 69.554688 306.75 69.886719 C 306.75 69.929688 306.75 70.136719 307.039062 70.136719 C 307.207031 70.179688 307.664062 70.21875 307.664062 70.636719 C 307.664062 70.886719 307.375 71.179688 307.207031 71.386719 C 307.039062 71.511719 304.707031 73.804688 304 74.511719 L 302.125 70.886719 C 302.082031 70.804688 302.039062 70.679688 302.039062 70.636719 C 302.039062 70.46875 302.375 70.179688 303.039062 70.136719 C 303.164062 70.136719 303.414062 70.136719 303.414062 69.761719 C 303.414062 69.71875 303.414062 69.46875 303.082031 69.46875 C 302.707031 69.46875 302.25 69.554688 301.875 69.554688 C 301.457031 69.554688 301.039062 69.554688 300.664062 69.554688 C 300.332031 69.554688 299.875 69.554688 299.539062 69.554688 C 299.25 69.511719 298.832031 69.46875 298.539062 69.46875 C 298.457031 69.46875 298.164062 69.46875 298.164062 69.886719 C 298.164062 70.136719 298.414062 70.136719 298.707031 70.136719 C 299.789062 70.136719 299.875 70.34375 300.039062 70.71875 L 302.664062 75.84375 L 301.625 76.886719 C 301.25 77.21875 300.375 78.054688 300.039062 78.386719 C 297.789062 80.636719 297.039062 81.429688 295.332031 81.511719 C 295.082031 81.511719 294.875 81.511719 294.875 81.929688 C 294.875 82.011719 294.957031 82.179688 295.164062 82.179688 C 295.664062 82.179688 296.332031 82.09375 296.875 82.09375 C 297.207031 82.09375 297.664062 82.09375 297.957031 82.136719 C 298.289062 82.136719 298.707031 82.179688 299.039062 82.179688 C 299.125 82.179688 299.414062 82.179688 299.414062 81.804688 C 299.414062 81.511719 299.207031 81.511719 299.082031 81.511719 C 298.914062 81.46875 298.5 81.429688 298.5 81.054688 C 298.5 80.761719 298.75 80.511719 299.164062 80.09375 L 302.914062 76.386719 L 305.164062 80.804688 C 305.289062 80.96875 305.289062 81.011719 305.289062 81.054688 C 305.289062 81.136719 304.957031 81.46875 304.289062 81.511719 C 304.125 81.511719 303.914062 81.511719 303.914062 81.929688 C 303.914062 81.929688 303.914062 82.179688 304.207031 82.179688 C 304.625 82.179688 305.082031 82.136719 305.457031 82.136719 C 305.832031 82.136719 306.289062 82.09375 306.664062 82.09375 C 307 82.09375 307.414062 82.09375 307.75 82.136719 C 308.082031 82.136719 308.457031 82.179688 308.75 82.179688 C 308.875 82.179688 309.164062 82.179688 309.164062 81.761719 C 309.164062 81.511719 308.914062 81.511719 308.625 81.511719 C 307.539062 81.511719 307.457031 81.304688 307.289062 80.96875 Z M 304.289062 75.09375 "/>
<path fill-rule="nonzero" fill="rgb(0%, 0%, 0%)" fill-opacity="1" d="M 318.171875 76.542969 C 318.171875 76.25 317.921875 75.960938 317.585938 75.960938 C 317.171875 75.960938 316.753906 76.375 316.753906 76.75 C 316.753906 77.085938 317.003906 77.335938 317.335938 77.335938 C 317.796875 77.335938 318.171875 76.917969 318.171875 76.542969 Z M 315.253906 85.417969 C 315.003906 86.460938 314.171875 87.125 313.378906 87.125 C 313.128906 87.125 313.003906 87.085938 312.878906 87.042969 C 313.210938 86.835938 313.296875 86.5 313.296875 86.335938 C 313.296875 86.125 313.128906 85.792969 312.710938 85.792969 C 312.253906 85.792969 311.878906 86.210938 311.878906 86.625 C 311.878906 87.210938 312.460938 87.542969 313.378906 87.542969 C 314.296875 87.542969 316.003906 87.085938 316.421875 85.460938 L 317.628906 80.667969 C 317.628906 80.542969 317.671875 80.417969 317.671875 80.25 C 317.671875 79.5 316.960938 78.960938 316.046875 78.960938 C 314.421875 78.960938 313.460938 80.75 313.460938 81 C 313.460938 81.210938 313.671875 81.210938 313.710938 81.210938 C 313.921875 81.210938 313.960938 81.167969 314.003906 81 C 314.628906 79.710938 315.546875 79.417969 316.003906 79.417969 C 316.503906 79.417969 316.546875 79.875 316.546875 80.125 C 316.546875 80.292969 316.546875 80.335938 316.503906 80.460938 Z M 315.253906 85.417969 "/>
<path fill="none" stroke-width="0.39848" stroke-linecap="butt" stroke-linejoin="miter" stroke="rgb(0%, 0%, 0%)" stroke-opacity="1" stroke-miterlimit="10" d="M -11.754852 -17.44525 L 11.357452 -17.44525 " transform="matrix(2.666667, 0, 0, -2.666667, 171.607992, 78.229335)"/>
<path fill="none" stroke-width="0.39848" stroke-linecap="round" stroke-linejoin="round" stroke="rgb(0%, 0%, 0%)" stroke-opacity="1" stroke-miterlimit="10" d="M -2.074348 2.390903 C -1.694954 0.956821 -0.851204 0.277134 -0.0001297 0.000278473 C -0.851204 -0.276577 -1.694954 -0.956264 -2.074348 -2.390347 " transform="matrix(2.666667, 0, 0, -2.666667, 202.426127, 124.750743)"/>
<path fill-rule="nonzero" fill="rgb(0%, 0%, 0%)" fill-opacity="1" d="M 144.136719 131.039062 C 140.636719 133.496094 139.675781 137.453125 139.675781 140.289062 C 139.675781 142.914062 140.46875 146.996094 144.136719 149.578125 C 144.300781 149.578125 144.511719 149.578125 144.511719 149.371094 C 144.511719 149.246094 144.46875 149.203125 144.34375 149.078125 C 141.84375 146.828125 140.96875 143.703125 140.96875 140.328125 C 140.96875 135.289062 142.886719 132.828125 144.386719 131.453125 C 144.46875 131.371094 144.511719 131.328125 144.511719 131.246094 C 144.511719 131.039062 144.300781 131.039062 144.136719 131.039062 Z M 144.136719 131.039062 "/>
<path fill-rule="nonzero" fill="rgb(0%, 0%, 0%)" fill-opacity="1" d="M 151.6875 141.578125 L 151.6875 140.328125 L 146.226562 140.328125 L 146.226562 141.578125 Z M 151.6875 141.578125 "/>
<path fill-rule="nonzero" fill="rgb(0%, 0%, 0%)" fill-opacity="1" d="M 154.679688 131.039062 C 154.554688 131.039062 154.347656 131.039062 154.347656 131.246094 C 154.347656 131.328125 154.386719 131.371094 154.511719 131.539062 C 156.097656 132.996094 157.886719 135.496094 157.886719 140.289062 C 157.886719 144.164062 156.679688 147.121094 154.679688 148.914062 C 154.347656 149.246094 154.347656 149.246094 154.347656 149.371094 C 154.347656 149.453125 154.386719 149.578125 154.554688 149.578125 C 154.804688 149.578125 156.554688 148.371094 157.804688 146.039062 C 158.597656 144.496094 159.136719 142.496094 159.136719 140.328125 C 159.136719 137.703125 158.347656 133.621094 154.679688 131.039062 Z M 154.679688 131.039062 "/>
<path fill-rule="nonzero" fill="rgb(0%, 0%, 0%)" fill-opacity="1" d="M 169.890625 140.746094 L 175.597656 140.746094 C 175.847656 140.746094 176.265625 140.746094 176.265625 140.328125 C 176.265625 139.828125 175.847656 139.828125 175.597656 139.828125 L 169.890625 139.828125 L 169.890625 134.121094 C 169.890625 133.914062 169.890625 133.453125 169.472656 133.453125 C 169.015625 133.453125 169.015625 133.871094 169.015625 134.121094 L 169.015625 139.828125 L 163.308594 139.828125 C 163.058594 139.828125 162.597656 139.828125 162.597656 140.289062 C 162.597656 140.746094 163.015625 140.746094 163.308594 140.746094 L 169.015625 140.746094 L 169.015625 146.453125 C 169.015625 146.703125 169.015625 147.164062 169.433594 147.164062 C 169.890625 147.164062 169.890625 146.703125 169.890625 146.453125 Z M 169.890625 140.746094 "/>
<path fill-rule="nonzero" fill="rgb(0%, 0%, 0%)" fill-opacity="1" d="M 178.625 147.953125 C 178.539062 148.203125 178.539062 148.328125 178.539062 148.328125 C 178.539062 148.746094 178.875 148.914062 179.164062 148.914062 C 179.875 148.914062 180 148.371094 180.125 147.789062 C 180.375 146.828125 180.914062 144.703125 181.082031 143.996094 C 181.25 144.246094 181.875 145.121094 183.125 145.121094 C 185.539062 145.121094 188.039062 142.621094 188.039062 139.914062 C 188.039062 137.914062 186.75 136.746094 185.082031 136.746094 C 183.289062 136.746094 181.039062 138.371094 180.375 140.996094 Z M 183.125 144.621094 C 181.75 144.621094 181.332031 143.246094 181.332031 142.996094 C 181.332031 142.953125 181.457031 142.539062 181.5 142.328125 C 182.082031 140.039062 182.164062 139.621094 182.707031 138.789062 C 183.375 137.828125 184.332031 137.289062 185.039062 137.289062 C 185.832031 137.289062 186.539062 137.828125 186.539062 139.164062 C 186.539062 139.996094 186.039062 142.078125 185.5 142.996094 C 184.625 144.328125 183.707031 144.621094 183.125 144.621094 Z M 183.125 144.621094 "/>
<path fill-rule="nonzero" fill="rgb(0%, 0%, 0%)" fill-opacity="1" d="M 195.441406 139.320312 C 195.441406 139.027344 195.191406 138.734375 194.855469 138.734375 C 194.441406 138.734375 194.023438 139.152344 194.023438 139.527344 C 194.023438 139.859375 194.273438 140.109375 194.605469 140.109375 C 195.066406 140.109375 195.441406 139.695312 195.441406 139.320312 Z M 192.523438 148.195312 C 192.273438 149.234375 191.441406 149.902344 190.648438 149.902344 C 190.398438 149.902344 190.273438 149.859375 190.148438 149.820312 C 190.480469 149.609375 190.566406 149.277344 190.566406 149.109375 C 190.566406 148.902344 190.398438 148.570312 189.980469 148.570312 C 189.523438 148.570312 189.148438 148.984375 189.148438 149.402344 C 189.148438 149.984375 189.730469 150.320312 190.648438 150.320312 C 191.566406 150.320312 193.273438 149.859375 193.691406 148.234375 L 194.898438 143.445312 C 194.898438 143.320312 194.941406 143.195312 194.941406 143.027344 C 194.941406 142.277344 194.230469 141.734375 193.316406 141.734375 C 191.691406 141.734375 190.730469 143.527344 190.730469 143.777344 C 190.730469 143.984375 190.941406 143.984375 190.980469 143.984375 C 191.191406 143.984375 191.230469 143.945312 191.273438 143.777344 C 191.898438 142.484375 192.816406 142.195312 193.273438 142.195312 C 193.773438 142.195312 193.816406 142.652344 193.816406 142.902344 C 193.816406 143.070312 193.816406 143.109375 193.773438 143.234375 Z M 192.523438 148.195312 "/>
<path fill-rule="nonzero" fill="rgb(0%, 0%, 0%)" fill-opacity="1" d="M 202.480469 139.320312 C 202.480469 138.984375 202.269531 138.734375 201.894531 138.734375 C 201.519531 138.734375 201.105469 139.109375 201.105469 139.527344 C 201.105469 139.902344 201.394531 140.109375 201.6875 140.109375 C 202.105469 140.109375 202.480469 139.734375 202.480469 139.320312 Z M 203.105469 145.695312 C 203.105469 145.527344 202.894531 145.527344 202.855469 145.527344 C 202.605469 145.527344 202.605469 145.570312 202.519531 145.820312 C 202.3125 146.527344 201.6875 147.320312 201.019531 147.320312 C 200.730469 147.320312 200.644531 147.109375 200.644531 146.820312 C 200.644531 146.527344 200.6875 146.359375 200.8125 146.109375 C 200.894531 145.859375 201.019531 145.609375 201.105469 145.402344 C 201.144531 145.277344 201.644531 144.070312 201.855469 143.570312 C 201.9375 143.320312 202.019531 143.109375 202.019531 142.902344 C 202.019531 142.277344 201.394531 141.734375 200.5625 141.734375 C 199.1875 141.734375 198.4375 143.445312 198.4375 143.777344 C 198.4375 143.984375 198.644531 143.984375 198.730469 143.984375 C 198.9375 143.984375 198.9375 143.902344 199.019531 143.734375 C 199.3125 142.777344 199.9375 142.195312 200.519531 142.195312 C 200.769531 142.195312 200.9375 142.320312 200.9375 142.695312 C 200.9375 142.734375 200.9375 142.902344 200.855469 143.152344 C 200.769531 143.402344 200.144531 144.820312 199.980469 145.277344 C 199.855469 145.527344 199.855469 145.527344 199.6875 145.984375 C 199.605469 146.195312 199.519531 146.359375 199.519531 146.570312 C 199.519531 147.277344 200.1875 147.777344 200.980469 147.777344 C 202.355469 147.777344 203.105469 146.027344 203.105469 145.695312 Z M 203.105469 145.695312 "/>
</svg>
