<?xml version="1.0" encoding="UTF-8"?>
<svg xmlns="http://www.w3.org/2000/svg" xmlns:xlink="http://www.w3.org/1999/xlink" width="419.52002" height="157.599996" viewBox="0 0 419.52002 157.599996">
<path fill-rule="nonzero" fill="rgb(0%, 0%, 0%)" fill-opacity="1" d="M 153.941406 20.433594 C 154.148438 19.683594 154.234375 19.519531 154.566406 19.433594 C 154.816406 19.394531 155.691406 19.394531 156.234375 19.394531 C 158.941406 19.394531 160.109375 19.476562 160.109375 21.558594 C 160.109375 21.976562 160.023438 23.019531 159.898438 23.683594 C 159.898438 23.808594 159.816406 24.101562 159.816406 24.183594 C 159.816406 24.351562 159.898438 24.558594 160.148438 24.558594 C 160.441406 24.558594 160.484375 24.351562 160.566406 23.933594 L 161.273438 19.308594 C 161.316406 19.183594 161.316406 18.933594 161.316406 18.851562 C 161.316406 18.558594 161.066406 18.558594 160.609375 18.558594 L 145.859375 18.558594 C 145.234375 18.558594 145.191406 18.601562 144.984375 19.101562 L 143.398438 23.769531 C 143.398438 23.808594 143.234375 24.183594 143.234375 24.269531 C 143.234375 24.394531 143.398438 24.558594 143.566406 24.558594 C 143.816406 24.558594 143.859375 24.394531 144.023438 23.976562 C 145.441406 19.851562 146.148438 19.394531 150.066406 19.394531 L 151.109375 19.394531 C 151.859375 19.394531 151.859375 19.476562 151.859375 19.726562 C 151.859375 19.851562 151.773438 20.183594 151.734375 20.269531 L 148.191406 34.476562 C 147.941406 35.433594 147.859375 35.726562 145.023438 35.726562 C 144.066406 35.726562 143.898438 35.726562 143.898438 36.226562 C 143.898438 36.558594 144.191406 36.558594 144.359375 36.558594 C 145.066406 36.558594 145.816406 36.519531 146.523438 36.519531 C 147.273438 36.519531 148.066406 36.476562 148.816406 36.476562 C 149.566406 36.476562 150.273438 36.519531 151.023438 36.519531 C 151.773438 36.519531 152.566406 36.558594 153.316406 36.558594 C 153.566406 36.558594 153.898438 36.558594 153.898438 36.019531 C 153.898438 35.726562 153.691406 35.726562 152.984375 35.726562 C 152.359375 35.726562 151.984375 35.726562 151.316406 35.683594 C 150.523438 35.601562 150.316406 35.519531 150.316406 35.101562 C 150.316406 35.058594 150.316406 34.933594 150.441406 34.558594 Z M 153.941406 20.433594 "/>
<path fill-rule="nonzero" fill="rgb(0%, 0%, 0%)" fill-opacity="1" d="M 164.175781 28.917969 C 164.175781 28.628906 163.925781 28.210938 163.425781 28.210938 C 162.925781 28.210938 162.382812 28.710938 162.382812 29.253906 C 162.382812 29.542969 162.589844 29.960938 163.132812 29.960938 C 163.632812 29.960938 164.175781 29.417969 164.175781 28.917969 Z M 160.382812 38.378906 C 160.300781 38.628906 160.214844 38.835938 160.214844 39.167969 C 160.214844 40.042969 160.925781 40.710938 161.964844 40.710938 C 163.800781 40.710938 164.632812 38.167969 164.632812 37.878906 C 164.632812 37.628906 164.382812 37.628906 164.339844 37.628906 C 164.089844 37.628906 164.050781 37.753906 163.964844 37.960938 C 163.550781 39.460938 162.757812 40.210938 162.007812 40.210938 C 161.632812 40.210938 161.550781 39.960938 161.550781 39.542969 C 161.550781 39.128906 161.675781 38.792969 161.839844 38.378906 C 162.050781 37.878906 162.257812 37.378906 162.425781 36.878906 C 162.589844 36.417969 163.300781 34.753906 163.339844 34.503906 C 163.425781 34.335938 163.464844 34.128906 163.464844 33.917969 C 163.464844 33.042969 162.714844 32.335938 161.714844 32.335938 C 159.839844 32.335938 159.007812 34.878906 159.007812 35.210938 C 159.007812 35.417969 159.257812 35.417969 159.339844 35.417969 C 159.589844 35.417969 159.589844 35.335938 159.675781 35.128906 C 160.132812 33.542969 160.964844 32.878906 161.632812 32.878906 C 161.925781 32.878906 162.089844 33.003906 162.089844 33.503906 C 162.089844 33.960938 162.007812 34.210938 161.550781 35.378906 Z M 160.382812 38.378906 "/>
<path fill-rule="nonzero" fill="rgb(0%, 0%, 0%)" fill-opacity="1" d="M 269.167969 20.433594 C 269.375 19.683594 269.460938 19.519531 269.792969 19.433594 C 270.042969 19.394531 270.917969 19.394531 271.460938 19.394531 C 274.167969 19.394531 275.335938 19.476562 275.335938 21.558594 C 275.335938 21.976562 275.25 23.019531 275.125 23.683594 C 275.125 23.808594 275.042969 24.101562 275.042969 24.183594 C 275.042969 24.351562 275.125 24.558594 275.375 24.558594 C 275.667969 24.558594 275.710938 24.351562 275.792969 23.933594 L 276.5 19.308594 C 276.542969 19.183594 276.542969 18.933594 276.542969 18.851562 C 276.542969 18.558594 276.292969 18.558594 275.835938 18.558594 L 261.085938 18.558594 C 260.460938 18.558594 260.417969 18.601562 260.210938 19.101562 L 258.625 23.769531 C 258.625 23.808594 258.460938 24.183594 258.460938 24.269531 C 258.460938 24.394531 258.625 24.558594 258.792969 24.558594 C 259.042969 24.558594 259.085938 24.394531 259.25 23.976562 C 260.667969 19.851562 261.375 19.394531 265.292969 19.394531 L 266.335938 19.394531 C 267.085938 19.394531 267.085938 19.476562 267.085938 19.726562 C 267.085938 19.851562 267 20.183594 266.960938 20.269531 L 263.417969 34.476562 C 263.167969 35.433594 263.085938 35.726562 260.25 35.726562 C 259.292969 35.726562 259.125 35.726562 259.125 36.226562 C 259.125 36.558594 259.417969 36.558594 259.585938 36.558594 C 260.292969 36.558594 261.042969 36.519531 261.75 36.519531 C 262.5 36.519531 263.292969 36.476562 264.042969 36.476562 C 264.792969 36.476562 265.5 36.519531 266.25 36.519531 C 267 36.519531 267.792969 36.558594 268.542969 36.558594 C 268.792969 36.558594 269.125 36.558594 269.125 36.019531 C 269.125 35.726562 268.917969 35.726562 268.210938 35.726562 C 267.585938 35.726562 267.210938 35.726562 266.542969 35.683594 C 265.75 35.601562 265.542969 35.519531 265.542969 35.101562 C 265.542969 35.058594 265.542969 34.933594 265.667969 34.558594 Z M 269.167969 20.433594 "/>
<path fill-rule="nonzero" fill="rgb(0%, 0%, 0%)" fill-opacity="1" d="M 281.527344 28.917969 C 281.527344 28.628906 281.277344 28.210938 280.777344 28.210938 C 280.234375 28.210938 279.734375 28.753906 279.734375 29.253906 C 279.734375 29.542969 279.941406 29.960938 280.484375 29.960938 C 280.984375 29.960938 281.527344 29.460938 281.527344 28.917969 Z M 277.566406 41.460938 C 277.277344 42.753906 276.277344 43.792969 275.191406 43.792969 C 274.941406 43.792969 274.734375 43.792969 274.527344 43.710938 C 274.984375 43.460938 275.152344 43.042969 275.152344 42.753906 C 275.152344 42.292969 274.777344 42.085938 274.402344 42.085938 C 273.859375 42.085938 273.359375 42.585938 273.359375 43.167969 C 273.359375 43.878906 274.066406 44.335938 275.191406 44.335938 C 276.316406 44.335938 278.484375 43.667969 279.066406 41.417969 L 280.734375 34.753906 C 280.777344 34.542969 280.816406 34.378906 280.816406 34.085938 C 280.816406 33.085938 279.941406 32.335938 278.859375 32.335938 C 276.777344 32.335938 275.609375 34.917969 275.609375 35.210938 C 275.609375 35.417969 275.859375 35.417969 275.902344 35.417969 C 276.109375 35.417969 276.152344 35.378906 276.277344 35.085938 C 276.734375 34.003906 277.691406 32.878906 278.777344 32.878906 C 279.234375 32.878906 279.402344 33.167969 279.402344 33.792969 C 279.402344 34.003906 279.402344 34.253906 279.359375 34.335938 Z M 277.566406 41.460938 "/>
<path fill-rule="nonzero" fill="rgb(0%, 0%, 0%)" fill-opacity="1" d="M 157.089844 114.613281 C 157.089844 114.53125 157.007812 114.320312 156.757812 114.320312 C 156.632812 114.320312 156.632812 114.363281 156.296875 114.738281 L 155.007812 116.238281 C 154.339844 114.988281 152.964844 114.320312 151.214844 114.320312 C 147.839844 114.320312 144.671875 117.40625 144.671875 120.613281 C 144.671875 122.738281 146.046875 123.988281 147.421875 124.363281 L 150.257812 125.113281 C 151.257812 125.363281 152.714844 125.78125 152.714844 127.945312 C 152.714844 130.320312 150.546875 132.820312 147.921875 132.820312 C 146.214844 132.820312 143.257812 132.238281 143.257812 128.945312 C 143.257812 128.320312 143.421875 127.65625 143.421875 127.53125 C 143.464844 127.40625 143.464844 127.363281 143.464844 127.320312 C 143.464844 127.070312 143.296875 127.03125 143.171875 127.03125 C 143.046875 127.03125 142.964844 127.070312 142.882812 127.15625 C 142.796875 127.238281 141.296875 133.320312 141.296875 133.40625 C 141.296875 133.53125 141.421875 133.65625 141.589844 133.65625 C 141.714844 133.65625 141.757812 133.613281 142.089844 133.238281 L 143.382812 131.738281 C 144.507812 133.28125 146.339844 133.65625 147.882812 133.65625 C 151.507812 133.65625 154.632812 130.113281 154.632812 126.820312 C 154.632812 124.988281 153.714844 124.070312 153.339844 123.695312 C 152.714844 123.113281 152.296875 122.988281 149.964844 122.40625 C 149.339844 122.238281 148.421875 121.945312 148.171875 121.90625 C 147.464844 121.65625 146.546875 120.90625 146.546875 119.488281 C 146.546875 117.320312 148.671875 115.070312 151.214844 115.070312 C 153.382812 115.070312 155.007812 116.238281 155.007812 119.195312 C 155.007812 120.03125 154.921875 120.53125 154.921875 120.695312 C 154.921875 120.695312 154.921875 120.945312 155.214844 120.945312 C 155.507812 120.945312 155.546875 120.863281 155.632812 120.40625 Z M 157.089844 114.613281 "/>
<path fill-rule="nonzero" fill="rgb(0%, 0%, 0%)" fill-opacity="1" d="M 163.953125 111.597656 C 163.953125 111.097656 163.953125 111.097656 163.414062 111.097656 C 162.203125 112.265625 160.539062 112.265625 159.789062 112.265625 L 159.789062 112.933594 C 160.203125 112.933594 161.453125 112.933594 162.453125 112.433594 L 162.453125 121.890625 C 162.453125 122.515625 162.453125 122.765625 160.621094 122.765625 L 159.914062 122.765625 L 159.914062 123.433594 C 160.246094 123.433594 162.539062 123.347656 163.203125 123.347656 C 163.789062 123.347656 166.121094 123.433594 166.539062 123.433594 L 166.539062 122.765625 L 165.828125 122.765625 C 163.953125 122.765625 163.953125 122.515625 163.953125 121.890625 Z M 163.953125 111.597656 "/>
<path fill-rule="nonzero" fill="rgb(0%, 0%, 0%)" fill-opacity="1" d="M 273.492188 114.613281 C 273.492188 114.53125 273.410156 114.320312 273.160156 114.320312 C 273.035156 114.320312 273.035156 114.363281 272.699219 114.738281 L 271.410156 116.238281 C 270.742188 114.988281 269.367188 114.320312 267.617188 114.320312 C 264.242188 114.320312 261.074219 117.40625 261.074219 120.613281 C 261.074219 122.738281 262.449219 123.988281 263.824219 124.363281 L 266.660156 125.113281 C 267.660156 125.363281 269.117188 125.78125 269.117188 127.945312 C 269.117188 130.320312 266.949219 132.820312 264.324219 132.820312 C 262.617188 132.820312 259.660156 132.238281 259.660156 128.945312 C 259.660156 128.320312 259.824219 127.65625 259.824219 127.53125 C 259.867188 127.40625 259.867188 127.363281 259.867188 127.320312 C 259.867188 127.070312 259.699219 127.03125 259.574219 127.03125 C 259.449219 127.03125 259.367188 127.070312 259.285156 127.15625 C 259.199219 127.238281 257.699219 133.320312 257.699219 133.40625 C 257.699219 133.53125 257.824219 133.65625 257.992188 133.65625 C 258.117188 133.65625 258.160156 133.613281 258.492188 133.238281 L 259.785156 131.738281 C 260.910156 133.28125 262.742188 133.65625 264.285156 133.65625 C 267.910156 133.65625 271.035156 130.113281 271.035156 126.820312 C 271.035156 124.988281 270.117188 124.070312 269.742188 123.695312 C 269.117188 123.113281 268.699219 122.988281 266.367188 122.40625 C 265.742188 122.238281 264.824219 121.945312 264.574219 121.90625 C 263.867188 121.65625 262.949219 120.90625 262.949219 119.488281 C 262.949219 117.320312 265.074219 115.070312 267.617188 115.070312 C 269.785156 115.070312 271.410156 116.238281 271.410156 119.195312 C 271.410156 120.03125 271.324219 120.53125 271.324219 120.695312 C 271.324219 120.695312 271.324219 120.945312 271.617188 120.945312 C 271.910156 120.945312 271.949219 120.863281 272.035156 120.40625 Z M 273.492188 114.613281 "/>
<path fill-rule="nonzero" fill="rgb(0%, 0%, 0%)" fill-opacity="1" d="M 280.355469 111.597656 C 280.355469 111.097656 280.355469 111.097656 279.8125 111.097656 C 278.605469 112.265625 276.9375 112.265625 276.1875 112.265625 L 276.1875 112.933594 C 276.605469 112.933594 277.855469 112.933594 278.855469 112.433594 L 278.855469 121.890625 C 278.855469 122.515625 278.855469 122.765625 277.023438 122.765625 L 276.3125 122.765625 L 276.3125 123.433594 C 276.648438 123.433594 278.9375 123.347656 279.605469 123.347656 C 280.1875 123.347656 282.523438 123.433594 282.9375 123.433594 L 282.9375 122.765625 L 282.230469 122.765625 C 280.355469 122.765625 280.355469 122.515625 280.355469 121.890625 Z M 280.355469 111.597656 "/>
<path fill="none" stroke-width="0.39848" stroke-linecap="butt" stroke-linejoin="miter" stroke="rgb(0%, 0%, 0%)" stroke-opacity="1" stroke-miterlimit="10" d="M -12.764114 17.182762 L 11.924362 17.182762 " transform="matrix(2.666667, 0, 0, -2.666667, 212.99467, 75.738668)"/>
<path fill="none" stroke-width="0.39848" stroke-linecap="round" stroke-linejoin="round" stroke="rgb(0%, 0%, 0%)" stroke-opacity="1" stroke-miterlimit="10" d="M -2.070938 2.390186 C -1.695938 0.957569 -0.852188 0.277882 0.000350952 -0.00043869 C -0.852188 -0.277294 -1.695938 -0.956982 -2.070938 -2.391064 " transform="matrix(2.666667, 0, 0, -2.666667, 245.323283, 29.916799)"/>
<path fill-rule="nonzero" fill="rgb(0%, 0%, 0%)" fill-opacity="1" d="M 206.667969 7.171875 C 206.792969 6.628906 206.835938 6.589844 207.25 6.546875 C 207.335938 6.546875 207.960938 6.546875 208.335938 6.546875 C 209.5 6.546875 209.960938 6.546875 210.417969 6.671875 C 211.25 6.921875 211.292969 7.464844 211.292969 8.128906 C 211.292969 8.421875 211.292969 8.671875 211.167969 9.628906 L 211.125 9.839844 C 211.125 10.046875 211.25 10.128906 211.460938 10.128906 C 211.75 10.128906 211.75 9.964844 211.792969 9.671875 L 212.292969 6.128906 C 212.292969 5.878906 212.085938 5.878906 211.75 5.878906 L 200.335938 5.878906 C 199.875 5.878906 199.835938 5.878906 199.710938 6.253906 L 198.5 9.546875 C 198.5 9.628906 198.417969 9.796875 198.417969 9.878906 C 198.417969 9.964844 198.460938 10.128906 198.75 10.128906 C 199 10.128906 199 10.046875 199.125 9.671875 C 200.210938 6.714844 200.835938 6.546875 203.667969 6.546875 L 204.417969 6.546875 C 205 6.546875 205 6.546875 205 6.714844 C 205 6.714844 205 6.839844 204.917969 7.089844 L 202.460938 16.878906 C 202.292969 17.546875 202.25 17.753906 200.292969 17.753906 C 199.625 17.753906 199.460938 17.753906 199.460938 18.171875 C 199.460938 18.214844 199.5 18.421875 199.792969 18.421875 C 200.292969 18.421875 200.875 18.378906 201.375 18.378906 C 201.917969 18.378906 202.460938 18.339844 202.960938 18.339844 C 203.5 18.339844 204.125 18.339844 204.667969 18.378906 C 205.167969 18.378906 205.710938 18.421875 206.210938 18.421875 C 206.375 18.421875 206.625 18.421875 206.625 18.003906 C 206.625 17.753906 206.460938 17.753906 205.875 17.753906 C 205.542969 17.753906 205.167969 17.714844 204.792969 17.714844 C 204.167969 17.671875 204.125 17.589844 204.125 17.378906 C 204.125 17.214844 204.125 17.214844 204.210938 16.921875 Z M 206.667969 7.171875 "/>
<path fill-rule="nonzero" fill="rgb(0%, 0%, 0%)" fill-opacity="1" d="M 216.96875 12.789062 C 216.96875 12.496094 216.71875 12.203125 216.382812 12.203125 C 215.96875 12.203125 215.550781 12.621094 215.550781 12.996094 C 215.550781 13.328125 215.800781 13.578125 216.132812 13.578125 C 216.59375 13.578125 216.96875 13.164062 216.96875 12.789062 Z M 214.050781 21.664062 C 213.800781 22.703125 212.96875 23.371094 212.175781 23.371094 C 211.925781 23.371094 211.800781 23.328125 211.675781 23.289062 C 212.007812 23.078125 212.09375 22.746094 212.09375 22.578125 C 212.09375 22.371094 211.925781 22.039062 211.507812 22.039062 C 211.050781 22.039062 210.675781 22.453125 210.675781 22.871094 C 210.675781 23.453125 211.257812 23.789062 212.175781 23.789062 C 213.09375 23.789062 214.800781 23.328125 215.21875 21.703125 L 216.425781 16.914062 C 216.425781 16.789062 216.46875 16.664062 216.46875 16.496094 C 216.46875 15.746094 215.757812 15.203125 214.84375 15.203125 C 213.21875 15.203125 212.257812 16.996094 212.257812 17.246094 C 212.257812 17.453125 212.46875 17.453125 212.507812 17.453125 C 212.71875 17.453125 212.757812 17.414062 212.800781 17.246094 C 213.425781 15.953125 214.34375 15.664062 214.800781 15.664062 C 215.300781 15.664062 215.34375 16.121094 215.34375 16.371094 C 215.34375 16.539062 215.34375 16.578125 215.300781 16.703125 Z M 214.050781 21.664062 "/>
<path fill-rule="nonzero" fill="rgb(0%, 0%, 0%)" fill-opacity="1" d="M 224.007812 12.789062 C 224.007812 12.453125 223.796875 12.203125 223.421875 12.203125 C 223.046875 12.203125 222.632812 12.578125 222.632812 12.996094 C 222.632812 13.371094 222.921875 13.578125 223.214844 13.578125 C 223.632812 13.578125 224.007812 13.203125 224.007812 12.789062 Z M 224.632812 19.164062 C 224.632812 18.996094 224.421875 18.996094 224.382812 18.996094 C 224.132812 18.996094 224.132812 19.039062 224.046875 19.289062 C 223.839844 19.996094 223.214844 20.789062 222.546875 20.789062 C 222.257812 20.789062 222.171875 20.578125 222.171875 20.289062 C 222.171875 19.996094 222.214844 19.828125 222.339844 19.578125 C 222.421875 19.328125 222.546875 19.078125 222.632812 18.871094 C 222.671875 18.746094 223.171875 17.539062 223.382812 17.039062 C 223.464844 16.789062 223.546875 16.578125 223.546875 16.371094 C 223.546875 15.746094 222.921875 15.203125 222.089844 15.203125 C 220.714844 15.203125 219.964844 16.914062 219.964844 17.246094 C 219.964844 17.453125 220.171875 17.453125 220.257812 17.453125 C 220.464844 17.453125 220.464844 17.371094 220.546875 17.203125 C 220.839844 16.246094 221.464844 15.664062 222.046875 15.664062 C 222.296875 15.664062 222.464844 15.789062 222.464844 16.164062 C 222.464844 16.203125 222.464844 16.371094 222.382812 16.621094 C 222.296875 16.871094 221.671875 18.289062 221.507812 18.746094 C 221.382812 18.996094 221.382812 18.996094 221.214844 19.453125 C 221.132812 19.664062 221.046875 19.828125 221.046875 20.039062 C 221.046875 20.746094 221.714844 21.246094 222.507812 21.246094 C 223.882812 21.246094 224.632812 19.496094 224.632812 19.164062 Z M 224.632812 19.164062 "/>
<path fill="none" stroke-width="0.39848" stroke-linecap="butt" stroke-linejoin="miter" stroke="rgb(0%, 0%, 0%)" stroke-opacity="1" stroke-miterlimit="10" d="M -21.825638 9.347313 L -21.825638 -9.144875 " transform="matrix(2.666667, 0, 0, -2.666667, 212.99467, 75.738668)"/>
<path fill="none" stroke-width="0.39848" stroke-linecap="round" stroke-linejoin="round" stroke="rgb(0%, 0%, 0%)" stroke-opacity="1" stroke-miterlimit="10" d="M -2.072426 2.390587 C -1.693031 0.956505 -0.849281 0.281212 0.00179291 -0.000038147 C -0.849281 -0.278358 -1.693031 -0.958046 -2.072426 -2.390663 " transform="matrix(0, 2.666667, 2.666667, 0, 154.79307, 100.651469)"/>
<path fill-rule="nonzero" fill="rgb(0%, 0%, 0%)" fill-opacity="1" d="M 136.476562 76.042969 C 138.183594 74.292969 138.851562 71.792969 138.851562 71.628906 C 138.851562 71.378906 138.644531 71.378906 138.558594 71.378906 C 138.308594 71.378906 138.308594 71.417969 138.183594 71.835938 C 137.851562 73.042969 137.226562 74.210938 136.433594 75.210938 C 136.433594 74.917969 136.394531 73.667969 136.351562 73.503906 C 136.058594 71.667969 134.683594 70.460938 132.808594 70.460938 C 130.101562 70.460938 127.476562 73.003906 127.476562 75.628906 C 127.476562 77.335938 128.726562 78.835938 130.851562 78.835938 C 132.558594 78.835938 134.101562 78.085938 135.144531 77.292969 C 135.601562 78.628906 136.519531 78.835938 137.101562 78.835938 C 138.183594 78.835938 138.851562 77.960938 138.851562 77.542969 C 138.851562 77.335938 138.601562 77.335938 138.519531 77.335938 C 138.269531 77.335938 138.226562 77.417969 138.183594 77.503906 C 137.933594 78.210938 137.351562 78.335938 137.144531 78.335938 C 136.894531 78.335938 136.558594 78.335938 136.476562 76.042969 Z M 135.019531 76.667969 C 133.183594 78.167969 131.644531 78.335938 130.933594 78.335938 C 129.683594 78.335938 129.019531 77.503906 129.019531 76.253906 C 129.019531 75.753906 129.269531 73.710938 130.226562 72.417969 C 131.101562 71.292969 132.144531 71.003906 132.808594 71.003906 C 134.269531 71.003906 134.726562 72.417969 134.851562 73.585938 C 134.976562 74.378906 134.933594 75.710938 135.019531 76.667969 Z M 135.019531 76.667969 "/>
<path fill-rule="nonzero" fill="rgb(0%, 0%, 0%)" fill-opacity="1" d="M 145.371094 73.035156 C 145.371094 72.703125 145.164062 72.453125 144.789062 72.453125 C 144.414062 72.453125 143.996094 72.828125 143.996094 73.246094 C 143.996094 73.621094 144.289062 73.828125 144.582031 73.828125 C 144.996094 73.828125 145.371094 73.453125 145.371094 73.035156 Z M 145.996094 79.410156 C 145.996094 79.246094 145.789062 79.246094 145.746094 79.246094 C 145.496094 79.246094 145.496094 79.285156 145.414062 79.535156 C 145.207031 80.246094 144.582031 81.035156 143.914062 81.035156 C 143.621094 81.035156 143.539062 80.828125 143.539062 80.535156 C 143.539062 80.246094 143.582031 80.078125 143.707031 79.828125 C 143.789062 79.578125 143.914062 79.328125 143.996094 79.121094 C 144.039062 78.996094 144.539062 77.785156 144.746094 77.285156 C 144.832031 77.035156 144.914062 76.828125 144.914062 76.621094 C 144.914062 75.996094 144.289062 75.453125 143.457031 75.453125 C 142.082031 75.453125 141.332031 77.160156 141.332031 77.496094 C 141.332031 77.703125 141.539062 77.703125 141.621094 77.703125 C 141.832031 77.703125 141.832031 77.621094 141.914062 77.453125 C 142.207031 76.496094 142.832031 75.910156 143.414062 75.910156 C 143.664062 75.910156 143.832031 76.035156 143.832031 76.410156 C 143.832031 76.453125 143.832031 76.621094 143.746094 76.871094 C 143.664062 77.121094 143.039062 78.535156 142.871094 78.996094 C 142.746094 79.246094 142.746094 79.246094 142.582031 79.703125 C 142.496094 79.910156 142.414062 80.078125 142.414062 80.285156 C 142.414062 80.996094 143.082031 81.496094 143.871094 81.496094 C 145.246094 81.496094 145.996094 79.746094 145.996094 79.410156 Z M 145.996094 79.410156 "/>
<path fill="none" stroke-width="0.39848" stroke-linecap="butt" stroke-linejoin="miter" stroke="rgb(0%, 0%, 0%)" stroke-opacity="1" stroke-miterlimit="10" d="M 21.826706 7.992332 L 21.826706 -9.144875 " transform="matrix(2.666667, 0, 0, -2.666667, 212.99467, 75.738668)"/>
<path fill="none" stroke-width="0.39848" stroke-linecap="round" stroke-linejoin="round" stroke="rgb(0%, 0%, 0%)" stroke-opacity="1" stroke-miterlimit="10" d="M -2.072426 2.391731 C -1.693031 0.957649 -0.849281 0.277962 0.00179291 0.00110626 C -0.849281 -0.280144 -1.693031 -0.956902 -2.072426 -2.389519 " transform="matrix(0, 2.666667, 2.666667, 0, 271.196269, 100.651469)"/>
<path fill-rule="nonzero" fill="rgb(0%, 0%, 0%)" fill-opacity="1" d="M 287.621094 76.5625 C 289.328125 74.8125 289.996094 72.3125 289.996094 72.144531 C 289.996094 71.894531 289.785156 71.894531 289.703125 71.894531 C 289.453125 71.894531 289.453125 71.9375 289.328125 72.351562 C 288.996094 73.5625 288.371094 74.726562 287.578125 75.726562 C 287.578125 75.4375 287.535156 74.1875 287.496094 74.019531 C 287.203125 72.1875 285.828125 70.976562 283.953125 70.976562 C 281.246094 70.976562 278.621094 73.519531 278.621094 76.144531 C 278.621094 77.851562 279.871094 79.351562 281.996094 79.351562 C 283.703125 79.351562 285.246094 78.601562 286.285156 77.8125 C 286.746094 79.144531 287.660156 79.351562 288.246094 79.351562 C 289.328125 79.351562 289.996094 78.476562 289.996094 78.0625 C 289.996094 77.851562 289.746094 77.851562 289.660156 77.851562 C 289.410156 77.851562 289.371094 77.9375 289.328125 78.019531 C 289.078125 78.726562 288.496094 78.851562 288.285156 78.851562 C 288.035156 78.851562 287.703125 78.851562 287.621094 76.5625 Z M 286.160156 77.1875 C 284.328125 78.6875 282.785156 78.851562 282.078125 78.851562 C 280.828125 78.851562 280.160156 78.019531 280.160156 76.769531 C 280.160156 76.269531 280.410156 74.226562 281.371094 72.9375 C 282.246094 71.8125 283.285156 71.519531 283.953125 71.519531 C 285.410156 71.519531 285.871094 72.9375 285.996094 74.101562 C 286.121094 74.894531 286.078125 76.226562 286.160156 77.1875 Z M 286.160156 77.1875 "/>
<path fill-rule="nonzero" fill="rgb(0%, 0%, 0%)" fill-opacity="1" d="M 298.058594 73.554688 C 298.058594 73.261719 297.808594 72.96875 297.476562 72.96875 C 297.058594 72.96875 296.640625 73.386719 296.640625 73.761719 C 296.640625 74.09375 296.890625 74.34375 297.226562 74.34375 C 297.683594 74.34375 298.058594 73.929688 298.058594 73.554688 Z M 295.140625 82.429688 C 294.890625 83.46875 294.058594 84.136719 293.265625 84.136719 C 293.015625 84.136719 292.890625 84.09375 292.765625 84.054688 C 293.101562 83.84375 293.183594 83.511719 293.183594 83.34375 C 293.183594 83.136719 293.015625 82.804688 292.601562 82.804688 C 292.140625 82.804688 291.765625 83.21875 291.765625 83.636719 C 291.765625 84.21875 292.351562 84.554688 293.265625 84.554688 C 294.183594 84.554688 295.890625 84.09375 296.308594 82.46875 L 297.515625 77.679688 C 297.515625 77.554688 297.558594 77.429688 297.558594 77.261719 C 297.558594 76.511719 296.851562 75.96875 295.933594 75.96875 C 294.308594 75.96875 293.351562 77.761719 293.351562 78.011719 C 293.351562 78.21875 293.558594 78.21875 293.601562 78.21875 C 293.808594 78.21875 293.851562 78.179688 293.890625 78.011719 C 294.515625 76.71875 295.433594 76.429688 295.890625 76.429688 C 296.390625 76.429688 296.433594 76.886719 296.433594 77.136719 C 296.433594 77.304688 296.433594 77.34375 296.390625 77.46875 Z M 295.140625 82.429688 "/>
<path fill="none" stroke-width="0.39848" stroke-linecap="butt" stroke-linejoin="miter" stroke="rgb(0%, 0%, 0%)" stroke-opacity="1" stroke-miterlimit="10" d="M -33.501907 -9.245949 C -39.201614 -2.39048 -38.970169 3.272606 -33.00972 9.359032 " transform="matrix(2.666667, 0, 0, -2.666667, 212.99467, 75.738668)"/>
<path fill="none" stroke-width="0.39848" stroke-linecap="round" stroke-linejoin="round" stroke="rgb(0%, 0%, 0%)" stroke-opacity="1" stroke-miterlimit="10" d="M -2.071625 2.390152 C -1.693364 0.95576 -0.848619 0.278102 -0.000918038 -0.000755614 C -0.849026 -0.280255 -1.695925 -0.956524 -2.071823 -2.391656 " transform="matrix(1.866533, -1.904267, -1.904267, -1.866533, 125.344025, 50.403091)"/>
<path fill-rule="nonzero" fill="rgb(0%, 0%, 0%)" fill-opacity="1" d="M 26.539062 66.9375 L 25 66.9375 L 25 79.851562 L 26.625 79.851562 L 26.625 78.976562 C 27.039062 79.351562 27.914062 80.019531 29.25 80.019531 C 31.289062 80.019531 32.914062 78.144531 32.914062 75.726562 C 32.914062 73.476562 31.664062 71.4375 29.789062 71.4375 C 28.625 71.4375 27.5 71.769531 26.539062 72.476562 Z M 26.625 74.019531 C 26.625 73.6875 26.625 73.476562 27.25 73.0625 C 27.539062 72.894531 28.039062 72.644531 28.664062 72.644531 C 29.914062 72.644531 31.332031 73.476562 31.332031 75.726562 C 31.332031 77.976562 29.789062 78.8125 28.457031 78.8125 C 27.789062 78.8125 27.125 78.476562 26.625 77.644531 Z M 26.625 74.019531 "/>
<path fill-rule="nonzero" fill="rgb(0%, 0%, 0%)" fill-opacity="1" d="M 41.523438 74.519531 C 41.523438 72.601562 40.066406 71.3125 38.230469 71.3125 C 37.066406 71.3125 36.191406 71.5625 35.148438 72.101562 L 35.230469 73.476562 C 35.855469 73.0625 36.773438 72.519531 38.230469 72.519531 C 39.066406 72.519531 39.898438 73.144531 39.898438 74.519531 L 39.898438 75.269531 C 37.148438 75.351562 34.441406 75.9375 34.441406 77.644531 C 34.441406 78.601562 35.066406 80.019531 36.691406 80.019531 C 37.523438 80.019531 38.980469 79.851562 39.980469 79.144531 L 39.980469 79.851562 L 41.523438 79.851562 Z M 39.898438 77.226562 C 39.898438 77.601562 39.898438 78.0625 39.273438 78.476562 C 38.648438 78.8125 37.941406 78.8125 37.730469 78.8125 C 36.691406 78.8125 35.941406 78.351562 35.941406 77.644531 C 35.941406 76.4375 39.066406 76.351562 39.898438 76.3125 Z M 39.898438 77.226562 "/>
<path fill-rule="nonzero" fill="rgb(0%, 0%, 0%)" fill-opacity="1" d="M 49.882812 71.894531 C 48.589844 71.394531 47.675781 71.3125 47.007812 71.3125 C 46.550781 71.3125 43.757812 71.3125 43.757812 73.8125 C 43.757812 74.6875 44.214844 75.144531 44.464844 75.394531 C 45.132812 76.019531 45.882812 76.1875 46.882812 76.351562 C 47.757812 76.519531 48.757812 76.726562 48.757812 77.601562 C 48.757812 78.769531 47.214844 78.769531 46.964844 78.769531 C 45.757812 78.769531 44.632812 78.351562 43.925781 77.8125 L 43.632812 79.226562 C 44.300781 79.519531 45.425781 80.019531 46.964844 80.019531 C 47.800781 80.019531 48.589844 79.894531 49.300781 79.394531 C 49.964844 78.894531 50.214844 78.0625 50.214844 77.4375 C 50.214844 77.101562 50.175781 76.394531 49.382812 75.6875 C 48.714844 75.0625 48.050781 74.9375 47.132812 74.769531 C 46.050781 74.5625 45.175781 74.394531 45.175781 73.5625 C 45.175781 72.519531 46.550781 72.519531 46.839844 72.519531 C 47.882812 72.519531 48.714844 72.726562 49.632812 73.226562 Z M 49.882812 71.894531 "/>
<path fill-rule="nonzero" fill="rgb(0%, 0%, 0%)" fill-opacity="1" d="M 58.660156 77.8125 C 57.617188 78.5625 56.453125 78.8125 55.660156 78.8125 C 54.035156 78.8125 52.785156 77.476562 52.742188 75.769531 L 58.828125 75.769531 C 58.828125 74.9375 58.742188 73.6875 58.035156 72.644531 C 57.367188 71.6875 56.242188 71.3125 55.328125 71.3125 C 53.078125 71.3125 51.328125 73.3125 51.328125 75.6875 C 51.328125 78.0625 53.160156 80.019531 55.617188 80.019531 C 56.703125 80.019531 57.828125 79.726562 58.742188 79.144531 Z M 52.867188 74.6875 C 53.285156 73.1875 54.410156 72.5625 55.328125 72.5625 C 56.160156 72.5625 57.367188 72.9375 57.703125 74.6875 Z M 52.867188 74.6875 "/>
<path fill-rule="nonzero" fill="rgb(0%, 0%, 0%)" fill-opacity="1" d="M 61.800781 75.644531 C 62.382812 75.644531 62.382812 75.226562 62.382812 75.226562 C 62.382812 75.019531 62.257812 74.726562 61.800781 74.726562 L 61.800781 72.351562 C 61.800781 72.101562 61.800781 71.644531 61.339844 71.644531 C 60.882812 71.644531 60.882812 72.101562 60.882812 72.351562 L 60.882812 78.019531 C 60.882812 78.3125 60.882812 78.769531 61.339844 78.769531 C 61.800781 78.769531 61.800781 78.3125 61.800781 78.019531 Z M 61.800781 75.644531 "/>
<path fill-rule="nonzero" fill="rgb(0%, 0%, 0%)" fill-opacity="1" d="M 76.550781 75.644531 C 74.214844 77.351562 73.925781 79.8125 73.925781 79.8125 C 73.925781 80.101562 74.089844 80.101562 74.339844 80.101562 C 74.675781 80.101562 74.757812 80.101562 74.839844 79.769531 C 74.964844 79.3125 75.257812 78.144531 76.214844 77.101562 C 77.300781 75.976562 78.214844 75.6875 79.007812 75.4375 C 79.089844 75.394531 79.175781 75.3125 79.175781 75.226562 C 79.175781 75.019531 79.089844 74.976562 78.839844 74.894531 C 76.175781 74.0625 75.214844 72.144531 74.800781 70.519531 C 74.757812 70.3125 74.589844 70.3125 74.339844 70.3125 C 74.089844 70.3125 73.925781 70.3125 73.925781 70.5625 C 73.925781 70.601562 74.089844 71.851562 75.007812 73.144531 C 75.425781 73.769531 75.964844 74.3125 76.550781 74.726562 L 61.632812 74.726562 C 61.339844 74.726562 60.882812 74.726562 60.882812 75.1875 C 60.882812 75.644531 61.339844 75.644531 61.632812 75.644531 Z M 76.550781 75.644531 "/>
<path fill-rule="nonzero" fill="rgb(0%, 0%, 0%)" fill-opacity="1" d="M 90.980469 72.769531 L 92.730469 70.976562 C 95.105469 68.644531 95.855469 67.9375 97.523438 67.8125 C 97.773438 67.8125 97.980469 67.8125 97.980469 67.4375 C 97.980469 67.226562 97.773438 67.144531 97.730469 67.144531 C 97.191406 67.144531 96.523438 67.226562 95.980469 67.226562 C 95.480469 67.226562 94.316406 67.144531 93.816406 67.144531 C 93.691406 67.144531 93.441406 67.226562 93.441406 67.5625 C 93.441406 67.601562 93.441406 67.8125 93.730469 67.8125 C 93.898438 67.851562 94.355469 67.894531 94.355469 68.3125 C 94.355469 68.5625 94.066406 68.851562 93.898438 69.0625 C 93.730469 69.1875 91.398438 71.476562 90.691406 72.1875 L 88.816406 68.5625 C 88.773438 68.476562 88.730469 68.351562 88.730469 68.3125 C 88.730469 68.144531 89.066406 67.851562 89.730469 67.8125 C 89.855469 67.8125 90.105469 67.8125 90.105469 67.4375 C 90.105469 67.394531 90.105469 67.144531 89.773438 67.144531 C 89.398438 67.144531 88.941406 67.226562 88.566406 67.226562 C 88.148438 67.226562 87.730469 67.226562 87.355469 67.226562 C 87.023438 67.226562 86.566406 67.226562 86.230469 67.226562 C 85.941406 67.1875 85.523438 67.144531 85.230469 67.144531 C 85.148438 67.144531 84.855469 67.144531 84.855469 67.5625 C 84.855469 67.8125 85.105469 67.8125 85.398438 67.8125 C 86.480469 67.8125 86.566406 68.019531 86.730469 68.394531 L 89.355469 73.519531 L 88.316406 74.5625 C 87.941406 74.894531 87.066406 75.726562 86.730469 76.0625 C 84.480469 78.3125 83.730469 79.101562 82.023438 79.1875 C 81.773438 79.1875 81.566406 79.1875 81.566406 79.601562 C 81.566406 79.6875 81.648438 79.851562 81.855469 79.851562 C 82.355469 79.851562 83.023438 79.769531 83.566406 79.769531 C 83.898438 79.769531 84.355469 79.769531 84.648438 79.8125 C 84.980469 79.8125 85.398438 79.851562 85.730469 79.851562 C 85.816406 79.851562 86.105469 79.851562 86.105469 79.476562 C 86.105469 79.1875 85.898438 79.1875 85.773438 79.1875 C 85.605469 79.144531 85.191406 79.101562 85.191406 78.726562 C 85.191406 78.4375 85.441406 78.1875 85.855469 77.769531 L 89.605469 74.0625 L 91.855469 78.476562 C 91.980469 78.644531 91.980469 78.6875 91.980469 78.726562 C 91.980469 78.8125 91.648438 79.144531 90.980469 79.1875 C 90.816406 79.1875 90.605469 79.1875 90.605469 79.601562 C 90.605469 79.601562 90.605469 79.851562 90.898438 79.851562 C 91.316406 79.851562 91.773438 79.8125 92.148438 79.8125 C 92.523438 79.8125 92.980469 79.769531 93.355469 79.769531 C 93.691406 79.769531 94.105469 79.769531 94.441406 79.8125 C 94.773438 79.8125 95.148438 79.851562 95.441406 79.851562 C 95.566406 79.851562 95.855469 79.851562 95.855469 79.4375 C 95.855469 79.1875 95.605469 79.1875 95.316406 79.1875 C 94.230469 79.1875 94.148438 78.976562 93.980469 78.644531 Z M 90.980469 72.769531 "/>
<path fill-rule="nonzero" fill="rgb(0%, 0%, 0%)" fill-opacity="1" d="M 103.320312 74.21875 C 103.320312 73.886719 103.109375 73.636719 102.734375 73.636719 C 102.359375 73.636719 101.945312 74.011719 101.945312 74.429688 C 101.945312 74.804688 102.234375 75.011719 102.527344 75.011719 C 102.945312 75.011719 103.320312 74.636719 103.320312 74.21875 Z M 103.945312 80.59375 C 103.945312 80.429688 103.734375 80.429688 103.695312 80.429688 C 103.445312 80.429688 103.445312 80.46875 103.359375 80.71875 C 103.152344 81.429688 102.527344 82.21875 101.859375 82.21875 C 101.570312 82.21875 101.484375 82.011719 101.484375 81.71875 C 101.484375 81.429688 101.527344 81.261719 101.652344 81.011719 C 101.734375 80.761719 101.859375 80.511719 101.945312 80.304688 C 101.984375 80.179688 102.484375 78.96875 102.695312 78.46875 C 102.777344 78.21875 102.859375 78.011719 102.859375 77.804688 C 102.859375 77.179688 102.234375 76.636719 101.402344 76.636719 C 100.027344 76.636719 99.277344 78.34375 99.277344 78.679688 C 99.277344 78.886719 99.484375 78.886719 99.570312 78.886719 C 99.777344 78.886719 99.777344 78.804688 99.859375 78.636719 C 100.152344 77.679688 100.777344 77.09375 101.359375 77.09375 C 101.609375 77.09375 101.777344 77.21875 101.777344 77.59375 C 101.777344 77.636719 101.777344 77.804688 101.695312 78.054688 C 101.609375 78.304688 100.984375 79.71875 100.820312 80.179688 C 100.695312 80.429688 100.695312 80.429688 100.527344 80.886719 C 100.445312 81.09375 100.359375 81.261719 100.359375 81.46875 C 100.359375 82.179688 101.027344 82.679688 101.820312 82.679688 C 103.195312 82.679688 103.945312 80.929688 103.945312 80.59375 Z M 103.945312 80.59375 "/>
<path fill="none" stroke-width="0.39848" stroke-linecap="butt" stroke-linejoin="miter" stroke="rgb(0%, 0%, 0%)" stroke-opacity="1" stroke-miterlimit="10" d="M -11.756302 -19.007668 L 11.357468 -19.007668 " transform="matrix(2.666667, 0, 0, -2.666667, 212.99467, 75.738668)"/>
<path fill="none" stroke-width="0.39848" stroke-linecap="round" stroke-linejoin="round" stroke="rgb(0%, 0%, 0%)" stroke-opacity="1" stroke-miterlimit="10" d="M -2.069939 2.392647 C -1.694939 0.95417 -0.851189 0.278877 -0.000114441 0.00202179 C -0.851189 -0.279228 -1.694939 -0.955986 -2.069939 -2.388603 " transform="matrix(2.666667, 0, 0, -2.666667, 243.812805, 126.431173)"/>
<path fill-rule="nonzero" fill="rgb(0%, 0%, 0%)" fill-opacity="1" d="M 180.800781 132.71875 C 177.300781 135.175781 176.34375 139.132812 176.34375 141.96875 C 176.34375 144.59375 177.136719 148.675781 180.800781 151.257812 C 180.96875 151.257812 181.175781 151.257812 181.175781 151.050781 C 181.175781 150.925781 181.136719 150.882812 181.011719 150.757812 C 178.511719 148.507812 177.636719 145.382812 177.636719 142.007812 C 177.636719 136.96875 179.550781 134.507812 181.050781 133.132812 C 181.136719 133.050781 181.175781 133.007812 181.175781 132.925781 C 181.175781 132.71875 180.96875 132.71875 180.800781 132.71875 Z M 180.800781 132.71875 "/>
<path fill-rule="nonzero" fill="rgb(0%, 0%, 0%)" fill-opacity="1" d="M 196.355469 142.425781 C 196.648438 142.425781 197.105469 142.425781 197.105469 142.007812 C 197.105469 141.507812 196.648438 141.507812 196.355469 141.507812 L 185.273438 141.507812 C 184.980469 141.507812 184.523438 141.507812 184.523438 141.96875 C 184.523438 142.425781 184.9375 142.425781 185.273438 142.425781 Z M 196.355469 142.425781 "/>
<path fill-rule="nonzero" fill="rgb(0%, 0%, 0%)" fill-opacity="1" d="M 200.792969 132.71875 C 200.667969 132.71875 200.457031 132.71875 200.457031 132.925781 C 200.457031 133.007812 200.5 133.050781 200.625 133.21875 C 202.207031 134.675781 204 137.175781 204 141.96875 C 204 145.84375 202.792969 148.800781 200.792969 150.59375 C 200.457031 150.925781 200.457031 150.925781 200.457031 151.050781 C 200.457031 151.132812 200.5 151.257812 200.667969 151.257812 C 200.917969 151.257812 202.667969 150.050781 203.917969 147.71875 C 204.707031 146.175781 205.25 144.175781 205.25 142.007812 C 205.25 139.382812 204.457031 135.300781 200.792969 132.71875 Z M 200.792969 132.71875 "/>
<path fill-rule="nonzero" fill="rgb(0%, 0%, 0%)" fill-opacity="1" d="M 216.003906 142.425781 L 221.710938 142.425781 C 221.960938 142.425781 222.378906 142.425781 222.378906 142.007812 C 222.378906 141.507812 221.960938 141.507812 221.710938 141.507812 L 216.003906 141.507812 L 216.003906 135.800781 C 216.003906 135.59375 216.003906 135.132812 215.585938 135.132812 C 215.128906 135.132812 215.128906 135.550781 215.128906 135.800781 L 215.128906 141.507812 L 209.417969 141.507812 C 209.167969 141.507812 208.710938 141.507812 208.710938 141.96875 C 208.710938 142.425781 209.128906 142.425781 209.417969 142.425781 L 215.128906 142.425781 L 215.128906 148.132812 C 215.128906 148.382812 215.128906 148.84375 215.542969 148.84375 C 216.003906 148.84375 216.003906 148.382812 216.003906 148.132812 Z M 216.003906 142.425781 "/>
<path fill-rule="nonzero" fill="rgb(0%, 0%, 0%)" fill-opacity="1" d="M 224.738281 149.632812 C 224.65625 149.882812 224.65625 150.007812 224.65625 150.007812 C 224.65625 150.425781 224.988281 150.59375 225.28125 150.59375 C 225.988281 150.59375 226.113281 150.050781 226.238281 149.46875 C 226.488281 148.507812 227.03125 146.382812 227.195312 145.675781 C 227.363281 145.925781 227.988281 146.800781 229.238281 146.800781 C 231.65625 146.800781 234.15625 144.300781 234.15625 141.59375 C 234.15625 139.59375 232.863281 138.425781 231.195312 138.425781 C 229.40625 138.425781 227.15625 140.050781 226.488281 142.675781 Z M 229.238281 146.300781 C 227.863281 146.300781 227.445312 144.925781 227.445312 144.675781 C 227.445312 144.632812 227.570312 144.21875 227.613281 144.007812 C 228.195312 141.71875 228.28125 141.300781 228.820312 140.46875 C 229.488281 139.507812 230.445312 138.96875 231.15625 138.96875 C 231.945312 138.96875 232.65625 139.507812 232.65625 140.84375 C 232.65625 141.675781 232.15625 143.757812 231.613281 144.675781 C 230.738281 146.007812 229.820312 146.300781 229.238281 146.300781 Z M 229.238281 146.300781 "/>
<path fill-rule="nonzero" fill="rgb(0%, 0%, 0%)" fill-opacity="1" d="M 241.550781 141 C 241.550781 140.710938 241.300781 140.417969 240.96875 140.417969 C 240.550781 140.417969 240.136719 140.835938 240.136719 141.210938 C 240.136719 141.542969 240.386719 141.792969 240.71875 141.792969 C 241.175781 141.792969 241.550781 141.375 241.550781 141 Z M 238.636719 149.875 C 238.386719 150.917969 237.550781 151.585938 236.761719 151.585938 C 236.511719 151.585938 236.386719 151.542969 236.261719 151.5 C 236.59375 151.292969 236.675781 150.960938 236.675781 150.792969 C 236.675781 150.585938 236.511719 150.25 236.09375 150.25 C 235.636719 150.25 235.261719 150.667969 235.261719 151.085938 C 235.261719 151.667969 235.84375 152 236.761719 152 C 237.675781 152 239.386719 151.542969 239.800781 149.917969 L 241.011719 145.125 C 241.011719 145 241.050781 144.875 241.050781 144.710938 C 241.050781 143.960938 240.34375 143.417969 239.425781 143.417969 C 237.800781 143.417969 236.84375 145.210938 236.84375 145.460938 C 236.84375 145.667969 237.050781 145.667969 237.09375 145.667969 C 237.300781 145.667969 237.34375 145.625 237.386719 145.460938 C 238.011719 144.167969 238.925781 143.875 239.386719 143.875 C 239.886719 143.875 239.925781 144.335938 239.925781 144.585938 C 239.925781 144.75 239.925781 144.792969 239.886719 144.917969 Z M 238.636719 149.875 "/>
<path fill-rule="nonzero" fill="rgb(0%, 0%, 0%)" fill-opacity="1" d="M 248.589844 141 C 248.589844 140.667969 248.382812 140.417969 248.007812 140.417969 C 247.632812 140.417969 247.214844 140.792969 247.214844 141.210938 C 247.214844 141.585938 247.507812 141.792969 247.800781 141.792969 C 248.214844 141.792969 248.589844 141.417969 248.589844 141 Z M 249.214844 147.375 C 249.214844 147.210938 249.007812 147.210938 248.964844 147.210938 C 248.714844 147.210938 248.714844 147.25 248.632812 147.5 C 248.425781 148.210938 247.800781 149 247.132812 149 C 246.839844 149 246.757812 148.792969 246.757812 148.5 C 246.757812 148.210938 246.800781 148.042969 246.925781 147.792969 C 247.007812 147.542969 247.132812 147.292969 247.214844 147.085938 C 247.257812 146.960938 247.757812 145.75 247.964844 145.25 C 248.050781 145 248.132812 144.792969 248.132812 144.585938 C 248.132812 143.960938 247.507812 143.417969 246.675781 143.417969 C 245.300781 143.417969 244.550781 145.125 244.550781 145.460938 C 244.550781 145.667969 244.757812 145.667969 244.839844 145.667969 C 245.050781 145.667969 245.050781 145.585938 245.132812 145.417969 C 245.425781 144.460938 246.050781 143.875 246.632812 143.875 C 246.882812 143.875 247.050781 144 247.050781 144.375 C 247.050781 144.417969 247.050781 144.585938 246.964844 144.835938 C 246.882812 145.085938 246.257812 146.5 246.089844 146.960938 C 245.964844 147.210938 245.964844 147.210938 245.800781 147.667969 C 245.714844 147.875 245.632812 148.042969 245.632812 148.25 C 245.632812 148.960938 246.300781 149.460938 247.089844 149.460938 C 248.464844 149.460938 249.214844 147.710938 249.214844 147.375 Z M 249.214844 147.375 "/>
<path fill="none" stroke-width="0.39848" stroke-linecap="butt" stroke-linejoin="miter" stroke="rgb(0%, 0%, 0%)" stroke-opacity="1" stroke-miterlimit="10" d="M 33.505905 -9.489113 C 39.439987 -3.304543 39.396042 1.952782 33.653854 7.765282 " transform="matrix(2.666667, 0, 0, -2.666667, 212.99467, 75.738668)"/>
<path fill="none" stroke-width="0.39848" stroke-linecap="round" stroke-linejoin="round" stroke="rgb(0%, 0%, 0%)" stroke-opacity="1" stroke-miterlimit="10" d="M -2.073162 2.39224 C -1.695119 0.957659 -0.851125 0.277796 0.00194901 0.000937809 C -0.850009 -0.277424 -1.692414 -0.956612 -2.073657 -2.392444 " transform="matrix(-1.874667, -1.89632, -1.89632, 1.874667, 302.368713, 54.658188)"/>
<path fill-rule="nonzero" fill="rgb(0%, 0%, 0%)" fill-opacity="1" d="M 323.507812 68.492188 L 321.964844 68.492188 L 321.964844 81.40625 L 323.589844 81.40625 L 323.589844 80.53125 C 324.007812 80.90625 324.882812 81.574219 326.214844 81.574219 C 328.257812 81.574219 329.882812 79.699219 329.882812 77.28125 C 329.882812 75.03125 328.632812 72.992188 326.757812 72.992188 C 325.589844 72.992188 324.464844 73.324219 323.507812 74.03125 Z M 323.589844 75.574219 C 323.589844 75.242188 323.589844 75.03125 324.214844 74.617188 C 324.507812 74.449219 325.007812 74.199219 325.632812 74.199219 C 326.882812 74.199219 328.296875 75.03125 328.296875 77.28125 C 328.296875 79.53125 326.757812 80.367188 325.421875 80.367188 C 324.757812 80.367188 324.089844 80.03125 323.589844 79.199219 Z M 323.589844 75.574219 "/>
<path fill-rule="nonzero" fill="rgb(0%, 0%, 0%)" fill-opacity="1" d="M 338.488281 76.074219 C 338.488281 74.15625 337.03125 72.867188 335.199219 72.867188 C 334.03125 72.867188 333.15625 73.117188 332.113281 73.65625 L 332.199219 75.03125 C 332.824219 74.617188 333.738281 74.074219 335.199219 74.074219 C 336.03125 74.074219 336.863281 74.699219 336.863281 76.074219 L 336.863281 76.824219 C 334.113281 76.90625 331.40625 77.492188 331.40625 79.199219 C 331.40625 80.15625 332.03125 81.574219 333.65625 81.574219 C 334.488281 81.574219 335.949219 81.40625 336.949219 80.699219 L 336.949219 81.40625 L 338.488281 81.40625 Z M 336.863281 78.78125 C 336.863281 79.15625 336.863281 79.617188 336.238281 80.03125 C 335.613281 80.367188 334.90625 80.367188 334.699219 80.367188 C 333.65625 80.367188 332.90625 79.90625 332.90625 79.199219 C 332.90625 77.992188 336.03125 77.90625 336.863281 77.867188 Z M 336.863281 78.78125 "/>
<path fill-rule="nonzero" fill="rgb(0%, 0%, 0%)" fill-opacity="1" d="M 346.847656 73.449219 C 345.558594 72.949219 344.640625 72.867188 343.972656 72.867188 C 343.515625 72.867188 340.722656 72.867188 340.722656 75.367188 C 340.722656 76.242188 341.183594 76.699219 341.433594 76.949219 C 342.097656 77.574219 342.847656 77.742188 343.847656 77.90625 C 344.722656 78.074219 345.722656 78.28125 345.722656 79.15625 C 345.722656 80.324219 344.183594 80.324219 343.933594 80.324219 C 342.722656 80.324219 341.597656 79.90625 340.890625 79.367188 L 340.597656 80.78125 C 341.265625 81.074219 342.390625 81.574219 343.933594 81.574219 C 344.765625 81.574219 345.558594 81.449219 346.265625 80.949219 C 346.933594 80.449219 347.183594 79.617188 347.183594 78.992188 C 347.183594 78.65625 347.140625 77.949219 346.347656 77.242188 C 345.683594 76.617188 345.015625 76.492188 344.097656 76.324219 C 343.015625 76.117188 342.140625 75.949219 342.140625 75.117188 C 342.140625 74.074219 343.515625 74.074219 343.808594 74.074219 C 344.847656 74.074219 345.683594 74.28125 346.597656 74.78125 Z M 346.847656 73.449219 "/>
<path fill-rule="nonzero" fill="rgb(0%, 0%, 0%)" fill-opacity="1" d="M 355.625 79.367188 C 354.582031 80.117188 353.417969 80.367188 352.625 80.367188 C 351 80.367188 349.75 79.03125 349.707031 77.324219 L 355.792969 77.324219 C 355.792969 76.492188 355.707031 75.242188 355 74.199219 C 354.332031 73.242188 353.207031 72.867188 352.292969 72.867188 C 350.042969 72.867188 348.292969 74.867188 348.292969 77.242188 C 348.292969 79.617188 350.125 81.574219 352.582031 81.574219 C 353.667969 81.574219 354.792969 81.28125 355.707031 80.699219 Z M 349.832031 76.242188 C 350.25 74.742188 351.375 74.117188 352.292969 74.117188 C 353.125 74.117188 354.332031 74.492188 354.667969 76.242188 Z M 349.832031 76.242188 "/>
<path fill-rule="nonzero" fill="rgb(0%, 0%, 0%)" fill-opacity="1" d="M 358.765625 77.199219 C 359.347656 77.199219 359.347656 76.78125 359.347656 76.78125 C 359.347656 76.574219 359.222656 76.28125 358.765625 76.28125 L 358.765625 73.90625 C 358.765625 73.65625 358.765625 73.199219 358.308594 73.199219 C 357.847656 73.199219 357.847656 73.65625 357.847656 73.90625 L 357.847656 79.574219 C 357.847656 79.867188 357.847656 80.324219 358.308594 80.324219 C 358.765625 80.324219 358.765625 79.867188 358.765625 79.574219 Z M 358.765625 77.199219 "/>
<path fill-rule="nonzero" fill="rgb(0%, 0%, 0%)" fill-opacity="1" d="M 373.515625 77.199219 C 371.183594 78.90625 370.890625 81.367188 370.890625 81.367188 C 370.890625 81.65625 371.058594 81.65625 371.308594 81.65625 C 371.640625 81.65625 371.722656 81.65625 371.808594 81.324219 C 371.933594 80.867188 372.222656 79.699219 373.183594 78.65625 C 374.265625 77.53125 375.183594 77.242188 375.972656 76.992188 C 376.058594 76.949219 376.140625 76.867188 376.140625 76.78125 C 376.140625 76.574219 376.058594 76.53125 375.808594 76.449219 C 373.140625 75.617188 372.183594 73.699219 371.765625 72.074219 C 371.722656 71.867188 371.558594 71.867188 371.308594 71.867188 C 371.058594 71.867188 370.890625 71.867188 370.890625 72.117188 C 370.890625 72.15625 371.058594 73.40625 371.972656 74.699219 C 372.390625 75.324219 372.933594 75.867188 373.515625 76.28125 L 358.597656 76.28125 C 358.308594 76.28125 357.847656 76.28125 357.847656 76.742188 C 357.847656 77.199219 358.308594 77.199219 358.597656 77.199219 Z M 373.515625 77.199219 "/>
<path fill-rule="nonzero" fill="rgb(0%, 0%, 0%)" fill-opacity="1" d="M 387.945312 74.324219 L 389.695312 72.53125 C 392.070312 70.199219 392.820312 69.492188 394.488281 69.367188 C 394.738281 69.367188 394.945312 69.367188 394.945312 68.992188 C 394.945312 68.78125 394.738281 68.699219 394.695312 68.699219 C 394.15625 68.699219 393.488281 68.78125 392.945312 68.78125 C 392.445312 68.78125 391.28125 68.699219 390.78125 68.699219 C 390.65625 68.699219 390.40625 68.78125 390.40625 69.117188 C 390.40625 69.15625 390.40625 69.367188 390.695312 69.367188 C 390.863281 69.40625 391.320312 69.449219 391.320312 69.867188 C 391.320312 70.117188 391.03125 70.40625 390.863281 70.617188 C 390.695312 70.742188 388.363281 73.03125 387.65625 73.742188 L 385.78125 70.117188 C 385.738281 70.03125 385.695312 69.90625 385.695312 69.867188 C 385.695312 69.699219 386.03125 69.40625 386.695312 69.367188 C 386.820312 69.367188 387.070312 69.367188 387.070312 68.992188 C 387.070312 68.949219 387.070312 68.699219 386.738281 68.699219 C 386.363281 68.699219 385.90625 68.78125 385.53125 68.78125 C 385.113281 68.78125 384.695312 68.78125 384.320312 68.78125 C 383.988281 68.78125 383.53125 68.78125 383.195312 68.78125 C 382.90625 68.742188 382.488281 68.699219 382.195312 68.699219 C 382.113281 68.699219 381.820312 68.699219 381.820312 69.117188 C 381.820312 69.367188 382.070312 69.367188 382.363281 69.367188 C 383.445312 69.367188 383.53125 69.574219 383.695312 69.949219 L 386.320312 75.074219 L 385.28125 76.117188 C 384.90625 76.449219 384.03125 77.28125 383.695312 77.617188 C 381.445312 79.867188 380.695312 80.65625 378.988281 80.742188 C 378.738281 80.742188 378.53125 80.742188 378.53125 81.15625 C 378.53125 81.242188 378.613281 81.40625 378.820312 81.40625 C 379.320312 81.40625 379.988281 81.324219 380.53125 81.324219 C 380.863281 81.324219 381.320312 81.324219 381.613281 81.367188 C 381.945312 81.367188 382.363281 81.40625 382.695312 81.40625 C 382.78125 81.40625 383.070312 81.40625 383.070312 81.03125 C 383.070312 80.742188 382.863281 80.742188 382.738281 80.742188 C 382.570312 80.699219 382.15625 80.65625 382.15625 80.28125 C 382.15625 79.992188 382.40625 79.742188 382.820312 79.324219 L 386.570312 75.617188 L 388.820312 80.03125 C 388.945312 80.199219 388.945312 80.242188 388.945312 80.28125 C 388.945312 80.367188 388.613281 80.699219 387.945312 80.742188 C 387.78125 80.742188 387.570312 80.742188 387.570312 81.15625 C 387.570312 81.15625 387.570312 81.40625 387.863281 81.40625 C 388.28125 81.40625 388.738281 81.367188 389.113281 81.367188 C 389.488281 81.367188 389.945312 81.324219 390.320312 81.324219 C 390.65625 81.324219 391.070312 81.324219 391.40625 81.367188 C 391.738281 81.367188 392.113281 81.40625 392.40625 81.40625 C 392.53125 81.40625 392.820312 81.40625 392.820312 80.992188 C 392.820312 80.742188 392.570312 80.742188 392.28125 80.742188 C 391.195312 80.742188 391.113281 80.53125 390.945312 80.199219 Z M 387.945312 74.324219 "/>
<path fill-rule="nonzero" fill="rgb(0%, 0%, 0%)" fill-opacity="1" d="M 401.828125 75.773438 C 401.828125 75.484375 401.578125 75.191406 401.242188 75.191406 C 400.828125 75.191406 400.410156 75.609375 400.410156 75.984375 C 400.410156 76.316406 400.660156 76.566406 400.992188 76.566406 C 401.453125 76.566406 401.828125 76.148438 401.828125 75.773438 Z M 398.910156 84.648438 C 398.660156 85.691406 397.828125 86.359375 397.035156 86.359375 C 396.785156 86.359375 396.660156 86.316406 396.535156 86.273438 C 396.867188 86.066406 396.953125 85.734375 396.953125 85.566406 C 396.953125 85.359375 396.785156 85.023438 396.367188 85.023438 C 395.910156 85.023438 395.535156 85.441406 395.535156 85.859375 C 395.535156 86.441406 396.117188 86.773438 397.035156 86.773438 C 397.953125 86.773438 399.660156 86.316406 400.078125 84.691406 L 401.285156 79.898438 C 401.285156 79.773438 401.328125 79.648438 401.328125 79.484375 C 401.328125 78.734375 400.617188 78.191406 399.703125 78.191406 C 398.078125 78.191406 397.117188 79.984375 397.117188 80.234375 C 397.117188 80.441406 397.328125 80.441406 397.367188 80.441406 C 397.578125 80.441406 397.617188 80.398438 397.660156 80.234375 C 398.285156 78.941406 399.203125 78.648438 399.660156 78.648438 C 400.160156 78.648438 400.203125 79.109375 400.203125 79.359375 C 400.203125 79.523438 400.203125 79.566406 400.160156 79.691406 Z M 398.910156 84.648438 "/>
</svg>
