<?xml version="1.0" encoding="UTF-8"?>
<svg xmlns="http://www.w3.org/2000/svg" xmlns:xlink="http://www.w3.org/1999/xlink" width="582.319987" height="230.933329" viewBox="0 0 582.319987 230.933329">
<defs>
<clipPath id="clip-0">
<path clip-rule="nonzero" d="M 161 63 L 379 63 L 379 230.9375 L 161 230.9375 Z M 161 63 "/>
</clipPath>
<clipPath id="clip-1">
<path clip-rule="nonzero" d="M 191 93.332031 L 349 93.332031 L 349 230 L 191 230 Z M 191 93.332031 "/>
</clipPath>
</defs>
<path fill-rule="nonzero" fill="rgb(0%, 0%, 0%)" fill-opacity="1" d="M 34.222656 24.910156 C 34.222656 24.160156 33.597656 23.535156 32.847656 23.535156 C 32.054688 23.535156 31.429688 24.160156 31.429688 24.910156 C 31.429688 25.699219 32.054688 26.324219 32.847656 26.324219 C 33.597656 26.324219 34.222656 25.699219 34.222656 24.910156 Z M 34.222656 24.910156 "/>
<path fill-rule="nonzero" fill="rgb(0%, 0%, 0%)" fill-opacity="1" d="M 45.992188 24.910156 C 45.992188 24.160156 45.367188 23.535156 44.617188 23.535156 C 43.824219 23.535156 43.199219 24.160156 43.199219 24.910156 C 43.199219 25.699219 43.824219 26.324219 44.617188 26.324219 C 45.367188 26.324219 45.992188 25.699219 45.992188 24.910156 Z M 45.992188 24.910156 "/>
<path fill-rule="nonzero" fill="rgb(0%, 0%, 0%)" fill-opacity="1" d="M 57.785156 24.910156 C 57.785156 24.160156 57.160156 23.535156 56.410156 23.535156 C 55.621094 23.535156 54.996094 24.160156 54.996094 24.910156 C 54.996094 25.699219 55.621094 26.324219 56.410156 26.324219 C 57.160156 26.324219 57.785156 25.699219 57.785156 24.910156 Z M 57.785156 24.910156 "/>
<path fill-rule="nonzero" fill="rgb(0%, 0%, 0%)" fill-opacity="1" d="M 171.421875 15.449219 C 171.671875 14.492188 171.714844 14.242188 173.714844 14.242188 C 174.296875 14.242188 174.546875 14.242188 174.546875 13.699219 C 174.546875 13.410156 174.296875 13.410156 173.839844 13.410156 L 170.339844 13.410156 C 169.628906 13.410156 169.589844 13.410156 169.296875 13.910156 L 159.589844 29.074219 L 157.503906 14.035156 C 157.421875 13.410156 157.378906 13.410156 156.671875 13.410156 L 153.046875 13.410156 C 152.546875 13.410156 152.253906 13.410156 152.253906 13.910156 C 152.253906 14.242188 152.503906 14.242188 153.003906 14.242188 C 153.378906 14.242188 153.839844 14.285156 154.171875 14.285156 C 154.589844 14.367188 154.753906 14.410156 154.753906 14.742188 C 154.753906 14.824219 154.714844 14.910156 154.628906 15.242188 L 151.253906 28.742188 C 151.003906 29.824219 150.546875 30.660156 148.378906 30.742188 C 148.253906 30.742188 147.921875 30.785156 147.921875 31.242188 C 147.921875 31.492188 148.089844 31.574219 148.296875 31.574219 C 149.128906 31.574219 150.046875 31.492188 150.964844 31.492188 C 151.839844 31.492188 152.796875 31.574219 153.671875 31.574219 C 153.796875 31.574219 154.171875 31.574219 154.171875 31.035156 C 154.171875 30.742188 153.878906 30.742188 153.671875 30.742188 C 152.171875 30.742188 151.878906 30.199219 151.878906 29.574219 C 151.878906 29.410156 151.878906 29.242188 151.964844 28.949219 L 155.589844 14.492188 L 155.628906 14.492188 L 157.921875 30.949219 C 157.964844 31.285156 158.003906 31.574219 158.296875 31.574219 C 158.589844 31.574219 158.753906 31.285156 158.878906 31.117188 L 169.628906 14.285156 L 169.671875 14.285156 L 165.839844 29.492188 C 165.589844 30.535156 165.546875 30.742188 163.421875 30.742188 C 163.003906 30.742188 162.714844 30.742188 162.714844 31.242188 C 162.714844 31.574219 163.003906 31.574219 163.089844 31.574219 C 163.839844 31.574219 165.628906 31.492188 166.378906 31.492188 C 167.464844 31.492188 168.628906 31.574219 169.714844 31.574219 C 169.878906 31.574219 170.214844 31.574219 170.214844 31.035156 C 170.214844 30.742188 169.964844 30.742188 169.464844 30.742188 C 168.503906 30.742188 167.753906 30.742188 167.753906 30.285156 C 167.753906 30.160156 167.753906 30.117188 167.878906 29.617188 Z M 171.421875 15.449219 "/>
<path fill-rule="nonzero" fill="rgb(0%, 0%, 0%)" fill-opacity="1" d="M 174.820312 34.394531 C 174.777344 34.644531 174.652344 35.101562 174.652344 35.144531 C 174.652344 35.558594 174.988281 35.726562 175.277344 35.726562 C 175.613281 35.726562 175.902344 35.519531 176.027344 35.351562 C 176.113281 35.183594 176.238281 34.558594 176.363281 34.183594 C 176.445312 33.851562 176.652344 32.976562 176.738281 32.519531 C 176.863281 32.101562 176.988281 31.683594 177.070312 31.269531 C 177.277344 30.519531 177.320312 30.351562 177.863281 29.601562 C 178.363281 28.851562 179.238281 27.894531 180.652344 27.894531 C 181.695312 27.894531 181.738281 28.851562 181.738281 29.183594 C 181.738281 30.308594 180.945312 32.351562 180.652344 33.144531 C 180.445312 33.683594 180.363281 33.851562 180.363281 34.144531 C 180.363281 35.144531 181.152344 35.726562 182.113281 35.726562 C 183.988281 35.726562 184.777344 33.183594 184.777344 32.894531 C 184.777344 32.644531 184.570312 32.644531 184.488281 32.644531 C 184.238281 32.644531 184.238281 32.769531 184.152344 32.976562 C 183.738281 34.476562 182.902344 35.226562 182.195312 35.226562 C 181.777344 35.226562 181.695312 34.976562 181.695312 34.558594 C 181.695312 34.144531 181.820312 33.894531 182.152344 33.058594 C 182.363281 32.476562 183.113281 30.519531 183.113281 29.476562 C 183.113281 27.683594 181.695312 27.351562 180.695312 27.351562 C 179.152344 27.351562 178.113281 28.308594 177.570312 29.058594 C 177.445312 27.769531 176.363281 27.351562 175.570312 27.351562 C 174.777344 27.351562 174.363281 27.933594 174.113281 28.351562 C 173.695312 29.058594 173.445312 30.101562 173.445312 30.226562 C 173.445312 30.433594 173.695312 30.433594 173.777344 30.433594 C 174.027344 30.433594 174.027344 30.394531 174.152344 29.894531 C 174.445312 28.808594 174.820312 27.894531 175.527344 27.894531 C 176.027344 27.894531 176.152344 28.308594 176.152344 28.808594 C 176.152344 29.144531 175.988281 29.851562 175.820312 30.351562 C 175.695312 30.851562 175.527344 31.601562 175.445312 32.019531 Z M 174.820312 34.394531 "/>
<path fill-rule="nonzero" fill="rgb(0%, 0%, 0%)" fill-opacity="1" d="M 199.539062 31.351562 C 199.828125 31.351562 200.289062 31.351562 200.289062 30.933594 C 200.289062 30.433594 199.828125 30.433594 199.539062 30.433594 L 188.453125 30.433594 C 188.164062 30.433594 187.703125 30.433594 187.703125 30.894531 C 187.703125 31.351562 188.121094 31.351562 188.453125 31.351562 Z M 199.539062 31.351562 "/>
<path fill-rule="nonzero" fill="rgb(0%, 0%, 0%)" fill-opacity="1" d="M 211.683594 32.183594 L 211.058594 32.183594 C 211.019531 32.601562 210.808594 33.683594 210.558594 33.851562 C 210.433594 33.976562 209.019531 33.976562 208.726562 33.976562 L 205.308594 33.976562 C 207.269531 32.269531 207.933594 31.726562 209.019531 30.851562 C 210.394531 29.769531 211.683594 28.601562 211.683594 26.851562 C 211.683594 24.601562 209.726562 23.226562 207.351562 23.226562 C 205.058594 23.226562 203.476562 24.851562 203.476562 26.558594 C 203.476562 27.476562 204.269531 27.601562 204.476562 27.601562 C 204.894531 27.601562 205.433594 27.269531 205.433594 26.601562 C 205.433594 26.269531 205.308594 25.601562 204.351562 25.601562 C 204.933594 24.308594 206.183594 23.894531 207.058594 23.894531 C 208.933594 23.894531 209.894531 25.351562 209.894531 26.851562 C 209.894531 28.476562 208.726562 29.726562 208.144531 30.394531 L 203.683594 34.851562 C 203.476562 35.019531 203.476562 35.058594 203.476562 35.558594 L 211.144531 35.558594 Z M 211.683594 32.183594 "/>
<path fill-rule="nonzero" fill="rgb(0%, 0%, 0%)" fill-opacity="1" d="M 325.511719 15.449219 C 325.761719 14.492188 325.800781 14.242188 327.800781 14.242188 C 328.386719 14.242188 328.636719 14.242188 328.636719 13.699219 C 328.636719 13.410156 328.386719 13.410156 327.925781 13.410156 L 324.425781 13.410156 C 323.71875 13.410156 323.675781 13.410156 323.386719 13.910156 L 313.675781 29.074219 L 311.59375 14.035156 C 311.511719 13.410156 311.46875 13.410156 310.761719 13.410156 L 307.136719 13.410156 C 306.636719 13.410156 306.34375 13.410156 306.34375 13.910156 C 306.34375 14.242188 306.59375 14.242188 307.09375 14.242188 C 307.46875 14.242188 307.925781 14.285156 308.261719 14.285156 C 308.675781 14.367188 308.84375 14.410156 308.84375 14.742188 C 308.84375 14.824219 308.800781 14.910156 308.71875 15.242188 L 305.34375 28.742188 C 305.09375 29.824219 304.636719 30.660156 302.46875 30.742188 C 302.34375 30.742188 302.011719 30.785156 302.011719 31.242188 C 302.011719 31.492188 302.175781 31.574219 302.386719 31.574219 C 303.21875 31.574219 304.136719 31.492188 305.050781 31.492188 C 305.925781 31.492188 306.886719 31.574219 307.761719 31.574219 C 307.886719 31.574219 308.261719 31.574219 308.261719 31.035156 C 308.261719 30.742188 307.96875 30.742188 307.761719 30.742188 C 306.261719 30.742188 305.96875 30.199219 305.96875 29.574219 C 305.96875 29.410156 305.96875 29.242188 306.050781 28.949219 L 309.675781 14.492188 L 309.71875 14.492188 L 312.011719 30.949219 C 312.050781 31.285156 312.09375 31.574219 312.386719 31.574219 C 312.675781 31.574219 312.84375 31.285156 312.96875 31.117188 L 323.71875 14.285156 L 323.761719 14.285156 L 319.925781 29.492188 C 319.675781 30.535156 319.636719 30.742188 317.511719 30.742188 C 317.09375 30.742188 316.800781 30.742188 316.800781 31.242188 C 316.800781 31.574219 317.09375 31.574219 317.175781 31.574219 C 317.925781 31.574219 319.71875 31.492188 320.46875 31.492188 C 321.550781 31.492188 322.71875 31.574219 323.800781 31.574219 C 323.96875 31.574219 324.300781 31.574219 324.300781 31.035156 C 324.300781 30.742188 324.050781 30.742188 323.550781 30.742188 C 322.59375 30.742188 321.84375 30.742188 321.84375 30.285156 C 321.84375 30.160156 321.84375 30.117188 321.96875 29.617188 Z M 325.511719 15.449219 "/>
<path fill-rule="nonzero" fill="rgb(0%, 0%, 0%)" fill-opacity="1" d="M 328.910156 34.394531 C 328.867188 34.644531 328.742188 35.101562 328.742188 35.144531 C 328.742188 35.558594 329.074219 35.726562 329.367188 35.726562 C 329.699219 35.726562 329.992188 35.519531 330.117188 35.351562 C 330.199219 35.183594 330.324219 34.558594 330.449219 34.183594 C 330.535156 33.851562 330.742188 32.976562 330.824219 32.519531 C 330.949219 32.101562 331.074219 31.683594 331.160156 31.269531 C 331.367188 30.519531 331.410156 30.351562 331.949219 29.601562 C 332.449219 28.851562 333.324219 27.894531 334.742188 27.894531 C 335.785156 27.894531 335.824219 28.851562 335.824219 29.183594 C 335.824219 30.308594 335.035156 32.351562 334.742188 33.144531 C 334.535156 33.683594 334.449219 33.851562 334.449219 34.144531 C 334.449219 35.144531 335.242188 35.726562 336.199219 35.726562 C 338.074219 35.726562 338.867188 33.183594 338.867188 32.894531 C 338.867188 32.644531 338.660156 32.644531 338.574219 32.644531 C 338.324219 32.644531 338.324219 32.769531 338.242188 32.976562 C 337.824219 34.476562 336.992188 35.226562 336.285156 35.226562 C 335.867188 35.226562 335.785156 34.976562 335.785156 34.558594 C 335.785156 34.144531 335.910156 33.894531 336.242188 33.058594 C 336.449219 32.476562 337.199219 30.519531 337.199219 29.476562 C 337.199219 27.683594 335.785156 27.351562 334.785156 27.351562 C 333.242188 27.351562 332.199219 28.308594 331.660156 29.058594 C 331.535156 27.769531 330.449219 27.351562 329.660156 27.351562 C 328.867188 27.351562 328.449219 27.933594 328.199219 28.351562 C 327.785156 29.058594 327.535156 30.101562 327.535156 30.226562 C 327.535156 30.433594 327.785156 30.433594 327.867188 30.433594 C 328.117188 30.433594 328.117188 30.394531 328.242188 29.894531 C 328.535156 28.808594 328.910156 27.894531 329.617188 27.894531 C 330.117188 27.894531 330.242188 28.308594 330.242188 28.808594 C 330.242188 29.144531 330.074219 29.851562 329.910156 30.351562 C 329.785156 30.851562 329.617188 31.601562 329.535156 32.019531 Z M 328.910156 34.394531 "/>
<path fill-rule="nonzero" fill="rgb(0%, 0%, 0%)" fill-opacity="1" d="M 357.355469 24.199219 L 352.066406 18.910156 C 351.730469 18.574219 351.691406 18.535156 351.480469 18.535156 C 351.191406 18.535156 350.941406 18.742188 350.941406 19.074219 C 350.941406 19.242188 350.980469 19.285156 351.273438 19.574219 L 356.605469 24.910156 L 351.273438 30.285156 C 350.980469 30.574219 350.941406 30.617188 350.941406 30.785156 C 350.941406 31.117188 351.191406 31.324219 351.480469 31.324219 C 351.691406 31.324219 351.730469 31.285156 352.066406 30.949219 L 357.355469 25.660156 L 362.855469 31.160156 C 362.898438 31.199219 363.066406 31.324219 363.230469 31.324219 C 363.566406 31.324219 363.773438 31.117188 363.773438 30.785156 C 363.773438 30.742188 363.773438 30.660156 363.691406 30.492188 C 363.648438 30.449219 359.441406 26.285156 358.105469 24.910156 L 362.980469 20.074219 C 363.105469 19.910156 363.523438 19.574219 363.648438 19.410156 C 363.648438 19.367188 363.773438 19.242188 363.773438 19.074219 C 363.773438 18.742188 363.566406 18.535156 363.230469 18.535156 C 363.023438 18.535156 362.941406 18.617188 362.648438 18.910156 Z M 357.355469 24.199219 "/>
<path fill-rule="nonzero" fill="rgb(0%, 0%, 0%)" fill-opacity="1" d="M 385.882812 22.574219 C 385.632812 20.910156 384.550781 19.410156 382.46875 19.410156 C 380.84375 19.410156 379.132812 19.867188 377.050781 21.910156 C 374.84375 24.117188 374.675781 26.617188 374.675781 27.410156 C 374.675781 29.074219 375.84375 32.160156 379.550781 32.160156 C 385.882812 32.160156 388.632812 23.242188 388.632812 19.410156 C 388.632812 15.199219 386.175781 12.535156 382.882812 12.535156 C 379.050781 12.535156 377.800781 15.992188 377.800781 16.742188 C 377.800781 17.117188 378.050781 17.660156 378.84375 17.660156 C 379.71875 17.660156 380.257812 16.867188 380.257812 16.285156 C 380.257812 15.324219 379.425781 15.324219 379.007812 15.324219 C 380.175781 13.367188 382.09375 13.199219 382.84375 13.199219 C 384.800781 13.199219 386.632812 14.574219 386.632812 18.035156 C 386.632812 19.074219 386.46875 20.410156 385.925781 22.574219 Z M 379.632812 31.410156 C 376.71875 31.410156 376.71875 28.660156 376.71875 28.410156 C 376.71875 27.699219 377.382812 23.992188 378.46875 22.367188 C 379.507812 20.867188 380.84375 19.992188 382.46875 19.992188 C 385.382812 19.992188 385.425781 22.992188 385.425781 23.535156 C 385.425781 25.449219 383.71875 31.410156 379.632812 31.410156 Z M 379.632812 31.410156 "/>
<path fill-rule="nonzero" fill="rgb(0%, 0%, 0%)" fill-opacity="1" d="M 400.921875 13.035156 C 400.757812 12.660156 400.671875 12.535156 400.214844 12.535156 C 399.796875 12.535156 399.714844 12.660156 399.546875 13.035156 L 390.546875 31.035156 C 390.421875 31.285156 390.421875 31.324219 390.421875 31.367188 C 390.421875 31.574219 390.589844 31.574219 391.007812 31.574219 L 409.464844 31.574219 C 409.882812 31.574219 410.046875 31.574219 410.046875 31.367188 C 410.046875 31.324219 410.046875 31.285156 409.921875 31.035156 Z M 399.382812 15.199219 L 406.546875 29.574219 L 392.214844 29.574219 Z M 399.382812 15.199219 "/>
<path fill-rule="nonzero" fill="rgb(0%, 0%, 0%)" fill-opacity="1" d="M 413.5625 20.769531 C 413.519531 21.019531 413.394531 21.476562 413.394531 21.519531 C 413.394531 21.9375 413.730469 22.101562 414.019531 22.101562 C 414.355469 22.101562 414.644531 21.894531 414.769531 21.726562 C 414.855469 21.5625 414.980469 20.9375 415.105469 20.5625 C 415.1875 20.226562 415.394531 19.351562 415.480469 18.894531 C 415.605469 18.476562 415.730469 18.0625 415.8125 17.644531 C 416.019531 16.894531 416.0625 16.726562 416.605469 15.976562 C 417.105469 15.226562 417.980469 14.269531 419.394531 14.269531 C 420.4375 14.269531 420.480469 15.226562 420.480469 15.5625 C 420.480469 16.6875 419.6875 18.726562 419.394531 19.519531 C 419.1875 20.0625 419.105469 20.226562 419.105469 20.519531 C 419.105469 21.519531 419.894531 22.101562 420.855469 22.101562 C 422.730469 22.101562 423.519531 19.5625 423.519531 19.269531 C 423.519531 19.019531 423.3125 19.019531 423.230469 19.019531 C 422.980469 19.019531 422.980469 19.144531 422.894531 19.351562 C 422.480469 20.851562 421.644531 21.601562 420.9375 21.601562 C 420.519531 21.601562 420.4375 21.351562 420.4375 20.9375 C 420.4375 20.519531 420.5625 20.269531 420.894531 19.4375 C 421.105469 18.851562 421.855469 16.894531 421.855469 15.851562 C 421.855469 14.0625 420.4375 13.726562 419.4375 13.726562 C 417.894531 13.726562 416.855469 14.6875 416.3125 15.4375 C 416.1875 14.144531 415.105469 13.726562 414.3125 13.726562 C 413.519531 13.726562 413.105469 14.3125 412.855469 14.726562 C 412.4375 15.4375 412.1875 16.476562 412.1875 16.601562 C 412.1875 16.8125 412.4375 16.8125 412.519531 16.8125 C 412.769531 16.8125 412.769531 16.769531 412.894531 16.269531 C 413.1875 15.1875 413.5625 14.269531 414.269531 14.269531 C 414.769531 14.269531 414.894531 14.6875 414.894531 15.1875 C 414.894531 15.519531 414.730469 16.226562 414.5625 16.726562 C 414.4375 17.226562 414.269531 17.976562 414.1875 18.394531 Z M 413.5625 20.769531 "/>
<path fill-rule="nonzero" fill="rgb(0%, 0%, 0%)" fill-opacity="1" d="M 537.0625 15.449219 C 537.3125 14.492188 537.355469 14.242188 539.355469 14.242188 C 539.9375 14.242188 540.1875 14.242188 540.1875 13.699219 C 540.1875 13.410156 539.9375 13.410156 539.480469 13.410156 L 535.980469 13.410156 C 535.269531 13.410156 535.230469 13.410156 534.9375 13.910156 L 525.230469 29.074219 L 523.144531 14.035156 C 523.0625 13.410156 523.019531 13.410156 522.3125 13.410156 L 518.6875 13.410156 C 518.1875 13.410156 517.894531 13.410156 517.894531 13.910156 C 517.894531 14.242188 518.144531 14.242188 518.644531 14.242188 C 519.019531 14.242188 519.480469 14.285156 519.8125 14.285156 C 520.230469 14.367188 520.394531 14.410156 520.394531 14.742188 C 520.394531 14.824219 520.355469 14.910156 520.269531 15.242188 L 516.894531 28.742188 C 516.644531 29.824219 516.1875 30.660156 514.019531 30.742188 C 513.894531 30.742188 513.5625 30.785156 513.5625 31.242188 C 513.5625 31.492188 513.730469 31.574219 513.9375 31.574219 C 514.769531 31.574219 515.6875 31.492188 516.605469 31.492188 C 517.480469 31.492188 518.4375 31.574219 519.3125 31.574219 C 519.4375 31.574219 519.8125 31.574219 519.8125 31.035156 C 519.8125 30.742188 519.519531 30.742188 519.3125 30.742188 C 517.8125 30.742188 517.519531 30.199219 517.519531 29.574219 C 517.519531 29.410156 517.519531 29.242188 517.605469 28.949219 L 521.230469 14.492188 L 521.269531 14.492188 L 523.5625 30.949219 C 523.605469 31.285156 523.644531 31.574219 523.9375 31.574219 C 524.230469 31.574219 524.394531 31.285156 524.519531 31.117188 L 535.269531 14.285156 L 535.3125 14.285156 L 531.480469 29.492188 C 531.230469 30.535156 531.1875 30.742188 529.0625 30.742188 C 528.644531 30.742188 528.355469 30.742188 528.355469 31.242188 C 528.355469 31.574219 528.644531 31.574219 528.730469 31.574219 C 529.480469 31.574219 531.269531 31.492188 532.019531 31.492188 C 533.105469 31.492188 534.269531 31.574219 535.355469 31.574219 C 535.519531 31.574219 535.855469 31.574219 535.855469 31.035156 C 535.855469 30.742188 535.605469 30.742188 535.105469 30.742188 C 534.144531 30.742188 533.394531 30.742188 533.394531 30.285156 C 533.394531 30.160156 533.394531 30.117188 533.519531 29.617188 Z M 537.0625 15.449219 "/>
<path fill-rule="nonzero" fill="rgb(0%, 0%, 0%)" fill-opacity="1" d="M 540.460938 34.394531 C 540.417969 34.644531 540.292969 35.101562 540.292969 35.144531 C 540.292969 35.558594 540.628906 35.726562 540.917969 35.726562 C 541.253906 35.726562 541.542969 35.519531 541.667969 35.351562 C 541.753906 35.183594 541.878906 34.558594 542.003906 34.183594 C 542.085938 33.851562 542.292969 32.976562 542.378906 32.519531 C 542.503906 32.101562 542.628906 31.683594 542.710938 31.269531 C 542.917969 30.519531 542.960938 30.351562 543.503906 29.601562 C 544.003906 28.851562 544.878906 27.894531 546.292969 27.894531 C 547.335938 27.894531 547.378906 28.851562 547.378906 29.183594 C 547.378906 30.308594 546.585938 32.351562 546.292969 33.144531 C 546.085938 33.683594 546.003906 33.851562 546.003906 34.144531 C 546.003906 35.144531 546.792969 35.726562 547.753906 35.726562 C 549.628906 35.726562 550.417969 33.183594 550.417969 32.894531 C 550.417969 32.644531 550.210938 32.644531 550.128906 32.644531 C 549.878906 32.644531 549.878906 32.769531 549.792969 32.976562 C 549.378906 34.476562 548.542969 35.226562 547.835938 35.226562 C 547.417969 35.226562 547.335938 34.976562 547.335938 34.558594 C 547.335938 34.144531 547.460938 33.894531 547.792969 33.058594 C 548.003906 32.476562 548.753906 30.519531 548.753906 29.476562 C 548.753906 27.683594 547.335938 27.351562 546.335938 27.351562 C 544.792969 27.351562 543.753906 28.308594 543.210938 29.058594 C 543.085938 27.769531 542.003906 27.351562 541.210938 27.351562 C 540.417969 27.351562 540.003906 27.933594 539.753906 28.351562 C 539.335938 29.058594 539.085938 30.101562 539.085938 30.226562 C 539.085938 30.433594 539.335938 30.433594 539.417969 30.433594 C 539.667969 30.433594 539.667969 30.394531 539.792969 29.894531 C 540.085938 28.808594 540.460938 27.894531 541.167969 27.894531 C 541.667969 27.894531 541.792969 28.308594 541.792969 28.808594 C 541.792969 29.144531 541.628906 29.851562 541.460938 30.351562 C 541.335938 30.851562 541.167969 31.601562 541.085938 32.019531 Z M 540.460938 34.394531 "/>
<path fill-rule="nonzero" fill="rgb(0%, 0%, 0%)" fill-opacity="1" d="M 34.222656 116.695312 C 34.222656 115.945312 33.597656 115.320312 32.847656 115.320312 C 32.054688 115.320312 31.429688 115.945312 31.429688 116.695312 C 31.429688 117.488281 32.054688 118.113281 32.847656 118.113281 C 33.597656 118.113281 34.222656 117.488281 34.222656 116.695312 Z M 34.222656 116.695312 "/>
<path fill-rule="nonzero" fill="rgb(0%, 0%, 0%)" fill-opacity="1" d="M 45.992188 116.695312 C 45.992188 115.945312 45.367188 115.320312 44.617188 115.320312 C 43.824219 115.320312 43.199219 115.945312 43.199219 116.695312 C 43.199219 117.488281 43.824219 118.113281 44.617188 118.113281 C 45.367188 118.113281 45.992188 117.488281 45.992188 116.695312 Z M 45.992188 116.695312 "/>
<path fill-rule="nonzero" fill="rgb(0%, 0%, 0%)" fill-opacity="1" d="M 57.785156 116.695312 C 57.785156 115.945312 57.160156 115.320312 56.410156 115.320312 C 55.621094 115.320312 54.996094 115.945312 54.996094 116.695312 C 54.996094 117.488281 55.621094 118.113281 56.410156 118.113281 C 57.160156 118.113281 57.785156 117.488281 57.785156 116.695312 Z M 57.785156 116.695312 "/>
<path fill-rule="nonzero" fill="rgb(0%, 0%, 0%)" fill-opacity="1" d="M 159.511719 117.78125 L 154.429688 105.695312 C 154.222656 105.15625 154.222656 105.15625 153.472656 105.15625 L 148.554688 105.15625 C 148.054688 105.15625 147.679688 105.15625 147.679688 105.613281 C 147.679688 106.070312 148.136719 106.070312 148.261719 106.070312 C 148.597656 106.070312 149.304688 106.15625 149.886719 106.363281 L 149.886719 120.53125 C 149.886719 121.113281 149.886719 122.28125 148.097656 122.445312 C 147.597656 122.488281 147.597656 122.863281 147.597656 122.90625 C 147.597656 123.363281 148.011719 123.363281 148.511719 123.363281 L 152.597656 123.363281 C 153.097656 123.363281 153.472656 123.363281 153.472656 122.90625 C 153.472656 122.65625 153.261719 122.445312 153.054688 122.445312 C 151.011719 122.28125 151.011719 121.15625 151.011719 120.53125 L 151.011719 107.320312 L 151.054688 107.28125 L 157.511719 122.820312 C 157.761719 123.28125 157.929688 123.363281 158.097656 123.363281 C 158.429688 123.363281 158.472656 123.15625 158.636719 122.820312 L 165.136719 107.28125 L 165.179688 107.320312 L 165.179688 120.53125 C 165.179688 121.113281 165.179688 122.28125 163.347656 122.445312 C 162.847656 122.488281 162.847656 122.863281 162.847656 122.90625 C 162.847656 123.363281 163.261719 123.363281 163.761719 123.363281 L 170.847656 123.363281 C 171.347656 123.363281 171.722656 123.363281 171.722656 122.90625 C 171.722656 122.65625 171.511719 122.445312 171.304688 122.445312 C 169.261719 122.28125 169.261719 121.15625 169.261719 120.53125 L 169.261719 107.988281 C 169.261719 107.40625 169.261719 106.238281 171.054688 106.070312 C 171.347656 106.070312 171.554688 105.90625 171.554688 105.613281 C 171.554688 105.15625 171.179688 105.15625 170.679688 105.15625 L 165.554688 105.15625 C 164.886719 105.15625 164.804688 105.15625 164.597656 105.695312 Z M 158.722656 118.28125 C 158.929688 118.695312 158.972656 118.738281 159.304688 118.863281 L 158.097656 121.65625 L 158.054688 121.65625 L 152.011719 107.195312 C 151.886719 106.863281 151.636719 106.40625 151.304688 106.070312 L 153.597656 106.070312 Z M 150.679688 122.445312 L 150.261719 122.445312 C 150.304688 122.363281 150.347656 122.28125 150.386719 122.238281 C 150.429688 122.195312 150.429688 122.15625 150.472656 122.15625 Z M 166.097656 106.070312 L 168.929688 106.070312 C 168.304688 106.738281 168.304688 107.445312 168.304688 107.90625 L 168.304688 120.613281 C 168.304688 121.070312 168.304688 121.78125 168.929688 122.445312 L 165.511719 122.445312 C 166.097656 121.78125 166.097656 121.070312 166.097656 120.613281 Z M 166.097656 106.070312 "/>
<path fill-rule="nonzero" fill="rgb(0%, 0%, 0%)" fill-opacity="1" d="M 174.480469 126.183594 C 174.4375 126.433594 174.3125 126.890625 174.3125 126.933594 C 174.3125 127.347656 174.644531 127.515625 174.9375 127.515625 C 175.269531 127.515625 175.5625 127.308594 175.6875 127.140625 C 175.769531 126.972656 175.894531 126.347656 176.019531 125.972656 C 176.105469 125.640625 176.3125 124.765625 176.394531 124.308594 C 176.519531 123.890625 176.644531 123.472656 176.730469 123.058594 C 176.9375 122.308594 176.980469 122.140625 177.519531 121.390625 C 178.019531 120.640625 178.894531 119.683594 180.3125 119.683594 C 181.355469 119.683594 181.394531 120.640625 181.394531 120.972656 C 181.394531 122.097656 180.605469 124.140625 180.3125 124.933594 C 180.105469 125.472656 180.019531 125.640625 180.019531 125.933594 C 180.019531 126.933594 180.8125 127.515625 181.769531 127.515625 C 183.644531 127.515625 184.4375 124.972656 184.4375 124.683594 C 184.4375 124.433594 184.230469 124.433594 184.144531 124.433594 C 183.894531 124.433594 183.894531 124.558594 183.8125 124.765625 C 183.394531 126.265625 182.5625 127.015625 181.855469 127.015625 C 181.4375 127.015625 181.355469 126.765625 181.355469 126.347656 C 181.355469 125.933594 181.480469 125.683594 181.8125 124.847656 C 182.019531 124.265625 182.769531 122.308594 182.769531 121.265625 C 182.769531 119.472656 181.355469 119.140625 180.355469 119.140625 C 178.8125 119.140625 177.769531 120.097656 177.230469 120.847656 C 177.105469 119.558594 176.019531 119.140625 175.230469 119.140625 C 174.4375 119.140625 174.019531 119.722656 173.769531 120.140625 C 173.355469 120.847656 173.105469 121.890625 173.105469 122.015625 C 173.105469 122.222656 173.355469 122.222656 173.4375 122.222656 C 173.6875 122.222656 173.6875 122.183594 173.8125 121.683594 C 174.105469 120.597656 174.480469 119.683594 175.1875 119.683594 C 175.6875 119.683594 175.8125 120.097656 175.8125 120.597656 C 175.8125 120.933594 175.644531 121.640625 175.480469 122.140625 C 175.355469 122.640625 175.1875 123.390625 175.105469 123.808594 Z M 174.480469 126.183594 "/>
<path fill-rule="nonzero" fill="rgb(0%, 0%, 0%)" fill-opacity="1" d="M 199.195312 123.140625 C 199.488281 123.140625 199.945312 123.140625 199.945312 122.722656 C 199.945312 122.222656 199.488281 122.222656 199.195312 122.222656 L 188.113281 122.222656 C 187.820312 122.222656 187.363281 122.222656 187.363281 122.683594 C 187.363281 123.140625 187.78125 123.140625 188.113281 123.140625 Z M 199.195312 123.140625 "/>
<path fill-rule="nonzero" fill="rgb(0%, 0%, 0%)" fill-opacity="1" d="M 211.34375 123.972656 L 210.71875 123.972656 C 210.675781 124.390625 210.46875 125.472656 210.21875 125.640625 C 210.09375 125.765625 208.675781 125.765625 208.382812 125.765625 L 204.96875 125.765625 C 206.925781 124.058594 207.59375 123.515625 208.675781 122.640625 C 210.050781 121.558594 211.34375 120.390625 211.34375 118.640625 C 211.34375 116.390625 209.382812 115.015625 207.007812 115.015625 C 204.71875 115.015625 203.132812 116.640625 203.132812 118.347656 C 203.132812 119.265625 203.925781 119.390625 204.132812 119.390625 C 204.550781 119.390625 205.09375 119.058594 205.09375 118.390625 C 205.09375 118.058594 204.96875 117.390625 204.007812 117.390625 C 204.59375 116.097656 205.84375 115.683594 206.71875 115.683594 C 208.59375 115.683594 209.550781 117.140625 209.550781 118.640625 C 209.550781 120.265625 208.382812 121.515625 207.800781 122.183594 L 203.34375 126.640625 C 203.132812 126.808594 203.132812 126.847656 203.132812 127.347656 L 210.800781 127.347656 Z M 211.34375 123.972656 "/>
<path fill-rule="nonzero" fill="rgb(0%, 0%, 0%)" fill-opacity="1" d="M 342.332031 117.78125 L 337.25 105.695312 C 337.039062 105.15625 337.039062 105.15625 336.289062 105.15625 L 331.375 105.15625 C 330.875 105.15625 330.5 105.15625 330.5 105.613281 C 330.5 106.070312 330.957031 106.070312 331.082031 106.070312 C 331.414062 106.070312 332.125 106.15625 332.707031 106.363281 L 332.707031 120.53125 C 332.707031 121.113281 332.707031 122.28125 330.914062 122.445312 C 330.414062 122.488281 330.414062 122.863281 330.414062 122.90625 C 330.414062 123.363281 330.832031 123.363281 331.332031 123.363281 L 335.414062 123.363281 C 335.914062 123.363281 336.289062 123.363281 336.289062 122.90625 C 336.289062 122.65625 336.082031 122.445312 335.875 122.445312 C 333.832031 122.28125 333.832031 121.15625 333.832031 120.53125 L 333.832031 107.320312 L 333.875 107.28125 L 340.332031 122.820312 C 340.582031 123.28125 340.75 123.363281 340.914062 123.363281 C 341.25 123.363281 341.289062 123.15625 341.457031 122.820312 L 347.957031 107.28125 L 348 107.320312 L 348 120.53125 C 348 121.113281 348 122.28125 346.164062 122.445312 C 345.664062 122.488281 345.664062 122.863281 345.664062 122.90625 C 345.664062 123.363281 346.082031 123.363281 346.582031 123.363281 L 353.664062 123.363281 C 354.164062 123.363281 354.539062 123.363281 354.539062 122.90625 C 354.539062 122.65625 354.332031 122.445312 354.125 122.445312 C 352.082031 122.28125 352.082031 121.15625 352.082031 120.53125 L 352.082031 107.988281 C 352.082031 107.40625 352.082031 106.238281 353.875 106.070312 C 354.164062 106.070312 354.375 105.90625 354.375 105.613281 C 354.375 105.15625 354 105.15625 353.5 105.15625 L 348.375 105.15625 C 347.707031 105.15625 347.625 105.15625 347.414062 105.695312 Z M 341.539062 118.28125 C 341.75 118.695312 341.789062 118.738281 342.125 118.863281 L 340.914062 121.65625 L 340.875 121.65625 L 334.832031 107.195312 C 334.707031 106.863281 334.457031 106.40625 334.125 106.070312 L 336.414062 106.070312 Z M 333.5 122.445312 L 333.082031 122.445312 C 333.125 122.363281 333.164062 122.28125 333.207031 122.238281 C 333.25 122.195312 333.25 122.15625 333.289062 122.15625 Z M 348.914062 106.070312 L 351.75 106.070312 C 351.125 106.738281 351.125 107.445312 351.125 107.90625 L 351.125 120.613281 C 351.125 121.070312 351.125 121.78125 351.75 122.445312 L 348.332031 122.445312 C 348.914062 121.78125 348.914062 121.070312 348.914062 120.613281 Z M 348.914062 106.070312 "/>
<path fill-rule="nonzero" fill="rgb(0%, 0%, 0%)" fill-opacity="1" d="M 357.296875 126.183594 C 357.257812 126.433594 357.132812 126.890625 357.132812 126.933594 C 357.132812 127.347656 357.464844 127.515625 357.757812 127.515625 C 358.089844 127.515625 358.382812 127.308594 358.507812 127.140625 C 358.589844 126.972656 358.714844 126.347656 358.839844 125.972656 C 358.921875 125.640625 359.132812 124.765625 359.214844 124.308594 C 359.339844 123.890625 359.464844 123.472656 359.546875 123.058594 C 359.757812 122.308594 359.796875 122.140625 360.339844 121.390625 C 360.839844 120.640625 361.714844 119.683594 363.132812 119.683594 C 364.171875 119.683594 364.214844 120.640625 364.214844 120.972656 C 364.214844 122.097656 363.421875 124.140625 363.132812 124.933594 C 362.921875 125.472656 362.839844 125.640625 362.839844 125.933594 C 362.839844 126.933594 363.632812 127.515625 364.589844 127.515625 C 366.464844 127.515625 367.257812 124.972656 367.257812 124.683594 C 367.257812 124.433594 367.046875 124.433594 366.964844 124.433594 C 366.714844 124.433594 366.714844 124.558594 366.632812 124.765625 C 366.214844 126.265625 365.382812 127.015625 364.671875 127.015625 C 364.257812 127.015625 364.171875 126.765625 364.171875 126.347656 C 364.171875 125.933594 364.296875 125.683594 364.632812 124.847656 C 364.839844 124.265625 365.589844 122.308594 365.589844 121.265625 C 365.589844 119.472656 364.171875 119.140625 363.171875 119.140625 C 361.632812 119.140625 360.589844 120.097656 360.046875 120.847656 C 359.921875 119.558594 358.839844 119.140625 358.046875 119.140625 C 357.257812 119.140625 356.839844 119.722656 356.589844 120.140625 C 356.171875 120.847656 355.921875 121.890625 355.921875 122.015625 C 355.921875 122.222656 356.171875 122.222656 356.257812 122.222656 C 356.507812 122.222656 356.507812 122.183594 356.632812 121.683594 C 356.921875 120.597656 357.296875 119.683594 358.007812 119.683594 C 358.507812 119.683594 358.632812 120.097656 358.632812 120.597656 C 358.632812 120.933594 358.464844 121.640625 358.296875 122.140625 C 358.171875 122.640625 358.007812 123.390625 357.921875 123.808594 Z M 357.296875 126.183594 "/>
<path fill-rule="nonzero" fill="rgb(0%, 0%, 0%)" fill-opacity="1" d="M 382.015625 123.140625 C 382.304688 123.140625 382.765625 123.140625 382.765625 122.722656 C 382.765625 122.222656 382.304688 122.222656 382.015625 122.222656 L 370.929688 122.222656 C 370.640625 122.222656 370.179688 122.222656 370.179688 122.683594 C 370.179688 123.140625 370.597656 123.140625 370.929688 123.140625 Z M 382.015625 123.140625 "/>
<path fill-rule="nonzero" fill="rgb(0%, 0%, 0%)" fill-opacity="1" d="M 390.996094 115.515625 C 390.996094 115.015625 390.996094 115.015625 390.453125 115.015625 C 389.246094 116.183594 387.578125 116.183594 386.828125 116.183594 L 386.828125 116.847656 C 387.246094 116.847656 388.496094 116.847656 389.496094 116.347656 L 389.496094 125.808594 C 389.496094 126.433594 389.496094 126.683594 387.660156 126.683594 L 386.953125 126.683594 L 386.953125 127.347656 C 387.285156 127.347656 389.578125 127.265625 390.246094 127.265625 C 390.828125 127.265625 393.160156 127.347656 393.578125 127.347656 L 393.578125 126.683594 L 392.871094 126.683594 C 390.996094 126.683594 390.996094 126.433594 390.996094 125.808594 Z M 390.996094 115.515625 "/>
<path fill-rule="nonzero" fill="rgb(0%, 0%, 0%)" fill-opacity="1" d="M 525.152344 117.78125 L 520.070312 105.695312 C 519.863281 105.15625 519.863281 105.15625 519.113281 105.15625 L 514.195312 105.15625 C 513.695312 105.15625 513.320312 105.15625 513.320312 105.613281 C 513.320312 106.070312 513.777344 106.070312 513.902344 106.070312 C 514.238281 106.070312 514.945312 106.15625 515.527344 106.363281 L 515.527344 120.53125 C 515.527344 121.113281 515.527344 122.28125 513.738281 122.445312 C 513.238281 122.488281 513.238281 122.863281 513.238281 122.90625 C 513.238281 123.363281 513.652344 123.363281 514.152344 123.363281 L 518.238281 123.363281 C 518.738281 123.363281 519.113281 123.363281 519.113281 122.90625 C 519.113281 122.65625 518.902344 122.445312 518.695312 122.445312 C 516.652344 122.28125 516.652344 121.15625 516.652344 120.53125 L 516.652344 107.320312 L 516.695312 107.28125 L 523.152344 122.820312 C 523.402344 123.28125 523.570312 123.363281 523.738281 123.363281 C 524.070312 123.363281 524.113281 123.15625 524.277344 122.820312 L 530.777344 107.28125 L 530.820312 107.320312 L 530.820312 120.53125 C 530.820312 121.113281 530.820312 122.28125 528.988281 122.445312 C 528.488281 122.488281 528.488281 122.863281 528.488281 122.90625 C 528.488281 123.363281 528.902344 123.363281 529.402344 123.363281 L 536.488281 123.363281 C 536.988281 123.363281 537.363281 123.363281 537.363281 122.90625 C 537.363281 122.65625 537.152344 122.445312 536.945312 122.445312 C 534.902344 122.28125 534.902344 121.15625 534.902344 120.53125 L 534.902344 107.988281 C 534.902344 107.40625 534.902344 106.238281 536.695312 106.070312 C 536.988281 106.070312 537.195312 105.90625 537.195312 105.613281 C 537.195312 105.15625 536.820312 105.15625 536.320312 105.15625 L 531.195312 105.15625 C 530.527344 105.15625 530.445312 105.15625 530.238281 105.695312 Z M 524.363281 118.28125 C 524.570312 118.695312 524.613281 118.738281 524.945312 118.863281 L 523.738281 121.65625 L 523.695312 121.65625 L 517.652344 107.195312 C 517.527344 106.863281 517.277344 106.40625 516.945312 106.070312 L 519.238281 106.070312 Z M 516.320312 122.445312 L 515.902344 122.445312 C 515.945312 122.363281 515.988281 122.28125 516.027344 122.238281 C 516.070312 122.195312 516.070312 122.15625 516.113281 122.15625 Z M 531.738281 106.070312 L 534.570312 106.070312 C 533.945312 106.738281 533.945312 107.445312 533.945312 107.90625 L 533.945312 120.613281 C 533.945312 121.070312 533.945312 121.78125 534.570312 122.445312 L 531.152344 122.445312 C 531.738281 121.78125 531.738281 121.070312 531.738281 120.613281 Z M 531.738281 106.070312 "/>
<path fill-rule="nonzero" fill="rgb(0%, 0%, 0%)" fill-opacity="1" d="M 540.121094 126.183594 C 540.078125 126.433594 539.953125 126.890625 539.953125 126.933594 C 539.953125 127.347656 540.285156 127.515625 540.578125 127.515625 C 540.910156 127.515625 541.203125 127.308594 541.328125 127.140625 C 541.410156 126.972656 541.535156 126.347656 541.660156 125.972656 C 541.746094 125.640625 541.953125 124.765625 542.035156 124.308594 C 542.160156 123.890625 542.285156 123.472656 542.371094 123.058594 C 542.578125 122.308594 542.621094 122.140625 543.160156 121.390625 C 543.660156 120.640625 544.535156 119.683594 545.953125 119.683594 C 546.996094 119.683594 547.035156 120.640625 547.035156 120.972656 C 547.035156 122.097656 546.246094 124.140625 545.953125 124.933594 C 545.746094 125.472656 545.660156 125.640625 545.660156 125.933594 C 545.660156 126.933594 546.453125 127.515625 547.410156 127.515625 C 549.285156 127.515625 550.078125 124.972656 550.078125 124.683594 C 550.078125 124.433594 549.871094 124.433594 549.785156 124.433594 C 549.535156 124.433594 549.535156 124.558594 549.453125 124.765625 C 549.035156 126.265625 548.203125 127.015625 547.496094 127.015625 C 547.078125 127.015625 546.996094 126.765625 546.996094 126.347656 C 546.996094 125.933594 547.121094 125.683594 547.453125 124.847656 C 547.660156 124.265625 548.410156 122.308594 548.410156 121.265625 C 548.410156 119.472656 546.996094 119.140625 545.996094 119.140625 C 544.453125 119.140625 543.410156 120.097656 542.871094 120.847656 C 542.746094 119.558594 541.660156 119.140625 540.871094 119.140625 C 540.078125 119.140625 539.660156 119.722656 539.410156 120.140625 C 538.996094 120.847656 538.746094 121.890625 538.746094 122.015625 C 538.746094 122.222656 538.996094 122.222656 539.078125 122.222656 C 539.328125 122.222656 539.328125 122.183594 539.453125 121.683594 C 539.746094 120.597656 540.121094 119.683594 540.828125 119.683594 C 541.328125 119.683594 541.453125 120.097656 541.453125 120.597656 C 541.453125 120.933594 541.285156 121.640625 541.121094 122.140625 C 540.996094 122.640625 540.828125 123.390625 540.746094 123.808594 Z M 540.121094 126.183594 "/>
<path fill-rule="nonzero" fill="rgb(0%, 0%, 0%)" fill-opacity="1" d="M 170.097656 208.335938 C 170.097656 207.585938 169.472656 206.960938 168.722656 206.960938 C 167.929688 206.960938 167.304688 207.585938 167.304688 208.335938 C 167.304688 209.128906 167.929688 209.753906 168.722656 209.753906 C 169.472656 209.753906 170.097656 209.128906 170.097656 208.335938 Z M 170.097656 208.335938 "/>
<path fill-rule="nonzero" fill="rgb(0%, 0%, 0%)" fill-opacity="1" d="M 181.867188 208.335938 C 181.867188 207.585938 181.242188 206.960938 180.492188 206.960938 C 179.699219 206.960938 179.074219 207.585938 179.074219 208.335938 C 179.074219 209.128906 179.699219 209.753906 180.492188 209.753906 C 181.242188 209.753906 181.867188 209.128906 181.867188 208.335938 Z M 181.867188 208.335938 "/>
<path fill-rule="nonzero" fill="rgb(0%, 0%, 0%)" fill-opacity="1" d="M 193.660156 208.335938 C 193.660156 207.585938 193.035156 206.960938 192.285156 206.960938 C 191.496094 206.960938 190.871094 207.585938 190.871094 208.335938 C 190.871094 209.128906 191.496094 209.753906 192.285156 209.753906 C 193.035156 209.753906 193.660156 209.128906 193.660156 208.335938 Z M 193.660156 208.335938 "/>
<path fill-rule="nonzero" fill="rgb(0%, 0%, 0%)" fill-opacity="1" d="M 354.242188 198.878906 C 354.492188 197.917969 354.53125 197.667969 356.53125 197.667969 C 357.117188 197.667969 357.367188 197.667969 357.367188 197.128906 C 357.367188 196.835938 357.117188 196.835938 356.65625 196.835938 L 353.15625 196.835938 C 352.449219 196.835938 352.40625 196.835938 352.117188 197.335938 L 342.40625 212.503906 L 340.324219 197.460938 C 340.242188 196.835938 340.199219 196.835938 339.492188 196.835938 L 335.867188 196.835938 C 335.367188 196.835938 335.074219 196.835938 335.074219 197.335938 C 335.074219 197.667969 335.324219 197.667969 335.824219 197.667969 C 336.199219 197.667969 336.65625 197.710938 336.992188 197.710938 C 337.40625 197.792969 337.574219 197.835938 337.574219 198.167969 C 337.574219 198.253906 337.53125 198.335938 337.449219 198.667969 L 334.074219 212.167969 C 333.824219 213.253906 333.367188 214.085938 331.199219 214.167969 C 331.074219 214.167969 330.742188 214.210938 330.742188 214.667969 C 330.742188 214.917969 330.90625 215.003906 331.117188 215.003906 C 331.949219 215.003906 332.867188 214.917969 333.78125 214.917969 C 334.65625 214.917969 335.617188 215.003906 336.492188 215.003906 C 336.617188 215.003906 336.992188 215.003906 336.992188 214.460938 C 336.992188 214.167969 336.699219 214.167969 336.492188 214.167969 C 334.992188 214.167969 334.699219 213.628906 334.699219 213.003906 C 334.699219 212.835938 334.699219 212.667969 334.78125 212.378906 L 338.40625 197.917969 L 338.449219 197.917969 L 340.742188 214.378906 C 340.78125 214.710938 340.824219 215.003906 341.117188 215.003906 C 341.40625 215.003906 341.574219 214.710938 341.699219 214.542969 L 352.449219 197.710938 L 352.492188 197.710938 L 348.65625 212.917969 C 348.40625 213.960938 348.367188 214.167969 346.242188 214.167969 C 345.824219 214.167969 345.53125 214.167969 345.53125 214.667969 C 345.53125 215.003906 345.824219 215.003906 345.90625 215.003906 C 346.65625 215.003906 348.449219 214.917969 349.199219 214.917969 C 350.28125 214.917969 351.449219 215.003906 352.53125 215.003906 C 352.699219 215.003906 353.03125 215.003906 353.03125 214.460938 C 353.03125 214.167969 352.78125 214.167969 352.28125 214.167969 C 351.324219 214.167969 350.574219 214.167969 350.574219 213.710938 C 350.574219 213.585938 350.574219 213.542969 350.699219 213.042969 Z M 354.242188 198.878906 "/>
<path fill-rule="nonzero" fill="rgb(0%, 0%, 0%)" fill-opacity="1" d="M 357.640625 217.820312 C 357.597656 218.070312 357.472656 218.527344 357.472656 218.570312 C 357.472656 218.988281 357.804688 219.152344 358.097656 219.152344 C 358.429688 219.152344 358.722656 218.945312 358.847656 218.777344 C 358.929688 218.613281 359.054688 217.988281 359.179688 217.613281 C 359.265625 217.277344 359.472656 216.402344 359.554688 215.945312 C 359.679688 215.527344 359.804688 215.113281 359.890625 214.695312 C 360.097656 213.945312 360.140625 213.777344 360.679688 213.027344 C 361.179688 212.277344 362.054688 211.320312 363.472656 211.320312 C 364.515625 211.320312 364.554688 212.277344 364.554688 212.613281 C 364.554688 213.738281 363.765625 215.777344 363.472656 216.570312 C 363.265625 217.113281 363.179688 217.277344 363.179688 217.570312 C 363.179688 218.570312 363.972656 219.152344 364.929688 219.152344 C 366.804688 219.152344 367.597656 216.613281 367.597656 216.320312 C 367.597656 216.070312 367.390625 216.070312 367.304688 216.070312 C 367.054688 216.070312 367.054688 216.195312 366.972656 216.402344 C 366.554688 217.902344 365.722656 218.652344 365.015625 218.652344 C 364.597656 218.652344 364.515625 218.402344 364.515625 217.988281 C 364.515625 217.570312 364.640625 217.320312 364.972656 216.488281 C 365.179688 215.902344 365.929688 213.945312 365.929688 212.902344 C 365.929688 211.113281 364.515625 210.777344 363.515625 210.777344 C 361.972656 210.777344 360.929688 211.738281 360.390625 212.488281 C 360.265625 211.195312 359.179688 210.777344 358.390625 210.777344 C 357.597656 210.777344 357.179688 211.363281 356.929688 211.777344 C 356.515625 212.488281 356.265625 213.527344 356.265625 213.652344 C 356.265625 213.863281 356.515625 213.863281 356.597656 213.863281 C 356.847656 213.863281 356.847656 213.820312 356.972656 213.320312 C 357.265625 212.238281 357.640625 211.320312 358.347656 211.320312 C 358.847656 211.320312 358.972656 211.738281 358.972656 212.238281 C 358.972656 212.570312 358.804688 213.277344 358.640625 213.777344 C 358.515625 214.277344 358.347656 215.027344 358.265625 215.445312 Z M 357.640625 217.820312 "/>
<path fill-rule="nonzero" fill="rgb(0%, 0%, 0%)" fill-opacity="1" d="M 382.355469 214.777344 C 382.648438 214.777344 383.105469 214.777344 383.105469 214.363281 C 383.105469 213.863281 382.648438 213.863281 382.355469 213.863281 L 371.273438 213.863281 C 370.980469 213.863281 370.523438 213.863281 370.523438 214.320312 C 370.523438 214.777344 370.9375 214.777344 371.273438 214.777344 Z M 382.355469 214.777344 "/>
<path fill-rule="nonzero" fill="rgb(0%, 0%, 0%)" fill-opacity="1" d="M 391.335938 207.152344 C 391.335938 206.652344 391.335938 206.652344 390.792969 206.652344 C 389.585938 207.820312 387.917969 207.820312 387.167969 207.820312 L 387.167969 208.488281 C 387.585938 208.488281 388.835938 208.488281 389.835938 207.988281 L 389.835938 217.445312 C 389.835938 218.070312 389.835938 218.320312 388.003906 218.320312 L 387.292969 218.320312 L 387.292969 218.988281 C 387.628906 218.988281 389.917969 218.902344 390.585938 218.902344 C 391.167969 218.902344 393.503906 218.988281 393.917969 218.988281 L 393.917969 218.320312 L 393.210938 218.320312 C 391.335938 218.320312 391.335938 218.070312 391.335938 217.445312 Z M 391.335938 207.152344 "/>
<path fill="none" stroke-width="0.39848" stroke-linecap="butt" stroke-linejoin="miter" stroke="rgb(0%, 0%, 0%)" stroke-opacity="1" stroke-miterlimit="10" d="M -82.048523 34.588833 L -58.934753 34.588833 " transform="matrix(2.666667, 0, 0, -2.666667, 290.909342, 117.162669)"/>
<path fill="none" stroke-width="0.39848" stroke-linecap="round" stroke-linejoin="round" stroke="rgb(0%, 0%, 0%)" stroke-opacity="1" stroke-miterlimit="10" d="M -2.071354 2.392807 C -1.693424 0.95433 -0.849674 0.279037 -0.00152969 0.00218201 C -0.849674 -0.279068 -1.693424 -0.955826 -2.071354 -2.392838 " transform="matrix(2.666667, 0, 0, -2.666667, 134.285329, 24.9316)"/>
<path fill="none" stroke-width="0.39848" stroke-linecap="butt" stroke-linejoin="miter" stroke="rgb(0%, 0%, 0%)" stroke-opacity="1" stroke-miterlimit="10" d="M -41.399109 25.919888 L -41.399109 8.787075 " transform="matrix(2.666667, 0, 0, -2.666667, 290.909342, 117.162669)"/>
<path fill="none" stroke-width="0.39848" stroke-linecap="round" stroke-linejoin="round" stroke="rgb(0%, 0%, 0%)" stroke-opacity="1" stroke-miterlimit="10" d="M -2.072216 2.3899 C -1.692822 0.955818 -0.849072 0.280525 -0.000926971 -0.000724792 C -0.849072 -0.279045 -1.692822 -0.958733 -2.072216 -2.39135 " transform="matrix(0, 2.666667, 2.666667, 0, 180.513652, 94.264191)"/>
<path fill-rule="nonzero" fill="rgb(0%, 0%, 0%)" fill-opacity="1" d="M 192.769531 66.496094 C 194.3125 65.832031 194.980469 65.582031 195.4375 65.332031 C 195.8125 65.207031 195.980469 65.121094 195.980469 64.746094 C 195.980469 64.457031 195.730469 64.164062 195.394531 64.164062 C 195.269531 64.164062 195.230469 64.164062 195.019531 64.332031 L 192.480469 66.039062 L 192.769531 63.289062 C 192.8125 62.957031 192.769531 62.496094 192.1875 62.496094 C 191.980469 62.496094 191.605469 62.621094 191.605469 63.039062 C 191.605469 63.207031 191.6875 63.746094 191.730469 63.957031 C 191.769531 64.246094 191.894531 65.621094 191.9375 66.039062 L 189.394531 64.332031 C 189.230469 64.246094 189.1875 64.164062 189.019531 64.164062 C 188.644531 64.164062 188.4375 64.457031 188.4375 64.746094 C 188.4375 65.121094 188.644531 65.246094 188.8125 65.289062 L 191.605469 66.496094 C 190.105469 67.164062 189.394531 67.414062 188.9375 67.621094 C 188.605469 67.789062 188.4375 67.871094 188.4375 68.207031 C 188.4375 68.539062 188.644531 68.789062 189.019531 68.789062 C 189.144531 68.789062 189.1875 68.789062 189.394531 68.621094 L 191.9375 66.957031 L 191.605469 69.914062 C 191.605469 70.332031 191.980469 70.496094 192.1875 70.496094 C 192.4375 70.496094 192.769531 70.332031 192.769531 69.914062 C 192.769531 69.746094 192.6875 69.207031 192.6875 69.039062 C 192.644531 68.707031 192.519531 67.371094 192.480469 66.957031 L 194.6875 68.414062 C 195.1875 68.789062 195.230469 68.789062 195.394531 68.789062 C 195.730469 68.789062 195.980469 68.539062 195.980469 68.207031 C 195.980469 67.832031 195.730469 67.746094 195.5625 67.664062 Z M 192.769531 66.496094 "/>
<path fill-rule="nonzero" fill="rgb(0%, 0%, 0%)" fill-opacity="1" d="M 203.863281 71.078125 L 201.324219 65.035156 C 201.199219 64.746094 201.199219 64.746094 200.824219 64.746094 L 198.363281 64.746094 C 198.113281 64.746094 197.90625 64.746094 197.90625 64.996094 C 197.90625 65.246094 198.15625 65.246094 198.238281 65.246094 C 198.40625 65.246094 198.738281 65.246094 199.03125 65.371094 L 199.03125 72.453125 C 199.03125 72.746094 199.03125 73.328125 198.113281 73.410156 C 197.863281 73.410156 197.863281 73.621094 197.863281 73.621094 C 197.863281 73.871094 198.113281 73.871094 198.324219 73.871094 L 200.40625 73.871094 C 200.613281 73.871094 200.824219 73.871094 200.824219 73.621094 C 200.824219 73.496094 200.738281 73.410156 200.613281 73.410156 C 199.613281 73.328125 199.613281 72.785156 199.613281 72.453125 L 199.613281 65.828125 L 202.863281 73.578125 C 202.949219 73.828125 203.074219 73.871094 203.113281 73.871094 C 203.28125 73.871094 203.324219 73.746094 203.40625 73.621094 L 206.65625 65.828125 L 206.65625 72.453125 C 206.65625 72.746094 206.65625 73.328125 205.78125 73.410156 C 205.53125 73.410156 205.53125 73.621094 205.53125 73.621094 C 205.53125 73.871094 205.738281 73.871094 205.949219 73.871094 L 209.53125 73.871094 C 209.738281 73.871094 209.949219 73.871094 209.949219 73.621094 C 209.949219 73.496094 209.863281 73.410156 209.738281 73.410156 C 208.699219 73.328125 208.699219 72.785156 208.699219 72.453125 L 208.699219 66.160156 C 208.699219 65.910156 208.699219 65.328125 209.613281 65.246094 C 209.738281 65.203125 209.863281 65.160156 209.863281 64.996094 C 209.863281 64.746094 209.65625 64.746094 209.449219 64.746094 L 206.863281 64.746094 C 206.53125 64.746094 206.488281 64.746094 206.363281 65.035156 Z M 203.449219 71.328125 C 203.574219 71.535156 203.574219 71.535156 203.738281 71.621094 L 203.15625 73.035156 L 203.113281 73.035156 L 200.074219 65.785156 C 200.03125 65.621094 199.90625 65.371094 199.738281 65.246094 L 200.90625 65.246094 Z M 199.449219 73.410156 L 199.199219 73.410156 C 199.238281 73.371094 199.28125 73.328125 199.28125 73.285156 C 199.324219 73.285156 199.324219 73.285156 199.324219 73.246094 Z M 207.113281 65.246094 L 208.53125 65.246094 C 208.238281 65.578125 208.238281 65.910156 208.238281 66.160156 L 208.238281 72.496094 C 208.238281 72.746094 208.238281 73.078125 208.574219 73.410156 L 206.824219 73.410156 C 207.113281 73.078125 207.113281 72.746094 207.113281 72.496094 Z M 207.113281 65.246094 "/>
<path fill-rule="nonzero" fill="rgb(0%, 0%, 0%)" fill-opacity="1" d="M 212.785156 76.859375 C 212.699219 77.191406 212.574219 77.773438 212.574219 77.816406 C 212.574219 78.109375 212.824219 78.316406 213.074219 78.316406 C 213.242188 78.316406 213.535156 78.191406 213.699219 77.859375 C 213.699219 77.773438 213.867188 77.148438 213.949219 76.816406 C 214.410156 75.023438 214.410156 74.984375 214.410156 74.941406 C 214.617188 74.609375 215.574219 72.734375 217.160156 72.734375 C 217.824219 72.734375 218.117188 73.066406 218.117188 73.691406 C 218.117188 74.441406 217.535156 75.816406 217.242188 76.566406 C 217.160156 76.734375 217.117188 76.898438 217.117188 77.109375 C 217.117188 77.816406 217.785156 78.316406 218.574219 78.316406 C 219.992188 78.316406 220.699219 76.566406 220.699219 76.234375 C 220.699219 76.066406 220.492188 76.066406 220.449219 76.066406 C 220.199219 76.066406 220.199219 76.109375 220.117188 76.359375 C 219.867188 77.148438 219.242188 77.859375 218.617188 77.859375 C 218.324219 77.859375 218.199219 77.648438 218.199219 77.359375 C 218.199219 77.066406 218.285156 76.941406 218.410156 76.648438 C 218.617188 76.109375 219.242188 74.609375 219.242188 73.859375 C 219.242188 72.859375 218.535156 72.273438 217.242188 72.273438 C 216.035156 72.273438 215.199219 73.023438 214.742188 73.609375 C 214.699219 72.484375 213.617188 72.273438 213.117188 72.273438 C 211.785156 72.273438 211.410156 74.316406 211.410156 74.316406 C 211.410156 74.523438 211.617188 74.523438 211.699219 74.523438 C 211.910156 74.523438 211.949219 74.441406 211.992188 74.273438 C 212.199219 73.484375 212.492188 72.734375 213.074219 72.734375 C 213.492188 72.734375 213.617188 73.148438 213.617188 73.441406 C 213.617188 73.609375 213.449219 74.109375 213.410156 74.484375 C 213.285156 74.816406 213.160156 75.359375 213.117188 75.648438 Z M 212.785156 76.859375 "/>
<path fill-rule="nonzero" fill="rgb(0%, 0%, 0%)" fill-opacity="1" d="M 233.609375 75.191406 C 233.816406 75.191406 234.152344 75.191406 234.152344 74.816406 C 234.152344 74.441406 233.816406 74.441406 233.609375 74.441406 L 224.609375 74.441406 C 224.402344 74.441406 224.027344 74.441406 224.027344 74.816406 C 224.027344 75.191406 224.402344 75.191406 224.609375 75.191406 Z M 233.609375 75.191406 "/>
<path fill-rule="nonzero" fill="rgb(0%, 0%, 0%)" fill-opacity="1" d="M 244.125 75.566406 L 243.539062 75.566406 C 243.539062 75.816406 243.375 76.648438 243.164062 76.773438 C 243.082031 76.859375 241.957031 76.859375 241.75 76.859375 L 239.164062 76.859375 C 240.039062 76.234375 241 75.484375 241.789062 74.941406 C 243 74.109375 244.125 73.359375 244.125 71.941406 C 244.125 70.234375 242.5 69.316406 240.625 69.316406 C 238.832031 69.316406 237.5 70.316406 237.5 71.648438 C 237.5 72.316406 238.082031 72.441406 238.289062 72.441406 C 238.625 72.441406 239.039062 72.191406 239.039062 71.648438 C 239.039062 71.191406 238.707031 70.898438 238.289062 70.898438 C 238.664062 70.273438 239.457031 69.898438 240.332031 69.898438 C 241.625 69.898438 242.707031 70.648438 242.707031 71.941406 C 242.707031 73.066406 241.914062 73.941406 240.914062 74.773438 L 237.664062 77.523438 C 237.539062 77.648438 237.5 77.648438 237.5 77.734375 L 237.5 78.148438 L 243.664062 78.148438 Z M 244.125 75.566406 "/>
<path fill="none" stroke-width="0.39848" stroke-linecap="butt" stroke-linejoin="miter" stroke="rgb(0%, 0%, 0%)" stroke-opacity="1" stroke-miterlimit="10" d="M 55.069641 34.588833 L 78.181946 34.588833 " transform="matrix(2.666667, 0, 0, -2.666667, 290.909342, 117.162669)"/>
<path fill="none" stroke-width="0.39848" stroke-linecap="round" stroke-linejoin="round" stroke="rgb(0%, 0%, 0%)" stroke-opacity="1" stroke-miterlimit="10" d="M -2.071091 2.392807 C -1.691696 0.95433 -0.847946 0.279037 -0.00126648 0.00218201 C -0.847946 -0.279068 -1.691696 -0.955826 -2.071091 -2.392838 " transform="matrix(2.666667, 0, 0, -2.666667, 499.929159, 24.9316)"/>
<path fill-rule="nonzero" fill="rgb(0%, 0%, 0%)" fill-opacity="1" d="M 459.074219 16.648438 C 457.867188 16.648438 457.699219 16.648438 457.699219 15.855469 L 457.699219 12.855469 C 457.785156 12.9375 458.660156 13.898438 460.199219 13.898438 C 462.660156 13.898438 464.742188 12.0625 464.742188 9.730469 C 464.742188 7.4375 462.867188 5.523438 460.492188 5.523438 C 459.449219 5.523438 458.367188 5.9375 457.617188 6.6875 L 457.617188 5.523438 L 454.824219 5.730469 L 454.824219 6.398438 C 456.117188 6.398438 456.199219 6.523438 456.199219 7.273438 L 456.199219 15.855469 C 456.199219 16.648438 456.035156 16.648438 454.824219 16.648438 L 454.824219 17.355469 C 454.867188 17.355469 456.160156 17.273438 456.949219 17.273438 C 457.617188 17.273438 458.910156 17.3125 459.074219 17.355469 Z M 457.699219 7.523438 C 458.242188 6.605469 459.324219 6.148438 460.285156 6.148438 C 461.867188 6.148438 463.074219 7.773438 463.074219 9.730469 C 463.074219 11.855469 461.660156 13.398438 460.117188 13.398438 C 458.449219 13.398438 457.742188 11.980469 457.699219 11.855469 Z M 457.699219 7.523438 "/>
<path fill-rule="nonzero" fill="rgb(0%, 0%, 0%)" fill-opacity="1" d="M 469.332031 9.480469 C 469.332031 7.9375 470.042969 6.0625 471.832031 6.0625 C 471.667969 6.1875 471.5 6.4375 471.5 6.730469 C 471.5 7.355469 472 7.5625 472.332031 7.5625 C 472.792969 7.5625 473.207031 7.273438 473.207031 6.730469 C 473.207031 6.105469 472.582031 5.523438 471.707031 5.523438 C 470.792969 5.523438 469.75 6.105469 469.207031 7.523438 L 469.207031 5.523438 L 466.542969 5.730469 L 466.542969 6.398438 C 467.792969 6.398438 467.917969 6.523438 467.917969 7.4375 L 467.917969 12.273438 C 467.917969 13.0625 467.75 13.0625 466.542969 13.0625 L 466.542969 13.730469 C 466.625 13.730469 467.875 13.648438 468.667969 13.648438 C 469.457031 13.648438 470.25 13.6875 471.082031 13.730469 L 471.082031 13.0625 L 470.707031 13.0625 C 469.332031 13.0625 469.332031 12.855469 469.332031 12.230469 Z M 469.332031 9.480469 "/>
<path fill-rule="nonzero" fill="rgb(0%, 0%, 0%)" fill-opacity="1" d="M 479.234375 10.214844 C 479.234375 9.839844 479.195312 9.839844 478.734375 9.839844 C 477.820312 10.675781 476.320312 10.675781 476.070312 10.675781 L 475.859375 10.675781 L 475.859375 11.257812 L 476.070312 11.257812 C 476.359375 11.257812 477.234375 11.214844 478.027344 10.882812 L 478.027344 17.550781 C 478.027344 17.925781 478.027344 18.089844 476.609375 18.089844 L 475.945312 18.089844 L 475.945312 18.675781 C 476.652344 18.632812 477.859375 18.632812 478.609375 18.632812 C 479.402344 18.632812 480.570312 18.632812 481.320312 18.675781 L 481.320312 18.089844 L 480.652344 18.089844 C 479.234375 18.089844 479.234375 17.925781 479.234375 17.550781 Z M 479.234375 10.214844 "/>
<path fill="none" stroke-width="0.39848" stroke-linecap="butt" stroke-linejoin="miter" stroke="rgb(0%, 0%, 0%)" stroke-opacity="1" stroke-miterlimit="10" d="M 27.158508 26.751919 L 27.158508 8.787075 " transform="matrix(2.666667, 0, 0, -2.666667, 290.909342, 117.162669)"/>
<path fill="none" stroke-width="0.39848" stroke-linecap="round" stroke-linejoin="round" stroke="rgb(0%, 0%, 0%)" stroke-opacity="1" stroke-miterlimit="10" d="M -2.072216 2.389297 C -1.692822 0.95668 -0.849072 0.279922 -0.000926971 -0.00132751 C -0.849072 -0.278183 -1.692822 -0.95787 -2.072216 -2.391953 " transform="matrix(0, 2.666667, 2.666667, 0, 363.335571, 94.264191)"/>
<path fill-rule="nonzero" fill="rgb(0%, 0%, 0%)" fill-opacity="1" d="M 314.019531 61.613281 C 313.894531 61.28125 313.851562 61.195312 313.644531 61.195312 C 313.4375 61.195312 313.351562 61.363281 313.226562 61.570312 L 309.019531 72.695312 C 308.769531 73.28125 308.394531 73.570312 307.894531 73.613281 C 307.8125 73.613281 307.519531 73.65625 307.519531 73.945312 C 307.519531 74.28125 307.8125 74.28125 308.144531 74.28125 L 311.101562 74.28125 C 311.4375 74.28125 311.726562 74.28125 311.726562 73.945312 C 311.726562 73.65625 311.476562 73.65625 311.3125 73.613281 C 311.0625 73.613281 310.601562 73.53125 310.601562 72.40625 C 310.601562 71.820312 310.726562 71.195312 310.851562 70.613281 L 314.9375 70.613281 C 315.601562 72.445312 315.601562 72.738281 315.644531 73.113281 C 315.1875 73.570312 314.6875 73.613281 314.476562 73.613281 C 314.269531 73.65625 314.144531 73.78125 314.144531 73.945312 C 314.144531 74.28125 314.4375 74.28125 314.769531 74.28125 L 319.601562 74.28125 C 319.9375 74.28125 320.269531 74.28125 320.269531 73.945312 C 320.269531 73.695312 320.019531 73.65625 319.851562 73.613281 C 319.4375 73.570312 319.101562 73.238281 318.726562 72.40625 Z M 311.0625 69.988281 C 311.476562 68.320312 312.0625 66.738281 312.6875 65.195312 C 313.269531 66.445312 314.394531 69.113281 314.6875 69.988281 Z M 309.9375 72.03125 L 309.976562 72.070312 L 309.976562 72.238281 C 309.9375 72.28125 309.9375 72.320312 309.9375 72.40625 C 309.9375 72.488281 309.9375 73.195312 310.226562 73.613281 L 309.226562 73.613281 C 309.4375 73.363281 309.519531 73.15625 309.644531 72.863281 Z M 312.976562 64.195312 L 313.644531 62.40625 L 318.144531 72.65625 C 318.226562 72.863281 318.4375 73.28125 318.6875 73.613281 L 316.0625 73.613281 C 316.226562 73.53125 316.3125 73.238281 316.3125 73.03125 C 316.3125 71.90625 314.6875 68.113281 313.894531 66.28125 Z M 312.976562 64.195312 "/>
<path fill-rule="nonzero" fill="rgb(0%, 0%, 0%)" fill-opacity="1" d="M 323.203125 75.644531 C 323.117188 75.976562 322.992188 76.5625 322.992188 76.601562 C 322.992188 76.894531 323.242188 77.101562 323.492188 77.101562 C 323.660156 77.101562 323.953125 76.976562 324.117188 76.644531 C 324.117188 76.5625 324.285156 75.9375 324.367188 75.601562 C 324.828125 73.8125 324.828125 73.769531 324.828125 73.726562 C 325.035156 73.394531 325.992188 71.519531 327.578125 71.519531 C 328.242188 71.519531 328.535156 71.851562 328.535156 72.476562 C 328.535156 73.226562 327.953125 74.601562 327.660156 75.351562 C 327.578125 75.519531 327.535156 75.6875 327.535156 75.894531 C 327.535156 76.601562 328.203125 77.101562 328.992188 77.101562 C 330.410156 77.101562 331.117188 75.351562 331.117188 75.019531 C 331.117188 74.851562 330.910156 74.851562 330.867188 74.851562 C 330.617188 74.851562 330.617188 74.894531 330.535156 75.144531 C 330.285156 75.9375 329.660156 76.644531 329.035156 76.644531 C 328.742188 76.644531 328.617188 76.4375 328.617188 76.144531 C 328.617188 75.851562 328.703125 75.726562 328.828125 75.4375 C 329.035156 74.894531 329.660156 73.394531 329.660156 72.644531 C 329.660156 71.644531 328.953125 71.0625 327.660156 71.0625 C 326.453125 71.0625 325.617188 71.8125 325.160156 72.394531 C 325.117188 71.269531 324.035156 71.0625 323.535156 71.0625 C 322.203125 71.0625 321.828125 73.101562 321.828125 73.101562 C 321.828125 73.3125 322.035156 73.3125 322.117188 73.3125 C 322.328125 73.3125 322.367188 73.226562 322.410156 73.0625 C 322.617188 72.269531 322.910156 71.519531 323.492188 71.519531 C 323.910156 71.519531 324.035156 71.9375 324.035156 72.226562 C 324.035156 72.394531 323.867188 72.894531 323.828125 73.269531 C 323.703125 73.601562 323.578125 74.144531 323.535156 74.4375 Z M 323.203125 75.644531 "/>
<path fill-rule="nonzero" fill="rgb(0%, 0%, 0%)" fill-opacity="1" d="M 344.027344 73.976562 C 344.234375 73.976562 344.566406 73.976562 344.566406 73.601562 C 344.566406 73.226562 344.234375 73.226562 344.027344 73.226562 L 335.027344 73.226562 C 334.816406 73.226562 334.441406 73.226562 334.441406 73.601562 C 334.441406 73.976562 334.816406 73.976562 335.027344 73.976562 Z M 344.027344 73.976562 "/>
<path fill-rule="nonzero" fill="rgb(0%, 0%, 0%)" fill-opacity="1" d="M 352 68.476562 C 352 68.101562 351.960938 68.101562 351.5 68.101562 C 350.585938 68.9375 349.085938 68.9375 348.835938 68.9375 L 348.625 68.9375 L 348.625 69.519531 L 348.835938 69.519531 C 349.125 69.519531 350 69.476562 350.792969 69.144531 L 350.792969 75.8125 C 350.792969 76.1875 350.792969 76.351562 349.375 76.351562 L 348.710938 76.351562 L 348.710938 76.9375 C 349.417969 76.894531 350.625 76.894531 351.375 76.894531 C 352.167969 76.894531 353.335938 76.894531 354.085938 76.9375 L 354.085938 76.351562 L 353.417969 76.351562 C 352 76.351562 352 76.1875 352 75.8125 Z M 352 68.476562 "/>
<path fill="none" stroke-width="0.39848" stroke-linecap="butt" stroke-linejoin="miter" stroke="rgb(0%, 0%, 0%)" stroke-opacity="1" stroke-miterlimit="10" d="M 90.619934 26.751919 L 90.619934 8.787075 " transform="matrix(2.666667, 0, 0, -2.666667, 290.909342, 117.162669)"/>
<path fill="none" stroke-width="0.39848" stroke-linecap="round" stroke-linejoin="round" stroke="rgb(0%, 0%, 0%)" stroke-opacity="1" stroke-miterlimit="10" d="M -2.072216 2.391525 C -1.692822 0.957443 -0.849072 0.277756 -0.000926971 0.000900269 C -0.849072 -0.28035 -1.692822 -0.955643 -2.072216 -2.389725 " transform="matrix(0, 2.666667, 2.666667, 0, 532.560099, 94.264191)"/>
<path fill-rule="nonzero" fill="rgb(0%, 0%, 0%)" fill-opacity="1" d="M 544.816406 67.308594 C 546.359375 66.640625 547.023438 66.390625 547.484375 66.140625 C 547.859375 66.015625 548.023438 65.933594 548.023438 65.558594 C 548.023438 65.265625 547.773438 64.976562 547.441406 64.976562 C 547.316406 64.976562 547.273438 64.976562 547.066406 65.140625 L 544.523438 66.851562 L 544.816406 64.101562 C 544.859375 63.765625 544.816406 63.308594 544.234375 63.308594 C 544.023438 63.308594 543.648438 63.433594 543.648438 63.851562 C 543.648438 64.015625 543.734375 64.558594 543.773438 64.765625 C 543.816406 65.058594 543.941406 66.433594 543.984375 66.851562 L 541.441406 65.140625 C 541.273438 65.058594 541.234375 64.976562 541.066406 64.976562 C 540.691406 64.976562 540.484375 65.265625 540.484375 65.558594 C 540.484375 65.933594 540.691406 66.058594 540.859375 66.101562 L 543.648438 67.308594 C 542.148438 67.976562 541.441406 68.226562 540.984375 68.433594 C 540.648438 68.601562 540.484375 68.683594 540.484375 69.015625 C 540.484375 69.351562 540.691406 69.601562 541.066406 69.601562 C 541.191406 69.601562 541.234375 69.601562 541.441406 69.433594 L 543.984375 67.765625 L 543.648438 70.726562 C 543.648438 71.140625 544.023438 71.308594 544.234375 71.308594 C 544.484375 71.308594 544.816406 71.140625 544.816406 70.726562 C 544.816406 70.558594 544.734375 70.015625 544.734375 69.851562 C 544.691406 69.515625 544.566406 68.183594 544.523438 67.765625 L 546.734375 69.226562 C 547.234375 69.601562 547.273438 69.601562 547.441406 69.601562 C 547.773438 69.601562 548.023438 69.351562 548.023438 69.015625 C 548.023438 68.640625 547.773438 68.558594 547.609375 68.476562 Z M 544.816406 67.308594 "/>
<path fill-rule="nonzero" fill="rgb(0%, 0%, 0%)" fill-opacity="1" d="M 555.910156 71.886719 L 553.367188 65.847656 C 553.242188 65.554688 553.242188 65.554688 552.867188 65.554688 L 550.410156 65.554688 C 550.160156 65.554688 549.953125 65.554688 549.953125 65.804688 C 549.953125 66.054688 550.203125 66.054688 550.285156 66.054688 C 550.453125 66.054688 550.785156 66.054688 551.078125 66.179688 L 551.078125 73.261719 C 551.078125 73.554688 551.078125 74.136719 550.160156 74.222656 C 549.910156 74.222656 549.910156 74.429688 549.910156 74.429688 C 549.910156 74.679688 550.160156 74.679688 550.367188 74.679688 L 552.453125 74.679688 C 552.660156 74.679688 552.867188 74.679688 552.867188 74.429688 C 552.867188 74.304688 552.785156 74.222656 552.660156 74.222656 C 551.660156 74.136719 551.660156 73.597656 551.660156 73.261719 L 551.660156 66.636719 L 554.910156 74.386719 C 554.992188 74.636719 555.117188 74.679688 555.160156 74.679688 C 555.328125 74.679688 555.367188 74.554688 555.453125 74.429688 L 558.703125 66.636719 L 558.703125 73.261719 C 558.703125 73.554688 558.703125 74.136719 557.828125 74.222656 C 557.578125 74.222656 557.578125 74.429688 557.578125 74.429688 C 557.578125 74.679688 557.785156 74.679688 557.992188 74.679688 L 561.578125 74.679688 C 561.785156 74.679688 561.992188 74.679688 561.992188 74.429688 C 561.992188 74.304688 561.910156 74.222656 561.785156 74.222656 C 560.742188 74.136719 560.742188 73.597656 560.742188 73.261719 L 560.742188 66.972656 C 560.742188 66.722656 560.742188 66.136719 561.660156 66.054688 C 561.785156 66.011719 561.910156 65.972656 561.910156 65.804688 C 561.910156 65.554688 561.703125 65.554688 561.492188 65.554688 L 558.910156 65.554688 C 558.578125 65.554688 558.535156 65.554688 558.410156 65.847656 Z M 555.492188 72.136719 C 555.617188 72.347656 555.617188 72.347656 555.785156 72.429688 L 555.203125 73.847656 L 555.160156 73.847656 L 552.117188 66.597656 C 552.078125 66.429688 551.953125 66.179688 551.785156 66.054688 L 552.953125 66.054688 Z M 551.492188 74.222656 L 551.242188 74.222656 C 551.285156 74.179688 551.328125 74.136719 551.328125 74.097656 C 551.367188 74.097656 551.367188 74.097656 551.367188 74.054688 Z M 559.160156 66.054688 L 560.578125 66.054688 C 560.285156 66.386719 560.285156 66.722656 560.285156 66.972656 L 560.285156 73.304688 C 560.285156 73.554688 560.285156 73.886719 560.617188 74.222656 L 558.867188 74.222656 C 559.160156 73.886719 559.160156 73.554688 559.160156 73.304688 Z M 559.160156 66.054688 "/>
<path fill-rule="nonzero" fill="rgb(0%, 0%, 0%)" fill-opacity="1" d="M 564.828125 76.042969 C 564.746094 76.378906 564.621094 76.960938 564.621094 77.003906 C 564.621094 77.292969 564.871094 77.503906 565.121094 77.503906 C 565.285156 77.503906 565.578125 77.378906 565.746094 77.042969 C 565.746094 76.960938 565.910156 76.335938 565.996094 76.003906 C 566.453125 74.210938 566.453125 74.167969 566.453125 74.128906 C 566.660156 73.792969 567.621094 71.917969 569.203125 71.917969 C 569.871094 71.917969 570.160156 72.253906 570.160156 72.878906 C 570.160156 73.628906 569.578125 75.003906 569.285156 75.753906 C 569.203125 75.917969 569.160156 76.085938 569.160156 76.292969 C 569.160156 77.003906 569.828125 77.503906 570.621094 77.503906 C 572.035156 77.503906 572.746094 75.753906 572.746094 75.417969 C 572.746094 75.253906 572.535156 75.253906 572.496094 75.253906 C 572.246094 75.253906 572.246094 75.292969 572.160156 75.542969 C 571.910156 76.335938 571.285156 77.042969 570.660156 77.042969 C 570.371094 77.042969 570.246094 76.835938 570.246094 76.542969 C 570.246094 76.253906 570.328125 76.128906 570.453125 75.835938 C 570.660156 75.292969 571.285156 73.792969 571.285156 73.042969 C 571.285156 72.042969 570.578125 71.460938 569.285156 71.460938 C 568.078125 71.460938 567.246094 72.210938 566.785156 72.792969 C 566.746094 71.667969 565.660156 71.460938 565.160156 71.460938 C 563.828125 71.460938 563.453125 73.503906 563.453125 73.503906 C 563.453125 73.710938 563.660156 73.710938 563.746094 73.710938 C 563.953125 73.710938 563.996094 73.628906 564.035156 73.460938 C 564.246094 72.667969 564.535156 71.917969 565.121094 71.917969 C 565.535156 71.917969 565.660156 72.335938 565.660156 72.628906 C 565.660156 72.792969 565.496094 73.292969 565.453125 73.667969 C 565.328125 74.003906 565.203125 74.542969 565.160156 74.835938 Z M 564.828125 76.042969 "/>
<path fill="none" stroke-width="2.33075" stroke-linecap="butt" stroke-linejoin="miter" stroke="rgb(0%, 0%, 0%)" stroke-opacity="1" stroke-miterlimit="10" d="M -77.180847 10.413052 L -62.637878 20.236294 " transform="matrix(2.666667, 0, 0, -2.666667, 290.909342, 117.162669)"/>
<path fill="none" stroke-width="1.53377" stroke-linecap="butt" stroke-linejoin="miter" stroke="rgb(100%, 100%, 100%)" stroke-opacity="1" stroke-miterlimit="10" d="M -77.180847 10.413052 L -62.637878 20.236294 " transform="matrix(2.666667, 0, 0, -2.666667, 290.909342, 117.162669)"/>
<path fill="none" stroke-width="0.39848" stroke-linecap="round" stroke-linejoin="round" stroke="rgb(0%, 0%, 0%)" stroke-opacity="1" stroke-miterlimit="10" d="M -1.29434 2.557304 C -0.666221 1.20503 1.023108 0.0499235 1.988574 0.000639062 C 1.02211 -0.0483938 -0.666118 -1.207956 -1.296702 -2.560373 " transform="matrix(2.209787, -1.49248, -1.49248, -2.209787, 123.87616, 63.199788)"/>
<path fill-rule="nonzero" fill="rgb(0%, 0%, 0%)" fill-opacity="1" d="M 57.582031 51.203125 C 57.582031 51.160156 57.625 50.910156 57.625 50.910156 C 57.625 50.785156 57.582031 50.621094 57.332031 50.621094 C 56.957031 50.621094 55.414062 50.785156 54.957031 50.828125 C 54.832031 50.828125 54.539062 50.871094 54.539062 51.246094 C 54.539062 51.496094 54.832031 51.496094 55.039062 51.496094 C 55.914062 51.496094 55.914062 51.660156 55.914062 51.785156 C 55.914062 51.910156 55.875 52.035156 55.875 52.203125 L 53.25 62.703125 C 53.125 63.035156 53.125 63.078125 53.125 63.121094 C 53.125 63.410156 53.375 63.703125 53.789062 63.703125 C 54 63.703125 54.332031 63.621094 54.539062 63.246094 C 54.582031 63.121094 54.75 62.453125 54.832031 62.078125 L 55.289062 60.410156 C 55.332031 60.121094 55.539062 59.410156 55.582031 59.160156 C 55.75 58.453125 55.75 58.410156 56.125 57.828125 C 56.75 56.910156 57.664062 55.871094 59.125 55.871094 C 60.164062 55.871094 60.207031 56.703125 60.207031 57.160156 C 60.207031 58.285156 59.414062 60.328125 59.125 61.121094 C 58.914062 61.660156 58.832031 61.828125 58.832031 62.121094 C 58.832031 63.121094 59.664062 63.703125 60.582031 63.703125 C 62.457031 63.703125 63.289062 61.160156 63.289062 60.871094 C 63.289062 60.621094 63.039062 60.621094 62.957031 60.621094 C 62.707031 60.621094 62.707031 60.746094 62.625 60.953125 C 62.207031 62.453125 61.375 63.203125 60.664062 63.203125 C 60.25 63.203125 60.164062 62.953125 60.164062 62.535156 C 60.164062 62.121094 60.289062 61.871094 60.625 61.035156 C 60.832031 60.453125 61.582031 58.496094 61.582031 57.453125 C 61.582031 57.160156 61.582031 56.371094 60.914062 55.828125 C 60.582031 55.621094 60.039062 55.328125 59.164062 55.328125 C 57.832031 55.328125 56.832031 56.078125 56.164062 56.871094 Z M 57.582031 51.203125 "/>
<path fill-rule="nonzero" fill="rgb(0%, 0%, 0%)" fill-opacity="1" d="M 66.769531 64.898438 C 66.6875 65.234375 66.5625 65.816406 66.5625 65.859375 C 66.5625 66.148438 66.8125 66.359375 67.0625 66.359375 C 67.226562 66.359375 67.519531 66.234375 67.6875 65.898438 C 67.6875 65.816406 67.851562 65.191406 67.9375 64.859375 C 68.394531 63.066406 68.394531 63.023438 68.394531 62.984375 C 68.601562 62.648438 69.5625 60.773438 71.144531 60.773438 C 71.8125 60.773438 72.101562 61.109375 72.101562 61.734375 C 72.101562 62.484375 71.519531 63.859375 71.226562 64.609375 C 71.144531 64.773438 71.101562 64.941406 71.101562 65.148438 C 71.101562 65.859375 71.769531 66.359375 72.5625 66.359375 C 73.976562 66.359375 74.6875 64.609375 74.6875 64.273438 C 74.6875 64.109375 74.476562 64.109375 74.4375 64.109375 C 74.1875 64.109375 74.1875 64.148438 74.101562 64.398438 C 73.851562 65.191406 73.226562 65.898438 72.601562 65.898438 C 72.3125 65.898438 72.1875 65.691406 72.1875 65.398438 C 72.1875 65.109375 72.269531 64.984375 72.394531 64.691406 C 72.601562 64.148438 73.226562 62.648438 73.226562 61.898438 C 73.226562 60.898438 72.519531 60.316406 71.226562 60.316406 C 70.019531 60.316406 69.1875 61.066406 68.726562 61.648438 C 68.6875 60.523438 67.601562 60.316406 67.101562 60.316406 C 65.769531 60.316406 65.394531 62.359375 65.394531 62.359375 C 65.394531 62.566406 65.601562 62.566406 65.6875 62.566406 C 65.894531 62.566406 65.9375 62.484375 65.976562 62.316406 C 66.1875 61.523438 66.476562 60.773438 67.0625 60.773438 C 67.476562 60.773438 67.601562 61.191406 67.601562 61.484375 C 67.601562 61.648438 67.4375 62.148438 67.394531 62.523438 C 67.269531 62.859375 67.144531 63.398438 67.101562 63.691406 Z M 66.769531 64.898438 "/>
<path fill-rule="nonzero" fill="rgb(0%, 0%, 0%)" fill-opacity="1" d="M 87.597656 63.234375 C 87.804688 63.234375 88.136719 63.234375 88.136719 62.859375 C 88.136719 62.484375 87.804688 62.484375 87.597656 62.484375 L 78.597656 62.484375 C 78.386719 62.484375 78.011719 62.484375 78.011719 62.859375 C 78.011719 63.234375 78.386719 63.234375 78.597656 63.234375 Z M 87.597656 63.234375 "/>
<path fill-rule="nonzero" fill="rgb(0%, 0%, 0%)" fill-opacity="1" d="M 98.109375 63.609375 L 97.527344 63.609375 C 97.527344 63.859375 97.359375 64.691406 97.152344 64.816406 C 97.070312 64.898438 95.945312 64.898438 95.734375 64.898438 L 93.152344 64.898438 C 94.027344 64.273438 94.984375 63.523438 95.777344 62.984375 C 96.984375 62.148438 98.109375 61.398438 98.109375 59.984375 C 98.109375 58.273438 96.484375 57.359375 94.609375 57.359375 C 92.820312 57.359375 91.484375 58.359375 91.484375 59.691406 C 91.484375 60.359375 92.070312 60.484375 92.277344 60.484375 C 92.609375 60.484375 93.027344 60.234375 93.027344 59.691406 C 93.027344 59.234375 92.695312 58.941406 92.277344 58.941406 C 92.652344 58.316406 93.445312 57.941406 94.320312 57.941406 C 95.609375 57.941406 96.695312 58.691406 96.695312 59.984375 C 96.695312 61.109375 95.902344 61.984375 94.902344 62.816406 L 91.652344 65.566406 C 91.527344 65.691406 91.484375 65.691406 91.484375 65.773438 L 91.484375 66.191406 L 97.652344 66.191406 Z M 98.109375 63.609375 "/>
<path fill="none" stroke-width="0.39848" stroke-linecap="butt" stroke-linejoin="miter" stroke="rgb(0%, 0%, 0%)" stroke-opacity="1" stroke-miterlimit="10" d="M -82.048523 0.16647 L -58.805847 0.16647 " transform="matrix(2.666667, 0, 0, -2.666667, 290.909342, 117.162669)"/>
<path fill="none" stroke-width="0.39848" stroke-linecap="round" stroke-linejoin="round" stroke="rgb(0%, 0%, 0%)" stroke-opacity="1" stroke-miterlimit="10" d="M -2.07045 2.391064 C -1.69252 0.956982 -0.84877 0.277294 -0.00062561 0.00043869 C -0.84877 -0.280811 -1.69252 -0.956104 -2.07045 -2.390186 " transform="matrix(2.666667, 0, 0, -2.666667, 134.626668, 116.71992)"/>
<path fill-rule="nonzero" fill="rgb(0%, 0%, 0%)" fill-opacity="1" d="M 135.03125 93.769531 C 134.742188 93.769531 134.28125 93.769531 134.28125 94.1875 C 134.28125 94.6875 134.699219 94.6875 135.03125 94.6875 L 141.53125 94.6875 C 142.15625 94.6875 142.242188 94.5625 142.242188 93.980469 L 142.242188 87.394531 C 142.242188 87.105469 142.242188 86.6875 141.824219 86.6875 C 141.324219 86.6875 141.324219 87.1875 141.324219 87.480469 L 141.324219 93.769531 Z M 135.03125 93.769531 "/>
<path fill="none" stroke-width="0.39848" stroke-linecap="butt" stroke-linejoin="miter" stroke="rgb(0%, 0%, 0%)" stroke-opacity="1" stroke-miterlimit="10" d="M -24.392273 0.16647 L 9.753235 0.16647 " transform="matrix(2.666667, 0, 0, -2.666667, 290.909342, 117.162669)"/>
<path fill="none" stroke-width="0.39848" stroke-linecap="round" stroke-linejoin="round" stroke="rgb(0%, 0%, 0%)" stroke-opacity="1" stroke-miterlimit="10" d="M -2.07103 2.391064 C -1.691635 0.956982 -0.85228 0.277294 0.000259399 0.00043869 C -0.85228 -0.280811 -1.691635 -0.956104 -2.07103 -2.390186 " transform="matrix(2.666667, 0, 0, -2.666667, 317.448527, 116.71992)"/>
<g clip-path="url(#clip-0)">
<path fill="none" stroke-width="2.33075" stroke-linecap="butt" stroke-linejoin="miter" stroke="rgb(0%, 0%, 0%)" stroke-opacity="1" stroke-miterlimit="10" d="M -15.486023 -12.8223 L 0.0149536 -20.587437 " transform="matrix(2.666667, 0, 0, -2.666667, 290.909342, 117.162669)"/>
</g>
<g clip-path="url(#clip-1)">
<path fill="none" stroke-width="1.53377" stroke-linecap="butt" stroke-linejoin="miter" stroke="rgb(100%, 100%, 100%)" stroke-opacity="1" stroke-miterlimit="10" d="M -15.486023 -12.8223 L 0.0149536 -20.587437 " transform="matrix(2.666667, 0, 0, -2.666667, 290.909342, 117.162669)"/>
</g>
<path fill="none" stroke-width="0.39848" stroke-linecap="round" stroke-linejoin="round" stroke="rgb(0%, 0%, 0%)" stroke-opacity="1" stroke-miterlimit="10" d="M -1.29355 2.559535 C -0.665963 1.209231 1.02277 0.046644 1.991111 -0.0022327 C 1.023516 -0.0496606 -0.664995 -1.205608 -1.293304 -2.561027 " transform="matrix(2.383867, 1.194747, 1.194747, -2.383867, 290.943624, 172.065023)"/>
<path fill-rule="nonzero" fill="rgb(0%, 0%, 0%)" fill-opacity="1" d="M 223.570312 169.855469 C 223.570312 169.8125 223.609375 169.5625 223.609375 169.5625 C 223.609375 169.4375 223.570312 169.273438 223.320312 169.273438 C 222.945312 169.273438 221.402344 169.4375 220.945312 169.480469 C 220.820312 169.480469 220.527344 169.523438 220.527344 169.898438 C 220.527344 170.148438 220.820312 170.148438 221.027344 170.148438 C 221.902344 170.148438 221.902344 170.3125 221.902344 170.4375 C 221.902344 170.5625 221.859375 170.6875 221.859375 170.855469 L 219.234375 181.355469 C 219.109375 181.6875 219.109375 181.730469 219.109375 181.773438 C 219.109375 182.0625 219.359375 182.355469 219.777344 182.355469 C 219.984375 182.355469 220.320312 182.273438 220.527344 181.898438 C 220.570312 181.773438 220.734375 181.105469 220.820312 180.730469 L 221.277344 179.0625 C 221.320312 178.773438 221.527344 178.0625 221.570312 177.8125 C 221.734375 177.105469 221.734375 177.0625 222.109375 176.480469 C 222.734375 175.5625 223.652344 174.523438 225.109375 174.523438 C 226.152344 174.523438 226.195312 175.355469 226.195312 175.8125 C 226.195312 176.9375 225.402344 178.980469 225.109375 179.773438 C 224.902344 180.3125 224.820312 180.480469 224.820312 180.773438 C 224.820312 181.773438 225.652344 182.355469 226.570312 182.355469 C 228.445312 182.355469 229.277344 179.8125 229.277344 179.523438 C 229.277344 179.273438 229.027344 179.273438 228.945312 179.273438 C 228.695312 179.273438 228.695312 179.398438 228.609375 179.605469 C 228.195312 181.105469 227.359375 181.855469 226.652344 181.855469 C 226.234375 181.855469 226.152344 181.605469 226.152344 181.1875 C 226.152344 180.773438 226.277344 180.523438 226.609375 179.6875 C 226.820312 179.105469 227.570312 177.148438 227.570312 176.105469 C 227.570312 175.8125 227.570312 175.023438 226.902344 174.480469 C 226.570312 174.273438 226.027344 173.980469 225.152344 173.980469 C 223.820312 173.980469 222.820312 174.730469 222.152344 175.523438 Z M 223.570312 169.855469 "/>
<path fill-rule="nonzero" fill="rgb(0%, 0%, 0%)" fill-opacity="1" d="M 232.757812 183.554688 C 232.671875 183.886719 232.546875 184.46875 232.546875 184.511719 C 232.546875 184.804688 232.796875 185.011719 233.046875 185.011719 C 233.214844 185.011719 233.507812 184.886719 233.671875 184.554688 C 233.671875 184.46875 233.839844 183.84375 233.921875 183.511719 C 234.382812 181.71875 234.382812 181.679688 234.382812 181.636719 C 234.589844 181.304688 235.546875 179.429688 237.132812 179.429688 C 237.796875 179.429688 238.089844 179.761719 238.089844 180.386719 C 238.089844 181.136719 237.507812 182.511719 237.214844 183.261719 C 237.132812 183.429688 237.089844 183.59375 237.089844 183.804688 C 237.089844 184.511719 237.757812 185.011719 238.546875 185.011719 C 239.964844 185.011719 240.671875 183.261719 240.671875 182.929688 C 240.671875 182.761719 240.464844 182.761719 240.421875 182.761719 C 240.171875 182.761719 240.171875 182.804688 240.089844 183.054688 C 239.839844 183.84375 239.214844 184.554688 238.589844 184.554688 C 238.296875 184.554688 238.171875 184.34375 238.171875 184.054688 C 238.171875 183.761719 238.257812 183.636719 238.382812 183.34375 C 238.589844 182.804688 239.214844 181.304688 239.214844 180.554688 C 239.214844 179.554688 238.507812 178.96875 237.214844 178.96875 C 236.007812 178.96875 235.171875 179.71875 234.714844 180.304688 C 234.671875 179.179688 233.589844 178.96875 233.089844 178.96875 C 231.757812 178.96875 231.382812 181.011719 231.382812 181.011719 C 231.382812 181.21875 231.589844 181.21875 231.671875 181.21875 C 231.882812 181.21875 231.921875 181.136719 231.964844 180.96875 C 232.171875 180.179688 232.464844 179.429688 233.046875 179.429688 C 233.464844 179.429688 233.589844 179.84375 233.589844 180.136719 C 233.589844 180.304688 233.421875 180.804688 233.382812 181.179688 C 233.257812 181.511719 233.132812 182.054688 233.089844 182.34375 Z M 232.757812 183.554688 "/>
<path fill-rule="nonzero" fill="rgb(0%, 0%, 0%)" fill-opacity="1" d="M 253.582031 181.886719 C 253.792969 181.886719 254.125 181.886719 254.125 181.511719 C 254.125 181.136719 253.792969 181.136719 253.582031 181.136719 L 244.582031 181.136719 C 244.375 181.136719 244 181.136719 244 181.511719 C 244 181.886719 244.375 181.886719 244.582031 181.886719 Z M 253.582031 181.886719 "/>
<path fill-rule="nonzero" fill="rgb(0%, 0%, 0%)" fill-opacity="1" d="M 261.554688 176.386719 C 261.554688 176.011719 261.515625 176.011719 261.054688 176.011719 C 260.140625 176.84375 258.640625 176.84375 258.390625 176.84375 L 258.179688 176.84375 L 258.179688 177.429688 L 258.390625 177.429688 C 258.679688 177.429688 259.554688 177.386719 260.347656 177.054688 L 260.347656 183.71875 C 260.347656 184.09375 260.347656 184.261719 258.929688 184.261719 L 258.265625 184.261719 L 258.265625 184.84375 C 258.972656 184.804688 260.179688 184.804688 260.929688 184.804688 C 261.722656 184.804688 262.890625 184.804688 263.640625 184.84375 L 263.640625 184.261719 L 262.972656 184.261719 C 261.554688 184.261719 261.554688 184.09375 261.554688 183.71875 Z M 261.554688 176.386719 "/>
<path fill="none" stroke-width="2.33075" stroke-linecap="butt" stroke-linejoin="miter" stroke="rgb(0%, 0%, 0%)" stroke-opacity="1" stroke-miterlimit="10" d="M 51.069153 13.139126 L 67.901672 22.268032 " transform="matrix(2.666667, 0, 0, -2.666667, 290.909342, 117.162669)"/>
<path fill="none" stroke-width="1.53377" stroke-linecap="butt" stroke-linejoin="miter" stroke="rgb(100%, 100%, 100%)" stroke-opacity="1" stroke-miterlimit="10" d="M 51.069153 13.139126 L 67.901672 22.268032 " transform="matrix(2.666667, 0, 0, -2.666667, 290.909342, 117.162669)"/>
<path fill="none" stroke-width="0.39848" stroke-linecap="round" stroke-linejoin="round" stroke="rgb(0%, 0%, 0%)" stroke-opacity="1" stroke-miterlimit="10" d="M -1.295125 2.559456 C -0.667675 1.209144 1.022789 0.0488235 1.990606 -0.00119637 C 1.022783 -0.0495016 -0.667106 -1.207711 -1.294377 -2.560695 " transform="matrix(2.343867, -1.27144, -1.27144, -2.343867, 471.977295, 57.778132)"/>
<path fill-rule="nonzero" fill="rgb(0%, 0%, 0%)" fill-opacity="1" d="M 426.210938 47.316406 C 426.210938 47.273438 426.25 47.023438 426.25 47.023438 C 426.25 46.898438 426.210938 46.730469 425.960938 46.730469 C 425.585938 46.730469 424.042969 46.898438 423.585938 46.941406 C 423.460938 46.941406 423.167969 46.980469 423.167969 47.355469 C 423.167969 47.605469 423.460938 47.605469 423.667969 47.605469 C 424.542969 47.605469 424.542969 47.773438 424.542969 47.898438 C 424.542969 48.023438 424.5 48.148438 424.5 48.316406 L 421.875 58.816406 C 421.75 59.148438 421.75 59.191406 421.75 59.230469 C 421.75 59.523438 422 59.816406 422.417969 59.816406 C 422.625 59.816406 422.960938 59.730469 423.167969 59.355469 C 423.210938 59.230469 423.375 58.566406 423.460938 58.191406 L 423.917969 56.523438 C 423.960938 56.230469 424.167969 55.523438 424.210938 55.273438 C 424.375 54.566406 424.375 54.523438 424.75 53.941406 C 425.375 53.023438 426.292969 51.980469 427.75 51.980469 C 428.792969 51.980469 428.835938 52.816406 428.835938 53.273438 C 428.835938 54.398438 428.042969 56.441406 427.75 57.230469 C 427.542969 57.773438 427.460938 57.941406 427.460938 58.230469 C 427.460938 59.230469 428.292969 59.816406 429.210938 59.816406 C 431.085938 59.816406 431.917969 57.273438 431.917969 56.980469 C 431.917969 56.730469 431.667969 56.730469 431.585938 56.730469 C 431.335938 56.730469 431.335938 56.855469 431.25 57.066406 C 430.835938 58.566406 430 59.316406 429.292969 59.316406 C 428.875 59.316406 428.792969 59.066406 428.792969 58.648438 C 428.792969 58.230469 428.917969 57.980469 429.25 57.148438 C 429.460938 56.566406 430.210938 54.605469 430.210938 53.566406 C 430.210938 53.273438 430.210938 52.480469 429.542969 51.941406 C 429.210938 51.730469 428.667969 51.441406 427.792969 51.441406 C 426.460938 51.441406 425.460938 52.191406 424.792969 52.980469 Z M 426.210938 47.316406 "/>
<path fill-rule="nonzero" fill="rgb(0%, 0%, 0%)" fill-opacity="1" d="M 435.398438 61.011719 C 435.3125 61.34375 435.1875 61.929688 435.1875 61.96875 C 435.1875 62.261719 435.4375 62.46875 435.6875 62.46875 C 435.855469 62.46875 436.148438 62.34375 436.3125 62.011719 C 436.3125 61.929688 436.480469 61.304688 436.5625 60.96875 C 437.023438 59.179688 437.023438 59.136719 437.023438 59.09375 C 437.230469 58.761719 438.1875 56.886719 439.773438 56.886719 C 440.4375 56.886719 440.730469 57.21875 440.730469 57.84375 C 440.730469 58.59375 440.148438 59.96875 439.855469 60.71875 C 439.773438 60.886719 439.730469 61.054688 439.730469 61.261719 C 439.730469 61.96875 440.398438 62.46875 441.1875 62.46875 C 442.605469 62.46875 443.3125 60.71875 443.3125 60.386719 C 443.3125 60.21875 443.105469 60.21875 443.0625 60.21875 C 442.8125 60.21875 442.8125 60.261719 442.730469 60.511719 C 442.480469 61.304688 441.855469 62.011719 441.230469 62.011719 C 440.9375 62.011719 440.8125 61.804688 440.8125 61.511719 C 440.8125 61.21875 440.898438 61.09375 441.023438 60.804688 C 441.230469 60.261719 441.855469 58.761719 441.855469 58.011719 C 441.855469 57.011719 441.148438 56.429688 439.855469 56.429688 C 438.648438 56.429688 437.8125 57.179688 437.355469 57.761719 C 437.3125 56.636719 436.230469 56.429688 435.730469 56.429688 C 434.398438 56.429688 434.023438 58.46875 434.023438 58.46875 C 434.023438 58.679688 434.230469 58.679688 434.3125 58.679688 C 434.523438 58.679688 434.5625 58.59375 434.605469 58.429688 C 434.8125 57.636719 435.105469 56.886719 435.6875 56.886719 C 436.105469 56.886719 436.230469 57.304688 436.230469 57.59375 C 436.230469 57.761719 436.0625 58.261719 436.023438 58.636719 C 435.898438 58.96875 435.773438 59.511719 435.730469 59.804688 Z M 435.398438 61.011719 "/>
<path fill="none" stroke-width="0.39848" stroke-linecap="butt" stroke-linejoin="miter" stroke="rgb(0%, 0%, 0%)" stroke-opacity="1" stroke-miterlimit="10" d="M 44.166809 0.16647 L 78.310852 0.16647 " transform="matrix(2.666667, 0, 0, -2.666667, 290.909342, 117.162669)"/>
<path fill="none" stroke-width="0.39848" stroke-linecap="round" stroke-linejoin="round" stroke="rgb(0%, 0%, 0%)" stroke-opacity="1" stroke-miterlimit="10" d="M -2.074539 2.391064 C -1.695145 0.956982 -0.851395 0.277294 -0.000320435 0.00043869 C -0.851395 -0.280811 -1.695145 -0.956104 -2.074539 -2.390186 " transform="matrix(2.666667, 0, 0, -2.666667, 500.270386, 116.71992)"/>
<path fill-rule="nonzero" fill="rgb(0%, 0%, 0%)" fill-opacity="1" d="M 309.828125 149.558594 C 309.828125 149.847656 309.828125 150.308594 310.242188 150.308594 C 310.742188 150.308594 310.742188 149.890625 310.742188 149.558594 L 310.742188 143.058594 C 310.742188 142.433594 310.617188 142.347656 310.035156 142.347656 L 303.453125 142.347656 C 303.160156 142.347656 302.742188 142.347656 302.742188 142.765625 C 302.742188 143.265625 303.242188 143.265625 303.535156 143.265625 L 309.828125 143.265625 Z M 309.828125 149.558594 "/>
<path fill-rule="nonzero" fill="rgb(0%, 0%, 0%)" fill-opacity="1" d="M 485.207031 98.390625 C 484.914062 98.390625 484.457031 98.390625 484.457031 98.808594 C 484.457031 99.308594 484.871094 99.308594 485.207031 99.308594 L 491.707031 99.308594 C 492.332031 99.308594 492.414062 99.183594 492.414062 98.601562 L 492.414062 92.015625 C 492.414062 91.726562 492.414062 91.308594 491.996094 91.308594 C 491.496094 91.308594 491.496094 91.808594 491.496094 92.101562 L 491.496094 98.390625 Z M 485.207031 98.390625 "/>
<path fill="none" stroke-width="0.39848" stroke-linecap="butt" stroke-linejoin="miter" stroke="rgb(0%, 0%, 0%)" stroke-opacity="1" stroke-miterlimit="10" d="M -31.095398 -34.20023 L 9.624329 -34.20023 " transform="matrix(2.666667, 0, 0, -2.666667, 290.909342, 117.162669)"/>
<path fill="none" stroke-width="0.39848" stroke-linecap="round" stroke-linejoin="round" stroke="rgb(0%, 0%, 0%)" stroke-opacity="1" stroke-miterlimit="10" d="M -2.071938 2.389618 C -1.692543 0.955536 -0.848793 0.280243 -0.000648499 -0.00100708 C -0.848793 -0.279327 -1.692543 -0.95462 -2.071938 -2.391632 " transform="matrix(2.666667, 0, 0, -2.666667, 317.107198, 208.360596)"/>
<path fill="none" stroke-width="0.39848" stroke-linecap="butt" stroke-linejoin="miter" stroke="rgb(0%, 0%, 0%)" stroke-opacity="1" stroke-miterlimit="10" d="M 27.158508 -26.032261 L 27.158508 -8.896519 " transform="matrix(2.666667, 0, 0, -2.666667, 290.909342, 117.162669)"/>
<path fill="none" stroke-width="0.39848" stroke-linecap="round" stroke-linejoin="round" stroke="rgb(0%, 0%, 0%)" stroke-opacity="1" stroke-miterlimit="10" d="M -2.073891 2.391953 C -1.694496 0.95787 -0.850746 0.278183 0.000328064 0.00132751 C -0.850746 -0.279922 -1.694496 -0.95668 -2.073891 -2.389297 " transform="matrix(0, -2.666667, -2.666667, 0, 363.335571, 140.356344)"/>
<path fill-rule="nonzero" fill="rgb(0%, 0%, 0%)" fill-opacity="1" d="M 375.59375 158.285156 C 377.132812 157.621094 377.800781 157.371094 378.257812 157.121094 C 378.632812 156.996094 378.800781 156.910156 378.800781 156.535156 C 378.800781 156.246094 378.550781 155.953125 378.21875 155.953125 C 378.09375 155.953125 378.050781 155.953125 377.84375 156.121094 L 375.300781 157.828125 L 375.59375 155.078125 C 375.632812 154.746094 375.59375 154.285156 375.007812 154.285156 C 374.800781 154.285156 374.425781 154.410156 374.425781 154.828125 C 374.425781 154.996094 374.507812 155.535156 374.550781 155.746094 C 374.59375 156.035156 374.71875 157.410156 374.757812 157.828125 L 372.21875 156.121094 C 372.050781 156.035156 372.007812 155.953125 371.84375 155.953125 C 371.46875 155.953125 371.257812 156.246094 371.257812 156.535156 C 371.257812 156.910156 371.46875 157.035156 371.632812 157.078125 L 374.425781 158.285156 C 372.925781 158.953125 372.21875 159.203125 371.757812 159.410156 C 371.425781 159.578125 371.257812 159.660156 371.257812 159.996094 C 371.257812 160.328125 371.46875 160.578125 371.84375 160.578125 C 371.96875 160.578125 372.007812 160.578125 372.21875 160.410156 L 374.757812 158.746094 L 374.425781 161.703125 C 374.425781 162.121094 374.800781 162.285156 375.007812 162.285156 C 375.257812 162.285156 375.59375 162.121094 375.59375 161.703125 C 375.59375 161.535156 375.507812 160.996094 375.507812 160.828125 C 375.46875 160.496094 375.34375 159.160156 375.300781 158.746094 L 377.507812 160.203125 C 378.007812 160.578125 378.050781 160.578125 378.21875 160.578125 C 378.550781 160.578125 378.800781 160.328125 378.800781 159.996094 C 378.800781 159.621094 378.550781 159.535156 378.382812 159.453125 Z M 375.59375 158.285156 "/>
<path fill-rule="nonzero" fill="rgb(0%, 0%, 0%)" fill-opacity="1" d="M 386.6875 162.867188 L 384.144531 156.824219 C 384.019531 156.535156 384.019531 156.535156 383.644531 156.535156 L 381.1875 156.535156 C 380.9375 156.535156 380.726562 156.535156 380.726562 156.785156 C 380.726562 157.035156 380.976562 157.035156 381.0625 157.035156 C 381.226562 157.035156 381.5625 157.035156 381.851562 157.160156 L 381.851562 164.242188 C 381.851562 164.535156 381.851562 165.117188 380.9375 165.199219 C 380.6875 165.199219 380.6875 165.410156 380.6875 165.410156 C 380.6875 165.660156 380.9375 165.660156 381.144531 165.660156 L 383.226562 165.660156 C 383.4375 165.660156 383.644531 165.660156 383.644531 165.410156 C 383.644531 165.285156 383.5625 165.199219 383.4375 165.199219 C 382.4375 165.117188 382.4375 164.574219 382.4375 164.242188 L 382.4375 157.617188 L 385.6875 165.367188 C 385.769531 165.617188 385.894531 165.660156 385.9375 165.660156 C 386.101562 165.660156 386.144531 165.535156 386.226562 165.410156 L 389.476562 157.617188 L 389.476562 164.242188 C 389.476562 164.535156 389.476562 165.117188 388.601562 165.199219 C 388.351562 165.199219 388.351562 165.410156 388.351562 165.410156 C 388.351562 165.660156 388.5625 165.660156 388.769531 165.660156 L 392.351562 165.660156 C 392.5625 165.660156 392.769531 165.660156 392.769531 165.410156 C 392.769531 165.285156 392.6875 165.199219 392.5625 165.199219 C 391.519531 165.117188 391.519531 164.574219 391.519531 164.242188 L 391.519531 157.949219 C 391.519531 157.699219 391.519531 157.117188 392.4375 157.035156 C 392.5625 156.992188 392.6875 156.949219 392.6875 156.785156 C 392.6875 156.535156 392.476562 156.535156 392.269531 156.535156 L 389.6875 156.535156 C 389.351562 156.535156 389.3125 156.535156 389.1875 156.824219 Z M 386.269531 163.117188 C 386.394531 163.324219 386.394531 163.324219 386.5625 163.410156 L 385.976562 164.824219 L 385.9375 164.824219 L 382.894531 157.574219 C 382.851562 157.410156 382.726562 157.160156 382.5625 157.035156 L 383.726562 157.035156 Z M 382.269531 165.199219 L 382.019531 165.199219 C 382.0625 165.160156 382.101562 165.117188 382.101562 165.074219 C 382.144531 165.074219 382.144531 165.074219 382.144531 165.035156 Z M 389.9375 157.035156 L 391.351562 157.035156 C 391.0625 157.367188 391.0625 157.699219 391.0625 157.949219 L 391.0625 164.285156 C 391.0625 164.535156 391.0625 164.867188 391.394531 165.199219 L 389.644531 165.199219 C 389.9375 164.867188 389.9375 164.535156 389.9375 164.285156 Z M 389.9375 157.035156 "/>
<path fill-rule="nonzero" fill="rgb(0%, 0%, 0%)" fill-opacity="1" d="M 395.605469 168.648438 C 395.519531 168.980469 395.394531 169.5625 395.394531 169.605469 C 395.394531 169.898438 395.644531 170.105469 395.894531 170.105469 C 396.0625 170.105469 396.355469 169.980469 396.519531 169.648438 C 396.519531 169.5625 396.6875 168.9375 396.769531 168.605469 C 397.230469 166.8125 397.230469 166.773438 397.230469 166.730469 C 397.4375 166.398438 398.394531 164.523438 399.980469 164.523438 C 400.644531 164.523438 400.9375 164.855469 400.9375 165.480469 C 400.9375 166.230469 400.355469 167.605469 400.0625 168.355469 C 399.980469 168.523438 399.9375 168.6875 399.9375 168.898438 C 399.9375 169.605469 400.605469 170.105469 401.394531 170.105469 C 402.8125 170.105469 403.519531 168.355469 403.519531 168.023438 C 403.519531 167.855469 403.3125 167.855469 403.269531 167.855469 C 403.019531 167.855469 403.019531 167.898438 402.9375 168.148438 C 402.6875 168.9375 402.0625 169.648438 401.4375 169.648438 C 401.144531 169.648438 401.019531 169.4375 401.019531 169.148438 C 401.019531 168.855469 401.105469 168.730469 401.230469 168.4375 C 401.4375 167.898438 402.0625 166.398438 402.0625 165.648438 C 402.0625 164.648438 401.355469 164.0625 400.0625 164.0625 C 398.855469 164.0625 398.019531 164.8125 397.5625 165.398438 C 397.519531 164.273438 396.4375 164.0625 395.9375 164.0625 C 394.605469 164.0625 394.230469 166.105469 394.230469 166.105469 C 394.230469 166.3125 394.4375 166.3125 394.519531 166.3125 C 394.730469 166.3125 394.769531 166.230469 394.8125 166.0625 C 395.019531 165.273438 395.3125 164.523438 395.894531 164.523438 C 396.3125 164.523438 396.4375 164.9375 396.4375 165.230469 C 396.4375 165.398438 396.269531 165.898438 396.230469 166.273438 C 396.105469 166.605469 395.980469 167.148438 395.9375 167.4375 Z M 395.605469 168.648438 "/>
<path fill-rule="nonzero" fill="rgb(0%, 0%, 0%)" fill-opacity="1" d="M 416.429688 166.980469 C 416.640625 166.980469 416.972656 166.980469 416.972656 166.605469 C 416.972656 166.230469 416.640625 166.230469 416.429688 166.230469 L 407.429688 166.230469 C 407.222656 166.230469 406.847656 166.230469 406.847656 166.605469 C 406.847656 166.980469 407.222656 166.980469 407.429688 166.980469 Z M 416.429688 166.980469 "/>
<path fill-rule="nonzero" fill="rgb(0%, 0%, 0%)" fill-opacity="1" d="M 424.402344 161.480469 C 424.402344 161.105469 424.363281 161.105469 423.902344 161.105469 C 422.988281 161.9375 421.488281 161.9375 421.238281 161.9375 L 421.027344 161.9375 L 421.027344 162.523438 L 421.238281 162.523438 C 421.527344 162.523438 422.402344 162.480469 423.195312 162.148438 L 423.195312 168.8125 C 423.195312 169.1875 423.195312 169.355469 421.777344 169.355469 L 421.113281 169.355469 L 421.113281 169.9375 C 421.820312 169.898438 423.027344 169.898438 423.777344 169.898438 C 424.570312 169.898438 425.738281 169.898438 426.488281 169.9375 L 426.488281 169.355469 L 425.820312 169.355469 C 424.402344 169.355469 424.402344 169.1875 424.402344 168.8125 Z M 424.402344 161.480469 "/>
</svg>
