<?xml version="1.0" encoding="UTF-8"?>
<svg xmlns="http://www.w3.org/2000/svg" xmlns:xlink="http://www.w3.org/1999/xlink" width="335.920003" height="142.82667" viewBox="0 0 335.920003 142.82667">
<path fill-rule="nonzero" fill="rgb(0%, 0%, 0%)" fill-opacity="1" d="M 53.765625 15.441406 C 54.015625 14.480469 54.058594 14.230469 56.058594 14.230469 C 56.640625 14.230469 56.890625 14.230469 56.890625 13.691406 C 56.890625 13.398438 56.640625 13.398438 56.183594 13.398438 L 52.683594 13.398438 C 51.976562 13.398438 51.933594 13.398438 51.640625 13.898438 L 41.933594 29.066406 L 39.851562 14.023438 C 39.765625 13.398438 39.726562 13.398438 39.015625 13.398438 L 35.390625 13.398438 C 34.890625 13.398438 34.601562 13.398438 34.601562 13.898438 C 34.601562 14.230469 34.851562 14.230469 35.351562 14.230469 C 35.726562 14.230469 36.183594 14.273438 36.515625 14.273438 C 36.933594 14.355469 37.101562 14.398438 37.101562 14.730469 C 37.101562 14.816406 37.058594 14.898438 36.976562 15.230469 L 33.601562 28.730469 C 33.351562 29.816406 32.890625 30.648438 30.726562 30.730469 C 30.601562 30.730469 30.265625 30.773438 30.265625 31.230469 C 30.265625 31.480469 30.433594 31.566406 30.640625 31.566406 C 31.476562 31.566406 32.390625 31.480469 33.308594 31.480469 C 34.183594 31.480469 35.140625 31.566406 36.015625 31.566406 C 36.140625 31.566406 36.515625 31.566406 36.515625 31.023438 C 36.515625 30.730469 36.226562 30.730469 36.015625 30.730469 C 34.515625 30.730469 34.226562 30.191406 34.226562 29.566406 C 34.226562 29.398438 34.226562 29.230469 34.308594 28.941406 L 37.933594 14.480469 L 37.976562 14.480469 L 40.265625 30.941406 C 40.308594 31.273438 40.351562 31.566406 40.640625 31.566406 C 40.933594 31.566406 41.101562 31.273438 41.226562 31.105469 L 51.976562 14.273438 L 52.015625 14.273438 L 48.183594 29.480469 C 47.933594 30.523438 47.890625 30.730469 45.765625 30.730469 C 45.351562 30.730469 45.058594 30.730469 45.058594 31.230469 C 45.058594 31.566406 45.351562 31.566406 45.433594 31.566406 C 46.183594 31.566406 47.976562 31.480469 48.726562 31.480469 C 49.808594 31.480469 50.976562 31.566406 52.058594 31.566406 C 52.226562 31.566406 52.558594 31.566406 52.558594 31.023438 C 52.558594 30.730469 52.308594 30.730469 51.808594 30.730469 C 50.851562 30.730469 50.101562 30.730469 50.101562 30.273438 C 50.101562 30.148438 50.101562 30.105469 50.226562 29.605469 Z M 53.765625 15.441406 "/>
<path fill-rule="nonzero" fill="rgb(0%, 0%, 0%)" fill-opacity="1" d="M 60.746094 23.21875 C 60.746094 23.175781 60.789062 22.925781 60.789062 22.925781 C 60.789062 22.800781 60.746094 22.636719 60.496094 22.636719 C 60.121094 22.636719 58.582031 22.800781 58.121094 22.84375 C 57.996094 22.84375 57.707031 22.886719 57.707031 23.261719 C 57.707031 23.511719 57.996094 23.511719 58.207031 23.511719 C 59.082031 23.511719 59.082031 23.675781 59.082031 23.800781 C 59.082031 23.925781 59.039062 24.050781 59.039062 24.21875 L 56.414062 34.71875 C 56.289062 35.050781 56.289062 35.09375 56.289062 35.136719 C 56.289062 35.425781 56.539062 35.71875 56.957031 35.71875 C 57.457031 35.71875 57.664062 35.386719 57.789062 34.96875 C 57.832031 34.886719 58.621094 31.59375 58.707031 31.34375 C 60.039062 31.46875 61.082031 31.925781 61.082031 32.886719 C 61.082031 32.96875 61.082031 33.050781 61.039062 33.261719 C 60.957031 33.511719 60.957031 33.636719 60.957031 33.84375 C 60.957031 35.136719 62.039062 35.71875 62.957031 35.71875 C 64.746094 35.71875 65.289062 32.925781 65.289062 32.886719 C 65.289062 32.636719 65.082031 32.636719 64.996094 32.636719 C 64.746094 32.636719 64.707031 32.761719 64.621094 33.09375 C 64.414062 33.886719 63.914062 35.21875 62.996094 35.21875 C 62.496094 35.21875 62.332031 34.761719 62.332031 34.261719 C 62.332031 33.925781 62.332031 33.886719 62.457031 33.425781 C 62.496094 33.34375 62.539062 33.050781 62.539062 32.84375 C 62.539062 31.175781 60.332031 30.925781 59.539062 30.886719 C 60.082031 30.550781 60.746094 29.925781 61.082031 29.636719 C 62.039062 28.761719 62.957031 27.886719 63.996094 27.886719 C 64.207031 27.886719 64.457031 27.925781 64.621094 28.136719 C 63.832031 28.261719 63.664062 28.886719 63.664062 29.175781 C 63.664062 29.550781 63.957031 29.84375 64.371094 29.84375 C 64.914062 29.84375 65.457031 29.425781 65.457031 28.675781 C 65.457031 28.050781 64.996094 27.34375 64.039062 27.34375 C 62.957031 27.34375 61.996094 28.136719 61.039062 29.011719 C 60.246094 29.71875 59.664062 30.300781 58.871094 30.636719 Z M 60.746094 23.21875 "/>
<path fill-rule="nonzero" fill="rgb(0%, 0%, 0%)" fill-opacity="1" d="M 84.222656 24.191406 L 78.933594 18.898438 C 78.597656 18.566406 78.558594 18.523438 78.347656 18.523438 C 78.058594 18.523438 77.808594 18.730469 77.808594 19.066406 C 77.808594 19.230469 77.847656 19.273438 78.140625 19.566406 L 83.472656 24.898438 L 78.140625 30.273438 C 77.847656 30.566406 77.808594 30.605469 77.808594 30.773438 C 77.808594 31.105469 78.058594 31.316406 78.347656 31.316406 C 78.558594 31.316406 78.597656 31.273438 78.933594 30.941406 L 84.222656 25.648438 L 89.722656 31.148438 C 89.765625 31.191406 89.933594 31.316406 90.097656 31.316406 C 90.433594 31.316406 90.640625 31.105469 90.640625 30.773438 C 90.640625 30.730469 90.640625 30.648438 90.558594 30.480469 C 90.515625 30.441406 86.308594 26.273438 84.972656 24.898438 L 89.847656 20.066406 C 89.972656 19.898438 90.390625 19.566406 90.515625 19.398438 C 90.515625 19.355469 90.640625 19.230469 90.640625 19.066406 C 90.640625 18.730469 90.433594 18.523438 90.097656 18.523438 C 89.890625 18.523438 89.808594 18.605469 89.515625 18.898438 Z M 84.222656 24.191406 "/>
<path fill-rule="nonzero" fill="rgb(0%, 0%, 0%)" fill-opacity="1" d="M 112.746094 22.566406 C 112.496094 20.898438 111.414062 19.398438 109.332031 19.398438 C 107.707031 19.398438 105.996094 19.855469 103.914062 21.898438 C 101.707031 24.105469 101.539062 26.605469 101.539062 27.398438 C 101.539062 29.066406 102.707031 32.148438 106.414062 32.148438 C 112.746094 32.148438 115.496094 23.230469 115.496094 19.398438 C 115.496094 15.191406 113.039062 12.523438 109.746094 12.523438 C 105.914062 12.523438 104.664062 15.980469 104.664062 16.730469 C 104.664062 17.105469 104.914062 17.648438 105.707031 17.648438 C 106.582031 17.648438 107.121094 16.855469 107.121094 16.273438 C 107.121094 15.316406 106.289062 15.316406 105.871094 15.316406 C 107.039062 13.355469 108.957031 13.191406 109.707031 13.191406 C 111.664062 13.191406 113.496094 14.566406 113.496094 18.023438 C 113.496094 19.066406 113.332031 20.398438 112.789062 22.566406 Z M 106.496094 31.398438 C 103.582031 31.398438 103.582031 28.648438 103.582031 28.398438 C 103.582031 27.691406 104.246094 23.980469 105.332031 22.355469 C 106.371094 20.855469 107.707031 19.980469 109.332031 19.980469 C 112.246094 19.980469 112.289062 22.980469 112.289062 23.523438 C 112.289062 25.441406 110.582031 31.398438 106.496094 31.398438 Z M 106.496094 31.398438 "/>
<path fill-rule="nonzero" fill="rgb(0%, 0%, 0%)" fill-opacity="1" d="M 127.789062 13.023438 C 127.621094 12.648438 127.539062 12.523438 127.078125 12.523438 C 126.664062 12.523438 126.578125 12.648438 126.414062 13.023438 L 117.414062 31.023438 C 117.289062 31.273438 117.289062 31.316406 117.289062 31.355469 C 117.289062 31.566406 117.453125 31.566406 117.871094 31.566406 L 136.328125 31.566406 C 136.746094 31.566406 136.914062 31.566406 136.914062 31.355469 C 136.914062 31.316406 136.914062 31.273438 136.789062 31.023438 Z M 126.246094 15.191406 L 133.414062 29.566406 L 119.078125 29.566406 Z M 126.246094 15.191406 "/>
<path fill-rule="nonzero" fill="rgb(0%, 0%, 0%)" fill-opacity="1" d="M 146.960938 37.941406 C 146.960938 37.855469 146.960938 37.816406 146.5 37.355469 C 143.210938 34.023438 142.335938 28.980469 142.335938 24.898438 C 142.335938 20.273438 143.335938 15.648438 146.625 12.355469 C 146.960938 12.023438 146.960938 11.980469 146.960938 11.898438 C 146.960938 11.691406 146.875 11.605469 146.710938 11.605469 C 146.417969 11.605469 144.042969 13.441406 142.460938 16.816406 C 141.125 19.730469 140.792969 22.691406 140.792969 24.898438 C 140.792969 26.980469 141.085938 30.191406 142.542969 33.230469 C 144.167969 36.480469 146.417969 38.230469 146.710938 38.230469 C 146.875 38.230469 146.960938 38.148438 146.960938 37.941406 Z M 146.960938 37.941406 "/>
<path fill-rule="nonzero" fill="rgb(0%, 0%, 0%)" fill-opacity="1" d="M 156.132812 13.398438 C 156.132812 13.398438 156.132812 13.105469 155.800781 13.105469 C 155.175781 13.105469 153.257812 13.316406 152.550781 13.398438 C 152.34375 13.398438 152.050781 13.441406 152.050781 13.898438 C 152.050781 14.230469 152.300781 14.230469 152.675781 14.230469 C 153.96875 14.230469 154.007812 14.398438 154.007812 14.691406 L 153.925781 15.230469 L 150.09375 30.523438 C 149.96875 30.898438 149.96875 30.941406 149.96875 31.105469 C 149.96875 31.730469 150.507812 31.855469 150.757812 31.855469 C 151.09375 31.855469 151.46875 31.605469 151.632812 31.316406 C 151.757812 31.066406 152.96875 26.148438 153.132812 25.480469 C 154.050781 25.566406 156.21875 25.980469 156.21875 27.730469 C 156.21875 27.941406 156.21875 28.023438 156.132812 28.316406 C 156.09375 28.605469 156.050781 28.941406 156.050781 29.230469 C 156.050781 30.773438 157.09375 31.855469 158.46875 31.855469 C 159.257812 31.855469 160.007812 31.441406 160.59375 30.441406 C 161.257812 29.273438 161.550781 27.816406 161.550781 27.773438 C 161.550781 27.480469 161.300781 27.480469 161.21875 27.480469 C 160.96875 27.480469 160.925781 27.605469 160.84375 27.980469 C 160.300781 29.898438 159.71875 31.273438 158.550781 31.273438 C 158.007812 31.273438 157.675781 30.980469 157.675781 30.023438 C 157.675781 29.566406 157.800781 28.941406 157.882812 28.523438 C 158.007812 28.066406 158.007812 27.980469 158.007812 27.691406 C 158.007812 25.980469 156.34375 25.230469 154.050781 24.898438 C 154.882812 24.441406 155.757812 23.605469 156.34375 22.941406 C 157.632812 21.523438 158.84375 20.398438 160.132812 20.398438 C 160.300781 20.398438 160.34375 20.398438 160.382812 20.441406 C 160.71875 20.480469 160.71875 20.480469 160.96875 20.648438 C 161.007812 20.648438 161.007812 20.691406 161.050781 20.730469 C 159.800781 20.816406 159.550781 21.855469 159.550781 22.191406 C 159.550781 22.605469 159.84375 23.105469 160.550781 23.105469 C 161.257812 23.105469 162.007812 22.523438 162.007812 21.480469 C 162.007812 20.691406 161.382812 19.816406 160.21875 19.816406 C 159.46875 19.816406 158.257812 20.023438 156.34375 22.148438 C 155.425781 23.148438 154.382812 24.230469 153.382812 24.605469 Z M 156.132812 13.398438 "/>
<path fill-rule="nonzero" fill="rgb(0%, 0%, 0%)" fill-opacity="1" d="M 170.84375 24.898438 C 170.84375 22.855469 170.550781 19.648438 169.09375 16.605469 C 167.507812 13.355469 165.21875 11.605469 164.96875 11.605469 C 164.800781 11.605469 164.675781 11.730469 164.675781 11.898438 C 164.675781 11.980469 164.675781 12.023438 165.175781 12.523438 C 167.800781 15.148438 169.300781 19.355469 169.300781 24.898438 C 169.300781 29.480469 168.34375 34.148438 165.050781 37.480469 C 164.675781 37.816406 164.675781 37.855469 164.675781 37.941406 C 164.675781 38.105469 164.800781 38.230469 164.96875 38.230469 C 165.21875 38.230469 167.632812 36.398438 169.175781 33.023438 C 170.550781 30.105469 170.84375 27.148438 170.84375 24.898438 Z M 170.84375 24.898438 "/>
<path fill-rule="nonzero" fill="rgb(0%, 0%, 0%)" fill-opacity="1" d="M 293.09375 15.441406 C 293.34375 14.480469 293.386719 14.230469 295.386719 14.230469 C 295.96875 14.230469 296.21875 14.230469 296.21875 13.691406 C 296.21875 13.398438 295.96875 13.398438 295.511719 13.398438 L 292.011719 13.398438 C 291.300781 13.398438 291.261719 13.398438 290.96875 13.898438 L 281.261719 29.066406 L 279.175781 14.023438 C 279.09375 13.398438 279.050781 13.398438 278.34375 13.398438 L 274.71875 13.398438 C 274.21875 13.398438 273.925781 13.398438 273.925781 13.898438 C 273.925781 14.230469 274.175781 14.230469 274.675781 14.230469 C 275.050781 14.230469 275.511719 14.273438 275.84375 14.273438 C 276.261719 14.355469 276.425781 14.398438 276.425781 14.730469 C 276.425781 14.816406 276.386719 14.898438 276.300781 15.230469 L 272.925781 28.730469 C 272.675781 29.816406 272.21875 30.648438 270.050781 30.730469 C 269.925781 30.730469 269.59375 30.773438 269.59375 31.230469 C 269.59375 31.480469 269.761719 31.566406 269.96875 31.566406 C 270.800781 31.566406 271.71875 31.480469 272.636719 31.480469 C 273.511719 31.480469 274.46875 31.566406 275.34375 31.566406 C 275.46875 31.566406 275.84375 31.566406 275.84375 31.023438 C 275.84375 30.730469 275.550781 30.730469 275.34375 30.730469 C 273.84375 30.730469 273.550781 30.191406 273.550781 29.566406 C 273.550781 29.398438 273.550781 29.230469 273.636719 28.941406 L 277.261719 14.480469 L 277.300781 14.480469 L 279.59375 30.941406 C 279.636719 31.273438 279.675781 31.566406 279.96875 31.566406 C 280.261719 31.566406 280.425781 31.273438 280.550781 31.105469 L 291.300781 14.273438 L 291.34375 14.273438 L 287.511719 29.480469 C 287.261719 30.523438 287.21875 30.730469 285.09375 30.730469 C 284.675781 30.730469 284.386719 30.730469 284.386719 31.230469 C 284.386719 31.566406 284.675781 31.566406 284.761719 31.566406 C 285.511719 31.566406 287.300781 31.480469 288.050781 31.480469 C 289.136719 31.480469 290.300781 31.566406 291.386719 31.566406 C 291.550781 31.566406 291.886719 31.566406 291.886719 31.023438 C 291.886719 30.730469 291.636719 30.730469 291.136719 30.730469 C 290.175781 30.730469 289.425781 30.730469 289.425781 30.273438 C 289.425781 30.148438 289.425781 30.105469 289.550781 29.605469 Z M 293.09375 15.441406 "/>
<path fill-rule="nonzero" fill="rgb(0%, 0%, 0%)" fill-opacity="1" d="M 300.078125 23.21875 C 300.078125 23.175781 300.121094 22.925781 300.121094 22.925781 C 300.121094 22.800781 300.078125 22.636719 299.828125 22.636719 C 299.453125 22.636719 297.910156 22.800781 297.453125 22.84375 C 297.328125 22.84375 297.035156 22.886719 297.035156 23.261719 C 297.035156 23.511719 297.328125 23.511719 297.535156 23.511719 C 298.410156 23.511719 298.410156 23.675781 298.410156 23.800781 C 298.410156 23.925781 298.371094 24.050781 298.371094 24.21875 L 295.746094 34.71875 C 295.621094 35.050781 295.621094 35.09375 295.621094 35.136719 C 295.621094 35.425781 295.871094 35.71875 296.285156 35.71875 C 296.785156 35.71875 296.996094 35.386719 297.121094 34.96875 C 297.160156 34.886719 297.953125 31.59375 298.035156 31.34375 C 299.371094 31.46875 300.410156 31.925781 300.410156 32.886719 C 300.410156 32.96875 300.410156 33.050781 300.371094 33.261719 C 300.285156 33.511719 300.285156 33.636719 300.285156 33.84375 C 300.285156 35.136719 301.371094 35.71875 302.285156 35.71875 C 304.078125 35.71875 304.621094 32.925781 304.621094 32.886719 C 304.621094 32.636719 304.410156 32.636719 304.328125 32.636719 C 304.078125 32.636719 304.035156 32.761719 303.953125 33.09375 C 303.746094 33.886719 303.246094 35.21875 302.328125 35.21875 C 301.828125 35.21875 301.660156 34.761719 301.660156 34.261719 C 301.660156 33.925781 301.660156 33.886719 301.785156 33.425781 C 301.828125 33.34375 301.871094 33.050781 301.871094 32.84375 C 301.871094 31.175781 299.660156 30.925781 298.871094 30.886719 C 299.410156 30.550781 300.078125 29.925781 300.410156 29.636719 C 301.371094 28.761719 302.285156 27.886719 303.328125 27.886719 C 303.535156 27.886719 303.785156 27.925781 303.953125 28.136719 C 303.160156 28.261719 302.996094 28.886719 302.996094 29.175781 C 302.996094 29.550781 303.285156 29.84375 303.703125 29.84375 C 304.246094 29.84375 304.785156 29.425781 304.785156 28.675781 C 304.785156 28.050781 304.328125 27.34375 303.371094 27.34375 C 302.285156 27.34375 301.328125 28.136719 300.371094 29.011719 C 299.578125 29.71875 298.996094 30.300781 298.203125 30.636719 Z M 300.078125 23.21875 "/>
<path fill-rule="nonzero" fill="rgb(0%, 0%, 0%)" fill-opacity="1" d="M 76.328125 107.523438 C 76.578125 106.566406 76.617188 106.316406 78.617188 106.316406 C 79.203125 106.316406 79.453125 106.316406 79.453125 105.773438 C 79.453125 105.480469 79.203125 105.480469 78.742188 105.480469 L 75.242188 105.480469 C 74.535156 105.480469 74.492188 105.480469 74.203125 105.980469 L 64.492188 121.148438 L 62.410156 106.105469 C 62.328125 105.480469 62.285156 105.480469 61.578125 105.480469 L 57.953125 105.480469 C 57.453125 105.480469 57.160156 105.480469 57.160156 105.980469 C 57.160156 106.316406 57.410156 106.316406 57.910156 106.316406 C 58.285156 106.316406 58.742188 106.355469 59.078125 106.355469 C 59.492188 106.441406 59.660156 106.480469 59.660156 106.816406 C 59.660156 106.898438 59.617188 106.980469 59.535156 107.316406 L 56.160156 120.816406 C 55.910156 121.898438 55.453125 122.730469 53.285156 122.816406 C 53.160156 122.816406 52.828125 122.855469 52.828125 123.316406 C 52.828125 123.566406 52.992188 123.648438 53.203125 123.648438 C 54.035156 123.648438 54.953125 123.566406 55.867188 123.566406 C 56.742188 123.566406 57.703125 123.648438 58.578125 123.648438 C 58.703125 123.648438 59.078125 123.648438 59.078125 123.105469 C 59.078125 122.816406 58.785156 122.816406 58.578125 122.816406 C 57.078125 122.816406 56.785156 122.273438 56.785156 121.648438 C 56.785156 121.480469 56.785156 121.316406 56.867188 121.023438 L 60.492188 106.566406 L 60.535156 106.566406 L 62.828125 123.023438 C 62.867188 123.355469 62.910156 123.648438 63.203125 123.648438 C 63.492188 123.648438 63.660156 123.355469 63.785156 123.191406 L 74.535156 106.355469 L 74.578125 106.355469 L 70.742188 121.566406 C 70.492188 122.605469 70.453125 122.816406 68.328125 122.816406 C 67.910156 122.816406 67.617188 122.816406 67.617188 123.316406 C 67.617188 123.648438 67.910156 123.648438 67.992188 123.648438 C 68.742188 123.648438 70.535156 123.566406 71.285156 123.566406 C 72.367188 123.566406 73.535156 123.648438 74.617188 123.648438 C 74.785156 123.648438 75.117188 123.648438 75.117188 123.105469 C 75.117188 122.816406 74.867188 122.816406 74.367188 122.816406 C 73.410156 122.816406 72.660156 122.816406 72.660156 122.355469 C 72.660156 122.230469 72.660156 122.191406 72.785156 121.691406 Z M 76.328125 107.523438 "/>
<path fill-rule="nonzero" fill="rgb(0%, 0%, 0%)" fill-opacity="1" d="M 91.640625 116.652344 C 91.890625 116.570312 92.058594 116.402344 92.058594 116.195312 C 92.058594 115.902344 91.851562 115.695312 91.601562 115.695312 C 91.558594 115.695312 91.476562 115.695312 91.226562 115.820312 L 79.890625 121.277344 C 79.601562 121.402344 79.476562 121.570312 79.476562 121.777344 C 79.476562 121.988281 79.601562 122.113281 79.890625 122.277344 L 91.226562 127.695312 C 91.476562 127.820312 91.558594 127.820312 91.601562 127.820312 C 91.890625 127.820312 92.058594 127.570312 92.058594 127.402344 C 92.058594 127.070312 91.808594 126.988281 91.640625 126.902344 L 80.976562 121.777344 Z M 91.308594 131.902344 C 91.601562 131.902344 92.058594 131.902344 92.058594 131.488281 C 92.058594 131.027344 91.601562 131.027344 91.308594 131.027344 L 80.226562 131.027344 C 79.890625 131.027344 79.476562 131.027344 79.476562 131.488281 C 79.476562 131.902344 79.933594 131.902344 80.226562 131.902344 Z M 91.308594 131.902344 "/>
<path fill-rule="nonzero" fill="rgb(0%, 0%, 0%)" fill-opacity="1" d="M 100.664062 114.527344 C 97.164062 116.988281 96.203125 120.945312 96.203125 123.777344 C 96.203125 126.402344 96.996094 130.488281 100.664062 133.070312 C 100.828125 133.070312 101.039062 133.070312 101.039062 132.863281 C 101.039062 132.738281 100.996094 132.695312 100.871094 132.570312 C 98.371094 130.320312 97.496094 127.195312 97.496094 123.820312 C 97.496094 118.777344 99.414062 116.320312 100.914062 114.945312 C 100.996094 114.863281 101.039062 114.820312 101.039062 114.738281 C 101.039062 114.527344 100.828125 114.527344 100.664062 114.527344 Z M 100.664062 114.527344 "/>
<path fill-rule="nonzero" fill="rgb(0%, 0%, 0%)" fill-opacity="1" d="M 108.214844 116.113281 C 108.214844 116.070312 108.257812 115.820312 108.257812 115.820312 C 108.257812 115.695312 108.214844 115.527344 107.964844 115.527344 C 107.589844 115.527344 106.046875 115.695312 105.589844 115.738281 C 105.464844 115.738281 105.171875 115.777344 105.171875 116.152344 C 105.171875 116.402344 105.464844 116.402344 105.671875 116.402344 C 106.546875 116.402344 106.546875 116.570312 106.546875 116.695312 C 106.546875 116.820312 106.507812 116.945312 106.507812 117.113281 L 103.882812 127.613281 C 103.757812 127.945312 103.757812 127.988281 103.757812 128.027344 C 103.757812 128.320312 104.007812 128.613281 104.421875 128.613281 C 104.921875 128.613281 105.132812 128.277344 105.257812 127.863281 C 105.296875 127.777344 106.089844 124.488281 106.171875 124.238281 C 107.507812 124.363281 108.546875 124.820312 108.546875 125.777344 C 108.546875 125.863281 108.546875 125.945312 108.507812 126.152344 C 108.421875 126.402344 108.421875 126.527344 108.421875 126.738281 C 108.421875 128.027344 109.507812 128.613281 110.421875 128.613281 C 112.214844 128.613281 112.757812 125.820312 112.757812 125.777344 C 112.757812 125.527344 112.546875 125.527344 112.464844 125.527344 C 112.214844 125.527344 112.171875 125.652344 112.089844 125.988281 C 111.882812 126.777344 111.382812 128.113281 110.464844 128.113281 C 109.964844 128.113281 109.796875 127.652344 109.796875 127.152344 C 109.796875 126.820312 109.796875 126.777344 109.921875 126.320312 C 109.964844 126.238281 110.007812 125.945312 110.007812 125.738281 C 110.007812 124.070312 107.796875 123.820312 107.007812 123.777344 C 107.546875 123.445312 108.214844 122.820312 108.546875 122.527344 C 109.507812 121.652344 110.421875 120.777344 111.464844 120.777344 C 111.671875 120.777344 111.921875 120.820312 112.089844 121.027344 C 111.296875 121.152344 111.132812 121.777344 111.132812 122.070312 C 111.132812 122.445312 111.421875 122.738281 111.839844 122.738281 C 112.382812 122.738281 112.921875 122.320312 112.921875 121.570312 C 112.921875 120.945312 112.464844 120.238281 111.507812 120.238281 C 110.421875 120.238281 109.464844 121.027344 108.507812 121.902344 C 107.714844 122.613281 107.132812 123.195312 106.339844 123.527344 Z M 108.214844 116.113281 "/>
<path fill-rule="nonzero" fill="rgb(0%, 0%, 0%)" fill-opacity="1" d="M 127.957031 124.238281 C 128.25 124.238281 128.707031 124.238281 128.707031 123.820312 C 128.707031 123.320312 128.25 123.320312 127.957031 123.320312 L 116.875 123.320312 C 116.582031 123.320312 116.125 123.320312 116.125 123.777344 C 116.125 124.238281 116.542969 124.238281 116.875 124.238281 Z M 127.957031 124.238281 "/>
<path fill-rule="nonzero" fill="rgb(0%, 0%, 0%)" fill-opacity="1" d="M 136.9375 116.613281 C 136.9375 116.113281 136.9375 116.113281 136.394531 116.113281 C 135.1875 117.277344 133.519531 117.277344 132.769531 117.277344 L 132.769531 117.945312 C 133.1875 117.945312 134.4375 117.945312 135.4375 117.445312 L 135.4375 126.902344 C 135.4375 127.527344 135.4375 127.777344 133.601562 127.777344 L 132.894531 127.777344 L 132.894531 128.445312 C 133.226562 128.445312 135.519531 128.363281 136.1875 128.363281 C 136.769531 128.363281 139.101562 128.445312 139.519531 128.445312 L 139.519531 127.777344 L 138.8125 127.777344 C 136.9375 127.777344 136.9375 127.527344 136.9375 126.902344 Z M 136.9375 116.613281 "/>
<path fill-rule="nonzero" fill="rgb(0%, 0%, 0%)" fill-opacity="1" d="M 142.976562 114.527344 C 142.851562 114.527344 142.644531 114.527344 142.644531 114.738281 C 142.644531 114.820312 142.683594 114.863281 142.808594 115.027344 C 144.394531 116.488281 146.183594 118.988281 146.183594 123.777344 C 146.183594 127.652344 144.976562 130.613281 142.976562 132.402344 C 142.644531 132.738281 142.644531 132.738281 142.644531 132.863281 C 142.644531 132.945312 142.683594 133.070312 142.851562 133.070312 C 143.101562 133.070312 144.851562 131.863281 146.101562 129.527344 C 146.894531 127.988281 147.433594 125.988281 147.433594 123.820312 C 147.433594 121.195312 146.644531 117.113281 142.976562 114.527344 Z M 142.976562 114.527344 "/>
<path fill-rule="nonzero" fill="rgb(0%, 0%, 0%)" fill-opacity="1" d="M 284.792969 107.523438 C 285.042969 106.566406 285.085938 106.316406 287.085938 106.316406 C 287.667969 106.316406 287.917969 106.316406 287.917969 105.773438 C 287.917969 105.480469 287.667969 105.480469 287.210938 105.480469 L 283.710938 105.480469 C 283 105.480469 282.960938 105.480469 282.667969 105.980469 L 272.960938 121.148438 L 270.875 106.105469 C 270.792969 105.480469 270.75 105.480469 270.042969 105.480469 L 266.417969 105.480469 C 265.917969 105.480469 265.625 105.480469 265.625 105.980469 C 265.625 106.316406 265.875 106.316406 266.375 106.316406 C 266.75 106.316406 267.210938 106.355469 267.542969 106.355469 C 267.960938 106.441406 268.125 106.480469 268.125 106.816406 C 268.125 106.898438 268.085938 106.980469 268 107.316406 L 264.625 120.816406 C 264.375 121.898438 263.917969 122.730469 261.75 122.816406 C 261.625 122.816406 261.292969 122.855469 261.292969 123.316406 C 261.292969 123.566406 261.460938 123.648438 261.667969 123.648438 C 262.5 123.648438 263.417969 123.566406 264.335938 123.566406 C 265.210938 123.566406 266.167969 123.648438 267.042969 123.648438 C 267.167969 123.648438 267.542969 123.648438 267.542969 123.105469 C 267.542969 122.816406 267.25 122.816406 267.042969 122.816406 C 265.542969 122.816406 265.25 122.273438 265.25 121.648438 C 265.25 121.480469 265.25 121.316406 265.335938 121.023438 L 268.960938 106.566406 L 269 106.566406 L 271.292969 123.023438 C 271.335938 123.355469 271.375 123.648438 271.667969 123.648438 C 271.960938 123.648438 272.125 123.355469 272.25 123.191406 L 283 106.355469 L 283.042969 106.355469 L 279.210938 121.566406 C 278.960938 122.605469 278.917969 122.816406 276.792969 122.816406 C 276.375 122.816406 276.085938 122.816406 276.085938 123.316406 C 276.085938 123.648438 276.375 123.648438 276.460938 123.648438 C 277.210938 123.648438 279 123.566406 279.75 123.566406 C 280.835938 123.566406 282 123.648438 283.085938 123.648438 C 283.25 123.648438 283.585938 123.648438 283.585938 123.105469 C 283.585938 122.816406 283.335938 122.816406 282.835938 122.816406 C 281.875 122.816406 281.125 122.816406 281.125 122.355469 C 281.125 122.230469 281.125 122.191406 281.25 121.691406 Z M 284.792969 107.523438 "/>
<path fill-rule="nonzero" fill="rgb(0%, 0%, 0%)" fill-opacity="1" d="M 300.109375 115.84375 C 300.359375 115.757812 300.527344 115.59375 300.527344 115.382812 C 300.527344 115.09375 300.320312 114.882812 300.070312 114.882812 C 300.027344 114.882812 299.945312 114.882812 299.695312 115.007812 L 288.359375 120.46875 C 288.070312 120.59375 287.945312 120.757812 287.945312 120.96875 C 287.945312 121.175781 288.070312 121.300781 288.359375 121.46875 L 299.695312 126.882812 C 299.945312 127.007812 300.027344 127.007812 300.070312 127.007812 C 300.359375 127.007812 300.527344 126.757812 300.527344 126.59375 C 300.527344 126.257812 300.277344 126.175781 300.109375 126.09375 L 289.445312 120.96875 Z M 299.777344 131.09375 C 300.070312 131.09375 300.527344 131.09375 300.527344 130.675781 C 300.527344 130.21875 300.070312 130.21875 299.777344 130.21875 L 288.695312 130.21875 C 288.359375 130.21875 287.945312 130.21875 287.945312 130.675781 C 287.945312 131.09375 288.402344 131.09375 288.695312 131.09375 Z M 299.777344 131.09375 "/>
<path fill-rule="nonzero" fill="rgb(0%, 0%, 0%)" fill-opacity="1" d="M 308.378906 115.300781 C 308.378906 115.257812 308.421875 115.007812 308.421875 115.007812 C 308.421875 114.882812 308.378906 114.71875 308.128906 114.71875 C 307.753906 114.71875 306.214844 114.882812 305.753906 114.925781 C 305.628906 114.925781 305.339844 114.96875 305.339844 115.34375 C 305.339844 115.59375 305.628906 115.59375 305.839844 115.59375 C 306.714844 115.59375 306.714844 115.757812 306.714844 115.882812 C 306.714844 116.007812 306.671875 116.132812 306.671875 116.300781 L 304.046875 126.800781 C 303.921875 127.132812 303.921875 127.175781 303.921875 127.21875 C 303.921875 127.507812 304.171875 127.800781 304.589844 127.800781 C 305.089844 127.800781 305.296875 127.46875 305.421875 127.050781 C 305.464844 126.96875 306.253906 123.675781 306.339844 123.425781 C 307.671875 123.550781 308.714844 124.007812 308.714844 124.96875 C 308.714844 125.050781 308.714844 125.132812 308.671875 125.34375 C 308.589844 125.59375 308.589844 125.71875 308.589844 125.925781 C 308.589844 127.21875 309.671875 127.800781 310.589844 127.800781 C 312.378906 127.800781 312.921875 125.007812 312.921875 124.96875 C 312.921875 124.71875 312.714844 124.71875 312.628906 124.71875 C 312.378906 124.71875 312.339844 124.84375 312.253906 125.175781 C 312.046875 125.96875 311.546875 127.300781 310.628906 127.300781 C 310.128906 127.300781 309.964844 126.84375 309.964844 126.34375 C 309.964844 126.007812 309.964844 125.96875 310.089844 125.507812 C 310.128906 125.425781 310.171875 125.132812 310.171875 124.925781 C 310.171875 123.257812 307.964844 123.007812 307.171875 122.96875 C 307.714844 122.632812 308.378906 122.007812 308.714844 121.71875 C 309.671875 120.84375 310.589844 119.96875 311.628906 119.96875 C 311.839844 119.96875 312.089844 120.007812 312.253906 120.21875 C 311.464844 120.34375 311.296875 120.96875 311.296875 121.257812 C 311.296875 121.632812 311.589844 121.925781 312.003906 121.925781 C 312.546875 121.925781 313.089844 121.507812 313.089844 120.757812 C 313.089844 120.132812 312.628906 119.425781 311.671875 119.425781 C 310.589844 119.425781 309.628906 120.21875 308.671875 121.09375 C 307.878906 121.800781 307.296875 122.382812 306.503906 122.71875 Z M 308.378906 115.300781 "/>
<path fill="none" stroke-width="0.39848" stroke-linecap="butt" stroke-linejoin="miter" stroke="rgb(0%, 0%, 0%)" stroke-opacity="1" stroke-miterlimit="10" d="M 4.915108 17.792761 L 31.14167 17.792761 " transform="matrix(2.666667, 0, 0, -2.666667, 172.381327, 72.365331)"/>
<path fill="none" stroke-width="0.39848" stroke-linecap="round" stroke-linejoin="round" stroke="rgb(0%, 0%, 0%)" stroke-opacity="1" stroke-miterlimit="10" d="M -2.071144 2.391916 C -1.69175 0.954905 -0.848 0.279612 -0.00131989 0.00129128 C -0.848 -0.279959 -1.69175 -0.955252 -2.071144 -2.392263 " transform="matrix(2.666667, 0, 0, -2.666667, 255.960551, 24.921412)"/>
<path fill-rule="nonzero" fill="rgb(0%, 0%, 0%)" fill-opacity="1" d="M 210.957031 16.636719 C 209.746094 16.636719 209.582031 16.636719 209.582031 15.84375 L 209.582031 12.84375 C 209.664062 12.929688 210.539062 13.886719 212.082031 13.886719 C 214.539062 13.886719 216.621094 12.054688 216.621094 9.71875 C 216.621094 7.429688 214.746094 5.511719 212.371094 5.511719 C 211.332031 5.511719 210.246094 5.929688 209.496094 6.679688 L 209.496094 5.511719 L 206.707031 5.71875 L 206.707031 6.386719 C 207.996094 6.386719 208.082031 6.511719 208.082031 7.261719 L 208.082031 15.84375 C 208.082031 16.636719 207.914062 16.636719 206.707031 16.636719 L 206.707031 17.34375 C 206.746094 17.34375 208.039062 17.261719 208.832031 17.261719 C 209.496094 17.261719 210.789062 17.304688 210.957031 17.34375 Z M 209.582031 7.511719 C 210.121094 6.59375 211.207031 6.136719 212.164062 6.136719 C 213.746094 6.136719 214.957031 7.761719 214.957031 9.71875 C 214.957031 11.84375 213.539062 13.386719 211.996094 13.386719 C 210.332031 13.386719 209.621094 11.96875 209.582031 11.84375 Z M 209.582031 7.511719 "/>
<path fill-rule="nonzero" fill="rgb(0%, 0%, 0%)" fill-opacity="1" d="M 221.214844 9.46875 C 221.214844 7.929688 221.921875 6.054688 223.714844 6.054688 C 223.546875 6.179688 223.378906 6.429688 223.378906 6.71875 C 223.378906 7.34375 223.878906 7.554688 224.214844 7.554688 C 224.671875 7.554688 225.089844 7.261719 225.089844 6.71875 C 225.089844 6.09375 224.464844 5.511719 223.589844 5.511719 C 222.671875 5.511719 221.628906 6.09375 221.089844 7.511719 L 221.089844 5.511719 L 218.421875 5.71875 L 218.421875 6.386719 C 219.671875 6.386719 219.796875 6.511719 219.796875 7.429688 L 219.796875 12.261719 C 219.796875 13.054688 219.628906 13.054688 218.421875 13.054688 L 218.421875 13.71875 C 218.503906 13.71875 219.753906 13.636719 220.546875 13.636719 C 221.339844 13.636719 222.128906 13.679688 222.964844 13.71875 L 222.964844 13.054688 L 222.589844 13.054688 C 221.214844 13.054688 221.214844 12.84375 221.214844 12.21875 Z M 221.214844 9.46875 "/>
<path fill-rule="nonzero" fill="rgb(0%, 0%, 0%)" fill-opacity="1" d="M 231.117188 10.207031 C 231.117188 9.832031 231.078125 9.832031 230.617188 9.832031 C 229.703125 10.664062 228.203125 10.664062 227.953125 10.664062 L 227.742188 10.664062 L 227.742188 11.246094 L 227.953125 11.246094 C 228.242188 11.246094 229.117188 11.207031 229.910156 10.871094 L 229.910156 17.539062 C 229.910156 17.914062 229.910156 18.082031 228.492188 18.082031 L 227.828125 18.082031 L 227.828125 18.664062 C 228.535156 18.621094 229.742188 18.621094 230.492188 18.621094 C 231.285156 18.621094 232.453125 18.621094 233.203125 18.664062 L 233.203125 18.082031 L 232.535156 18.082031 C 231.117188 18.082031 231.117188 17.914062 231.117188 17.539062 Z M 231.117188 10.207031 "/>
<path fill="none" stroke-width="0.39848" stroke-linecap="butt" stroke-linejoin="miter" stroke="rgb(0%, 0%, 0%)" stroke-opacity="1" stroke-miterlimit="10" d="M -26.646416 8.961218 L -26.646416 -8.175989 " transform="matrix(2.666667, 0, 0, -2.666667, 172.381327, 72.365331)"/>
<path fill="none" stroke-width="0.39848" stroke-linecap="round" stroke-linejoin="round" stroke="rgb(0%, 0%, 0%)" stroke-opacity="1" stroke-miterlimit="10" d="M -2.073311 2.390388 C -1.695381 0.956306 -0.851631 0.281013 0.000907898 -0.000236511 C -0.851631 -0.278557 -1.695381 -0.958244 -2.073311 -2.390862 " transform="matrix(0, 2.666667, 2.666667, 0, 101.324849, 94.696798)"/>
<path fill-rule="nonzero" fill="rgb(0%, 0%, 0%)" fill-opacity="1" d="M 79.765625 67.359375 C 79.390625 66.734375 78.765625 66.234375 77.847656 66.234375 C 75.472656 66.234375 73.054688 68.859375 73.054688 71.527344 C 73.054688 73.359375 74.265625 74.609375 75.890625 74.609375 C 76.890625 74.609375 77.765625 74.066406 78.515625 73.316406 C 78.847656 74.441406 79.929688 74.609375 80.429688 74.609375 C 81.097656 74.609375 81.554688 74.234375 81.890625 73.652344 C 82.304688 72.902344 82.554688 71.859375 82.554688 71.777344 C 82.554688 71.527344 82.304688 71.527344 82.265625 71.527344 C 81.972656 71.527344 81.972656 71.609375 81.847656 72.109375 C 81.597656 73.027344 81.265625 74.109375 80.472656 74.109375 C 80.015625 74.109375 79.847656 73.691406 79.847656 73.191406 C 79.847656 72.902344 80.015625 72.191406 80.140625 71.734375 C 80.265625 71.234375 80.472656 70.484375 80.554688 70.066406 L 80.929688 68.652344 C 81.054688 68.152344 81.265625 67.277344 81.265625 67.191406 C 81.265625 66.777344 80.929688 66.609375 80.640625 66.609375 C 80.304688 66.609375 79.890625 66.816406 79.765625 67.359375 Z M 78.597656 72.109375 C 78.472656 72.652344 78.054688 73.027344 77.640625 73.359375 C 77.472656 73.527344 76.722656 74.109375 75.929688 74.109375 C 75.222656 74.109375 74.554688 73.609375 74.554688 72.316406 C 74.554688 71.316406 75.097656 69.277344 75.554688 68.527344 C 76.390625 67.027344 77.347656 66.777344 77.847656 66.777344 C 79.140625 66.777344 79.515625 68.191406 79.515625 68.402344 C 79.515625 68.441406 79.472656 68.609375 79.472656 68.652344 Z M 78.597656 72.109375 "/>
<path fill-rule="nonzero" fill="rgb(0%, 0%, 0%)" fill-opacity="1" d="M 88.332031 68.554688 C 88.414062 68.34375 88.414062 68.34375 88.414062 68.261719 C 88.414062 68.054688 88.207031 68.054688 87.996094 68.054688 L 86.371094 68.179688 C 86.121094 68.179688 86.082031 68.179688 86.039062 68.261719 C 85.996094 68.304688 85.957031 68.46875 85.957031 68.554688 C 85.957031 68.761719 86.164062 68.761719 86.332031 68.761719 C 86.371094 68.761719 86.582031 68.761719 86.789062 68.804688 C 87.039062 68.84375 87.039062 68.886719 87.039062 68.96875 C 87.039062 69.011719 87.039062 69.054688 86.996094 69.304688 L 85.164062 76.636719 C 85.121094 76.804688 85.121094 76.84375 85.121094 76.929688 C 85.121094 77.21875 85.332031 77.429688 85.621094 77.429688 C 86.121094 77.429688 86.246094 76.929688 86.289062 76.71875 L 86.914062 74.304688 C 87.246094 74.304688 88.914062 74.386719 88.914062 75.34375 C 88.914062 75.429688 88.914062 75.46875 88.871094 75.636719 C 88.832031 75.84375 88.832031 75.886719 88.832031 75.96875 C 88.832031 76.929688 89.664062 77.429688 90.457031 77.429688 C 91.789062 77.429688 92.332031 75.511719 92.332031 75.34375 C 92.332031 75.179688 92.121094 75.179688 92.039062 75.179688 C 91.832031 75.179688 91.789062 75.21875 91.746094 75.46875 C 91.621094 75.929688 91.207031 76.96875 90.496094 76.96875 C 89.996094 76.96875 89.957031 76.46875 89.957031 76.179688 C 89.957031 76.179688 89.957031 75.96875 89.996094 75.761719 C 90.039062 75.554688 90.082031 75.386719 90.082031 75.304688 C 90.082031 74.136719 88.582031 73.929688 87.707031 73.84375 C 88.082031 73.636719 88.664062 73.179688 88.871094 73.011719 C 89.621094 72.429688 90.371094 71.84375 91.121094 71.84375 C 91.414062 71.84375 91.496094 71.929688 91.582031 72.011719 C 91.582031 72.011719 91.496094 72.054688 91.457031 72.054688 C 90.871094 72.261719 90.871094 72.804688 90.871094 72.84375 C 90.871094 73.054688 91.039062 73.386719 91.457031 73.386719 C 91.707031 73.386719 92.289062 73.179688 92.289062 72.429688 C 92.289062 71.804688 91.789062 71.386719 91.121094 71.386719 C 90.246094 71.386719 89.457031 72.011719 88.496094 72.761719 C 88.039062 73.136719 87.582031 73.46875 87.039062 73.71875 Z M 88.332031 68.554688 "/>
<path fill="none" stroke-width="0.39848" stroke-linecap="butt" stroke-linejoin="miter" stroke="rgb(0%, 0%, 0%)" stroke-opacity="1" stroke-miterlimit="10" d="M 43.317451 9.957312 L 43.317451 -8.175989 " transform="matrix(2.666667, 0, 0, -2.666667, 172.381327, 72.365331)"/>
<path fill="none" stroke-width="0.39848" stroke-linecap="round" stroke-linejoin="round" stroke="rgb(0%, 0%, 0%)" stroke-opacity="1" stroke-miterlimit="10" d="M -2.073311 2.389877 C -1.695381 0.95726 -0.851631 0.277573 0.000907898 -0.000747681 C -0.851631 -0.277603 -1.695381 -0.957291 -2.073311 -2.391373 " transform="matrix(0, 2.666667, 2.666667, 0, 287.896525, 94.696798)"/>
<path fill="none" stroke-width="0.39848" stroke-linecap="butt" stroke-linejoin="miter" stroke="rgb(0%, 0%, 0%)" stroke-opacity="1" stroke-miterlimit="10" d="M -3.54583 -16.738001 L 28.028877 -16.738001 " transform="matrix(2.666667, 0, 0, -2.666667, 172.381327, 72.365331)"/>
<path fill="none" stroke-width="0.39848" stroke-linecap="round" stroke-linejoin="round" stroke="rgb(0%, 0%, 0%)" stroke-opacity="1" stroke-miterlimit="10" d="M -2.070572 2.392464 C -1.692642 0.955452 -0.848892 0.278694 -0.000747681 0.00183868 C -0.848892 -0.279411 -1.692642 -0.954704 -2.070572 -2.393181 " transform="matrix(2.666667, 0, 0, -2.666667, 247.658244, 117.004903)"/>
<path fill-rule="nonzero" fill="rgb(0%, 0%, 0%)" fill-opacity="1" d="M 232.570312 96.894531 C 232.277344 96.894531 231.820312 96.894531 231.820312 97.3125 C 231.820312 97.8125 232.238281 97.8125 232.570312 97.8125 L 239.070312 97.8125 C 239.695312 97.8125 239.777344 97.6875 239.777344 97.105469 L 239.777344 90.519531 C 239.777344 90.230469 239.777344 89.8125 239.363281 89.8125 C 238.863281 89.8125 238.863281 90.3125 238.863281 90.605469 L 238.863281 96.894531 Z M 232.570312 96.894531 "/>
</svg>
