<?xml version="1.0" encoding="UTF-8"?>
<svg xmlns="http://www.w3.org/2000/svg" xmlns:xlink="http://www.w3.org/1999/xlink" width="339.946676" height="139.733337" viewBox="0 0 339.946676 139.733337">
<defs>
<clipPath id="clip-0">
<path clip-rule="nonzero" d="M 93 0 L 318 0 L 318 139.730469 L 93 139.730469 Z M 93 0 "/>
</clipPath>
</defs>
<path fill-rule="nonzero" fill="rgb(0%, 0%, 0%)" fill-opacity="1" d="M 36.683594 15.15625 C 36.683594 14.113281 37.351562 12.40625 40.265625 12.238281 C 40.390625 12.199219 40.476562 12.074219 40.476562 11.949219 C 40.476562 11.613281 40.265625 11.613281 39.976562 11.613281 C 37.351562 11.613281 34.890625 12.988281 34.890625 14.949219 L 34.890625 21.03125 C 34.890625 22.074219 34.890625 22.90625 33.808594 23.78125 C 32.890625 24.574219 31.890625 24.613281 31.308594 24.613281 C 31.140625 24.65625 31.058594 24.78125 31.058594 24.90625 C 31.058594 25.199219 31.226562 25.199219 31.476562 25.238281 C 33.226562 25.324219 34.515625 26.28125 34.808594 27.574219 C 34.890625 27.863281 34.890625 27.949219 34.890625 28.90625 L 34.890625 34.15625 C 34.890625 35.28125 34.890625 36.113281 36.140625 37.113281 C 37.183594 37.90625 38.933594 38.238281 39.976562 38.238281 C 40.265625 38.238281 40.476562 38.238281 40.476562 37.90625 C 40.476562 37.65625 40.351562 37.65625 40.058594 37.613281 C 38.390625 37.53125 37.101562 36.65625 36.726562 35.324219 C 36.683594 35.074219 36.683594 35.03125 36.683594 34.074219 L 36.683594 28.488281 C 36.683594 27.28125 36.433594 26.824219 35.601562 25.949219 C 35.058594 25.40625 34.265625 25.15625 33.515625 24.90625 C 35.726562 24.324219 36.683594 23.074219 36.683594 21.53125 Z M 36.683594 15.15625 "/>
<path fill-rule="nonzero" fill="rgb(0%, 0%, 0%)" fill-opacity="1" d="M 50.464844 22.949219 L 53.050781 22.949219 C 55.050781 22.949219 55.257812 23.363281 55.257812 24.113281 C 55.257812 24.324219 55.257812 24.613281 55.089844 25.449219 C 55.007812 25.574219 55.007812 25.65625 55.007812 25.738281 C 55.007812 25.949219 55.175781 26.03125 55.300781 26.03125 C 55.589844 26.03125 55.589844 25.949219 55.714844 25.488281 L 57.175781 19.699219 C 57.257812 19.40625 57.257812 19.363281 57.257812 19.28125 C 57.257812 19.238281 57.214844 18.988281 56.925781 18.988281 C 56.675781 18.988281 56.632812 19.113281 56.550781 19.574219 C 55.964844 21.613281 55.382812 22.113281 53.089844 22.113281 L 50.675781 22.113281 L 52.382812 15.363281 C 52.632812 14.40625 52.675781 14.324219 53.839844 14.324219 L 57.339844 14.324219 C 60.589844 14.324219 61.214844 15.199219 61.214844 17.238281 C 61.214844 17.863281 61.214844 17.949219 61.132812 18.699219 C 61.089844 19.03125 61.089844 19.074219 61.089844 19.15625 C 61.089844 19.28125 61.175781 19.488281 61.425781 19.488281 C 61.714844 19.488281 61.714844 19.324219 61.757812 18.824219 L 62.300781 14.199219 C 62.382812 13.488281 62.257812 13.488281 61.589844 13.488281 L 48.550781 13.488281 C 48.050781 13.488281 47.757812 13.488281 47.757812 14.03125 C 47.757812 14.324219 48.007812 14.324219 48.507812 14.324219 C 49.507812 14.324219 50.257812 14.324219 50.257812 14.78125 C 50.257812 14.90625 50.257812 14.949219 50.089844 15.449219 L 46.589844 29.488281 C 46.339844 30.53125 46.300781 30.738281 44.175781 30.738281 C 43.714844 30.738281 43.425781 30.738281 43.425781 31.238281 C 43.425781 31.574219 43.757812 31.574219 43.839844 31.574219 C 44.589844 31.574219 46.589844 31.488281 47.339844 31.488281 C 48.214844 31.488281 50.425781 31.574219 51.300781 31.574219 C 51.550781 31.574219 51.839844 31.574219 51.839844 31.074219 C 51.839844 30.863281 51.714844 30.78125 51.714844 30.78125 C 51.632812 30.738281 51.550781 30.738281 50.964844 30.738281 C 50.382812 30.738281 50.257812 30.738281 49.589844 30.699219 C 48.800781 30.613281 48.714844 30.488281 48.714844 30.15625 C 48.714844 30.113281 48.714844 29.949219 48.839844 29.574219 Z M 50.464844 22.949219 "/>
<path fill-rule="nonzero" fill="rgb(0%, 0%, 0%)" fill-opacity="1" d="M 68.949219 34.699219 C 68.949219 35.738281 68.242188 37.449219 65.367188 37.613281 C 65.199219 37.65625 65.117188 37.78125 65.117188 37.90625 C 65.117188 38.238281 65.410156 38.238281 65.660156 38.238281 C 68.242188 38.238281 70.699219 36.90625 70.742188 34.90625 L 70.742188 28.824219 C 70.742188 27.78125 70.742188 26.949219 71.785156 26.074219 C 72.699219 25.28125 73.742188 25.238281 74.324219 25.238281 C 74.449219 25.199219 74.535156 25.074219 74.535156 24.90625 C 74.535156 24.65625 74.410156 24.65625 74.117188 24.613281 C 72.367188 24.53125 71.074219 23.574219 70.785156 22.28125 C 70.742188 21.988281 70.742188 21.90625 70.742188 20.949219 L 70.742188 15.699219 C 70.742188 14.574219 70.742188 13.738281 69.449219 12.738281 C 68.367188 11.90625 66.535156 11.613281 65.660156 11.613281 C 65.410156 11.613281 65.117188 11.613281 65.117188 11.949219 C 65.117188 12.199219 65.285156 12.199219 65.535156 12.238281 C 67.199219 12.324219 68.535156 13.199219 68.867188 14.53125 C 68.949219 14.78125 68.949219 14.824219 68.949219 15.78125 L 68.949219 21.363281 C 68.949219 22.574219 69.160156 23.03125 69.992188 23.90625 C 70.574219 24.449219 71.324219 24.699219 72.074219 24.90625 C 69.910156 25.53125 68.949219 26.78125 68.949219 28.324219 Z M 68.949219 34.699219 "/>
<path fill-rule="nonzero" fill="rgb(0%, 0%, 0%)" fill-opacity="1" d="M 92.714844 24.199219 L 87.421875 18.90625 C 87.089844 18.574219 87.046875 18.53125 86.839844 18.53125 C 86.546875 18.53125 86.296875 18.738281 86.296875 19.074219 C 86.296875 19.238281 86.339844 19.28125 86.632812 19.574219 L 91.964844 24.90625 L 86.632812 30.28125 C 86.339844 30.574219 86.296875 30.613281 86.296875 30.78125 C 86.296875 31.113281 86.546875 31.324219 86.839844 31.324219 C 87.046875 31.324219 87.089844 31.28125 87.421875 30.949219 L 92.714844 25.65625 L 98.214844 31.15625 C 98.257812 31.199219 98.421875 31.324219 98.589844 31.324219 C 98.921875 31.324219 99.132812 31.113281 99.132812 30.78125 C 99.132812 30.738281 99.132812 30.65625 99.046875 30.488281 C 99.007812 30.449219 94.796875 26.28125 93.464844 24.90625 L 98.339844 20.074219 C 98.464844 19.90625 98.882812 19.574219 99.007812 19.40625 C 99.007812 19.363281 99.132812 19.238281 99.132812 19.074219 C 99.132812 18.738281 98.921875 18.53125 98.589844 18.53125 C 98.382812 18.53125 98.296875 18.613281 98.007812 18.90625 Z M 92.714844 24.199219 "/>
<path fill-rule="nonzero" fill="rgb(0%, 0%, 0%)" fill-opacity="1" d="M 121.242188 22.574219 C 120.992188 20.90625 119.910156 19.40625 117.828125 19.40625 C 116.203125 19.40625 114.492188 19.863281 112.410156 21.90625 C 110.203125 24.113281 110.035156 26.613281 110.035156 27.40625 C 110.035156 29.074219 111.203125 32.15625 114.910156 32.15625 C 121.242188 32.15625 123.992188 23.238281 123.992188 19.40625 C 123.992188 15.199219 121.535156 12.53125 118.242188 12.53125 C 114.410156 12.53125 113.160156 15.988281 113.160156 16.738281 C 113.160156 17.113281 113.410156 17.65625 114.203125 17.65625 C 115.078125 17.65625 115.617188 16.863281 115.617188 16.28125 C 115.617188 15.324219 114.785156 15.324219 114.367188 15.324219 C 115.535156 13.363281 117.453125 13.199219 118.203125 13.199219 C 120.160156 13.199219 121.992188 14.574219 121.992188 18.03125 C 121.992188 19.074219 121.828125 20.40625 121.285156 22.574219 Z M 114.992188 31.40625 C 112.078125 31.40625 112.078125 28.65625 112.078125 28.40625 C 112.078125 27.699219 112.742188 23.988281 113.828125 22.363281 C 114.867188 20.863281 116.203125 19.988281 117.828125 19.988281 C 120.742188 19.988281 120.785156 22.988281 120.785156 23.53125 C 120.785156 25.449219 119.078125 31.40625 114.992188 31.40625 Z M 114.992188 31.40625 "/>
<path fill-rule="nonzero" fill="rgb(0%, 0%, 0%)" fill-opacity="1" d="M 136.285156 13.03125 C 136.117188 12.65625 136.035156 12.53125 135.574219 12.53125 C 135.160156 12.53125 135.074219 12.65625 134.910156 13.03125 L 125.910156 31.03125 C 125.785156 31.28125 125.785156 31.324219 125.785156 31.363281 C 125.785156 31.574219 125.949219 31.574219 126.367188 31.574219 L 144.824219 31.574219 C 145.242188 31.574219 145.410156 31.574219 145.410156 31.363281 C 145.410156 31.324219 145.410156 31.28125 145.285156 31.03125 Z M 134.742188 15.199219 L 141.910156 29.574219 L 127.574219 29.574219 Z M 134.742188 15.199219 "/>
<path fill-rule="nonzero" fill="rgb(0%, 0%, 0%)" fill-opacity="1" d="M 138.644531 18.613281 C 138.519531 18.363281 138.476562 18.28125 138.1875 18.28125 C 137.851562 18.28125 137.8125 18.363281 137.6875 18.613281 L 131.394531 31.199219 C 131.3125 31.363281 131.3125 31.40625 131.3125 31.40625 C 131.3125 31.574219 131.4375 31.574219 131.726562 31.574219 L 144.601562 31.574219 C 144.894531 31.574219 145.019531 31.574219 145.019531 31.40625 C 145.019531 31.40625 145.019531 31.363281 144.9375 31.199219 Z M 137.5625 20.113281 L 142.5625 30.15625 L 132.5625 30.15625 Z M 137.5625 20.113281 "/>
<path fill-rule="nonzero" fill="rgb(0%, 0%, 0%)" fill-opacity="1" d="M 154.726562 37.949219 C 154.726562 37.863281 154.726562 37.824219 154.269531 37.363281 C 150.976562 34.03125 150.101562 28.988281 150.101562 24.90625 C 150.101562 20.28125 151.101562 15.65625 154.394531 12.363281 C 154.726562 12.03125 154.726562 11.988281 154.726562 11.90625 C 154.726562 11.699219 154.644531 11.613281 154.476562 11.613281 C 154.1875 11.613281 151.8125 13.449219 150.226562 16.824219 C 148.894531 19.738281 148.5625 22.699219 148.5625 24.90625 C 148.5625 26.988281 148.851562 30.199219 150.3125 33.238281 C 151.9375 36.488281 154.1875 38.238281 154.476562 38.238281 C 154.644531 38.238281 154.726562 38.15625 154.726562 37.949219 Z M 154.726562 37.949219 "/>
<path fill-rule="nonzero" fill="rgb(0%, 0%, 0%)" fill-opacity="1" d="M 163.890625 13.40625 C 163.890625 13.40625 163.890625 13.113281 163.558594 13.113281 C 162.933594 13.113281 161.015625 13.324219 160.308594 13.40625 C 160.101562 13.40625 159.808594 13.449219 159.808594 13.90625 C 159.808594 14.238281 160.058594 14.238281 160.433594 14.238281 C 161.726562 14.238281 161.765625 14.40625 161.765625 14.699219 L 161.683594 15.238281 L 157.851562 30.53125 C 157.726562 30.90625 157.726562 30.949219 157.726562 31.113281 C 157.726562 31.738281 158.265625 31.863281 158.515625 31.863281 C 158.851562 31.863281 159.226562 31.613281 159.390625 31.324219 C 159.515625 31.074219 160.726562 26.15625 160.890625 25.488281 C 161.808594 25.574219 163.976562 25.988281 163.976562 27.738281 C 163.976562 27.949219 163.976562 28.03125 163.890625 28.324219 C 163.851562 28.613281 163.808594 28.949219 163.808594 29.238281 C 163.808594 30.78125 164.851562 31.863281 166.226562 31.863281 C 167.015625 31.863281 167.765625 31.449219 168.351562 30.449219 C 169.015625 29.28125 169.308594 27.824219 169.308594 27.78125 C 169.308594 27.488281 169.058594 27.488281 168.976562 27.488281 C 168.726562 27.488281 168.683594 27.613281 168.601562 27.988281 C 168.058594 29.90625 167.476562 31.28125 166.308594 31.28125 C 165.765625 31.28125 165.433594 30.988281 165.433594 30.03125 C 165.433594 29.574219 165.558594 28.949219 165.640625 28.53125 C 165.765625 28.074219 165.765625 27.988281 165.765625 27.699219 C 165.765625 25.988281 164.101562 25.238281 161.808594 24.90625 C 162.640625 24.449219 163.515625 23.613281 164.101562 22.949219 C 165.390625 21.53125 166.601562 20.40625 167.890625 20.40625 C 168.058594 20.40625 168.101562 20.40625 168.140625 20.449219 C 168.476562 20.488281 168.476562 20.488281 168.726562 20.65625 C 168.765625 20.65625 168.765625 20.699219 168.808594 20.738281 C 167.558594 20.824219 167.308594 21.863281 167.308594 22.199219 C 167.308594 22.613281 167.601562 23.113281 168.308594 23.113281 C 169.015625 23.113281 169.765625 22.53125 169.765625 21.488281 C 169.765625 20.699219 169.140625 19.824219 167.976562 19.824219 C 167.226562 19.824219 166.015625 20.03125 164.101562 22.15625 C 163.183594 23.15625 162.140625 24.238281 161.140625 24.613281 Z M 163.890625 13.40625 "/>
<path fill-rule="nonzero" fill="rgb(0%, 0%, 0%)" fill-opacity="1" d="M 178.601562 24.90625 C 178.601562 22.863281 178.308594 19.65625 176.851562 16.613281 C 175.265625 13.363281 172.976562 11.613281 172.726562 11.613281 C 172.558594 11.613281 172.433594 11.738281 172.433594 11.90625 C 172.433594 11.988281 172.433594 12.03125 172.933594 12.53125 C 175.558594 15.15625 177.058594 19.363281 177.058594 24.90625 C 177.058594 29.488281 176.101562 34.15625 172.808594 37.488281 C 172.433594 37.824219 172.433594 37.863281 172.433594 37.949219 C 172.433594 38.113281 172.558594 38.238281 172.726562 38.238281 C 172.976562 38.238281 175.390625 36.40625 176.933594 33.03125 C 178.308594 30.113281 178.601562 27.15625 178.601562 24.90625 Z M 178.601562 24.90625 "/>
<path fill-rule="nonzero" fill="rgb(0%, 0%, 0%)" fill-opacity="1" d="M 275.46875 15.15625 C 275.46875 14.113281 276.136719 12.40625 279.054688 12.238281 C 279.179688 12.199219 279.261719 12.074219 279.261719 11.949219 C 279.261719 11.613281 279.054688 11.613281 278.761719 11.613281 C 276.136719 11.613281 273.679688 12.988281 273.679688 14.949219 L 273.679688 21.03125 C 273.679688 22.074219 273.679688 22.90625 272.59375 23.78125 C 271.679688 24.574219 270.679688 24.613281 270.09375 24.613281 C 269.929688 24.65625 269.84375 24.78125 269.84375 24.90625 C 269.84375 25.199219 270.011719 25.199219 270.261719 25.238281 C 272.011719 25.324219 273.304688 26.28125 273.59375 27.574219 C 273.679688 27.863281 273.679688 27.949219 273.679688 28.90625 L 273.679688 34.15625 C 273.679688 35.28125 273.679688 36.113281 274.929688 37.113281 C 275.96875 37.90625 277.71875 38.238281 278.761719 38.238281 C 279.054688 38.238281 279.261719 38.238281 279.261719 37.90625 C 279.261719 37.65625 279.136719 37.65625 278.84375 37.613281 C 277.179688 37.53125 275.886719 36.65625 275.511719 35.324219 C 275.46875 35.074219 275.46875 35.03125 275.46875 34.074219 L 275.46875 28.488281 C 275.46875 27.28125 275.21875 26.824219 274.386719 25.949219 C 273.84375 25.40625 273.054688 25.15625 272.304688 24.90625 C 274.511719 24.324219 275.46875 23.074219 275.46875 21.53125 Z M 275.46875 15.15625 "/>
<path fill-rule="nonzero" fill="rgb(0%, 0%, 0%)" fill-opacity="1" d="M 289.253906 22.949219 L 291.835938 22.949219 C 293.835938 22.949219 294.042969 23.363281 294.042969 24.113281 C 294.042969 24.324219 294.042969 24.613281 293.878906 25.449219 C 293.792969 25.574219 293.792969 25.65625 293.792969 25.738281 C 293.792969 25.949219 293.960938 26.03125 294.085938 26.03125 C 294.378906 26.03125 294.378906 25.949219 294.503906 25.488281 L 295.960938 19.699219 C 296.042969 19.40625 296.042969 19.363281 296.042969 19.28125 C 296.042969 19.238281 296.003906 18.988281 295.710938 18.988281 C 295.460938 18.988281 295.417969 19.113281 295.335938 19.574219 C 294.753906 21.613281 294.167969 22.113281 291.878906 22.113281 L 289.460938 22.113281 L 291.167969 15.363281 C 291.417969 14.40625 291.460938 14.324219 292.628906 14.324219 L 296.128906 14.324219 C 299.378906 14.324219 300.003906 15.199219 300.003906 17.238281 C 300.003906 17.863281 300.003906 17.949219 299.917969 18.699219 C 299.878906 19.03125 299.878906 19.074219 299.878906 19.15625 C 299.878906 19.28125 299.960938 19.488281 300.210938 19.488281 C 300.503906 19.488281 300.503906 19.324219 300.542969 18.824219 L 301.085938 14.199219 C 301.167969 13.488281 301.042969 13.488281 300.378906 13.488281 L 287.335938 13.488281 C 286.835938 13.488281 286.542969 13.488281 286.542969 14.03125 C 286.542969 14.324219 286.792969 14.324219 287.292969 14.324219 C 288.292969 14.324219 289.042969 14.324219 289.042969 14.78125 C 289.042969 14.90625 289.042969 14.949219 288.878906 15.449219 L 285.378906 29.488281 C 285.128906 30.53125 285.085938 30.738281 282.960938 30.738281 C 282.503906 30.738281 282.210938 30.738281 282.210938 31.238281 C 282.210938 31.574219 282.542969 31.574219 282.628906 31.574219 C 283.378906 31.574219 285.378906 31.488281 286.128906 31.488281 C 287.003906 31.488281 289.210938 31.574219 290.085938 31.574219 C 290.335938 31.574219 290.628906 31.574219 290.628906 31.074219 C 290.628906 30.863281 290.503906 30.78125 290.503906 30.78125 C 290.417969 30.738281 290.335938 30.738281 289.753906 30.738281 C 289.167969 30.738281 289.042969 30.738281 288.378906 30.699219 C 287.585938 30.613281 287.503906 30.488281 287.503906 30.15625 C 287.503906 30.113281 287.503906 29.949219 287.628906 29.574219 Z M 289.253906 22.949219 "/>
<path fill-rule="nonzero" fill="rgb(0%, 0%, 0%)" fill-opacity="1" d="M 307.734375 34.699219 C 307.734375 35.738281 307.027344 37.449219 304.152344 37.613281 C 303.984375 37.65625 303.902344 37.78125 303.902344 37.90625 C 303.902344 38.238281 304.191406 38.238281 304.441406 38.238281 C 307.027344 38.238281 309.484375 36.90625 309.527344 34.90625 L 309.527344 28.824219 C 309.527344 27.78125 309.527344 26.949219 310.566406 26.074219 C 311.484375 25.28125 312.527344 25.238281 313.109375 25.238281 C 313.234375 25.199219 313.316406 25.074219 313.316406 24.90625 C 313.316406 24.65625 313.191406 24.65625 312.902344 24.613281 C 311.152344 24.53125 309.859375 23.574219 309.566406 22.28125 C 309.527344 21.988281 309.527344 21.90625 309.527344 20.949219 L 309.527344 15.699219 C 309.527344 14.574219 309.527344 13.738281 308.234375 12.738281 C 307.152344 11.90625 305.316406 11.613281 304.441406 11.613281 C 304.191406 11.613281 303.902344 11.613281 303.902344 11.949219 C 303.902344 12.199219 304.066406 12.199219 304.316406 12.238281 C 305.984375 12.324219 307.316406 13.199219 307.652344 14.53125 C 307.734375 14.78125 307.734375 14.824219 307.734375 15.78125 L 307.734375 21.363281 C 307.734375 22.574219 307.941406 23.03125 308.777344 23.90625 C 309.359375 24.449219 310.109375 24.699219 310.859375 24.90625 C 308.691406 25.53125 307.734375 26.78125 307.734375 28.324219 Z M 307.734375 34.699219 "/>
<path fill-rule="nonzero" fill="rgb(0%, 0%, 0%)" fill-opacity="1" d="M 84.898438 118.21875 L 79.816406 106.136719 C 79.609375 105.59375 79.609375 105.59375 78.859375 105.59375 L 73.941406 105.59375 C 73.441406 105.59375 73.066406 105.59375 73.066406 106.050781 C 73.066406 106.511719 73.523438 106.511719 73.648438 106.511719 C 73.984375 106.511719 74.691406 106.59375 75.273438 106.800781 L 75.273438 120.96875 C 75.273438 121.550781 75.273438 122.71875 73.484375 122.886719 C 72.984375 122.925781 72.984375 123.300781 72.984375 123.34375 C 72.984375 123.800781 73.398438 123.800781 73.898438 123.800781 L 77.984375 123.800781 C 78.484375 123.800781 78.859375 123.800781 78.859375 123.34375 C 78.859375 123.09375 78.648438 122.886719 78.441406 122.886719 C 76.398438 122.71875 76.398438 121.59375 76.398438 120.96875 L 76.398438 107.761719 L 76.441406 107.71875 L 82.898438 123.261719 C 83.148438 123.71875 83.316406 123.800781 83.484375 123.800781 C 83.816406 123.800781 83.859375 123.59375 84.023438 123.261719 L 90.523438 107.71875 L 90.566406 107.761719 L 90.566406 120.96875 C 90.566406 121.550781 90.566406 122.71875 88.734375 122.886719 C 88.234375 122.925781 88.234375 123.300781 88.234375 123.34375 C 88.234375 123.800781 88.648438 123.800781 89.148438 123.800781 L 96.234375 123.800781 C 96.734375 123.800781 97.109375 123.800781 97.109375 123.34375 C 97.109375 123.09375 96.898438 122.886719 96.691406 122.886719 C 94.648438 122.71875 94.648438 121.59375 94.648438 120.96875 L 94.648438 108.425781 C 94.648438 107.84375 94.648438 106.675781 96.441406 106.511719 C 96.734375 106.511719 96.941406 106.34375 96.941406 106.050781 C 96.941406 105.59375 96.566406 105.59375 96.066406 105.59375 L 90.941406 105.59375 C 90.273438 105.59375 90.191406 105.59375 89.984375 106.136719 Z M 84.109375 118.71875 C 84.316406 119.136719 84.359375 119.175781 84.691406 119.300781 L 83.484375 122.09375 L 83.441406 122.09375 L 77.398438 107.636719 C 77.273438 107.300781 77.023438 106.84375 76.691406 106.511719 L 78.984375 106.511719 Z M 76.066406 122.886719 L 75.648438 122.886719 C 75.691406 122.800781 75.734375 122.71875 75.773438 122.675781 C 75.816406 122.636719 75.816406 122.59375 75.859375 122.59375 Z M 91.484375 106.511719 L 94.316406 106.511719 C 93.691406 107.175781 93.691406 107.886719 93.691406 108.34375 L 93.691406 121.050781 C 93.691406 121.511719 93.691406 122.21875 94.316406 122.886719 L 90.898438 122.886719 C 91.484375 122.21875 91.484375 121.511719 91.484375 121.050781 Z M 91.484375 106.511719 "/>
<path fill-rule="nonzero" fill="rgb(0%, 0%, 0%)" fill-opacity="1" d="M 103.449219 115.453125 C 103.449219 115.410156 103.492188 115.160156 103.492188 115.160156 C 103.492188 115.035156 103.449219 114.871094 103.199219 114.871094 C 102.824219 114.871094 101.28125 115.035156 100.824219 115.078125 C 100.699219 115.078125 100.40625 115.121094 100.40625 115.496094 C 100.40625 115.746094 100.699219 115.746094 100.90625 115.746094 C 101.78125 115.746094 101.78125 115.910156 101.78125 116.035156 C 101.78125 116.160156 101.742188 116.285156 101.742188 116.453125 L 99.117188 126.953125 C 98.992188 127.285156 98.992188 127.328125 98.992188 127.371094 C 98.992188 127.660156 99.242188 127.953125 99.65625 127.953125 C 100.15625 127.953125 100.367188 127.621094 100.492188 127.203125 C 100.53125 127.121094 101.324219 123.828125 101.40625 123.578125 C 102.742188 123.703125 103.78125 124.160156 103.78125 125.121094 C 103.78125 125.203125 103.78125 125.285156 103.742188 125.496094 C 103.65625 125.746094 103.65625 125.871094 103.65625 126.078125 C 103.65625 127.371094 104.742188 127.953125 105.65625 127.953125 C 107.449219 127.953125 107.992188 125.160156 107.992188 125.121094 C 107.992188 124.871094 107.78125 124.871094 107.699219 124.871094 C 107.449219 124.871094 107.40625 124.996094 107.324219 125.328125 C 107.117188 126.121094 106.617188 127.453125 105.699219 127.453125 C 105.199219 127.453125 105.03125 126.996094 105.03125 126.496094 C 105.03125 126.160156 105.03125 126.121094 105.15625 125.660156 C 105.199219 125.578125 105.242188 125.285156 105.242188 125.078125 C 105.242188 123.410156 103.03125 123.160156 102.242188 123.121094 C 102.78125 122.785156 103.449219 122.160156 103.78125 121.871094 C 104.742188 120.996094 105.65625 120.121094 106.699219 120.121094 C 106.90625 120.121094 107.15625 120.160156 107.324219 120.371094 C 106.53125 120.496094 106.367188 121.121094 106.367188 121.410156 C 106.367188 121.785156 106.65625 122.078125 107.074219 122.078125 C 107.617188 122.078125 108.15625 121.660156 108.15625 120.910156 C 108.15625 120.285156 107.699219 119.578125 106.742188 119.578125 C 105.65625 119.578125 104.699219 120.371094 103.742188 121.246094 C 102.949219 121.953125 102.367188 122.535156 101.574219 122.871094 Z M 103.449219 115.453125 "/>
<path fill-rule="nonzero" fill="rgb(0%, 0%, 0%)" fill-opacity="1" d="M 123.191406 123.578125 C 123.484375 123.578125 123.941406 123.578125 123.941406 123.160156 C 123.941406 122.660156 123.484375 122.660156 123.191406 122.660156 L 112.109375 122.660156 C 111.816406 122.660156 111.359375 122.660156 111.359375 123.121094 C 111.359375 123.578125 111.777344 123.578125 112.109375 123.578125 Z M 123.191406 123.578125 "/>
<path fill-rule="nonzero" fill="rgb(0%, 0%, 0%)" fill-opacity="1" d="M 132.171875 115.953125 C 132.171875 115.453125 132.171875 115.453125 131.632812 115.453125 C 130.421875 116.621094 128.757812 116.621094 128.007812 116.621094 L 128.007812 117.285156 C 128.421875 117.285156 129.671875 117.285156 130.671875 116.785156 L 130.671875 126.246094 C 130.671875 126.871094 130.671875 127.121094 128.839844 127.121094 L 128.132812 127.121094 L 128.132812 127.785156 C 128.464844 127.785156 130.757812 127.703125 131.421875 127.703125 C 132.007812 127.703125 134.339844 127.785156 134.757812 127.785156 L 134.757812 127.121094 L 134.046875 127.121094 C 132.171875 127.121094 132.171875 126.871094 132.171875 126.246094 Z M 132.171875 115.953125 "/>
<path fill-rule="nonzero" fill="rgb(0%, 0%, 0%)" fill-opacity="1" d="M 295.09375 115.925781 C 294.46875 118.175781 293.550781 121.46875 293.550781 123.511719 C 293.550781 124.21875 293.96875 124.550781 294.632812 124.550781 C 295.675781 124.550781 297.675781 123.386719 297.675781 122.886719 C 297.675781 122.71875 297.550781 122.675781 297.425781 122.675781 C 297.09375 122.675781 296.632812 122.925781 296.34375 123.09375 C 295.96875 123.011719 295.800781 122.761719 295.800781 122.386719 C 295.800781 119.136719 298.800781 109.84375 299.59375 107.886719 C 299.925781 107.136719 300.257812 106.050781 300.257812 105.84375 C 300.257812 105.636719 300.09375 105.636719 300.007812 105.636719 C 299.425781 105.636719 298.21875 106.34375 298.007812 106.886719 C 297.675781 107.800781 297.632812 107.925781 297.300781 108.925781 C 296.425781 111.425781 293.800781 115.84375 291.175781 118.925781 C 290.34375 119.84375 287.71875 122.925781 285.84375 122.925781 C 284.59375 122.925781 283.757812 121.84375 283.757812 120.09375 C 283.757812 118.21875 284.800781 115.84375 286.425781 112.175781 C 287.382812 110.011719 288.175781 108.136719 288.175781 106.925781 C 288.175781 105.675781 287.300781 105.636719 286.84375 105.636719 C 284.800781 105.636719 282.21875 107.300781 282.21875 107.84375 C 282.21875 108.011719 282.425781 108.011719 282.507812 108.011719 C 282.84375 108.011719 283.34375 107.800781 283.757812 107.511719 C 283.925781 107.386719 284.34375 107.09375 285.09375 107.09375 C 285.675781 107.09375 285.882812 107.46875 285.882812 108.050781 C 285.882812 109.21875 284.925781 111.425781 283.84375 113.96875 C 282.09375 117.96875 281.507812 119.636719 281.507812 121.175781 C 281.507812 122.96875 282.21875 124.386719 284.09375 124.386719 C 285.757812 124.386719 288.175781 123.300781 290.882812 120.761719 C 292.71875 119.050781 293.882812 117.46875 295.050781 115.925781 Z M 295.09375 115.925781 "/>
<path fill="none" stroke-width="0.39848" stroke-linecap="butt" stroke-linejoin="miter" stroke="rgb(0%, 0%, 0%)" stroke-opacity="1" stroke-miterlimit="10" d="M 7.890747 17.211832 L 31.004517 17.211832 " transform="matrix(2.666667, 0, 0, -2.666667, 172.208008, 70.824)"/>
<path fill="none" stroke-width="0.39848" stroke-linecap="round" stroke-linejoin="round" stroke="rgb(0%, 0%, 0%)" stroke-opacity="1" stroke-miterlimit="10" d="M -2.071449 2.392157 C -1.692055 0.958075 -0.848305 0.278387 -0.000160217 0.0015316 C -0.848305 -0.279718 -1.692055 -0.956476 -2.071449 -2.389093 " transform="matrix(2.666667, 0, 0, -2.666667, 255.418396, 24.929866)"/>
<path fill-rule="nonzero" fill="rgb(0%, 0%, 0%)" fill-opacity="1" d="M 214.5625 16.644531 C 213.355469 16.644531 213.1875 16.644531 213.1875 15.851562 L 213.1875 12.851562 C 213.273438 12.9375 214.148438 13.894531 215.6875 13.894531 C 218.148438 13.894531 220.230469 12.0625 220.230469 9.726562 C 220.230469 7.4375 218.355469 5.519531 215.980469 5.519531 C 214.9375 5.519531 213.855469 5.9375 213.105469 6.6875 L 213.105469 5.519531 L 210.3125 5.726562 L 210.3125 6.394531 C 211.605469 6.394531 211.6875 6.519531 211.6875 7.269531 L 211.6875 15.851562 C 211.6875 16.644531 211.523438 16.644531 210.3125 16.644531 L 210.3125 17.351562 C 210.355469 17.351562 211.648438 17.269531 212.4375 17.269531 C 213.105469 17.269531 214.398438 17.3125 214.5625 17.351562 Z M 213.1875 7.519531 C 213.730469 6.601562 214.8125 6.144531 215.773438 6.144531 C 217.355469 6.144531 218.5625 7.769531 218.5625 9.726562 C 218.5625 11.851562 217.148438 13.394531 215.605469 13.394531 C 213.9375 13.394531 213.230469 11.976562 213.1875 11.851562 Z M 213.1875 7.519531 "/>
<path fill-rule="nonzero" fill="rgb(0%, 0%, 0%)" fill-opacity="1" d="M 224.820312 9.476562 C 224.820312 7.9375 225.53125 6.0625 227.320312 6.0625 C 227.15625 6.1875 226.988281 6.4375 226.988281 6.726562 C 226.988281 7.351562 227.488281 7.5625 227.820312 7.5625 C 228.28125 7.5625 228.695312 7.269531 228.695312 6.726562 C 228.695312 6.101562 228.070312 5.519531 227.195312 5.519531 C 226.28125 5.519531 225.238281 6.101562 224.695312 7.519531 L 224.695312 5.519531 L 222.03125 5.726562 L 222.03125 6.394531 C 223.28125 6.394531 223.40625 6.519531 223.40625 7.4375 L 223.40625 12.269531 C 223.40625 13.0625 223.238281 13.0625 222.03125 13.0625 L 222.03125 13.726562 C 222.113281 13.726562 223.363281 13.644531 224.15625 13.644531 C 224.945312 13.644531 225.738281 13.6875 226.570312 13.726562 L 226.570312 13.0625 L 226.195312 13.0625 C 224.820312 13.0625 224.820312 12.851562 224.820312 12.226562 Z M 224.820312 9.476562 "/>
<path fill-rule="nonzero" fill="rgb(0%, 0%, 0%)" fill-opacity="1" d="M 234.722656 10.214844 C 234.722656 9.839844 234.683594 9.839844 234.222656 9.839844 C 233.308594 10.671875 231.808594 10.671875 231.558594 10.671875 L 231.347656 10.671875 L 231.347656 11.253906 L 231.558594 11.253906 C 231.847656 11.253906 232.722656 11.214844 233.515625 10.878906 L 233.515625 17.546875 C 233.515625 17.921875 233.515625 18.089844 232.097656 18.089844 L 231.433594 18.089844 L 231.433594 18.671875 C 232.140625 18.628906 233.347656 18.628906 234.097656 18.628906 C 234.890625 18.628906 236.058594 18.628906 236.808594 18.671875 L 236.808594 18.089844 L 236.140625 18.089844 C 234.722656 18.089844 234.722656 17.921875 234.722656 17.546875 Z M 234.722656 10.214844 "/>
<path fill="none" stroke-width="0.39848" stroke-linecap="butt" stroke-linejoin="miter" stroke="rgb(0%, 0%, 0%)" stroke-opacity="1" stroke-miterlimit="10" d="M -25.125366 8.378824 L -25.125366 -8.756918 " transform="matrix(2.666667, 0, 0, -2.666667, 172.208008, 70.824)"/>
<path fill="none" stroke-width="0.39848" stroke-linecap="round" stroke-linejoin="round" stroke="rgb(0%, 0%, 0%)" stroke-opacity="1" stroke-miterlimit="10" d="M -2.073544 2.391071 C -1.694149 0.958454 -0.850399 0.278767 0.000675201 0.00044632 C -0.850399 -0.280804 -1.694149 -0.956097 -2.073544 -2.390179 " transform="matrix(0, 2.666667, 2.666667, 0, 105.205841, 94.705231)"/>
<path fill-rule="nonzero" fill="rgb(0%, 0%, 0%)" fill-opacity="1" d="M 57.304688 63.078125 C 57.179688 62.746094 57.136719 62.664062 56.929688 62.664062 C 56.722656 62.664062 56.636719 62.828125 56.511719 63.039062 L 52.304688 74.164062 C 52.054688 74.746094 51.679688 75.039062 51.179688 75.078125 C 51.097656 75.078125 50.804688 75.121094 50.804688 75.414062 C 50.804688 75.746094 51.097656 75.746094 51.429688 75.746094 L 54.386719 75.746094 C 54.722656 75.746094 55.011719 75.746094 55.011719 75.414062 C 55.011719 75.121094 54.761719 75.121094 54.597656 75.078125 C 54.347656 75.078125 53.886719 74.996094 53.886719 73.871094 C 53.886719 73.289062 54.011719 72.664062 54.136719 72.078125 L 58.222656 72.078125 C 58.886719 73.914062 58.886719 74.203125 58.929688 74.578125 C 58.472656 75.039062 57.972656 75.078125 57.761719 75.078125 C 57.554688 75.121094 57.429688 75.246094 57.429688 75.414062 C 57.429688 75.746094 57.722656 75.746094 58.054688 75.746094 L 62.886719 75.746094 C 63.222656 75.746094 63.554688 75.746094 63.554688 75.414062 C 63.554688 75.164062 63.304688 75.121094 63.136719 75.078125 C 62.722656 75.039062 62.386719 74.703125 62.011719 73.871094 Z M 54.347656 71.453125 C 54.761719 69.789062 55.347656 68.203125 55.972656 66.664062 C 56.554688 67.914062 57.679688 70.578125 57.972656 71.453125 Z M 53.222656 73.496094 L 53.261719 73.539062 L 53.261719 73.703125 C 53.222656 73.746094 53.222656 73.789062 53.222656 73.871094 C 53.222656 73.953125 53.222656 74.664062 53.511719 75.078125 L 52.511719 75.078125 C 52.722656 74.828125 52.804688 74.621094 52.929688 74.328125 Z M 56.261719 65.664062 L 56.929688 63.871094 L 61.429688 74.121094 C 61.511719 74.328125 61.722656 74.746094 61.972656 75.078125 L 59.347656 75.078125 C 59.511719 74.996094 59.597656 74.703125 59.597656 74.496094 C 59.597656 73.371094 57.972656 69.578125 57.179688 67.746094 Z M 56.261719 65.664062 "/>
<path fill-rule="nonzero" fill="rgb(0%, 0%, 0%)" fill-opacity="1" d="M 68.777344 69.855469 C 68.859375 69.648438 68.859375 69.648438 68.859375 69.566406 C 68.859375 69.355469 68.652344 69.355469 68.441406 69.355469 L 66.816406 69.480469 C 66.566406 69.480469 66.527344 69.480469 66.484375 69.566406 C 66.441406 69.605469 66.402344 69.773438 66.402344 69.855469 C 66.402344 70.066406 66.609375 70.066406 66.777344 70.066406 C 66.816406 70.066406 67.027344 70.066406 67.234375 70.105469 C 67.484375 70.148438 67.484375 70.191406 67.484375 70.273438 C 67.484375 70.316406 67.484375 70.355469 67.441406 70.605469 L 65.609375 77.941406 C 65.566406 78.105469 65.566406 78.148438 65.566406 78.230469 C 65.566406 78.523438 65.777344 78.730469 66.066406 78.730469 C 66.566406 78.730469 66.691406 78.230469 66.734375 78.023438 L 67.359375 75.605469 C 67.691406 75.605469 69.359375 75.691406 69.359375 76.648438 C 69.359375 76.730469 69.359375 76.773438 69.316406 76.941406 C 69.277344 77.148438 69.277344 77.191406 69.277344 77.273438 C 69.277344 78.230469 70.109375 78.730469 70.902344 78.730469 C 72.234375 78.730469 72.777344 76.816406 72.777344 76.648438 C 72.777344 76.480469 72.566406 76.480469 72.484375 76.480469 C 72.277344 76.480469 72.234375 76.523438 72.191406 76.773438 C 72.066406 77.230469 71.652344 78.273438 70.941406 78.273438 C 70.441406 78.273438 70.402344 77.773438 70.402344 77.480469 C 70.402344 77.480469 70.402344 77.273438 70.441406 77.066406 C 70.484375 76.855469 70.527344 76.691406 70.527344 76.605469 C 70.527344 75.441406 69.027344 75.230469 68.152344 75.148438 C 68.527344 74.941406 69.109375 74.480469 69.316406 74.316406 C 70.066406 73.730469 70.816406 73.148438 71.566406 73.148438 C 71.859375 73.148438 71.941406 73.230469 72.027344 73.316406 C 72.027344 73.316406 71.941406 73.355469 71.902344 73.355469 C 71.316406 73.566406 71.316406 74.105469 71.316406 74.148438 C 71.316406 74.355469 71.484375 74.691406 71.902344 74.691406 C 72.152344 74.691406 72.734375 74.480469 72.734375 73.730469 C 72.734375 73.105469 72.234375 72.691406 71.566406 72.691406 C 70.691406 72.691406 69.902344 73.316406 68.941406 74.066406 C 68.484375 74.441406 68.027344 74.773438 67.484375 75.023438 Z M 68.777344 69.855469 "/>
<path fill-rule="nonzero" fill="rgb(0%, 0%, 0%)" fill-opacity="1" d="M 85.898438 75.605469 C 86.105469 75.605469 86.4375 75.605469 86.4375 75.230469 C 86.4375 74.855469 86.105469 74.855469 85.898438 74.855469 L 76.898438 74.855469 C 76.6875 74.855469 76.3125 74.855469 76.3125 75.230469 C 76.3125 75.605469 76.6875 75.605469 76.898438 75.605469 Z M 85.898438 75.605469 "/>
<path fill-rule="nonzero" fill="rgb(0%, 0%, 0%)" fill-opacity="1" d="M 93.871094 70.105469 C 93.871094 69.730469 93.828125 69.730469 93.371094 69.730469 C 92.453125 70.566406 90.953125 70.566406 90.703125 70.566406 L 90.496094 70.566406 L 90.496094 71.148438 L 90.703125 71.148438 C 90.996094 71.148438 91.871094 71.105469 92.660156 70.773438 L 92.660156 77.441406 C 92.660156 77.816406 92.660156 77.980469 91.246094 77.980469 L 90.578125 77.980469 L 90.578125 78.566406 C 91.285156 78.523438 92.496094 78.523438 93.246094 78.523438 C 94.035156 78.523438 95.203125 78.523438 95.953125 78.566406 L 95.953125 77.980469 L 95.285156 77.980469 C 93.871094 77.980469 93.871094 77.816406 93.871094 77.441406 Z M 93.871094 70.105469 "/>
<path fill="none" stroke-width="0.39848" stroke-linecap="butt" stroke-linejoin="miter" stroke="rgb(0%, 0%, 0%)" stroke-opacity="1" stroke-miterlimit="10" d="M 44.774048 8.378824 L 44.774048 -8.812582 " transform="matrix(2.666667, 0, 0, -2.666667, 172.208008, 70.824)"/>
<path fill="none" stroke-width="0.39848" stroke-linecap="round" stroke-linejoin="round" stroke="rgb(0%, 0%, 0%)" stroke-opacity="1" stroke-miterlimit="10" d="M -2.07325 2.391754 C -1.69532 0.957672 -0.85157 0.277985 0.000968933 0.00112915 C -0.85157 -0.280121 -1.69532 -0.956879 -2.07325 -2.389496 " transform="matrix(0, 2.666667, 2.666667, 0, 291.602458, 94.852885)"/>
<path fill-rule="nonzero" fill="rgb(0%, 0%, 0%)" fill-opacity="1" d="M 303.859375 67.933594 C 305.398438 67.269531 306.066406 67.019531 306.523438 66.769531 C 306.898438 66.644531 307.066406 66.558594 307.066406 66.183594 C 307.066406 65.894531 306.816406 65.601562 306.484375 65.601562 C 306.359375 65.601562 306.316406 65.601562 306.109375 65.769531 L 303.566406 67.476562 L 303.859375 64.726562 C 303.898438 64.394531 303.859375 63.933594 303.273438 63.933594 C 303.066406 63.933594 302.691406 64.058594 302.691406 64.476562 C 302.691406 64.644531 302.773438 65.183594 302.816406 65.394531 C 302.859375 65.683594 302.984375 67.058594 303.023438 67.476562 L 300.484375 65.769531 C 300.316406 65.683594 300.273438 65.601562 300.109375 65.601562 C 299.734375 65.601562 299.523438 65.894531 299.523438 66.183594 C 299.523438 66.558594 299.734375 66.683594 299.898438 66.726562 L 302.691406 67.933594 C 301.191406 68.601562 300.484375 68.851562 300.023438 69.058594 C 299.691406 69.226562 299.523438 69.308594 299.523438 69.644531 C 299.523438 69.976562 299.734375 70.226562 300.109375 70.226562 C 300.234375 70.226562 300.273438 70.226562 300.484375 70.058594 L 303.023438 68.394531 L 302.691406 71.351562 C 302.691406 71.769531 303.066406 71.933594 303.273438 71.933594 C 303.523438 71.933594 303.859375 71.769531 303.859375 71.351562 C 303.859375 71.183594 303.773438 70.644531 303.773438 70.476562 C 303.734375 70.144531 303.609375 68.808594 303.566406 68.394531 L 305.773438 69.851562 C 306.273438 70.226562 306.316406 70.226562 306.484375 70.226562 C 306.816406 70.226562 307.066406 69.976562 307.066406 69.644531 C 307.066406 69.269531 306.816406 69.183594 306.648438 69.101562 Z M 303.859375 67.933594 "/>
<path fill-rule="nonzero" fill="rgb(0%, 0%, 0%)" fill-opacity="1" d="M 314.953125 72.511719 L 312.410156 66.46875 C 312.285156 66.179688 312.285156 66.179688 311.910156 66.179688 L 309.453125 66.179688 C 309.203125 66.179688 308.992188 66.179688 308.992188 66.429688 C 308.992188 66.679688 309.242188 66.679688 309.328125 66.679688 C 309.492188 66.679688 309.828125 66.679688 310.117188 66.804688 L 310.117188 73.886719 C 310.117188 74.179688 310.117188 74.761719 309.203125 74.84375 C 308.953125 74.84375 308.953125 75.054688 308.953125 75.054688 C 308.953125 75.304688 309.203125 75.304688 309.410156 75.304688 L 311.492188 75.304688 C 311.703125 75.304688 311.910156 75.304688 311.910156 75.054688 C 311.910156 74.929688 311.828125 74.84375 311.703125 74.84375 C 310.703125 74.761719 310.703125 74.21875 310.703125 73.886719 L 310.703125 67.261719 L 313.953125 75.011719 C 314.035156 75.261719 314.160156 75.304688 314.203125 75.304688 C 314.367188 75.304688 314.410156 75.179688 314.492188 75.054688 L 317.742188 67.261719 L 317.742188 73.886719 C 317.742188 74.179688 317.742188 74.761719 316.867188 74.84375 C 316.617188 74.84375 316.617188 75.054688 316.617188 75.054688 C 316.617188 75.304688 316.828125 75.304688 317.035156 75.304688 L 320.617188 75.304688 C 320.828125 75.304688 321.035156 75.304688 321.035156 75.054688 C 321.035156 74.929688 320.953125 74.84375 320.828125 74.84375 C 319.785156 74.761719 319.785156 74.21875 319.785156 73.886719 L 319.785156 67.59375 C 319.785156 67.34375 319.785156 66.761719 320.703125 66.679688 C 320.828125 66.636719 320.953125 66.59375 320.953125 66.429688 C 320.953125 66.179688 320.742188 66.179688 320.535156 66.179688 L 317.953125 66.179688 C 317.617188 66.179688 317.578125 66.179688 317.453125 66.46875 Z M 314.535156 72.761719 C 314.660156 72.96875 314.660156 72.96875 314.828125 73.054688 L 314.242188 74.46875 L 314.203125 74.46875 L 311.160156 67.21875 C 311.117188 67.054688 310.992188 66.804688 310.828125 66.679688 L 311.992188 66.679688 Z M 310.535156 74.84375 L 310.285156 74.84375 C 310.328125 74.804688 310.367188 74.761719 310.367188 74.71875 C 310.410156 74.71875 310.410156 74.71875 310.410156 74.679688 Z M 318.203125 66.679688 L 319.617188 66.679688 C 319.328125 67.011719 319.328125 67.34375 319.328125 67.59375 L 319.328125 73.929688 C 319.328125 74.179688 319.328125 74.511719 319.660156 74.84375 L 317.910156 74.84375 C 318.203125 74.511719 318.203125 74.179688 318.203125 73.929688 Z M 318.203125 66.679688 "/>
<path fill-rule="nonzero" fill="rgb(0%, 0%, 0%)" fill-opacity="1" d="M 326.164062 71.246094 C 326.246094 71.039062 326.246094 71.039062 326.246094 70.953125 C 326.246094 70.746094 326.039062 70.746094 325.828125 70.746094 L 324.203125 70.871094 C 323.953125 70.871094 323.914062 70.871094 323.871094 70.953125 C 323.828125 70.996094 323.789062 71.164062 323.789062 71.246094 C 323.789062 71.453125 323.996094 71.453125 324.164062 71.453125 C 324.203125 71.453125 324.414062 71.453125 324.621094 71.496094 C 324.871094 71.539062 324.871094 71.578125 324.871094 71.664062 C 324.871094 71.703125 324.871094 71.746094 324.828125 71.996094 L 322.996094 79.328125 C 322.953125 79.496094 322.953125 79.539062 322.953125 79.621094 C 322.953125 79.914062 323.164062 80.121094 323.453125 80.121094 C 323.953125 80.121094 324.078125 79.621094 324.121094 79.414062 L 324.746094 76.996094 C 325.078125 76.996094 326.746094 77.078125 326.746094 78.039062 C 326.746094 78.121094 326.746094 78.164062 326.703125 78.328125 C 326.664062 78.539062 326.664062 78.578125 326.664062 78.664062 C 326.664062 79.621094 327.496094 80.121094 328.289062 80.121094 C 329.621094 80.121094 330.164062 78.203125 330.164062 78.039062 C 330.164062 77.871094 329.953125 77.871094 329.871094 77.871094 C 329.664062 77.871094 329.621094 77.914062 329.578125 78.164062 C 329.453125 78.621094 329.039062 79.664062 328.328125 79.664062 C 327.828125 79.664062 327.789062 79.164062 327.789062 78.871094 C 327.789062 78.871094 327.789062 78.664062 327.828125 78.453125 C 327.871094 78.246094 327.914062 78.078125 327.914062 77.996094 C 327.914062 76.828125 326.414062 76.621094 325.539062 76.539062 C 325.914062 76.328125 326.496094 75.871094 326.703125 75.703125 C 327.453125 75.121094 328.203125 74.539062 328.953125 74.539062 C 329.246094 74.539062 329.328125 74.621094 329.414062 74.703125 C 329.414062 74.703125 329.328125 74.746094 329.289062 74.746094 C 328.703125 74.953125 328.703125 75.496094 328.703125 75.539062 C 328.703125 75.746094 328.871094 76.078125 329.289062 76.078125 C 329.539062 76.078125 330.121094 75.871094 330.121094 75.121094 C 330.121094 74.496094 329.621094 74.078125 328.953125 74.078125 C 328.078125 74.078125 327.289062 74.703125 326.328125 75.453125 C 325.871094 75.828125 325.414062 76.164062 324.871094 76.414062 Z M 326.164062 71.246094 "/>
<g clip-path="url(#clip-0)">
<path fill="none" stroke-width="2.33075" stroke-linecap="butt" stroke-linejoin="miter" stroke="rgb(0%, 0%, 0%)" stroke-opacity="1" stroke-miterlimit="10" d="M 21.582642 5.739176 L 3.266235 -3.323812 " transform="matrix(2.666667, 0, 0, -2.666667, 172.208008, 70.824)"/>
</g>
<path fill="none" stroke-width="1.53377" stroke-linecap="butt" stroke-linejoin="miter" stroke="rgb(100%, 100%, 100%)" stroke-opacity="1" stroke-miterlimit="10" d="M 21.582642 5.739176 L 3.266235 -3.323812 " transform="matrix(2.666667, 0, 0, -2.666667, 172.208008, 70.824)"/>
<path fill="none" stroke-width="0.39848" stroke-linecap="round" stroke-linejoin="round" stroke="rgb(0%, 0%, 0%)" stroke-opacity="1" stroke-miterlimit="10" d="M -1.294143 2.561974 C -0.66413 1.209124 1.023137 0.0474149 1.989009 0.00101236 C 1.022885 -0.0488919 -0.665799 -1.20901 -1.294327 -2.558612 " transform="matrix(-2.389973, 1.182507, 1.182507, 2.389973, 180.920451, 79.688533)"/>
<path fill-rule="nonzero" fill="rgb(0%, 0%, 0%)" fill-opacity="1" d="M 211.0625 75.730469 C 211.0625 75.355469 211.0625 75.191406 210.730469 75.191406 C 210.394531 75.191406 210.394531 75.355469 210.394531 75.730469 L 210.394531 88.941406 C 210.394531 89.273438 210.394531 89.480469 210.730469 89.480469 C 211.019531 89.480469 212.230469 88.605469 212.605469 88.355469 C 214.019531 87.355469 216.105469 85.648438 216.105469 83.148438 C 216.105469 81.523438 214.6875 80.566406 213.3125 80.566406 C 213.230469 80.566406 211.894531 80.566406 211.0625 81.273438 Z M 211.0625 82.816406 C 211.0625 82.398438 211.0625 82.066406 211.605469 81.730469 C 211.855469 81.605469 212.355469 81.398438 213.0625 81.398438 C 214.394531 81.398438 214.480469 82.855469 214.480469 83.148438 C 214.480469 85.441406 212.644531 87.355469 211.0625 88.605469 Z M 211.0625 82.816406 "/>
<path fill-rule="nonzero" fill="rgb(0%, 0%, 0%)" fill-opacity="1" d="M 222.449219 83.21875 C 222.535156 83.007812 222.535156 83.007812 222.535156 82.925781 C 222.535156 82.71875 222.324219 82.71875 222.117188 82.71875 L 220.492188 82.84375 C 220.242188 82.84375 220.199219 82.84375 220.160156 82.925781 C 220.117188 82.96875 220.074219 83.132812 220.074219 83.21875 C 220.074219 83.425781 220.285156 83.425781 220.449219 83.425781 C 220.492188 83.425781 220.699219 83.425781 220.910156 83.46875 C 221.160156 83.507812 221.160156 83.550781 221.160156 83.632812 C 221.160156 83.675781 221.160156 83.71875 221.117188 83.96875 L 219.285156 91.300781 C 219.242188 91.46875 219.242188 91.507812 219.242188 91.59375 C 219.242188 91.882812 219.449219 92.09375 219.742188 92.09375 C 220.242188 92.09375 220.367188 91.59375 220.410156 91.382812 L 221.035156 88.96875 C 221.367188 88.96875 223.035156 89.050781 223.035156 90.007812 C 223.035156 90.09375 223.035156 90.132812 222.992188 90.300781 C 222.949219 90.507812 222.949219 90.550781 222.949219 90.632812 C 222.949219 91.59375 223.785156 92.09375 224.574219 92.09375 C 225.910156 92.09375 226.449219 90.175781 226.449219 90.007812 C 226.449219 89.84375 226.242188 89.84375 226.160156 89.84375 C 225.949219 89.84375 225.910156 89.882812 225.867188 90.132812 C 225.742188 90.59375 225.324219 91.632812 224.617188 91.632812 C 224.117188 91.632812 224.074219 91.132812 224.074219 90.84375 C 224.074219 90.84375 224.074219 90.632812 224.117188 90.425781 C 224.160156 90.21875 224.199219 90.050781 224.199219 89.96875 C 224.199219 88.800781 222.699219 88.59375 221.824219 88.507812 C 222.199219 88.300781 222.785156 87.84375 222.992188 87.675781 C 223.742188 87.09375 224.492188 86.507812 225.242188 86.507812 C 225.535156 86.507812 225.617188 86.59375 225.699219 86.675781 C 225.699219 86.675781 225.617188 86.71875 225.574219 86.71875 C 224.992188 86.925781 224.992188 87.46875 224.992188 87.507812 C 224.992188 87.71875 225.160156 88.050781 225.574219 88.050781 C 225.824219 88.050781 226.410156 87.84375 226.410156 87.09375 C 226.410156 86.46875 225.910156 86.050781 225.242188 86.050781 C 224.367188 86.050781 223.574219 86.675781 222.617188 87.425781 C 222.160156 87.800781 221.699219 88.132812 221.160156 88.382812 Z M 222.449219 83.21875 "/>
<path fill="none" stroke-width="0.39848" stroke-linecap="butt" stroke-linejoin="miter" stroke="rgb(0%, 0%, 0%)" stroke-opacity="1" stroke-miterlimit="10" d="M -8.379272 -17.374594 L 36.269165 -17.374594 " transform="matrix(2.666667, 0, 0, -2.666667, 172.208008, 70.824)"/>
<path fill="none" stroke-width="0.39848" stroke-linecap="round" stroke-linejoin="round" stroke="rgb(0%, 0%, 0%)" stroke-opacity="1" stroke-miterlimit="10" d="M -2.07412 2.392403 C -1.694725 0.955391 -0.850975 0.278633 0.0000991821 0.00177765 C -0.850975 -0.279472 -1.694725 -0.954765 -2.07412 -2.393242 " transform="matrix(2.666667, 0, 0, -2.666667, 269.456767, 117.16099)"/>
</svg>
