<?xml version="1.0" encoding="UTF-8"?>
<svg xmlns="http://www.w3.org/2000/svg" xmlns:xlink="http://www.w3.org/1999/xlink" width="458" height="174.380005" viewBox="0 0 458 174.380005">
<defs>
<clipPath id="clip-0">
<path clip-rule="nonzero" d="M 128 36 L 329 36 L 329 174.382812 L 128 174.382812 Z M 128 36 "/>
</clipPath>
</defs>
<path fill-rule="nonzero" fill="rgb(0%, 0%, 0%)" fill-opacity="1" d="M 12.378906 18.820312 C 12.378906 18.195312 11.878906 17.664062 11.285156 17.664062 C 10.691406 17.664062 10.191406 18.164062 10.191406 18.820312 C 10.191406 19.570312 10.847656 19.882812 11.285156 19.882812 C 11.691406 19.882812 12.378906 19.539062 12.378906 18.820312 Z M 12.378906 18.820312 "/>
<path fill-rule="nonzero" fill="rgb(0%, 0%, 0%)" fill-opacity="1" d="M 21.066406 18.820312 C 21.066406 18.195312 20.566406 17.664062 19.972656 17.664062 C 19.378906 17.664062 18.878906 18.164062 18.878906 18.820312 C 18.878906 19.570312 19.535156 19.882812 19.972656 19.882812 C 20.378906 19.882812 21.066406 19.539062 21.066406 18.820312 Z M 21.066406 18.820312 "/>
<path fill-rule="nonzero" fill="rgb(0%, 0%, 0%)" fill-opacity="1" d="M 29.773438 18.820312 C 29.773438 18.195312 29.273438 17.664062 28.679688 17.664062 C 28.085938 17.664062 27.585938 18.164062 27.585938 18.820312 C 27.585938 19.570312 28.242188 19.882812 28.679688 19.882812 C 29.085938 19.882812 29.773438 19.539062 29.773438 18.820312 Z M 29.773438 18.820312 "/>
<path fill-rule="nonzero" fill="rgb(0%, 0%, 0%)" fill-opacity="1" d="M 141.730469 11.976562 L 142.167969 11.320312 L 139.574219 21.226562 C 139.449219 21.695312 139.355469 22.039062 139.199219 22.320312 C 139.042969 22.789062 138.636719 23.289062 138.199219 23.476562 C 137.980469 23.570312 137.667969 23.632812 137.355469 23.632812 L 137.261719 23.914062 L 143.011719 23.914062 L 143.105469 23.632812 C 142.480469 23.632812 141.980469 23.570312 141.730469 23.382812 C 141.449219 23.164062 141.386719 22.726562 141.386719 22.320312 C 141.386719 22.007812 141.449219 21.570312 141.605469 21.039062 L 143.574219 13.570312 C 143.730469 12.945312 143.855469 12.445312 143.980469 12.070312 C 144.199219 11.476562 144.636719 10.820312 145.074219 10.507812 C 145.292969 10.382812 145.574219 10.351562 145.917969 10.351562 L 146.011719 10.070312 L 142.417969 10.070312 L 135.730469 20.789062 L 135.449219 20.789062 L 134.167969 10.070312 L 129.886719 10.070312 L 129.792969 10.351562 C 130.417969 10.351562 130.824219 10.351562 131.042969 10.476562 C 131.324219 10.601562 131.667969 11.101562 131.667969 11.476562 C 131.667969 11.789062 131.605469 12.289062 131.417969 12.945312 L 129.230469 21.226562 C 129.074219 21.851562 128.574219 22.539062 128.105469 22.945312 C 127.667969 23.351562 126.980469 23.632812 126.417969 23.632812 L 126.355469 23.914062 L 131.324219 23.914062 L 131.417969 23.632812 C 130.949219 23.601562 130.417969 23.507812 130.199219 23.195312 C 129.980469 22.882812 129.667969 22.351562 129.667969 21.851562 C 129.667969 21.570312 129.667969 21.289062 129.730469 21.039062 L 132.136719 11.976562 L 132.261719 11.539062 L 133.730469 23.914062 L 134.324219 23.914062 Z M 141.730469 11.976562 "/>
<path fill-rule="nonzero" fill="rgb(0%, 0%, 0%)" fill-opacity="1" d="M 149.761719 27.027344 C 151.042969 27.027344 151.667969 25.808594 152.042969 25.121094 L 151.824219 24.996094 C 151.511719 25.433594 150.949219 26.433594 150.511719 26.433594 C 150.292969 26.433594 150.292969 26.058594 150.292969 25.933594 C 150.292969 25.777344 150.355469 25.527344 150.480469 25.152344 C 150.574219 24.808594 150.699219 24.402344 150.886719 23.839844 C 151.105469 23.058594 151.355469 22.027344 151.355469 21.496094 C 151.355469 20.871094 151.136719 20.558594 150.480469 20.558594 C 149.386719 20.558594 148.542969 21.464844 147.980469 22.464844 L 147.949219 22.402344 C 148.042969 22.121094 148.074219 21.902344 148.074219 21.496094 C 148.074219 20.902344 147.980469 20.558594 147.386719 20.558594 C 146.042969 20.558594 145.667969 21.808594 145.292969 22.933594 L 145.605469 22.996094 C 145.761719 22.433594 146.292969 20.902344 146.949219 20.902344 C 147.074219 20.902344 147.230469 21.027344 147.230469 21.246094 C 147.230469 21.527344 147.136719 22.058594 147.042969 22.339844 C 146.855469 22.964844 146.730469 23.527344 146.480469 24.214844 L 145.605469 26.902344 L 146.574219 26.902344 L 147.417969 24.402344 C 147.730469 23.621094 148.230469 22.496094 148.730469 21.871094 C 149.042969 21.496094 149.605469 20.871094 150.105469 20.871094 C 150.292969 20.871094 150.417969 21.027344 150.417969 21.308594 C 150.417969 21.371094 150.386719 21.621094 150.386719 21.683594 C 150.292969 22.183594 150.167969 22.558594 150.042969 22.996094 C 149.730469 24.058594 149.574219 24.777344 149.261719 25.746094 C 149.261719 25.871094 149.199219 25.996094 149.199219 26.089844 C 149.199219 26.589844 149.292969 27.027344 149.761719 27.027344 Z M 149.761719 27.027344 "/>
<path fill-rule="nonzero" fill="rgb(0%, 0%, 0%)" fill-opacity="1" d="M 161.957031 23.589844 L 161.957031 22.746094 L 154.519531 22.746094 L 154.519531 23.589844 Z M 161.957031 23.589844 "/>
<path fill-rule="nonzero" fill="rgb(0%, 0%, 0%)" fill-opacity="1" d="M 170.789062 24.246094 L 170.289062 24.246094 C 170.257812 24.589844 170.101562 25.433594 169.914062 25.589844 C 169.789062 25.652344 168.664062 25.652344 168.476562 25.652344 L 165.789062 25.652344 C 167.320312 24.308594 167.820312 23.902344 168.695312 23.214844 C 169.789062 22.371094 170.789062 21.464844 170.789062 20.089844 C 170.789062 18.339844 169.257812 17.246094 167.382812 17.246094 C 165.570312 17.246094 164.351562 18.527344 164.351562 19.839844 C 164.351562 20.589844 164.976562 20.683594 165.132812 20.683594 C 165.476562 20.683594 165.914062 20.433594 165.914062 19.902344 C 165.914062 19.652344 165.789062 19.121094 165.039062 19.121094 C 165.507812 18.089844 166.476562 17.777344 167.164062 17.777344 C 168.632812 17.777344 169.382812 18.902344 169.382812 20.089844 C 169.382812 21.339844 168.476562 22.339844 168.007812 22.871094 L 164.507812 26.339844 C 164.351562 26.464844 164.351562 26.496094 164.351562 26.902344 L 170.351562 26.902344 Z M 170.789062 24.246094 "/>
<path fill-rule="nonzero" fill="rgb(0%, 0%, 0%)" fill-opacity="1" d="M 283.09375 11.976562 L 283.53125 11.320312 L 280.9375 21.226562 C 280.8125 21.695312 280.71875 22.039062 280.5625 22.320312 C 280.40625 22.789062 280 23.289062 279.5625 23.476562 C 279.34375 23.570312 279.03125 23.632812 278.71875 23.632812 L 278.625 23.914062 L 284.375 23.914062 L 284.46875 23.632812 C 283.84375 23.632812 283.34375 23.570312 283.09375 23.382812 C 282.8125 23.164062 282.75 22.726562 282.75 22.320312 C 282.75 22.007812 282.8125 21.570312 282.96875 21.039062 L 284.9375 13.570312 C 285.09375 12.945312 285.21875 12.445312 285.34375 12.070312 C 285.5625 11.476562 286 10.820312 286.4375 10.507812 C 286.65625 10.382812 286.9375 10.351562 287.28125 10.351562 L 287.375 10.070312 L 283.78125 10.070312 L 277.09375 20.789062 L 276.8125 20.789062 L 275.53125 10.070312 L 271.25 10.070312 L 271.15625 10.351562 C 271.78125 10.351562 272.1875 10.351562 272.40625 10.476562 C 272.6875 10.601562 273.03125 11.101562 273.03125 11.476562 C 273.03125 11.789062 272.96875 12.289062 272.78125 12.945312 L 270.59375 21.226562 C 270.4375 21.851562 269.9375 22.539062 269.46875 22.945312 C 269.03125 23.351562 268.34375 23.632812 267.78125 23.632812 L 267.71875 23.914062 L 272.6875 23.914062 L 272.78125 23.632812 C 272.3125 23.601562 271.78125 23.507812 271.5625 23.195312 C 271.34375 22.882812 271.03125 22.351562 271.03125 21.851562 C 271.03125 21.570312 271.03125 21.289062 271.09375 21.039062 L 273.5 11.976562 L 273.625 11.539062 L 275.09375 23.914062 L 275.6875 23.914062 Z M 283.09375 11.976562 "/>
<path fill-rule="nonzero" fill="rgb(0%, 0%, 0%)" fill-opacity="1" d="M 291.121094 27.027344 C 292.402344 27.027344 293.027344 25.808594 293.402344 25.121094 L 293.183594 24.996094 C 292.871094 25.433594 292.308594 26.433594 291.871094 26.433594 C 291.652344 26.433594 291.652344 26.058594 291.652344 25.933594 C 291.652344 25.777344 291.714844 25.527344 291.839844 25.152344 C 291.933594 24.808594 292.058594 24.402344 292.246094 23.839844 C 292.464844 23.058594 292.714844 22.027344 292.714844 21.496094 C 292.714844 20.871094 292.496094 20.558594 291.839844 20.558594 C 290.746094 20.558594 289.902344 21.464844 289.339844 22.464844 L 289.308594 22.402344 C 289.402344 22.121094 289.433594 21.902344 289.433594 21.496094 C 289.433594 20.902344 289.339844 20.558594 288.746094 20.558594 C 287.402344 20.558594 287.027344 21.808594 286.652344 22.933594 L 286.964844 22.996094 C 287.121094 22.433594 287.652344 20.902344 288.308594 20.902344 C 288.433594 20.902344 288.589844 21.027344 288.589844 21.246094 C 288.589844 21.527344 288.496094 22.058594 288.402344 22.339844 C 288.214844 22.964844 288.089844 23.527344 287.839844 24.214844 L 286.964844 26.902344 L 287.933594 26.902344 L 288.777344 24.402344 C 289.089844 23.621094 289.589844 22.496094 290.089844 21.871094 C 290.402344 21.496094 290.964844 20.871094 291.464844 20.871094 C 291.652344 20.871094 291.777344 21.027344 291.777344 21.308594 C 291.777344 21.371094 291.746094 21.621094 291.746094 21.683594 C 291.652344 22.183594 291.527344 22.558594 291.402344 22.996094 C 291.089844 24.058594 290.933594 24.777344 290.621094 25.746094 C 290.621094 25.871094 290.558594 25.996094 290.558594 26.089844 C 290.558594 26.589844 290.652344 27.027344 291.121094 27.027344 Z M 291.121094 27.027344 "/>
<path fill-rule="nonzero" fill="rgb(0%, 0%, 0%)" fill-opacity="1" d="M 311.375 23.226562 L 306.9375 18.789062 L 311.375 14.351562 L 310.59375 13.539062 L 306.15625 18.007812 L 301.71875 13.539062 L 300.9375 14.351562 L 305.34375 18.789062 L 300.9375 23.226562 L 301.71875 24.007812 L 306.15625 19.570312 L 310.59375 24.007812 Z M 311.375 23.226562 "/>
<path fill-rule="nonzero" fill="rgb(0%, 0%, 0%)" fill-opacity="1" d="M 327.03125 10.351562 L 326.5 11.070312 C 326.09375 10.664062 325.65625 10.351562 325.21875 10.164062 C 324.75 9.945312 324.25 9.882812 323.6875 9.882812 C 323.09375 9.882812 322.5625 9.976562 322.03125 10.164062 C 321.53125 10.382812 321.0625 10.632812 320.6875 10.976562 C 320.3125 11.320312 320 11.726562 319.75 12.164062 C 319.53125 12.632812 319.4375 13.101562 319.4375 13.632812 C 319.4375 14.195312 319.5625 14.664062 319.8125 15.101562 C 320.09375 15.507812 320.375 15.914062 320.75 16.226562 C 321.125 16.601562 321.53125 16.945312 321.96875 17.257812 C 322.4375 17.539062 322.8125 17.882812 323.1875 18.226562 C 323.5625 18.570312 323.875 18.914062 324.125 19.320312 C 324.375 19.695312 324.5 20.132812 324.5 20.632812 C 324.5 22.226562 323.625 23.664062 321.5625 23.664062 C 319.46875 23.664062 318.4375 21.476562 318.28125 19.351562 L 317.84375 19.351562 L 317.09375 23.914062 L 317.53125 23.914062 L 318.09375 22.539062 C 319.09375 23.570312 320.21875 24.101562 321.53125 24.101562 C 322.1875 24.101562 322.78125 24.007812 323.34375 23.757812 C 323.875 23.507812 324.375 23.226562 324.78125 22.820312 C 325.21875 22.414062 325.53125 21.945312 325.75 21.414062 C 326 20.882812 326.125 20.320312 326.125 19.695312 C 326.125 19.101562 326 18.539062 325.75 18.101562 C 325.53125 17.632812 325.21875 17.226562 324.84375 16.882812 C 324.5 16.507812 324.09375 16.164062 323.65625 15.882812 C 323.21875 15.570312 322.84375 15.289062 322.46875 14.976562 C 322.09375 14.695312 321.8125 14.382812 321.5625 14.039062 C 321.3125 13.695312 321.1875 13.351562 321.1875 12.914062 C 321.1875 11.539062 321.6875 10.289062 323.75 10.289062 C 325.46875 10.289062 326.15625 12.039062 326.21875 13.851562 L 326.65625 13.851562 L 327.40625 10.351562 Z M 327.03125 10.351562 "/>
<path fill-rule="nonzero" fill="rgb(0%, 0%, 0%)" fill-opacity="1" d="M 333.351562 16.808594 C 334.632812 16.808594 335.257812 15.589844 335.632812 14.902344 L 335.414062 14.777344 C 335.101562 15.214844 334.539062 16.214844 334.101562 16.214844 C 333.882812 16.214844 333.882812 15.839844 333.882812 15.714844 C 333.882812 15.558594 333.945312 15.308594 334.070312 14.933594 C 334.164062 14.589844 334.289062 14.183594 334.476562 13.621094 C 334.695312 12.839844 334.945312 11.808594 334.945312 11.277344 C 334.945312 10.652344 334.726562 10.339844 334.070312 10.339844 C 332.976562 10.339844 332.132812 11.246094 331.570312 12.246094 L 331.539062 12.183594 C 331.632812 11.902344 331.664062 11.683594 331.664062 11.277344 C 331.664062 10.683594 331.570312 10.339844 330.976562 10.339844 C 329.632812 10.339844 329.257812 11.589844 328.882812 12.714844 L 329.195312 12.777344 C 329.351562 12.214844 329.882812 10.683594 330.539062 10.683594 C 330.664062 10.683594 330.820312 10.808594 330.820312 11.027344 C 330.820312 11.308594 330.726562 11.839844 330.632812 12.121094 C 330.445312 12.746094 330.320312 13.308594 330.070312 13.996094 L 329.195312 16.683594 L 330.164062 16.683594 L 331.007812 14.183594 C 331.320312 13.402344 331.820312 12.277344 332.320312 11.652344 C 332.632812 11.277344 333.195312 10.652344 333.695312 10.652344 C 333.882812 10.652344 334.007812 10.808594 334.007812 11.089844 C 334.007812 11.152344 333.976562 11.402344 333.976562 11.464844 C 333.882812 11.964844 333.757812 12.339844 333.632812 12.777344 C 333.320312 13.839844 333.164062 14.558594 332.851562 15.527344 C 332.851562 15.652344 332.789062 15.777344 332.789062 15.871094 C 332.789062 16.371094 332.882812 16.808594 333.351562 16.808594 Z M 333.351562 16.808594 "/>
<path fill-rule="nonzero" fill="rgb(0%, 0%, 0%)" fill-opacity="1" d="M 345.550781 13.371094 L 345.550781 12.527344 L 338.113281 12.527344 L 338.113281 13.371094 Z M 345.550781 13.371094 "/>
<path fill-rule="nonzero" fill="rgb(0%, 0%, 0%)" fill-opacity="1" d="M 353.914062 16.683594 L 353.914062 16.152344 L 353.351562 16.152344 C 351.914062 16.152344 351.914062 15.964844 351.914062 15.496094 L 351.914062 7.433594 C 351.914062 7.058594 351.882812 7.027344 351.476562 7.027344 C 350.539062 7.964844 349.226562 7.964844 348.632812 7.964844 L 348.632812 8.496094 C 348.976562 8.496094 349.945312 8.496094 350.726562 8.089844 L 350.726562 15.496094 C 350.726562 15.964844 350.726562 16.152344 349.289062 16.152344 L 348.726562 16.152344 L 348.726562 16.683594 L 351.320312 16.621094 Z M 353.914062 16.683594 "/>
<path fill-rule="nonzero" fill="rgb(0%, 0%, 0%)" fill-opacity="1" d="M 436.21875 11.976562 L 436.65625 11.320312 L 434.0625 21.226562 C 433.9375 21.695312 433.84375 22.039062 433.6875 22.320312 C 433.53125 22.789062 433.125 23.289062 432.6875 23.476562 C 432.46875 23.570312 432.15625 23.632812 431.84375 23.632812 L 431.75 23.914062 L 437.5 23.914062 L 437.59375 23.632812 C 436.96875 23.632812 436.46875 23.570312 436.21875 23.382812 C 435.9375 23.164062 435.875 22.726562 435.875 22.320312 C 435.875 22.007812 435.9375 21.570312 436.09375 21.039062 L 438.0625 13.570312 C 438.21875 12.945312 438.34375 12.445312 438.46875 12.070312 C 438.6875 11.476562 439.125 10.820312 439.5625 10.507812 C 439.78125 10.382812 440.0625 10.351562 440.40625 10.351562 L 440.5 10.070312 L 436.90625 10.070312 L 430.21875 20.789062 L 429.9375 20.789062 L 428.65625 10.070312 L 424.375 10.070312 L 424.28125 10.351562 C 424.90625 10.351562 425.3125 10.351562 425.53125 10.476562 C 425.8125 10.601562 426.15625 11.101562 426.15625 11.476562 C 426.15625 11.789062 426.09375 12.289062 425.90625 12.945312 L 423.71875 21.226562 C 423.5625 21.851562 423.0625 22.539062 422.59375 22.945312 C 422.15625 23.351562 421.46875 23.632812 420.90625 23.632812 L 420.84375 23.914062 L 425.8125 23.914062 L 425.90625 23.632812 C 425.4375 23.601562 424.90625 23.507812 424.6875 23.195312 C 424.46875 22.882812 424.15625 22.351562 424.15625 21.851562 C 424.15625 21.570312 424.15625 21.289062 424.21875 21.039062 L 426.625 11.976562 L 426.75 11.539062 L 428.21875 23.914062 L 428.8125 23.914062 Z M 436.21875 11.976562 "/>
<path fill-rule="nonzero" fill="rgb(0%, 0%, 0%)" fill-opacity="1" d="M 444.25 27.027344 C 445.53125 27.027344 446.15625 25.808594 446.53125 25.121094 L 446.3125 24.996094 C 446 25.433594 445.4375 26.433594 445 26.433594 C 444.78125 26.433594 444.78125 26.058594 444.78125 25.933594 C 444.78125 25.777344 444.84375 25.527344 444.96875 25.152344 C 445.0625 24.808594 445.1875 24.402344 445.375 23.839844 C 445.59375 23.058594 445.84375 22.027344 445.84375 21.496094 C 445.84375 20.871094 445.625 20.558594 444.96875 20.558594 C 443.875 20.558594 443.03125 21.464844 442.46875 22.464844 L 442.4375 22.402344 C 442.53125 22.121094 442.5625 21.902344 442.5625 21.496094 C 442.5625 20.902344 442.46875 20.558594 441.875 20.558594 C 440.53125 20.558594 440.15625 21.808594 439.78125 22.933594 L 440.09375 22.996094 C 440.25 22.433594 440.78125 20.902344 441.4375 20.902344 C 441.5625 20.902344 441.71875 21.027344 441.71875 21.246094 C 441.71875 21.527344 441.625 22.058594 441.53125 22.339844 C 441.34375 22.964844 441.21875 23.527344 440.96875 24.214844 L 440.09375 26.902344 L 441.0625 26.902344 L 441.90625 24.402344 C 442.21875 23.621094 442.71875 22.496094 443.21875 21.871094 C 443.53125 21.496094 444.09375 20.871094 444.59375 20.871094 C 444.78125 20.871094 444.90625 21.027344 444.90625 21.308594 C 444.90625 21.371094 444.875 21.621094 444.875 21.683594 C 444.78125 22.183594 444.65625 22.558594 444.53125 22.996094 C 444.21875 24.058594 444.0625 24.777344 443.75 25.746094 C 443.75 25.871094 443.6875 25.996094 443.6875 26.089844 C 443.6875 26.589844 443.78125 27.027344 444.25 27.027344 Z M 444.25 27.027344 "/>
<path fill-rule="nonzero" fill="rgb(0%, 0%, 0%)" fill-opacity="1" d="M 12.378906 85.453125 C 12.378906 84.828125 11.878906 84.296875 11.285156 84.296875 C 10.691406 84.296875 10.191406 84.796875 10.191406 85.453125 C 10.191406 86.203125 10.847656 86.515625 11.285156 86.515625 C 11.691406 86.515625 12.378906 86.171875 12.378906 85.453125 Z M 12.378906 85.453125 "/>
<path fill-rule="nonzero" fill="rgb(0%, 0%, 0%)" fill-opacity="1" d="M 21.066406 85.453125 C 21.066406 84.828125 20.566406 84.296875 19.972656 84.296875 C 19.378906 84.296875 18.878906 84.796875 18.878906 85.453125 C 18.878906 86.203125 19.535156 86.515625 19.972656 86.515625 C 20.378906 86.515625 21.066406 86.171875 21.066406 85.453125 Z M 21.066406 85.453125 "/>
<path fill-rule="nonzero" fill="rgb(0%, 0%, 0%)" fill-opacity="1" d="M 29.773438 85.453125 C 29.773438 84.828125 29.273438 84.296875 28.679688 84.296875 C 28.085938 84.296875 27.585938 84.796875 27.585938 85.453125 C 27.585938 86.203125 28.242188 86.515625 28.679688 86.515625 C 29.085938 86.515625 29.773438 86.171875 29.773438 85.453125 Z M 29.773438 85.453125 "/>
<path fill-rule="nonzero" fill="rgb(0%, 0%, 0%)" fill-opacity="1" d="M 143.230469 90.546875 L 143.230469 77.359375 L 140.324219 77.359375 L 136.136719 89.015625 L 136.074219 89.015625 L 132.074219 77.359375 L 128.980469 77.359375 L 128.980469 90.546875 L 129.855469 90.546875 L 129.855469 81.203125 L 129.886719 81.203125 L 133.136719 90.546875 L 136.511719 90.546875 L 139.886719 81.140625 L 139.917969 81.140625 L 139.917969 90.546875 Z M 142.355469 89.671875 L 140.792969 89.671875 L 140.792969 78.234375 L 142.355469 78.234375 Z M 135.417969 89.671875 L 133.761719 89.671875 L 130.199219 79.453125 L 129.792969 78.234375 L 131.386719 78.234375 Z M 135.417969 89.671875 "/>
<path fill-rule="nonzero" fill="rgb(0%, 0%, 0%)" fill-opacity="1" d="M 149.011719 93.660156 C 150.292969 93.660156 150.917969 92.441406 151.292969 91.753906 L 151.074219 91.628906 C 150.761719 92.066406 150.199219 93.066406 149.761719 93.066406 C 149.542969 93.066406 149.542969 92.691406 149.542969 92.566406 C 149.542969 92.410156 149.605469 92.160156 149.730469 91.785156 C 149.824219 91.441406 149.949219 91.035156 150.136719 90.472656 C 150.355469 89.691406 150.605469 88.660156 150.605469 88.128906 C 150.605469 87.503906 150.386719 87.191406 149.730469 87.191406 C 148.636719 87.191406 147.792969 88.097656 147.230469 89.097656 L 147.199219 89.035156 C 147.292969 88.753906 147.324219 88.535156 147.324219 88.128906 C 147.324219 87.535156 147.230469 87.191406 146.636719 87.191406 C 145.292969 87.191406 144.917969 88.441406 144.542969 89.566406 L 144.855469 89.628906 C 145.011719 89.066406 145.542969 87.535156 146.199219 87.535156 C 146.324219 87.535156 146.480469 87.660156 146.480469 87.878906 C 146.480469 88.160156 146.386719 88.691406 146.292969 88.972656 C 146.105469 89.597656 145.980469 90.160156 145.730469 90.847656 L 144.855469 93.535156 L 145.824219 93.535156 L 146.667969 91.035156 C 146.980469 90.253906 147.480469 89.128906 147.980469 88.503906 C 148.292969 88.128906 148.855469 87.503906 149.355469 87.503906 C 149.542969 87.503906 149.667969 87.660156 149.667969 87.941406 C 149.667969 88.003906 149.636719 88.253906 149.636719 88.316406 C 149.542969 88.816406 149.417969 89.191406 149.292969 89.628906 C 148.980469 90.691406 148.824219 91.410156 148.511719 92.378906 C 148.511719 92.503906 148.449219 92.628906 148.449219 92.722656 C 148.449219 93.222656 148.542969 93.660156 149.011719 93.660156 Z M 149.011719 93.660156 "/>
<path fill-rule="nonzero" fill="rgb(0%, 0%, 0%)" fill-opacity="1" d="M 161.210938 90.222656 L 161.210938 89.378906 L 153.773438 89.378906 L 153.773438 90.222656 Z M 161.210938 90.222656 "/>
<path fill-rule="nonzero" fill="rgb(0%, 0%, 0%)" fill-opacity="1" d="M 170.042969 90.878906 L 169.542969 90.878906 C 169.511719 91.222656 169.355469 92.066406 169.167969 92.222656 C 169.042969 92.285156 167.917969 92.285156 167.730469 92.285156 L 165.042969 92.285156 C 166.574219 90.941406 167.074219 90.535156 167.949219 89.847656 C 169.042969 89.003906 170.042969 88.097656 170.042969 86.722656 C 170.042969 84.972656 168.511719 83.878906 166.636719 83.878906 C 164.824219 83.878906 163.605469 85.160156 163.605469 86.472656 C 163.605469 87.222656 164.230469 87.316406 164.386719 87.316406 C 164.730469 87.316406 165.167969 87.066406 165.167969 86.535156 C 165.167969 86.285156 165.042969 85.753906 164.292969 85.753906 C 164.761719 84.722656 165.730469 84.410156 166.417969 84.410156 C 167.886719 84.410156 168.636719 85.535156 168.636719 86.722656 C 168.636719 87.972656 167.730469 88.972656 167.261719 89.503906 L 163.761719 92.972656 C 163.605469 93.097656 163.605469 93.128906 163.605469 93.535156 L 169.605469 93.535156 Z M 170.042969 90.878906 "/>
<path fill-rule="nonzero" fill="rgb(0%, 0%, 0%)" fill-opacity="1" d="M 305.707031 90.546875 L 305.707031 77.359375 L 302.800781 77.359375 L 298.613281 89.015625 L 298.550781 89.015625 L 294.550781 77.359375 L 291.457031 77.359375 L 291.457031 90.546875 L 292.332031 90.546875 L 292.332031 81.203125 L 292.363281 81.203125 L 295.613281 90.546875 L 298.988281 90.546875 L 302.363281 81.140625 L 302.394531 81.140625 L 302.394531 90.546875 Z M 304.832031 89.671875 L 303.269531 89.671875 L 303.269531 78.234375 L 304.832031 78.234375 Z M 297.894531 89.671875 L 296.238281 89.671875 L 292.675781 79.453125 L 292.269531 78.234375 L 293.863281 78.234375 Z M 297.894531 89.671875 "/>
<path fill-rule="nonzero" fill="rgb(0%, 0%, 0%)" fill-opacity="1" d="M 311.488281 93.660156 C 312.769531 93.660156 313.394531 92.441406 313.769531 91.753906 L 313.550781 91.628906 C 313.238281 92.066406 312.675781 93.066406 312.238281 93.066406 C 312.019531 93.066406 312.019531 92.691406 312.019531 92.566406 C 312.019531 92.410156 312.082031 92.160156 312.207031 91.785156 C 312.300781 91.441406 312.425781 91.035156 312.613281 90.472656 C 312.832031 89.691406 313.082031 88.660156 313.082031 88.128906 C 313.082031 87.503906 312.863281 87.191406 312.207031 87.191406 C 311.113281 87.191406 310.269531 88.097656 309.707031 89.097656 L 309.675781 89.035156 C 309.769531 88.753906 309.800781 88.535156 309.800781 88.128906 C 309.800781 87.535156 309.707031 87.191406 309.113281 87.191406 C 307.769531 87.191406 307.394531 88.441406 307.019531 89.566406 L 307.332031 89.628906 C 307.488281 89.066406 308.019531 87.535156 308.675781 87.535156 C 308.800781 87.535156 308.957031 87.660156 308.957031 87.878906 C 308.957031 88.160156 308.863281 88.691406 308.769531 88.972656 C 308.582031 89.597656 308.457031 90.160156 308.207031 90.847656 L 307.332031 93.535156 L 308.300781 93.535156 L 309.144531 91.035156 C 309.457031 90.253906 309.957031 89.128906 310.457031 88.503906 C 310.769531 88.128906 311.332031 87.503906 311.832031 87.503906 C 312.019531 87.503906 312.144531 87.660156 312.144531 87.941406 C 312.144531 88.003906 312.113281 88.253906 312.113281 88.316406 C 312.019531 88.816406 311.894531 89.191406 311.769531 89.628906 C 311.457031 90.691406 311.300781 91.410156 310.988281 92.378906 C 310.988281 92.503906 310.925781 92.628906 310.925781 92.722656 C 310.925781 93.222656 311.019531 93.660156 311.488281 93.660156 Z M 311.488281 93.660156 "/>
<path fill-rule="nonzero" fill="rgb(0%, 0%, 0%)" fill-opacity="1" d="M 323.6875 90.222656 L 323.6875 89.378906 L 316.25 89.378906 L 316.25 90.222656 Z M 323.6875 90.222656 "/>
<path fill-rule="nonzero" fill="rgb(0%, 0%, 0%)" fill-opacity="1" d="M 332.050781 93.535156 L 332.050781 93.003906 L 331.488281 93.003906 C 330.050781 93.003906 330.050781 92.816406 330.050781 92.347656 L 330.050781 84.285156 C 330.050781 83.910156 330.019531 83.878906 329.613281 83.878906 C 328.675781 84.816406 327.363281 84.816406 326.769531 84.816406 L 326.769531 85.347656 C 327.113281 85.347656 328.082031 85.347656 328.863281 84.941406 L 328.863281 92.347656 C 328.863281 92.816406 328.863281 93.003906 327.425781 93.003906 L 326.863281 93.003906 L 326.863281 93.535156 L 329.457031 93.472656 Z M 332.050781 93.535156 "/>
<path fill-rule="nonzero" fill="rgb(0%, 0%, 0%)" fill-opacity="1" d="M 437.714844 90.546875 L 437.714844 77.359375 L 434.808594 77.359375 L 430.621094 89.015625 L 430.558594 89.015625 L 426.558594 77.359375 L 423.464844 77.359375 L 423.464844 90.546875 L 424.339844 90.546875 L 424.339844 81.203125 L 424.371094 81.203125 L 427.621094 90.546875 L 430.996094 90.546875 L 434.371094 81.140625 L 434.402344 81.140625 L 434.402344 90.546875 Z M 436.839844 89.671875 L 435.277344 89.671875 L 435.277344 78.234375 L 436.839844 78.234375 Z M 429.902344 89.671875 L 428.246094 89.671875 L 424.683594 79.453125 L 424.277344 78.234375 L 425.871094 78.234375 Z M 429.902344 89.671875 "/>
<path fill-rule="nonzero" fill="rgb(0%, 0%, 0%)" fill-opacity="1" d="M 443.5 93.660156 C 444.78125 93.660156 445.40625 92.441406 445.78125 91.753906 L 445.5625 91.628906 C 445.25 92.066406 444.6875 93.066406 444.25 93.066406 C 444.03125 93.066406 444.03125 92.691406 444.03125 92.566406 C 444.03125 92.410156 444.09375 92.160156 444.21875 91.785156 C 444.3125 91.441406 444.4375 91.035156 444.625 90.472656 C 444.84375 89.691406 445.09375 88.660156 445.09375 88.128906 C 445.09375 87.503906 444.875 87.191406 444.21875 87.191406 C 443.125 87.191406 442.28125 88.097656 441.71875 89.097656 L 441.6875 89.035156 C 441.78125 88.753906 441.8125 88.535156 441.8125 88.128906 C 441.8125 87.535156 441.71875 87.191406 441.125 87.191406 C 439.78125 87.191406 439.40625 88.441406 439.03125 89.566406 L 439.34375 89.628906 C 439.5 89.066406 440.03125 87.535156 440.6875 87.535156 C 440.8125 87.535156 440.96875 87.660156 440.96875 87.878906 C 440.96875 88.160156 440.875 88.691406 440.78125 88.972656 C 440.59375 89.597656 440.46875 90.160156 440.21875 90.847656 L 439.34375 93.535156 L 440.3125 93.535156 L 441.15625 91.035156 C 441.46875 90.253906 441.96875 89.128906 442.46875 88.503906 C 442.78125 88.128906 443.34375 87.503906 443.84375 87.503906 C 444.03125 87.503906 444.15625 87.660156 444.15625 87.941406 C 444.15625 88.003906 444.125 88.253906 444.125 88.316406 C 444.03125 88.816406 443.90625 89.191406 443.78125 89.628906 C 443.46875 90.691406 443.3125 91.410156 443 92.378906 C 443 92.503906 442.9375 92.628906 442.9375 92.722656 C 442.9375 93.222656 443.03125 93.660156 443.5 93.660156 Z M 443.5 93.660156 "/>
<path fill-rule="nonzero" fill="rgb(0%, 0%, 0%)" fill-opacity="1" d="M 111.269531 148.78125 L 111.707031 148.125 L 109.113281 158.03125 C 108.988281 158.5 108.894531 158.84375 108.738281 159.125 C 108.582031 159.59375 108.175781 160.09375 107.738281 160.28125 C 107.519531 160.375 107.207031 160.4375 106.894531 160.4375 L 106.800781 160.71875 L 112.550781 160.71875 L 112.644531 160.4375 C 112.019531 160.4375 111.519531 160.375 111.269531 160.1875 C 110.988281 159.96875 110.925781 159.53125 110.925781 159.125 C 110.925781 158.8125 110.988281 158.375 111.144531 157.84375 L 113.113281 150.375 C 113.269531 149.75 113.394531 149.25 113.519531 148.875 C 113.738281 148.28125 114.175781 147.625 114.613281 147.3125 C 114.832031 147.1875 115.113281 147.15625 115.457031 147.15625 L 115.550781 146.875 L 111.957031 146.875 L 105.269531 157.59375 L 104.988281 157.59375 L 103.707031 146.875 L 99.425781 146.875 L 99.332031 147.15625 C 99.957031 147.15625 100.363281 147.15625 100.582031 147.28125 C 100.863281 147.40625 101.207031 147.90625 101.207031 148.28125 C 101.207031 148.59375 101.144531 149.09375 100.957031 149.75 L 98.769531 158.03125 C 98.613281 158.65625 98.113281 159.34375 97.644531 159.75 C 97.207031 160.15625 96.519531 160.4375 95.957031 160.4375 L 95.894531 160.71875 L 100.863281 160.71875 L 100.957031 160.4375 C 100.488281 160.40625 99.957031 160.3125 99.738281 160 C 99.519531 159.6875 99.207031 159.15625 99.207031 158.65625 C 99.207031 158.375 99.207031 158.09375 99.269531 157.84375 L 101.675781 148.78125 L 101.800781 148.34375 L 103.269531 160.71875 L 103.863281 160.71875 Z M 111.269531 148.78125 "/>
<path fill-rule="nonzero" fill="rgb(0%, 0%, 0%)" fill-opacity="1" d="M 119.296875 163.832031 C 120.578125 163.832031 121.203125 162.613281 121.578125 161.925781 L 121.359375 161.800781 C 121.046875 162.238281 120.484375 163.238281 120.046875 163.238281 C 119.828125 163.238281 119.828125 162.863281 119.828125 162.738281 C 119.828125 162.582031 119.890625 162.332031 120.015625 161.957031 C 120.109375 161.613281 120.234375 161.207031 120.421875 160.644531 C 120.640625 159.863281 120.890625 158.832031 120.890625 158.300781 C 120.890625 157.675781 120.671875 157.363281 120.015625 157.363281 C 118.921875 157.363281 118.078125 158.269531 117.515625 159.269531 L 117.484375 159.207031 C 117.578125 158.925781 117.609375 158.707031 117.609375 158.300781 C 117.609375 157.707031 117.515625 157.363281 116.921875 157.363281 C 115.578125 157.363281 115.203125 158.613281 114.828125 159.738281 L 115.140625 159.800781 C 115.296875 159.238281 115.828125 157.707031 116.484375 157.707031 C 116.609375 157.707031 116.765625 157.832031 116.765625 158.050781 C 116.765625 158.332031 116.671875 158.863281 116.578125 159.144531 C 116.390625 159.769531 116.265625 160.332031 116.015625 161.019531 L 115.140625 163.707031 L 116.109375 163.707031 L 116.953125 161.207031 C 117.265625 160.425781 117.765625 159.300781 118.265625 158.675781 C 118.578125 158.300781 119.140625 157.675781 119.640625 157.675781 C 119.828125 157.675781 119.953125 157.832031 119.953125 158.113281 C 119.953125 158.175781 119.921875 158.425781 119.921875 158.488281 C 119.828125 158.988281 119.703125 159.363281 119.578125 159.800781 C 119.265625 160.863281 119.109375 161.582031 118.796875 162.550781 C 118.796875 162.675781 118.734375 162.800781 118.734375 162.894531 C 118.734375 163.394531 118.828125 163.832031 119.296875 163.832031 Z M 119.296875 163.832031 "/>
<path fill-rule="nonzero" fill="rgb(0%, 0%, 0%)" fill-opacity="1" d="M 131.492188 160.394531 L 131.492188 159.550781 L 124.054688 159.550781 L 124.054688 160.394531 Z M 131.492188 160.394531 "/>
<path fill-rule="nonzero" fill="rgb(0%, 0%, 0%)" fill-opacity="1" d="M 139.855469 163.707031 L 139.855469 163.175781 L 139.292969 163.175781 C 137.855469 163.175781 137.855469 162.988281 137.855469 162.519531 L 137.855469 154.457031 C 137.855469 154.082031 137.824219 154.050781 137.417969 154.050781 C 136.480469 154.988281 135.167969 154.988281 134.574219 154.988281 L 134.574219 155.519531 C 134.917969 155.519531 135.886719 155.519531 136.667969 155.113281 L 136.667969 162.519531 C 136.667969 162.988281 136.667969 163.175781 135.230469 163.175781 L 134.667969 163.175781 L 134.667969 163.707031 L 137.261719 163.644531 Z M 139.855469 163.707031 "/>
<path fill-rule="nonzero" fill="rgb(0%, 0%, 0%)" fill-opacity="1" d="M 158.25 160.03125 L 153.8125 155.59375 L 158.25 151.15625 L 157.46875 150.34375 L 153.03125 154.8125 L 148.59375 150.34375 L 147.8125 151.15625 L 152.21875 155.59375 L 147.8125 160.03125 L 148.59375 160.8125 L 153.03125 156.375 L 157.46875 160.8125 Z M 158.25 160.03125 "/>
<path fill-rule="nonzero" fill="rgb(0%, 0%, 0%)" fill-opacity="1" d="M 173.90625 147.15625 L 173.375 147.875 C 172.96875 147.46875 172.53125 147.15625 172.09375 146.96875 C 171.625 146.75 171.125 146.6875 170.5625 146.6875 C 169.96875 146.6875 169.4375 146.78125 168.90625 146.96875 C 168.40625 147.1875 167.9375 147.4375 167.5625 147.78125 C 167.1875 148.125 166.875 148.53125 166.625 148.96875 C 166.40625 149.4375 166.3125 149.90625 166.3125 150.4375 C 166.3125 151 166.4375 151.46875 166.6875 151.90625 C 166.96875 152.3125 167.25 152.71875 167.625 153.03125 C 168 153.40625 168.40625 153.75 168.84375 154.0625 C 169.3125 154.34375 169.6875 154.6875 170.0625 155.03125 C 170.4375 155.375 170.75 155.71875 171 156.125 C 171.25 156.5 171.375 156.9375 171.375 157.4375 C 171.375 159.03125 170.5 160.46875 168.4375 160.46875 C 166.34375 160.46875 165.3125 158.28125 165.15625 156.15625 L 164.71875 156.15625 L 163.96875 160.71875 L 164.40625 160.71875 L 164.96875 159.34375 C 165.96875 160.375 167.09375 160.90625 168.40625 160.90625 C 169.0625 160.90625 169.65625 160.8125 170.21875 160.5625 C 170.75 160.3125 171.25 160.03125 171.65625 159.625 C 172.09375 159.21875 172.40625 158.75 172.625 158.21875 C 172.875 157.6875 173 157.125 173 156.5 C 173 155.90625 172.875 155.34375 172.625 154.90625 C 172.40625 154.4375 172.09375 154.03125 171.71875 153.6875 C 171.375 153.3125 170.96875 152.96875 170.53125 152.6875 C 170.09375 152.375 169.71875 152.09375 169.34375 151.78125 C 168.96875 151.5 168.6875 151.1875 168.4375 150.84375 C 168.1875 150.5 168.0625 150.15625 168.0625 149.71875 C 168.0625 148.34375 168.5625 147.09375 170.625 147.09375 C 172.34375 147.09375 173.03125 148.84375 173.09375 150.65625 L 173.53125 150.65625 L 174.28125 147.15625 Z M 173.90625 147.15625 "/>
<path fill-rule="nonzero" fill="rgb(0%, 0%, 0%)" fill-opacity="1" d="M 180.226562 153.609375 C 181.507812 153.609375 182.132812 152.390625 182.507812 151.703125 L 182.289062 151.578125 C 181.976562 152.015625 181.414062 153.015625 180.976562 153.015625 C 180.757812 153.015625 180.757812 152.640625 180.757812 152.515625 C 180.757812 152.359375 180.820312 152.109375 180.945312 151.734375 C 181.039062 151.390625 181.164062 150.984375 181.351562 150.421875 C 181.570312 149.640625 181.820312 148.609375 181.820312 148.078125 C 181.820312 147.453125 181.601562 147.140625 180.945312 147.140625 C 179.851562 147.140625 179.007812 148.046875 178.445312 149.046875 L 178.414062 148.984375 C 178.507812 148.703125 178.539062 148.484375 178.539062 148.078125 C 178.539062 147.484375 178.445312 147.140625 177.851562 147.140625 C 176.507812 147.140625 176.132812 148.390625 175.757812 149.515625 L 176.070312 149.578125 C 176.226562 149.015625 176.757812 147.484375 177.414062 147.484375 C 177.539062 147.484375 177.695312 147.609375 177.695312 147.828125 C 177.695312 148.109375 177.601562 148.640625 177.507812 148.921875 C 177.320312 149.546875 177.195312 150.109375 176.945312 150.796875 L 176.070312 153.484375 L 177.039062 153.484375 L 177.882812 150.984375 C 178.195312 150.203125 178.695312 149.078125 179.195312 148.453125 C 179.507812 148.078125 180.070312 147.453125 180.570312 147.453125 C 180.757812 147.453125 180.882812 147.609375 180.882812 147.890625 C 180.882812 147.953125 180.851562 148.203125 180.851562 148.265625 C 180.757812 148.765625 180.632812 149.140625 180.507812 149.578125 C 180.195312 150.640625 180.039062 151.359375 179.726562 152.328125 C 179.726562 152.453125 179.664062 152.578125 179.664062 152.671875 C 179.664062 153.171875 179.757812 153.609375 180.226562 153.609375 Z M 180.226562 153.609375 "/>
<path fill-rule="nonzero" fill="rgb(0%, 0%, 0%)" fill-opacity="1" d="M 192.421875 150.171875 L 192.421875 149.328125 L 184.984375 149.328125 L 184.984375 150.171875 Z M 192.421875 150.171875 "/>
<path fill-rule="nonzero" fill="rgb(0%, 0%, 0%)" fill-opacity="1" d="M 201.253906 150.828125 L 200.753906 150.828125 C 200.722656 151.171875 200.566406 152.015625 200.378906 152.171875 C 200.253906 152.234375 199.128906 152.234375 198.941406 152.234375 L 196.253906 152.234375 C 197.785156 150.890625 198.285156 150.484375 199.160156 149.796875 C 200.253906 148.953125 201.253906 148.046875 201.253906 146.671875 C 201.253906 144.921875 199.722656 143.828125 197.847656 143.828125 C 196.035156 143.828125 194.816406 145.109375 194.816406 146.421875 C 194.816406 147.171875 195.441406 147.265625 195.597656 147.265625 C 195.941406 147.265625 196.378906 147.015625 196.378906 146.484375 C 196.378906 146.234375 196.253906 145.703125 195.503906 145.703125 C 195.972656 144.671875 196.941406 144.359375 197.628906 144.359375 C 199.097656 144.359375 199.847656 145.484375 199.847656 146.671875 C 199.847656 147.921875 198.941406 148.921875 198.472656 149.453125 L 194.972656 152.921875 C 194.816406 153.046875 194.816406 153.078125 194.816406 153.484375 L 200.816406 153.484375 Z M 201.253906 150.828125 "/>
<path fill-rule="nonzero" fill="rgb(0%, 0%, 0%)" fill-opacity="1" d="M 304.207031 148.78125 L 304.644531 148.125 L 302.050781 158.03125 C 301.925781 158.5 301.832031 158.84375 301.675781 159.125 C 301.519531 159.59375 301.113281 160.09375 300.675781 160.28125 C 300.457031 160.375 300.144531 160.4375 299.832031 160.4375 L 299.738281 160.71875 L 305.488281 160.71875 L 305.582031 160.4375 C 304.957031 160.4375 304.457031 160.375 304.207031 160.1875 C 303.925781 159.96875 303.863281 159.53125 303.863281 159.125 C 303.863281 158.8125 303.925781 158.375 304.082031 157.84375 L 306.050781 150.375 C 306.207031 149.75 306.332031 149.25 306.457031 148.875 C 306.675781 148.28125 307.113281 147.625 307.550781 147.3125 C 307.769531 147.1875 308.050781 147.15625 308.394531 147.15625 L 308.488281 146.875 L 304.894531 146.875 L 298.207031 157.59375 L 297.925781 157.59375 L 296.644531 146.875 L 292.363281 146.875 L 292.269531 147.15625 C 292.894531 147.15625 293.300781 147.15625 293.519531 147.28125 C 293.800781 147.40625 294.144531 147.90625 294.144531 148.28125 C 294.144531 148.59375 294.082031 149.09375 293.894531 149.75 L 291.707031 158.03125 C 291.550781 158.65625 291.050781 159.34375 290.582031 159.75 C 290.144531 160.15625 289.457031 160.4375 288.894531 160.4375 L 288.832031 160.71875 L 293.800781 160.71875 L 293.894531 160.4375 C 293.425781 160.40625 292.894531 160.3125 292.675781 160 C 292.457031 159.6875 292.144531 159.15625 292.144531 158.65625 C 292.144531 158.375 292.144531 158.09375 292.207031 157.84375 L 294.613281 148.78125 L 294.738281 148.34375 L 296.207031 160.71875 L 296.800781 160.71875 Z M 304.207031 148.78125 "/>
<path fill-rule="nonzero" fill="rgb(0%, 0%, 0%)" fill-opacity="1" d="M 312.234375 163.832031 C 313.515625 163.832031 314.140625 162.613281 314.515625 161.925781 L 314.296875 161.800781 C 313.984375 162.238281 313.421875 163.238281 312.984375 163.238281 C 312.765625 163.238281 312.765625 162.863281 312.765625 162.738281 C 312.765625 162.582031 312.828125 162.332031 312.953125 161.957031 C 313.046875 161.613281 313.171875 161.207031 313.359375 160.644531 C 313.578125 159.863281 313.828125 158.832031 313.828125 158.300781 C 313.828125 157.675781 313.609375 157.363281 312.953125 157.363281 C 311.859375 157.363281 311.015625 158.269531 310.453125 159.269531 L 310.421875 159.207031 C 310.515625 158.925781 310.546875 158.707031 310.546875 158.300781 C 310.546875 157.707031 310.453125 157.363281 309.859375 157.363281 C 308.515625 157.363281 308.140625 158.613281 307.765625 159.738281 L 308.078125 159.800781 C 308.234375 159.238281 308.765625 157.707031 309.421875 157.707031 C 309.546875 157.707031 309.703125 157.832031 309.703125 158.050781 C 309.703125 158.332031 309.609375 158.863281 309.515625 159.144531 C 309.328125 159.769531 309.203125 160.332031 308.953125 161.019531 L 308.078125 163.707031 L 309.046875 163.707031 L 309.890625 161.207031 C 310.203125 160.425781 310.703125 159.300781 311.203125 158.675781 C 311.515625 158.300781 312.078125 157.675781 312.578125 157.675781 C 312.765625 157.675781 312.890625 157.832031 312.890625 158.113281 C 312.890625 158.175781 312.859375 158.425781 312.859375 158.488281 C 312.765625 158.988281 312.640625 159.363281 312.515625 159.800781 C 312.203125 160.863281 312.046875 161.582031 311.734375 162.550781 C 311.734375 162.675781 311.671875 162.800781 311.671875 162.894531 C 311.671875 163.394531 311.765625 163.832031 312.234375 163.832031 Z M 312.234375 163.832031 "/>
<path fill-rule="nonzero" fill="rgb(0%, 0%, 0%)" fill-opacity="1" d="M 324.433594 160.394531 L 324.433594 159.550781 L 316.996094 159.550781 L 316.996094 160.394531 Z M 324.433594 160.394531 "/>
<path fill-rule="nonzero" fill="rgb(0%, 0%, 0%)" fill-opacity="1" d="M 332.796875 163.707031 L 332.796875 163.175781 L 332.234375 163.175781 C 330.796875 163.175781 330.796875 162.988281 330.796875 162.519531 L 330.796875 154.457031 C 330.796875 154.082031 330.765625 154.050781 330.359375 154.050781 C 329.421875 154.988281 328.109375 154.988281 327.515625 154.988281 L 327.515625 155.519531 C 327.859375 155.519531 328.828125 155.519531 329.609375 155.113281 L 329.609375 162.519531 C 329.609375 162.988281 329.609375 163.175781 328.171875 163.175781 L 327.609375 163.175781 L 327.609375 163.707031 L 330.203125 163.644531 Z M 332.796875 163.707031 "/>
<path fill="none" stroke-width="0.5579" stroke-linecap="butt" stroke-linejoin="miter" stroke="rgb(0%, 0%, 0%)" stroke-opacity="1" stroke-miterlimit="10" d="M -39.389282 -25.426033 L -39.389282 -8.449471 " transform="matrix(2, 0, 0, -2, 228.552002, 85.561996)"/>
<path fill="none" stroke-width="0.5579" stroke-linecap="round" stroke-linejoin="round" stroke="rgb(0%, 0%, 0%)" stroke-opacity="1" stroke-miterlimit="10" d="M -2.900261 3.345703 C -2.372917 1.337891 -1.189323 0.388672 -0.00182343 0.00195312 C -1.189323 -0.388672 -2.372917 -1.337891 -2.900261 -3.345703 " transform="matrix(0, -2, -2, 0, 149.777344, 101.902603)"/>
<path fill-rule="nonzero" fill="rgb(0%, 0%, 0%)" fill-opacity="1" d="M 123.886719 116.574219 C 123.886719 114.480469 123.230469 112.761719 121.667969 112.761719 C 120.449219 112.761719 119.136719 113.917969 119.136719 114.574219 C 119.136719 115.074219 119.511719 115.261719 119.792969 115.261719 C 120.105469 115.261719 120.292969 115.011719 120.324219 114.980469 C 120.261719 114.949219 120.199219 114.792969 120.199219 114.605469 C 120.199219 114.480469 120.449219 113.199219 121.699219 113.199219 C 122.761719 113.199219 122.980469 114.542969 122.980469 115.730469 C 122.980469 116.605469 122.855469 117.417969 122.855469 117.417969 L 122.824219 117.417969 C 122.824219 117.417969 122.261719 116.511719 121.105469 116.511719 C 118.199219 116.511719 117.011719 119.324219 117.011719 120.824219 C 117.011719 122.199219 117.792969 123.042969 119.417969 123.042969 C 121.917969 123.042969 123.886719 120.511719 123.886719 116.574219 Z M 122.230469 118.199219 C 122.230469 118.574219 121.855469 122.699219 119.511719 122.699219 C 118.699219 122.699219 118.324219 122.230469 118.324219 121.324219 C 118.324219 120.386719 118.917969 116.855469 121.011719 116.855469 C 121.824219 116.855469 122.230469 117.355469 122.230469 118.199219 Z M 122.230469 118.199219 "/>
<path fill-rule="nonzero" fill="rgb(0%, 0%, 0%)" fill-opacity="1" d="M 126.914062 125.097656 C 127.914062 125.097656 128.382812 124.160156 128.664062 123.660156 L 128.507812 123.566406 C 128.257812 123.910156 127.820312 124.628906 127.476562 124.628906 C 127.320312 124.628906 127.320312 124.347656 127.320312 124.253906 C 127.320312 124.160156 127.382812 123.972656 127.476562 123.691406 C 127.539062 123.410156 127.632812 123.097656 127.757812 122.691406 C 127.945312 122.097656 128.132812 121.316406 128.132812 120.941406 C 128.132812 120.472656 127.945312 120.222656 127.476562 120.222656 C 126.632812 120.222656 126.007812 120.910156 125.570312 121.660156 L 125.539062 121.628906 C 125.632812 121.378906 125.664062 121.222656 125.664062 120.910156 C 125.664062 120.472656 125.570312 120.222656 125.132812 120.222656 C 124.101562 120.222656 123.851562 121.160156 123.570312 122.003906 L 123.789062 122.066406 C 123.914062 121.628906 124.320312 120.472656 124.820312 120.472656 C 124.914062 120.472656 125.007812 120.566406 125.007812 120.722656 C 125.007812 120.941406 124.945312 121.347656 124.882812 121.566406 C 124.726562 122.035156 124.632812 122.441406 124.445312 122.972656 L 123.789062 125.003906 L 124.507812 125.003906 L 125.164062 123.128906 C 125.382812 122.535156 125.789062 121.691406 126.132812 121.191406 C 126.382812 120.910156 126.820312 120.472656 127.195312 120.472656 C 127.351562 120.472656 127.414062 120.566406 127.414062 120.785156 C 127.414062 120.847656 127.414062 121.003906 127.382812 121.066406 C 127.351562 121.441406 127.226562 121.722656 127.132812 122.066406 C 126.914062 122.847656 126.789062 123.410156 126.570312 124.128906 C 126.539062 124.222656 126.507812 124.316406 126.507812 124.378906 C 126.507812 124.753906 126.570312 125.097656 126.914062 125.097656 Z M 126.914062 125.097656 "/>
<path fill-rule="nonzero" fill="rgb(0%, 0%, 0%)" fill-opacity="1" d="M 136.105469 122.503906 L 136.105469 121.878906 L 130.511719 121.878906 L 130.511719 122.503906 Z M 136.105469 122.503906 "/>
<path fill-rule="nonzero" fill="rgb(0%, 0%, 0%)" fill-opacity="1" d="M 143.140625 122.941406 L 142.734375 122.941406 C 142.703125 123.097656 142.609375 123.816406 142.421875 123.941406 C 142.359375 124.003906 141.453125 124.003906 141.328125 124.003906 L 139.265625 124.003906 L 140.671875 122.878906 C 141.046875 122.566406 142.015625 121.878906 142.359375 121.535156 C 142.671875 121.222656 143.140625 120.660156 143.140625 119.878906 C 143.140625 118.503906 141.890625 117.722656 140.421875 117.722656 C 139.015625 117.722656 138.015625 118.628906 138.015625 119.660156 C 138.015625 120.222656 138.484375 120.285156 138.609375 120.285156 C 138.890625 120.285156 139.203125 120.097656 139.203125 119.691406 C 139.203125 119.472656 139.078125 119.128906 138.578125 119.128906 C 138.828125 118.566406 139.515625 118.128906 140.265625 118.128906 C 141.421875 118.128906 142.015625 119.003906 142.015625 119.878906 C 142.015625 120.660156 141.515625 121.472656 140.734375 122.160156 L 138.140625 124.535156 C 138.046875 124.660156 138.015625 124.660156 138.015625 125.003906 L 142.796875 125.003906 Z M 143.140625 122.941406 "/>
<path fill="none" stroke-width="0.5579" stroke-linecap="butt" stroke-linejoin="miter" stroke="rgb(0%, 0%, 0%)" stroke-opacity="1" stroke-miterlimit="10" d="M -94.10022 33.382561 L -55.91272 33.382561 " transform="matrix(2, 0, 0, -2, 228.552002, 85.561996)"/>
<path fill="none" stroke-width="0.5579" stroke-linecap="round" stroke-linejoin="round" stroke="rgb(0%, 0%, 0%)" stroke-opacity="1" stroke-miterlimit="10" d="M -2.899673 3.345879 C -2.37233 1.338066 -1.188736 0.388847 -0.00123596 -0.00177765 C -1.188736 -0.392403 -2.37233 -1.337715 -2.899673 -3.345528 " transform="matrix(2, 0, 0, -2, 117.283722, 18.79332)"/>
<path fill="none" stroke-width="0.5579" stroke-linecap="butt" stroke-linejoin="miter" stroke="rgb(0%, 0%, 0%)" stroke-opacity="1" stroke-miterlimit="10" d="M -39.389282 25.425529 L -39.389282 8.448967 " transform="matrix(2, 0, 0, -2, 228.552002, 85.561996)"/>
<path fill="none" stroke-width="0.5579" stroke-linecap="round" stroke-linejoin="round" stroke="rgb(0%, 0%, 0%)" stroke-opacity="1" stroke-miterlimit="10" d="M -2.899761 3.345703 C -2.372417 1.337891 -1.188824 0.388672 -0.0013237 -0.00195312 C -1.188824 -0.388672 -2.372417 -1.337891 -2.899761 -3.345703 " transform="matrix(0, 2, 2, 0, 149.777344, 69.221397)"/>
<path fill-rule="nonzero" fill="rgb(0%, 0%, 0%)" fill-opacity="1" d="M 160.566406 49.578125 C 160.566406 49.328125 160.378906 49.046875 160.097656 49.046875 C 159.785156 49.046875 158.566406 50.265625 158.160156 50.484375 C 158.160156 49.671875 158.566406 48.859375 158.566406 48.390625 C 158.566406 48.078125 158.378906 47.890625 158.066406 47.890625 C 157.753906 47.890625 157.597656 48.078125 157.597656 48.390625 C 157.597656 48.953125 157.941406 49.703125 157.941406 50.484375 C 157.472656 50.234375 156.347656 49.015625 156.035156 49.015625 C 155.785156 49.015625 155.535156 49.234375 155.535156 49.515625 C 155.535156 50.015625 157.253906 50.359375 157.816406 50.671875 C 157.222656 51.046875 156.066406 51.203125 155.785156 51.390625 C 155.660156 51.515625 155.535156 51.640625 155.535156 51.828125 C 155.535156 52.078125 155.722656 52.328125 156.003906 52.328125 C 156.316406 52.328125 157.503906 51.140625 157.941406 50.890625 C 157.941406 51.703125 157.535156 52.515625 157.535156 53.015625 C 157.535156 53.296875 157.753906 53.515625 158.035156 53.515625 C 158.347656 53.515625 158.503906 53.296875 158.503906 53.015625 C 158.503906 52.421875 158.160156 51.671875 158.160156 50.890625 C 158.628906 51.140625 159.785156 52.359375 160.066406 52.359375 C 160.316406 52.359375 160.566406 52.140625 160.566406 51.859375 C 160.566406 51.671875 160.441406 51.546875 160.285156 51.453125 C 159.910156 51.203125 158.910156 51.046875 158.285156 50.671875 C 158.972656 50.265625 159.878906 50.234375 160.316406 49.984375 C 160.472656 49.890625 160.566406 49.765625 160.566406 49.578125 Z M 160.566406 49.578125 "/>
<path fill-rule="nonzero" fill="rgb(0%, 0%, 0%)" fill-opacity="1" d="M 165.09375 56.695312 C 166.09375 56.695312 166.5625 55.757812 166.84375 55.257812 L 166.6875 55.164062 C 166.4375 55.507812 166 56.226562 165.65625 56.226562 C 165.5 56.226562 165.5 55.945312 165.5 55.851562 C 165.5 55.757812 165.5625 55.570312 165.65625 55.289062 C 165.71875 55.007812 165.8125 54.695312 165.9375 54.289062 C 166.125 53.695312 166.3125 52.914062 166.3125 52.539062 C 166.3125 52.070312 166.125 51.820312 165.65625 51.820312 C 164.8125 51.820312 164.1875 52.507812 163.75 53.257812 L 163.71875 53.226562 C 163.8125 52.976562 163.84375 52.820312 163.84375 52.507812 C 163.84375 52.070312 163.75 51.820312 163.3125 51.820312 C 162.28125 51.820312 162.03125 52.757812 161.75 53.601562 L 161.96875 53.664062 C 162.09375 53.226562 162.5 52.070312 163 52.070312 C 163.09375 52.070312 163.1875 52.164062 163.1875 52.320312 C 163.1875 52.539062 163.125 52.945312 163.0625 53.164062 C 162.90625 53.632812 162.8125 54.039062 162.625 54.570312 L 161.96875 56.601562 L 162.6875 56.601562 L 163.34375 54.726562 C 163.5625 54.132812 163.96875 53.289062 164.3125 52.789062 C 164.5625 52.507812 165 52.070312 165.375 52.070312 C 165.53125 52.070312 165.59375 52.164062 165.59375 52.382812 C 165.59375 52.445312 165.59375 52.601562 165.5625 52.664062 C 165.53125 53.039062 165.40625 53.320312 165.3125 53.664062 C 165.09375 54.445312 164.96875 55.007812 164.75 55.726562 C 164.71875 55.820312 164.6875 55.914062 164.6875 55.976562 C 164.6875 56.351562 164.75 56.695312 165.09375 56.695312 Z M 165.09375 56.695312 "/>
<path fill-rule="nonzero" fill="rgb(0%, 0%, 0%)" fill-opacity="1" d="M 174.285156 54.101562 L 174.285156 53.476562 L 168.691406 53.476562 L 168.691406 54.101562 Z M 174.285156 54.101562 "/>
<path fill-rule="nonzero" fill="rgb(0%, 0%, 0%)" fill-opacity="1" d="M 181.316406 54.539062 L 180.910156 54.539062 C 180.878906 54.695312 180.785156 55.414062 180.597656 55.539062 C 180.535156 55.601562 179.628906 55.601562 179.503906 55.601562 L 177.441406 55.601562 L 178.847656 54.476562 C 179.222656 54.164062 180.191406 53.476562 180.535156 53.132812 C 180.847656 52.820312 181.316406 52.257812 181.316406 51.476562 C 181.316406 50.101562 180.066406 49.320312 178.597656 49.320312 C 177.191406 49.320312 176.191406 50.226562 176.191406 51.257812 C 176.191406 51.820312 176.660156 51.882812 176.785156 51.882812 C 177.066406 51.882812 177.378906 51.695312 177.378906 51.289062 C 177.378906 51.070312 177.253906 50.726562 176.753906 50.726562 C 177.003906 50.164062 177.691406 49.726562 178.441406 49.726562 C 179.597656 49.726562 180.191406 50.601562 180.191406 51.476562 C 180.191406 52.257812 179.691406 53.070312 178.910156 53.757812 L 176.316406 56.132812 C 176.222656 56.257812 176.191406 56.257812 176.191406 56.601562 L 180.972656 56.601562 Z M 181.316406 54.539062 "/>
<path fill="none" stroke-width="0.5579" stroke-linecap="butt" stroke-linejoin="miter" stroke="rgb(0%, 0%, 0%)" stroke-opacity="1" stroke-miterlimit="10" d="M 68.376343 33.382561 L 91.333374 33.382561 " transform="matrix(2, 0, 0, -2, 228.552002, 85.561996)"/>
<path fill="none" stroke-width="0.5579" stroke-linecap="round" stroke-linejoin="round" stroke="rgb(0%, 0%, 0%)" stroke-opacity="1" stroke-miterlimit="10" d="M -2.90271 3.345879 C -2.37146 1.338066 -1.191772 0.388847 -0.000366211 -0.00177765 C -1.191772 -0.392403 -2.37146 -1.337715 -2.90271 -3.345528 " transform="matrix(2, 0, 0, -2, 411.77417, 18.79332)"/>
<path fill-rule="nonzero" fill="rgb(0%, 0%, 0%)" fill-opacity="1" d="M 385.636719 7.441406 C 385.636719 5.628906 384.136719 4.160156 382.292969 4.160156 C 381.480469 4.160156 380.636719 4.472656 380.042969 5.035156 L 380.042969 4.160156 L 377.855469 4.316406 L 377.855469 4.847656 C 378.855469 4.847656 378.949219 4.910156 378.949219 5.535156 L 378.949219 12.222656 C 378.949219 12.847656 378.792969 12.847656 377.855469 12.847656 L 377.855469 13.378906 C 377.855469 13.378906 378.886719 13.316406 379.511719 13.316406 C 380.042969 13.316406 381.042969 13.378906 381.167969 13.378906 L 381.167969 12.847656 C 380.230469 12.847656 380.074219 12.847656 380.074219 12.222656 L 380.074219 9.878906 C 380.167969 9.941406 380.855469 10.722656 382.074219 10.722656 C 383.980469 10.722656 385.636719 9.285156 385.636719 7.441406 Z M 384.292969 7.441406 C 384.292969 9.097656 383.199219 10.316406 381.980469 10.316406 C 380.699219 10.316406 380.136719 9.191406 380.074219 9.097656 L 380.074219 5.722656 C 380.511719 5.003906 381.355469 4.628906 382.136719 4.628906 C 383.355469 4.628906 384.292969 5.910156 384.292969 7.441406 Z M 384.292969 7.441406 "/>
<path fill-rule="nonzero" fill="rgb(0%, 0%, 0%)" fill-opacity="1" d="M 392.222656 5.097656 C 392.222656 4.597656 391.753906 4.160156 391.097656 4.160156 C 390.347656 4.160156 389.566406 4.597656 389.128906 5.722656 L 389.097656 5.722656 L 389.097656 4.160156 L 387.035156 4.316406 L 387.035156 4.847656 C 388.003906 4.847656 388.128906 4.941406 388.128906 5.660156 L 388.128906 9.410156 C 388.128906 10.035156 387.972656 10.035156 387.035156 10.035156 L 387.035156 10.566406 C 387.097656 10.566406 388.097656 10.503906 388.691406 10.503906 L 390.566406 10.566406 L 390.566406 10.035156 L 390.285156 10.035156 C 389.222656 10.035156 389.222656 9.878906 389.222656 9.378906 L 389.222656 7.253906 C 389.222656 6.035156 389.785156 4.566406 391.160156 4.566406 C 391.035156 4.660156 390.910156 4.847656 390.910156 5.097656 C 390.910156 5.566406 391.285156 5.753906 391.566406 5.753906 C 391.910156 5.753906 392.222656 5.535156 392.222656 5.097656 Z M 392.222656 5.097656 "/>
<path fill-rule="nonzero" fill="rgb(0%, 0%, 0%)" fill-opacity="1" d="M 398.339844 13.941406 L 398.339844 13.503906 L 397.871094 13.503906 C 396.746094 13.503906 396.746094 13.378906 396.746094 13.003906 L 396.746094 6.972656 C 396.746094 6.660156 396.714844 6.660156 396.371094 6.660156 C 395.652344 7.347656 394.527344 7.347656 394.121094 7.347656 L 394.121094 7.785156 C 394.433594 7.785156 395.152344 7.785156 395.808594 7.472656 L 395.808594 13.003906 C 395.808594 13.378906 395.808594 13.503906 394.683594 13.503906 L 394.214844 13.503906 L 394.214844 13.941406 C 394.808594 13.910156 395.652344 13.910156 396.277344 13.910156 C 396.902344 13.910156 397.746094 13.910156 398.339844 13.941406 Z M 398.339844 13.941406 "/>
<path fill="none" stroke-width="0.5579" stroke-linecap="butt" stroke-linejoin="miter" stroke="rgb(0%, 0%, 0%)" stroke-opacity="1" stroke-miterlimit="10" d="M 41.852905 25.425529 L 41.852905 8.448967 " transform="matrix(2, 0, 0, -2, 228.552002, 85.561996)"/>
<path fill="none" stroke-width="0.5579" stroke-linecap="round" stroke-linejoin="round" stroke="rgb(0%, 0%, 0%)" stroke-opacity="1" stroke-miterlimit="10" d="M -2.899761 3.348892 C -2.372417 1.337173 -1.188824 0.391861 -0.0013237 0.00123596 C -1.188824 -0.389389 -2.372417 -1.338608 -2.899761 -3.34642 " transform="matrix(0, 2, 2, 0, 312.255341, 69.221397)"/>
<path fill-rule="nonzero" fill="rgb(0%, 0%, 0%)" fill-opacity="1" d="M 286.363281 49.941406 C 286.363281 47.847656 285.707031 46.128906 284.144531 46.128906 C 282.925781 46.128906 281.613281 47.285156 281.613281 47.941406 C 281.613281 48.441406 281.988281 48.628906 282.269531 48.628906 C 282.582031 48.628906 282.769531 48.378906 282.800781 48.347656 C 282.738281 48.316406 282.675781 48.160156 282.675781 47.972656 C 282.675781 47.847656 282.925781 46.566406 284.175781 46.566406 C 285.238281 46.566406 285.457031 47.910156 285.457031 49.097656 C 285.457031 49.972656 285.332031 50.785156 285.332031 50.785156 L 285.300781 50.785156 C 285.300781 50.785156 284.738281 49.878906 283.582031 49.878906 C 280.675781 49.878906 279.488281 52.691406 279.488281 54.191406 C 279.488281 55.566406 280.269531 56.410156 281.894531 56.410156 C 284.394531 56.410156 286.363281 53.878906 286.363281 49.941406 Z M 284.707031 51.566406 C 284.707031 51.941406 284.332031 56.066406 281.988281 56.066406 C 281.175781 56.066406 280.800781 55.597656 280.800781 54.691406 C 280.800781 53.753906 281.394531 50.222656 283.488281 50.222656 C 284.300781 50.222656 284.707031 50.722656 284.707031 51.566406 Z M 284.707031 51.566406 "/>
<path fill-rule="nonzero" fill="rgb(0%, 0%, 0%)" fill-opacity="1" d="M 289.390625 58.464844 C 290.390625 58.464844 290.859375 57.527344 291.140625 57.027344 L 290.984375 56.933594 C 290.734375 57.277344 290.296875 57.996094 289.953125 57.996094 C 289.796875 57.996094 289.796875 57.714844 289.796875 57.621094 C 289.796875 57.527344 289.859375 57.339844 289.953125 57.058594 C 290.015625 56.777344 290.109375 56.464844 290.234375 56.058594 C 290.421875 55.464844 290.609375 54.683594 290.609375 54.308594 C 290.609375 53.839844 290.421875 53.589844 289.953125 53.589844 C 289.109375 53.589844 288.484375 54.277344 288.046875 55.027344 L 288.015625 54.996094 C 288.109375 54.746094 288.140625 54.589844 288.140625 54.277344 C 288.140625 53.839844 288.046875 53.589844 287.609375 53.589844 C 286.578125 53.589844 286.328125 54.527344 286.046875 55.371094 L 286.265625 55.433594 C 286.390625 54.996094 286.796875 53.839844 287.296875 53.839844 C 287.390625 53.839844 287.484375 53.933594 287.484375 54.089844 C 287.484375 54.308594 287.421875 54.714844 287.359375 54.933594 C 287.203125 55.402344 287.109375 55.808594 286.921875 56.339844 L 286.265625 58.371094 L 286.984375 58.371094 L 287.640625 56.496094 C 287.859375 55.902344 288.265625 55.058594 288.609375 54.558594 C 288.859375 54.277344 289.296875 53.839844 289.671875 53.839844 C 289.828125 53.839844 289.890625 53.933594 289.890625 54.152344 C 289.890625 54.214844 289.890625 54.371094 289.859375 54.433594 C 289.828125 54.808594 289.703125 55.089844 289.609375 55.433594 C 289.390625 56.214844 289.265625 56.777344 289.046875 57.496094 C 289.015625 57.589844 288.984375 57.683594 288.984375 57.746094 C 288.984375 58.121094 289.046875 58.464844 289.390625 58.464844 Z M 289.390625 58.464844 "/>
<path fill-rule="nonzero" fill="rgb(0%, 0%, 0%)" fill-opacity="1" d="M 298.585938 55.871094 L 298.585938 55.246094 L 292.992188 55.246094 L 292.992188 55.871094 Z M 298.585938 55.871094 "/>
<path fill-rule="nonzero" fill="rgb(0%, 0%, 0%)" fill-opacity="1" d="M 305.242188 58.371094 L 305.242188 57.933594 L 304.773438 57.933594 C 303.648438 57.933594 303.648438 57.808594 303.648438 57.433594 L 303.648438 51.402344 C 303.648438 51.089844 303.617188 51.089844 303.273438 51.089844 C 302.554688 51.777344 301.429688 51.777344 301.023438 51.777344 L 301.023438 52.214844 C 301.335938 52.214844 302.054688 52.214844 302.710938 51.902344 L 302.710938 57.433594 C 302.710938 57.808594 302.710938 57.933594 301.585938 57.933594 L 301.117188 57.933594 L 301.117188 58.371094 C 301.710938 58.339844 302.554688 58.339844 303.179688 58.339844 C 303.804688 58.339844 304.648438 58.339844 305.242188 58.371094 Z M 305.242188 58.371094 "/>
<path fill="none" stroke-width="0.5579" stroke-linecap="butt" stroke-linejoin="miter" stroke="rgb(0%, 0%, 0%)" stroke-opacity="1" stroke-miterlimit="10" d="M 103.184937 25.425529 L 103.184937 8.448967 " transform="matrix(2, 0, 0, -2, 228.552002, 85.561996)"/>
<path fill="none" stroke-width="0.5579" stroke-linecap="round" stroke-linejoin="round" stroke="rgb(0%, 0%, 0%)" stroke-opacity="1" stroke-miterlimit="10" d="M -2.899761 3.34903 C -2.372417 1.337311 -1.188824 0.391998 -0.0013237 0.00137329 C -1.188824 -0.389252 -2.372417 -1.33847 -2.899761 -3.346283 " transform="matrix(0, 2, 2, 0, 434.919128, 69.221397)"/>
<path fill-rule="nonzero" fill="rgb(0%, 0%, 0%)" fill-opacity="1" d="M 445.707031 49.578125 C 445.707031 49.328125 445.519531 49.046875 445.238281 49.046875 C 444.925781 49.046875 443.707031 50.265625 443.300781 50.484375 C 443.300781 49.671875 443.707031 48.859375 443.707031 48.390625 C 443.707031 48.078125 443.519531 47.890625 443.207031 47.890625 C 442.894531 47.890625 442.738281 48.078125 442.738281 48.390625 C 442.738281 48.953125 443.082031 49.703125 443.082031 50.484375 C 442.613281 50.234375 441.488281 49.015625 441.175781 49.015625 C 440.925781 49.015625 440.675781 49.234375 440.675781 49.515625 C 440.675781 50.015625 442.394531 50.359375 442.957031 50.671875 C 442.363281 51.046875 441.207031 51.203125 440.925781 51.390625 C 440.800781 51.515625 440.675781 51.640625 440.675781 51.828125 C 440.675781 52.078125 440.863281 52.328125 441.144531 52.328125 C 441.457031 52.328125 442.644531 51.140625 443.082031 50.890625 C 443.082031 51.703125 442.675781 52.515625 442.675781 53.015625 C 442.675781 53.296875 442.894531 53.515625 443.175781 53.515625 C 443.488281 53.515625 443.644531 53.296875 443.644531 53.015625 C 443.644531 52.421875 443.300781 51.671875 443.300781 50.890625 C 443.769531 51.140625 444.925781 52.359375 445.207031 52.359375 C 445.457031 52.359375 445.707031 52.140625 445.707031 51.859375 C 445.707031 51.671875 445.582031 51.546875 445.425781 51.453125 C 445.050781 51.203125 444.050781 51.046875 443.425781 50.671875 C 444.113281 50.265625 445.019531 50.234375 445.457031 49.984375 C 445.613281 49.890625 445.707031 49.765625 445.707031 49.578125 Z M 445.707031 49.578125 "/>
<path fill-rule="nonzero" fill="rgb(0%, 0%, 0%)" fill-opacity="1" d="M 450.230469 56.695312 C 451.230469 56.695312 451.699219 55.757812 451.980469 55.257812 L 451.824219 55.164062 C 451.574219 55.507812 451.136719 56.226562 450.792969 56.226562 C 450.636719 56.226562 450.636719 55.945312 450.636719 55.851562 C 450.636719 55.757812 450.699219 55.570312 450.792969 55.289062 C 450.855469 55.007812 450.949219 54.695312 451.074219 54.289062 C 451.261719 53.695312 451.449219 52.914062 451.449219 52.539062 C 451.449219 52.070312 451.261719 51.820312 450.792969 51.820312 C 449.949219 51.820312 449.324219 52.507812 448.886719 53.257812 L 448.855469 53.226562 C 448.949219 52.976562 448.980469 52.820312 448.980469 52.507812 C 448.980469 52.070312 448.886719 51.820312 448.449219 51.820312 C 447.417969 51.820312 447.167969 52.757812 446.886719 53.601562 L 447.105469 53.664062 C 447.230469 53.226562 447.636719 52.070312 448.136719 52.070312 C 448.230469 52.070312 448.324219 52.164062 448.324219 52.320312 C 448.324219 52.539062 448.261719 52.945312 448.199219 53.164062 C 448.042969 53.632812 447.949219 54.039062 447.761719 54.570312 L 447.105469 56.601562 L 447.824219 56.601562 L 448.480469 54.726562 C 448.699219 54.132812 449.105469 53.289062 449.449219 52.789062 C 449.699219 52.507812 450.136719 52.070312 450.511719 52.070312 C 450.667969 52.070312 450.730469 52.164062 450.730469 52.382812 C 450.730469 52.445312 450.730469 52.601562 450.699219 52.664062 C 450.667969 53.039062 450.542969 53.320312 450.449219 53.664062 C 450.230469 54.445312 450.105469 55.007812 449.886719 55.726562 C 449.855469 55.820312 449.824219 55.914062 449.824219 55.976562 C 449.824219 56.351562 449.886719 56.695312 450.230469 56.695312 Z M 450.230469 56.695312 "/>
<path fill="none" stroke-width="2.49017" stroke-linecap="butt" stroke-linejoin="miter" stroke="rgb(0%, 0%, 0%)" stroke-opacity="1" stroke-miterlimit="10" d="M -87.096313 8.894279 L -65.768188 19.839592 " transform="matrix(2, 0, 0, -2, 228.552002, 85.561996)"/>
<path fill="none" stroke-width="1.37434" stroke-linecap="butt" stroke-linejoin="miter" stroke="rgb(100%, 100%, 100%)" stroke-opacity="1" stroke-miterlimit="10" d="M -87.096313 8.894279 L -65.768188 19.839592 " transform="matrix(2, 0, 0, -2, 228.552002, 85.561996)"/>
<path fill="none" stroke-width="0.5579" stroke-linecap="round" stroke-linejoin="round" stroke="rgb(0%, 0%, 0%)" stroke-opacity="1" stroke-miterlimit="10" d="M -1.295983 2.56079 C -0.669071 1.20716 1.023884 0.0484447 1.991268 -0.000194066 C 1.022871 -0.0476355 -0.6666 -1.209114 -1.294082 -2.559998 " transform="matrix(1.77924, -0.9132, -0.9132, -1.77924, 97.019379, 45.880581)"/>
<path fill-rule="nonzero" fill="rgb(0%, 0%, 0%)" fill-opacity="1" d="M 86.355469 71.363281 C 87.605469 71.363281 88.292969 70.394531 88.730469 69.675781 L 88.449219 69.488281 C 88.167969 69.894531 87.667969 70.769531 87.167969 70.769531 C 86.886719 70.769531 86.792969 70.394531 86.792969 70.207031 C 86.792969 69.894531 87.917969 66.613281 87.917969 66.175781 C 87.917969 65.394531 87.636719 64.894531 86.855469 64.894531 C 86.511719 64.894531 85.917969 65.019531 85.605469 65.207031 C 85.292969 65.425781 85.011719 65.707031 84.761719 66.050781 L 84.699219 66.207031 L 86.167969 60.550781 L 84.011719 60.675781 L 83.980469 60.894531 C 84.386719 60.894531 84.574219 61.019531 84.699219 61.113281 C 84.886719 61.207031 84.980469 61.425781 84.980469 61.582031 C 84.980469 61.863281 84.886719 62.207031 84.792969 62.457031 L 82.355469 71.238281 L 83.199219 71.238281 C 83.730469 69.582031 84.292969 67.582031 85.074219 66.332031 C 85.386719 65.769531 85.917969 65.238281 86.574219 65.238281 C 87.136719 65.238281 86.980469 66.207031 86.886719 66.644531 C 86.824219 66.863281 86.730469 67.175781 86.574219 67.582031 C 86.074219 69.207031 85.761719 69.957031 85.761719 70.613281 C 85.761719 71.082031 85.917969 71.363281 86.355469 71.363281 Z M 86.355469 71.363281 "/>
<path fill-rule="nonzero" fill="rgb(0%, 0%, 0%)" fill-opacity="1" d="M 92.761719 73.515625 C 93.761719 73.515625 94.230469 72.578125 94.511719 72.078125 L 94.355469 71.984375 C 94.105469 72.328125 93.667969 73.046875 93.324219 73.046875 C 93.167969 73.046875 93.167969 72.765625 93.167969 72.671875 C 93.167969 72.578125 93.230469 72.390625 93.324219 72.109375 C 93.386719 71.828125 93.480469 71.515625 93.605469 71.109375 C 93.792969 70.515625 93.980469 69.734375 93.980469 69.359375 C 93.980469 68.890625 93.792969 68.640625 93.324219 68.640625 C 92.480469 68.640625 91.855469 69.328125 91.417969 70.078125 L 91.386719 70.046875 C 91.480469 69.796875 91.511719 69.640625 91.511719 69.328125 C 91.511719 68.890625 91.417969 68.640625 90.980469 68.640625 C 89.949219 68.640625 89.699219 69.578125 89.417969 70.421875 L 89.636719 70.484375 C 89.761719 70.046875 90.167969 68.890625 90.667969 68.890625 C 90.761719 68.890625 90.855469 68.984375 90.855469 69.140625 C 90.855469 69.359375 90.792969 69.765625 90.730469 69.984375 C 90.574219 70.453125 90.480469 70.859375 90.292969 71.390625 L 89.636719 73.421875 L 90.355469 73.421875 L 91.011719 71.546875 C 91.230469 70.953125 91.636719 70.109375 91.980469 69.609375 C 92.230469 69.328125 92.667969 68.890625 93.042969 68.890625 C 93.199219 68.890625 93.261719 68.984375 93.261719 69.203125 C 93.261719 69.265625 93.261719 69.421875 93.230469 69.484375 C 93.199219 69.859375 93.074219 70.140625 92.980469 70.484375 C 92.761719 71.265625 92.636719 71.828125 92.417969 72.546875 C 92.386719 72.640625 92.355469 72.734375 92.355469 72.796875 C 92.355469 73.171875 92.417969 73.515625 92.761719 73.515625 Z M 92.761719 73.515625 "/>
<path fill-rule="nonzero" fill="rgb(0%, 0%, 0%)" fill-opacity="1" d="M 101.953125 70.921875 L 101.953125 70.296875 L 96.359375 70.296875 L 96.359375 70.921875 Z M 101.953125 70.921875 "/>
<path fill-rule="nonzero" fill="rgb(0%, 0%, 0%)" fill-opacity="1" d="M 108.984375 71.359375 L 108.578125 71.359375 C 108.546875 71.515625 108.453125 72.234375 108.265625 72.359375 C 108.203125 72.421875 107.296875 72.421875 107.171875 72.421875 L 105.109375 72.421875 L 106.515625 71.296875 C 106.890625 70.984375 107.859375 70.296875 108.203125 69.953125 C 108.515625 69.640625 108.984375 69.078125 108.984375 68.296875 C 108.984375 66.921875 107.734375 66.140625 106.265625 66.140625 C 104.859375 66.140625 103.859375 67.046875 103.859375 68.078125 C 103.859375 68.640625 104.328125 68.703125 104.453125 68.703125 C 104.734375 68.703125 105.046875 68.515625 105.046875 68.109375 C 105.046875 67.890625 104.921875 67.546875 104.421875 67.546875 C 104.671875 66.984375 105.359375 66.546875 106.109375 66.546875 C 107.265625 66.546875 107.859375 67.421875 107.859375 68.296875 C 107.859375 69.078125 107.359375 69.890625 106.578125 70.578125 L 103.984375 72.953125 C 103.890625 73.078125 103.859375 73.078125 103.859375 73.421875 L 108.640625 73.421875 Z M 108.984375 71.359375 "/>
<path fill="none" stroke-width="0.5579" stroke-linecap="butt" stroke-linejoin="miter" stroke="rgb(0%, 0%, 0%)" stroke-opacity="1" stroke-miterlimit="10" d="M -94.10022 0.0661545 L -55.53772 0.0661545 " transform="matrix(2, 0, 0, -2, 228.552002, 85.561996)"/>
<path fill="none" stroke-width="0.5579" stroke-linecap="round" stroke-linejoin="round" stroke="rgb(0%, 0%, 0%)" stroke-opacity="1" stroke-miterlimit="10" d="M -2.90218 3.346703 C -2.37093 1.33889 -1.191242 0.389671 0.000164032 -0.000953674 C -1.191242 -0.391579 -2.37093 -1.340797 -2.90218 -3.34861 " transform="matrix(2, 0, 0, -2, 118.030922, 85.42778)"/>
<path fill-rule="nonzero" fill="rgb(0%, 0%, 0%)" fill-opacity="1" d="M 126.710938 64.679688 L 126.710938 65.554688 L 131.804688 65.554688 L 131.804688 60.460938 L 130.929688 60.460938 L 130.929688 64.679688 Z M 126.710938 64.679688 "/>
<path fill="none" stroke-width="0.5579" stroke-linecap="butt" stroke-linejoin="miter" stroke="rgb(0%, 0%, 0%)" stroke-opacity="1" stroke-miterlimit="10" d="M -23.791626 0.0661545 L 25.700562 0.0661545 " transform="matrix(2, 0, 0, -2, 228.552002, 85.561996)"/>
<path fill="none" stroke-width="0.5579" stroke-linecap="round" stroke-linejoin="round" stroke="rgb(0%, 0%, 0%)" stroke-opacity="1" stroke-miterlimit="10" d="M -2.902893 3.346703 C -2.371643 1.33889 -1.188049 0.389671 -0.000549316 -0.000953674 C -1.188049 -0.391579 -2.371643 -1.340797 -2.902893 -3.34861 " transform="matrix(2, 0, 0, -2, 280.508911, 85.42778)"/>
<g clip-path="url(#clip-0)">
<path fill="none" stroke-width="2.49017" stroke-linecap="butt" stroke-linejoin="miter" stroke="rgb(0%, 0%, 0%)" stroke-opacity="1" stroke-miterlimit="10" d="M -14.647095 -10.617439 L 14.653687 -23.277596 " transform="matrix(2, 0, 0, -2, 228.552002, 85.561996)"/>
</g>
<path fill="none" stroke-width="1.37434" stroke-linecap="butt" stroke-linejoin="miter" stroke="rgb(100%, 100%, 100%)" stroke-opacity="1" stroke-miterlimit="10" d="M -14.647095 -10.617439 L 14.653687 -23.277596 " transform="matrix(2, 0, 0, -2, 228.552002, 85.561996)"/>
<path fill="none" stroke-width="0.5579" stroke-linecap="round" stroke-linejoin="round" stroke="rgb(0%, 0%, 0%)" stroke-opacity="1" stroke-miterlimit="10" d="M -1.29494 2.559614 C -0.668832 1.208779 1.024687 0.0467161 1.989678 -0.000252044 C 1.022908 -0.0476714 -0.667494 -1.207713 -1.296051 -2.56012 " transform="matrix(1.8359, 0.7931, 0.7931, -1.8359, 257.862976, 132.116837)"/>
<path fill-rule="nonzero" fill="rgb(0%, 0%, 0%)" fill-opacity="1" d="M 201.375 135.929688 C 202.625 135.929688 203.3125 134.960938 203.75 134.242188 L 203.46875 134.054688 C 203.1875 134.460938 202.6875 135.335938 202.1875 135.335938 C 201.90625 135.335938 201.8125 134.960938 201.8125 134.773438 C 201.8125 134.460938 202.9375 131.179688 202.9375 130.742188 C 202.9375 129.960938 202.65625 129.460938 201.875 129.460938 C 201.53125 129.460938 200.9375 129.585938 200.625 129.773438 C 200.3125 129.992188 200.03125 130.273438 199.78125 130.617188 L 199.71875 130.773438 L 201.1875 125.117188 L 199.03125 125.242188 L 199 125.460938 C 199.40625 125.460938 199.59375 125.585938 199.71875 125.679688 C 199.90625 125.773438 200 125.992188 200 126.148438 C 200 126.429688 199.90625 126.773438 199.8125 127.023438 L 197.375 135.804688 L 198.21875 135.804688 C 198.75 134.148438 199.3125 132.148438 200.09375 130.898438 C 200.40625 130.335938 200.9375 129.804688 201.59375 129.804688 C 202.15625 129.804688 202 130.773438 201.90625 131.210938 C 201.84375 131.429688 201.75 131.742188 201.59375 132.148438 C 201.09375 133.773438 200.78125 134.523438 200.78125 135.179688 C 200.78125 135.648438 200.9375 135.929688 201.375 135.929688 Z M 201.375 135.929688 "/>
<path fill-rule="nonzero" fill="rgb(0%, 0%, 0%)" fill-opacity="1" d="M 207.78125 138.078125 C 208.78125 138.078125 209.25 137.140625 209.53125 136.640625 L 209.375 136.546875 C 209.125 136.890625 208.6875 137.609375 208.34375 137.609375 C 208.1875 137.609375 208.1875 137.328125 208.1875 137.234375 C 208.1875 137.140625 208.25 136.953125 208.34375 136.671875 C 208.40625 136.390625 208.5 136.078125 208.625 135.671875 C 208.8125 135.078125 209 134.296875 209 133.921875 C 209 133.453125 208.8125 133.203125 208.34375 133.203125 C 207.5 133.203125 206.875 133.890625 206.4375 134.640625 L 206.40625 134.609375 C 206.5 134.359375 206.53125 134.203125 206.53125 133.890625 C 206.53125 133.453125 206.4375 133.203125 206 133.203125 C 204.96875 133.203125 204.71875 134.140625 204.4375 134.984375 L 204.65625 135.046875 C 204.78125 134.609375 205.1875 133.453125 205.6875 133.453125 C 205.78125 133.453125 205.875 133.546875 205.875 133.703125 C 205.875 133.921875 205.8125 134.328125 205.75 134.546875 C 205.59375 135.015625 205.5 135.421875 205.3125 135.953125 L 204.65625 137.984375 L 205.375 137.984375 L 206.03125 136.109375 C 206.25 135.515625 206.65625 134.671875 207 134.171875 C 207.25 133.890625 207.6875 133.453125 208.0625 133.453125 C 208.21875 133.453125 208.28125 133.546875 208.28125 133.765625 C 208.28125 133.828125 208.28125 133.984375 208.25 134.046875 C 208.21875 134.421875 208.09375 134.703125 208 135.046875 C 207.78125 135.828125 207.65625 136.390625 207.4375 137.109375 C 207.40625 137.203125 207.375 137.296875 207.375 137.359375 C 207.375 137.734375 207.4375 138.078125 207.78125 138.078125 Z M 207.78125 138.078125 "/>
<path fill-rule="nonzero" fill="rgb(0%, 0%, 0%)" fill-opacity="1" d="M 216.972656 135.484375 L 216.972656 134.859375 L 211.378906 134.859375 L 211.378906 135.484375 Z M 216.972656 135.484375 "/>
<path fill-rule="nonzero" fill="rgb(0%, 0%, 0%)" fill-opacity="1" d="M 223.628906 137.984375 L 223.628906 137.546875 L 223.160156 137.546875 C 222.035156 137.546875 222.035156 137.421875 222.035156 137.046875 L 222.035156 131.015625 C 222.035156 130.703125 222.003906 130.703125 221.660156 130.703125 C 220.941406 131.390625 219.816406 131.390625 219.410156 131.390625 L 219.410156 131.828125 C 219.722656 131.828125 220.441406 131.828125 221.097656 131.515625 L 221.097656 137.046875 C 221.097656 137.421875 221.097656 137.546875 219.972656 137.546875 L 219.503906 137.546875 L 219.503906 137.984375 C 220.097656 137.953125 220.941406 137.953125 221.566406 137.953125 C 222.191406 137.953125 223.035156 137.953125 223.628906 137.984375 Z M 223.628906 137.984375 "/>
<path fill="none" stroke-width="2.49017" stroke-linecap="butt" stroke-linejoin="miter" stroke="rgb(0%, 0%, 0%)" stroke-opacity="1" stroke-miterlimit="10" d="M 65.001343 12.648186 L 81.141968 21.413811 " transform="matrix(2, 0, 0, -2, 228.552002, 85.561996)"/>
<path fill="none" stroke-width="1.37434" stroke-linecap="butt" stroke-linejoin="miter" stroke="rgb(100%, 100%, 100%)" stroke-opacity="1" stroke-miterlimit="10" d="M 65.001343 12.648186 L 81.141968 21.413811 " transform="matrix(2, 0, 0, -2, 228.552002, 85.561996)"/>
<path fill="none" stroke-width="0.5579" stroke-linecap="round" stroke-linejoin="round" stroke="rgb(0%, 0%, 0%)" stroke-opacity="1" stroke-miterlimit="10" d="M -1.294437 2.560959 C -0.665753 1.205824 1.02543 0.0470646 1.990453 -0.00147117 C 1.022166 -0.0489674 -0.665654 -1.208239 -1.293734 -2.560858 " transform="matrix(1.75732, -0.95462, -0.95462, -1.75732, 390.83667, 42.733479)"/>
<path fill-rule="nonzero" fill="rgb(0%, 0%, 0%)" fill-opacity="1" d="M 385.335938 65.992188 C 386.585938 65.992188 387.273438 65.023438 387.710938 64.304688 L 387.429688 64.117188 C 387.148438 64.523438 386.648438 65.398438 386.148438 65.398438 C 385.867188 65.398438 385.773438 65.023438 385.773438 64.835938 C 385.773438 64.523438 386.898438 61.242188 386.898438 60.804688 C 386.898438 60.023438 386.617188 59.523438 385.835938 59.523438 C 385.492188 59.523438 384.898438 59.648438 384.585938 59.835938 C 384.273438 60.054688 383.992188 60.335938 383.742188 60.679688 L 383.679688 60.835938 L 385.148438 55.179688 L 382.992188 55.304688 L 382.960938 55.523438 C 383.367188 55.523438 383.554688 55.648438 383.679688 55.742188 C 383.867188 55.835938 383.960938 56.054688 383.960938 56.210938 C 383.960938 56.492188 383.867188 56.835938 383.773438 57.085938 L 381.335938 65.867188 L 382.179688 65.867188 C 382.710938 64.210938 383.273438 62.210938 384.054688 60.960938 C 384.367188 60.398438 384.898438 59.867188 385.554688 59.867188 C 386.117188 59.867188 385.960938 60.835938 385.867188 61.273438 C 385.804688 61.492188 385.710938 61.804688 385.554688 62.210938 C 385.054688 63.835938 384.742188 64.585938 384.742188 65.242188 C 384.742188 65.710938 384.898438 65.992188 385.335938 65.992188 Z M 385.335938 65.992188 "/>
<path fill-rule="nonzero" fill="rgb(0%, 0%, 0%)" fill-opacity="1" d="M 391.742188 68.140625 C 392.742188 68.140625 393.210938 67.203125 393.492188 66.703125 L 393.335938 66.609375 C 393.085938 66.953125 392.648438 67.671875 392.304688 67.671875 C 392.148438 67.671875 392.148438 67.390625 392.148438 67.296875 C 392.148438 67.203125 392.210938 67.015625 392.304688 66.734375 C 392.367188 66.453125 392.460938 66.140625 392.585938 65.734375 C 392.773438 65.140625 392.960938 64.359375 392.960938 63.984375 C 392.960938 63.515625 392.773438 63.265625 392.304688 63.265625 C 391.460938 63.265625 390.835938 63.953125 390.398438 64.703125 L 390.367188 64.671875 C 390.460938 64.421875 390.492188 64.265625 390.492188 63.953125 C 390.492188 63.515625 390.398438 63.265625 389.960938 63.265625 C 388.929688 63.265625 388.679688 64.203125 388.398438 65.046875 L 388.617188 65.109375 C 388.742188 64.671875 389.148438 63.515625 389.648438 63.515625 C 389.742188 63.515625 389.835938 63.609375 389.835938 63.765625 C 389.835938 63.984375 389.773438 64.390625 389.710938 64.609375 C 389.554688 65.078125 389.460938 65.484375 389.273438 66.015625 L 388.617188 68.046875 L 389.335938 68.046875 L 389.992188 66.171875 C 390.210938 65.578125 390.617188 64.734375 390.960938 64.234375 C 391.210938 63.953125 391.648438 63.515625 392.023438 63.515625 C 392.179688 63.515625 392.242188 63.609375 392.242188 63.828125 C 392.242188 63.890625 392.242188 64.046875 392.210938 64.109375 C 392.179688 64.484375 392.054688 64.765625 391.960938 65.109375 C 391.742188 65.890625 391.617188 66.453125 391.398438 67.171875 C 391.367188 67.265625 391.335938 67.359375 391.335938 67.421875 C 391.335938 67.796875 391.398438 68.140625 391.742188 68.140625 Z M 391.742188 68.140625 "/>
<path fill="none" stroke-width="0.5579" stroke-linecap="butt" stroke-linejoin="miter" stroke="rgb(0%, 0%, 0%)" stroke-opacity="1" stroke-miterlimit="10" d="M 57.446655 0.0661545 L 91.704468 0.0661545 " transform="matrix(2, 0, 0, -2, 228.552002, 85.561996)"/>
<path fill="none" stroke-width="0.5579" stroke-linecap="round" stroke-linejoin="round" stroke="rgb(0%, 0%, 0%)" stroke-opacity="1" stroke-miterlimit="10" d="M -2.901306 3.346703 C -2.370056 1.33889 -1.190369 0.389671 0.0010376 -0.000953674 C -1.190369 -0.391579 -2.370056 -1.340797 -2.901306 -3.34861 " transform="matrix(2, 0, 0, -2, 412.521362, 85.42778)"/>
<path fill-rule="nonzero" fill="rgb(0%, 0%, 0%)" fill-opacity="1" d="M 288.597656 104.105469 L 289.472656 104.105469 L 289.472656 99.011719 L 284.378906 99.011719 L 284.378906 99.886719 L 288.597656 99.886719 Z M 288.597656 104.105469 "/>
<path fill-rule="nonzero" fill="rgb(0%, 0%, 0%)" fill-opacity="1" d="M 418.984375 67.675781 L 418.984375 68.550781 L 424.078125 68.550781 L 424.078125 63.457031 L 423.203125 63.457031 L 423.203125 67.675781 Z M 418.984375 67.675781 "/>
<path fill="none" stroke-width="0.5579" stroke-linecap="butt" stroke-linejoin="miter" stroke="rgb(0%, 0%, 0%)" stroke-opacity="1" stroke-miterlimit="10" d="M -8.186157 -35.019783 L 25.325562 -35.019783 " transform="matrix(2, 0, 0, -2, 228.552002, 85.561996)"/>
<path fill="none" stroke-width="0.5579" stroke-linecap="round" stroke-linejoin="round" stroke="rgb(0%, 0%, 0%)" stroke-opacity="1" stroke-miterlimit="10" d="M -2.900391 3.345726 C -2.373047 1.337914 -1.189453 0.388695 0.00195312 -0.00193024 C -1.189453 -0.388649 -2.373047 -1.337868 -2.900391 -3.34568 " transform="matrix(2, 0, 0, -2, 279.761719, 155.597702)"/>
<path fill-rule="nonzero" fill="rgb(0%, 0%, 0%)" fill-opacity="1" d="M 243.066406 163.585938 C 243.066406 161.773438 241.566406 160.304688 239.722656 160.304688 C 238.910156 160.304688 238.066406 160.617188 237.472656 161.179688 L 237.472656 160.304688 L 235.285156 160.460938 L 235.285156 160.992188 C 236.285156 160.992188 236.378906 161.054688 236.378906 161.679688 L 236.378906 168.367188 C 236.378906 168.992188 236.222656 168.992188 235.285156 168.992188 L 235.285156 169.523438 C 235.285156 169.523438 236.316406 169.460938 236.941406 169.460938 C 237.472656 169.460938 238.472656 169.523438 238.597656 169.523438 L 238.597656 168.992188 C 237.660156 168.992188 237.503906 168.992188 237.503906 168.367188 L 237.503906 166.023438 C 237.597656 166.085938 238.285156 166.867188 239.503906 166.867188 C 241.410156 166.867188 243.066406 165.429688 243.066406 163.585938 Z M 241.722656 163.585938 C 241.722656 165.242188 240.628906 166.460938 239.410156 166.460938 C 238.128906 166.460938 237.566406 165.335938 237.503906 165.242188 L 237.503906 161.867188 C 237.941406 161.148438 238.785156 160.773438 239.566406 160.773438 C 240.785156 160.773438 241.722656 162.054688 241.722656 163.585938 Z M 241.722656 163.585938 "/>
<path fill-rule="nonzero" fill="rgb(0%, 0%, 0%)" fill-opacity="1" d="M 249.648438 161.242188 C 249.648438 160.742188 249.179688 160.304688 248.523438 160.304688 C 247.773438 160.304688 246.992188 160.742188 246.554688 161.867188 L 246.523438 161.867188 L 246.523438 160.304688 L 244.460938 160.460938 L 244.460938 160.992188 C 245.429688 160.992188 245.554688 161.085938 245.554688 161.804688 L 245.554688 165.554688 C 245.554688 166.179688 245.398438 166.179688 244.460938 166.179688 L 244.460938 166.710938 C 244.523438 166.710938 245.523438 166.648438 246.117188 166.648438 L 247.992188 166.710938 L 247.992188 166.179688 L 247.710938 166.179688 C 246.648438 166.179688 246.648438 166.023438 246.648438 165.523438 L 246.648438 163.398438 C 246.648438 162.179688 247.210938 160.710938 248.585938 160.710938 C 248.460938 160.804688 248.335938 160.992188 248.335938 161.242188 C 248.335938 161.710938 248.710938 161.898438 248.992188 161.898438 C 249.335938 161.898438 249.648438 161.679688 249.648438 161.242188 Z M 249.648438 161.242188 "/>
<path fill-rule="nonzero" fill="rgb(0%, 0%, 0%)" fill-opacity="1" d="M 255.769531 170.089844 L 255.769531 169.652344 L 255.300781 169.652344 C 254.175781 169.652344 254.175781 169.527344 254.175781 169.152344 L 254.175781 163.121094 C 254.175781 162.808594 254.144531 162.808594 253.800781 162.808594 C 253.082031 163.496094 251.957031 163.496094 251.550781 163.496094 L 251.550781 163.933594 C 251.863281 163.933594 252.582031 163.933594 253.238281 163.621094 L 253.238281 169.152344 C 253.238281 169.527344 253.238281 169.652344 252.113281 169.652344 L 251.644531 169.652344 L 251.644531 170.089844 C 252.238281 170.058594 253.082031 170.058594 253.707031 170.058594 C 254.332031 170.058594 255.175781 170.058594 255.769531 170.089844 Z M 255.769531 170.089844 "/>
<path fill="none" stroke-width="0.5579" stroke-linecap="butt" stroke-linejoin="miter" stroke="rgb(0%, 0%, 0%)" stroke-opacity="1" stroke-miterlimit="10" d="M 41.852905 -26.773689 L 41.852905 -8.449471 " transform="matrix(2, 0, 0, -2, 228.552002, 85.561996)"/>
<path fill="none" stroke-width="0.5579" stroke-linecap="round" stroke-linejoin="round" stroke="rgb(0%, 0%, 0%)" stroke-opacity="1" stroke-miterlimit="10" d="M -2.900261 3.34642 C -2.372917 1.338608 -1.189323 0.389389 -0.00182343 -0.00123596 C -1.189323 -0.391861 -2.372917 -1.337173 -2.900261 -3.348892 " transform="matrix(0, -2, -2, 0, 312.255341, 101.902603)"/>
<path fill-rule="nonzero" fill="rgb(0%, 0%, 0%)" fill-opacity="1" d="M 323.046875 117.5625 C 323.046875 117.3125 322.859375 117.03125 322.578125 117.03125 C 322.265625 117.03125 321.046875 118.25 320.640625 118.46875 C 320.640625 117.65625 321.046875 116.84375 321.046875 116.375 C 321.046875 116.0625 320.859375 115.875 320.546875 115.875 C 320.234375 115.875 320.078125 116.0625 320.078125 116.375 C 320.078125 116.9375 320.421875 117.6875 320.421875 118.46875 C 319.953125 118.21875 318.828125 117 318.515625 117 C 318.265625 117 318.015625 117.21875 318.015625 117.5 C 318.015625 118 319.734375 118.34375 320.296875 118.65625 C 319.703125 119.03125 318.546875 119.1875 318.265625 119.375 C 318.140625 119.5 318.015625 119.625 318.015625 119.8125 C 318.015625 120.0625 318.203125 120.3125 318.484375 120.3125 C 318.796875 120.3125 319.984375 119.125 320.421875 118.875 C 320.421875 119.6875 320.015625 120.5 320.015625 121 C 320.015625 121.28125 320.234375 121.5 320.515625 121.5 C 320.828125 121.5 320.984375 121.28125 320.984375 121 C 320.984375 120.40625 320.640625 119.65625 320.640625 118.875 C 321.109375 119.125 322.265625 120.34375 322.546875 120.34375 C 322.796875 120.34375 323.046875 120.125 323.046875 119.84375 C 323.046875 119.65625 322.921875 119.53125 322.765625 119.4375 C 322.390625 119.1875 321.390625 119.03125 320.765625 118.65625 C 321.453125 118.25 322.359375 118.21875 322.796875 117.96875 C 322.953125 117.875 323.046875 117.75 323.046875 117.5625 Z M 323.046875 117.5625 "/>
<path fill-rule="nonzero" fill="rgb(0%, 0%, 0%)" fill-opacity="1" d="M 327.570312 124.679688 C 328.570312 124.679688 329.039062 123.742188 329.320312 123.242188 L 329.164062 123.148438 C 328.914062 123.492188 328.476562 124.210938 328.132812 124.210938 C 327.976562 124.210938 327.976562 123.929688 327.976562 123.835938 C 327.976562 123.742188 328.039062 123.554688 328.132812 123.273438 C 328.195312 122.992188 328.289062 122.679688 328.414062 122.273438 C 328.601562 121.679688 328.789062 120.898438 328.789062 120.523438 C 328.789062 120.054688 328.601562 119.804688 328.132812 119.804688 C 327.289062 119.804688 326.664062 120.492188 326.226562 121.242188 L 326.195312 121.210938 C 326.289062 120.960938 326.320312 120.804688 326.320312 120.492188 C 326.320312 120.054688 326.226562 119.804688 325.789062 119.804688 C 324.757812 119.804688 324.507812 120.742188 324.226562 121.585938 L 324.445312 121.648438 C 324.570312 121.210938 324.976562 120.054688 325.476562 120.054688 C 325.570312 120.054688 325.664062 120.148438 325.664062 120.304688 C 325.664062 120.523438 325.601562 120.929688 325.539062 121.148438 C 325.382812 121.617188 325.289062 122.023438 325.101562 122.554688 L 324.445312 124.585938 L 325.164062 124.585938 L 325.820312 122.710938 C 326.039062 122.117188 326.445312 121.273438 326.789062 120.773438 C 327.039062 120.492188 327.476562 120.054688 327.851562 120.054688 C 328.007812 120.054688 328.070312 120.148438 328.070312 120.367188 C 328.070312 120.429688 328.070312 120.585938 328.039062 120.648438 C 328.007812 121.023438 327.882812 121.304688 327.789062 121.648438 C 327.570312 122.429688 327.445312 122.992188 327.226562 123.710938 C 327.195312 123.804688 327.164062 123.898438 327.164062 123.960938 C 327.164062 124.335938 327.226562 124.679688 327.570312 124.679688 Z M 327.570312 124.679688 "/>
<path fill-rule="nonzero" fill="rgb(0%, 0%, 0%)" fill-opacity="1" d="M 336.761719 122.085938 L 336.761719 121.460938 L 331.167969 121.460938 L 331.167969 122.085938 Z M 336.761719 122.085938 "/>
<path fill-rule="nonzero" fill="rgb(0%, 0%, 0%)" fill-opacity="1" d="M 343.417969 124.585938 L 343.417969 124.148438 L 342.949219 124.148438 C 341.824219 124.148438 341.824219 124.023438 341.824219 123.648438 L 341.824219 117.617188 C 341.824219 117.304688 341.792969 117.304688 341.449219 117.304688 C 340.730469 117.992188 339.605469 117.992188 339.199219 117.992188 L 339.199219 118.429688 C 339.511719 118.429688 340.230469 118.429688 340.886719 118.117188 L 340.886719 123.648438 C 340.886719 124.023438 340.886719 124.148438 339.761719 124.148438 L 339.292969 124.148438 L 339.292969 124.585938 C 339.886719 124.554688 340.730469 124.554688 341.355469 124.554688 C 341.980469 124.554688 342.824219 124.554688 343.417969 124.585938 Z M 343.417969 124.585938 "/>
</svg>
