<?xml version="1.0" encoding="UTF-8"?>
<svg xmlns="http://www.w3.org/2000/svg" xmlns:xlink="http://www.w3.org/1999/xlink" width="215.080002" height="319.059998" viewBox="0 0 215.080002 319.059998">
<path fill-rule="nonzero" fill="rgb(0%, 0%, 0%)" fill-opacity="1" stroke-width="0.3985" stroke-linecap="butt" stroke-linejoin="miter" stroke="rgb(0%, 0%, 0%)" stroke-opacity="1" stroke-miterlimit="10" d="M 1.409719 0.000343323 C 1.409719 0.777687 0.776907 1.4105 -0.000436783 1.4105 C -0.777781 1.4105 -1.410593 0.777687 -1.410593 0.000343323 C -1.410593 -0.777 -0.777781 -1.409813 -0.000436783 -1.409813 C 0.776907 -1.409813 1.409719 -0.777 1.409719 0.000343323 Z M 1.409719 0.000343323 " transform="matrix(2, 0, 0, -2, 45.203999, 48.445999)"/>
<path fill-rule="nonzero" fill="rgb(0%, 0%, 0%)" fill-opacity="1" d="M 17.574219 28 C 17.574219 26.5625 16.511719 25.3125 14.511719 25.0625 L 15.699219 21.25 L 14.042969 21.5 L 13.136719 25.09375 C 10.011719 25.40625 7.574219 28 7.574219 30.9375 C 7.574219 32.40625 8.386719 33.90625 10.917969 34.03125 L 10.011719 37.9375 L 10.480469 37.9375 L 11.730469 34 C 15.011719 33.75 17.574219 30.96875 17.574219 28 Z M 15.980469 27.84375 C 15.980469 31.25 13.855469 33.28125 11.917969 33.46875 L 14.324219 25.6875 C 15.699219 26.1875 15.980469 27.34375 15.980469 27.84375 Z M 13.011719 25.625 L 11.074219 33.4375 C 9.730469 33.0625 9.261719 31.84375 9.261719 31 C 9.261719 27.9375 10.917969 25.90625 13.011719 25.625 Z M 13.011719 25.625 "/>
<path fill-rule="nonzero" fill="rgb(0%, 0%, 0%)" fill-opacity="1" d="M 25.332031 19.53125 C 22.457031 21.40625 20.425781 24.625 20.425781 28.6875 C 20.425781 32.40625 22.519531 36.15625 25.269531 37.84375 L 25.519531 37.53125 C 22.894531 35.4375 22.113281 33.03125 22.113281 28.625 C 22.113281 24.1875 22.957031 21.90625 25.519531 19.84375 Z M 25.332031 19.53125 "/>
<path fill-rule="nonzero" fill="rgb(0%, 0%, 0%)" fill-opacity="1" d="M 33.125 25.5 C 34.0625 25.5 33.84375 27.25 33.71875 28 C 33.625 28.4375 33.4375 28.875 33.3125 29.3125 C 32.8125 30.90625 31.34375 33.5 30.28125 33.5 C 29.46875 33.5 29.25 32.25 29.25 31.5625 C 29.25 30.96875 29.25 30.40625 29.5 29.75 C 30 28.40625 31.40625 25.5 33.125 25.5 Z M 32.9375 25.125 C 32.34375 25.125 31.78125 25.3125 31.1875 25.75 C 30.59375 26.125 30.03125 26.625 29.53125 27.28125 C 28.65625 28.28125 27.84375 29.90625 27.84375 31.625 C 27.84375 32.96875 28.34375 33.96875 29.59375 33.96875 C 31.34375 33.96875 32 32.78125 32.5 31.90625 L 32.5625 31.90625 C 32.28125 33.125 32.4375 33.96875 33.28125 33.96875 C 33.78125 33.96875 34.28125 33.75 34.8125 33.34375 C 35.3125 32.90625 35.8125 32.25 36.25 31.46875 L 36.03125 31.3125 C 35.65625 31.84375 34.78125 33.125 34.21875 33.125 C 33.9375 33.125 33.84375 32.65625 33.84375 32.34375 C 33.84375 31.15625 34.65625 29.09375 35.09375 27.75 L 36.03125 25.28125 L 34.71875 25.28125 L 34.375 26.1875 C 34.125 25.53125 33.71875 25.125 32.9375 25.125 Z M 32.9375 25.125 "/>
<path fill-rule="nonzero" fill="rgb(0%, 0%, 0%)" fill-opacity="1" d="M 38.203125 19.53125 L 38.046875 19.84375 C 40.609375 21.90625 41.421875 24.1875 41.421875 28.625 C 41.421875 33.03125 40.671875 35.4375 38.046875 37.53125 L 38.265625 37.84375 C 41.015625 36.15625 43.140625 32.40625 43.140625 28.6875 C 43.140625 24.625 41.109375 21.40625 38.203125 19.53125 Z M 38.203125 19.53125 "/>
<path fill-rule="nonzero" fill="rgb(0%, 0%, 0%)" fill-opacity="1" stroke-width="0.3985" stroke-linecap="butt" stroke-linejoin="miter" stroke="rgb(0%, 0%, 0%)" stroke-opacity="1" stroke-miterlimit="10" d="M 61.319876 0.000343323 C 61.319876 0.777687 60.687063 1.4105 59.909719 1.4105 C 59.132376 1.4105 58.499563 0.777687 58.499563 0.000343323 C 58.499563 -0.777 59.132376 -1.409813 59.909719 -1.409813 C 60.687063 -1.409813 61.319876 -0.777 61.319876 0.000343323 Z M 61.319876 0.000343323 " transform="matrix(2, 0, 0, -2, 45.203999, 48.445999)"/>
<path fill-rule="nonzero" fill="rgb(0%, 0%, 0%)" fill-opacity="1" d="M 175.476562 26.042969 C 175.476562 24.605469 174.414062 23.355469 172.414062 23.105469 L 173.601562 19.292969 L 171.945312 19.542969 L 171.039062 23.136719 C 167.914062 23.449219 165.476562 26.042969 165.476562 28.980469 C 165.476562 30.449219 166.289062 31.949219 168.820312 32.074219 L 167.914062 35.980469 L 168.382812 35.980469 L 169.632812 32.042969 C 172.914062 31.792969 175.476562 29.011719 175.476562 26.042969 Z M 173.882812 25.886719 C 173.882812 29.292969 171.757812 31.324219 169.820312 31.511719 L 172.226562 23.730469 C 173.601562 24.230469 173.882812 25.386719 173.882812 25.886719 Z M 170.914062 23.667969 L 168.976562 31.480469 C 167.632812 31.105469 167.164062 29.886719 167.164062 29.042969 C 167.164062 25.980469 168.820312 23.949219 170.914062 23.667969 Z M 170.914062 23.667969 "/>
<path fill-rule="nonzero" fill="rgb(0%, 0%, 0%)" fill-opacity="1" d="M 183.234375 17.574219 C 180.359375 19.449219 178.328125 22.667969 178.328125 26.730469 C 178.328125 30.449219 180.421875 34.199219 183.171875 35.886719 L 183.421875 35.574219 C 180.796875 33.480469 180.015625 31.074219 180.015625 26.667969 C 180.015625 22.230469 180.859375 19.949219 183.421875 17.886719 Z M 183.234375 17.574219 "/>
<path fill-rule="nonzero" fill="rgb(0%, 0%, 0%)" fill-opacity="1" d="M 191.027344 23.542969 C 191.964844 23.542969 191.746094 25.292969 191.621094 26.042969 C 191.527344 26.480469 191.339844 26.917969 191.214844 27.355469 C 190.714844 28.949219 189.246094 31.542969 188.183594 31.542969 C 187.371094 31.542969 187.152344 30.292969 187.152344 29.605469 C 187.152344 29.011719 187.152344 28.449219 187.402344 27.792969 C 187.902344 26.449219 189.308594 23.542969 191.027344 23.542969 Z M 190.839844 23.167969 C 190.246094 23.167969 189.683594 23.355469 189.089844 23.792969 C 188.496094 24.167969 187.933594 24.667969 187.433594 25.324219 C 186.558594 26.324219 185.746094 27.949219 185.746094 29.667969 C 185.746094 31.011719 186.246094 32.011719 187.496094 32.011719 C 189.246094 32.011719 189.902344 30.824219 190.402344 29.949219 L 190.464844 29.949219 C 190.183594 31.167969 190.339844 32.011719 191.183594 32.011719 C 191.683594 32.011719 192.183594 31.792969 192.714844 31.386719 C 193.214844 30.949219 193.714844 30.292969 194.152344 29.511719 L 193.933594 29.355469 C 193.558594 29.886719 192.683594 31.167969 192.121094 31.167969 C 191.839844 31.167969 191.746094 30.699219 191.746094 30.386719 C 191.746094 29.199219 192.558594 27.136719 192.996094 25.792969 L 193.933594 23.324219 L 192.621094 23.324219 L 192.277344 24.230469 C 192.027344 23.574219 191.621094 23.167969 190.839844 23.167969 Z M 190.839844 23.167969 "/>
<path fill-rule="nonzero" fill="rgb(0%, 0%, 0%)" fill-opacity="1" d="M 199.738281 18.65625 C 199.738281 18.15625 199.207031 17.78125 198.738281 17.78125 C 198.207031 17.78125 197.957031 18.3125 197.800781 18.75 L 196.300781 23.15625 C 196.269531 23.28125 196.144531 23.53125 196.144531 23.65625 C 196.144531 23.78125 196.238281 23.96875 196.394531 23.96875 C 196.613281 23.96875 196.863281 23.65625 196.957031 23.5 L 199.332031 19.75 C 199.550781 19.4375 199.738281 19.03125 199.738281 18.65625 Z M 199.738281 18.65625 "/>
<path fill-rule="nonzero" fill="rgb(0%, 0%, 0%)" fill-opacity="1" d="M 202.292969 17.574219 L 202.136719 17.886719 C 204.699219 19.949219 205.511719 22.230469 205.511719 26.667969 C 205.511719 31.074219 204.761719 33.480469 202.136719 35.574219 L 202.355469 35.886719 C 205.105469 34.199219 207.230469 30.449219 207.230469 26.730469 C 207.230469 22.667969 205.199219 19.449219 202.292969 17.574219 Z M 202.292969 17.574219 "/>
<path fill-rule="nonzero" fill="rgb(0%, 0%, 0%)" fill-opacity="1" stroke-width="0.3985" stroke-linecap="butt" stroke-linejoin="miter" stroke="rgb(0%, 0%, 0%)" stroke-opacity="1" stroke-miterlimit="10" d="M 61.319876 -59.909813 C 61.319876 -59.132469 60.687063 -58.499657 59.909719 -58.499657 C 59.132376 -58.499657 58.499563 -59.132469 58.499563 -59.909813 C 58.499563 -60.687157 59.132376 -61.319969 59.909719 -61.319969 C 60.687063 -61.319969 61.319876 -60.687157 61.319876 -59.909813 Z M 61.319876 -59.909813 " transform="matrix(2, 0, 0, -2, 45.203999, 48.445999)"/>
<path fill-rule="nonzero" fill="rgb(0%, 0%, 0%)" fill-opacity="1" d="M 175.996094 186.910156 C 172.871094 186.972656 172.339844 190.097656 171.714844 192.347656 C 171.183594 194.316406 169.683594 194.878906 168.558594 194.878906 L 172.246094 183.035156 L 170.589844 183.285156 L 167.714844 194.878906 C 166.808594 194.878906 165.871094 194.566406 165.871094 193.066406 C 165.871094 191.878906 166.746094 190.472656 166.746094 188.722656 C 166.746094 187.503906 166.089844 186.910156 164.683594 186.910156 L 164.621094 187.160156 C 164.777344 187.160156 165.246094 187.253906 165.246094 188.378906 C 165.246094 189.285156 164.308594 191.660156 164.308594 192.691406 C 164.308594 195.128906 166.746094 195.691406 167.496094 195.691406 L 166.558594 199.597656 L 167.027344 199.597656 L 168.339844 195.660156 C 170.152344 195.660156 172.683594 194.878906 173.496094 191.910156 L 174.214844 189.316406 C 174.433594 188.503906 175.214844 187.222656 175.933594 187.191406 Z M 175.996094 186.910156 "/>
<path fill-rule="nonzero" fill="rgb(0%, 0%, 0%)" fill-opacity="1" d="M 184.863281 181.191406 C 181.988281 183.066406 179.957031 186.285156 179.957031 190.347656 C 179.957031 194.066406 182.050781 197.816406 184.800781 199.503906 L 185.050781 199.191406 C 182.425781 197.097656 181.644531 194.691406 181.644531 190.285156 C 181.644531 185.847656 182.488281 183.566406 185.050781 181.503906 Z M 184.863281 181.191406 "/>
<path fill-rule="nonzero" fill="rgb(0%, 0%, 0%)" fill-opacity="1" d="M 192.65625 187.160156 C 193.59375 187.160156 193.375 188.910156 193.25 189.660156 C 193.15625 190.097656 192.96875 190.535156 192.84375 190.972656 C 192.34375 192.566406 190.875 195.160156 189.8125 195.160156 C 189 195.160156 188.78125 193.910156 188.78125 193.222656 C 188.78125 192.628906 188.78125 192.066406 189.03125 191.410156 C 189.53125 190.066406 190.9375 187.160156 192.65625 187.160156 Z M 192.46875 186.785156 C 191.875 186.785156 191.3125 186.972656 190.71875 187.410156 C 190.125 187.785156 189.5625 188.285156 189.0625 188.941406 C 188.1875 189.941406 187.375 191.566406 187.375 193.285156 C 187.375 194.628906 187.875 195.628906 189.125 195.628906 C 190.875 195.628906 191.53125 194.441406 192.03125 193.566406 L 192.09375 193.566406 C 191.8125 194.785156 191.96875 195.628906 192.8125 195.628906 C 193.3125 195.628906 193.8125 195.410156 194.34375 195.003906 C 194.84375 194.566406 195.34375 193.910156 195.78125 193.128906 L 195.5625 192.972656 C 195.1875 193.503906 194.3125 194.785156 193.75 194.785156 C 193.46875 194.785156 193.375 194.316406 193.375 194.003906 C 193.375 192.816406 194.1875 190.753906 194.625 189.410156 L 195.5625 186.941406 L 194.25 186.941406 L 193.90625 187.847656 C 193.65625 187.191406 193.25 186.785156 192.46875 186.785156 Z M 192.46875 186.785156 "/>
<path fill-rule="nonzero" fill="rgb(0%, 0%, 0%)" fill-opacity="1" d="M 201.367188 182.269531 C 201.367188 181.769531 200.835938 181.394531 200.367188 181.394531 C 199.835938 181.394531 199.585938 181.925781 199.429688 182.363281 L 197.929688 186.769531 C 197.898438 186.894531 197.773438 187.144531 197.773438 187.269531 C 197.773438 187.394531 197.867188 187.582031 198.023438 187.582031 C 198.242188 187.582031 198.492188 187.269531 198.585938 187.113281 L 200.960938 183.363281 C 201.179688 183.050781 201.367188 182.644531 201.367188 182.269531 Z M 201.367188 182.269531 "/>
<path fill-rule="nonzero" fill="rgb(0%, 0%, 0%)" fill-opacity="1" d="M 203.921875 181.191406 L 203.765625 181.503906 C 206.328125 183.566406 207.140625 185.847656 207.140625 190.285156 C 207.140625 194.691406 206.390625 197.097656 203.765625 199.191406 L 203.984375 199.503906 C 206.734375 197.816406 208.859375 194.066406 208.859375 190.347656 C 208.859375 186.285156 206.828125 183.066406 203.921875 181.191406 Z M 203.921875 181.191406 "/>
<path fill-rule="nonzero" fill="rgb(0%, 0%, 0%)" fill-opacity="1" stroke-width="0.3985" stroke-linecap="butt" stroke-linejoin="miter" stroke="rgb(0%, 0%, 0%)" stroke-opacity="1" stroke-miterlimit="10" d="M 1.409719 -59.909813 C 1.409719 -59.132469 0.776907 -58.499657 -0.000436783 -58.499657 C -0.777781 -58.499657 -1.410593 -59.132469 -1.410593 -59.909813 C -1.410593 -60.687157 -0.777781 -61.319969 -0.000436783 -61.319969 C 0.776907 -61.319969 1.409719 -60.687157 1.409719 -59.909813 Z M 1.409719 -59.909813 " transform="matrix(2, 0, 0, -2, 45.203999, 48.445999)"/>
<path fill-rule="nonzero" fill="rgb(0%, 0%, 0%)" fill-opacity="1" d="M 16.816406 184.902344 C 13.691406 184.964844 13.160156 188.089844 12.535156 190.339844 C 12.003906 192.308594 10.503906 192.871094 9.378906 192.871094 L 13.066406 181.027344 L 11.410156 181.277344 L 8.535156 192.871094 C 7.628906 192.871094 6.691406 192.558594 6.691406 191.058594 C 6.691406 189.871094 7.566406 188.464844 7.566406 186.714844 C 7.566406 185.496094 6.910156 184.902344 5.503906 184.902344 L 5.441406 185.152344 C 5.597656 185.152344 6.066406 185.246094 6.066406 186.371094 C 6.066406 187.277344 5.128906 189.652344 5.128906 190.683594 C 5.128906 193.121094 7.566406 193.683594 8.316406 193.683594 L 7.378906 197.589844 L 7.847656 197.589844 L 9.160156 193.652344 C 10.972656 193.652344 13.503906 192.871094 14.316406 189.902344 L 15.035156 187.308594 C 15.253906 186.496094 16.035156 185.214844 16.753906 185.183594 Z M 16.816406 184.902344 "/>
<path fill-rule="nonzero" fill="rgb(0%, 0%, 0%)" fill-opacity="1" d="M 25.6875 179.183594 C 22.8125 181.058594 20.78125 184.277344 20.78125 188.339844 C 20.78125 192.058594 22.875 195.808594 25.625 197.496094 L 25.875 197.183594 C 23.25 195.089844 22.46875 192.683594 22.46875 188.277344 C 22.46875 183.839844 23.3125 181.558594 25.875 179.496094 Z M 25.6875 179.183594 "/>
<path fill-rule="nonzero" fill="rgb(0%, 0%, 0%)" fill-opacity="1" d="M 33.476562 185.152344 C 34.414062 185.152344 34.195312 186.902344 34.070312 187.652344 C 33.976562 188.089844 33.789062 188.527344 33.664062 188.964844 C 33.164062 190.558594 31.695312 193.152344 30.632812 193.152344 C 29.820312 193.152344 29.601562 191.902344 29.601562 191.214844 C 29.601562 190.621094 29.601562 190.058594 29.851562 189.402344 C 30.351562 188.058594 31.757812 185.152344 33.476562 185.152344 Z M 33.289062 184.777344 C 32.695312 184.777344 32.132812 184.964844 31.539062 185.402344 C 30.945312 185.777344 30.382812 186.277344 29.882812 186.933594 C 29.007812 187.933594 28.195312 189.558594 28.195312 191.277344 C 28.195312 192.621094 28.695312 193.621094 29.945312 193.621094 C 31.695312 193.621094 32.351562 192.433594 32.851562 191.558594 L 32.914062 191.558594 C 32.632812 192.777344 32.789062 193.621094 33.632812 193.621094 C 34.132812 193.621094 34.632812 193.402344 35.164062 192.996094 C 35.664062 192.558594 36.164062 191.902344 36.601562 191.121094 L 36.382812 190.964844 C 36.007812 191.496094 35.132812 192.777344 34.570312 192.777344 C 34.289062 192.777344 34.195312 192.308594 34.195312 191.996094 C 34.195312 190.808594 35.007812 188.746094 35.445312 187.402344 L 36.382812 184.933594 L 35.070312 184.933594 L 34.726562 185.839844 C 34.476562 185.183594 34.070312 184.777344 33.289062 184.777344 Z M 33.289062 184.777344 "/>
<path fill-rule="nonzero" fill="rgb(0%, 0%, 0%)" fill-opacity="1" d="M 38.554688 179.183594 L 38.398438 179.496094 C 40.960938 181.558594 41.773438 183.839844 41.773438 188.277344 C 41.773438 192.683594 41.023438 195.089844 38.398438 197.183594 L 38.617188 197.496094 C 41.367188 195.808594 43.492188 192.058594 43.492188 188.339844 C 43.492188 184.277344 41.460938 181.058594 38.554688 179.183594 Z M 38.554688 179.183594 "/>
<path fill-rule="nonzero" fill="rgb(0%, 0%, 0%)" fill-opacity="1" stroke-width="0.3985" stroke-linecap="butt" stroke-linejoin="miter" stroke="rgb(0%, 0%, 0%)" stroke-opacity="1" stroke-miterlimit="10" d="M 1.409719 -119.819969 C 1.409719 -119.042625 0.776907 -118.409813 -0.000436783 -118.409813 C -0.777781 -118.409813 -1.410593 -119.042625 -1.410593 -119.819969 C -1.410593 -120.597313 -0.777781 -121.230125 -0.000436783 -121.230125 C 0.776907 -121.230125 1.409719 -120.597313 1.409719 -119.819969 Z M 1.409719 -119.819969 " transform="matrix(2, 0, 0, -2, 45.203999, 48.445999)"/>
<path fill-rule="nonzero" fill="rgb(0%, 0%, 0%)" fill-opacity="1" d="M 46.160156 297.480469 C 47.097656 297.480469 46.878906 299.230469 46.753906 299.980469 C 46.660156 300.417969 46.472656 300.855469 46.347656 301.292969 C 45.847656 302.886719 44.378906 305.480469 43.316406 305.480469 C 42.503906 305.480469 42.285156 304.230469 42.285156 303.542969 C 42.285156 302.949219 42.285156 302.386719 42.535156 301.730469 C 43.035156 300.386719 44.441406 297.480469 46.160156 297.480469 Z M 45.972656 297.105469 C 45.378906 297.105469 44.816406 297.292969 44.222656 297.730469 C 43.628906 298.105469 43.066406 298.605469 42.566406 299.261719 C 41.691406 300.261719 40.878906 301.886719 40.878906 303.605469 C 40.878906 304.949219 41.378906 305.949219 42.628906 305.949219 C 44.378906 305.949219 45.035156 304.761719 45.535156 303.886719 L 45.597656 303.886719 C 45.316406 305.105469 45.472656 305.949219 46.316406 305.949219 C 46.816406 305.949219 47.316406 305.730469 47.847656 305.324219 C 48.347656 304.886719 48.847656 304.230469 49.285156 303.449219 L 49.066406 303.292969 C 48.691406 303.824219 47.816406 305.105469 47.253906 305.105469 C 46.972656 305.105469 46.878906 304.636719 46.878906 304.324219 C 46.878906 303.136719 47.691406 301.074219 48.128906 299.730469 L 49.066406 297.261719 L 47.753906 297.261719 L 47.410156 298.167969 C 47.160156 297.511719 46.753906 297.105469 45.972656 297.105469 Z M 45.972656 297.105469 "/>
<path fill-rule="nonzero" fill="rgb(0%, 0%, 0%)" fill-opacity="1" stroke-width="0.3985" stroke-linecap="butt" stroke-linejoin="miter" stroke="rgb(0%, 0%, 0%)" stroke-opacity="1" stroke-miterlimit="10" d="M 61.319876 -119.819969 C 61.319876 -119.042625 60.687063 -118.409813 59.909719 -118.409813 C 59.132376 -118.409813 58.499563 -119.042625 58.499563 -119.819969 C 58.499563 -120.597313 59.132376 -121.230125 59.909719 -121.230125 C 60.687063 -121.230125 61.319876 -120.597313 61.319876 -119.819969 Z M 61.319876 -119.819969 " transform="matrix(2, 0, 0, -2, 45.203999, 48.445999)"/>
<path fill-rule="nonzero" fill="rgb(0%, 0%, 0%)" fill-opacity="1" d="M 162.886719 303.921875 C 163.824219 303.921875 163.605469 305.671875 163.480469 306.421875 C 163.386719 306.859375 163.199219 307.296875 163.074219 307.734375 C 162.574219 309.328125 161.105469 311.921875 160.042969 311.921875 C 159.230469 311.921875 159.011719 310.671875 159.011719 309.984375 C 159.011719 309.390625 159.011719 308.828125 159.261719 308.171875 C 159.761719 306.828125 161.167969 303.921875 162.886719 303.921875 Z M 162.699219 303.546875 C 162.105469 303.546875 161.542969 303.734375 160.949219 304.171875 C 160.355469 304.546875 159.792969 305.046875 159.292969 305.703125 C 158.417969 306.703125 157.605469 308.328125 157.605469 310.046875 C 157.605469 311.390625 158.105469 312.390625 159.355469 312.390625 C 161.105469 312.390625 161.761719 311.203125 162.261719 310.328125 L 162.324219 310.328125 C 162.042969 311.546875 162.199219 312.390625 163.042969 312.390625 C 163.542969 312.390625 164.042969 312.171875 164.574219 311.765625 C 165.074219 311.328125 165.574219 310.671875 166.011719 309.890625 L 165.792969 309.734375 C 165.417969 310.265625 164.542969 311.546875 163.980469 311.546875 C 163.699219 311.546875 163.605469 311.078125 163.605469 310.765625 C 163.605469 309.578125 164.417969 307.515625 164.855469 306.171875 L 165.792969 303.703125 L 164.480469 303.703125 L 164.136719 304.609375 C 163.886719 303.953125 163.480469 303.546875 162.699219 303.546875 Z M 162.699219 303.546875 "/>
<path fill-rule="nonzero" fill="rgb(0%, 0%, 0%)" fill-opacity="1" d="M 171.597656 299.035156 C 171.597656 298.535156 171.066406 298.160156 170.597656 298.160156 C 170.066406 298.160156 169.816406 298.691406 169.660156 299.128906 L 168.160156 303.535156 C 168.128906 303.660156 168.003906 303.910156 168.003906 304.035156 C 168.003906 304.160156 168.097656 304.347656 168.253906 304.347656 C 168.472656 304.347656 168.722656 304.035156 168.816406 303.878906 L 171.191406 300.128906 C 171.410156 299.816406 171.597656 299.410156 171.597656 299.035156 Z M 171.597656 299.035156 "/>
<path fill="none" stroke-width="0.59776" stroke-linecap="butt" stroke-linejoin="miter" stroke="rgb(0%, 0%, 0%)" stroke-opacity="1" stroke-miterlimit="10" d="M 58.300344 0.000343323 L 2.206594 0.000343323 " transform="matrix(2, 0, 0, -2, 45.203999, 48.445999)"/>
<path fill="none" stroke-width="0.59776" stroke-linecap="round" stroke-linejoin="round" stroke="rgb(0%, 0%, 0%)" stroke-opacity="1" stroke-miterlimit="10" d="M -2.311142 2.749657 C -1.889267 1.101219 -0.947861 0.319969 0.00135803 -0.000343323 C -0.947861 -0.320656 -1.889267 -1.101906 -2.311142 -2.750343 " transform="matrix(-2, 0, 0, 2, 49.018341, 48.445999)"/>
<path fill-rule="nonzero" fill="rgb(0%, 0%, 0%)" fill-opacity="1" d="M 87.507812 31.25 C 87.507812 29.8125 86.445312 28.5625 84.445312 28.3125 L 85.632812 24.5 L 83.976562 24.75 L 83.070312 28.34375 C 79.945312 28.65625 77.507812 31.25 77.507812 34.1875 C 77.507812 35.65625 78.320312 37.15625 80.851562 37.28125 L 79.945312 41.1875 L 80.414062 41.1875 L 81.664062 37.25 C 84.945312 37 87.507812 34.21875 87.507812 31.25 Z M 85.914062 31.09375 C 85.914062 34.5 83.789062 36.53125 81.851562 36.71875 L 84.257812 28.9375 C 85.632812 29.4375 85.914062 30.59375 85.914062 31.09375 Z M 82.945312 28.875 L 81.007812 36.6875 C 79.664062 36.3125 79.195312 35.09375 79.195312 34.25 C 79.195312 31.1875 80.851562 29.15625 82.945312 28.875 Z M 82.945312 28.875 "/>
<path fill-rule="nonzero" fill="rgb(0%, 0%, 0%)" fill-opacity="1" d="M 95.265625 22.78125 C 92.390625 24.65625 90.359375 27.875 90.359375 31.9375 C 90.359375 35.65625 92.453125 39.40625 95.203125 41.09375 L 95.453125 40.78125 C 92.828125 38.6875 92.046875 36.28125 92.046875 31.875 C 92.046875 27.4375 92.890625 25.15625 95.453125 23.09375 Z M 95.265625 22.78125 "/>
<path fill-rule="nonzero" fill="rgb(0%, 0%, 0%)" fill-opacity="1" d="M 100.222656 29.46875 L 97.316406 40.0625 C 97.097656 40.65625 96.597656 40.8125 95.753906 40.8125 L 95.691406 41.09375 L 100.253906 41.09375 L 100.316406 40.8125 C 99.441406 40.78125 98.722656 40.75 98.722656 40.0625 C 98.722656 39.96875 98.722656 39.875 98.722656 39.78125 C 98.785156 39.6875 98.785156 39.53125 98.847656 39.375 L 99.566406 36.78125 C 101.253906 36.5625 102.785156 35.78125 103.816406 34.875 C 104.753906 34.0625 105.691406 32.84375 105.691406 31.1875 C 105.691406 29.40625 104.566406 28.375 102.785156 28.375 C 102.441406 28.375 102.097656 28.40625 101.753906 28.5 L 102.347656 26.34375 L 101.097656 26.34375 L 100.378906 28.84375 C 99.847656 29.09375 99.285156 29.4375 98.785156 29.8125 C 98.285156 30.1875 97.910156 30.59375 97.472656 31.03125 L 97.847656 31.34375 C 98.472656 30.6875 99.410156 29.90625 100.222656 29.46875 Z M 104.160156 31.3125 C 104.160156 32.5 103.535156 33.90625 102.847656 34.625 C 102.097656 35.375 100.878906 36.125 99.691406 36.34375 L 101.660156 28.96875 C 101.785156 28.9375 101.941406 28.9375 102.035156 28.9375 C 102.191406 28.875 102.347656 28.875 102.472656 28.875 C 103.722656 28.875 104.160156 30.125 104.160156 31.3125 Z M 104.160156 31.3125 "/>
<path fill-rule="nonzero" fill="rgb(0%, 0%, 0%)" fill-opacity="1" d="M 107.617188 22.78125 L 107.460938 23.09375 C 110.023438 25.15625 110.835938 27.4375 110.835938 31.875 C 110.835938 36.28125 110.085938 38.6875 107.460938 40.78125 L 107.679688 41.09375 C 110.429688 39.40625 112.554688 35.65625 112.554688 31.9375 C 112.554688 27.875 110.523438 24.65625 107.617188 22.78125 Z M 107.617188 22.78125 "/>
<path fill-rule="nonzero" fill="rgb(0%, 0%, 0%)" fill-opacity="1" d="M 123.421875 26.515625 L 123.421875 25.671875 L 115.984375 25.671875 L 115.984375 26.515625 Z M 123.421875 26.515625 "/>
<path fill-rule="nonzero" fill="rgb(0%, 0%, 0%)" fill-opacity="1" d="M 131.785156 29.828125 L 131.785156 29.296875 L 131.222656 29.296875 C 129.785156 29.296875 129.785156 29.109375 129.785156 28.640625 L 129.785156 20.578125 C 129.785156 20.203125 129.753906 20.171875 129.347656 20.171875 C 128.410156 21.109375 127.097656 21.109375 126.503906 21.109375 L 126.503906 21.640625 C 126.847656 21.640625 127.816406 21.640625 128.597656 21.234375 L 128.597656 28.640625 C 128.597656 29.109375 128.597656 29.296875 127.160156 29.296875 L 126.597656 29.296875 L 126.597656 29.828125 L 129.191406 29.765625 Z M 131.785156 29.828125 "/>
<path fill="none" stroke-width="0.59776" stroke-linecap="butt" stroke-linejoin="miter" stroke="rgb(0%, 0%, 0%)" stroke-opacity="1" stroke-miterlimit="10" d="M 1.608938 -59.909813 L 57.702688 -59.909813 " transform="matrix(2, 0, 0, -2, 45.203999, 48.445999)"/>
<path fill="none" stroke-width="0.59776" stroke-linecap="round" stroke-linejoin="round" stroke="rgb(0%, 0%, 0%)" stroke-opacity="1" stroke-miterlimit="10" d="M -2.312073 2.750404 C -1.890198 1.101967 -0.948792 0.320717 0.000427246 0.000404358 C -0.948792 -0.319908 -1.890198 -1.101158 -2.312073 -2.749596 " transform="matrix(2, 0, 0, -2, 161.210083, 168.266434)"/>
<path fill-rule="nonzero" fill="rgb(0%, 0%, 0%)" fill-opacity="1" d="M 97.210938 148.320312 C 94.085938 148.382812 93.554688 151.507812 92.929688 153.757812 C 92.398438 155.726562 90.898438 156.289062 89.773438 156.289062 L 93.460938 144.445312 L 91.804688 144.695312 L 88.929688 156.289062 C 88.023438 156.289062 87.085938 155.976562 87.085938 154.476562 C 87.085938 153.289062 87.960938 151.882812 87.960938 150.132812 C 87.960938 148.914062 87.304688 148.320312 85.898438 148.320312 L 85.835938 148.570312 C 85.992188 148.570312 86.460938 148.664062 86.460938 149.789062 C 86.460938 150.695312 85.523438 153.070312 85.523438 154.101562 C 85.523438 156.539062 87.960938 157.101562 88.710938 157.101562 L 87.773438 161.007812 L 88.242188 161.007812 L 89.554688 157.070312 C 91.367188 157.070312 93.898438 156.289062 94.710938 153.320312 L 95.429688 150.726562 C 95.648438 149.914062 96.429688 148.632812 97.148438 148.601562 Z M 97.210938 148.320312 "/>
<path fill-rule="nonzero" fill="rgb(0%, 0%, 0%)" fill-opacity="1" d="M 106.078125 142.601562 C 103.203125 144.476562 101.171875 147.695312 101.171875 151.757812 C 101.171875 155.476562 103.265625 159.226562 106.015625 160.914062 L 106.265625 160.601562 C 103.640625 158.507812 102.859375 156.101562 102.859375 151.695312 C 102.859375 147.257812 103.703125 144.976562 106.265625 142.914062 Z M 106.078125 142.601562 "/>
<path fill-rule="nonzero" fill="rgb(0%, 0%, 0%)" fill-opacity="1" d="M 111.035156 149.289062 L 108.128906 159.882812 C 107.910156 160.476562 107.410156 160.632812 106.566406 160.632812 L 106.503906 160.914062 L 111.066406 160.914062 L 111.128906 160.632812 C 110.253906 160.601562 109.535156 160.570312 109.535156 159.882812 C 109.535156 159.789062 109.535156 159.695312 109.535156 159.601562 C 109.597656 159.507812 109.597656 159.351562 109.660156 159.195312 L 110.378906 156.601562 C 112.066406 156.382812 113.597656 155.601562 114.628906 154.695312 C 115.566406 153.882812 116.503906 152.664062 116.503906 151.007812 C 116.503906 149.226562 115.378906 148.195312 113.597656 148.195312 C 113.253906 148.195312 112.910156 148.226562 112.566406 148.320312 L 113.160156 146.164062 L 111.910156 146.164062 L 111.191406 148.664062 C 110.660156 148.914062 110.097656 149.257812 109.597656 149.632812 C 109.097656 150.007812 108.722656 150.414062 108.285156 150.851562 L 108.660156 151.164062 C 109.285156 150.507812 110.222656 149.726562 111.035156 149.289062 Z M 114.972656 151.132812 C 114.972656 152.320312 114.347656 153.726562 113.660156 154.445312 C 112.910156 155.195312 111.691406 155.945312 110.503906 156.164062 L 112.472656 148.789062 C 112.597656 148.757812 112.753906 148.757812 112.847656 148.757812 C 113.003906 148.695312 113.160156 148.695312 113.285156 148.695312 C 114.535156 148.695312 114.972656 149.945312 114.972656 151.132812 Z M 114.972656 151.132812 "/>
<path fill-rule="nonzero" fill="rgb(0%, 0%, 0%)" fill-opacity="1" d="M 118.429688 142.601562 L 118.273438 142.914062 C 120.835938 144.976562 121.648438 147.257812 121.648438 151.695312 C 121.648438 156.101562 120.898438 158.507812 118.273438 160.601562 L 118.492188 160.914062 C 121.242188 159.226562 123.367188 155.476562 123.367188 151.757812 C 123.367188 147.695312 121.335938 144.476562 118.429688 142.601562 Z M 118.429688 142.601562 "/>
<path fill="none" stroke-width="0.59776" stroke-linecap="butt" stroke-linejoin="miter" stroke="rgb(0%, 0%, 0%)" stroke-opacity="1" stroke-miterlimit="10" d="M -0.000436783 -1.609032 L -0.000436783 -57.702782 " transform="matrix(2, 0, 0, -2, 45.203999, 48.445999)"/>
<path fill="none" stroke-width="0.59776" stroke-linecap="round" stroke-linejoin="round" stroke="rgb(0%, 0%, 0%)" stroke-opacity="1" stroke-miterlimit="10" d="M -2.311981 2.749563 C -1.890106 1.101126 -0.9487 0.319876 0.000518799 -0.000436783 C -0.9487 -0.320749 -1.890106 -1.101999 -2.311981 -2.750437 " transform="matrix(0, 2, 2, 0, 45.203999, 164.452087)"/>
<path fill-rule="nonzero" fill="rgb(0%, 0%, 0%)" fill-opacity="1" d="M 33.609375 113.914062 C 33.609375 113.820312 33.671875 113.601562 33.734375 113.351562 L 36.734375 102.070312 L 35.640625 102.070312 L 35.171875 103.226562 C 34.984375 102.820312 34.765625 102.539062 34.484375 102.320312 C 34.234375 102.164062 33.921875 102.070312 33.546875 102.070312 C 32.140625 102.070312 31.015625 103.164062 30.328125 104.070312 C 29.578125 105.101562 28.828125 106.601562 28.828125 108.289062 C 28.828125 109.851562 29.421875 110.914062 30.921875 110.914062 C 32.140625 110.914062 32.953125 110.226562 33.421875 109.351562 L 33.515625 109.382812 L 32.328125 113.757812 C 32.140625 114.351562 31.671875 114.507812 30.828125 114.507812 L 30.765625 114.789062 L 34.953125 114.789062 L 34.984375 114.507812 C 34.296875 114.476562 33.609375 114.445312 33.609375 113.914062 Z M 33.609375 102.414062 C 34.234375 102.414062 34.734375 103.007812 34.734375 104.070312 C 34.734375 104.664062 34.546875 105.882812 34.359375 106.476562 C 33.953125 107.726562 32.734375 110.476562 31.421875 110.476562 C 30.796875 110.476562 30.296875 109.851562 30.296875 108.789062 C 30.296875 108.195312 30.390625 107.195312 30.578125 106.539062 C 30.984375 105.289062 32.109375 102.414062 33.609375 102.414062 Z M 33.609375 102.414062 "/>
<path fill="none" stroke-width="0.59776" stroke-linecap="butt" stroke-linejoin="miter" stroke="rgb(0%, 0%, 0%)" stroke-opacity="1" stroke-miterlimit="10" d="M 1.608938 -119.819969 L 57.702688 -119.819969 " transform="matrix(2, 0, 0, -2, 45.203999, 48.445999)"/>
<path fill="none" stroke-width="0.59776" stroke-linecap="round" stroke-linejoin="round" stroke="rgb(0%, 0%, 0%)" stroke-opacity="1" stroke-miterlimit="10" d="M -2.312073 2.750458 C -1.890198 1.10202 -0.948792 0.32077 0.000427246 0.000457764 C -0.948792 -0.319855 -1.890198 -1.101105 -2.312073 -2.749542 " transform="matrix(2, 0, 0, -2, 161.210083, 288.086853)"/>
<path fill-rule="nonzero" fill="rgb(0%, 0%, 0%)" fill-opacity="1" d="M 103.492188 269.21875 L 100.585938 279.8125 C 100.367188 280.40625 99.867188 280.5625 99.023438 280.5625 L 98.960938 280.84375 L 103.523438 280.84375 L 103.585938 280.5625 C 102.710938 280.53125 101.992188 280.5 101.992188 279.8125 C 101.992188 279.71875 101.992188 279.625 101.992188 279.53125 C 102.054688 279.4375 102.054688 279.28125 102.117188 279.125 L 102.835938 276.53125 C 104.523438 276.3125 106.054688 275.53125 107.085938 274.625 C 108.023438 273.8125 108.960938 272.59375 108.960938 270.9375 C 108.960938 269.15625 107.835938 268.125 106.054688 268.125 C 105.710938 268.125 105.367188 268.15625 105.023438 268.25 L 105.617188 266.09375 L 104.367188 266.09375 L 103.648438 268.59375 C 103.117188 268.84375 102.554688 269.1875 102.054688 269.5625 C 101.554688 269.9375 101.179688 270.34375 100.742188 270.78125 L 101.117188 271.09375 C 101.742188 270.4375 102.679688 269.65625 103.492188 269.21875 Z M 107.429688 271.0625 C 107.429688 272.25 106.804688 273.65625 106.117188 274.375 C 105.367188 275.125 104.148438 275.875 102.960938 276.09375 L 104.929688 268.71875 C 105.054688 268.6875 105.210938 268.6875 105.304688 268.6875 C 105.460938 268.625 105.617188 268.625 105.742188 268.625 C 106.992188 268.625 107.429688 269.875 107.429688 271.0625 Z M 107.429688 271.0625 "/>
</svg>
