<?xml version="1.0" encoding="UTF-8"?>
<svg xmlns="http://www.w3.org/2000/svg" xmlns:xlink="http://www.w3.org/1999/xlink" width="214.020004" height="318.779999" viewBox="0 0 214.020004 318.779999">
<path fill-rule="nonzero" fill="rgb(0%, 0%, 0%)" fill-opacity="1" stroke-width="0.3985" stroke-linecap="butt" stroke-linejoin="miter" stroke="rgb(0%, 0%, 0%)" stroke-opacity="1" stroke-miterlimit="10" d="M 1.408155 0.000219345 C 1.408155 0.777563 0.779249 1.410376 0.00190544 1.410376 C -0.779345 1.410376 -1.408251 0.777563 -1.408251 0.000219345 C -1.408251 -0.777124 -0.779345 -1.409937 0.00190544 -1.409937 C 0.779249 -1.409937 1.408155 -0.777124 1.408155 0.000219345 Z M 1.408155 0.000219345 " transform="matrix(2, 0, 0, -2, 45.004002, 47.852001)"/>
<path fill-rule="nonzero" fill="rgb(0%, 0%, 0%)" fill-opacity="1" d="M 15.214844 19.933594 C 15.214844 19.871094 15.277344 19.652344 15.277344 19.652344 C 15.277344 19.621094 15.277344 19.433594 15.027344 19.433594 C 14.839844 19.433594 14.808594 19.496094 14.714844 19.839844 L 13.558594 24.433594 C 10.402344 24.558594 7.464844 27.183594 7.464844 29.902344 C 7.464844 31.808594 8.871094 33.371094 11.308594 33.527344 C 11.152344 34.121094 10.996094 34.777344 10.839844 35.402344 C 10.589844 36.339844 10.402344 37.089844 10.402344 37.152344 C 10.402344 37.339844 10.558594 37.371094 10.652344 37.371094 C 10.746094 37.371094 10.777344 37.339844 10.839844 37.277344 C 10.871094 37.246094 10.996094 36.777344 11.058594 36.496094 L 11.808594 33.527344 C 15.027344 33.402344 17.933594 30.714844 17.933594 28.058594 C 17.933594 26.464844 16.871094 24.652344 14.089844 24.433594 Z M 11.402344 33.089844 C 10.214844 33.027344 8.777344 32.308594 8.777344 30.339844 C 8.777344 27.933594 10.496094 25.152344 13.464844 24.871094 Z M 13.964844 24.871094 C 15.496094 24.964844 16.621094 25.871094 16.621094 27.621094 C 16.621094 29.996094 14.902344 32.839844 11.933594 33.089844 Z M 13.964844 24.871094 "/>
<path fill-rule="nonzero" fill="rgb(0%, 0%, 0%)" fill-opacity="1" d="M 24.960938 38.058594 C 24.960938 37.996094 24.960938 37.964844 24.617188 37.621094 C 22.148438 35.121094 21.492188 31.339844 21.492188 28.277344 C 21.492188 24.808594 22.242188 21.339844 24.710938 18.871094 C 24.960938 18.621094 24.960938 18.589844 24.960938 18.527344 C 24.960938 18.371094 24.898438 18.308594 24.773438 18.308594 C 24.554688 18.308594 22.773438 19.683594 21.585938 22.214844 C 20.585938 24.402344 20.335938 26.621094 20.335938 28.277344 C 20.335938 29.839844 20.554688 32.246094 21.648438 34.527344 C 22.867188 36.964844 24.554688 38.277344 24.773438 38.277344 C 24.898438 38.277344 24.960938 38.214844 24.960938 38.058594 Z M 24.960938 38.058594 "/>
<path fill-rule="nonzero" fill="rgb(0%, 0%, 0%)" fill-opacity="1" d="M 33.554688 25.746094 C 33.179688 24.996094 32.617188 24.464844 31.710938 24.464844 C 29.398438 24.464844 26.929688 27.402344 26.929688 30.308594 C 26.929688 32.183594 28.023438 33.496094 29.554688 33.496094 C 29.960938 33.496094 30.960938 33.402344 32.148438 31.996094 C 32.304688 32.839844 33.023438 33.496094 33.960938 33.496094 C 34.679688 33.496094 35.117188 33.027344 35.460938 32.402344 C 35.773438 31.683594 36.054688 30.464844 36.054688 30.433594 C 36.054688 30.214844 35.867188 30.214844 35.804688 30.214844 C 35.617188 30.214844 35.585938 30.308594 35.523438 30.589844 C 35.179688 31.871094 34.835938 33.058594 34.023438 33.058594 C 33.460938 33.058594 33.429688 32.527344 33.429688 32.152344 C 33.429688 31.714844 33.460938 31.527344 33.679688 30.652344 C 33.898438 29.839844 33.929688 29.621094 34.117188 28.871094 L 34.835938 26.089844 C 34.960938 25.527344 34.960938 25.496094 34.960938 25.402344 C 34.960938 25.058594 34.742188 24.871094 34.398438 24.871094 C 33.898438 24.871094 33.617188 25.308594 33.554688 25.746094 Z M 32.273438 30.902344 C 32.148438 31.277344 32.148438 31.308594 31.867188 31.652344 C 30.992188 32.746094 30.179688 33.058594 29.617188 33.058594 C 28.617188 33.058594 28.335938 31.964844 28.335938 31.183594 C 28.335938 30.183594 28.960938 27.746094 29.429688 26.808594 C 30.054688 25.652344 30.929688 24.902344 31.742188 24.902344 C 33.023438 24.902344 33.304688 26.527344 33.304688 26.652344 C 33.304688 26.777344 33.273438 26.902344 33.242188 26.996094 Z M 32.273438 30.902344 "/>
<path fill-rule="nonzero" fill="rgb(0%, 0%, 0%)" fill-opacity="1" d="M 42.398438 28.277344 C 42.398438 26.746094 42.179688 24.339844 41.085938 22.058594 C 39.898438 19.621094 38.179688 18.308594 37.992188 18.308594 C 37.867188 18.308594 37.773438 18.402344 37.773438 18.527344 C 37.773438 18.589844 37.773438 18.621094 38.148438 18.996094 C 40.117188 20.964844 41.242188 24.121094 41.242188 28.277344 C 41.242188 31.714844 40.523438 35.214844 38.054688 37.714844 C 37.773438 37.964844 37.773438 37.996094 37.773438 38.058594 C 37.773438 38.183594 37.867188 38.277344 37.992188 38.277344 C 38.179688 38.277344 39.992188 36.902344 41.148438 34.371094 C 42.179688 32.183594 42.398438 29.964844 42.398438 28.277344 Z M 42.398438 28.277344 "/>
<path fill-rule="nonzero" fill="rgb(0%, 0%, 0%)" fill-opacity="1" stroke-width="0.3985" stroke-linecap="butt" stroke-linejoin="miter" stroke="rgb(0%, 0%, 0%)" stroke-opacity="1" stroke-miterlimit="10" d="M 61.318312 0.000219345 C 61.318312 0.777563 60.689405 1.410376 59.912062 1.410376 C 59.130812 1.410376 58.501905 0.777563 58.501905 0.000219345 C 58.501905 -0.777124 59.130812 -1.409937 59.912062 -1.409937 C 60.689405 -1.409937 61.318312 -0.777124 61.318312 0.000219345 Z M 61.318312 0.000219345 " transform="matrix(2, 0, 0, -2, 45.004002, 47.852001)"/>
<path fill-rule="nonzero" fill="rgb(0%, 0%, 0%)" fill-opacity="1" d="M 173.117188 18.1875 C 173.117188 18.125 173.179688 17.90625 173.179688 17.90625 C 173.179688 17.875 173.179688 17.6875 172.929688 17.6875 C 172.742188 17.6875 172.710938 17.75 172.617188 18.09375 L 171.460938 22.6875 C 168.304688 22.8125 165.367188 25.4375 165.367188 28.15625 C 165.367188 30.0625 166.773438 31.625 169.210938 31.78125 C 169.054688 32.375 168.898438 33.03125 168.742188 33.65625 C 168.492188 34.59375 168.304688 35.34375 168.304688 35.40625 C 168.304688 35.59375 168.460938 35.625 168.554688 35.625 C 168.648438 35.625 168.679688 35.59375 168.742188 35.53125 C 168.773438 35.5 168.898438 35.03125 168.960938 34.75 L 169.710938 31.78125 C 172.929688 31.65625 175.835938 28.96875 175.835938 26.3125 C 175.835938 24.71875 174.773438 22.90625 171.992188 22.6875 Z M 169.304688 31.34375 C 168.117188 31.28125 166.679688 30.5625 166.679688 28.59375 C 166.679688 26.1875 168.398438 23.40625 171.367188 23.125 Z M 171.867188 23.125 C 173.398438 23.21875 174.523438 24.125 174.523438 25.875 C 174.523438 28.25 172.804688 31.09375 169.835938 31.34375 Z M 171.867188 23.125 "/>
<path fill-rule="nonzero" fill="rgb(0%, 0%, 0%)" fill-opacity="1" d="M 182.867188 36.3125 C 182.867188 36.25 182.867188 36.21875 182.523438 35.875 C 180.054688 33.375 179.398438 29.59375 179.398438 26.53125 C 179.398438 23.0625 180.148438 19.59375 182.617188 17.125 C 182.867188 16.875 182.867188 16.84375 182.867188 16.78125 C 182.867188 16.625 182.804688 16.5625 182.679688 16.5625 C 182.460938 16.5625 180.679688 17.9375 179.492188 20.46875 C 178.492188 22.65625 178.242188 24.875 178.242188 26.53125 C 178.242188 28.09375 178.460938 30.5 179.554688 32.78125 C 180.773438 35.21875 182.460938 36.53125 182.679688 36.53125 C 182.804688 36.53125 182.867188 36.46875 182.867188 36.3125 Z M 182.867188 36.3125 "/>
<path fill-rule="nonzero" fill="rgb(0%, 0%, 0%)" fill-opacity="1" d="M 191.457031 24 C 191.082031 23.25 190.519531 22.71875 189.613281 22.71875 C 187.300781 22.71875 184.832031 25.65625 184.832031 28.5625 C 184.832031 30.4375 185.925781 31.75 187.457031 31.75 C 187.863281 31.75 188.863281 31.65625 190.050781 30.25 C 190.207031 31.09375 190.925781 31.75 191.863281 31.75 C 192.582031 31.75 193.019531 31.28125 193.363281 30.65625 C 193.675781 29.9375 193.957031 28.71875 193.957031 28.6875 C 193.957031 28.46875 193.769531 28.46875 193.707031 28.46875 C 193.519531 28.46875 193.488281 28.5625 193.425781 28.84375 C 193.082031 30.125 192.738281 31.3125 191.925781 31.3125 C 191.363281 31.3125 191.332031 30.78125 191.332031 30.40625 C 191.332031 29.96875 191.363281 29.78125 191.582031 28.90625 C 191.800781 28.09375 191.832031 27.875 192.019531 27.125 L 192.738281 24.34375 C 192.863281 23.78125 192.863281 23.75 192.863281 23.65625 C 192.863281 23.3125 192.644531 23.125 192.300781 23.125 C 191.800781 23.125 191.519531 23.5625 191.457031 24 Z M 190.175781 29.15625 C 190.050781 29.53125 190.050781 29.5625 189.769531 29.90625 C 188.894531 31 188.082031 31.3125 187.519531 31.3125 C 186.519531 31.3125 186.238281 30.21875 186.238281 29.4375 C 186.238281 28.4375 186.863281 26 187.332031 25.0625 C 187.957031 23.90625 188.832031 23.15625 189.644531 23.15625 C 190.925781 23.15625 191.207031 24.78125 191.207031 24.90625 C 191.207031 25.03125 191.175781 25.15625 191.144531 25.25 Z M 190.175781 29.15625 "/>
<path fill-rule="nonzero" fill="rgb(0%, 0%, 0%)" fill-opacity="1" d="M 198.585938 17.707031 C 198.710938 17.488281 198.710938 17.363281 198.710938 17.269531 C 198.710938 16.832031 198.335938 16.519531 197.898438 16.519531 C 197.367188 16.519531 197.210938 16.957031 197.148438 17.175781 L 195.304688 23.207031 C 195.273438 23.238281 195.210938 23.394531 195.210938 23.425781 C 195.210938 23.582031 195.648438 23.738281 195.773438 23.738281 C 195.867188 23.738281 195.867188 23.707031 195.960938 23.488281 Z M 198.585938 17.707031 "/>
<path fill-rule="nonzero" fill="rgb(0%, 0%, 0%)" fill-opacity="1" d="M 205.894531 26.53125 C 205.894531 25 205.675781 22.59375 204.582031 20.3125 C 203.394531 17.875 201.675781 16.5625 201.488281 16.5625 C 201.363281 16.5625 201.269531 16.65625 201.269531 16.78125 C 201.269531 16.84375 201.269531 16.875 201.644531 17.25 C 203.613281 19.21875 204.738281 22.375 204.738281 26.53125 C 204.738281 29.96875 204.019531 33.46875 201.550781 35.96875 C 201.269531 36.21875 201.269531 36.25 201.269531 36.3125 C 201.269531 36.4375 201.363281 36.53125 201.488281 36.53125 C 201.675781 36.53125 203.488281 35.15625 204.644531 32.625 C 205.675781 30.4375 205.894531 28.21875 205.894531 26.53125 Z M 205.894531 26.53125 "/>
<path fill-rule="nonzero" fill="rgb(0%, 0%, 0%)" fill-opacity="1" stroke-width="0.3985" stroke-linecap="butt" stroke-linejoin="miter" stroke="rgb(0%, 0%, 0%)" stroke-opacity="1" stroke-miterlimit="10" d="M 61.318312 -59.909937 C 61.318312 -59.132593 60.689405 -58.499781 59.912062 -58.499781 C 59.130812 -58.499781 58.501905 -59.132593 58.501905 -59.909937 C 58.501905 -60.687281 59.130812 -61.320093 59.912062 -61.320093 C 60.689405 -61.320093 61.318312 -60.687281 61.318312 -59.909937 Z M 61.318312 -59.909937 " transform="matrix(2, 0, 0, -2, 45.004002, 47.852001)"/>
<path fill-rule="nonzero" fill="rgb(0%, 0%, 0%)" fill-opacity="1" d="M 173.664062 181.230469 C 173.664062 181.136719 173.695312 181.011719 173.695312 180.917969 C 173.695312 180.730469 173.570312 180.699219 173.476562 180.699219 C 173.257812 180.699219 173.257812 180.761719 173.164062 181.105469 L 169.851562 194.292969 C 168.351562 194.105469 167.601562 193.355469 167.601562 192.042969 C 167.601562 191.636719 167.601562 191.136719 168.664062 188.355469 C 168.757812 188.105469 168.882812 187.761719 168.882812 187.355469 C 168.882812 186.480469 168.257812 185.730469 167.257812 185.730469 C 165.351562 185.730469 164.632812 188.636719 164.632812 188.792969 C 164.632812 189.011719 164.820312 189.011719 164.851562 189.011719 C 165.070312 189.011719 165.070312 188.949219 165.164062 188.636719 C 165.726562 186.761719 166.507812 186.167969 167.195312 186.167969 C 167.351562 186.167969 167.695312 186.167969 167.695312 186.792969 C 167.695312 187.324219 167.476562 187.824219 167.226562 188.511719 C 166.257812 191.042969 166.257812 191.542969 166.257812 191.886719 C 166.257812 193.792969 167.820312 194.605469 169.726562 194.730469 C 169.570312 195.449219 169.570312 195.480469 169.289062 196.542969 C 169.257812 196.761719 168.851562 198.355469 168.851562 198.417969 C 168.851562 198.449219 168.851562 198.636719 169.070312 198.636719 C 169.132812 198.636719 169.226562 198.636719 169.257812 198.542969 C 169.320312 198.511719 169.445312 198.011719 169.507812 197.730469 L 170.257812 194.761719 C 171.007812 194.761719 172.757812 194.761719 174.632812 192.636719 C 175.445312 191.699219 175.851562 190.824219 176.070312 190.230469 C 176.257812 189.730469 176.695312 188.011719 176.695312 187.136719 C 176.695312 186.011719 176.164062 185.730469 175.820312 185.730469 C 175.320312 185.730469 174.820312 186.261719 174.820312 186.699219 C 174.820312 186.949219 174.945312 187.074219 175.132812 187.230469 C 175.351562 187.449219 175.851562 187.949219 175.851562 188.917969 C 175.851562 190.199219 174.820312 191.824219 174.101562 192.542969 C 172.351562 194.324219 171.070312 194.324219 170.351562 194.324219 Z M 173.664062 181.230469 "/>
<path fill-rule="nonzero" fill="rgb(0%, 0%, 0%)" fill-opacity="1" d="M 184.328125 199.324219 C 184.328125 199.261719 184.328125 199.230469 183.984375 198.886719 C 181.515625 196.386719 180.859375 192.605469 180.859375 189.542969 C 180.859375 186.074219 181.609375 182.605469 184.078125 180.136719 C 184.328125 179.886719 184.328125 179.855469 184.328125 179.792969 C 184.328125 179.636719 184.265625 179.574219 184.140625 179.574219 C 183.921875 179.574219 182.140625 180.949219 180.953125 183.480469 C 179.953125 185.667969 179.703125 187.886719 179.703125 189.542969 C 179.703125 191.105469 179.921875 193.511719 181.015625 195.792969 C 182.234375 198.230469 183.921875 199.542969 184.140625 199.542969 C 184.265625 199.542969 184.328125 199.480469 184.328125 199.324219 Z M 184.328125 199.324219 "/>
<path fill-rule="nonzero" fill="rgb(0%, 0%, 0%)" fill-opacity="1" d="M 192.917969 187.011719 C 192.542969 186.261719 191.980469 185.730469 191.074219 185.730469 C 188.761719 185.730469 186.292969 188.667969 186.292969 191.574219 C 186.292969 193.449219 187.386719 194.761719 188.917969 194.761719 C 189.324219 194.761719 190.324219 194.667969 191.511719 193.261719 C 191.667969 194.105469 192.386719 194.761719 193.324219 194.761719 C 194.042969 194.761719 194.480469 194.292969 194.824219 193.667969 C 195.136719 192.949219 195.417969 191.730469 195.417969 191.699219 C 195.417969 191.480469 195.230469 191.480469 195.167969 191.480469 C 194.980469 191.480469 194.949219 191.574219 194.886719 191.855469 C 194.542969 193.136719 194.199219 194.324219 193.386719 194.324219 C 192.824219 194.324219 192.792969 193.792969 192.792969 193.417969 C 192.792969 192.980469 192.824219 192.792969 193.042969 191.917969 C 193.261719 191.105469 193.292969 190.886719 193.480469 190.136719 L 194.199219 187.355469 C 194.324219 186.792969 194.324219 186.761719 194.324219 186.667969 C 194.324219 186.324219 194.105469 186.136719 193.761719 186.136719 C 193.261719 186.136719 192.980469 186.574219 192.917969 187.011719 Z M 191.636719 192.167969 C 191.511719 192.542969 191.511719 192.574219 191.230469 192.917969 C 190.355469 194.011719 189.542969 194.324219 188.980469 194.324219 C 187.980469 194.324219 187.699219 193.230469 187.699219 192.449219 C 187.699219 191.449219 188.324219 189.011719 188.792969 188.074219 C 189.417969 186.917969 190.292969 186.167969 191.105469 186.167969 C 192.386719 186.167969 192.667969 187.792969 192.667969 187.917969 C 192.667969 188.042969 192.636719 188.167969 192.605469 188.261719 Z M 191.636719 192.167969 "/>
<path fill-rule="nonzero" fill="rgb(0%, 0%, 0%)" fill-opacity="1" d="M 200.046875 180.71875 C 200.171875 180.5 200.171875 180.375 200.171875 180.28125 C 200.171875 179.84375 199.796875 179.53125 199.359375 179.53125 C 198.828125 179.53125 198.671875 179.96875 198.609375 180.1875 L 196.765625 186.21875 C 196.734375 186.25 196.671875 186.40625 196.671875 186.4375 C 196.671875 186.59375 197.109375 186.75 197.234375 186.75 C 197.328125 186.75 197.328125 186.71875 197.421875 186.5 Z M 200.046875 180.71875 "/>
<path fill-rule="nonzero" fill="rgb(0%, 0%, 0%)" fill-opacity="1" d="M 207.355469 189.542969 C 207.355469 188.011719 207.136719 185.605469 206.042969 183.324219 C 204.855469 180.886719 203.136719 179.574219 202.949219 179.574219 C 202.824219 179.574219 202.730469 179.667969 202.730469 179.792969 C 202.730469 179.855469 202.730469 179.886719 203.105469 180.261719 C 205.074219 182.230469 206.199219 185.386719 206.199219 189.542969 C 206.199219 192.980469 205.480469 196.480469 203.011719 198.980469 C 202.730469 199.230469 202.730469 199.261719 202.730469 199.324219 C 202.730469 199.449219 202.824219 199.542969 202.949219 199.542969 C 203.136719 199.542969 204.949219 198.167969 206.105469 195.636719 C 207.136719 193.449219 207.355469 191.230469 207.355469 189.542969 Z M 207.355469 189.542969 "/>
<path fill-rule="nonzero" fill="rgb(0%, 0%, 0%)" fill-opacity="1" stroke-width="0.3985" stroke-linecap="butt" stroke-linejoin="miter" stroke="rgb(0%, 0%, 0%)" stroke-opacity="1" stroke-miterlimit="10" d="M 1.408155 -59.909937 C 1.408155 -59.132593 0.779249 -58.499781 0.00190544 -58.499781 C -0.779345 -58.499781 -1.408251 -59.132593 -1.408251 -59.909937 C -1.408251 -60.687281 -0.779345 -61.320093 0.00190544 -61.320093 C 0.779249 -61.320093 1.408155 -60.687281 1.408155 -59.909937 Z M 1.408155 -59.909937 " transform="matrix(2, 0, 0, -2, 45.004002, 47.852001)"/>
<path fill-rule="nonzero" fill="rgb(0%, 0%, 0%)" fill-opacity="1" d="M 14.628906 179.480469 C 14.628906 179.386719 14.660156 179.261719 14.660156 179.167969 C 14.660156 178.980469 14.535156 178.949219 14.441406 178.949219 C 14.222656 178.949219 14.222656 179.011719 14.128906 179.355469 L 10.816406 192.542969 C 9.316406 192.355469 8.566406 191.605469 8.566406 190.292969 C 8.566406 189.886719 8.566406 189.386719 9.628906 186.605469 C 9.722656 186.355469 9.847656 186.011719 9.847656 185.605469 C 9.847656 184.730469 9.222656 183.980469 8.222656 183.980469 C 6.316406 183.980469 5.597656 186.886719 5.597656 187.042969 C 5.597656 187.261719 5.785156 187.261719 5.816406 187.261719 C 6.035156 187.261719 6.035156 187.199219 6.128906 186.886719 C 6.691406 185.011719 7.472656 184.417969 8.160156 184.417969 C 8.316406 184.417969 8.660156 184.417969 8.660156 185.042969 C 8.660156 185.574219 8.441406 186.074219 8.191406 186.761719 C 7.222656 189.292969 7.222656 189.792969 7.222656 190.136719 C 7.222656 192.042969 8.785156 192.855469 10.691406 192.980469 C 10.535156 193.699219 10.535156 193.730469 10.253906 194.792969 C 10.222656 195.011719 9.816406 196.605469 9.816406 196.667969 C 9.816406 196.699219 9.816406 196.886719 10.035156 196.886719 C 10.097656 196.886719 10.191406 196.886719 10.222656 196.792969 C 10.285156 196.761719 10.410156 196.261719 10.472656 195.980469 L 11.222656 193.011719 C 11.972656 193.011719 13.722656 193.011719 15.597656 190.886719 C 16.410156 189.949219 16.816406 189.074219 17.035156 188.480469 C 17.222656 187.980469 17.660156 186.261719 17.660156 185.386719 C 17.660156 184.261719 17.128906 183.980469 16.785156 183.980469 C 16.285156 183.980469 15.785156 184.511719 15.785156 184.949219 C 15.785156 185.199219 15.910156 185.324219 16.097656 185.480469 C 16.316406 185.699219 16.816406 186.199219 16.816406 187.167969 C 16.816406 188.449219 15.785156 190.074219 15.066406 190.792969 C 13.316406 192.574219 12.035156 192.574219 11.316406 192.574219 Z M 14.628906 179.480469 "/>
<path fill-rule="nonzero" fill="rgb(0%, 0%, 0%)" fill-opacity="1" d="M 25.292969 197.574219 C 25.292969 197.511719 25.292969 197.480469 24.949219 197.136719 C 22.480469 194.636719 21.824219 190.855469 21.824219 187.792969 C 21.824219 184.324219 22.574219 180.855469 25.042969 178.386719 C 25.292969 178.136719 25.292969 178.105469 25.292969 178.042969 C 25.292969 177.886719 25.230469 177.824219 25.105469 177.824219 C 24.886719 177.824219 23.105469 179.199219 21.917969 181.730469 C 20.917969 183.917969 20.667969 186.136719 20.667969 187.792969 C 20.667969 189.355469 20.886719 191.761719 21.980469 194.042969 C 23.199219 196.480469 24.886719 197.792969 25.105469 197.792969 C 25.230469 197.792969 25.292969 197.730469 25.292969 197.574219 Z M 25.292969 197.574219 "/>
<path fill-rule="nonzero" fill="rgb(0%, 0%, 0%)" fill-opacity="1" d="M 33.882812 185.261719 C 33.507812 184.511719 32.945312 183.980469 32.039062 183.980469 C 29.726562 183.980469 27.257812 186.917969 27.257812 189.824219 C 27.257812 191.699219 28.351562 193.011719 29.882812 193.011719 C 30.289062 193.011719 31.289062 192.917969 32.476562 191.511719 C 32.632812 192.355469 33.351562 193.011719 34.289062 193.011719 C 35.007812 193.011719 35.445312 192.542969 35.789062 191.917969 C 36.101562 191.199219 36.382812 189.980469 36.382812 189.949219 C 36.382812 189.730469 36.195312 189.730469 36.132812 189.730469 C 35.945312 189.730469 35.914062 189.824219 35.851562 190.105469 C 35.507812 191.386719 35.164062 192.574219 34.351562 192.574219 C 33.789062 192.574219 33.757812 192.042969 33.757812 191.667969 C 33.757812 191.230469 33.789062 191.042969 34.007812 190.167969 C 34.226562 189.355469 34.257812 189.136719 34.445312 188.386719 L 35.164062 185.605469 C 35.289062 185.042969 35.289062 185.011719 35.289062 184.917969 C 35.289062 184.574219 35.070312 184.386719 34.726562 184.386719 C 34.226562 184.386719 33.945312 184.824219 33.882812 185.261719 Z M 32.601562 190.417969 C 32.476562 190.792969 32.476562 190.824219 32.195312 191.167969 C 31.320312 192.261719 30.507812 192.574219 29.945312 192.574219 C 28.945312 192.574219 28.664062 191.480469 28.664062 190.699219 C 28.664062 189.699219 29.289062 187.261719 29.757812 186.324219 C 30.382812 185.167969 31.257812 184.417969 32.070312 184.417969 C 33.351562 184.417969 33.632812 186.042969 33.632812 186.167969 C 33.632812 186.292969 33.601562 186.417969 33.570312 186.511719 Z M 32.601562 190.417969 "/>
<path fill-rule="nonzero" fill="rgb(0%, 0%, 0%)" fill-opacity="1" d="M 42.726562 187.792969 C 42.726562 186.261719 42.507812 183.855469 41.414062 181.574219 C 40.226562 179.136719 38.507812 177.824219 38.320312 177.824219 C 38.195312 177.824219 38.101562 177.917969 38.101562 178.042969 C 38.101562 178.105469 38.101562 178.136719 38.476562 178.511719 C 40.445312 180.480469 41.570312 183.636719 41.570312 187.792969 C 41.570312 191.230469 40.851562 194.730469 38.382812 197.230469 C 38.101562 197.480469 38.101562 197.511719 38.101562 197.574219 C 38.101562 197.699219 38.195312 197.792969 38.320312 197.792969 C 38.507812 197.792969 40.320312 196.417969 41.476562 193.886719 C 42.507812 191.699219 42.726562 189.480469 42.726562 187.792969 Z M 42.726562 187.792969 "/>
<path fill-rule="nonzero" fill="rgb(0%, 0%, 0%)" fill-opacity="1" stroke-width="0.3985" stroke-linecap="butt" stroke-linejoin="miter" stroke="rgb(0%, 0%, 0%)" stroke-opacity="1" stroke-miterlimit="10" d="M 1.408155 -119.820093 C 1.408155 -119.042749 0.779249 -118.409937 0.00190544 -118.409937 C -0.779345 -118.409937 -1.408251 -119.042749 -1.408251 -119.820093 C -1.408251 -120.597437 -0.779345 -121.230249 0.00190544 -121.230249 C 0.779249 -121.230249 1.408155 -120.597437 1.408155 -119.820093 Z M 1.408155 -119.820093 " transform="matrix(2, 0, 0, -2, 45.004002, 47.852001)"/>
<path fill-rule="nonzero" fill="rgb(0%, 0%, 0%)" fill-opacity="1" d="M 47.175781 297.445312 C 46.800781 296.695312 46.238281 296.164062 45.332031 296.164062 C 43.019531 296.164062 40.550781 299.101562 40.550781 302.007812 C 40.550781 303.882812 41.644531 305.195312 43.175781 305.195312 C 43.582031 305.195312 44.582031 305.101562 45.769531 303.695312 C 45.925781 304.539062 46.644531 305.195312 47.582031 305.195312 C 48.300781 305.195312 48.738281 304.726562 49.082031 304.101562 C 49.394531 303.382812 49.675781 302.164062 49.675781 302.132812 C 49.675781 301.914062 49.488281 301.914062 49.425781 301.914062 C 49.238281 301.914062 49.207031 302.007812 49.144531 302.289062 C 48.800781 303.570312 48.457031 304.757812 47.644531 304.757812 C 47.082031 304.757812 47.050781 304.226562 47.050781 303.851562 C 47.050781 303.414062 47.082031 303.226562 47.300781 302.351562 C 47.519531 301.539062 47.550781 301.320312 47.738281 300.570312 L 48.457031 297.789062 C 48.582031 297.226562 48.582031 297.195312 48.582031 297.101562 C 48.582031 296.757812 48.363281 296.570312 48.019531 296.570312 C 47.519531 296.570312 47.238281 297.007812 47.175781 297.445312 Z M 45.894531 302.601562 C 45.769531 302.976562 45.769531 303.007812 45.488281 303.351562 C 44.613281 304.445312 43.800781 304.757812 43.238281 304.757812 C 42.238281 304.757812 41.957031 303.664062 41.957031 302.882812 C 41.957031 301.882812 42.582031 299.445312 43.050781 298.507812 C 43.675781 297.351562 44.550781 296.601562 45.363281 296.601562 C 46.644531 296.601562 46.925781 298.226562 46.925781 298.351562 C 46.925781 298.476562 46.894531 298.601562 46.863281 298.695312 Z M 45.894531 302.601562 "/>
<path fill-rule="nonzero" fill="rgb(0%, 0%, 0%)" fill-opacity="1" stroke-width="0.3985" stroke-linecap="butt" stroke-linejoin="miter" stroke="rgb(0%, 0%, 0%)" stroke-opacity="1" stroke-miterlimit="10" d="M 61.318312 -119.820093 C 61.318312 -119.042749 60.689405 -118.409937 59.912062 -118.409937 C 59.130812 -118.409937 58.501905 -119.042749 58.501905 -119.820093 C 58.501905 -120.597437 59.130812 -121.230249 59.912062 -121.230249 C 60.689405 -121.230249 61.318312 -120.597437 61.318312 -119.820093 Z M 61.318312 -119.820093 " transform="matrix(2, 0, 0, -2, 45.004002, 47.852001)"/>
<path fill-rule="nonzero" fill="rgb(0%, 0%, 0%)" fill-opacity="1" d="M 164.203125 304.90625 C 163.828125 304.15625 163.265625 303.625 162.359375 303.625 C 160.046875 303.625 157.578125 306.5625 157.578125 309.46875 C 157.578125 311.34375 158.671875 312.65625 160.203125 312.65625 C 160.609375 312.65625 161.609375 312.5625 162.796875 311.15625 C 162.953125 312 163.671875 312.65625 164.609375 312.65625 C 165.328125 312.65625 165.765625 312.1875 166.109375 311.5625 C 166.421875 310.84375 166.703125 309.625 166.703125 309.59375 C 166.703125 309.375 166.515625 309.375 166.453125 309.375 C 166.265625 309.375 166.234375 309.46875 166.171875 309.75 C 165.828125 311.03125 165.484375 312.21875 164.671875 312.21875 C 164.109375 312.21875 164.078125 311.6875 164.078125 311.3125 C 164.078125 310.875 164.109375 310.6875 164.328125 309.8125 C 164.546875 309 164.578125 308.78125 164.765625 308.03125 L 165.484375 305.25 C 165.609375 304.6875 165.609375 304.65625 165.609375 304.5625 C 165.609375 304.21875 165.390625 304.03125 165.046875 304.03125 C 164.546875 304.03125 164.265625 304.46875 164.203125 304.90625 Z M 162.921875 310.0625 C 162.796875 310.4375 162.796875 310.46875 162.515625 310.8125 C 161.640625 311.90625 160.828125 312.21875 160.265625 312.21875 C 159.265625 312.21875 158.984375 311.125 158.984375 310.34375 C 158.984375 309.34375 159.609375 306.90625 160.078125 305.96875 C 160.703125 304.8125 161.578125 304.0625 162.390625 304.0625 C 163.671875 304.0625 163.953125 305.6875 163.953125 305.8125 C 163.953125 305.9375 163.921875 306.0625 163.890625 306.15625 Z M 162.921875 310.0625 "/>
<path fill-rule="nonzero" fill="rgb(0%, 0%, 0%)" fill-opacity="1" d="M 171.328125 298.613281 C 171.453125 298.394531 171.453125 298.269531 171.453125 298.175781 C 171.453125 297.738281 171.078125 297.425781 170.640625 297.425781 C 170.109375 297.425781 169.953125 297.863281 169.890625 298.082031 L 168.046875 304.113281 C 168.015625 304.144531 167.953125 304.300781 167.953125 304.332031 C 167.953125 304.488281 168.390625 304.644531 168.515625 304.644531 C 168.609375 304.644531 168.609375 304.613281 168.703125 304.394531 Z M 171.328125 298.613281 "/>
<path fill="none" stroke-width="0.59776" stroke-linecap="butt" stroke-linejoin="miter" stroke="rgb(0%, 0%, 0%)" stroke-opacity="1" stroke-miterlimit="10" d="M 58.302687 0.000219345 L 2.20503 0.000219345 " transform="matrix(2, 0, 0, -2, 45.004002, 47.852001)"/>
<path fill="none" stroke-width="0.59776" stroke-linecap="round" stroke-linejoin="round" stroke="rgb(0%, 0%, 0%)" stroke-opacity="1" stroke-miterlimit="10" d="M -2.30958 2.749781 C -1.887705 1.101343 -0.946299 0.320093 -0.000986099 -0.000219345 C -0.946299 -0.320532 -1.887705 -1.101782 -2.30958 -2.750219 " transform="matrix(-2, 0, 0, 2, 48.81834, 47.852001)"/>
<path fill-rule="nonzero" fill="rgb(0%, 0%, 0%)" fill-opacity="1" d="M 84.238281 22.289062 C 84.238281 22.226562 84.300781 22.007812 84.300781 22.007812 C 84.300781 21.976562 84.300781 21.789062 84.050781 21.789062 C 83.863281 21.789062 83.832031 21.851562 83.738281 22.195312 L 82.582031 26.789062 C 79.425781 26.914062 76.488281 29.539062 76.488281 32.257812 C 76.488281 34.164062 77.894531 35.726562 80.332031 35.882812 C 80.175781 36.476562 80.019531 37.132812 79.863281 37.757812 C 79.613281 38.695312 79.425781 39.445312 79.425781 39.507812 C 79.425781 39.695312 79.582031 39.726562 79.675781 39.726562 C 79.769531 39.726562 79.800781 39.695312 79.863281 39.632812 C 79.894531 39.601562 80.019531 39.132812 80.082031 38.851562 L 80.832031 35.882812 C 84.050781 35.757812 86.957031 33.070312 86.957031 30.414062 C 86.957031 28.820312 85.894531 27.007812 83.113281 26.789062 Z M 80.425781 35.445312 C 79.238281 35.382812 77.800781 34.664062 77.800781 32.695312 C 77.800781 30.289062 79.519531 27.507812 82.488281 27.226562 Z M 82.988281 27.226562 C 84.519531 27.320312 85.644531 28.226562 85.644531 29.976562 C 85.644531 32.351562 83.925781 35.195312 80.957031 35.445312 Z M 82.988281 27.226562 "/>
<path fill-rule="nonzero" fill="rgb(0%, 0%, 0%)" fill-opacity="1" d="M 93.984375 40.414062 C 93.984375 40.351562 93.984375 40.320312 93.640625 39.976562 C 91.171875 37.476562 90.515625 33.695312 90.515625 30.632812 C 90.515625 27.164062 91.265625 23.695312 93.734375 21.226562 C 93.984375 20.976562 93.984375 20.945312 93.984375 20.882812 C 93.984375 20.726562 93.921875 20.664062 93.796875 20.664062 C 93.578125 20.664062 91.796875 22.039062 90.609375 24.570312 C 89.609375 26.757812 89.359375 28.976562 89.359375 30.632812 C 89.359375 32.195312 89.578125 34.601562 90.671875 36.882812 C 91.890625 39.320312 93.578125 40.632812 93.796875 40.632812 C 93.921875 40.632812 93.984375 40.570312 93.984375 40.414062 Z M 93.984375 40.414062 "/>
<path fill-rule="nonzero" fill="rgb(0%, 0%, 0%)" fill-opacity="1" d="M 96.046875 38.070312 C 95.890625 38.757812 95.828125 38.882812 94.953125 38.882812 C 94.734375 38.882812 94.515625 38.882812 94.515625 39.257812 C 94.515625 39.414062 94.609375 39.507812 94.765625 39.507812 C 95.296875 39.507812 95.890625 39.445312 96.421875 39.445312 C 97.109375 39.445312 97.765625 39.507812 98.421875 39.507812 C 98.515625 39.507812 98.765625 39.507812 98.765625 39.101562 C 98.765625 38.882812 98.578125 38.882812 98.296875 38.882812 C 97.296875 38.882812 97.296875 38.757812 97.296875 38.570312 C 97.296875 38.320312 98.140625 35.070312 98.265625 34.570312 C 98.515625 35.164062 99.078125 35.851562 100.109375 35.851562 C 102.421875 35.851562 104.921875 32.945312 104.921875 30.007812 C 104.921875 28.132812 103.765625 26.820312 102.265625 26.820312 C 101.265625 26.820312 100.296875 27.539062 99.640625 28.320312 C 99.453125 27.226562 98.578125 26.820312 97.859375 26.820312 C 96.921875 26.820312 96.546875 27.601562 96.390625 27.945312 C 96.015625 28.632812 95.765625 29.820312 95.765625 29.882812 C 95.765625 30.101562 95.953125 30.101562 95.984375 30.101562 C 96.203125 30.101562 96.203125 30.070312 96.328125 29.632812 C 96.671875 28.226562 97.078125 27.257812 97.796875 27.257812 C 98.140625 27.257812 98.421875 27.414062 98.421875 28.164062 C 98.421875 28.632812 98.359375 28.851562 98.265625 29.195312 Z M 99.546875 29.414062 C 99.671875 28.882812 100.234375 28.320312 100.578125 28.007812 C 101.296875 27.414062 101.859375 27.257812 102.203125 27.257812 C 102.984375 27.257812 103.484375 27.945312 103.484375 29.132812 C 103.484375 30.320312 102.828125 32.601562 102.453125 33.351562 C 101.765625 34.757812 100.828125 35.414062 100.078125 35.414062 C 98.765625 35.414062 98.515625 33.757812 98.515625 33.632812 C 98.515625 33.601562 98.515625 33.570312 98.578125 33.320312 Z M 99.546875 29.414062 "/>
<path fill-rule="nonzero" fill="rgb(0%, 0%, 0%)" fill-opacity="1" d="M 110.914062 30.632812 C 110.914062 29.101562 110.695312 26.695312 109.601562 24.414062 C 108.414062 21.976562 106.695312 20.664062 106.507812 20.664062 C 106.382812 20.664062 106.289062 20.757812 106.289062 20.882812 C 106.289062 20.945312 106.289062 20.976562 106.664062 21.351562 C 108.632812 23.320312 109.757812 26.476562 109.757812 30.632812 C 109.757812 34.070312 109.039062 37.570312 106.570312 40.070312 C 106.289062 40.320312 106.289062 40.351562 106.289062 40.414062 C 106.289062 40.539062 106.382812 40.632812 106.507812 40.632812 C 106.695312 40.632812 108.507812 39.257812 109.664062 36.726562 C 110.695312 34.539062 110.914062 32.320312 110.914062 30.632812 Z M 110.914062 30.632812 "/>
<path fill-rule="nonzero" fill="rgb(0%, 0%, 0%)" fill-opacity="1" d="M 123.289062 25.246094 C 123.507812 25.246094 123.851562 25.246094 123.851562 24.933594 C 123.851562 24.558594 123.507812 24.558594 123.289062 24.558594 L 114.976562 24.558594 C 114.757812 24.558594 114.414062 24.558594 114.414062 24.902344 C 114.414062 25.246094 114.726562 25.246094 114.976562 25.246094 Z M 123.289062 25.246094 "/>
<path fill-rule="nonzero" fill="rgb(0%, 0%, 0%)" fill-opacity="1" d="M 130.023438 19.527344 C 130.023438 19.152344 130.023438 19.152344 129.617188 19.152344 C 128.710938 20.027344 127.460938 20.027344 126.898438 20.027344 L 126.898438 20.527344 C 127.210938 20.527344 128.148438 20.527344 128.898438 20.152344 L 128.898438 27.246094 C 128.898438 27.714844 128.898438 27.902344 127.523438 27.902344 L 126.992188 27.902344 L 126.992188 28.402344 C 127.242188 28.402344 128.960938 28.339844 129.460938 28.339844 C 129.898438 28.339844 131.648438 28.402344 131.960938 28.402344 L 131.960938 27.902344 L 131.429688 27.902344 C 130.023438 27.902344 130.023438 27.714844 130.023438 27.246094 Z M 130.023438 19.527344 "/>
<path fill="none" stroke-width="0.59776" stroke-linecap="butt" stroke-linejoin="miter" stroke="rgb(0%, 0%, 0%)" stroke-opacity="1" stroke-miterlimit="10" d="M 1.607374 -59.909937 L 57.70503 -59.909937 " transform="matrix(2, 0, 0, -2, 45.004002, 47.852001)"/>
<path fill="none" stroke-width="0.59776" stroke-linecap="round" stroke-linejoin="round" stroke="rgb(0%, 0%, 0%)" stroke-opacity="1" stroke-miterlimit="10" d="M -2.309731 2.750282 C -1.887856 1.101845 -0.946449 0.320595 -0.00113678 0.000282288 C -0.946449 -0.32003 -1.887856 -1.10128 -2.309731 -2.749718 " transform="matrix(2, 0, 0, -2, 161.010086, 167.67244)"/>
<path fill-rule="nonzero" fill="rgb(0%, 0%, 0%)" fill-opacity="1" d="M 94.929688 142.140625 C 94.929688 142.046875 94.960938 141.921875 94.960938 141.828125 C 94.960938 141.640625 94.835938 141.609375 94.742188 141.609375 C 94.523438 141.609375 94.523438 141.671875 94.429688 142.015625 L 91.117188 155.203125 C 89.617188 155.015625 88.867188 154.265625 88.867188 152.953125 C 88.867188 152.546875 88.867188 152.046875 89.929688 149.265625 C 90.023438 149.015625 90.148438 148.671875 90.148438 148.265625 C 90.148438 147.390625 89.523438 146.640625 88.523438 146.640625 C 86.617188 146.640625 85.898438 149.546875 85.898438 149.703125 C 85.898438 149.921875 86.085938 149.921875 86.117188 149.921875 C 86.335938 149.921875 86.335938 149.859375 86.429688 149.546875 C 86.992188 147.671875 87.773438 147.078125 88.460938 147.078125 C 88.617188 147.078125 88.960938 147.078125 88.960938 147.703125 C 88.960938 148.234375 88.742188 148.734375 88.492188 149.421875 C 87.523438 151.953125 87.523438 152.453125 87.523438 152.796875 C 87.523438 154.703125 89.085938 155.515625 90.992188 155.640625 C 90.835938 156.359375 90.835938 156.390625 90.554688 157.453125 C 90.523438 157.671875 90.117188 159.265625 90.117188 159.328125 C 90.117188 159.359375 90.117188 159.546875 90.335938 159.546875 C 90.398438 159.546875 90.492188 159.546875 90.523438 159.453125 C 90.585938 159.421875 90.710938 158.921875 90.773438 158.640625 L 91.523438 155.671875 C 92.273438 155.671875 94.023438 155.671875 95.898438 153.546875 C 96.710938 152.609375 97.117188 151.734375 97.335938 151.140625 C 97.523438 150.640625 97.960938 148.921875 97.960938 148.046875 C 97.960938 146.921875 97.429688 146.640625 97.085938 146.640625 C 96.585938 146.640625 96.085938 147.171875 96.085938 147.609375 C 96.085938 147.859375 96.210938 147.984375 96.398438 148.140625 C 96.617188 148.359375 97.117188 148.859375 97.117188 149.828125 C 97.117188 151.109375 96.085938 152.734375 95.367188 153.453125 C 93.617188 155.234375 92.335938 155.234375 91.617188 155.234375 Z M 94.929688 142.140625 "/>
<path fill-rule="nonzero" fill="rgb(0%, 0%, 0%)" fill-opacity="1" d="M 105.59375 160.234375 C 105.59375 160.171875 105.59375 160.140625 105.25 159.796875 C 102.78125 157.296875 102.125 153.515625 102.125 150.453125 C 102.125 146.984375 102.875 143.515625 105.34375 141.046875 C 105.59375 140.796875 105.59375 140.765625 105.59375 140.703125 C 105.59375 140.546875 105.53125 140.484375 105.40625 140.484375 C 105.1875 140.484375 103.40625 141.859375 102.21875 144.390625 C 101.21875 146.578125 100.96875 148.796875 100.96875 150.453125 C 100.96875 152.015625 101.1875 154.421875 102.28125 156.703125 C 103.5 159.140625 105.1875 160.453125 105.40625 160.453125 C 105.53125 160.453125 105.59375 160.390625 105.59375 160.234375 Z M 105.59375 160.234375 "/>
<path fill-rule="nonzero" fill="rgb(0%, 0%, 0%)" fill-opacity="1" d="M 107.652344 157.890625 C 107.496094 158.578125 107.433594 158.703125 106.558594 158.703125 C 106.339844 158.703125 106.121094 158.703125 106.121094 159.078125 C 106.121094 159.234375 106.214844 159.328125 106.371094 159.328125 C 106.902344 159.328125 107.496094 159.265625 108.027344 159.265625 C 108.714844 159.265625 109.371094 159.328125 110.027344 159.328125 C 110.121094 159.328125 110.371094 159.328125 110.371094 158.921875 C 110.371094 158.703125 110.183594 158.703125 109.902344 158.703125 C 108.902344 158.703125 108.902344 158.578125 108.902344 158.390625 C 108.902344 158.140625 109.746094 154.890625 109.871094 154.390625 C 110.121094 154.984375 110.683594 155.671875 111.714844 155.671875 C 114.027344 155.671875 116.527344 152.765625 116.527344 149.828125 C 116.527344 147.953125 115.371094 146.640625 113.871094 146.640625 C 112.871094 146.640625 111.902344 147.359375 111.246094 148.140625 C 111.058594 147.046875 110.183594 146.640625 109.464844 146.640625 C 108.527344 146.640625 108.152344 147.421875 107.996094 147.765625 C 107.621094 148.453125 107.371094 149.640625 107.371094 149.703125 C 107.371094 149.921875 107.558594 149.921875 107.589844 149.921875 C 107.808594 149.921875 107.808594 149.890625 107.933594 149.453125 C 108.277344 148.046875 108.683594 147.078125 109.402344 147.078125 C 109.746094 147.078125 110.027344 147.234375 110.027344 147.984375 C 110.027344 148.453125 109.964844 148.671875 109.871094 149.015625 Z M 111.152344 149.234375 C 111.277344 148.703125 111.839844 148.140625 112.183594 147.828125 C 112.902344 147.234375 113.464844 147.078125 113.808594 147.078125 C 114.589844 147.078125 115.089844 147.765625 115.089844 148.953125 C 115.089844 150.140625 114.433594 152.421875 114.058594 153.171875 C 113.371094 154.578125 112.433594 155.234375 111.683594 155.234375 C 110.371094 155.234375 110.121094 153.578125 110.121094 153.453125 C 110.121094 153.421875 110.121094 153.390625 110.183594 153.140625 Z M 111.152344 149.234375 "/>
<path fill-rule="nonzero" fill="rgb(0%, 0%, 0%)" fill-opacity="1" d="M 122.523438 150.453125 C 122.523438 148.921875 122.304688 146.515625 121.210938 144.234375 C 120.023438 141.796875 118.304688 140.484375 118.117188 140.484375 C 117.992188 140.484375 117.898438 140.578125 117.898438 140.703125 C 117.898438 140.765625 117.898438 140.796875 118.273438 141.171875 C 120.242188 143.140625 121.367188 146.296875 121.367188 150.453125 C 121.367188 153.890625 120.648438 157.390625 118.179688 159.890625 C 117.898438 160.140625 117.898438 160.171875 117.898438 160.234375 C 117.898438 160.359375 117.992188 160.453125 118.117188 160.453125 C 118.304688 160.453125 120.117188 159.078125 121.273438 156.546875 C 122.304688 154.359375 122.523438 152.140625 122.523438 150.453125 Z M 122.523438 150.453125 "/>
<path fill="none" stroke-width="0.59776" stroke-linecap="butt" stroke-linejoin="miter" stroke="rgb(0%, 0%, 0%)" stroke-opacity="1" stroke-miterlimit="10" d="M 0.00190544 -1.609156 L 0.00190544 -57.702906 " transform="matrix(2, 0, 0, -2, 45.004002, 47.852001)"/>
<path fill="none" stroke-width="0.59776" stroke-linecap="round" stroke-linejoin="round" stroke="rgb(0%, 0%, 0%)" stroke-opacity="1" stroke-miterlimit="10" d="M -2.311852 2.751905 C -1.889977 1.099562 -0.94857 0.322218 0.000648499 0.00190544 C -0.94857 -0.322313 -1.889977 -1.099657 -2.311852 -2.752001 " transform="matrix(0, 2, 2, 0, 45.004002, 163.858078)"/>
<path fill-rule="nonzero" fill="rgb(0%, 0%, 0%)" fill-opacity="1" d="M 37.15625 101.519531 C 37.15625 101.425781 37.09375 101.332031 36.96875 101.332031 C 36.75 101.332031 35.9375 102.113281 35.625 102.707031 C 35.1875 101.613281 34.40625 101.300781 33.75 101.300781 C 31.40625 101.300781 28.96875 104.238281 28.96875 107.144531 C 28.96875 109.082031 30.125 110.332031 31.59375 110.332031 C 32.4375 110.332031 33.21875 109.863281 33.9375 109.144531 C 33.75 109.832031 33.09375 112.519531 33.03125 112.707031 C 32.875 113.269531 32.71875 113.332031 31.59375 113.363281 C 31.34375 113.363281 31.15625 113.363281 31.15625 113.769531 C 31.15625 113.769531 31.15625 113.988281 31.40625 113.988281 C 32.03125 113.988281 32.75 113.925781 33.40625 113.925781 C 34.0625 113.925781 34.78125 113.988281 35.46875 113.988281 C 35.5625 113.988281 35.8125 113.988281 35.8125 113.582031 C 35.8125 113.363281 35.625 113.363281 35.28125 113.363281 C 34.34375 113.363281 34.34375 113.238281 34.34375 113.050781 C 34.34375 112.894531 34.375 112.769531 34.40625 112.613281 Z M 31.65625 109.894531 C 30.4375 109.894531 30.375 108.363281 30.375 108.019531 C 30.375 107.050781 30.9375 104.894531 31.28125 104.050781 C 31.90625 102.582031 32.9375 101.738281 33.75 101.738281 C 35.0625 101.738281 35.34375 103.363281 35.34375 103.488281 C 35.34375 103.613281 34.25 107.988281 34.1875 108.050781 C 33.875 108.613281 32.75 109.894531 31.65625 109.894531 Z M 31.65625 109.894531 "/>
<path fill="none" stroke-width="0.59776" stroke-linecap="butt" stroke-linejoin="miter" stroke="rgb(0%, 0%, 0%)" stroke-opacity="1" stroke-miterlimit="10" d="M 1.607374 -119.820093 L 57.70503 -119.820093 " transform="matrix(2, 0, 0, -2, 45.004002, 47.852001)"/>
<path fill="none" stroke-width="0.59776" stroke-linecap="round" stroke-linejoin="round" stroke="rgb(0%, 0%, 0%)" stroke-opacity="1" stroke-miterlimit="10" d="M -2.309731 2.750336 C -1.887856 1.101898 -0.946449 0.320648 -0.00113678 0.000335693 C -0.946449 -0.319977 -1.887856 -1.101227 -2.309731 -2.749664 " transform="matrix(2, 0, 0, -2, 161.010086, 287.492859)"/>
<path fill-rule="nonzero" fill="rgb(0%, 0%, 0%)" fill-opacity="1" d="M 100.808594 278.816406 C 100.652344 279.503906 100.589844 279.628906 99.714844 279.628906 C 99.496094 279.628906 99.277344 279.628906 99.277344 280.003906 C 99.277344 280.160156 99.371094 280.253906 99.527344 280.253906 C 100.058594 280.253906 100.652344 280.191406 101.183594 280.191406 C 101.871094 280.191406 102.527344 280.253906 103.183594 280.253906 C 103.277344 280.253906 103.527344 280.253906 103.527344 279.847656 C 103.527344 279.628906 103.339844 279.628906 103.058594 279.628906 C 102.058594 279.628906 102.058594 279.503906 102.058594 279.316406 C 102.058594 279.066406 102.902344 275.816406 103.027344 275.316406 C 103.277344 275.910156 103.839844 276.597656 104.871094 276.597656 C 107.183594 276.597656 109.683594 273.691406 109.683594 270.753906 C 109.683594 268.878906 108.527344 267.566406 107.027344 267.566406 C 106.027344 267.566406 105.058594 268.285156 104.402344 269.066406 C 104.214844 267.972656 103.339844 267.566406 102.621094 267.566406 C 101.683594 267.566406 101.308594 268.347656 101.152344 268.691406 C 100.777344 269.378906 100.527344 270.566406 100.527344 270.628906 C 100.527344 270.847656 100.714844 270.847656 100.746094 270.847656 C 100.964844 270.847656 100.964844 270.816406 101.089844 270.378906 C 101.433594 268.972656 101.839844 268.003906 102.558594 268.003906 C 102.902344 268.003906 103.183594 268.160156 103.183594 268.910156 C 103.183594 269.378906 103.121094 269.597656 103.027344 269.941406 Z M 104.308594 270.160156 C 104.433594 269.628906 104.996094 269.066406 105.339844 268.753906 C 106.058594 268.160156 106.621094 268.003906 106.964844 268.003906 C 107.746094 268.003906 108.246094 268.691406 108.246094 269.878906 C 108.246094 271.066406 107.589844 273.347656 107.214844 274.097656 C 106.527344 275.503906 105.589844 276.160156 104.839844 276.160156 C 103.527344 276.160156 103.277344 274.503906 103.277344 274.378906 C 103.277344 274.347656 103.277344 274.316406 103.339844 274.066406 Z M 104.308594 270.160156 "/>
</svg>
