<?xml version="1.0" encoding="UTF-8"?>
<svg xmlns="http://www.w3.org/2000/svg" xmlns:xlink="http://www.w3.org/1999/xlink" width="223.259995" height="105.919998" viewBox="0 0 223.259995 105.919998">
<path fill-rule="nonzero" fill="rgb(0%, 0%, 0%)" fill-opacity="1" d="M 23.492188 11.96875 L 23.929688 11.3125 L 21.335938 21.21875 C 21.210938 21.6875 21.117188 22.03125 20.960938 22.3125 C 20.804688 22.78125 20.398438 23.28125 19.960938 23.46875 C 19.742188 23.5625 19.429688 23.625 19.117188 23.625 L 19.023438 23.90625 L 24.773438 23.90625 L 24.867188 23.625 C 24.242188 23.625 23.742188 23.5625 23.492188 23.375 C 23.210938 23.15625 23.148438 22.71875 23.148438 22.3125 C 23.148438 22 23.210938 21.5625 23.367188 21.03125 L 25.335938 13.5625 C 25.492188 12.9375 25.617188 12.4375 25.742188 12.0625 C 25.960938 11.46875 26.398438 10.8125 26.835938 10.5 C 27.054688 10.375 27.335938 10.34375 27.679688 10.34375 L 27.773438 10.0625 L 24.179688 10.0625 L 17.492188 20.78125 L 17.210938 20.78125 L 15.929688 10.0625 L 11.648438 10.0625 L 11.554688 10.34375 C 12.179688 10.34375 12.585938 10.34375 12.804688 10.46875 C 13.085938 10.59375 13.429688 11.09375 13.429688 11.46875 C 13.429688 11.78125 13.367188 12.28125 13.179688 12.9375 L 10.992188 21.21875 C 10.835938 21.84375 10.335938 22.53125 9.867188 22.9375 C 9.429688 23.34375 8.742188 23.625 8.179688 23.625 L 8.117188 23.90625 L 13.085938 23.90625 L 13.179688 23.625 C 12.710938 23.59375 12.179688 23.5 11.960938 23.1875 C 11.742188 22.875 11.429688 22.34375 11.429688 21.84375 C 11.429688 21.5625 11.429688 21.28125 11.492188 21.03125 L 13.898438 11.96875 L 14.023438 11.53125 L 15.492188 23.90625 L 16.085938 23.90625 Z M 23.492188 11.96875 "/>
<path fill-rule="nonzero" fill="rgb(0%, 0%, 0%)" fill-opacity="1" d="M 30.96875 21.128906 C 30.34375 21.128906 29.6875 21.628906 29.21875 22.253906 L 29.125 22.253906 L 30.625 16.785156 L 28.375 16.878906 L 28.28125 17.097656 C 28.875 17.097656 29.34375 17.222656 29.34375 17.660156 C 29.34375 17.722656 29.3125 17.910156 29.25 18.097656 L 26.71875 27.472656 L 27.6875 27.472656 L 28.40625 24.910156 L 28.78125 24.785156 L 29.5625 26.660156 C 29.71875 27.003906 29.84375 27.253906 29.96875 27.410156 C 30.09375 27.535156 30.25 27.597656 30.4375 27.597656 C 31.375 27.597656 31.6875 27.003906 32.1875 25.816406 L 31.9375 25.691406 C 31.65625 26.285156 31.4375 26.878906 31 26.878906 C 30.8125 26.878906 30.5625 26.316406 30.40625 25.878906 L 29.78125 24.347656 L 30.0625 24.191406 C 30.71875 23.878906 31.3125 23.566406 31.6875 23.191406 C 32.0625 22.847656 32.28125 22.472656 32.28125 22.097656 C 32.28125 21.441406 31.8125 21.128906 30.96875 21.128906 Z M 28.59375 24.472656 C 28.71875 23.878906 29.21875 22.722656 29.59375 22.347656 C 29.84375 22.035156 30.375 21.441406 30.84375 21.441406 C 31.375 21.441406 31.375 21.910156 31.375 22.222656 C 31.34375 23.316406 29.40625 24.128906 28.59375 24.472656 Z M 28.59375 24.472656 "/>
<path fill-rule="nonzero" fill="rgb(0%, 0%, 0%)" fill-opacity="1" d="M 50.308594 23.21875 L 45.871094 18.78125 L 50.308594 14.34375 L 49.527344 13.53125 L 45.089844 18 L 40.652344 13.53125 L 39.871094 14.34375 L 44.277344 18.78125 L 39.871094 23.21875 L 40.652344 24 L 45.089844 19.5625 L 49.527344 24 Z M 50.308594 23.21875 "/>
<path fill-rule="nonzero" fill="rgb(0%, 0%, 0%)" fill-opacity="1" d="M 66.078125 15.3125 C 66.078125 12.4375 65.203125 10.125 63.046875 10.125 C 61.359375 10.125 59.546875 11.71875 59.546875 12.59375 C 59.546875 13.25 60.078125 13.53125 60.484375 13.53125 C 60.890625 13.53125 61.140625 13.1875 61.203125 13.125 C 61.140625 13.09375 61.015625 12.90625 61.015625 12.625 C 61.015625 12.4375 61.359375 10.71875 63.078125 10.71875 C 64.515625 10.71875 64.828125 12.5625 64.828125 14.1875 C 64.828125 15.40625 64.671875 16.46875 64.671875 16.5 L 64.640625 16.5 C 64.640625 16.46875 63.859375 15.25 62.296875 15.25 C 58.296875 15.25 56.640625 19.125 56.640625 21.1875 C 56.640625 23.03125 57.734375 24.21875 59.953125 24.21875 C 63.390625 24.21875 66.078125 20.75 66.078125 15.3125 Z M 63.796875 17.5625 C 63.796875 18.09375 63.296875 23.75 60.078125 23.75 C 58.953125 23.75 58.453125 23.09375 58.453125 21.84375 C 58.453125 20.5625 59.265625 15.71875 62.140625 15.71875 C 63.265625 15.71875 63.796875 16.375 63.796875 17.5625 Z M 63.796875 17.5625 "/>
<path fill-rule="nonzero" fill="rgb(0%, 0%, 0%)" fill-opacity="1" d="M 71.46875 20.1875 L 72.25 17.40625 L 73.53125 17.40625 C 76.25 17.40625 78.53125 16.5625 79.53125 14.875 C 79.875 14.34375 80.03125 13.78125 80.03125 13.125 C 80.03125 12.15625 79.59375 11.4375 78.71875 10.875 C 77.875 10.34375 76.65625 10.0625 75.125 10.0625 L 70.125 10.0625 L 70.03125 10.34375 C 70.40625 10.34375 70.6875 10.375 70.9375 10.40625 C 71.5 10.5 71.78125 11.125 71.78125 11.75 C 71.78125 12.09375 71.71875 12.53125 71.5625 13.09375 L 69.40625 21.03125 C 69.21875 21.78125 68.90625 22.6875 68.53125 23.0625 C 68.1875 23.375 67.625 23.625 67.0625 23.625 L 66.96875 23.90625 L 72.9375 23.90625 L 73.03125 23.625 C 71.65625 23.625 71.0625 22.875 71.0625 22.15625 C 71.0625 22 71.125 21.625 71.21875 21.28125 C 71.28125 20.96875 71.34375 20.59375 71.46875 20.1875 Z M 72.34375 17 L 73.59375 12.15625 C 73.8125 11.5 73.96875 10.71875 74.5625 10.5 C 74.6875 10.46875 74.90625 10.46875 75.125 10.46875 C 77.0625 10.46875 78.03125 11.59375 78.03125 13.03125 C 78.03125 13.5625 77.90625 14.03125 77.6875 14.4375 C 76.90625 15.75 75.28125 17 73.25 17 Z M 72.34375 17 "/>
<path fill-rule="nonzero" fill="rgb(0%, 0%, 0%)" fill-opacity="1" d="M 88.082031 9.625 C 85.207031 11.5 83.175781 14.71875 83.175781 18.78125 C 83.175781 22.5 85.269531 26.25 88.019531 27.9375 L 88.269531 27.625 C 85.644531 25.53125 84.863281 23.125 84.863281 18.71875 C 84.863281 14.28125 85.707031 12 88.269531 9.9375 Z M 88.082031 9.625 "/>
<path fill-rule="nonzero" fill="rgb(0%, 0%, 0%)" fill-opacity="1" d="M 95.453125 15.1875 C 94.609375 15.1875 93.703125 15.90625 93.078125 16.75 L 92.921875 16.71875 L 94.984375 9.21875 L 91.890625 9.40625 L 91.796875 9.65625 C 92.609375 9.65625 93.234375 9.84375 93.234375 10.4375 C 93.234375 10.5625 93.203125 10.78125 93.140625 11.03125 L 89.609375 23.90625 L 90.984375 23.90625 L 91.953125 20.40625 L 92.453125 20.25 L 93.515625 22.8125 C 93.734375 23.28125 93.921875 23.625 94.078125 23.8125 C 94.265625 24 94.453125 24.0625 94.734375 24.0625 C 96.015625 24.0625 96.453125 23.25 97.140625 21.625 L 96.796875 21.46875 C 96.390625 22.28125 96.109375 23.09375 95.515625 23.09375 C 95.234375 23.09375 94.921875 22.34375 94.703125 21.71875 L 93.828125 19.59375 L 94.234375 19.40625 C 95.140625 18.96875 95.953125 18.53125 96.484375 18.03125 C 96.953125 17.53125 97.265625 17.03125 97.265625 16.53125 C 97.265625 15.625 96.609375 15.1875 95.453125 15.1875 Z M 92.203125 19.78125 C 92.359375 18.96875 93.078125 17.40625 93.578125 16.875 C 93.921875 16.4375 94.671875 15.625 95.296875 15.625 C 96.046875 15.625 96.046875 16.28125 96.046875 16.6875 C 96.015625 18.1875 93.328125 19.3125 92.203125 19.78125 Z M 92.203125 19.78125 "/>
<path fill-rule="nonzero" fill="rgb(0%, 0%, 0%)" fill-opacity="1" d="M 99.4375 9.625 L 99.28125 9.9375 C 101.84375 12 102.65625 14.28125 102.65625 18.71875 C 102.65625 23.125 101.90625 25.53125 99.28125 27.625 L 99.5 27.9375 C 102.25 26.25 104.375 22.5 104.375 18.78125 C 104.375 14.71875 102.34375 11.5 99.4375 9.625 Z M 99.4375 9.625 "/>
<path fill-rule="nonzero" fill="rgb(0%, 0%, 0%)" fill-opacity="1" d="M 191.71875 11.96875 L 192.15625 11.3125 L 189.5625 21.21875 C 189.4375 21.6875 189.34375 22.03125 189.1875 22.3125 C 189.03125 22.78125 188.625 23.28125 188.1875 23.46875 C 187.96875 23.5625 187.65625 23.625 187.34375 23.625 L 187.25 23.90625 L 193 23.90625 L 193.09375 23.625 C 192.46875 23.625 191.96875 23.5625 191.71875 23.375 C 191.4375 23.15625 191.375 22.71875 191.375 22.3125 C 191.375 22 191.4375 21.5625 191.59375 21.03125 L 193.5625 13.5625 C 193.71875 12.9375 193.84375 12.4375 193.96875 12.0625 C 194.1875 11.46875 194.625 10.8125 195.0625 10.5 C 195.28125 10.375 195.5625 10.34375 195.90625 10.34375 L 196 10.0625 L 192.40625 10.0625 L 185.71875 20.78125 L 185.4375 20.78125 L 184.15625 10.0625 L 179.875 10.0625 L 179.78125 10.34375 C 180.40625 10.34375 180.8125 10.34375 181.03125 10.46875 C 181.3125 10.59375 181.65625 11.09375 181.65625 11.46875 C 181.65625 11.78125 181.59375 12.28125 181.40625 12.9375 L 179.21875 21.21875 C 179.0625 21.84375 178.5625 22.53125 178.09375 22.9375 C 177.65625 23.34375 176.96875 23.625 176.40625 23.625 L 176.34375 23.90625 L 181.3125 23.90625 L 181.40625 23.625 C 180.9375 23.59375 180.40625 23.5 180.1875 23.1875 C 179.96875 22.875 179.65625 22.34375 179.65625 21.84375 C 179.65625 21.5625 179.65625 21.28125 179.71875 21.03125 L 182.125 11.96875 L 182.25 11.53125 L 183.71875 23.90625 L 184.3125 23.90625 Z M 191.71875 11.96875 "/>
<path fill-rule="nonzero" fill="rgb(0%, 0%, 0%)" fill-opacity="1" d="M 199.195312 21.128906 C 198.570312 21.128906 197.914062 21.628906 197.445312 22.253906 L 197.351562 22.253906 L 198.851562 16.785156 L 196.601562 16.878906 L 196.507812 17.097656 C 197.101562 17.097656 197.570312 17.222656 197.570312 17.660156 C 197.570312 17.722656 197.539062 17.910156 197.476562 18.097656 L 194.945312 27.472656 L 195.914062 27.472656 L 196.632812 24.910156 L 197.007812 24.785156 L 197.789062 26.660156 C 197.945312 27.003906 198.070312 27.253906 198.195312 27.410156 C 198.320312 27.535156 198.476562 27.597656 198.664062 27.597656 C 199.601562 27.597656 199.914062 27.003906 200.414062 25.816406 L 200.164062 25.691406 C 199.882812 26.285156 199.664062 26.878906 199.226562 26.878906 C 199.039062 26.878906 198.789062 26.316406 198.632812 25.878906 L 198.007812 24.347656 L 198.289062 24.191406 C 198.945312 23.878906 199.539062 23.566406 199.914062 23.191406 C 200.289062 22.847656 200.507812 22.472656 200.507812 22.097656 C 200.507812 21.441406 200.039062 21.128906 199.195312 21.128906 Z M 196.820312 24.472656 C 196.945312 23.878906 197.445312 22.722656 197.820312 22.347656 C 198.070312 22.035156 198.601562 21.441406 199.070312 21.441406 C 199.601562 21.441406 199.601562 21.910156 199.601562 22.222656 C 199.570312 23.316406 197.632812 24.128906 196.820312 24.472656 Z M 196.820312 24.472656 "/>
<path fill-rule="nonzero" fill="rgb(0%, 0%, 0%)" fill-opacity="1" d="M 37.910156 80.257812 L 38.347656 79.601562 L 35.753906 89.507812 C 35.628906 89.976562 35.535156 90.320312 35.378906 90.601562 C 35.222656 91.070312 34.816406 91.570312 34.378906 91.757812 C 34.160156 91.851562 33.847656 91.914062 33.535156 91.914062 L 33.441406 92.195312 L 39.191406 92.195312 L 39.285156 91.914062 C 38.660156 91.914062 38.160156 91.851562 37.910156 91.664062 C 37.628906 91.445312 37.566406 91.007812 37.566406 90.601562 C 37.566406 90.289062 37.628906 89.851562 37.785156 89.320312 L 39.753906 81.851562 C 39.910156 81.226562 40.035156 80.726562 40.160156 80.351562 C 40.378906 79.757812 40.816406 79.101562 41.253906 78.789062 C 41.472656 78.664062 41.753906 78.632812 42.097656 78.632812 L 42.191406 78.351562 L 38.597656 78.351562 L 31.910156 89.070312 L 31.628906 89.070312 L 30.347656 78.351562 L 26.066406 78.351562 L 25.972656 78.632812 C 26.597656 78.632812 27.003906 78.632812 27.222656 78.757812 C 27.503906 78.882812 27.847656 79.382812 27.847656 79.757812 C 27.847656 80.070312 27.785156 80.570312 27.597656 81.226562 L 25.410156 89.507812 C 25.253906 90.132812 24.753906 90.820312 24.285156 91.226562 C 23.847656 91.632812 23.160156 91.914062 22.597656 91.914062 L 22.535156 92.195312 L 27.503906 92.195312 L 27.597656 91.914062 C 27.128906 91.882812 26.597656 91.789062 26.378906 91.476562 C 26.160156 91.164062 25.847656 90.632812 25.847656 90.132812 C 25.847656 89.851562 25.847656 89.570312 25.910156 89.320312 L 28.316406 80.257812 L 28.441406 79.820312 L 29.910156 92.195312 L 30.503906 92.195312 Z M 37.910156 80.257812 "/>
<path fill-rule="nonzero" fill="rgb(0%, 0%, 0%)" fill-opacity="1" d="M 50.351562 94.730469 L 50.351562 93.886719 L 44.289062 91.074219 L 50.351562 88.230469 L 50.351562 87.417969 L 42.914062 90.949219 L 42.914062 91.230469 Z M 50.351562 96.605469 L 50.351562 95.824219 L 42.914062 95.824219 L 42.914062 96.605469 Z M 50.351562 96.605469 "/>
<path fill-rule="nonzero" fill="rgb(0%, 0%, 0%)" fill-opacity="1" d="M 57.578125 85.355469 C 55.484375 86.699219 53.984375 89.074219 53.984375 92.011719 C 53.984375 94.730469 55.546875 97.449219 57.546875 98.699219 L 57.703125 98.449219 C 55.796875 96.949219 55.234375 95.199219 55.234375 91.980469 C 55.234375 88.761719 55.828125 87.074219 57.703125 85.574219 Z M 57.578125 85.355469 "/>
<path fill-rule="nonzero" fill="rgb(0%, 0%, 0%)" fill-opacity="1" d="M 63.117188 89.417969 C 62.492188 89.417969 61.835938 89.917969 61.367188 90.542969 L 61.273438 90.542969 L 62.773438 85.074219 L 60.523438 85.167969 L 60.429688 85.386719 C 61.023438 85.386719 61.492188 85.511719 61.492188 85.949219 C 61.492188 86.011719 61.460938 86.199219 61.398438 86.386719 L 58.867188 95.761719 L 59.835938 95.761719 L 60.554688 93.199219 L 60.929688 93.074219 L 61.710938 94.949219 C 61.867188 95.292969 61.992188 95.542969 62.117188 95.699219 C 62.242188 95.824219 62.398438 95.886719 62.585938 95.886719 C 63.523438 95.886719 63.835938 95.292969 64.335938 94.105469 L 64.085938 93.980469 C 63.804688 94.574219 63.585938 95.167969 63.148438 95.167969 C 62.960938 95.167969 62.710938 94.605469 62.554688 94.167969 L 61.929688 92.636719 L 62.210938 92.480469 C 62.867188 92.167969 63.460938 91.855469 63.835938 91.480469 C 64.210938 91.136719 64.429688 90.761719 64.429688 90.386719 C 64.429688 89.730469 63.960938 89.417969 63.117188 89.417969 Z M 60.742188 92.761719 C 60.867188 92.167969 61.367188 91.011719 61.742188 90.636719 C 61.992188 90.324219 62.523438 89.730469 62.992188 89.730469 C 63.523438 89.730469 63.523438 90.199219 63.523438 90.511719 C 63.492188 91.605469 61.554688 92.417969 60.742188 92.761719 Z M 60.742188 92.761719 "/>
<path fill-rule="nonzero" fill="rgb(0%, 0%, 0%)" fill-opacity="1" d="M 74.394531 92.449219 L 74.394531 91.605469 L 66.957031 91.605469 L 66.957031 92.449219 Z M 74.394531 92.449219 "/>
<path fill-rule="nonzero" fill="rgb(0%, 0%, 0%)" fill-opacity="1" d="M 82.761719 95.761719 L 82.761719 95.230469 L 82.199219 95.230469 C 80.761719 95.230469 80.761719 95.042969 80.761719 94.574219 L 80.761719 86.511719 C 80.761719 86.136719 80.730469 86.105469 80.324219 86.105469 C 79.386719 87.042969 78.074219 87.042969 77.480469 87.042969 L 77.480469 87.574219 C 77.824219 87.574219 78.792969 87.574219 79.574219 87.167969 L 79.574219 94.574219 C 79.574219 95.042969 79.574219 95.230469 78.136719 95.230469 L 77.574219 95.230469 L 77.574219 95.761719 L 80.167969 95.699219 Z M 82.761719 95.761719 "/>
<path fill-rule="nonzero" fill="rgb(0%, 0%, 0%)" fill-opacity="1" d="M 85.457031 85.355469 L 85.300781 85.574219 C 87.175781 87.074219 87.800781 88.761719 87.800781 91.980469 C 87.800781 95.199219 87.238281 96.949219 85.300781 98.449219 L 85.488281 98.699219 C 87.488281 97.449219 89.050781 94.730469 89.050781 92.011719 C 89.050781 89.074219 87.550781 86.699219 85.457031 85.355469 Z M 85.457031 85.355469 "/>
<path fill-rule="nonzero" fill="rgb(0%, 0%, 0%)" fill-opacity="1" d="M 186.21875 80.257812 L 186.65625 79.601562 L 184.0625 89.507812 C 183.9375 89.976562 183.84375 90.320312 183.6875 90.601562 C 183.53125 91.070312 183.125 91.570312 182.6875 91.757812 C 182.46875 91.851562 182.15625 91.914062 181.84375 91.914062 L 181.75 92.195312 L 187.5 92.195312 L 187.59375 91.914062 C 186.96875 91.914062 186.46875 91.851562 186.21875 91.664062 C 185.9375 91.445312 185.875 91.007812 185.875 90.601562 C 185.875 90.289062 185.9375 89.851562 186.09375 89.320312 L 188.0625 81.851562 C 188.21875 81.226562 188.34375 80.726562 188.46875 80.351562 C 188.6875 79.757812 189.125 79.101562 189.5625 78.789062 C 189.78125 78.664062 190.0625 78.632812 190.40625 78.632812 L 190.5 78.351562 L 186.90625 78.351562 L 180.21875 89.070312 L 179.9375 89.070312 L 178.65625 78.351562 L 174.375 78.351562 L 174.28125 78.632812 C 174.90625 78.632812 175.3125 78.632812 175.53125 78.757812 C 175.8125 78.882812 176.15625 79.382812 176.15625 79.757812 C 176.15625 80.070312 176.09375 80.570312 175.90625 81.226562 L 173.71875 89.507812 C 173.5625 90.132812 173.0625 90.820312 172.59375 91.226562 C 172.15625 91.632812 171.46875 91.914062 170.90625 91.914062 L 170.84375 92.195312 L 175.8125 92.195312 L 175.90625 91.914062 C 175.4375 91.882812 174.90625 91.789062 174.6875 91.476562 C 174.46875 91.164062 174.15625 90.632812 174.15625 90.132812 C 174.15625 89.851562 174.15625 89.570312 174.21875 89.320312 L 176.625 80.257812 L 176.75 79.820312 L 178.21875 92.195312 L 178.8125 92.195312 Z M 186.21875 80.257812 "/>
<path fill-rule="nonzero" fill="rgb(0%, 0%, 0%)" fill-opacity="1" d="M 198.660156 94.730469 L 198.660156 93.886719 L 192.597656 91.074219 L 198.660156 88.230469 L 198.660156 87.417969 L 191.222656 90.949219 L 191.222656 91.230469 Z M 198.660156 96.605469 L 198.660156 95.824219 L 191.222656 95.824219 L 191.222656 96.605469 Z M 198.660156 96.605469 "/>
<path fill-rule="nonzero" fill="rgb(0%, 0%, 0%)" fill-opacity="1" d="M 204.691406 89.417969 C 204.066406 89.417969 203.410156 89.917969 202.941406 90.542969 L 202.847656 90.542969 L 204.347656 85.074219 L 202.097656 85.167969 L 202.003906 85.386719 C 202.597656 85.386719 203.066406 85.511719 203.066406 85.949219 C 203.066406 86.011719 203.035156 86.199219 202.972656 86.386719 L 200.441406 95.761719 L 201.410156 95.761719 L 202.128906 93.199219 L 202.503906 93.074219 L 203.285156 94.949219 C 203.441406 95.292969 203.566406 95.542969 203.691406 95.699219 C 203.816406 95.824219 203.972656 95.886719 204.160156 95.886719 C 205.097656 95.886719 205.410156 95.292969 205.910156 94.105469 L 205.660156 93.980469 C 205.378906 94.574219 205.160156 95.167969 204.722656 95.167969 C 204.535156 95.167969 204.285156 94.605469 204.128906 94.167969 L 203.503906 92.636719 L 203.785156 92.480469 C 204.441406 92.167969 205.035156 91.855469 205.410156 91.480469 C 205.785156 91.136719 206.003906 90.761719 206.003906 90.386719 C 206.003906 89.730469 205.535156 89.417969 204.691406 89.417969 Z M 202.316406 92.761719 C 202.441406 92.167969 202.941406 91.011719 203.316406 90.636719 C 203.566406 90.324219 204.097656 89.730469 204.566406 89.730469 C 205.097656 89.730469 205.097656 90.199219 205.097656 90.511719 C 205.066406 91.605469 203.128906 92.417969 202.316406 92.761719 Z M 202.316406 92.761719 "/>
<path fill="none" stroke-width="0.5579" stroke-linecap="butt" stroke-linejoin="miter" stroke="rgb(0%, 0%, 0%)" stroke-opacity="1" stroke-miterlimit="10" d="M 3.494343 17.608469 L 29.197468 17.608469 " transform="matrix(2, 0, 0, -2, 108.316002, 54.006001)"/>
<path fill="none" stroke-width="0.5579" stroke-linecap="round" stroke-linejoin="round" stroke="rgb(0%, 0%, 0%)" stroke-opacity="1" stroke-miterlimit="10" d="M -2.900558 3.346155 C -2.369308 1.338343 -1.189621 0.389124 0.00178528 -0.00150108 C -1.189621 -0.392126 -2.369308 -1.337439 -2.900558 -3.349157 " transform="matrix(2, 0, 0, -2, 167.269867, 18.78606)"/>
<path fill-rule="nonzero" fill="rgb(0%, 0%, 0%)" fill-opacity="1" d="M 138.382812 7.433594 C 138.382812 5.621094 136.882812 4.152344 135.039062 4.152344 C 134.226562 4.152344 133.382812 4.464844 132.789062 5.027344 L 132.789062 4.152344 L 130.601562 4.308594 L 130.601562 4.839844 C 131.601562 4.839844 131.695312 4.902344 131.695312 5.527344 L 131.695312 12.214844 C 131.695312 12.839844 131.539062 12.839844 130.601562 12.839844 L 130.601562 13.371094 C 130.601562 13.371094 131.632812 13.308594 132.257812 13.308594 C 132.789062 13.308594 133.789062 13.371094 133.914062 13.371094 L 133.914062 12.839844 C 132.976562 12.839844 132.820312 12.839844 132.820312 12.214844 L 132.820312 9.871094 C 132.914062 9.933594 133.601562 10.714844 134.820312 10.714844 C 136.726562 10.714844 138.382812 9.277344 138.382812 7.433594 Z M 137.039062 7.433594 C 137.039062 9.089844 135.945312 10.308594 134.726562 10.308594 C 133.445312 10.308594 132.882812 9.183594 132.820312 9.089844 L 132.820312 5.714844 C 133.257812 4.996094 134.101562 4.621094 134.882812 4.621094 C 136.101562 4.621094 137.039062 5.902344 137.039062 7.433594 Z M 137.039062 7.433594 "/>
<path fill-rule="nonzero" fill="rgb(0%, 0%, 0%)" fill-opacity="1" d="M 144.96875 5.089844 C 144.96875 4.589844 144.5 4.152344 143.84375 4.152344 C 143.09375 4.152344 142.3125 4.589844 141.875 5.714844 L 141.84375 5.714844 L 141.84375 4.152344 L 139.78125 4.308594 L 139.78125 4.839844 C 140.75 4.839844 140.875 4.933594 140.875 5.652344 L 140.875 9.402344 C 140.875 10.027344 140.71875 10.027344 139.78125 10.027344 L 139.78125 10.558594 C 139.84375 10.558594 140.84375 10.496094 141.4375 10.496094 L 143.3125 10.558594 L 143.3125 10.027344 L 143.03125 10.027344 C 141.96875 10.027344 141.96875 9.871094 141.96875 9.371094 L 141.96875 7.246094 C 141.96875 6.027344 142.53125 4.558594 143.90625 4.558594 C 143.78125 4.652344 143.65625 4.839844 143.65625 5.089844 C 143.65625 5.558594 144.03125 5.746094 144.3125 5.746094 C 144.65625 5.746094 144.96875 5.527344 144.96875 5.089844 Z M 144.96875 5.089844 "/>
<path fill-rule="nonzero" fill="rgb(0%, 0%, 0%)" fill-opacity="1" d="M 151.085938 13.933594 L 151.085938 13.496094 L 150.617188 13.496094 C 149.492188 13.496094 149.492188 13.371094 149.492188 12.996094 L 149.492188 6.964844 C 149.492188 6.652344 149.460938 6.652344 149.117188 6.652344 C 148.398438 7.339844 147.273438 7.339844 146.867188 7.339844 L 146.867188 7.777344 C 147.179688 7.777344 147.898438 7.777344 148.554688 7.464844 L 148.554688 12.996094 C 148.554688 13.371094 148.554688 13.496094 147.429688 13.496094 L 146.960938 13.496094 L 146.960938 13.933594 C 147.554688 13.902344 148.398438 13.902344 149.023438 13.902344 C 149.648438 13.902344 150.492188 13.902344 151.085938 13.933594 Z M 151.085938 13.933594 "/>
<path fill="none" stroke-width="0.5579" stroke-linecap="butt" stroke-linejoin="miter" stroke="rgb(0%, 0%, 0%)" stroke-opacity="1" stroke-miterlimit="10" d="M -25.431438 9.241282 L -25.431438 -7.735281 " transform="matrix(2, 0, 0, -2, 108.316002, 54.006001)"/>
<path fill="none" stroke-width="0.5579" stroke-linecap="round" stroke-linejoin="round" stroke="rgb(0%, 0%, 0%)" stroke-opacity="1" stroke-miterlimit="10" d="M -2.902519 3.347618 C -2.371269 1.339806 -1.191582 0.390587 -0.000175476 -0.000038147 C -1.191582 -0.390663 -2.371269 -1.339882 -2.902519 -3.347694 " transform="matrix(0, 2, 2, 0, 57.453201, 70.031601)"/>
<path fill-rule="nonzero" fill="rgb(0%, 0%, 0%)" fill-opacity="1" d="M 43.875 48.75 C 44.5625 48.75 44.4375 50.03125 44.3125 50.59375 C 44.28125 50.875 44.125 51.21875 44.03125 51.53125 C 43.6875 52.71875 42.625 54.59375 41.8125 54.59375 C 41.21875 54.59375 41.0625 53.65625 41.0625 53.15625 C 41.0625 52.75 41.09375 52.3125 41.25 51.875 C 41.625 50.875 42.65625 48.75 43.875 48.75 Z M 43.75 48.46875 C 43.34375 48.46875 42.90625 48.625 42.46875 48.9375 C 42.03125 49.21875 41.625 49.59375 41.28125 50.03125 C 40.65625 50.78125 40.0625 51.96875 40.0625 53.21875 C 40.0625 54.1875 40.40625 54.9375 41.34375 54.9375 C 42.59375 54.9375 43.0625 54.0625 43.46875 53.40625 C 43.28125 54.3125 43.40625 54.9375 44.03125 54.9375 C 44.375 54.9375 44.71875 54.78125 45.125 54.46875 C 45.5 54.15625 45.875 53.6875 46.1875 53.125 L 46 52.96875 C 45.75 53.375 45.125 54.3125 44.71875 54.3125 C 44.5 54.3125 44.4375 53.96875 44.4375 53.75 C 44.4375 52.875 45.03125 51.375 45.34375 50.40625 L 46.03125 48.59375 L 45.0625 48.59375 L 44.8125 49.25 C 44.625 48.78125 44.34375 48.46875 43.75 48.46875 Z M 43.75 48.46875 "/>
<path fill-rule="nonzero" fill="rgb(0%, 0%, 0%)" fill-opacity="1" d="M 49.816406 52.882812 C 49.347656 52.882812 48.878906 53.257812 48.535156 53.726562 L 48.441406 53.726562 L 49.566406 49.601562 L 47.878906 49.664062 L 47.816406 49.820312 C 48.253906 49.820312 48.628906 49.945312 48.628906 50.257812 C 48.628906 50.320312 48.597656 50.445312 48.535156 50.601562 L 46.628906 57.664062 L 47.378906 57.664062 L 47.910156 55.726562 L 48.160156 55.632812 L 48.753906 57.070312 C 48.878906 57.320312 48.972656 57.507812 49.066406 57.601562 C 49.160156 57.695312 49.285156 57.757812 49.441406 57.757812 C 50.128906 57.757812 50.378906 57.289062 50.753906 56.414062 L 50.566406 56.320312 C 50.347656 56.757812 50.191406 57.226562 49.847656 57.226562 C 49.722656 57.226562 49.535156 56.789062 49.410156 56.476562 L 48.941406 55.289062 L 49.160156 55.195312 C 49.660156 54.945312 50.097656 54.726562 50.378906 54.445312 C 50.660156 54.164062 50.816406 53.882812 50.816406 53.601562 C 50.816406 53.101562 50.472656 52.882812 49.816406 52.882812 Z M 48.035156 55.382812 C 48.128906 54.945312 48.535156 54.101562 48.785156 53.789062 C 48.972656 53.570312 49.378906 53.101562 49.753906 53.101562 C 50.160156 53.101562 50.160156 53.476562 50.160156 53.695312 C 50.128906 54.507812 48.660156 55.132812 48.035156 55.382812 Z M 48.035156 55.382812 "/>
<path fill="none" stroke-width="0.5579" stroke-linecap="butt" stroke-linejoin="miter" stroke="rgb(0%, 0%, 0%)" stroke-opacity="1" stroke-miterlimit="10" d="M 40.681843 9.362375 L 40.681843 -7.735281 " transform="matrix(2, 0, 0, -2, 108.316002, 54.006001)"/>
<path fill="none" stroke-width="0.5579" stroke-linecap="round" stroke-linejoin="round" stroke="rgb(0%, 0%, 0%)" stroke-opacity="1" stroke-miterlimit="10" d="M -2.902538 3.347366 C -2.371288 1.339554 -1.191601 0.390335 -0.00019455 -0.000289917 C -1.191601 -0.390915 -2.371288 -1.340134 -2.902538 -3.347946 " transform="matrix(0, 2, 2, 0, 189.680267, 70.031639)"/>
<path fill="none" stroke-width="0.5579" stroke-linecap="butt" stroke-linejoin="miter" stroke="rgb(0%, 0%, 0%)" stroke-opacity="1" stroke-miterlimit="10" d="M -3.712688 -16.536062 L 26.447468 -16.536062 " transform="matrix(2, 0, 0, -2, 108.316002, 54.006001)"/>
<path fill="none" stroke-width="0.5579" stroke-linecap="round" stroke-linejoin="round" stroke="rgb(0%, 0%, 0%)" stroke-opacity="1" stroke-miterlimit="10" d="M -2.901436 3.346066 C -2.370186 1.338253 -1.190498 0.389034 0.000907898 -0.00159073 C -1.190498 -0.392216 -2.370186 -1.337528 -2.901436 -3.349247 " transform="matrix(2, 0, 0, -2, 161.771622, 87.074944)"/>
<path fill-rule="nonzero" fill="rgb(0%, 0%, 0%)" fill-opacity="1" d="M 151.152344 72.492188 L 151.152344 73.367188 L 156.246094 73.367188 L 156.246094 68.273438 L 155.371094 68.273438 L 155.371094 72.492188 Z M 151.152344 72.492188 "/>
</svg>
