<?xml version="1.0" encoding="UTF-8"?>
<svg xmlns="http://www.w3.org/2000/svg" xmlns:xlink="http://www.w3.org/1999/xlink" width="237.619995" height="107.120003" viewBox="0 0 237.619995 107.120003">
<path fill-rule="nonzero" fill="rgb(0%, 0%, 0%)" fill-opacity="1" d="M 27.054688 11.582031 C 27.242188 10.863281 27.273438 10.675781 28.773438 10.675781 C 29.210938 10.675781 29.398438 10.675781 29.398438 10.269531 C 29.398438 10.050781 29.210938 10.050781 28.867188 10.050781 L 26.242188 10.050781 C 25.710938 10.050781 25.679688 10.050781 25.460938 10.425781 L 18.179688 21.800781 L 16.617188 10.519531 C 16.554688 10.050781 16.523438 10.050781 15.992188 10.050781 L 13.273438 10.050781 C 12.898438 10.050781 12.679688 10.050781 12.679688 10.425781 C 12.679688 10.675781 12.867188 10.675781 13.242188 10.675781 C 13.523438 10.675781 13.867188 10.707031 14.117188 10.707031 C 14.429688 10.769531 14.554688 10.800781 14.554688 11.050781 C 14.554688 11.113281 14.523438 11.175781 14.460938 11.425781 L 11.929688 21.550781 C 11.742188 22.363281 11.398438 22.988281 9.773438 23.050781 C 9.679688 23.050781 9.429688 23.082031 9.429688 23.425781 C 9.429688 23.613281 9.554688 23.675781 9.710938 23.675781 C 10.335938 23.675781 11.023438 23.613281 11.710938 23.613281 C 12.367188 23.613281 13.085938 23.675781 13.742188 23.675781 C 13.835938 23.675781 14.117188 23.675781 14.117188 23.269531 C 14.117188 23.050781 13.898438 23.050781 13.742188 23.050781 C 12.617188 23.050781 12.398438 22.644531 12.398438 22.175781 C 12.398438 22.050781 12.398438 21.925781 12.460938 21.707031 L 15.179688 10.863281 L 15.210938 10.863281 L 16.929688 23.207031 C 16.960938 23.457031 16.992188 23.675781 17.210938 23.675781 C 17.429688 23.675781 17.554688 23.457031 17.648438 23.332031 L 25.710938 10.707031 L 25.742188 10.707031 L 22.867188 22.113281 C 22.679688 22.894531 22.648438 23.050781 21.054688 23.050781 C 20.742188 23.050781 20.523438 23.050781 20.523438 23.425781 C 20.523438 23.675781 20.742188 23.675781 20.804688 23.675781 C 21.367188 23.675781 22.710938 23.613281 23.273438 23.613281 C 24.085938 23.613281 24.960938 23.675781 25.773438 23.675781 C 25.898438 23.675781 26.148438 23.675781 26.148438 23.269531 C 26.148438 23.050781 25.960938 23.050781 25.585938 23.050781 C 24.867188 23.050781 24.304688 23.050781 24.304688 22.707031 C 24.304688 22.613281 24.304688 22.582031 24.398438 22.207031 Z M 27.054688 11.582031 "/>
<path fill-rule="nonzero" fill="rgb(0%, 0%, 0%)" fill-opacity="1" d="M 32.289062 17.414062 C 32.289062 17.382812 32.320312 17.195312 32.320312 17.195312 C 32.320312 17.101562 32.289062 16.976562 32.101562 16.976562 C 31.820312 16.976562 30.664062 17.101562 30.320312 17.132812 C 30.226562 17.132812 30.007812 17.164062 30.007812 17.445312 C 30.007812 17.632812 30.226562 17.632812 30.382812 17.632812 C 31.039062 17.632812 31.039062 17.757812 31.039062 17.851562 C 31.039062 17.945312 31.007812 18.039062 31.007812 18.164062 L 29.039062 26.039062 C 28.945312 26.289062 28.945312 26.320312 28.945312 26.351562 C 28.945312 26.570312 29.132812 26.789062 29.445312 26.789062 C 29.820312 26.789062 29.976562 26.539062 30.070312 26.226562 C 30.101562 26.164062 30.695312 23.695312 30.757812 23.507812 C 31.757812 23.601562 32.539062 23.945312 32.539062 24.664062 C 32.539062 24.726562 32.539062 24.789062 32.507812 24.945312 C 32.445312 25.132812 32.445312 25.226562 32.445312 25.382812 C 32.445312 26.351562 33.257812 26.789062 33.945312 26.789062 C 35.289062 26.789062 35.695312 24.695312 35.695312 24.664062 C 35.695312 24.476562 35.539062 24.476562 35.476562 24.476562 C 35.289062 24.476562 35.257812 24.570312 35.195312 24.820312 C 35.039062 25.414062 34.664062 26.414062 33.976562 26.414062 C 33.601562 26.414062 33.476562 26.070312 33.476562 25.695312 C 33.476562 25.445312 33.476562 25.414062 33.570312 25.070312 C 33.601562 25.007812 33.632812 24.789062 33.632812 24.632812 C 33.632812 23.382812 31.976562 23.195312 31.382812 23.164062 C 31.789062 22.914062 32.289062 22.445312 32.539062 22.226562 C 33.257812 21.570312 33.945312 20.914062 34.726562 20.914062 C 34.882812 20.914062 35.070312 20.945312 35.195312 21.101562 C 34.601562 21.195312 34.476562 21.664062 34.476562 21.882812 C 34.476562 22.164062 34.695312 22.382812 35.007812 22.382812 C 35.414062 22.382812 35.820312 22.070312 35.820312 21.507812 C 35.820312 21.039062 35.476562 20.507812 34.757812 20.507812 C 33.945312 20.507812 33.226562 21.101562 32.507812 21.757812 C 31.914062 22.289062 31.476562 22.726562 30.882812 22.976562 Z M 32.289062 17.414062 "/>
<path fill-rule="nonzero" fill="rgb(0%, 0%, 0%)" fill-opacity="1" d="M 49.894531 18.144531 L 45.925781 14.175781 C 45.675781 13.925781 45.644531 13.894531 45.488281 13.894531 C 45.269531 13.894531 45.082031 14.050781 45.082031 14.300781 C 45.082031 14.425781 45.113281 14.457031 45.332031 14.675781 L 49.332031 18.675781 L 45.332031 22.707031 C 45.113281 22.925781 45.082031 22.957031 45.082031 23.082031 C 45.082031 23.332031 45.269531 23.488281 45.488281 23.488281 C 45.644531 23.488281 45.675781 23.457031 45.925781 23.207031 L 49.894531 19.238281 L 54.019531 23.363281 C 54.050781 23.394531 54.175781 23.488281 54.300781 23.488281 C 54.550781 23.488281 54.707031 23.332031 54.707031 23.082031 C 54.707031 23.050781 54.707031 22.988281 54.644531 22.863281 C 54.613281 22.832031 51.457031 19.707031 50.457031 18.675781 L 54.113281 15.050781 C 54.207031 14.925781 54.519531 14.675781 54.613281 14.550781 C 54.613281 14.519531 54.707031 14.425781 54.707031 14.300781 C 54.707031 14.050781 54.550781 13.894531 54.300781 13.894531 C 54.144531 13.894531 54.082031 13.957031 53.863281 14.175781 Z M 49.894531 18.144531 "/>
<path fill-rule="nonzero" fill="rgb(0%, 0%, 0%)" fill-opacity="1" d="M 71.289062 16.925781 C 71.101562 15.675781 70.289062 14.550781 68.726562 14.550781 C 67.507812 14.550781 66.226562 14.894531 64.664062 16.425781 C 63.007812 18.082031 62.882812 19.957031 62.882812 20.550781 C 62.882812 21.800781 63.757812 24.113281 66.539062 24.113281 C 71.289062 24.113281 73.351562 17.425781 73.351562 14.550781 C 73.351562 11.394531 71.507812 9.394531 69.039062 9.394531 C 66.164062 9.394531 65.226562 11.988281 65.226562 12.550781 C 65.226562 12.832031 65.414062 13.238281 66.007812 13.238281 C 66.664062 13.238281 67.070312 12.644531 67.070312 12.207031 C 67.070312 11.488281 66.445312 11.488281 66.132812 11.488281 C 67.007812 10.019531 68.445312 9.894531 69.007812 9.894531 C 70.476562 9.894531 71.851562 10.925781 71.851562 13.519531 C 71.851562 14.300781 71.726562 15.300781 71.320312 16.925781 Z M 66.601562 23.550781 C 64.414062 23.550781 64.414062 21.488281 64.414062 21.300781 C 64.414062 20.769531 64.914062 17.988281 65.726562 16.769531 C 66.507812 15.644531 67.507812 14.988281 68.726562 14.988281 C 70.914062 14.988281 70.945312 17.238281 70.945312 17.644531 C 70.945312 19.082031 69.664062 23.550781 66.601562 23.550781 Z M 66.601562 23.550781 "/>
<path fill-rule="nonzero" fill="rgb(0%, 0%, 0%)" fill-opacity="1" d="M 79.757812 17.363281 L 83.164062 17.363281 C 85.976562 17.363281 88.757812 15.300781 88.757812 13.082031 C 88.757812 11.519531 87.445312 10.050781 84.820312 10.050781 L 78.382812 10.050781 C 78.007812 10.050781 77.789062 10.050781 77.789062 10.425781 C 77.789062 10.675781 77.945312 10.675781 78.351562 10.675781 C 78.601562 10.675781 78.976562 10.707031 79.195312 10.707031 C 79.539062 10.769531 79.632812 10.800781 79.632812 11.050781 C 79.632812 11.113281 79.632812 11.175781 79.570312 11.425781 L 76.882812 22.113281 C 76.695312 22.894531 76.664062 23.050781 75.070312 23.050781 C 74.757812 23.050781 74.539062 23.050781 74.539062 23.425781 C 74.539062 23.675781 74.757812 23.675781 74.820312 23.675781 C 75.382812 23.675781 76.789062 23.613281 77.351562 23.613281 C 77.789062 23.613281 78.226562 23.644531 78.632812 23.644531 C 79.070312 23.644531 79.507812 23.675781 79.914062 23.675781 C 80.070312 23.675781 80.320312 23.675781 80.320312 23.269531 C 80.320312 23.050781 80.132812 23.050781 79.757812 23.050781 C 79.039062 23.050781 78.476562 23.050781 78.476562 22.707031 C 78.476562 22.582031 78.507812 22.488281 78.539062 22.363281 Z M 81.195312 11.425781 C 81.382812 10.738281 81.414062 10.675781 82.289062 10.675781 L 84.195312 10.675781 C 85.851562 10.675781 86.914062 11.207031 86.914062 12.582031 C 86.914062 13.363281 86.507812 15.082031 85.726562 15.800781 C 84.726562 16.707031 83.539062 16.863281 82.664062 16.863281 L 79.851562 16.863281 Z M 81.195312 11.425781 "/>
<path fill-rule="nonzero" fill="rgb(0%, 0%, 0%)" fill-opacity="1" d="M 95.910156 28.457031 C 95.910156 28.394531 95.910156 28.363281 95.566406 28.019531 C 93.097656 25.519531 92.441406 21.738281 92.441406 18.675781 C 92.441406 15.207031 93.191406 11.738281 95.660156 9.269531 C 95.910156 9.019531 95.910156 8.988281 95.910156 8.925781 C 95.910156 8.769531 95.847656 8.707031 95.722656 8.707031 C 95.503906 8.707031 93.722656 10.082031 92.535156 12.613281 C 91.535156 14.800781 91.285156 17.019531 91.285156 18.675781 C 91.285156 20.238281 91.503906 22.644531 92.597656 24.925781 C 93.816406 27.363281 95.503906 28.675781 95.722656 28.675781 C 95.847656 28.675781 95.910156 28.613281 95.910156 28.457031 Z M 95.910156 28.457031 "/>
<path fill-rule="nonzero" fill="rgb(0%, 0%, 0%)" fill-opacity="1" d="M 102.785156 10.050781 C 102.785156 10.050781 102.785156 9.832031 102.535156 9.832031 C 102.066406 9.832031 100.628906 9.988281 100.097656 10.050781 C 99.941406 10.050781 99.722656 10.082031 99.722656 10.425781 C 99.722656 10.675781 99.910156 10.675781 100.191406 10.675781 C 101.160156 10.675781 101.191406 10.800781 101.191406 11.019531 L 101.128906 11.425781 L 98.253906 22.894531 C 98.160156 23.175781 98.160156 23.207031 98.160156 23.332031 C 98.160156 23.800781 98.566406 23.894531 98.753906 23.894531 C 99.003906 23.894531 99.285156 23.707031 99.410156 23.488281 C 99.503906 23.300781 100.410156 19.613281 100.535156 19.113281 C 101.222656 19.175781 102.847656 19.488281 102.847656 20.800781 C 102.847656 20.957031 102.847656 21.019531 102.785156 21.238281 C 102.753906 21.457031 102.722656 21.707031 102.722656 21.925781 C 102.722656 23.082031 103.503906 23.894531 104.535156 23.894531 C 105.128906 23.894531 105.691406 23.582031 106.128906 22.832031 C 106.628906 21.957031 106.847656 20.863281 106.847656 20.832031 C 106.847656 20.613281 106.660156 20.613281 106.597656 20.613281 C 106.410156 20.613281 106.378906 20.707031 106.316406 20.988281 C 105.910156 22.425781 105.472656 23.457031 104.597656 23.457031 C 104.191406 23.457031 103.941406 23.238281 103.941406 22.519531 C 103.941406 22.175781 104.035156 21.707031 104.097656 21.394531 C 104.191406 21.050781 104.191406 20.988281 104.191406 20.769531 C 104.191406 19.488281 102.941406 18.925781 101.222656 18.675781 C 101.847656 18.332031 102.503906 17.707031 102.941406 17.207031 C 103.910156 16.144531 104.816406 15.300781 105.785156 15.300781 C 105.910156 15.300781 105.941406 15.300781 105.972656 15.332031 C 106.222656 15.363281 106.222656 15.363281 106.410156 15.488281 C 106.441406 15.488281 106.441406 15.519531 106.472656 15.550781 C 105.535156 15.613281 105.347656 16.394531 105.347656 16.644531 C 105.347656 16.957031 105.566406 17.332031 106.097656 17.332031 C 106.628906 17.332031 107.191406 16.894531 107.191406 16.113281 C 107.191406 15.519531 106.722656 14.863281 105.847656 14.863281 C 105.285156 14.863281 104.378906 15.019531 102.941406 16.613281 C 102.253906 17.363281 101.472656 18.175781 100.722656 18.457031 Z M 102.785156 10.050781 "/>
<path fill-rule="nonzero" fill="rgb(0%, 0%, 0%)" fill-opacity="1" d="M 113.816406 18.675781 C 113.816406 17.144531 113.597656 14.738281 112.503906 12.457031 C 111.316406 10.019531 109.597656 8.707031 109.410156 8.707031 C 109.285156 8.707031 109.191406 8.800781 109.191406 8.925781 C 109.191406 8.988281 109.191406 9.019531 109.566406 9.394531 C 111.535156 11.363281 112.660156 14.519531 112.660156 18.675781 C 112.660156 22.113281 111.941406 25.613281 109.472656 28.113281 C 109.191406 28.363281 109.191406 28.394531 109.191406 28.457031 C 109.191406 28.582031 109.285156 28.675781 109.410156 28.675781 C 109.597656 28.675781 111.410156 27.300781 112.566406 24.769531 C 113.597656 22.582031 113.816406 20.363281 113.816406 18.675781 Z M 113.816406 18.675781 "/>
<path fill-rule="nonzero" fill="rgb(0%, 0%, 0%)" fill-opacity="1" d="M 205.507812 11.582031 C 205.695312 10.863281 205.726562 10.675781 207.226562 10.675781 C 207.664062 10.675781 207.851562 10.675781 207.851562 10.269531 C 207.851562 10.050781 207.664062 10.050781 207.320312 10.050781 L 204.695312 10.050781 C 204.164062 10.050781 204.132812 10.050781 203.914062 10.425781 L 196.632812 21.800781 L 195.070312 10.519531 C 195.007812 10.050781 194.976562 10.050781 194.445312 10.050781 L 191.726562 10.050781 C 191.351562 10.050781 191.132812 10.050781 191.132812 10.425781 C 191.132812 10.675781 191.320312 10.675781 191.695312 10.675781 C 191.976562 10.675781 192.320312 10.707031 192.570312 10.707031 C 192.882812 10.769531 193.007812 10.800781 193.007812 11.050781 C 193.007812 11.113281 192.976562 11.175781 192.914062 11.425781 L 190.382812 21.550781 C 190.195312 22.363281 189.851562 22.988281 188.226562 23.050781 C 188.132812 23.050781 187.882812 23.082031 187.882812 23.425781 C 187.882812 23.613281 188.007812 23.675781 188.164062 23.675781 C 188.789062 23.675781 189.476562 23.613281 190.164062 23.613281 C 190.820312 23.613281 191.539062 23.675781 192.195312 23.675781 C 192.289062 23.675781 192.570312 23.675781 192.570312 23.269531 C 192.570312 23.050781 192.351562 23.050781 192.195312 23.050781 C 191.070312 23.050781 190.851562 22.644531 190.851562 22.175781 C 190.851562 22.050781 190.851562 21.925781 190.914062 21.707031 L 193.632812 10.863281 L 193.664062 10.863281 L 195.382812 23.207031 C 195.414062 23.457031 195.445312 23.675781 195.664062 23.675781 C 195.882812 23.675781 196.007812 23.457031 196.101562 23.332031 L 204.164062 10.707031 L 204.195312 10.707031 L 201.320312 22.113281 C 201.132812 22.894531 201.101562 23.050781 199.507812 23.050781 C 199.195312 23.050781 198.976562 23.050781 198.976562 23.425781 C 198.976562 23.675781 199.195312 23.675781 199.257812 23.675781 C 199.820312 23.675781 201.164062 23.613281 201.726562 23.613281 C 202.539062 23.613281 203.414062 23.675781 204.226562 23.675781 C 204.351562 23.675781 204.601562 23.675781 204.601562 23.269531 C 204.601562 23.050781 204.414062 23.050781 204.039062 23.050781 C 203.320312 23.050781 202.757812 23.050781 202.757812 22.707031 C 202.757812 22.613281 202.757812 22.582031 202.851562 22.207031 Z M 205.507812 11.582031 "/>
<path fill-rule="nonzero" fill="rgb(0%, 0%, 0%)" fill-opacity="1" d="M 210.742188 17.414062 C 210.742188 17.382812 210.773438 17.195312 210.773438 17.195312 C 210.773438 17.101562 210.742188 16.976562 210.554688 16.976562 C 210.273438 16.976562 209.117188 17.101562 208.773438 17.132812 C 208.679688 17.132812 208.460938 17.164062 208.460938 17.445312 C 208.460938 17.632812 208.679688 17.632812 208.835938 17.632812 C 209.492188 17.632812 209.492188 17.757812 209.492188 17.851562 C 209.492188 17.945312 209.460938 18.039062 209.460938 18.164062 L 207.492188 26.039062 C 207.398438 26.289062 207.398438 26.320312 207.398438 26.351562 C 207.398438 26.570312 207.585938 26.789062 207.898438 26.789062 C 208.273438 26.789062 208.429688 26.539062 208.523438 26.226562 C 208.554688 26.164062 209.148438 23.695312 209.210938 23.507812 C 210.210938 23.601562 210.992188 23.945312 210.992188 24.664062 C 210.992188 24.726562 210.992188 24.789062 210.960938 24.945312 C 210.898438 25.132812 210.898438 25.226562 210.898438 25.382812 C 210.898438 26.351562 211.710938 26.789062 212.398438 26.789062 C 213.742188 26.789062 214.148438 24.695312 214.148438 24.664062 C 214.148438 24.476562 213.992188 24.476562 213.929688 24.476562 C 213.742188 24.476562 213.710938 24.570312 213.648438 24.820312 C 213.492188 25.414062 213.117188 26.414062 212.429688 26.414062 C 212.054688 26.414062 211.929688 26.070312 211.929688 25.695312 C 211.929688 25.445312 211.929688 25.414062 212.023438 25.070312 C 212.054688 25.007812 212.085938 24.789062 212.085938 24.632812 C 212.085938 23.382812 210.429688 23.195312 209.835938 23.164062 C 210.242188 22.914062 210.742188 22.445312 210.992188 22.226562 C 211.710938 21.570312 212.398438 20.914062 213.179688 20.914062 C 213.335938 20.914062 213.523438 20.945312 213.648438 21.101562 C 213.054688 21.195312 212.929688 21.664062 212.929688 21.882812 C 212.929688 22.164062 213.148438 22.382812 213.460938 22.382812 C 213.867188 22.382812 214.273438 22.070312 214.273438 21.507812 C 214.273438 21.039062 213.929688 20.507812 213.210938 20.507812 C 212.398438 20.507812 211.679688 21.101562 210.960938 21.757812 C 210.367188 22.289062 209.929688 22.726562 209.335938 22.976562 Z M 210.742188 17.414062 "/>
<path fill-rule="nonzero" fill="rgb(0%, 0%, 0%)" fill-opacity="1" d="M 43.453125 80.640625 C 43.640625 79.921875 43.671875 79.734375 45.171875 79.734375 C 45.609375 79.734375 45.796875 79.734375 45.796875 79.328125 C 45.796875 79.109375 45.609375 79.109375 45.265625 79.109375 L 42.640625 79.109375 C 42.109375 79.109375 42.078125 79.109375 41.859375 79.484375 L 34.578125 90.859375 L 33.015625 79.578125 C 32.953125 79.109375 32.921875 79.109375 32.390625 79.109375 L 29.671875 79.109375 C 29.296875 79.109375 29.078125 79.109375 29.078125 79.484375 C 29.078125 79.734375 29.265625 79.734375 29.640625 79.734375 C 29.921875 79.734375 30.265625 79.765625 30.515625 79.765625 C 30.828125 79.828125 30.953125 79.859375 30.953125 80.109375 C 30.953125 80.171875 30.921875 80.234375 30.859375 80.484375 L 28.328125 90.609375 C 28.140625 91.421875 27.796875 92.046875 26.171875 92.109375 C 26.078125 92.109375 25.828125 92.140625 25.828125 92.484375 C 25.828125 92.671875 25.953125 92.734375 26.109375 92.734375 C 26.734375 92.734375 27.421875 92.671875 28.109375 92.671875 C 28.765625 92.671875 29.484375 92.734375 30.140625 92.734375 C 30.234375 92.734375 30.515625 92.734375 30.515625 92.328125 C 30.515625 92.109375 30.296875 92.109375 30.140625 92.109375 C 29.015625 92.109375 28.796875 91.703125 28.796875 91.234375 C 28.796875 91.109375 28.796875 90.984375 28.859375 90.765625 L 31.578125 79.921875 L 31.609375 79.921875 L 33.328125 92.265625 C 33.359375 92.515625 33.390625 92.734375 33.609375 92.734375 C 33.828125 92.734375 33.953125 92.515625 34.046875 92.390625 L 42.109375 79.765625 L 42.140625 79.765625 L 39.265625 91.171875 C 39.078125 91.953125 39.046875 92.109375 37.453125 92.109375 C 37.140625 92.109375 36.921875 92.109375 36.921875 92.484375 C 36.921875 92.734375 37.140625 92.734375 37.203125 92.734375 C 37.765625 92.734375 39.109375 92.671875 39.671875 92.671875 C 40.484375 92.671875 41.359375 92.734375 42.171875 92.734375 C 42.296875 92.734375 42.546875 92.734375 42.546875 92.328125 C 42.546875 92.109375 42.359375 92.109375 41.984375 92.109375 C 41.265625 92.109375 40.703125 92.109375 40.703125 91.765625 C 40.703125 91.671875 40.703125 91.640625 40.796875 91.265625 Z M 43.453125 80.640625 "/>
<path fill-rule="nonzero" fill="rgb(0%, 0%, 0%)" fill-opacity="1" d="M 54.9375 87.492188 C 55.125 87.429688 55.25 87.304688 55.25 87.148438 C 55.25 86.929688 55.09375 86.773438 54.90625 86.773438 C 54.875 86.773438 54.8125 86.773438 54.625 86.867188 L 46.125 90.960938 C 45.90625 91.054688 45.8125 91.179688 45.8125 91.335938 C 45.8125 91.492188 45.90625 91.585938 46.125 91.710938 L 54.625 95.773438 C 54.8125 95.867188 54.875 95.867188 54.90625 95.867188 C 55.125 95.867188 55.25 95.679688 55.25 95.554688 C 55.25 95.304688 55.0625 95.242188 54.9375 95.179688 L 46.9375 91.335938 Z M 54.6875 98.929688 C 54.90625 98.929688 55.25 98.929688 55.25 98.617188 C 55.25 98.273438 54.90625 98.273438 54.6875 98.273438 L 46.375 98.273438 C 46.125 98.273438 45.8125 98.273438 45.8125 98.617188 C 45.8125 98.929688 46.15625 98.929688 46.375 98.929688 Z M 54.6875 98.929688 "/>
<path fill-rule="nonzero" fill="rgb(0%, 0%, 0%)" fill-opacity="1" d="M 61.703125 85.898438 C 59.078125 87.742188 58.359375 90.710938 58.359375 92.835938 C 58.359375 94.804688 58.953125 97.867188 61.703125 99.804688 C 61.828125 99.804688 61.984375 99.804688 61.984375 99.648438 C 61.984375 99.554688 61.953125 99.523438 61.859375 99.429688 C 59.984375 97.742188 59.328125 95.398438 59.328125 92.867188 C 59.328125 89.085938 60.765625 87.242188 61.890625 86.210938 C 61.953125 86.148438 61.984375 86.117188 61.984375 86.054688 C 61.984375 85.898438 61.828125 85.898438 61.703125 85.898438 Z M 61.703125 85.898438 "/>
<path fill-rule="nonzero" fill="rgb(0%, 0%, 0%)" fill-opacity="1" d="M 67.367188 87.085938 C 67.367188 87.054688 67.398438 86.867188 67.398438 86.867188 C 67.398438 86.773438 67.367188 86.648438 67.179688 86.648438 C 66.898438 86.648438 65.742188 86.773438 65.398438 86.804688 C 65.304688 86.804688 65.085938 86.835938 65.085938 87.117188 C 65.085938 87.304688 65.304688 87.304688 65.460938 87.304688 C 66.117188 87.304688 66.117188 87.429688 66.117188 87.523438 C 66.117188 87.617188 66.085938 87.710938 66.085938 87.835938 L 64.117188 95.710938 C 64.023438 95.960938 64.023438 95.992188 64.023438 96.023438 C 64.023438 96.242188 64.210938 96.460938 64.523438 96.460938 C 64.898438 96.460938 65.054688 96.210938 65.148438 95.898438 C 65.179688 95.835938 65.773438 93.367188 65.835938 93.179688 C 66.835938 93.273438 67.617188 93.617188 67.617188 94.335938 C 67.617188 94.398438 67.617188 94.460938 67.585938 94.617188 C 67.523438 94.804688 67.523438 94.898438 67.523438 95.054688 C 67.523438 96.023438 68.335938 96.460938 69.023438 96.460938 C 70.367188 96.460938 70.773438 94.367188 70.773438 94.335938 C 70.773438 94.148438 70.617188 94.148438 70.554688 94.148438 C 70.367188 94.148438 70.335938 94.242188 70.273438 94.492188 C 70.117188 95.085938 69.742188 96.085938 69.054688 96.085938 C 68.679688 96.085938 68.554688 95.742188 68.554688 95.367188 C 68.554688 95.117188 68.554688 95.085938 68.648438 94.742188 C 68.679688 94.679688 68.710938 94.460938 68.710938 94.304688 C 68.710938 93.054688 67.054688 92.867188 66.460938 92.835938 C 66.867188 92.585938 67.367188 92.117188 67.617188 91.898438 C 68.335938 91.242188 69.023438 90.585938 69.804688 90.585938 C 69.960938 90.585938 70.148438 90.617188 70.273438 90.773438 C 69.679688 90.867188 69.554688 91.335938 69.554688 91.554688 C 69.554688 91.835938 69.773438 92.054688 70.085938 92.054688 C 70.492188 92.054688 70.898438 91.742188 70.898438 91.179688 C 70.898438 90.710938 70.554688 90.179688 69.835938 90.179688 C 69.023438 90.179688 68.304688 90.773438 67.585938 91.429688 C 66.992188 91.960938 66.554688 92.398438 65.960938 92.648438 Z M 67.367188 87.085938 "/>
<path fill-rule="nonzero" fill="rgb(0%, 0%, 0%)" fill-opacity="1" d="M 82.175781 93.179688 C 82.394531 93.179688 82.738281 93.179688 82.738281 92.867188 C 82.738281 92.492188 82.394531 92.492188 82.175781 92.492188 L 73.863281 92.492188 C 73.644531 92.492188 73.300781 92.492188 73.300781 92.835938 C 73.300781 93.179688 73.613281 93.179688 73.863281 93.179688 Z M 82.175781 93.179688 "/>
<path fill-rule="nonzero" fill="rgb(0%, 0%, 0%)" fill-opacity="1" d="M 88.910156 87.460938 C 88.910156 87.085938 88.910156 87.085938 88.503906 87.085938 C 87.597656 87.960938 86.347656 87.960938 85.785156 87.960938 L 85.785156 88.460938 C 86.097656 88.460938 87.035156 88.460938 87.785156 88.085938 L 87.785156 95.179688 C 87.785156 95.648438 87.785156 95.835938 86.410156 95.835938 L 85.878906 95.835938 L 85.878906 96.335938 C 86.128906 96.335938 87.847656 96.273438 88.347656 96.273438 C 88.785156 96.273438 90.535156 96.335938 90.847656 96.335938 L 90.847656 95.835938 L 90.316406 95.835938 C 88.910156 95.835938 88.910156 95.648438 88.910156 95.179688 Z M 88.910156 87.460938 "/>
<path fill-rule="nonzero" fill="rgb(0%, 0%, 0%)" fill-opacity="1" d="M 93.441406 85.898438 C 93.347656 85.898438 93.191406 85.898438 93.191406 86.054688 C 93.191406 86.117188 93.222656 86.148438 93.316406 86.273438 C 94.503906 87.367188 95.847656 89.242188 95.847656 92.835938 C 95.847656 95.742188 94.941406 97.960938 93.441406 99.304688 C 93.191406 99.554688 93.191406 99.554688 93.191406 99.648438 C 93.191406 99.710938 93.222656 99.804688 93.347656 99.804688 C 93.535156 99.804688 94.847656 98.898438 95.785156 97.148438 C 96.378906 95.992188 96.785156 94.492188 96.785156 92.867188 C 96.785156 90.898438 96.191406 87.835938 93.441406 85.898438 Z M 93.441406 85.898438 "/>
<path fill-rule="nonzero" fill="rgb(0%, 0%, 0%)" fill-opacity="1" d="M 199.28125 80.640625 C 199.46875 79.921875 199.5 79.734375 201 79.734375 C 201.4375 79.734375 201.625 79.734375 201.625 79.328125 C 201.625 79.109375 201.4375 79.109375 201.09375 79.109375 L 198.46875 79.109375 C 197.9375 79.109375 197.90625 79.109375 197.6875 79.484375 L 190.40625 90.859375 L 188.84375 79.578125 C 188.78125 79.109375 188.75 79.109375 188.21875 79.109375 L 185.5 79.109375 C 185.125 79.109375 184.90625 79.109375 184.90625 79.484375 C 184.90625 79.734375 185.09375 79.734375 185.46875 79.734375 C 185.75 79.734375 186.09375 79.765625 186.34375 79.765625 C 186.65625 79.828125 186.78125 79.859375 186.78125 80.109375 C 186.78125 80.171875 186.75 80.234375 186.6875 80.484375 L 184.15625 90.609375 C 183.96875 91.421875 183.625 92.046875 182 92.109375 C 181.90625 92.109375 181.65625 92.140625 181.65625 92.484375 C 181.65625 92.671875 181.78125 92.734375 181.9375 92.734375 C 182.5625 92.734375 183.25 92.671875 183.9375 92.671875 C 184.59375 92.671875 185.3125 92.734375 185.96875 92.734375 C 186.0625 92.734375 186.34375 92.734375 186.34375 92.328125 C 186.34375 92.109375 186.125 92.109375 185.96875 92.109375 C 184.84375 92.109375 184.625 91.703125 184.625 91.234375 C 184.625 91.109375 184.625 90.984375 184.6875 90.765625 L 187.40625 79.921875 L 187.4375 79.921875 L 189.15625 92.265625 C 189.1875 92.515625 189.21875 92.734375 189.4375 92.734375 C 189.65625 92.734375 189.78125 92.515625 189.875 92.390625 L 197.9375 79.765625 L 197.96875 79.765625 L 195.09375 91.171875 C 194.90625 91.953125 194.875 92.109375 193.28125 92.109375 C 192.96875 92.109375 192.75 92.109375 192.75 92.484375 C 192.75 92.734375 192.96875 92.734375 193.03125 92.734375 C 193.59375 92.734375 194.9375 92.671875 195.5 92.671875 C 196.3125 92.671875 197.1875 92.734375 198 92.734375 C 198.125 92.734375 198.375 92.734375 198.375 92.328125 C 198.375 92.109375 198.1875 92.109375 197.8125 92.109375 C 197.09375 92.109375 196.53125 92.109375 196.53125 91.765625 C 196.53125 91.671875 196.53125 91.640625 196.625 91.265625 Z M 199.28125 80.640625 "/>
<path fill-rule="nonzero" fill="rgb(0%, 0%, 0%)" fill-opacity="1" d="M 210.765625 86.882812 C 210.953125 86.820312 211.078125 86.695312 211.078125 86.539062 C 211.078125 86.320312 210.921875 86.164062 210.734375 86.164062 C 210.703125 86.164062 210.640625 86.164062 210.453125 86.257812 L 201.953125 90.351562 C 201.734375 90.445312 201.640625 90.570312 201.640625 90.726562 C 201.640625 90.882812 201.734375 90.976562 201.953125 91.101562 L 210.453125 95.164062 C 210.640625 95.257812 210.703125 95.257812 210.734375 95.257812 C 210.953125 95.257812 211.078125 95.070312 211.078125 94.945312 C 211.078125 94.695312 210.890625 94.632812 210.765625 94.570312 L 202.765625 90.726562 Z M 210.515625 98.320312 C 210.734375 98.320312 211.078125 98.320312 211.078125 98.007812 C 211.078125 97.664062 210.734375 97.664062 210.515625 97.664062 L 202.203125 97.664062 C 201.953125 97.664062 201.640625 97.664062 201.640625 98.007812 C 201.640625 98.320312 201.984375 98.320312 202.203125 98.320312 Z M 210.515625 98.320312 "/>
<path fill-rule="nonzero" fill="rgb(0%, 0%, 0%)" fill-opacity="1" d="M 216.972656 86.476562 C 216.972656 86.445312 217.003906 86.257812 217.003906 86.257812 C 217.003906 86.164062 216.972656 86.039062 216.785156 86.039062 C 216.503906 86.039062 215.347656 86.164062 215.003906 86.195312 C 214.910156 86.195312 214.691406 86.226562 214.691406 86.507812 C 214.691406 86.695312 214.910156 86.695312 215.066406 86.695312 C 215.722656 86.695312 215.722656 86.820312 215.722656 86.914062 C 215.722656 87.007812 215.691406 87.101562 215.691406 87.226562 L 213.722656 95.101562 C 213.628906 95.351562 213.628906 95.382812 213.628906 95.414062 C 213.628906 95.632812 213.816406 95.851562 214.128906 95.851562 C 214.503906 95.851562 214.660156 95.601562 214.753906 95.289062 C 214.785156 95.226562 215.378906 92.757812 215.441406 92.570312 C 216.441406 92.664062 217.222656 93.007812 217.222656 93.726562 C 217.222656 93.789062 217.222656 93.851562 217.191406 94.007812 C 217.128906 94.195312 217.128906 94.289062 217.128906 94.445312 C 217.128906 95.414062 217.941406 95.851562 218.628906 95.851562 C 219.972656 95.851562 220.378906 93.757812 220.378906 93.726562 C 220.378906 93.539062 220.222656 93.539062 220.160156 93.539062 C 219.972656 93.539062 219.941406 93.632812 219.878906 93.882812 C 219.722656 94.476562 219.347656 95.476562 218.660156 95.476562 C 218.285156 95.476562 218.160156 95.132812 218.160156 94.757812 C 218.160156 94.507812 218.160156 94.476562 218.253906 94.132812 C 218.285156 94.070312 218.316406 93.851562 218.316406 93.695312 C 218.316406 92.445312 216.660156 92.257812 216.066406 92.226562 C 216.472656 91.976562 216.972656 91.507812 217.222656 91.289062 C 217.941406 90.632812 218.628906 89.976562 219.410156 89.976562 C 219.566406 89.976562 219.753906 90.007812 219.878906 90.164062 C 219.285156 90.257812 219.160156 90.726562 219.160156 90.945312 C 219.160156 91.226562 219.378906 91.445312 219.691406 91.445312 C 220.097656 91.445312 220.503906 91.132812 220.503906 90.570312 C 220.503906 90.101562 220.160156 89.570312 219.441406 89.570312 C 218.628906 89.570312 217.910156 90.164062 217.191406 90.820312 C 216.597656 91.351562 216.160156 91.789062 215.566406 92.039062 Z M 216.972656 86.476562 "/>
<path fill="none" stroke-width="0.39848" stroke-linecap="butt" stroke-linejoin="miter" stroke="rgb(0%, 0%, 0%)" stroke-opacity="1" stroke-miterlimit="10" d="M 4.655342 17.793249 L 30.881905 17.793249 " transform="matrix(2, 0, 0, -2, 115.494003, 54.273998)"/>
<path fill="none" stroke-width="0.39848" stroke-linecap="round" stroke-linejoin="round" stroke="rgb(0%, 0%, 0%)" stroke-opacity="1" stroke-miterlimit="10" d="M -2.070206 2.392405 C -1.695206 0.954905 -0.851456 0.279123 0.000106812 0.00177956 C -0.851456 -0.27947 -1.695206 -0.955252 -2.070206 -2.392752 " transform="matrix(2, 0, 0, -2, 177.656036, 18.691059)"/>
<path fill-rule="nonzero" fill="rgb(0%, 0%, 0%)" fill-opacity="1" d="M 143.902344 12.476562 C 142.996094 12.476562 142.871094 12.476562 142.871094 11.882812 L 142.871094 9.632812 C 142.933594 9.695312 143.589844 10.414062 144.746094 10.414062 C 146.589844 10.414062 148.152344 9.039062 148.152344 7.289062 C 148.152344 5.570312 146.746094 4.132812 144.964844 4.132812 C 144.183594 4.132812 143.371094 4.445312 142.808594 5.007812 L 142.808594 4.132812 L 140.714844 4.289062 L 140.714844 4.789062 C 141.683594 4.789062 141.746094 4.882812 141.746094 5.445312 L 141.746094 11.882812 C 141.746094 12.476562 141.621094 12.476562 140.714844 12.476562 L 140.714844 13.007812 C 140.746094 13.007812 141.714844 12.945312 142.308594 12.945312 C 142.808594 12.945312 143.777344 12.976562 143.902344 13.007812 Z M 142.871094 5.632812 C 143.277344 4.945312 144.089844 4.601562 144.808594 4.601562 C 145.996094 4.601562 146.902344 5.820312 146.902344 7.289062 C 146.902344 8.882812 145.839844 10.039062 144.683594 10.039062 C 143.433594 10.039062 142.902344 8.976562 142.871094 8.882812 Z M 142.871094 5.632812 "/>
<path fill-rule="nonzero" fill="rgb(0%, 0%, 0%)" fill-opacity="1" d="M 151.597656 7.101562 C 151.597656 5.945312 152.128906 4.539062 153.472656 4.539062 C 153.347656 4.632812 153.222656 4.820312 153.222656 5.039062 C 153.222656 5.507812 153.597656 5.664062 153.847656 5.664062 C 154.191406 5.664062 154.503906 5.445312 154.503906 5.039062 C 154.503906 4.570312 154.035156 4.132812 153.378906 4.132812 C 152.691406 4.132812 151.910156 4.570312 151.503906 5.632812 L 151.503906 4.132812 L 149.503906 4.289062 L 149.503906 4.789062 C 150.441406 4.789062 150.535156 4.882812 150.535156 5.570312 L 150.535156 9.195312 C 150.535156 9.789062 150.410156 9.789062 149.503906 9.789062 L 149.503906 10.289062 C 149.566406 10.289062 150.503906 10.226562 151.097656 10.226562 C 151.691406 10.226562 152.285156 10.257812 152.910156 10.289062 L 152.910156 9.789062 L 152.628906 9.789062 C 151.597656 9.789062 151.597656 9.632812 151.597656 9.164062 Z M 151.597656 7.101562 "/>
<path fill-rule="nonzero" fill="rgb(0%, 0%, 0%)" fill-opacity="1" d="M 159.023438 7.652344 C 159.023438 7.371094 158.992188 7.371094 158.648438 7.371094 C 157.960938 7.996094 156.835938 7.996094 156.648438 7.996094 L 156.492188 7.996094 L 156.492188 8.433594 L 156.648438 8.433594 C 156.867188 8.433594 157.523438 8.402344 158.117188 8.152344 L 158.117188 13.152344 C 158.117188 13.433594 158.117188 13.558594 157.054688 13.558594 L 156.554688 13.558594 L 156.554688 13.996094 C 157.085938 13.964844 157.992188 13.964844 158.554688 13.964844 C 159.148438 13.964844 160.023438 13.964844 160.585938 13.996094 L 160.585938 13.558594 L 160.085938 13.558594 C 159.023438 13.558594 159.023438 13.433594 159.023438 13.152344 Z M 159.023438 7.652344 "/>
<path fill="none" stroke-width="0.39848" stroke-linecap="butt" stroke-linejoin="miter" stroke="rgb(0%, 0%, 0%)" stroke-opacity="1" stroke-miterlimit="10" d="M -26.645439 8.961218 L -26.645439 -8.175501 " transform="matrix(2, 0, 0, -2, 115.494003, 54.273998)"/>
<path fill="none" stroke-width="0.39848" stroke-linecap="round" stroke-linejoin="round" stroke="rgb(0%, 0%, 0%)" stroke-opacity="1" stroke-miterlimit="10" d="M -2.073799 2.391367 C -1.694893 0.957773 -0.851143 0.278086 0.000419617 0.000741959 C -0.851143 -0.280508 -1.694893 -0.956289 -2.073799 -2.389883 " transform="matrix(0, 2, 2, 0, 62.201641, 71.022598)"/>
<path fill-rule="nonzero" fill="rgb(0%, 0%, 0%)" fill-opacity="1" d="M 46.03125 50.519531 C 45.75 50.050781 45.28125 49.675781 44.59375 49.675781 C 42.8125 49.675781 41 51.644531 41 53.644531 C 41 55.019531 41.90625 55.957031 43.125 55.957031 C 43.875 55.957031 44.53125 55.550781 45.09375 54.988281 C 45.34375 55.832031 46.15625 55.957031 46.53125 55.957031 C 47.03125 55.957031 47.375 55.675781 47.625 55.238281 C 47.9375 54.675781 48.125 53.894531 48.125 53.832031 C 48.125 53.644531 47.9375 53.644531 47.90625 53.644531 C 47.6875 53.644531 47.6875 53.707031 47.59375 54.082031 C 47.40625 54.769531 47.15625 55.582031 46.5625 55.582031 C 46.21875 55.582031 46.09375 55.269531 46.09375 54.894531 C 46.09375 54.675781 46.21875 54.144531 46.3125 53.800781 C 46.40625 53.425781 46.5625 52.863281 46.625 52.550781 L 46.90625 51.488281 C 47 51.113281 47.15625 50.457031 47.15625 50.394531 C 47.15625 50.082031 46.90625 49.957031 46.6875 49.957031 C 46.4375 49.957031 46.125 50.113281 46.03125 50.519531 Z M 45.15625 54.082031 C 45.0625 54.488281 44.75 54.769531 44.4375 55.019531 C 44.3125 55.144531 43.75 55.582031 43.15625 55.582031 C 42.625 55.582031 42.125 55.207031 42.125 54.238281 C 42.125 53.488281 42.53125 51.957031 42.875 51.394531 C 43.5 50.269531 44.21875 50.082031 44.59375 50.082031 C 45.5625 50.082031 45.84375 51.144531 45.84375 51.300781 C 45.84375 51.332031 45.8125 51.457031 45.8125 51.488281 Z M 45.15625 54.082031 "/>
<path fill-rule="nonzero" fill="rgb(0%, 0%, 0%)" fill-opacity="1" d="M 52.457031 51.414062 C 52.519531 51.257812 52.519531 51.257812 52.519531 51.195312 C 52.519531 51.039062 52.363281 51.039062 52.207031 51.039062 L 50.988281 51.132812 C 50.800781 51.132812 50.769531 51.132812 50.738281 51.195312 C 50.707031 51.226562 50.675781 51.351562 50.675781 51.414062 C 50.675781 51.570312 50.832031 51.570312 50.957031 51.570312 C 50.988281 51.570312 51.144531 51.570312 51.300781 51.601562 C 51.488281 51.632812 51.488281 51.664062 51.488281 51.726562 C 51.488281 51.757812 51.488281 51.789062 51.457031 51.976562 L 50.082031 57.476562 C 50.050781 57.601562 50.050781 57.632812 50.050781 57.695312 C 50.050781 57.914062 50.207031 58.070312 50.425781 58.070312 C 50.800781 58.070312 50.894531 57.695312 50.925781 57.539062 L 51.394531 55.726562 C 51.644531 55.726562 52.894531 55.789062 52.894531 56.507812 C 52.894531 56.570312 52.894531 56.601562 52.863281 56.726562 C 52.832031 56.882812 52.832031 56.914062 52.832031 56.976562 C 52.832031 57.695312 53.457031 58.070312 54.050781 58.070312 C 55.050781 58.070312 55.457031 56.632812 55.457031 56.507812 C 55.457031 56.382812 55.300781 56.382812 55.238281 56.382812 C 55.082031 56.382812 55.050781 56.414062 55.019531 56.601562 C 54.925781 56.945312 54.613281 57.726562 54.082031 57.726562 C 53.707031 57.726562 53.675781 57.351562 53.675781 57.132812 C 53.675781 57.132812 53.675781 56.976562 53.707031 56.820312 C 53.738281 56.664062 53.769531 56.539062 53.769531 56.476562 C 53.769531 55.601562 52.644531 55.445312 51.988281 55.382812 C 52.269531 55.226562 52.707031 54.882812 52.863281 54.757812 C 53.425781 54.320312 53.988281 53.882812 54.550781 53.882812 C 54.769531 53.882812 54.832031 53.945312 54.894531 54.007812 C 54.894531 54.007812 54.832031 54.039062 54.800781 54.039062 C 54.363281 54.195312 54.363281 54.601562 54.363281 54.632812 C 54.363281 54.789062 54.488281 55.039062 54.800781 55.039062 C 54.988281 55.039062 55.425781 54.882812 55.425781 54.320312 C 55.425781 53.851562 55.050781 53.539062 54.550781 53.539062 C 53.894531 53.539062 53.300781 54.007812 52.582031 54.570312 C 52.238281 54.851562 51.894531 55.101562 51.488281 55.289062 Z M 52.457031 51.414062 "/>
<path fill="none" stroke-width="0.39848" stroke-linecap="butt" stroke-linejoin="miter" stroke="rgb(0%, 0%, 0%)" stroke-opacity="1" stroke-miterlimit="10" d="M 43.057686 9.957312 L 43.057686 -8.175501 " transform="matrix(2, 0, 0, -2, 115.494003, 54.273998)"/>
<path fill="none" stroke-width="0.39848" stroke-linecap="round" stroke-linejoin="round" stroke="rgb(0%, 0%, 0%)" stroke-opacity="1" stroke-miterlimit="10" d="M -2.073799 2.391289 C -1.694893 0.957695 -0.851143 0.278008 0.000419617 0.000663757 C -0.851143 -0.280586 -1.694893 -0.956367 -2.073799 -2.389961 " transform="matrix(0, 2, 2, 0, 201.608047, 71.022598)"/>
<path fill="none" stroke-width="0.39848" stroke-linecap="butt" stroke-linejoin="miter" stroke="rgb(0%, 0%, 0%)" stroke-opacity="1" stroke-miterlimit="10" d="M -3.543877 -16.738001 L 27.768623 -16.738001 " transform="matrix(2, 0, 0, -2, 115.494003, 54.273998)"/>
<path fill="none" stroke-width="0.39848" stroke-linecap="round" stroke-linejoin="round" stroke="rgb(0%, 0%, 0%)" stroke-opacity="1" stroke-miterlimit="10" d="M -2.074028 2.392464 C -1.695122 0.954964 -0.851372 0.279182 0.000190735 0.00183868 C -0.851372 -0.279411 -1.695122 -0.955193 -2.074028 -2.392693 " transform="matrix(2, 0, 0, -2, 171.429306, 87.753677)"/>
<path fill-rule="nonzero" fill="rgb(0%, 0%, 0%)" fill-opacity="1" d="M 160.160156 72.621094 C 159.941406 72.621094 159.597656 72.621094 159.597656 72.933594 C 159.597656 73.308594 159.910156 73.308594 160.160156 73.308594 L 165.035156 73.308594 C 165.503906 73.308594 165.566406 73.214844 165.566406 72.777344 L 165.566406 67.839844 C 165.566406 67.621094 165.566406 67.308594 165.253906 67.308594 C 164.878906 67.308594 164.878906 67.683594 164.878906 67.902344 L 164.878906 72.621094 Z M 160.160156 72.621094 "/>
</svg>
