<?xml version="1.0" encoding="UTF-8"?>
<svg xmlns="http://www.w3.org/2000/svg" xmlns:xlink="http://www.w3.org/1999/xlink" width="334.533325" height="142.82667" viewBox="0 0 334.533325 142.82667">
<path fill-rule="nonzero" fill="rgb(0%, 0%, 0%)" fill-opacity="1" d="M 53.765625 15.441406 C 54.015625 14.480469 54.058594 14.230469 56.058594 14.230469 C 56.640625 14.230469 56.890625 14.230469 56.890625 13.691406 C 56.890625 13.398438 56.640625 13.398438 56.183594 13.398438 L 52.683594 13.398438 C 51.976562 13.398438 51.933594 13.398438 51.640625 13.898438 L 41.933594 29.066406 L 39.851562 14.023438 C 39.765625 13.398438 39.726562 13.398438 39.015625 13.398438 L 35.390625 13.398438 C 34.890625 13.398438 34.601562 13.398438 34.601562 13.898438 C 34.601562 14.230469 34.851562 14.230469 35.351562 14.230469 C 35.726562 14.230469 36.183594 14.273438 36.515625 14.273438 C 36.933594 14.355469 37.101562 14.398438 37.101562 14.730469 C 37.101562 14.816406 37.058594 14.898438 36.976562 15.230469 L 33.601562 28.730469 C 33.351562 29.816406 32.890625 30.648438 30.726562 30.730469 C 30.601562 30.730469 30.265625 30.773438 30.265625 31.230469 C 30.265625 31.480469 30.433594 31.566406 30.640625 31.566406 C 31.476562 31.566406 32.390625 31.480469 33.308594 31.480469 C 34.183594 31.480469 35.140625 31.566406 36.015625 31.566406 C 36.140625 31.566406 36.515625 31.566406 36.515625 31.023438 C 36.515625 30.730469 36.226562 30.730469 36.015625 30.730469 C 34.515625 30.730469 34.226562 30.191406 34.226562 29.566406 C 34.226562 29.398438 34.226562 29.230469 34.308594 28.941406 L 37.933594 14.480469 L 37.976562 14.480469 L 40.265625 30.941406 C 40.308594 31.273438 40.351562 31.566406 40.640625 31.566406 C 40.933594 31.566406 41.101562 31.273438 41.226562 31.105469 L 51.976562 14.273438 L 52.015625 14.273438 L 48.183594 29.480469 C 47.933594 30.523438 47.890625 30.730469 45.765625 30.730469 C 45.351562 30.730469 45.058594 30.730469 45.058594 31.230469 C 45.058594 31.566406 45.351562 31.566406 45.433594 31.566406 C 46.183594 31.566406 47.976562 31.480469 48.726562 31.480469 C 49.808594 31.480469 50.976562 31.566406 52.058594 31.566406 C 52.226562 31.566406 52.558594 31.566406 52.558594 31.023438 C 52.558594 30.730469 52.308594 30.730469 51.808594 30.730469 C 50.851562 30.730469 50.101562 30.730469 50.101562 30.273438 C 50.101562 30.148438 50.101562 30.105469 50.226562 29.605469 Z M 53.765625 15.441406 "/>
<path fill-rule="nonzero" fill="rgb(0%, 0%, 0%)" fill-opacity="1" d="M 60.746094 23.21875 C 60.746094 23.175781 60.789062 22.925781 60.789062 22.925781 C 60.789062 22.800781 60.746094 22.636719 60.496094 22.636719 C 60.121094 22.636719 58.582031 22.800781 58.121094 22.84375 C 57.996094 22.84375 57.707031 22.886719 57.707031 23.261719 C 57.707031 23.511719 57.996094 23.511719 58.207031 23.511719 C 59.082031 23.511719 59.082031 23.675781 59.082031 23.800781 C 59.082031 23.925781 59.039062 24.050781 59.039062 24.21875 L 56.414062 34.71875 C 56.289062 35.050781 56.289062 35.09375 56.289062 35.136719 C 56.289062 35.425781 56.539062 35.71875 56.957031 35.71875 C 57.457031 35.71875 57.664062 35.386719 57.789062 34.96875 C 57.832031 34.886719 58.621094 31.59375 58.707031 31.34375 C 60.039062 31.46875 61.082031 31.925781 61.082031 32.886719 C 61.082031 32.96875 61.082031 33.050781 61.039062 33.261719 C 60.957031 33.511719 60.957031 33.636719 60.957031 33.84375 C 60.957031 35.136719 62.039062 35.71875 62.957031 35.71875 C 64.746094 35.71875 65.289062 32.925781 65.289062 32.886719 C 65.289062 32.636719 65.082031 32.636719 64.996094 32.636719 C 64.746094 32.636719 64.707031 32.761719 64.621094 33.09375 C 64.414062 33.886719 63.914062 35.21875 62.996094 35.21875 C 62.496094 35.21875 62.332031 34.761719 62.332031 34.261719 C 62.332031 33.925781 62.332031 33.886719 62.457031 33.425781 C 62.496094 33.34375 62.539062 33.050781 62.539062 32.84375 C 62.539062 31.175781 60.332031 30.925781 59.539062 30.886719 C 60.082031 30.550781 60.746094 29.925781 61.082031 29.636719 C 62.039062 28.761719 62.957031 27.886719 63.996094 27.886719 C 64.207031 27.886719 64.457031 27.925781 64.621094 28.136719 C 63.832031 28.261719 63.664062 28.886719 63.664062 29.175781 C 63.664062 29.550781 63.957031 29.84375 64.371094 29.84375 C 64.914062 29.84375 65.457031 29.425781 65.457031 28.675781 C 65.457031 28.050781 64.996094 27.34375 64.039062 27.34375 C 62.957031 27.34375 61.996094 28.136719 61.039062 29.011719 C 60.246094 29.71875 59.664062 30.300781 58.871094 30.636719 Z M 60.746094 23.21875 "/>
<path fill-rule="nonzero" fill="rgb(0%, 0%, 0%)" fill-opacity="1" d="M 84.222656 24.191406 L 78.929688 18.898438 C 78.597656 18.566406 78.554688 18.523438 78.347656 18.523438 C 78.054688 18.523438 77.804688 18.730469 77.804688 19.066406 C 77.804688 19.230469 77.847656 19.273438 78.136719 19.566406 L 83.472656 24.898438 L 78.136719 30.273438 C 77.847656 30.566406 77.804688 30.605469 77.804688 30.773438 C 77.804688 31.105469 78.054688 31.316406 78.347656 31.316406 C 78.554688 31.316406 78.597656 31.273438 78.929688 30.941406 L 84.222656 25.648438 L 89.722656 31.148438 C 89.761719 31.191406 89.929688 31.316406 90.097656 31.316406 C 90.429688 31.316406 90.636719 31.105469 90.636719 30.773438 C 90.636719 30.730469 90.636719 30.648438 90.554688 30.480469 C 90.511719 30.441406 86.304688 26.273438 84.972656 24.898438 L 89.847656 20.066406 C 89.972656 19.898438 90.386719 19.566406 90.511719 19.398438 C 90.511719 19.355469 90.636719 19.230469 90.636719 19.066406 C 90.636719 18.730469 90.429688 18.523438 90.097656 18.523438 C 89.886719 18.523438 89.804688 18.605469 89.511719 18.898438 Z M 84.222656 24.191406 "/>
<path fill-rule="nonzero" fill="rgb(0%, 0%, 0%)" fill-opacity="1" d="M 112.746094 22.566406 C 112.496094 20.898438 111.414062 19.398438 109.332031 19.398438 C 107.707031 19.398438 105.996094 19.855469 103.914062 21.898438 C 101.707031 24.105469 101.539062 26.605469 101.539062 27.398438 C 101.539062 29.066406 102.707031 32.148438 106.414062 32.148438 C 112.746094 32.148438 115.496094 23.230469 115.496094 19.398438 C 115.496094 15.191406 113.039062 12.523438 109.746094 12.523438 C 105.914062 12.523438 104.664062 15.980469 104.664062 16.730469 C 104.664062 17.105469 104.914062 17.648438 105.707031 17.648438 C 106.582031 17.648438 107.121094 16.855469 107.121094 16.273438 C 107.121094 15.316406 106.289062 15.316406 105.871094 15.316406 C 107.039062 13.355469 108.957031 13.191406 109.707031 13.191406 C 111.664062 13.191406 113.496094 14.566406 113.496094 18.023438 C 113.496094 19.066406 113.332031 20.398438 112.789062 22.566406 Z M 106.496094 31.398438 C 103.582031 31.398438 103.582031 28.648438 103.582031 28.398438 C 103.582031 27.691406 104.246094 23.980469 105.332031 22.355469 C 106.371094 20.855469 107.707031 19.980469 109.332031 19.980469 C 112.246094 19.980469 112.289062 22.980469 112.289062 23.523438 C 112.289062 25.441406 110.582031 31.398438 106.496094 31.398438 Z M 106.496094 31.398438 "/>
<path fill-rule="nonzero" fill="rgb(0%, 0%, 0%)" fill-opacity="1" d="M 124.039062 23.148438 L 128.582031 23.148438 C 132.332031 23.148438 136.039062 20.398438 136.039062 17.441406 C 136.039062 15.355469 134.289062 13.398438 130.789062 13.398438 L 122.207031 13.398438 C 121.707031 13.398438 121.414062 13.398438 121.414062 13.898438 C 121.414062 14.230469 121.621094 14.230469 122.164062 14.230469 C 122.496094 14.230469 122.996094 14.273438 123.289062 14.273438 C 123.746094 14.355469 123.871094 14.398438 123.871094 14.730469 C 123.871094 14.816406 123.871094 14.898438 123.789062 15.230469 L 120.207031 29.480469 C 119.957031 30.523438 119.914062 30.730469 117.789062 30.730469 C 117.371094 30.730469 117.082031 30.730469 117.082031 31.230469 C 117.082031 31.566406 117.371094 31.566406 117.457031 31.566406 C 118.207031 31.566406 120.082031 31.480469 120.832031 31.480469 C 121.414062 31.480469 121.996094 31.523438 122.539062 31.523438 C 123.121094 31.523438 123.707031 31.566406 124.246094 31.566406 C 124.457031 31.566406 124.789062 31.566406 124.789062 31.023438 C 124.789062 30.730469 124.539062 30.730469 124.039062 30.730469 C 123.082031 30.730469 122.332031 30.730469 122.332031 30.273438 C 122.332031 30.105469 122.371094 29.980469 122.414062 29.816406 Z M 125.957031 15.230469 C 126.207031 14.316406 126.246094 14.230469 127.414062 14.230469 L 129.957031 14.230469 C 132.164062 14.230469 133.582031 14.941406 133.582031 16.773438 C 133.582031 17.816406 133.039062 20.105469 131.996094 21.066406 C 130.664062 22.273438 129.082031 22.480469 127.914062 22.480469 L 124.164062 22.480469 Z M 125.957031 15.230469 "/>
<path fill-rule="nonzero" fill="rgb(0%, 0%, 0%)" fill-opacity="1" d="M 145.574219 37.941406 C 145.574219 37.855469 145.574219 37.816406 145.117188 37.355469 C 141.824219 34.023438 140.949219 28.980469 140.949219 24.898438 C 140.949219 20.273438 141.949219 15.648438 145.242188 12.355469 C 145.574219 12.023438 145.574219 11.980469 145.574219 11.898438 C 145.574219 11.691406 145.492188 11.605469 145.324219 11.605469 C 145.035156 11.605469 142.660156 13.441406 141.074219 16.816406 C 139.742188 19.730469 139.410156 22.691406 139.410156 24.898438 C 139.410156 26.980469 139.699219 30.191406 141.160156 33.230469 C 142.785156 36.480469 145.035156 38.230469 145.324219 38.230469 C 145.492188 38.230469 145.574219 38.148438 145.574219 37.941406 Z M 145.574219 37.941406 "/>
<path fill-rule="nonzero" fill="rgb(0%, 0%, 0%)" fill-opacity="1" d="M 154.738281 13.398438 C 154.738281 13.398438 154.738281 13.105469 154.40625 13.105469 C 153.78125 13.105469 151.863281 13.316406 151.15625 13.398438 C 150.949219 13.398438 150.65625 13.441406 150.65625 13.898438 C 150.65625 14.230469 150.90625 14.230469 151.28125 14.230469 C 152.574219 14.230469 152.613281 14.398438 152.613281 14.691406 L 152.53125 15.230469 L 148.699219 30.523438 C 148.574219 30.898438 148.574219 30.941406 148.574219 31.105469 C 148.574219 31.730469 149.113281 31.855469 149.363281 31.855469 C 149.699219 31.855469 150.074219 31.605469 150.238281 31.316406 C 150.363281 31.066406 151.574219 26.148438 151.738281 25.480469 C 152.65625 25.566406 154.824219 25.980469 154.824219 27.730469 C 154.824219 27.941406 154.824219 28.023438 154.738281 28.316406 C 154.699219 28.605469 154.65625 28.941406 154.65625 29.230469 C 154.65625 30.773438 155.699219 31.855469 157.074219 31.855469 C 157.863281 31.855469 158.613281 31.441406 159.199219 30.441406 C 159.863281 29.273438 160.15625 27.816406 160.15625 27.773438 C 160.15625 27.480469 159.90625 27.480469 159.824219 27.480469 C 159.574219 27.480469 159.53125 27.605469 159.449219 27.980469 C 158.90625 29.898438 158.324219 31.273438 157.15625 31.273438 C 156.613281 31.273438 156.28125 30.980469 156.28125 30.023438 C 156.28125 29.566406 156.40625 28.941406 156.488281 28.523438 C 156.613281 28.066406 156.613281 27.980469 156.613281 27.691406 C 156.613281 25.980469 154.949219 25.230469 152.65625 24.898438 C 153.488281 24.441406 154.363281 23.605469 154.949219 22.941406 C 156.238281 21.523438 157.449219 20.398438 158.738281 20.398438 C 158.90625 20.398438 158.949219 20.398438 158.988281 20.441406 C 159.324219 20.480469 159.324219 20.480469 159.574219 20.648438 C 159.613281 20.648438 159.613281 20.691406 159.65625 20.730469 C 158.40625 20.816406 158.15625 21.855469 158.15625 22.191406 C 158.15625 22.605469 158.449219 23.105469 159.15625 23.105469 C 159.863281 23.105469 160.613281 22.523438 160.613281 21.480469 C 160.613281 20.691406 159.988281 19.816406 158.824219 19.816406 C 158.074219 19.816406 156.863281 20.023438 154.949219 22.148438 C 154.03125 23.148438 152.988281 24.230469 151.988281 24.605469 Z M 154.738281 13.398438 "/>
<path fill-rule="nonzero" fill="rgb(0%, 0%, 0%)" fill-opacity="1" d="M 169.449219 24.898438 C 169.449219 22.855469 169.15625 19.648438 167.699219 16.605469 C 166.113281 13.355469 163.824219 11.605469 163.574219 11.605469 C 163.40625 11.605469 163.28125 11.730469 163.28125 11.898438 C 163.28125 11.980469 163.28125 12.023438 163.78125 12.523438 C 166.40625 15.148438 167.90625 19.355469 167.90625 24.898438 C 167.90625 29.480469 166.949219 34.148438 163.65625 37.480469 C 163.28125 37.816406 163.28125 37.855469 163.28125 37.941406 C 163.28125 38.105469 163.40625 38.230469 163.574219 38.230469 C 163.824219 38.230469 166.238281 36.398438 167.78125 33.023438 C 169.15625 30.105469 169.449219 27.148438 169.449219 24.898438 Z M 169.449219 24.898438 "/>
<path fill-rule="nonzero" fill="rgb(0%, 0%, 0%)" fill-opacity="1" d="M 291.703125 15.441406 C 291.953125 14.480469 291.992188 14.230469 293.992188 14.230469 C 294.578125 14.230469 294.828125 14.230469 294.828125 13.691406 C 294.828125 13.398438 294.578125 13.398438 294.117188 13.398438 L 290.617188 13.398438 C 289.910156 13.398438 289.867188 13.398438 289.578125 13.898438 L 279.867188 29.066406 L 277.785156 14.023438 C 277.703125 13.398438 277.660156 13.398438 276.953125 13.398438 L 273.328125 13.398438 C 272.828125 13.398438 272.535156 13.398438 272.535156 13.898438 C 272.535156 14.230469 272.785156 14.230469 273.285156 14.230469 C 273.660156 14.230469 274.117188 14.273438 274.453125 14.273438 C 274.867188 14.355469 275.035156 14.398438 275.035156 14.730469 C 275.035156 14.816406 274.992188 14.898438 274.910156 15.230469 L 271.535156 28.730469 C 271.285156 29.816406 270.828125 30.648438 268.660156 30.730469 C 268.535156 30.730469 268.203125 30.773438 268.203125 31.230469 C 268.203125 31.480469 268.367188 31.566406 268.578125 31.566406 C 269.410156 31.566406 270.328125 31.480469 271.242188 31.480469 C 272.117188 31.480469 273.078125 31.566406 273.953125 31.566406 C 274.078125 31.566406 274.453125 31.566406 274.453125 31.023438 C 274.453125 30.730469 274.160156 30.730469 273.953125 30.730469 C 272.453125 30.730469 272.160156 30.191406 272.160156 29.566406 C 272.160156 29.398438 272.160156 29.230469 272.242188 28.941406 L 275.867188 14.480469 L 275.910156 14.480469 L 278.203125 30.941406 C 278.242188 31.273438 278.285156 31.566406 278.578125 31.566406 C 278.867188 31.566406 279.035156 31.273438 279.160156 31.105469 L 289.910156 14.273438 L 289.953125 14.273438 L 286.117188 29.480469 C 285.867188 30.523438 285.828125 30.730469 283.703125 30.730469 C 283.285156 30.730469 282.992188 30.730469 282.992188 31.230469 C 282.992188 31.566406 283.285156 31.566406 283.367188 31.566406 C 284.117188 31.566406 285.910156 31.480469 286.660156 31.480469 C 287.742188 31.480469 288.910156 31.566406 289.992188 31.566406 C 290.160156 31.566406 290.492188 31.566406 290.492188 31.023438 C 290.492188 30.730469 290.242188 30.730469 289.742188 30.730469 C 288.785156 30.730469 288.035156 30.730469 288.035156 30.273438 C 288.035156 30.148438 288.035156 30.105469 288.160156 29.605469 Z M 291.703125 15.441406 "/>
<path fill-rule="nonzero" fill="rgb(0%, 0%, 0%)" fill-opacity="1" d="M 298.683594 23.21875 C 298.683594 23.175781 298.726562 22.925781 298.726562 22.925781 C 298.726562 22.800781 298.683594 22.636719 298.433594 22.636719 C 298.058594 22.636719 296.515625 22.800781 296.058594 22.84375 C 295.933594 22.84375 295.640625 22.886719 295.640625 23.261719 C 295.640625 23.511719 295.933594 23.511719 296.140625 23.511719 C 297.015625 23.511719 297.015625 23.675781 297.015625 23.800781 C 297.015625 23.925781 296.976562 24.050781 296.976562 24.21875 L 294.351562 34.71875 C 294.226562 35.050781 294.226562 35.09375 294.226562 35.136719 C 294.226562 35.425781 294.476562 35.71875 294.890625 35.71875 C 295.390625 35.71875 295.601562 35.386719 295.726562 34.96875 C 295.765625 34.886719 296.558594 31.59375 296.640625 31.34375 C 297.976562 31.46875 299.015625 31.925781 299.015625 32.886719 C 299.015625 32.96875 299.015625 33.050781 298.976562 33.261719 C 298.890625 33.511719 298.890625 33.636719 298.890625 33.84375 C 298.890625 35.136719 299.976562 35.71875 300.890625 35.71875 C 302.683594 35.71875 303.226562 32.925781 303.226562 32.886719 C 303.226562 32.636719 303.015625 32.636719 302.933594 32.636719 C 302.683594 32.636719 302.640625 32.761719 302.558594 33.09375 C 302.351562 33.886719 301.851562 35.21875 300.933594 35.21875 C 300.433594 35.21875 300.265625 34.761719 300.265625 34.261719 C 300.265625 33.925781 300.265625 33.886719 300.390625 33.425781 C 300.433594 33.34375 300.476562 33.050781 300.476562 32.84375 C 300.476562 31.175781 298.265625 30.925781 297.476562 30.886719 C 298.015625 30.550781 298.683594 29.925781 299.015625 29.636719 C 299.976562 28.761719 300.890625 27.886719 301.933594 27.886719 C 302.140625 27.886719 302.390625 27.925781 302.558594 28.136719 C 301.765625 28.261719 301.601562 28.886719 301.601562 29.175781 C 301.601562 29.550781 301.890625 29.84375 302.308594 29.84375 C 302.851562 29.84375 303.390625 29.425781 303.390625 28.675781 C 303.390625 28.050781 302.933594 27.34375 301.976562 27.34375 C 300.890625 27.34375 299.933594 28.136719 298.976562 29.011719 C 298.183594 29.71875 297.601562 30.300781 296.808594 30.636719 Z M 298.683594 23.21875 "/>
<path fill-rule="nonzero" fill="rgb(0%, 0%, 0%)" fill-opacity="1" d="M 75.628906 107.523438 C 75.878906 106.566406 75.921875 106.316406 77.921875 106.316406 C 78.503906 106.316406 78.753906 106.316406 78.753906 105.773438 C 78.753906 105.480469 78.503906 105.480469 78.046875 105.480469 L 74.546875 105.480469 C 73.839844 105.480469 73.796875 105.480469 73.503906 105.980469 L 63.796875 121.148438 L 61.714844 106.105469 C 61.628906 105.480469 61.589844 105.480469 60.878906 105.480469 L 57.253906 105.480469 C 56.753906 105.480469 56.464844 105.480469 56.464844 105.980469 C 56.464844 106.316406 56.714844 106.316406 57.214844 106.316406 C 57.589844 106.316406 58.046875 106.355469 58.378906 106.355469 C 58.796875 106.441406 58.964844 106.480469 58.964844 106.816406 C 58.964844 106.898438 58.921875 106.980469 58.839844 107.316406 L 55.464844 120.816406 C 55.214844 121.898438 54.753906 122.730469 52.589844 122.816406 C 52.464844 122.816406 52.128906 122.855469 52.128906 123.316406 C 52.128906 123.566406 52.296875 123.648438 52.503906 123.648438 C 53.339844 123.648438 54.253906 123.566406 55.171875 123.566406 C 56.046875 123.566406 57.003906 123.648438 57.878906 123.648438 C 58.003906 123.648438 58.378906 123.648438 58.378906 123.105469 C 58.378906 122.816406 58.089844 122.816406 57.878906 122.816406 C 56.378906 122.816406 56.089844 122.273438 56.089844 121.648438 C 56.089844 121.480469 56.089844 121.316406 56.171875 121.023438 L 59.796875 106.566406 L 59.839844 106.566406 L 62.128906 123.023438 C 62.171875 123.355469 62.214844 123.648438 62.503906 123.648438 C 62.796875 123.648438 62.964844 123.355469 63.089844 123.191406 L 73.839844 106.355469 L 73.878906 106.355469 L 70.046875 121.566406 C 69.796875 122.605469 69.753906 122.816406 67.628906 122.816406 C 67.214844 122.816406 66.921875 122.816406 66.921875 123.316406 C 66.921875 123.648438 67.214844 123.648438 67.296875 123.648438 C 68.046875 123.648438 69.839844 123.566406 70.589844 123.566406 C 71.671875 123.566406 72.839844 123.648438 73.921875 123.648438 C 74.089844 123.648438 74.421875 123.648438 74.421875 123.105469 C 74.421875 122.816406 74.171875 122.816406 73.671875 122.816406 C 72.714844 122.816406 71.964844 122.816406 71.964844 122.355469 C 71.964844 122.230469 71.964844 122.191406 72.089844 121.691406 Z M 75.628906 107.523438 "/>
<path fill-rule="nonzero" fill="rgb(0%, 0%, 0%)" fill-opacity="1" d="M 90.945312 116.652344 C 91.195312 116.570312 91.363281 116.402344 91.363281 116.195312 C 91.363281 115.902344 91.152344 115.695312 90.902344 115.695312 C 90.863281 115.695312 90.777344 115.695312 90.527344 115.820312 L 79.195312 121.277344 C 78.902344 121.402344 78.777344 121.570312 78.777344 121.777344 C 78.777344 121.988281 78.902344 122.113281 79.195312 122.277344 L 90.527344 127.695312 C 90.777344 127.820312 90.863281 127.820312 90.902344 127.820312 C 91.195312 127.820312 91.363281 127.570312 91.363281 127.402344 C 91.363281 127.070312 91.113281 126.988281 90.945312 126.902344 L 80.277344 121.777344 Z M 90.613281 131.902344 C 90.902344 131.902344 91.363281 131.902344 91.363281 131.488281 C 91.363281 131.027344 90.902344 131.027344 90.613281 131.027344 L 79.527344 131.027344 C 79.195312 131.027344 78.777344 131.027344 78.777344 131.488281 C 78.777344 131.902344 79.238281 131.902344 79.527344 131.902344 Z M 90.613281 131.902344 "/>
<path fill-rule="nonzero" fill="rgb(0%, 0%, 0%)" fill-opacity="1" d="M 99.964844 114.527344 C 96.464844 116.988281 95.507812 120.945312 95.507812 123.777344 C 95.507812 126.402344 96.296875 130.488281 99.964844 133.070312 C 100.132812 133.070312 100.339844 133.070312 100.339844 132.863281 C 100.339844 132.738281 100.296875 132.695312 100.171875 132.570312 C 97.671875 130.320312 96.796875 127.195312 96.796875 123.820312 C 96.796875 118.777344 98.714844 116.320312 100.214844 114.945312 C 100.296875 114.863281 100.339844 114.820312 100.339844 114.738281 C 100.339844 114.527344 100.132812 114.527344 99.964844 114.527344 Z M 99.964844 114.527344 "/>
<path fill-rule="nonzero" fill="rgb(0%, 0%, 0%)" fill-opacity="1" d="M 107.519531 116.113281 C 107.519531 116.070312 107.558594 115.820312 107.558594 115.820312 C 107.558594 115.695312 107.519531 115.527344 107.269531 115.527344 C 106.894531 115.527344 105.351562 115.695312 104.894531 115.738281 C 104.769531 115.738281 104.476562 115.777344 104.476562 116.152344 C 104.476562 116.402344 104.769531 116.402344 104.976562 116.402344 C 105.851562 116.402344 105.851562 116.570312 105.851562 116.695312 C 105.851562 116.820312 105.808594 116.945312 105.808594 117.113281 L 103.183594 127.613281 C 103.058594 127.945312 103.058594 127.988281 103.058594 128.027344 C 103.058594 128.320312 103.308594 128.613281 103.726562 128.613281 C 104.226562 128.613281 104.433594 128.277344 104.558594 127.863281 C 104.601562 127.777344 105.394531 124.488281 105.476562 124.238281 C 106.808594 124.363281 107.851562 124.820312 107.851562 125.777344 C 107.851562 125.863281 107.851562 125.945312 107.808594 126.152344 C 107.726562 126.402344 107.726562 126.527344 107.726562 126.738281 C 107.726562 128.027344 108.808594 128.613281 109.726562 128.613281 C 111.519531 128.613281 112.058594 125.820312 112.058594 125.777344 C 112.058594 125.527344 111.851562 125.527344 111.769531 125.527344 C 111.519531 125.527344 111.476562 125.652344 111.394531 125.988281 C 111.183594 126.777344 110.683594 128.113281 109.769531 128.113281 C 109.269531 128.113281 109.101562 127.652344 109.101562 127.152344 C 109.101562 126.820312 109.101562 126.777344 109.226562 126.320312 C 109.269531 126.238281 109.308594 125.945312 109.308594 125.738281 C 109.308594 124.070312 107.101562 123.820312 106.308594 123.777344 C 106.851562 123.445312 107.519531 122.820312 107.851562 122.527344 C 108.808594 121.652344 109.726562 120.777344 110.769531 120.777344 C 110.976562 120.777344 111.226562 120.820312 111.394531 121.027344 C 110.601562 121.152344 110.433594 121.777344 110.433594 122.070312 C 110.433594 122.445312 110.726562 122.738281 111.144531 122.738281 C 111.683594 122.738281 112.226562 122.320312 112.226562 121.570312 C 112.226562 120.945312 111.769531 120.238281 110.808594 120.238281 C 109.726562 120.238281 108.769531 121.027344 107.808594 121.902344 C 107.019531 122.613281 106.433594 123.195312 105.644531 123.527344 Z M 107.519531 116.113281 "/>
<path fill-rule="nonzero" fill="rgb(0%, 0%, 0%)" fill-opacity="1" d="M 127.261719 124.238281 C 127.550781 124.238281 128.011719 124.238281 128.011719 123.820312 C 128.011719 123.320312 127.550781 123.320312 127.261719 123.320312 L 116.175781 123.320312 C 115.886719 123.320312 115.425781 123.320312 115.425781 123.777344 C 115.425781 124.238281 115.84375 124.238281 116.175781 124.238281 Z M 127.261719 124.238281 "/>
<path fill-rule="nonzero" fill="rgb(0%, 0%, 0%)" fill-opacity="1" d="M 136.242188 116.613281 C 136.242188 116.113281 136.242188 116.113281 135.699219 116.113281 C 134.492188 117.277344 132.824219 117.277344 132.074219 117.277344 L 132.074219 117.945312 C 132.492188 117.945312 133.742188 117.945312 134.742188 117.445312 L 134.742188 126.902344 C 134.742188 127.527344 134.742188 127.777344 132.90625 127.777344 L 132.199219 127.777344 L 132.199219 128.445312 C 132.53125 128.445312 134.824219 128.363281 135.492188 128.363281 C 136.074219 128.363281 138.40625 128.445312 138.824219 128.445312 L 138.824219 127.777344 L 138.117188 127.777344 C 136.242188 127.777344 136.242188 127.527344 136.242188 126.902344 Z M 136.242188 116.613281 "/>
<path fill-rule="nonzero" fill="rgb(0%, 0%, 0%)" fill-opacity="1" d="M 142.28125 114.527344 C 142.15625 114.527344 141.945312 114.527344 141.945312 114.738281 C 141.945312 114.820312 141.988281 114.863281 142.113281 115.027344 C 143.695312 116.488281 145.488281 118.988281 145.488281 123.777344 C 145.488281 127.652344 144.28125 130.613281 142.28125 132.402344 C 141.945312 132.738281 141.945312 132.738281 141.945312 132.863281 C 141.945312 132.945312 141.988281 133.070312 142.15625 133.070312 C 142.40625 133.070312 144.15625 131.863281 145.40625 129.527344 C 146.195312 127.988281 146.738281 125.988281 146.738281 123.820312 C 146.738281 121.195312 145.945312 117.113281 142.28125 114.527344 Z M 142.28125 114.527344 "/>
<path fill-rule="nonzero" fill="rgb(0%, 0%, 0%)" fill-opacity="1" d="M 283.402344 107.523438 C 283.652344 106.566406 283.691406 106.316406 285.691406 106.316406 C 286.277344 106.316406 286.527344 106.316406 286.527344 105.773438 C 286.527344 105.480469 286.277344 105.480469 285.816406 105.480469 L 282.316406 105.480469 C 281.609375 105.480469 281.566406 105.480469 281.277344 105.980469 L 271.566406 121.148438 L 269.484375 106.105469 C 269.402344 105.480469 269.359375 105.480469 268.652344 105.480469 L 265.027344 105.480469 C 264.527344 105.480469 264.234375 105.480469 264.234375 105.980469 C 264.234375 106.316406 264.484375 106.316406 264.984375 106.316406 C 265.359375 106.316406 265.816406 106.355469 266.152344 106.355469 C 266.566406 106.441406 266.734375 106.480469 266.734375 106.816406 C 266.734375 106.898438 266.691406 106.980469 266.609375 107.316406 L 263.234375 120.816406 C 262.984375 121.898438 262.527344 122.730469 260.359375 122.816406 C 260.234375 122.816406 259.902344 122.855469 259.902344 123.316406 C 259.902344 123.566406 260.066406 123.648438 260.277344 123.648438 C 261.109375 123.648438 262.027344 123.566406 262.941406 123.566406 C 263.816406 123.566406 264.777344 123.648438 265.652344 123.648438 C 265.777344 123.648438 266.152344 123.648438 266.152344 123.105469 C 266.152344 122.816406 265.859375 122.816406 265.652344 122.816406 C 264.152344 122.816406 263.859375 122.273438 263.859375 121.648438 C 263.859375 121.480469 263.859375 121.316406 263.941406 121.023438 L 267.566406 106.566406 L 267.609375 106.566406 L 269.902344 123.023438 C 269.941406 123.355469 269.984375 123.648438 270.277344 123.648438 C 270.566406 123.648438 270.734375 123.355469 270.859375 123.191406 L 281.609375 106.355469 L 281.652344 106.355469 L 277.816406 121.566406 C 277.566406 122.605469 277.527344 122.816406 275.402344 122.816406 C 274.984375 122.816406 274.691406 122.816406 274.691406 123.316406 C 274.691406 123.648438 274.984375 123.648438 275.066406 123.648438 C 275.816406 123.648438 277.609375 123.566406 278.359375 123.566406 C 279.441406 123.566406 280.609375 123.648438 281.691406 123.648438 C 281.859375 123.648438 282.191406 123.648438 282.191406 123.105469 C 282.191406 122.816406 281.941406 122.816406 281.441406 122.816406 C 280.484375 122.816406 279.734375 122.816406 279.734375 122.355469 C 279.734375 122.230469 279.734375 122.191406 279.859375 121.691406 Z M 283.402344 107.523438 "/>
<path fill-rule="nonzero" fill="rgb(0%, 0%, 0%)" fill-opacity="1" d="M 298.714844 115.84375 C 298.964844 115.757812 299.132812 115.59375 299.132812 115.382812 C 299.132812 115.09375 298.925781 114.882812 298.675781 114.882812 C 298.632812 114.882812 298.550781 114.882812 298.300781 115.007812 L 286.964844 120.46875 C 286.675781 120.59375 286.550781 120.757812 286.550781 120.96875 C 286.550781 121.175781 286.675781 121.300781 286.964844 121.46875 L 298.300781 126.882812 C 298.550781 127.007812 298.632812 127.007812 298.675781 127.007812 C 298.964844 127.007812 299.132812 126.757812 299.132812 126.59375 C 299.132812 126.257812 298.882812 126.175781 298.714844 126.09375 L 288.050781 120.96875 Z M 298.382812 131.09375 C 298.675781 131.09375 299.132812 131.09375 299.132812 130.675781 C 299.132812 130.21875 298.675781 130.21875 298.382812 130.21875 L 287.300781 130.21875 C 286.964844 130.21875 286.550781 130.21875 286.550781 130.675781 C 286.550781 131.09375 287.007812 131.09375 287.300781 131.09375 Z M 298.382812 131.09375 "/>
<path fill-rule="nonzero" fill="rgb(0%, 0%, 0%)" fill-opacity="1" d="M 306.988281 115.300781 C 306.988281 115.257812 307.03125 115.007812 307.03125 115.007812 C 307.03125 114.882812 306.988281 114.71875 306.738281 114.71875 C 306.363281 114.71875 304.820312 114.882812 304.363281 114.925781 C 304.238281 114.925781 303.945312 114.96875 303.945312 115.34375 C 303.945312 115.59375 304.238281 115.59375 304.445312 115.59375 C 305.320312 115.59375 305.320312 115.757812 305.320312 115.882812 C 305.320312 116.007812 305.28125 116.132812 305.28125 116.300781 L 302.65625 126.800781 C 302.53125 127.132812 302.53125 127.175781 302.53125 127.21875 C 302.53125 127.507812 302.78125 127.800781 303.195312 127.800781 C 303.695312 127.800781 303.90625 127.46875 304.03125 127.050781 C 304.070312 126.96875 304.863281 123.675781 304.945312 123.425781 C 306.28125 123.550781 307.320312 124.007812 307.320312 124.96875 C 307.320312 125.050781 307.320312 125.132812 307.28125 125.34375 C 307.195312 125.59375 307.195312 125.71875 307.195312 125.925781 C 307.195312 127.21875 308.28125 127.800781 309.195312 127.800781 C 310.988281 127.800781 311.53125 125.007812 311.53125 124.96875 C 311.53125 124.71875 311.320312 124.71875 311.238281 124.71875 C 310.988281 124.71875 310.945312 124.84375 310.863281 125.175781 C 310.65625 125.96875 310.15625 127.300781 309.238281 127.300781 C 308.738281 127.300781 308.570312 126.84375 308.570312 126.34375 C 308.570312 126.007812 308.570312 125.96875 308.695312 125.507812 C 308.738281 125.425781 308.78125 125.132812 308.78125 124.925781 C 308.78125 123.257812 306.570312 123.007812 305.78125 122.96875 C 306.320312 122.632812 306.988281 122.007812 307.320312 121.71875 C 308.28125 120.84375 309.195312 119.96875 310.238281 119.96875 C 310.445312 119.96875 310.695312 120.007812 310.863281 120.21875 C 310.070312 120.34375 309.90625 120.96875 309.90625 121.257812 C 309.90625 121.632812 310.195312 121.925781 310.613281 121.925781 C 311.15625 121.925781 311.695312 121.507812 311.695312 120.757812 C 311.695312 120.132812 311.238281 119.425781 310.28125 119.425781 C 309.195312 119.425781 308.238281 120.21875 307.28125 121.09375 C 306.488281 121.800781 305.90625 122.382812 305.113281 122.71875 Z M 306.988281 115.300781 "/>
<path fill="none" stroke-width="0.39848" stroke-linecap="butt" stroke-linejoin="miter" stroke="rgb(0%, 0%, 0%)" stroke-opacity="1" stroke-miterlimit="10" d="M 4.653152 17.792761 L 30.884109 17.792761 " transform="matrix(2.666667, 0, 0, -2.666667, 171.685343, 72.365331)"/>
<path fill="none" stroke-width="0.39848" stroke-linecap="round" stroke-linejoin="round" stroke="rgb(0%, 0%, 0%)" stroke-opacity="1" stroke-miterlimit="10" d="M -2.071907 2.391916 C -1.693977 0.954905 -0.850227 0.279612 0.00231171 0.00129128 C -0.850227 -0.279959 -1.693977 -0.955252 -2.071907 -2.392263 " transform="matrix(2.666667, 0, 0, -2.666667, 254.568054, 24.921412)"/>
<path fill-rule="nonzero" fill="rgb(0%, 0%, 0%)" fill-opacity="1" d="M 209.5625 16.636719 C 208.355469 16.636719 208.1875 16.636719 208.1875 15.84375 L 208.1875 12.84375 C 208.273438 12.929688 209.148438 13.886719 210.6875 13.886719 C 213.148438 13.886719 215.230469 12.054688 215.230469 9.71875 C 215.230469 7.429688 213.355469 5.511719 210.980469 5.511719 C 209.9375 5.511719 208.855469 5.929688 208.105469 6.679688 L 208.105469 5.511719 L 205.3125 5.71875 L 205.3125 6.386719 C 206.605469 6.386719 206.6875 6.511719 206.6875 7.261719 L 206.6875 15.84375 C 206.6875 16.636719 206.523438 16.636719 205.3125 16.636719 L 205.3125 17.34375 C 205.355469 17.34375 206.648438 17.261719 207.4375 17.261719 C 208.105469 17.261719 209.398438 17.304688 209.5625 17.34375 Z M 208.1875 7.511719 C 208.730469 6.59375 209.8125 6.136719 210.773438 6.136719 C 212.355469 6.136719 213.5625 7.761719 213.5625 9.71875 C 213.5625 11.84375 212.148438 13.386719 210.605469 13.386719 C 208.9375 13.386719 208.230469 11.96875 208.1875 11.84375 Z M 208.1875 7.511719 "/>
<path fill-rule="nonzero" fill="rgb(0%, 0%, 0%)" fill-opacity="1" d="M 219.820312 9.46875 C 219.820312 7.929688 220.53125 6.054688 222.320312 6.054688 C 222.15625 6.179688 221.988281 6.429688 221.988281 6.71875 C 221.988281 7.34375 222.488281 7.554688 222.820312 7.554688 C 223.28125 7.554688 223.695312 7.261719 223.695312 6.71875 C 223.695312 6.09375 223.070312 5.511719 222.195312 5.511719 C 221.28125 5.511719 220.238281 6.09375 219.695312 7.511719 L 219.695312 5.511719 L 217.03125 5.71875 L 217.03125 6.386719 C 218.28125 6.386719 218.40625 6.511719 218.40625 7.429688 L 218.40625 12.261719 C 218.40625 13.054688 218.238281 13.054688 217.03125 13.054688 L 217.03125 13.71875 C 217.113281 13.71875 218.363281 13.636719 219.15625 13.636719 C 219.945312 13.636719 220.738281 13.679688 221.570312 13.71875 L 221.570312 13.054688 L 221.195312 13.054688 C 219.820312 13.054688 219.820312 12.84375 219.820312 12.21875 Z M 219.820312 9.46875 "/>
<path fill-rule="nonzero" fill="rgb(0%, 0%, 0%)" fill-opacity="1" d="M 229.726562 10.207031 C 229.726562 9.832031 229.683594 9.832031 229.226562 9.832031 C 228.308594 10.664062 226.808594 10.664062 226.558594 10.664062 L 226.351562 10.664062 L 226.351562 11.246094 L 226.558594 11.246094 C 226.851562 11.246094 227.726562 11.207031 228.519531 10.871094 L 228.519531 17.539062 C 228.519531 17.914062 228.519531 18.082031 227.101562 18.082031 L 226.433594 18.082031 L 226.433594 18.664062 C 227.144531 18.621094 228.351562 18.621094 229.101562 18.621094 C 229.894531 18.621094 231.058594 18.621094 231.808594 18.664062 L 231.808594 18.082031 L 231.144531 18.082031 C 229.726562 18.082031 229.726562 17.914062 229.726562 17.539062 Z M 229.726562 10.207031 "/>
<path fill="none" stroke-width="0.39848" stroke-linecap="butt" stroke-linejoin="miter" stroke="rgb(0%, 0%, 0%)" stroke-opacity="1" stroke-miterlimit="10" d="M -26.647629 8.961218 L -26.647629 -8.175989 " transform="matrix(2.666667, 0, 0, -2.666667, 171.685343, 72.365331)"/>
<path fill="none" stroke-width="0.39848" stroke-linecap="round" stroke-linejoin="round" stroke="rgb(0%, 0%, 0%)" stroke-opacity="1" stroke-miterlimit="10" d="M -2.073311 2.389179 C -1.695381 0.955097 -0.851631 0.279804 0.000907898 -0.00144577 C -0.851631 -0.278301 -1.695381 -0.955059 -2.073311 -2.392071 " transform="matrix(0, 2.666667, 2.666667, 0, 100.628855, 94.696798)"/>
<path fill-rule="nonzero" fill="rgb(0%, 0%, 0%)" fill-opacity="1" d="M 79.066406 67.359375 C 78.691406 66.734375 78.066406 66.234375 77.152344 66.234375 C 74.777344 66.234375 72.359375 68.859375 72.359375 71.527344 C 72.359375 73.359375 73.566406 74.609375 75.191406 74.609375 C 76.191406 74.609375 77.066406 74.066406 77.816406 73.316406 C 78.152344 74.441406 79.234375 74.609375 79.734375 74.609375 C 80.402344 74.609375 80.859375 74.234375 81.191406 73.652344 C 81.609375 72.902344 81.859375 71.859375 81.859375 71.777344 C 81.859375 71.527344 81.609375 71.527344 81.566406 71.527344 C 81.277344 71.527344 81.277344 71.609375 81.152344 72.109375 C 80.902344 73.027344 80.566406 74.109375 79.777344 74.109375 C 79.316406 74.109375 79.152344 73.691406 79.152344 73.191406 C 79.152344 72.902344 79.316406 72.191406 79.441406 71.734375 C 79.566406 71.234375 79.777344 70.484375 79.859375 70.066406 L 80.234375 68.652344 C 80.359375 68.152344 80.566406 67.277344 80.566406 67.191406 C 80.566406 66.777344 80.234375 66.609375 79.941406 66.609375 C 79.609375 66.609375 79.191406 66.816406 79.066406 67.359375 Z M 77.902344 72.109375 C 77.777344 72.652344 77.359375 73.027344 76.941406 73.359375 C 76.777344 73.527344 76.027344 74.109375 75.234375 74.109375 C 74.527344 74.109375 73.859375 73.609375 73.859375 72.316406 C 73.859375 71.316406 74.402344 69.277344 74.859375 68.527344 C 75.691406 67.027344 76.652344 66.777344 77.152344 66.777344 C 78.441406 66.777344 78.816406 68.191406 78.816406 68.402344 C 78.816406 68.441406 78.777344 68.609375 78.777344 68.652344 Z M 77.902344 72.109375 "/>
<path fill-rule="nonzero" fill="rgb(0%, 0%, 0%)" fill-opacity="1" d="M 87.636719 68.554688 C 87.71875 68.34375 87.71875 68.34375 87.71875 68.261719 C 87.71875 68.054688 87.511719 68.054688 87.300781 68.054688 L 85.675781 68.179688 C 85.425781 68.179688 85.386719 68.179688 85.34375 68.261719 C 85.300781 68.304688 85.261719 68.46875 85.261719 68.554688 C 85.261719 68.761719 85.46875 68.761719 85.636719 68.761719 C 85.675781 68.761719 85.886719 68.761719 86.09375 68.804688 C 86.34375 68.84375 86.34375 68.886719 86.34375 68.96875 C 86.34375 69.011719 86.34375 69.054688 86.300781 69.304688 L 84.46875 76.636719 C 84.425781 76.804688 84.425781 76.84375 84.425781 76.929688 C 84.425781 77.21875 84.636719 77.429688 84.925781 77.429688 C 85.425781 77.429688 85.550781 76.929688 85.59375 76.71875 L 86.21875 74.304688 C 86.550781 74.304688 88.21875 74.386719 88.21875 75.34375 C 88.21875 75.429688 88.21875 75.46875 88.175781 75.636719 C 88.136719 75.84375 88.136719 75.886719 88.136719 75.96875 C 88.136719 76.929688 88.96875 77.429688 89.761719 77.429688 C 91.09375 77.429688 91.636719 75.511719 91.636719 75.34375 C 91.636719 75.179688 91.425781 75.179688 91.34375 75.179688 C 91.136719 75.179688 91.09375 75.21875 91.050781 75.46875 C 90.925781 75.929688 90.511719 76.96875 89.800781 76.96875 C 89.300781 76.96875 89.261719 76.46875 89.261719 76.179688 C 89.261719 76.179688 89.261719 75.96875 89.300781 75.761719 C 89.34375 75.554688 89.386719 75.386719 89.386719 75.304688 C 89.386719 74.136719 87.886719 73.929688 87.011719 73.84375 C 87.386719 73.636719 87.96875 73.179688 88.175781 73.011719 C 88.925781 72.429688 89.675781 71.84375 90.425781 71.84375 C 90.71875 71.84375 90.800781 71.929688 90.886719 72.011719 C 90.886719 72.011719 90.800781 72.054688 90.761719 72.054688 C 90.175781 72.261719 90.175781 72.804688 90.175781 72.84375 C 90.175781 73.054688 90.34375 73.386719 90.761719 73.386719 C 91.011719 73.386719 91.59375 73.179688 91.59375 72.429688 C 91.59375 71.804688 91.09375 71.386719 90.425781 71.386719 C 89.550781 71.386719 88.761719 72.011719 87.800781 72.761719 C 87.34375 73.136719 86.886719 73.46875 86.34375 73.71875 Z M 87.636719 68.554688 "/>
<path fill="none" stroke-width="0.39848" stroke-linecap="butt" stroke-linejoin="miter" stroke="rgb(0%, 0%, 0%)" stroke-opacity="1" stroke-miterlimit="10" d="M 43.055496 9.957312 L 43.055496 -8.175989 " transform="matrix(2.666667, 0, 0, -2.666667, 171.685343, 72.365331)"/>
<path fill="none" stroke-width="0.39848" stroke-linecap="round" stroke-linejoin="round" stroke="rgb(0%, 0%, 0%)" stroke-opacity="1" stroke-miterlimit="10" d="M -2.073311 2.389107 C -1.695381 0.955025 -0.851631 0.279732 0.000907898 -0.00151825 C -0.851631 -0.278374 -1.695381 -0.955132 -2.073311 -2.392143 " transform="matrix(0, 2.666667, 2.666667, 0, 286.504049, 94.696798)"/>
<path fill="none" stroke-width="0.39848" stroke-linecap="butt" stroke-linejoin="miter" stroke="rgb(0%, 0%, 0%)" stroke-opacity="1" stroke-miterlimit="10" d="M -3.542648 -16.738001 L 27.769852 -16.738001 " transform="matrix(2.666667, 0, 0, -2.666667, 171.685343, 72.365331)"/>
<path fill="none" stroke-width="0.39848" stroke-linecap="round" stroke-linejoin="round" stroke="rgb(0%, 0%, 0%)" stroke-opacity="1" stroke-miterlimit="10" d="M -2.072792 2.392464 C -1.693398 0.955452 -0.849648 0.278694 0.0014267 0.00183868 C -0.849648 -0.279411 -1.693398 -0.954704 -2.072792 -2.393181 " transform="matrix(2.666667, 0, 0, -2.666667, 246.265727, 117.004903)"/>
<path fill-rule="nonzero" fill="rgb(0%, 0%, 0%)" fill-opacity="1" d="M 231.242188 96.828125 C 230.949219 96.828125 230.492188 96.828125 230.492188 97.246094 C 230.492188 97.746094 230.910156 97.746094 231.242188 97.746094 L 237.742188 97.746094 C 238.367188 97.746094 238.449219 97.621094 238.449219 97.039062 L 238.449219 90.453125 C 238.449219 90.164062 238.449219 89.746094 238.035156 89.746094 C 237.535156 89.746094 237.535156 90.246094 237.535156 90.539062 L 237.535156 96.828125 Z M 231.242188 96.828125 "/>
</svg>
