<?xml version="1.0" encoding="UTF-8"?>
<svg xmlns="http://www.w3.org/2000/svg" xmlns:xlink="http://www.w3.org/1999/xlink" width="495.23999" height="176.699997" viewBox="0 0 495.23999 176.699997">
<path fill-rule="nonzero" fill="rgb(0%, 0%, 0%)" fill-opacity="1" d="M 17.300781 139.90625 C 16.988281 139.90625 16.925781 139.71875 16.863281 139.46875 C 16.800781 139.21875 16.675781 138.9375 16.363281 138.9375 C 16.113281 138.9375 15.988281 139.15625 15.988281 139.375 C 15.988281 139.96875 16.738281 140.25 17.207031 140.25 C 18.050781 140.25 18.113281 140 18.488281 139.46875 C 18.738281 139.1875 18.894531 138.78125 19.082031 138.28125 C 19.269531 137.78125 19.582031 137.125 19.769531 136.34375 L 21.082031 131.3125 L 22.269531 131.3125 L 22.394531 130.96875 L 21.175781 130.96875 C 21.488281 129.84375 21.957031 127.875 22.269531 127.28125 C 22.394531 127.09375 22.644531 126.8125 23.019531 126.8125 C 23.300781 126.8125 23.425781 127 23.488281 127.25 C 23.550781 127.53125 23.644531 127.78125 23.988281 127.78125 C 24.238281 127.78125 24.363281 127.59375 24.363281 127.375 C 24.363281 126.78125 23.613281 126.5 23.113281 126.5 C 21.300781 126.53125 20.613281 129.4375 20.207031 130.96875 L 19.019531 130.96875 L 18.925781 131.3125 L 20.113281 131.3125 L 18.207031 138.5 C 18.113281 138.84375 17.832031 139.90625 17.300781 139.90625 Z M 17.300781 139.90625 "/>
<path fill-rule="nonzero" fill="rgb(0%, 0%, 0%)" fill-opacity="1" d="M 30.390625 126.78125 C 28.296875 128.125 26.796875 130.5 26.796875 133.4375 C 26.796875 136.15625 28.359375 138.875 30.359375 140.125 L 30.515625 139.875 C 28.609375 138.375 28.046875 136.625 28.046875 133.40625 C 28.046875 130.1875 28.640625 128.5 30.515625 127 Z M 30.390625 126.78125 "/>
<path fill-rule="nonzero" fill="rgb(0%, 0%, 0%)" fill-opacity="1" d="M 34.160156 131.65625 L 32.035156 139.375 C 31.878906 139.8125 31.535156 139.90625 30.910156 139.90625 L 30.847656 140.125 L 34.191406 140.125 L 34.222656 139.90625 C 33.597656 139.90625 33.066406 139.875 33.066406 139.375 C 33.066406 139.3125 33.066406 139.25 33.066406 139.15625 C 33.097656 139.09375 33.128906 139 33.160156 138.875 L 33.691406 136.96875 C 34.910156 136.8125 36.035156 136.25 36.785156 135.59375 C 37.472656 135 38.128906 134.125 38.128906 132.90625 C 38.128906 131.59375 37.347656 130.84375 36.035156 130.84375 C 35.753906 130.84375 35.535156 130.875 35.285156 130.9375 L 35.722656 129.375 L 34.816406 129.375 L 34.285156 131.1875 C 33.878906 131.375 33.472656 131.625 33.128906 131.90625 C 32.753906 132.1875 32.472656 132.46875 32.160156 132.78125 L 32.410156 133.03125 C 32.878906 132.53125 33.566406 131.96875 34.160156 131.65625 Z M 37.035156 133 C 37.035156 133.875 36.566406 134.90625 36.066406 135.40625 C 35.503906 135.9375 34.660156 136.5 33.785156 136.65625 L 35.222656 131.28125 C 35.285156 131.28125 35.410156 131.25 35.503906 131.25 C 35.597656 131.21875 35.722656 131.21875 35.816406 131.21875 C 36.722656 131.21875 37.035156 132.125 37.035156 133 Z M 37.035156 133 "/>
<path fill-rule="nonzero" fill="rgb(0%, 0%, 0%)" fill-opacity="1" d="M 39.542969 139.519531 C 40.511719 139.488281 41.011719 138.644531 41.292969 138.050781 L 41.105469 137.957031 C 40.949219 138.207031 40.542969 139.019531 40.074219 139.019531 C 39.980469 139.019531 39.855469 138.863281 39.855469 138.738281 C 39.855469 138.519531 39.980469 138.113281 40.042969 137.925781 L 40.792969 135.863281 C 40.886719 135.550781 40.917969 135.425781 40.917969 135.238281 C 40.917969 134.894531 40.917969 134.644531 40.574219 134.644531 C 39.855469 134.644531 39.042969 135.457031 38.792969 135.988281 L 39.011719 136.113281 C 39.167969 135.894531 39.574219 135.300781 39.824219 135.300781 C 40.011719 135.300781 40.042969 135.425781 40.042969 135.519531 C 40.074219 135.707031 39.980469 136.019531 39.886719 136.207031 L 39.167969 138.269531 C 39.074219 138.550781 39.011719 138.800781 39.011719 138.925781 C 39.011719 139.300781 39.167969 139.519531 39.542969 139.519531 Z M 41.605469 132.644531 C 41.605469 132.363281 41.355469 132.082031 41.042969 132.082031 C 40.730469 132.082031 40.480469 132.332031 40.480469 132.644531 C 40.480469 132.957031 40.761719 133.207031 41.042969 133.207031 C 41.324219 133.207031 41.605469 132.925781 41.605469 132.644531 Z M 41.605469 132.644531 "/>
<path fill-rule="nonzero" fill="rgb(0%, 0%, 0%)" fill-opacity="1" d="M 44.664062 126.78125 L 44.507812 127 C 46.382812 128.5 47.007812 130.1875 47.007812 133.40625 C 47.007812 136.625 46.445312 138.375 44.507812 139.875 L 44.695312 140.125 C 46.695312 138.875 48.257812 136.15625 48.257812 133.4375 C 48.257812 130.5 46.757812 128.125 44.664062 126.78125 Z M 44.664062 126.78125 "/>
<path fill-rule="nonzero" fill="rgb(0%, 0%, 0%)" fill-opacity="1" d="M 22.480469 155.566406 C 22.667969 155.472656 22.667969 155.410156 22.886719 155.410156 C 22.980469 155.410156 23.074219 155.410156 23.136719 155.472656 C 23.324219 155.628906 23.449219 156.097656 23.792969 156.097656 C 24.074219 156.097656 24.324219 155.847656 24.324219 155.503906 C 24.324219 155.097656 23.824219 154.753906 23.386719 154.753906 C 23.042969 154.753906 22.699219 154.941406 22.324219 155.378906 C 21.917969 154.941406 21.449219 154.753906 20.886719 154.753906 C 20.042969 154.753906 19.417969 155.097656 18.980469 155.535156 C 18.542969 155.972656 18.136719 156.566406 18.136719 157.410156 C 18.136719 158.097656 18.386719 158.628906 18.980469 159.035156 L 18.949219 159.097656 C 18.417969 159.253906 18.167969 159.410156 17.980469 159.566406 C 17.761719 159.722656 17.636719 159.941406 17.636719 160.160156 C 17.636719 160.503906 17.761719 160.785156 18.167969 160.972656 C 18.574219 161.160156 19.199219 161.316406 20.042969 161.503906 C 20.511719 161.566406 20.886719 161.722656 21.136719 161.878906 C 21.417969 162.066406 21.542969 162.253906 21.542969 162.472656 C 21.542969 163.222656 20.449219 163.816406 19.386719 163.816406 C 18.199219 163.847656 17.449219 163.347656 17.449219 162.566406 C 17.449219 162.066406 17.730469 161.722656 18.167969 161.535156 C 17.917969 161.441406 17.855469 161.378906 17.574219 161.378906 C 16.949219 161.378906 16.542969 161.878906 16.542969 162.503906 C 16.542969 162.753906 16.542969 162.972656 16.667969 163.160156 C 17.199219 163.847656 18.136719 164.160156 19.355469 164.160156 C 20.292969 164.160156 21.042969 163.941406 21.636719 163.566406 C 22.074219 163.253906 22.386719 162.816406 22.386719 162.097656 C 22.386719 161.285156 21.292969 160.785156 20.667969 160.628906 C 20.167969 160.472656 19.574219 160.316406 19.167969 160.160156 C 18.980469 160.097656 18.886719 159.972656 18.886719 159.785156 C 18.886719 159.441406 19.480469 159.441406 19.949219 159.378906 C 21.574219 159.253906 22.605469 158.191406 22.605469 156.441406 C 22.605469 156.128906 22.574219 155.816406 22.480469 155.566406 Z M 19.105469 157.847656 C 19.105469 156.535156 19.730469 155.066406 20.761719 155.066406 C 21.480469 155.066406 21.667969 155.691406 21.667969 156.222656 C 21.667969 157.660156 21.042969 159.003906 20.011719 159.003906 C 19.449219 159.003906 19.105469 158.410156 19.105469 157.847656 Z M 19.105469 157.847656 "/>
<path fill-rule="nonzero" fill="rgb(0%, 0%, 0%)" fill-opacity="1" d="M 30.363281 150.691406 C 28.269531 152.035156 26.769531 154.410156 26.769531 157.347656 C 26.769531 160.066406 28.332031 162.785156 30.332031 164.035156 L 30.488281 163.785156 C 28.582031 162.285156 28.019531 160.535156 28.019531 157.316406 C 28.019531 154.097656 28.613281 152.410156 30.488281 150.910156 Z M 30.363281 150.691406 "/>
<path fill-rule="nonzero" fill="rgb(0%, 0%, 0%)" fill-opacity="1" d="M 34.128906 155.566406 L 32.003906 163.285156 C 31.847656 163.722656 31.503906 163.816406 30.878906 163.816406 L 30.816406 164.035156 L 34.160156 164.035156 L 34.191406 163.816406 C 33.566406 163.816406 33.035156 163.785156 33.035156 163.285156 C 33.035156 163.222656 33.035156 163.160156 33.035156 163.066406 C 33.066406 163.003906 33.097656 162.910156 33.128906 162.785156 L 33.660156 160.878906 C 34.878906 160.722656 36.003906 160.160156 36.753906 159.503906 C 37.441406 158.910156 38.097656 158.035156 38.097656 156.816406 C 38.097656 155.503906 37.316406 154.753906 36.003906 154.753906 C 35.722656 154.753906 35.503906 154.785156 35.253906 154.847656 L 35.691406 153.285156 L 34.785156 153.285156 L 34.253906 155.097656 C 33.847656 155.285156 33.441406 155.535156 33.097656 155.816406 C 32.722656 156.097656 32.441406 156.378906 32.128906 156.691406 L 32.378906 156.941406 C 32.847656 156.441406 33.535156 155.878906 34.128906 155.566406 Z M 37.003906 156.910156 C 37.003906 157.785156 36.535156 158.816406 36.035156 159.316406 C 35.472656 159.847656 34.628906 160.410156 33.753906 160.566406 L 35.191406 155.191406 C 35.253906 155.191406 35.378906 155.160156 35.472656 155.160156 C 35.566406 155.128906 35.691406 155.128906 35.785156 155.128906 C 36.691406 155.128906 37.003906 156.035156 37.003906 156.910156 Z M 37.003906 156.910156 "/>
<path fill-rule="nonzero" fill="rgb(0%, 0%, 0%)" fill-opacity="1" d="M 39.515625 163.429688 C 40.484375 163.398438 40.984375 162.554688 41.265625 161.960938 L 41.078125 161.867188 C 40.921875 162.117188 40.515625 162.929688 40.046875 162.929688 C 39.953125 162.929688 39.828125 162.773438 39.828125 162.648438 C 39.828125 162.429688 39.953125 162.023438 40.015625 161.835938 L 40.765625 159.773438 C 40.859375 159.460938 40.890625 159.335938 40.890625 159.148438 C 40.890625 158.804688 40.890625 158.554688 40.546875 158.554688 C 39.828125 158.554688 39.015625 159.367188 38.765625 159.898438 L 38.984375 160.023438 C 39.140625 159.804688 39.546875 159.210938 39.796875 159.210938 C 39.984375 159.210938 40.015625 159.335938 40.015625 159.429688 C 40.046875 159.617188 39.953125 159.929688 39.859375 160.117188 L 39.140625 162.179688 C 39.046875 162.460938 38.984375 162.710938 38.984375 162.835938 C 38.984375 163.210938 39.140625 163.429688 39.515625 163.429688 Z M 41.578125 156.554688 C 41.578125 156.273438 41.328125 155.992188 41.015625 155.992188 C 40.703125 155.992188 40.453125 156.242188 40.453125 156.554688 C 40.453125 156.867188 40.734375 157.117188 41.015625 157.117188 C 41.296875 157.117188 41.578125 156.835938 41.578125 156.554688 Z M 41.578125 156.554688 "/>
<path fill-rule="nonzero" fill="rgb(0%, 0%, 0%)" fill-opacity="1" d="M 44.632812 150.691406 L 44.476562 150.910156 C 46.351562 152.410156 46.976562 154.097656 46.976562 157.316406 C 46.976562 160.535156 46.414062 162.285156 44.476562 163.785156 L 44.664062 164.035156 C 46.664062 162.785156 48.226562 160.066406 48.226562 157.347656 C 48.226562 154.410156 46.726562 152.035156 44.632812 150.691406 Z M 44.632812 150.691406 "/>
<path fill-rule="nonzero" fill="rgb(0%, 0%, 0%)" fill-opacity="1" d="M 218.6875 168.699219 C 218.375 168.699219 218.3125 168.511719 218.25 168.261719 C 218.1875 168.011719 218.0625 167.730469 217.75 167.730469 C 217.5 167.730469 217.375 167.949219 217.375 168.167969 C 217.375 168.761719 218.125 169.042969 218.59375 169.042969 C 219.4375 169.042969 219.5 168.792969 219.875 168.261719 C 220.125 167.980469 220.28125 167.574219 220.46875 167.074219 C 220.65625 166.574219 220.96875 165.917969 221.15625 165.136719 L 222.46875 160.105469 L 223.65625 160.105469 L 223.78125 159.761719 L 222.5625 159.761719 C 222.875 158.636719 223.34375 156.667969 223.65625 156.074219 C 223.78125 155.886719 224.03125 155.605469 224.40625 155.605469 C 224.6875 155.605469 224.8125 155.792969 224.875 156.042969 C 224.9375 156.324219 225.03125 156.574219 225.375 156.574219 C 225.625 156.574219 225.75 156.386719 225.75 156.167969 C 225.75 155.574219 225 155.292969 224.5 155.292969 C 222.6875 155.324219 222 158.230469 221.59375 159.761719 L 220.40625 159.761719 L 220.3125 160.105469 L 221.5 160.105469 L 219.59375 167.292969 C 219.5 167.636719 219.21875 168.699219 218.6875 168.699219 Z M 218.6875 168.699219 "/>
<path fill-rule="nonzero" fill="rgb(0%, 0%, 0%)" fill-opacity="1" d="M 231.777344 155.574219 C 229.683594 156.917969 228.183594 159.292969 228.183594 162.230469 C 228.183594 164.949219 229.746094 167.667969 231.746094 168.917969 L 231.902344 168.667969 C 229.996094 167.167969 229.433594 165.417969 229.433594 162.199219 C 229.433594 158.980469 230.027344 157.292969 231.902344 155.792969 Z M 231.777344 155.574219 "/>
<path fill-rule="nonzero" fill="rgb(0%, 0%, 0%)" fill-opacity="1" d="M 235.546875 160.449219 L 233.421875 168.167969 C 233.265625 168.605469 232.921875 168.699219 232.296875 168.699219 L 232.234375 168.917969 L 235.578125 168.917969 L 235.609375 168.699219 C 234.984375 168.699219 234.453125 168.667969 234.453125 168.167969 C 234.453125 168.105469 234.453125 168.042969 234.453125 167.949219 C 234.484375 167.886719 234.515625 167.792969 234.546875 167.667969 L 235.078125 165.761719 C 236.296875 165.605469 237.421875 165.042969 238.171875 164.386719 C 238.859375 163.792969 239.515625 162.917969 239.515625 161.699219 C 239.515625 160.386719 238.734375 159.636719 237.421875 159.636719 C 237.140625 159.636719 236.921875 159.667969 236.671875 159.730469 L 237.109375 158.167969 L 236.203125 158.167969 L 235.671875 159.980469 C 235.265625 160.167969 234.859375 160.417969 234.515625 160.699219 C 234.140625 160.980469 233.859375 161.261719 233.546875 161.574219 L 233.796875 161.824219 C 234.265625 161.324219 234.953125 160.761719 235.546875 160.449219 Z M 238.421875 161.792969 C 238.421875 162.667969 237.953125 163.699219 237.453125 164.199219 C 236.890625 164.730469 236.046875 165.292969 235.171875 165.449219 L 236.609375 160.074219 C 236.671875 160.074219 236.796875 160.042969 236.890625 160.042969 C 236.984375 160.011719 237.109375 160.011719 237.203125 160.011719 C 238.109375 160.011719 238.421875 160.917969 238.421875 161.792969 Z M 238.421875 161.792969 "/>
<path fill-rule="nonzero" fill="rgb(0%, 0%, 0%)" fill-opacity="1" d="M 240.929688 168.3125 C 241.898438 168.28125 242.398438 167.4375 242.679688 166.84375 L 242.492188 166.75 C 242.335938 167 241.929688 167.8125 241.460938 167.8125 C 241.367188 167.8125 241.242188 167.65625 241.242188 167.53125 C 241.242188 167.3125 241.367188 166.90625 241.429688 166.71875 L 242.179688 164.65625 C 242.273438 164.34375 242.304688 164.21875 242.304688 164.03125 C 242.304688 163.6875 242.304688 163.4375 241.960938 163.4375 C 241.242188 163.4375 240.429688 164.25 240.179688 164.78125 L 240.398438 164.90625 C 240.554688 164.6875 240.960938 164.09375 241.210938 164.09375 C 241.398438 164.09375 241.429688 164.21875 241.429688 164.3125 C 241.460938 164.5 241.367188 164.8125 241.273438 165 L 240.554688 167.0625 C 240.460938 167.34375 240.398438 167.59375 240.398438 167.71875 C 240.398438 168.09375 240.554688 168.3125 240.929688 168.3125 Z M 242.992188 161.4375 C 242.992188 161.15625 242.742188 160.875 242.429688 160.875 C 242.117188 160.875 241.867188 161.125 241.867188 161.4375 C 241.867188 161.75 242.148438 162 242.429688 162 C 242.710938 162 242.992188 161.71875 242.992188 161.4375 Z M 242.992188 161.4375 "/>
<path fill-rule="nonzero" fill="rgb(0%, 0%, 0%)" fill-opacity="1" d="M 246.484375 165.09375 L 244.109375 165.09375 L 244.109375 165.8125 L 246.484375 165.8125 L 246.484375 168.21875 L 247.234375 168.21875 L 247.234375 165.8125 L 249.609375 165.8125 L 249.609375 165.09375 L 247.234375 165.09375 L 247.234375 162.65625 L 246.484375 162.65625 Z M 246.484375 165.09375 "/>
<path fill-rule="nonzero" fill="rgb(0%, 0%, 0%)" fill-opacity="1" d="M 255.476562 168.21875 L 255.476562 167.78125 L 255.007812 167.78125 C 253.882812 167.78125 253.882812 167.65625 253.882812 167.28125 L 253.882812 161.25 C 253.882812 160.9375 253.851562 160.9375 253.507812 160.9375 C 252.789062 161.625 251.664062 161.625 251.257812 161.625 L 251.257812 162.0625 C 251.570312 162.0625 252.289062 162.0625 252.945312 161.75 L 252.945312 167.28125 C 252.945312 167.65625 252.945312 167.78125 251.820312 167.78125 L 251.351562 167.78125 L 251.351562 168.21875 C 251.945312 168.1875 252.789062 168.1875 253.414062 168.1875 C 254.039062 168.1875 254.882812 168.1875 255.476562 168.21875 Z M 255.476562 168.21875 "/>
<path fill-rule="nonzero" fill="rgb(0%, 0%, 0%)" fill-opacity="1" d="M 258.929688 155.574219 L 258.773438 155.792969 C 260.648438 157.292969 261.273438 158.980469 261.273438 162.199219 C 261.273438 165.417969 260.710938 167.167969 258.773438 168.667969 L 258.960938 168.917969 C 260.960938 167.667969 262.523438 164.949219 262.523438 162.230469 C 262.523438 159.292969 261.023438 156.917969 258.929688 155.574219 Z M 258.929688 155.574219 "/>
<path fill-rule="nonzero" fill="rgb(0%, 0%, 0%)" fill-opacity="1" d="M 223.863281 11.390625 C 224.050781 11.296875 224.050781 11.234375 224.269531 11.234375 C 224.363281 11.234375 224.457031 11.234375 224.519531 11.296875 C 224.707031 11.453125 224.832031 11.921875 225.175781 11.921875 C 225.457031 11.921875 225.707031 11.671875 225.707031 11.328125 C 225.707031 10.921875 225.207031 10.578125 224.769531 10.578125 C 224.425781 10.578125 224.082031 10.765625 223.707031 11.203125 C 223.300781 10.765625 222.832031 10.578125 222.269531 10.578125 C 221.425781 10.578125 220.800781 10.921875 220.363281 11.359375 C 219.925781 11.796875 219.519531 12.390625 219.519531 13.234375 C 219.519531 13.921875 219.769531 14.453125 220.363281 14.859375 L 220.332031 14.921875 C 219.800781 15.078125 219.550781 15.234375 219.363281 15.390625 C 219.144531 15.546875 219.019531 15.765625 219.019531 15.984375 C 219.019531 16.328125 219.144531 16.609375 219.550781 16.796875 C 219.957031 16.984375 220.582031 17.140625 221.425781 17.328125 C 221.894531 17.390625 222.269531 17.546875 222.519531 17.703125 C 222.800781 17.890625 222.925781 18.078125 222.925781 18.296875 C 222.925781 19.046875 221.832031 19.640625 220.769531 19.640625 C 219.582031 19.671875 218.832031 19.171875 218.832031 18.390625 C 218.832031 17.890625 219.113281 17.546875 219.550781 17.359375 C 219.300781 17.265625 219.238281 17.203125 218.957031 17.203125 C 218.332031 17.203125 217.925781 17.703125 217.925781 18.328125 C 217.925781 18.578125 217.925781 18.796875 218.050781 18.984375 C 218.582031 19.671875 219.519531 19.984375 220.738281 19.984375 C 221.675781 19.984375 222.425781 19.765625 223.019531 19.390625 C 223.457031 19.078125 223.769531 18.640625 223.769531 17.921875 C 223.769531 17.109375 222.675781 16.609375 222.050781 16.453125 C 221.550781 16.296875 220.957031 16.140625 220.550781 15.984375 C 220.363281 15.921875 220.269531 15.796875 220.269531 15.609375 C 220.269531 15.265625 220.863281 15.265625 221.332031 15.203125 C 222.957031 15.078125 223.988281 14.015625 223.988281 12.265625 C 223.988281 11.953125 223.957031 11.640625 223.863281 11.390625 Z M 220.488281 13.671875 C 220.488281 12.359375 221.113281 10.890625 222.144531 10.890625 C 222.863281 10.890625 223.050781 11.515625 223.050781 12.046875 C 223.050781 13.484375 222.425781 14.828125 221.394531 14.828125 C 220.832031 14.828125 220.488281 14.234375 220.488281 13.671875 Z M 220.488281 13.671875 "/>
<path fill-rule="nonzero" fill="rgb(0%, 0%, 0%)" fill-opacity="1" d="M 231.75 6.515625 C 229.65625 7.859375 228.15625 10.234375 228.15625 13.171875 C 228.15625 15.890625 229.71875 18.609375 231.71875 19.859375 L 231.875 19.609375 C 229.96875 18.109375 229.40625 16.359375 229.40625 13.140625 C 229.40625 9.921875 230 8.234375 231.875 6.734375 Z M 231.75 6.515625 "/>
<path fill-rule="nonzero" fill="rgb(0%, 0%, 0%)" fill-opacity="1" d="M 235.515625 11.390625 L 233.390625 19.109375 C 233.234375 19.546875 232.890625 19.640625 232.265625 19.640625 L 232.203125 19.859375 L 235.546875 19.859375 L 235.578125 19.640625 C 234.953125 19.640625 234.421875 19.609375 234.421875 19.109375 C 234.421875 19.046875 234.421875 18.984375 234.421875 18.890625 C 234.453125 18.828125 234.484375 18.734375 234.515625 18.609375 L 235.046875 16.703125 C 236.265625 16.546875 237.390625 15.984375 238.140625 15.328125 C 238.828125 14.734375 239.484375 13.859375 239.484375 12.640625 C 239.484375 11.328125 238.703125 10.578125 237.390625 10.578125 C 237.109375 10.578125 236.890625 10.609375 236.640625 10.671875 L 237.078125 9.109375 L 236.171875 9.109375 L 235.640625 10.921875 C 235.234375 11.109375 234.828125 11.359375 234.484375 11.640625 C 234.109375 11.921875 233.828125 12.203125 233.515625 12.515625 L 233.765625 12.765625 C 234.234375 12.265625 234.921875 11.703125 235.515625 11.390625 Z M 238.390625 12.734375 C 238.390625 13.609375 237.921875 14.640625 237.421875 15.140625 C 236.859375 15.671875 236.015625 16.234375 235.140625 16.390625 L 236.578125 11.015625 C 236.640625 11.015625 236.765625 10.984375 236.859375 10.984375 C 236.953125 10.953125 237.078125 10.953125 237.171875 10.953125 C 238.078125 10.953125 238.390625 11.859375 238.390625 12.734375 Z M 238.390625 12.734375 "/>
<path fill-rule="nonzero" fill="rgb(0%, 0%, 0%)" fill-opacity="1" d="M 240.902344 19.253906 C 241.871094 19.222656 242.371094 18.378906 242.652344 17.785156 L 242.464844 17.691406 C 242.308594 17.941406 241.902344 18.753906 241.433594 18.753906 C 241.339844 18.753906 241.214844 18.597656 241.214844 18.472656 C 241.214844 18.253906 241.339844 17.847656 241.402344 17.660156 L 242.152344 15.597656 C 242.246094 15.285156 242.277344 15.160156 242.277344 14.972656 C 242.277344 14.628906 242.277344 14.378906 241.933594 14.378906 C 241.214844 14.378906 240.402344 15.191406 240.152344 15.722656 L 240.371094 15.847656 C 240.527344 15.628906 240.933594 15.035156 241.183594 15.035156 C 241.371094 15.035156 241.402344 15.160156 241.402344 15.253906 C 241.433594 15.441406 241.339844 15.753906 241.246094 15.941406 L 240.527344 18.003906 C 240.433594 18.285156 240.371094 18.535156 240.371094 18.660156 C 240.371094 19.035156 240.527344 19.253906 240.902344 19.253906 Z M 242.964844 12.378906 C 242.964844 12.097656 242.714844 11.816406 242.402344 11.816406 C 242.089844 11.816406 241.839844 12.066406 241.839844 12.378906 C 241.839844 12.691406 242.121094 12.941406 242.402344 12.941406 C 242.683594 12.941406 242.964844 12.660156 242.964844 12.378906 Z M 242.964844 12.378906 "/>
<path fill-rule="nonzero" fill="rgb(0%, 0%, 0%)" fill-opacity="1" d="M 246.453125 16.035156 L 244.078125 16.035156 L 244.078125 16.753906 L 246.453125 16.753906 L 246.453125 19.160156 L 247.203125 19.160156 L 247.203125 16.753906 L 249.578125 16.753906 L 249.578125 16.035156 L 247.203125 16.035156 L 247.203125 13.597656 L 246.453125 13.597656 Z M 246.453125 16.035156 "/>
<path fill-rule="nonzero" fill="rgb(0%, 0%, 0%)" fill-opacity="1" d="M 255.445312 19.160156 L 255.445312 18.722656 L 254.976562 18.722656 C 253.851562 18.722656 253.851562 18.597656 253.851562 18.222656 L 253.851562 12.191406 C 253.851562 11.878906 253.820312 11.878906 253.476562 11.878906 C 252.757812 12.566406 251.632812 12.566406 251.226562 12.566406 L 251.226562 13.003906 C 251.539062 13.003906 252.257812 13.003906 252.914062 12.691406 L 252.914062 18.222656 C 252.914062 18.597656 252.914062 18.722656 251.789062 18.722656 L 251.320312 18.722656 L 251.320312 19.160156 C 251.914062 19.128906 252.757812 19.128906 253.382812 19.128906 C 254.007812 19.128906 254.851562 19.128906 255.445312 19.160156 Z M 255.445312 19.160156 "/>
<path fill-rule="nonzero" fill="rgb(0%, 0%, 0%)" fill-opacity="1" d="M 258.898438 6.515625 L 258.742188 6.734375 C 260.617188 8.234375 261.242188 9.921875 261.242188 13.140625 C 261.242188 16.359375 260.679688 18.109375 258.742188 19.609375 L 258.929688 19.859375 C 260.929688 18.609375 262.492188 15.890625 262.492188 13.171875 C 262.492188 10.234375 260.992188 7.859375 258.898438 6.515625 Z M 258.898438 6.515625 "/>
<path fill-rule="nonzero" fill="rgb(0%, 0%, 0%)" fill-opacity="1" d="M 432.953125 139.90625 C 432.640625 139.90625 432.578125 139.71875 432.515625 139.46875 C 432.453125 139.21875 432.328125 138.9375 432.015625 138.9375 C 431.765625 138.9375 431.640625 139.15625 431.640625 139.375 C 431.640625 139.96875 432.390625 140.25 432.859375 140.25 C 433.703125 140.25 433.765625 140 434.140625 139.46875 C 434.390625 139.1875 434.546875 138.78125 434.734375 138.28125 C 434.921875 137.78125 435.234375 137.125 435.421875 136.34375 L 436.734375 131.3125 L 437.921875 131.3125 L 438.046875 130.96875 L 436.828125 130.96875 C 437.140625 129.84375 437.609375 127.875 437.921875 127.28125 C 438.046875 127.09375 438.296875 126.8125 438.671875 126.8125 C 438.953125 126.8125 439.078125 127 439.140625 127.25 C 439.203125 127.53125 439.296875 127.78125 439.640625 127.78125 C 439.890625 127.78125 440.015625 127.59375 440.015625 127.375 C 440.015625 126.78125 439.265625 126.5 438.765625 126.5 C 436.953125 126.53125 436.265625 129.4375 435.859375 130.96875 L 434.671875 130.96875 L 434.578125 131.3125 L 435.765625 131.3125 L 433.859375 138.5 C 433.765625 138.84375 433.484375 139.90625 432.953125 139.90625 Z M 432.953125 139.90625 "/>
<path fill-rule="nonzero" fill="rgb(0%, 0%, 0%)" fill-opacity="1" d="M 446.042969 126.78125 C 443.949219 128.125 442.449219 130.5 442.449219 133.4375 C 442.449219 136.15625 444.011719 138.875 446.011719 140.125 L 446.167969 139.875 C 444.261719 138.375 443.699219 136.625 443.699219 133.40625 C 443.699219 130.1875 444.292969 128.5 446.167969 127 Z M 446.042969 126.78125 "/>
<path fill-rule="nonzero" fill="rgb(0%, 0%, 0%)" fill-opacity="1" d="M 449.808594 131.65625 L 447.683594 139.375 C 447.527344 139.8125 447.183594 139.90625 446.558594 139.90625 L 446.496094 140.125 L 449.839844 140.125 L 449.871094 139.90625 C 449.246094 139.90625 448.714844 139.875 448.714844 139.375 C 448.714844 139.3125 448.714844 139.25 448.714844 139.15625 C 448.746094 139.09375 448.777344 139 448.808594 138.875 L 449.339844 136.96875 C 450.558594 136.8125 451.683594 136.25 452.433594 135.59375 C 453.121094 135 453.777344 134.125 453.777344 132.90625 C 453.777344 131.59375 452.996094 130.84375 451.683594 130.84375 C 451.402344 130.84375 451.183594 130.875 450.933594 130.9375 L 451.371094 129.375 L 450.464844 129.375 L 449.933594 131.1875 C 449.527344 131.375 449.121094 131.625 448.777344 131.90625 C 448.402344 132.1875 448.121094 132.46875 447.808594 132.78125 L 448.058594 133.03125 C 448.527344 132.53125 449.214844 131.96875 449.808594 131.65625 Z M 452.683594 133 C 452.683594 133.875 452.214844 134.90625 451.714844 135.40625 C 451.152344 135.9375 450.308594 136.5 449.433594 136.65625 L 450.871094 131.28125 C 450.933594 131.28125 451.058594 131.25 451.152344 131.25 C 451.246094 131.21875 451.371094 131.21875 451.464844 131.21875 C 452.371094 131.21875 452.683594 132.125 452.683594 133 Z M 452.683594 133 "/>
<path fill-rule="nonzero" fill="rgb(0%, 0%, 0%)" fill-opacity="1" d="M 455.195312 139.519531 C 456.164062 139.488281 456.664062 138.644531 456.945312 138.050781 L 456.757812 137.957031 C 456.601562 138.207031 456.195312 139.019531 455.726562 139.019531 C 455.632812 139.019531 455.507812 138.863281 455.507812 138.738281 C 455.507812 138.519531 455.632812 138.113281 455.695312 137.925781 L 456.445312 135.863281 C 456.539062 135.550781 456.570312 135.425781 456.570312 135.238281 C 456.570312 134.894531 456.570312 134.644531 456.226562 134.644531 C 455.507812 134.644531 454.695312 135.457031 454.445312 135.988281 L 454.664062 136.113281 C 454.820312 135.894531 455.226562 135.300781 455.476562 135.300781 C 455.664062 135.300781 455.695312 135.425781 455.695312 135.519531 C 455.726562 135.707031 455.632812 136.019531 455.539062 136.207031 L 454.820312 138.269531 C 454.726562 138.550781 454.664062 138.800781 454.664062 138.925781 C 454.664062 139.300781 454.820312 139.519531 455.195312 139.519531 Z M 457.257812 132.644531 C 457.257812 132.363281 457.007812 132.082031 456.695312 132.082031 C 456.382812 132.082031 456.132812 132.332031 456.132812 132.644531 C 456.132812 132.957031 456.414062 133.207031 456.695312 133.207031 C 456.976562 133.207031 457.257812 132.925781 457.257812 132.644531 Z M 457.257812 132.644531 "/>
<path fill-rule="nonzero" fill="rgb(0%, 0%, 0%)" fill-opacity="1" d="M 460.746094 136.300781 L 458.371094 136.300781 L 458.371094 137.019531 L 460.746094 137.019531 L 460.746094 139.425781 L 461.496094 139.425781 L 461.496094 137.019531 L 463.871094 137.019531 L 463.871094 136.300781 L 461.496094 136.300781 L 461.496094 133.863281 L 460.746094 133.863281 Z M 460.746094 136.300781 "/>
<path fill-rule="nonzero" fill="rgb(0%, 0%, 0%)" fill-opacity="1" d="M 470.117188 137.363281 L 469.710938 137.363281 C 469.679688 137.519531 469.585938 138.238281 469.398438 138.363281 C 469.335938 138.425781 468.429688 138.425781 468.304688 138.425781 L 466.242188 138.425781 L 467.648438 137.300781 C 468.023438 136.988281 468.992188 136.300781 469.335938 135.957031 C 469.648438 135.644531 470.117188 135.082031 470.117188 134.300781 C 470.117188 132.925781 468.867188 132.144531 467.398438 132.144531 C 465.992188 132.144531 464.992188 133.050781 464.992188 134.082031 C 464.992188 134.644531 465.460938 134.707031 465.585938 134.707031 C 465.867188 134.707031 466.179688 134.519531 466.179688 134.113281 C 466.179688 133.894531 466.054688 133.550781 465.554688 133.550781 C 465.804688 132.988281 466.492188 132.550781 467.242188 132.550781 C 468.398438 132.550781 468.992188 133.425781 468.992188 134.300781 C 468.992188 135.082031 468.492188 135.894531 467.710938 136.582031 L 465.117188 138.957031 C 465.023438 139.082031 464.992188 139.082031 464.992188 139.425781 L 469.773438 139.425781 Z M 470.117188 137.363281 "/>
<path fill-rule="nonzero" fill="rgb(0%, 0%, 0%)" fill-opacity="1" d="M 473.191406 126.78125 L 473.035156 127 C 474.910156 128.5 475.535156 130.1875 475.535156 133.40625 C 475.535156 136.625 474.972656 138.375 473.035156 139.875 L 473.222656 140.125 C 475.222656 138.875 476.785156 136.15625 476.785156 133.4375 C 476.785156 130.5 475.285156 128.125 473.191406 126.78125 Z M 473.191406 126.78125 "/>
<path fill-rule="nonzero" fill="rgb(0%, 0%, 0%)" fill-opacity="1" d="M 438.128906 155.566406 C 438.316406 155.472656 438.316406 155.410156 438.535156 155.410156 C 438.628906 155.410156 438.722656 155.410156 438.785156 155.472656 C 438.972656 155.628906 439.097656 156.097656 439.441406 156.097656 C 439.722656 156.097656 439.972656 155.847656 439.972656 155.503906 C 439.972656 155.097656 439.472656 154.753906 439.035156 154.753906 C 438.691406 154.753906 438.347656 154.941406 437.972656 155.378906 C 437.566406 154.941406 437.097656 154.753906 436.535156 154.753906 C 435.691406 154.753906 435.066406 155.097656 434.628906 155.535156 C 434.191406 155.972656 433.785156 156.566406 433.785156 157.410156 C 433.785156 158.097656 434.035156 158.628906 434.628906 159.035156 L 434.597656 159.097656 C 434.066406 159.253906 433.816406 159.410156 433.628906 159.566406 C 433.410156 159.722656 433.285156 159.941406 433.285156 160.160156 C 433.285156 160.503906 433.410156 160.785156 433.816406 160.972656 C 434.222656 161.160156 434.847656 161.316406 435.691406 161.503906 C 436.160156 161.566406 436.535156 161.722656 436.785156 161.878906 C 437.066406 162.066406 437.191406 162.253906 437.191406 162.472656 C 437.191406 163.222656 436.097656 163.816406 435.035156 163.816406 C 433.847656 163.847656 433.097656 163.347656 433.097656 162.566406 C 433.097656 162.066406 433.378906 161.722656 433.816406 161.535156 C 433.566406 161.441406 433.503906 161.378906 433.222656 161.378906 C 432.597656 161.378906 432.191406 161.878906 432.191406 162.503906 C 432.191406 162.753906 432.191406 162.972656 432.316406 163.160156 C 432.847656 163.847656 433.785156 164.160156 435.003906 164.160156 C 435.941406 164.160156 436.691406 163.941406 437.285156 163.566406 C 437.722656 163.253906 438.035156 162.816406 438.035156 162.097656 C 438.035156 161.285156 436.941406 160.785156 436.316406 160.628906 C 435.816406 160.472656 435.222656 160.316406 434.816406 160.160156 C 434.628906 160.097656 434.535156 159.972656 434.535156 159.785156 C 434.535156 159.441406 435.128906 159.441406 435.597656 159.378906 C 437.222656 159.253906 438.253906 158.191406 438.253906 156.441406 C 438.253906 156.128906 438.222656 155.816406 438.128906 155.566406 Z M 434.753906 157.847656 C 434.753906 156.535156 435.378906 155.066406 436.410156 155.066406 C 437.128906 155.066406 437.316406 155.691406 437.316406 156.222656 C 437.316406 157.660156 436.691406 159.003906 435.660156 159.003906 C 435.097656 159.003906 434.753906 158.410156 434.753906 157.847656 Z M 434.753906 157.847656 "/>
<path fill-rule="nonzero" fill="rgb(0%, 0%, 0%)" fill-opacity="1" d="M 446.011719 150.691406 C 443.917969 152.035156 442.417969 154.410156 442.417969 157.347656 C 442.417969 160.066406 443.980469 162.785156 445.980469 164.035156 L 446.136719 163.785156 C 444.230469 162.285156 443.667969 160.535156 443.667969 157.316406 C 443.667969 154.097656 444.261719 152.410156 446.136719 150.910156 Z M 446.011719 150.691406 "/>
<path fill-rule="nonzero" fill="rgb(0%, 0%, 0%)" fill-opacity="1" d="M 449.78125 155.566406 L 447.65625 163.285156 C 447.5 163.722656 447.15625 163.816406 446.53125 163.816406 L 446.46875 164.035156 L 449.8125 164.035156 L 449.84375 163.816406 C 449.21875 163.816406 448.6875 163.785156 448.6875 163.285156 C 448.6875 163.222656 448.6875 163.160156 448.6875 163.066406 C 448.71875 163.003906 448.75 162.910156 448.78125 162.785156 L 449.3125 160.878906 C 450.53125 160.722656 451.65625 160.160156 452.40625 159.503906 C 453.09375 158.910156 453.75 158.035156 453.75 156.816406 C 453.75 155.503906 452.96875 154.753906 451.65625 154.753906 C 451.375 154.753906 451.15625 154.785156 450.90625 154.847656 L 451.34375 153.285156 L 450.4375 153.285156 L 449.90625 155.097656 C 449.5 155.285156 449.09375 155.535156 448.75 155.816406 C 448.375 156.097656 448.09375 156.378906 447.78125 156.691406 L 448.03125 156.941406 C 448.5 156.441406 449.1875 155.878906 449.78125 155.566406 Z M 452.65625 156.910156 C 452.65625 157.785156 452.1875 158.816406 451.6875 159.316406 C 451.125 159.847656 450.28125 160.410156 449.40625 160.566406 L 450.84375 155.191406 C 450.90625 155.191406 451.03125 155.160156 451.125 155.160156 C 451.21875 155.128906 451.34375 155.128906 451.4375 155.128906 C 452.34375 155.128906 452.65625 156.035156 452.65625 156.910156 Z M 452.65625 156.910156 "/>
<path fill-rule="nonzero" fill="rgb(0%, 0%, 0%)" fill-opacity="1" d="M 455.164062 163.429688 C 456.132812 163.398438 456.632812 162.554688 456.914062 161.960938 L 456.726562 161.867188 C 456.570312 162.117188 456.164062 162.929688 455.695312 162.929688 C 455.601562 162.929688 455.476562 162.773438 455.476562 162.648438 C 455.476562 162.429688 455.601562 162.023438 455.664062 161.835938 L 456.414062 159.773438 C 456.507812 159.460938 456.539062 159.335938 456.539062 159.148438 C 456.539062 158.804688 456.539062 158.554688 456.195312 158.554688 C 455.476562 158.554688 454.664062 159.367188 454.414062 159.898438 L 454.632812 160.023438 C 454.789062 159.804688 455.195312 159.210938 455.445312 159.210938 C 455.632812 159.210938 455.664062 159.335938 455.664062 159.429688 C 455.695312 159.617188 455.601562 159.929688 455.507812 160.117188 L 454.789062 162.179688 C 454.695312 162.460938 454.632812 162.710938 454.632812 162.835938 C 454.632812 163.210938 454.789062 163.429688 455.164062 163.429688 Z M 457.226562 156.554688 C 457.226562 156.273438 456.976562 155.992188 456.664062 155.992188 C 456.351562 155.992188 456.101562 156.242188 456.101562 156.554688 C 456.101562 156.867188 456.382812 157.117188 456.664062 157.117188 C 456.945312 157.117188 457.226562 156.835938 457.226562 156.554688 Z M 457.226562 156.554688 "/>
<path fill-rule="nonzero" fill="rgb(0%, 0%, 0%)" fill-opacity="1" d="M 460.71875 160.210938 L 458.34375 160.210938 L 458.34375 160.929688 L 460.71875 160.929688 L 460.71875 163.335938 L 461.46875 163.335938 L 461.46875 160.929688 L 463.84375 160.929688 L 463.84375 160.210938 L 461.46875 160.210938 L 461.46875 157.773438 L 460.71875 157.773438 Z M 460.71875 160.210938 "/>
<path fill-rule="nonzero" fill="rgb(0%, 0%, 0%)" fill-opacity="1" d="M 470.085938 161.273438 L 469.679688 161.273438 C 469.648438 161.429688 469.554688 162.148438 469.367188 162.273438 C 469.304688 162.335938 468.398438 162.335938 468.273438 162.335938 L 466.210938 162.335938 L 467.617188 161.210938 C 467.992188 160.898438 468.960938 160.210938 469.304688 159.867188 C 469.617188 159.554688 470.085938 158.992188 470.085938 158.210938 C 470.085938 156.835938 468.835938 156.054688 467.367188 156.054688 C 465.960938 156.054688 464.960938 156.960938 464.960938 157.992188 C 464.960938 158.554688 465.429688 158.617188 465.554688 158.617188 C 465.835938 158.617188 466.148438 158.429688 466.148438 158.023438 C 466.148438 157.804688 466.023438 157.460938 465.523438 157.460938 C 465.773438 156.898438 466.460938 156.460938 467.210938 156.460938 C 468.367188 156.460938 468.960938 157.335938 468.960938 158.210938 C 468.960938 158.992188 468.460938 159.804688 467.679688 160.492188 L 465.085938 162.867188 C 464.992188 162.992188 464.960938 162.992188 464.960938 163.335938 L 469.742188 163.335938 Z M 470.085938 161.273438 "/>
<path fill-rule="nonzero" fill="rgb(0%, 0%, 0%)" fill-opacity="1" d="M 473.164062 150.691406 L 473.007812 150.910156 C 474.882812 152.410156 475.507812 154.097656 475.507812 157.316406 C 475.507812 160.535156 474.945312 162.285156 473.007812 163.785156 L 473.195312 164.035156 C 475.195312 162.785156 476.757812 160.066406 476.757812 157.347656 C 476.757812 154.410156 475.257812 152.035156 473.164062 150.691406 Z M 473.164062 150.691406 "/>
<path fill="none" stroke-width="0.3985" stroke-linecap="butt" stroke-linejoin="miter" stroke="rgb(0%, 0%, 0%)" stroke-opacity="1" stroke-miterlimit="10" d="M -196.436935 0.000312805 L -118.76506 0.000312805 " transform="matrix(2, 0, 0, -2, 467.951996, 144.360001)"/>
<path fill-rule="nonzero" fill="rgb(0%, 0%, 0%)" fill-opacity="1" stroke-width="0.3985" stroke-linecap="butt" stroke-linejoin="miter" stroke="rgb(0%, 0%, 0%)" stroke-opacity="1" stroke-miterlimit="10" d="M 4.691467 0.000312805 L 0.644592 1.52375 L 1.972717 0.000312805 L 0.644592 -1.523125 Z M 4.691467 0.000312805 " transform="matrix(2, 0, 0, -2, 226.671753, 144.360001)"/>
<path fill-rule="nonzero" fill="rgb(0%, 0%, 0%)" fill-opacity="1" d="M 136.574219 169.664062 C 136.136719 169.664062 136.042969 169.414062 135.980469 169.039062 C 135.855469 168.695312 135.730469 168.320312 135.261719 168.320312 C 134.949219 168.320312 134.761719 168.601562 134.761719 168.914062 C 134.761719 169.726562 135.792969 170.101562 136.480469 170.101562 C 137.605469 170.101562 137.699219 169.789062 138.230469 169.070312 C 138.542969 168.632812 138.761719 168.101562 139.011719 167.414062 C 139.292969 166.726562 139.699219 165.820312 139.949219 164.726562 L 141.761719 157.851562 L 143.417969 157.851562 L 143.574219 157.382812 L 141.886719 157.382812 C 142.324219 155.820312 142.949219 153.164062 143.417969 152.351562 C 143.574219 152.070312 143.917969 151.664062 144.417969 151.664062 C 144.824219 151.664062 144.980469 151.945312 145.074219 152.289062 C 145.167969 152.664062 145.292969 153.007812 145.761719 153.007812 C 146.074219 153.007812 146.261719 152.726562 146.261719 152.445312 C 146.261719 151.632812 145.230469 151.226562 144.574219 151.226562 C 142.074219 151.289062 141.105469 155.289062 140.542969 157.382812 L 138.917969 157.382812 L 138.792969 157.851562 L 140.449219 157.851562 L 137.824219 167.726562 C 137.699219 168.195312 137.292969 169.664062 136.574219 169.664062 Z M 136.574219 169.664062 "/>
<path fill-rule="nonzero" fill="rgb(0%, 0%, 0%)" fill-opacity="1" d="M 153.917969 151.632812 C 151.042969 153.507812 149.011719 156.726562 149.011719 160.789062 C 149.011719 164.507812 151.105469 168.257812 153.855469 169.945312 L 154.105469 169.632812 C 151.480469 167.539062 150.699219 165.132812 150.699219 160.726562 C 150.699219 156.289062 151.542969 154.007812 154.105469 151.945312 Z M 153.917969 151.632812 "/>
<path fill-rule="nonzero" fill="rgb(0%, 0%, 0%)" fill-opacity="1" d="M 161.050781 157.226562 C 159.519531 157.226562 158.332031 158.320312 157.582031 159.226562 C 156.738281 160.226562 156.082031 161.726562 156.082031 163.445312 C 156.082031 165.070312 156.644531 166.070312 158.207031 166.070312 C 159.582031 166.070312 160.863281 165.070312 161.644531 163.789062 L 161.332031 163.570312 C 160.800781 164.351562 159.707031 165.632812 158.613281 165.632812 C 157.800781 165.632812 157.457031 164.945312 157.457031 163.789062 C 157.457031 163.476562 157.519531 162.851562 157.550781 162.539062 C 159.519531 162.132812 162.800781 160.851562 162.800781 158.601562 C 162.800781 157.695312 161.988281 157.226562 161.050781 157.226562 Z M 160.863281 157.664062 C 161.238281 157.664062 161.582031 158.007812 161.582031 158.445312 C 161.582031 160.226562 159.332031 161.539062 157.644531 162.070312 C 158.019531 160.695312 159.238281 157.664062 160.863281 157.664062 Z M 160.863281 157.664062 "/>
<path fill-rule="nonzero" fill="rgb(0%, 0%, 0%)" fill-opacity="1" d="M 164.238281 169.027344 C 165.550781 168.996094 166.238281 167.871094 166.582031 167.089844 L 166.332031 166.964844 C 166.113281 167.308594 165.582031 168.371094 164.988281 168.371094 C 164.863281 168.371094 164.675781 168.152344 164.675781 167.996094 C 164.675781 167.714844 164.863281 167.152344 164.957031 166.933594 L 165.894531 164.183594 C 166.050781 163.777344 166.113281 163.589844 166.113281 163.339844 C 166.113281 162.902344 166.082031 162.558594 165.613281 162.558594 C 164.707031 162.558594 163.613281 163.652344 163.300781 164.371094 L 163.582031 164.527344 C 163.769531 164.246094 164.300781 163.433594 164.644531 163.433594 C 164.863281 163.433594 164.925781 163.589844 164.925781 163.746094 C 164.957031 163.964844 164.832031 164.371094 164.738281 164.652344 L 163.769531 167.402344 C 163.644531 167.746094 163.582031 168.058594 163.582031 168.246094 C 163.582031 168.746094 163.769531 169.027344 164.238281 169.027344 Z M 167.019531 159.933594 C 167.019531 159.527344 166.675781 159.152344 166.269531 159.152344 C 165.863281 159.152344 165.519531 159.527344 165.519531 159.933594 C 165.519531 160.339844 165.894531 160.652344 166.269531 160.652344 C 166.613281 160.652344 167.019531 160.277344 167.019531 159.933594 Z M 167.019531 159.933594 "/>
<path fill-rule="nonzero" fill="rgb(0%, 0%, 0%)" fill-opacity="1" d="M 169.78125 151.632812 L 169.625 151.945312 C 172.1875 154.007812 173 156.289062 173 160.726562 C 173 165.132812 172.25 167.539062 169.625 169.632812 L 169.84375 169.945312 C 172.59375 168.257812 174.71875 164.507812 174.71875 160.789062 C 174.71875 156.726562 172.6875 153.507812 169.78125 151.632812 Z M 169.78125 151.632812 "/>
<path fill="none" stroke-width="0.3985" stroke-linecap="butt" stroke-linejoin="miter" stroke="rgb(0%, 0%, 0%)" stroke-opacity="1" stroke-miterlimit="10" d="M -111.393967 0.000312805 L -33.725998 0.000312805 " transform="matrix(2, 0, 0, -2, 467.951996, 144.360001)"/>
<path fill-rule="nonzero" fill="rgb(0%, 0%, 0%)" fill-opacity="1" stroke-width="0.3985" stroke-linecap="butt" stroke-linejoin="miter" stroke="rgb(0%, 0%, 0%)" stroke-opacity="1" stroke-miterlimit="10" d="M 4.694016 0.000312805 L 0.643234 1.52375 L 1.971359 0.000312805 L 0.643234 -1.523125 Z M 4.694016 0.000312805 " transform="matrix(2, 0, 0, -2, 396.752594, 144.360001)"/>
<path fill-rule="nonzero" fill="rgb(0%, 0%, 0%)" fill-opacity="1" d="M 298.410156 169.664062 C 297.972656 169.664062 297.878906 169.414062 297.816406 169.039062 C 297.691406 168.695312 297.566406 168.320312 297.097656 168.320312 C 296.785156 168.320312 296.597656 168.601562 296.597656 168.914062 C 296.597656 169.726562 297.628906 170.101562 298.316406 170.101562 C 299.441406 170.101562 299.535156 169.789062 300.066406 169.070312 C 300.378906 168.632812 300.597656 168.101562 300.847656 167.414062 C 301.128906 166.726562 301.535156 165.820312 301.785156 164.726562 L 303.597656 157.851562 L 305.253906 157.851562 L 305.410156 157.382812 L 303.722656 157.382812 C 304.160156 155.820312 304.785156 153.164062 305.253906 152.351562 C 305.410156 152.070312 305.753906 151.664062 306.253906 151.664062 C 306.660156 151.664062 306.816406 151.945312 306.910156 152.289062 C 307.003906 152.664062 307.128906 153.007812 307.597656 153.007812 C 307.910156 153.007812 308.097656 152.726562 308.097656 152.445312 C 308.097656 151.632812 307.066406 151.226562 306.410156 151.226562 C 303.910156 151.289062 302.941406 155.289062 302.378906 157.382812 L 300.753906 157.382812 L 300.628906 157.851562 L 302.285156 157.851562 L 299.660156 167.726562 C 299.535156 168.195312 299.128906 169.664062 298.410156 169.664062 Z M 298.410156 169.664062 "/>
<path fill-rule="nonzero" fill="rgb(0%, 0%, 0%)" fill-opacity="1" d="M 315.757812 151.632812 C 312.882812 153.507812 310.851562 156.726562 310.851562 160.789062 C 310.851562 164.507812 312.945312 168.257812 315.695312 169.945312 L 315.945312 169.632812 C 313.320312 167.539062 312.539062 165.132812 312.539062 160.726562 C 312.539062 156.289062 313.382812 154.007812 315.945312 151.945312 Z M 315.757812 151.632812 "/>
<path fill-rule="nonzero" fill="rgb(0%, 0%, 0%)" fill-opacity="1" d="M 322.890625 157.226562 C 321.359375 157.226562 320.171875 158.320312 319.421875 159.226562 C 318.578125 160.226562 317.921875 161.726562 317.921875 163.445312 C 317.921875 165.070312 318.484375 166.070312 320.046875 166.070312 C 321.421875 166.070312 322.703125 165.070312 323.484375 163.789062 L 323.171875 163.570312 C 322.640625 164.351562 321.546875 165.632812 320.453125 165.632812 C 319.640625 165.632812 319.296875 164.945312 319.296875 163.789062 C 319.296875 163.476562 319.359375 162.851562 319.390625 162.539062 C 321.359375 162.132812 324.640625 160.851562 324.640625 158.601562 C 324.640625 157.695312 323.828125 157.226562 322.890625 157.226562 Z M 322.703125 157.664062 C 323.078125 157.664062 323.421875 158.007812 323.421875 158.445312 C 323.421875 160.226562 321.171875 161.539062 319.484375 162.070312 C 319.859375 160.695312 321.078125 157.664062 322.703125 157.664062 Z M 322.703125 157.664062 "/>
<path fill-rule="nonzero" fill="rgb(0%, 0%, 0%)" fill-opacity="1" d="M 326.074219 169.027344 C 327.386719 168.996094 328.074219 167.871094 328.417969 167.089844 L 328.167969 166.964844 C 327.949219 167.308594 327.417969 168.371094 326.824219 168.371094 C 326.699219 168.371094 326.511719 168.152344 326.511719 167.996094 C 326.511719 167.714844 326.699219 167.152344 326.792969 166.933594 L 327.730469 164.183594 C 327.886719 163.777344 327.949219 163.589844 327.949219 163.339844 C 327.949219 162.902344 327.917969 162.558594 327.449219 162.558594 C 326.542969 162.558594 325.449219 163.652344 325.136719 164.371094 L 325.417969 164.527344 C 325.605469 164.246094 326.136719 163.433594 326.480469 163.433594 C 326.699219 163.433594 326.761719 163.589844 326.761719 163.746094 C 326.792969 163.964844 326.667969 164.371094 326.574219 164.652344 L 325.605469 167.402344 C 325.480469 167.746094 325.417969 168.058594 325.417969 168.246094 C 325.417969 168.746094 325.605469 169.027344 326.074219 169.027344 Z M 328.855469 159.933594 C 328.855469 159.527344 328.511719 159.152344 328.105469 159.152344 C 327.699219 159.152344 327.355469 159.527344 327.355469 159.933594 C 327.355469 160.339844 327.730469 160.652344 328.105469 160.652344 C 328.449219 160.652344 328.855469 160.277344 328.855469 159.933594 Z M 328.855469 159.933594 "/>
<path fill-rule="nonzero" fill="rgb(0%, 0%, 0%)" fill-opacity="1" d="M 333.5 164.746094 L 330.3125 164.746094 L 330.3125 165.714844 L 333.5 165.714844 L 333.5 168.902344 L 334.4375 168.902344 L 334.4375 165.714844 L 337.625 165.714844 L 337.625 164.746094 L 334.4375 164.746094 L 334.4375 161.558594 L 333.5 161.558594 Z M 333.5 164.746094 "/>
<path fill-rule="nonzero" fill="rgb(0%, 0%, 0%)" fill-opacity="1" d="M 344.953125 168.902344 L 344.953125 168.371094 L 344.390625 168.371094 C 342.953125 168.371094 342.953125 168.183594 342.953125 167.714844 L 342.953125 159.652344 C 342.953125 159.277344 342.921875 159.246094 342.515625 159.246094 C 341.578125 160.183594 340.265625 160.183594 339.671875 160.183594 L 339.671875 160.714844 C 340.015625 160.714844 340.984375 160.714844 341.765625 160.308594 L 341.765625 167.714844 C 341.765625 168.183594 341.765625 168.371094 340.328125 168.371094 L 339.765625 168.371094 L 339.765625 168.902344 L 342.359375 168.839844 Z M 344.953125 168.902344 "/>
<path fill-rule="nonzero" fill="rgb(0%, 0%, 0%)" fill-opacity="1" d="M 348.105469 151.632812 L 347.949219 151.945312 C 350.511719 154.007812 351.324219 156.289062 351.324219 160.726562 C 351.324219 165.132812 350.574219 167.539062 347.949219 169.632812 L 348.167969 169.945312 C 350.917969 168.257812 353.042969 164.507812 353.042969 160.789062 C 353.042969 156.726562 351.011719 153.507812 348.105469 151.632812 Z M 348.105469 151.632812 "/>
<path fill="none" stroke-width="0.3985" stroke-linecap="butt" stroke-linejoin="miter" stroke="rgb(0%, 0%, 0%)" stroke-opacity="1" stroke-miterlimit="10" d="M -196.436935 1.328438 L -118.198654 53.488594 " transform="matrix(2, 0, 0, -2, 467.951996, 144.360001)"/>
<path fill-rule="nonzero" fill="rgb(0%, 0%, 0%)" fill-opacity="1" stroke-width="0.3985" stroke-linecap="butt" stroke-linejoin="miter" stroke="rgb(0%, 0%, 0%)" stroke-opacity="1" stroke-miterlimit="10" d="M 4.693229 -0.00114703 L 0.644405 1.52443 L 1.971602 0.00107269 L 0.643263 -1.526566 Z M 4.693229 -0.00114703 " transform="matrix(1.664, -1.10938, -1.10938, -1.664, 228.439194, 39.462479)"/>
<path fill-rule="nonzero" fill="rgb(0%, 0%, 0%)" fill-opacity="1" d="M 116.152344 68.917969 C 116.433594 68.730469 116.433594 68.667969 116.714844 68.667969 C 116.871094 68.667969 116.964844 68.667969 117.058594 68.730469 C 117.308594 68.980469 117.464844 69.605469 117.933594 69.605469 C 118.339844 69.605469 118.683594 69.261719 118.683594 68.824219 C 118.683594 68.261719 117.996094 67.792969 117.402344 67.792969 C 116.933594 67.792969 116.433594 68.042969 115.933594 68.636719 C 115.402344 68.042969 114.714844 67.761719 113.933594 67.761719 C 112.808594 67.761719 111.964844 68.261719 111.339844 68.855469 C 110.746094 69.449219 110.183594 70.292969 110.183594 71.449219 C 110.183594 72.355469 110.527344 73.105469 111.339844 73.667969 L 111.308594 73.761719 C 110.589844 73.980469 110.214844 74.167969 109.964844 74.386719 C 109.683594 74.605469 109.527344 74.886719 109.527344 75.199219 C 109.527344 75.667969 109.652344 76.042969 110.214844 76.292969 C 110.777344 76.574219 111.621094 76.792969 112.808594 77.011719 C 113.464844 77.105469 113.933594 77.324219 114.339844 77.542969 C 114.683594 77.824219 114.871094 78.074219 114.871094 78.386719 C 114.871094 79.417969 113.371094 80.199219 111.902344 80.230469 C 110.277344 80.261719 109.246094 79.574219 109.246094 78.480469 C 109.246094 77.792969 109.652344 77.324219 110.246094 77.074219 C 109.902344 76.949219 109.808594 76.886719 109.433594 76.886719 C 108.558594 76.886719 107.996094 77.542969 107.996094 78.386719 C 107.996094 78.730469 107.996094 79.042969 108.183594 79.324219 C 108.902344 80.261719 110.183594 80.667969 111.839844 80.667969 C 113.183594 80.667969 114.183594 80.386719 114.996094 79.855469 C 115.589844 79.417969 116.027344 78.855469 116.027344 77.855469 C 116.027344 76.730469 114.527344 76.042969 113.652344 75.824219 C 112.964844 75.636719 112.183594 75.417969 111.589844 75.199219 C 111.339844 75.136719 111.246094 74.917969 111.246094 74.699219 C 111.246094 74.199219 112.027344 74.199219 112.683594 74.105469 C 114.933594 73.949219 116.308594 72.480469 116.308594 70.105469 C 116.308594 69.667969 116.277344 69.230469 116.152344 68.917969 Z M 111.527344 72.042969 C 111.527344 70.230469 112.371094 68.199219 113.777344 68.199219 C 114.777344 68.199219 115.027344 69.074219 115.027344 69.792969 C 115.027344 71.761719 114.183594 73.574219 112.746094 73.605469 C 111.996094 73.605469 111.527344 72.792969 111.527344 72.042969 Z M 111.527344 72.042969 "/>
<path fill-rule="nonzero" fill="rgb(0%, 0%, 0%)" fill-opacity="1" d="M 126.351562 62.199219 C 123.476562 64.074219 121.445312 67.292969 121.445312 71.355469 C 121.445312 75.074219 123.539062 78.824219 126.289062 80.511719 L 126.539062 80.199219 C 123.914062 78.105469 123.132812 75.699219 123.132812 71.292969 C 123.132812 66.855469 123.976562 64.574219 126.539062 62.511719 Z M 126.351562 62.199219 "/>
<path fill-rule="nonzero" fill="rgb(0%, 0%, 0%)" fill-opacity="1" d="M 133.484375 67.792969 C 131.953125 67.792969 130.765625 68.886719 130.015625 69.792969 C 129.171875 70.792969 128.515625 72.292969 128.515625 74.011719 C 128.515625 75.636719 129.078125 76.636719 130.640625 76.636719 C 132.015625 76.636719 133.296875 75.636719 134.078125 74.355469 L 133.765625 74.136719 C 133.234375 74.917969 132.140625 76.199219 131.046875 76.199219 C 130.234375 76.199219 129.890625 75.511719 129.890625 74.355469 C 129.890625 74.042969 129.953125 73.417969 129.984375 73.105469 C 131.953125 72.699219 135.234375 71.417969 135.234375 69.167969 C 135.234375 68.261719 134.421875 67.792969 133.484375 67.792969 Z M 133.296875 68.230469 C 133.671875 68.230469 134.015625 68.574219 134.015625 69.011719 C 134.015625 70.792969 131.765625 72.105469 130.078125 72.636719 C 130.453125 71.261719 131.671875 68.230469 133.296875 68.230469 Z M 133.296875 68.230469 "/>
<path fill-rule="nonzero" fill="rgb(0%, 0%, 0%)" fill-opacity="1" d="M 136.671875 79.59375 C 137.984375 79.5625 138.671875 78.4375 139.015625 77.65625 L 138.765625 77.53125 C 138.546875 77.875 138.015625 78.9375 137.421875 78.9375 C 137.296875 78.9375 137.109375 78.71875 137.109375 78.5625 C 137.109375 78.28125 137.296875 77.71875 137.390625 77.5 L 138.328125 74.75 C 138.484375 74.34375 138.546875 74.15625 138.546875 73.90625 C 138.546875 73.46875 138.515625 73.125 138.046875 73.125 C 137.140625 73.125 136.046875 74.21875 135.734375 74.9375 L 136.015625 75.09375 C 136.203125 74.8125 136.734375 74 137.078125 74 C 137.296875 74 137.359375 74.15625 137.359375 74.3125 C 137.390625 74.53125 137.265625 74.9375 137.171875 75.21875 L 136.203125 77.96875 C 136.078125 78.3125 136.015625 78.625 136.015625 78.8125 C 136.015625 79.3125 136.203125 79.59375 136.671875 79.59375 Z M 139.453125 70.5 C 139.453125 70.09375 139.109375 69.71875 138.703125 69.71875 C 138.296875 69.71875 137.953125 70.09375 137.953125 70.5 C 137.953125 70.90625 138.328125 71.21875 138.703125 71.21875 C 139.046875 71.21875 139.453125 70.84375 139.453125 70.5 Z M 139.453125 70.5 "/>
<path fill-rule="nonzero" fill="rgb(0%, 0%, 0%)" fill-opacity="1" d="M 142.214844 62.199219 L 142.058594 62.511719 C 144.621094 64.574219 145.433594 66.855469 145.433594 71.292969 C 145.433594 75.699219 144.683594 78.105469 142.058594 80.199219 L 142.277344 80.511719 C 145.027344 78.824219 147.152344 75.074219 147.152344 71.355469 C 147.152344 67.292969 145.121094 64.074219 142.214844 62.199219 Z M 142.214844 62.199219 "/>
<path fill="none" stroke-width="0.3985" stroke-linecap="butt" stroke-linejoin="miter" stroke="rgb(0%, 0%, 0%)" stroke-opacity="1" stroke-miterlimit="10" d="M -111.393967 55.3675 L -33.155685 3.207344 " transform="matrix(2, 0, 0, -2, 467.951996, 144.360001)"/>
<path fill-rule="nonzero" fill="rgb(0%, 0%, 0%)" fill-opacity="1" stroke-width="0.3985" stroke-linecap="butt" stroke-linejoin="miter" stroke="rgb(0%, 0%, 0%)" stroke-opacity="1" stroke-miterlimit="10" d="M 4.692952 -0.000926766 L 0.642985 1.524493 L 1.974575 -0.000979527 L 0.644128 -1.526503 Z M 4.692952 -0.000926766 " transform="matrix(1.664, 1.10938, 1.10938, -1.664, 398.520081, 135.870316)"/>
<path fill-rule="nonzero" fill="rgb(0%, 0%, 0%)" fill-opacity="1" d="M 341.289062 68.921875 C 341.570312 68.734375 341.570312 68.671875 341.851562 68.671875 C 342.007812 68.671875 342.101562 68.671875 342.195312 68.734375 C 342.445312 68.984375 342.601562 69.609375 343.070312 69.609375 C 343.476562 69.609375 343.820312 69.265625 343.820312 68.828125 C 343.820312 68.265625 343.132812 67.796875 342.539062 67.796875 C 342.070312 67.796875 341.570312 68.046875 341.070312 68.640625 C 340.539062 68.046875 339.851562 67.765625 339.070312 67.765625 C 337.945312 67.765625 337.101562 68.265625 336.476562 68.859375 C 335.882812 69.453125 335.320312 70.296875 335.320312 71.453125 C 335.320312 72.359375 335.664062 73.109375 336.476562 73.671875 L 336.445312 73.765625 C 335.726562 73.984375 335.351562 74.171875 335.101562 74.390625 C 334.820312 74.609375 334.664062 74.890625 334.664062 75.203125 C 334.664062 75.671875 334.789062 76.046875 335.351562 76.296875 C 335.914062 76.578125 336.757812 76.796875 337.945312 77.015625 C 338.601562 77.109375 339.070312 77.328125 339.476562 77.546875 C 339.820312 77.828125 340.007812 78.078125 340.007812 78.390625 C 340.007812 79.421875 338.507812 80.203125 337.039062 80.234375 C 335.414062 80.265625 334.382812 79.578125 334.382812 78.484375 C 334.382812 77.796875 334.789062 77.328125 335.382812 77.078125 C 335.039062 76.953125 334.945312 76.890625 334.570312 76.890625 C 333.695312 76.890625 333.132812 77.546875 333.132812 78.390625 C 333.132812 78.734375 333.132812 79.046875 333.320312 79.328125 C 334.039062 80.265625 335.320312 80.671875 336.976562 80.671875 C 338.320312 80.671875 339.320312 80.390625 340.132812 79.859375 C 340.726562 79.421875 341.164062 78.859375 341.164062 77.859375 C 341.164062 76.734375 339.664062 76.046875 338.789062 75.828125 C 338.101562 75.640625 337.320312 75.421875 336.726562 75.203125 C 336.476562 75.140625 336.382812 74.921875 336.382812 74.703125 C 336.382812 74.203125 337.164062 74.203125 337.820312 74.109375 C 340.070312 73.953125 341.445312 72.484375 341.445312 70.109375 C 341.445312 69.671875 341.414062 69.234375 341.289062 68.921875 Z M 336.664062 72.046875 C 336.664062 70.234375 337.507812 68.203125 338.914062 68.203125 C 339.914062 68.203125 340.164062 69.078125 340.164062 69.796875 C 340.164062 71.765625 339.320312 73.578125 337.882812 73.609375 C 337.132812 73.609375 336.664062 72.796875 336.664062 72.046875 Z M 336.664062 72.046875 "/>
<path fill-rule="nonzero" fill="rgb(0%, 0%, 0%)" fill-opacity="1" d="M 351.488281 62.203125 C 348.613281 64.078125 346.582031 67.296875 346.582031 71.359375 C 346.582031 75.078125 348.675781 78.828125 351.425781 80.515625 L 351.675781 80.203125 C 349.050781 78.109375 348.269531 75.703125 348.269531 71.296875 C 348.269531 66.859375 349.113281 64.578125 351.675781 62.515625 Z M 351.488281 62.203125 "/>
<path fill-rule="nonzero" fill="rgb(0%, 0%, 0%)" fill-opacity="1" d="M 358.617188 67.796875 C 357.085938 67.796875 355.898438 68.890625 355.148438 69.796875 C 354.304688 70.796875 353.648438 72.296875 353.648438 74.015625 C 353.648438 75.640625 354.210938 76.640625 355.773438 76.640625 C 357.148438 76.640625 358.429688 75.640625 359.210938 74.359375 L 358.898438 74.140625 C 358.367188 74.921875 357.273438 76.203125 356.179688 76.203125 C 355.367188 76.203125 355.023438 75.515625 355.023438 74.359375 C 355.023438 74.046875 355.085938 73.421875 355.117188 73.109375 C 357.085938 72.703125 360.367188 71.421875 360.367188 69.171875 C 360.367188 68.265625 359.554688 67.796875 358.617188 67.796875 Z M 358.429688 68.234375 C 358.804688 68.234375 359.148438 68.578125 359.148438 69.015625 C 359.148438 70.796875 356.898438 72.109375 355.210938 72.640625 C 355.585938 71.265625 356.804688 68.234375 358.429688 68.234375 Z M 358.429688 68.234375 "/>
<path fill-rule="nonzero" fill="rgb(0%, 0%, 0%)" fill-opacity="1" d="M 361.804688 79.597656 C 363.117188 79.566406 363.804688 78.441406 364.148438 77.660156 L 363.898438 77.535156 C 363.679688 77.878906 363.148438 78.941406 362.554688 78.941406 C 362.429688 78.941406 362.242188 78.722656 362.242188 78.566406 C 362.242188 78.285156 362.429688 77.722656 362.523438 77.503906 L 363.460938 74.753906 C 363.617188 74.347656 363.679688 74.160156 363.679688 73.910156 C 363.679688 73.472656 363.648438 73.128906 363.179688 73.128906 C 362.273438 73.128906 361.179688 74.222656 360.867188 74.941406 L 361.148438 75.097656 C 361.335938 74.816406 361.867188 74.003906 362.210938 74.003906 C 362.429688 74.003906 362.492188 74.160156 362.492188 74.316406 C 362.523438 74.535156 362.398438 74.941406 362.304688 75.222656 L 361.335938 77.972656 C 361.210938 78.316406 361.148438 78.628906 361.148438 78.816406 C 361.148438 79.316406 361.335938 79.597656 361.804688 79.597656 Z M 364.585938 70.503906 C 364.585938 70.097656 364.242188 69.722656 363.835938 69.722656 C 363.429688 69.722656 363.085938 70.097656 363.085938 70.503906 C 363.085938 70.910156 363.460938 71.222656 363.835938 71.222656 C 364.179688 71.222656 364.585938 70.847656 364.585938 70.503906 Z M 364.585938 70.503906 "/>
<path fill-rule="nonzero" fill="rgb(0%, 0%, 0%)" fill-opacity="1" d="M 369.230469 75.316406 L 366.042969 75.316406 L 366.042969 76.285156 L 369.230469 76.285156 L 369.230469 79.472656 L 370.167969 79.472656 L 370.167969 76.285156 L 373.355469 76.285156 L 373.355469 75.316406 L 370.167969 75.316406 L 370.167969 72.128906 L 369.230469 72.128906 Z M 369.230469 75.316406 "/>
<path fill-rule="nonzero" fill="rgb(0%, 0%, 0%)" fill-opacity="1" d="M 380.683594 79.472656 L 380.683594 78.941406 L 380.121094 78.941406 C 378.683594 78.941406 378.683594 78.753906 378.683594 78.285156 L 378.683594 70.222656 C 378.683594 69.847656 378.652344 69.816406 378.246094 69.816406 C 377.308594 70.753906 375.996094 70.753906 375.402344 70.753906 L 375.402344 71.285156 C 375.746094 71.285156 376.714844 71.285156 377.496094 70.878906 L 377.496094 78.285156 C 377.496094 78.753906 377.496094 78.941406 376.058594 78.941406 L 375.496094 78.941406 L 375.496094 79.472656 L 378.089844 79.410156 Z M 380.683594 79.472656 "/>
<path fill-rule="nonzero" fill="rgb(0%, 0%, 0%)" fill-opacity="1" d="M 383.835938 62.203125 L 383.679688 62.515625 C 386.242188 64.578125 387.054688 66.859375 387.054688 71.296875 C 387.054688 75.703125 386.304688 78.109375 383.679688 80.203125 L 383.898438 80.515625 C 386.648438 78.828125 388.773438 75.078125 388.773438 71.359375 C 388.773438 67.296875 386.742188 64.078125 383.835938 62.203125 Z M 383.835938 62.203125 "/>
<path fill-rule="nonzero" fill="rgb(0%, 0%, 0%)" fill-opacity="1" d="M 75.078125 144.359375 C 75.078125 142.15625 73.296875 140.375 71.09375 140.375 C 68.898438 140.375 67.109375 142.15625 67.109375 144.359375 C 67.109375 146.5625 68.898438 148.34375 71.09375 148.34375 C 73.296875 148.34375 75.078125 146.5625 75.078125 144.359375 Z M 75.078125 144.359375 "/>
<path fill-rule="nonzero" fill="rgb(0%, 0%, 0%)" fill-opacity="1" d="M 245.164062 144.359375 C 245.164062 142.15625 243.375 140.375 241.179688 140.375 C 238.976562 140.375 237.195312 142.15625 237.195312 144.359375 C 237.195312 146.5625 238.976562 148.34375 241.179688 148.34375 C 243.375 148.34375 245.164062 146.5625 245.164062 144.359375 Z M 245.164062 144.359375 "/>
<path fill-rule="nonzero" fill="rgb(0%, 0%, 0%)" fill-opacity="1" d="M 415.242188 144.359375 C 415.242188 142.15625 413.460938 140.375 411.257812 140.375 C 409.054688 140.375 407.273438 142.15625 407.273438 144.359375 C 407.273438 146.5625 409.054688 148.34375 411.257812 148.34375 C 413.460938 148.34375 415.242188 146.5625 415.242188 144.359375 Z M 415.242188 144.359375 "/>
<path fill-rule="nonzero" fill="rgb(0%, 0%, 0%)" fill-opacity="1" d="M 245.164062 30.976562 C 245.164062 28.773438 243.375 26.984375 241.179688 26.984375 C 238.976562 26.984375 237.195312 28.773438 237.195312 30.976562 C 237.195312 33.171875 238.976562 34.960938 241.179688 34.960938 C 243.375 34.960938 245.164062 33.171875 245.164062 30.976562 Z M 245.164062 30.976562 "/>
</svg>
