<?xml version="1.0" encoding="UTF-8"?>
<svg xmlns="http://www.w3.org/2000/svg" xmlns:xlink="http://www.w3.org/1999/xlink" width="239.139999" height="109.660004" viewBox="0 0 239.139999 109.660004">
<path fill-rule="nonzero" fill="rgb(0%, 0%, 0%)" fill-opacity="1" d="M 34.765625 13.191406 L 35.203125 12.535156 L 32.609375 22.441406 C 32.484375 22.910156 32.390625 23.253906 32.234375 23.535156 C 32.078125 24.003906 31.671875 24.503906 31.234375 24.691406 C 31.015625 24.785156 30.703125 24.847656 30.390625 24.847656 L 30.296875 25.128906 L 36.046875 25.128906 L 36.140625 24.847656 C 35.515625 24.847656 35.015625 24.785156 34.765625 24.597656 C 34.484375 24.378906 34.421875 23.941406 34.421875 23.535156 C 34.421875 23.222656 34.484375 22.785156 34.640625 22.253906 L 36.609375 14.785156 C 36.765625 14.160156 36.890625 13.660156 37.015625 13.285156 C 37.234375 12.691406 37.671875 12.035156 38.109375 11.722656 C 38.328125 11.597656 38.609375 11.566406 38.953125 11.566406 L 39.046875 11.285156 L 35.453125 11.285156 L 28.765625 22.003906 L 28.484375 22.003906 L 27.203125 11.285156 L 22.921875 11.285156 L 22.828125 11.566406 C 23.453125 11.566406 23.859375 11.566406 24.078125 11.691406 C 24.359375 11.816406 24.703125 12.316406 24.703125 12.691406 C 24.703125 13.003906 24.640625 13.503906 24.453125 14.160156 L 22.265625 22.441406 C 22.109375 23.066406 21.609375 23.753906 21.140625 24.160156 C 20.703125 24.566406 20.015625 24.847656 19.453125 24.847656 L 19.390625 25.128906 L 24.359375 25.128906 L 24.453125 24.847656 C 23.984375 24.816406 23.453125 24.722656 23.234375 24.410156 C 23.015625 24.097656 22.703125 23.566406 22.703125 23.066406 C 22.703125 22.785156 22.703125 22.503906 22.765625 22.253906 L 25.171875 13.191406 L 25.296875 12.753906 L 26.765625 25.128906 L 27.359375 25.128906 Z M 34.765625 13.191406 "/>
<path fill-rule="nonzero" fill="rgb(0%, 0%, 0%)" fill-opacity="1" d="M 42.242188 22.351562 C 41.617188 22.351562 40.960938 22.851562 40.492188 23.476562 L 40.398438 23.476562 L 41.898438 18.007812 L 39.648438 18.101562 L 39.554688 18.320312 C 40.148438 18.320312 40.617188 18.445312 40.617188 18.882812 C 40.617188 18.945312 40.585938 19.132812 40.523438 19.320312 L 37.992188 28.695312 L 38.960938 28.695312 L 39.679688 26.132812 L 40.054688 26.007812 L 40.835938 27.882812 C 40.992188 28.226562 41.117188 28.476562 41.242188 28.632812 C 41.367188 28.757812 41.523438 28.820312 41.710938 28.820312 C 42.648438 28.820312 42.960938 28.226562 43.460938 27.039062 L 43.210938 26.914062 C 42.929688 27.507812 42.710938 28.101562 42.273438 28.101562 C 42.085938 28.101562 41.835938 27.539062 41.679688 27.101562 L 41.054688 25.570312 L 41.335938 25.414062 C 41.992188 25.101562 42.585938 24.789062 42.960938 24.414062 C 43.335938 24.070312 43.554688 23.695312 43.554688 23.320312 C 43.554688 22.664062 43.085938 22.351562 42.242188 22.351562 Z M 39.867188 25.695312 C 39.992188 25.101562 40.492188 23.945312 40.867188 23.570312 C 41.117188 23.257812 41.648438 22.664062 42.117188 22.664062 C 42.648438 22.664062 42.648438 23.132812 42.648438 23.445312 C 42.617188 24.539062 40.679688 25.351562 39.867188 25.695312 Z M 39.867188 25.695312 "/>
<path fill-rule="nonzero" fill="rgb(0%, 0%, 0%)" fill-opacity="1" d="M 61.582031 24.441406 L 57.144531 20.003906 L 61.582031 15.566406 L 60.800781 14.753906 L 56.363281 19.222656 L 51.925781 14.753906 L 51.144531 15.566406 L 55.550781 20.003906 L 51.144531 24.441406 L 51.925781 25.222656 L 56.363281 20.785156 L 60.800781 25.222656 Z M 61.582031 24.441406 "/>
<path fill-rule="nonzero" fill="rgb(0%, 0%, 0%)" fill-opacity="1" d="M 77.351562 16.535156 C 77.351562 13.660156 76.476562 11.347656 74.320312 11.347656 C 72.632812 11.347656 70.820312 12.941406 70.820312 13.816406 C 70.820312 14.472656 71.351562 14.753906 71.757812 14.753906 C 72.164062 14.753906 72.414062 14.410156 72.476562 14.347656 C 72.414062 14.316406 72.289062 14.128906 72.289062 13.847656 C 72.289062 13.660156 72.632812 11.941406 74.351562 11.941406 C 75.789062 11.941406 76.101562 13.785156 76.101562 15.410156 C 76.101562 16.628906 75.945312 17.691406 75.945312 17.722656 L 75.914062 17.722656 C 75.914062 17.691406 75.132812 16.472656 73.570312 16.472656 C 69.570312 16.472656 67.914062 20.347656 67.914062 22.410156 C 67.914062 24.253906 69.007812 25.441406 71.226562 25.441406 C 74.664062 25.441406 77.351562 21.972656 77.351562 16.535156 Z M 75.070312 18.785156 C 75.070312 19.316406 74.570312 24.972656 71.351562 24.972656 C 70.226562 24.972656 69.726562 24.316406 69.726562 23.066406 C 69.726562 21.785156 70.539062 16.941406 73.414062 16.941406 C 74.539062 16.941406 75.070312 17.597656 75.070312 18.785156 Z M 75.070312 18.785156 "/>
<path fill-rule="nonzero" fill="rgb(0%, 0%, 0%)" fill-opacity="1" d="M 90.871094 25.128906 L 85.308594 11.660156 L 84.964844 11.660156 L 79.027344 25.128906 Z M 88.558594 24.285156 L 80.339844 24.285156 L 84.621094 14.628906 Z M 88.558594 24.285156 "/>
<path fill-rule="nonzero" fill="rgb(0%, 0%, 0%)" fill-opacity="1" d="M 95.621094 11.550781 C 94.996094 11.550781 94.339844 12.050781 93.871094 12.675781 L 93.777344 12.675781 L 95.277344 7.207031 L 93.027344 7.300781 L 92.933594 7.519531 C 93.527344 7.519531 93.996094 7.644531 93.996094 8.082031 C 93.996094 8.144531 93.964844 8.332031 93.902344 8.519531 L 91.371094 17.894531 L 92.339844 17.894531 L 93.058594 15.332031 L 93.433594 15.207031 L 94.214844 17.082031 C 94.371094 17.425781 94.496094 17.675781 94.621094 17.832031 C 94.746094 17.957031 94.902344 18.019531 95.089844 18.019531 C 96.027344 18.019531 96.339844 17.425781 96.839844 16.238281 L 96.589844 16.113281 C 96.308594 16.707031 96.089844 17.300781 95.652344 17.300781 C 95.464844 17.300781 95.214844 16.738281 95.058594 16.300781 L 94.433594 14.769531 L 94.714844 14.613281 C 95.371094 14.300781 95.964844 13.988281 96.339844 13.613281 C 96.714844 13.269531 96.933594 12.894531 96.933594 12.519531 C 96.933594 11.863281 96.464844 11.550781 95.621094 11.550781 Z M 93.246094 14.894531 C 93.371094 14.300781 93.871094 13.144531 94.246094 12.769531 C 94.496094 12.457031 95.027344 11.863281 95.496094 11.863281 C 96.027344 11.863281 96.027344 12.332031 96.027344 12.644531 C 95.996094 13.738281 94.058594 14.550781 93.246094 14.894531 Z M 93.246094 14.894531 "/>
<path fill-rule="nonzero" fill="rgb(0%, 0%, 0%)" fill-opacity="1" d="M 167.324219 28.972656 L 167.324219 11.035156 L 166.199219 11.035156 L 166.199219 28.972656 Z M 167.324219 28.972656 "/>
<path fill-rule="nonzero" fill="rgb(0%, 0%, 0%)" fill-opacity="1" d="M 184.449219 13.191406 L 184.886719 12.535156 L 182.292969 22.441406 C 182.167969 22.910156 182.074219 23.253906 181.917969 23.535156 C 181.761719 24.003906 181.355469 24.503906 180.917969 24.691406 C 180.699219 24.785156 180.386719 24.847656 180.074219 24.847656 L 179.980469 25.128906 L 185.730469 25.128906 L 185.824219 24.847656 C 185.199219 24.847656 184.699219 24.785156 184.449219 24.597656 C 184.167969 24.378906 184.105469 23.941406 184.105469 23.535156 C 184.105469 23.222656 184.167969 22.785156 184.324219 22.253906 L 186.292969 14.785156 C 186.449219 14.160156 186.574219 13.660156 186.699219 13.285156 C 186.917969 12.691406 187.355469 12.035156 187.792969 11.722656 C 188.011719 11.597656 188.292969 11.566406 188.636719 11.566406 L 188.730469 11.285156 L 185.136719 11.285156 L 178.449219 22.003906 L 178.167969 22.003906 L 176.886719 11.285156 L 172.605469 11.285156 L 172.511719 11.566406 C 173.136719 11.566406 173.542969 11.566406 173.761719 11.691406 C 174.042969 11.816406 174.386719 12.316406 174.386719 12.691406 C 174.386719 13.003906 174.324219 13.503906 174.136719 14.160156 L 171.949219 22.441406 C 171.792969 23.066406 171.292969 23.753906 170.824219 24.160156 C 170.386719 24.566406 169.699219 24.847656 169.136719 24.847656 L 169.074219 25.128906 L 174.042969 25.128906 L 174.136719 24.847656 C 173.667969 24.816406 173.136719 24.722656 172.917969 24.410156 C 172.699219 24.097656 172.386719 23.566406 172.386719 23.066406 C 172.386719 22.785156 172.386719 22.503906 172.449219 22.253906 L 174.855469 13.191406 L 174.980469 12.753906 L 176.449219 25.128906 L 177.042969 25.128906 Z M 184.449219 13.191406 "/>
<path fill-rule="nonzero" fill="rgb(0%, 0%, 0%)" fill-opacity="1" d="M 196.890625 27.664062 L 196.890625 26.820312 L 190.828125 24.007812 L 196.890625 21.164062 L 196.890625 20.351562 L 189.453125 23.882812 L 189.453125 24.164062 Z M 196.890625 29.539062 L 196.890625 28.757812 L 189.453125 28.757812 L 189.453125 29.539062 Z M 196.890625 29.539062 "/>
<path fill-rule="nonzero" fill="rgb(0%, 0%, 0%)" fill-opacity="1" d="M 202.921875 22.351562 C 202.296875 22.351562 201.640625 22.851562 201.171875 23.476562 L 201.078125 23.476562 L 202.578125 18.007812 L 200.328125 18.101562 L 200.234375 18.320312 C 200.828125 18.320312 201.296875 18.445312 201.296875 18.882812 C 201.296875 18.945312 201.265625 19.132812 201.203125 19.320312 L 198.671875 28.695312 L 199.640625 28.695312 L 200.359375 26.132812 L 200.734375 26.007812 L 201.515625 27.882812 C 201.671875 28.226562 201.796875 28.476562 201.921875 28.632812 C 202.046875 28.757812 202.203125 28.820312 202.390625 28.820312 C 203.328125 28.820312 203.640625 28.226562 204.140625 27.039062 L 203.890625 26.914062 C 203.609375 27.507812 203.390625 28.101562 202.953125 28.101562 C 202.765625 28.101562 202.515625 27.539062 202.359375 27.101562 L 201.734375 25.570312 L 202.015625 25.414062 C 202.671875 25.101562 203.265625 24.789062 203.640625 24.414062 C 204.015625 24.070312 204.234375 23.695312 204.234375 23.320312 C 204.234375 22.664062 203.765625 22.351562 202.921875 22.351562 Z M 200.546875 25.695312 C 200.671875 25.101562 201.171875 23.945312 201.546875 23.570312 C 201.796875 23.257812 202.328125 22.664062 202.796875 22.664062 C 203.328125 22.664062 203.328125 23.132812 203.328125 23.445312 C 203.296875 24.539062 201.359375 25.351562 200.546875 25.695312 Z M 200.546875 25.695312 "/>
<path fill-rule="nonzero" fill="rgb(0%, 0%, 0%)" fill-opacity="1" d="M 214.203125 25.382812 L 214.203125 24.539062 L 206.765625 24.539062 L 206.765625 25.382812 Z M 214.203125 25.382812 "/>
<path fill-rule="nonzero" fill="rgb(0%, 0%, 0%)" fill-opacity="1" d="M 222.566406 28.695312 L 222.566406 28.164062 L 222.003906 28.164062 C 220.566406 28.164062 220.566406 27.976562 220.566406 27.507812 L 220.566406 19.445312 C 220.566406 19.070312 220.535156 19.039062 220.128906 19.039062 C 219.191406 19.976562 217.878906 19.976562 217.285156 19.976562 L 217.285156 20.507812 C 217.628906 20.507812 218.597656 20.507812 219.378906 20.101562 L 219.378906 27.507812 C 219.378906 27.976562 219.378906 28.164062 217.941406 28.164062 L 217.378906 28.164062 L 217.378906 28.695312 L 219.972656 28.632812 Z M 222.566406 28.695312 "/>
<path fill-rule="nonzero" fill="rgb(0%, 0%, 0%)" fill-opacity="1" d="M 228.328125 28.972656 L 228.328125 11.035156 L 227.203125 11.035156 L 227.203125 28.972656 Z M 228.328125 28.972656 "/>
<path fill-rule="nonzero" fill="rgb(0%, 0%, 0%)" fill-opacity="1" d="M 40.484375 85.953125 L 40.921875 85.296875 L 38.328125 95.203125 C 38.203125 95.671875 38.109375 96.015625 37.953125 96.296875 C 37.796875 96.765625 37.390625 97.265625 36.953125 97.453125 C 36.734375 97.546875 36.421875 97.609375 36.109375 97.609375 L 36.015625 97.890625 L 41.765625 97.890625 L 41.859375 97.609375 C 41.234375 97.609375 40.734375 97.546875 40.484375 97.359375 C 40.203125 97.140625 40.140625 96.703125 40.140625 96.296875 C 40.140625 95.984375 40.203125 95.546875 40.359375 95.015625 L 42.328125 87.546875 C 42.484375 86.921875 42.609375 86.421875 42.734375 86.046875 C 42.953125 85.453125 43.390625 84.796875 43.828125 84.484375 C 44.046875 84.359375 44.328125 84.328125 44.671875 84.328125 L 44.765625 84.046875 L 41.171875 84.046875 L 34.484375 94.765625 L 34.203125 94.765625 L 32.921875 84.046875 L 28.640625 84.046875 L 28.546875 84.328125 C 29.171875 84.328125 29.578125 84.328125 29.796875 84.453125 C 30.078125 84.578125 30.421875 85.078125 30.421875 85.453125 C 30.421875 85.765625 30.359375 86.265625 30.171875 86.921875 L 27.984375 95.203125 C 27.828125 95.828125 27.328125 96.515625 26.859375 96.921875 C 26.421875 97.328125 25.734375 97.609375 25.171875 97.609375 L 25.109375 97.890625 L 30.078125 97.890625 L 30.171875 97.609375 C 29.703125 97.578125 29.171875 97.484375 28.953125 97.171875 C 28.734375 96.859375 28.421875 96.328125 28.421875 95.828125 C 28.421875 95.546875 28.421875 95.265625 28.484375 95.015625 L 30.890625 85.953125 L 31.015625 85.515625 L 32.484375 97.890625 L 33.078125 97.890625 Z M 40.484375 85.953125 "/>
<path fill-rule="nonzero" fill="rgb(0%, 0%, 0%)" fill-opacity="1" d="M 47.960938 95.113281 C 47.335938 95.113281 46.679688 95.613281 46.210938 96.238281 L 46.117188 96.238281 L 47.617188 90.769531 L 45.367188 90.863281 L 45.273438 91.082031 C 45.867188 91.082031 46.335938 91.207031 46.335938 91.644531 C 46.335938 91.707031 46.304688 91.894531 46.242188 92.082031 L 43.710938 101.457031 L 44.679688 101.457031 L 45.398438 98.894531 L 45.773438 98.769531 L 46.554688 100.644531 C 46.710938 100.988281 46.835938 101.238281 46.960938 101.394531 C 47.085938 101.519531 47.242188 101.582031 47.429688 101.582031 C 48.367188 101.582031 48.679688 100.988281 49.179688 99.800781 L 48.929688 99.675781 C 48.648438 100.269531 48.429688 100.863281 47.992188 100.863281 C 47.804688 100.863281 47.554688 100.300781 47.398438 99.863281 L 46.773438 98.332031 L 47.054688 98.175781 C 47.710938 97.863281 48.304688 97.550781 48.679688 97.175781 C 49.054688 96.832031 49.273438 96.457031 49.273438 96.082031 C 49.273438 95.425781 48.804688 95.113281 47.960938 95.113281 Z M 45.585938 98.457031 C 45.710938 97.863281 46.210938 96.707031 46.585938 96.332031 C 46.835938 96.019531 47.367188 95.425781 47.835938 95.425781 C 48.367188 95.425781 48.367188 95.894531 48.367188 96.207031 C 48.335938 97.300781 46.398438 98.113281 45.585938 98.457031 Z M 45.585938 98.457031 "/>
<path fill-rule="nonzero" fill="rgb(0%, 0%, 0%)" fill-opacity="1" d="M 67.300781 97.203125 L 62.863281 92.765625 L 67.300781 88.328125 L 66.519531 87.515625 L 62.082031 91.984375 L 57.644531 87.515625 L 56.863281 88.328125 L 61.269531 92.765625 L 56.863281 97.203125 L 57.644531 97.984375 L 62.082031 93.546875 L 66.519531 97.984375 Z M 67.300781 97.203125 "/>
<path fill-rule="nonzero" fill="rgb(0%, 0%, 0%)" fill-opacity="1" d="M 85.152344 97.890625 L 79.589844 84.421875 L 79.246094 84.421875 L 73.308594 97.890625 Z M 82.839844 97.046875 L 74.621094 97.046875 L 78.902344 87.390625 Z M 82.839844 97.046875 "/>
<path fill-rule="nonzero" fill="rgb(0%, 0%, 0%)" fill-opacity="1" d="M 89.898438 84.3125 C 89.273438 84.3125 88.617188 84.8125 88.148438 85.4375 L 88.054688 85.4375 L 89.554688 79.96875 L 87.304688 80.0625 L 87.210938 80.28125 C 87.804688 80.28125 88.273438 80.40625 88.273438 80.84375 C 88.273438 80.90625 88.242188 81.09375 88.179688 81.28125 L 85.648438 90.65625 L 86.617188 90.65625 L 87.335938 88.09375 L 87.710938 87.96875 L 88.492188 89.84375 C 88.648438 90.1875 88.773438 90.4375 88.898438 90.59375 C 89.023438 90.71875 89.179688 90.78125 89.367188 90.78125 C 90.304688 90.78125 90.617188 90.1875 91.117188 89 L 90.867188 88.875 C 90.585938 89.46875 90.367188 90.0625 89.929688 90.0625 C 89.742188 90.0625 89.492188 89.5 89.335938 89.0625 L 88.710938 87.53125 L 88.992188 87.375 C 89.648438 87.0625 90.242188 86.75 90.617188 86.375 C 90.992188 86.03125 91.210938 85.65625 91.210938 85.28125 C 91.210938 84.625 90.742188 84.3125 89.898438 84.3125 Z M 87.523438 87.65625 C 87.648438 87.0625 88.148438 85.90625 88.523438 85.53125 C 88.773438 85.21875 89.304688 84.625 89.773438 84.625 C 90.304688 84.625 90.304688 85.09375 90.304688 85.40625 C 90.273438 86.5 88.335938 87.3125 87.523438 87.65625 Z M 87.523438 87.65625 "/>
<path fill-rule="nonzero" fill="rgb(0%, 0%, 0%)" fill-opacity="1" d="M 176.671875 101.734375 L 176.671875 83.796875 L 175.546875 83.796875 L 175.546875 101.734375 Z M 176.671875 101.734375 "/>
<path fill-rule="nonzero" fill="rgb(0%, 0%, 0%)" fill-opacity="1" d="M 193.796875 85.953125 L 194.234375 85.296875 L 191.640625 95.203125 C 191.515625 95.671875 191.421875 96.015625 191.265625 96.296875 C 191.109375 96.765625 190.703125 97.265625 190.265625 97.453125 C 190.046875 97.546875 189.734375 97.609375 189.421875 97.609375 L 189.328125 97.890625 L 195.078125 97.890625 L 195.171875 97.609375 C 194.546875 97.609375 194.046875 97.546875 193.796875 97.359375 C 193.515625 97.140625 193.453125 96.703125 193.453125 96.296875 C 193.453125 95.984375 193.515625 95.546875 193.671875 95.015625 L 195.640625 87.546875 C 195.796875 86.921875 195.921875 86.421875 196.046875 86.046875 C 196.265625 85.453125 196.703125 84.796875 197.140625 84.484375 C 197.359375 84.359375 197.640625 84.328125 197.984375 84.328125 L 198.078125 84.046875 L 194.484375 84.046875 L 187.796875 94.765625 L 187.515625 94.765625 L 186.234375 84.046875 L 181.953125 84.046875 L 181.859375 84.328125 C 182.484375 84.328125 182.890625 84.328125 183.109375 84.453125 C 183.390625 84.578125 183.734375 85.078125 183.734375 85.453125 C 183.734375 85.765625 183.671875 86.265625 183.484375 86.921875 L 181.296875 95.203125 C 181.140625 95.828125 180.640625 96.515625 180.171875 96.921875 C 179.734375 97.328125 179.046875 97.609375 178.484375 97.609375 L 178.421875 97.890625 L 183.390625 97.890625 L 183.484375 97.609375 C 183.015625 97.578125 182.484375 97.484375 182.265625 97.171875 C 182.046875 96.859375 181.734375 96.328125 181.734375 95.828125 C 181.734375 95.546875 181.734375 95.265625 181.796875 95.015625 L 184.203125 85.953125 L 184.328125 85.515625 L 185.796875 97.890625 L 186.390625 97.890625 Z M 193.796875 85.953125 "/>
<path fill-rule="nonzero" fill="rgb(0%, 0%, 0%)" fill-opacity="1" d="M 206.238281 100.425781 L 206.238281 99.582031 L 200.175781 96.769531 L 206.238281 93.925781 L 206.238281 93.113281 L 198.800781 96.644531 L 198.800781 96.925781 Z M 206.238281 102.300781 L 206.238281 101.519531 L 198.800781 101.519531 L 198.800781 102.300781 Z M 206.238281 102.300781 "/>
<path fill-rule="nonzero" fill="rgb(0%, 0%, 0%)" fill-opacity="1" d="M 212.269531 95.113281 C 211.644531 95.113281 210.988281 95.613281 210.519531 96.238281 L 210.425781 96.238281 L 211.925781 90.769531 L 209.675781 90.863281 L 209.582031 91.082031 C 210.175781 91.082031 210.644531 91.207031 210.644531 91.644531 C 210.644531 91.707031 210.613281 91.894531 210.550781 92.082031 L 208.019531 101.457031 L 208.988281 101.457031 L 209.707031 98.894531 L 210.082031 98.769531 L 210.863281 100.644531 C 211.019531 100.988281 211.144531 101.238281 211.269531 101.394531 C 211.394531 101.519531 211.550781 101.582031 211.738281 101.582031 C 212.675781 101.582031 212.988281 100.988281 213.488281 99.800781 L 213.238281 99.675781 C 212.957031 100.269531 212.738281 100.863281 212.300781 100.863281 C 212.113281 100.863281 211.863281 100.300781 211.707031 99.863281 L 211.082031 98.332031 L 211.363281 98.175781 C 212.019531 97.863281 212.613281 97.550781 212.988281 97.175781 C 213.363281 96.832031 213.582031 96.457031 213.582031 96.082031 C 213.582031 95.425781 213.113281 95.113281 212.269531 95.113281 Z M 209.894531 98.457031 C 210.019531 97.863281 210.519531 96.707031 210.894531 96.332031 C 211.144531 96.019531 211.675781 95.425781 212.144531 95.425781 C 212.675781 95.425781 212.675781 95.894531 212.675781 96.207031 C 212.644531 97.300781 210.707031 98.113281 209.894531 98.457031 Z M 209.894531 98.457031 "/>
<path fill-rule="nonzero" fill="rgb(0%, 0%, 0%)" fill-opacity="1" d="M 218.976562 101.734375 L 218.976562 83.796875 L 217.851562 83.796875 L 217.851562 101.734375 Z M 218.976562 101.734375 "/>
<path fill="none" stroke-width="0.5579" stroke-linecap="butt" stroke-linejoin="miter" stroke="rgb(0%, 0%, 0%)" stroke-opacity="1" stroke-miterlimit="10" d="M -8.626438 17.411095 L 14.330593 17.411095 " transform="matrix(2, 0, 0, -2, 125.206001, 54.830002)"/>
<path fill="none" stroke-width="0.5579" stroke-linecap="round" stroke-linejoin="round" stroke="rgb(0%, 0%, 0%)" stroke-opacity="1" stroke-miterlimit="10" d="M -2.90284 3.34766 C -2.37159 1.339848 -1.191902 0.390629 -0.000495911 0.0000038147 C -1.191902 -0.390621 -2.37159 -1.33984 -2.90284 -3.347652 " transform="matrix(2, 0, 0, -2, 154.422867, 20.00782)"/>
<path fill-rule="nonzero" fill="rgb(0%, 0%, 0%)" fill-opacity="1" d="M 116.539062 13.84375 L 116.539062 13.0625 L 116.039062 13.0625 L 116.039062 13.84375 C 116.039062 13.96875 116.039062 14.6875 115.507812 14.6875 C 114.976562 14.6875 114.976562 14 114.976562 13.8125 L 114.976562 11.25 C 114.976562 10.5 114.976562 9.9375 114.289062 9.40625 C 113.695312 8.90625 113.007812 8.6875 112.164062 8.6875 C 110.757812 8.6875 109.789062 9.1875 109.789062 10.09375 C 109.789062 10.5625 110.101562 10.8125 110.507812 10.8125 C 110.882812 10.8125 111.164062 10.5 111.164062 10.125 C 111.164062 9.875 111.070312 9.5625 110.664062 9.4375 C 111.195312 9.09375 112.039062 9.09375 112.132812 9.09375 C 112.945312 9.09375 113.820312 9.625 113.820312 10.84375 L 113.820312 11.28125 C 113.007812 11.3125 112.070312 11.375 111.007812 11.75 C 109.695312 12.25 109.289062 13.03125 109.289062 13.6875 C 109.289062 14.9375 110.789062 15.3125 111.820312 15.3125 C 112.976562 15.3125 113.664062 14.65625 113.976562 14.09375 C 114.039062 14.6875 114.445312 15.21875 115.101562 15.21875 C 115.101562 15.21875 116.539062 15.21875 116.539062 13.84375 Z M 113.820312 13.09375 C 113.820312 14.5 112.601562 14.90625 111.945312 14.90625 C 111.195312 14.90625 110.507812 14.40625 110.507812 13.6875 C 110.507812 12.875 111.195312 11.78125 113.820312 11.65625 Z M 113.820312 13.09375 "/>
<path fill-rule="nonzero" fill="rgb(0%, 0%, 0%)" fill-opacity="1" d="M 122.355469 13.3125 L 122.355469 12.53125 L 121.886719 12.53125 L 121.886719 13.3125 C 121.886719 14.3125 121.417969 14.84375 120.855469 14.84375 C 119.824219 14.84375 119.824219 13.625 119.824219 13.34375 L 119.824219 9.40625 L 122.105469 9.40625 L 122.105469 8.90625 L 119.824219 8.90625 L 119.824219 6.21875 L 119.355469 6.21875 C 119.324219 7.53125 118.730469 8.96875 117.324219 9 L 117.324219 9.40625 L 118.699219 9.40625 L 118.699219 13.34375 C 118.699219 14.96875 119.917969 15.3125 120.730469 15.3125 C 121.699219 15.3125 122.355469 14.46875 122.355469 13.3125 Z M 122.355469 13.3125 "/>
<path fill-rule="nonzero" fill="rgb(0%, 0%, 0%)" fill-opacity="1" d="M 128.847656 13.3125 L 128.847656 12.53125 L 128.378906 12.53125 L 128.378906 13.3125 C 128.378906 14.3125 127.910156 14.84375 127.347656 14.84375 C 126.316406 14.84375 126.316406 13.625 126.316406 13.34375 L 126.316406 9.40625 L 128.597656 9.40625 L 128.597656 8.90625 L 126.316406 8.90625 L 126.316406 6.21875 L 125.847656 6.21875 C 125.816406 7.53125 125.222656 8.96875 123.816406 9 L 123.816406 9.40625 L 125.191406 9.40625 L 125.191406 13.34375 C 125.191406 14.96875 126.410156 15.3125 127.222656 15.3125 C 128.191406 15.3125 128.847656 14.46875 128.847656 13.3125 Z M 128.847656 13.3125 "/>
<path fill-rule="nonzero" fill="rgb(0%, 0%, 0%)" fill-opacity="1" d="M 137.808594 13.84375 L 137.808594 13.0625 L 137.308594 13.0625 L 137.308594 13.84375 C 137.308594 13.96875 137.308594 14.6875 136.777344 14.6875 C 136.246094 14.6875 136.246094 14 136.246094 13.8125 L 136.246094 11.25 C 136.246094 10.5 136.246094 9.9375 135.558594 9.40625 C 134.964844 8.90625 134.277344 8.6875 133.433594 8.6875 C 132.027344 8.6875 131.058594 9.1875 131.058594 10.09375 C 131.058594 10.5625 131.371094 10.8125 131.777344 10.8125 C 132.152344 10.8125 132.433594 10.5 132.433594 10.125 C 132.433594 9.875 132.339844 9.5625 131.933594 9.4375 C 132.464844 9.09375 133.308594 9.09375 133.402344 9.09375 C 134.214844 9.09375 135.089844 9.625 135.089844 10.84375 L 135.089844 11.28125 C 134.277344 11.3125 133.339844 11.375 132.277344 11.75 C 130.964844 12.25 130.558594 13.03125 130.558594 13.6875 C 130.558594 14.9375 132.058594 15.3125 133.089844 15.3125 C 134.246094 15.3125 134.933594 14.65625 135.246094 14.09375 C 135.308594 14.6875 135.714844 15.21875 136.371094 15.21875 C 136.371094 15.21875 137.808594 15.21875 137.808594 13.84375 Z M 135.089844 13.09375 C 135.089844 14.5 133.871094 14.90625 133.214844 14.90625 C 132.464844 14.90625 131.777344 14.40625 131.777344 13.6875 C 131.777344 12.875 132.464844 11.78125 135.089844 11.65625 Z M 135.089844 13.09375 "/>
<path fill-rule="nonzero" fill="rgb(0%, 0%, 0%)" fill-opacity="1" d="M 144.996094 13.40625 C 144.996094 13.25 144.808594 13.25 144.746094 13.25 C 144.558594 13.25 144.527344 13.28125 144.464844 13.5 C 144.152344 14.375 143.371094 14.84375 142.496094 14.84375 C 141.496094 14.84375 140.183594 14.09375 140.183594 12 C 140.183594 10.15625 141.089844 9.125 142.433594 9.125 C 142.621094 9.125 143.308594 9.125 143.839844 9.34375 C 143.589844 9.46875 143.433594 9.71875 143.433594 10 C 143.433594 10.375 143.714844 10.6875 144.121094 10.6875 C 144.496094 10.6875 144.808594 10.4375 144.808594 9.96875 C 144.808594 8.6875 142.777344 8.6875 142.371094 8.6875 C 140.214844 8.6875 138.839844 10.34375 138.839844 12.03125 C 138.839844 13.84375 140.402344 15.3125 142.308594 15.3125 C 144.464844 15.3125 144.996094 13.59375 144.996094 13.40625 Z M 144.996094 13.40625 "/>
<path fill-rule="nonzero" fill="rgb(0%, 0%, 0%)" fill-opacity="1" d="M 153.699219 15.15625 L 153.699219 14.625 C 152.761719 14.625 152.605469 14.625 152.605469 14 L 152.605469 10.75 C 152.605469 9.5 151.980469 8.75 150.449219 8.75 C 149.136719 8.75 148.449219 9.53125 148.105469 10.0625 L 148.105469 5.0625 L 145.917969 5.21875 L 145.917969 5.75 C 146.886719 5.75 147.011719 5.84375 147.011719 6.5625 L 147.011719 14 C 147.011719 14.625 146.855469 14.625 145.917969 14.625 L 145.917969 15.15625 C 145.917969 15.15625 146.980469 15.09375 147.574219 15.09375 C 148.105469 15.09375 149.105469 15.15625 149.261719 15.15625 L 149.261719 14.625 C 148.292969 14.625 148.167969 14.625 148.167969 14 L 148.167969 11.40625 C 148.167969 9.875 149.355469 9.15625 150.324219 9.15625 C 151.355469 9.15625 151.480469 9.96875 151.480469 10.6875 L 151.480469 14 C 151.480469 14.625 151.324219 14.625 150.386719 14.625 L 150.386719 15.15625 C 150.386719 15.15625 151.417969 15.09375 152.042969 15.09375 C 152.574219 15.09375 153.574219 15.15625 153.699219 15.15625 Z M 153.699219 15.15625 "/>
<path fill="none" stroke-width="0.5579" stroke-linecap="butt" stroke-linejoin="miter" stroke="rgb(0%, 0%, 0%)" stroke-opacity="1" stroke-miterlimit="10" d="M -32.895969 7.153282 L -32.895969 -8.209999 " transform="matrix(2, 0, 0, -2, 125.206001, 54.830002)"/>
<path fill="none" stroke-width="0.5579" stroke-linecap="round" stroke-linejoin="miter" stroke="rgb(0%, 0%, 0%)" stroke-opacity="1" stroke-miterlimit="10" d="M -0.00185966 2.733706 C 0.955172 2.733706 1.728609 2.120424 1.728609 1.366518 C 1.728609 0.612612 0.955172 -0.000669479 -0.00185966 -0.000669479 " transform="matrix(0, -2, 2, 0, 59.415401, 40.519718)"/>
<path fill="none" stroke-width="0.5579" stroke-linecap="round" stroke-linejoin="round" stroke="rgb(0%, 0%, 0%)" stroke-opacity="1" stroke-miterlimit="10" d="M -2.899395 3.346987 C -2.372051 1.339174 -1.188457 0.389956 -0.000957489 -0.000669479 C -1.188457 -0.391294 -2.372051 -1.340513 -2.899395 -3.348326 " transform="matrix(0, 2, 2, 0, 59.415401, 71.806602)"/>
<path fill-rule="nonzero" fill="rgb(0%, 0%, 0%)" fill-opacity="1" d="M 8.261719 59.414062 L 8.261719 58.882812 C 7.417969 58.882812 7.292969 58.882812 7.292969 58.289062 L 7.292969 53.007812 L 5.136719 53.164062 L 5.136719 53.695312 C 6.074219 53.695312 6.199219 53.789062 6.199219 54.476562 L 6.199219 58.257812 C 6.199219 58.882812 6.042969 58.882812 5.105469 58.882812 L 5.105469 59.414062 C 5.105469 59.414062 6.167969 59.351562 6.730469 59.351562 C 7.230469 59.351562 7.761719 59.382812 8.261719 59.414062 Z M 7.480469 50.664062 C 7.480469 50.195312 7.105469 49.820312 6.636719 49.820312 C 6.167969 49.820312 5.824219 50.226562 5.824219 50.664062 C 5.824219 51.101562 6.167969 51.507812 6.636719 51.507812 C 7.136719 51.507812 7.480469 51.101562 7.480469 50.664062 Z M 7.480469 50.664062 "/>
<path fill-rule="nonzero" fill="rgb(0%, 0%, 0%)" fill-opacity="1" d="M 17.433594 59.414062 L 17.433594 58.882812 C 16.464844 58.882812 16.339844 58.789062 16.339844 58.070312 L 16.339844 49.320312 L 14.183594 49.476562 L 14.183594 50.007812 C 15.152344 50.007812 15.246094 50.101562 15.246094 50.820312 L 15.246094 53.820312 C 14.714844 53.320312 14.027344 53.007812 13.214844 53.007812 C 11.277344 53.007812 9.652344 54.445312 9.652344 56.289062 C 9.652344 58.101562 11.214844 59.570312 13.058594 59.570312 C 14.246094 59.570312 14.964844 58.914062 15.214844 58.664062 L 15.214844 59.570312 Z M 15.214844 57.882812 C 14.808594 58.570312 14.089844 59.164062 13.152344 59.164062 C 12.308594 59.164062 11.746094 58.664062 11.464844 58.257812 C 11.152344 57.820312 10.996094 57.226562 10.996094 56.289062 C 10.996094 55.976562 10.996094 54.882812 11.589844 54.195312 C 12.152344 53.539062 12.871094 53.414062 13.308594 53.414062 C 13.996094 53.414062 14.621094 53.726562 15.027344 54.257812 C 15.214844 54.476562 15.214844 54.507812 15.214844 54.789062 Z M 15.214844 57.882812 "/>
<path fill-rule="nonzero" fill="rgb(0%, 0%, 0%)" fill-opacity="1" d="M 27.195312 58.914062 L 23.945312 55.664062 L 27.195312 52.445312 L 26.601562 51.851562 L 23.382812 55.101562 L 20.164062 51.851562 L 19.570312 52.445312 L 22.789062 55.664062 L 19.570312 58.914062 L 20.164062 59.476562 L 23.382812 56.257812 L 26.601562 59.476562 Z M 27.195312 58.914062 "/>
<path fill-rule="nonzero" fill="rgb(0%, 0%, 0%)" fill-opacity="1" d="M 32.558594 59.414062 L 32.558594 58.882812 C 31.714844 58.882812 31.589844 58.882812 31.589844 58.289062 L 31.589844 53.007812 L 29.433594 53.164062 L 29.433594 53.695312 C 30.371094 53.695312 30.496094 53.789062 30.496094 54.476562 L 30.496094 58.257812 C 30.496094 58.882812 30.339844 58.882812 29.402344 58.882812 L 29.402344 59.414062 C 29.402344 59.414062 30.464844 59.351562 31.027344 59.351562 C 31.527344 59.351562 32.058594 59.382812 32.558594 59.414062 Z M 31.777344 50.664062 C 31.777344 50.195312 31.402344 49.820312 30.933594 49.820312 C 30.464844 49.820312 30.121094 50.226562 30.121094 50.664062 C 30.121094 51.101562 30.464844 51.507812 30.933594 51.507812 C 31.433594 51.507812 31.777344 51.101562 31.777344 50.664062 Z M 31.777344 50.664062 "/>
<path fill-rule="nonzero" fill="rgb(0%, 0%, 0%)" fill-opacity="1" d="M 41.855469 59.414062 L 41.855469 58.882812 C 40.917969 58.882812 40.761719 58.882812 40.761719 58.257812 L 40.761719 55.007812 C 40.761719 53.757812 40.136719 53.007812 38.605469 53.007812 C 37.417969 53.007812 36.636719 53.664062 36.230469 54.414062 L 36.199219 54.414062 L 36.199219 53.007812 L 34.074219 53.164062 L 34.074219 53.695312 C 35.042969 53.695312 35.167969 53.789062 35.167969 54.507812 L 35.167969 58.257812 C 35.167969 58.882812 35.011719 58.882812 34.074219 58.882812 L 34.074219 59.414062 C 34.074219 59.414062 35.136719 59.351562 35.730469 59.351562 C 36.261719 59.351562 37.261719 59.414062 37.417969 59.414062 L 37.417969 58.882812 C 36.449219 58.882812 36.324219 58.882812 36.324219 58.257812 L 36.324219 55.664062 C 36.324219 54.132812 37.511719 53.414062 38.480469 53.414062 C 39.511719 53.414062 39.636719 54.226562 39.636719 54.945312 L 39.636719 58.257812 C 39.636719 58.882812 39.480469 58.882812 38.542969 58.882812 L 38.542969 59.414062 C 38.542969 59.414062 39.574219 59.351562 40.199219 59.351562 C 40.730469 59.351562 41.730469 59.414062 41.855469 59.414062 Z M 41.855469 59.414062 "/>
<path fill-rule="nonzero" fill="rgb(0%, 0%, 0%)" fill-opacity="1" d="M 49.28125 57.664062 C 49.28125 57.507812 49.09375 57.507812 49.03125 57.507812 C 48.84375 57.507812 48.8125 57.539062 48.75 57.757812 C 48.4375 58.632812 47.65625 59.101562 46.78125 59.101562 C 45.78125 59.101562 44.46875 58.351562 44.46875 56.257812 C 44.46875 54.414062 45.375 53.382812 46.71875 53.382812 C 46.90625 53.382812 47.59375 53.382812 48.125 53.601562 C 47.875 53.726562 47.71875 53.976562 47.71875 54.257812 C 47.71875 54.632812 48 54.945312 48.40625 54.945312 C 48.78125 54.945312 49.09375 54.695312 49.09375 54.226562 C 49.09375 52.945312 47.0625 52.945312 46.65625 52.945312 C 44.5 52.945312 43.125 54.601562 43.125 56.289062 C 43.125 58.101562 44.6875 59.570312 46.59375 59.570312 C 48.75 59.570312 49.28125 57.851562 49.28125 57.664062 Z M 49.28125 57.664062 "/>
<path fill-rule="nonzero" fill="rgb(0%, 0%, 0%)" fill-opacity="1" d="M 53.953125 59.414062 L 53.953125 58.882812 C 52.984375 58.882812 52.859375 58.882812 52.859375 58.257812 L 52.859375 49.320312 L 50.671875 49.476562 L 50.671875 50.007812 C 51.640625 50.007812 51.765625 50.101562 51.765625 50.820312 L 51.765625 58.257812 C 51.765625 58.882812 51.609375 58.882812 50.671875 58.882812 L 50.671875 59.414062 C 50.671875 59.414062 51.734375 59.351562 52.296875 59.351562 C 52.859375 59.351562 53.390625 59.382812 53.953125 59.414062 Z M 53.953125 59.414062 "/>
<path fill="none" stroke-width="0.5579" stroke-linecap="butt" stroke-linejoin="miter" stroke="rgb(0%, 0%, 0%)" stroke-opacity="1" stroke-miterlimit="10" d="M 36.025906 8.766563 L 36.025906 -10.077187 " transform="matrix(2, 0, 0, -2, 125.206001, 54.830002)"/>
<path fill="none" stroke-width="0.5579" stroke-linecap="round" stroke-linejoin="round" stroke="rgb(0%, 0%, 0%)" stroke-opacity="1" stroke-miterlimit="10" d="M -2.902184 3.346924 C -2.370934 1.339111 -1.191246 0.389893 0.000160217 -0.000732422 C -1.191246 -0.391357 -2.370934 -1.340576 -2.902184 -3.348389 " transform="matrix(0, 2, 2, 0, 197.259277, 75.538742)"/>
<path fill-rule="nonzero" fill="rgb(0%, 0%, 0%)" fill-opacity="1" d="M 203.363281 60.246094 C 204.675781 60.214844 205.363281 59.089844 205.707031 58.308594 L 205.457031 58.183594 C 205.238281 58.527344 204.707031 59.589844 204.113281 59.589844 C 203.988281 59.589844 203.800781 59.371094 203.800781 59.214844 C 203.800781 58.933594 203.988281 58.371094 204.082031 58.152344 L 205.019531 55.402344 C 205.175781 54.996094 205.238281 54.808594 205.238281 54.558594 C 205.238281 54.121094 205.207031 53.777344 204.738281 53.777344 C 203.832031 53.777344 202.738281 54.871094 202.425781 55.589844 L 202.707031 55.746094 C 202.894531 55.464844 203.425781 54.652344 203.769531 54.652344 C 203.988281 54.652344 204.050781 54.808594 204.050781 54.964844 C 204.082031 55.183594 203.957031 55.589844 203.863281 55.871094 L 202.894531 58.621094 C 202.769531 58.964844 202.707031 59.277344 202.707031 59.464844 C 202.707031 59.964844 202.894531 60.246094 203.363281 60.246094 Z M 206.144531 51.152344 C 206.144531 50.746094 205.800781 50.371094 205.394531 50.371094 C 204.988281 50.371094 204.644531 50.746094 204.644531 51.152344 C 204.644531 51.558594 205.019531 51.871094 205.394531 51.871094 C 205.738281 51.871094 206.144531 51.496094 206.144531 51.152344 Z M 206.144531 51.152344 "/>
<path fill-rule="nonzero" fill="rgb(0%, 0%, 0%)" fill-opacity="1" d="M 209.328125 58.191406 C 208.859375 58.191406 208.390625 58.566406 208.046875 59.035156 L 207.953125 59.035156 L 209.078125 54.910156 L 207.390625 54.972656 L 207.328125 55.128906 C 207.765625 55.128906 208.140625 55.253906 208.140625 55.566406 C 208.140625 55.628906 208.109375 55.753906 208.046875 55.910156 L 206.140625 62.972656 L 206.890625 62.972656 L 207.421875 61.035156 L 207.671875 60.941406 L 208.265625 62.378906 C 208.390625 62.628906 208.484375 62.816406 208.578125 62.910156 C 208.671875 63.003906 208.796875 63.066406 208.953125 63.066406 C 209.640625 63.066406 209.890625 62.597656 210.265625 61.722656 L 210.078125 61.628906 C 209.859375 62.066406 209.703125 62.535156 209.359375 62.535156 C 209.234375 62.535156 209.046875 62.097656 208.921875 61.785156 L 208.453125 60.597656 L 208.671875 60.503906 C 209.171875 60.253906 209.609375 60.035156 209.890625 59.753906 C 210.171875 59.472656 210.328125 59.191406 210.328125 58.910156 C 210.328125 58.410156 209.984375 58.191406 209.328125 58.191406 Z M 207.546875 60.691406 C 207.640625 60.253906 208.046875 59.410156 208.296875 59.097656 C 208.484375 58.878906 208.890625 58.410156 209.265625 58.410156 C 209.671875 58.410156 209.671875 58.785156 209.671875 59.003906 C 209.640625 59.816406 208.171875 60.441406 207.546875 60.691406 Z M 207.546875 60.691406 "/>
<path fill="none" stroke-width="0.5579" stroke-linecap="butt" stroke-linejoin="miter" stroke="rgb(0%, 0%, 0%)" stroke-opacity="1" stroke-miterlimit="10" d="M -11.485813 -18.971718 L 19.002468 -18.971718 " transform="matrix(2, 0, 0, -2, 125.206001, 54.830002)"/>
<path fill="none" stroke-width="0.5579" stroke-linecap="round" stroke-linejoin="round" stroke="rgb(0%, 0%, 0%)" stroke-opacity="1" stroke-miterlimit="10" d="M -2.901382 3.346596 C -2.370132 1.338783 -1.190445 0.389565 0.000961304 -0.00106049 C -1.190445 -0.391685 -2.370132 -1.340904 -2.901382 -3.348717 " transform="matrix(2, 0, 0, -2, 163.771515, 92.771317)"/>
<path fill-rule="nonzero" fill="rgb(0%, 0%, 0%)" fill-opacity="1" d="M 154.183594 75.367188 L 154.183594 76.242188 L 159.277344 76.242188 L 159.277344 71.148438 L 158.402344 71.148438 L 158.402344 75.367188 Z M 154.183594 75.367188 "/>
</svg>
