<?xml version="1.0" encoding="UTF-8"?>
<svg xmlns="http://www.w3.org/2000/svg" xmlns:xlink="http://www.w3.org/1999/xlink" width="297.799988" height="132.300003" viewBox="0 0 297.799988 132.300003">
<defs>
<clipPath id="clip-0">
<path clip-rule="nonzero" d="M 229 0 L 297.796875 0 L 297.796875 110 L 229 110 Z M 229 0 "/>
</clipPath>
<clipPath id="clip-1">
<path clip-rule="nonzero" d="M 197 98 L 297.796875 98 L 297.796875 99 L 197 99 Z M 197 98 "/>
</clipPath>
</defs>
<path fill-rule="nonzero" fill="rgb(0%, 0%, 0%)" fill-opacity="1" d="M 177.898438 124.421875 C 177.898438 125.203125 178.523438 125.703125 179.367188 125.703125 C 179.960938 125.703125 180.429688 125.453125 181.085938 124.921875 C 182.179688 124.015625 183.867188 121.921875 184.867188 120.328125 C 185.367188 119.484375 185.867188 118.671875 186.273438 117.921875 C 186.773438 116.859375 187.742188 115.046875 187.742188 113.984375 C 187.742188 113.671875 187.679688 113.421875 187.554688 113.171875 C 187.429688 112.890625 187.210938 112.828125 186.929688 112.828125 C 186.710938 112.828125 186.523438 112.921875 186.335938 113.109375 C 186.148438 113.296875 186.054688 113.546875 186.054688 113.953125 C 186.054688 114.546875 186.367188 115.203125 186.367188 115.734375 C 186.367188 116.515625 186.054688 117.234375 185.773438 117.859375 C 185.429688 118.515625 185.117188 119.046875 184.679688 119.765625 L 184.554688 119.765625 L 184.117188 117.203125 C 183.960938 116.453125 183.679688 115.015625 183.554688 114.453125 C 183.273438 113.546875 183.117188 112.828125 181.773438 112.828125 C 180.210938 112.828125 179.960938 115.203125 179.617188 116.234375 L 180.023438 116.390625 C 180.210938 115.609375 180.804688 113.296875 181.429688 113.296875 C 181.867188 113.296875 182.085938 114.671875 182.148438 114.984375 C 182.242188 115.359375 182.367188 115.921875 182.523438 116.796875 L 183.304688 121.515625 C 182.835938 122.578125 181.742188 123.734375 180.929688 124.421875 C 180.617188 124.640625 180.179688 124.734375 179.960938 124.734375 C 179.804688 124.734375 179.710938 124.671875 179.648438 124.546875 C 179.367188 124.171875 179.367188 123.515625 178.710938 123.515625 C 178.179688 123.515625 177.898438 123.921875 177.898438 124.421875 Z M 177.898438 124.421875 "/>
<g clip-path="url(#clip-0)">
<path fill="none" stroke-width="0.3985" stroke-linecap="butt" stroke-linejoin="miter" stroke="rgb(0%, 0%, 0%)" stroke-opacity="1" stroke-miterlimit="10" d="M 28.345566 49.095875 L 56.693222 -0.00178146 " transform="matrix(2, 0, 0, -2, 184.011993, 98.598)"/>
</g>
<path fill-rule="nonzero" fill="rgb(0%, 0%, 0%)" fill-opacity="1" d="M 284.636719 30.261719 C 284.636719 29.324219 283.886719 28.730469 282.980469 28.730469 C 279.886719 28.730469 279.105469 34.042969 278.511719 36.074219 L 276.324219 37.574219 L 276.511719 37.917969 L 278.355469 36.699219 C 278.011719 37.792969 277.417969 39.136719 277.417969 40.324219 C 277.417969 41.542969 278.136719 42.449219 279.417969 42.449219 C 281.074219 42.449219 282.292969 40.824219 282.980469 39.511719 L 282.605469 39.355469 C 282.105469 40.292969 281.167969 41.699219 279.949219 41.699219 C 279.167969 41.699219 278.792969 41.105469 278.792969 40.386719 C 278.792969 39.261719 279.824219 36.417969 280.136719 35.355469 C 281.667969 34.324219 284.636719 32.324219 284.636719 30.261719 Z M 284.074219 30.386719 C 284.074219 32.042969 281.542969 33.886719 280.324219 34.761719 L 281.199219 31.824219 C 281.449219 30.949219 281.980469 29.480469 283.105469 29.480469 C 283.667969 29.480469 284.074219 29.824219 284.074219 30.386719 Z M 284.074219 30.386719 "/>
<path fill="none" stroke-width="0.3985" stroke-linecap="butt" stroke-linejoin="miter" stroke="rgb(0%, 0%, 0%)" stroke-opacity="1" stroke-miterlimit="10" d="M 2.02916 3.521656 L 28.345566 49.095875 " transform="matrix(2, 0, 0, -2, 184.011993, 98.598)"/>
<g clip-path="url(#clip-1)">
<path fill="none" stroke-width="0.3985" stroke-linecap="butt" stroke-linejoin="miter" stroke="rgb(0%, 0%, 0%)" stroke-opacity="1" stroke-miterlimit="10" d="M 56.693222 -0.00178146 L 6.908066 -0.00178146 " transform="matrix(2, 0, 0, -2, 184.011993, 98.598)"/>
</g>
<path fill-rule="nonzero" fill="rgb(0%, 0%, 0%)" fill-opacity="1" stroke-width="0.3985" stroke-linecap="butt" stroke-linejoin="miter" stroke="rgb(0%, 0%, 0%)" stroke-opacity="1" stroke-miterlimit="10" d="M 4.692398 0.00178146 L 0.641617 1.525219 L 1.973648 0.00178146 L 0.641617 -1.525562 Z M 4.692398 0.00178146 " transform="matrix(-2, 0, 0, 2, 201.572296, 98.598)"/>
<path fill-rule="nonzero" fill="rgb(0%, 0%, 0%)" fill-opacity="1" d="M 16.917969 121.671875 C 18.574219 121.671875 19.667969 119.765625 20.230469 118.765625 L 19.886719 118.515625 C 19.449219 119.171875 18.511719 120.828125 17.824219 120.828125 C 17.574219 120.828125 17.667969 120.328125 17.667969 120.109375 C 17.667969 120.015625 17.667969 119.890625 17.667969 119.828125 C 17.949219 118.703125 18.480469 117.359375 18.824219 116.171875 C 19.011719 115.546875 19.292969 114.921875 19.292969 114.203125 C 19.292969 113.328125 18.886719 112.828125 18.011719 112.828125 C 17.355469 112.828125 16.855469 113.109375 16.417969 113.484375 C 15.792969 114.046875 15.324219 114.671875 14.824219 115.546875 L 14.761719 115.515625 C 14.917969 114.921875 15.011719 114.796875 15.011719 114.265625 C 15.011719 113.390625 14.542969 112.828125 13.667969 112.828125 C 12.574219 112.828125 11.542969 113.640625 10.542969 115.484375 L 10.511719 115.421875 C 10.667969 114.984375 10.730469 114.609375 10.730469 114.078125 C 10.730469 113.296875 10.574219 112.828125 9.792969 112.828125 C 8.136719 112.828125 7.417969 114.546875 6.886719 116.046875 L 7.230469 116.140625 C 7.449219 115.390625 8.417969 113.234375 9.261719 113.234375 C 9.480469 113.234375 9.574219 113.796875 9.574219 114.109375 C 9.574219 114.203125 9.542969 114.390625 9.480469 114.546875 C 9.167969 115.703125 8.855469 116.640625 8.480469 117.828125 L 7.324219 121.515625 L 8.636719 121.515625 L 10.011719 117.453125 C 10.574219 116.015625 11.449219 114.546875 12.511719 113.609375 C 12.824219 113.359375 13.105469 113.265625 13.324219 113.265625 C 13.980469 113.265625 13.824219 114.890625 13.667969 115.359375 C 13.417969 116.328125 13.105469 117.140625 12.730469 118.296875 L 11.667969 121.515625 L 13.011719 121.515625 C 13.511719 120.015625 13.886719 118.546875 14.386719 117.296875 C 14.855469 116.046875 15.792969 114.609375 16.574219 113.828125 C 17.011719 113.453125 17.324219 113.265625 17.605469 113.265625 C 17.824219 113.265625 18.042969 113.421875 18.042969 113.734375 C 18.042969 114.515625 17.699219 115.265625 17.417969 116.140625 C 17.011719 117.359375 16.636719 118.265625 16.355469 119.296875 C 16.261719 119.765625 16.136719 120.015625 16.136719 120.421875 C 16.136719 121.109375 16.324219 121.671875 16.917969 121.671875 Z M 16.917969 121.671875 "/>
<path fill-rule="nonzero" fill="rgb(0%, 0%, 0%)" fill-opacity="1" d="M 103.335938 114.109375 C 103.335938 113.390625 102.742188 112.828125 101.992188 112.828125 C 101.585938 112.828125 101.148438 113.015625 100.710938 113.296875 C 100.304688 113.578125 99.867188 113.984375 99.585938 114.484375 C 99.585938 113.578125 99.023438 112.828125 98.179688 112.828125 C 96.648438 112.828125 95.367188 114.390625 94.898438 115.453125 L 95.179688 115.609375 C 95.648438 114.921875 96.617188 113.328125 97.835938 113.328125 C 98.179688 113.328125 98.335938 114.046875 98.335938 114.640625 C 98.335938 115.046875 98.273438 115.546875 98.054688 116.203125 L 97.617188 117.765625 C 97.398438 118.546875 97.085938 119.609375 96.648438 120.140625 C 96.429688 120.484375 96.085938 121.046875 95.585938 121.046875 C 95.023438 121.046875 94.585938 120.921875 94.742188 120.390625 C 94.867188 119.984375 94.773438 119.390625 94.210938 119.390625 C 93.585938 119.390625 93.367188 119.828125 93.367188 120.421875 C 93.367188 121.171875 93.992188 121.671875 94.773438 121.671875 C 96.148438 121.671875 97.117188 120.640625 97.617188 119.734375 L 97.679688 119.765625 C 97.804688 120.828125 98.335938 121.671875 99.460938 121.671875 C 101.023438 121.671875 102.179688 120.140625 102.742188 119.234375 L 102.492188 118.984375 C 101.835938 119.828125 100.929688 121.203125 99.835938 121.203125 C 99.273438 121.203125 98.992188 120.390625 98.992188 119.546875 C 98.992188 119.109375 99.054688 118.515625 99.210938 117.765625 L 99.460938 116.796875 C 99.617188 116.046875 99.929688 115.140625 100.304688 114.609375 C 100.554688 114.234375 101.054688 113.359375 101.554688 113.359375 C 102.117188 113.359375 102.085938 113.765625 102.023438 114.171875 C 101.992188 114.703125 102.210938 114.953125 102.648438 114.953125 C 103.148438 114.953125 103.335938 114.578125 103.335938 114.109375 Z M 103.335938 114.109375 "/>
<path fill="none" stroke-width="0.3985" stroke-linecap="butt" stroke-linejoin="miter" stroke="rgb(0%, 0%, 0%)" stroke-opacity="1" stroke-miterlimit="10" d="M -81.521622 -0.00178146 L -49.427872 -0.00178146 " transform="matrix(2, 0, 0, -2, 184.011993, 98.598)"/>
<path fill-rule="nonzero" fill="rgb(0%, 0%, 0%)" fill-opacity="1" stroke-width="0.3985" stroke-linecap="butt" stroke-linejoin="miter" stroke="rgb(0%, 0%, 0%)" stroke-opacity="1" stroke-miterlimit="10" d="M 4.692787 -0.00178146 L 0.642006 1.525562 L 1.974037 -0.00178146 L 0.642006 -1.525219 Z M 4.692787 -0.00178146 " transform="matrix(2, 0, 0, -2, 81.411301, 98.598)"/>
<path fill-rule="nonzero" fill="rgb(0%, 0%, 0%)" fill-opacity="1" d="M 54.828125 79.929688 L 51.921875 90.523438 C 51.703125 91.117188 51.203125 91.273438 50.359375 91.273438 L 50.296875 91.554688 L 54.859375 91.554688 L 54.921875 91.273438 C 54.046875 91.242188 53.328125 91.210938 53.328125 90.523438 C 53.328125 90.429688 53.328125 90.335938 53.328125 90.242188 C 53.390625 90.148438 53.390625 89.992188 53.453125 89.835938 L 54.171875 87.242188 C 55.859375 87.023438 57.390625 86.242188 58.421875 85.335938 C 59.359375 84.523438 60.296875 83.304688 60.296875 81.648438 C 60.296875 79.867188 59.171875 78.835938 57.390625 78.835938 C 57.046875 78.835938 56.703125 78.867188 56.359375 78.960938 L 56.953125 76.804688 L 55.703125 76.804688 L 54.984375 79.304688 C 54.453125 79.554688 53.890625 79.898438 53.390625 80.273438 C 52.890625 80.648438 52.515625 81.054688 52.078125 81.492188 L 52.453125 81.804688 C 53.078125 81.148438 54.015625 80.367188 54.828125 79.929688 Z M 58.765625 81.773438 C 58.765625 82.960938 58.140625 84.367188 57.453125 85.085938 C 56.703125 85.835938 55.484375 86.585938 54.296875 86.804688 L 56.265625 79.429688 C 56.390625 79.398438 56.546875 79.398438 56.640625 79.398438 C 56.796875 79.335938 56.953125 79.335938 57.078125 79.335938 C 58.328125 79.335938 58.765625 80.585938 58.765625 81.773438 Z M 58.765625 81.773438 "/>
<path fill="none" stroke-width="0.3985" stroke-linecap="butt" stroke-linejoin="miter" stroke="rgb(0%, 0%, 0%)" stroke-opacity="1" stroke-miterlimit="10" d="M -39.00209 -0.00178146 L -6.90834 -0.00178146 " transform="matrix(2, 0, 0, -2, 184.011993, 98.598)"/>
<path fill-rule="nonzero" fill="rgb(0%, 0%, 0%)" fill-opacity="1" stroke-width="0.3985" stroke-linecap="butt" stroke-linejoin="miter" stroke="rgb(0%, 0%, 0%)" stroke-opacity="1" stroke-miterlimit="10" d="M 4.692116 -0.00178146 L 0.645241 1.525562 L 1.973366 -0.00178146 L 0.645241 -1.525219 Z M 4.692116 -0.00178146 " transform="matrix(2, 0, 0, -2, 166.451706, 98.598)"/>
<path fill-rule="nonzero" fill="rgb(0%, 0%, 0%)" fill-opacity="1" d="M 143.011719 82.71875 C 141.480469 82.71875 140.292969 83.8125 139.542969 84.71875 C 138.699219 85.71875 138.042969 87.21875 138.042969 88.9375 C 138.042969 90.5625 138.605469 91.5625 140.167969 91.5625 C 141.542969 91.5625 142.824219 90.5625 143.605469 89.28125 L 143.292969 89.0625 C 142.761719 89.84375 141.667969 91.125 140.574219 91.125 C 139.761719 91.125 139.417969 90.4375 139.417969 89.28125 C 139.417969 88.96875 139.480469 88.34375 139.511719 88.03125 C 141.480469 87.625 144.761719 86.34375 144.761719 84.09375 C 144.761719 83.1875 143.949219 82.71875 143.011719 82.71875 Z M 142.824219 83.15625 C 143.199219 83.15625 143.542969 83.5 143.542969 83.9375 C 143.542969 85.71875 141.292969 87.03125 139.605469 87.5625 C 139.980469 86.1875 141.199219 83.15625 142.824219 83.15625 Z M 142.824219 83.15625 "/>
<path fill-rule="nonzero" fill="rgb(0%, 0%, 0%)" fill-opacity="1" d="M 188 98.601562 C 188 96.398438 186.210938 94.609375 184.015625 94.609375 C 181.8125 94.609375 180.023438 96.398438 180.023438 98.601562 C 180.023438 100.796875 181.8125 102.585938 184.015625 102.585938 C 186.210938 102.585938 188 100.796875 188 98.601562 Z M 188 98.601562 "/>
<path fill-rule="nonzero" fill="rgb(0%, 0%, 0%)" fill-opacity="1" d="M 17.914062 98.601562 C 17.914062 96.398438 16.132812 94.609375 13.929688 94.609375 C 11.726562 94.609375 9.945312 96.398438 9.945312 98.601562 C 9.945312 100.796875 11.726562 102.585938 13.929688 102.585938 C 16.132812 102.585938 17.914062 100.796875 17.914062 98.601562 Z M 17.914062 98.601562 "/>
<path fill-rule="nonzero" fill="rgb(0%, 0%, 0%)" fill-opacity="1" d="M 102.953125 98.601562 C 102.953125 96.398438 101.171875 94.609375 98.96875 94.609375 C 96.773438 94.609375 94.984375 96.398438 94.984375 98.601562 C 94.984375 100.796875 96.773438 102.585938 98.96875 102.585938 C 101.171875 102.585938 102.953125 100.796875 102.953125 98.601562 Z M 102.953125 98.601562 "/>
</svg>
