<?xml version="1.0" encoding="UTF-8"?>
<svg xmlns="http://www.w3.org/2000/svg" xmlns:xlink="http://www.w3.org/1999/xlink" width="400.053345" height="141.813334" viewBox="0 0 400.053345 141.813334">
<defs>
<clipPath id="clip-0">
<path clip-rule="nonzero" d="M 101.332031 0 L 335 0 L 335 141.8125 L 101.332031 141.8125 Z M 101.332031 0 "/>
</clipPath>
<clipPath id="clip-1">
<path clip-rule="nonzero" d="M 131 2.667969 L 305 2.667969 L 305 141.8125 L 131 141.8125 Z M 131 2.667969 "/>
</clipPath>
</defs>
<path fill-rule="nonzero" fill="rgb(0%, 0%, 0%)" fill-opacity="1" d="M 41.433594 22.585938 C 41.183594 20.917969 40.101562 19.417969 38.015625 19.417969 C 36.390625 19.417969 34.683594 19.875 32.601562 21.917969 C 30.390625 24.125 30.226562 26.625 30.226562 27.417969 C 30.226562 29.085938 31.390625 32.167969 35.101562 32.167969 C 41.433594 32.167969 44.183594 23.25 44.183594 19.417969 C 44.183594 15.210938 41.726562 12.542969 38.433594 12.542969 C 34.601562 12.542969 33.351562 16 33.351562 16.75 C 33.351562 17.125 33.601562 17.667969 34.390625 17.667969 C 35.265625 17.667969 35.808594 16.875 35.808594 16.292969 C 35.808594 15.335938 34.976562 15.335938 34.558594 15.335938 C 35.726562 13.375 37.640625 13.210938 38.390625 13.210938 C 40.351562 13.210938 42.183594 14.585938 42.183594 18.042969 C 42.183594 19.085938 42.015625 20.417969 41.476562 22.585938 Z M 35.183594 31.417969 C 32.265625 31.417969 32.265625 28.667969 32.265625 28.417969 C 32.265625 27.710938 32.933594 24 34.015625 22.375 C 35.058594 20.875 36.390625 20 38.015625 20 C 40.933594 20 40.976562 23 40.976562 23.542969 C 40.976562 25.460938 39.265625 31.417969 35.183594 31.417969 Z M 35.183594 31.417969 "/>
<path fill-rule="nonzero" fill="rgb(0%, 0%, 0%)" fill-opacity="1" d="M 56.472656 13.042969 C 56.304688 12.667969 56.222656 12.542969 55.765625 12.542969 C 55.347656 12.542969 55.265625 12.667969 55.097656 13.042969 L 46.097656 31.042969 C 45.972656 31.292969 45.972656 31.335938 45.972656 31.375 C 45.972656 31.585938 46.140625 31.585938 46.554688 31.585938 L 65.015625 31.585938 C 65.429688 31.585938 65.597656 31.585938 65.597656 31.375 C 65.597656 31.335938 65.597656 31.292969 65.472656 31.042969 Z M 54.929688 15.210938 L 62.097656 29.585938 L 47.765625 29.585938 Z M 54.929688 15.210938 "/>
<path fill-rule="nonzero" fill="rgb(0%, 0%, 0%)" fill-opacity="1" d="M 75.644531 37.960938 C 75.644531 37.875 75.644531 37.835938 75.1875 37.375 C 71.894531 34.042969 71.019531 29 71.019531 24.917969 C 71.019531 20.292969 72.019531 15.667969 75.3125 12.375 C 75.644531 12.042969 75.644531 12 75.644531 11.917969 C 75.644531 11.710938 75.5625 11.625 75.394531 11.625 C 75.101562 11.625 72.726562 13.460938 71.144531 16.835938 C 69.8125 19.75 69.476562 22.710938 69.476562 24.917969 C 69.476562 27 69.769531 30.210938 71.226562 33.25 C 72.851562 36.5 75.101562 38.25 75.394531 38.25 C 75.5625 38.25 75.644531 38.167969 75.644531 37.960938 Z M 75.644531 37.960938 "/>
<path fill-rule="nonzero" fill="rgb(0%, 0%, 0%)" fill-opacity="1" d="M 80.535156 29.542969 L 83.371094 26.792969 C 87.496094 23.125 89.078125 21.710938 89.078125 19.042969 C 89.078125 16 86.703125 13.875 83.453125 13.875 C 80.453125 13.875 78.496094 16.335938 78.496094 18.710938 C 78.496094 20.167969 79.828125 20.167969 79.910156 20.167969 C 80.371094 20.167969 81.285156 19.875 81.285156 18.75 C 81.285156 18.085938 80.785156 17.375 79.871094 17.375 C 79.660156 17.375 79.621094 17.375 79.535156 17.417969 C 80.121094 15.667969 81.578125 14.710938 83.121094 14.710938 C 85.535156 14.710938 86.660156 16.875 86.660156 19.042969 C 86.660156 21.167969 85.371094 23.25 83.871094 24.917969 L 78.785156 30.585938 C 78.496094 30.875 78.496094 30.960938 78.496094 31.585938 L 88.371094 31.585938 L 89.078125 26.960938 L 88.453125 26.960938 C 88.285156 27.75 88.121094 28.917969 87.828125 29.335938 C 87.660156 29.542969 85.910156 29.542969 85.328125 29.542969 Z M 80.535156 29.542969 "/>
<path fill-rule="nonzero" fill="rgb(0%, 0%, 0%)" fill-opacity="1" d="M 98.109375 24.917969 C 98.109375 22.875 97.820312 19.667969 96.359375 16.625 C 94.777344 13.375 92.484375 11.625 92.234375 11.625 C 92.070312 11.625 91.945312 11.75 91.945312 11.917969 C 91.945312 12 91.945312 12.042969 92.445312 12.542969 C 95.070312 15.167969 96.570312 19.375 96.570312 24.917969 C 96.570312 29.5 95.609375 34.167969 92.320312 37.5 C 91.945312 37.835938 91.945312 37.875 91.945312 37.960938 C 91.945312 38.125 92.070312 38.25 92.234375 38.25 C 92.484375 38.25 94.902344 36.417969 96.445312 33.042969 C 97.820312 30.125 98.109375 27.167969 98.109375 24.917969 Z M 98.109375 24.917969 "/>
<path fill-rule="nonzero" fill="rgb(0%, 0%, 0%)" fill-opacity="1" d="M 117.046875 24.210938 L 111.753906 18.917969 C 111.421875 18.585938 111.378906 18.542969 111.171875 18.542969 C 110.878906 18.542969 110.628906 18.75 110.628906 19.085938 C 110.628906 19.25 110.671875 19.292969 110.960938 19.585938 L 116.296875 24.917969 L 110.960938 30.292969 C 110.671875 30.585938 110.628906 30.625 110.628906 30.792969 C 110.628906 31.125 110.878906 31.335938 111.171875 31.335938 C 111.378906 31.335938 111.421875 31.292969 111.753906 30.960938 L 117.046875 25.667969 L 122.546875 31.167969 C 122.585938 31.210938 122.753906 31.335938 122.921875 31.335938 C 123.253906 31.335938 123.460938 31.125 123.460938 30.792969 C 123.460938 30.75 123.460938 30.667969 123.378906 30.5 C 123.335938 30.460938 119.128906 26.292969 117.796875 24.917969 L 122.671875 20.085938 C 122.796875 19.917969 123.210938 19.585938 123.335938 19.417969 C 123.335938 19.375 123.460938 19.25 123.460938 19.085938 C 123.460938 18.75 123.253906 18.542969 122.921875 18.542969 C 122.710938 18.542969 122.628906 18.625 122.335938 18.917969 Z M 117.046875 24.210938 "/>
<path fill-rule="nonzero" fill="rgb(0%, 0%, 0%)" fill-opacity="1" d="M 145.570312 22.585938 C 145.320312 20.917969 144.238281 19.417969 142.15625 19.417969 C 140.53125 19.417969 138.820312 19.875 136.738281 21.917969 C 134.53125 24.125 134.363281 26.625 134.363281 27.417969 C 134.363281 29.085938 135.53125 32.167969 139.238281 32.167969 C 145.570312 32.167969 148.320312 23.25 148.320312 19.417969 C 148.320312 15.210938 145.863281 12.542969 142.570312 12.542969 C 138.738281 12.542969 137.488281 16 137.488281 16.75 C 137.488281 17.125 137.738281 17.667969 138.53125 17.667969 C 139.40625 17.667969 139.945312 16.875 139.945312 16.292969 C 139.945312 15.335938 139.113281 15.335938 138.695312 15.335938 C 139.863281 13.375 141.78125 13.210938 142.53125 13.210938 C 144.488281 13.210938 146.320312 14.585938 146.320312 18.042969 C 146.320312 19.085938 146.15625 20.417969 145.613281 22.585938 Z M 139.320312 31.417969 C 136.40625 31.417969 136.40625 28.667969 136.40625 28.417969 C 136.40625 27.710938 137.070312 24 138.15625 22.375 C 139.195312 20.875 140.53125 20 142.15625 20 C 145.070312 20 145.113281 23 145.113281 23.542969 C 145.113281 25.460938 143.40625 31.417969 139.320312 31.417969 Z M 139.320312 31.417969 "/>
<path fill-rule="nonzero" fill="rgb(0%, 0%, 0%)" fill-opacity="1" d="M 160.609375 13.042969 C 160.441406 12.667969 160.359375 12.542969 159.898438 12.542969 C 159.484375 12.542969 159.398438 12.667969 159.234375 13.042969 L 150.234375 31.042969 C 150.109375 31.292969 150.109375 31.335938 150.109375 31.375 C 150.109375 31.585938 150.273438 31.585938 150.691406 31.585938 L 169.148438 31.585938 C 169.566406 31.585938 169.734375 31.585938 169.734375 31.375 C 169.734375 31.335938 169.734375 31.292969 169.609375 31.042969 Z M 159.066406 15.210938 L 166.234375 29.585938 L 151.898438 29.585938 Z M 159.066406 15.210938 "/>
<path fill-rule="nonzero" fill="rgb(0%, 0%, 0%)" fill-opacity="1" d="M 162.972656 18.625 C 162.847656 18.375 162.804688 18.292969 162.511719 18.292969 C 162.179688 18.292969 162.136719 18.375 162.011719 18.625 L 155.722656 31.210938 C 155.636719 31.375 155.636719 31.417969 155.636719 31.417969 C 155.636719 31.585938 155.761719 31.585938 156.054688 31.585938 L 168.929688 31.585938 C 169.222656 31.585938 169.347656 31.585938 169.347656 31.417969 C 169.347656 31.417969 169.347656 31.375 169.261719 31.210938 Z M 161.886719 20.125 L 166.886719 30.167969 L 156.886719 30.167969 Z M 161.886719 20.125 "/>
<path fill-rule="nonzero" fill="rgb(0%, 0%, 0%)" fill-opacity="1" d="M 179.054688 37.960938 C 179.054688 37.875 179.054688 37.835938 178.59375 37.375 C 175.304688 34.042969 174.429688 29 174.429688 24.917969 C 174.429688 20.292969 175.429688 15.667969 178.71875 12.375 C 179.054688 12.042969 179.054688 12 179.054688 11.917969 C 179.054688 11.710938 178.96875 11.625 178.804688 11.625 C 178.511719 11.625 176.136719 13.460938 174.554688 16.835938 C 173.21875 19.75 172.886719 22.710938 172.886719 24.917969 C 172.886719 27 173.179688 30.210938 174.636719 33.25 C 176.261719 36.5 178.511719 38.25 178.804688 38.25 C 178.96875 38.25 179.054688 38.167969 179.054688 37.960938 Z M 179.054688 37.960938 "/>
<path fill-rule="nonzero" fill="rgb(0%, 0%, 0%)" fill-opacity="1" d="M 188.402344 14.585938 C 188.402344 13.917969 188.402344 13.875 187.777344 13.875 C 186.109375 15.585938 183.777344 15.585938 182.945312 15.585938 L 182.945312 16.417969 C 183.484375 16.417969 185.027344 16.417969 186.402344 15.710938 L 186.402344 29.5 C 186.402344 30.460938 186.320312 30.75 183.945312 30.75 L 183.109375 30.75 L 183.109375 31.585938 C 184.027344 31.5 186.320312 31.5 187.402344 31.5 C 188.445312 31.5 190.777344 31.5 191.695312 31.585938 L 191.695312 30.75 L 190.859375 30.75 C 188.445312 30.75 188.402344 30.460938 188.402344 29.5 Z M 188.402344 14.585938 "/>
<path fill-rule="nonzero" fill="rgb(0%, 0%, 0%)" fill-opacity="1" d="M 201.519531 24.917969 C 201.519531 22.875 201.226562 19.667969 199.769531 16.625 C 198.1875 13.375 195.894531 11.625 195.644531 11.625 C 195.476562 11.625 195.351562 11.75 195.351562 11.917969 C 195.351562 12 195.351562 12.042969 195.851562 12.542969 C 198.476562 15.167969 199.976562 19.375 199.976562 24.917969 C 199.976562 29.5 199.019531 34.167969 195.726562 37.5 C 195.351562 37.835938 195.351562 37.875 195.351562 37.960938 C 195.351562 38.125 195.476562 38.25 195.644531 38.25 C 195.894531 38.25 198.3125 36.417969 199.851562 33.042969 C 201.226562 30.125 201.519531 27.167969 201.519531 24.917969 Z M 201.519531 24.917969 "/>
<path fill-rule="nonzero" fill="rgb(0%, 0%, 0%)" fill-opacity="1" d="M 303.160156 22.585938 C 302.910156 20.917969 301.828125 19.417969 299.746094 19.417969 C 298.121094 19.417969 296.410156 19.875 294.328125 21.917969 C 292.121094 24.125 291.953125 26.625 291.953125 27.417969 C 291.953125 29.085938 293.121094 32.167969 296.828125 32.167969 C 303.160156 32.167969 305.910156 23.25 305.910156 19.417969 C 305.910156 15.210938 303.453125 12.542969 300.160156 12.542969 C 296.328125 12.542969 295.078125 16 295.078125 16.75 C 295.078125 17.125 295.328125 17.667969 296.121094 17.667969 C 296.996094 17.667969 297.535156 16.875 297.535156 16.292969 C 297.535156 15.335938 296.703125 15.335938 296.285156 15.335938 C 297.453125 13.375 299.371094 13.210938 300.121094 13.210938 C 302.078125 13.210938 303.910156 14.585938 303.910156 18.042969 C 303.910156 19.085938 303.746094 20.417969 303.203125 22.585938 Z M 296.910156 31.417969 C 293.996094 31.417969 293.996094 28.667969 293.996094 28.417969 C 293.996094 27.710938 294.660156 24 295.746094 22.375 C 296.785156 20.875 298.121094 20 299.746094 20 C 302.660156 20 302.703125 23 302.703125 23.542969 C 302.703125 25.460938 300.996094 31.417969 296.910156 31.417969 Z M 296.910156 31.417969 "/>
<path fill-rule="nonzero" fill="rgb(0%, 0%, 0%)" fill-opacity="1" d="M 318.199219 13.042969 C 318.03125 12.667969 317.949219 12.542969 317.488281 12.542969 C 317.074219 12.542969 316.988281 12.667969 316.824219 13.042969 L 307.824219 31.042969 C 307.699219 31.292969 307.699219 31.335938 307.699219 31.375 C 307.699219 31.585938 307.863281 31.585938 308.28125 31.585938 L 326.738281 31.585938 C 327.15625 31.585938 327.324219 31.585938 327.324219 31.375 C 327.324219 31.335938 327.324219 31.292969 327.199219 31.042969 Z M 316.65625 15.210938 L 323.824219 29.585938 L 309.488281 29.585938 Z M 316.65625 15.210938 "/>
<path fill-rule="nonzero" fill="rgb(0%, 0%, 0%)" fill-opacity="1" d="M 337.371094 37.960938 C 337.371094 37.875 337.371094 37.835938 336.910156 37.375 C 333.621094 34.042969 332.746094 29 332.746094 24.917969 C 332.746094 20.292969 333.746094 15.667969 337.035156 12.375 C 337.371094 12.042969 337.371094 12 337.371094 11.917969 C 337.371094 11.710938 337.285156 11.625 337.121094 11.625 C 336.828125 11.625 334.453125 13.460938 332.871094 16.835938 C 331.535156 19.75 331.203125 22.710938 331.203125 24.917969 C 331.203125 27 331.496094 30.210938 332.953125 33.25 C 334.578125 36.5 336.828125 38.25 337.121094 38.25 C 337.285156 38.25 337.371094 38.167969 337.371094 37.960938 Z M 337.371094 37.960938 "/>
<path fill-rule="nonzero" fill="rgb(0%, 0%, 0%)" fill-opacity="1" d="M 342.261719 29.542969 L 345.09375 26.792969 C 349.21875 23.125 350.804688 21.710938 350.804688 19.042969 C 350.804688 16 348.429688 13.875 345.179688 13.875 C 342.179688 13.875 340.21875 16.335938 340.21875 18.710938 C 340.21875 20.167969 341.554688 20.167969 341.636719 20.167969 C 342.09375 20.167969 343.011719 19.875 343.011719 18.75 C 343.011719 18.085938 342.511719 17.375 341.59375 17.375 C 341.386719 17.375 341.34375 17.375 341.261719 17.417969 C 341.84375 15.667969 343.304688 14.710938 344.84375 14.710938 C 347.261719 14.710938 348.386719 16.875 348.386719 19.042969 C 348.386719 21.167969 347.09375 23.25 345.59375 24.917969 L 340.511719 30.585938 C 340.21875 30.875 340.21875 30.960938 340.21875 31.585938 L 350.09375 31.585938 L 350.804688 26.960938 L 350.179688 26.960938 C 350.011719 27.75 349.84375 28.917969 349.554688 29.335938 C 349.386719 29.542969 347.636719 29.542969 347.054688 29.542969 Z M 342.261719 29.542969 "/>
<path fill-rule="nonzero" fill="rgb(0%, 0%, 0%)" fill-opacity="1" d="M 359.835938 24.917969 C 359.835938 22.875 359.542969 19.667969 358.085938 16.625 C 356.503906 13.375 354.210938 11.625 353.960938 11.625 C 353.792969 11.625 353.667969 11.75 353.667969 11.917969 C 353.667969 12 353.667969 12.042969 354.167969 12.542969 C 356.792969 15.167969 358.292969 19.375 358.292969 24.917969 C 358.292969 29.5 357.335938 34.167969 354.042969 37.5 C 353.667969 37.835938 353.667969 37.875 353.667969 37.960938 C 353.667969 38.125 353.792969 38.25 353.960938 38.25 C 354.210938 38.25 356.628906 36.417969 358.167969 33.042969 C 359.542969 30.125 359.835938 27.167969 359.835938 24.917969 Z M 359.835938 24.917969 "/>
<path fill-rule="nonzero" fill="rgb(0%, 0%, 0%)" fill-opacity="1" d="M 94.421875 106.894531 C 94.253906 106.519531 94.171875 106.394531 93.714844 106.394531 C 93.296875 106.394531 93.214844 106.519531 93.046875 106.894531 L 84.046875 124.894531 C 83.921875 125.144531 83.921875 125.1875 83.921875 125.230469 C 83.921875 125.4375 84.089844 125.4375 84.503906 125.4375 L 102.964844 125.4375 C 103.378906 125.4375 103.546875 125.4375 103.546875 125.230469 C 103.546875 125.1875 103.546875 125.144531 103.421875 124.894531 Z M 92.878906 109.0625 L 100.046875 123.4375 L 85.714844 123.4375 Z M 92.878906 109.0625 "/>
<path fill-rule="nonzero" fill="rgb(0%, 0%, 0%)" fill-opacity="1" d="M 113.59375 131.8125 C 113.59375 131.730469 113.59375 131.6875 113.136719 131.230469 C 109.84375 127.894531 108.96875 122.855469 108.96875 118.769531 C 108.96875 114.144531 109.96875 109.519531 113.261719 106.230469 C 113.59375 105.894531 113.59375 105.855469 113.59375 105.769531 C 113.59375 105.5625 113.511719 105.480469 113.34375 105.480469 C 113.050781 105.480469 110.675781 107.3125 109.09375 110.6875 C 107.761719 113.605469 107.425781 116.5625 107.425781 118.769531 C 107.425781 120.855469 107.71875 124.0625 109.175781 127.105469 C 110.800781 130.355469 113.050781 132.105469 113.34375 132.105469 C 113.511719 132.105469 113.59375 132.019531 113.59375 131.8125 Z M 113.59375 131.8125 "/>
<path fill-rule="nonzero" fill="rgb(0%, 0%, 0%)" fill-opacity="1" d="M 118.484375 123.394531 L 121.320312 120.644531 C 125.445312 116.980469 127.027344 115.5625 127.027344 112.894531 C 127.027344 109.855469 124.652344 107.730469 121.402344 107.730469 C 118.402344 107.730469 116.445312 110.1875 116.445312 112.5625 C 116.445312 114.019531 117.777344 114.019531 117.859375 114.019531 C 118.320312 114.019531 119.234375 113.730469 119.234375 112.605469 C 119.234375 111.9375 118.734375 111.230469 117.820312 111.230469 C 117.609375 111.230469 117.570312 111.230469 117.484375 111.269531 C 118.070312 109.519531 119.527344 108.5625 121.070312 108.5625 C 123.484375 108.5625 124.609375 110.730469 124.609375 112.894531 C 124.609375 115.019531 123.320312 117.105469 121.820312 118.769531 L 116.734375 124.4375 C 116.445312 124.730469 116.445312 124.8125 116.445312 125.4375 L 126.320312 125.4375 L 127.027344 120.8125 L 126.402344 120.8125 C 126.234375 121.605469 126.070312 122.769531 125.777344 123.1875 C 125.609375 123.394531 123.859375 123.394531 123.277344 123.394531 Z M 118.484375 123.394531 "/>
<path fill-rule="nonzero" fill="rgb(0%, 0%, 0%)" fill-opacity="1" d="M 136.058594 118.769531 C 136.058594 116.730469 135.769531 113.519531 134.308594 110.480469 C 132.726562 107.230469 130.433594 105.480469 130.183594 105.480469 C 130.019531 105.480469 129.894531 105.605469 129.894531 105.769531 C 129.894531 105.855469 129.894531 105.894531 130.394531 106.394531 C 133.019531 109.019531 134.519531 113.230469 134.519531 118.769531 C 134.519531 123.355469 133.558594 128.019531 130.269531 131.355469 C 129.894531 131.6875 129.894531 131.730469 129.894531 131.8125 C 129.894531 131.980469 130.019531 132.105469 130.183594 132.105469 C 130.433594 132.105469 132.851562 130.269531 134.394531 126.894531 C 135.769531 123.980469 136.058594 121.019531 136.058594 118.769531 Z M 136.058594 118.769531 "/>
<path fill-rule="nonzero" fill="rgb(0%, 0%, 0%)" fill-opacity="1" d="M 148.34375 123.507812 C 148.34375 121.464844 148.09375 119.964844 147.261719 118.675781 C 146.675781 117.839844 145.511719 117.089844 144.050781 117.089844 C 139.71875 117.089844 139.71875 122.175781 139.71875 123.507812 C 139.71875 124.839844 139.71875 129.800781 144.050781 129.800781 C 148.34375 129.800781 148.34375 124.839844 148.34375 123.507812 Z M 144.050781 129.257812 C 143.175781 129.257812 142.050781 128.757812 141.675781 127.257812 C 141.425781 126.175781 141.425781 124.632812 141.425781 123.257812 C 141.425781 121.882812 141.425781 120.464844 141.675781 119.464844 C 142.09375 118.007812 143.261719 117.589844 144.050781 117.589844 C 145.050781 117.589844 146.011719 118.214844 146.34375 119.300781 C 146.636719 120.300781 146.675781 121.632812 146.675781 123.257812 C 146.675781 124.632812 146.675781 126.007812 146.425781 127.175781 C 146.050781 128.882812 144.800781 129.257812 144.050781 129.257812 Z M 144.050781 129.257812 "/>
<path fill-rule="nonzero" fill="rgb(0%, 0%, 0%)" fill-opacity="1" d="M 313.863281 116.4375 C 313.613281 114.769531 312.527344 113.269531 310.445312 113.269531 C 308.820312 113.269531 307.113281 113.730469 305.027344 115.769531 C 302.820312 117.980469 302.652344 120.480469 302.652344 121.269531 C 302.652344 122.9375 303.820312 126.019531 307.527344 126.019531 C 313.863281 126.019531 316.613281 117.105469 316.613281 113.269531 C 316.613281 109.0625 314.152344 106.394531 310.863281 106.394531 C 307.027344 106.394531 305.777344 109.855469 305.777344 110.605469 C 305.777344 110.980469 306.027344 111.519531 306.820312 111.519531 C 307.695312 111.519531 308.238281 110.730469 308.238281 110.144531 C 308.238281 109.1875 307.402344 109.1875 306.988281 109.1875 C 308.152344 107.230469 310.070312 107.0625 310.820312 107.0625 C 312.777344 107.0625 314.613281 108.4375 314.613281 111.894531 C 314.613281 112.9375 314.445312 114.269531 313.902344 116.4375 Z M 307.613281 125.269531 C 304.695312 125.269531 304.695312 122.519531 304.695312 122.269531 C 304.695312 121.5625 305.363281 117.855469 306.445312 116.230469 C 307.488281 114.730469 308.820312 113.855469 310.445312 113.855469 C 313.363281 113.855469 313.402344 116.855469 313.402344 117.394531 C 313.402344 119.3125 311.695312 125.269531 307.613281 125.269531 Z M 307.613281 125.269531 "/>
<path fill-rule="nonzero" fill="rgb(0%, 0%, 0%)" fill-opacity="1" d="M 328.898438 106.894531 C 328.734375 106.519531 328.648438 106.394531 328.191406 106.394531 C 327.773438 106.394531 327.691406 106.519531 327.523438 106.894531 L 318.523438 124.894531 C 318.398438 125.144531 318.398438 125.1875 318.398438 125.230469 C 318.398438 125.4375 318.566406 125.4375 318.984375 125.4375 L 337.441406 125.4375 C 337.859375 125.4375 338.023438 125.4375 338.023438 125.230469 C 338.023438 125.1875 338.023438 125.144531 337.898438 124.894531 Z M 327.359375 109.0625 L 334.523438 123.4375 L 320.191406 123.4375 Z M 327.359375 109.0625 "/>
<path fill-rule="nonzero" fill="rgb(0%, 0%, 0%)" fill-opacity="1" d="M 331.261719 112.480469 C 331.136719 112.230469 331.09375 112.144531 330.804688 112.144531 C 330.46875 112.144531 330.429688 112.230469 330.304688 112.480469 L 324.011719 125.0625 C 323.929688 125.230469 323.929688 125.269531 323.929688 125.269531 C 323.929688 125.4375 324.054688 125.4375 324.34375 125.4375 L 337.21875 125.4375 C 337.511719 125.4375 337.636719 125.4375 337.636719 125.269531 C 337.636719 125.269531 337.636719 125.230469 337.554688 125.0625 Z M 330.179688 113.980469 L 335.179688 124.019531 L 325.179688 124.019531 Z M 330.179688 113.980469 "/>
<path fill-rule="nonzero" fill="rgb(0%, 0%, 0%)" fill-opacity="1" d="M 341.925781 123.394531 L 344.761719 120.644531 C 348.886719 116.980469 350.46875 115.5625 350.46875 112.894531 C 350.46875 109.855469 348.09375 107.730469 344.84375 107.730469 C 341.84375 107.730469 339.886719 110.1875 339.886719 112.5625 C 339.886719 114.019531 341.21875 114.019531 341.300781 114.019531 C 341.761719 114.019531 342.675781 113.730469 342.675781 112.605469 C 342.675781 111.9375 342.175781 111.230469 341.261719 111.230469 C 341.050781 111.230469 341.011719 111.230469 340.925781 111.269531 C 341.511719 109.519531 342.96875 108.5625 344.511719 108.5625 C 346.925781 108.5625 348.050781 110.730469 348.050781 112.894531 C 348.050781 115.019531 346.761719 117.105469 345.261719 118.769531 L 340.175781 124.4375 C 339.886719 124.730469 339.886719 124.8125 339.886719 125.4375 L 349.761719 125.4375 L 350.46875 120.8125 L 349.84375 120.8125 C 349.675781 121.605469 349.511719 122.769531 349.21875 123.1875 C 349.050781 123.394531 347.300781 123.394531 346.71875 123.394531 Z M 341.925781 123.394531 "/>
<path fill="none" stroke-width="0.39848" stroke-linecap="butt" stroke-linejoin="miter" stroke="rgb(0%, 0%, 0%)" stroke-opacity="1" stroke-miterlimit="10" d="M 7.63031 17.599438 L 30.74408 17.599438 " transform="matrix(2.666667, 0, 0, -2.666667, 195.840007, 71.869334)"/>
<path fill="none" stroke-width="0.39848" stroke-linecap="round" stroke-linejoin="round" stroke="rgb(0%, 0%, 0%)" stroke-opacity="1" stroke-miterlimit="10" d="M -2.072456 2.392303 C -1.693062 0.955291 -0.849312 0.278533 -0.0011673 0.00167751 C -0.849312 -0.279572 -1.693062 -0.954865 -2.072456 -2.393342 " transform="matrix(2.666667, 0, 0, -2.666667, 278.358582, 24.941973)"/>
<path fill-rule="nonzero" fill="rgb(0%, 0%, 0%)" fill-opacity="1" d="M 237.503906 16.65625 C 236.296875 16.65625 236.128906 16.65625 236.128906 15.867188 L 236.128906 12.867188 C 236.214844 12.949219 237.089844 13.90625 238.628906 13.90625 C 241.089844 13.90625 243.171875 12.074219 243.171875 9.742188 C 243.171875 7.449219 241.296875 5.53125 238.921875 5.53125 C 237.878906 5.53125 236.796875 5.949219 236.046875 6.699219 L 236.046875 5.53125 L 233.253906 5.742188 L 233.253906 6.40625 C 234.546875 6.40625 234.628906 6.53125 234.628906 7.28125 L 234.628906 15.867188 C 234.628906 16.65625 234.464844 16.65625 233.253906 16.65625 L 233.253906 17.367188 C 233.296875 17.367188 234.589844 17.28125 235.378906 17.28125 C 236.046875 17.28125 237.339844 17.324219 237.503906 17.367188 Z M 236.128906 7.53125 C 236.671875 6.617188 237.753906 6.15625 238.714844 6.15625 C 240.296875 6.15625 241.503906 7.78125 241.503906 9.742188 C 241.503906 11.867188 240.089844 13.40625 238.546875 13.40625 C 236.878906 13.40625 236.171875 11.992188 236.128906 11.867188 Z M 236.128906 7.53125 "/>
<path fill-rule="nonzero" fill="rgb(0%, 0%, 0%)" fill-opacity="1" d="M 247.761719 9.492188 C 247.761719 7.949219 248.472656 6.074219 250.261719 6.074219 C 250.097656 6.199219 249.929688 6.449219 249.929688 6.742188 C 249.929688 7.367188 250.429688 7.574219 250.761719 7.574219 C 251.222656 7.574219 251.636719 7.28125 251.636719 6.742188 C 251.636719 6.117188 251.011719 5.53125 250.136719 5.53125 C 249.222656 5.53125 248.179688 6.117188 247.636719 7.53125 L 247.636719 5.53125 L 244.972656 5.742188 L 244.972656 6.40625 C 246.222656 6.40625 246.347656 6.53125 246.347656 7.449219 L 246.347656 12.28125 C 246.347656 13.074219 246.179688 13.074219 244.972656 13.074219 L 244.972656 13.742188 C 245.054688 13.742188 246.304688 13.65625 247.097656 13.65625 C 247.886719 13.65625 248.679688 13.699219 249.511719 13.742188 L 249.511719 13.074219 L 249.136719 13.074219 C 247.761719 13.074219 247.761719 12.867188 247.761719 12.242188 Z M 247.761719 9.492188 "/>
<path fill-rule="nonzero" fill="rgb(0%, 0%, 0%)" fill-opacity="1" d="M 257.667969 10.230469 C 257.667969 9.855469 257.625 9.855469 257.167969 9.855469 C 256.25 10.6875 254.75 10.6875 254.5 10.6875 L 254.292969 10.6875 L 254.292969 11.269531 L 254.5 11.269531 C 254.792969 11.269531 255.667969 11.230469 256.460938 10.894531 L 256.460938 17.5625 C 256.460938 17.9375 256.460938 18.105469 255.042969 18.105469 L 254.375 18.105469 L 254.375 18.6875 C 255.085938 18.644531 256.292969 18.644531 257.042969 18.644531 C 257.835938 18.644531 259 18.644531 259.75 18.6875 L 259.75 18.105469 L 259.085938 18.105469 C 257.667969 18.105469 257.667969 17.9375 257.667969 17.5625 Z M 257.667969 10.230469 "/>
<path fill="none" stroke-width="0.39848" stroke-linecap="butt" stroke-linejoin="miter" stroke="rgb(0%, 0%, 0%)" stroke-opacity="1" stroke-miterlimit="10" d="M -29.686584 8.767895 L -29.686584 -8.369312 " transform="matrix(2.666667, 0, 0, -2.666667, 195.840007, 71.869334)"/>
<path fill="none" stroke-width="0.39848" stroke-linecap="round" stroke-linejoin="round" stroke="rgb(0%, 0%, 0%)" stroke-opacity="1" stroke-miterlimit="10" d="M -2.073696 2.390934 C -1.694302 0.958317 -0.850552 0.278629 0.000522614 0.00030899 C -0.850552 -0.280941 -1.694302 -0.956234 -2.073696 -2.390316 " transform="matrix(0, 2.666667, 2.666667, 0, 116.674957, 94.717356)"/>
<path fill-rule="nonzero" fill="rgb(0%, 0%, 0%)" fill-opacity="1" d="M 93.453125 64.28125 C 93.328125 63.945312 93.285156 63.863281 93.078125 63.863281 C 92.867188 63.863281 92.785156 64.03125 92.660156 64.238281 L 88.453125 75.363281 C 88.203125 75.945312 87.828125 76.238281 87.328125 76.28125 C 87.242188 76.28125 86.953125 76.320312 86.953125 76.613281 C 86.953125 76.945312 87.242188 76.945312 87.578125 76.945312 L 90.535156 76.945312 C 90.867188 76.945312 91.160156 76.945312 91.160156 76.613281 C 91.160156 76.320312 90.910156 76.320312 90.742188 76.28125 C 90.492188 76.28125 90.035156 76.195312 90.035156 75.070312 C 90.035156 74.488281 90.160156 73.863281 90.285156 73.28125 L 94.367188 73.28125 C 95.035156 75.113281 95.035156 75.40625 95.078125 75.78125 C 94.617188 76.238281 94.117188 76.28125 93.910156 76.28125 C 93.703125 76.320312 93.578125 76.445312 93.578125 76.613281 C 93.578125 76.945312 93.867188 76.945312 94.203125 76.945312 L 99.035156 76.945312 C 99.367188 76.945312 99.703125 76.945312 99.703125 76.613281 C 99.703125 76.363281 99.453125 76.320312 99.285156 76.28125 C 98.867188 76.238281 98.535156 75.90625 98.160156 75.070312 Z M 90.492188 72.65625 C 90.910156 70.988281 91.492188 69.40625 92.117188 67.863281 C 92.703125 69.113281 93.828125 71.78125 94.117188 72.65625 Z M 89.367188 74.695312 L 89.410156 74.738281 L 89.410156 74.90625 C 89.367188 74.945312 89.367188 74.988281 89.367188 75.070312 C 89.367188 75.15625 89.367188 75.863281 89.660156 76.28125 L 88.660156 76.28125 C 88.867188 76.03125 88.953125 75.820312 89.078125 75.53125 Z M 92.410156 66.863281 L 93.078125 65.070312 L 97.578125 75.320312 C 97.660156 75.53125 97.867188 75.945312 98.117188 76.28125 L 95.492188 76.28125 C 95.660156 76.195312 95.742188 75.90625 95.742188 75.695312 C 95.742188 74.570312 94.117188 70.78125 93.328125 68.945312 Z M 92.410156 66.863281 "/>
<path fill-rule="nonzero" fill="rgb(0%, 0%, 0%)" fill-opacity="1" d="M 108.050781 75.355469 C 108.050781 74.398438 108.050781 70.773438 104.550781 70.773438 C 101.09375 70.773438 101.09375 74.398438 101.09375 75.355469 C 101.09375 76.3125 101.09375 79.898438 104.550781 79.898438 C 108.050781 79.898438 108.050781 76.3125 108.050781 75.355469 Z M 104.550781 79.4375 C 104.09375 79.4375 102.96875 79.273438 102.632812 77.9375 C 102.425781 77.230469 102.425781 76.273438 102.425781 75.1875 C 102.425781 74.1875 102.425781 73.273438 102.632812 72.523438 C 102.96875 71.398438 104.007812 71.1875 104.550781 71.1875 C 105.550781 71.1875 106.257812 71.6875 106.507812 72.648438 C 106.71875 73.3125 106.71875 74.398438 106.71875 75.1875 C 106.71875 76.105469 106.71875 77.1875 106.507812 77.980469 C 106.175781 79.273438 105.09375 79.4375 104.550781 79.4375 Z M 104.550781 79.4375 "/>
<path fill="none" stroke-width="0.39848" stroke-linecap="butt" stroke-linejoin="miter" stroke="rgb(0%, 0%, 0%)" stroke-opacity="1" stroke-miterlimit="10" d="M 49.075134 8.767895 L 49.075134 -8.924488 " transform="matrix(2.666667, 0, 0, -2.666667, 195.840007, 71.869334)"/>
<path fill="none" stroke-width="0.39848" stroke-linecap="round" stroke-linejoin="round" stroke="rgb(0%, 0%, 0%)" stroke-opacity="1" stroke-miterlimit="10" d="M -2.072033 2.39119 C -1.694103 0.958572 -0.850353 0.278885 0.00218582 0.000564575 C -0.850353 -0.280685 -1.694103 -0.955978 -2.072033 -2.39006 " transform="matrix(0, 2.666667, 2.666667, 0, 326.705526, 96.19339)"/>
<path fill-rule="nonzero" fill="rgb(0%, 0%, 0%)" fill-opacity="1" d="M 338.960938 68.871094 C 340.503906 68.203125 341.171875 67.953125 341.628906 67.703125 C 342.003906 67.578125 342.171875 67.496094 342.171875 67.121094 C 342.171875 66.828125 341.921875 66.539062 341.585938 66.539062 C 341.460938 66.539062 341.421875 66.539062 341.210938 66.703125 L 338.671875 68.414062 L 338.960938 65.664062 C 339.003906 65.328125 338.960938 64.871094 338.378906 64.871094 C 338.171875 64.871094 337.796875 64.996094 337.796875 65.414062 C 337.796875 65.578125 337.878906 66.121094 337.921875 66.328125 C 337.960938 66.621094 338.085938 67.996094 338.128906 68.414062 L 335.585938 66.703125 C 335.421875 66.621094 335.378906 66.539062 335.210938 66.539062 C 334.835938 66.539062 334.628906 66.828125 334.628906 67.121094 C 334.628906 67.496094 334.835938 67.621094 335.003906 67.664062 L 337.796875 68.871094 C 336.296875 69.539062 335.585938 69.789062 335.128906 69.996094 C 334.796875 70.164062 334.628906 70.246094 334.628906 70.578125 C 334.628906 70.914062 334.835938 71.164062 335.210938 71.164062 C 335.335938 71.164062 335.378906 71.164062 335.585938 70.996094 L 338.128906 69.328125 L 337.796875 72.289062 C 337.796875 72.703125 338.171875 72.871094 338.378906 72.871094 C 338.628906 72.871094 338.960938 72.703125 338.960938 72.289062 C 338.960938 72.121094 338.878906 71.578125 338.878906 71.414062 C 338.835938 71.078125 338.710938 69.746094 338.671875 69.328125 L 340.878906 70.789062 C 341.378906 71.164062 341.421875 71.164062 341.585938 71.164062 C 341.921875 71.164062 342.171875 70.914062 342.171875 70.578125 C 342.171875 70.203125 341.921875 70.121094 341.753906 70.039062 Z M 338.960938 68.871094 "/>
<path fill-rule="nonzero" fill="rgb(0%, 0%, 0%)" fill-opacity="1" d="M 347.765625 68.929688 C 348.054688 68.554688 348.679688 68.054688 349.890625 68.054688 C 350.890625 68.054688 352.429688 68.554688 352.429688 70.679688 C 352.429688 71.304688 352.304688 71.96875 352.140625 72.554688 C 351.972656 71.929688 351.304688 70.96875 349.765625 70.96875 C 348.804688 70.96875 347.804688 71.136719 346.515625 72.179688 C 345.304688 73.179688 345.222656 74.429688 345.222656 74.804688 C 345.222656 75.46875 345.515625 76.054688 346.140625 76.59375 C 346.804688 77.21875 347.597656 77.34375 348.429688 77.34375 C 352.390625 77.34375 353.722656 72.929688 353.722656 71.261719 C 353.722656 69.09375 352.140625 67.554688 349.890625 67.554688 C 347.429688 67.554688 346.847656 69.304688 346.847656 69.761719 C 346.847656 70.054688 347.054688 70.304688 347.390625 70.304688 C 347.890625 70.304688 348.222656 69.886719 348.222656 69.46875 C 348.222656 69.011719 347.765625 68.929688 347.765625 68.929688 Z M 348.472656 76.804688 C 346.972656 76.804688 346.515625 75.96875 346.515625 75.21875 C 346.515625 75.054688 346.679688 73.261719 347.554688 72.34375 C 348.472656 71.386719 349.515625 71.386719 349.847656 71.386719 C 351.265625 71.386719 351.890625 72.34375 351.890625 73.261719 C 351.890625 73.929688 351.140625 76.804688 348.472656 76.804688 Z M 348.472656 76.804688 "/>
<path fill-rule="nonzero" fill="rgb(0%, 0%, 0%)" fill-opacity="1" d="M 362.554688 67.84375 C 362.386719 67.59375 362.304688 67.554688 362.011719 67.554688 C 361.71875 67.554688 361.636719 67.59375 361.46875 67.84375 L 356.011719 76.71875 C 355.886719 76.84375 355.886719 76.886719 355.886719 76.886719 C 355.886719 77.054688 356.011719 77.054688 356.21875 77.054688 L 367.761719 77.054688 C 367.96875 77.054688 368.09375 77.054688 368.09375 76.886719 C 368.09375 76.886719 368.09375 76.84375 368.011719 76.71875 Z M 361.511719 68.886719 L 365.804688 75.84375 L 357.21875 75.84375 Z M 361.511719 68.886719 "/>
<path fill-rule="nonzero" fill="rgb(0%, 0%, 0%)" fill-opacity="1" d="M 363.84375 68.09375 C 363.71875 67.84375 363.675781 67.800781 363.425781 67.800781 C 363.261719 67.800781 363.136719 67.800781 363.011719 68.011719 L 358.21875 76.761719 C 358.136719 76.886719 358.136719 76.925781 358.136719 76.925781 C 358.136719 77.050781 358.261719 77.050781 358.46875 77.050781 L 368.425781 77.050781 C 368.636719 77.050781 368.71875 77.050781 368.71875 76.925781 C 368.71875 76.925781 368.71875 76.886719 368.636719 76.761719 Z M 363.011719 69.050781 L 366.800781 75.96875 L 359.175781 75.96875 Z M 363.011719 69.050781 "/>
<path fill-rule="nonzero" fill="rgb(0%, 0%, 0%)" fill-opacity="1" d="M 375.4375 67.386719 C 375.4375 67.386719 375.480469 67.34375 375.480469 67.261719 C 375.480469 67.21875 375.4375 67.09375 375.230469 67.09375 C 374.980469 67.09375 371.5625 69.21875 371.5625 73.71875 C 371.5625 78.21875 374.980469 80.386719 375.230469 80.386719 C 375.4375 80.386719 375.480469 80.261719 375.480469 80.179688 C 375.480469 80.09375 375.394531 80.054688 375.355469 80.011719 C 373.019531 78.136719 372.5625 75.429688 372.5625 73.71875 C 372.5625 70.46875 374.0625 68.34375 375.4375 67.386719 Z M 375.4375 67.386719 "/>
<path fill-rule="nonzero" fill="rgb(0%, 0%, 0%)" fill-opacity="1" d="M 384.582031 74.46875 L 384 74.46875 C 384 74.71875 383.832031 75.554688 383.625 75.679688 C 383.539062 75.761719 382.414062 75.761719 382.207031 75.761719 L 379.625 75.761719 C 380.5 75.136719 381.457031 74.386719 382.25 73.84375 C 383.457031 73.011719 384.582031 72.261719 384.582031 70.84375 C 384.582031 69.136719 382.957031 68.21875 381.082031 68.21875 C 379.289062 68.21875 377.957031 69.21875 377.957031 70.554688 C 377.957031 71.21875 378.539062 71.34375 378.75 71.34375 C 379.082031 71.34375 379.5 71.09375 379.5 70.554688 C 379.5 70.09375 379.164062 69.804688 378.75 69.804688 C 379.125 69.179688 379.914062 68.804688 380.789062 68.804688 C 382.082031 68.804688 383.164062 69.554688 383.164062 70.84375 C 383.164062 71.96875 382.375 72.84375 381.375 73.679688 L 378.125 76.429688 C 378 76.554688 377.957031 76.554688 377.957031 76.636719 L 377.957031 77.054688 L 384.125 77.054688 Z M 384.582031 74.46875 "/>
<path fill-rule="nonzero" fill="rgb(0%, 0%, 0%)" fill-opacity="1" d="M 390.988281 73.71875 C 390.988281 69.21875 387.574219 67.09375 387.28125 67.09375 C 387.074219 67.09375 387.074219 67.261719 387.074219 67.261719 C 387.074219 67.304688 387.074219 67.34375 387.15625 67.429688 C 389.15625 69.011719 389.949219 71.34375 389.949219 73.71875 C 389.949219 74.929688 389.738281 76.179688 389.28125 77.261719 C 388.65625 78.761719 387.78125 79.511719 387.15625 80.054688 C 387.113281 80.054688 387.074219 80.136719 387.074219 80.179688 C 387.074219 80.21875 387.074219 80.386719 387.28125 80.386719 C 387.574219 80.386719 390.988281 78.261719 390.988281 73.71875 Z M 390.988281 73.71875 "/>
<g clip-path="url(#clip-0)">
<path fill="none" stroke-width="2.33075" stroke-linecap="butt" stroke-linejoin="miter" stroke="rgb(0%, 0%, 0%)" stroke-opacity="1" stroke-miterlimit="10" d="M -2.440491 -5.420582 L 19.142517 4.228344 " transform="matrix(2.666667, 0, 0, -2.666667, 195.840007, 71.869334)"/>
</g>
<g clip-path="url(#clip-1)">
<path fill="none" stroke-width="1.53377" stroke-linecap="butt" stroke-linejoin="miter" stroke="rgb(100%, 100%, 100%)" stroke-opacity="1" stroke-miterlimit="10" d="M -2.440491 -5.420582 L 19.142517 4.228344 " transform="matrix(2.666667, 0, 0, -2.666667, 195.840007, 71.869334)"/>
</g>
<path fill="none" stroke-width="0.39848" stroke-linecap="round" stroke-linejoin="round" stroke="rgb(0%, 0%, 0%)" stroke-opacity="1" stroke-miterlimit="10" d="M -1.292753 2.559342 C -0.664477 1.208172 1.024416 0.0471417 1.9917 -0.000196868 C 1.023911 -0.0473054 -0.666806 -1.208952 -1.292978 -2.559303 " transform="matrix(2.434373, -1.088347, -1.088347, -2.434373, 246.881714, 60.592962)"/>
<path fill-rule="nonzero" fill="rgb(0%, 0%, 0%)" fill-opacity="1" d="M 232.867188 79.105469 C 232.867188 79.0625 232.90625 78.8125 232.90625 78.8125 C 232.90625 78.6875 232.867188 78.519531 232.617188 78.519531 C 232.242188 78.519531 230.699219 78.6875 230.242188 78.730469 C 230.117188 78.730469 229.824219 78.769531 229.824219 79.144531 C 229.824219 79.394531 230.117188 79.394531 230.324219 79.394531 C 231.199219 79.394531 231.199219 79.5625 231.199219 79.6875 C 231.199219 79.8125 231.15625 79.9375 231.15625 80.105469 L 228.53125 90.605469 C 228.40625 90.9375 228.40625 90.980469 228.40625 91.019531 C 228.40625 91.3125 228.65625 91.605469 229.074219 91.605469 C 229.28125 91.605469 229.617188 91.519531 229.824219 91.144531 C 229.867188 91.019531 230.03125 90.355469 230.117188 89.980469 L 230.574219 88.3125 C 230.617188 88.019531 230.824219 87.3125 230.867188 87.0625 C 231.03125 86.355469 231.03125 86.3125 231.40625 85.730469 C 232.03125 84.8125 232.949219 83.769531 234.40625 83.769531 C 235.449219 83.769531 235.492188 84.605469 235.492188 85.0625 C 235.492188 86.1875 234.699219 88.230469 234.40625 89.019531 C 234.199219 89.5625 234.117188 89.730469 234.117188 90.019531 C 234.117188 91.019531 234.949219 91.605469 235.867188 91.605469 C 237.742188 91.605469 238.574219 89.0625 238.574219 88.769531 C 238.574219 88.519531 238.324219 88.519531 238.242188 88.519531 C 237.992188 88.519531 237.992188 88.644531 237.90625 88.855469 C 237.492188 90.355469 236.65625 91.105469 235.949219 91.105469 C 235.53125 91.105469 235.449219 90.855469 235.449219 90.4375 C 235.449219 90.019531 235.574219 89.769531 235.90625 88.9375 C 236.117188 88.355469 236.867188 86.394531 236.867188 85.355469 C 236.867188 85.0625 236.867188 84.269531 236.199219 83.730469 C 235.867188 83.519531 235.324219 83.230469 234.449219 83.230469 C 233.117188 83.230469 232.117188 83.980469 231.449219 84.769531 Z M 232.867188 79.105469 "/>
<path fill-rule="nonzero" fill="rgb(0%, 0%, 0%)" fill-opacity="1" d="M 244.761719 85.636719 C 244.761719 85.261719 244.722656 85.261719 244.261719 85.261719 C 243.347656 86.097656 241.847656 86.097656 241.597656 86.097656 L 241.386719 86.097656 L 241.386719 86.679688 L 241.597656 86.679688 C 241.886719 86.679688 242.761719 86.636719 243.554688 86.304688 L 243.554688 92.972656 C 243.554688 93.347656 243.554688 93.511719 242.136719 93.511719 L 241.472656 93.511719 L 241.472656 94.097656 C 242.179688 94.054688 243.386719 94.054688 244.136719 94.054688 C 244.929688 94.054688 246.097656 94.054688 246.847656 94.097656 L 246.847656 93.511719 L 246.179688 93.511719 C 244.761719 93.511719 244.761719 93.347656 244.761719 92.972656 Z M 244.761719 85.636719 "/>
<path fill="none" stroke-width="0.39848" stroke-linecap="butt" stroke-linejoin="miter" stroke="rgb(0%, 0%, 0%)" stroke-opacity="1" stroke-miterlimit="10" d="M -12.443909 -17.596363 L 34.759216 -17.596363 " transform="matrix(2.666667, 0, 0, -2.666667, 195.840007, 71.869334)"/>
<path fill="none" stroke-width="0.39848" stroke-linecap="round" stroke-linejoin="round" stroke="rgb(0%, 0%, 0%)" stroke-opacity="1" stroke-miterlimit="10" d="M -2.072983 2.392021 C -1.693588 0.955009 -0.849838 0.279716 0.00123596 0.00139618 C -0.849838 -0.279854 -1.693588 -0.955147 -2.072983 -2.392159 " transform="matrix(2.666667, 0, 0, -2.666667, 289.059204, 118.796692)"/>
<path fill-rule="nonzero" fill="rgb(0%, 0%, 0%)" fill-opacity="1" d="M 271.339844 101.101562 C 271.050781 101.101562 270.589844 101.101562 270.589844 101.519531 C 270.589844 102.019531 271.007812 102.019531 271.339844 102.019531 L 277.839844 102.019531 C 278.464844 102.019531 278.550781 101.894531 278.550781 101.308594 L 278.550781 94.726562 C 278.550781 94.433594 278.550781 94.019531 278.132812 94.019531 C 277.632812 94.019531 277.632812 94.519531 277.632812 94.808594 L 277.632812 101.101562 Z M 271.339844 101.101562 "/>
</svg>
