<?xml version="1.0" encoding="UTF-8"?>
<svg xmlns="http://www.w3.org/2000/svg" xmlns:xlink="http://www.w3.org/1999/xlink" width="579.099976" height="505.140015" viewBox="0 0 579.099976 505.140015">
<path fill-rule="nonzero" fill="rgb(0%, 0%, 0%)" fill-opacity="1" d="M 125.109375 399.851562 C 125.109375 396.742188 122.585938 394.21875 119.46875 394.21875 C 116.359375 394.21875 113.835938 396.742188 113.835938 399.851562 C 113.835938 402.96875 116.359375 405.492188 119.46875 405.492188 C 122.585938 405.492188 125.109375 402.96875 125.109375 399.851562 Z M 125.109375 399.851562 "/>
<path fill-rule="nonzero" fill="rgb(0%, 0%, 0%)" fill-opacity="1" d="M 133.226562 417.007812 C 133.226562 414.882812 134.039062 413.414062 134.976562 412.164062 C 135.164062 411.914062 135.632812 411.539062 135.632812 411.414062 C 135.632812 411.226562 135.570312 411.195312 135.414062 411.195312 C 135.320312 411.195312 135.195312 411.289062 135.101562 411.320312 C 135.039062 411.382812 134.914062 411.507812 134.664062 411.726562 C 134.507812 411.882812 134.320312 411.976562 134.101562 411.976562 C 133.726562 411.976562 133.507812 411.882812 133.289062 411.664062 C 133.039062 411.351562 132.789062 411.195312 132.320312 411.195312 C 131.476562 411.195312 130.601562 411.945312 130.601562 412.695312 C 130.601562 413.257812 130.976562 413.382812 131.351562 413.382812 C 131.726562 413.382812 131.914062 413.195312 131.914062 412.757812 C 131.914062 412.476562 131.601562 412.445312 131.601562 412.257812 C 131.601562 412.132812 131.664062 411.976562 131.914062 411.976562 C 132.476562 411.976562 132.726562 412.570312 132.945312 412.632812 C 133.257812 412.726562 133.351562 412.695312 133.757812 412.601562 L 134.007812 412.507812 C 133.414062 413.414062 132.570312 414.789062 132.226562 415.601562 C 131.882812 416.445312 131.726562 417.164062 131.726562 417.757812 C 131.726562 418.101562 131.789062 418.414062 131.851562 418.664062 C 132.132812 419.414062 132.664062 420.039062 133.695312 420.039062 C 136.257812 420.039062 137.289062 417.695312 138.070312 416.164062 C 138.507812 415.195312 138.851562 414.007812 138.851562 412.695312 C 138.851562 411.820312 138.726562 411.195312 137.914062 411.195312 C 137.351562 411.195312 137.070312 411.507812 137.070312 412.101562 C 137.070312 412.851562 137.445312 413.320312 137.445312 414.132812 C 137.445312 415.976562 136.289062 419.507812 134.289062 419.539062 C 133.257812 419.570312 133.226562 417.914062 133.226562 417.007812 Z M 133.226562 417.007812 "/>
<path fill-rule="nonzero" fill="rgb(0%, 0%, 0%)" fill-opacity="1" d="M 145.988281 422.871094 L 145.988281 422.339844 L 145.425781 422.339844 C 143.988281 422.339844 143.988281 422.152344 143.988281 421.683594 L 143.988281 413.621094 C 143.988281 413.246094 143.957031 413.214844 143.550781 413.214844 C 142.613281 414.152344 141.300781 414.152344 140.707031 414.152344 L 140.707031 414.683594 C 141.050781 414.683594 142.019531 414.683594 142.800781 414.277344 L 142.800781 421.683594 C 142.800781 422.152344 142.800781 422.339844 141.363281 422.339844 L 140.800781 422.339844 L 140.800781 422.871094 L 143.394531 422.808594 Z M 145.988281 422.871094 "/>
<path fill-rule="nonzero" fill="rgb(0%, 0%, 0%)" fill-opacity="1" d="M 465.265625 399.851562 C 465.265625 396.742188 462.742188 394.21875 459.632812 394.21875 C 456.515625 394.21875 454 396.742188 454 399.851562 C 454 402.96875 456.515625 405.492188 459.632812 405.492188 C 462.742188 405.492188 465.265625 402.96875 465.265625 399.851562 Z M 465.265625 399.851562 "/>
<path fill-rule="nonzero" fill="rgb(0%, 0%, 0%)" fill-opacity="1" d="M 453.332031 418.730469 C 453.332031 416.605469 454.144531 415.136719 455.082031 413.886719 C 455.269531 413.636719 455.738281 413.261719 455.738281 413.136719 C 455.738281 412.949219 455.675781 412.917969 455.519531 412.917969 C 455.425781 412.917969 455.300781 413.011719 455.207031 413.042969 C 455.144531 413.105469 455.019531 413.230469 454.769531 413.449219 C 454.613281 413.605469 454.425781 413.699219 454.207031 413.699219 C 453.832031 413.699219 453.613281 413.605469 453.394531 413.386719 C 453.144531 413.074219 452.894531 412.917969 452.425781 412.917969 C 451.582031 412.917969 450.707031 413.667969 450.707031 414.417969 C 450.707031 414.980469 451.082031 415.105469 451.457031 415.105469 C 451.832031 415.105469 452.019531 414.917969 452.019531 414.480469 C 452.019531 414.199219 451.707031 414.167969 451.707031 413.980469 C 451.707031 413.855469 451.769531 413.699219 452.019531 413.699219 C 452.582031 413.699219 452.832031 414.292969 453.050781 414.355469 C 453.363281 414.449219 453.457031 414.417969 453.863281 414.324219 L 454.113281 414.230469 C 453.519531 415.136719 452.675781 416.511719 452.332031 417.324219 C 451.988281 418.167969 451.832031 418.886719 451.832031 419.480469 C 451.832031 419.824219 451.894531 420.136719 451.957031 420.386719 C 452.238281 421.136719 452.769531 421.761719 453.800781 421.761719 C 456.363281 421.761719 457.394531 419.417969 458.175781 417.886719 C 458.613281 416.917969 458.957031 415.730469 458.957031 414.417969 C 458.957031 413.542969 458.832031 412.917969 458.019531 412.917969 C 457.457031 412.917969 457.175781 413.230469 457.175781 413.824219 C 457.175781 414.574219 457.550781 415.042969 457.550781 415.855469 C 457.550781 417.699219 456.394531 421.230469 454.394531 421.261719 C 453.363281 421.292969 453.332031 419.636719 453.332031 418.730469 Z M 453.332031 418.730469 "/>
<path fill-rule="nonzero" fill="rgb(0%, 0%, 0%)" fill-opacity="1" d="M 466.5625 421.9375 L 466.0625 421.9375 C 466.03125 422.28125 465.875 423.125 465.6875 423.28125 C 465.5625 423.34375 464.4375 423.34375 464.25 423.34375 L 461.5625 423.34375 C 463.09375 422 463.59375 421.59375 464.46875 420.90625 C 465.5625 420.0625 466.5625 419.15625 466.5625 417.78125 C 466.5625 416.03125 465.03125 414.9375 463.15625 414.9375 C 461.34375 414.9375 460.125 416.21875 460.125 417.53125 C 460.125 418.28125 460.75 418.375 460.90625 418.375 C 461.25 418.375 461.6875 418.125 461.6875 417.59375 C 461.6875 417.34375 461.5625 416.8125 460.8125 416.8125 C 461.28125 415.78125 462.25 415.46875 462.9375 415.46875 C 464.40625 415.46875 465.15625 416.59375 465.15625 417.78125 C 465.15625 419.03125 464.25 420.03125 463.78125 420.5625 L 460.28125 424.03125 C 460.125 424.15625 460.125 424.1875 460.125 424.59375 L 466.125 424.59375 Z M 466.5625 421.9375 "/>
<path fill-rule="nonzero" fill="rgb(0%, 0%, 0%)" fill-opacity="1" d="M 295.1875 105.273438 C 295.1875 102.164062 292.664062 99.640625 289.554688 99.640625 C 286.4375 99.640625 283.914062 102.164062 283.914062 105.273438 C 283.914062 108.390625 286.4375 110.914062 289.554688 110.914062 C 292.664062 110.914062 295.1875 108.390625 295.1875 105.273438 Z M 295.1875 105.273438 "/>
<path fill-rule="nonzero" fill="rgb(0%, 0%, 0%)" fill-opacity="1" d="M 283.253906 86.496094 C 283.253906 84.371094 284.066406 82.902344 285.003906 81.652344 C 285.191406 81.402344 285.660156 81.027344 285.660156 80.902344 C 285.660156 80.714844 285.597656 80.683594 285.441406 80.683594 C 285.347656 80.683594 285.222656 80.777344 285.128906 80.808594 C 285.066406 80.871094 284.941406 80.996094 284.691406 81.214844 C 284.535156 81.371094 284.347656 81.464844 284.128906 81.464844 C 283.753906 81.464844 283.535156 81.371094 283.316406 81.152344 C 283.066406 80.839844 282.816406 80.683594 282.347656 80.683594 C 281.503906 80.683594 280.628906 81.433594 280.628906 82.183594 C 280.628906 82.746094 281.003906 82.871094 281.378906 82.871094 C 281.753906 82.871094 281.941406 82.683594 281.941406 82.246094 C 281.941406 81.964844 281.628906 81.933594 281.628906 81.746094 C 281.628906 81.621094 281.691406 81.464844 281.941406 81.464844 C 282.503906 81.464844 282.753906 82.058594 282.972656 82.121094 C 283.285156 82.214844 283.378906 82.183594 283.785156 82.089844 L 284.035156 81.996094 C 283.441406 82.902344 282.597656 84.277344 282.253906 85.089844 C 281.910156 85.933594 281.753906 86.652344 281.753906 87.246094 C 281.753906 87.589844 281.816406 87.902344 281.878906 88.152344 C 282.160156 88.902344 282.691406 89.527344 283.722656 89.527344 C 286.285156 89.527344 287.316406 87.183594 288.097656 85.652344 C 288.535156 84.683594 288.878906 83.496094 288.878906 82.183594 C 288.878906 81.308594 288.753906 80.683594 287.941406 80.683594 C 287.378906 80.683594 287.097656 80.996094 287.097656 81.589844 C 287.097656 82.339844 287.472656 82.808594 287.472656 83.621094 C 287.472656 85.464844 286.316406 88.996094 284.316406 89.027344 C 283.285156 89.058594 283.253906 87.402344 283.253906 86.496094 Z M 283.253906 86.496094 "/>
<path fill-rule="nonzero" fill="rgb(0%, 0%, 0%)" fill-opacity="1" d="M 296.605469 89.859375 C 296.605469 88.703125 295.667969 87.578125 294.074219 87.234375 C 295.605469 86.703125 296.167969 85.609375 296.167969 84.703125 C 296.167969 83.578125 294.824219 82.703125 293.230469 82.703125 C 291.605469 82.703125 290.386719 83.484375 290.386719 84.671875 C 290.386719 85.140625 290.699219 85.421875 291.136719 85.421875 C 291.574219 85.421875 291.855469 85.109375 291.855469 84.671875 C 291.855469 84.265625 291.574219 83.953125 291.136719 83.921875 C 291.636719 83.296875 292.636719 83.140625 293.167969 83.140625 C 293.824219 83.140625 294.730469 83.453125 294.730469 84.703125 C 294.730469 85.328125 294.542969 85.984375 294.167969 86.453125 C 293.699219 86.984375 293.292969 87.015625 292.542969 87.078125 C 292.199219 87.109375 292.167969 87.109375 292.074219 87.109375 C 292.074219 87.109375 291.949219 87.140625 291.949219 87.296875 C 291.949219 87.515625 292.074219 87.515625 292.324219 87.515625 L 293.105469 87.515625 C 294.230469 87.515625 295.042969 88.296875 295.042969 89.859375 C 295.042969 91.640625 294.011719 92.171875 293.167969 92.171875 C 292.574219 92.171875 291.292969 92.015625 290.699219 91.171875 C 291.386719 91.140625 291.542969 90.671875 291.542969 90.359375 C 291.542969 89.890625 291.199219 89.546875 290.730469 89.546875 C 290.324219 89.546875 289.917969 89.796875 289.917969 90.390625 C 289.917969 91.765625 291.417969 92.640625 293.199219 92.640625 C 295.199219 92.640625 296.605469 91.296875 296.605469 89.859375 Z M 296.605469 89.859375 "/>
<path fill="none" stroke-width="1.19553" stroke-linecap="butt" stroke-linejoin="miter" stroke="rgb(0%, 50.196078%, 50.196078%)" stroke-opacity="1" stroke-miterlimit="10" d="M 168.612656 2.544189 L 89.370468 139.790283 " transform="matrix(2, 0, 0, -2, 119.470001, 399.854004)"/>
<path fill-rule="nonzero" fill="rgb(0%, 50.196078%, 50.196078%)" fill-opacity="1" stroke-width="1.19553" stroke-linecap="butt" stroke-linejoin="miter" stroke="rgb(0%, 50.196078%, 50.196078%)" stroke-opacity="1" stroke-miterlimit="10" d="M 7.503356 0.00174514 L 1.931547 2.109073 L 3.780763 -0.000547014 L 1.932115 -2.108693 Z M 7.503356 0.00174514 " transform="matrix(-1, -1.73202, -1.73202, 1, 301.693878, 126.306717)"/>
<path fill-rule="nonzero" fill="rgb(0%, 50.196078%, 50.196078%)" fill-opacity="1" d="M 347.257812 260.550781 C 345.726562 260.550781 344.539062 261.644531 343.789062 262.550781 C 342.945312 263.550781 342.289062 265.050781 342.289062 266.769531 C 342.289062 268.394531 342.851562 269.394531 344.414062 269.394531 C 345.789062 269.394531 347.070312 268.394531 347.851562 267.113281 L 347.539062 266.894531 C 347.007812 267.675781 345.914062 268.957031 344.820312 268.957031 C 344.007812 268.957031 343.664062 268.269531 343.664062 267.113281 C 343.664062 266.800781 343.726562 266.175781 343.757812 265.863281 C 345.726562 265.457031 349.007812 264.175781 349.007812 261.925781 C 349.007812 261.019531 348.195312 260.550781 347.257812 260.550781 Z M 347.070312 260.988281 C 347.445312 260.988281 347.789062 261.332031 347.789062 261.769531 C 347.789062 263.550781 345.539062 264.863281 343.851562 265.394531 C 344.226562 264.019531 345.445312 260.988281 347.070312 260.988281 Z M 347.070312 260.988281 "/>
<path fill-rule="nonzero" fill="rgb(0%, 50.196078%, 50.196078%)" fill-opacity="1" d="M 356.539062 269.570312 L 356.039062 269.570312 C 356.007812 269.914062 355.851562 270.757812 355.664062 270.914062 C 355.539062 270.976562 354.414062 270.976562 354.226562 270.976562 L 351.539062 270.976562 C 353.070312 269.632812 353.570312 269.226562 354.445312 268.539062 C 355.539062 267.695312 356.539062 266.789062 356.539062 265.414062 C 356.539062 263.664062 355.007812 262.570312 353.132812 262.570312 C 351.320312 262.570312 350.101562 263.851562 350.101562 265.164062 C 350.101562 265.914062 350.726562 266.007812 350.882812 266.007812 C 351.226562 266.007812 351.664062 265.757812 351.664062 265.226562 C 351.664062 264.976562 351.539062 264.445312 350.789062 264.445312 C 351.257812 263.414062 352.226562 263.101562 352.914062 263.101562 C 354.382812 263.101562 355.132812 264.226562 355.132812 265.414062 C 355.132812 266.664062 354.226562 267.664062 353.757812 268.195312 L 350.257812 271.664062 C 350.101562 271.789062 350.101562 271.820312 350.101562 272.226562 L 356.101562 272.226562 Z M 356.539062 269.570312 "/>
<path fill-rule="nonzero" fill="rgb(0%, 50.196078%, 50.196078%)" fill-opacity="1" d="M 364.945312 269.726562 C 364.945312 268.570312 364.007812 267.445312 362.414062 267.101562 C 363.945312 266.570312 364.507812 265.476562 364.507812 264.570312 C 364.507812 263.445312 363.164062 262.570312 361.570312 262.570312 C 359.945312 262.570312 358.726562 263.351562 358.726562 264.539062 C 358.726562 265.007812 359.039062 265.289062 359.476562 265.289062 C 359.914062 265.289062 360.195312 264.976562 360.195312 264.539062 C 360.195312 264.132812 359.914062 263.820312 359.476562 263.789062 C 359.976562 263.164062 360.976562 263.007812 361.507812 263.007812 C 362.164062 263.007812 363.070312 263.320312 363.070312 264.570312 C 363.070312 265.195312 362.882812 265.851562 362.507812 266.320312 C 362.039062 266.851562 361.632812 266.882812 360.882812 266.945312 C 360.539062 266.976562 360.507812 266.976562 360.414062 266.976562 C 360.414062 266.976562 360.289062 267.007812 360.289062 267.164062 C 360.289062 267.382812 360.414062 267.382812 360.664062 267.382812 L 361.445312 267.382812 C 362.570312 267.382812 363.382812 268.164062 363.382812 269.726562 C 363.382812 271.507812 362.351562 272.039062 361.507812 272.039062 C 360.914062 272.039062 359.632812 271.882812 359.039062 271.039062 C 359.726562 271.007812 359.882812 270.539062 359.882812 270.226562 C 359.882812 269.757812 359.539062 269.414062 359.070312 269.414062 C 358.664062 269.414062 358.257812 269.664062 358.257812 270.257812 C 358.257812 271.632812 359.757812 272.507812 361.539062 272.507812 C 363.539062 272.507812 364.945312 271.164062 364.945312 269.726562 Z M 364.945312 269.726562 "/>
<path fill="none" stroke-width="1.19553" stroke-linecap="butt" stroke-linejoin="miter" stroke="rgb(92.54902%, 0%, 54.901961%)" stroke-opacity="1" stroke-miterlimit="10" d="M 2.936874 0.0012207 L 161.421249 0.0012207 " transform="matrix(2, 0, 0, -2, 119.470001, 399.854004)"/>
<path fill-rule="nonzero" fill="rgb(92.54902%, 0%, 54.901961%)" fill-opacity="1" stroke-width="1.19553" stroke-linecap="butt" stroke-linejoin="miter" stroke="rgb(92.54902%, 0%, 54.901961%)" stroke-opacity="1" stroke-miterlimit="10" d="M 7.502838 0.0012207 L 1.928619 2.110596 L 3.784088 0.0012207 L 1.928619 -2.108154 Z M 7.502838 0.0012207 " transform="matrix(2, 0, 0, -2, 435.345886, 399.854004)"/>
<path fill-rule="nonzero" fill="rgb(92.54902%, 0%, 54.901961%)" fill-opacity="1" d="M 282.589844 380.339844 C 281.058594 380.339844 279.871094 381.433594 279.121094 382.339844 C 278.277344 383.339844 277.621094 384.839844 277.621094 386.558594 C 277.621094 388.183594 278.183594 389.183594 279.746094 389.183594 C 281.121094 389.183594 282.402344 388.183594 283.183594 386.902344 L 282.871094 386.683594 C 282.339844 387.464844 281.246094 388.746094 280.152344 388.746094 C 279.339844 388.746094 278.996094 388.058594 278.996094 386.902344 C 278.996094 386.589844 279.058594 385.964844 279.089844 385.652344 C 281.058594 385.246094 284.339844 383.964844 284.339844 381.714844 C 284.339844 380.808594 283.527344 380.339844 282.589844 380.339844 Z M 282.402344 380.777344 C 282.777344 380.777344 283.121094 381.121094 283.121094 381.558594 C 283.121094 383.339844 280.871094 384.652344 279.183594 385.183594 C 279.558594 383.808594 280.777344 380.777344 282.402344 380.777344 Z M 282.402344 380.777344 "/>
<path fill-rule="nonzero" fill="rgb(92.54902%, 0%, 54.901961%)" fill-opacity="1" d="M 291.402344 392.015625 L 291.402344 391.484375 L 290.839844 391.484375 C 289.402344 391.484375 289.402344 391.296875 289.402344 390.828125 L 289.402344 382.765625 C 289.402344 382.390625 289.371094 382.359375 288.964844 382.359375 C 288.027344 383.296875 286.714844 383.296875 286.121094 383.296875 L 286.121094 383.828125 C 286.464844 383.828125 287.433594 383.828125 288.214844 383.421875 L 288.214844 390.828125 C 288.214844 391.296875 288.214844 391.484375 286.777344 391.484375 L 286.214844 391.484375 L 286.214844 392.015625 L 288.808594 391.953125 Z M 291.402344 392.015625 "/>
<path fill-rule="nonzero" fill="rgb(92.54902%, 0%, 54.901961%)" fill-opacity="1" d="M 300.152344 389.359375 L 299.652344 389.359375 C 299.621094 389.703125 299.464844 390.546875 299.277344 390.703125 C 299.152344 390.765625 298.027344 390.765625 297.839844 390.765625 L 295.152344 390.765625 C 296.683594 389.421875 297.183594 389.015625 298.058594 388.328125 C 299.152344 387.484375 300.152344 386.578125 300.152344 385.203125 C 300.152344 383.453125 298.621094 382.359375 296.746094 382.359375 C 294.933594 382.359375 293.714844 383.640625 293.714844 384.953125 C 293.714844 385.703125 294.339844 385.796875 294.496094 385.796875 C 294.839844 385.796875 295.277344 385.546875 295.277344 385.015625 C 295.277344 384.765625 295.152344 384.234375 294.402344 384.234375 C 294.871094 383.203125 295.839844 382.890625 296.527344 382.890625 C 297.996094 382.890625 298.746094 384.015625 298.746094 385.203125 C 298.746094 386.453125 297.839844 387.453125 297.371094 387.984375 L 293.871094 391.453125 C 293.714844 391.578125 293.714844 391.609375 293.714844 392.015625 L 299.714844 392.015625 Z M 300.152344 389.359375 "/>
<path fill="none" stroke-width="1.19553" stroke-linecap="butt" stroke-linejoin="miter" stroke="rgb(0%, 0%, 100%)" stroke-opacity="1" stroke-miterlimit="10" d="M 83.573593 144.747314 L 4.331406 7.497314 " transform="matrix(2, 0, 0, -2, 119.470001, 399.854004)"/>
<path fill-rule="nonzero" fill="rgb(0%, 0%, 100%)" fill-opacity="1" stroke-width="1.19553" stroke-linecap="butt" stroke-linejoin="miter" stroke="rgb(0%, 0%, 100%)" stroke-opacity="1" stroke-miterlimit="10" d="M 7.504399 0.000460686 L 1.929775 2.108946 L 3.78376 -0.000630105 L 1.929207 -2.10882 Z M 7.504399 0.000460686 " transform="matrix(-1, 1.73202, 1.73202, 1, 131.612976, 378.822083)"/>
<path fill-rule="nonzero" fill="rgb(0%, 0%, 100%)" fill-opacity="1" d="M 217.921875 260.550781 C 216.390625 260.550781 215.203125 261.644531 214.453125 262.550781 C 213.609375 263.550781 212.953125 265.050781 212.953125 266.769531 C 212.953125 268.394531 213.515625 269.394531 215.078125 269.394531 C 216.453125 269.394531 217.734375 268.394531 218.515625 267.113281 L 218.203125 266.894531 C 217.671875 267.675781 216.578125 268.957031 215.484375 268.957031 C 214.671875 268.957031 214.328125 268.269531 214.328125 267.113281 C 214.328125 266.800781 214.390625 266.175781 214.421875 265.863281 C 216.390625 265.457031 219.671875 264.175781 219.671875 261.925781 C 219.671875 261.019531 218.859375 260.550781 217.921875 260.550781 Z M 217.734375 260.988281 C 218.109375 260.988281 218.453125 261.332031 218.453125 261.769531 C 218.453125 263.550781 216.203125 264.863281 214.515625 265.394531 C 214.890625 264.019531 216.109375 260.988281 217.734375 260.988281 Z M 217.734375 260.988281 "/>
<path fill-rule="nonzero" fill="rgb(0%, 0%, 100%)" fill-opacity="1" d="M 227.328125 269.726562 C 227.328125 268.570312 226.390625 267.445312 224.796875 267.101562 C 226.328125 266.570312 226.890625 265.476562 226.890625 264.570312 C 226.890625 263.445312 225.546875 262.570312 223.953125 262.570312 C 222.328125 262.570312 221.109375 263.351562 221.109375 264.539062 C 221.109375 265.007812 221.421875 265.289062 221.859375 265.289062 C 222.296875 265.289062 222.578125 264.976562 222.578125 264.539062 C 222.578125 264.132812 222.296875 263.820312 221.859375 263.789062 C 222.359375 263.164062 223.359375 263.007812 223.890625 263.007812 C 224.546875 263.007812 225.453125 263.320312 225.453125 264.570312 C 225.453125 265.195312 225.265625 265.851562 224.890625 266.320312 C 224.421875 266.851562 224.015625 266.882812 223.265625 266.945312 C 222.921875 266.976562 222.890625 266.976562 222.796875 266.976562 C 222.796875 266.976562 222.671875 267.007812 222.671875 267.164062 C 222.671875 267.382812 222.796875 267.382812 223.046875 267.382812 L 223.828125 267.382812 C 224.953125 267.382812 225.765625 268.164062 225.765625 269.726562 C 225.765625 271.507812 224.734375 272.039062 223.890625 272.039062 C 223.296875 272.039062 222.015625 271.882812 221.421875 271.039062 C 222.109375 271.007812 222.265625 270.539062 222.265625 270.226562 C 222.265625 269.757812 221.921875 269.414062 221.453125 269.414062 C 221.046875 269.414062 220.640625 269.664062 220.640625 270.257812 C 220.640625 271.632812 222.140625 272.507812 223.921875 272.507812 C 225.921875 272.507812 227.328125 271.164062 227.328125 269.726562 Z M 227.328125 269.726562 "/>
<path fill-rule="nonzero" fill="rgb(0%, 0%, 100%)" fill-opacity="1" d="M 235.015625 272.226562 L 235.015625 271.695312 L 234.453125 271.695312 C 233.015625 271.695312 233.015625 271.507812 233.015625 271.039062 L 233.015625 262.976562 C 233.015625 262.601562 232.984375 262.570312 232.578125 262.570312 C 231.640625 263.507812 230.328125 263.507812 229.734375 263.507812 L 229.734375 264.039062 C 230.078125 264.039062 231.046875 264.039062 231.828125 263.632812 L 231.828125 271.039062 C 231.828125 271.507812 231.828125 271.695312 230.390625 271.695312 L 229.828125 271.695312 L 229.828125 272.226562 L 232.421875 272.164062 Z M 235.015625 272.226562 "/>
<path fill-rule="nonzero" fill="rgb(50.196078%, 50.196078%, 50.196078%)" fill-opacity="1" d="M 122.289062 323.007812 C 122.289062 321.453125 121.023438 320.195312 119.46875 320.195312 C 117.914062 320.195312 116.648438 321.453125 116.648438 323.007812 C 116.648438 324.5625 117.914062 325.828125 119.46875 325.828125 C 121.023438 325.828125 122.289062 324.5625 122.289062 323.007812 Z M 122.289062 323.007812 "/>
<path fill-rule="nonzero" fill="rgb(0%, 0%, 0%)" fill-opacity="1" d="M 109.027344 307.167969 C 109.027344 305.042969 109.839844 303.574219 110.777344 302.324219 C 110.964844 302.074219 111.433594 301.699219 111.433594 301.574219 C 111.433594 301.386719 111.371094 301.355469 111.214844 301.355469 C 111.121094 301.355469 110.996094 301.449219 110.902344 301.480469 C 110.839844 301.542969 110.714844 301.667969 110.464844 301.886719 C 110.308594 302.042969 110.121094 302.136719 109.902344 302.136719 C 109.527344 302.136719 109.308594 302.042969 109.089844 301.824219 C 108.839844 301.511719 108.589844 301.355469 108.121094 301.355469 C 107.277344 301.355469 106.402344 302.105469 106.402344 302.855469 C 106.402344 303.417969 106.777344 303.542969 107.152344 303.542969 C 107.527344 303.542969 107.714844 303.355469 107.714844 302.917969 C 107.714844 302.636719 107.402344 302.605469 107.402344 302.417969 C 107.402344 302.292969 107.464844 302.136719 107.714844 302.136719 C 108.277344 302.136719 108.527344 302.730469 108.746094 302.792969 C 109.058594 302.886719 109.152344 302.855469 109.558594 302.761719 L 109.808594 302.667969 C 109.214844 303.574219 108.371094 304.949219 108.027344 305.761719 C 107.683594 306.605469 107.527344 307.324219 107.527344 307.917969 C 107.527344 308.261719 107.589844 308.574219 107.652344 308.824219 C 107.933594 309.574219 108.464844 310.199219 109.496094 310.199219 C 112.058594 310.199219 113.089844 307.855469 113.871094 306.324219 C 114.308594 305.355469 114.652344 304.167969 114.652344 302.855469 C 114.652344 301.980469 114.527344 301.355469 113.714844 301.355469 C 113.152344 301.355469 112.871094 301.667969 112.871094 302.261719 C 112.871094 303.011719 113.246094 303.480469 113.246094 304.292969 C 113.246094 306.136719 112.089844 309.667969 110.089844 309.699219 C 109.058594 309.730469 109.027344 308.074219 109.027344 307.167969 Z M 109.027344 307.167969 "/>
<path fill-rule="nonzero" fill="rgb(0%, 0%, 0%)" fill-opacity="1" d="M 121.789062 313.03125 L 121.789062 312.5 L 121.226562 312.5 C 119.789062 312.5 119.789062 312.3125 119.789062 311.84375 L 119.789062 303.78125 C 119.789062 303.40625 119.757812 303.375 119.351562 303.375 C 118.414062 304.3125 117.101562 304.3125 116.507812 304.3125 L 116.507812 304.84375 C 116.851562 304.84375 117.820312 304.84375 118.601562 304.4375 L 118.601562 311.84375 C 118.601562 312.3125 118.601562 312.5 117.164062 312.5 L 116.601562 312.5 L 116.601562 313.03125 L 119.195312 312.96875 Z M 121.789062 313.03125 "/>
<path fill-rule="nonzero" fill="rgb(0%, 0%, 0%)" fill-opacity="1" d="M 130.070312 313.03125 L 130.070312 312.5 L 129.507812 312.5 C 128.070312 312.5 128.070312 312.3125 128.070312 311.84375 L 128.070312 303.78125 C 128.070312 303.40625 128.039062 303.375 127.632812 303.375 C 126.695312 304.3125 125.382812 304.3125 124.789062 304.3125 L 124.789062 304.84375 C 125.132812 304.84375 126.101562 304.84375 126.882812 304.4375 L 126.882812 311.84375 C 126.882812 312.3125 126.882812 312.5 125.445312 312.5 L 124.882812 312.5 L 124.882812 313.03125 L 127.476562 312.96875 Z M 130.070312 313.03125 "/>
<path fill-rule="nonzero" fill="rgb(50.196078%, 50.196078%, 50.196078%)" fill-opacity="1" d="M 199.132812 399.851562 C 199.132812 398.296875 197.867188 397.039062 196.3125 397.039062 C 194.757812 397.039062 193.5 398.296875 193.5 399.851562 C 193.5 401.414062 194.757812 402.671875 196.3125 402.671875 C 197.867188 402.671875 199.132812 401.414062 199.132812 399.851562 Z M 199.132812 399.851562 "/>
<path fill-rule="nonzero" fill="rgb(0%, 0%, 0%)" fill-opacity="1" d="M 207.996094 414.933594 C 207.996094 412.808594 208.808594 411.339844 209.746094 410.089844 C 209.933594 409.839844 210.402344 409.464844 210.402344 409.339844 C 210.402344 409.152344 210.339844 409.121094 210.183594 409.121094 C 210.089844 409.121094 209.964844 409.214844 209.871094 409.246094 C 209.808594 409.308594 209.683594 409.433594 209.433594 409.652344 C 209.277344 409.808594 209.089844 409.902344 208.871094 409.902344 C 208.496094 409.902344 208.277344 409.808594 208.058594 409.589844 C 207.808594 409.277344 207.558594 409.121094 207.089844 409.121094 C 206.246094 409.121094 205.371094 409.871094 205.371094 410.621094 C 205.371094 411.183594 205.746094 411.308594 206.121094 411.308594 C 206.496094 411.308594 206.683594 411.121094 206.683594 410.683594 C 206.683594 410.402344 206.371094 410.371094 206.371094 410.183594 C 206.371094 410.058594 206.433594 409.902344 206.683594 409.902344 C 207.246094 409.902344 207.496094 410.496094 207.714844 410.558594 C 208.027344 410.652344 208.121094 410.621094 208.527344 410.527344 L 208.777344 410.433594 C 208.183594 411.339844 207.339844 412.714844 206.996094 413.527344 C 206.652344 414.371094 206.496094 415.089844 206.496094 415.683594 C 206.496094 416.027344 206.558594 416.339844 206.621094 416.589844 C 206.902344 417.339844 207.433594 417.964844 208.464844 417.964844 C 211.027344 417.964844 212.058594 415.621094 212.839844 414.089844 C 213.277344 413.121094 213.621094 411.933594 213.621094 410.621094 C 213.621094 409.746094 213.496094 409.121094 212.683594 409.121094 C 212.121094 409.121094 211.839844 409.433594 211.839844 410.027344 C 211.839844 410.777344 212.214844 411.246094 212.214844 412.058594 C 212.214844 413.902344 211.058594 417.433594 209.058594 417.464844 C 208.027344 417.496094 207.996094 415.839844 207.996094 414.933594 Z M 207.996094 414.933594 "/>
<path fill-rule="nonzero" fill="rgb(0%, 0%, 0%)" fill-opacity="1" d="M 220.753906 420.796875 L 220.753906 420.265625 L 220.191406 420.265625 C 218.753906 420.265625 218.753906 420.078125 218.753906 419.609375 L 218.753906 411.546875 C 218.753906 411.171875 218.722656 411.140625 218.316406 411.140625 C 217.378906 412.078125 216.066406 412.078125 215.472656 412.078125 L 215.472656 412.609375 C 215.816406 412.609375 216.785156 412.609375 217.566406 412.203125 L 217.566406 419.609375 C 217.566406 420.078125 217.566406 420.265625 216.128906 420.265625 L 215.566406 420.265625 L 215.566406 420.796875 L 218.160156 420.734375 Z M 220.753906 420.796875 "/>
<path fill-rule="nonzero" fill="rgb(0%, 0%, 0%)" fill-opacity="1" d="M 229.507812 418.140625 L 229.007812 418.140625 C 228.976562 418.484375 228.820312 419.328125 228.632812 419.484375 C 228.507812 419.546875 227.382812 419.546875 227.195312 419.546875 L 224.507812 419.546875 C 226.039062 418.203125 226.539062 417.796875 227.414062 417.109375 C 228.507812 416.265625 229.507812 415.359375 229.507812 413.984375 C 229.507812 412.234375 227.976562 411.140625 226.101562 411.140625 C 224.289062 411.140625 223.070312 412.421875 223.070312 413.734375 C 223.070312 414.484375 223.695312 414.578125 223.851562 414.578125 C 224.195312 414.578125 224.632812 414.328125 224.632812 413.796875 C 224.632812 413.546875 224.507812 413.015625 223.757812 413.015625 C 224.226562 411.984375 225.195312 411.671875 225.882812 411.671875 C 227.351562 411.671875 228.101562 412.796875 228.101562 413.984375 C 228.101562 415.234375 227.195312 416.234375 226.726562 416.765625 L 223.226562 420.234375 C 223.070312 420.359375 223.070312 420.390625 223.070312 420.796875 L 229.070312 420.796875 Z M 229.507812 418.140625 "/>
<path fill-rule="nonzero" fill="rgb(50.196078%, 50.196078%, 50.196078%)" fill-opacity="1" d="M 122.289062 476.695312 C 122.289062 475.140625 121.023438 473.882812 119.46875 473.882812 C 117.914062 473.882812 116.648438 475.140625 116.648438 476.695312 C 116.648438 478.257812 117.914062 479.515625 119.46875 479.515625 C 121.023438 479.515625 122.289062 478.257812 122.289062 476.695312 Z M 122.289062 476.695312 "/>
<path fill-rule="nonzero" fill="rgb(0%, 0%, 0%)" fill-opacity="1" d="M 109.027344 492.636719 C 109.027344 490.511719 109.839844 489.042969 110.777344 487.792969 C 110.964844 487.542969 111.433594 487.167969 111.433594 487.042969 C 111.433594 486.855469 111.371094 486.824219 111.214844 486.824219 C 111.121094 486.824219 110.996094 486.917969 110.902344 486.949219 C 110.839844 487.011719 110.714844 487.136719 110.464844 487.355469 C 110.308594 487.511719 110.121094 487.605469 109.902344 487.605469 C 109.527344 487.605469 109.308594 487.511719 109.089844 487.292969 C 108.839844 486.980469 108.589844 486.824219 108.121094 486.824219 C 107.277344 486.824219 106.402344 487.574219 106.402344 488.324219 C 106.402344 488.886719 106.777344 489.011719 107.152344 489.011719 C 107.527344 489.011719 107.714844 488.824219 107.714844 488.386719 C 107.714844 488.105469 107.402344 488.074219 107.402344 487.886719 C 107.402344 487.761719 107.464844 487.605469 107.714844 487.605469 C 108.277344 487.605469 108.527344 488.199219 108.746094 488.261719 C 109.058594 488.355469 109.152344 488.324219 109.558594 488.230469 L 109.808594 488.136719 C 109.214844 489.042969 108.371094 490.417969 108.027344 491.230469 C 107.683594 492.074219 107.527344 492.792969 107.527344 493.386719 C 107.527344 493.730469 107.589844 494.042969 107.652344 494.292969 C 107.933594 495.042969 108.464844 495.667969 109.496094 495.667969 C 112.058594 495.667969 113.089844 493.324219 113.871094 491.792969 C 114.308594 490.824219 114.652344 489.636719 114.652344 488.324219 C 114.652344 487.449219 114.527344 486.824219 113.714844 486.824219 C 113.152344 486.824219 112.871094 487.136719 112.871094 487.730469 C 112.871094 488.480469 113.246094 488.949219 113.246094 489.761719 C 113.246094 491.605469 112.089844 495.136719 110.089844 495.167969 C 109.058594 495.199219 109.027344 493.542969 109.027344 492.636719 Z M 109.027344 492.636719 "/>
<path fill-rule="nonzero" fill="rgb(0%, 0%, 0%)" fill-opacity="1" d="M 121.789062 498.5 L 121.789062 497.96875 L 121.226562 497.96875 C 119.789062 497.96875 119.789062 497.78125 119.789062 497.3125 L 119.789062 489.25 C 119.789062 488.875 119.757812 488.84375 119.351562 488.84375 C 118.414062 489.78125 117.101562 489.78125 116.507812 489.78125 L 116.507812 490.3125 C 116.851562 490.3125 117.820312 490.3125 118.601562 489.90625 L 118.601562 497.3125 C 118.601562 497.78125 118.601562 497.96875 117.164062 497.96875 L 116.601562 497.96875 L 116.601562 498.5 L 119.195312 498.4375 Z M 121.789062 498.5 "/>
<path fill-rule="nonzero" fill="rgb(0%, 0%, 0%)" fill-opacity="1" d="M 130.664062 496 C 130.664062 494.84375 129.726562 493.71875 128.132812 493.375 C 129.664062 492.84375 130.226562 491.75 130.226562 490.84375 C 130.226562 489.71875 128.882812 488.84375 127.289062 488.84375 C 125.664062 488.84375 124.445312 489.625 124.445312 490.8125 C 124.445312 491.28125 124.757812 491.5625 125.195312 491.5625 C 125.632812 491.5625 125.914062 491.25 125.914062 490.8125 C 125.914062 490.40625 125.632812 490.09375 125.195312 490.0625 C 125.695312 489.4375 126.695312 489.28125 127.226562 489.28125 C 127.882812 489.28125 128.789062 489.59375 128.789062 490.84375 C 128.789062 491.46875 128.601562 492.125 128.226562 492.59375 C 127.757812 493.125 127.351562 493.15625 126.601562 493.21875 C 126.257812 493.25 126.226562 493.25 126.132812 493.25 C 126.132812 493.25 126.007812 493.28125 126.007812 493.4375 C 126.007812 493.65625 126.132812 493.65625 126.382812 493.65625 L 127.164062 493.65625 C 128.289062 493.65625 129.101562 494.4375 129.101562 496 C 129.101562 497.78125 128.070312 498.3125 127.226562 498.3125 C 126.632812 498.3125 125.351562 498.15625 124.757812 497.3125 C 125.445312 497.28125 125.601562 496.8125 125.601562 496.5 C 125.601562 496.03125 125.257812 495.6875 124.789062 495.6875 C 124.382812 495.6875 123.976562 495.9375 123.976562 496.53125 C 123.976562 497.90625 125.476562 498.78125 127.257812 498.78125 C 129.257812 498.78125 130.664062 497.4375 130.664062 496 Z M 130.664062 496 "/>
<path fill-rule="nonzero" fill="rgb(50.196078%, 50.196078%, 50.196078%)" fill-opacity="1" d="M 45.445312 399.851562 C 45.445312 398.296875 44.179688 397.039062 42.625 397.039062 C 41.070312 397.039062 39.804688 398.296875 39.804688 399.851562 C 39.804688 401.414062 41.070312 402.671875 42.625 402.671875 C 44.179688 402.671875 45.445312 401.414062 45.445312 399.851562 Z M 45.445312 399.851562 "/>
<path fill-rule="nonzero" fill="rgb(0%, 0%, 0%)" fill-opacity="1" d="M 9.203125 399.902344 C 9.203125 397.777344 10.015625 396.308594 10.953125 395.058594 C 11.140625 394.808594 11.609375 394.433594 11.609375 394.308594 C 11.609375 394.121094 11.546875 394.089844 11.390625 394.089844 C 11.296875 394.089844 11.171875 394.183594 11.078125 394.214844 C 11.015625 394.277344 10.890625 394.402344 10.640625 394.621094 C 10.484375 394.777344 10.296875 394.871094 10.078125 394.871094 C 9.703125 394.871094 9.484375 394.777344 9.265625 394.558594 C 9.015625 394.246094 8.765625 394.089844 8.296875 394.089844 C 7.453125 394.089844 6.578125 394.839844 6.578125 395.589844 C 6.578125 396.152344 6.953125 396.277344 7.328125 396.277344 C 7.703125 396.277344 7.890625 396.089844 7.890625 395.652344 C 7.890625 395.371094 7.578125 395.339844 7.578125 395.152344 C 7.578125 395.027344 7.640625 394.871094 7.890625 394.871094 C 8.453125 394.871094 8.703125 395.464844 8.921875 395.527344 C 9.234375 395.621094 9.328125 395.589844 9.734375 395.496094 L 9.984375 395.402344 C 9.390625 396.308594 8.546875 397.683594 8.203125 398.496094 C 7.859375 399.339844 7.703125 400.058594 7.703125 400.652344 C 7.703125 400.996094 7.765625 401.308594 7.828125 401.558594 C 8.109375 402.308594 8.640625 402.933594 9.671875 402.933594 C 12.234375 402.933594 13.265625 400.589844 14.046875 399.058594 C 14.484375 398.089844 14.828125 396.902344 14.828125 395.589844 C 14.828125 394.714844 14.703125 394.089844 13.890625 394.089844 C 13.328125 394.089844 13.046875 394.402344 13.046875 394.996094 C 13.046875 395.746094 13.421875 396.214844 13.421875 397.027344 C 13.421875 398.871094 12.265625 402.402344 10.265625 402.433594 C 9.234375 402.464844 9.203125 400.808594 9.203125 399.902344 Z M 9.203125 399.902344 "/>
<path fill-rule="nonzero" fill="rgb(0%, 0%, 0%)" fill-opacity="1" d="M 21.964844 405.765625 L 21.964844 405.234375 L 21.402344 405.234375 C 19.964844 405.234375 19.964844 405.046875 19.964844 404.578125 L 19.964844 396.515625 C 19.964844 396.140625 19.933594 396.109375 19.527344 396.109375 C 18.589844 397.046875 17.277344 397.046875 16.683594 397.046875 L 16.683594 397.578125 C 17.027344 397.578125 17.996094 397.578125 18.777344 397.171875 L 18.777344 404.578125 C 18.777344 405.046875 18.777344 405.234375 17.339844 405.234375 L 16.777344 405.234375 L 16.777344 405.765625 L 19.371094 405.703125 Z M 21.964844 405.765625 "/>
<path fill-rule="nonzero" fill="rgb(0%, 0%, 0%)" fill-opacity="1" d="M 31.058594 403.390625 L 31.058594 402.859375 L 29.433594 402.859375 L 29.433594 396.390625 C 29.433594 396.078125 29.433594 395.984375 29.121094 395.984375 C 28.964844 395.984375 28.902344 395.984375 28.746094 396.171875 L 23.933594 402.859375 L 23.933594 403.390625 L 28.214844 403.390625 L 28.214844 404.578125 C 28.214844 405.078125 28.214844 405.234375 27.027344 405.234375 L 26.652344 405.234375 L 26.652344 405.765625 L 28.808594 405.703125 L 31.027344 405.765625 L 31.027344 405.234375 L 30.621094 405.234375 C 29.433594 405.234375 29.433594 405.078125 29.433594 404.578125 L 29.433594 403.390625 Z M 28.308594 402.859375 L 24.464844 402.859375 L 28.308594 397.546875 Z M 28.308594 402.859375 "/>
<path fill-rule="nonzero" fill="rgb(50.196078%, 50.196078%, 50.196078%)" fill-opacity="1" d="M 462.453125 323.007812 C 462.453125 321.453125 461.1875 320.195312 459.632812 320.195312 C 458.078125 320.195312 456.8125 321.453125 456.8125 323.007812 C 456.8125 324.5625 458.078125 325.828125 459.632812 325.828125 C 461.1875 325.828125 462.453125 324.5625 462.453125 323.007812 Z M 462.453125 323.007812 "/>
<path fill-rule="nonzero" fill="rgb(0%, 0%, 0%)" fill-opacity="1" d="M 449.191406 307.167969 C 449.191406 305.042969 450.003906 303.574219 450.941406 302.324219 C 451.128906 302.074219 451.597656 301.699219 451.597656 301.574219 C 451.597656 301.386719 451.535156 301.355469 451.378906 301.355469 C 451.285156 301.355469 451.160156 301.449219 451.066406 301.480469 C 451.003906 301.542969 450.878906 301.667969 450.628906 301.886719 C 450.472656 302.042969 450.285156 302.136719 450.066406 302.136719 C 449.691406 302.136719 449.472656 302.042969 449.253906 301.824219 C 449.003906 301.511719 448.753906 301.355469 448.285156 301.355469 C 447.441406 301.355469 446.566406 302.105469 446.566406 302.855469 C 446.566406 303.417969 446.941406 303.542969 447.316406 303.542969 C 447.691406 303.542969 447.878906 303.355469 447.878906 302.917969 C 447.878906 302.636719 447.566406 302.605469 447.566406 302.417969 C 447.566406 302.292969 447.628906 302.136719 447.878906 302.136719 C 448.441406 302.136719 448.691406 302.730469 448.910156 302.792969 C 449.222656 302.886719 449.316406 302.855469 449.722656 302.761719 L 449.972656 302.667969 C 449.378906 303.574219 448.535156 304.949219 448.191406 305.761719 C 447.847656 306.605469 447.691406 307.324219 447.691406 307.917969 C 447.691406 308.261719 447.753906 308.574219 447.816406 308.824219 C 448.097656 309.574219 448.628906 310.199219 449.660156 310.199219 C 452.222656 310.199219 453.253906 307.855469 454.035156 306.324219 C 454.472656 305.355469 454.816406 304.167969 454.816406 302.855469 C 454.816406 301.980469 454.691406 301.355469 453.878906 301.355469 C 453.316406 301.355469 453.035156 301.667969 453.035156 302.261719 C 453.035156 303.011719 453.410156 303.480469 453.410156 304.292969 C 453.410156 306.136719 452.253906 309.667969 450.253906 309.699219 C 449.222656 309.730469 449.191406 308.074219 449.191406 307.167969 Z M 449.191406 307.167969 "/>
<path fill-rule="nonzero" fill="rgb(0%, 0%, 0%)" fill-opacity="1" d="M 462.417969 310.375 L 461.917969 310.375 C 461.886719 310.71875 461.730469 311.5625 461.542969 311.71875 C 461.417969 311.78125 460.292969 311.78125 460.105469 311.78125 L 457.417969 311.78125 C 458.949219 310.4375 459.449219 310.03125 460.324219 309.34375 C 461.417969 308.5 462.417969 307.59375 462.417969 306.21875 C 462.417969 304.46875 460.886719 303.375 459.011719 303.375 C 457.199219 303.375 455.980469 304.65625 455.980469 305.96875 C 455.980469 306.71875 456.605469 306.8125 456.761719 306.8125 C 457.105469 306.8125 457.542969 306.5625 457.542969 306.03125 C 457.542969 305.78125 457.417969 305.25 456.667969 305.25 C 457.136719 304.21875 458.105469 303.90625 458.792969 303.90625 C 460.261719 303.90625 461.011719 305.03125 461.011719 306.21875 C 461.011719 307.46875 460.105469 308.46875 459.636719 309 L 456.136719 312.46875 C 455.980469 312.59375 455.980469 312.625 455.980469 313.03125 L 461.980469 313.03125 Z M 462.417969 310.375 "/>
<path fill-rule="nonzero" fill="rgb(0%, 0%, 0%)" fill-opacity="1" d="M 470.234375 313.03125 L 470.234375 312.5 L 469.671875 312.5 C 468.234375 312.5 468.234375 312.3125 468.234375 311.84375 L 468.234375 303.78125 C 468.234375 303.40625 468.203125 303.375 467.796875 303.375 C 466.859375 304.3125 465.546875 304.3125 464.953125 304.3125 L 464.953125 304.84375 C 465.296875 304.84375 466.265625 304.84375 467.046875 304.4375 L 467.046875 311.84375 C 467.046875 312.3125 467.046875 312.5 465.609375 312.5 L 465.046875 312.5 L 465.046875 313.03125 L 467.640625 312.96875 Z M 470.234375 313.03125 "/>
<path fill-rule="nonzero" fill="rgb(50.196078%, 50.196078%, 50.196078%)" fill-opacity="1" d="M 539.296875 399.851562 C 539.296875 398.296875 538.03125 397.039062 536.476562 397.039062 C 534.921875 397.039062 533.65625 398.296875 533.65625 399.851562 C 533.65625 401.414062 534.921875 402.671875 536.476562 402.671875 C 538.03125 402.671875 539.296875 401.414062 539.296875 399.851562 Z M 539.296875 399.851562 "/>
<path fill-rule="nonzero" fill="rgb(0%, 0%, 0%)" fill-opacity="1" d="M 549.019531 399.902344 C 549.019531 397.777344 549.832031 396.308594 550.769531 395.058594 C 550.957031 394.808594 551.425781 394.433594 551.425781 394.308594 C 551.425781 394.121094 551.363281 394.089844 551.207031 394.089844 C 551.113281 394.089844 550.988281 394.183594 550.894531 394.214844 C 550.832031 394.277344 550.707031 394.402344 550.457031 394.621094 C 550.300781 394.777344 550.113281 394.871094 549.894531 394.871094 C 549.519531 394.871094 549.300781 394.777344 549.082031 394.558594 C 548.832031 394.246094 548.582031 394.089844 548.113281 394.089844 C 547.269531 394.089844 546.394531 394.839844 546.394531 395.589844 C 546.394531 396.152344 546.769531 396.277344 547.144531 396.277344 C 547.519531 396.277344 547.707031 396.089844 547.707031 395.652344 C 547.707031 395.371094 547.394531 395.339844 547.394531 395.152344 C 547.394531 395.027344 547.457031 394.871094 547.707031 394.871094 C 548.269531 394.871094 548.519531 395.464844 548.738281 395.527344 C 549.050781 395.621094 549.144531 395.589844 549.550781 395.496094 L 549.800781 395.402344 C 549.207031 396.308594 548.363281 397.683594 548.019531 398.496094 C 547.675781 399.339844 547.519531 400.058594 547.519531 400.652344 C 547.519531 400.996094 547.582031 401.308594 547.644531 401.558594 C 547.925781 402.308594 548.457031 402.933594 549.488281 402.933594 C 552.050781 402.933594 553.082031 400.589844 553.863281 399.058594 C 554.300781 398.089844 554.644531 396.902344 554.644531 395.589844 C 554.644531 394.714844 554.519531 394.089844 553.707031 394.089844 C 553.144531 394.089844 552.863281 394.402344 552.863281 394.996094 C 552.863281 395.746094 553.238281 396.214844 553.238281 397.027344 C 553.238281 398.871094 552.082031 402.402344 550.082031 402.433594 C 549.050781 402.464844 549.019531 400.808594 549.019531 399.902344 Z M 549.019531 399.902344 "/>
<path fill-rule="nonzero" fill="rgb(0%, 0%, 0%)" fill-opacity="1" d="M 562.246094 403.109375 L 561.746094 403.109375 C 561.714844 403.453125 561.558594 404.296875 561.371094 404.453125 C 561.246094 404.515625 560.121094 404.515625 559.933594 404.515625 L 557.246094 404.515625 C 558.777344 403.171875 559.277344 402.765625 560.152344 402.078125 C 561.246094 401.234375 562.246094 400.328125 562.246094 398.953125 C 562.246094 397.203125 560.714844 396.109375 558.839844 396.109375 C 557.027344 396.109375 555.808594 397.390625 555.808594 398.703125 C 555.808594 399.453125 556.433594 399.546875 556.589844 399.546875 C 556.933594 399.546875 557.371094 399.296875 557.371094 398.765625 C 557.371094 398.515625 557.246094 397.984375 556.496094 397.984375 C 556.964844 396.953125 557.933594 396.640625 558.621094 396.640625 C 560.089844 396.640625 560.839844 397.765625 560.839844 398.953125 C 560.839844 400.203125 559.933594 401.203125 559.464844 401.734375 L 555.964844 405.203125 C 555.808594 405.328125 555.808594 405.359375 555.808594 405.765625 L 561.808594 405.765625 Z M 562.246094 403.109375 "/>
<path fill-rule="nonzero" fill="rgb(0%, 0%, 0%)" fill-opacity="1" d="M 570.53125 403.109375 L 570.03125 403.109375 C 570 403.453125 569.84375 404.296875 569.65625 404.453125 C 569.53125 404.515625 568.40625 404.515625 568.21875 404.515625 L 565.53125 404.515625 C 567.0625 403.171875 567.5625 402.765625 568.4375 402.078125 C 569.53125 401.234375 570.53125 400.328125 570.53125 398.953125 C 570.53125 397.203125 569 396.109375 567.125 396.109375 C 565.3125 396.109375 564.09375 397.390625 564.09375 398.703125 C 564.09375 399.453125 564.71875 399.546875 564.875 399.546875 C 565.21875 399.546875 565.65625 399.296875 565.65625 398.765625 C 565.65625 398.515625 565.53125 397.984375 564.78125 397.984375 C 565.25 396.953125 566.21875 396.640625 566.90625 396.640625 C 568.375 396.640625 569.125 397.765625 569.125 398.953125 C 569.125 400.203125 568.21875 401.203125 567.75 401.734375 L 564.25 405.203125 C 564.09375 405.328125 564.09375 405.359375 564.09375 405.765625 L 570.09375 405.765625 Z M 570.53125 403.109375 "/>
<path fill-rule="nonzero" fill="rgb(50.196078%, 50.196078%, 50.196078%)" fill-opacity="1" d="M 462.453125 476.695312 C 462.453125 475.140625 461.1875 473.882812 459.632812 473.882812 C 458.078125 473.882812 456.8125 475.140625 456.8125 476.695312 C 456.8125 478.257812 458.078125 479.515625 459.632812 479.515625 C 461.1875 479.515625 462.453125 478.257812 462.453125 476.695312 Z M 462.453125 476.695312 "/>
<path fill-rule="nonzero" fill="rgb(0%, 0%, 0%)" fill-opacity="1" d="M 449.191406 492.636719 C 449.191406 490.511719 450.003906 489.042969 450.941406 487.792969 C 451.128906 487.542969 451.597656 487.167969 451.597656 487.042969 C 451.597656 486.855469 451.535156 486.824219 451.378906 486.824219 C 451.285156 486.824219 451.160156 486.917969 451.066406 486.949219 C 451.003906 487.011719 450.878906 487.136719 450.628906 487.355469 C 450.472656 487.511719 450.285156 487.605469 450.066406 487.605469 C 449.691406 487.605469 449.472656 487.511719 449.253906 487.292969 C 449.003906 486.980469 448.753906 486.824219 448.285156 486.824219 C 447.441406 486.824219 446.566406 487.574219 446.566406 488.324219 C 446.566406 488.886719 446.941406 489.011719 447.316406 489.011719 C 447.691406 489.011719 447.878906 488.824219 447.878906 488.386719 C 447.878906 488.105469 447.566406 488.074219 447.566406 487.886719 C 447.566406 487.761719 447.628906 487.605469 447.878906 487.605469 C 448.441406 487.605469 448.691406 488.199219 448.910156 488.261719 C 449.222656 488.355469 449.316406 488.324219 449.722656 488.230469 L 449.972656 488.136719 C 449.378906 489.042969 448.535156 490.417969 448.191406 491.230469 C 447.847656 492.074219 447.691406 492.792969 447.691406 493.386719 C 447.691406 493.730469 447.753906 494.042969 447.816406 494.292969 C 448.097656 495.042969 448.628906 495.667969 449.660156 495.667969 C 452.222656 495.667969 453.253906 493.324219 454.035156 491.792969 C 454.472656 490.824219 454.816406 489.636719 454.816406 488.324219 C 454.816406 487.449219 454.691406 486.824219 453.878906 486.824219 C 453.316406 486.824219 453.035156 487.136719 453.035156 487.730469 C 453.035156 488.480469 453.410156 488.949219 453.410156 489.761719 C 453.410156 491.605469 452.253906 495.136719 450.253906 495.167969 C 449.222656 495.199219 449.191406 493.542969 449.191406 492.636719 Z M 449.191406 492.636719 "/>
<path fill-rule="nonzero" fill="rgb(0%, 0%, 0%)" fill-opacity="1" d="M 462.417969 495.84375 L 461.917969 495.84375 C 461.886719 496.1875 461.730469 497.03125 461.542969 497.1875 C 461.417969 497.25 460.292969 497.25 460.105469 497.25 L 457.417969 497.25 C 458.949219 495.90625 459.449219 495.5 460.324219 494.8125 C 461.417969 493.96875 462.417969 493.0625 462.417969 491.6875 C 462.417969 489.9375 460.886719 488.84375 459.011719 488.84375 C 457.199219 488.84375 455.980469 490.125 455.980469 491.4375 C 455.980469 492.1875 456.605469 492.28125 456.761719 492.28125 C 457.105469 492.28125 457.542969 492.03125 457.542969 491.5 C 457.542969 491.25 457.417969 490.71875 456.667969 490.71875 C 457.136719 489.6875 458.105469 489.375 458.792969 489.375 C 460.261719 489.375 461.011719 490.5 461.011719 491.6875 C 461.011719 492.9375 460.105469 493.9375 459.636719 494.46875 L 456.136719 497.9375 C 455.980469 498.0625 455.980469 498.09375 455.980469 498.5 L 461.980469 498.5 Z M 462.417969 495.84375 "/>
<path fill-rule="nonzero" fill="rgb(0%, 0%, 0%)" fill-opacity="1" d="M 470.828125 496 C 470.828125 494.84375 469.890625 493.71875 468.296875 493.375 C 469.828125 492.84375 470.390625 491.75 470.390625 490.84375 C 470.390625 489.71875 469.046875 488.84375 467.453125 488.84375 C 465.828125 488.84375 464.609375 489.625 464.609375 490.8125 C 464.609375 491.28125 464.921875 491.5625 465.359375 491.5625 C 465.796875 491.5625 466.078125 491.25 466.078125 490.8125 C 466.078125 490.40625 465.796875 490.09375 465.359375 490.0625 C 465.859375 489.4375 466.859375 489.28125 467.390625 489.28125 C 468.046875 489.28125 468.953125 489.59375 468.953125 490.84375 C 468.953125 491.46875 468.765625 492.125 468.390625 492.59375 C 467.921875 493.125 467.515625 493.15625 466.765625 493.21875 C 466.421875 493.25 466.390625 493.25 466.296875 493.25 C 466.296875 493.25 466.171875 493.28125 466.171875 493.4375 C 466.171875 493.65625 466.296875 493.65625 466.546875 493.65625 L 467.328125 493.65625 C 468.453125 493.65625 469.265625 494.4375 469.265625 496 C 469.265625 497.78125 468.234375 498.3125 467.390625 498.3125 C 466.796875 498.3125 465.515625 498.15625 464.921875 497.3125 C 465.609375 497.28125 465.765625 496.8125 465.765625 496.5 C 465.765625 496.03125 465.421875 495.6875 464.953125 495.6875 C 464.546875 495.6875 464.140625 495.9375 464.140625 496.53125 C 464.140625 497.90625 465.640625 498.78125 467.421875 498.78125 C 469.421875 498.78125 470.828125 497.4375 470.828125 496 Z M 470.828125 496 "/>
<path fill-rule="nonzero" fill="rgb(50.196078%, 50.196078%, 50.196078%)" fill-opacity="1" d="M 385.601562 399.851562 C 385.601562 398.296875 384.34375 397.039062 382.789062 397.039062 C 381.234375 397.039062 379.96875 398.296875 379.96875 399.851562 C 379.96875 401.414062 381.234375 402.671875 382.789062 402.671875 C 384.34375 402.671875 385.601562 401.414062 385.601562 399.851562 Z M 385.601562 399.851562 "/>
<path fill-rule="nonzero" fill="rgb(0%, 0%, 0%)" fill-opacity="1" d="M 350.222656 414.933594 C 350.222656 412.808594 351.035156 411.339844 351.972656 410.089844 C 352.160156 409.839844 352.628906 409.464844 352.628906 409.339844 C 352.628906 409.152344 352.566406 409.121094 352.410156 409.121094 C 352.316406 409.121094 352.191406 409.214844 352.097656 409.246094 C 352.035156 409.308594 351.910156 409.433594 351.660156 409.652344 C 351.503906 409.808594 351.316406 409.902344 351.097656 409.902344 C 350.722656 409.902344 350.503906 409.808594 350.285156 409.589844 C 350.035156 409.277344 349.785156 409.121094 349.316406 409.121094 C 348.472656 409.121094 347.597656 409.871094 347.597656 410.621094 C 347.597656 411.183594 347.972656 411.308594 348.347656 411.308594 C 348.722656 411.308594 348.910156 411.121094 348.910156 410.683594 C 348.910156 410.402344 348.597656 410.371094 348.597656 410.183594 C 348.597656 410.058594 348.660156 409.902344 348.910156 409.902344 C 349.472656 409.902344 349.722656 410.496094 349.941406 410.558594 C 350.253906 410.652344 350.347656 410.621094 350.753906 410.527344 L 351.003906 410.433594 C 350.410156 411.339844 349.566406 412.714844 349.222656 413.527344 C 348.878906 414.371094 348.722656 415.089844 348.722656 415.683594 C 348.722656 416.027344 348.785156 416.339844 348.847656 416.589844 C 349.128906 417.339844 349.660156 417.964844 350.691406 417.964844 C 353.253906 417.964844 354.285156 415.621094 355.066406 414.089844 C 355.503906 413.121094 355.847656 411.933594 355.847656 410.621094 C 355.847656 409.746094 355.722656 409.121094 354.910156 409.121094 C 354.347656 409.121094 354.066406 409.433594 354.066406 410.027344 C 354.066406 410.777344 354.441406 411.246094 354.441406 412.058594 C 354.441406 413.902344 353.285156 417.433594 351.285156 417.464844 C 350.253906 417.496094 350.222656 415.839844 350.222656 414.933594 Z M 350.222656 414.933594 "/>
<path fill-rule="nonzero" fill="rgb(0%, 0%, 0%)" fill-opacity="1" d="M 363.453125 418.140625 L 362.953125 418.140625 C 362.921875 418.484375 362.765625 419.328125 362.578125 419.484375 C 362.453125 419.546875 361.328125 419.546875 361.140625 419.546875 L 358.453125 419.546875 C 359.984375 418.203125 360.484375 417.796875 361.359375 417.109375 C 362.453125 416.265625 363.453125 415.359375 363.453125 413.984375 C 363.453125 412.234375 361.921875 411.140625 360.046875 411.140625 C 358.234375 411.140625 357.015625 412.421875 357.015625 413.734375 C 357.015625 414.484375 357.640625 414.578125 357.796875 414.578125 C 358.140625 414.578125 358.578125 414.328125 358.578125 413.796875 C 358.578125 413.546875 358.453125 413.015625 357.703125 413.015625 C 358.171875 411.984375 359.140625 411.671875 359.828125 411.671875 C 361.296875 411.671875 362.046875 412.796875 362.046875 413.984375 C 362.046875 415.234375 361.140625 416.234375 360.671875 416.765625 L 357.171875 420.234375 C 357.015625 420.359375 357.015625 420.390625 357.015625 420.796875 L 363.015625 420.796875 Z M 363.453125 418.140625 "/>
<path fill-rule="nonzero" fill="rgb(0%, 0%, 0%)" fill-opacity="1" d="M 372.078125 418.421875 L 372.078125 417.890625 L 370.453125 417.890625 L 370.453125 411.421875 C 370.453125 411.109375 370.453125 411.015625 370.140625 411.015625 C 369.984375 411.015625 369.921875 411.015625 369.765625 411.203125 L 364.953125 417.890625 L 364.953125 418.421875 L 369.234375 418.421875 L 369.234375 419.609375 C 369.234375 420.109375 369.234375 420.265625 368.046875 420.265625 L 367.671875 420.265625 L 367.671875 420.796875 L 369.828125 420.734375 L 372.046875 420.796875 L 372.046875 420.265625 L 371.640625 420.265625 C 370.453125 420.265625 370.453125 420.109375 370.453125 419.609375 L 370.453125 418.421875 Z M 369.328125 417.890625 L 365.484375 417.890625 L 369.328125 412.578125 Z M 369.328125 417.890625 "/>
<path fill-rule="nonzero" fill="rgb(50.196078%, 50.196078%, 50.196078%)" fill-opacity="1" d="M 292.367188 28.429688 C 292.367188 26.875 291.109375 25.609375 289.554688 25.609375 C 287.992188 25.609375 286.734375 26.875 286.734375 28.429688 C 286.734375 29.984375 287.992188 31.25 289.554688 31.25 C 291.109375 31.25 292.367188 29.984375 292.367188 28.429688 Z M 292.367188 28.429688 "/>
<path fill-rule="nonzero" fill="rgb(0%, 0%, 0%)" fill-opacity="1" d="M 279.109375 12.589844 C 279.109375 10.464844 279.921875 8.996094 280.859375 7.746094 C 281.046875 7.496094 281.515625 7.121094 281.515625 6.996094 C 281.515625 6.808594 281.453125 6.777344 281.296875 6.777344 C 281.203125 6.777344 281.078125 6.871094 280.984375 6.902344 C 280.921875 6.964844 280.796875 7.089844 280.546875 7.308594 C 280.390625 7.464844 280.203125 7.558594 279.984375 7.558594 C 279.609375 7.558594 279.390625 7.464844 279.171875 7.246094 C 278.921875 6.933594 278.671875 6.777344 278.203125 6.777344 C 277.359375 6.777344 276.484375 7.527344 276.484375 8.277344 C 276.484375 8.839844 276.859375 8.964844 277.234375 8.964844 C 277.609375 8.964844 277.796875 8.777344 277.796875 8.339844 C 277.796875 8.058594 277.484375 8.027344 277.484375 7.839844 C 277.484375 7.714844 277.546875 7.558594 277.796875 7.558594 C 278.359375 7.558594 278.609375 8.152344 278.828125 8.214844 C 279.140625 8.308594 279.234375 8.277344 279.640625 8.183594 L 279.890625 8.089844 C 279.296875 8.996094 278.453125 10.371094 278.109375 11.183594 C 277.765625 12.027344 277.609375 12.746094 277.609375 13.339844 C 277.609375 13.683594 277.671875 13.996094 277.734375 14.246094 C 278.015625 14.996094 278.546875 15.621094 279.578125 15.621094 C 282.140625 15.621094 283.171875 13.277344 283.953125 11.746094 C 284.390625 10.777344 284.734375 9.589844 284.734375 8.277344 C 284.734375 7.402344 284.609375 6.777344 283.796875 6.777344 C 283.234375 6.777344 282.953125 7.089844 282.953125 7.683594 C 282.953125 8.433594 283.328125 8.902344 283.328125 9.714844 C 283.328125 11.558594 282.171875 15.089844 280.171875 15.121094 C 279.140625 15.152344 279.109375 13.496094 279.109375 12.589844 Z M 279.109375 12.589844 "/>
<path fill-rule="nonzero" fill="rgb(0%, 0%, 0%)" fill-opacity="1" d="M 292.464844 15.953125 C 292.464844 14.796875 291.527344 13.671875 289.933594 13.328125 C 291.464844 12.796875 292.027344 11.703125 292.027344 10.796875 C 292.027344 9.671875 290.683594 8.796875 289.089844 8.796875 C 287.464844 8.796875 286.246094 9.578125 286.246094 10.765625 C 286.246094 11.234375 286.558594 11.515625 286.996094 11.515625 C 287.433594 11.515625 287.714844 11.203125 287.714844 10.765625 C 287.714844 10.359375 287.433594 10.046875 286.996094 10.015625 C 287.496094 9.390625 288.496094 9.234375 289.027344 9.234375 C 289.683594 9.234375 290.589844 9.546875 290.589844 10.796875 C 290.589844 11.421875 290.402344 12.078125 290.027344 12.546875 C 289.558594 13.078125 289.152344 13.109375 288.402344 13.171875 C 288.058594 13.203125 288.027344 13.203125 287.933594 13.203125 C 287.933594 13.203125 287.808594 13.234375 287.808594 13.390625 C 287.808594 13.609375 287.933594 13.609375 288.183594 13.609375 L 288.964844 13.609375 C 290.089844 13.609375 290.902344 14.390625 290.902344 15.953125 C 290.902344 17.734375 289.871094 18.265625 289.027344 18.265625 C 288.433594 18.265625 287.152344 18.109375 286.558594 17.265625 C 287.246094 17.234375 287.402344 16.765625 287.402344 16.453125 C 287.402344 15.984375 287.058594 15.640625 286.589844 15.640625 C 286.183594 15.640625 285.777344 15.890625 285.777344 16.484375 C 285.777344 17.859375 287.277344 18.734375 289.058594 18.734375 C 291.058594 18.734375 292.464844 17.390625 292.464844 15.953125 Z M 292.464844 15.953125 "/>
<path fill-rule="nonzero" fill="rgb(0%, 0%, 0%)" fill-opacity="1" d="M 300.152344 18.453125 L 300.152344 17.921875 L 299.589844 17.921875 C 298.152344 17.921875 298.152344 17.734375 298.152344 17.265625 L 298.152344 9.203125 C 298.152344 8.828125 298.121094 8.796875 297.714844 8.796875 C 296.777344 9.734375 295.464844 9.734375 294.871094 9.734375 L 294.871094 10.265625 C 295.214844 10.265625 296.183594 10.265625 296.964844 9.859375 L 296.964844 17.265625 C 296.964844 17.734375 296.964844 17.921875 295.527344 17.921875 L 294.964844 17.921875 L 294.964844 18.453125 L 297.558594 18.390625 Z M 300.152344 18.453125 "/>
<path fill-rule="nonzero" fill="rgb(50.196078%, 50.196078%, 50.196078%)" fill-opacity="1" d="M 369.210938 105.273438 C 369.210938 103.71875 367.953125 102.453125 366.398438 102.453125 C 364.835938 102.453125 363.578125 103.71875 363.578125 105.273438 C 363.578125 106.828125 364.835938 108.09375 366.398438 108.09375 C 367.953125 108.09375 369.210938 106.828125 369.210938 105.273438 Z M 369.210938 105.273438 "/>
<path fill-rule="nonzero" fill="rgb(0%, 0%, 0%)" fill-opacity="1" d="M 378.9375 105.324219 C 378.9375 103.199219 379.75 101.730469 380.6875 100.480469 C 380.875 100.230469 381.34375 99.855469 381.34375 99.730469 C 381.34375 99.542969 381.28125 99.511719 381.125 99.511719 C 381.03125 99.511719 380.90625 99.605469 380.8125 99.636719 C 380.75 99.699219 380.625 99.824219 380.375 100.042969 C 380.21875 100.199219 380.03125 100.292969 379.8125 100.292969 C 379.4375 100.292969 379.21875 100.199219 379 99.980469 C 378.75 99.667969 378.5 99.511719 378.03125 99.511719 C 377.1875 99.511719 376.3125 100.261719 376.3125 101.011719 C 376.3125 101.574219 376.6875 101.699219 377.0625 101.699219 C 377.4375 101.699219 377.625 101.511719 377.625 101.074219 C 377.625 100.792969 377.3125 100.761719 377.3125 100.574219 C 377.3125 100.449219 377.375 100.292969 377.625 100.292969 C 378.1875 100.292969 378.4375 100.886719 378.65625 100.949219 C 378.96875 101.042969 379.0625 101.011719 379.46875 100.917969 L 379.71875 100.824219 C 379.125 101.730469 378.28125 103.105469 377.9375 103.917969 C 377.59375 104.761719 377.4375 105.480469 377.4375 106.074219 C 377.4375 106.417969 377.5 106.730469 377.5625 106.980469 C 377.84375 107.730469 378.375 108.355469 379.40625 108.355469 C 381.96875 108.355469 383 106.011719 383.78125 104.480469 C 384.21875 103.511719 384.5625 102.324219 384.5625 101.011719 C 384.5625 100.136719 384.4375 99.511719 383.625 99.511719 C 383.0625 99.511719 382.78125 99.824219 382.78125 100.417969 C 382.78125 101.167969 383.15625 101.636719 383.15625 102.449219 C 383.15625 104.292969 382 107.824219 380 107.855469 C 378.96875 107.886719 378.9375 106.230469 378.9375 105.324219 Z M 378.9375 105.324219 "/>
<path fill-rule="nonzero" fill="rgb(0%, 0%, 0%)" fill-opacity="1" d="M 392.289062 108.6875 C 392.289062 107.53125 391.351562 106.40625 389.757812 106.0625 C 391.289062 105.53125 391.851562 104.4375 391.851562 103.53125 C 391.851562 102.40625 390.507812 101.53125 388.914062 101.53125 C 387.289062 101.53125 386.070312 102.3125 386.070312 103.5 C 386.070312 103.96875 386.382812 104.25 386.820312 104.25 C 387.257812 104.25 387.539062 103.9375 387.539062 103.5 C 387.539062 103.09375 387.257812 102.78125 386.820312 102.75 C 387.320312 102.125 388.320312 101.96875 388.851562 101.96875 C 389.507812 101.96875 390.414062 102.28125 390.414062 103.53125 C 390.414062 104.15625 390.226562 104.8125 389.851562 105.28125 C 389.382812 105.8125 388.976562 105.84375 388.226562 105.90625 C 387.882812 105.9375 387.851562 105.9375 387.757812 105.9375 C 387.757812 105.9375 387.632812 105.96875 387.632812 106.125 C 387.632812 106.34375 387.757812 106.34375 388.007812 106.34375 L 388.789062 106.34375 C 389.914062 106.34375 390.726562 107.125 390.726562 108.6875 C 390.726562 110.46875 389.695312 111 388.851562 111 C 388.257812 111 386.976562 110.84375 386.382812 110 C 387.070312 109.96875 387.226562 109.5 387.226562 109.1875 C 387.226562 108.71875 386.882812 108.375 386.414062 108.375 C 386.007812 108.375 385.601562 108.625 385.601562 109.21875 C 385.601562 110.59375 387.101562 111.46875 388.882812 111.46875 C 390.882812 111.46875 392.289062 110.125 392.289062 108.6875 Z M 392.289062 108.6875 "/>
<path fill-rule="nonzero" fill="rgb(0%, 0%, 0%)" fill-opacity="1" d="M 400.449219 108.53125 L 399.949219 108.53125 C 399.917969 108.875 399.761719 109.71875 399.574219 109.875 C 399.449219 109.9375 398.324219 109.9375 398.136719 109.9375 L 395.449219 109.9375 C 396.980469 108.59375 397.480469 108.1875 398.355469 107.5 C 399.449219 106.65625 400.449219 105.75 400.449219 104.375 C 400.449219 102.625 398.917969 101.53125 397.042969 101.53125 C 395.230469 101.53125 394.011719 102.8125 394.011719 104.125 C 394.011719 104.875 394.636719 104.96875 394.792969 104.96875 C 395.136719 104.96875 395.574219 104.71875 395.574219 104.1875 C 395.574219 103.9375 395.449219 103.40625 394.699219 103.40625 C 395.167969 102.375 396.136719 102.0625 396.824219 102.0625 C 398.292969 102.0625 399.042969 103.1875 399.042969 104.375 C 399.042969 105.625 398.136719 106.625 397.667969 107.15625 L 394.167969 110.625 C 394.011719 110.75 394.011719 110.78125 394.011719 111.1875 L 400.011719 111.1875 Z M 400.449219 108.53125 "/>
<path fill-rule="nonzero" fill="rgb(50.196078%, 50.196078%, 50.196078%)" fill-opacity="1" d="M 292.367188 182.117188 C 292.367188 180.5625 291.109375 179.304688 289.554688 179.304688 C 287.992188 179.304688 286.734375 180.5625 286.734375 182.117188 C 286.734375 183.671875 287.992188 184.9375 289.554688 184.9375 C 291.109375 184.9375 292.367188 183.671875 292.367188 182.117188 Z M 292.367188 182.117188 "/>
<path fill-rule="nonzero" fill="rgb(0%, 0%, 0%)" fill-opacity="1" d="M 279.109375 198.058594 C 279.109375 195.933594 279.921875 194.464844 280.859375 193.214844 C 281.046875 192.964844 281.515625 192.589844 281.515625 192.464844 C 281.515625 192.277344 281.453125 192.246094 281.296875 192.246094 C 281.203125 192.246094 281.078125 192.339844 280.984375 192.371094 C 280.921875 192.433594 280.796875 192.558594 280.546875 192.777344 C 280.390625 192.933594 280.203125 193.027344 279.984375 193.027344 C 279.609375 193.027344 279.390625 192.933594 279.171875 192.714844 C 278.921875 192.402344 278.671875 192.246094 278.203125 192.246094 C 277.359375 192.246094 276.484375 192.996094 276.484375 193.746094 C 276.484375 194.308594 276.859375 194.433594 277.234375 194.433594 C 277.609375 194.433594 277.796875 194.246094 277.796875 193.808594 C 277.796875 193.527344 277.484375 193.496094 277.484375 193.308594 C 277.484375 193.183594 277.546875 193.027344 277.796875 193.027344 C 278.359375 193.027344 278.609375 193.621094 278.828125 193.683594 C 279.140625 193.777344 279.234375 193.746094 279.640625 193.652344 L 279.890625 193.558594 C 279.296875 194.464844 278.453125 195.839844 278.109375 196.652344 C 277.765625 197.496094 277.609375 198.214844 277.609375 198.808594 C 277.609375 199.152344 277.671875 199.464844 277.734375 199.714844 C 278.015625 200.464844 278.546875 201.089844 279.578125 201.089844 C 282.140625 201.089844 283.171875 198.746094 283.953125 197.214844 C 284.390625 196.246094 284.734375 195.058594 284.734375 193.746094 C 284.734375 192.871094 284.609375 192.246094 283.796875 192.246094 C 283.234375 192.246094 282.953125 192.558594 282.953125 193.152344 C 282.953125 193.902344 283.328125 194.371094 283.328125 195.183594 C 283.328125 197.027344 282.171875 200.558594 280.171875 200.589844 C 279.140625 200.621094 279.109375 198.964844 279.109375 198.058594 Z M 279.109375 198.058594 "/>
<path fill-rule="nonzero" fill="rgb(0%, 0%, 0%)" fill-opacity="1" d="M 292.464844 201.421875 C 292.464844 200.265625 291.527344 199.140625 289.933594 198.796875 C 291.464844 198.265625 292.027344 197.171875 292.027344 196.265625 C 292.027344 195.140625 290.683594 194.265625 289.089844 194.265625 C 287.464844 194.265625 286.246094 195.046875 286.246094 196.234375 C 286.246094 196.703125 286.558594 196.984375 286.996094 196.984375 C 287.433594 196.984375 287.714844 196.671875 287.714844 196.234375 C 287.714844 195.828125 287.433594 195.515625 286.996094 195.484375 C 287.496094 194.859375 288.496094 194.703125 289.027344 194.703125 C 289.683594 194.703125 290.589844 195.015625 290.589844 196.265625 C 290.589844 196.890625 290.402344 197.546875 290.027344 198.015625 C 289.558594 198.546875 289.152344 198.578125 288.402344 198.640625 C 288.058594 198.671875 288.027344 198.671875 287.933594 198.671875 C 287.933594 198.671875 287.808594 198.703125 287.808594 198.859375 C 287.808594 199.078125 287.933594 199.078125 288.183594 199.078125 L 288.964844 199.078125 C 290.089844 199.078125 290.902344 199.859375 290.902344 201.421875 C 290.902344 203.203125 289.871094 203.734375 289.027344 203.734375 C 288.433594 203.734375 287.152344 203.578125 286.558594 202.734375 C 287.246094 202.703125 287.402344 202.234375 287.402344 201.921875 C 287.402344 201.453125 287.058594 201.109375 286.589844 201.109375 C 286.183594 201.109375 285.777344 201.359375 285.777344 201.953125 C 285.777344 203.328125 287.277344 204.203125 289.058594 204.203125 C 291.058594 204.203125 292.464844 202.859375 292.464844 201.421875 Z M 292.464844 201.421875 "/>
<path fill-rule="nonzero" fill="rgb(0%, 0%, 0%)" fill-opacity="1" d="M 300.746094 201.421875 C 300.746094 200.265625 299.808594 199.140625 298.214844 198.796875 C 299.746094 198.265625 300.308594 197.171875 300.308594 196.265625 C 300.308594 195.140625 298.964844 194.265625 297.371094 194.265625 C 295.746094 194.265625 294.527344 195.046875 294.527344 196.234375 C 294.527344 196.703125 294.839844 196.984375 295.277344 196.984375 C 295.714844 196.984375 295.996094 196.671875 295.996094 196.234375 C 295.996094 195.828125 295.714844 195.515625 295.277344 195.484375 C 295.777344 194.859375 296.777344 194.703125 297.308594 194.703125 C 297.964844 194.703125 298.871094 195.015625 298.871094 196.265625 C 298.871094 196.890625 298.683594 197.546875 298.308594 198.015625 C 297.839844 198.546875 297.433594 198.578125 296.683594 198.640625 C 296.339844 198.671875 296.308594 198.671875 296.214844 198.671875 C 296.214844 198.671875 296.089844 198.703125 296.089844 198.859375 C 296.089844 199.078125 296.214844 199.078125 296.464844 199.078125 L 297.246094 199.078125 C 298.371094 199.078125 299.183594 199.859375 299.183594 201.421875 C 299.183594 203.203125 298.152344 203.734375 297.308594 203.734375 C 296.714844 203.734375 295.433594 203.578125 294.839844 202.734375 C 295.527344 202.703125 295.683594 202.234375 295.683594 201.921875 C 295.683594 201.453125 295.339844 201.109375 294.871094 201.109375 C 294.464844 201.109375 294.058594 201.359375 294.058594 201.953125 C 294.058594 203.328125 295.558594 204.203125 297.339844 204.203125 C 299.339844 204.203125 300.746094 202.859375 300.746094 201.421875 Z M 300.746094 201.421875 "/>
<path fill-rule="nonzero" fill="rgb(50.196078%, 50.196078%, 50.196078%)" fill-opacity="1" d="M 215.523438 105.273438 C 215.523438 103.71875 214.265625 102.453125 212.703125 102.453125 C 211.148438 102.453125 209.890625 103.71875 209.890625 105.273438 C 209.890625 106.828125 211.148438 108.09375 212.703125 108.09375 C 214.265625 108.09375 215.523438 106.828125 215.523438 105.273438 Z M 215.523438 105.273438 "/>
<path fill-rule="nonzero" fill="rgb(0%, 0%, 0%)" fill-opacity="1" d="M 179.285156 105.324219 C 179.285156 103.199219 180.097656 101.730469 181.035156 100.480469 C 181.222656 100.230469 181.691406 99.855469 181.691406 99.730469 C 181.691406 99.542969 181.628906 99.511719 181.472656 99.511719 C 181.378906 99.511719 181.253906 99.605469 181.160156 99.636719 C 181.097656 99.699219 180.972656 99.824219 180.722656 100.042969 C 180.566406 100.199219 180.378906 100.292969 180.160156 100.292969 C 179.785156 100.292969 179.566406 100.199219 179.347656 99.980469 C 179.097656 99.667969 178.847656 99.511719 178.378906 99.511719 C 177.535156 99.511719 176.660156 100.261719 176.660156 101.011719 C 176.660156 101.574219 177.035156 101.699219 177.410156 101.699219 C 177.785156 101.699219 177.972656 101.511719 177.972656 101.074219 C 177.972656 100.792969 177.660156 100.761719 177.660156 100.574219 C 177.660156 100.449219 177.722656 100.292969 177.972656 100.292969 C 178.535156 100.292969 178.785156 100.886719 179.003906 100.949219 C 179.316406 101.042969 179.410156 101.011719 179.816406 100.917969 L 180.066406 100.824219 C 179.472656 101.730469 178.628906 103.105469 178.285156 103.917969 C 177.941406 104.761719 177.785156 105.480469 177.785156 106.074219 C 177.785156 106.417969 177.847656 106.730469 177.910156 106.980469 C 178.191406 107.730469 178.722656 108.355469 179.753906 108.355469 C 182.316406 108.355469 183.347656 106.011719 184.128906 104.480469 C 184.566406 103.511719 184.910156 102.324219 184.910156 101.011719 C 184.910156 100.136719 184.785156 99.511719 183.972656 99.511719 C 183.410156 99.511719 183.128906 99.824219 183.128906 100.417969 C 183.128906 101.167969 183.503906 101.636719 183.503906 102.449219 C 183.503906 104.292969 182.347656 107.824219 180.347656 107.855469 C 179.316406 107.886719 179.285156 106.230469 179.285156 105.324219 Z M 179.285156 105.324219 "/>
<path fill-rule="nonzero" fill="rgb(0%, 0%, 0%)" fill-opacity="1" d="M 192.640625 108.6875 C 192.640625 107.53125 191.703125 106.40625 190.109375 106.0625 C 191.640625 105.53125 192.203125 104.4375 192.203125 103.53125 C 192.203125 102.40625 190.859375 101.53125 189.265625 101.53125 C 187.640625 101.53125 186.421875 102.3125 186.421875 103.5 C 186.421875 103.96875 186.734375 104.25 187.171875 104.25 C 187.609375 104.25 187.890625 103.9375 187.890625 103.5 C 187.890625 103.09375 187.609375 102.78125 187.171875 102.75 C 187.671875 102.125 188.671875 101.96875 189.203125 101.96875 C 189.859375 101.96875 190.765625 102.28125 190.765625 103.53125 C 190.765625 104.15625 190.578125 104.8125 190.203125 105.28125 C 189.734375 105.8125 189.328125 105.84375 188.578125 105.90625 C 188.234375 105.9375 188.203125 105.9375 188.109375 105.9375 C 188.109375 105.9375 187.984375 105.96875 187.984375 106.125 C 187.984375 106.34375 188.109375 106.34375 188.359375 106.34375 L 189.140625 106.34375 C 190.265625 106.34375 191.078125 107.125 191.078125 108.6875 C 191.078125 110.46875 190.046875 111 189.203125 111 C 188.609375 111 187.328125 110.84375 186.734375 110 C 187.421875 109.96875 187.578125 109.5 187.578125 109.1875 C 187.578125 108.71875 187.234375 108.375 186.765625 108.375 C 186.359375 108.375 185.953125 108.625 185.953125 109.21875 C 185.953125 110.59375 187.453125 111.46875 189.234375 111.46875 C 191.234375 111.46875 192.640625 110.125 192.640625 108.6875 Z M 192.640625 108.6875 "/>
<path fill-rule="nonzero" fill="rgb(0%, 0%, 0%)" fill-opacity="1" d="M 201.140625 108.8125 L 201.140625 108.28125 L 199.515625 108.28125 L 199.515625 101.8125 C 199.515625 101.5 199.515625 101.40625 199.203125 101.40625 C 199.046875 101.40625 198.984375 101.40625 198.828125 101.59375 L 194.015625 108.28125 L 194.015625 108.8125 L 198.296875 108.8125 L 198.296875 110 C 198.296875 110.5 198.296875 110.65625 197.109375 110.65625 L 196.734375 110.65625 L 196.734375 111.1875 L 198.890625 111.125 L 201.109375 111.1875 L 201.109375 110.65625 L 200.703125 110.65625 C 199.515625 110.65625 199.515625 110.5 199.515625 110 L 199.515625 108.8125 Z M 198.390625 108.28125 L 194.546875 108.28125 L 198.390625 102.96875 Z M 198.390625 108.28125 "/>
<path fill="none" stroke-width="0.3985" stroke-linecap="butt" stroke-linejoin="miter" stroke="rgb(0%, 0%, 0%)" stroke-opacity="1" stroke-dasharray="2.98883 2.98883" stroke-miterlimit="10" d="M 1.038437 37.384033 L 37.382187 1.040283 " transform="matrix(2, 0, 0, -2, 119.470001, 399.854004)"/>
<path fill="none" stroke-width="0.3985" stroke-linecap="butt" stroke-linejoin="miter" stroke="rgb(0%, 0%, 0%)" stroke-opacity="1" stroke-dasharray="2.98883 2.98883" stroke-miterlimit="10" d="M 37.382187 -1.037842 L 1.038437 -37.385498 " transform="matrix(2, 0, 0, -2, 119.470001, 399.854004)"/>
<path fill="none" stroke-width="0.3985" stroke-linecap="butt" stroke-linejoin="miter" stroke="rgb(0%, 0%, 0%)" stroke-opacity="1" stroke-dasharray="2.98883 2.98883" stroke-miterlimit="10" d="M -1.039688 -37.385498 L -37.383438 -1.037842 " transform="matrix(2, 0, 0, -2, 119.470001, 399.854004)"/>
<path fill="none" stroke-width="0.3985" stroke-linecap="butt" stroke-linejoin="miter" stroke="rgb(0%, 0%, 0%)" stroke-opacity="1" stroke-dasharray="2.98883 2.98883" stroke-miterlimit="10" d="M -37.383438 1.040283 L -1.039688 37.384033 " transform="matrix(2, 0, 0, -2, 119.470001, 399.854004)"/>
<path fill="none" stroke-width="0.3985" stroke-linecap="butt" stroke-linejoin="miter" stroke="rgb(0%, 0%, 0%)" stroke-opacity="1" stroke-dasharray="2.98883 2.98883" stroke-miterlimit="10" d="M 171.120468 37.384033 L 207.464218 1.040283 " transform="matrix(2, 0, 0, -2, 119.470001, 399.854004)"/>
<path fill="none" stroke-width="0.3985" stroke-linecap="butt" stroke-linejoin="miter" stroke="rgb(0%, 0%, 0%)" stroke-opacity="1" stroke-dasharray="2.98883 2.98883" stroke-miterlimit="10" d="M 207.464218 -1.037842 L 171.120468 -37.385498 " transform="matrix(2, 0, 0, -2, 119.470001, 399.854004)"/>
<path fill="none" stroke-width="0.3985" stroke-linecap="butt" stroke-linejoin="miter" stroke="rgb(0%, 0%, 0%)" stroke-opacity="1" stroke-dasharray="2.98883 2.98883" stroke-miterlimit="10" d="M 169.042343 -37.385498 L 132.698593 -1.037842 " transform="matrix(2, 0, 0, -2, 119.470001, 399.854004)"/>
<path fill="none" stroke-width="0.3985" stroke-linecap="butt" stroke-linejoin="miter" stroke="rgb(0%, 0%, 0%)" stroke-opacity="1" stroke-dasharray="2.98883 2.98883" stroke-miterlimit="10" d="M 132.698593 1.040283 L 169.042343 37.384033 " transform="matrix(2, 0, 0, -2, 119.470001, 399.854004)"/>
<path fill="none" stroke-width="0.3985" stroke-linecap="butt" stroke-linejoin="miter" stroke="rgb(0%, 0%, 0%)" stroke-opacity="1" stroke-dasharray="2.98883 2.98883" stroke-miterlimit="10" d="M 86.077499 184.673096 L 122.425156 148.329346 " transform="matrix(2, 0, 0, -2, 119.470001, 399.854004)"/>
<path fill="none" stroke-width="0.3985" stroke-linecap="butt" stroke-linejoin="miter" stroke="rgb(0%, 0%, 0%)" stroke-opacity="1" stroke-dasharray="2.98883 2.98883" stroke-miterlimit="10" d="M 122.425156 146.251221 L 86.077499 109.907471 " transform="matrix(2, 0, 0, -2, 119.470001, 399.854004)"/>
<path fill="none" stroke-width="0.3985" stroke-linecap="butt" stroke-linejoin="miter" stroke="rgb(0%, 0%, 0%)" stroke-opacity="1" stroke-dasharray="2.98883 2.98883" stroke-miterlimit="10" d="M 84.003281 109.907471 L 47.655624 146.251221 " transform="matrix(2, 0, 0, -2, 119.470001, 399.854004)"/>
<path fill="none" stroke-width="0.3985" stroke-linecap="butt" stroke-linejoin="miter" stroke="rgb(0%, 0%, 0%)" stroke-opacity="1" stroke-dasharray="2.98883 2.98883" stroke-miterlimit="10" d="M 47.655624 148.329346 L 84.003281 184.673096 " transform="matrix(2, 0, 0, -2, 119.470001, 399.854004)"/>
<path fill="none" stroke-width="1.59404" stroke-linecap="butt" stroke-linejoin="miter" stroke="rgb(0%, 0%, 0%)" stroke-opacity="1" stroke-miterlimit="10" d="M -0.00062561 2.938721 L -0.00062561 30.063721 " transform="matrix(2, 0, 0, -2, 119.470001, 399.854004)"/>
<path fill-rule="nonzero" fill="rgb(0%, 0%, 0%)" fill-opacity="1" stroke-width="1.59404" stroke-linecap="butt" stroke-linejoin="miter" stroke="rgb(0%, 0%, 0%)" stroke-opacity="1" stroke-miterlimit="10" d="M 8.909668 0.00062561 L 2.57373 2.402969 L 4.687012 0.00062561 L 2.57373 -2.401718 Z M 8.909668 0.00062561 " transform="matrix(0, -2, -2, 0, 119.470001, 348.303711)"/>
<path fill="none" stroke-width="0.79701" stroke-linecap="butt" stroke-linejoin="miter" stroke="rgb(0%, 0%, 0%)" stroke-opacity="1" stroke-miterlimit="10" d="M 170.081406 2.938721 L 170.081406 32.399658 " transform="matrix(2, 0, 0, -2, 119.470001, 399.854004)"/>
<path fill-rule="nonzero" fill="rgb(0%, 0%, 0%)" fill-opacity="1" stroke-width="0.79701" stroke-linecap="butt" stroke-linejoin="miter" stroke="rgb(0%, 0%, 0%)" stroke-opacity="1" stroke-miterlimit="10" d="M 6.097183 -0.000488281 L 1.288589 1.815918 L 2.878433 -0.000488281 L 1.288589 -1.816895 Z M 6.097183 -0.000488281 " transform="matrix(0, -2, -2, 0, 459.631836, 340.413116)"/>
<path fill="none" stroke-width="0.79701" stroke-linecap="butt" stroke-linejoin="miter" stroke="rgb(0%, 0%, 0%)" stroke-opacity="1" stroke-dasharray="2.98883 2.98883" stroke-miterlimit="10" d="M 82.104843 147.290283 L 52.639999 147.290283 " transform="matrix(2, 0, 0, -2, 119.470001, 399.854004)"/>
<path fill-rule="nonzero" fill="rgb(0%, 0%, 0%)" fill-opacity="1" stroke-width="0.79701" stroke-linecap="butt" stroke-linejoin="miter" stroke="rgb(0%, 0%, 0%)" stroke-opacity="1" stroke-miterlimit="10" d="M 6.097969 -0.000671387 L 1.285469 1.815735 L 2.879219 -0.000671387 L 1.285469 -1.817078 Z M 6.097969 -0.000671387 " transform="matrix(-2, 0, 0, 2, 230.110001, 105.27478)"/>
<path fill="none" stroke-width="0.79701" stroke-linecap="butt" stroke-linejoin="miter" stroke="rgb(0%, 0%, 0%)" stroke-opacity="1" stroke-dasharray="0.79701 1.99255" stroke-miterlimit="10" d="M -2.938126 0.0012207 L -32.399063 0.0012207 " transform="matrix(2, 0, 0, -2, 119.470001, 399.854004)"/>
<path fill-rule="nonzero" fill="rgb(0%, 0%, 0%)" fill-opacity="1" stroke-width="0.79701" stroke-linecap="butt" stroke-linejoin="miter" stroke="rgb(0%, 0%, 0%)" stroke-opacity="1" stroke-miterlimit="10" d="M 6.096592 -0.0012207 L 1.287998 1.819092 L 2.877842 -0.0012207 L 1.287998 -1.817627 Z M 6.096592 -0.0012207 " transform="matrix(-2, 0, 0, 2, 60.029121, 399.854004)"/>
<path fill="none" stroke-width="1.59404" stroke-linecap="butt" stroke-linejoin="miter" stroke="rgb(0%, 0%, 0%)" stroke-opacity="1" stroke-miterlimit="10" d="M 167.143906 0.0012207 L 140.014999 0.0012207 " transform="matrix(2, 0, 0, -2, 119.470001, 399.854004)"/>
<path fill-rule="nonzero" fill="rgb(0%, 0%, 0%)" fill-opacity="1" stroke-width="1.59404" stroke-linecap="butt" stroke-linejoin="miter" stroke="rgb(0%, 0%, 0%)" stroke-opacity="1" stroke-miterlimit="10" d="M 8.907944 -0.0012207 L 2.575912 2.401123 L 4.689194 -0.0012207 L 2.575912 -2.399658 Z M 8.907944 -0.0012207 " transform="matrix(-2, 0, 0, 2, 408.081512, 399.854004)"/>
<path fill="none" stroke-width="0.79701" stroke-linecap="butt" stroke-linejoin="miter" stroke="rgb(0%, 0%, 0%)" stroke-opacity="1" stroke-miterlimit="10" d="M 85.042343 144.352783 L 85.042343 114.891846 " transform="matrix(2, 0, 0, -2, 119.470001, 399.854004)"/>
<path fill-rule="nonzero" fill="rgb(0%, 0%, 0%)" fill-opacity="1" stroke-width="0.79701" stroke-linecap="butt" stroke-linejoin="miter" stroke="rgb(0%, 0%, 0%)" stroke-opacity="1" stroke-miterlimit="10" d="M 6.099182 0.00189209 L 1.286682 1.818298 L 2.876526 0.00189209 L 1.286682 -1.81842 Z M 6.099182 0.00189209 " transform="matrix(0, 2, 2, 0, 289.550903, 164.715698)"/>
<path fill="none" stroke-width="0.79701" stroke-linecap="butt" stroke-linejoin="miter" stroke="rgb(0%, 0%, 0%)" stroke-opacity="1" stroke-dasharray="2.98883 2.98883" stroke-miterlimit="10" d="M -0.00062561 -2.936279 L -0.00062561 -32.401123 " transform="matrix(2, 0, 0, -2, 119.470001, 399.854004)"/>
<path fill-rule="nonzero" fill="rgb(0%, 0%, 0%)" fill-opacity="1" stroke-width="0.79701" stroke-linecap="butt" stroke-linejoin="miter" stroke="rgb(0%, 0%, 0%)" stroke-opacity="1" stroke-miterlimit="10" d="M 6.098648 -0.00062561 L 1.286148 1.815781 L 2.879898 -0.00062561 L 1.286148 -1.817032 Z M 6.098648 -0.00062561 " transform="matrix(0, 2, 2, 0, 119.470001, 459.294891)"/>
<path fill="none" stroke-width="0.79701" stroke-linecap="butt" stroke-linejoin="miter" stroke="rgb(92.54902%, 0%, 54.901961%)" stroke-opacity="1" stroke-miterlimit="10" d="M 169.042343 37.384033 L 135.917343 4.259033 " transform="matrix(2, 0, 0, -2, 119.470001, 399.854004)"/>
<path fill-rule="nonzero" fill="rgb(92.54902%, 0%, 54.901961%)" fill-opacity="1" stroke-width="0.79701" stroke-linecap="butt" stroke-linejoin="miter" stroke="rgb(92.54902%, 0%, 54.901961%)" stroke-opacity="1" stroke-miterlimit="10" d="M 6.098412 -0.000334481 L 1.286725 1.817168 L 2.877731 -0.000334481 L 1.286725 -1.817837 Z M 6.098412 -0.000334481 " transform="matrix(-1.4142, 1.4142, 1.4142, 1.4142, 395.093597, 387.547974)"/>
<path fill="none" stroke-width="0.79701" stroke-linecap="butt" stroke-linejoin="miter" stroke="rgb(92.54902%, 0%, 54.901961%)" stroke-opacity="1" stroke-miterlimit="10" d="M 47.655624 146.251221 L 80.780624 113.126221 " transform="matrix(2, 0, 0, -2, 119.470001, 399.854004)"/>
<path fill-rule="nonzero" fill="rgb(92.54902%, 0%, 54.901961%)" fill-opacity="1" stroke-width="0.79701" stroke-linecap="butt" stroke-linejoin="miter" stroke="rgb(92.54902%, 0%, 54.901961%)" stroke-opacity="1" stroke-miterlimit="10" d="M 6.097727 -0.000771463 L 1.28604 1.816731 L 2.877046 -0.000771463 L 1.28604 -1.818274 Z M 6.097727 -0.000771463 " transform="matrix(1.4142, 1.4142, 1.4142, -1.4142, 277.244873, 169.813004)"/>
<path fill="none" stroke-width="0.79701" stroke-linecap="butt" stroke-linejoin="miter" stroke="rgb(92.54902%, 0%, 54.901961%)" stroke-opacity="1" stroke-miterlimit="10" d="M -37.383438 -1.037842 L -4.258438 -34.162842 " transform="matrix(2, 0, 0, -2, 119.470001, 399.854004)"/>
<path fill-rule="nonzero" fill="rgb(92.54902%, 0%, 54.901961%)" fill-opacity="1" stroke-width="0.79701" stroke-linecap="butt" stroke-linejoin="miter" stroke="rgb(92.54902%, 0%, 54.901961%)" stroke-opacity="1" stroke-miterlimit="10" d="M 6.098329 0.000596131 L 1.286642 1.818099 L 2.877647 0.000596131 L 1.286642 -1.816907 Z M 6.098329 0.000596131 " transform="matrix(1.4142, 1.4142, 1.4142, -1.4142, 107.163963, 464.392212)"/>
<path fill="none" stroke-width="0.79701" stroke-linecap="butt" stroke-linejoin="miter" stroke="rgb(0%, 50.196078%, 50.196078%)" stroke-opacity="1" stroke-miterlimit="10" d="M 86.077499 109.907471 L 119.202499 143.032471 " transform="matrix(2, 0, 0, -2, 119.470001, 399.854004)"/>
<path fill-rule="nonzero" fill="rgb(0%, 50.196078%, 50.196078%)" fill-opacity="1" stroke-width="0.79701" stroke-linecap="butt" stroke-linejoin="miter" stroke="rgb(0%, 50.196078%, 50.196078%)" stroke-opacity="1" stroke-miterlimit="10" d="M 6.098682 0.0020932 L 1.286995 1.819596 L 2.878001 0.0020932 L 1.286995 -1.81541 Z M 6.098682 0.0020932 " transform="matrix(1.4142, -1.4142, -1.4142, -1.4142, 354.089142, 117.580841)"/>
<path fill="none" stroke-width="0.79701" stroke-linecap="butt" stroke-linejoin="miter" stroke="rgb(0%, 50.196078%, 50.196078%)" stroke-opacity="1" stroke-miterlimit="10" d="M 1.038437 -37.385498 L 34.163437 -4.260498 " transform="matrix(2, 0, 0, -2, 119.470001, 399.854004)"/>
<path fill-rule="nonzero" fill="rgb(0%, 50.196078%, 50.196078%)" fill-opacity="1" stroke-width="0.79701" stroke-linecap="butt" stroke-linejoin="miter" stroke="rgb(0%, 50.196078%, 50.196078%)" stroke-opacity="1" stroke-miterlimit="10" d="M 6.097296 -0.00128937 L 1.285609 1.816214 L 2.876614 -0.00128937 L 1.288371 -1.81603 Z M 6.097296 -0.00128937 " transform="matrix(1.4142, -1.4142, -1.4142, -1.4142, 184.008194, 412.160034)"/>
<path fill="none" stroke-width="0.79701" stroke-linecap="butt" stroke-linejoin="miter" stroke="rgb(0%, 0%, 100%)" stroke-opacity="1" stroke-miterlimit="10" d="M 37.382187 1.040283 L 4.257187 34.161377 " transform="matrix(2, 0, 0, -2, 119.470001, 399.854004)"/>
<path fill-rule="nonzero" fill="rgb(0%, 0%, 100%)" fill-opacity="1" stroke-width="0.79701" stroke-linecap="butt" stroke-linejoin="miter" stroke="rgb(0%, 0%, 100%)" stroke-opacity="1" stroke-miterlimit="10" d="M 6.09818 0.00251939 L 1.289256 1.81726 L 2.880261 -0.000242768 L 1.286493 -1.814984 Z M 6.09818 0.00251939 " transform="matrix(-1.4142, -1.4142, -1.4142, 1.4142, 131.776047, 335.315796)"/>
<path fill="none" stroke-width="1.59404" stroke-linecap="butt" stroke-linejoin="miter" stroke="rgb(0%, 0%, 0%)" stroke-opacity="1" stroke-miterlimit="10" d="M 87.975937 147.290283 L 115.104843 147.290283 " transform="matrix(2, 0, 0, -2, 119.470001, 399.854004)"/>
<path fill-rule="nonzero" fill="rgb(0%, 0%, 0%)" fill-opacity="1" stroke-width="1.59404" stroke-linecap="butt" stroke-linejoin="miter" stroke="rgb(0%, 0%, 0%)" stroke-opacity="1" stroke-miterlimit="10" d="M 8.910339 0.000671387 L 2.574402 2.403015 L 4.687683 0.000671387 L 2.574402 -2.401672 Z M 8.910339 0.000671387 " transform="matrix(2, 0, 0, -2, 341.101196, 105.27478)"/>
<path fill="none" stroke-width="0.79701" stroke-linecap="butt" stroke-linejoin="miter" stroke="rgb(0%, 0%, 0%)" stroke-opacity="1" stroke-miterlimit="10" d="M 2.936874 0.0012207 L 32.397812 0.0012207 " transform="matrix(2, 0, 0, -2, 119.470001, 399.854004)"/>
<path fill-rule="nonzero" fill="rgb(0%, 0%, 0%)" fill-opacity="1" stroke-width="0.79701" stroke-linecap="butt" stroke-linejoin="miter" stroke="rgb(0%, 0%, 0%)" stroke-opacity="1" stroke-miterlimit="10" d="M 6.099251 0.0012207 L 1.286751 1.817627 L 2.876595 0.0012207 L 1.286751 -1.819092 Z M 6.099251 0.0012207 " transform="matrix(2, 0, 0, -2, 178.910873, 399.854004)"/>
</svg>
