<?xml version="1.0" encoding="UTF-8"?>
<svg xmlns="http://www.w3.org/2000/svg" xmlns:xlink="http://www.w3.org/1999/xlink" width="243.740005" height="106.099998" viewBox="0 0 243.740005 106.099998">
<defs>
<clipPath id="clip-0">
<path clip-rule="nonzero" d="M 44 0 L 219 0 L 219 106.101562 L 44 106.101562 Z M 44 0 "/>
</clipPath>
</defs>
<path fill-rule="nonzero" fill="rgb(0%, 0%, 0%)" fill-opacity="1" d="M 18.816406 15.304688 C 18.816406 12.429688 17.941406 10.117188 15.785156 10.117188 C 14.097656 10.117188 12.285156 11.710938 12.285156 12.585938 C 12.285156 13.242188 12.816406 13.523438 13.222656 13.523438 C 13.628906 13.523438 13.878906 13.179688 13.941406 13.117188 C 13.878906 13.085938 13.753906 12.898438 13.753906 12.617188 C 13.753906 12.429688 14.097656 10.710938 15.816406 10.710938 C 17.253906 10.710938 17.566406 12.554688 17.566406 14.179688 C 17.566406 15.398438 17.410156 16.460938 17.410156 16.492188 L 17.378906 16.492188 C 17.378906 16.460938 16.597656 15.242188 15.035156 15.242188 C 11.035156 15.242188 9.378906 19.117188 9.378906 21.179688 C 9.378906 23.023438 10.472656 24.210938 12.691406 24.210938 C 16.128906 24.210938 18.816406 20.742188 18.816406 15.304688 Z M 16.535156 17.554688 C 16.535156 18.085938 16.035156 23.742188 12.816406 23.742188 C 11.691406 23.742188 11.191406 23.085938 11.191406 21.835938 C 11.191406 20.554688 12.003906 15.710938 14.878906 15.710938 C 16.003906 15.710938 16.535156 16.367188 16.535156 17.554688 Z M 16.535156 17.554688 "/>
<path fill-rule="nonzero" fill="rgb(0%, 0%, 0%)" fill-opacity="1" d="M 24.210938 20.179688 L 24.992188 17.398438 L 26.273438 17.398438 C 28.992188 17.398438 31.273438 16.554688 32.273438 14.867188 C 32.617188 14.335938 32.773438 13.773438 32.773438 13.117188 C 32.773438 12.148438 32.335938 11.429688 31.460938 10.867188 C 30.617188 10.335938 29.398438 10.054688 27.867188 10.054688 L 22.867188 10.054688 L 22.773438 10.335938 C 23.148438 10.335938 23.429688 10.367188 23.679688 10.398438 C 24.242188 10.492188 24.523438 11.117188 24.523438 11.742188 C 24.523438 12.085938 24.460938 12.523438 24.304688 13.085938 L 22.148438 21.023438 C 21.960938 21.773438 21.648438 22.679688 21.273438 23.054688 C 20.929688 23.367188 20.367188 23.617188 19.804688 23.617188 L 19.710938 23.898438 L 25.679688 23.898438 L 25.773438 23.617188 C 24.398438 23.617188 23.804688 22.867188 23.804688 22.148438 C 23.804688 21.992188 23.867188 21.617188 23.960938 21.273438 C 24.023438 20.960938 24.085938 20.585938 24.210938 20.179688 Z M 25.085938 16.992188 L 26.335938 12.148438 C 26.554688 11.492188 26.710938 10.710938 27.304688 10.492188 C 27.429688 10.460938 27.648438 10.460938 27.867188 10.460938 C 29.804688 10.460938 30.773438 11.585938 30.773438 13.023438 C 30.773438 13.554688 30.648438 14.023438 30.429688 14.429688 C 29.648438 15.742188 28.023438 16.992188 25.992188 16.992188 Z M 25.085938 16.992188 "/>
<path fill-rule="nonzero" fill="rgb(0%, 0%, 0%)" fill-opacity="1" d="M 40.824219 9.617188 C 37.949219 11.492188 35.917969 14.710938 35.917969 18.773438 C 35.917969 22.492188 38.011719 26.242188 40.761719 27.929688 L 41.011719 27.617188 C 38.386719 25.523438 37.605469 23.117188 37.605469 18.710938 C 37.605469 14.273438 38.449219 11.992188 41.011719 9.929688 Z M 40.824219 9.617188 "/>
<path fill-rule="nonzero" fill="rgb(0%, 0%, 0%)" fill-opacity="1" d="M 51.316406 20.429688 L 50.847656 20.429688 C 50.722656 21.023438 50.597656 21.898438 50.378906 22.210938 C 50.253906 22.367188 48.941406 22.367188 48.503906 22.367188 L 44.910156 22.367188 L 47.035156 20.304688 C 50.128906 17.554688 51.316406 16.492188 51.316406 14.492188 C 51.316406 12.210938 49.535156 10.617188 47.097656 10.617188 C 44.847656 10.617188 43.378906 12.460938 43.378906 14.242188 C 43.378906 15.335938 44.378906 15.335938 44.441406 15.335938 C 44.785156 15.335938 45.472656 15.117188 45.472656 14.273438 C 45.472656 13.773438 45.097656 13.242188 44.410156 13.242188 C 44.253906 13.242188 44.222656 13.242188 44.160156 13.273438 C 44.597656 11.960938 45.691406 11.242188 46.847656 11.242188 C 48.660156 11.242188 49.503906 12.867188 49.503906 14.492188 C 49.503906 16.085938 48.535156 17.648438 47.410156 18.898438 L 43.597656 23.148438 C 43.378906 23.367188 43.378906 23.429688 43.378906 23.898438 L 50.785156 23.898438 Z M 51.316406 20.429688 "/>
<path fill-rule="nonzero" fill="rgb(0%, 0%, 0%)" fill-opacity="1" d="M 53.09375 9.617188 L 52.9375 9.929688 C 55.5 11.992188 56.3125 14.273438 56.3125 18.710938 C 56.3125 23.117188 55.5625 25.523438 52.9375 27.617188 L 53.15625 27.929688 C 55.90625 26.242188 58.03125 22.492188 58.03125 18.773438 C 58.03125 14.710938 56 11.492188 53.09375 9.617188 Z M 53.09375 9.617188 "/>
<path fill-rule="nonzero" fill="rgb(0%, 0%, 0%)" fill-opacity="1" d="M 75.960938 23.210938 L 71.523438 18.773438 L 75.960938 14.335938 L 75.179688 13.523438 L 70.742188 17.992188 L 66.304688 13.523438 L 65.523438 14.335938 L 69.929688 18.773438 L 65.523438 23.210938 L 66.304688 23.992188 L 70.742188 19.554688 L 75.179688 23.992188 Z M 75.960938 23.210938 "/>
<path fill-rule="nonzero" fill="rgb(0%, 0%, 0%)" fill-opacity="1" d="M 91.734375 15.304688 C 91.734375 12.429688 90.859375 10.117188 88.703125 10.117188 C 87.015625 10.117188 85.203125 11.710938 85.203125 12.585938 C 85.203125 13.242188 85.734375 13.523438 86.140625 13.523438 C 86.546875 13.523438 86.796875 13.179688 86.859375 13.117188 C 86.796875 13.085938 86.671875 12.898438 86.671875 12.617188 C 86.671875 12.429688 87.015625 10.710938 88.734375 10.710938 C 90.171875 10.710938 90.484375 12.554688 90.484375 14.179688 C 90.484375 15.398438 90.328125 16.460938 90.328125 16.492188 L 90.296875 16.492188 C 90.296875 16.460938 89.515625 15.242188 87.953125 15.242188 C 83.953125 15.242188 82.296875 19.117188 82.296875 21.179688 C 82.296875 23.023438 83.390625 24.210938 85.609375 24.210938 C 89.046875 24.210938 91.734375 20.742188 91.734375 15.304688 Z M 89.453125 17.554688 C 89.453125 18.085938 88.953125 23.742188 85.734375 23.742188 C 84.609375 23.742188 84.109375 23.085938 84.109375 21.835938 C 84.109375 20.554688 84.921875 15.710938 87.796875 15.710938 C 88.921875 15.710938 89.453125 16.367188 89.453125 17.554688 Z M 89.453125 17.554688 "/>
<path fill-rule="nonzero" fill="rgb(0%, 0%, 0%)" fill-opacity="1" d="M 105.25 23.898438 L 99.6875 10.429688 L 99.34375 10.429688 L 93.40625 23.898438 Z M 102.9375 23.054688 L 94.71875 23.054688 L 99 13.398438 Z M 102.9375 23.054688 "/>
<path fill-rule="nonzero" fill="rgb(0%, 0%, 0%)" fill-opacity="1" d="M 112.625 16.664062 L 112.625 16.132812 L 112.0625 16.132812 C 110.625 16.132812 110.625 15.945312 110.625 15.476562 L 110.625 7.414062 C 110.625 7.039062 110.59375 7.007812 110.1875 7.007812 C 109.25 7.945312 107.9375 7.945312 107.34375 7.945312 L 107.34375 8.476562 C 107.6875 8.476562 108.65625 8.476562 109.4375 8.070312 L 109.4375 15.476562 C 109.4375 15.945312 109.4375 16.132812 108 16.132812 L 107.4375 16.132812 L 107.4375 16.664062 L 110.03125 16.601562 Z M 112.625 16.664062 "/>
<path fill-rule="nonzero" fill="rgb(0%, 0%, 0%)" fill-opacity="1" d="M 190.257812 15.304688 C 190.257812 12.429688 189.382812 10.117188 187.226562 10.117188 C 185.539062 10.117188 183.726562 11.710938 183.726562 12.585938 C 183.726562 13.242188 184.257812 13.523438 184.664062 13.523438 C 185.070312 13.523438 185.320312 13.179688 185.382812 13.117188 C 185.320312 13.085938 185.195312 12.898438 185.195312 12.617188 C 185.195312 12.429688 185.539062 10.710938 187.257812 10.710938 C 188.695312 10.710938 189.007812 12.554688 189.007812 14.179688 C 189.007812 15.398438 188.851562 16.460938 188.851562 16.492188 L 188.820312 16.492188 C 188.820312 16.460938 188.039062 15.242188 186.476562 15.242188 C 182.476562 15.242188 180.820312 19.117188 180.820312 21.179688 C 180.820312 23.023438 181.914062 24.210938 184.132812 24.210938 C 187.570312 24.210938 190.257812 20.742188 190.257812 15.304688 Z M 187.976562 17.554688 C 187.976562 18.085938 187.476562 23.742188 184.257812 23.742188 C 183.132812 23.742188 182.632812 23.085938 182.632812 21.835938 C 182.632812 20.554688 183.445312 15.710938 186.320312 15.710938 C 187.445312 15.710938 187.976562 16.367188 187.976562 17.554688 Z M 187.976562 17.554688 "/>
<path fill-rule="nonzero" fill="rgb(0%, 0%, 0%)" fill-opacity="1" d="M 195.648438 20.179688 L 196.429688 17.398438 L 197.710938 17.398438 C 200.429688 17.398438 202.710938 16.554688 203.710938 14.867188 C 204.054688 14.335938 204.210938 13.773438 204.210938 13.117188 C 204.210938 12.148438 203.773438 11.429688 202.898438 10.867188 C 202.054688 10.335938 200.835938 10.054688 199.304688 10.054688 L 194.304688 10.054688 L 194.210938 10.335938 C 194.585938 10.335938 194.867188 10.367188 195.117188 10.398438 C 195.679688 10.492188 195.960938 11.117188 195.960938 11.742188 C 195.960938 12.085938 195.898438 12.523438 195.742188 13.085938 L 193.585938 21.023438 C 193.398438 21.773438 193.085938 22.679688 192.710938 23.054688 C 192.367188 23.367188 191.804688 23.617188 191.242188 23.617188 L 191.148438 23.898438 L 197.117188 23.898438 L 197.210938 23.617188 C 195.835938 23.617188 195.242188 22.867188 195.242188 22.148438 C 195.242188 21.992188 195.304688 21.617188 195.398438 21.273438 C 195.460938 20.960938 195.523438 20.585938 195.648438 20.179688 Z M 196.523438 16.992188 L 197.773438 12.148438 C 197.992188 11.492188 198.148438 10.710938 198.742188 10.492188 C 198.867188 10.460938 199.085938 10.460938 199.304688 10.460938 C 201.242188 10.460938 202.210938 11.585938 202.210938 13.023438 C 202.210938 13.554688 202.085938 14.023438 201.867188 14.429688 C 201.085938 15.742188 199.460938 16.992188 197.429688 16.992188 Z M 196.523438 16.992188 "/>
<path fill-rule="nonzero" fill="rgb(0%, 0%, 0%)" fill-opacity="1" d="M 212.261719 9.617188 C 209.386719 11.492188 207.355469 14.710938 207.355469 18.773438 C 207.355469 22.492188 209.449219 26.242188 212.199219 27.929688 L 212.449219 27.617188 C 209.824219 25.523438 209.042969 23.117188 209.042969 18.710938 C 209.042969 14.273438 209.886719 11.992188 212.449219 9.929688 Z M 212.261719 9.617188 "/>
<path fill-rule="nonzero" fill="rgb(0%, 0%, 0%)" fill-opacity="1" d="M 222.753906 20.429688 L 222.285156 20.429688 C 222.160156 21.023438 222.035156 21.898438 221.816406 22.210938 C 221.691406 22.367188 220.378906 22.367188 219.941406 22.367188 L 216.347656 22.367188 L 218.472656 20.304688 C 221.566406 17.554688 222.753906 16.492188 222.753906 14.492188 C 222.753906 12.210938 220.972656 10.617188 218.535156 10.617188 C 216.285156 10.617188 214.816406 12.460938 214.816406 14.242188 C 214.816406 15.335938 215.816406 15.335938 215.878906 15.335938 C 216.222656 15.335938 216.910156 15.117188 216.910156 14.273438 C 216.910156 13.773438 216.535156 13.242188 215.847656 13.242188 C 215.691406 13.242188 215.660156 13.242188 215.597656 13.273438 C 216.035156 11.960938 217.128906 11.242188 218.285156 11.242188 C 220.097656 11.242188 220.941406 12.867188 220.941406 14.492188 C 220.941406 16.085938 219.972656 17.648438 218.847656 18.898438 L 215.035156 23.148438 C 214.816406 23.367188 214.816406 23.429688 214.816406 23.898438 L 222.222656 23.898438 Z M 222.753906 20.429688 "/>
<path fill-rule="nonzero" fill="rgb(0%, 0%, 0%)" fill-opacity="1" d="M 224.53125 9.617188 L 224.375 9.929688 C 226.9375 11.992188 227.75 14.273438 227.75 18.710938 C 227.75 23.117188 227 25.523438 224.375 27.617188 L 224.59375 27.929688 C 227.34375 26.242188 229.46875 22.492188 229.46875 18.773438 C 229.46875 14.710938 227.4375 11.492188 224.53125 9.617188 Z M 224.53125 9.617188 "/>
<path fill-rule="nonzero" fill="rgb(0%, 0%, 0%)" fill-opacity="1" d="M 41.679688 91.167969 L 42.460938 88.386719 L 43.742188 88.386719 C 46.460938 88.386719 48.742188 87.542969 49.742188 85.855469 C 50.085938 85.324219 50.242188 84.761719 50.242188 84.105469 C 50.242188 83.136719 49.804688 82.417969 48.929688 81.855469 C 48.085938 81.324219 46.867188 81.042969 45.335938 81.042969 L 40.335938 81.042969 L 40.242188 81.324219 C 40.617188 81.324219 40.898438 81.355469 41.148438 81.386719 C 41.710938 81.480469 41.992188 82.105469 41.992188 82.730469 C 41.992188 83.074219 41.929688 83.511719 41.773438 84.074219 L 39.617188 92.011719 C 39.429688 92.761719 39.117188 93.667969 38.742188 94.042969 C 38.398438 94.355469 37.835938 94.605469 37.273438 94.605469 L 37.179688 94.886719 L 43.148438 94.886719 L 43.242188 94.605469 C 41.867188 94.605469 41.273438 93.855469 41.273438 93.136719 C 41.273438 92.980469 41.335938 92.605469 41.429688 92.261719 C 41.492188 91.949219 41.554688 91.574219 41.679688 91.167969 Z M 42.554688 87.980469 L 43.804688 83.136719 C 44.023438 82.480469 44.179688 81.699219 44.773438 81.480469 C 44.898438 81.449219 45.117188 81.449219 45.335938 81.449219 C 47.273438 81.449219 48.242188 82.574219 48.242188 84.011719 C 48.242188 84.542969 48.117188 85.011719 47.898438 85.417969 C 47.117188 86.730469 45.492188 87.980469 43.460938 87.980469 Z M 42.554688 87.980469 "/>
<path fill-rule="nonzero" fill="rgb(0%, 0%, 0%)" fill-opacity="1" d="M 58.289062 80.605469 C 55.414062 82.480469 53.382812 85.699219 53.382812 89.761719 C 53.382812 93.480469 55.476562 97.230469 58.226562 98.917969 L 58.476562 98.605469 C 55.851562 96.511719 55.070312 94.105469 55.070312 89.699219 C 55.070312 85.261719 55.914062 82.980469 58.476562 80.917969 Z M 58.289062 80.605469 "/>
<path fill-rule="nonzero" fill="rgb(0%, 0%, 0%)" fill-opacity="1" d="M 68.785156 91.417969 L 68.316406 91.417969 C 68.191406 92.011719 68.066406 92.886719 67.847656 93.199219 C 67.722656 93.355469 66.410156 93.355469 65.972656 93.355469 L 62.378906 93.355469 L 64.503906 91.292969 C 67.597656 88.542969 68.785156 87.480469 68.785156 85.480469 C 68.785156 83.199219 67.003906 81.605469 64.566406 81.605469 C 62.316406 81.605469 60.847656 83.449219 60.847656 85.230469 C 60.847656 86.324219 61.847656 86.324219 61.910156 86.324219 C 62.253906 86.324219 62.941406 86.105469 62.941406 85.261719 C 62.941406 84.761719 62.566406 84.230469 61.878906 84.230469 C 61.722656 84.230469 61.691406 84.230469 61.628906 84.261719 C 62.066406 82.949219 63.160156 82.230469 64.316406 82.230469 C 66.128906 82.230469 66.972656 83.855469 66.972656 85.480469 C 66.972656 87.074219 66.003906 88.636719 64.878906 89.886719 L 61.066406 94.136719 C 60.847656 94.355469 60.847656 94.417969 60.847656 94.886719 L 68.253906 94.886719 Z M 68.785156 91.417969 "/>
<path fill-rule="nonzero" fill="rgb(0%, 0%, 0%)" fill-opacity="1" d="M 70.558594 80.605469 L 70.402344 80.917969 C 72.964844 82.980469 73.777344 85.261719 73.777344 89.699219 C 73.777344 94.105469 73.027344 96.511719 70.402344 98.605469 L 70.621094 98.917969 C 73.371094 97.230469 75.496094 93.480469 75.496094 89.761719 C 75.496094 85.699219 73.464844 82.480469 70.558594 80.605469 Z M 70.558594 80.605469 "/>
<path fill-rule="nonzero" fill="rgb(0%, 0%, 0%)" fill-opacity="1" d="M 84.34375 93.25 C 84.34375 91.65625 84.15625 90.5 83.5 89.46875 C 83.03125 88.8125 82.125 88.21875 80.96875 88.21875 C 77.59375 88.21875 77.59375 92.1875 77.59375 93.25 C 77.59375 94.28125 77.59375 98.15625 80.96875 98.15625 C 84.34375 98.15625 84.34375 94.28125 84.34375 93.25 Z M 83.03125 93.0625 C 83.03125 94.125 83.03125 95.1875 82.84375 96.125 C 82.53125 97.4375 81.5625 97.75 80.96875 97.75 C 80.3125 97.75 79.40625 97.375 79.125 96.1875 C 78.90625 95.3125 78.90625 94.125 78.90625 93.0625 C 78.90625 92 78.90625 90.875 79.125 90.09375 C 79.4375 88.9375 80.375 88.625 80.96875 88.625 C 81.75 88.625 82.5 89.125 82.78125 89.96875 C 83 90.75 83.03125 91.78125 83.03125 93.0625 Z M 83.03125 93.0625 "/>
<path fill-rule="nonzero" fill="rgb(0%, 0%, 0%)" fill-opacity="1" d="M 199.1875 86.292969 C 199.1875 83.417969 198.3125 81.105469 196.15625 81.105469 C 194.46875 81.105469 192.65625 82.699219 192.65625 83.574219 C 192.65625 84.230469 193.1875 84.511719 193.59375 84.511719 C 194 84.511719 194.25 84.167969 194.3125 84.105469 C 194.25 84.074219 194.125 83.886719 194.125 83.605469 C 194.125 83.417969 194.46875 81.699219 196.1875 81.699219 C 197.625 81.699219 197.9375 83.542969 197.9375 85.167969 C 197.9375 86.386719 197.78125 87.449219 197.78125 87.480469 L 197.75 87.480469 C 197.75 87.449219 196.96875 86.230469 195.40625 86.230469 C 191.40625 86.230469 189.75 90.105469 189.75 92.167969 C 189.75 94.011719 190.84375 95.199219 193.0625 95.199219 C 196.5 95.199219 199.1875 91.730469 199.1875 86.292969 Z M 196.90625 88.542969 C 196.90625 89.074219 196.40625 94.730469 193.1875 94.730469 C 192.0625 94.730469 191.5625 94.074219 191.5625 92.824219 C 191.5625 91.542969 192.375 86.699219 195.25 86.699219 C 196.375 86.699219 196.90625 87.355469 196.90625 88.542969 Z M 196.90625 88.542969 "/>
<path fill-rule="nonzero" fill="rgb(0%, 0%, 0%)" fill-opacity="1" d="M 212.703125 94.886719 L 207.140625 81.417969 L 206.796875 81.417969 L 200.859375 94.886719 Z M 210.390625 94.042969 L 202.171875 94.042969 L 206.453125 84.386719 Z M 210.390625 94.042969 "/>
<path fill-rule="nonzero" fill="rgb(0%, 0%, 0%)" fill-opacity="1" d="M 220.546875 84.996094 L 220.046875 84.996094 C 220.015625 85.339844 219.859375 86.183594 219.671875 86.339844 C 219.546875 86.402344 218.421875 86.402344 218.234375 86.402344 L 215.546875 86.402344 C 217.078125 85.058594 217.578125 84.652344 218.453125 83.964844 C 219.546875 83.121094 220.546875 82.214844 220.546875 80.839844 C 220.546875 79.089844 219.015625 77.996094 217.140625 77.996094 C 215.328125 77.996094 214.109375 79.277344 214.109375 80.589844 C 214.109375 81.339844 214.734375 81.433594 214.890625 81.433594 C 215.234375 81.433594 215.671875 81.183594 215.671875 80.652344 C 215.671875 80.402344 215.546875 79.871094 214.796875 79.871094 C 215.265625 78.839844 216.234375 78.527344 216.921875 78.527344 C 218.390625 78.527344 219.140625 79.652344 219.140625 80.839844 C 219.140625 82.089844 218.234375 83.089844 217.765625 83.621094 L 214.265625 87.089844 C 214.109375 87.214844 214.109375 87.246094 214.109375 87.652344 L 220.109375 87.652344 Z M 220.546875 84.996094 "/>
<path fill="none" stroke-width="0.5579" stroke-linecap="butt" stroke-linejoin="miter" stroke="rgb(0%, 0%, 0%)" stroke-opacity="1" stroke-miterlimit="10" d="M 2.007812 17.136282 L 24.960938 17.136282 " transform="matrix(2, 0, 0, -2, 120, 53.046001)"/>
<path fill="none" stroke-width="0.5579" stroke-linecap="round" stroke-linejoin="round" stroke="rgb(0%, 0%, 0%)" stroke-opacity="1" stroke-miterlimit="10" d="M -2.90136 3.345551 C -2.37011 1.337739 -1.190422 0.392426 0.000984192 0.00180149 C -1.190422 -0.388824 -2.37011 -1.338042 -2.90136 -3.345855 " transform="matrix(2, 0, 0, -2, 170.482407, 18.77704)"/>
<path fill-rule="nonzero" fill="rgb(0%, 0%, 0%)" fill-opacity="1" d="M 144.347656 7.421875 C 144.347656 5.609375 142.847656 4.140625 141.003906 4.140625 C 140.191406 4.140625 139.347656 4.453125 138.753906 5.015625 L 138.753906 4.140625 L 136.566406 4.296875 L 136.566406 4.828125 C 137.566406 4.828125 137.660156 4.890625 137.660156 5.515625 L 137.660156 12.203125 C 137.660156 12.828125 137.503906 12.828125 136.566406 12.828125 L 136.566406 13.359375 C 136.566406 13.359375 137.597656 13.296875 138.222656 13.296875 C 138.753906 13.296875 139.753906 13.359375 139.878906 13.359375 L 139.878906 12.828125 C 138.941406 12.828125 138.785156 12.828125 138.785156 12.203125 L 138.785156 9.859375 C 138.878906 9.921875 139.566406 10.703125 140.785156 10.703125 C 142.691406 10.703125 144.347656 9.265625 144.347656 7.421875 Z M 143.003906 7.421875 C 143.003906 9.078125 141.910156 10.296875 140.691406 10.296875 C 139.410156 10.296875 138.847656 9.171875 138.785156 9.078125 L 138.785156 5.703125 C 139.222656 4.984375 140.066406 4.609375 140.847656 4.609375 C 142.066406 4.609375 143.003906 5.890625 143.003906 7.421875 Z M 143.003906 7.421875 "/>
<path fill-rule="nonzero" fill="rgb(0%, 0%, 0%)" fill-opacity="1" d="M 150.929688 5.078125 C 150.929688 4.578125 150.460938 4.140625 149.804688 4.140625 C 149.054688 4.140625 148.273438 4.578125 147.835938 5.703125 L 147.804688 5.703125 L 147.804688 4.140625 L 145.742188 4.296875 L 145.742188 4.828125 C 146.710938 4.828125 146.835938 4.921875 146.835938 5.640625 L 146.835938 9.390625 C 146.835938 10.015625 146.679688 10.015625 145.742188 10.015625 L 145.742188 10.546875 C 145.804688 10.546875 146.804688 10.484375 147.398438 10.484375 L 149.273438 10.546875 L 149.273438 10.015625 L 148.992188 10.015625 C 147.929688 10.015625 147.929688 9.859375 147.929688 9.359375 L 147.929688 7.234375 C 147.929688 6.015625 148.492188 4.546875 149.867188 4.546875 C 149.742188 4.640625 149.617188 4.828125 149.617188 5.078125 C 149.617188 5.546875 149.992188 5.734375 150.273438 5.734375 C 150.617188 5.734375 150.929688 5.515625 150.929688 5.078125 Z M 150.929688 5.078125 "/>
<path fill-rule="nonzero" fill="rgb(0%, 0%, 0%)" fill-opacity="1" d="M 157.050781 13.925781 L 157.050781 13.488281 L 156.582031 13.488281 C 155.457031 13.488281 155.457031 13.363281 155.457031 12.988281 L 155.457031 6.957031 C 155.457031 6.644531 155.425781 6.644531 155.082031 6.644531 C 154.363281 7.332031 153.238281 7.332031 152.832031 7.332031 L 152.832031 7.769531 C 153.144531 7.769531 153.863281 7.769531 154.519531 7.457031 L 154.519531 12.988281 C 154.519531 13.363281 154.519531 13.488281 153.394531 13.488281 L 152.925781 13.488281 L 152.925781 13.925781 C 153.519531 13.894531 154.363281 13.894531 154.988281 13.894531 C 155.613281 13.894531 156.457031 13.894531 157.050781 13.925781 Z M 157.050781 13.925781 "/>
<path fill="none" stroke-width="0.5579" stroke-linecap="butt" stroke-linejoin="miter" stroke="rgb(0%, 0%, 0%)" stroke-opacity="1" stroke-miterlimit="10" d="M -29.097656 8.769094 L -29.097656 -9.465281 " transform="matrix(2, 0, 0, -2, 120, 53.046001)"/>
<path fill="none" stroke-width="0.5579" stroke-linecap="round" stroke-linejoin="round" stroke="rgb(0%, 0%, 0%)" stroke-opacity="1" stroke-miterlimit="10" d="M -2.90266 3.346189 C -2.37141 1.338377 -1.191723 0.389158 -0.00031662 -0.00146675 C -1.191723 -0.392092 -2.37141 -1.337404 -2.90266 -3.349123 " transform="matrix(0, 2, 2, 0, 61.807621, 72.531883)"/>
<path fill-rule="nonzero" fill="rgb(0%, 0%, 0%)" fill-opacity="1" d="M 48.515625 57.980469 L 45.140625 48.355469 L 42.703125 48.355469 L 39.203125 57.980469 L 39.859375 57.980469 L 40.984375 54.949219 L 44.890625 54.949219 L 46.015625 57.980469 Z M 47.640625 57.355469 L 46.421875 57.355469 L 43.484375 49.011719 L 44.703125 49.011719 Z M 44.671875 54.292969 L 41.234375 54.292969 L 42.953125 49.480469 L 42.984375 49.480469 Z M 44.671875 54.292969 "/>
<path fill-rule="nonzero" fill="rgb(0%, 0%, 0%)" fill-opacity="1" d="M 55.296875 56.660156 C 55.296875 55.847656 55.296875 52.878906 52.609375 52.878906 C 49.921875 52.878906 49.921875 55.847656 49.921875 56.660156 C 49.921875 57.441406 49.921875 60.378906 52.609375 60.378906 C 55.296875 60.378906 55.296875 57.441406 55.296875 56.660156 Z M 54.265625 56.503906 C 54.265625 57.222656 54.265625 58.316406 54.078125 58.941406 C 53.765625 59.910156 52.984375 60.035156 52.609375 60.035156 C 52.140625 60.035156 51.390625 59.816406 51.140625 58.910156 C 50.953125 58.285156 50.953125 57.191406 50.953125 56.503906 C 50.953125 55.785156 50.953125 54.941406 51.109375 54.347656 C 51.390625 53.347656 52.234375 53.222656 52.609375 53.222656 C 53.109375 53.222656 53.828125 53.472656 54.078125 54.285156 C 54.234375 54.878906 54.265625 55.660156 54.265625 56.503906 Z M 54.265625 56.503906 "/>
<path fill="none" stroke-width="0.5579" stroke-linecap="butt" stroke-linejoin="miter" stroke="rgb(0%, 0%, 0%)" stroke-opacity="1" stroke-miterlimit="10" d="M 42.859375 8.769094 L 42.859375 -8.207468 " transform="matrix(2, 0, 0, -2, 120, 53.046001)"/>
<path fill="none" stroke-width="0.5579" stroke-linecap="round" stroke-linejoin="round" stroke="rgb(0%, 0%, 0%)" stroke-opacity="1" stroke-miterlimit="10" d="M -2.901924 3.346733 C -2.370674 1.338921 -1.190987 0.389702 0.000419617 -0.000923157 C -1.190987 -0.391548 -2.370674 -1.340767 -2.901924 -3.348579 " transform="matrix(0, 2, 2, 0, 205.720596, 70.022598)"/>
<path fill-rule="nonzero" fill="rgb(0%, 0%, 0%)" fill-opacity="1" d="M 216.507812 48.875 C 216.507812 48.625 216.320312 48.34375 216.039062 48.34375 C 215.726562 48.34375 214.507812 49.5625 214.101562 49.78125 C 214.101562 48.96875 214.507812 48.15625 214.507812 47.6875 C 214.507812 47.375 214.320312 47.1875 214.007812 47.1875 C 213.695312 47.1875 213.539062 47.375 213.539062 47.6875 C 213.539062 48.25 213.882812 49 213.882812 49.78125 C 213.414062 49.53125 212.289062 48.3125 211.976562 48.3125 C 211.726562 48.3125 211.476562 48.53125 211.476562 48.8125 C 211.476562 49.3125 213.195312 49.65625 213.757812 49.96875 C 213.164062 50.34375 212.007812 50.5 211.726562 50.6875 C 211.601562 50.8125 211.476562 50.9375 211.476562 51.125 C 211.476562 51.375 211.664062 51.625 211.945312 51.625 C 212.257812 51.625 213.445312 50.4375 213.882812 50.1875 C 213.882812 51 213.476562 51.8125 213.476562 52.3125 C 213.476562 52.59375 213.695312 52.8125 213.976562 52.8125 C 214.289062 52.8125 214.445312 52.59375 214.445312 52.3125 C 214.445312 51.71875 214.101562 50.96875 214.101562 50.1875 C 214.570312 50.4375 215.726562 51.65625 216.007812 51.65625 C 216.257812 51.65625 216.507812 51.4375 216.507812 51.15625 C 216.507812 50.96875 216.382812 50.84375 216.226562 50.75 C 215.851562 50.5 214.851562 50.34375 214.226562 49.96875 C 214.914062 49.5625 215.820312 49.53125 216.257812 49.28125 C 216.414062 49.1875 216.507812 49.0625 216.507812 48.875 Z M 216.507812 48.875 "/>
<path fill-rule="nonzero" fill="rgb(0%, 0%, 0%)" fill-opacity="1" d="M 223.058594 54.097656 C 223.058594 52.503906 222.558594 51.222656 221.371094 51.222656 C 220.464844 51.222656 219.464844 52.097656 219.464844 52.597656 C 219.464844 52.972656 219.746094 53.097656 219.964844 53.097656 C 220.183594 53.097656 220.339844 52.941406 220.371094 52.878906 C 220.339844 52.847656 220.277344 52.753906 220.277344 52.597656 C 220.277344 52.503906 220.464844 51.566406 221.402344 51.566406 C 222.183594 51.566406 222.371094 52.566406 222.371094 53.472656 C 222.371094 54.128906 222.277344 54.722656 222.277344 54.722656 L 222.246094 54.722656 C 222.246094 54.722656 221.839844 54.066406 220.964844 54.066406 C 218.777344 54.066406 217.871094 56.191406 217.871094 57.316406 C 217.871094 58.347656 218.464844 59.003906 219.683594 59.003906 C 221.558594 59.003906 223.058594 57.066406 223.058594 54.097656 Z M 221.808594 55.316406 C 221.808594 55.628906 221.527344 58.722656 219.746094 58.722656 C 219.121094 58.722656 218.839844 58.378906 218.839844 57.660156 C 218.839844 56.972656 219.308594 54.316406 220.902344 54.316406 C 221.496094 54.316406 221.808594 54.691406 221.808594 55.316406 Z M 221.808594 55.316406 "/>
<path fill-rule="nonzero" fill="rgb(0%, 0%, 0%)" fill-opacity="1" d="M 230.496094 58.816406 L 227.433594 51.410156 L 227.246094 51.410156 L 223.964844 58.816406 Z M 229.214844 58.347656 L 224.714844 58.347656 L 227.058594 53.035156 Z M 229.214844 58.347656 "/>
<path fill-rule="nonzero" fill="rgb(0%, 0%, 0%)" fill-opacity="1" d="M 236.667969 53.585938 L 236.261719 53.585938 C 236.230469 53.742188 236.136719 54.460938 235.949219 54.585938 C 235.886719 54.648438 234.980469 54.648438 234.855469 54.648438 L 232.792969 54.648438 L 234.199219 53.523438 C 234.574219 53.210938 235.542969 52.523438 235.886719 52.179688 C 236.199219 51.867188 236.667969 51.304688 236.667969 50.523438 C 236.667969 49.148438 235.417969 48.367188 233.949219 48.367188 C 232.542969 48.367188 231.542969 49.273438 231.542969 50.304688 C 231.542969 50.867188 232.011719 50.929688 232.136719 50.929688 C 232.417969 50.929688 232.730469 50.742188 232.730469 50.335938 C 232.730469 50.117188 232.605469 49.773438 232.105469 49.773438 C 232.355469 49.210938 233.042969 48.773438 233.792969 48.773438 C 234.949219 48.773438 235.542969 49.648438 235.542969 50.523438 C 235.542969 51.304688 235.042969 52.117188 234.261719 52.804688 L 231.667969 55.179688 C 231.574219 55.304688 231.542969 55.304688 231.542969 55.648438 L 236.324219 55.648438 Z M 236.667969 53.585938 "/>
<g clip-path="url(#clip-0)">
<path fill="none" stroke-width="2.49017" stroke-linecap="butt" stroke-linejoin="miter" stroke="rgb(0%, 0%, 0%)" stroke-opacity="1" stroke-miterlimit="10" d="M -2.617188 -5.301218 L 14.039062 2.917532 " transform="matrix(2, 0, 0, -2, 120, 53.046001)"/>
</g>
<path fill="none" stroke-width="1.37434" stroke-linecap="butt" stroke-linejoin="miter" stroke="rgb(100%, 100%, 100%)" stroke-opacity="1" stroke-miterlimit="10" d="M -2.617188 -5.301218 L 14.039062 2.917532 " transform="matrix(2, 0, 0, -2, 120, 53.046001)"/>
<path fill="none" stroke-width="0.5579" stroke-linecap="round" stroke-linejoin="round" stroke="rgb(0%, 0%, 0%)" stroke-opacity="1" stroke-miterlimit="10" d="M -1.294163 2.561054 C -0.668376 1.206991 1.025539 0.0491401 1.990173 0.000206366 C 1.024332 -0.0504479 -0.665781 -1.207409 -1.294373 -2.561279 " transform="matrix(1.79358, -0.88468, -0.88468, -1.79358, 148.079086, 47.214161)"/>
<path fill-rule="nonzero" fill="rgb(0%, 0%, 0%)" fill-opacity="1" d="M 142.101562 70 C 143.351562 70 144.039062 69.03125 144.476562 68.3125 L 144.195312 68.125 C 143.914062 68.53125 143.414062 69.40625 142.914062 69.40625 C 142.632812 69.40625 142.539062 69.03125 142.539062 68.84375 C 142.539062 68.53125 143.664062 65.25 143.664062 64.8125 C 143.664062 64.03125 143.382812 63.53125 142.601562 63.53125 C 142.257812 63.53125 141.664062 63.65625 141.351562 63.84375 C 141.039062 64.0625 140.757812 64.34375 140.507812 64.6875 L 140.445312 64.84375 L 141.914062 59.1875 L 139.757812 59.3125 L 139.726562 59.53125 C 140.132812 59.53125 140.320312 59.65625 140.445312 59.75 C 140.632812 59.84375 140.726562 60.0625 140.726562 60.21875 C 140.726562 60.5 140.632812 60.84375 140.539062 61.09375 L 138.101562 69.875 L 138.945312 69.875 C 139.476562 68.21875 140.039062 66.21875 140.820312 64.96875 C 141.132812 64.40625 141.664062 63.875 142.320312 63.875 C 142.882812 63.875 142.726562 64.84375 142.632812 65.28125 C 142.570312 65.5 142.476562 65.8125 142.320312 66.21875 C 141.820312 67.84375 141.507812 68.59375 141.507812 69.25 C 141.507812 69.71875 141.664062 70 142.101562 70 Z M 142.101562 70 "/>
<path fill-rule="nonzero" fill="rgb(0%, 0%, 0%)" fill-opacity="1" d="M 150.429688 72.054688 L 150.429688 71.617188 L 149.960938 71.617188 C 148.835938 71.617188 148.835938 71.492188 148.835938 71.117188 L 148.835938 65.085938 C 148.835938 64.773438 148.804688 64.773438 148.460938 64.773438 C 147.742188 65.460938 146.617188 65.460938 146.210938 65.460938 L 146.210938 65.898438 C 146.523438 65.898438 147.242188 65.898438 147.898438 65.585938 L 147.898438 71.117188 C 147.898438 71.492188 147.898438 71.617188 146.773438 71.617188 L 146.304688 71.617188 L 146.304688 72.054688 C 146.898438 72.023438 147.742188 72.023438 148.367188 72.023438 C 148.992188 72.023438 149.835938 72.023438 150.429688 72.054688 Z M 150.429688 72.054688 "/>
<path fill="none" stroke-width="0.5579" stroke-linecap="butt" stroke-linejoin="miter" stroke="rgb(0%, 0%, 0%)" stroke-opacity="1" stroke-miterlimit="10" d="M -12.445312 -18.359812 L 29.425781 -18.359812 " transform="matrix(2, 0, 0, -2, 120, 53.046001)"/>
<path fill="none" stroke-width="0.5579" stroke-linecap="round" stroke-linejoin="round" stroke="rgb(0%, 0%, 0%)" stroke-opacity="1" stroke-miterlimit="10" d="M -2.901405 3.347084 C -2.370155 1.339272 -1.190468 0.390053 0.000938416 -0.000572205 C -1.190468 -0.391197 -2.370155 -1.340416 -2.901405 -3.348228 " transform="matrix(2, 0, 0, -2, 179.412186, 89.764481)"/>
<path fill-rule="nonzero" fill="rgb(0%, 0%, 0%)" fill-opacity="1" d="M 167.324219 76.089844 L 167.324219 76.964844 L 172.417969 76.964844 L 172.417969 71.871094 L 171.542969 71.871094 L 171.542969 76.089844 Z M 167.324219 76.089844 "/>
</svg>
