<?xml version="1.0" encoding="UTF-8"?>
<svg xmlns="http://www.w3.org/2000/svg" xmlns:xlink="http://www.w3.org/1999/xlink" width="259.23999" height="107.620003" viewBox="0 0 259.23999 107.620003">
<defs>
<clipPath id="clip-0">
<path clip-rule="nonzero" d="M 53 0 L 222 0 L 222 107.617188 L 53 107.617188 Z M 53 0 "/>
</clipPath>
<clipPath id="clip-1">
<path clip-rule="nonzero" d="M 76 3 L 199 3 L 199 107.617188 L 76 107.617188 Z M 76 3 "/>
</clipPath>
</defs>
<path fill-rule="nonzero" fill="rgb(0%, 0%, 0%)" fill-opacity="1" d="M 17.804688 16.925781 C 17.617188 15.675781 16.804688 14.550781 15.242188 14.550781 C 14.023438 14.550781 12.742188 14.894531 11.179688 16.425781 C 9.523438 18.082031 9.398438 19.957031 9.398438 20.550781 C 9.398438 21.800781 10.273438 24.113281 13.054688 24.113281 C 17.804688 24.113281 19.867188 17.425781 19.867188 14.550781 C 19.867188 11.394531 18.023438 9.394531 15.554688 9.394531 C 12.679688 9.394531 11.742188 11.988281 11.742188 12.550781 C 11.742188 12.832031 11.929688 13.238281 12.523438 13.238281 C 13.179688 13.238281 13.585938 12.644531 13.585938 12.207031 C 13.585938 11.488281 12.960938 11.488281 12.648438 11.488281 C 13.523438 10.019531 14.960938 9.894531 15.523438 9.894531 C 16.992188 9.894531 18.367188 10.925781 18.367188 13.519531 C 18.367188 14.300781 18.242188 15.300781 17.835938 16.925781 Z M 13.117188 23.550781 C 10.929688 23.550781 10.929688 21.488281 10.929688 21.300781 C 10.929688 20.769531 11.429688 17.988281 12.242188 16.769531 C 13.023438 15.644531 14.023438 14.988281 15.242188 14.988281 C 17.429688 14.988281 17.460938 17.238281 17.460938 17.644531 C 17.460938 19.082031 16.179688 23.550781 13.117188 23.550781 Z M 13.117188 23.550781 "/>
<path fill-rule="nonzero" fill="rgb(0%, 0%, 0%)" fill-opacity="1" d="M 26.273438 17.363281 L 29.679688 17.363281 C 32.492188 17.363281 35.273438 15.300781 35.273438 13.082031 C 35.273438 11.519531 33.960938 10.050781 31.335938 10.050781 L 24.898438 10.050781 C 24.523438 10.050781 24.304688 10.050781 24.304688 10.425781 C 24.304688 10.675781 24.460938 10.675781 24.867188 10.675781 C 25.117188 10.675781 25.492188 10.707031 25.710938 10.707031 C 26.054688 10.769531 26.148438 10.800781 26.148438 11.050781 C 26.148438 11.113281 26.148438 11.175781 26.085938 11.425781 L 23.398438 22.113281 C 23.210938 22.894531 23.179688 23.050781 21.585938 23.050781 C 21.273438 23.050781 21.054688 23.050781 21.054688 23.425781 C 21.054688 23.675781 21.273438 23.675781 21.335938 23.675781 C 21.898438 23.675781 23.304688 23.613281 23.867188 23.613281 C 24.304688 23.613281 24.742188 23.644531 25.148438 23.644531 C 25.585938 23.644531 26.023438 23.675781 26.429688 23.675781 C 26.585938 23.675781 26.835938 23.675781 26.835938 23.269531 C 26.835938 23.050781 26.648438 23.050781 26.273438 23.050781 C 25.554688 23.050781 24.992188 23.050781 24.992188 22.707031 C 24.992188 22.582031 25.023438 22.488281 25.054688 22.363281 Z M 27.710938 11.425781 C 27.898438 10.738281 27.929688 10.675781 28.804688 10.675781 L 30.710938 10.675781 C 32.367188 10.675781 33.429688 11.207031 33.429688 12.582031 C 33.429688 13.363281 33.023438 15.082031 32.242188 15.800781 C 31.242188 16.707031 30.054688 16.863281 29.179688 16.863281 L 26.367188 16.863281 Z M 27.710938 11.425781 "/>
<path fill-rule="nonzero" fill="rgb(0%, 0%, 0%)" fill-opacity="1" d="M 42.421875 28.457031 C 42.421875 28.394531 42.421875 28.363281 42.078125 28.019531 C 39.609375 25.519531 38.953125 21.738281 38.953125 18.675781 C 38.953125 15.207031 39.703125 11.738281 42.171875 9.269531 C 42.421875 9.019531 42.421875 8.988281 42.421875 8.925781 C 42.421875 8.769531 42.359375 8.707031 42.234375 8.707031 C 42.015625 8.707031 40.234375 10.082031 39.046875 12.613281 C 38.046875 14.800781 37.796875 17.019531 37.796875 18.675781 C 37.796875 20.238281 38.015625 22.644531 39.109375 24.925781 C 40.328125 27.363281 42.015625 28.675781 42.234375 28.675781 C 42.359375 28.675781 42.421875 28.613281 42.421875 28.457031 Z M 42.421875 28.457031 "/>
<path fill-rule="nonzero" fill="rgb(0%, 0%, 0%)" fill-opacity="1" d="M 46.09375 22.144531 L 48.21875 20.082031 C 51.3125 17.332031 52.5 16.269531 52.5 14.269531 C 52.5 11.988281 50.71875 10.394531 48.28125 10.394531 C 46.03125 10.394531 44.5625 12.238281 44.5625 14.019531 C 44.5625 15.113281 45.5625 15.113281 45.625 15.113281 C 45.96875 15.113281 46.65625 14.894531 46.65625 14.050781 C 46.65625 13.550781 46.28125 13.019531 45.59375 13.019531 C 45.4375 13.019531 45.40625 13.019531 45.34375 13.050781 C 45.78125 11.738281 46.875 11.019531 48.03125 11.019531 C 49.84375 11.019531 50.6875 12.644531 50.6875 14.269531 C 50.6875 15.863281 49.71875 17.425781 48.59375 18.675781 L 44.78125 22.925781 C 44.5625 23.144531 44.5625 23.207031 44.5625 23.675781 L 51.96875 23.675781 L 52.5 20.207031 L 52.03125 20.207031 C 51.90625 20.800781 51.78125 21.675781 51.5625 21.988281 C 51.4375 22.144531 50.125 22.144531 49.6875 22.144531 Z M 46.09375 22.144531 "/>
<path fill-rule="nonzero" fill="rgb(0%, 0%, 0%)" fill-opacity="1" d="M 59.273438 18.675781 C 59.273438 17.144531 59.054688 14.738281 57.960938 12.457031 C 56.773438 10.019531 55.054688 8.707031 54.867188 8.707031 C 54.742188 8.707031 54.648438 8.800781 54.648438 8.925781 C 54.648438 8.988281 54.648438 9.019531 55.023438 9.394531 C 56.992188 11.363281 58.117188 14.519531 58.117188 18.675781 C 58.117188 22.113281 57.398438 25.613281 54.929688 28.113281 C 54.648438 28.363281 54.648438 28.394531 54.648438 28.457031 C 54.648438 28.582031 54.742188 28.675781 54.867188 28.675781 C 55.054688 28.675781 56.867188 27.300781 58.023438 24.769531 C 59.054688 22.582031 59.273438 20.363281 59.273438 18.675781 Z M 59.273438 18.675781 "/>
<path fill-rule="nonzero" fill="rgb(0%, 0%, 0%)" fill-opacity="1" d="M 73.46875 18.144531 L 69.5 14.175781 C 69.25 13.925781 69.21875 13.894531 69.0625 13.894531 C 68.84375 13.894531 68.65625 14.050781 68.65625 14.300781 C 68.65625 14.425781 68.6875 14.457031 68.90625 14.675781 L 72.90625 18.675781 L 68.90625 22.707031 C 68.6875 22.925781 68.65625 22.957031 68.65625 23.082031 C 68.65625 23.332031 68.84375 23.488281 69.0625 23.488281 C 69.21875 23.488281 69.25 23.457031 69.5 23.207031 L 73.46875 19.238281 L 77.59375 23.363281 C 77.625 23.394531 77.75 23.488281 77.875 23.488281 C 78.125 23.488281 78.28125 23.332031 78.28125 23.082031 C 78.28125 23.050781 78.28125 22.988281 78.21875 22.863281 C 78.1875 22.832031 75.03125 19.707031 74.03125 18.675781 L 77.6875 15.050781 C 77.78125 14.925781 78.09375 14.675781 78.1875 14.550781 C 78.1875 14.519531 78.28125 14.425781 78.28125 14.300781 C 78.28125 14.050781 78.125 13.894531 77.875 13.894531 C 77.71875 13.894531 77.65625 13.957031 77.4375 14.175781 Z M 73.46875 18.144531 "/>
<path fill-rule="nonzero" fill="rgb(0%, 0%, 0%)" fill-opacity="1" d="M 94.863281 16.925781 C 94.675781 15.675781 93.863281 14.550781 92.300781 14.550781 C 91.082031 14.550781 89.800781 14.894531 88.238281 16.425781 C 86.582031 18.082031 86.457031 19.957031 86.457031 20.550781 C 86.457031 21.800781 87.332031 24.113281 90.113281 24.113281 C 94.863281 24.113281 96.925781 17.425781 96.925781 14.550781 C 96.925781 11.394531 95.082031 9.394531 92.613281 9.394531 C 89.738281 9.394531 88.800781 11.988281 88.800781 12.550781 C 88.800781 12.832031 88.988281 13.238281 89.582031 13.238281 C 90.238281 13.238281 90.644531 12.644531 90.644531 12.207031 C 90.644531 11.488281 90.019531 11.488281 89.707031 11.488281 C 90.582031 10.019531 92.019531 9.894531 92.582031 9.894531 C 94.050781 9.894531 95.425781 10.925781 95.425781 13.519531 C 95.425781 14.300781 95.300781 15.300781 94.894531 16.925781 Z M 90.175781 23.550781 C 87.988281 23.550781 87.988281 21.488281 87.988281 21.300781 C 87.988281 20.769531 88.488281 17.988281 89.300781 16.769531 C 90.082031 15.644531 91.082031 14.988281 92.300781 14.988281 C 94.488281 14.988281 94.519531 17.238281 94.519531 17.644531 C 94.519531 19.082031 93.238281 23.550781 90.175781 23.550781 Z M 90.175781 23.550781 "/>
<path fill-rule="nonzero" fill="rgb(0%, 0%, 0%)" fill-opacity="1" d="M 106.140625 9.769531 C 106.015625 9.488281 105.953125 9.394531 105.609375 9.394531 C 105.296875 9.394531 105.234375 9.488281 105.109375 9.769531 L 98.359375 23.269531 C 98.265625 23.457031 98.265625 23.488281 98.265625 23.519531 C 98.265625 23.675781 98.390625 23.675781 98.703125 23.675781 L 112.546875 23.675781 C 112.859375 23.675781 112.984375 23.675781 112.984375 23.519531 C 112.984375 23.488281 112.984375 23.457031 112.890625 23.269531 Z M 104.984375 11.394531 L 110.359375 22.175781 L 99.609375 22.175781 Z M 104.984375 11.394531 "/>
<path fill-rule="nonzero" fill="rgb(0%, 0%, 0%)" fill-opacity="1" d="M 118.589844 7.566406 C 118.589844 7.191406 118.589844 7.191406 118.183594 7.191406 C 117.277344 8.066406 116.027344 8.066406 115.464844 8.066406 L 115.464844 8.566406 C 115.777344 8.566406 116.714844 8.566406 117.464844 8.191406 L 117.464844 15.285156 C 117.464844 15.753906 117.464844 15.941406 116.089844 15.941406 L 115.558594 15.941406 L 115.558594 16.441406 C 115.808594 16.441406 117.527344 16.378906 118.027344 16.378906 C 118.464844 16.378906 120.214844 16.441406 120.527344 16.441406 L 120.527344 15.941406 L 119.996094 15.941406 C 118.589844 15.941406 118.589844 15.753906 118.589844 15.285156 Z M 118.589844 7.566406 "/>
<path fill-rule="nonzero" fill="rgb(0%, 0%, 0%)" fill-opacity="1" d="M 197.089844 16.925781 C 196.902344 15.675781 196.089844 14.550781 194.527344 14.550781 C 193.308594 14.550781 192.027344 14.894531 190.464844 16.425781 C 188.808594 18.082031 188.683594 19.957031 188.683594 20.550781 C 188.683594 21.800781 189.558594 24.113281 192.339844 24.113281 C 197.089844 24.113281 199.152344 17.425781 199.152344 14.550781 C 199.152344 11.394531 197.308594 9.394531 194.839844 9.394531 C 191.964844 9.394531 191.027344 11.988281 191.027344 12.550781 C 191.027344 12.832031 191.214844 13.238281 191.808594 13.238281 C 192.464844 13.238281 192.871094 12.644531 192.871094 12.207031 C 192.871094 11.488281 192.246094 11.488281 191.933594 11.488281 C 192.808594 10.019531 194.246094 9.894531 194.808594 9.894531 C 196.277344 9.894531 197.652344 10.925781 197.652344 13.519531 C 197.652344 14.300781 197.527344 15.300781 197.121094 16.925781 Z M 192.402344 23.550781 C 190.214844 23.550781 190.214844 21.488281 190.214844 21.300781 C 190.214844 20.769531 190.714844 17.988281 191.527344 16.769531 C 192.308594 15.644531 193.308594 14.988281 194.527344 14.988281 C 196.714844 14.988281 196.746094 17.238281 196.746094 17.644531 C 196.746094 19.082031 195.464844 23.550781 192.402344 23.550781 Z M 192.402344 23.550781 "/>
<path fill-rule="nonzero" fill="rgb(0%, 0%, 0%)" fill-opacity="1" d="M 205.558594 17.363281 L 208.964844 17.363281 C 211.777344 17.363281 214.558594 15.300781 214.558594 13.082031 C 214.558594 11.519531 213.246094 10.050781 210.621094 10.050781 L 204.183594 10.050781 C 203.808594 10.050781 203.589844 10.050781 203.589844 10.425781 C 203.589844 10.675781 203.746094 10.675781 204.152344 10.675781 C 204.402344 10.675781 204.777344 10.707031 204.996094 10.707031 C 205.339844 10.769531 205.433594 10.800781 205.433594 11.050781 C 205.433594 11.113281 205.433594 11.175781 205.371094 11.425781 L 202.683594 22.113281 C 202.496094 22.894531 202.464844 23.050781 200.871094 23.050781 C 200.558594 23.050781 200.339844 23.050781 200.339844 23.425781 C 200.339844 23.675781 200.558594 23.675781 200.621094 23.675781 C 201.183594 23.675781 202.589844 23.613281 203.152344 23.613281 C 203.589844 23.613281 204.027344 23.644531 204.433594 23.644531 C 204.871094 23.644531 205.308594 23.675781 205.714844 23.675781 C 205.871094 23.675781 206.121094 23.675781 206.121094 23.269531 C 206.121094 23.050781 205.933594 23.050781 205.558594 23.050781 C 204.839844 23.050781 204.277344 23.050781 204.277344 22.707031 C 204.277344 22.582031 204.308594 22.488281 204.339844 22.363281 Z M 206.996094 11.425781 C 207.183594 10.738281 207.214844 10.675781 208.089844 10.675781 L 209.996094 10.675781 C 211.652344 10.675781 212.714844 11.207031 212.714844 12.582031 C 212.714844 13.363281 212.308594 15.082031 211.527344 15.800781 C 210.527344 16.707031 209.339844 16.863281 208.464844 16.863281 L 205.652344 16.863281 Z M 206.996094 11.425781 "/>
<path fill-rule="nonzero" fill="rgb(0%, 0%, 0%)" fill-opacity="1" d="M 221.707031 28.457031 C 221.707031 28.394531 221.707031 28.363281 221.363281 28.019531 C 218.894531 25.519531 218.238281 21.738281 218.238281 18.675781 C 218.238281 15.207031 218.988281 11.738281 221.457031 9.269531 C 221.707031 9.019531 221.707031 8.988281 221.707031 8.925781 C 221.707031 8.769531 221.644531 8.707031 221.519531 8.707031 C 221.300781 8.707031 219.519531 10.082031 218.332031 12.613281 C 217.332031 14.800781 217.082031 17.019531 217.082031 18.675781 C 217.082031 20.238281 217.300781 22.644531 218.394531 24.925781 C 219.613281 27.363281 221.300781 28.675781 221.519531 28.675781 C 221.644531 28.675781 221.707031 28.613281 221.707031 28.457031 Z M 221.707031 28.457031 "/>
<path fill-rule="nonzero" fill="rgb(0%, 0%, 0%)" fill-opacity="1" d="M 225.375 22.144531 L 227.5 20.082031 C 230.59375 17.332031 231.78125 16.269531 231.78125 14.269531 C 231.78125 11.988281 230 10.394531 227.5625 10.394531 C 225.3125 10.394531 223.84375 12.238281 223.84375 14.019531 C 223.84375 15.113281 224.84375 15.113281 224.90625 15.113281 C 225.25 15.113281 225.9375 14.894531 225.9375 14.050781 C 225.9375 13.550781 225.5625 13.019531 224.875 13.019531 C 224.71875 13.019531 224.6875 13.019531 224.625 13.050781 C 225.0625 11.738281 226.15625 11.019531 227.3125 11.019531 C 229.125 11.019531 229.96875 12.644531 229.96875 14.269531 C 229.96875 15.863281 229 17.425781 227.875 18.675781 L 224.0625 22.925781 C 223.84375 23.144531 223.84375 23.207031 223.84375 23.675781 L 231.25 23.675781 L 231.78125 20.207031 L 231.3125 20.207031 C 231.1875 20.800781 231.0625 21.675781 230.84375 21.988281 C 230.71875 22.144531 229.40625 22.144531 228.96875 22.144531 Z M 225.375 22.144531 "/>
<path fill-rule="nonzero" fill="rgb(0%, 0%, 0%)" fill-opacity="1" d="M 238.558594 18.675781 C 238.558594 17.144531 238.339844 14.738281 237.246094 12.457031 C 236.058594 10.019531 234.339844 8.707031 234.152344 8.707031 C 234.027344 8.707031 233.933594 8.800781 233.933594 8.925781 C 233.933594 8.988281 233.933594 9.019531 234.308594 9.394531 C 236.277344 11.363281 237.402344 14.519531 237.402344 18.675781 C 237.402344 22.113281 236.683594 25.613281 234.214844 28.113281 C 233.933594 28.363281 233.933594 28.394531 233.933594 28.457031 C 233.933594 28.582031 234.027344 28.675781 234.152344 28.675781 C 234.339844 28.675781 236.152344 27.300781 237.308594 24.769531 C 238.339844 22.582031 238.558594 20.363281 238.558594 18.675781 Z M 238.558594 18.675781 "/>
<path fill-rule="nonzero" fill="rgb(0%, 0%, 0%)" fill-opacity="1" d="M 46.777344 89.027344 L 50.183594 89.027344 C 52.996094 89.027344 55.777344 86.964844 55.777344 84.746094 C 55.777344 83.183594 54.464844 81.714844 51.839844 81.714844 L 45.402344 81.714844 C 45.027344 81.714844 44.808594 81.714844 44.808594 82.089844 C 44.808594 82.339844 44.964844 82.339844 45.371094 82.339844 C 45.621094 82.339844 45.996094 82.371094 46.214844 82.371094 C 46.558594 82.433594 46.652344 82.464844 46.652344 82.714844 C 46.652344 82.777344 46.652344 82.839844 46.589844 83.089844 L 43.902344 93.777344 C 43.714844 94.558594 43.683594 94.714844 42.089844 94.714844 C 41.777344 94.714844 41.558594 94.714844 41.558594 95.089844 C 41.558594 95.339844 41.777344 95.339844 41.839844 95.339844 C 42.402344 95.339844 43.808594 95.277344 44.371094 95.277344 C 44.808594 95.277344 45.246094 95.308594 45.652344 95.308594 C 46.089844 95.308594 46.527344 95.339844 46.933594 95.339844 C 47.089844 95.339844 47.339844 95.339844 47.339844 94.933594 C 47.339844 94.714844 47.152344 94.714844 46.777344 94.714844 C 46.058594 94.714844 45.496094 94.714844 45.496094 94.371094 C 45.496094 94.246094 45.527344 94.152344 45.558594 94.027344 Z M 48.214844 83.089844 C 48.402344 82.402344 48.433594 82.339844 49.308594 82.339844 L 51.214844 82.339844 C 52.871094 82.339844 53.933594 82.871094 53.933594 84.246094 C 53.933594 85.027344 53.527344 86.746094 52.746094 87.464844 C 51.746094 88.371094 50.558594 88.527344 49.683594 88.527344 L 46.871094 88.527344 Z M 48.214844 83.089844 "/>
<path fill-rule="nonzero" fill="rgb(0%, 0%, 0%)" fill-opacity="1" d="M 62.902344 100.121094 C 62.902344 100.058594 62.902344 100.027344 62.558594 99.683594 C 60.089844 97.183594 59.433594 93.402344 59.433594 90.339844 C 59.433594 86.871094 60.183594 83.402344 62.652344 80.933594 C 62.902344 80.683594 62.902344 80.652344 62.902344 80.589844 C 62.902344 80.433594 62.839844 80.371094 62.714844 80.371094 C 62.496094 80.371094 60.714844 81.746094 59.527344 84.277344 C 58.527344 86.464844 58.277344 88.683594 58.277344 90.339844 C 58.277344 91.902344 58.496094 94.308594 59.589844 96.589844 C 60.808594 99.027344 62.496094 100.339844 62.714844 100.339844 C 62.839844 100.339844 62.902344 100.277344 62.902344 100.121094 Z M 62.902344 100.121094 "/>
<path fill-rule="nonzero" fill="rgb(0%, 0%, 0%)" fill-opacity="1" d="M 66.570312 93.808594 L 68.695312 91.746094 C 71.789062 88.996094 72.976562 87.933594 72.976562 85.933594 C 72.976562 83.652344 71.195312 82.058594 68.757812 82.058594 C 66.507812 82.058594 65.039062 83.902344 65.039062 85.683594 C 65.039062 86.777344 66.039062 86.777344 66.101562 86.777344 C 66.445312 86.777344 67.132812 86.558594 67.132812 85.714844 C 67.132812 85.214844 66.757812 84.683594 66.070312 84.683594 C 65.914062 84.683594 65.882812 84.683594 65.820312 84.714844 C 66.257812 83.402344 67.351562 82.683594 68.507812 82.683594 C 70.320312 82.683594 71.164062 84.308594 71.164062 85.933594 C 71.164062 87.527344 70.195312 89.089844 69.070312 90.339844 L 65.257812 94.589844 C 65.039062 94.808594 65.039062 94.871094 65.039062 95.339844 L 72.445312 95.339844 L 72.976562 91.871094 L 72.507812 91.871094 C 72.382812 92.464844 72.257812 93.339844 72.039062 93.652344 C 71.914062 93.808594 70.601562 93.808594 70.164062 93.808594 Z M 66.570312 93.808594 "/>
<path fill-rule="nonzero" fill="rgb(0%, 0%, 0%)" fill-opacity="1" d="M 79.75 90.339844 C 79.75 88.808594 79.53125 86.402344 78.4375 84.121094 C 77.25 81.683594 75.53125 80.371094 75.34375 80.371094 C 75.21875 80.371094 75.125 80.464844 75.125 80.589844 C 75.125 80.652344 75.125 80.683594 75.5 81.058594 C 77.46875 83.027344 78.59375 86.183594 78.59375 90.339844 C 78.59375 93.777344 77.875 97.277344 75.40625 99.777344 C 75.125 100.027344 75.125 100.058594 75.125 100.121094 C 75.125 100.246094 75.21875 100.339844 75.34375 100.339844 C 75.53125 100.339844 77.34375 98.964844 78.5 96.433594 C 79.53125 94.246094 79.75 92.027344 79.75 90.339844 Z M 79.75 90.339844 "/>
<path fill-rule="nonzero" fill="rgb(0%, 0%, 0%)" fill-opacity="1" d="M 88.957031 93.890625 C 88.957031 92.359375 88.769531 91.234375 88.144531 90.265625 C 87.707031 89.640625 86.832031 89.078125 85.738281 89.078125 C 82.488281 89.078125 82.488281 92.890625 82.488281 93.890625 C 82.488281 94.890625 82.488281 98.609375 85.738281 98.609375 C 88.957031 98.609375 88.957031 94.890625 88.957031 93.890625 Z M 85.738281 98.203125 C 85.082031 98.203125 84.238281 97.828125 83.957031 96.703125 C 83.769531 95.890625 83.769531 94.734375 83.769531 93.703125 C 83.769531 92.671875 83.769531 91.609375 83.957031 90.859375 C 84.269531 89.765625 85.144531 89.453125 85.738281 89.453125 C 86.488281 89.453125 87.207031 89.921875 87.457031 90.734375 C 87.675781 91.484375 87.707031 92.484375 87.707031 93.703125 C 87.707031 94.734375 87.707031 95.765625 87.519531 96.640625 C 87.238281 97.921875 86.300781 98.203125 85.738281 98.203125 Z M 85.738281 98.203125 "/>
<path fill-rule="nonzero" fill="rgb(0%, 0%, 0%)" fill-opacity="1" d="M 204.828125 88.589844 C 204.640625 87.339844 203.828125 86.214844 202.265625 86.214844 C 201.046875 86.214844 199.765625 86.558594 198.203125 88.089844 C 196.546875 89.746094 196.421875 91.621094 196.421875 92.214844 C 196.421875 93.464844 197.296875 95.777344 200.078125 95.777344 C 204.828125 95.777344 206.890625 89.089844 206.890625 86.214844 C 206.890625 83.058594 205.046875 81.058594 202.578125 81.058594 C 199.703125 81.058594 198.765625 83.652344 198.765625 84.214844 C 198.765625 84.496094 198.953125 84.902344 199.546875 84.902344 C 200.203125 84.902344 200.609375 84.308594 200.609375 83.871094 C 200.609375 83.152344 199.984375 83.152344 199.671875 83.152344 C 200.546875 81.683594 201.984375 81.558594 202.546875 81.558594 C 204.015625 81.558594 205.390625 82.589844 205.390625 85.183594 C 205.390625 85.964844 205.265625 86.964844 204.859375 88.589844 Z M 200.140625 95.214844 C 197.953125 95.214844 197.953125 93.152344 197.953125 92.964844 C 197.953125 92.433594 198.453125 89.652344 199.265625 88.433594 C 200.046875 87.308594 201.046875 86.652344 202.265625 86.652344 C 204.453125 86.652344 204.484375 88.902344 204.484375 89.308594 C 204.484375 90.746094 203.203125 95.214844 200.140625 95.214844 Z M 200.140625 95.214844 "/>
<path fill-rule="nonzero" fill="rgb(0%, 0%, 0%)" fill-opacity="1" d="M 216.105469 81.433594 C 215.980469 81.152344 215.917969 81.058594 215.574219 81.058594 C 215.261719 81.058594 215.199219 81.152344 215.074219 81.433594 L 208.324219 94.933594 C 208.230469 95.121094 208.230469 95.152344 208.230469 95.183594 C 208.230469 95.339844 208.355469 95.339844 208.667969 95.339844 L 222.511719 95.339844 C 222.824219 95.339844 222.949219 95.339844 222.949219 95.183594 C 222.949219 95.152344 222.949219 95.121094 222.855469 94.933594 Z M 214.949219 83.058594 L 220.324219 93.839844 L 209.574219 93.839844 Z M 214.949219 83.058594 "/>
<path fill-rule="nonzero" fill="rgb(0%, 0%, 0%)" fill-opacity="1" d="M 230.925781 85.578125 L 230.457031 85.578125 C 230.425781 85.890625 230.269531 86.703125 230.082031 86.828125 C 229.988281 86.921875 228.925781 86.921875 228.707031 86.921875 L 226.144531 86.921875 C 227.613281 85.640625 228.113281 85.234375 228.925781 84.578125 C 229.957031 83.765625 230.925781 82.890625 230.925781 81.578125 C 230.925781 79.890625 229.457031 78.859375 227.675781 78.859375 C 225.957031 78.859375 224.769531 80.078125 224.769531 81.359375 C 224.769531 82.046875 225.363281 82.140625 225.519531 82.140625 C 225.832031 82.140625 226.238281 81.890625 226.238281 81.390625 C 226.238281 81.140625 226.144531 80.640625 225.425781 80.640625 C 225.863281 79.671875 226.800781 79.359375 227.457031 79.359375 C 228.863281 79.359375 229.582031 80.453125 229.582031 81.578125 C 229.582031 82.796875 228.707031 83.734375 228.269531 84.234375 L 224.925781 87.578125 C 224.769531 87.703125 224.769531 87.734375 224.769531 88.109375 L 230.519531 88.109375 Z M 230.925781 85.578125 "/>
<path fill="none" stroke-width="0.39848" stroke-linecap="butt" stroke-linejoin="miter" stroke="rgb(0%, 0%, 0%)" stroke-opacity="1" stroke-miterlimit="10" d="M 3.638687 17.599251 L 26.751968 17.599251 " transform="matrix(2, 0, 0, -2, 124.582001, 53.886002)"/>
<path fill="none" stroke-width="0.39848" stroke-linecap="round" stroke-linejoin="round" stroke="rgb(0%, 0%, 0%)" stroke-opacity="1" stroke-miterlimit="10" d="M -2.071503 2.392115 C -1.692596 0.954615 -0.848846 0.278833 -0.00119019 0.00148964 C -0.848846 -0.27976 -1.692596 -0.955542 -2.071503 -2.389135 " transform="matrix(2, 0, 0, -2, 178.486755, 18.690479)"/>
<path fill-rule="nonzero" fill="rgb(0%, 0%, 0%)" fill-opacity="1" d="M 147.847656 12.476562 C 146.941406 12.476562 146.816406 12.476562 146.816406 11.882812 L 146.816406 9.632812 C 146.878906 9.695312 147.535156 10.414062 148.691406 10.414062 C 150.535156 10.414062 152.097656 9.039062 152.097656 7.289062 C 152.097656 5.570312 150.691406 4.132812 148.910156 4.132812 C 148.128906 4.132812 147.316406 4.445312 146.753906 5.007812 L 146.753906 4.132812 L 144.660156 4.289062 L 144.660156 4.789062 C 145.628906 4.789062 145.691406 4.882812 145.691406 5.445312 L 145.691406 11.882812 C 145.691406 12.476562 145.566406 12.476562 144.660156 12.476562 L 144.660156 13.007812 C 144.691406 13.007812 145.660156 12.945312 146.253906 12.945312 C 146.753906 12.945312 147.722656 12.976562 147.847656 13.007812 Z M 146.816406 5.632812 C 147.222656 4.945312 148.035156 4.601562 148.753906 4.601562 C 149.941406 4.601562 150.847656 5.820312 150.847656 7.289062 C 150.847656 8.882812 149.785156 10.039062 148.628906 10.039062 C 147.378906 10.039062 146.847656 8.976562 146.816406 8.882812 Z M 146.816406 5.632812 "/>
<path fill-rule="nonzero" fill="rgb(0%, 0%, 0%)" fill-opacity="1" d="M 155.539062 7.101562 C 155.539062 5.945312 156.070312 4.539062 157.414062 4.539062 C 157.289062 4.632812 157.164062 4.820312 157.164062 5.039062 C 157.164062 5.507812 157.539062 5.664062 157.789062 5.664062 C 158.132812 5.664062 158.445312 5.445312 158.445312 5.039062 C 158.445312 4.570312 157.976562 4.132812 157.320312 4.132812 C 156.632812 4.132812 155.851562 4.570312 155.445312 5.632812 L 155.445312 4.132812 L 153.445312 4.289062 L 153.445312 4.789062 C 154.382812 4.789062 154.476562 4.882812 154.476562 5.570312 L 154.476562 9.195312 C 154.476562 9.789062 154.351562 9.789062 153.445312 9.789062 L 153.445312 10.289062 C 153.507812 10.289062 154.445312 10.226562 155.039062 10.226562 C 155.632812 10.226562 156.226562 10.257812 156.851562 10.289062 L 156.851562 9.789062 L 156.570312 9.789062 C 155.539062 9.789062 155.539062 9.632812 155.539062 9.164062 Z M 155.539062 7.101562 "/>
<path fill-rule="nonzero" fill="rgb(0%, 0%, 0%)" fill-opacity="1" d="M 162.964844 7.65625 C 162.964844 7.375 162.933594 7.375 162.589844 7.375 C 161.902344 8 160.777344 8 160.589844 8 L 160.433594 8 L 160.433594 8.4375 L 160.589844 8.4375 C 160.808594 8.4375 161.464844 8.40625 162.058594 8.15625 L 162.058594 13.15625 C 162.058594 13.4375 162.058594 13.5625 160.996094 13.5625 L 160.496094 13.5625 L 160.496094 14 C 161.027344 13.96875 161.933594 13.96875 162.496094 13.96875 C 163.089844 13.96875 163.964844 13.96875 164.527344 14 L 164.527344 13.5625 L 164.027344 13.5625 C 162.964844 13.5625 162.964844 13.4375 162.964844 13.15625 Z M 162.964844 7.65625 "/>
<path fill="none" stroke-width="0.39848" stroke-linecap="butt" stroke-linejoin="miter" stroke="rgb(0%, 0%, 0%)" stroke-opacity="1" stroke-miterlimit="10" d="M -29.423813 8.76722 L -29.423813 -9.006218 " transform="matrix(2, 0, 0, -2, 124.582001, 53.886002)"/>
<path fill="none" stroke-width="0.39848" stroke-linecap="round" stroke-linejoin="round" stroke="rgb(0%, 0%, 0%)" stroke-opacity="1" stroke-miterlimit="10" d="M -2.070515 2.392513 C -1.691608 0.955013 -0.851765 0.279232 -0.000202179 0.00188828 C -0.851765 -0.279362 -1.691608 -0.955143 -2.070515 -2.392643 " transform="matrix(0, 2, 2, 0, 65.730598, 72.297279)"/>
<path fill-rule="nonzero" fill="rgb(0%, 0%, 0%)" fill-opacity="1" d="M 48.3125 48.832031 C 48.21875 48.582031 48.1875 48.519531 48.03125 48.519531 C 47.875 48.519531 47.8125 48.644531 47.71875 48.800781 L 44.5625 57.144531 C 44.375 57.582031 44.09375 57.800781 43.71875 57.832031 C 43.65625 57.832031 43.4375 57.863281 43.4375 58.082031 C 43.4375 58.332031 43.65625 58.332031 43.90625 58.332031 L 46.125 58.332031 C 46.375 58.332031 46.59375 58.332031 46.59375 58.082031 C 46.59375 57.863281 46.40625 57.863281 46.28125 57.832031 C 46.09375 57.832031 45.75 57.769531 45.75 56.925781 C 45.75 56.488281 45.84375 56.019531 45.9375 55.582031 L 49 55.582031 C 49.5 56.957031 49.5 57.175781 49.53125 57.457031 C 49.1875 57.800781 48.8125 57.832031 48.65625 57.832031 C 48.5 57.863281 48.40625 57.957031 48.40625 58.082031 C 48.40625 58.332031 48.625 58.332031 48.875 58.332031 L 52.5 58.332031 C 52.75 58.332031 53 58.332031 53 58.082031 C 53 57.894531 52.8125 57.863281 52.6875 57.832031 C 52.375 57.800781 52.125 57.550781 51.84375 56.925781 Z M 46.09375 55.113281 C 46.40625 53.863281 46.84375 52.675781 47.3125 51.519531 C 47.75 52.457031 48.59375 54.457031 48.8125 55.113281 Z M 45.25 56.644531 L 45.28125 56.675781 L 45.28125 56.800781 C 45.25 56.832031 45.25 56.863281 45.25 56.925781 C 45.25 56.988281 45.25 57.519531 45.46875 57.832031 L 44.71875 57.832031 C 44.875 57.644531 44.9375 57.488281 45.03125 57.269531 Z M 47.53125 50.769531 L 48.03125 49.425781 L 51.40625 57.113281 C 51.46875 57.269531 51.625 57.582031 51.8125 57.832031 L 49.84375 57.832031 C 49.96875 57.769531 50.03125 57.550781 50.03125 57.394531 C 50.03125 56.550781 48.8125 53.707031 48.21875 52.332031 Z M 47.53125 50.769531 "/>
<path fill-rule="nonzero" fill="rgb(0%, 0%, 0%)" fill-opacity="1" d="M 59.261719 57.136719 C 59.261719 56.417969 59.261719 53.699219 56.636719 53.699219 C 54.042969 53.699219 54.042969 56.417969 54.042969 57.136719 C 54.042969 57.855469 54.042969 60.542969 56.636719 60.542969 C 59.261719 60.542969 59.261719 57.855469 59.261719 57.136719 Z M 56.636719 60.199219 C 56.292969 60.199219 55.449219 60.074219 55.199219 59.074219 C 55.042969 58.542969 55.042969 57.824219 55.042969 57.011719 C 55.042969 56.261719 55.042969 55.574219 55.199219 55.011719 C 55.449219 54.167969 56.230469 54.011719 56.636719 54.011719 C 57.386719 54.011719 57.917969 54.386719 58.105469 55.105469 C 58.261719 55.605469 58.261719 56.417969 58.261719 57.011719 C 58.261719 57.699219 58.261719 58.511719 58.105469 59.105469 C 57.855469 60.074219 57.042969 60.199219 56.636719 60.199219 Z M 56.636719 60.199219 "/>
<path fill="none" stroke-width="0.39848" stroke-linecap="butt" stroke-linejoin="miter" stroke="rgb(0%, 0%, 0%)" stroke-opacity="1" stroke-miterlimit="10" d="M 44.822281 8.76722 L 44.822281 -8.369499 " transform="matrix(2, 0, 0, -2, 124.582001, 53.886002)"/>
<path fill="none" stroke-width="0.39848" stroke-linecap="round" stroke-linejoin="round" stroke="rgb(0%, 0%, 0%)" stroke-opacity="1" stroke-miterlimit="10" d="M -2.073509 2.39164 C -1.694603 0.958046 -0.850853 0.278358 0.000709534 0.00101471 C -0.850853 -0.280235 -1.694603 -0.956017 -2.073509 -2.38961 " transform="matrix(0, 2, 2, 0, 214.224533, 71.022018)"/>
<path fill-rule="nonzero" fill="rgb(0%, 0%, 0%)" fill-opacity="1" d="M 223.414062 51.386719 C 224.570312 50.886719 225.070312 50.699219 225.414062 50.511719 C 225.695312 50.417969 225.820312 50.355469 225.820312 50.074219 C 225.820312 49.855469 225.632812 49.636719 225.382812 49.636719 C 225.289062 49.636719 225.257812 49.636719 225.101562 49.761719 L 223.195312 51.042969 L 223.414062 48.980469 C 223.445312 48.730469 223.414062 48.386719 222.976562 48.386719 C 222.820312 48.386719 222.539062 48.480469 222.539062 48.792969 C 222.539062 48.917969 222.601562 49.324219 222.632812 49.480469 C 222.664062 49.699219 222.757812 50.730469 222.789062 51.042969 L 220.882812 49.761719 C 220.757812 49.699219 220.726562 49.636719 220.601562 49.636719 C 220.320312 49.636719 220.164062 49.855469 220.164062 50.074219 C 220.164062 50.355469 220.320312 50.449219 220.445312 50.480469 L 222.539062 51.386719 C 221.414062 51.886719 220.882812 52.074219 220.539062 52.230469 C 220.289062 52.355469 220.164062 52.417969 220.164062 52.667969 C 220.164062 52.917969 220.320312 53.105469 220.601562 53.105469 C 220.695312 53.105469 220.726562 53.105469 220.882812 52.980469 L 222.789062 51.730469 L 222.539062 53.949219 C 222.539062 54.261719 222.820312 54.386719 222.976562 54.386719 C 223.164062 54.386719 223.414062 54.261719 223.414062 53.949219 C 223.414062 53.824219 223.351562 53.417969 223.351562 53.292969 C 223.320312 53.042969 223.226562 52.042969 223.195312 51.730469 L 224.851562 52.824219 C 225.226562 53.105469 225.257812 53.105469 225.382812 53.105469 C 225.632812 53.105469 225.820312 52.917969 225.820312 52.667969 C 225.820312 52.386719 225.632812 52.324219 225.507812 52.261719 Z M 223.414062 51.386719 "/>
<path fill-rule="nonzero" fill="rgb(0%, 0%, 0%)" fill-opacity="1" d="M 230.015625 53.3125 C 230.234375 53.03125 230.703125 52.65625 231.609375 52.65625 C 232.359375 52.65625 233.515625 53.03125 233.515625 54.625 C 233.515625 55.09375 233.421875 55.59375 233.296875 56.03125 C 233.171875 55.5625 232.671875 54.84375 231.515625 54.84375 C 230.796875 54.84375 230.046875 54.96875 229.078125 55.75 C 228.171875 56.5 228.109375 57.4375 228.109375 57.71875 C 228.109375 58.21875 228.328125 58.65625 228.796875 59.0625 C 229.296875 59.53125 229.890625 59.625 230.515625 59.625 C 233.484375 59.625 234.484375 56.3125 234.484375 55.0625 C 234.484375 53.4375 233.296875 52.28125 231.609375 52.28125 C 229.765625 52.28125 229.328125 53.59375 229.328125 53.9375 C 229.328125 54.15625 229.484375 54.34375 229.734375 54.34375 C 230.109375 54.34375 230.359375 54.03125 230.359375 53.71875 C 230.359375 53.375 230.015625 53.3125 230.015625 53.3125 Z M 230.546875 59.21875 C 229.421875 59.21875 229.078125 58.59375 229.078125 58.03125 C 229.078125 57.90625 229.203125 56.5625 229.859375 55.875 C 230.546875 55.15625 231.328125 55.15625 231.578125 55.15625 C 232.640625 55.15625 233.109375 55.875 233.109375 56.5625 C 233.109375 57.0625 232.546875 59.21875 230.546875 59.21875 Z M 230.546875 59.21875 "/>
<path fill-rule="nonzero" fill="rgb(0%, 0%, 0%)" fill-opacity="1" d="M 241.109375 52.5 C 240.984375 52.3125 240.921875 52.28125 240.703125 52.28125 C 240.484375 52.28125 240.421875 52.3125 240.296875 52.5 L 236.203125 59.15625 C 236.109375 59.25 236.109375 59.28125 236.109375 59.28125 C 236.109375 59.40625 236.203125 59.40625 236.359375 59.40625 L 245.015625 59.40625 C 245.171875 59.40625 245.265625 59.40625 245.265625 59.28125 C 245.265625 59.28125 245.265625 59.25 245.203125 59.15625 Z M 240.328125 53.28125 L 243.546875 58.5 L 237.109375 58.5 Z M 240.328125 53.28125 "/>
<path fill-rule="nonzero" fill="rgb(0%, 0%, 0%)" fill-opacity="1" d="M 252.039062 54.535156 L 251.601562 54.535156 C 251.601562 54.722656 251.476562 55.347656 251.320312 55.441406 C 251.257812 55.503906 250.414062 55.503906 250.257812 55.503906 L 248.320312 55.503906 C 248.976562 55.035156 249.695312 54.472656 250.289062 54.066406 C 251.195312 53.441406 252.039062 52.878906 252.039062 51.816406 C 252.039062 50.535156 250.820312 49.847656 249.414062 49.847656 C 248.070312 49.847656 247.070312 50.597656 247.070312 51.597656 C 247.070312 52.097656 247.507812 52.191406 247.664062 52.191406 C 247.914062 52.191406 248.226562 52.003906 248.226562 51.597656 C 248.226562 51.253906 247.976562 51.035156 247.664062 51.035156 C 247.945312 50.566406 248.539062 50.285156 249.195312 50.285156 C 250.164062 50.285156 250.976562 50.847656 250.976562 51.816406 C 250.976562 52.660156 250.382812 53.316406 249.632812 53.941406 L 247.195312 56.003906 C 247.101562 56.097656 247.070312 56.097656 247.070312 56.160156 L 247.070312 56.472656 L 251.695312 56.472656 Z M 252.039062 54.535156 "/>
<g clip-path="url(#clip-0)">
<path fill="none" stroke-width="2.33075" stroke-linecap="butt" stroke-linejoin="miter" stroke="rgb(0%, 0%, 0%)" stroke-opacity="1" stroke-miterlimit="10" d="M -2.57225 -5.275749 L 15.310562 3.357063 " transform="matrix(2, 0, 0, -2, 124.582001, 53.886002)"/>
</g>
<g clip-path="url(#clip-1)">
<path fill="none" stroke-width="1.53377" stroke-linecap="butt" stroke-linejoin="miter" stroke="rgb(100%, 100%, 100%)" stroke-opacity="1" stroke-miterlimit="10" d="M -2.57225 -5.275749 L 15.310562 3.357063 " transform="matrix(2, 0, 0, -2, 124.582001, 53.886002)"/>
</g>
<path fill="none" stroke-width="0.39848" stroke-linecap="round" stroke-linejoin="round" stroke="rgb(0%, 0%, 0%)" stroke-opacity="1" stroke-miterlimit="10" d="M -1.293 2.561533 C -0.666126 1.209216 1.023888 0.0464389 1.990721 0.000513938 C 1.025227 -0.0496375 -0.665635 -1.207134 -1.293215 -2.561215 " transform="matrix(1.80106, -0.86936, -0.86936, -1.80106, 155.204102, 47.169079)"/>
<path fill-rule="nonzero" fill="rgb(0%, 0%, 0%)" fill-opacity="1" d="M 148.359375 59.976562 C 148.359375 59.945312 148.390625 59.757812 148.390625 59.757812 C 148.390625 59.664062 148.359375 59.539062 148.171875 59.539062 C 147.890625 59.539062 146.734375 59.664062 146.390625 59.695312 C 146.296875 59.695312 146.078125 59.726562 146.078125 60.007812 C 146.078125 60.195312 146.296875 60.195312 146.453125 60.195312 C 147.109375 60.195312 147.109375 60.320312 147.109375 60.414062 C 147.109375 60.507812 147.078125 60.601562 147.078125 60.726562 L 145.109375 68.601562 C 145.015625 68.851562 145.015625 68.882812 145.015625 68.914062 C 145.015625 69.132812 145.203125 69.351562 145.515625 69.351562 C 145.671875 69.351562 145.921875 69.289062 146.078125 69.007812 C 146.109375 68.914062 146.234375 68.414062 146.296875 68.132812 L 146.640625 66.882812 C 146.671875 66.664062 146.828125 66.132812 146.859375 65.945312 C 146.984375 65.414062 146.984375 65.382812 147.265625 64.945312 C 147.734375 64.257812 148.421875 63.476562 149.515625 63.476562 C 150.296875 63.476562 150.328125 64.101562 150.328125 64.445312 C 150.328125 65.289062 149.734375 66.820312 149.515625 67.414062 C 149.359375 67.820312 149.296875 67.945312 149.296875 68.164062 C 149.296875 68.914062 149.921875 69.351562 150.609375 69.351562 C 152.015625 69.351562 152.640625 67.445312 152.640625 67.226562 C 152.640625 67.039062 152.453125 67.039062 152.390625 67.039062 C 152.203125 67.039062 152.203125 67.132812 152.140625 67.289062 C 151.828125 68.414062 151.203125 68.976562 150.671875 68.976562 C 150.359375 68.976562 150.296875 68.789062 150.296875 68.476562 C 150.296875 68.164062 150.390625 67.976562 150.640625 67.351562 C 150.796875 66.914062 151.359375 65.445312 151.359375 64.664062 C 151.359375 64.445312 151.359375 63.851562 150.859375 63.445312 C 150.609375 63.289062 150.203125 63.070312 149.546875 63.070312 C 148.546875 63.070312 147.796875 63.632812 147.296875 64.226562 Z M 148.359375 59.976562 "/>
<path fill-rule="nonzero" fill="rgb(0%, 0%, 0%)" fill-opacity="1" d="M 157.28125 64.878906 C 157.28125 64.597656 157.25 64.597656 156.90625 64.597656 C 156.21875 65.222656 155.09375 65.222656 154.90625 65.222656 L 154.75 65.222656 L 154.75 65.660156 L 154.90625 65.660156 C 155.125 65.660156 155.78125 65.628906 156.375 65.378906 L 156.375 70.378906 C 156.375 70.660156 156.375 70.785156 155.3125 70.785156 L 154.8125 70.785156 L 154.8125 71.222656 C 155.34375 71.191406 156.25 71.191406 156.8125 71.191406 C 157.40625 71.191406 158.28125 71.191406 158.84375 71.222656 L 158.84375 70.785156 L 158.34375 70.785156 C 157.28125 70.785156 157.28125 70.660156 157.28125 70.378906 Z M 157.28125 64.878906 "/>
<path fill="none" stroke-width="0.39848" stroke-linecap="butt" stroke-linejoin="miter" stroke="rgb(0%, 0%, 0%)" stroke-opacity="1" stroke-miterlimit="10" d="M -12.443344 -18.236687 L 30.623062 -18.236687 " transform="matrix(2, 0, 0, -2, 124.582001, 53.886002)"/>
<path fill="none" stroke-width="0.39848" stroke-linecap="round" stroke-linejoin="round" stroke="rgb(0%, 0%, 0%)" stroke-opacity="1" stroke-miterlimit="10" d="M -2.07354 2.389317 C -1.694633 0.955723 -0.850883 0.279942 0.000679016 -0.00130844 C -0.850883 -0.278652 -1.694633 -0.954433 -2.07354 -2.391933 " transform="matrix(2, 0, 0, -2, 186.225204, 90.356758)"/>
<path fill-rule="nonzero" fill="rgb(0%, 0%, 0%)" fill-opacity="1" d="M 173.667969 76.15625 C 173.449219 76.15625 173.105469 76.15625 173.105469 76.46875 C 173.105469 76.84375 173.417969 76.84375 173.667969 76.84375 L 178.542969 76.84375 C 179.011719 76.84375 179.074219 76.75 179.074219 76.3125 L 179.074219 71.375 C 179.074219 71.15625 179.074219 70.84375 178.761719 70.84375 C 178.386719 70.84375 178.386719 71.21875 178.386719 71.4375 L 178.386719 76.15625 Z M 173.667969 76.15625 "/>
</svg>
