<?xml version="1.0" encoding="UTF-8"?>
<svg xmlns="http://www.w3.org/2000/svg" xmlns:xlink="http://www.w3.org/1999/xlink" width="84.297" height="58.67" viewBox="0 0 84.297 58.67">
<defs>
<clipPath id="clip-0">
<path clip-rule="nonzero" d="M 32 0 L 84.296875 0 L 84.296875 52 L 32 52 Z M 32 0 "/>
</clipPath>
<clipPath id="clip-1">
<path clip-rule="nonzero" d="M 43 11 L 84.296875 11 L 84.296875 41 L 43 41 Z M 43 11 "/>
</clipPath>
<clipPath id="clip-2">
<path clip-rule="nonzero" d="M 36 14 L 58 14 L 58 58.671875 L 36 58.671875 Z M 36 14 "/>
</clipPath>
<clipPath id="clip-3">
<path clip-rule="nonzero" d="M 30 20 L 84.296875 20 L 84.296875 58.671875 L 30 58.671875 Z M 30 20 "/>
</clipPath>
<clipPath id="clip-4">
<path clip-rule="nonzero" d="M 30 0 L 84.296875 0 L 84.296875 43 L 30 43 Z M 30 0 "/>
</clipPath>
<clipPath id="clip-5">
<path clip-rule="nonzero" d="M 1 0 L 84.296875 0 L 84.296875 58.671875 L 1 58.671875 Z M 1 0 "/>
</clipPath>
<clipPath id="clip-6">
<path clip-rule="nonzero" d="M 23 23 L 84.296875 23 L 84.296875 48 L 23 48 Z M 23 23 "/>
</clipPath>
<clipPath id="clip-7">
<path clip-rule="nonzero" d="M 0 15 L 54 15 L 54 58.671875 L 0 58.671875 Z M 0 15 "/>
</clipPath>
<clipPath id="clip-8">
<path clip-rule="nonzero" d="M 20 27 L 54 27 L 54 58.671875 L 20 58.671875 Z M 20 27 "/>
</clipPath>
<clipPath id="clip-9">
<path clip-rule="nonzero" d="M 0 0 L 64 0 L 64 58.671875 L 0 58.671875 Z M 0 0 "/>
</clipPath>
<clipPath id="clip-10">
<path clip-rule="nonzero" d="M 40 55 L 44 55 L 44 58.671875 L 40 58.671875 Z M 40 55 "/>
</clipPath>
<clipPath id="clip-11">
<path clip-rule="nonzero" d="M 29 44 L 55 44 L 55 58.671875 L 29 58.671875 Z M 29 44 "/>
</clipPath>
</defs>
<g clip-path="url(#clip-0)">
<path fill="none" stroke-width="1.39478" stroke-linecap="butt" stroke-linejoin="miter" stroke="rgb(0%, 0%, 0%)" stroke-opacity="1" stroke-miterlimit="10" d="M 9.972094 9.268594 L 38.827562 -2.379844 " transform="matrix(1, 0, 0, -1, 42.149, 29.335)"/>
</g>
<g clip-path="url(#clip-1)">
<path fill="none" stroke-width="0.59776" stroke-linecap="butt" stroke-linejoin="miter" stroke="rgb(100%, 100%, 100%)" stroke-opacity="1" stroke-miterlimit="10" d="M 9.972094 9.268594 L 38.827562 -2.379844 " transform="matrix(1, 0, 0, -1, 42.149, 29.335)"/>
</g>
<g clip-path="url(#clip-2)">
<path fill="none" stroke-width="0.3985" stroke-linecap="butt" stroke-linejoin="miter" stroke="rgb(0%, 0%, 0%)" stroke-opacity="1" stroke-miterlimit="10" d="M 9.972094 9.268594 L -0.0005625 -27.528281 " transform="matrix(1, 0, 0, -1, 42.149, 29.335)"/>
</g>
<path fill="none" stroke-width="0.3985" stroke-linecap="butt" stroke-linejoin="miter" stroke="rgb(0%, 0%, 0%)" stroke-opacity="1" stroke-miterlimit="10" d="M 9.972094 9.268594 L -0.0005625 27.526406 " transform="matrix(1, 0, 0, -1, 42.149, 29.335)"/>
<path fill="none" stroke-width="1.39478" stroke-linecap="butt" stroke-linejoin="miter" stroke="rgb(0%, 0%, 0%)" stroke-opacity="1" stroke-miterlimit="10" d="M 9.972094 9.268594 L -38.828688 2.377969 " transform="matrix(1, 0, 0, -1, 42.149, 29.335)"/>
<path fill="none" stroke-width="0.59776" stroke-linecap="butt" stroke-linejoin="miter" stroke="rgb(100%, 100%, 100%)" stroke-opacity="1" stroke-miterlimit="10" d="M 9.972094 9.268594 L -38.828688 2.377969 " transform="matrix(1, 0, 0, -1, 42.149, 29.335)"/>
<path fill-rule="nonzero" fill="rgb(0%, 0%, 94.999695%)" fill-opacity="0.1" d="M 32.175781 38.601562 L 42.148438 56.863281 L 3.320312 26.957031 Z M 32.175781 38.601562 "/>
<path fill-rule="nonzero" fill="rgb(0%, 0%, 94.999695%)" fill-opacity="0.1" d="M 32.175781 38.601562 L 42.148438 1.808594 L 3.320312 26.957031 Z M 32.175781 38.601562 "/>
<path fill-rule="nonzero" fill="rgb(0%, 0%, 94.999695%)" fill-opacity="0.1" d="M 32.175781 38.601562 L 80.976562 31.714844 L 42.148438 1.808594 Z M 32.175781 38.601562 "/>
<path fill-rule="nonzero" fill="rgb(0%, 0%, 94.999695%)" fill-opacity="0.1" d="M 32.175781 38.601562 L 80.976562 31.714844 L 42.148438 56.863281 Z M 32.175781 38.601562 "/>
<g clip-path="url(#clip-3)">
<path fill="none" stroke-width="0.79701" stroke-linecap="butt" stroke-linejoin="miter" stroke="rgb(0%, 0%, 0%)" stroke-opacity="1" stroke-miterlimit="10" d="M 38.827562 -2.379844 L -0.0005625 -27.528281 " transform="matrix(1, 0, 0, -1, 42.149, 29.335)"/>
</g>
<g clip-path="url(#clip-4)">
<path fill="none" stroke-width="0.79701" stroke-linecap="butt" stroke-linejoin="miter" stroke="rgb(0%, 0%, 0%)" stroke-opacity="1" stroke-miterlimit="10" d="M 38.827562 -2.379844 L -0.0005625 27.526406 " transform="matrix(1, 0, 0, -1, 42.149, 29.335)"/>
</g>
<g clip-path="url(#clip-5)">
<path fill="none" stroke-width="2.19182" stroke-linecap="butt" stroke-linejoin="miter" stroke="rgb(0%, 0%, 0%)" stroke-opacity="1" stroke-miterlimit="10" d="M 38.827562 -2.379844 L -9.973219 -9.266562 " transform="matrix(1, 0, 0, -1, 42.149, 29.335)"/>
</g>
<g clip-path="url(#clip-6)">
<path fill="none" stroke-width="0.59776" stroke-linecap="butt" stroke-linejoin="miter" stroke="rgb(100%, 100%, 100%)" stroke-opacity="1" stroke-miterlimit="10" d="M 38.827562 -2.379844 L -9.973219 -9.266562 " transform="matrix(1, 0, 0, -1, 42.149, 29.335)"/>
</g>
<g clip-path="url(#clip-7)">
<path fill="none" stroke-width="0.79701" stroke-linecap="butt" stroke-linejoin="miter" stroke="rgb(0%, 0%, 0%)" stroke-opacity="1" stroke-miterlimit="10" d="M -0.0005625 -27.528281 L -38.828688 2.377969 " transform="matrix(1, 0, 0, -1, 42.149, 29.335)"/>
</g>
<g clip-path="url(#clip-8)">
<path fill="none" stroke-width="0.79701" stroke-linecap="butt" stroke-linejoin="miter" stroke="rgb(0%, 0%, 0%)" stroke-opacity="1" stroke-miterlimit="10" d="M -0.0005625 -27.528281 L -9.973219 -9.266562 " transform="matrix(1, 0, 0, -1, 42.149, 29.335)"/>
</g>
<path fill="none" stroke-width="0.79701" stroke-linecap="butt" stroke-linejoin="miter" stroke="rgb(0%, 0%, 0%)" stroke-opacity="1" stroke-miterlimit="10" d="M -0.0005625 27.526406 L -38.828688 2.377969 " transform="matrix(1, 0, 0, -1, 42.149, 29.335)"/>
<path fill="none" stroke-width="0.79701" stroke-linecap="butt" stroke-linejoin="miter" stroke="rgb(0%, 0%, 0%)" stroke-opacity="1" stroke-miterlimit="10" d="M -0.0005625 27.526406 L -9.973219 -9.266562 " transform="matrix(1, 0, 0, -1, 42.149, 29.335)"/>
<g clip-path="url(#clip-9)">
<path fill="none" stroke-width="2.19182" stroke-linecap="butt" stroke-linejoin="miter" stroke="rgb(0%, 0%, 0%)" stroke-opacity="1" stroke-miterlimit="10" d="M -38.828688 2.377969 L -9.973219 -9.266562 " transform="matrix(1, 0, 0, -1, 42.149, 29.335)"/>
</g>
<path fill="none" stroke-width="0.59776" stroke-linecap="butt" stroke-linejoin="miter" stroke="rgb(100%, 100%, 100%)" stroke-opacity="1" stroke-miterlimit="10" d="M -38.828688 2.377969 L -9.973219 -9.266562 " transform="matrix(1, 0, 0, -1, 42.149, 29.335)"/>
<g clip-path="url(#clip-10)">
<path fill-rule="nonzero" fill="rgb(0%, 0%, 0%)" fill-opacity="1" d="M 43.558594 56.863281 C 43.558594 56.085938 42.929688 55.453125 42.148438 55.453125 C 41.371094 55.453125 40.742188 56.085938 40.742188 56.863281 C 40.742188 57.640625 41.371094 58.273438 42.148438 58.273438 C 42.929688 58.273438 43.558594 57.640625 43.558594 56.863281 Z M 43.558594 56.863281 "/>
</g>
<g clip-path="url(#clip-11)">
<path fill="none" stroke-width="0.79701" stroke-linecap="butt" stroke-linejoin="miter" stroke="rgb(0%, 25%, 0%)" stroke-opacity="1" stroke-miterlimit="10" d="M 1.409594 -27.528281 C 1.409594 -26.750937 0.780687 -26.118125 -0.0005625 -26.118125 C -0.777906 -26.118125 -1.406813 -26.750937 -1.406813 -27.528281 C -1.406813 -28.305625 -0.777906 -28.938437 -0.0005625 -28.938437 C 0.780687 -28.938437 1.409594 -28.305625 1.409594 -27.528281 Z M 1.409594 -27.528281 " transform="matrix(1, 0, 0, -1, 42.149, 29.335)"/>
</g>
<path fill-rule="nonzero" fill="rgb(0%, 0%, 0%)" fill-opacity="1" stroke-width="0.79701" stroke-linecap="butt" stroke-linejoin="miter" stroke="rgb(0%, 25%, 0%)" stroke-opacity="1" stroke-miterlimit="10" d="M 1.409594 27.526406 C 1.409594 28.307656 0.776781 28.936563 -0.0005625 28.936563 C -0.777906 28.936563 -1.410719 28.307656 -1.410719 27.526406 C -1.410719 26.749063 -0.777906 26.120156 -0.0005625 26.120156 C 0.776781 26.120156 1.409594 26.749063 1.409594 27.526406 Z M 1.409594 27.526406 " transform="matrix(1, 0, 0, -1, 42.149, 29.335)"/>
</svg>
