<?xml version="1.0" encoding="UTF-8"?>
<svg xmlns="http://www.w3.org/2000/svg" xmlns:xlink="http://www.w3.org/1999/xlink" width="394.720001" height="95.779999" viewBox="0 0 394.720001 95.779999">
<path fill-rule="nonzero" fill="rgb(0%, 0%, 0%)" fill-opacity="1" d="M 24.242188 20.371094 L 24.242188 7.183594 L 21.335938 7.183594 L 17.148438 18.839844 L 17.085938 18.839844 L 13.085938 7.183594 L 9.992188 7.183594 L 9.992188 20.371094 L 10.867188 20.371094 L 10.867188 11.027344 L 10.898438 11.027344 L 14.148438 20.371094 L 17.523438 20.371094 L 20.898438 10.964844 L 20.929688 10.964844 L 20.929688 20.371094 Z M 23.367188 19.496094 L 21.804688 19.496094 L 21.804688 8.058594 L 23.367188 8.058594 Z M 16.429688 19.496094 L 14.773438 19.496094 L 11.210938 9.277344 L 10.804688 8.058594 L 12.398438 8.058594 Z M 16.429688 19.496094 "/>
<path fill-rule="nonzero" fill="rgb(0%, 0%, 0%)" fill-opacity="1" d="M 32.722656 18.738281 C 32.722656 17.144531 32.535156 15.988281 31.878906 14.957031 C 31.410156 14.300781 30.503906 13.707031 29.347656 13.707031 C 25.972656 13.707031 25.972656 17.675781 25.972656 18.738281 C 25.972656 19.769531 25.972656 23.644531 29.347656 23.644531 C 32.722656 23.644531 32.722656 19.769531 32.722656 18.738281 Z M 31.410156 18.550781 C 31.410156 19.613281 31.410156 20.675781 31.222656 21.613281 C 30.910156 22.925781 29.941406 23.238281 29.347656 23.238281 C 28.691406 23.238281 27.785156 22.863281 27.503906 21.675781 C 27.285156 20.800781 27.285156 19.613281 27.285156 18.550781 C 27.285156 17.488281 27.285156 16.363281 27.503906 15.582031 C 27.816406 14.425781 28.753906 14.113281 29.347656 14.113281 C 30.128906 14.113281 30.878906 14.613281 31.160156 15.457031 C 31.378906 16.238281 31.410156 17.269531 31.410156 18.550781 Z M 31.410156 18.550781 "/>
<path fill-rule="nonzero" fill="rgb(0%, 0%, 0%)" fill-opacity="1" d="M 115.152344 20.371094 L 115.152344 7.183594 L 112.246094 7.183594 L 108.058594 18.839844 L 107.996094 18.839844 L 103.996094 7.183594 L 100.902344 7.183594 L 100.902344 20.371094 L 101.777344 20.371094 L 101.777344 11.027344 L 101.808594 11.027344 L 105.058594 20.371094 L 108.433594 20.371094 L 111.808594 10.964844 L 111.839844 10.964844 L 111.839844 20.371094 Z M 114.277344 19.496094 L 112.714844 19.496094 L 112.714844 8.058594 L 114.277344 8.058594 Z M 107.339844 19.496094 L 105.683594 19.496094 L 102.121094 9.277344 L 101.714844 8.058594 L 103.308594 8.058594 Z M 107.339844 19.496094 "/>
<path fill-rule="nonzero" fill="rgb(0%, 0%, 0%)" fill-opacity="1" d="M 123.011719 23.363281 L 123.011719 22.832031 L 122.449219 22.832031 C 121.011719 22.832031 121.011719 22.644531 121.011719 22.175781 L 121.011719 14.113281 C 121.011719 13.738281 120.980469 13.707031 120.574219 13.707031 C 119.636719 14.644531 118.324219 14.644531 117.730469 14.644531 L 117.730469 15.175781 C 118.074219 15.175781 119.042969 15.175781 119.824219 14.769531 L 119.824219 22.175781 C 119.824219 22.644531 119.824219 22.832031 118.386719 22.832031 L 117.824219 22.832031 L 117.824219 23.363281 L 120.417969 23.300781 Z M 123.011719 23.363281 "/>
<path fill-rule="nonzero" fill="rgb(0%, 0%, 0%)" fill-opacity="1" d="M 206.066406 20.371094 L 206.066406 7.183594 L 203.160156 7.183594 L 198.972656 18.839844 L 198.910156 18.839844 L 194.910156 7.183594 L 191.816406 7.183594 L 191.816406 20.371094 L 192.691406 20.371094 L 192.691406 11.027344 L 192.722656 11.027344 L 195.972656 20.371094 L 199.347656 20.371094 L 202.722656 10.964844 L 202.753906 10.964844 L 202.753906 20.371094 Z M 205.191406 19.496094 L 203.628906 19.496094 L 203.628906 8.058594 L 205.191406 8.058594 Z M 198.253906 19.496094 L 196.597656 19.496094 L 193.035156 9.277344 L 192.628906 8.058594 L 194.222656 8.058594 Z M 198.253906 19.496094 "/>
<path fill-rule="nonzero" fill="rgb(0%, 0%, 0%)" fill-opacity="1" d="M 214.390625 20.707031 L 213.890625 20.707031 C 213.859375 21.050781 213.703125 21.894531 213.515625 22.050781 C 213.390625 22.113281 212.265625 22.113281 212.078125 22.113281 L 209.390625 22.113281 C 210.921875 20.769531 211.421875 20.363281 212.296875 19.675781 C 213.390625 18.832031 214.390625 17.925781 214.390625 16.550781 C 214.390625 14.800781 212.859375 13.707031 210.984375 13.707031 C 209.171875 13.707031 207.953125 14.988281 207.953125 16.300781 C 207.953125 17.050781 208.578125 17.144531 208.734375 17.144531 C 209.078125 17.144531 209.515625 16.894531 209.515625 16.363281 C 209.515625 16.113281 209.390625 15.582031 208.640625 15.582031 C 209.109375 14.550781 210.078125 14.238281 210.765625 14.238281 C 212.234375 14.238281 212.984375 15.363281 212.984375 16.550781 C 212.984375 17.800781 212.078125 18.800781 211.609375 19.332031 L 208.109375 22.800781 C 207.953125 22.925781 207.953125 22.957031 207.953125 23.363281 L 213.953125 23.363281 Z M 214.390625 20.707031 "/>
<path fill-rule="nonzero" fill="rgb(0%, 0%, 0%)" fill-opacity="1" d="M 285.117188 15.277344 C 285.117188 14.652344 284.617188 14.121094 284.023438 14.121094 C 283.429688 14.121094 282.929688 14.621094 282.929688 15.277344 C 282.929688 16.027344 283.585938 16.339844 284.023438 16.339844 C 284.429688 16.339844 285.117188 15.996094 285.117188 15.277344 Z M 285.117188 15.277344 "/>
<path fill-rule="nonzero" fill="rgb(0%, 0%, 0%)" fill-opacity="1" d="M 293.804688 15.277344 C 293.804688 14.652344 293.304688 14.121094 292.710938 14.121094 C 292.117188 14.121094 291.617188 14.621094 291.617188 15.277344 C 291.617188 16.027344 292.273438 16.339844 292.710938 16.339844 C 293.117188 16.339844 293.804688 15.996094 293.804688 15.277344 Z M 293.804688 15.277344 "/>
<path fill-rule="nonzero" fill="rgb(0%, 0%, 0%)" fill-opacity="1" d="M 302.511719 15.277344 C 302.511719 14.652344 302.011719 14.121094 301.417969 14.121094 C 300.824219 14.121094 300.324219 14.621094 300.324219 15.277344 C 300.324219 16.027344 300.980469 16.339844 301.417969 16.339844 C 301.824219 16.339844 302.511719 15.996094 302.511719 15.277344 Z M 302.511719 15.277344 "/>
<path fill-rule="nonzero" fill="rgb(0%, 0%, 0%)" fill-opacity="1" d="M 384.757812 20.371094 L 384.757812 7.183594 L 381.851562 7.183594 L 377.664062 18.839844 L 377.601562 18.839844 L 373.601562 7.183594 L 370.507812 7.183594 L 370.507812 20.371094 L 371.382812 20.371094 L 371.382812 11.027344 L 371.414062 11.027344 L 374.664062 20.371094 L 378.039062 20.371094 L 381.414062 10.964844 L 381.445312 10.964844 L 381.445312 20.371094 Z M 383.882812 19.496094 L 382.320312 19.496094 L 382.320312 8.058594 L 383.882812 8.058594 Z M 376.945312 19.496094 L 375.289062 19.496094 L 371.726562 9.277344 L 371.320312 8.058594 L 372.914062 8.058594 Z M 376.945312 19.496094 "/>
<path fill-rule="nonzero" fill="rgb(0%, 0%, 0%)" fill-opacity="1" d="M 212.53125 74.207031 L 212.4375 74.082031 C 211.8125 74.175781 210.1875 74.582031 209.71875 75.019531 C 209.5 75.238281 208.75 77.800781 208.5625 78.300781 C 207.78125 80.769531 206.96875 82.769531 205.03125 84.550781 C 203.9375 85.550781 202.25 86.644531 200.75 86.644531 C 200.4375 86.644531 200.1875 86.519531 200.1875 86.175781 C 200.1875 83.300781 202.625 77.425781 203.59375 74.457031 C 203.4375 74.332031 203.25 74.300781 203.0625 74.300781 C 200.90625 74.300781 193.96875 76.300781 193.96875 78.957031 C 193.96875 79.707031 195.125 81.519531 195.96875 81.519531 C 196.0625 81.519531 196.1875 81.519531 196.28125 81.457031 C 195.9375 81.019531 195.8125 80.457031 195.8125 79.925781 C 195.8125 77.582031 199.15625 75.394531 201.28125 75.332031 C 200.25 78.207031 197.84375 83.894531 197.84375 86.738281 C 197.84375 87.613281 198.1875 88.332031 199.15625 88.332031 C 201.25 88.332031 205.65625 85.269531 207.03125 83.675781 C 206.75 84.550781 206.5 85.457031 206.5 86.363281 C 206.5 86.925781 206.625 88.550781 207.40625 88.550781 C 208.34375 88.550781 209.78125 87.707031 209.90625 86.738281 C 209.78125 86.863281 209.5625 86.925781 209.375 86.925781 C 208.8125 86.925781 208.8125 86.144531 208.8125 85.738281 C 208.8125 83.707031 211.28125 75.675781 212.53125 74.207031 Z M 212.53125 74.207031 "/>
<path fill="none" stroke-width="0.5579" stroke-linecap="butt" stroke-linejoin="miter" stroke="rgb(0%, 0%, 0%)" stroke-opacity="1" stroke-miterlimit="10" d="M -76.935905 16.320999 L -53.98278 16.320999 " transform="matrix(2, 0, 0, -2, 197.363998, 47.891998)"/>
<path fill="none" stroke-width="0.5579" stroke-linecap="round" stroke-linejoin="round" stroke="rgb(0%, 0%, 0%)" stroke-opacity="1" stroke-miterlimit="10" d="M -2.899654 3.348636 C -2.372311 1.340824 -1.188717 0.391605 -0.00121689 0.0009799 C -1.188717 -0.389645 -2.372311 -1.338864 -2.899654 -3.346676 " transform="matrix(2, 0, 0, -2, 89.955559, 15.25196)"/>
<path fill="none" stroke-width="0.5579" stroke-linecap="butt" stroke-linejoin="miter" stroke="rgb(0%, 0%, 0%)" stroke-opacity="1" stroke-miterlimit="10" d="M -76.935905 12.24678 L -6.775749 -13.823532 " transform="matrix(2, 0, 0, -2, 197.363998, 47.891998)"/>
<path fill="none" stroke-width="0.5579" stroke-linecap="round" stroke-linejoin="round" stroke="rgb(0%, 0%, 0%)" stroke-opacity="1" stroke-miterlimit="10" d="M -2.899769 3.348219 C -2.370433 1.34033 -1.18864 0.39168 -0.00104961 -0.000548707 C -1.18918 -0.391996 -2.370762 -1.339445 -2.899441 -3.348707 " transform="matrix(1.87466, 0.69654, 0.69654, -1.87466, 184.338287, 75.734077)"/>
<path fill-rule="nonzero" fill="rgb(0%, 0%, 0%)" fill-opacity="1" d="M 119.730469 44.503906 C 119.417969 44.503906 119.355469 44.316406 119.292969 44.066406 C 119.230469 43.816406 119.105469 43.535156 118.792969 43.535156 C 118.542969 43.535156 118.417969 43.753906 118.417969 43.972656 C 118.417969 44.566406 119.167969 44.847656 119.636719 44.847656 C 120.480469 44.847656 120.542969 44.597656 120.917969 44.066406 C 121.167969 43.785156 121.324219 43.378906 121.511719 42.878906 C 121.699219 42.378906 122.011719 41.722656 122.199219 40.941406 L 123.511719 35.910156 L 124.699219 35.910156 L 124.824219 35.566406 L 123.605469 35.566406 C 123.917969 34.441406 124.386719 32.472656 124.699219 31.878906 C 124.824219 31.691406 125.074219 31.410156 125.449219 31.410156 C 125.730469 31.410156 125.855469 31.597656 125.917969 31.847656 C 125.980469 32.128906 126.074219 32.378906 126.417969 32.378906 C 126.667969 32.378906 126.792969 32.191406 126.792969 31.972656 C 126.792969 31.378906 126.042969 31.097656 125.542969 31.097656 C 123.730469 31.128906 123.042969 34.035156 122.636719 35.566406 L 121.449219 35.566406 L 121.355469 35.910156 L 122.542969 35.910156 L 120.636719 43.097656 C 120.542969 43.441406 120.261719 44.503906 119.730469 44.503906 Z M 119.730469 44.503906 "/>
<path fill-rule="nonzero" fill="rgb(0%, 0%, 0%)" fill-opacity="1" d="M 129.84375 40.46875 C 129.84375 39.65625 129.84375 36.6875 127.15625 36.6875 C 124.46875 36.6875 124.46875 39.65625 124.46875 40.46875 C 124.46875 41.25 124.46875 44.1875 127.15625 44.1875 C 129.84375 44.1875 129.84375 41.25 129.84375 40.46875 Z M 128.8125 40.3125 C 128.8125 41.03125 128.8125 42.125 128.625 42.75 C 128.3125 43.71875 127.53125 43.84375 127.15625 43.84375 C 126.6875 43.84375 125.9375 43.625 125.6875 42.71875 C 125.5 42.09375 125.5 41 125.5 40.3125 C 125.5 39.59375 125.5 38.75 125.65625 38.15625 C 125.9375 37.15625 126.78125 37.03125 127.15625 37.03125 C 127.65625 37.03125 128.375 37.28125 128.625 38.09375 C 128.78125 38.6875 128.8125 39.46875 128.8125 40.3125 Z M 128.8125 40.3125 "/>
<path fill="none" stroke-width="0.5579" stroke-linecap="butt" stroke-linejoin="miter" stroke="rgb(0%, 0%, 0%)" stroke-opacity="1" stroke-miterlimit="10" d="M -31.478874 16.320999 L -8.525749 16.320999 " transform="matrix(2, 0, 0, -2, 197.363998, 47.891998)"/>
<path fill="none" stroke-width="0.5579" stroke-linecap="round" stroke-linejoin="round" stroke="rgb(0%, 0%, 0%)" stroke-opacity="1" stroke-miterlimit="10" d="M -2.899483 3.348636 C -2.372139 1.340824 -1.188545 0.391605 -0.00104523 0.0009799 C -1.188545 -0.389645 -2.372139 -1.338864 -2.899483 -3.346676 " transform="matrix(2, 0, 0, -2, 180.869278, 15.25196)"/>
<path fill="none" stroke-width="0.5579" stroke-linecap="butt" stroke-linejoin="miter" stroke="rgb(0%, 0%, 0%)" stroke-opacity="1" stroke-miterlimit="10" d="M -31.818718 8.414749 L -6.697624 -10.249313 " transform="matrix(2, 0, 0, -2, 197.363998, 47.891998)"/>
<path fill="none" stroke-width="0.5579" stroke-linecap="round" stroke-linejoin="round" stroke="rgb(0%, 0%, 0%)" stroke-opacity="1" stroke-miterlimit="10" d="M -2.901799 3.349066 C -2.371668 1.338777 -1.19067 0.391272 -0.00015672 0.00078657 C -1.188688 -0.390812 -2.372667 -1.338712 -2.900398 -3.346628 " transform="matrix(1.60526, 1.1928, 1.1928, -1.60526, 184.413376, 68.7202)"/>
<path fill-rule="nonzero" fill="rgb(0%, 0%, 0%)" fill-opacity="1" d="M 164.851562 44.898438 C 164.539062 44.898438 164.476562 44.710938 164.414062 44.460938 C 164.351562 44.210938 164.226562 43.929688 163.914062 43.929688 C 163.664062 43.929688 163.539062 44.148438 163.539062 44.367188 C 163.539062 44.960938 164.289062 45.242188 164.757812 45.242188 C 165.601562 45.242188 165.664062 44.992188 166.039062 44.460938 C 166.289062 44.179688 166.445312 43.773438 166.632812 43.273438 C 166.820312 42.773438 167.132812 42.117188 167.320312 41.335938 L 168.632812 36.304688 L 169.820312 36.304688 L 169.945312 35.960938 L 168.726562 35.960938 C 169.039062 34.835938 169.507812 32.867188 169.820312 32.273438 C 169.945312 32.085938 170.195312 31.804688 170.570312 31.804688 C 170.851562 31.804688 170.976562 31.992188 171.039062 32.242188 C 171.101562 32.523438 171.195312 32.773438 171.539062 32.773438 C 171.789062 32.773438 171.914062 32.585938 171.914062 32.367188 C 171.914062 31.773438 171.164062 31.492188 170.664062 31.492188 C 168.851562 31.523438 168.164062 34.429688 167.757812 35.960938 L 166.570312 35.960938 L 166.476562 36.304688 L 167.664062 36.304688 L 165.757812 43.492188 C 165.664062 43.835938 165.382812 44.898438 164.851562 44.898438 Z M 164.851562 44.898438 "/>
<path fill-rule="nonzero" fill="rgb(0%, 0%, 0%)" fill-opacity="1" d="M 174.464844 44.363281 L 174.464844 43.925781 L 173.996094 43.925781 C 172.871094 43.925781 172.871094 43.800781 172.871094 43.425781 L 172.871094 37.394531 C 172.871094 37.082031 172.839844 37.082031 172.496094 37.082031 C 171.777344 37.769531 170.652344 37.769531 170.246094 37.769531 L 170.246094 38.207031 C 170.558594 38.207031 171.277344 38.207031 171.933594 37.894531 L 171.933594 43.425781 C 171.933594 43.800781 171.933594 43.925781 170.808594 43.925781 L 170.339844 43.925781 L 170.339844 44.363281 C 170.933594 44.332031 171.777344 44.332031 172.402344 44.332031 C 173.027344 44.332031 173.871094 44.332031 174.464844 44.363281 Z M 174.464844 44.363281 "/>
<path fill="none" stroke-width="0.5579" stroke-linecap="butt" stroke-linejoin="miter" stroke="rgb(0%, 0%, 0%)" stroke-opacity="1" stroke-miterlimit="10" d="M 13.978157 16.320999 L 36.931282 16.320999 " transform="matrix(2, 0, 0, -2, 197.363998, 47.891998)"/>
<path fill="none" stroke-width="0.5579" stroke-linecap="round" stroke-linejoin="round" stroke="rgb(0%, 0%, 0%)" stroke-opacity="1" stroke-miterlimit="10" d="M -2.899307 3.348636 C -2.371964 1.340824 -1.18837 0.391605 -0.000869751 0.0009799 C -1.18837 -0.389645 -2.371964 -1.338864 -2.899307 -3.346676 " transform="matrix(2, 0, 0, -2, 271.78299, 15.25196)"/>
<path fill="none" stroke-width="0.5579" stroke-linecap="butt" stroke-linejoin="miter" stroke="rgb(0%, 0%, 0%)" stroke-opacity="1" stroke-miterlimit="10" d="M 3.005501 8.414749 L 3.005501 -8.561813 " transform="matrix(2, 0, 0, -2, 197.363998, 47.891998)"/>
<path fill="none" stroke-width="0.5579" stroke-linecap="round" stroke-linejoin="round" stroke="rgb(0%, 0%, 0%)" stroke-opacity="1" stroke-miterlimit="10" d="M -2.902668 3.349174 C -2.371418 1.337456 -1.19173 0.392143 -0.000324249 0.00151825 C -1.19173 -0.389107 -2.371418 -1.338326 -2.902668 -3.346138 " transform="matrix(0, 2, 2, 0, 203.371964, 65.570961)"/>
<path fill-rule="nonzero" fill="rgb(0%, 0%, 0%)" fill-opacity="1" d="M 208.929688 55.097656 C 208.617188 55.097656 208.554688 54.910156 208.492188 54.660156 C 208.429688 54.410156 208.304688 54.128906 207.992188 54.128906 C 207.742188 54.128906 207.617188 54.347656 207.617188 54.566406 C 207.617188 55.160156 208.367188 55.441406 208.835938 55.441406 C 209.679688 55.441406 209.742188 55.191406 210.117188 54.660156 C 210.367188 54.378906 210.523438 53.972656 210.710938 53.472656 C 210.898438 52.972656 211.210938 52.316406 211.398438 51.535156 L 212.710938 46.503906 L 213.898438 46.503906 L 214.023438 46.160156 L 212.804688 46.160156 C 213.117188 45.035156 213.585938 43.066406 213.898438 42.472656 C 214.023438 42.285156 214.273438 42.003906 214.648438 42.003906 C 214.929688 42.003906 215.054688 42.191406 215.117188 42.441406 C 215.179688 42.722656 215.273438 42.972656 215.617188 42.972656 C 215.867188 42.972656 215.992188 42.785156 215.992188 42.566406 C 215.992188 41.972656 215.242188 41.691406 214.742188 41.691406 C 212.929688 41.722656 212.242188 44.628906 211.835938 46.160156 L 210.648438 46.160156 L 210.554688 46.503906 L 211.742188 46.503906 L 209.835938 53.691406 C 209.742188 54.035156 209.460938 55.097656 208.929688 55.097656 Z M 208.929688 55.097656 "/>
<path fill-rule="nonzero" fill="rgb(0%, 0%, 0%)" fill-opacity="1" d="M 218.914062 52.5 L 218.507812 52.5 C 218.476562 52.65625 218.382812 53.375 218.195312 53.5 C 218.132812 53.5625 217.226562 53.5625 217.101562 53.5625 L 215.039062 53.5625 L 216.445312 52.4375 C 216.820312 52.125 217.789062 51.4375 218.132812 51.09375 C 218.445312 50.78125 218.914062 50.21875 218.914062 49.4375 C 218.914062 48.0625 217.664062 47.28125 216.195312 47.28125 C 214.789062 47.28125 213.789062 48.1875 213.789062 49.21875 C 213.789062 49.78125 214.257812 49.84375 214.382812 49.84375 C 214.664062 49.84375 214.976562 49.65625 214.976562 49.25 C 214.976562 49.03125 214.851562 48.6875 214.351562 48.6875 C 214.601562 48.125 215.289062 47.6875 216.039062 47.6875 C 217.195312 47.6875 217.789062 48.5625 217.789062 49.4375 C 217.789062 50.21875 217.289062 51.03125 216.507812 51.71875 L 213.914062 54.09375 C 213.820312 54.21875 213.789062 54.21875 213.789062 54.5625 L 218.570312 54.5625 Z M 218.914062 52.5 "/>
<path fill="none" stroke-width="0.5579" stroke-linecap="butt" stroke-linejoin="miter" stroke="rgb(0%, 0%, 0%)" stroke-opacity="1" stroke-miterlimit="10" d="M 57.864876 16.320999 L 80.818001 16.320999 " transform="matrix(2, 0, 0, -2, 197.363998, 47.891998)"/>
<path fill="none" stroke-width="0.5579" stroke-linecap="round" stroke-linejoin="round" stroke="rgb(0%, 0%, 0%)" stroke-opacity="1" stroke-miterlimit="10" d="M -2.901688 3.348636 C -2.370438 1.340824 -1.19075 0.391605 0.000656128 0.0009799 C -1.19075 -0.389645 -2.370438 -1.338864 -2.901688 -3.346676 " transform="matrix(2, 0, 0, -2, 359.561188, 15.25196)"/>
<path fill="none" stroke-width="0.5579" stroke-linecap="butt" stroke-linejoin="miter" stroke="rgb(0%, 0%, 0%)" stroke-opacity="1" stroke-miterlimit="10" d="M 81.376595 12.930374 L 12.778938 -13.667282 " transform="matrix(2, 0, 0, -2, 197.363998, 47.891998)"/>
<path fill="none" stroke-width="0.5579" stroke-linecap="round" stroke-linejoin="round" stroke="rgb(0%, 0%, 0%)" stroke-opacity="1" stroke-miterlimit="10" d="M -2.90132 3.349547 C -2.369917 1.337726 -1.191135 0.390502 -0.00159974 0.000538396 C -1.187906 -0.390047 -2.372627 -1.338487 -2.899697 -3.346338 " transform="matrix(-1.86466, 0.72294, 0.72294, 1.86466, 222.402878, 75.42984)"/>
<path fill-rule="nonzero" fill="rgb(0%, 0%, 0%)" fill-opacity="1" d="M 278.503906 43.675781 C 278.191406 43.675781 278.128906 43.488281 278.066406 43.238281 C 278.003906 42.988281 277.878906 42.707031 277.566406 42.707031 C 277.316406 42.707031 277.191406 42.925781 277.191406 43.144531 C 277.191406 43.738281 277.941406 44.019531 278.410156 44.019531 C 279.253906 44.019531 279.316406 43.769531 279.691406 43.238281 C 279.941406 42.957031 280.097656 42.550781 280.285156 42.050781 C 280.472656 41.550781 280.785156 40.894531 280.972656 40.113281 L 282.285156 35.082031 L 283.472656 35.082031 L 283.597656 34.738281 L 282.378906 34.738281 C 282.691406 33.613281 283.160156 31.644531 283.472656 31.050781 C 283.597656 30.863281 283.847656 30.582031 284.222656 30.582031 C 284.503906 30.582031 284.628906 30.769531 284.691406 31.019531 C 284.753906 31.300781 284.847656 31.550781 285.191406 31.550781 C 285.441406 31.550781 285.566406 31.363281 285.566406 31.144531 C 285.566406 30.550781 284.816406 30.269531 284.316406 30.269531 C 282.503906 30.300781 281.816406 33.207031 281.410156 34.738281 L 280.222656 34.738281 L 280.128906 35.082031 L 281.316406 35.082031 L 279.410156 42.269531 C 279.316406 42.613281 279.035156 43.675781 278.503906 43.675781 Z M 278.503906 43.675781 "/>
</svg>
