<?xml version="1.0" encoding="UTF-8"?>
<svg xmlns="http://www.w3.org/2000/svg" xmlns:xlink="http://www.w3.org/1999/xlink" width="226.740005" height="105.339996" viewBox="0 0 226.740005 105.339996">
<defs>
<clipPath id="clip-0">
<path clip-rule="nonzero" d="M 50 0 L 223 0 L 223 105.34375 L 50 105.34375 Z M 50 0 "/>
</clipPath>
</defs>
<path fill-rule="nonzero" fill="rgb(0%, 0%, 0%)" fill-opacity="1" d="M 14.242188 11.90625 C 14.242188 11.125 14.742188 9.84375 16.929688 9.71875 C 17.023438 9.6875 17.085938 9.59375 17.085938 9.5 C 17.085938 9.25 16.929688 9.25 16.710938 9.25 C 14.742188 9.25 12.898438 10.28125 12.898438 11.75 L 12.898438 16.3125 C 12.898438 17.09375 12.898438 17.71875 12.085938 18.375 C 11.398438 18.96875 10.648438 19 10.210938 19 C 10.085938 19.03125 10.023438 19.125 10.023438 19.21875 C 10.023438 19.4375 10.148438 19.4375 10.335938 19.46875 C 11.648438 19.53125 12.617188 20.25 12.835938 21.21875 C 12.898438 21.4375 12.898438 21.5 12.898438 22.21875 L 12.898438 26.15625 C 12.898438 27 12.898438 27.625 13.835938 28.375 C 14.617188 28.96875 15.929688 29.21875 16.710938 29.21875 C 16.929688 29.21875 17.085938 29.21875 17.085938 28.96875 C 17.085938 28.78125 16.992188 28.78125 16.773438 28.75 C 15.523438 28.6875 14.554688 28.03125 14.273438 27.03125 C 14.242188 26.84375 14.242188 26.8125 14.242188 26.09375 L 14.242188 21.90625 C 14.242188 21 14.054688 20.65625 13.429688 20 C 13.023438 19.59375 12.429688 19.40625 11.867188 19.21875 C 13.523438 18.78125 14.242188 17.84375 14.242188 16.6875 Z M 14.242188 11.90625 "/>
<path fill-rule="nonzero" fill="rgb(0%, 0%, 0%)" fill-opacity="1" d="M 20.296875 23.03125 C 20.234375 23.34375 20.109375 23.8125 20.109375 23.90625 C 20.109375 24.25 20.390625 24.4375 20.703125 24.4375 C 20.953125 24.4375 21.296875 24.28125 21.453125 23.875 C 21.453125 23.84375 21.703125 22.90625 21.828125 22.40625 L 22.265625 20.625 C 22.359375 20.15625 22.484375 19.71875 22.609375 19.28125 C 22.671875 18.9375 22.828125 18.34375 22.859375 18.28125 C 23.140625 17.65625 24.203125 15.84375 26.109375 15.84375 C 27.015625 15.84375 27.171875 16.59375 27.171875 17.25 C 27.171875 17.75 27.046875 18.3125 26.890625 18.90625 L 26.328125 21.21875 L 25.921875 22.71875 C 25.859375 23.125 25.671875 23.8125 25.671875 23.90625 C 25.671875 24.25 25.953125 24.4375 26.234375 24.4375 C 26.859375 24.4375 26.984375 23.9375 27.140625 23.3125 C 27.421875 22.1875 28.171875 19.28125 28.328125 18.5 C 28.390625 18.25 29.453125 15.84375 31.640625 15.84375 C 32.484375 15.84375 32.703125 16.53125 32.703125 17.25 C 32.703125 18.375 31.859375 20.65625 31.453125 21.71875 C 31.296875 22.1875 31.203125 22.40625 31.203125 22.8125 C 31.203125 23.75 31.890625 24.4375 32.828125 24.4375 C 34.703125 24.4375 35.453125 21.53125 35.453125 21.375 C 35.453125 21.15625 35.265625 21.15625 35.203125 21.15625 C 35.015625 21.15625 35.015625 21.21875 34.921875 21.53125 C 34.609375 22.59375 33.984375 24 32.890625 24 C 32.546875 24 32.390625 23.8125 32.390625 23.34375 C 32.390625 22.84375 32.578125 22.375 32.765625 21.9375 C 33.140625 20.875 33.984375 18.6875 33.984375 17.53125 C 33.984375 16.25 33.171875 15.40625 31.671875 15.40625 C 30.203125 15.40625 29.171875 16.28125 28.421875 17.34375 C 28.421875 17.09375 28.359375 16.40625 27.796875 15.9375 C 27.296875 15.5 26.671875 15.40625 26.171875 15.40625 C 24.359375 15.40625 23.390625 16.6875 23.046875 17.15625 C 22.953125 16 22.109375 15.40625 21.203125 15.40625 C 20.296875 15.40625 19.921875 16.1875 19.734375 16.53125 C 19.390625 17.25 19.140625 18.40625 19.140625 18.46875 C 19.140625 18.6875 19.328125 18.6875 19.359375 18.6875 C 19.578125 18.6875 19.578125 18.65625 19.703125 18.21875 C 20.046875 16.8125 20.453125 15.84375 21.171875 15.84375 C 21.484375 15.84375 21.765625 16 21.765625 16.75 C 21.765625 17.1875 21.703125 17.40625 21.453125 18.4375 Z M 20.296875 23.03125 "/>
<path fill-rule="nonzero" fill="rgb(0%, 0%, 0%)" fill-opacity="1" d="M 40.417969 17.957031 C 40.417969 17.925781 40.449219 17.738281 40.449219 17.738281 C 40.449219 17.644531 40.417969 17.519531 40.230469 17.519531 C 39.949219 17.519531 38.792969 17.644531 38.449219 17.675781 C 38.355469 17.675781 38.136719 17.707031 38.136719 17.988281 C 38.136719 18.175781 38.355469 18.175781 38.511719 18.175781 C 39.167969 18.175781 39.167969 18.300781 39.167969 18.394531 C 39.167969 18.488281 39.136719 18.582031 39.136719 18.707031 L 37.167969 26.582031 C 37.074219 26.832031 37.074219 26.863281 37.074219 26.894531 C 37.074219 27.113281 37.261719 27.332031 37.574219 27.332031 C 37.949219 27.332031 38.105469 27.082031 38.199219 26.769531 C 38.230469 26.707031 38.824219 24.238281 38.886719 24.050781 C 39.886719 24.144531 40.667969 24.488281 40.667969 25.207031 C 40.667969 25.269531 40.667969 25.332031 40.636719 25.488281 C 40.574219 25.675781 40.574219 25.769531 40.574219 25.925781 C 40.574219 26.894531 41.386719 27.332031 42.074219 27.332031 C 43.417969 27.332031 43.824219 25.238281 43.824219 25.207031 C 43.824219 25.019531 43.667969 25.019531 43.605469 25.019531 C 43.417969 25.019531 43.386719 25.113281 43.324219 25.363281 C 43.167969 25.957031 42.792969 26.957031 42.105469 26.957031 C 41.730469 26.957031 41.605469 26.613281 41.605469 26.238281 C 41.605469 25.988281 41.605469 25.957031 41.699219 25.613281 C 41.730469 25.550781 41.761719 25.332031 41.761719 25.175781 C 41.761719 23.925781 40.105469 23.738281 39.511719 23.707031 C 39.917969 23.457031 40.417969 22.988281 40.667969 22.769531 C 41.386719 22.113281 42.074219 21.457031 42.855469 21.457031 C 43.011719 21.457031 43.199219 21.488281 43.324219 21.644531 C 42.730469 21.738281 42.605469 22.207031 42.605469 22.425781 C 42.605469 22.707031 42.824219 22.925781 43.136719 22.925781 C 43.542969 22.925781 43.949219 22.613281 43.949219 22.050781 C 43.949219 21.582031 43.605469 21.050781 42.886719 21.050781 C 42.074219 21.050781 41.355469 21.644531 40.636719 22.300781 C 40.042969 22.832031 39.605469 23.269531 39.011719 23.519531 Z M 40.417969 17.957031 "/>
<path fill-rule="nonzero" fill="rgb(0%, 0%, 0%)" fill-opacity="1" d="M 50.160156 26.5625 C 50.160156 27.34375 49.628906 28.625 47.472656 28.75 C 47.347656 28.78125 47.285156 28.875 47.285156 28.96875 C 47.285156 29.21875 47.503906 29.21875 47.691406 29.21875 C 49.628906 29.21875 51.472656 28.21875 51.503906 26.71875 L 51.503906 22.15625 C 51.503906 21.375 51.503906 20.75 52.285156 20.09375 C 52.972656 19.5 53.753906 19.46875 54.191406 19.46875 C 54.285156 19.4375 54.347656 19.34375 54.347656 19.21875 C 54.347656 19.03125 54.253906 19.03125 54.035156 19 C 52.722656 18.9375 51.753906 18.21875 51.535156 17.25 C 51.503906 17.03125 51.503906 16.96875 51.503906 16.25 L 51.503906 12.3125 C 51.503906 11.46875 51.503906 10.84375 50.535156 10.09375 C 49.722656 9.46875 48.347656 9.25 47.691406 9.25 C 47.503906 9.25 47.285156 9.25 47.285156 9.5 C 47.285156 9.6875 47.410156 9.6875 47.597656 9.71875 C 48.847656 9.78125 49.847656 10.4375 50.097656 11.4375 C 50.160156 11.625 50.160156 11.65625 50.160156 12.375 L 50.160156 16.5625 C 50.160156 17.46875 50.316406 17.8125 50.941406 18.46875 C 51.378906 18.875 51.941406 19.0625 52.503906 19.21875 C 50.878906 19.6875 50.160156 20.625 50.160156 21.78125 Z M 50.160156 26.5625 "/>
<path fill-rule="nonzero" fill="rgb(0%, 0%, 0%)" fill-opacity="1" d="M 67.980469 18.6875 L 64.011719 14.71875 C 63.761719 14.46875 63.730469 14.4375 63.574219 14.4375 C 63.355469 14.4375 63.167969 14.59375 63.167969 14.84375 C 63.167969 14.96875 63.199219 15 63.417969 15.21875 L 67.417969 19.21875 L 63.417969 23.25 C 63.199219 23.46875 63.167969 23.5 63.167969 23.625 C 63.167969 23.875 63.355469 24.03125 63.574219 24.03125 C 63.730469 24.03125 63.761719 24 64.011719 23.75 L 67.980469 19.78125 L 72.105469 23.90625 C 72.136719 23.9375 72.261719 24.03125 72.386719 24.03125 C 72.636719 24.03125 72.792969 23.875 72.792969 23.625 C 72.792969 23.59375 72.792969 23.53125 72.730469 23.40625 C 72.699219 23.375 69.542969 20.25 68.542969 19.21875 L 72.199219 15.59375 C 72.292969 15.46875 72.605469 15.21875 72.699219 15.09375 C 72.699219 15.0625 72.792969 14.96875 72.792969 14.84375 C 72.792969 14.59375 72.636719 14.4375 72.386719 14.4375 C 72.230469 14.4375 72.167969 14.5 71.949219 14.71875 Z M 67.980469 18.6875 "/>
<path fill-rule="nonzero" fill="rgb(0%, 0%, 0%)" fill-opacity="1" d="M 89.378906 17.46875 C 89.191406 16.21875 88.378906 15.09375 86.816406 15.09375 C 85.597656 15.09375 84.316406 15.4375 82.753906 16.96875 C 81.097656 18.625 80.972656 20.5 80.972656 21.09375 C 80.972656 22.34375 81.847656 24.65625 84.628906 24.65625 C 89.378906 24.65625 91.441406 17.96875 91.441406 15.09375 C 91.441406 11.9375 89.597656 9.9375 87.128906 9.9375 C 84.253906 9.9375 83.316406 12.53125 83.316406 13.09375 C 83.316406 13.375 83.503906 13.78125 84.097656 13.78125 C 84.753906 13.78125 85.160156 13.1875 85.160156 12.75 C 85.160156 12.03125 84.535156 12.03125 84.222656 12.03125 C 85.097656 10.5625 86.535156 10.4375 87.097656 10.4375 C 88.566406 10.4375 89.941406 11.46875 89.941406 14.0625 C 89.941406 14.84375 89.816406 15.84375 89.410156 17.46875 Z M 84.691406 24.09375 C 82.503906 24.09375 82.503906 22.03125 82.503906 21.84375 C 82.503906 21.3125 83.003906 18.53125 83.816406 17.3125 C 84.597656 16.1875 85.597656 15.53125 86.816406 15.53125 C 89.003906 15.53125 89.035156 17.78125 89.035156 18.1875 C 89.035156 19.625 87.753906 24.09375 84.691406 24.09375 Z M 84.691406 24.09375 "/>
<path fill-rule="nonzero" fill="rgb(0%, 0%, 0%)" fill-opacity="1" d="M 100.660156 10.3125 C 100.535156 10.03125 100.472656 9.9375 100.128906 9.9375 C 99.816406 9.9375 99.753906 10.03125 99.628906 10.3125 L 92.878906 23.8125 C 92.785156 24 92.785156 24.03125 92.785156 24.0625 C 92.785156 24.21875 92.910156 24.21875 93.222656 24.21875 L 107.066406 24.21875 C 107.378906 24.21875 107.503906 24.21875 107.503906 24.0625 C 107.503906 24.03125 107.503906 24 107.410156 23.8125 Z M 99.503906 11.9375 L 104.878906 22.71875 L 94.128906 22.71875 Z M 99.503906 11.9375 "/>
<path fill-rule="nonzero" fill="rgb(0%, 0%, 0%)" fill-opacity="1" d="M 112.828125 7.738281 C 112.828125 7.707031 112.859375 7.519531 112.859375 7.519531 C 112.859375 7.425781 112.828125 7.300781 112.640625 7.300781 C 112.359375 7.300781 111.203125 7.425781 110.859375 7.457031 C 110.765625 7.457031 110.546875 7.488281 110.546875 7.769531 C 110.546875 7.957031 110.765625 7.957031 110.921875 7.957031 C 111.578125 7.957031 111.578125 8.082031 111.578125 8.175781 C 111.578125 8.269531 111.546875 8.363281 111.546875 8.488281 L 109.578125 16.363281 C 109.484375 16.613281 109.484375 16.644531 109.484375 16.675781 C 109.484375 16.894531 109.671875 17.113281 109.984375 17.113281 C 110.359375 17.113281 110.515625 16.863281 110.609375 16.550781 C 110.640625 16.488281 111.234375 14.019531 111.296875 13.832031 C 112.296875 13.925781 113.078125 14.269531 113.078125 14.988281 C 113.078125 15.050781 113.078125 15.113281 113.046875 15.269531 C 112.984375 15.457031 112.984375 15.550781 112.984375 15.707031 C 112.984375 16.675781 113.796875 17.113281 114.484375 17.113281 C 115.828125 17.113281 116.234375 15.019531 116.234375 14.988281 C 116.234375 14.800781 116.078125 14.800781 116.015625 14.800781 C 115.828125 14.800781 115.796875 14.894531 115.734375 15.144531 C 115.578125 15.738281 115.203125 16.738281 114.515625 16.738281 C 114.140625 16.738281 114.015625 16.394531 114.015625 16.019531 C 114.015625 15.769531 114.015625 15.738281 114.109375 15.394531 C 114.140625 15.332031 114.171875 15.113281 114.171875 14.957031 C 114.171875 13.707031 112.515625 13.519531 111.921875 13.488281 C 112.328125 13.238281 112.828125 12.769531 113.078125 12.550781 C 113.796875 11.894531 114.484375 11.238281 115.265625 11.238281 C 115.421875 11.238281 115.609375 11.269531 115.734375 11.425781 C 115.140625 11.519531 115.015625 11.988281 115.015625 12.207031 C 115.015625 12.488281 115.234375 12.707031 115.546875 12.707031 C 115.953125 12.707031 116.359375 12.394531 116.359375 11.832031 C 116.359375 11.363281 116.015625 10.832031 115.296875 10.832031 C 114.484375 10.832031 113.765625 11.425781 113.046875 12.082031 C 112.453125 12.613281 112.015625 13.050781 111.421875 13.300781 Z M 112.828125 7.738281 "/>
<path fill-rule="nonzero" fill="rgb(0%, 0%, 0%)" fill-opacity="1" d="M 191.8125 11.8125 C 191.8125 11.34375 191.8125 11.15625 191.28125 11.15625 C 191.0625 11.15625 191.03125 11.15625 190.84375 11.3125 C 189.3125 12.4375 187.25 12.4375 186.84375 12.4375 L 186.4375 12.4375 L 186.4375 13.375 L 186.84375 13.375 C 187.15625 13.375 188.25 13.34375 189.4375 12.96875 L 189.4375 23.28125 L 186.65625 23.28125 L 186.65625 24.21875 C 187.53125 24.15625 189.65625 24.15625 190.625 24.15625 C 191.59375 24.15625 193.71875 24.15625 194.59375 24.21875 L 194.59375 23.28125 L 191.8125 23.28125 Z M 191.8125 11.8125 "/>
<path fill-rule="nonzero" fill="rgb(0%, 0%, 0%)" fill-opacity="1" d="M 48.191406 89.203125 L 44.378906 80.140625 C 44.222656 79.734375 44.222656 79.734375 43.660156 79.734375 L 39.972656 79.734375 C 39.597656 79.734375 39.316406 79.734375 39.316406 80.078125 C 39.316406 80.421875 39.660156 80.421875 39.753906 80.421875 C 40.003906 80.421875 40.535156 80.484375 40.972656 80.640625 L 40.972656 91.265625 C 40.972656 91.703125 40.972656 92.578125 39.628906 92.703125 C 39.253906 92.734375 39.253906 93.015625 39.253906 93.046875 C 39.253906 93.390625 39.566406 93.390625 39.941406 93.390625 L 43.003906 93.390625 C 43.378906 93.390625 43.660156 93.390625 43.660156 93.046875 C 43.660156 92.859375 43.503906 92.703125 43.347656 92.703125 C 41.816406 92.578125 41.816406 91.734375 41.816406 91.265625 L 41.816406 81.359375 L 41.847656 81.328125 L 46.691406 92.984375 C 46.878906 93.328125 47.003906 93.390625 47.128906 93.390625 C 47.378906 93.390625 47.410156 93.234375 47.535156 92.984375 L 52.410156 81.328125 L 52.441406 81.359375 L 52.441406 91.265625 C 52.441406 91.703125 52.441406 92.578125 51.066406 92.703125 C 50.691406 92.734375 50.691406 93.015625 50.691406 93.046875 C 50.691406 93.390625 51.003906 93.390625 51.378906 93.390625 L 56.691406 93.390625 C 57.066406 93.390625 57.347656 93.390625 57.347656 93.046875 C 57.347656 92.859375 57.191406 92.703125 57.035156 92.703125 C 55.503906 92.578125 55.503906 91.734375 55.503906 91.265625 L 55.503906 81.859375 C 55.503906 81.421875 55.503906 80.546875 56.847656 80.421875 C 57.066406 80.421875 57.222656 80.296875 57.222656 80.078125 C 57.222656 79.734375 56.941406 79.734375 56.566406 79.734375 L 52.722656 79.734375 C 52.222656 79.734375 52.160156 79.734375 52.003906 80.140625 Z M 47.597656 89.578125 C 47.753906 89.890625 47.785156 89.921875 48.035156 90.015625 L 47.128906 92.109375 L 47.097656 92.109375 L 42.566406 81.265625 C 42.472656 81.015625 42.285156 80.671875 42.035156 80.421875 L 43.753906 80.421875 Z M 41.566406 92.703125 L 41.253906 92.703125 C 41.285156 92.640625 41.316406 92.578125 41.347656 92.546875 C 41.378906 92.515625 41.378906 92.484375 41.410156 92.484375 Z M 53.128906 80.421875 L 55.253906 80.421875 C 54.785156 80.921875 54.785156 81.453125 54.785156 81.796875 L 54.785156 91.328125 C 54.785156 91.671875 54.785156 92.203125 55.253906 92.703125 L 52.691406 92.703125 C 53.128906 92.203125 53.128906 91.671875 53.128906 91.328125 Z M 53.128906 80.421875 "/>
<path fill-rule="nonzero" fill="rgb(0%, 0%, 0%)" fill-opacity="1" d="M 62.105469 87.128906 C 62.105469 87.097656 62.136719 86.910156 62.136719 86.910156 C 62.136719 86.816406 62.105469 86.691406 61.917969 86.691406 C 61.636719 86.691406 60.480469 86.816406 60.136719 86.847656 C 60.042969 86.847656 59.824219 86.878906 59.824219 87.160156 C 59.824219 87.347656 60.042969 87.347656 60.199219 87.347656 C 60.855469 87.347656 60.855469 87.472656 60.855469 87.566406 C 60.855469 87.660156 60.824219 87.753906 60.824219 87.878906 L 58.855469 95.753906 C 58.761719 96.003906 58.761719 96.035156 58.761719 96.066406 C 58.761719 96.285156 58.949219 96.503906 59.261719 96.503906 C 59.636719 96.503906 59.792969 96.253906 59.886719 95.941406 C 59.917969 95.878906 60.511719 93.410156 60.574219 93.222656 C 61.574219 93.316406 62.355469 93.660156 62.355469 94.378906 C 62.355469 94.441406 62.355469 94.503906 62.324219 94.660156 C 62.261719 94.847656 62.261719 94.941406 62.261719 95.097656 C 62.261719 96.066406 63.074219 96.503906 63.761719 96.503906 C 65.105469 96.503906 65.511719 94.410156 65.511719 94.378906 C 65.511719 94.191406 65.355469 94.191406 65.292969 94.191406 C 65.105469 94.191406 65.074219 94.285156 65.011719 94.535156 C 64.855469 95.128906 64.480469 96.128906 63.792969 96.128906 C 63.417969 96.128906 63.292969 95.785156 63.292969 95.410156 C 63.292969 95.160156 63.292969 95.128906 63.386719 94.785156 C 63.417969 94.722656 63.449219 94.503906 63.449219 94.347656 C 63.449219 93.097656 61.792969 92.910156 61.199219 92.878906 C 61.605469 92.628906 62.105469 92.160156 62.355469 91.941406 C 63.074219 91.285156 63.761719 90.628906 64.542969 90.628906 C 64.699219 90.628906 64.886719 90.660156 65.011719 90.816406 C 64.417969 90.910156 64.292969 91.378906 64.292969 91.597656 C 64.292969 91.878906 64.511719 92.097656 64.824219 92.097656 C 65.230469 92.097656 65.636719 91.785156 65.636719 91.222656 C 65.636719 90.753906 65.292969 90.222656 64.574219 90.222656 C 63.761719 90.222656 63.042969 90.816406 62.324219 91.472656 C 61.730469 92.003906 61.292969 92.441406 60.699219 92.691406 Z M 62.105469 87.128906 "/>
<path fill-rule="nonzero" fill="rgb(0%, 0%, 0%)" fill-opacity="1" d="M 76.914062 93.222656 C 77.132812 93.222656 77.476562 93.222656 77.476562 92.910156 C 77.476562 92.535156 77.132812 92.535156 76.914062 92.535156 L 68.601562 92.535156 C 68.382812 92.535156 68.039062 92.535156 68.039062 92.878906 C 68.039062 93.222656 68.351562 93.222656 68.601562 93.222656 Z M 76.914062 93.222656 "/>
<path fill-rule="nonzero" fill="rgb(0%, 0%, 0%)" fill-opacity="1" d="M 83.644531 87.503906 C 83.644531 87.128906 83.644531 87.128906 83.238281 87.128906 C 82.332031 88.003906 81.082031 88.003906 80.519531 88.003906 L 80.519531 88.503906 C 80.832031 88.503906 81.769531 88.503906 82.519531 88.128906 L 82.519531 95.222656 C 82.519531 95.691406 82.519531 95.878906 81.144531 95.878906 L 80.613281 95.878906 L 80.613281 96.378906 C 80.863281 96.378906 82.582031 96.316406 83.082031 96.316406 C 83.519531 96.316406 85.269531 96.378906 85.582031 96.378906 L 85.582031 95.878906 L 85.050781 95.878906 C 83.644531 95.878906 83.644531 95.691406 83.644531 95.222656 Z M 83.644531 87.503906 "/>
<path fill-rule="nonzero" fill="rgb(0%, 0%, 0%)" fill-opacity="1" d="M 193.097656 87.484375 C 192.628906 89.171875 191.941406 91.640625 191.941406 93.171875 C 191.941406 93.703125 192.253906 93.953125 192.753906 93.953125 C 193.535156 93.953125 195.035156 93.078125 195.035156 92.703125 C 195.035156 92.578125 194.941406 92.546875 194.847656 92.546875 C 194.597656 92.546875 194.253906 92.734375 194.035156 92.859375 C 193.753906 92.796875 193.628906 92.609375 193.628906 92.328125 C 193.628906 89.890625 195.878906 82.921875 196.472656 81.453125 C 196.722656 80.890625 196.972656 80.078125 196.972656 79.921875 C 196.972656 79.765625 196.847656 79.765625 196.785156 79.765625 C 196.347656 79.765625 195.441406 80.296875 195.285156 80.703125 C 195.035156 81.390625 195.003906 81.484375 194.753906 82.234375 C 194.097656 84.109375 192.128906 87.421875 190.160156 89.734375 C 189.535156 90.421875 187.566406 92.734375 186.160156 92.734375 C 185.222656 92.734375 184.597656 91.921875 184.597656 90.609375 C 184.597656 89.203125 185.378906 87.421875 186.597656 84.671875 C 187.316406 83.046875 187.910156 81.640625 187.910156 80.734375 C 187.910156 79.796875 187.253906 79.765625 186.910156 79.765625 C 185.378906 79.765625 183.441406 81.015625 183.441406 81.421875 C 183.441406 81.546875 183.597656 81.546875 183.660156 81.546875 C 183.910156 81.546875 184.285156 81.390625 184.597656 81.171875 C 184.722656 81.078125 185.035156 80.859375 185.597656 80.859375 C 186.035156 80.859375 186.191406 81.140625 186.191406 81.578125 C 186.191406 82.453125 185.472656 84.109375 184.660156 86.015625 C 183.347656 89.015625 182.910156 90.265625 182.910156 91.421875 C 182.910156 92.765625 183.441406 93.828125 184.847656 93.828125 C 186.097656 93.828125 187.910156 93.015625 189.941406 91.109375 C 191.316406 89.828125 192.191406 88.640625 193.066406 87.484375 Z M 193.097656 87.484375 "/>
<path fill="none" stroke-width="0.39848" stroke-linecap="butt" stroke-linejoin="miter" stroke="rgb(0%, 0%, 0%)" stroke-opacity="1" stroke-miterlimit="10" d="M 12.048092 16.717812 L 35.911373 16.717812 " transform="matrix(2, 0, 0, -2, 103.146004, 52.669998)"/>
<path fill="none" stroke-width="0.39848" stroke-linecap="round" stroke-linejoin="round" stroke="rgb(0%, 0%, 0%)" stroke-opacity="1" stroke-miterlimit="10" d="M -2.073967 2.391308 C -1.695061 0.957714 -0.851311 0.278027 0.00025177 0.000682831 C -0.851311 -0.280567 -1.695061 -0.956348 -2.073967 -2.389942 " transform="matrix(2, 0, 0, -2, 175.366684, 19.235741)"/>
<path fill-rule="nonzero" fill="rgb(0%, 0%, 0%)" fill-opacity="1" d="M 152.3125 5.355469 C 152.3125 4.855469 151.875 4.605469 151.5 4.605469 C 151.09375 4.605469 150.6875 4.886719 150.6875 5.355469 L 151.25 11.511719 C 151.28125 11.824219 151.3125 11.824219 151.5 11.824219 C 151.6875 11.824219 151.71875 11.824219 151.75 11.511719 Z M 152.3125 13.730469 C 152.3125 13.292969 151.9375 12.949219 151.5 12.949219 C 151.03125 12.949219 150.6875 13.324219 150.6875 13.730469 C 150.6875 14.230469 151.09375 14.542969 151.5 14.542969 C 151.96875 14.542969 152.3125 14.199219 152.3125 13.730469 Z M 152.3125 13.730469 "/>
<path fill="none" stroke-width="0.39848" stroke-linecap="butt" stroke-linejoin="miter" stroke="rgb(0%, 0%, 0%)" stroke-opacity="1" stroke-miterlimit="10" d="M -19.862064 7.88578 L -19.862064 -9.250938 " transform="matrix(2, 0, 0, -2, 103.146004, 52.669998)"/>
<path fill="none" stroke-width="0.39848" stroke-linecap="round" stroke-linejoin="round" stroke="rgb(0%, 0%, 0%)" stroke-opacity="1" stroke-miterlimit="10" d="M -2.072681 2.389982 C -1.693775 0.956388 -0.850025 0.280607 0.00153732 -0.000642776 C -0.850025 -0.277987 -1.693775 -0.957674 -2.072681 -2.391268 " transform="matrix(0, 2, 2, 0, 63.423161, 71.567238)"/>
<path fill-rule="nonzero" fill="rgb(0%, 0%, 0%)" fill-opacity="1" d="M 27.5 47.847656 C 27.40625 47.597656 27.375 47.535156 27.21875 47.535156 C 27.0625 47.535156 27 47.660156 26.90625 47.816406 L 23.75 56.160156 C 23.5625 56.597656 23.28125 56.816406 22.90625 56.847656 C 22.84375 56.847656 22.625 56.878906 22.625 57.097656 C 22.625 57.347656 22.84375 57.347656 23.09375 57.347656 L 25.3125 57.347656 C 25.5625 57.347656 25.78125 57.347656 25.78125 57.097656 C 25.78125 56.878906 25.59375 56.878906 25.46875 56.847656 C 25.28125 56.847656 24.9375 56.785156 24.9375 55.941406 C 24.9375 55.503906 25.03125 55.035156 25.125 54.597656 L 28.1875 54.597656 C 28.6875 55.972656 28.6875 56.191406 28.71875 56.472656 C 28.375 56.816406 28 56.847656 27.84375 56.847656 C 27.6875 56.878906 27.59375 56.972656 27.59375 57.097656 C 27.59375 57.347656 27.8125 57.347656 28.0625 57.347656 L 31.6875 57.347656 C 31.9375 57.347656 32.1875 57.347656 32.1875 57.097656 C 32.1875 56.910156 32 56.878906 31.875 56.847656 C 31.5625 56.816406 31.3125 56.566406 31.03125 55.941406 Z M 25.28125 54.128906 C 25.59375 52.878906 26.03125 51.691406 26.5 50.535156 C 26.9375 51.472656 27.78125 53.472656 28 54.128906 Z M 24.4375 55.660156 L 24.46875 55.691406 L 24.46875 55.816406 C 24.4375 55.847656 24.4375 55.878906 24.4375 55.941406 C 24.4375 56.003906 24.4375 56.535156 24.65625 56.847656 L 23.90625 56.847656 C 24.0625 56.660156 24.125 56.503906 24.21875 56.285156 Z M 26.71875 49.785156 L 27.21875 48.441406 L 30.59375 56.128906 C 30.65625 56.285156 30.8125 56.597656 31 56.847656 L 29.03125 56.847656 C 29.15625 56.785156 29.21875 56.566406 29.21875 56.410156 C 29.21875 55.566406 28 52.722656 27.40625 51.347656 Z M 26.71875 49.785156 "/>
<path fill-rule="nonzero" fill="rgb(0%, 0%, 0%)" fill-opacity="1" d="M 36.101562 52.933594 C 36.164062 52.777344 36.164062 52.777344 36.164062 52.714844 C 36.164062 52.558594 36.007812 52.558594 35.851562 52.558594 L 34.632812 52.652344 C 34.445312 52.652344 34.414062 52.652344 34.382812 52.714844 C 34.351562 52.746094 34.320312 52.871094 34.320312 52.933594 C 34.320312 53.089844 34.476562 53.089844 34.601562 53.089844 C 34.632812 53.089844 34.789062 53.089844 34.945312 53.121094 C 35.132812 53.152344 35.132812 53.183594 35.132812 53.246094 C 35.132812 53.277344 35.132812 53.308594 35.101562 53.496094 L 33.726562 58.996094 C 33.695312 59.121094 33.695312 59.152344 33.695312 59.214844 C 33.695312 59.433594 33.851562 59.589844 34.070312 59.589844 C 34.445312 59.589844 34.539062 59.214844 34.570312 59.058594 L 35.039062 57.246094 C 35.289062 57.246094 36.539062 57.308594 36.539062 58.027344 C 36.539062 58.089844 36.539062 58.121094 36.507812 58.246094 C 36.476562 58.402344 36.476562 58.433594 36.476562 58.496094 C 36.476562 59.214844 37.101562 59.589844 37.695312 59.589844 C 38.695312 59.589844 39.101562 58.152344 39.101562 58.027344 C 39.101562 57.902344 38.945312 57.902344 38.882812 57.902344 C 38.726562 57.902344 38.695312 57.933594 38.664062 58.121094 C 38.570312 58.464844 38.257812 59.246094 37.726562 59.246094 C 37.351562 59.246094 37.320312 58.871094 37.320312 58.652344 C 37.320312 58.652344 37.320312 58.496094 37.351562 58.339844 C 37.382812 58.183594 37.414062 58.058594 37.414062 57.996094 C 37.414062 57.121094 36.289062 56.964844 35.632812 56.902344 C 35.914062 56.746094 36.351562 56.402344 36.507812 56.277344 C 37.070312 55.839844 37.632812 55.402344 38.195312 55.402344 C 38.414062 55.402344 38.476562 55.464844 38.539062 55.527344 C 38.539062 55.527344 38.476562 55.558594 38.445312 55.558594 C 38.007812 55.714844 38.007812 56.121094 38.007812 56.152344 C 38.007812 56.308594 38.132812 56.558594 38.445312 56.558594 C 38.632812 56.558594 39.070312 56.402344 39.070312 55.839844 C 39.070312 55.371094 38.695312 55.058594 38.195312 55.058594 C 37.539062 55.058594 36.945312 55.527344 36.226562 56.089844 C 35.882812 56.371094 35.539062 56.621094 35.132812 56.808594 Z M 36.101562 52.933594 "/>
<path fill-rule="nonzero" fill="rgb(0%, 0%, 0%)" fill-opacity="1" d="M 48.941406 57.246094 C 49.097656 57.246094 49.347656 57.246094 49.347656 56.964844 C 49.347656 56.683594 49.097656 56.683594 48.941406 56.683594 L 42.191406 56.683594 C 42.035156 56.683594 41.753906 56.683594 41.753906 56.964844 C 41.753906 57.246094 42.035156 57.246094 42.191406 57.246094 Z M 48.941406 57.246094 "/>
<path fill-rule="nonzero" fill="rgb(0%, 0%, 0%)" fill-opacity="1" d="M 54.921875 53.121094 C 54.921875 52.839844 54.890625 52.839844 54.546875 52.839844 C 53.859375 53.464844 52.734375 53.464844 52.546875 53.464844 L 52.390625 53.464844 L 52.390625 53.902344 L 52.546875 53.902344 C 52.765625 53.902344 53.421875 53.871094 54.015625 53.621094 L 54.015625 58.621094 C 54.015625 58.902344 54.015625 59.027344 52.953125 59.027344 L 52.453125 59.027344 L 52.453125 59.464844 C 52.984375 59.433594 53.890625 59.433594 54.453125 59.433594 C 55.046875 59.433594 55.921875 59.433594 56.484375 59.464844 L 56.484375 59.027344 L 55.984375 59.027344 C 54.921875 59.027344 54.921875 58.902344 54.921875 58.621094 Z M 54.921875 53.121094 "/>
<path fill="none" stroke-width="0.39848" stroke-linecap="butt" stroke-linejoin="miter" stroke="rgb(0%, 0%, 0%)" stroke-opacity="1" stroke-miterlimit="10" d="M 43.665279 10.377968 L 43.665279 -9.305626 " transform="matrix(2, 0, 0, -2, 103.146004, 52.669998)"/>
<path fill="none" stroke-width="0.39848" stroke-linecap="round" stroke-linejoin="round" stroke="rgb(0%, 0%, 0%)" stroke-opacity="1" stroke-miterlimit="10" d="M -2.073376 2.392761 C -1.694469 0.955261 -0.850719 0.27948 0.000843048 -0.00177002 C -0.850719 -0.279114 -1.694469 -0.954895 -2.073376 -2.392395 " transform="matrix(0, 2, 2, 0, 190.480103, 71.678001)"/>
<path fill-rule="nonzero" fill="rgb(0%, 0%, 0%)" fill-opacity="1" d="M 199.671875 49 C 200.828125 48.5 201.328125 48.3125 201.671875 48.125 C 201.953125 48.03125 202.078125 47.96875 202.078125 47.6875 C 202.078125 47.46875 201.890625 47.25 201.640625 47.25 C 201.546875 47.25 201.515625 47.25 201.359375 47.375 L 199.453125 48.65625 L 199.671875 46.59375 C 199.703125 46.34375 199.671875 46 199.234375 46 C 199.078125 46 198.796875 46.09375 198.796875 46.40625 C 198.796875 46.53125 198.859375 46.9375 198.890625 47.09375 C 198.921875 47.3125 199.015625 48.34375 199.046875 48.65625 L 197.140625 47.375 C 197.015625 47.3125 196.984375 47.25 196.859375 47.25 C 196.578125 47.25 196.421875 47.46875 196.421875 47.6875 C 196.421875 47.96875 196.578125 48.0625 196.703125 48.09375 L 198.796875 49 C 197.671875 49.5 197.140625 49.6875 196.796875 49.84375 C 196.546875 49.96875 196.421875 50.03125 196.421875 50.28125 C 196.421875 50.53125 196.578125 50.71875 196.859375 50.71875 C 196.953125 50.71875 196.984375 50.71875 197.140625 50.59375 L 199.046875 49.34375 L 198.796875 51.5625 C 198.796875 51.875 199.078125 52 199.234375 52 C 199.421875 52 199.671875 51.875 199.671875 51.5625 C 199.671875 51.4375 199.609375 51.03125 199.609375 50.90625 C 199.578125 50.65625 199.484375 49.65625 199.453125 49.34375 L 201.109375 50.4375 C 201.484375 50.71875 201.515625 50.71875 201.640625 50.71875 C 201.890625 50.71875 202.078125 50.53125 202.078125 50.28125 C 202.078125 50 201.890625 49.9375 201.765625 49.875 Z M 199.671875 49 "/>
<path fill-rule="nonzero" fill="rgb(0%, 0%, 0%)" fill-opacity="1" d="M 207.992188 52.433594 L 206.085938 47.902344 C 205.992188 47.683594 205.992188 47.683594 205.710938 47.683594 L 203.867188 47.683594 C 203.679688 47.683594 203.523438 47.683594 203.523438 47.871094 C 203.523438 48.058594 203.710938 48.058594 203.773438 48.058594 C 203.898438 48.058594 204.148438 48.058594 204.367188 48.152344 L 204.367188 53.464844 C 204.367188 53.683594 204.367188 54.121094 203.679688 54.183594 C 203.492188 54.183594 203.492188 54.339844 203.492188 54.339844 C 203.492188 54.527344 203.679688 54.527344 203.835938 54.527344 L 205.398438 54.527344 C 205.554688 54.527344 205.710938 54.527344 205.710938 54.339844 C 205.710938 54.246094 205.648438 54.183594 205.554688 54.183594 C 204.804688 54.121094 204.804688 53.714844 204.804688 53.464844 L 204.804688 48.496094 L 207.242188 54.308594 C 207.304688 54.496094 207.398438 54.527344 207.429688 54.527344 C 207.554688 54.527344 207.585938 54.433594 207.648438 54.339844 L 210.085938 48.496094 L 210.085938 53.464844 C 210.085938 53.683594 210.085938 54.121094 209.429688 54.183594 C 209.242188 54.183594 209.242188 54.339844 209.242188 54.339844 C 209.242188 54.527344 209.398438 54.527344 209.554688 54.527344 L 212.242188 54.527344 C 212.398438 54.527344 212.554688 54.527344 212.554688 54.339844 C 212.554688 54.246094 212.492188 54.183594 212.398438 54.183594 C 211.617188 54.121094 211.617188 53.714844 211.617188 53.464844 L 211.617188 48.746094 C 211.617188 48.558594 211.617188 48.121094 212.304688 48.058594 C 212.398438 48.027344 212.492188 47.996094 212.492188 47.871094 C 212.492188 47.683594 212.335938 47.683594 212.179688 47.683594 L 210.242188 47.683594 C 209.992188 47.683594 209.960938 47.683594 209.867188 47.902344 Z M 207.679688 52.621094 C 207.773438 52.777344 207.773438 52.777344 207.898438 52.839844 L 207.460938 53.902344 L 207.429688 53.902344 L 205.148438 48.464844 C 205.117188 48.339844 205.023438 48.152344 204.898438 48.058594 L 205.773438 48.058594 Z M 204.679688 54.183594 L 204.492188 54.183594 C 204.523438 54.152344 204.554688 54.121094 204.554688 54.089844 C 204.585938 54.089844 204.585938 54.089844 204.585938 54.058594 Z M 210.429688 48.058594 L 211.492188 48.058594 C 211.273438 48.308594 211.273438 48.558594 211.273438 48.746094 L 211.273438 53.496094 C 211.273438 53.683594 211.273438 53.933594 211.523438 54.183594 L 210.210938 54.183594 C 210.429688 53.933594 210.429688 53.683594 210.429688 53.496094 Z M 210.429688 48.058594 "/>
<path fill-rule="nonzero" fill="rgb(0%, 0%, 0%)" fill-opacity="1" d="M 216.398438 51.484375 C 216.460938 51.328125 216.460938 51.328125 216.460938 51.265625 C 216.460938 51.109375 216.304688 51.109375 216.148438 51.109375 L 214.929688 51.203125 C 214.742188 51.203125 214.710938 51.203125 214.679688 51.265625 C 214.648438 51.296875 214.617188 51.421875 214.617188 51.484375 C 214.617188 51.640625 214.773438 51.640625 214.898438 51.640625 C 214.929688 51.640625 215.085938 51.640625 215.242188 51.671875 C 215.429688 51.703125 215.429688 51.734375 215.429688 51.796875 C 215.429688 51.828125 215.429688 51.859375 215.398438 52.046875 L 214.023438 57.546875 C 213.992188 57.671875 213.992188 57.703125 213.992188 57.765625 C 213.992188 57.984375 214.148438 58.140625 214.367188 58.140625 C 214.742188 58.140625 214.835938 57.765625 214.867188 57.609375 L 215.335938 55.796875 C 215.585938 55.796875 216.835938 55.859375 216.835938 56.578125 C 216.835938 56.640625 216.835938 56.671875 216.804688 56.796875 C 216.773438 56.953125 216.773438 56.984375 216.773438 57.046875 C 216.773438 57.765625 217.398438 58.140625 217.992188 58.140625 C 218.992188 58.140625 219.398438 56.703125 219.398438 56.578125 C 219.398438 56.453125 219.242188 56.453125 219.179688 56.453125 C 219.023438 56.453125 218.992188 56.484375 218.960938 56.671875 C 218.867188 57.015625 218.554688 57.796875 218.023438 57.796875 C 217.648438 57.796875 217.617188 57.421875 217.617188 57.203125 C 217.617188 57.203125 217.617188 57.046875 217.648438 56.890625 C 217.679688 56.734375 217.710938 56.609375 217.710938 56.546875 C 217.710938 55.671875 216.585938 55.515625 215.929688 55.453125 C 216.210938 55.296875 216.648438 54.953125 216.804688 54.828125 C 217.367188 54.390625 217.929688 53.953125 218.492188 53.953125 C 218.710938 53.953125 218.773438 54.015625 218.835938 54.078125 C 218.835938 54.078125 218.773438 54.109375 218.742188 54.109375 C 218.304688 54.265625 218.304688 54.671875 218.304688 54.703125 C 218.304688 54.859375 218.429688 55.109375 218.742188 55.109375 C 218.929688 55.109375 219.367188 54.953125 219.367188 54.390625 C 219.367188 53.921875 218.992188 53.609375 218.492188 53.609375 C 217.835938 53.609375 217.242188 54.078125 216.523438 54.640625 C 216.179688 54.921875 215.835938 55.171875 215.429688 55.359375 Z M 216.398438 51.484375 "/>
<g clip-path="url(#clip-0)">
<path fill="none" stroke-width="2.33075" stroke-linecap="butt" stroke-linejoin="miter" stroke="rgb(0%, 0%, 0%)" stroke-opacity="1" stroke-miterlimit="10" d="M 26.684811 7.471718 L 6.782467 -3.360313 " transform="matrix(2, 0, 0, -2, 103.146004, 52.669998)"/>
</g>
<path fill="none" stroke-width="1.53377" stroke-linecap="butt" stroke-linejoin="miter" stroke="rgb(100%, 100%, 100%)" stroke-opacity="1" stroke-miterlimit="10" d="M 26.684811 7.471718 L 6.782467 -3.360313 " transform="matrix(2, 0, 0, -2, 103.146004, 52.669998)"/>
<path fill="none" stroke-width="0.39848" stroke-linecap="round" stroke-linejoin="round" stroke="rgb(0%, 0%, 0%)" stroke-opacity="1" stroke-miterlimit="10" d="M -1.293221 2.561528 C -0.665739 1.205857 1.026269 0.049053 1.991237 -0.000332412 C 1.02292 -0.0469748 -0.667767 -1.208175 -1.2936 -2.562092 " transform="matrix(-1.7565, 0.95618, 0.95618, 1.7565, 116.708862, 59.393478)"/>
<path fill-rule="nonzero" fill="rgb(0%, 0%, 0%)" fill-opacity="1" d="M 140.945312 54.726562 C 140.945312 54.445312 140.945312 54.320312 140.695312 54.320312 C 140.445312 54.320312 140.445312 54.445312 140.445312 54.726562 L 140.445312 64.632812 C 140.445312 64.882812 140.445312 65.039062 140.695312 65.039062 C 140.914062 65.039062 141.820312 64.382812 142.101562 64.195312 C 143.164062 63.445312 144.726562 62.164062 144.726562 60.289062 C 144.726562 59.070312 143.664062 58.351562 142.632812 58.351562 C 142.570312 58.351562 141.570312 58.351562 140.945312 58.882812 Z M 140.945312 60.039062 C 140.945312 59.726562 140.945312 59.476562 141.351562 59.226562 C 141.539062 59.132812 141.914062 58.976562 142.445312 58.976562 C 143.445312 58.976562 143.507812 60.070312 143.507812 60.289062 C 143.507812 62.007812 142.132812 63.445312 140.945312 64.382812 Z M 140.945312 60.039062 "/>
<path fill-rule="nonzero" fill="rgb(0%, 0%, 0%)" fill-opacity="1" d="M 149.484375 60.34375 C 149.546875 60.1875 149.546875 60.1875 149.546875 60.125 C 149.546875 59.96875 149.390625 59.96875 149.234375 59.96875 L 148.015625 60.0625 C 147.828125 60.0625 147.796875 60.0625 147.765625 60.125 C 147.734375 60.15625 147.703125 60.28125 147.703125 60.34375 C 147.703125 60.5 147.859375 60.5 147.984375 60.5 C 148.015625 60.5 148.171875 60.5 148.328125 60.53125 C 148.515625 60.5625 148.515625 60.59375 148.515625 60.65625 C 148.515625 60.6875 148.515625 60.71875 148.484375 60.90625 L 147.109375 66.40625 C 147.078125 66.53125 147.078125 66.5625 147.078125 66.625 C 147.078125 66.84375 147.234375 67 147.453125 67 C 147.828125 67 147.921875 66.625 147.953125 66.46875 L 148.421875 64.65625 C 148.671875 64.65625 149.921875 64.71875 149.921875 65.4375 C 149.921875 65.5 149.921875 65.53125 149.890625 65.65625 C 149.859375 65.8125 149.859375 65.84375 149.859375 65.90625 C 149.859375 66.625 150.484375 67 151.078125 67 C 152.078125 67 152.484375 65.5625 152.484375 65.4375 C 152.484375 65.3125 152.328125 65.3125 152.265625 65.3125 C 152.109375 65.3125 152.078125 65.34375 152.046875 65.53125 C 151.953125 65.875 151.640625 66.65625 151.109375 66.65625 C 150.734375 66.65625 150.703125 66.28125 150.703125 66.0625 C 150.703125 66.0625 150.703125 65.90625 150.734375 65.75 C 150.765625 65.59375 150.796875 65.46875 150.796875 65.40625 C 150.796875 64.53125 149.671875 64.375 149.015625 64.3125 C 149.296875 64.15625 149.734375 63.8125 149.890625 63.6875 C 150.453125 63.25 151.015625 62.8125 151.578125 62.8125 C 151.796875 62.8125 151.859375 62.875 151.921875 62.9375 C 151.921875 62.9375 151.859375 62.96875 151.828125 62.96875 C 151.390625 63.125 151.390625 63.53125 151.390625 63.5625 C 151.390625 63.71875 151.515625 63.96875 151.828125 63.96875 C 152.015625 63.96875 152.453125 63.8125 152.453125 63.25 C 152.453125 62.78125 152.078125 62.46875 151.578125 62.46875 C 150.921875 62.46875 150.328125 62.9375 149.609375 63.5 C 149.265625 63.78125 148.921875 64.03125 148.515625 64.21875 Z M 149.484375 60.34375 "/>
<path fill="none" stroke-width="0.39848" stroke-linecap="butt" stroke-linejoin="miter" stroke="rgb(0%, 0%, 0%)" stroke-opacity="1" stroke-miterlimit="10" d="M -3.112064 -17.868126 L 35.161373 -17.868126 " transform="matrix(2, 0, 0, -2, 103.146004, 52.669998)"/>
<path fill="none" stroke-width="0.39848" stroke-linecap="round" stroke-linejoin="round" stroke="rgb(0%, 0%, 0%)" stroke-opacity="1" stroke-miterlimit="10" d="M -2.072151 2.39204 C -1.693245 0.95454 -0.849495 0.278759 -0.00183868 0.00141525 C -0.849495 -0.279835 -1.693245 -0.955616 -2.072151 -2.38921 " transform="matrix(2, 0, 0, -2, 173.870865, 88.409081)"/>
</svg>
