<?xml version="1.0" encoding="UTF-8"?>
<svg xmlns="http://www.w3.org/2000/svg" xmlns:xlink="http://www.w3.org/1999/xlink" width="320.026672" height="140.453328" viewBox="0 0 320.026672 140.453328">
<defs>
<clipPath id="clip-0">
<path clip-rule="nonzero" d="M 85.332031 0 L 314.667969 0 L 314.667969 140.457031 L 85.332031 140.457031 Z M 85.332031 0 "/>
</clipPath>
</defs>
<path fill-rule="nonzero" fill="rgb(0%, 0%, 0%)" fill-opacity="1" d="M 36.683594 15.875 C 36.683594 14.832031 37.351562 13.125 40.265625 12.957031 C 40.390625 12.914062 40.476562 12.789062 40.476562 12.664062 C 40.476562 12.332031 40.265625 12.332031 39.976562 12.332031 C 37.351562 12.332031 34.890625 13.707031 34.890625 15.664062 L 34.890625 21.75 C 34.890625 22.789062 34.890625 23.625 33.808594 24.5 C 32.890625 25.289062 31.890625 25.332031 31.308594 25.332031 C 31.140625 25.375 31.058594 25.5 31.058594 25.625 C 31.058594 25.914062 31.226562 25.914062 31.476562 25.957031 C 33.226562 26.039062 34.515625 27 34.808594 28.289062 C 34.890625 28.582031 34.890625 28.664062 34.890625 29.625 L 34.890625 34.875 C 34.890625 36 34.890625 36.832031 36.140625 37.832031 C 37.183594 38.625 38.933594 38.957031 39.976562 38.957031 C 40.265625 38.957031 40.476562 38.957031 40.476562 38.625 C 40.476562 38.375 40.351562 38.375 40.058594 38.332031 C 38.390625 38.25 37.101562 37.375 36.726562 36.039062 C 36.683594 35.789062 36.683594 35.75 36.683594 34.789062 L 36.683594 29.207031 C 36.683594 28 36.433594 27.539062 35.601562 26.664062 C 35.058594 26.125 34.265625 25.875 33.515625 25.625 C 35.726562 25.039062 36.683594 23.789062 36.683594 22.25 Z M 36.683594 15.875 "/>
<path fill-rule="nonzero" fill="rgb(0%, 0%, 0%)" fill-opacity="1" d="M 44.757812 30.707031 C 44.675781 31.125 44.507812 31.75 44.507812 31.875 C 44.507812 32.332031 44.882812 32.582031 45.300781 32.582031 C 45.632812 32.582031 46.089844 32.375 46.300781 31.832031 C 46.300781 31.789062 46.632812 30.539062 46.800781 29.875 L 47.382812 27.5 C 47.507812 26.875 47.675781 26.289062 47.839844 25.707031 C 47.925781 25.25 48.132812 24.457031 48.175781 24.375 C 48.550781 23.539062 49.964844 21.125 52.507812 21.125 C 53.714844 21.125 53.925781 22.125 53.925781 23 C 53.925781 23.664062 53.757812 24.414062 53.550781 25.207031 L 52.800781 28.289062 L 52.257812 30.289062 C 52.175781 30.832031 51.925781 31.75 51.925781 31.875 C 51.925781 32.332031 52.300781 32.582031 52.675781 32.582031 C 53.507812 32.582031 53.675781 31.914062 53.882812 31.082031 C 54.257812 29.582031 55.257812 25.707031 55.464844 24.664062 C 55.550781 24.332031 56.964844 21.125 59.882812 21.125 C 61.007812 21.125 61.300781 22.039062 61.300781 23 C 61.300781 24.5 60.175781 27.539062 59.632812 28.957031 C 59.425781 29.582031 59.300781 29.875 59.300781 30.414062 C 59.300781 31.664062 60.214844 32.582031 61.464844 32.582031 C 63.964844 32.582031 64.964844 28.707031 64.964844 28.5 C 64.964844 28.207031 64.714844 28.207031 64.632812 28.207031 C 64.382812 28.207031 64.382812 28.289062 64.257812 28.707031 C 63.839844 30.125 63.007812 32 61.550781 32 C 61.089844 32 60.882812 31.75 60.882812 31.125 C 60.882812 30.457031 61.132812 29.832031 61.382812 29.25 C 61.882812 27.832031 63.007812 24.914062 63.007812 23.375 C 63.007812 21.664062 61.925781 20.539062 59.925781 20.539062 C 57.964844 20.539062 56.589844 21.707031 55.589844 23.125 C 55.589844 22.789062 55.507812 21.875 54.757812 21.25 C 54.089844 20.664062 53.257812 20.539062 52.589844 20.539062 C 50.175781 20.539062 48.882812 22.25 48.425781 22.875 C 48.300781 21.332031 47.175781 20.539062 45.964844 20.539062 C 44.757812 20.539062 44.257812 21.582031 44.007812 22.039062 C 43.550781 23 43.214844 24.539062 43.214844 24.625 C 43.214844 24.914062 43.464844 24.914062 43.507812 24.914062 C 43.800781 24.914062 43.800781 24.875 43.964844 24.289062 C 44.425781 22.414062 44.964844 21.125 45.925781 21.125 C 46.339844 21.125 46.714844 21.332031 46.714844 22.332031 C 46.714844 22.914062 46.632812 23.207031 46.300781 24.582031 Z M 44.757812 30.707031 "/>
<path fill-rule="nonzero" fill="rgb(0%, 0%, 0%)" fill-opacity="1" d="M 71.585938 23.945312 C 71.585938 23.902344 71.628906 23.652344 71.628906 23.652344 C 71.628906 23.527344 71.585938 23.359375 71.335938 23.359375 C 70.960938 23.359375 69.417969 23.527344 68.960938 23.570312 C 68.835938 23.570312 68.542969 23.609375 68.542969 23.984375 C 68.542969 24.234375 68.835938 24.234375 69.042969 24.234375 C 69.917969 24.234375 69.917969 24.402344 69.917969 24.527344 C 69.917969 24.652344 69.878906 24.777344 69.878906 24.945312 L 67.253906 35.445312 C 67.128906 35.777344 67.128906 35.820312 67.128906 35.859375 C 67.128906 36.152344 67.378906 36.445312 67.792969 36.445312 C 68.292969 36.445312 68.503906 36.109375 68.628906 35.695312 C 68.667969 35.609375 69.460938 32.320312 69.542969 32.070312 C 70.878906 32.195312 71.917969 32.652344 71.917969 33.609375 C 71.917969 33.695312 71.917969 33.777344 71.878906 33.984375 C 71.792969 34.234375 71.792969 34.359375 71.792969 34.570312 C 71.792969 35.859375 72.878906 36.445312 73.792969 36.445312 C 75.585938 36.445312 76.128906 33.652344 76.128906 33.609375 C 76.128906 33.359375 75.917969 33.359375 75.835938 33.359375 C 75.585938 33.359375 75.542969 33.484375 75.460938 33.820312 C 75.253906 34.609375 74.753906 35.945312 73.835938 35.945312 C 73.335938 35.945312 73.167969 35.484375 73.167969 34.984375 C 73.167969 34.652344 73.167969 34.609375 73.292969 34.152344 C 73.335938 34.070312 73.378906 33.777344 73.378906 33.570312 C 73.378906 31.902344 71.167969 31.652344 70.378906 31.609375 C 70.917969 31.277344 71.585938 30.652344 71.917969 30.359375 C 72.878906 29.484375 73.792969 28.609375 74.835938 28.609375 C 75.042969 28.609375 75.292969 28.652344 75.460938 28.859375 C 74.667969 28.984375 74.503906 29.609375 74.503906 29.902344 C 74.503906 30.277344 74.792969 30.570312 75.210938 30.570312 C 75.753906 30.570312 76.292969 30.152344 76.292969 29.402344 C 76.292969 28.777344 75.835938 28.070312 74.878906 28.070312 C 73.792969 28.070312 72.835938 28.859375 71.878906 29.734375 C 71.085938 30.445312 70.503906 31.027344 69.710938 31.359375 Z M 71.585938 23.945312 "/>
<path fill-rule="nonzero" fill="rgb(0%, 0%, 0%)" fill-opacity="1" d="M 84.570312 35.414062 C 84.570312 36.457031 83.863281 38.164062 80.988281 38.332031 C 80.820312 38.375 80.738281 38.5 80.738281 38.625 C 80.738281 38.957031 81.03125 38.957031 81.28125 38.957031 C 83.863281 38.957031 86.320312 37.625 86.363281 35.625 L 86.363281 29.539062 C 86.363281 28.5 86.363281 27.664062 87.40625 26.789062 C 88.320312 26 89.363281 25.957031 89.945312 25.957031 C 90.070312 25.914062 90.15625 25.789062 90.15625 25.625 C 90.15625 25.375 90.03125 25.375 89.738281 25.332031 C 87.988281 25.25 86.695312 24.289062 86.40625 23 C 86.363281 22.707031 86.363281 22.625 86.363281 21.664062 L 86.363281 16.414062 C 86.363281 15.289062 86.363281 14.457031 85.070312 13.457031 C 83.988281 12.625 82.15625 12.332031 81.28125 12.332031 C 81.03125 12.332031 80.738281 12.332031 80.738281 12.664062 C 80.738281 12.914062 80.90625 12.914062 81.15625 12.957031 C 82.820312 13.039062 84.15625 13.914062 84.488281 15.25 C 84.570312 15.5 84.570312 15.539062 84.570312 16.5 L 84.570312 22.082031 C 84.570312 23.289062 84.78125 23.75 85.613281 24.625 C 86.195312 25.164062 86.945312 25.414062 87.695312 25.625 C 85.53125 26.25 84.570312 27.5 84.570312 29.039062 Z M 84.570312 35.414062 "/>
<path fill-rule="nonzero" fill="rgb(0%, 0%, 0%)" fill-opacity="1" d="M 108.335938 24.914062 L 103.042969 19.625 C 102.710938 19.289062 102.667969 19.25 102.460938 19.25 C 102.167969 19.25 101.917969 19.457031 101.917969 19.789062 C 101.917969 19.957031 101.960938 20 102.253906 20.289062 L 107.585938 25.625 L 102.253906 31 C 101.960938 31.289062 101.917969 31.332031 101.917969 31.5 C 101.917969 31.832031 102.167969 32.039062 102.460938 32.039062 C 102.667969 32.039062 102.710938 32 103.042969 31.664062 L 108.335938 26.375 L 113.835938 31.875 C 113.878906 31.914062 114.042969 32.039062 114.210938 32.039062 C 114.542969 32.039062 114.753906 31.832031 114.753906 31.5 C 114.753906 31.457031 114.753906 31.375 114.667969 31.207031 C 114.628906 31.164062 110.417969 27 109.085938 25.625 L 113.960938 20.789062 C 114.085938 20.625 114.503906 20.289062 114.628906 20.125 C 114.628906 20.082031 114.753906 19.957031 114.753906 19.789062 C 114.753906 19.457031 114.542969 19.25 114.210938 19.25 C 114.003906 19.25 113.917969 19.332031 113.628906 19.625 Z M 108.335938 24.914062 "/>
<path fill-rule="nonzero" fill="rgb(0%, 0%, 0%)" fill-opacity="1" d="M 136.867188 23.289062 C 136.617188 21.625 135.535156 20.125 133.449219 20.125 C 131.824219 20.125 130.117188 20.582031 128.035156 22.625 C 125.824219 24.832031 125.660156 27.332031 125.660156 28.125 C 125.660156 29.789062 126.824219 32.875 130.535156 32.875 C 136.867188 32.875 139.617188 23.957031 139.617188 20.125 C 139.617188 15.914062 137.160156 13.25 133.867188 13.25 C 130.035156 13.25 128.785156 16.707031 128.785156 17.457031 C 128.785156 17.832031 129.035156 18.375 129.824219 18.375 C 130.699219 18.375 131.242188 17.582031 131.242188 17 C 131.242188 16.039062 130.410156 16.039062 129.992188 16.039062 C 131.160156 14.082031 133.074219 13.914062 133.824219 13.914062 C 135.785156 13.914062 137.617188 15.289062 137.617188 18.75 C 137.617188 19.789062 137.449219 21.125 136.910156 23.289062 Z M 130.617188 32.125 C 127.699219 32.125 127.699219 29.375 127.699219 29.125 C 127.699219 28.414062 128.367188 24.707031 129.449219 23.082031 C 130.492188 21.582031 131.824219 20.707031 133.449219 20.707031 C 136.367188 20.707031 136.410156 23.707031 136.410156 24.25 C 136.410156 26.164062 134.699219 32.125 130.617188 32.125 Z M 130.617188 32.125 "/>
<path fill-rule="nonzero" fill="rgb(0%, 0%, 0%)" fill-opacity="1" d="M 151.90625 13.75 C 151.742188 13.375 151.65625 13.25 151.199219 13.25 C 150.78125 13.25 150.699219 13.375 150.53125 13.75 L 141.53125 31.75 C 141.40625 32 141.40625 32.039062 141.40625 32.082031 C 141.40625 32.289062 141.574219 32.289062 141.992188 32.289062 L 160.449219 32.289062 C 160.867188 32.289062 161.03125 32.289062 161.03125 32.082031 C 161.03125 32.039062 161.03125 32 160.90625 31.75 Z M 150.367188 15.914062 L 157.53125 30.289062 L 143.199219 30.289062 Z M 150.367188 15.914062 "/>
<path fill-rule="nonzero" fill="rgb(0%, 0%, 0%)" fill-opacity="1" d="M 168.128906 10.316406 C 168.128906 10.277344 168.171875 10.027344 168.171875 10.027344 C 168.171875 9.902344 168.128906 9.734375 167.878906 9.734375 C 167.503906 9.734375 165.960938 9.902344 165.503906 9.941406 C 165.378906 9.941406 165.085938 9.984375 165.085938 10.359375 C 165.085938 10.609375 165.378906 10.609375 165.585938 10.609375 C 166.460938 10.609375 166.460938 10.777344 166.460938 10.902344 C 166.460938 11.027344 166.421875 11.152344 166.421875 11.316406 L 163.796875 21.816406 C 163.671875 22.152344 163.671875 22.191406 163.671875 22.234375 C 163.671875 22.527344 163.921875 22.816406 164.335938 22.816406 C 164.835938 22.816406 165.046875 22.484375 165.171875 22.066406 C 165.210938 21.984375 166.003906 18.691406 166.085938 18.441406 C 167.421875 18.566406 168.460938 19.027344 168.460938 19.984375 C 168.460938 20.066406 168.460938 20.152344 168.421875 20.359375 C 168.335938 20.609375 168.335938 20.734375 168.335938 20.941406 C 168.335938 22.234375 169.421875 22.816406 170.335938 22.816406 C 172.128906 22.816406 172.671875 20.027344 172.671875 19.984375 C 172.671875 19.734375 172.460938 19.734375 172.378906 19.734375 C 172.128906 19.734375 172.085938 19.859375 172.003906 20.191406 C 171.796875 20.984375 171.296875 22.316406 170.378906 22.316406 C 169.878906 22.316406 169.710938 21.859375 169.710938 21.359375 C 169.710938 21.027344 169.710938 20.984375 169.835938 20.527344 C 169.878906 20.441406 169.921875 20.152344 169.921875 19.941406 C 169.921875 18.277344 167.710938 18.027344 166.921875 17.984375 C 167.460938 17.652344 168.128906 17.027344 168.460938 16.734375 C 169.421875 15.859375 170.335938 14.984375 171.378906 14.984375 C 171.585938 14.984375 171.835938 15.027344 172.003906 15.234375 C 171.210938 15.359375 171.046875 15.984375 171.046875 16.277344 C 171.046875 16.652344 171.335938 16.941406 171.753906 16.941406 C 172.296875 16.941406 172.835938 16.527344 172.835938 15.777344 C 172.835938 15.152344 172.378906 14.441406 171.421875 14.441406 C 170.335938 14.441406 169.378906 15.234375 168.421875 16.109375 C 167.628906 16.816406 167.046875 17.402344 166.253906 17.734375 Z M 168.128906 10.316406 "/>
<path fill-rule="nonzero" fill="rgb(0%, 0%, 0%)" fill-opacity="1" d="M 273.441406 15.75 C 273.441406 15.125 273.441406 14.875 272.734375 14.875 C 272.441406 14.875 272.402344 14.875 272.152344 15.082031 C 270.109375 16.582031 267.359375 16.582031 266.816406 16.582031 L 266.277344 16.582031 L 266.277344 17.832031 L 266.816406 17.832031 C 267.234375 17.832031 268.691406 17.789062 270.277344 17.289062 L 270.277344 31.039062 L 266.566406 31.039062 L 266.566406 32.289062 C 267.734375 32.207031 270.566406 32.207031 271.859375 32.207031 C 273.152344 32.207031 275.984375 32.207031 277.152344 32.289062 L 277.152344 31.039062 L 273.441406 31.039062 Z M 273.441406 15.75 "/>
<path fill-rule="nonzero" fill="rgb(0%, 0%, 0%)" fill-opacity="1" d="M 81.949219 118.9375 L 76.867188 106.851562 C 76.660156 106.3125 76.660156 106.3125 75.910156 106.3125 L 70.992188 106.3125 C 70.492188 106.3125 70.117188 106.3125 70.117188 106.769531 C 70.117188 107.226562 70.574219 107.226562 70.699219 107.226562 C 71.035156 107.226562 71.742188 107.3125 72.324219 107.519531 L 72.324219 121.6875 C 72.324219 122.269531 72.324219 123.4375 70.535156 123.601562 C 70.035156 123.644531 70.035156 124.019531 70.035156 124.0625 C 70.035156 124.519531 70.449219 124.519531 70.949219 124.519531 L 75.035156 124.519531 C 75.535156 124.519531 75.910156 124.519531 75.910156 124.0625 C 75.910156 123.8125 75.699219 123.601562 75.492188 123.601562 C 73.449219 123.4375 73.449219 122.3125 73.449219 121.6875 L 73.449219 108.476562 L 73.492188 108.4375 L 79.949219 123.976562 C 80.199219 124.4375 80.367188 124.519531 80.535156 124.519531 C 80.867188 124.519531 80.910156 124.3125 81.074219 123.976562 L 87.574219 108.4375 L 87.617188 108.476562 L 87.617188 121.6875 C 87.617188 122.269531 87.617188 123.4375 85.785156 123.601562 C 85.285156 123.644531 85.285156 124.019531 85.285156 124.0625 C 85.285156 124.519531 85.699219 124.519531 86.199219 124.519531 L 93.285156 124.519531 C 93.785156 124.519531 94.160156 124.519531 94.160156 124.0625 C 94.160156 123.8125 93.949219 123.601562 93.742188 123.601562 C 91.699219 123.4375 91.699219 122.3125 91.699219 121.6875 L 91.699219 109.144531 C 91.699219 108.5625 91.699219 107.394531 93.492188 107.226562 C 93.785156 107.226562 93.992188 107.0625 93.992188 106.769531 C 93.992188 106.3125 93.617188 106.3125 93.117188 106.3125 L 87.992188 106.3125 C 87.324219 106.3125 87.242188 106.3125 87.035156 106.851562 Z M 81.160156 119.4375 C 81.367188 119.851562 81.410156 119.894531 81.742188 120.019531 L 80.535156 122.8125 L 80.492188 122.8125 L 74.449219 108.351562 C 74.324219 108.019531 74.074219 107.5625 73.742188 107.226562 L 76.035156 107.226562 Z M 73.117188 123.601562 L 72.699219 123.601562 C 72.742188 123.519531 72.785156 123.4375 72.824219 123.394531 C 72.867188 123.351562 72.867188 123.3125 72.910156 123.3125 Z M 88.535156 107.226562 L 91.367188 107.226562 C 90.742188 107.894531 90.742188 108.601562 90.742188 109.0625 L 90.742188 121.769531 C 90.742188 122.226562 90.742188 122.9375 91.367188 123.601562 L 87.949219 123.601562 C 88.535156 122.9375 88.535156 122.226562 88.535156 121.769531 Z M 88.535156 107.226562 "/>
<path fill-rule="nonzero" fill="rgb(0%, 0%, 0%)" fill-opacity="1" d="M 100.5 116.171875 C 100.5 116.132812 100.542969 115.882812 100.542969 115.882812 C 100.542969 115.757812 100.5 115.589844 100.25 115.589844 C 99.875 115.589844 98.332031 115.757812 97.875 115.796875 C 97.75 115.796875 97.457031 115.839844 97.457031 116.214844 C 97.457031 116.464844 97.75 116.464844 97.957031 116.464844 C 98.832031 116.464844 98.832031 116.632812 98.832031 116.757812 C 98.832031 116.882812 98.792969 117.007812 98.792969 117.171875 L 96.167969 127.671875 C 96.042969 128.007812 96.042969 128.046875 96.042969 128.089844 C 96.042969 128.382812 96.292969 128.671875 96.707031 128.671875 C 97.207031 128.671875 97.417969 128.339844 97.542969 127.921875 C 97.582031 127.839844 98.375 124.546875 98.457031 124.296875 C 99.792969 124.421875 100.832031 124.882812 100.832031 125.839844 C 100.832031 125.921875 100.832031 126.007812 100.792969 126.214844 C 100.707031 126.464844 100.707031 126.589844 100.707031 126.796875 C 100.707031 128.089844 101.792969 128.671875 102.707031 128.671875 C 104.5 128.671875 105.042969 125.882812 105.042969 125.839844 C 105.042969 125.589844 104.832031 125.589844 104.75 125.589844 C 104.5 125.589844 104.457031 125.714844 104.375 126.046875 C 104.167969 126.839844 103.667969 128.171875 102.75 128.171875 C 102.25 128.171875 102.082031 127.714844 102.082031 127.214844 C 102.082031 126.882812 102.082031 126.839844 102.207031 126.382812 C 102.25 126.296875 102.292969 126.007812 102.292969 125.796875 C 102.292969 124.132812 100.082031 123.882812 99.292969 123.839844 C 99.832031 123.507812 100.5 122.882812 100.832031 122.589844 C 101.792969 121.714844 102.707031 120.839844 103.75 120.839844 C 103.957031 120.839844 104.207031 120.882812 104.375 121.089844 C 103.582031 121.214844 103.417969 121.839844 103.417969 122.132812 C 103.417969 122.507812 103.707031 122.796875 104.125 122.796875 C 104.667969 122.796875 105.207031 122.382812 105.207031 121.632812 C 105.207031 121.007812 104.75 120.296875 103.792969 120.296875 C 102.707031 120.296875 101.75 121.089844 100.792969 121.964844 C 100 122.671875 99.417969 123.257812 98.625 123.589844 Z M 100.5 116.171875 "/>
<path fill-rule="nonzero" fill="rgb(0%, 0%, 0%)" fill-opacity="1" d="M 120.242188 124.296875 C 120.535156 124.296875 120.992188 124.296875 120.992188 123.882812 C 120.992188 123.382812 120.535156 123.382812 120.242188 123.382812 L 109.160156 123.382812 C 108.867188 123.382812 108.410156 123.382812 108.410156 123.839844 C 108.410156 124.296875 108.828125 124.296875 109.160156 124.296875 Z M 120.242188 124.296875 "/>
<path fill-rule="nonzero" fill="rgb(0%, 0%, 0%)" fill-opacity="1" d="M 129.222656 116.671875 C 129.222656 116.171875 129.222656 116.171875 128.683594 116.171875 C 127.472656 117.339844 125.808594 117.339844 125.058594 117.339844 L 125.058594 118.007812 C 125.472656 118.007812 126.722656 118.007812 127.722656 117.507812 L 127.722656 126.964844 C 127.722656 127.589844 127.722656 127.839844 125.890625 127.839844 L 125.183594 127.839844 L 125.183594 128.507812 C 125.515625 128.507812 127.808594 128.421875 128.472656 128.421875 C 129.058594 128.421875 131.390625 128.507812 131.808594 128.507812 L 131.808594 127.839844 L 131.097656 127.839844 C 129.222656 127.839844 129.222656 127.589844 129.222656 126.964844 Z M 129.222656 116.671875 "/>
<path fill-rule="nonzero" fill="rgb(0%, 0%, 0%)" fill-opacity="1" d="M 275.15625 116.644531 C 274.53125 118.894531 273.617188 122.1875 273.617188 124.226562 C 273.617188 124.9375 274.03125 125.269531 274.699219 125.269531 C 275.742188 125.269531 277.742188 124.101562 277.742188 123.601562 C 277.742188 123.4375 277.617188 123.394531 277.492188 123.394531 C 277.15625 123.394531 276.699219 123.644531 276.40625 123.8125 C 276.03125 123.726562 275.867188 123.476562 275.867188 123.101562 C 275.867188 119.851562 278.867188 110.5625 279.65625 108.601562 C 279.992188 107.851562 280.324219 106.769531 280.324219 106.5625 C 280.324219 106.351562 280.15625 106.351562 280.074219 106.351562 C 279.492188 106.351562 278.28125 107.0625 278.074219 107.601562 C 277.742188 108.519531 277.699219 108.644531 277.367188 109.644531 C 276.492188 112.144531 273.867188 116.5625 271.242188 119.644531 C 270.40625 120.5625 267.78125 123.644531 265.90625 123.644531 C 264.65625 123.644531 263.824219 122.5625 263.824219 120.8125 C 263.824219 118.9375 264.867188 116.5625 266.492188 112.894531 C 267.449219 110.726562 268.242188 108.851562 268.242188 107.644531 C 268.242188 106.394531 267.367188 106.351562 266.90625 106.351562 C 264.867188 106.351562 262.28125 108.019531 262.28125 108.5625 C 262.28125 108.726562 262.492188 108.726562 262.574219 108.726562 C 262.90625 108.726562 263.40625 108.519531 263.824219 108.226562 C 263.992188 108.101562 264.40625 107.8125 265.15625 107.8125 C 265.742188 107.8125 265.949219 108.1875 265.949219 108.769531 C 265.949219 109.9375 264.992188 112.144531 263.90625 114.6875 C 262.15625 118.6875 261.574219 120.351562 261.574219 121.894531 C 261.574219 123.6875 262.28125 125.101562 264.15625 125.101562 C 265.824219 125.101562 268.242188 124.019531 270.949219 121.476562 C 272.78125 119.769531 273.949219 118.1875 275.117188 116.644531 Z M 275.15625 116.644531 "/>
<path fill="none" stroke-width="0.39848" stroke-linecap="butt" stroke-linejoin="miter" stroke="rgb(0%, 0%, 0%)" stroke-opacity="1" stroke-miterlimit="10" d="M 12.050301 16.7183 L 35.909676 16.7183 " transform="matrix(2.666667, 0, 0, -2.666667, 155.221334, 70.226664)"/>
<path fill="none" stroke-width="0.39848" stroke-linecap="round" stroke-linejoin="round" stroke="rgb(0%, 0%, 0%)" stroke-opacity="1" stroke-miterlimit="10" d="M -2.072731 2.391796 C -1.693336 0.957714 -0.849586 0.278027 -0.00144196 0.00117111 C -0.849586 -0.280079 -1.693336 -0.956837 -2.072731 -2.389454 " transform="matrix(2.666667, 0, 0, -2.666667, 251.515564, 25.647654)"/>
<path fill-rule="nonzero" fill="rgb(0%, 0%, 0%)" fill-opacity="1" d="M 220.777344 7.140625 C 220.777344 6.476562 220.191406 6.140625 219.691406 6.140625 C 219.152344 6.140625 218.609375 6.515625 218.609375 7.140625 L 219.359375 15.351562 C 219.402344 15.765625 219.441406 15.765625 219.691406 15.765625 C 219.941406 15.765625 219.984375 15.765625 220.027344 15.351562 Z M 220.777344 18.308594 C 220.777344 17.726562 220.277344 17.265625 219.691406 17.265625 C 219.066406 17.265625 218.609375 17.765625 218.609375 18.308594 C 218.609375 18.976562 219.152344 19.390625 219.691406 19.390625 C 220.316406 19.390625 220.777344 18.933594 220.777344 18.308594 Z M 220.777344 18.308594 "/>
<path fill="none" stroke-width="0.39848" stroke-linecap="butt" stroke-linejoin="miter" stroke="rgb(0%, 0%, 0%)" stroke-opacity="1" stroke-miterlimit="10" d="M -19.859856 7.885292 L -19.859856 -9.25045 " transform="matrix(2.666667, 0, 0, -2.666667, 155.221334, 70.226664)"/>
<path fill="none" stroke-width="0.39848" stroke-linecap="round" stroke-linejoin="round" stroke="rgb(0%, 0%, 0%)" stroke-opacity="1" stroke-miterlimit="10" d="M -2.07317 2.392189 C -1.693775 0.958107 -0.850025 0.278419 0.00104904 0.00156403 C -0.850025 -0.279686 -1.693775 -0.956444 -2.07317 -2.389061 " transform="matrix(0, 2.666667, 2.666667, 0, 102.257548, 95.422984)"/>
<path fill-rule="nonzero" fill="rgb(0%, 0%, 0%)" fill-opacity="1" d="M 54.359375 63.796875 C 54.234375 63.464844 54.191406 63.378906 53.984375 63.378906 C 53.773438 63.378906 53.691406 63.546875 53.566406 63.753906 L 49.359375 74.878906 C 49.109375 75.464844 48.734375 75.753906 48.234375 75.796875 C 48.148438 75.796875 47.859375 75.839844 47.859375 76.128906 C 47.859375 76.464844 48.148438 76.464844 48.484375 76.464844 L 51.441406 76.464844 C 51.773438 76.464844 52.066406 76.464844 52.066406 76.128906 C 52.066406 75.839844 51.816406 75.839844 51.648438 75.796875 C 51.398438 75.796875 50.941406 75.714844 50.941406 74.589844 C 50.941406 74.003906 51.066406 73.378906 51.191406 72.796875 L 55.273438 72.796875 C 55.941406 74.628906 55.941406 74.921875 55.984375 75.296875 C 55.523438 75.753906 55.023438 75.796875 54.816406 75.796875 C 54.609375 75.839844 54.484375 75.964844 54.484375 76.128906 C 54.484375 76.464844 54.773438 76.464844 55.109375 76.464844 L 59.941406 76.464844 C 60.273438 76.464844 60.609375 76.464844 60.609375 76.128906 C 60.609375 75.878906 60.359375 75.839844 60.191406 75.796875 C 59.773438 75.753906 59.441406 75.421875 59.066406 74.589844 Z M 51.398438 72.171875 C 51.816406 70.503906 52.398438 68.921875 53.023438 67.378906 C 53.609375 68.628906 54.734375 71.296875 55.023438 72.171875 Z M 50.273438 74.214844 L 50.316406 74.253906 L 50.316406 74.421875 C 50.273438 74.464844 50.273438 74.503906 50.273438 74.589844 C 50.273438 74.671875 50.273438 75.378906 50.566406 75.796875 L 49.566406 75.796875 C 49.773438 75.546875 49.859375 75.339844 49.984375 75.046875 Z M 53.316406 66.378906 L 53.984375 64.589844 L 58.484375 74.839844 C 58.566406 75.046875 58.773438 75.464844 59.023438 75.796875 L 56.398438 75.796875 C 56.566406 75.714844 56.648438 75.421875 56.648438 75.214844 C 56.648438 74.089844 55.023438 70.296875 54.234375 68.464844 Z M 53.316406 66.378906 "/>
<path fill-rule="nonzero" fill="rgb(0%, 0%, 0%)" fill-opacity="1" d="M 65.828125 70.578125 C 65.914062 70.367188 65.914062 70.367188 65.914062 70.285156 C 65.914062 70.078125 65.703125 70.078125 65.496094 70.078125 L 63.871094 70.203125 C 63.621094 70.203125 63.578125 70.203125 63.539062 70.285156 C 63.496094 70.328125 63.453125 70.492188 63.453125 70.578125 C 63.453125 70.785156 63.664062 70.785156 63.828125 70.785156 C 63.871094 70.785156 64.078125 70.785156 64.289062 70.828125 C 64.539062 70.867188 64.539062 70.910156 64.539062 70.992188 C 64.539062 71.035156 64.539062 71.078125 64.496094 71.328125 L 62.664062 78.660156 C 62.621094 78.828125 62.621094 78.867188 62.621094 78.953125 C 62.621094 79.242188 62.828125 79.453125 63.121094 79.453125 C 63.621094 79.453125 63.746094 78.953125 63.789062 78.742188 L 64.414062 76.328125 C 64.746094 76.328125 66.414062 76.410156 66.414062 77.367188 C 66.414062 77.453125 66.414062 77.492188 66.371094 77.660156 C 66.328125 77.867188 66.328125 77.910156 66.328125 77.992188 C 66.328125 78.953125 67.164062 79.453125 67.953125 79.453125 C 69.289062 79.453125 69.828125 77.535156 69.828125 77.367188 C 69.828125 77.203125 69.621094 77.203125 69.539062 77.203125 C 69.328125 77.203125 69.289062 77.242188 69.246094 77.492188 C 69.121094 77.953125 68.703125 78.992188 67.996094 78.992188 C 67.496094 78.992188 67.453125 78.492188 67.453125 78.203125 C 67.453125 78.203125 67.453125 77.992188 67.496094 77.785156 C 67.539062 77.578125 67.578125 77.410156 67.578125 77.328125 C 67.578125 76.160156 66.078125 75.953125 65.203125 75.867188 C 65.578125 75.660156 66.164062 75.203125 66.371094 75.035156 C 67.121094 74.453125 67.871094 73.867188 68.621094 73.867188 C 68.914062 73.867188 68.996094 73.953125 69.078125 74.035156 C 69.078125 74.035156 68.996094 74.078125 68.953125 74.078125 C 68.371094 74.285156 68.371094 74.828125 68.371094 74.867188 C 68.371094 75.078125 68.539062 75.410156 68.953125 75.410156 C 69.203125 75.410156 69.789062 75.203125 69.789062 74.453125 C 69.789062 73.828125 69.289062 73.410156 68.621094 73.410156 C 67.746094 73.410156 66.953125 74.035156 65.996094 74.785156 C 65.539062 75.160156 65.078125 75.492188 64.539062 75.742188 Z M 65.828125 70.578125 "/>
<path fill-rule="nonzero" fill="rgb(0%, 0%, 0%)" fill-opacity="1" d="M 82.949219 76.328125 C 83.15625 76.328125 83.488281 76.328125 83.488281 75.953125 C 83.488281 75.578125 83.15625 75.578125 82.949219 75.578125 L 73.949219 75.578125 C 73.738281 75.578125 73.363281 75.578125 73.363281 75.953125 C 73.363281 76.328125 73.738281 76.328125 73.949219 76.328125 Z M 82.949219 76.328125 "/>
<path fill-rule="nonzero" fill="rgb(0%, 0%, 0%)" fill-opacity="1" d="M 90.921875 70.828125 C 90.921875 70.453125 90.882812 70.453125 90.421875 70.453125 C 89.507812 71.285156 88.007812 71.285156 87.757812 71.285156 L 87.546875 71.285156 L 87.546875 71.867188 L 87.757812 71.867188 C 88.046875 71.867188 88.921875 71.828125 89.714844 71.492188 L 89.714844 78.160156 C 89.714844 78.535156 89.714844 78.703125 88.296875 78.703125 L 87.632812 78.703125 L 87.632812 79.285156 C 88.339844 79.242188 89.546875 79.242188 90.296875 79.242188 C 91.089844 79.242188 92.257812 79.242188 93.007812 79.285156 L 93.007812 78.703125 L 92.339844 78.703125 C 90.921875 78.703125 90.921875 78.535156 90.921875 78.160156 Z M 90.921875 70.828125 "/>
<path fill="none" stroke-width="0.39848" stroke-linecap="butt" stroke-linejoin="miter" stroke="rgb(0%, 0%, 0%)" stroke-opacity="1" stroke-miterlimit="10" d="M 43.667488 10.378456 L 43.667488 -9.306114 " transform="matrix(2.666667, 0, 0, -2.666667, 155.221334, 70.226664)"/>
<path fill="none" stroke-width="0.39848" stroke-linecap="round" stroke-linejoin="round" stroke="rgb(0%, 0%, 0%)" stroke-opacity="1" stroke-miterlimit="10" d="M -2.072887 2.39106 C -1.694958 0.956978 -0.851208 0.27729 0.00133133 0.000434875 C -0.851208 -0.277885 -1.694958 -0.957573 -2.072887 -2.39019 " transform="matrix(0, 2.666667, 2.666667, 0, 271.666809, 95.570669)"/>
<path fill-rule="nonzero" fill="rgb(0%, 0%, 0%)" fill-opacity="1" d="M 283.921875 65.332031 C 285.464844 64.664062 286.132812 64.414062 286.589844 64.164062 C 286.964844 64.039062 287.132812 63.957031 287.132812 63.582031 C 287.132812 63.289062 286.882812 63 286.546875 63 C 286.421875 63 286.382812 63 286.171875 63.164062 L 283.632812 64.875 L 283.921875 62.125 C 283.964844 61.789062 283.921875 61.332031 283.339844 61.332031 C 283.132812 61.332031 282.757812 61.457031 282.757812 61.875 C 282.757812 62.039062 282.839844 62.582031 282.882812 62.789062 C 282.921875 63.082031 283.046875 64.457031 283.089844 64.875 L 280.546875 63.164062 C 280.382812 63.082031 280.339844 63 280.171875 63 C 279.796875 63 279.589844 63.289062 279.589844 63.582031 C 279.589844 63.957031 279.796875 64.082031 279.964844 64.125 L 282.757812 65.332031 C 281.257812 66 280.546875 66.25 280.089844 66.457031 C 279.757812 66.625 279.589844 66.707031 279.589844 67.039062 C 279.589844 67.375 279.796875 67.625 280.171875 67.625 C 280.296875 67.625 280.339844 67.625 280.546875 67.457031 L 283.089844 65.789062 L 282.757812 68.75 C 282.757812 69.164062 283.132812 69.332031 283.339844 69.332031 C 283.589844 69.332031 283.921875 69.164062 283.921875 68.75 C 283.921875 68.582031 283.839844 68.039062 283.839844 67.875 C 283.796875 67.539062 283.671875 66.207031 283.632812 65.789062 L 285.839844 67.25 C 286.339844 67.625 286.382812 67.625 286.546875 67.625 C 286.882812 67.625 287.132812 67.375 287.132812 67.039062 C 287.132812 66.664062 286.882812 66.582031 286.714844 66.5 Z M 283.921875 65.332031 "/>
<path fill-rule="nonzero" fill="rgb(0%, 0%, 0%)" fill-opacity="1" d="M 295.015625 69.914062 L 292.476562 63.871094 C 292.351562 63.578125 292.351562 63.578125 291.976562 63.578125 L 289.515625 63.578125 C 289.265625 63.578125 289.058594 63.578125 289.058594 63.828125 C 289.058594 64.078125 289.308594 64.078125 289.390625 64.078125 C 289.558594 64.078125 289.890625 64.078125 290.183594 64.203125 L 290.183594 71.289062 C 290.183594 71.578125 290.183594 72.164062 289.265625 72.246094 C 289.015625 72.246094 289.015625 72.453125 289.015625 72.453125 C 289.015625 72.703125 289.265625 72.703125 289.476562 72.703125 L 291.558594 72.703125 C 291.765625 72.703125 291.976562 72.703125 291.976562 72.453125 C 291.976562 72.328125 291.890625 72.246094 291.765625 72.246094 C 290.765625 72.164062 290.765625 71.621094 290.765625 71.289062 L 290.765625 64.664062 L 294.015625 72.414062 C 294.101562 72.664062 294.226562 72.703125 294.265625 72.703125 C 294.433594 72.703125 294.476562 72.578125 294.558594 72.453125 L 297.808594 64.664062 L 297.808594 71.289062 C 297.808594 71.578125 297.808594 72.164062 296.933594 72.246094 C 296.683594 72.246094 296.683594 72.453125 296.683594 72.453125 C 296.683594 72.703125 296.890625 72.703125 297.101562 72.703125 L 300.683594 72.703125 C 300.890625 72.703125 301.101562 72.703125 301.101562 72.453125 C 301.101562 72.328125 301.015625 72.246094 300.890625 72.246094 C 299.851562 72.164062 299.851562 71.621094 299.851562 71.289062 L 299.851562 64.996094 C 299.851562 64.746094 299.851562 64.164062 300.765625 64.078125 C 300.890625 64.039062 301.015625 63.996094 301.015625 63.828125 C 301.015625 63.578125 300.808594 63.578125 300.601562 63.578125 L 298.015625 63.578125 C 297.683594 63.578125 297.640625 63.578125 297.515625 63.871094 Z M 294.601562 70.164062 C 294.726562 70.371094 294.726562 70.371094 294.890625 70.453125 L 294.308594 71.871094 L 294.265625 71.871094 L 291.226562 64.621094 C 291.183594 64.453125 291.058594 64.203125 290.890625 64.078125 L 292.058594 64.078125 Z M 290.601562 72.246094 L 290.351562 72.246094 C 290.390625 72.203125 290.433594 72.164062 290.433594 72.121094 C 290.476562 72.121094 290.476562 72.121094 290.476562 72.078125 Z M 298.265625 64.078125 L 299.683594 64.078125 C 299.390625 64.414062 299.390625 64.746094 299.390625 64.996094 L 299.390625 71.328125 C 299.390625 71.578125 299.390625 71.914062 299.726562 72.246094 L 297.976562 72.246094 C 298.265625 71.914062 298.265625 71.578125 298.265625 71.328125 Z M 298.265625 64.078125 "/>
<path fill-rule="nonzero" fill="rgb(0%, 0%, 0%)" fill-opacity="1" d="M 306.226562 68.644531 C 306.308594 68.433594 306.308594 68.433594 306.308594 68.351562 C 306.308594 68.144531 306.101562 68.144531 305.894531 68.144531 L 304.269531 68.269531 C 304.019531 68.269531 303.976562 68.269531 303.933594 68.351562 C 303.894531 68.394531 303.851562 68.558594 303.851562 68.644531 C 303.851562 68.851562 304.058594 68.851562 304.226562 68.851562 C 304.269531 68.851562 304.476562 68.851562 304.683594 68.894531 C 304.933594 68.933594 304.933594 68.976562 304.933594 69.058594 C 304.933594 69.101562 304.933594 69.144531 304.894531 69.394531 L 303.058594 76.726562 C 303.019531 76.894531 303.019531 76.933594 303.019531 77.019531 C 303.019531 77.308594 303.226562 77.519531 303.519531 77.519531 C 304.019531 77.519531 304.144531 77.019531 304.183594 76.808594 L 304.808594 74.394531 C 305.144531 74.394531 306.808594 74.476562 306.808594 75.433594 C 306.808594 75.519531 306.808594 75.558594 306.769531 75.726562 C 306.726562 75.933594 306.726562 75.976562 306.726562 76.058594 C 306.726562 77.019531 307.558594 77.519531 308.351562 77.519531 C 309.683594 77.519531 310.226562 75.601562 310.226562 75.433594 C 310.226562 75.269531 310.019531 75.269531 309.933594 75.269531 C 309.726562 75.269531 309.683594 75.308594 309.644531 75.558594 C 309.519531 76.019531 309.101562 77.058594 308.394531 77.058594 C 307.894531 77.058594 307.851562 76.558594 307.851562 76.269531 C 307.851562 76.269531 307.851562 76.058594 307.894531 75.851562 C 307.933594 75.644531 307.976562 75.476562 307.976562 75.394531 C 307.976562 74.226562 306.476562 74.019531 305.601562 73.933594 C 305.976562 73.726562 306.558594 73.269531 306.769531 73.101562 C 307.519531 72.519531 308.269531 71.933594 309.019531 71.933594 C 309.308594 71.933594 309.394531 72.019531 309.476562 72.101562 C 309.476562 72.101562 309.394531 72.144531 309.351562 72.144531 C 308.769531 72.351562 308.769531 72.894531 308.769531 72.933594 C 308.769531 73.144531 308.933594 73.476562 309.351562 73.476562 C 309.601562 73.476562 310.183594 73.269531 310.183594 72.519531 C 310.183594 71.894531 309.683594 71.476562 309.019531 71.476562 C 308.144531 71.476562 307.351562 72.101562 306.394531 72.851562 C 305.933594 73.226562 305.476562 73.558594 304.933594 73.808594 Z M 306.226562 68.644531 "/>
<g clip-path="url(#clip-0)">
<path fill="none" stroke-width="2.33075" stroke-linecap="butt" stroke-linejoin="miter" stroke="rgb(0%, 0%, 0%)" stroke-opacity="1" stroke-miterlimit="10" d="M 26.687019 7.472206 L 6.779793 -3.360313 " transform="matrix(2.666667, 0, 0, -2.666667, 155.221334, 70.226664)"/>
</g>
<path fill="none" stroke-width="1.53377" stroke-linecap="butt" stroke-linejoin="miter" stroke="rgb(100%, 100%, 100%)" stroke-opacity="1" stroke-miterlimit="10" d="M 26.687019 7.472206 L 6.779793 -3.360313 " transform="matrix(2.666667, 0, 0, -2.666667, 155.221334, 70.226664)"/>
<path fill="none" stroke-width="0.39848" stroke-linecap="round" stroke-linejoin="round" stroke="rgb(0%, 0%, 0%)" stroke-opacity="1" stroke-miterlimit="10" d="M -1.294925 2.563011 C -0.667014 1.207107 1.024527 0.0494449 1.990391 0.000683783 C 1.025076 -0.0475929 -0.666039 -1.20856 -1.295303 -2.560609 " transform="matrix(-2.342, 1.274907, 1.274907, 2.342, 173.305155, 79.191305)"/>
<path fill-rule="nonzero" fill="rgb(0%, 0%, 0%)" fill-opacity="1" d="M 205.621094 72.96875 C 205.621094 72.59375 205.621094 72.425781 205.285156 72.425781 C 204.953125 72.425781 204.953125 72.59375 204.953125 72.96875 L 204.953125 86.175781 C 204.953125 86.511719 204.953125 86.71875 205.285156 86.71875 C 205.578125 86.71875 206.785156 85.84375 207.160156 85.59375 C 208.578125 84.59375 210.660156 82.886719 210.660156 80.386719 C 210.660156 78.761719 209.246094 77.800781 207.871094 77.800781 C 207.785156 77.800781 206.453125 77.800781 205.621094 78.511719 Z M 205.621094 80.050781 C 205.621094 79.636719 205.621094 79.300781 206.160156 78.96875 C 206.410156 78.84375 206.910156 78.636719 207.621094 78.636719 C 208.953125 78.636719 209.035156 80.09375 209.035156 80.386719 C 209.035156 82.675781 207.203125 84.59375 205.621094 85.84375 Z M 205.621094 80.050781 "/>
<path fill-rule="nonzero" fill="rgb(0%, 0%, 0%)" fill-opacity="1" d="M 217.007812 80.457031 C 217.089844 80.25 217.089844 80.25 217.089844 80.164062 C 217.089844 79.957031 216.882812 79.957031 216.675781 79.957031 L 215.050781 80.082031 C 214.800781 80.082031 214.757812 80.082031 214.714844 80.164062 C 214.675781 80.207031 214.632812 80.375 214.632812 80.457031 C 214.632812 80.664062 214.839844 80.664062 215.007812 80.664062 C 215.050781 80.664062 215.257812 80.664062 215.464844 80.707031 C 215.714844 80.75 215.714844 80.789062 215.714844 80.875 C 215.714844 80.914062 215.714844 80.957031 215.675781 81.207031 L 213.839844 88.539062 C 213.800781 88.707031 213.800781 88.75 213.800781 88.832031 C 213.800781 89.125 214.007812 89.332031 214.300781 89.332031 C 214.800781 89.332031 214.925781 88.832031 214.964844 88.625 L 215.589844 86.207031 C 215.925781 86.207031 217.589844 86.289062 217.589844 87.25 C 217.589844 87.332031 217.589844 87.375 217.550781 87.539062 C 217.507812 87.75 217.507812 87.789062 217.507812 87.875 C 217.507812 88.832031 218.339844 89.332031 219.132812 89.332031 C 220.464844 89.332031 221.007812 87.414062 221.007812 87.25 C 221.007812 87.082031 220.800781 87.082031 220.714844 87.082031 C 220.507812 87.082031 220.464844 87.125 220.425781 87.375 C 220.300781 87.832031 219.882812 88.875 219.175781 88.875 C 218.675781 88.875 218.632812 88.375 218.632812 88.082031 C 218.632812 88.082031 218.632812 87.875 218.675781 87.664062 C 218.714844 87.457031 218.757812 87.289062 218.757812 87.207031 C 218.757812 86.039062 217.257812 85.832031 216.382812 85.75 C 216.757812 85.539062 217.339844 85.082031 217.550781 84.914062 C 218.300781 84.332031 219.050781 83.75 219.800781 83.75 C 220.089844 83.75 220.175781 83.832031 220.257812 83.914062 C 220.257812 83.914062 220.175781 83.957031 220.132812 83.957031 C 219.550781 84.164062 219.550781 84.707031 219.550781 84.75 C 219.550781 84.957031 219.714844 85.289062 220.132812 85.289062 C 220.382812 85.289062 220.964844 85.082031 220.964844 84.332031 C 220.964844 83.707031 220.464844 83.289062 219.800781 83.289062 C 218.925781 83.289062 218.132812 83.914062 217.175781 84.664062 C 216.714844 85.039062 216.257812 85.375 215.714844 85.625 Z M 217.007812 80.457031 "/>
<path fill="none" stroke-width="0.39848" stroke-linecap="butt" stroke-linejoin="miter" stroke="rgb(0%, 0%, 0%)" stroke-opacity="1" stroke-miterlimit="10" d="M -3.113762 -17.868126 L 35.162605 -17.868126 " transform="matrix(2.666667, 0, 0, -2.666667, 155.221334, 70.226664)"/>
<path fill="none" stroke-width="0.39848" stroke-linecap="round" stroke-linejoin="round" stroke="rgb(0%, 0%, 0%)" stroke-opacity="1" stroke-miterlimit="10" d="M -2.070427 2.39204 C -1.695427 0.955029 -0.851677 0.278271 -0.000602722 0.00141525 C -0.851677 -0.279835 -1.695427 -0.955128 -2.070427 -2.38921 " transform="matrix(2.666667, 0, 0, -2.666667, 249.521139, 117.878774)"/>
</svg>
