<?xml version="1.0" encoding="UTF-8"?>
<svg xmlns="http://www.w3.org/2000/svg" xmlns:xlink="http://www.w3.org/1999/xlink" width="198.600006" height="207.479996" viewBox="0 0 198.600006 207.479996">
<defs>
<clipPath id="clip-0">
<path clip-rule="nonzero" d="M 85 51 L 198.601562 51 L 198.601562 142 L 85 142 Z M 85 51 "/>
</clipPath>
<clipPath id="clip-1">
<path clip-rule="nonzero" d="M 47 75 L 198.601562 75 L 198.601562 157 L 47 157 Z M 47 75 "/>
</clipPath>
<clipPath id="clip-2">
<path clip-rule="nonzero" d="M 151 83 L 198.601562 83 L 198.601562 135 L 151 135 Z M 151 83 "/>
</clipPath>
</defs>
<g clip-path="url(#clip-0)">
<path fill="none" stroke-width="1.19553" stroke-linecap="butt" stroke-linejoin="miter" stroke="rgb(0%, 0%, 0%)" stroke-opacity="1" stroke-miterlimit="10" d="M 9.972187 9.267467 L 37.718281 -1.931751 " transform="matrix(2, 0, 0, -2, 99.290001, 104.073997)"/>
</g>
<path fill="none" stroke-width="1.19553" stroke-linecap="round" stroke-linejoin="round" stroke="rgb(0%, 0%, 0%)" stroke-opacity="1" stroke-miterlimit="10" d="M -3.030406 3.832084 C -2.477215 1.532073 -1.242927 0.446265 -0.00114484 -0.000445506 C -1.24095 -0.445968 -2.474459 -1.533447 -3.030411 -3.830288 " transform="matrix(1.85464, 0.74838, 0.74838, -1.85464, 175.838394, 108.382843)"/>
<path fill="none" stroke-width="0.3985" stroke-linecap="butt" stroke-linejoin="miter" stroke="rgb(0%, 0%, 0%)" stroke-opacity="1" stroke-dasharray="0.3985 3.9851" stroke-miterlimit="10" d="M 9.972187 9.267467 L 0.00343704 -38.53722 " transform="matrix(2, 0, 0, -2, 99.290001, 104.073997)"/>
<path fill="none" stroke-width="0.3985" stroke-linecap="butt" stroke-linejoin="miter" stroke="rgb(0%, 0%, 0%)" stroke-opacity="1" stroke-dasharray="0.3985 3.9851" stroke-miterlimit="10" d="M 9.972187 9.267467 L -0.000469208 38.536999 " transform="matrix(2, 0, 0, -2, 99.290001, 104.073997)"/>
<path fill="none" stroke-width="1.19553" stroke-linecap="butt" stroke-linejoin="miter" stroke="rgb(0%, 0%, 0%)" stroke-opacity="1" stroke-miterlimit="10" d="M -38.828594 2.376842 L 8.788593 9.099499 " transform="matrix(2, 0, 0, -2, 99.290001, 104.073997)"/>
<path fill="none" stroke-width="1.19553" stroke-linecap="round" stroke-linejoin="round" stroke="rgb(0%, 0%, 0%)" stroke-opacity="1" stroke-miterlimit="10" d="M -3.030567 3.83073 C -2.47538 1.531292 -1.243827 0.446149 -0.00118822 -0.00145808 C -1.243439 -0.445492 -2.474114 -1.534206 -3.027129 -3.83108 " transform="matrix(1.98032, -0.27952, -0.27952, -1.98032, 118.04882, 85.707718)"/>
<path fill-rule="nonzero" fill="rgb(0%, 0%, 0%)" fill-opacity="1" stroke-width="0.79701" stroke-linecap="butt" stroke-linejoin="miter" stroke="rgb(0%, 25.098039%, 0%)" stroke-opacity="1" stroke-miterlimit="10" d="M 11.378437 9.267467 C 11.378437 10.044811 10.749531 10.677624 9.972187 10.677624 C 9.194843 10.677624 8.562031 10.044811 8.562031 9.267467 C 8.562031 8.490124 9.194843 7.857311 9.972187 7.857311 C 10.749531 7.857311 11.378437 8.490124 11.378437 9.267467 Z M 11.378437 9.267467 " transform="matrix(2, 0, 0, -2, 99.290001, 104.073997)"/>
<path fill="none" stroke-width="0.3985" stroke-linecap="butt" stroke-linejoin="miter" stroke="rgb(0%, 0%, 0%)" stroke-opacity="1" stroke-miterlimit="10" d="M 38.827656 -2.377064 L 0.00343704 -38.53722 " transform="matrix(2, 0, 0, -2, 99.290001, 104.073997)"/>
<path fill="none" stroke-width="0.3985" stroke-linecap="butt" stroke-linejoin="miter" stroke="rgb(0%, 0%, 0%)" stroke-opacity="1" stroke-miterlimit="10" d="M 38.827656 -2.377064 L -0.000469208 38.536999 " transform="matrix(2, 0, 0, -2, 99.290001, 104.073997)"/>
<g clip-path="url(#clip-1)">
<path fill="none" stroke-width="1.19553" stroke-linecap="butt" stroke-linejoin="miter" stroke="rgb(0%, 0%, 0%)" stroke-opacity="1" stroke-miterlimit="10" d="M 38.827656 -2.377064 L -8.785625 -9.09972 " transform="matrix(2, 0, 0, -2, 99.290001, 104.073997)"/>
</g>
<path fill="none" stroke-width="1.19553" stroke-linecap="round" stroke-linejoin="round" stroke="rgb(0%, 0%, 0%)" stroke-opacity="1" stroke-miterlimit="10" d="M -3.029607 3.830818 C -2.474419 1.53138 -1.242867 0.446237 -0.00022807 -0.00137016 C -1.242479 -0.445404 -2.477021 -1.533572 -3.030037 -3.830446 " transform="matrix(-1.98032, 0.27952, 0.27952, 1.98032, 80.531181, 122.440277)"/>
<path fill="none" stroke-width="0.3985" stroke-linecap="butt" stroke-linejoin="miter" stroke="rgb(0%, 0%, 0%)" stroke-opacity="1" stroke-miterlimit="10" d="M 0.00343704 -38.53722 L -38.828594 2.376842 " transform="matrix(2, 0, 0, -2, 99.290001, 104.073997)"/>
<path fill="none" stroke-width="0.3985" stroke-linecap="butt" stroke-linejoin="miter" stroke="rgb(0%, 0%, 0%)" stroke-opacity="1" stroke-miterlimit="10" d="M 0.00343704 -38.53722 L -9.973125 -9.267689 " transform="matrix(2, 0, 0, -2, 99.290001, 104.073997)"/>
<path fill="none" stroke-width="0.3985" stroke-linecap="butt" stroke-linejoin="miter" stroke="rgb(0%, 0%, 0%)" stroke-opacity="1" stroke-miterlimit="10" d="M -0.000469208 38.536999 L -38.828594 2.376842 " transform="matrix(2, 0, 0, -2, 99.290001, 104.073997)"/>
<path fill="none" stroke-width="0.3985" stroke-linecap="butt" stroke-linejoin="miter" stroke="rgb(0%, 0%, 0%)" stroke-opacity="1" stroke-miterlimit="10" d="M -0.000469208 38.536999 L -9.973125 -9.267689 " transform="matrix(2, 0, 0, -2, 99.290001, 104.073997)"/>
<path fill="none" stroke-width="1.19553" stroke-linecap="butt" stroke-linejoin="miter" stroke="rgb(0%, 0%, 0%)" stroke-opacity="1" stroke-miterlimit="10" d="M -9.973125 -9.267689 L -37.719219 1.93153 " transform="matrix(2, 0, 0, -2, 99.290001, 104.073997)"/>
<path fill="none" stroke-width="1.19553" stroke-linecap="round" stroke-linejoin="round" stroke="rgb(0%, 0%, 0%)" stroke-opacity="1" stroke-miterlimit="10" d="M -3.028158 3.829012 C -2.47643 1.532625 -1.242142 0.446817 -0.000359477 0.000105879 C -1.243787 -0.446878 -2.473674 -1.532896 -3.029625 -3.829737 " transform="matrix(-1.85464, -0.74838, -0.74838, 1.85464, 22.7416, 99.76516)"/>
<path fill-rule="nonzero" fill="rgb(0%, 0%, 0%)" fill-opacity="1" d="M 179.765625 108.828125 C 179.765625 107.273438 178.5 106.015625 176.945312 106.015625 C 175.390625 106.015625 174.132812 107.273438 174.132812 108.828125 C 174.132812 110.382812 175.390625 111.648438 176.945312 111.648438 C 178.5 111.648438 179.765625 110.382812 179.765625 108.828125 Z M 179.765625 108.828125 "/>
<g clip-path="url(#clip-2)">
<path fill="none" stroke-width="0.79701" stroke-linecap="butt" stroke-linejoin="miter" stroke="rgb(0%, 25.098039%, 0%)" stroke-opacity="1" stroke-miterlimit="10" d="M 40.237812 -2.377064 C 40.237812 -1.59972 39.605 -0.970814 38.827656 -0.970814 C 38.050312 -0.970814 37.421406 -1.59972 37.421406 -2.377064 C 37.421406 -3.154408 38.050312 -3.78722 38.827656 -3.78722 C 39.605 -3.78722 40.237812 -3.154408 40.237812 -2.377064 Z M 40.237812 -2.377064 " transform="matrix(2, 0, 0, -2, 99.290001, 104.073997)"/>
</g>
<path fill-rule="nonzero" fill="rgb(0%, 0%, 0%)" fill-opacity="1" d="M 188.222656 91.324219 C 188.222656 91.324219 188.222656 91.105469 187.972656 91.105469 C 187.535156 91.105469 186.066406 91.261719 185.535156 91.324219 C 185.378906 91.324219 185.160156 91.355469 185.160156 91.699219 C 185.160156 91.949219 185.347656 91.949219 185.660156 91.949219 C 186.597656 91.949219 186.628906 92.074219 186.628906 92.292969 C 186.628906 92.417969 186.472656 93.105469 186.378906 93.511719 L 184.722656 100.011719 C 184.503906 101.011719 184.410156 101.355469 184.410156 102.042969 C 184.410156 103.917969 185.472656 105.167969 186.941406 105.167969 C 189.285156 105.167969 191.753906 102.199219 191.753906 99.324219 C 191.753906 97.511719 190.691406 96.136719 189.097656 96.136719 C 188.191406 96.136719 187.347656 96.730469 186.753906 97.324219 Z M 186.378906 98.855469 C 186.472656 98.417969 186.472656 98.386719 186.660156 98.167969 C 187.628906 96.886719 188.535156 96.574219 189.066406 96.574219 C 189.785156 96.574219 190.316406 97.167969 190.316406 98.449219 C 190.316406 99.636719 189.660156 101.917969 189.285156 102.667969 C 188.628906 104.011719 187.722656 104.730469 186.941406 104.730469 C 186.253906 104.730469 185.597656 104.199219 185.597656 102.730469 C 185.597656 102.324219 185.597656 101.949219 185.910156 100.699219 Z M 186.378906 98.855469 "/>
<path fill-rule="nonzero" fill="rgb(0%, 0%, 0%)" fill-opacity="1" stroke-width="0.79701" stroke-linecap="butt" stroke-linejoin="miter" stroke="rgb(0%, 25.098039%, 0%)" stroke-opacity="1" stroke-miterlimit="10" d="M 1.409687 -38.53722 C 1.409687 -37.759876 0.780781 -37.13097 0.00343704 -37.13097 C -0.777813 -37.13097 -1.406719 -37.759876 -1.406719 -38.53722 C -1.406719 -39.31847 -0.777813 -39.947376 0.00343704 -39.947376 C 0.780781 -39.947376 1.409687 -39.31847 1.409687 -38.53722 Z M 1.409687 -38.53722 " transform="matrix(2, 0, 0, -2, 99.290001, 104.073997)"/>
<path fill-rule="nonzero" fill="rgb(0%, 0%, 0%)" fill-opacity="1" d="M 103.738281 191.28125 C 103.832031 191 103.832031 190.96875 103.832031 190.8125 C 103.832031 190.46875 103.550781 190.28125 103.238281 190.28125 C 103.050781 190.28125 102.738281 190.40625 102.550781 190.6875 C 102.519531 190.8125 102.332031 191.40625 102.269531 191.78125 C 102.113281 192.28125 101.988281 192.84375 101.863281 193.375 L 100.957031 196.96875 C 100.894531 197.25 100.019531 198.65625 98.707031 198.65625 C 97.707031 198.65625 97.488281 197.78125 97.488281 197.03125 C 97.488281 196.125 97.832031 194.875 98.488281 193.125 C 98.800781 192.3125 98.894531 192.09375 98.894531 191.6875 C 98.894531 190.8125 98.269531 190.0625 97.269531 190.0625 C 95.363281 190.0625 94.644531 192.96875 94.644531 193.125 C 94.644531 193.34375 94.832031 193.34375 94.863281 193.34375 C 95.082031 193.34375 95.082031 193.28125 95.175781 192.96875 C 95.738281 191.09375 96.519531 190.5 97.207031 190.5 C 97.363281 190.5 97.707031 190.5 97.707031 191.125 C 97.707031 191.625 97.488281 192.15625 97.363281 192.53125 C 96.550781 194.65625 96.207031 195.78125 96.207031 196.71875 C 96.207031 198.5 97.457031 199.09375 98.644531 199.09375 C 99.425781 199.09375 100.082031 198.75 100.644531 198.1875 C 100.394531 199.21875 100.144531 200.21875 99.363281 201.28125 C 98.832031 201.9375 98.082031 202.53125 97.175781 202.53125 C 96.894531 202.53125 95.988281 202.46875 95.644531 201.6875 C 95.957031 201.6875 96.238281 201.6875 96.488281 201.4375 C 96.707031 201.28125 96.894531 201 96.894531 200.625 C 96.894531 200 96.363281 199.9375 96.175781 199.9375 C 95.707031 199.9375 95.050781 200.25 95.050781 201.21875 C 95.050781 202.21875 95.925781 202.96875 97.175781 202.96875 C 99.207031 202.96875 101.269531 201.15625 101.832031 198.90625 Z M 103.738281 191.28125 "/>
<path fill-rule="nonzero" fill="rgb(0%, 0%, 0%)" fill-opacity="1" stroke-width="0.79701" stroke-linecap="butt" stroke-linejoin="miter" stroke="rgb(0%, 25.098039%, 0%)" stroke-opacity="1" stroke-miterlimit="10" d="M 1.405781 38.536999 C 1.405781 39.318249 0.776875 39.947155 -0.000469208 39.947155 C -0.781719 39.947155 -1.410625 39.318249 -1.410625 38.536999 C -1.410625 37.759655 -0.781719 37.130749 -0.000469208 37.130749 C 0.776875 37.130749 1.405781 37.759655 1.405781 38.536999 Z M 1.405781 38.536999 " transform="matrix(2, 0, 0, -2, 99.290001, 104.073997)"/>
<path fill-rule="nonzero" fill="rgb(0%, 0%, 0%)" fill-opacity="1" d="M 101.105469 8.835938 C 101.199219 8.398438 101.386719 7.648438 101.386719 7.523438 C 101.386719 7.179688 101.105469 6.992188 100.824219 6.992188 C 100.574219 6.992188 100.230469 7.148438 100.074219 7.554688 C 100.011719 7.679688 99.074219 11.492188 98.949219 12.023438 C 98.792969 12.617188 98.761719 12.960938 98.761719 13.335938 C 98.761719 13.554688 98.761719 13.585938 98.792969 13.679688 C 98.324219 14.742188 97.730469 15.367188 96.949219 15.367188 C 95.355469 15.367188 95.355469 13.898438 95.355469 13.554688 C 95.355469 12.929688 95.449219 12.148438 96.386719 9.679688 C 96.605469 9.085938 96.730469 8.804688 96.730469 8.398438 C 96.730469 7.523438 96.074219 6.773438 95.105469 6.773438 C 93.199219 6.773438 92.480469 9.679688 92.480469 9.835938 C 92.480469 10.054688 92.667969 10.054688 92.699219 10.054688 C 92.917969 10.054688 92.917969 9.992188 93.011719 9.679688 C 93.574219 7.835938 94.324219 7.210938 95.042969 7.210938 C 95.230469 7.210938 95.542969 7.242188 95.542969 7.867188 C 95.542969 8.367188 95.324219 8.929688 95.167969 9.273438 C 94.292969 11.617188 94.074219 12.523438 94.074219 13.304688 C 94.074219 15.117188 95.386719 15.804688 96.886719 15.804688 C 97.230469 15.804688 98.167969 15.804688 98.949219 14.398438 C 99.480469 15.679688 100.855469 15.804688 101.449219 15.804688 C 102.949219 15.804688 103.824219 14.554688 104.355469 13.367188 C 105.011719 11.804688 105.667969 9.117188 105.667969 8.179688 C 105.667969 7.085938 105.136719 6.773438 104.792969 6.773438 C 104.292969 6.773438 103.792969 7.304688 103.792969 7.742188 C 103.792969 7.992188 103.917969 8.117188 104.074219 8.273438 C 104.292969 8.492188 104.792969 8.992188 104.792969 9.960938 C 104.792969 10.648438 104.230469 12.585938 103.699219 13.617188 C 103.199219 14.679688 102.480469 15.367188 101.511719 15.367188 C 100.574219 15.367188 100.042969 14.773438 100.042969 13.617188 C 100.042969 13.085938 100.167969 12.460938 100.261719 12.179688 Z M 101.105469 8.835938 "/>
<path fill-rule="nonzero" fill="rgb(0%, 0%, 0%)" fill-opacity="1" stroke-width="0.79701" stroke-linecap="butt" stroke-linejoin="miter" stroke="rgb(0%, 25.098039%, 0%)" stroke-opacity="1" stroke-miterlimit="10" d="M -37.418438 2.376842 C -37.418438 3.158092 -38.05125 3.786999 -38.828594 3.786999 C -39.605938 3.786999 -40.23875 3.158092 -40.23875 2.376842 C -40.23875 1.599499 -39.605938 0.970592 -38.828594 0.970592 C -38.05125 0.970592 -37.418438 1.599499 -37.418438 2.376842 Z M -37.418438 2.376842 " transform="matrix(2, 0, 0, -2, 99.290001, 104.073997)"/>
<path fill-rule="nonzero" fill="rgb(0%, 0%, 0%)" fill-opacity="1" d="M 15.109375 83.351562 C 15.140625 83.257812 15.171875 83.132812 15.171875 83.007812 C 15.171875 82.664062 14.953125 82.476562 14.609375 82.476562 C 14.421875 82.476562 13.859375 82.601562 13.796875 83.320312 C 13.421875 82.601562 12.734375 82.070312 11.921875 82.070312 C 9.671875 82.070312 7.203125 84.851562 7.203125 87.726562 C 7.203125 89.695312 8.390625 90.882812 9.828125 90.882812 C 11.015625 90.882812 11.953125 89.945312 12.140625 89.726562 L 12.171875 89.757812 C 11.765625 91.507812 11.515625 92.351562 11.515625 92.382812 C 11.421875 92.570312 10.765625 94.539062 8.640625 94.539062 C 8.265625 94.539062 7.609375 94.507812 7.046875 94.320312 C 7.640625 94.164062 7.859375 93.632812 7.859375 93.289062 C 7.859375 92.976562 7.640625 92.601562 7.109375 92.601562 C 6.671875 92.601562 6.046875 92.945312 6.046875 93.757812 C 6.046875 94.570312 6.765625 94.976562 8.671875 94.976562 C 11.171875 94.976562 12.609375 93.414062 12.921875 92.226562 Z M 12.546875 88.320312 C 12.421875 88.851562 11.953125 89.351562 11.515625 89.726562 C 11.109375 90.070312 10.484375 90.445312 9.890625 90.445312 C 8.890625 90.445312 8.609375 89.414062 8.609375 88.601562 C 8.609375 87.664062 9.171875 85.289062 9.734375 84.289062 C 10.265625 83.320312 11.109375 82.507812 11.953125 82.507812 C 13.265625 82.507812 13.546875 84.132812 13.546875 84.226562 C 13.546875 84.320312 13.515625 84.445312 13.484375 84.507812 Z M 12.546875 88.320312 "/>
<path fill-rule="nonzero" fill="rgb(0%, 0%, 0%)" fill-opacity="1" stroke-width="0.79701" stroke-linecap="butt" stroke-linejoin="miter" stroke="rgb(0%, 25.098039%, 0%)" stroke-opacity="1" stroke-miterlimit="10" d="M -8.562969 -9.267689 C -8.562969 -8.490345 -9.191875 -7.857533 -9.973125 -7.857533 C -10.750469 -7.857533 -11.379375 -8.490345 -11.379375 -9.267689 C -11.379375 -10.045033 -10.750469 -10.673939 -9.973125 -10.673939 C -9.191875 -10.673939 -8.562969 -10.045033 -8.562969 -9.267689 Z M -8.562969 -9.267689 " transform="matrix(2, 0, 0, -2, 99.290001, 104.073997)"/>
<path fill-rule="nonzero" fill="rgb(0%, 0%, 0%)" fill-opacity="1" d="M 66.695312 116.078125 C 66.632812 116.390625 66.507812 116.859375 66.507812 116.953125 C 66.507812 117.296875 66.789062 117.484375 67.101562 117.484375 C 67.351562 117.484375 67.695312 117.328125 67.851562 116.921875 C 67.882812 116.859375 68.539062 114.140625 68.632812 113.765625 C 68.789062 113.109375 69.164062 111.734375 69.257812 111.171875 C 69.351562 110.921875 69.914062 109.984375 70.382812 109.546875 C 70.539062 109.421875 71.132812 108.890625 71.976562 108.890625 C 72.507812 108.890625 72.789062 109.140625 72.820312 109.140625 C 72.226562 109.234375 71.789062 109.703125 71.789062 110.234375 C 71.789062 110.546875 72.007812 110.921875 72.539062 110.921875 C 73.070312 110.921875 73.632812 110.453125 73.632812 109.734375 C 73.632812 109.046875 73.007812 108.453125 71.976562 108.453125 C 70.695312 108.453125 69.820312 109.421875 69.445312 109.984375 C 69.257812 109.078125 68.539062 108.453125 67.601562 108.453125 C 66.695312 108.453125 66.320312 109.234375 66.132812 109.578125 C 65.789062 110.265625 65.539062 111.453125 65.539062 111.515625 C 65.539062 111.734375 65.726562 111.734375 65.757812 111.734375 C 65.976562 111.734375 65.976562 111.703125 66.101562 111.265625 C 66.445312 109.859375 66.851562 108.890625 67.570312 108.890625 C 67.882812 108.890625 68.164062 109.046875 68.164062 109.796875 C 68.164062 110.234375 68.101562 110.453125 67.851562 111.484375 Z M 66.695312 116.078125 "/>
<path fill-rule="nonzero" fill="rgb(0%, 0%, 0%)" fill-opacity="1" stroke-width="0.79701" stroke-linecap="butt" stroke-linejoin="miter" stroke="rgb(0%, 25.098039%, 0%)" stroke-opacity="1" stroke-miterlimit="10" d="M 11.378437 9.267467 C 11.378437 10.044811 10.749531 10.677624 9.972187 10.677624 C 9.194843 10.677624 8.562031 10.044811 8.562031 9.267467 C 8.562031 8.490124 9.194843 7.857311 9.972187 7.857311 C 10.749531 7.857311 11.378437 8.490124 11.378437 9.267467 Z M 11.378437 9.267467 " transform="matrix(2, 0, 0, -2, 99.290001, 104.073997)"/>
<path fill-rule="nonzero" fill="rgb(0%, 0%, 0%)" fill-opacity="1" d="M 133.398438 74.738281 C 133.398438 72.644531 132.023438 71.363281 130.210938 71.363281 C 127.554688 71.363281 124.867188 74.207031 124.867188 77.019531 C 124.867188 78.988281 126.210938 80.394531 128.054688 80.394531 C 130.710938 80.394531 133.398438 77.644531 133.398438 74.738281 Z M 128.085938 79.957031 C 127.210938 79.957031 126.335938 79.332031 126.335938 77.769531 C 126.335938 76.800781 126.867188 74.644531 127.492188 73.644531 C 128.492188 72.113281 129.648438 71.800781 130.210938 71.800781 C 131.367188 71.800781 131.960938 72.769531 131.960938 73.957031 C 131.960938 74.738281 131.554688 76.832031 130.804688 78.113281 C 130.085938 79.269531 128.992188 79.957031 128.085938 79.957031 Z M 128.085938 79.957031 "/>
</svg>
