<?xml version="1.0" encoding="UTF-8"?>
<svg xmlns="http://www.w3.org/2000/svg" xmlns:xlink="http://www.w3.org/1999/xlink" width="243.740005" height="106.099998" viewBox="0 0 243.740005 106.099998">
<defs>
<clipPath id="clip-0">
<path clip-rule="nonzero" d="M 44 0 L 219 0 L 219 106.101562 L 44 106.101562 Z M 44 0 "/>
</clipPath>
</defs>
<path fill-rule="nonzero" fill="rgb(0%, 0%, 0%)" fill-opacity="1" d="M 18.816406 15.304688 C 18.816406 12.429688 17.941406 10.117188 15.785156 10.117188 C 14.097656 10.117188 12.285156 11.710938 12.285156 12.585938 C 12.285156 13.242188 12.816406 13.523438 13.222656 13.523438 C 13.628906 13.523438 13.878906 13.179688 13.941406 13.117188 C 13.878906 13.085938 13.753906 12.898438 13.753906 12.617188 C 13.753906 12.429688 14.097656 10.710938 15.816406 10.710938 C 17.253906 10.710938 17.566406 12.554688 17.566406 14.179688 C 17.566406 15.398438 17.410156 16.460938 17.410156 16.492188 L 17.378906 16.492188 C 17.378906 16.460938 16.597656 15.242188 15.035156 15.242188 C 11.035156 15.242188 9.378906 19.117188 9.378906 21.179688 C 9.378906 23.023438 10.472656 24.210938 12.691406 24.210938 C 16.128906 24.210938 18.816406 20.742188 18.816406 15.304688 Z M 16.535156 17.554688 C 16.535156 18.085938 16.035156 23.742188 12.816406 23.742188 C 11.691406 23.742188 11.191406 23.085938 11.191406 21.835938 C 11.191406 20.554688 12.003906 15.710938 14.878906 15.710938 C 16.003906 15.710938 16.535156 16.367188 16.535156 17.554688 Z M 16.535156 17.554688 "/>
<path fill-rule="nonzero" fill="rgb(0%, 0%, 0%)" fill-opacity="1" d="M 24.210938 20.179688 L 24.992188 17.398438 L 26.273438 17.398438 C 28.992188 17.398438 31.273438 16.554688 32.273438 14.867188 C 32.617188 14.335938 32.773438 13.773438 32.773438 13.117188 C 32.773438 12.148438 32.335938 11.429688 31.460938 10.867188 C 30.617188 10.335938 29.398438 10.054688 27.867188 10.054688 L 22.867188 10.054688 L 22.773438 10.335938 C 23.148438 10.335938 23.429688 10.367188 23.679688 10.398438 C 24.242188 10.492188 24.523438 11.117188 24.523438 11.742188 C 24.523438 12.085938 24.460938 12.523438 24.304688 13.085938 L 22.148438 21.023438 C 21.960938 21.773438 21.648438 22.679688 21.273438 23.054688 C 20.929688 23.367188 20.367188 23.617188 19.804688 23.617188 L 19.710938 23.898438 L 25.679688 23.898438 L 25.773438 23.617188 C 24.398438 23.617188 23.804688 22.867188 23.804688 22.148438 C 23.804688 21.992188 23.867188 21.617188 23.960938 21.273438 C 24.023438 20.960938 24.085938 20.585938 24.210938 20.179688 Z M 25.085938 16.992188 L 26.335938 12.148438 C 26.554688 11.492188 26.710938 10.710938 27.304688 10.492188 C 27.429688 10.460938 27.648438 10.460938 27.867188 10.460938 C 29.804688 10.460938 30.773438 11.585938 30.773438 13.023438 C 30.773438 13.554688 30.648438 14.023438 30.429688 14.429688 C 29.648438 15.742188 28.023438 16.992188 25.992188 16.992188 Z M 25.085938 16.992188 "/>
<path fill-rule="nonzero" fill="rgb(0%, 0%, 0%)" fill-opacity="1" d="M 40.824219 9.617188 C 37.949219 11.492188 35.917969 14.710938 35.917969 18.773438 C 35.917969 22.492188 38.011719 26.242188 40.761719 27.929688 L 41.011719 27.617188 C 38.386719 25.523438 37.605469 23.117188 37.605469 18.710938 C 37.605469 14.273438 38.449219 11.992188 41.011719 9.929688 Z M 40.824219 9.617188 "/>
<path fill-rule="nonzero" fill="rgb(0%, 0%, 0%)" fill-opacity="1" d="M 51.316406 20.429688 L 50.847656 20.429688 C 50.722656 21.023438 50.597656 21.898438 50.378906 22.210938 C 50.253906 22.367188 48.941406 22.367188 48.503906 22.367188 L 44.910156 22.367188 L 47.035156 20.304688 C 50.128906 17.554688 51.316406 16.492188 51.316406 14.492188 C 51.316406 12.210938 49.535156 10.617188 47.097656 10.617188 C 44.847656 10.617188 43.378906 12.460938 43.378906 14.242188 C 43.378906 15.335938 44.378906 15.335938 44.441406 15.335938 C 44.785156 15.335938 45.472656 15.117188 45.472656 14.273438 C 45.472656 13.773438 45.097656 13.242188 44.410156 13.242188 C 44.253906 13.242188 44.222656 13.242188 44.160156 13.273438 C 44.597656 11.960938 45.691406 11.242188 46.847656 11.242188 C 48.660156 11.242188 49.503906 12.867188 49.503906 14.492188 C 49.503906 16.085938 48.535156 17.648438 47.410156 18.898438 L 43.597656 23.148438 C 43.378906 23.367188 43.378906 23.429688 43.378906 23.898438 L 50.785156 23.898438 Z M 51.316406 20.429688 "/>
<path fill-rule="nonzero" fill="rgb(0%, 0%, 0%)" fill-opacity="1" d="M 53.09375 9.617188 L 52.9375 9.929688 C 55.5 11.992188 56.3125 14.273438 56.3125 18.710938 C 56.3125 23.117188 55.5625 25.523438 52.9375 27.617188 L 53.15625 27.929688 C 55.90625 26.242188 58.03125 22.492188 58.03125 18.773438 C 58.03125 14.710938 56 11.492188 53.09375 9.617188 Z M 53.09375 9.617188 "/>
<path fill-rule="nonzero" fill="rgb(0%, 0%, 0%)" fill-opacity="1" d="M 75.960938 23.210938 L 71.523438 18.773438 L 75.960938 14.335938 L 75.179688 13.523438 L 70.742188 17.992188 L 66.304688 13.523438 L 65.523438 14.335938 L 69.929688 18.773438 L 65.523438 23.210938 L 66.304688 23.992188 L 70.742188 19.554688 L 75.179688 23.992188 Z M 75.960938 23.210938 "/>
<path fill-rule="nonzero" fill="rgb(0%, 0%, 0%)" fill-opacity="1" d="M 91.734375 15.304688 C 91.734375 12.429688 90.859375 10.117188 88.703125 10.117188 C 87.015625 10.117188 85.203125 11.710938 85.203125 12.585938 C 85.203125 13.242188 85.734375 13.523438 86.140625 13.523438 C 86.546875 13.523438 86.796875 13.179688 86.859375 13.117188 C 86.796875 13.085938 86.671875 12.898438 86.671875 12.617188 C 86.671875 12.429688 87.015625 10.710938 88.734375 10.710938 C 90.171875 10.710938 90.484375 12.554688 90.484375 14.179688 C 90.484375 15.398438 90.328125 16.460938 90.328125 16.492188 L 90.296875 16.492188 C 90.296875 16.460938 89.515625 15.242188 87.953125 15.242188 C 83.953125 15.242188 82.296875 19.117188 82.296875 21.179688 C 82.296875 23.023438 83.390625 24.210938 85.609375 24.210938 C 89.046875 24.210938 91.734375 20.742188 91.734375 15.304688 Z M 89.453125 17.554688 C 89.453125 18.085938 88.953125 23.742188 85.734375 23.742188 C 84.609375 23.742188 84.109375 23.085938 84.109375 21.835938 C 84.109375 20.554688 84.921875 15.710938 87.796875 15.710938 C 88.921875 15.710938 89.453125 16.367188 89.453125 17.554688 Z M 89.453125 17.554688 "/>
<path fill-rule="nonzero" fill="rgb(0%, 0%, 0%)" fill-opacity="1" d="M 105.25 23.898438 L 99.6875 10.429688 L 99.34375 10.429688 L 93.40625 23.898438 Z M 102.9375 23.054688 L 94.71875 23.054688 L 99 13.398438 Z M 102.9375 23.054688 "/>
<path fill-rule="nonzero" fill="rgb(0%, 0%, 0%)" fill-opacity="1" d="M 112.625 16.664062 L 112.625 16.132812 L 112.0625 16.132812 C 110.625 16.132812 110.625 15.945312 110.625 15.476562 L 110.625 7.414062 C 110.625 7.039062 110.59375 7.007812 110.1875 7.007812 C 109.25 7.945312 107.9375 7.945312 107.34375 7.945312 L 107.34375 8.476562 C 107.6875 8.476562 108.65625 8.476562 109.4375 8.070312 L 109.4375 15.476562 C 109.4375 15.945312 109.4375 16.132812 108 16.132812 L 107.4375 16.132812 L 107.4375 16.664062 L 110.03125 16.601562 Z M 112.625 16.664062 "/>
<path fill-rule="nonzero" fill="rgb(0%, 0%, 0%)" fill-opacity="1" d="M 190.257812 15.304688 C 190.257812 12.429688 189.382812 10.117188 187.226562 10.117188 C 185.539062 10.117188 183.726562 11.710938 183.726562 12.585938 C 183.726562 13.242188 184.257812 13.523438 184.664062 13.523438 C 185.070312 13.523438 185.320312 13.179688 185.382812 13.117188 C 185.320312 13.085938 185.195312 12.898438 185.195312 12.617188 C 185.195312 12.429688 185.539062 10.710938 187.257812 10.710938 C 188.695312 10.710938 189.007812 12.554688 189.007812 14.179688 C 189.007812 15.398438 188.851562 16.460938 188.851562 16.492188 L 188.820312 16.492188 C 188.820312 16.460938 188.039062 15.242188 186.476562 15.242188 C 182.476562 15.242188 180.820312 19.117188 180.820312 21.179688 C 180.820312 23.023438 181.914062 24.210938 184.132812 24.210938 C 187.570312 24.210938 190.257812 20.742188 190.257812 15.304688 Z M 187.976562 17.554688 C 187.976562 18.085938 187.476562 23.742188 184.257812 23.742188 C 183.132812 23.742188 182.632812 23.085938 182.632812 21.835938 C 182.632812 20.554688 183.445312 15.710938 186.320312 15.710938 C 187.445312 15.710938 187.976562 16.367188 187.976562 17.554688 Z M 187.976562 17.554688 "/>
<path fill-rule="nonzero" fill="rgb(0%, 0%, 0%)" fill-opacity="1" d="M 195.648438 20.179688 L 196.429688 17.398438 L 197.710938 17.398438 C 200.429688 17.398438 202.710938 16.554688 203.710938 14.867188 C 204.054688 14.335938 204.210938 13.773438 204.210938 13.117188 C 204.210938 12.148438 203.773438 11.429688 202.898438 10.867188 C 202.054688 10.335938 200.835938 10.054688 199.304688 10.054688 L 194.304688 10.054688 L 194.210938 10.335938 C 194.585938 10.335938 194.867188 10.367188 195.117188 10.398438 C 195.679688 10.492188 195.960938 11.117188 195.960938 11.742188 C 195.960938 12.085938 195.898438 12.523438 195.742188 13.085938 L 193.585938 21.023438 C 193.398438 21.773438 193.085938 22.679688 192.710938 23.054688 C 192.367188 23.367188 191.804688 23.617188 191.242188 23.617188 L 191.148438 23.898438 L 197.117188 23.898438 L 197.210938 23.617188 C 195.835938 23.617188 195.242188 22.867188 195.242188 22.148438 C 195.242188 21.992188 195.304688 21.617188 195.398438 21.273438 C 195.460938 20.960938 195.523438 20.585938 195.648438 20.179688 Z M 196.523438 16.992188 L 197.773438 12.148438 C 197.992188 11.492188 198.148438 10.710938 198.742188 10.492188 C 198.867188 10.460938 199.085938 10.460938 199.304688 10.460938 C 201.242188 10.460938 202.210938 11.585938 202.210938 13.023438 C 202.210938 13.554688 202.085938 14.023438 201.867188 14.429688 C 201.085938 15.742188 199.460938 16.992188 197.429688 16.992188 Z M 196.523438 16.992188 "/>
<path fill-rule="nonzero" fill="rgb(0%, 0%, 0%)" fill-opacity="1" d="M 212.261719 9.617188 C 209.386719 11.492188 207.355469 14.710938 207.355469 18.773438 C 207.355469 22.492188 209.449219 26.242188 212.199219 27.929688 L 212.449219 27.617188 C 209.824219 25.523438 209.042969 23.117188 209.042969 18.710938 C 209.042969 14.273438 209.886719 11.992188 212.449219 9.929688 Z M 212.261719 9.617188 "/>
<path fill-rule="nonzero" fill="rgb(0%, 0%, 0%)" fill-opacity="1" d="M 222.753906 20.429688 L 222.285156 20.429688 C 222.160156 21.023438 222.035156 21.898438 221.816406 22.210938 C 221.691406 22.367188 220.378906 22.367188 219.941406 22.367188 L 216.347656 22.367188 L 218.472656 20.304688 C 221.566406 17.554688 222.753906 16.492188 222.753906 14.492188 C 222.753906 12.210938 220.972656 10.617188 218.535156 10.617188 C 216.285156 10.617188 214.816406 12.460938 214.816406 14.242188 C 214.816406 15.335938 215.816406 15.335938 215.878906 15.335938 C 216.222656 15.335938 216.910156 15.117188 216.910156 14.273438 C 216.910156 13.773438 216.535156 13.242188 215.847656 13.242188 C 215.691406 13.242188 215.660156 13.242188 215.597656 13.273438 C 216.035156 11.960938 217.128906 11.242188 218.285156 11.242188 C 220.097656 11.242188 220.941406 12.867188 220.941406 14.492188 C 220.941406 16.085938 219.972656 17.648438 218.847656 18.898438 L 215.035156 23.148438 C 214.816406 23.367188 214.816406 23.429688 214.816406 23.898438 L 222.222656 23.898438 Z M 222.753906 20.429688 "/>
<path fill-rule="nonzero" fill="rgb(0%, 0%, 0%)" fill-opacity="1" d="M 224.53125 9.617188 L 224.375 9.929688 C 226.9375 11.992188 227.75 14.273438 227.75 18.710938 C 227.75 23.117188 227 25.523438 224.375 27.617188 L 224.59375 27.929688 C 227.34375 26.242188 229.46875 22.492188 229.46875 18.773438 C 229.46875 14.710938 227.4375 11.492188 224.53125 9.617188 Z M 224.53125 9.617188 "/>
<path fill-rule="nonzero" fill="rgb(0%, 0%, 0%)" fill-opacity="1" d="M 46.34375 86.292969 C 46.34375 83.417969 45.46875 81.105469 43.3125 81.105469 C 41.625 81.105469 39.8125 82.699219 39.8125 83.574219 C 39.8125 84.230469 40.34375 84.511719 40.75 84.511719 C 41.15625 84.511719 41.40625 84.167969 41.46875 84.105469 C 41.40625 84.074219 41.28125 83.886719 41.28125 83.605469 C 41.28125 83.417969 41.625 81.699219 43.34375 81.699219 C 44.78125 81.699219 45.09375 83.542969 45.09375 85.167969 C 45.09375 86.386719 44.9375 87.449219 44.9375 87.480469 L 44.90625 87.480469 C 44.90625 87.449219 44.125 86.230469 42.5625 86.230469 C 38.5625 86.230469 36.90625 90.105469 36.90625 92.167969 C 36.90625 94.011719 38 95.199219 40.21875 95.199219 C 43.65625 95.199219 46.34375 91.730469 46.34375 86.292969 Z M 44.0625 88.542969 C 44.0625 89.074219 43.5625 94.730469 40.34375 94.730469 C 39.21875 94.730469 38.71875 94.074219 38.71875 92.824219 C 38.71875 91.542969 39.53125 86.699219 42.40625 86.699219 C 43.53125 86.699219 44.0625 87.355469 44.0625 88.542969 Z M 44.0625 88.542969 "/>
<path fill-rule="nonzero" fill="rgb(0%, 0%, 0%)" fill-opacity="1" d="M 51.738281 91.167969 L 52.519531 88.386719 L 53.800781 88.386719 C 56.519531 88.386719 58.800781 87.542969 59.800781 85.855469 C 60.144531 85.324219 60.300781 84.761719 60.300781 84.105469 C 60.300781 83.136719 59.863281 82.417969 58.988281 81.855469 C 58.144531 81.324219 56.925781 81.042969 55.394531 81.042969 L 50.394531 81.042969 L 50.300781 81.324219 C 50.675781 81.324219 50.957031 81.355469 51.207031 81.386719 C 51.769531 81.480469 52.050781 82.105469 52.050781 82.730469 C 52.050781 83.074219 51.988281 83.511719 51.832031 84.074219 L 49.675781 92.011719 C 49.488281 92.761719 49.175781 93.667969 48.800781 94.042969 C 48.457031 94.355469 47.894531 94.605469 47.332031 94.605469 L 47.238281 94.886719 L 53.207031 94.886719 L 53.300781 94.605469 C 51.925781 94.605469 51.332031 93.855469 51.332031 93.136719 C 51.332031 92.980469 51.394531 92.605469 51.488281 92.261719 C 51.550781 91.949219 51.613281 91.574219 51.738281 91.167969 Z M 52.613281 87.980469 L 53.863281 83.136719 C 54.082031 82.480469 54.238281 81.699219 54.832031 81.480469 C 54.957031 81.449219 55.175781 81.449219 55.394531 81.449219 C 57.332031 81.449219 58.300781 82.574219 58.300781 84.011719 C 58.300781 84.542969 58.175781 85.011719 57.957031 85.417969 C 57.175781 86.730469 55.550781 87.980469 53.519531 87.980469 Z M 52.613281 87.980469 "/>
<path fill-rule="nonzero" fill="rgb(0%, 0%, 0%)" fill-opacity="1" d="M 68.351562 80.605469 C 65.476562 82.480469 63.445312 85.699219 63.445312 89.761719 C 63.445312 93.480469 65.539062 97.230469 68.289062 98.917969 L 68.539062 98.605469 C 65.914062 96.511719 65.132812 94.105469 65.132812 89.699219 C 65.132812 85.261719 65.976562 82.980469 68.539062 80.917969 Z M 68.351562 80.605469 "/>
<path fill-rule="nonzero" fill="rgb(0%, 0%, 0%)" fill-opacity="1" d="M 78.25 94.886719 L 78.25 94.261719 L 77.625 94.261719 C 75.8125 94.261719 75.78125 94.042969 75.78125 93.324219 L 75.78125 82.136719 C 75.78125 81.636719 75.78125 81.605469 75.3125 81.605469 C 74.0625 82.886719 72.3125 82.886719 71.6875 82.886719 L 71.6875 83.511719 C 72.09375 83.511719 73.25 83.511719 74.28125 82.980469 L 74.28125 93.324219 C 74.28125 94.042969 74.21875 94.261719 72.4375 94.261719 L 71.8125 94.261719 L 71.8125 94.886719 C 72.5 94.824219 74.21875 94.824219 75.03125 94.824219 C 75.8125 94.824219 77.5625 94.824219 78.25 94.886719 Z M 78.25 94.886719 "/>
<path fill-rule="nonzero" fill="rgb(0%, 0%, 0%)" fill-opacity="1" d="M 80.621094 80.605469 L 80.464844 80.917969 C 83.027344 82.980469 83.839844 85.261719 83.839844 89.699219 C 83.839844 94.105469 83.089844 96.511719 80.464844 98.605469 L 80.683594 98.917969 C 83.433594 97.230469 85.558594 93.480469 85.558594 89.761719 C 85.558594 85.699219 83.527344 82.480469 80.621094 80.605469 Z M 80.621094 80.605469 "/>
<path fill-rule="nonzero" fill="rgb(0%, 0%, 0%)" fill-opacity="1" d="M 199.1875 86.292969 C 199.1875 83.417969 198.3125 81.105469 196.15625 81.105469 C 194.46875 81.105469 192.65625 82.699219 192.65625 83.574219 C 192.65625 84.230469 193.1875 84.511719 193.59375 84.511719 C 194 84.511719 194.25 84.167969 194.3125 84.105469 C 194.25 84.074219 194.125 83.886719 194.125 83.605469 C 194.125 83.417969 194.46875 81.699219 196.1875 81.699219 C 197.625 81.699219 197.9375 83.542969 197.9375 85.167969 C 197.9375 86.386719 197.78125 87.449219 197.78125 87.480469 L 197.75 87.480469 C 197.75 87.449219 196.96875 86.230469 195.40625 86.230469 C 191.40625 86.230469 189.75 90.105469 189.75 92.167969 C 189.75 94.011719 190.84375 95.199219 193.0625 95.199219 C 196.5 95.199219 199.1875 91.730469 199.1875 86.292969 Z M 196.90625 88.542969 C 196.90625 89.074219 196.40625 94.730469 193.1875 94.730469 C 192.0625 94.730469 191.5625 94.074219 191.5625 92.824219 C 191.5625 91.542969 192.375 86.699219 195.25 86.699219 C 196.375 86.699219 196.90625 87.355469 196.90625 88.542969 Z M 196.90625 88.542969 "/>
<path fill-rule="nonzero" fill="rgb(0%, 0%, 0%)" fill-opacity="1" d="M 212.703125 94.886719 L 207.140625 81.417969 L 206.796875 81.417969 L 200.859375 94.886719 Z M 210.390625 94.042969 L 202.171875 94.042969 L 206.453125 84.386719 Z M 210.390625 94.042969 "/>
<path fill-rule="nonzero" fill="rgb(0%, 0%, 0%)" fill-opacity="1" d="M 220.546875 84.996094 L 220.046875 84.996094 C 220.015625 85.339844 219.859375 86.183594 219.671875 86.339844 C 219.546875 86.402344 218.421875 86.402344 218.234375 86.402344 L 215.546875 86.402344 C 217.078125 85.058594 217.578125 84.652344 218.453125 83.964844 C 219.546875 83.121094 220.546875 82.214844 220.546875 80.839844 C 220.546875 79.089844 219.015625 77.996094 217.140625 77.996094 C 215.328125 77.996094 214.109375 79.277344 214.109375 80.589844 C 214.109375 81.339844 214.734375 81.433594 214.890625 81.433594 C 215.234375 81.433594 215.671875 81.183594 215.671875 80.652344 C 215.671875 80.402344 215.546875 79.871094 214.796875 79.871094 C 215.265625 78.839844 216.234375 78.527344 216.921875 78.527344 C 218.390625 78.527344 219.140625 79.652344 219.140625 80.839844 C 219.140625 82.089844 218.234375 83.089844 217.765625 83.621094 L 214.265625 87.089844 C 214.109375 87.214844 214.109375 87.246094 214.109375 87.652344 L 220.109375 87.652344 Z M 220.546875 84.996094 "/>
<path fill="none" stroke-width="0.5579" stroke-linecap="butt" stroke-linejoin="miter" stroke="rgb(0%, 0%, 0%)" stroke-opacity="1" stroke-miterlimit="10" d="M 2.007812 17.136282 L 24.960938 17.136282 " transform="matrix(2, 0, 0, -2, 120, 53.046001)"/>
<path fill="none" stroke-width="0.5579" stroke-linecap="round" stroke-linejoin="round" stroke="rgb(0%, 0%, 0%)" stroke-opacity="1" stroke-miterlimit="10" d="M -2.90136 3.345551 C -2.37011 1.337739 -1.190422 0.392426 0.000984192 0.00180149 C -1.190422 -0.388824 -2.37011 -1.338042 -2.90136 -3.345855 " transform="matrix(2, 0, 0, -2, 170.482407, 18.77704)"/>
<path fill-rule="nonzero" fill="rgb(0%, 0%, 0%)" fill-opacity="1" d="M 144.347656 7.421875 C 144.347656 5.609375 142.847656 4.140625 141.003906 4.140625 C 140.191406 4.140625 139.347656 4.453125 138.753906 5.015625 L 138.753906 4.140625 L 136.566406 4.296875 L 136.566406 4.828125 C 137.566406 4.828125 137.660156 4.890625 137.660156 5.515625 L 137.660156 12.203125 C 137.660156 12.828125 137.503906 12.828125 136.566406 12.828125 L 136.566406 13.359375 C 136.566406 13.359375 137.597656 13.296875 138.222656 13.296875 C 138.753906 13.296875 139.753906 13.359375 139.878906 13.359375 L 139.878906 12.828125 C 138.941406 12.828125 138.785156 12.828125 138.785156 12.203125 L 138.785156 9.859375 C 138.878906 9.921875 139.566406 10.703125 140.785156 10.703125 C 142.691406 10.703125 144.347656 9.265625 144.347656 7.421875 Z M 143.003906 7.421875 C 143.003906 9.078125 141.910156 10.296875 140.691406 10.296875 C 139.410156 10.296875 138.847656 9.171875 138.785156 9.078125 L 138.785156 5.703125 C 139.222656 4.984375 140.066406 4.609375 140.847656 4.609375 C 142.066406 4.609375 143.003906 5.890625 143.003906 7.421875 Z M 143.003906 7.421875 "/>
<path fill-rule="nonzero" fill="rgb(0%, 0%, 0%)" fill-opacity="1" d="M 150.929688 5.078125 C 150.929688 4.578125 150.460938 4.140625 149.804688 4.140625 C 149.054688 4.140625 148.273438 4.578125 147.835938 5.703125 L 147.804688 5.703125 L 147.804688 4.140625 L 145.742188 4.296875 L 145.742188 4.828125 C 146.710938 4.828125 146.835938 4.921875 146.835938 5.640625 L 146.835938 9.390625 C 146.835938 10.015625 146.679688 10.015625 145.742188 10.015625 L 145.742188 10.546875 C 145.804688 10.546875 146.804688 10.484375 147.398438 10.484375 L 149.273438 10.546875 L 149.273438 10.015625 L 148.992188 10.015625 C 147.929688 10.015625 147.929688 9.859375 147.929688 9.359375 L 147.929688 7.234375 C 147.929688 6.015625 148.492188 4.546875 149.867188 4.546875 C 149.742188 4.640625 149.617188 4.828125 149.617188 5.078125 C 149.617188 5.546875 149.992188 5.734375 150.273438 5.734375 C 150.617188 5.734375 150.929688 5.515625 150.929688 5.078125 Z M 150.929688 5.078125 "/>
<path fill-rule="nonzero" fill="rgb(0%, 0%, 0%)" fill-opacity="1" d="M 157.050781 13.925781 L 157.050781 13.488281 L 156.582031 13.488281 C 155.457031 13.488281 155.457031 13.363281 155.457031 12.988281 L 155.457031 6.957031 C 155.457031 6.644531 155.425781 6.644531 155.082031 6.644531 C 154.363281 7.332031 153.238281 7.332031 152.832031 7.332031 L 152.832031 7.769531 C 153.144531 7.769531 153.863281 7.769531 154.519531 7.457031 L 154.519531 12.988281 C 154.519531 13.363281 154.519531 13.488281 153.394531 13.488281 L 152.925781 13.488281 L 152.925781 13.925781 C 153.519531 13.894531 154.363281 13.894531 154.988281 13.894531 C 155.613281 13.894531 156.457031 13.894531 157.050781 13.925781 Z M 157.050781 13.925781 "/>
<path fill="none" stroke-width="0.5579" stroke-linecap="butt" stroke-linejoin="miter" stroke="rgb(0%, 0%, 0%)" stroke-opacity="1" stroke-miterlimit="10" d="M -29.097656 8.769094 L -29.097656 -9.465281 " transform="matrix(2, 0, 0, -2, 120, 53.046001)"/>
<path fill="none" stroke-width="0.5579" stroke-linecap="round" stroke-linejoin="round" stroke="rgb(0%, 0%, 0%)" stroke-opacity="1" stroke-miterlimit="10" d="M -2.90266 3.346189 C -2.37141 1.338377 -1.191723 0.389158 -0.00031662 -0.00146675 C -1.191723 -0.392092 -2.37141 -1.337404 -2.90266 -3.349123 " transform="matrix(0, 2, 2, 0, 61.807621, 72.531883)"/>
<path fill-rule="nonzero" fill="rgb(0%, 0%, 0%)" fill-opacity="1" d="M 46.507812 50.375 C 47.195312 50.375 47.070312 51.65625 46.945312 52.21875 C 46.914062 52.5 46.757812 52.84375 46.664062 53.15625 C 46.320312 54.34375 45.257812 56.21875 44.445312 56.21875 C 43.851562 56.21875 43.695312 55.28125 43.695312 54.78125 C 43.695312 54.375 43.726562 53.9375 43.882812 53.5 C 44.257812 52.5 45.289062 50.375 46.507812 50.375 Z M 46.382812 50.09375 C 45.976562 50.09375 45.539062 50.25 45.101562 50.5625 C 44.664062 50.84375 44.257812 51.21875 43.914062 51.65625 C 43.289062 52.40625 42.695312 53.59375 42.695312 54.84375 C 42.695312 55.8125 43.039062 56.5625 43.976562 56.5625 C 45.226562 56.5625 45.695312 55.6875 46.101562 55.03125 C 45.914062 55.9375 46.039062 56.5625 46.664062 56.5625 C 47.007812 56.5625 47.351562 56.40625 47.757812 56.09375 C 48.132812 55.78125 48.507812 55.3125 48.820312 54.75 L 48.632812 54.59375 C 48.382812 55 47.757812 55.9375 47.351562 55.9375 C 47.132812 55.9375 47.070312 55.59375 47.070312 55.375 C 47.070312 54.5 47.664062 53 47.976562 52.03125 L 48.664062 50.21875 L 47.695312 50.21875 L 47.445312 50.875 C 47.257812 50.40625 46.976562 50.09375 46.382812 50.09375 Z M 46.382812 50.09375 "/>
<path fill-rule="nonzero" fill="rgb(0%, 0%, 0%)" fill-opacity="1" d="M 55.296875 55.117188 C 55.296875 54.304688 55.296875 51.335938 52.609375 51.335938 C 49.921875 51.335938 49.921875 54.304688 49.921875 55.117188 C 49.921875 55.898438 49.921875 58.835938 52.609375 58.835938 C 55.296875 58.835938 55.296875 55.898438 55.296875 55.117188 Z M 54.265625 54.960938 C 54.265625 55.679688 54.265625 56.773438 54.078125 57.398438 C 53.765625 58.367188 52.984375 58.492188 52.609375 58.492188 C 52.140625 58.492188 51.390625 58.273438 51.140625 57.367188 C 50.953125 56.742188 50.953125 55.648438 50.953125 54.960938 C 50.953125 54.242188 50.953125 53.398438 51.109375 52.804688 C 51.390625 51.804688 52.234375 51.679688 52.609375 51.679688 C 53.109375 51.679688 53.828125 51.929688 54.078125 52.742188 C 54.234375 53.335938 54.265625 54.117188 54.265625 54.960938 Z M 54.265625 54.960938 "/>
<path fill="none" stroke-width="0.5579" stroke-linecap="butt" stroke-linejoin="miter" stroke="rgb(0%, 0%, 0%)" stroke-opacity="1" stroke-miterlimit="10" d="M 42.859375 8.769094 L 42.859375 -8.207468 " transform="matrix(2, 0, 0, -2, 120, 53.046001)"/>
<path fill="none" stroke-width="0.5579" stroke-linecap="round" stroke-linejoin="round" stroke="rgb(0%, 0%, 0%)" stroke-opacity="1" stroke-miterlimit="10" d="M -2.901924 3.346733 C -2.370674 1.338921 -1.190987 0.389702 0.000419617 -0.000923157 C -1.190987 -0.391548 -2.370674 -1.340767 -2.901924 -3.348579 " transform="matrix(0, 2, 2, 0, 205.720596, 70.022598)"/>
<path fill-rule="nonzero" fill="rgb(0%, 0%, 0%)" fill-opacity="1" d="M 216.507812 48.875 C 216.507812 48.625 216.320312 48.34375 216.039062 48.34375 C 215.726562 48.34375 214.507812 49.5625 214.101562 49.78125 C 214.101562 48.96875 214.507812 48.15625 214.507812 47.6875 C 214.507812 47.375 214.320312 47.1875 214.007812 47.1875 C 213.695312 47.1875 213.539062 47.375 213.539062 47.6875 C 213.539062 48.25 213.882812 49 213.882812 49.78125 C 213.414062 49.53125 212.289062 48.3125 211.976562 48.3125 C 211.726562 48.3125 211.476562 48.53125 211.476562 48.8125 C 211.476562 49.3125 213.195312 49.65625 213.757812 49.96875 C 213.164062 50.34375 212.007812 50.5 211.726562 50.6875 C 211.601562 50.8125 211.476562 50.9375 211.476562 51.125 C 211.476562 51.375 211.664062 51.625 211.945312 51.625 C 212.257812 51.625 213.445312 50.4375 213.882812 50.1875 C 213.882812 51 213.476562 51.8125 213.476562 52.3125 C 213.476562 52.59375 213.695312 52.8125 213.976562 52.8125 C 214.289062 52.8125 214.445312 52.59375 214.445312 52.3125 C 214.445312 51.71875 214.101562 50.96875 214.101562 50.1875 C 214.570312 50.4375 215.726562 51.65625 216.007812 51.65625 C 216.257812 51.65625 216.507812 51.4375 216.507812 51.15625 C 216.507812 50.96875 216.382812 50.84375 216.226562 50.75 C 215.851562 50.5 214.851562 50.34375 214.226562 49.96875 C 214.914062 49.5625 215.820312 49.53125 216.257812 49.28125 C 216.414062 49.1875 216.507812 49.0625 216.507812 48.875 Z M 216.507812 48.875 "/>
<path fill-rule="nonzero" fill="rgb(0%, 0%, 0%)" fill-opacity="1" d="M 223.058594 54.097656 C 223.058594 52.503906 222.558594 51.222656 221.371094 51.222656 C 220.464844 51.222656 219.464844 52.097656 219.464844 52.597656 C 219.464844 52.972656 219.746094 53.097656 219.964844 53.097656 C 220.183594 53.097656 220.339844 52.941406 220.371094 52.878906 C 220.339844 52.847656 220.277344 52.753906 220.277344 52.597656 C 220.277344 52.503906 220.464844 51.566406 221.402344 51.566406 C 222.183594 51.566406 222.371094 52.566406 222.371094 53.472656 C 222.371094 54.128906 222.277344 54.722656 222.277344 54.722656 L 222.246094 54.722656 C 222.246094 54.722656 221.839844 54.066406 220.964844 54.066406 C 218.777344 54.066406 217.871094 56.191406 217.871094 57.316406 C 217.871094 58.347656 218.464844 59.003906 219.683594 59.003906 C 221.558594 59.003906 223.058594 57.066406 223.058594 54.097656 Z M 221.808594 55.316406 C 221.808594 55.628906 221.527344 58.722656 219.746094 58.722656 C 219.121094 58.722656 218.839844 58.378906 218.839844 57.660156 C 218.839844 56.972656 219.308594 54.316406 220.902344 54.316406 C 221.496094 54.316406 221.808594 54.691406 221.808594 55.316406 Z M 221.808594 55.316406 "/>
<path fill-rule="nonzero" fill="rgb(0%, 0%, 0%)" fill-opacity="1" d="M 230.496094 58.816406 L 227.433594 51.410156 L 227.246094 51.410156 L 223.964844 58.816406 Z M 229.214844 58.347656 L 224.714844 58.347656 L 227.058594 53.035156 Z M 229.214844 58.347656 "/>
<path fill-rule="nonzero" fill="rgb(0%, 0%, 0%)" fill-opacity="1" d="M 236.667969 53.585938 L 236.261719 53.585938 C 236.230469 53.742188 236.136719 54.460938 235.949219 54.585938 C 235.886719 54.648438 234.980469 54.648438 234.855469 54.648438 L 232.792969 54.648438 L 234.199219 53.523438 C 234.574219 53.210938 235.542969 52.523438 235.886719 52.179688 C 236.199219 51.867188 236.667969 51.304688 236.667969 50.523438 C 236.667969 49.148438 235.417969 48.367188 233.949219 48.367188 C 232.542969 48.367188 231.542969 49.273438 231.542969 50.304688 C 231.542969 50.867188 232.011719 50.929688 232.136719 50.929688 C 232.417969 50.929688 232.730469 50.742188 232.730469 50.335938 C 232.730469 50.117188 232.605469 49.773438 232.105469 49.773438 C 232.355469 49.210938 233.042969 48.773438 233.792969 48.773438 C 234.949219 48.773438 235.542969 49.648438 235.542969 50.523438 C 235.542969 51.304688 235.042969 52.117188 234.261719 52.804688 L 231.667969 55.179688 C 231.574219 55.304688 231.542969 55.304688 231.542969 55.648438 L 236.324219 55.648438 Z M 236.667969 53.585938 "/>
<g clip-path="url(#clip-0)">
<path fill="none" stroke-width="2.49017" stroke-linecap="butt" stroke-linejoin="miter" stroke="rgb(0%, 0%, 0%)" stroke-opacity="1" stroke-miterlimit="10" d="M -2.371094 -5.176218 L 14.039062 2.917532 " transform="matrix(2, 0, 0, -2, 120, 53.046001)"/>
</g>
<path fill="none" stroke-width="1.37434" stroke-linecap="butt" stroke-linejoin="miter" stroke="rgb(100%, 100%, 100%)" stroke-opacity="1" stroke-miterlimit="10" d="M -2.371094 -5.176218 L 14.039062 2.917532 " transform="matrix(2, 0, 0, -2, 120, 53.046001)"/>
<path fill="none" stroke-width="0.5579" stroke-linecap="round" stroke-linejoin="round" stroke="rgb(0%, 0%, 0%)" stroke-opacity="1" stroke-miterlimit="10" d="M -1.294412 2.559544 C -0.666761 1.209055 1.025537 0.0478805 1.99017 -0.000953893 C 1.026067 -0.0482036 -0.665646 -1.208837 -1.292368 -2.55926 " transform="matrix(1.79368, -0.8845, -0.8845, -1.79368, 148.077866, 47.21172)"/>
<path fill-rule="nonzero" fill="rgb(0%, 0%, 0%)" fill-opacity="1" d="M 142.347656 69.871094 C 143.597656 69.871094 144.285156 68.902344 144.722656 68.183594 L 144.441406 67.996094 C 144.160156 68.402344 143.660156 69.277344 143.160156 69.277344 C 142.878906 69.277344 142.785156 68.902344 142.785156 68.714844 C 142.785156 68.402344 143.910156 65.121094 143.910156 64.683594 C 143.910156 63.902344 143.628906 63.402344 142.847656 63.402344 C 142.503906 63.402344 141.910156 63.527344 141.597656 63.714844 C 141.285156 63.933594 141.003906 64.214844 140.753906 64.558594 L 140.691406 64.714844 L 142.160156 59.058594 L 140.003906 59.183594 L 139.972656 59.402344 C 140.378906 59.402344 140.566406 59.527344 140.691406 59.621094 C 140.878906 59.714844 140.972656 59.933594 140.972656 60.089844 C 140.972656 60.371094 140.878906 60.714844 140.785156 60.964844 L 138.347656 69.746094 L 139.191406 69.746094 C 139.722656 68.089844 140.285156 66.089844 141.066406 64.839844 C 141.378906 64.277344 141.910156 63.746094 142.566406 63.746094 C 143.128906 63.746094 142.972656 64.714844 142.878906 65.152344 C 142.816406 65.371094 142.722656 65.683594 142.566406 66.089844 C 142.066406 67.714844 141.753906 68.464844 141.753906 69.121094 C 141.753906 69.589844 141.910156 69.871094 142.347656 69.871094 Z M 142.347656 69.871094 "/>
<path fill-rule="nonzero" fill="rgb(0%, 0%, 0%)" fill-opacity="1" d="M 150.675781 71.929688 L 150.675781 71.492188 L 150.207031 71.492188 C 149.082031 71.492188 149.082031 71.367188 149.082031 70.992188 L 149.082031 64.960938 C 149.082031 64.648438 149.050781 64.648438 148.707031 64.648438 C 147.988281 65.335938 146.863281 65.335938 146.457031 65.335938 L 146.457031 65.773438 C 146.769531 65.773438 147.488281 65.773438 148.144531 65.460938 L 148.144531 70.992188 C 148.144531 71.367188 148.144531 71.492188 147.019531 71.492188 L 146.550781 71.492188 L 146.550781 71.929688 C 147.144531 71.898438 147.988281 71.898438 148.613281 71.898438 C 149.238281 71.898438 150.082031 71.898438 150.675781 71.929688 Z M 150.675781 71.929688 "/>
<path fill="none" stroke-width="0.5579" stroke-linecap="butt" stroke-linejoin="miter" stroke="rgb(0%, 0%, 0%)" stroke-opacity="1" stroke-miterlimit="10" d="M -11.757812 -18.359812 L 29.425781 -18.359812 " transform="matrix(2, 0, 0, -2, 120, 53.046001)"/>
<path fill="none" stroke-width="0.5579" stroke-linecap="round" stroke-linejoin="round" stroke="rgb(0%, 0%, 0%)" stroke-opacity="1" stroke-miterlimit="10" d="M -2.901405 3.347084 C -2.370155 1.339272 -1.190468 0.390053 0.000938416 -0.000572205 C -1.190468 -0.391197 -2.370155 -1.340416 -2.901405 -3.348228 " transform="matrix(2, 0, 0, -2, 179.412186, 89.764481)"/>
<path fill-rule="nonzero" fill="rgb(0%, 0%, 0%)" fill-opacity="1" d="M 167.324219 76.089844 L 167.324219 76.964844 L 172.417969 76.964844 L 172.417969 71.871094 L 171.542969 71.871094 L 171.542969 76.089844 Z M 167.324219 76.089844 "/>
</svg>
