<?xml version="1.0" encoding="UTF-8"?>
<svg xmlns="http://www.w3.org/2000/svg" xmlns:xlink="http://www.w3.org/1999/xlink" width="322.880005" height="175" viewBox="0 0 322.880005 175">
<defs>
<clipPath id="clip-0">
<path clip-rule="nonzero" d="M 153 0 L 322.882812 0 L 322.882812 134 L 153 134 Z M 153 0 "/>
</clipPath>
</defs>
<path fill-rule="nonzero" fill="rgb(0%, 0%, 0%)" fill-opacity="1" d="M 164.679688 11.980469 L 165.117188 11.324219 L 162.523438 21.230469 C 162.398438 21.699219 162.304688 22.042969 162.148438 22.324219 C 161.992188 22.792969 161.585938 23.292969 161.148438 23.480469 C 160.929688 23.574219 160.617188 23.636719 160.304688 23.636719 L 160.210938 23.917969 L 165.960938 23.917969 L 166.054688 23.636719 C 165.429688 23.636719 164.929688 23.574219 164.679688 23.386719 C 164.398438 23.167969 164.335938 22.730469 164.335938 22.324219 C 164.335938 22.011719 164.398438 21.574219 164.554688 21.042969 L 166.523438 13.574219 C 166.679688 12.949219 166.804688 12.449219 166.929688 12.074219 C 167.148438 11.480469 167.585938 10.824219 168.023438 10.511719 C 168.242188 10.386719 168.523438 10.355469 168.867188 10.355469 L 168.960938 10.074219 L 165.367188 10.074219 L 158.679688 20.792969 L 158.398438 20.792969 L 157.117188 10.074219 L 152.835938 10.074219 L 152.742188 10.355469 C 153.367188 10.355469 153.773438 10.355469 153.992188 10.480469 C 154.273438 10.605469 154.617188 11.105469 154.617188 11.480469 C 154.617188 11.792969 154.554688 12.292969 154.367188 12.949219 L 152.179688 21.230469 C 152.023438 21.855469 151.523438 22.542969 151.054688 22.949219 C 150.617188 23.355469 149.929688 23.636719 149.367188 23.636719 L 149.304688 23.917969 L 154.273438 23.917969 L 154.367188 23.636719 C 153.898438 23.605469 153.367188 23.511719 153.148438 23.199219 C 152.929688 22.886719 152.617188 22.355469 152.617188 21.855469 C 152.617188 21.574219 152.617188 21.292969 152.679688 21.042969 L 155.085938 11.980469 L 155.210938 11.542969 L 156.679688 23.917969 L 157.273438 23.917969 Z M 164.679688 11.980469 "/>
<path fill-rule="nonzero" fill="rgb(0%, 0%, 0%)" fill-opacity="1" d="M 175.25 24.25 L 174.75 24.25 C 174.71875 24.59375 174.5625 25.4375 174.375 25.59375 C 174.25 25.65625 173.125 25.65625 172.9375 25.65625 L 170.25 25.65625 C 171.78125 24.3125 172.28125 23.90625 173.15625 23.21875 C 174.25 22.375 175.25 21.46875 175.25 20.09375 C 175.25 18.34375 173.71875 17.25 171.84375 17.25 C 170.03125 17.25 168.8125 18.53125 168.8125 19.84375 C 168.8125 20.59375 169.4375 20.6875 169.59375 20.6875 C 169.9375 20.6875 170.375 20.4375 170.375 19.90625 C 170.375 19.65625 170.25 19.125 169.5 19.125 C 169.96875 18.09375 170.9375 17.78125 171.625 17.78125 C 173.09375 17.78125 173.84375 18.90625 173.84375 20.09375 C 173.84375 21.34375 172.9375 22.34375 172.46875 22.875 L 168.96875 26.34375 C 168.8125 26.46875 168.8125 26.5 168.8125 26.90625 L 174.8125 26.90625 Z M 175.25 24.25 "/>
<path fill-rule="nonzero" fill="rgb(0%, 0%, 0%)" fill-opacity="1" d="M 193.175781 23.230469 L 188.738281 18.792969 L 193.175781 14.355469 L 192.394531 13.542969 L 187.957031 18.011719 L 183.519531 13.542969 L 182.738281 14.355469 L 187.144531 18.792969 L 182.738281 23.230469 L 183.519531 24.011719 L 187.957031 19.574219 L 192.394531 24.011719 Z M 193.175781 23.230469 "/>
<path fill-rule="nonzero" fill="rgb(0%, 0%, 0%)" fill-opacity="1" d="M 210.359375 20.605469 L 210.046875 20.386719 C 209.046875 21.980469 207.609375 23.667969 205.484375 23.667969 C 203.171875 23.667969 202.015625 21.480469 202.015625 18.511719 C 202.015625 17.449219 202.171875 16.449219 202.453125 15.511719 C 203.109375 13.199219 204.734375 10.292969 207.640625 10.292969 C 209.734375 10.292969 210.671875 12.417969 210.828125 14.574219 L 211.203125 14.574219 L 212.046875 10.074219 L 211.546875 10.074219 L 210.703125 10.949219 C 209.796875 10.292969 208.828125 9.886719 207.453125 9.886719 C 205.140625 9.886719 203.328125 11.136719 202.140625 12.480469 C 201.421875 13.292969 200.859375 14.199219 200.453125 15.230469 C 200.015625 16.261719 199.828125 17.355469 199.828125 18.480469 C 199.828125 19.355469 199.953125 20.136719 200.203125 20.824219 C 200.453125 21.511719 200.796875 22.136719 201.234375 22.574219 C 201.671875 23.074219 202.234375 23.449219 202.890625 23.699219 C 203.515625 23.980469 204.265625 24.105469 205.078125 24.105469 C 207.734375 24.105469 209.171875 22.449219 210.359375 20.605469 Z M 210.359375 20.605469 "/>
<path fill-rule="nonzero" fill="rgb(0%, 0%, 0%)" fill-opacity="1" d="M 218.675781 24.40625 C 218.675781 23.25 217.738281 22.125 216.144531 21.78125 C 217.675781 21.25 218.238281 20.15625 218.238281 19.25 C 218.238281 18.125 216.894531 17.25 215.300781 17.25 C 213.675781 17.25 212.457031 18.03125 212.457031 19.21875 C 212.457031 19.6875 212.769531 19.96875 213.207031 19.96875 C 213.644531 19.96875 213.925781 19.65625 213.925781 19.21875 C 213.925781 18.8125 213.644531 18.5 213.207031 18.46875 C 213.707031 17.84375 214.707031 17.6875 215.238281 17.6875 C 215.894531 17.6875 216.800781 18 216.800781 19.25 C 216.800781 19.875 216.613281 20.53125 216.238281 21 C 215.769531 21.53125 215.363281 21.5625 214.613281 21.625 C 214.269531 21.65625 214.238281 21.65625 214.144531 21.65625 C 214.144531 21.65625 214.019531 21.6875 214.019531 21.84375 C 214.019531 22.0625 214.144531 22.0625 214.394531 22.0625 L 215.175781 22.0625 C 216.300781 22.0625 217.113281 22.84375 217.113281 24.40625 C 217.113281 26.1875 216.082031 26.71875 215.238281 26.71875 C 214.644531 26.71875 213.363281 26.5625 212.769531 25.71875 C 213.457031 25.6875 213.613281 25.21875 213.613281 24.90625 C 213.613281 24.4375 213.269531 24.09375 212.800781 24.09375 C 212.394531 24.09375 211.988281 24.34375 211.988281 24.9375 C 211.988281 26.3125 213.488281 27.1875 215.269531 27.1875 C 217.269531 27.1875 218.675781 25.84375 218.675781 24.40625 Z M 218.675781 24.40625 "/>
<path fill-rule="nonzero" fill="rgb(0%, 0%, 0%)" fill-opacity="1" d="M 300.386719 11.980469 L 300.824219 11.324219 L 298.230469 21.230469 C 298.105469 21.699219 298.011719 22.042969 297.855469 22.324219 C 297.699219 22.792969 297.292969 23.292969 296.855469 23.480469 C 296.636719 23.574219 296.324219 23.636719 296.011719 23.636719 L 295.917969 23.917969 L 301.667969 23.917969 L 301.761719 23.636719 C 301.136719 23.636719 300.636719 23.574219 300.386719 23.386719 C 300.105469 23.167969 300.042969 22.730469 300.042969 22.324219 C 300.042969 22.011719 300.105469 21.574219 300.261719 21.042969 L 302.230469 13.574219 C 302.386719 12.949219 302.511719 12.449219 302.636719 12.074219 C 302.855469 11.480469 303.292969 10.824219 303.730469 10.511719 C 303.949219 10.386719 304.230469 10.355469 304.574219 10.355469 L 304.667969 10.074219 L 301.074219 10.074219 L 294.386719 20.792969 L 294.105469 20.792969 L 292.824219 10.074219 L 288.542969 10.074219 L 288.449219 10.355469 C 289.074219 10.355469 289.480469 10.355469 289.699219 10.480469 C 289.980469 10.605469 290.324219 11.105469 290.324219 11.480469 C 290.324219 11.792969 290.261719 12.292969 290.074219 12.949219 L 287.886719 21.230469 C 287.730469 21.855469 287.230469 22.542969 286.761719 22.949219 C 286.324219 23.355469 285.636719 23.636719 285.074219 23.636719 L 285.011719 23.917969 L 289.980469 23.917969 L 290.074219 23.636719 C 289.605469 23.605469 289.074219 23.511719 288.855469 23.199219 C 288.636719 22.886719 288.324219 22.355469 288.324219 21.855469 C 288.324219 21.574219 288.324219 21.292969 288.386719 21.042969 L 290.792969 11.980469 L 290.917969 11.542969 L 292.386719 23.917969 L 292.980469 23.917969 Z M 300.386719 11.980469 "/>
<path fill-rule="nonzero" fill="rgb(0%, 0%, 0%)" fill-opacity="1" d="M 310.957031 24.25 L 310.457031 24.25 C 310.425781 24.59375 310.269531 25.4375 310.082031 25.59375 C 309.957031 25.65625 308.832031 25.65625 308.644531 25.65625 L 305.957031 25.65625 C 307.488281 24.3125 307.988281 23.90625 308.863281 23.21875 C 309.957031 22.375 310.957031 21.46875 310.957031 20.09375 C 310.957031 18.34375 309.425781 17.25 307.550781 17.25 C 305.738281 17.25 304.519531 18.53125 304.519531 19.84375 C 304.519531 20.59375 305.144531 20.6875 305.300781 20.6875 C 305.644531 20.6875 306.082031 20.4375 306.082031 19.90625 C 306.082031 19.65625 305.957031 19.125 305.207031 19.125 C 305.675781 18.09375 306.644531 17.78125 307.332031 17.78125 C 308.800781 17.78125 309.550781 18.90625 309.550781 20.09375 C 309.550781 21.34375 308.644531 22.34375 308.175781 22.875 L 304.675781 26.34375 C 304.519531 26.46875 304.519531 26.5 304.519531 26.90625 L 310.519531 26.90625 Z M 310.957031 24.25 "/>
<path fill-rule="nonzero" fill="rgb(0%, 0%, 0%)" fill-opacity="1" d="M 23.492188 79.339844 L 23.929688 78.683594 L 21.335938 88.589844 C 21.210938 89.058594 21.117188 89.402344 20.960938 89.683594 C 20.804688 90.152344 20.398438 90.652344 19.960938 90.839844 C 19.742188 90.933594 19.429688 90.996094 19.117188 90.996094 L 19.023438 91.277344 L 24.773438 91.277344 L 24.867188 90.996094 C 24.242188 90.996094 23.742188 90.933594 23.492188 90.746094 C 23.210938 90.527344 23.148438 90.089844 23.148438 89.683594 C 23.148438 89.371094 23.210938 88.933594 23.367188 88.402344 L 25.335938 80.933594 C 25.492188 80.308594 25.617188 79.808594 25.742188 79.433594 C 25.960938 78.839844 26.398438 78.183594 26.835938 77.871094 C 27.054688 77.746094 27.335938 77.714844 27.679688 77.714844 L 27.773438 77.433594 L 24.179688 77.433594 L 17.492188 88.152344 L 17.210938 88.152344 L 15.929688 77.433594 L 11.648438 77.433594 L 11.554688 77.714844 C 12.179688 77.714844 12.585938 77.714844 12.804688 77.839844 C 13.085938 77.964844 13.429688 78.464844 13.429688 78.839844 C 13.429688 79.152344 13.367188 79.652344 13.179688 80.308594 L 10.992188 88.589844 C 10.835938 89.214844 10.335938 89.902344 9.867188 90.308594 C 9.429688 90.714844 8.742188 90.996094 8.179688 90.996094 L 8.117188 91.277344 L 13.085938 91.277344 L 13.179688 90.996094 C 12.710938 90.964844 12.179688 90.871094 11.960938 90.558594 C 11.742188 90.246094 11.429688 89.714844 11.429688 89.214844 C 11.429688 88.933594 11.429688 88.652344 11.492188 88.402344 L 13.898438 79.339844 L 14.023438 78.902344 L 15.492188 91.277344 L 16.085938 91.277344 Z M 23.492188 79.339844 "/>
<path fill-rule="nonzero" fill="rgb(0%, 0%, 0%)" fill-opacity="1" d="M 34.21875 89.644531 C 34.21875 88.050781 34.03125 86.894531 33.375 85.863281 C 32.90625 85.207031 32 84.613281 30.84375 84.613281 C 27.46875 84.613281 27.46875 88.582031 27.46875 89.644531 C 27.46875 90.675781 27.46875 94.550781 30.84375 94.550781 C 34.21875 94.550781 34.21875 90.675781 34.21875 89.644531 Z M 32.90625 89.457031 C 32.90625 90.519531 32.90625 91.582031 32.71875 92.519531 C 32.40625 93.832031 31.4375 94.144531 30.84375 94.144531 C 30.1875 94.144531 29.28125 93.769531 29 92.582031 C 28.78125 91.707031 28.78125 90.519531 28.78125 89.457031 C 28.78125 88.394531 28.78125 87.269531 29 86.488281 C 29.3125 85.332031 30.25 85.019531 30.84375 85.019531 C 31.625 85.019531 32.375 85.519531 32.65625 86.363281 C 32.875 87.144531 32.90625 88.175781 32.90625 89.457031 Z M 32.90625 89.457031 "/>
<path fill-rule="nonzero" fill="rgb(0%, 0%, 0%)" fill-opacity="1" d="M 52.53125 84.683594 L 52.53125 83.589844 L 42.34375 83.589844 L 42.34375 84.683594 Z M 52.53125 88.746094 L 52.53125 87.621094 L 42.34375 87.621094 L 42.34375 88.746094 Z M 52.53125 88.746094 "/>
<path fill-rule="nonzero" fill="rgb(0%, 0%, 0%)" fill-opacity="1" d="M 74.519531 91.277344 L 74.519531 78.089844 L 71.613281 78.089844 L 67.425781 89.746094 L 67.363281 89.746094 L 63.363281 78.089844 L 60.269531 78.089844 L 60.269531 91.277344 L 61.144531 91.277344 L 61.144531 81.933594 L 61.175781 81.933594 L 64.425781 91.277344 L 67.800781 91.277344 L 71.175781 81.871094 L 71.207031 81.871094 L 71.207031 91.277344 Z M 73.644531 90.402344 L 72.082031 90.402344 L 72.082031 78.964844 L 73.644531 78.964844 Z M 66.707031 90.402344 L 65.050781 90.402344 L 61.488281 80.183594 L 61.082031 78.964844 L 62.675781 78.964844 Z M 66.707031 90.402344 "/>
<path fill-rule="nonzero" fill="rgb(0%, 0%, 0%)" fill-opacity="1" d="M 83 89.644531 C 83 88.050781 82.8125 86.894531 82.15625 85.863281 C 81.6875 85.207031 80.78125 84.613281 79.625 84.613281 C 76.25 84.613281 76.25 88.582031 76.25 89.644531 C 76.25 90.675781 76.25 94.550781 79.625 94.550781 C 83 94.550781 83 90.675781 83 89.644531 Z M 81.6875 89.457031 C 81.6875 90.519531 81.6875 91.582031 81.5 92.519531 C 81.1875 93.832031 80.21875 94.144531 79.625 94.144531 C 78.96875 94.144531 78.0625 93.769531 77.78125 92.582031 C 77.5625 91.707031 77.5625 90.519531 77.5625 89.457031 C 77.5625 88.394531 77.5625 87.269531 77.78125 86.488281 C 78.09375 85.332031 79.03125 85.019531 79.625 85.019531 C 80.40625 85.019531 81.15625 85.519531 81.4375 86.363281 C 81.65625 87.144531 81.6875 88.175781 81.6875 89.457031 Z M 81.6875 89.457031 "/>
<path fill-rule="nonzero" fill="rgb(0%, 0%, 0%)" fill-opacity="1" d="M 187.828125 91.277344 L 187.828125 78.089844 L 184.921875 78.089844 L 180.734375 89.746094 L 180.671875 89.746094 L 176.671875 78.089844 L 173.578125 78.089844 L 173.578125 91.277344 L 174.453125 91.277344 L 174.453125 81.933594 L 174.484375 81.933594 L 177.734375 91.277344 L 181.109375 91.277344 L 184.484375 81.871094 L 184.515625 81.871094 L 184.515625 91.277344 Z M 186.953125 90.402344 L 185.390625 90.402344 L 185.390625 78.964844 L 186.953125 78.964844 Z M 180.015625 90.402344 L 178.359375 90.402344 L 174.796875 80.183594 L 174.390625 78.964844 L 175.984375 78.964844 Z M 180.015625 90.402344 "/>
<path fill-rule="nonzero" fill="rgb(0%, 0%, 0%)" fill-opacity="1" d="M 195.683594 94.269531 L 195.683594 93.738281 L 195.121094 93.738281 C 193.683594 93.738281 193.683594 93.550781 193.683594 93.082031 L 193.683594 85.019531 C 193.683594 84.644531 193.652344 84.613281 193.246094 84.613281 C 192.308594 85.550781 190.996094 85.550781 190.402344 85.550781 L 190.402344 86.082031 C 190.746094 86.082031 191.714844 86.082031 192.496094 85.675781 L 192.496094 93.082031 C 192.496094 93.550781 192.496094 93.738281 191.058594 93.738281 L 190.496094 93.738281 L 190.496094 94.269531 L 193.089844 94.207031 Z M 195.683594 94.269531 "/>
<path fill-rule="nonzero" fill="rgb(0%, 0%, 0%)" fill-opacity="1" d="M 301.886719 91.277344 L 301.886719 78.089844 L 298.980469 78.089844 L 294.792969 89.746094 L 294.730469 89.746094 L 290.730469 78.089844 L 287.636719 78.089844 L 287.636719 91.277344 L 288.511719 91.277344 L 288.511719 81.933594 L 288.542969 81.933594 L 291.792969 91.277344 L 295.167969 91.277344 L 298.542969 81.871094 L 298.574219 81.871094 L 298.574219 91.277344 Z M 301.011719 90.402344 L 299.449219 90.402344 L 299.449219 78.964844 L 301.011719 78.964844 Z M 294.074219 90.402344 L 292.417969 90.402344 L 288.855469 80.183594 L 288.449219 78.964844 L 290.042969 78.964844 Z M 294.074219 90.402344 "/>
<path fill-rule="nonzero" fill="rgb(0%, 0%, 0%)" fill-opacity="1" d="M 310.210938 91.613281 L 309.710938 91.613281 C 309.679688 91.957031 309.523438 92.800781 309.335938 92.957031 C 309.210938 93.019531 308.085938 93.019531 307.898438 93.019531 L 305.210938 93.019531 C 306.742188 91.675781 307.242188 91.269531 308.117188 90.582031 C 309.210938 89.738281 310.210938 88.832031 310.210938 87.457031 C 310.210938 85.707031 308.679688 84.613281 306.804688 84.613281 C 304.992188 84.613281 303.773438 85.894531 303.773438 87.207031 C 303.773438 87.957031 304.398438 88.050781 304.554688 88.050781 C 304.898438 88.050781 305.335938 87.800781 305.335938 87.269531 C 305.335938 87.019531 305.210938 86.488281 304.460938 86.488281 C 304.929688 85.457031 305.898438 85.144531 306.585938 85.144531 C 308.054688 85.144531 308.804688 86.269531 308.804688 87.457031 C 308.804688 88.707031 307.898438 89.707031 307.429688 90.238281 L 303.929688 93.707031 C 303.773438 93.832031 303.773438 93.863281 303.773438 94.269531 L 309.773438 94.269531 Z M 310.210938 91.613281 "/>
<path fill-rule="nonzero" fill="rgb(0%, 0%, 0%)" fill-opacity="1" d="M 26.660156 149.402344 L 27.097656 148.746094 L 24.503906 158.652344 C 24.378906 159.121094 24.285156 159.464844 24.128906 159.746094 C 23.972656 160.214844 23.566406 160.714844 23.128906 160.902344 C 22.910156 160.996094 22.597656 161.058594 22.285156 161.058594 L 22.191406 161.339844 L 27.941406 161.339844 L 28.035156 161.058594 C 27.410156 161.058594 26.910156 160.996094 26.660156 160.808594 C 26.378906 160.589844 26.316406 160.152344 26.316406 159.746094 C 26.316406 159.433594 26.378906 158.996094 26.535156 158.464844 L 28.503906 150.996094 C 28.660156 150.371094 28.785156 149.871094 28.910156 149.496094 C 29.128906 148.902344 29.566406 148.246094 30.003906 147.933594 C 30.222656 147.808594 30.503906 147.777344 30.847656 147.777344 L 30.941406 147.496094 L 27.347656 147.496094 L 20.660156 158.214844 L 20.378906 158.214844 L 19.097656 147.496094 L 14.816406 147.496094 L 14.722656 147.777344 C 15.347656 147.777344 15.753906 147.777344 15.972656 147.902344 C 16.253906 148.027344 16.597656 148.527344 16.597656 148.902344 C 16.597656 149.214844 16.535156 149.714844 16.347656 150.371094 L 14.160156 158.652344 C 14.003906 159.277344 13.503906 159.964844 13.035156 160.371094 C 12.597656 160.777344 11.910156 161.058594 11.347656 161.058594 L 11.285156 161.339844 L 16.253906 161.339844 L 16.347656 161.058594 C 15.878906 161.027344 15.347656 160.933594 15.128906 160.621094 C 14.910156 160.308594 14.597656 159.777344 14.597656 159.277344 C 14.597656 158.996094 14.597656 158.714844 14.660156 158.464844 L 17.066406 149.402344 L 17.191406 148.964844 L 18.660156 161.339844 L 19.253906 161.339844 Z M 26.660156 149.402344 "/>
<path fill-rule="nonzero" fill="rgb(0%, 0%, 0%)" fill-opacity="1" d="M 36.761719 164.328125 L 36.761719 163.796875 L 36.199219 163.796875 C 34.761719 163.796875 34.761719 163.609375 34.761719 163.140625 L 34.761719 155.078125 C 34.761719 154.703125 34.730469 154.671875 34.324219 154.671875 C 33.386719 155.609375 32.074219 155.609375 31.480469 155.609375 L 31.480469 156.140625 C 31.824219 156.140625 32.792969 156.140625 33.574219 155.734375 L 33.574219 163.140625 C 33.574219 163.609375 33.574219 163.796875 32.136719 163.796875 L 31.574219 163.796875 L 31.574219 164.328125 L 34.167969 164.265625 Z M 36.761719 164.328125 "/>
<path fill-rule="nonzero" fill="rgb(0%, 0%, 0%)" fill-opacity="1" d="M 55.15625 160.652344 L 50.71875 156.214844 L 55.15625 151.777344 L 54.375 150.964844 L 49.9375 155.433594 L 45.5 150.964844 L 44.71875 151.777344 L 49.125 156.214844 L 44.71875 160.652344 L 45.5 161.433594 L 49.9375 156.996094 L 54.375 161.433594 Z M 55.15625 160.652344 "/>
<path fill-rule="nonzero" fill="rgb(0%, 0%, 0%)" fill-opacity="1" d="M 70.8125 147.777344 L 70.28125 148.496094 C 69.875 148.089844 69.4375 147.777344 69 147.589844 C 68.53125 147.371094 68.03125 147.308594 67.46875 147.308594 C 66.875 147.308594 66.34375 147.402344 65.8125 147.589844 C 65.3125 147.808594 64.84375 148.058594 64.46875 148.402344 C 64.09375 148.746094 63.78125 149.152344 63.53125 149.589844 C 63.3125 150.058594 63.21875 150.527344 63.21875 151.058594 C 63.21875 151.621094 63.34375 152.089844 63.59375 152.527344 C 63.875 152.933594 64.15625 153.339844 64.53125 153.652344 C 64.90625 154.027344 65.3125 154.371094 65.75 154.683594 C 66.21875 154.964844 66.59375 155.308594 66.96875 155.652344 C 67.34375 155.996094 67.65625 156.339844 67.90625 156.746094 C 68.15625 157.121094 68.28125 157.558594 68.28125 158.058594 C 68.28125 159.652344 67.40625 161.089844 65.34375 161.089844 C 63.25 161.089844 62.21875 158.902344 62.0625 156.777344 L 61.625 156.777344 L 60.875 161.339844 L 61.3125 161.339844 L 61.875 159.964844 C 62.875 160.996094 64 161.527344 65.3125 161.527344 C 65.96875 161.527344 66.5625 161.433594 67.125 161.183594 C 67.65625 160.933594 68.15625 160.652344 68.5625 160.246094 C 69 159.839844 69.3125 159.371094 69.53125 158.839844 C 69.78125 158.308594 69.90625 157.746094 69.90625 157.121094 C 69.90625 156.527344 69.78125 155.964844 69.53125 155.527344 C 69.3125 155.058594 69 154.652344 68.625 154.308594 C 68.28125 153.933594 67.875 153.589844 67.4375 153.308594 C 67 152.996094 66.625 152.714844 66.25 152.402344 C 65.875 152.121094 65.59375 151.808594 65.34375 151.464844 C 65.09375 151.121094 64.96875 150.777344 64.96875 150.339844 C 64.96875 148.964844 65.46875 147.714844 67.53125 147.714844 C 69.25 147.714844 69.9375 149.464844 70 151.277344 L 70.4375 151.277344 L 71.1875 147.777344 Z M 70.8125 147.777344 "/>
<path fill-rule="nonzero" fill="rgb(0%, 0%, 0%)" fill-opacity="1" d="M 79.828125 149.480469 C 79.828125 147.886719 79.640625 146.730469 78.984375 145.699219 C 78.515625 145.042969 77.609375 144.449219 76.453125 144.449219 C 73.078125 144.449219 73.078125 148.417969 73.078125 149.480469 C 73.078125 150.511719 73.078125 154.386719 76.453125 154.386719 C 79.828125 154.386719 79.828125 150.511719 79.828125 149.480469 Z M 78.515625 149.292969 C 78.515625 150.355469 78.515625 151.417969 78.328125 152.355469 C 78.015625 153.667969 77.046875 153.980469 76.453125 153.980469 C 75.796875 153.980469 74.890625 153.605469 74.609375 152.417969 C 74.390625 151.542969 74.390625 150.355469 74.390625 149.292969 C 74.390625 148.230469 74.390625 147.105469 74.609375 146.324219 C 74.921875 145.167969 75.859375 144.855469 76.453125 144.855469 C 77.234375 144.855469 77.984375 145.355469 78.265625 146.199219 C 78.484375 146.980469 78.515625 148.011719 78.515625 149.292969 Z M 78.515625 149.292969 "/>
<path fill-rule="nonzero" fill="rgb(0%, 0%, 0%)" fill-opacity="1" d="M 186.332031 149.402344 L 186.769531 148.746094 L 184.175781 158.652344 C 184.050781 159.121094 183.957031 159.464844 183.800781 159.746094 C 183.644531 160.214844 183.238281 160.714844 182.800781 160.902344 C 182.582031 160.996094 182.269531 161.058594 181.957031 161.058594 L 181.863281 161.339844 L 187.613281 161.339844 L 187.707031 161.058594 C 187.082031 161.058594 186.582031 160.996094 186.332031 160.808594 C 186.050781 160.589844 185.988281 160.152344 185.988281 159.746094 C 185.988281 159.433594 186.050781 158.996094 186.207031 158.464844 L 188.175781 150.996094 C 188.332031 150.371094 188.457031 149.871094 188.582031 149.496094 C 188.800781 148.902344 189.238281 148.246094 189.675781 147.933594 C 189.894531 147.808594 190.175781 147.777344 190.519531 147.777344 L 190.613281 147.496094 L 187.019531 147.496094 L 180.332031 158.214844 L 180.050781 158.214844 L 178.769531 147.496094 L 174.488281 147.496094 L 174.394531 147.777344 C 175.019531 147.777344 175.425781 147.777344 175.644531 147.902344 C 175.925781 148.027344 176.269531 148.527344 176.269531 148.902344 C 176.269531 149.214844 176.207031 149.714844 176.019531 150.371094 L 173.832031 158.652344 C 173.675781 159.277344 173.175781 159.964844 172.707031 160.371094 C 172.269531 160.777344 171.582031 161.058594 171.019531 161.058594 L 170.957031 161.339844 L 175.925781 161.339844 L 176.019531 161.058594 C 175.550781 161.027344 175.019531 160.933594 174.800781 160.621094 C 174.582031 160.308594 174.269531 159.777344 174.269531 159.277344 C 174.269531 158.996094 174.269531 158.714844 174.332031 158.464844 L 176.738281 149.402344 L 176.863281 148.964844 L 178.332031 161.339844 L 178.925781 161.339844 Z M 186.332031 149.402344 "/>
<path fill-rule="nonzero" fill="rgb(0%, 0%, 0%)" fill-opacity="1" d="M 196.429688 164.328125 L 196.429688 163.796875 L 195.867188 163.796875 C 194.429688 163.796875 194.429688 163.609375 194.429688 163.140625 L 194.429688 155.078125 C 194.429688 154.703125 194.398438 154.671875 193.992188 154.671875 C 193.054688 155.609375 191.742188 155.609375 191.148438 155.609375 L 191.148438 156.140625 C 191.492188 156.140625 192.460938 156.140625 193.242188 155.734375 L 193.242188 163.140625 C 193.242188 163.609375 193.242188 163.796875 191.804688 163.796875 L 191.242188 163.796875 L 191.242188 164.328125 L 193.835938 164.265625 Z M 196.429688 164.328125 "/>
<path fill="none" stroke-width="0.5579" stroke-linecap="butt" stroke-linejoin="miter" stroke="rgb(0%, 0%, 0%)" stroke-opacity="1" stroke-miterlimit="10" d="M 34.368279 34.184563 L 57.321404 34.184563 " transform="matrix(2, 0, 0, -2, 160.740005, 87.166)"/>
<path fill="none" stroke-width="0.5579" stroke-linecap="round" stroke-linejoin="round" stroke="rgb(0%, 0%, 0%)" stroke-opacity="1" stroke-miterlimit="10" d="M -2.899445 3.345798 C -2.372101 1.337986 -1.188507 0.388767 -0.00100708 -0.00185776 C -1.188507 -0.392483 -2.372101 -1.337795 -2.899445 -3.345608 " transform="matrix(2, 0, 0, -2, 275.939514, 18.793159)"/>
<path fill-rule="nonzero" fill="rgb(0%, 0%, 0%)" fill-opacity="1" d="M 249.804688 7.441406 C 249.804688 5.628906 248.304688 4.160156 246.460938 4.160156 C 245.648438 4.160156 244.804688 4.472656 244.210938 5.035156 L 244.210938 4.160156 L 242.023438 4.316406 L 242.023438 4.847656 C 243.023438 4.847656 243.117188 4.910156 243.117188 5.535156 L 243.117188 12.222656 C 243.117188 12.847656 242.960938 12.847656 242.023438 12.847656 L 242.023438 13.378906 C 242.023438 13.378906 243.054688 13.316406 243.679688 13.316406 C 244.210938 13.316406 245.210938 13.378906 245.335938 13.378906 L 245.335938 12.847656 C 244.398438 12.847656 244.242188 12.847656 244.242188 12.222656 L 244.242188 9.878906 C 244.335938 9.941406 245.023438 10.722656 246.242188 10.722656 C 248.148438 10.722656 249.804688 9.285156 249.804688 7.441406 Z M 248.460938 7.441406 C 248.460938 9.097656 247.367188 10.316406 246.148438 10.316406 C 244.867188 10.316406 244.304688 9.191406 244.242188 9.097656 L 244.242188 5.722656 C 244.679688 5.003906 245.523438 4.628906 246.304688 4.628906 C 247.523438 4.628906 248.460938 5.910156 248.460938 7.441406 Z M 248.460938 7.441406 "/>
<path fill-rule="nonzero" fill="rgb(0%, 0%, 0%)" fill-opacity="1" d="M 256.386719 5.097656 C 256.386719 4.597656 255.917969 4.160156 255.261719 4.160156 C 254.511719 4.160156 253.730469 4.597656 253.292969 5.722656 L 253.261719 5.722656 L 253.261719 4.160156 L 251.199219 4.316406 L 251.199219 4.847656 C 252.167969 4.847656 252.292969 4.941406 252.292969 5.660156 L 252.292969 9.410156 C 252.292969 10.035156 252.136719 10.035156 251.199219 10.035156 L 251.199219 10.566406 C 251.261719 10.566406 252.261719 10.503906 252.855469 10.503906 L 254.730469 10.566406 L 254.730469 10.035156 L 254.449219 10.035156 C 253.386719 10.035156 253.386719 9.878906 253.386719 9.378906 L 253.386719 7.253906 C 253.386719 6.035156 253.949219 4.566406 255.324219 4.566406 C 255.199219 4.660156 255.074219 4.847656 255.074219 5.097656 C 255.074219 5.566406 255.449219 5.753906 255.730469 5.753906 C 256.074219 5.753906 256.386719 5.535156 256.386719 5.097656 Z M 256.386719 5.097656 "/>
<path fill-rule="nonzero" fill="rgb(0%, 0%, 0%)" fill-opacity="1" d="M 262.507812 13.941406 L 262.507812 13.503906 L 262.039062 13.503906 C 260.914062 13.503906 260.914062 13.378906 260.914062 13.003906 L 260.914062 6.972656 C 260.914062 6.660156 260.882812 6.660156 260.539062 6.660156 C 259.820312 7.347656 258.695312 7.347656 258.289062 7.347656 L 258.289062 7.785156 C 258.601562 7.785156 259.320312 7.785156 259.976562 7.472656 L 259.976562 13.003906 C 259.976562 13.378906 259.976562 13.503906 258.851562 13.503906 L 258.382812 13.503906 L 258.382812 13.941406 C 258.976562 13.910156 259.820312 13.910156 260.445312 13.910156 C 261.070312 13.910156 261.914062 13.910156 262.507812 13.941406 Z M 262.507812 13.941406 "/>
<path fill="none" stroke-width="0.5579" stroke-linecap="butt" stroke-linejoin="miter" stroke="rgb(0%, 0%, 0%)" stroke-opacity="1" stroke-miterlimit="10" d="M 12.196404 26.282219 L 12.196404 8.887688 " transform="matrix(2, 0, 0, -2, 160.740005, 87.166)"/>
<path fill="none" stroke-width="0.5579" stroke-linecap="round" stroke-linejoin="round" stroke="rgb(0%, 0%, 0%)" stroke-opacity="1" stroke-miterlimit="10" d="M -2.900322 3.348534 C -2.372978 1.340721 -1.189384 0.391502 -0.00188446 0.00087738 C -1.189384 -0.389748 -2.372978 -1.338966 -2.900322 -3.346779 " transform="matrix(0, 2, 2, 0, 185.131058, 69.949081)"/>
<path fill-rule="nonzero" fill="rgb(0%, 0%, 0%)" fill-opacity="1" d="M 173.167969 50.289062 C 173.167969 48.195312 172.511719 46.476562 170.949219 46.476562 C 169.730469 46.476562 168.417969 47.632812 168.417969 48.289062 C 168.417969 48.789062 168.792969 48.976562 169.074219 48.976562 C 169.386719 48.976562 169.574219 48.726562 169.605469 48.695312 C 169.542969 48.664062 169.480469 48.507812 169.480469 48.320312 C 169.480469 48.195312 169.730469 46.914062 170.980469 46.914062 C 172.042969 46.914062 172.261719 48.257812 172.261719 49.445312 C 172.261719 50.320312 172.136719 51.132812 172.136719 51.132812 L 172.105469 51.132812 C 172.105469 51.132812 171.542969 50.226562 170.386719 50.226562 C 167.480469 50.226562 166.292969 53.039062 166.292969 54.539062 C 166.292969 55.914062 167.074219 56.757812 168.699219 56.757812 C 171.199219 56.757812 173.167969 54.226562 173.167969 50.289062 Z M 171.511719 51.914062 C 171.511719 52.289062 171.136719 56.414062 168.792969 56.414062 C 167.980469 56.414062 167.605469 55.945312 167.605469 55.039062 C 167.605469 54.101562 168.199219 50.570312 170.292969 50.570312 C 171.105469 50.570312 171.511719 51.070312 171.511719 51.914062 Z M 171.511719 51.914062 "/>
<path fill-rule="nonzero" fill="rgb(0%, 0%, 0%)" fill-opacity="1" d="M 178.117188 58.722656 L 178.117188 58.285156 L 177.648438 58.285156 C 176.523438 58.285156 176.523438 58.160156 176.523438 57.785156 L 176.523438 51.753906 C 176.523438 51.441406 176.492188 51.441406 176.148438 51.441406 C 175.429688 52.128906 174.304688 52.128906 173.898438 52.128906 L 173.898438 52.566406 C 174.210938 52.566406 174.929688 52.566406 175.585938 52.253906 L 175.585938 57.785156 C 175.585938 58.160156 175.585938 58.285156 174.460938 58.285156 L 173.992188 58.285156 L 173.992188 58.722656 C 174.585938 58.691406 175.429688 58.691406 176.054688 58.691406 C 176.679688 58.691406 177.523438 58.691406 178.117188 58.722656 Z M 178.117188 58.722656 "/>
<path fill="none" stroke-width="0.5579" stroke-linecap="butt" stroke-linejoin="miter" stroke="rgb(0%, 0%, 0%)" stroke-opacity="1" stroke-miterlimit="10" d="M 69.223747 26.282219 L 69.223747 8.887688 " transform="matrix(2, 0, 0, -2, 160.740005, 87.166)"/>
<path fill="none" stroke-width="0.5579" stroke-linecap="round" stroke-linejoin="round" stroke="rgb(0%, 0%, 0%)" stroke-opacity="1" stroke-miterlimit="10" d="M -2.900322 3.34671 C -2.372978 1.338898 -1.189384 0.389679 -0.00188446 -0.000946045 C -1.189384 -0.391571 -2.372978 -1.34079 -2.900322 -3.348602 " transform="matrix(0, 2, 2, 0, 299.189392, 69.949081)"/>
<path fill-rule="nonzero" fill="rgb(0%, 0%, 0%)" fill-opacity="1" d="M 309.980469 49.929688 C 309.980469 49.679688 309.792969 49.398438 309.511719 49.398438 C 309.199219 49.398438 307.980469 50.617188 307.574219 50.835938 C 307.574219 50.023438 307.980469 49.210938 307.980469 48.742188 C 307.980469 48.429688 307.792969 48.242188 307.480469 48.242188 C 307.167969 48.242188 307.011719 48.429688 307.011719 48.742188 C 307.011719 49.304688 307.355469 50.054688 307.355469 50.835938 C 306.886719 50.585938 305.761719 49.367188 305.449219 49.367188 C 305.199219 49.367188 304.949219 49.585938 304.949219 49.867188 C 304.949219 50.367188 306.667969 50.710938 307.230469 51.023438 C 306.636719 51.398438 305.480469 51.554688 305.199219 51.742188 C 305.074219 51.867188 304.949219 51.992188 304.949219 52.179688 C 304.949219 52.429688 305.136719 52.679688 305.417969 52.679688 C 305.730469 52.679688 306.917969 51.492188 307.355469 51.242188 C 307.355469 52.054688 306.949219 52.867188 306.949219 53.367188 C 306.949219 53.648438 307.167969 53.867188 307.449219 53.867188 C 307.761719 53.867188 307.917969 53.648438 307.917969 53.367188 C 307.917969 52.773438 307.574219 52.023438 307.574219 51.242188 C 308.042969 51.492188 309.199219 52.710938 309.480469 52.710938 C 309.730469 52.710938 309.980469 52.492188 309.980469 52.210938 C 309.980469 52.023438 309.855469 51.898438 309.699219 51.804688 C 309.324219 51.554688 308.324219 51.398438 307.699219 51.023438 C 308.386719 50.617188 309.292969 50.585938 309.730469 50.335938 C 309.886719 50.242188 309.980469 50.117188 309.980469 49.929688 Z M 309.980469 49.929688 "/>
<path fill-rule="nonzero" fill="rgb(0%, 0%, 0%)" fill-opacity="1" d="M 316.800781 54.890625 L 316.394531 54.890625 C 316.363281 55.046875 316.269531 55.765625 316.082031 55.890625 C 316.019531 55.953125 315.113281 55.953125 314.988281 55.953125 L 312.925781 55.953125 L 314.332031 54.828125 C 314.707031 54.515625 315.675781 53.828125 316.019531 53.484375 C 316.332031 53.171875 316.800781 52.609375 316.800781 51.828125 C 316.800781 50.453125 315.550781 49.671875 314.082031 49.671875 C 312.675781 49.671875 311.675781 50.578125 311.675781 51.609375 C 311.675781 52.171875 312.144531 52.234375 312.269531 52.234375 C 312.550781 52.234375 312.863281 52.046875 312.863281 51.640625 C 312.863281 51.421875 312.738281 51.078125 312.238281 51.078125 C 312.488281 50.515625 313.175781 50.078125 313.925781 50.078125 C 315.082031 50.078125 315.675781 50.953125 315.675781 51.828125 C 315.675781 52.609375 315.175781 53.421875 314.394531 54.109375 L 311.800781 56.484375 C 311.707031 56.609375 311.675781 56.609375 311.675781 56.953125 L 316.457031 56.953125 Z M 316.800781 54.890625 "/>
<path fill="none" stroke-width="0.5579" stroke-linecap="butt" stroke-linejoin="miter" stroke="rgb(0%, 0%, 0%)" stroke-opacity="1" stroke-miterlimit="10" d="M -33.48719 0.504875 L 0.665154 0.504875 " transform="matrix(2, 0, 0, -2, 160.740005, 87.166)"/>
<path fill="none" stroke-width="0.5579" stroke-linecap="round" stroke-linejoin="round" stroke="rgb(0%, 0%, 0%)" stroke-opacity="1" stroke-miterlimit="10" d="M -2.900108 3.347282 C -2.372765 1.33947 -1.189171 0.390251 -0.00167084 -0.00037384 C -1.189171 -0.390999 -2.372765 -1.340218 -2.900108 -3.34803 " transform="matrix(2, 0, 0, -2, 162.628342, 86.155502)"/>
<path fill="none" stroke-width="2.49017" stroke-linecap="butt" stroke-linejoin="miter" stroke="rgb(0%, 0%, 0%)" stroke-opacity="1" stroke-miterlimit="10" d="M -31.635628 -12.346687 L -10.952034 -22.811531 " transform="matrix(2, 0, 0, -2, 160.740005, 87.166)"/>
<path fill="none" stroke-width="1.37434" stroke-linecap="butt" stroke-linejoin="miter" stroke="rgb(100%, 100%, 100%)" stroke-opacity="1" stroke-miterlimit="10" d="M -31.635628 -12.346687 L -10.952034 -22.811531 " transform="matrix(2, 0, 0, -2, 160.740005, 87.166)"/>
<path fill="none" stroke-width="0.5579" stroke-linecap="round" stroke-linejoin="round" stroke="rgb(0%, 0%, 0%)" stroke-opacity="1" stroke-miterlimit="10" d="M -1.294062 2.559453 C -0.667366 1.208537 1.0241 0.0461855 1.988673 0.000168241 C 1.024563 -0.0498979 -0.66621 -1.207576 -1.295612 -2.559301 " transform="matrix(1.78446, 0.903, 0.903, -1.78446, 138.833954, 132.790466)"/>
<path fill-rule="nonzero" fill="rgb(0%, 0%, 0%)" fill-opacity="1" d="M 104.835938 138.921875 C 106.085938 138.921875 106.773438 137.953125 107.210938 137.234375 L 106.929688 137.046875 C 106.648438 137.453125 106.148438 138.328125 105.648438 138.328125 C 105.367188 138.328125 105.273438 137.953125 105.273438 137.765625 C 105.273438 137.453125 106.398438 134.171875 106.398438 133.734375 C 106.398438 132.953125 106.117188 132.453125 105.335938 132.453125 C 104.992188 132.453125 104.398438 132.578125 104.085938 132.765625 C 103.773438 132.984375 103.492188 133.265625 103.242188 133.609375 L 103.179688 133.765625 L 104.648438 128.109375 L 102.492188 128.234375 L 102.460938 128.453125 C 102.867188 128.453125 103.054688 128.578125 103.179688 128.671875 C 103.367188 128.765625 103.460938 128.984375 103.460938 129.140625 C 103.460938 129.421875 103.367188 129.765625 103.273438 130.015625 L 100.835938 138.796875 L 101.679688 138.796875 C 102.210938 137.140625 102.773438 135.140625 103.554688 133.890625 C 103.867188 133.328125 104.398438 132.796875 105.054688 132.796875 C 105.617188 132.796875 105.460938 133.765625 105.367188 134.203125 C 105.304688 134.421875 105.210938 134.734375 105.054688 135.140625 C 104.554688 136.765625 104.242188 137.515625 104.242188 138.171875 C 104.242188 138.640625 104.398438 138.921875 104.835938 138.921875 Z M 104.835938 138.921875 "/>
<path fill-rule="nonzero" fill="rgb(0%, 0%, 0%)" fill-opacity="1" d="M 113.164062 140.980469 L 113.164062 140.542969 L 112.695312 140.542969 C 111.570312 140.542969 111.570312 140.417969 111.570312 140.042969 L 111.570312 134.011719 C 111.570312 133.699219 111.539062 133.699219 111.195312 133.699219 C 110.476562 134.386719 109.351562 134.386719 108.945312 134.386719 L 108.945312 134.824219 C 109.257812 134.824219 109.976562 134.824219 110.632812 134.511719 L 110.632812 140.042969 C 110.632812 140.417969 110.632812 140.542969 109.507812 140.542969 L 109.039062 140.542969 L 109.039062 140.980469 C 109.632812 140.949219 110.476562 140.949219 111.101562 140.949219 C 111.726562 140.949219 112.570312 140.949219 113.164062 140.980469 Z M 113.164062 140.980469 "/>
<g clip-path="url(#clip-0)">
<path fill="none" stroke-width="2.49017" stroke-linecap="butt" stroke-linejoin="miter" stroke="rgb(0%, 0%, 0%)" stroke-opacity="1" stroke-miterlimit="10" d="M 31.747185 12.05175 L 47.348747 21.2705 " transform="matrix(2, 0, 0, -2, 160.740005, 87.166)"/>
</g>
<path fill="none" stroke-width="1.37434" stroke-linecap="butt" stroke-linejoin="miter" stroke="rgb(100%, 100%, 100%)" stroke-opacity="1" stroke-miterlimit="10" d="M 31.747185 12.05175 L 47.348747 21.2705 " transform="matrix(2, 0, 0, -2, 160.740005, 87.166)"/>
<path fill="none" stroke-width="0.5579" stroke-linecap="round" stroke-linejoin="round" stroke="rgb(0%, 0%, 0%)" stroke-opacity="1" stroke-miterlimit="10" d="M -1.293822 2.561925 C -0.665496 1.206194 1.024036 0.0493354 1.989118 0.00100253 C 1.024049 -0.0504895 -0.6664 -1.20703 -1.293605 -2.560633 " transform="matrix(1.7219, -1.01718, -1.01718, -1.7219, 255.435333, 44.626579)"/>
<path fill-rule="nonzero" fill="rgb(0%, 0%, 0%)" fill-opacity="1" d="M 250.429688 68.261719 C 251.679688 68.261719 252.367188 67.292969 252.804688 66.574219 L 252.523438 66.386719 C 252.242188 66.792969 251.742188 67.667969 251.242188 67.667969 C 250.960938 67.667969 250.867188 67.292969 250.867188 67.105469 C 250.867188 66.792969 251.992188 63.511719 251.992188 63.074219 C 251.992188 62.292969 251.710938 61.792969 250.929688 61.792969 C 250.585938 61.792969 249.992188 61.917969 249.679688 62.105469 C 249.367188 62.324219 249.085938 62.605469 248.835938 62.949219 L 248.773438 63.105469 L 250.242188 57.449219 L 248.085938 57.574219 L 248.054688 57.792969 C 248.460938 57.792969 248.648438 57.917969 248.773438 58.011719 C 248.960938 58.105469 249.054688 58.324219 249.054688 58.480469 C 249.054688 58.761719 248.960938 59.105469 248.867188 59.355469 L 246.429688 68.136719 L 247.273438 68.136719 C 247.804688 66.480469 248.367188 64.480469 249.148438 63.230469 C 249.460938 62.667969 249.992188 62.136719 250.648438 62.136719 C 251.210938 62.136719 251.054688 63.105469 250.960938 63.542969 C 250.898438 63.761719 250.804688 64.074219 250.648438 64.480469 C 250.148438 66.105469 249.835938 66.855469 249.835938 67.511719 C 249.835938 67.980469 249.992188 68.261719 250.429688 68.261719 Z M 250.429688 68.261719 "/>
<path fill-rule="nonzero" fill="rgb(0%, 0%, 0%)" fill-opacity="1" d="M 259.132812 68.257812 L 258.726562 68.257812 C 258.695312 68.414062 258.601562 69.132812 258.414062 69.257812 C 258.351562 69.320312 257.445312 69.320312 257.320312 69.320312 L 255.257812 69.320312 L 256.664062 68.195312 C 257.039062 67.882812 258.007812 67.195312 258.351562 66.851562 C 258.664062 66.539062 259.132812 65.976562 259.132812 65.195312 C 259.132812 63.820312 257.882812 63.039062 256.414062 63.039062 C 255.007812 63.039062 254.007812 63.945312 254.007812 64.976562 C 254.007812 65.539062 254.476562 65.601562 254.601562 65.601562 C 254.882812 65.601562 255.195312 65.414062 255.195312 65.007812 C 255.195312 64.789062 255.070312 64.445312 254.570312 64.445312 C 254.820312 63.882812 255.507812 63.445312 256.257812 63.445312 C 257.414062 63.445312 258.007812 64.320312 258.007812 65.195312 C 258.007812 65.976562 257.507812 66.789062 256.726562 67.476562 L 254.132812 69.851562 C 254.039062 69.976562 254.007812 69.976562 254.007812 70.320312 L 258.789062 70.320312 Z M 259.132812 68.257812 "/>
<path fill="none" stroke-width="0.5579" stroke-linecap="butt" stroke-linejoin="miter" stroke="rgb(0%, 0%, 0%)" stroke-opacity="1" stroke-miterlimit="10" d="M 23.16906 0.504875 L 57.692497 0.504875 " transform="matrix(2, 0, 0, -2, 160.740005, 87.166)"/>
<path fill="none" stroke-width="0.5579" stroke-linecap="round" stroke-linejoin="round" stroke="rgb(0%, 0%, 0%)" stroke-opacity="1" stroke-miterlimit="10" d="M -2.901932 3.347282 C -2.370682 1.33947 -1.190994 0.390251 0.000411987 -0.00037384 C -1.190994 -0.390999 -2.370682 -1.340218 -2.901932 -3.34803 " transform="matrix(2, 0, 0, -2, 276.686676, 86.155502)"/>
<path fill-rule="nonzero" fill="rgb(0%, 0%, 0%)" fill-opacity="1" d="M 169.273438 103.347656 L 170.148438 103.347656 L 170.148438 98.253906 L 165.054688 98.253906 L 165.054688 99.128906 L 169.273438 99.128906 Z M 169.273438 103.347656 "/>
<path fill-rule="nonzero" fill="rgb(0%, 0%, 0%)" fill-opacity="1" d="M 278.398438 69.632812 L 278.398438 70.507812 L 283.492188 70.507812 L 283.492188 65.414062 L 282.617188 65.414062 L 282.617188 69.632812 Z M 278.398438 69.632812 "/>
<path fill="none" stroke-width="0.5579" stroke-linecap="butt" stroke-linejoin="miter" stroke="rgb(0%, 0%, 0%)" stroke-opacity="1" stroke-miterlimit="10" d="M -57.030159 -24.932625 L -57.030159 -7.956062 " transform="matrix(2, 0, 0, -2, 160.740005, 87.166)"/>
<path fill="none" stroke-width="0.5579" stroke-linecap="round" stroke-linejoin="round" stroke="rgb(0%, 0%, 0%)" stroke-opacity="1" stroke-miterlimit="10" d="M -2.899517 3.348652 C -2.372173 1.340839 -1.18858 0.391621 -0.00107956 0.000995636 C -1.18858 -0.389629 -2.372173 -1.338848 -2.899517 -3.346661 " transform="matrix(0, -2, -2, 0, 46.681679, 102.521278)"/>
<path fill-rule="nonzero" fill="rgb(0%, 0%, 0%)" fill-opacity="1" d="M 34.71875 117.234375 C 34.71875 115.140625 34.0625 113.421875 32.5 113.421875 C 31.28125 113.421875 29.96875 114.578125 29.96875 115.234375 C 29.96875 115.734375 30.34375 115.921875 30.625 115.921875 C 30.9375 115.921875 31.125 115.671875 31.15625 115.640625 C 31.09375 115.609375 31.03125 115.453125 31.03125 115.265625 C 31.03125 115.140625 31.28125 113.859375 32.53125 113.859375 C 33.59375 113.859375 33.8125 115.203125 33.8125 116.390625 C 33.8125 117.265625 33.6875 118.078125 33.6875 118.078125 L 33.65625 118.078125 C 33.65625 118.078125 33.09375 117.171875 31.9375 117.171875 C 29.03125 117.171875 27.84375 119.984375 27.84375 121.484375 C 27.84375 122.859375 28.625 123.703125 30.25 123.703125 C 32.75 123.703125 34.71875 121.171875 34.71875 117.234375 Z M 33.0625 118.859375 C 33.0625 119.234375 32.6875 123.359375 30.34375 123.359375 C 29.53125 123.359375 29.15625 122.890625 29.15625 121.984375 C 29.15625 121.046875 29.75 117.515625 31.84375 117.515625 C 32.65625 117.515625 33.0625 118.015625 33.0625 118.859375 Z M 33.0625 118.859375 "/>
<path fill-rule="nonzero" fill="rgb(0%, 0%, 0%)" fill-opacity="1" d="M 40.167969 122.164062 C 40.167969 121.351562 40.167969 118.382812 37.480469 118.382812 C 34.792969 118.382812 34.792969 121.351562 34.792969 122.164062 C 34.792969 122.945312 34.792969 125.882812 37.480469 125.882812 C 40.167969 125.882812 40.167969 122.945312 40.167969 122.164062 Z M 39.136719 122.007812 C 39.136719 122.726562 39.136719 123.820312 38.949219 124.445312 C 38.636719 125.414062 37.855469 125.539062 37.480469 125.539062 C 37.011719 125.539062 36.261719 125.320312 36.011719 124.414062 C 35.824219 123.789062 35.824219 122.695312 35.824219 122.007812 C 35.824219 121.289062 35.824219 120.445312 35.980469 119.851562 C 36.261719 118.851562 37.105469 118.726562 37.480469 118.726562 C 37.980469 118.726562 38.699219 118.976562 38.949219 119.789062 C 39.105469 120.382812 39.136719 121.164062 39.136719 122.007812 Z M 39.136719 122.007812 "/>
<path fill="none" stroke-width="0.5579" stroke-linecap="butt" stroke-linejoin="miter" stroke="rgb(0%, 0%, 0%)" stroke-opacity="1" stroke-miterlimit="10" d="M -35.073128 -34.526375 L 0.290154 -34.526375 " transform="matrix(2, 0, 0, -2, 160.740005, 87.166)"/>
<path fill="none" stroke-width="0.5579" stroke-linecap="round" stroke-linejoin="round" stroke="rgb(0%, 0%, 0%)" stroke-opacity="1" stroke-miterlimit="10" d="M -2.901505 3.346474 C -2.370255 1.338661 -1.190567 0.389442 0.000839233 -0.00118256 C -1.190567 -0.391808 -2.370255 -1.33712 -2.901505 -3.348839 " transform="matrix(2, 0, 0, -2, 161.881134, 156.216385)"/>
<path fill-rule="nonzero" fill="rgb(0%, 0%, 0%)" fill-opacity="1" d="M 123.335938 164.207031 C 123.335938 162.394531 121.835938 160.925781 119.992188 160.925781 C 119.179688 160.925781 118.335938 161.238281 117.742188 161.800781 L 117.742188 160.925781 L 115.554688 161.082031 L 115.554688 161.613281 C 116.554688 161.613281 116.648438 161.675781 116.648438 162.300781 L 116.648438 168.988281 C 116.648438 169.613281 116.492188 169.613281 115.554688 169.613281 L 115.554688 170.144531 C 115.554688 170.144531 116.585938 170.082031 117.210938 170.082031 C 117.742188 170.082031 118.742188 170.144531 118.867188 170.144531 L 118.867188 169.613281 C 117.929688 169.613281 117.773438 169.613281 117.773438 168.988281 L 117.773438 166.644531 C 117.867188 166.707031 118.554688 167.488281 119.773438 167.488281 C 121.679688 167.488281 123.335938 166.050781 123.335938 164.207031 Z M 121.992188 164.207031 C 121.992188 165.863281 120.898438 167.082031 119.679688 167.082031 C 118.398438 167.082031 117.835938 165.957031 117.773438 165.863281 L 117.773438 162.488281 C 118.210938 161.769531 119.054688 161.394531 119.835938 161.394531 C 121.054688 161.394531 121.992188 162.675781 121.992188 164.207031 Z M 121.992188 164.207031 "/>
<path fill-rule="nonzero" fill="rgb(0%, 0%, 0%)" fill-opacity="1" d="M 129.917969 161.863281 C 129.917969 161.363281 129.449219 160.925781 128.792969 160.925781 C 128.042969 160.925781 127.261719 161.363281 126.824219 162.488281 L 126.792969 162.488281 L 126.792969 160.925781 L 124.730469 161.082031 L 124.730469 161.613281 C 125.699219 161.613281 125.824219 161.707031 125.824219 162.425781 L 125.824219 166.175781 C 125.824219 166.800781 125.667969 166.800781 124.730469 166.800781 L 124.730469 167.332031 C 124.792969 167.332031 125.792969 167.269531 126.386719 167.269531 L 128.261719 167.332031 L 128.261719 166.800781 L 127.980469 166.800781 C 126.917969 166.800781 126.917969 166.644531 126.917969 166.144531 L 126.917969 164.019531 C 126.917969 162.800781 127.480469 161.332031 128.855469 161.332031 C 128.730469 161.425781 128.605469 161.613281 128.605469 161.863281 C 128.605469 162.332031 128.980469 162.519531 129.261719 162.519531 C 129.605469 162.519531 129.917969 162.300781 129.917969 161.863281 Z M 129.917969 161.863281 "/>
<path fill-rule="nonzero" fill="rgb(0%, 0%, 0%)" fill-opacity="1" d="M 136.039062 170.707031 L 136.039062 170.269531 L 135.570312 170.269531 C 134.445312 170.269531 134.445312 170.144531 134.445312 169.769531 L 134.445312 163.738281 C 134.445312 163.425781 134.414062 163.425781 134.070312 163.425781 C 133.351562 164.113281 132.226562 164.113281 131.820312 164.113281 L 131.820312 164.550781 C 132.132812 164.550781 132.851562 164.550781 133.507812 164.238281 L 133.507812 169.769531 C 133.507812 170.144531 133.507812 170.269531 132.382812 170.269531 L 131.914062 170.269531 L 131.914062 170.707031 C 132.507812 170.675781 133.351562 170.675781 133.976562 170.675781 C 134.601562 170.675781 135.445312 170.675781 136.039062 170.707031 Z M 136.039062 170.707031 "/>
<path fill="none" stroke-width="0.5579" stroke-linecap="butt" stroke-linejoin="miter" stroke="rgb(0%, 0%, 0%)" stroke-opacity="1" stroke-miterlimit="10" d="M 12.196404 -26.284187 L 12.196404 -7.956062 " transform="matrix(2, 0, 0, -2, 160.740005, 87.166)"/>
<path fill="none" stroke-width="0.5579" stroke-linecap="round" stroke-linejoin="round" stroke="rgb(0%, 0%, 0%)" stroke-opacity="1" stroke-miterlimit="10" d="M -2.899517 3.346779 C -2.372173 1.338966 -1.18858 0.389748 -0.00107956 -0.00087738 C -1.18858 -0.391502 -2.372173 -1.340721 -2.899517 -3.348534 " transform="matrix(0, -2, -2, 0, 185.131058, 102.521278)"/>
<path fill-rule="nonzero" fill="rgb(0%, 0%, 0%)" fill-opacity="1" d="M 195.917969 118.222656 C 195.917969 117.972656 195.730469 117.691406 195.449219 117.691406 C 195.136719 117.691406 193.917969 118.910156 193.511719 119.128906 C 193.511719 118.316406 193.917969 117.503906 193.917969 117.035156 C 193.917969 116.722656 193.730469 116.535156 193.417969 116.535156 C 193.105469 116.535156 192.949219 116.722656 192.949219 117.035156 C 192.949219 117.597656 193.292969 118.347656 193.292969 119.128906 C 192.824219 118.878906 191.699219 117.660156 191.386719 117.660156 C 191.136719 117.660156 190.886719 117.878906 190.886719 118.160156 C 190.886719 118.660156 192.605469 119.003906 193.167969 119.316406 C 192.574219 119.691406 191.417969 119.847656 191.136719 120.035156 C 191.011719 120.160156 190.886719 120.285156 190.886719 120.472656 C 190.886719 120.722656 191.074219 120.972656 191.355469 120.972656 C 191.667969 120.972656 192.855469 119.785156 193.292969 119.535156 C 193.292969 120.347656 192.886719 121.160156 192.886719 121.660156 C 192.886719 121.941406 193.105469 122.160156 193.386719 122.160156 C 193.699219 122.160156 193.855469 121.941406 193.855469 121.660156 C 193.855469 121.066406 193.511719 120.316406 193.511719 119.535156 C 193.980469 119.785156 195.136719 121.003906 195.417969 121.003906 C 195.667969 121.003906 195.917969 120.785156 195.917969 120.503906 C 195.917969 120.316406 195.792969 120.191406 195.636719 120.097656 C 195.261719 119.847656 194.261719 119.691406 193.636719 119.316406 C 194.324219 118.910156 195.230469 118.878906 195.667969 118.628906 C 195.824219 118.535156 195.917969 118.410156 195.917969 118.222656 Z M 195.917969 118.222656 "/>
<path fill-rule="nonzero" fill="rgb(0%, 0%, 0%)" fill-opacity="1" d="M 202.367188 125.246094 L 202.367188 124.808594 L 201.898438 124.808594 C 200.773438 124.808594 200.773438 124.683594 200.773438 124.308594 L 200.773438 118.277344 C 200.773438 117.964844 200.742188 117.964844 200.398438 117.964844 C 199.679688 118.652344 198.554688 118.652344 198.148438 118.652344 L 198.148438 119.089844 C 198.460938 119.089844 199.179688 119.089844 199.835938 118.777344 L 199.835938 124.308594 C 199.835938 124.683594 199.835938 124.808594 198.710938 124.808594 L 198.242188 124.808594 L 198.242188 125.246094 C 198.835938 125.214844 199.679688 125.214844 200.304688 125.214844 C 200.929688 125.214844 201.773438 125.214844 202.367188 125.246094 Z M 202.367188 125.246094 "/>
</svg>
