<?xml version="1.0" encoding="UTF-8"?>
<svg xmlns="http://www.w3.org/2000/svg" xmlns:xlink="http://www.w3.org/1999/xlink" width="768.986654" height="610.533325" viewBox="0 0 768.986654 610.533325">
<defs>
<clipPath id="clip-0">
<path clip-rule="nonzero" d="M 180 539 L 253.332031 539 L 253.332031 610 L 180 610 Z M 180 539 "/>
</clipPath>
</defs>
<path fill-rule="nonzero" fill="rgb(0%, 0%, 0%)" fill-opacity="1" d="M 165.230469 501.65625 C 165.230469 497.5 161.863281 494.136719 157.71875 494.136719 C 153.5625 494.136719 150.207031 497.5 150.207031 501.65625 C 150.207031 505.800781 153.5625 509.167969 157.71875 509.167969 C 161.863281 509.167969 165.230469 505.800781 165.230469 501.65625 Z M 165.230469 501.65625 "/>
<path fill-rule="nonzero" fill="rgb(0%, 0%, 0%)" fill-opacity="1" d="M 185.101562 518.140625 C 185.101562 516.683594 184.394531 516.265625 183.933594 516.265625 C 183.269531 516.265625 182.601562 516.972656 182.601562 517.558594 C 182.601562 517.890625 182.726562 518.058594 183.019531 518.347656 C 183.601562 518.890625 183.933594 519.558594 183.933594 520.515625 C 183.933594 521.640625 182.308594 527.722656 179.226562 527.722656 C 177.851562 527.722656 177.226562 526.808594 177.226562 525.390625 C 177.226562 523.933594 177.976562 521.972656 178.769531 519.765625 C 178.976562 519.308594 179.101562 518.933594 179.101562 518.433594 C 179.101562 517.265625 178.269531 516.265625 176.933594 516.265625 C 174.433594 516.265625 173.433594 520.140625 173.433594 520.347656 C 173.433594 520.640625 173.683594 520.640625 173.726562 520.640625 C 174.019531 520.640625 174.019531 520.558594 174.144531 520.140625 C 174.933594 517.472656 176.058594 516.847656 176.851562 516.847656 C 177.058594 516.847656 177.519531 516.847656 177.519531 517.683594 C 177.519531 518.347656 177.226562 519.097656 177.058594 519.558594 C 175.894531 522.640625 175.558594 523.847656 175.558594 525.015625 C 175.558594 527.890625 177.894531 528.308594 179.101562 528.308594 C 183.558594 528.308594 185.101562 519.515625 185.101562 518.140625 Z M 185.101562 518.140625 "/>
<path fill-rule="nonzero" fill="rgb(0%, 0%, 0%)" fill-opacity="1" d="M 191.726562 520.167969 C 191.726562 519.667969 191.726562 519.667969 191.1875 519.667969 C 189.976562 520.832031 188.3125 520.832031 187.5625 520.832031 L 187.5625 521.5 C 187.976562 521.5 189.226562 521.5 190.226562 521 L 190.226562 530.457031 C 190.226562 531.082031 190.226562 531.332031 188.394531 531.332031 L 187.6875 531.332031 L 187.6875 532 C 188.019531 532 190.3125 531.917969 190.976562 531.917969 C 191.5625 531.917969 193.894531 532 194.3125 532 L 194.3125 531.332031 L 193.601562 531.332031 C 191.726562 531.332031 191.726562 531.082031 191.726562 530.457031 Z M 191.726562 520.167969 "/>
<path fill-rule="nonzero" fill="rgb(0%, 0%, 0%)" fill-opacity="1" d="M 618.78125 501.65625 C 618.78125 497.5 615.417969 494.136719 611.269531 494.136719 C 607.113281 494.136719 603.75 497.5 603.75 501.65625 C 603.75 505.800781 607.113281 509.167969 611.269531 509.167969 C 615.417969 509.167969 618.78125 505.800781 618.78125 501.65625 Z M 618.78125 501.65625 "/>
<path fill-rule="nonzero" fill="rgb(0%, 0%, 0%)" fill-opacity="1" d="M 611.328125 520.4375 C 611.328125 518.980469 610.621094 518.5625 610.160156 518.5625 C 609.496094 518.5625 608.828125 519.269531 608.828125 519.855469 C 608.828125 520.1875 608.953125 520.355469 609.246094 520.644531 C 609.828125 521.1875 610.160156 521.855469 610.160156 522.8125 C 610.160156 523.9375 608.535156 530.019531 605.453125 530.019531 C 604.078125 530.019531 603.453125 529.105469 603.453125 527.6875 C 603.453125 526.230469 604.203125 524.269531 604.996094 522.0625 C 605.203125 521.605469 605.328125 521.230469 605.328125 520.730469 C 605.328125 519.5625 604.496094 518.5625 603.160156 518.5625 C 600.660156 518.5625 599.660156 522.4375 599.660156 522.644531 C 599.660156 522.9375 599.910156 522.9375 599.953125 522.9375 C 600.246094 522.9375 600.246094 522.855469 600.371094 522.4375 C 601.160156 519.769531 602.285156 519.144531 603.078125 519.144531 C 603.285156 519.144531 603.746094 519.144531 603.746094 519.980469 C 603.746094 520.644531 603.453125 521.394531 603.285156 521.855469 C 602.121094 524.9375 601.785156 526.144531 601.785156 527.3125 C 601.785156 530.1875 604.121094 530.605469 605.328125 530.605469 C 609.785156 530.605469 611.328125 521.8125 611.328125 520.4375 Z M 611.328125 520.4375 "/>
<path fill-rule="nonzero" fill="rgb(0%, 0%, 0%)" fill-opacity="1" d="M 621.121094 530.921875 L 620.496094 530.921875 C 620.453125 531.335938 620.246094 532.421875 619.996094 532.585938 C 619.871094 532.710938 618.453125 532.710938 618.164062 532.710938 L 614.746094 532.710938 C 616.703125 531.003906 617.371094 530.460938 618.453125 529.585938 C 619.828125 528.503906 621.121094 527.335938 621.121094 525.585938 C 621.121094 523.335938 619.164062 521.960938 616.789062 521.960938 C 614.496094 521.960938 612.914062 523.585938 612.914062 525.296875 C 612.914062 526.210938 613.703125 526.335938 613.914062 526.335938 C 614.328125 526.335938 614.871094 526.003906 614.871094 525.335938 C 614.871094 525.003906 614.746094 524.335938 613.789062 524.335938 C 614.371094 523.046875 615.621094 522.628906 616.496094 522.628906 C 618.371094 522.628906 619.328125 524.085938 619.328125 525.585938 C 619.328125 527.210938 618.164062 528.460938 617.578125 529.128906 L 613.121094 533.585938 C 612.914062 533.753906 612.914062 533.796875 612.914062 534.296875 L 620.578125 534.296875 Z M 621.121094 530.921875 "/>
<path fill-rule="nonzero" fill="rgb(0%, 0%, 0%)" fill-opacity="1" d="M 392.011719 108.886719 C 392.011719 104.730469 388.644531 101.363281 384.488281 101.363281 C 380.34375 101.363281 376.980469 104.730469 376.980469 108.886719 C 376.980469 113.03125 380.34375 116.394531 384.488281 116.394531 C 388.644531 116.394531 392.011719 113.03125 392.011719 108.886719 Z M 392.011719 108.886719 "/>
<path fill-rule="nonzero" fill="rgb(0%, 0%, 0%)" fill-opacity="1" d="M 384.550781 77.800781 C 384.550781 76.34375 383.84375 75.925781 383.386719 75.925781 C 382.71875 75.925781 382.050781 76.636719 382.050781 77.21875 C 382.050781 77.550781 382.175781 77.71875 382.46875 78.011719 C 383.050781 78.550781 383.386719 79.21875 383.386719 80.175781 C 383.386719 81.300781 381.761719 87.386719 378.675781 87.386719 C 377.300781 87.386719 376.675781 86.46875 376.675781 85.050781 C 376.675781 83.59375 377.425781 81.636719 378.21875 79.425781 C 378.425781 78.96875 378.550781 78.59375 378.550781 78.09375 C 378.550781 76.925781 377.71875 75.925781 376.386719 75.925781 C 373.886719 75.925781 372.886719 79.800781 372.886719 80.011719 C 372.886719 80.300781 373.136719 80.300781 373.175781 80.300781 C 373.46875 80.300781 373.46875 80.21875 373.59375 79.800781 C 374.386719 77.136719 375.511719 76.511719 376.300781 76.511719 C 376.511719 76.511719 376.96875 76.511719 376.96875 77.34375 C 376.96875 78.011719 376.675781 78.761719 376.511719 79.21875 C 375.34375 82.300781 375.011719 83.511719 375.011719 84.675781 C 375.011719 87.550781 377.34375 87.96875 378.550781 87.96875 C 383.011719 87.96875 384.550781 79.175781 384.550781 77.800781 Z M 384.550781 77.800781 "/>
<path fill-rule="nonzero" fill="rgb(0%, 0%, 0%)" fill-opacity="1" d="M 390.054688 85.453125 C 391.511719 85.453125 392.554688 86.453125 392.554688 88.453125 C 392.554688 90.746094 391.179688 91.453125 390.136719 91.453125 C 389.386719 91.453125 387.71875 91.246094 386.96875 90.121094 C 387.84375 90.121094 388.054688 89.496094 388.054688 89.078125 C 388.054688 88.496094 387.59375 88.078125 387.011719 88.078125 C 386.511719 88.078125 385.96875 88.410156 385.96875 89.160156 C 385.96875 90.910156 387.886719 92.035156 390.136719 92.035156 C 392.71875 92.035156 394.511719 90.285156 394.511719 88.453125 C 394.511719 86.996094 393.34375 85.535156 391.304688 85.121094 C 393.21875 84.410156 393.929688 83.035156 393.929688 81.871094 C 393.929688 80.410156 392.261719 79.328125 390.179688 79.328125 C 388.136719 79.328125 386.554688 80.328125 386.554688 81.828125 C 386.554688 82.453125 386.96875 82.785156 387.511719 82.785156 C 388.09375 82.785156 388.46875 82.371094 388.46875 81.871094 C 388.46875 81.328125 388.09375 80.910156 387.511719 80.871094 C 388.179688 80.078125 389.429688 79.871094 390.136719 79.871094 C 390.96875 79.871094 392.136719 80.285156 392.136719 81.871094 C 392.136719 82.660156 391.886719 83.535156 391.386719 84.078125 C 390.804688 84.785156 390.261719 84.828125 389.34375 84.910156 C 388.886719 84.953125 388.84375 84.953125 388.761719 84.953125 C 388.71875 84.953125 388.554688 84.996094 388.554688 85.203125 C 388.554688 85.453125 388.71875 85.453125 389.054688 85.453125 Z M 390.054688 85.453125 "/>
<path fill="none" stroke-width="1.19553" stroke-linecap="butt" stroke-linejoin="miter" stroke="rgb(0%, 50.196078%, 50.196078%)" stroke-opacity="1" stroke-miterlimit="10" d="M 168.6143 2.54187 L 89.372112 139.79187 " transform="matrix(2.666667, 0, 0, -2.666667, 157.717336, 501.65332)"/>
<path fill-rule="nonzero" fill="rgb(0%, 50.196078%, 50.196078%)" fill-opacity="1" stroke-width="1.19553" stroke-linecap="butt" stroke-linejoin="miter" stroke="rgb(0%, 50.196078%, 50.196078%)" stroke-opacity="1" stroke-miterlimit="10" d="M 7.504401 0.0003664 L 1.929209 2.109647 L 3.783273 0.000611456 L 1.929289 -2.108965 Z M 7.504401 0.0003664 " transform="matrix(-1.333333, -2.30936, -2.30936, 1.333333, 400.682495, 136.923625)"/>
<path fill-rule="nonzero" fill="rgb(0%, 50.196078%, 50.196078%)" fill-opacity="1" d="M 457.511719 321.03125 C 458.300781 321.03125 460.261719 320.945312 461.59375 320.40625 C 463.46875 319.613281 463.59375 318.03125 463.59375 317.65625 C 463.59375 316.488281 462.59375 315.40625 460.761719 315.40625 C 457.800781 315.40625 453.761719 317.988281 453.761719 322.65625 C 453.761719 325.363281 455.34375 327.445312 457.96875 327.445312 C 461.761719 327.445312 463.96875 324.613281 463.96875 324.320312 C 463.96875 324.15625 463.84375 323.945312 463.675781 323.945312 C 463.511719 323.945312 463.46875 324.03125 463.300781 324.238281 C 461.21875 326.863281 458.300781 326.863281 458.011719 326.863281 C 455.925781 326.863281 455.675781 324.613281 455.675781 323.78125 C 455.675781 323.445312 455.71875 322.65625 456.09375 321.03125 Z M 456.261719 320.445312 C 457.300781 316.40625 460.050781 315.988281 460.761719 315.988281 C 461.96875 315.988281 462.71875 316.78125 462.71875 317.65625 C 462.71875 320.445312 458.46875 320.445312 457.34375 320.445312 Z M 456.261719 320.445312 "/>
<path fill-rule="nonzero" fill="rgb(0%, 50.196078%, 50.196078%)" fill-opacity="1" d="M 474.296875 327.765625 L 473.671875 327.765625 C 473.632812 328.179688 473.421875 329.265625 473.171875 329.429688 C 473.046875 329.554688 471.632812 329.554688 471.339844 329.554688 L 467.921875 329.554688 C 469.882812 327.847656 470.546875 327.304688 471.632812 326.429688 C 473.007812 325.347656 474.296875 324.179688 474.296875 322.429688 C 474.296875 320.179688 472.339844 318.804688 469.964844 318.804688 C 467.671875 318.804688 466.089844 320.429688 466.089844 322.140625 C 466.089844 323.054688 466.882812 323.179688 467.089844 323.179688 C 467.507812 323.179688 468.046875 322.847656 468.046875 322.179688 C 468.046875 321.847656 467.921875 321.179688 466.964844 321.179688 C 467.546875 319.890625 468.796875 319.472656 469.671875 319.472656 C 471.546875 319.472656 472.507812 320.929688 472.507812 322.429688 C 472.507812 324.054688 471.339844 325.304688 470.757812 325.972656 L 466.296875 330.429688 C 466.089844 330.597656 466.089844 330.640625 466.089844 331.140625 L 473.757812 331.140625 Z M 474.296875 327.765625 "/>
<path fill-rule="nonzero" fill="rgb(0%, 50.196078%, 50.196078%)" fill-opacity="1" d="M 480.585938 324.929688 C 482.046875 324.929688 483.085938 325.929688 483.085938 327.929688 C 483.085938 330.222656 481.710938 330.929688 480.671875 330.929688 C 479.921875 330.929688 478.253906 330.722656 477.503906 329.597656 C 478.378906 329.597656 478.585938 328.972656 478.585938 328.554688 C 478.585938 327.972656 478.128906 327.554688 477.546875 327.554688 C 477.046875 327.554688 476.503906 327.890625 476.503906 328.640625 C 476.503906 330.390625 478.421875 331.515625 480.671875 331.515625 C 483.253906 331.515625 485.046875 329.765625 485.046875 327.929688 C 485.046875 326.472656 483.878906 325.015625 481.835938 324.597656 C 483.753906 323.890625 484.460938 322.515625 484.460938 321.347656 C 484.460938 319.890625 482.796875 318.804688 480.710938 318.804688 C 478.671875 318.804688 477.085938 319.804688 477.085938 321.304688 C 477.085938 321.929688 477.503906 322.265625 478.046875 322.265625 C 478.628906 322.265625 479.003906 321.847656 479.003906 321.347656 C 479.003906 320.804688 478.628906 320.390625 478.046875 320.347656 C 478.710938 319.554688 479.960938 319.347656 480.671875 319.347656 C 481.503906 319.347656 482.671875 319.765625 482.671875 321.347656 C 482.671875 322.140625 482.421875 323.015625 481.921875 323.554688 C 481.335938 324.265625 480.796875 324.304688 479.878906 324.390625 C 479.421875 324.429688 479.378906 324.429688 479.296875 324.429688 C 479.253906 324.429688 479.085938 324.472656 479.085938 324.679688 C 479.085938 324.929688 479.253906 324.929688 479.585938 324.929688 Z M 480.585938 324.929688 "/>
<path fill="none" stroke-width="1.19553" stroke-linecap="butt" stroke-linejoin="miter" stroke="rgb(92.54902%, 0%, 54.901961%)" stroke-opacity="1" stroke-miterlimit="10" d="M 2.937542 -0.00109863 L 161.421917 -0.00109863 " transform="matrix(2.666667, 0, 0, -2.666667, 157.717336, 501.65332)"/>
<path fill-rule="nonzero" fill="rgb(92.54902%, 0%, 54.901961%)" fill-opacity="1" stroke-width="1.19553" stroke-linecap="butt" stroke-linejoin="miter" stroke="rgb(92.54902%, 0%, 54.901961%)" stroke-opacity="1" stroke-miterlimit="10" d="M 7.50351 -0.00109863 L 1.929779 2.108276 L 3.781342 -0.00109863 L 1.929779 -2.110474 Z M 7.50351 -0.00109863 " transform="matrix(2.666667, 0, 0, -2.666667, 578.885173, 501.65332)"/>
<path fill-rule="nonzero" fill="rgb(92.54902%, 0%, 54.901961%)" fill-opacity="1" d="M 372.011719 481.09375 C 372.804688 481.09375 374.761719 481.011719 376.09375 480.46875 C 377.96875 479.675781 378.09375 478.09375 378.09375 477.71875 C 378.09375 476.550781 377.09375 475.46875 375.261719 475.46875 C 372.304688 475.46875 368.261719 478.050781 368.261719 482.71875 C 368.261719 485.425781 369.84375 487.511719 372.46875 487.511719 C 376.261719 487.511719 378.46875 484.675781 378.46875 484.386719 C 378.46875 484.21875 378.34375 484.011719 378.179688 484.011719 C 378.011719 484.011719 377.96875 484.09375 377.804688 484.300781 C 375.71875 486.925781 372.804688 486.925781 372.511719 486.925781 C 370.429688 486.925781 370.179688 484.675781 370.179688 483.84375 C 370.179688 483.511719 370.21875 482.71875 370.59375 481.09375 Z M 370.761719 480.511719 C 371.804688 476.46875 374.554688 476.050781 375.261719 476.050781 C 376.46875 476.050781 377.21875 476.84375 377.21875 477.71875 C 377.21875 480.511719 372.96875 480.511719 371.84375 480.511719 Z M 370.761719 480.511719 "/>
<path fill-rule="nonzero" fill="rgb(92.54902%, 0%, 54.901961%)" fill-opacity="1" d="M 385.632812 479.371094 C 385.632812 478.871094 385.632812 478.871094 385.089844 478.871094 C 383.882812 480.035156 382.214844 480.035156 381.464844 480.035156 L 381.464844 480.703125 C 381.882812 480.703125 383.132812 480.703125 384.132812 480.203125 L 384.132812 489.660156 C 384.132812 490.285156 384.132812 490.535156 382.300781 490.535156 L 381.589844 490.535156 L 381.589844 491.203125 C 381.925781 491.203125 384.214844 491.121094 384.882812 491.121094 C 385.464844 491.121094 387.800781 491.203125 388.214844 491.203125 L 388.214844 490.535156 L 387.507812 490.535156 C 385.632812 490.535156 385.632812 490.285156 385.632812 489.660156 Z M 385.632812 479.371094 "/>
<path fill-rule="nonzero" fill="rgb(92.54902%, 0%, 54.901961%)" fill-opacity="1" d="M 399.378906 487.828125 L 398.753906 487.828125 C 398.714844 488.246094 398.503906 489.328125 398.253906 489.496094 C 398.128906 489.621094 396.714844 489.621094 396.421875 489.621094 L 393.003906 489.621094 C 394.964844 487.910156 395.628906 487.371094 396.714844 486.496094 C 398.089844 485.410156 399.378906 484.246094 399.378906 482.496094 C 399.378906 480.246094 397.421875 478.871094 395.046875 478.871094 C 392.753906 478.871094 391.171875 480.496094 391.171875 482.203125 C 391.171875 483.121094 391.964844 483.246094 392.171875 483.246094 C 392.589844 483.246094 393.128906 482.910156 393.128906 482.246094 C 393.128906 481.910156 393.003906 481.246094 392.046875 481.246094 C 392.628906 479.953125 393.878906 479.535156 394.753906 479.535156 C 396.628906 479.535156 397.589844 480.996094 397.589844 482.496094 C 397.589844 484.121094 396.421875 485.371094 395.839844 486.035156 L 391.378906 490.496094 C 391.171875 490.660156 391.171875 490.703125 391.171875 491.203125 L 398.839844 491.203125 Z M 399.378906 487.828125 "/>
<path fill="none" stroke-width="1.19553" stroke-linecap="butt" stroke-linejoin="miter" stroke="rgb(0%, 0%, 100%)" stroke-opacity="1" stroke-miterlimit="10" d="M 83.571331 144.744507 L 4.329144 7.498901 " transform="matrix(2.666667, 0, 0, -2.666667, 157.717336, 501.65332)"/>
<path fill-rule="nonzero" fill="rgb(0%, 0%, 100%)" fill-opacity="1" stroke-width="1.19553" stroke-linecap="butt" stroke-linejoin="miter" stroke="rgb(0%, 0%, 100%)" stroke-opacity="1" stroke-miterlimit="10" d="M 7.502449 0.000664911 L 1.931875 2.110925 L 3.782054 -0.000848748 L 1.93326 -2.110225 Z M 7.502449 0.000664911 " transform="matrix(-1.333333, 2.30936, 2.30936, 1.333333, 173.907979, 473.610758)"/>
<path fill-rule="nonzero" fill="rgb(0%, 0%, 100%)" fill-opacity="1" d="M 286.511719 321.03125 C 287.304688 321.03125 289.261719 320.945312 290.597656 320.40625 C 292.472656 319.613281 292.597656 318.03125 292.597656 317.65625 C 292.597656 316.488281 291.597656 315.40625 289.761719 315.40625 C 286.804688 315.40625 282.761719 317.988281 282.761719 322.65625 C 282.761719 325.363281 284.347656 327.445312 286.972656 327.445312 C 290.761719 327.445312 292.972656 324.613281 292.972656 324.320312 C 292.972656 324.15625 292.847656 323.945312 292.679688 323.945312 C 292.511719 323.945312 292.472656 324.03125 292.304688 324.238281 C 290.222656 326.863281 287.304688 326.863281 287.011719 326.863281 C 284.929688 326.863281 284.679688 324.613281 284.679688 323.78125 C 284.679688 323.445312 284.722656 322.65625 285.097656 321.03125 Z M 285.261719 320.445312 C 286.304688 316.40625 289.054688 315.988281 289.761719 315.988281 C 290.972656 315.988281 291.722656 316.78125 291.722656 317.65625 C 291.722656 320.445312 287.472656 320.445312 286.347656 320.445312 Z M 285.261719 320.445312 "/>
<path fill-rule="nonzero" fill="rgb(0%, 0%, 100%)" fill-opacity="1" d="M 299.007812 324.929688 C 300.46875 324.929688 301.507812 325.929688 301.507812 327.929688 C 301.507812 330.222656 300.132812 330.929688 299.09375 330.929688 C 298.34375 330.929688 296.675781 330.722656 295.925781 329.597656 C 296.800781 329.597656 297.007812 328.972656 297.007812 328.554688 C 297.007812 327.972656 296.550781 327.554688 295.96875 327.554688 C 295.46875 327.554688 294.925781 327.890625 294.925781 328.640625 C 294.925781 330.390625 296.84375 331.515625 299.09375 331.515625 C 301.675781 331.515625 303.46875 329.765625 303.46875 327.929688 C 303.46875 326.472656 302.300781 325.015625 300.257812 324.597656 C 302.175781 323.890625 302.882812 322.515625 302.882812 321.347656 C 302.882812 319.890625 301.21875 318.804688 299.132812 318.804688 C 297.09375 318.804688 295.507812 319.804688 295.507812 321.304688 C 295.507812 321.929688 295.925781 322.265625 296.46875 322.265625 C 297.050781 322.265625 297.425781 321.847656 297.425781 321.347656 C 297.425781 320.804688 297.050781 320.390625 296.46875 320.347656 C 297.132812 319.554688 298.382812 319.347656 299.09375 319.347656 C 299.925781 319.347656 301.09375 319.765625 301.09375 321.347656 C 301.09375 322.140625 300.84375 323.015625 300.34375 323.554688 C 299.757812 324.265625 299.21875 324.304688 298.300781 324.390625 C 297.84375 324.429688 297.800781 324.429688 297.71875 324.429688 C 297.675781 324.429688 297.507812 324.472656 297.507812 324.679688 C 297.507812 324.929688 297.675781 324.929688 298.007812 324.929688 Z M 299.007812 324.929688 "/>
<path fill-rule="nonzero" fill="rgb(0%, 0%, 100%)" fill-opacity="1" d="M 310.714844 319.304688 C 310.714844 318.804688 310.714844 318.804688 310.171875 318.804688 C 308.964844 319.972656 307.296875 319.972656 306.546875 319.972656 L 306.546875 320.640625 C 306.964844 320.640625 308.214844 320.640625 309.214844 320.140625 L 309.214844 329.597656 C 309.214844 330.222656 309.214844 330.472656 307.382812 330.472656 L 306.671875 330.472656 L 306.671875 331.140625 C 307.007812 331.140625 309.296875 331.054688 309.964844 331.054688 C 310.546875 331.054688 312.882812 331.140625 313.296875 331.140625 L 313.296875 330.472656 L 312.589844 330.472656 C 310.714844 330.472656 310.714844 330.222656 310.714844 329.597656 Z M 310.714844 319.304688 "/>
<path fill-rule="nonzero" fill="rgb(50.196078%, 50.196078%, 50.196078%)" fill-opacity="1" d="M 233.925781 429.207031 C 233.925781 427.125 232.238281 425.449219 230.167969 425.449219 C 228.09375 425.449219 226.40625 427.125 226.40625 429.207031 C 226.40625 431.28125 228.09375 432.957031 230.167969 432.957031 C 232.238281 432.957031 233.925781 431.28125 233.925781 429.207031 Z M 233.925781 429.207031 "/>
<path fill-rule="nonzero" fill="rgb(0%, 0%, 0%)" fill-opacity="1" d="M 254.78125 403.1875 C 254.78125 401.730469 254.074219 401.3125 253.613281 401.3125 C 252.949219 401.3125 252.28125 402.023438 252.28125 402.605469 C 252.28125 402.9375 252.40625 403.105469 252.699219 403.398438 C 253.28125 403.9375 253.613281 404.605469 253.613281 405.5625 C 253.613281 406.6875 251.988281 412.773438 248.90625 412.773438 C 247.53125 412.773438 246.90625 411.855469 246.90625 410.4375 C 246.90625 408.980469 247.65625 407.023438 248.449219 404.8125 C 248.65625 404.355469 248.78125 403.980469 248.78125 403.480469 C 248.78125 402.3125 247.949219 401.3125 246.613281 401.3125 C 244.113281 401.3125 243.113281 405.1875 243.113281 405.398438 C 243.113281 405.6875 243.363281 405.6875 243.40625 405.6875 C 243.699219 405.6875 243.699219 405.605469 243.824219 405.1875 C 244.613281 402.523438 245.738281 401.898438 246.53125 401.898438 C 246.738281 401.898438 247.199219 401.898438 247.199219 402.730469 C 247.199219 403.398438 246.90625 404.148438 246.738281 404.605469 C 245.574219 407.6875 245.238281 408.898438 245.238281 410.0625 C 245.238281 412.9375 247.574219 413.355469 248.78125 413.355469 C 253.238281 413.355469 254.78125 404.5625 254.78125 403.1875 Z M 254.78125 403.1875 "/>
<path fill-rule="nonzero" fill="rgb(0%, 0%, 0%)" fill-opacity="1" d="M 261.410156 405.214844 C 261.410156 404.714844 261.410156 404.714844 260.867188 404.714844 C 259.660156 405.882812 257.992188 405.882812 257.242188 405.882812 L 257.242188 406.546875 C 257.660156 406.546875 258.910156 406.546875 259.910156 406.046875 L 259.910156 415.507812 C 259.910156 416.132812 259.910156 416.382812 258.074219 416.382812 L 257.367188 416.382812 L 257.367188 417.046875 C 257.699219 417.046875 259.992188 416.964844 260.660156 416.964844 C 261.242188 416.964844 263.574219 417.046875 263.992188 417.046875 L 263.992188 416.382812 L 263.285156 416.382812 C 261.410156 416.382812 261.410156 416.132812 261.410156 415.507812 Z M 261.410156 405.214844 "/>
<path fill-rule="nonzero" fill="rgb(0%, 0%, 0%)" fill-opacity="1" d="M 271.988281 405.214844 C 271.988281 404.714844 271.988281 404.714844 271.449219 404.714844 C 270.238281 405.882812 268.574219 405.882812 267.824219 405.882812 L 267.824219 406.546875 C 268.238281 406.546875 269.488281 406.546875 270.488281 406.046875 L 270.488281 415.507812 C 270.488281 416.132812 270.488281 416.382812 268.65625 416.382812 L 267.949219 416.382812 L 267.949219 417.046875 C 268.28125 417.046875 270.574219 416.964844 271.238281 416.964844 C 271.824219 416.964844 274.15625 417.046875 274.574219 417.046875 L 274.574219 416.382812 L 273.863281 416.382812 C 271.988281 416.382812 271.988281 416.132812 271.988281 415.507812 Z M 271.988281 405.214844 "/>
<path fill-rule="nonzero" fill="rgb(50.196078%, 50.196078%, 50.196078%)" fill-opacity="1" d="M 233.925781 574.105469 C 233.925781 572.03125 232.238281 570.34375 230.167969 570.34375 C 228.09375 570.34375 226.40625 572.03125 226.40625 574.105469 C 226.40625 576.175781 228.09375 577.863281 230.167969 577.863281 C 232.238281 577.863281 233.925781 576.175781 233.925781 574.105469 Z M 233.925781 574.105469 "/>
<path fill-rule="nonzero" fill="rgb(0%, 0%, 0%)" fill-opacity="1" d="M 254.78125 587.820312 C 254.78125 586.363281 254.074219 585.945312 253.613281 585.945312 C 252.949219 585.945312 252.28125 586.65625 252.28125 587.238281 C 252.28125 587.570312 252.40625 587.738281 252.699219 588.03125 C 253.28125 588.570312 253.613281 589.238281 253.613281 590.195312 C 253.613281 591.320312 251.988281 597.40625 248.90625 597.40625 C 247.53125 597.40625 246.90625 596.488281 246.90625 595.070312 C 246.90625 593.613281 247.65625 591.65625 248.449219 589.445312 C 248.65625 588.988281 248.78125 588.613281 248.78125 588.113281 C 248.78125 586.945312 247.949219 585.945312 246.613281 585.945312 C 244.113281 585.945312 243.113281 589.820312 243.113281 590.03125 C 243.113281 590.320312 243.363281 590.320312 243.40625 590.320312 C 243.699219 590.320312 243.699219 590.238281 243.824219 589.820312 C 244.613281 587.15625 245.738281 586.53125 246.53125 586.53125 C 246.738281 586.53125 247.199219 586.53125 247.199219 587.363281 C 247.199219 588.03125 246.90625 588.78125 246.738281 589.238281 C 245.574219 592.320312 245.238281 593.53125 245.238281 594.695312 C 245.238281 597.570312 247.574219 597.988281 248.78125 597.988281 C 253.238281 597.988281 254.78125 589.195312 254.78125 587.820312 Z M 254.78125 587.820312 "/>
<path fill-rule="nonzero" fill="rgb(0%, 0%, 0%)" fill-opacity="1" d="M 261.410156 589.847656 C 261.410156 589.347656 261.410156 589.347656 260.867188 589.347656 C 259.660156 590.511719 257.992188 590.511719 257.242188 590.511719 L 257.242188 591.179688 C 257.660156 591.179688 258.910156 591.179688 259.910156 590.679688 L 259.910156 600.136719 C 259.910156 600.761719 259.910156 601.011719 258.074219 601.011719 L 257.367188 601.011719 L 257.367188 601.679688 C 257.699219 601.679688 259.992188 601.597656 260.660156 601.597656 C 261.242188 601.597656 263.574219 601.679688 263.992188 601.679688 L 263.992188 601.011719 L 263.285156 601.011719 C 261.410156 601.011719 261.410156 600.761719 261.410156 600.136719 Z M 261.410156 589.847656 "/>
<path fill-rule="nonzero" fill="rgb(0%, 0%, 0%)" fill-opacity="1" d="M 275.15625 598.304688 L 274.53125 598.304688 C 274.488281 598.722656 274.28125 599.804688 274.03125 599.972656 C 273.90625 600.097656 272.488281 600.097656 272.199219 600.097656 L 268.78125 600.097656 C 270.738281 598.386719 271.40625 597.847656 272.488281 596.972656 C 273.863281 595.886719 275.15625 594.722656 275.15625 592.972656 C 275.15625 590.722656 273.199219 589.347656 270.824219 589.347656 C 268.53125 589.347656 266.949219 590.972656 266.949219 592.679688 C 266.949219 593.597656 267.738281 593.722656 267.949219 593.722656 C 268.363281 593.722656 268.90625 593.386719 268.90625 592.722656 C 268.90625 592.386719 268.78125 591.722656 267.824219 591.722656 C 268.40625 590.429688 269.65625 590.011719 270.53125 590.011719 C 272.40625 590.011719 273.363281 591.472656 273.363281 592.972656 C 273.363281 594.597656 272.199219 595.847656 271.613281 596.511719 L 267.15625 600.972656 C 266.949219 601.136719 266.949219 601.179688 266.949219 601.679688 L 274.613281 601.679688 Z M 275.15625 598.304688 "/>
<path fill-rule="nonzero" fill="rgb(50.196078%, 50.196078%, 50.196078%)" fill-opacity="1" d="M 89.019531 574.105469 C 89.019531 572.03125 87.34375 570.34375 85.269531 570.34375 C 83.199219 570.34375 81.511719 572.03125 81.511719 574.105469 C 81.511719 576.175781 83.199219 577.863281 85.269531 577.863281 C 87.34375 577.863281 89.019531 576.175781 89.019531 574.105469 Z M 89.019531 574.105469 "/>
<path fill-rule="nonzero" fill="rgb(0%, 0%, 0%)" fill-opacity="1" d="M 50.183594 587.820312 C 50.183594 586.363281 49.476562 585.945312 49.015625 585.945312 C 48.351562 585.945312 47.683594 586.65625 47.683594 587.238281 C 47.683594 587.570312 47.808594 587.738281 48.101562 588.03125 C 48.683594 588.570312 49.015625 589.238281 49.015625 590.195312 C 49.015625 591.320312 47.390625 597.40625 44.308594 597.40625 C 42.933594 597.40625 42.308594 596.488281 42.308594 595.070312 C 42.308594 593.613281 43.058594 591.65625 43.851562 589.445312 C 44.058594 588.988281 44.183594 588.613281 44.183594 588.113281 C 44.183594 586.945312 43.351562 585.945312 42.015625 585.945312 C 39.515625 585.945312 38.515625 589.820312 38.515625 590.03125 C 38.515625 590.320312 38.765625 590.320312 38.808594 590.320312 C 39.101562 590.320312 39.101562 590.238281 39.226562 589.820312 C 40.015625 587.15625 41.140625 586.53125 41.933594 586.53125 C 42.140625 586.53125 42.601562 586.53125 42.601562 587.363281 C 42.601562 588.03125 42.308594 588.78125 42.140625 589.238281 C 40.976562 592.320312 40.640625 593.53125 40.640625 594.695312 C 40.640625 597.570312 42.976562 597.988281 44.183594 597.988281 C 48.640625 597.988281 50.183594 589.195312 50.183594 587.820312 Z M 50.183594 587.820312 "/>
<path fill-rule="nonzero" fill="rgb(0%, 0%, 0%)" fill-opacity="1" d="M 56.8125 589.847656 C 56.8125 589.347656 56.8125 589.347656 56.269531 589.347656 C 55.0625 590.511719 53.394531 590.511719 52.644531 590.511719 L 52.644531 591.179688 C 53.0625 591.179688 54.3125 591.179688 55.3125 590.679688 L 55.3125 600.136719 C 55.3125 600.761719 55.3125 601.011719 53.476562 601.011719 L 52.769531 601.011719 L 52.769531 601.679688 C 53.101562 601.679688 55.394531 601.597656 56.0625 601.597656 C 56.644531 601.597656 58.976562 601.679688 59.394531 601.679688 L 59.394531 601.011719 L 58.6875 601.011719 C 56.8125 601.011719 56.8125 600.761719 56.8125 600.136719 Z M 56.8125 589.847656 "/>
<path fill-rule="nonzero" fill="rgb(0%, 0%, 0%)" fill-opacity="1" d="M 66.269531 595.472656 C 67.726562 595.472656 68.769531 596.472656 68.769531 598.472656 C 68.769531 600.761719 67.394531 601.472656 66.351562 601.472656 C 65.601562 601.472656 63.933594 601.261719 63.183594 600.136719 C 64.058594 600.136719 64.269531 599.511719 64.269531 599.097656 C 64.269531 598.511719 63.808594 598.097656 63.226562 598.097656 C 62.726562 598.097656 62.183594 598.429688 62.183594 599.179688 C 62.183594 600.929688 64.101562 602.054688 66.351562 602.054688 C 68.933594 602.054688 70.726562 600.304688 70.726562 598.472656 C 70.726562 597.011719 69.558594 595.554688 67.519531 595.136719 C 69.433594 594.429688 70.144531 593.054688 70.144531 591.886719 C 70.144531 590.429688 68.476562 589.347656 66.394531 589.347656 C 64.351562 589.347656 62.769531 590.347656 62.769531 591.847656 C 62.769531 592.472656 63.183594 592.804688 63.726562 592.804688 C 64.308594 592.804688 64.683594 592.386719 64.683594 591.886719 C 64.683594 591.347656 64.308594 590.929688 63.726562 590.886719 C 64.394531 590.097656 65.644531 589.886719 66.351562 589.886719 C 67.183594 589.886719 68.351562 590.304688 68.351562 591.886719 C 68.351562 592.679688 68.101562 593.554688 67.601562 594.097656 C 67.019531 594.804688 66.476562 594.847656 65.558594 594.929688 C 65.101562 594.972656 65.058594 594.972656 64.976562 594.972656 C 64.933594 594.972656 64.769531 595.011719 64.769531 595.222656 C 64.769531 595.472656 64.933594 595.472656 65.269531 595.472656 Z M 66.269531 595.472656 "/>
<path fill-rule="nonzero" fill="rgb(50.196078%, 50.196078%, 50.196078%)" fill-opacity="1" d="M 89.019531 429.207031 C 89.019531 427.125 87.34375 425.449219 85.269531 425.449219 C 83.199219 425.449219 81.511719 427.125 81.511719 429.207031 C 81.511719 431.28125 83.199219 432.957031 85.269531 432.957031 C 87.34375 432.957031 89.019531 431.28125 89.019531 429.207031 Z M 89.019531 429.207031 "/>
<path fill-rule="nonzero" fill="rgb(0%, 0%, 0%)" fill-opacity="1" d="M 50.183594 403.1875 C 50.183594 401.730469 49.476562 401.3125 49.015625 401.3125 C 48.351562 401.3125 47.683594 402.023438 47.683594 402.605469 C 47.683594 402.9375 47.808594 403.105469 48.101562 403.398438 C 48.683594 403.9375 49.015625 404.605469 49.015625 405.5625 C 49.015625 406.6875 47.390625 412.773438 44.308594 412.773438 C 42.933594 412.773438 42.308594 411.855469 42.308594 410.4375 C 42.308594 408.980469 43.058594 407.023438 43.851562 404.8125 C 44.058594 404.355469 44.183594 403.980469 44.183594 403.480469 C 44.183594 402.3125 43.351562 401.3125 42.015625 401.3125 C 39.515625 401.3125 38.515625 405.1875 38.515625 405.398438 C 38.515625 405.6875 38.765625 405.6875 38.808594 405.6875 C 39.101562 405.6875 39.101562 405.605469 39.226562 405.1875 C 40.015625 402.523438 41.140625 401.898438 41.933594 401.898438 C 42.140625 401.898438 42.601562 401.898438 42.601562 402.730469 C 42.601562 403.398438 42.308594 404.148438 42.140625 404.605469 C 40.976562 407.6875 40.640625 408.898438 40.640625 410.0625 C 40.640625 412.9375 42.976562 413.355469 44.183594 413.355469 C 48.640625 413.355469 50.183594 404.5625 50.183594 403.1875 Z M 50.183594 403.1875 "/>
<path fill-rule="nonzero" fill="rgb(0%, 0%, 0%)" fill-opacity="1" d="M 56.8125 405.214844 C 56.8125 404.714844 56.8125 404.714844 56.269531 404.714844 C 55.0625 405.882812 53.394531 405.882812 52.644531 405.882812 L 52.644531 406.546875 C 53.0625 406.546875 54.3125 406.546875 55.3125 406.046875 L 55.3125 415.507812 C 55.3125 416.132812 55.3125 416.382812 53.476562 416.382812 L 52.769531 416.382812 L 52.769531 417.046875 C 53.101562 417.046875 55.394531 416.964844 56.0625 416.964844 C 56.644531 416.964844 58.976562 417.046875 59.394531 417.046875 L 59.394531 416.382812 L 58.6875 416.382812 C 56.8125 416.382812 56.8125 416.132812 56.8125 415.507812 Z M 56.8125 405.214844 "/>
<path fill-rule="nonzero" fill="rgb(0%, 0%, 0%)" fill-opacity="1" d="M 71.019531 414.007812 L 71.019531 413.339844 L 68.933594 413.339844 L 68.933594 405.046875 C 68.933594 404.671875 68.933594 404.507812 68.558594 404.507812 C 68.308594 404.507812 68.226562 404.507812 68.058594 404.796875 L 61.894531 413.339844 L 61.894531 414.007812 L 67.394531 414.007812 L 67.394531 415.507812 C 67.394531 416.171875 67.394531 416.382812 65.851562 416.382812 L 65.351562 416.382812 L 65.351562 417.046875 C 66.308594 417.007812 67.476562 416.964844 68.144531 416.964844 C 68.851562 416.964844 70.019531 417.007812 70.976562 417.046875 L 70.976562 416.382812 L 70.476562 416.382812 C 68.933594 416.382812 68.933594 416.171875 68.933594 415.507812 L 68.933594 414.007812 Z M 67.519531 406.546875 L 67.519531 413.339844 L 62.601562 413.339844 Z M 67.519531 406.546875 "/>
<path fill-rule="nonzero" fill="rgb(0%, 0%, 0%)" fill-opacity="1" d="M 20.1875 492.613281 C 20.394531 491.863281 20.476562 491.695312 20.8125 491.613281 C 21.0625 491.570312 21.9375 491.570312 22.476562 491.570312 C 25.1875 491.570312 26.351562 491.65625 26.351562 493.738281 C 26.351562 494.15625 26.269531 495.195312 26.144531 495.863281 C 26.144531 495.988281 26.0625 496.28125 26.0625 496.363281 C 26.0625 496.53125 26.144531 496.738281 26.394531 496.738281 C 26.6875 496.738281 26.726562 496.53125 26.8125 496.113281 L 27.519531 491.488281 C 27.5625 491.363281 27.5625 491.113281 27.5625 491.03125 C 27.5625 490.738281 27.3125 490.738281 26.851562 490.738281 L 12.101562 490.738281 C 11.476562 490.738281 11.4375 490.78125 11.226562 491.28125 L 9.644531 495.945312 C 9.644531 495.988281 9.476562 496.363281 9.476562 496.445312 C 9.476562 496.570312 9.644531 496.738281 9.8125 496.738281 C 10.0625 496.738281 10.101562 496.570312 10.269531 496.15625 C 11.6875 492.03125 12.394531 491.570312 16.3125 491.570312 L 17.351562 491.570312 C 18.101562 491.570312 18.101562 491.65625 18.101562 491.90625 C 18.101562 492.03125 18.019531 492.363281 17.976562 492.445312 L 14.4375 506.65625 C 14.1875 507.613281 14.101562 507.90625 11.269531 507.90625 C 10.3125 507.90625 10.144531 507.90625 10.144531 508.40625 C 10.144531 508.738281 10.4375 508.738281 10.601562 508.738281 C 11.3125 508.738281 12.0625 508.695312 12.769531 508.695312 C 13.519531 508.695312 14.3125 508.65625 15.0625 508.65625 C 15.8125 508.65625 16.519531 508.695312 17.269531 508.695312 C 18.019531 508.695312 18.8125 508.738281 19.5625 508.738281 C 19.8125 508.738281 20.144531 508.738281 20.144531 508.195312 C 20.144531 507.90625 19.9375 507.90625 19.226562 507.90625 C 18.601562 507.90625 18.226562 507.90625 17.5625 507.863281 C 16.769531 507.78125 16.5625 507.695312 16.5625 507.28125 C 16.5625 507.238281 16.5625 507.113281 16.6875 506.738281 Z M 20.1875 492.613281 "/>
<path fill-rule="nonzero" fill="rgb(0%, 0%, 0%)" fill-opacity="1" d="M 30.585938 500.890625 C 30.585938 500.390625 30.585938 500.390625 30.046875 500.390625 C 28.835938 501.554688 27.171875 501.554688 26.421875 501.554688 L 26.421875 502.222656 C 26.835938 502.222656 28.085938 502.222656 29.085938 501.722656 L 29.085938 511.179688 C 29.085938 511.804688 29.085938 512.054688 27.253906 512.054688 L 26.546875 512.054688 L 26.546875 512.722656 C 26.878906 512.722656 29.171875 512.640625 29.835938 512.640625 C 30.421875 512.640625 32.753906 512.722656 33.171875 512.722656 L 33.171875 512.054688 L 32.460938 512.054688 C 30.585938 512.054688 30.585938 511.804688 30.585938 511.179688 Z M 30.585938 500.890625 "/>
<path fill-rule="nonzero" fill="rgb(0%, 0%, 0%)" fill-opacity="1" d="M 744.019531 492.613281 C 744.226562 491.863281 744.308594 491.695312 744.644531 491.613281 C 744.894531 491.570312 745.769531 491.570312 746.308594 491.570312 C 749.019531 491.570312 750.183594 491.65625 750.183594 493.738281 C 750.183594 494.15625 750.101562 495.195312 749.976562 495.863281 C 749.976562 495.988281 749.894531 496.28125 749.894531 496.363281 C 749.894531 496.53125 749.976562 496.738281 750.226562 496.738281 C 750.519531 496.738281 750.558594 496.53125 750.644531 496.113281 L 751.351562 491.488281 C 751.394531 491.363281 751.394531 491.113281 751.394531 491.03125 C 751.394531 490.738281 751.144531 490.738281 750.683594 490.738281 L 735.933594 490.738281 C 735.308594 490.738281 735.269531 490.78125 735.058594 491.28125 L 733.476562 495.945312 C 733.476562 495.988281 733.308594 496.363281 733.308594 496.445312 C 733.308594 496.570312 733.476562 496.738281 733.644531 496.738281 C 733.894531 496.738281 733.933594 496.570312 734.101562 496.15625 C 735.519531 492.03125 736.226562 491.570312 740.144531 491.570312 L 741.183594 491.570312 C 741.933594 491.570312 741.933594 491.65625 741.933594 491.90625 C 741.933594 492.03125 741.851562 492.363281 741.808594 492.445312 L 738.269531 506.65625 C 738.019531 507.613281 737.933594 507.90625 735.101562 507.90625 C 734.144531 507.90625 733.976562 507.90625 733.976562 508.40625 C 733.976562 508.738281 734.269531 508.738281 734.433594 508.738281 C 735.144531 508.738281 735.894531 508.695312 736.601562 508.695312 C 737.351562 508.695312 738.144531 508.65625 738.894531 508.65625 C 739.644531 508.65625 740.351562 508.695312 741.101562 508.695312 C 741.851562 508.695312 742.644531 508.738281 743.394531 508.738281 C 743.644531 508.738281 743.976562 508.738281 743.976562 508.195312 C 743.976562 507.90625 743.769531 507.90625 743.058594 507.90625 C 742.433594 507.90625 742.058594 507.90625 741.394531 507.863281 C 740.601562 507.78125 740.394531 507.695312 740.394531 507.28125 C 740.394531 507.238281 740.394531 507.113281 740.519531 506.738281 Z M 744.019531 492.613281 "/>
<path fill-rule="nonzero" fill="rgb(0%, 0%, 0%)" fill-opacity="1" d="M 757.585938 509.347656 L 756.960938 509.347656 C 756.917969 509.765625 756.710938 510.847656 756.460938 511.015625 C 756.335938 511.140625 754.917969 511.140625 754.628906 511.140625 L 751.210938 511.140625 C 753.167969 509.429688 753.835938 508.890625 754.917969 508.015625 C 756.292969 506.929688 757.585938 505.765625 757.585938 504.015625 C 757.585938 501.765625 755.628906 500.390625 753.253906 500.390625 C 750.960938 500.390625 749.378906 502.015625 749.378906 503.722656 C 749.378906 504.640625 750.167969 504.765625 750.378906 504.765625 C 750.792969 504.765625 751.335938 504.429688 751.335938 503.765625 C 751.335938 503.429688 751.210938 502.765625 750.253906 502.765625 C 750.835938 501.472656 752.085938 501.054688 752.960938 501.054688 C 754.835938 501.054688 755.792969 502.515625 755.792969 504.015625 C 755.792969 505.640625 754.628906 506.890625 754.042969 507.554688 L 749.585938 512.015625 C 749.378906 512.179688 749.378906 512.222656 749.378906 512.722656 L 757.042969 512.722656 Z M 757.585938 509.347656 "/>
<path fill-rule="nonzero" fill="rgb(0%, 0%, 0%)" fill-opacity="1" d="M 246.960938 99.839844 C 247.171875 99.089844 247.253906 98.921875 247.585938 98.839844 C 247.835938 98.796875 248.710938 98.796875 249.253906 98.796875 C 251.960938 98.796875 253.128906 98.882812 253.128906 100.964844 C 253.128906 101.382812 253.046875 102.421875 252.921875 103.089844 C 252.921875 103.214844 252.835938 103.507812 252.835938 103.589844 C 252.835938 103.757812 252.921875 103.964844 253.171875 103.964844 C 253.460938 103.964844 253.503906 103.757812 253.585938 103.339844 L 254.296875 98.714844 C 254.335938 98.589844 254.335938 98.339844 254.335938 98.257812 C 254.335938 97.964844 254.085938 97.964844 253.628906 97.964844 L 238.878906 97.964844 C 238.253906 97.964844 238.210938 98.007812 238.003906 98.507812 L 236.421875 103.171875 C 236.421875 103.214844 236.253906 103.589844 236.253906 103.671875 C 236.253906 103.796875 236.421875 103.964844 236.585938 103.964844 C 236.835938 103.964844 236.878906 103.796875 237.046875 103.382812 C 238.460938 99.257812 239.171875 98.796875 243.085938 98.796875 L 244.128906 98.796875 C 244.878906 98.796875 244.878906 98.882812 244.878906 99.132812 C 244.878906 99.257812 244.796875 99.589844 244.753906 99.671875 L 241.210938 113.882812 C 240.960938 114.839844 240.878906 115.132812 238.046875 115.132812 C 237.085938 115.132812 236.921875 115.132812 236.921875 115.632812 C 236.921875 115.964844 237.210938 115.964844 237.378906 115.964844 C 238.085938 115.964844 238.835938 115.921875 239.546875 115.921875 C 240.296875 115.921875 241.085938 115.882812 241.835938 115.882812 C 242.585938 115.882812 243.296875 115.921875 244.046875 115.921875 C 244.796875 115.921875 245.585938 115.964844 246.335938 115.964844 C 246.585938 115.964844 246.921875 115.964844 246.921875 115.421875 C 246.921875 115.132812 246.710938 115.132812 246.003906 115.132812 C 245.378906 115.132812 245.003906 115.132812 244.335938 115.089844 C 243.546875 115.007812 243.335938 114.921875 243.335938 114.507812 C 243.335938 114.464844 243.335938 114.339844 243.460938 113.964844 Z M 246.960938 99.839844 "/>
<path fill-rule="nonzero" fill="rgb(0%, 0%, 0%)" fill-opacity="1" d="M 256.238281 113.742188 C 257.695312 113.742188 258.738281 114.742188 258.738281 116.742188 C 258.738281 119.03125 257.363281 119.742188 256.320312 119.742188 C 255.570312 119.742188 253.90625 119.53125 253.15625 118.40625 C 254.03125 118.40625 254.238281 117.78125 254.238281 117.367188 C 254.238281 116.78125 253.78125 116.367188 253.195312 116.367188 C 252.695312 116.367188 252.15625 116.699219 252.15625 117.449219 C 252.15625 119.199219 254.070312 120.324219 256.320312 120.324219 C 258.90625 120.324219 260.695312 118.574219 260.695312 116.742188 C 260.695312 115.28125 259.53125 113.824219 257.488281 113.40625 C 259.40625 112.699219 260.113281 111.324219 260.113281 110.15625 C 260.113281 108.699219 258.445312 107.617188 256.363281 107.617188 C 254.320312 107.617188 252.738281 108.617188 252.738281 110.117188 C 252.738281 110.742188 253.15625 111.074219 253.695312 111.074219 C 254.28125 111.074219 254.65625 110.65625 254.65625 110.15625 C 254.65625 109.617188 254.28125 109.199219 253.695312 109.15625 C 254.363281 108.367188 255.613281 108.15625 256.320312 108.15625 C 257.15625 108.15625 258.320312 108.574219 258.320312 110.15625 C 258.320312 110.949219 258.070312 111.824219 257.570312 112.367188 C 256.988281 113.074219 256.445312 113.117188 255.53125 113.199219 C 255.070312 113.242188 255.03125 113.242188 254.945312 113.242188 C 254.90625 113.242188 254.738281 113.28125 254.738281 113.492188 C 254.738281 113.742188 254.90625 113.742188 255.238281 113.742188 Z M 256.238281 113.742188 "/>
<path fill-rule="nonzero" fill="rgb(50.196078%, 50.196078%, 50.196078%)" fill-opacity="1" d="M 687.46875 429.207031 C 687.46875 427.125 685.792969 425.449219 683.71875 425.449219 C 681.644531 425.449219 679.957031 427.125 679.957031 429.207031 C 679.957031 431.28125 681.644531 432.957031 683.71875 432.957031 C 685.792969 432.957031 687.46875 431.28125 687.46875 429.207031 Z M 687.46875 429.207031 "/>
<path fill-rule="nonzero" fill="rgb(0%, 0%, 0%)" fill-opacity="1" d="M 708.332031 403.1875 C 708.332031 401.730469 707.621094 401.3125 707.164062 401.3125 C 706.496094 401.3125 705.832031 402.023438 705.832031 402.605469 C 705.832031 402.9375 705.957031 403.105469 706.246094 403.398438 C 706.832031 403.9375 707.164062 404.605469 707.164062 405.5625 C 707.164062 406.6875 705.539062 412.773438 702.457031 412.773438 C 701.082031 412.773438 700.457031 411.855469 700.457031 410.4375 C 700.457031 408.980469 701.207031 407.023438 701.996094 404.8125 C 702.207031 404.355469 702.332031 403.980469 702.332031 403.480469 C 702.332031 402.3125 701.496094 401.3125 700.164062 401.3125 C 697.664062 401.3125 696.664062 405.1875 696.664062 405.398438 C 696.664062 405.6875 696.914062 405.6875 696.957031 405.6875 C 697.246094 405.6875 697.246094 405.605469 697.371094 405.1875 C 698.164062 402.523438 699.289062 401.898438 700.082031 401.898438 C 700.289062 401.898438 700.746094 401.898438 700.746094 402.730469 C 700.746094 403.398438 700.457031 404.148438 700.289062 404.605469 C 699.121094 407.6875 698.789062 408.898438 698.789062 410.0625 C 698.789062 412.9375 701.121094 413.355469 702.332031 413.355469 C 706.789062 413.355469 708.332031 404.5625 708.332031 403.1875 Z M 708.332031 403.1875 "/>
<path fill-rule="nonzero" fill="rgb(0%, 0%, 0%)" fill-opacity="1" d="M 718.125 413.671875 L 717.5 413.671875 C 717.457031 414.089844 717.25 415.171875 717 415.339844 C 716.875 415.464844 715.457031 415.464844 715.164062 415.464844 L 711.75 415.464844 C 713.707031 413.757812 714.375 413.214844 715.457031 412.339844 C 716.832031 411.257812 718.125 410.089844 718.125 408.339844 C 718.125 406.089844 716.164062 404.714844 713.789062 404.714844 C 711.5 404.714844 709.914062 406.339844 709.914062 408.046875 C 709.914062 408.964844 710.707031 409.089844 710.914062 409.089844 C 711.332031 409.089844 711.875 408.757812 711.875 408.089844 C 711.875 407.757812 711.75 407.089844 710.789062 407.089844 C 711.375 405.796875 712.625 405.382812 713.5 405.382812 C 715.375 405.382812 716.332031 406.839844 716.332031 408.339844 C 716.332031 409.964844 715.164062 411.214844 714.582031 411.882812 L 710.125 416.339844 C 709.914062 416.507812 709.914062 416.546875 709.914062 417.046875 L 717.582031 417.046875 Z M 718.125 413.671875 "/>
<path fill-rule="nonzero" fill="rgb(0%, 0%, 0%)" fill-opacity="1" d="M 725.539062 405.214844 C 725.539062 404.714844 725.539062 404.714844 724.996094 404.714844 C 723.789062 405.882812 722.121094 405.882812 721.371094 405.882812 L 721.371094 406.546875 C 721.789062 406.546875 723.039062 406.546875 724.039062 406.046875 L 724.039062 415.507812 C 724.039062 416.132812 724.039062 416.382812 722.207031 416.382812 L 721.496094 416.382812 L 721.496094 417.046875 C 721.832031 417.046875 724.121094 416.964844 724.789062 416.964844 C 725.371094 416.964844 727.707031 417.046875 728.121094 417.046875 L 728.121094 416.382812 L 727.414062 416.382812 C 725.539062 416.382812 725.539062 416.132812 725.539062 415.507812 Z M 725.539062 405.214844 "/>
<path fill-rule="nonzero" fill="rgb(50.196078%, 50.196078%, 50.196078%)" fill-opacity="1" d="M 687.46875 574.105469 C 687.46875 572.03125 685.792969 570.34375 683.71875 570.34375 C 681.644531 570.34375 679.957031 572.03125 679.957031 574.105469 C 679.957031 576.175781 681.644531 577.863281 683.71875 577.863281 C 685.792969 577.863281 687.46875 576.175781 687.46875 574.105469 Z M 687.46875 574.105469 "/>
<path fill-rule="nonzero" fill="rgb(0%, 0%, 0%)" fill-opacity="1" d="M 708.332031 587.820312 C 708.332031 586.363281 707.621094 585.945312 707.164062 585.945312 C 706.496094 585.945312 705.832031 586.65625 705.832031 587.238281 C 705.832031 587.570312 705.957031 587.738281 706.246094 588.03125 C 706.832031 588.570312 707.164062 589.238281 707.164062 590.195312 C 707.164062 591.320312 705.539062 597.40625 702.457031 597.40625 C 701.082031 597.40625 700.457031 596.488281 700.457031 595.070312 C 700.457031 593.613281 701.207031 591.65625 701.996094 589.445312 C 702.207031 588.988281 702.332031 588.613281 702.332031 588.113281 C 702.332031 586.945312 701.496094 585.945312 700.164062 585.945312 C 697.664062 585.945312 696.664062 589.820312 696.664062 590.03125 C 696.664062 590.320312 696.914062 590.320312 696.957031 590.320312 C 697.246094 590.320312 697.246094 590.238281 697.371094 589.820312 C 698.164062 587.15625 699.289062 586.53125 700.082031 586.53125 C 700.289062 586.53125 700.746094 586.53125 700.746094 587.363281 C 700.746094 588.03125 700.457031 588.78125 700.289062 589.238281 C 699.121094 592.320312 698.789062 593.53125 698.789062 594.695312 C 698.789062 597.570312 701.121094 597.988281 702.332031 597.988281 C 706.789062 597.988281 708.332031 589.195312 708.332031 587.820312 Z M 708.332031 587.820312 "/>
<path fill-rule="nonzero" fill="rgb(0%, 0%, 0%)" fill-opacity="1" d="M 718.125 598.304688 L 717.5 598.304688 C 717.457031 598.722656 717.25 599.804688 717 599.972656 C 716.875 600.097656 715.457031 600.097656 715.164062 600.097656 L 711.75 600.097656 C 713.707031 598.386719 714.375 597.847656 715.457031 596.972656 C 716.832031 595.886719 718.125 594.722656 718.125 592.972656 C 718.125 590.722656 716.164062 589.347656 713.789062 589.347656 C 711.5 589.347656 709.914062 590.972656 709.914062 592.679688 C 709.914062 593.597656 710.707031 593.722656 710.914062 593.722656 C 711.332031 593.722656 711.875 593.386719 711.875 592.722656 C 711.875 592.386719 711.75 591.722656 710.789062 591.722656 C 711.375 590.429688 712.625 590.011719 713.5 590.011719 C 715.375 590.011719 716.332031 591.472656 716.332031 592.972656 C 716.332031 594.597656 715.164062 595.847656 714.582031 596.511719 L 710.125 600.972656 C 709.914062 601.136719 709.914062 601.179688 709.914062 601.679688 L 717.582031 601.679688 Z M 718.125 598.304688 "/>
<path fill-rule="nonzero" fill="rgb(0%, 0%, 0%)" fill-opacity="1" d="M 728.707031 598.304688 L 728.082031 598.304688 C 728.039062 598.722656 727.832031 599.804688 727.582031 599.972656 C 727.457031 600.097656 726.039062 600.097656 725.746094 600.097656 L 722.332031 600.097656 C 724.289062 598.386719 724.957031 597.847656 726.039062 596.972656 C 727.414062 595.886719 728.707031 594.722656 728.707031 592.972656 C 728.707031 590.722656 726.746094 589.347656 724.371094 589.347656 C 722.082031 589.347656 720.496094 590.972656 720.496094 592.679688 C 720.496094 593.597656 721.289062 593.722656 721.496094 593.722656 C 721.914062 593.722656 722.457031 593.386719 722.457031 592.722656 C 722.457031 592.386719 722.332031 591.722656 721.371094 591.722656 C 721.957031 590.429688 723.207031 590.011719 724.082031 590.011719 C 725.957031 590.011719 726.914062 591.472656 726.914062 592.972656 C 726.914062 594.597656 725.746094 595.847656 725.164062 596.511719 L 720.707031 600.972656 C 720.496094 601.136719 720.496094 601.179688 720.496094 601.679688 L 728.164062 601.679688 Z M 728.707031 598.304688 "/>
<path fill-rule="nonzero" fill="rgb(50.196078%, 50.196078%, 50.196078%)" fill-opacity="1" d="M 542.574219 574.105469 C 542.574219 572.03125 540.894531 570.34375 538.8125 570.34375 C 536.738281 570.34375 535.0625 572.03125 535.0625 574.105469 C 535.0625 576.175781 536.738281 577.863281 538.8125 577.863281 C 540.894531 577.863281 542.574219 576.175781 542.574219 574.105469 Z M 542.574219 574.105469 "/>
<path fill-rule="nonzero" fill="rgb(0%, 0%, 0%)" fill-opacity="1" d="M 503.734375 587.820312 C 503.734375 586.363281 503.023438 585.945312 502.566406 585.945312 C 501.898438 585.945312 501.234375 586.65625 501.234375 587.238281 C 501.234375 587.570312 501.359375 587.738281 501.648438 588.03125 C 502.234375 588.570312 502.566406 589.238281 502.566406 590.195312 C 502.566406 591.320312 500.941406 597.40625 497.859375 597.40625 C 496.484375 597.40625 495.859375 596.488281 495.859375 595.070312 C 495.859375 593.613281 496.609375 591.65625 497.398438 589.445312 C 497.609375 588.988281 497.734375 588.613281 497.734375 588.113281 C 497.734375 586.945312 496.898438 585.945312 495.566406 585.945312 C 493.066406 585.945312 492.066406 589.820312 492.066406 590.03125 C 492.066406 590.320312 492.316406 590.320312 492.359375 590.320312 C 492.648438 590.320312 492.648438 590.238281 492.773438 589.820312 C 493.566406 587.15625 494.691406 586.53125 495.484375 586.53125 C 495.691406 586.53125 496.148438 586.53125 496.148438 587.363281 C 496.148438 588.03125 495.859375 588.78125 495.691406 589.238281 C 494.523438 592.320312 494.191406 593.53125 494.191406 594.695312 C 494.191406 597.570312 496.523438 597.988281 497.734375 597.988281 C 502.191406 597.988281 503.734375 589.195312 503.734375 587.820312 Z M 503.734375 587.820312 "/>
<path fill-rule="nonzero" fill="rgb(0%, 0%, 0%)" fill-opacity="1" d="M 513.527344 598.304688 L 512.902344 598.304688 C 512.859375 598.722656 512.652344 599.804688 512.402344 599.972656 C 512.277344 600.097656 510.859375 600.097656 510.570312 600.097656 L 507.152344 600.097656 C 509.109375 598.386719 509.777344 597.847656 510.859375 596.972656 C 512.234375 595.886719 513.527344 594.722656 513.527344 592.972656 C 513.527344 590.722656 511.570312 589.347656 509.195312 589.347656 C 506.902344 589.347656 505.320312 590.972656 505.320312 592.679688 C 505.320312 593.597656 506.109375 593.722656 506.320312 593.722656 C 506.734375 593.722656 507.277344 593.386719 507.277344 592.722656 C 507.277344 592.386719 507.152344 591.722656 506.195312 591.722656 C 506.777344 590.429688 508.027344 590.011719 508.902344 590.011719 C 510.777344 590.011719 511.734375 591.472656 511.734375 592.972656 C 511.734375 594.597656 510.570312 595.847656 509.984375 596.511719 L 505.527344 600.972656 C 505.320312 601.136719 505.320312 601.179688 505.320312 601.679688 L 512.984375 601.679688 Z M 513.527344 598.304688 "/>
<path fill-rule="nonzero" fill="rgb(0%, 0%, 0%)" fill-opacity="1" d="M 519.816406 595.472656 C 521.273438 595.472656 522.316406 596.472656 522.316406 598.472656 C 522.316406 600.761719 520.941406 601.472656 519.898438 601.472656 C 519.148438 601.472656 517.484375 601.261719 516.734375 600.136719 C 517.609375 600.136719 517.816406 599.511719 517.816406 599.097656 C 517.816406 598.511719 517.359375 598.097656 516.773438 598.097656 C 516.273438 598.097656 515.734375 598.429688 515.734375 599.179688 C 515.734375 600.929688 517.648438 602.054688 519.898438 602.054688 C 522.484375 602.054688 524.273438 600.304688 524.273438 598.472656 C 524.273438 597.011719 523.109375 595.554688 521.066406 595.136719 C 522.984375 594.429688 523.691406 593.054688 523.691406 591.886719 C 523.691406 590.429688 522.023438 589.347656 519.941406 589.347656 C 517.898438 589.347656 516.316406 590.347656 516.316406 591.847656 C 516.316406 592.472656 516.734375 592.804688 517.273438 592.804688 C 517.859375 592.804688 518.234375 592.386719 518.234375 591.886719 C 518.234375 591.347656 517.859375 590.929688 517.273438 590.886719 C 517.941406 590.097656 519.191406 589.886719 519.898438 589.886719 C 520.734375 589.886719 521.898438 590.304688 521.898438 591.886719 C 521.898438 592.679688 521.648438 593.554688 521.148438 594.097656 C 520.566406 594.804688 520.023438 594.847656 519.109375 594.929688 C 518.648438 594.972656 518.609375 594.972656 518.523438 594.972656 C 518.484375 594.972656 518.316406 595.011719 518.316406 595.222656 C 518.316406 595.472656 518.484375 595.472656 518.816406 595.472656 Z M 519.816406 595.472656 "/>
<path fill-rule="nonzero" fill="rgb(50.196078%, 50.196078%, 50.196078%)" fill-opacity="1" d="M 542.574219 429.207031 C 542.574219 427.125 540.894531 425.449219 538.8125 425.449219 C 536.738281 425.449219 535.0625 427.125 535.0625 429.207031 C 535.0625 431.28125 536.738281 432.957031 538.8125 432.957031 C 540.894531 432.957031 542.574219 431.28125 542.574219 429.207031 Z M 542.574219 429.207031 "/>
<path fill-rule="nonzero" fill="rgb(0%, 0%, 0%)" fill-opacity="1" d="M 503.734375 403.1875 C 503.734375 401.730469 503.023438 401.3125 502.566406 401.3125 C 501.898438 401.3125 501.234375 402.023438 501.234375 402.605469 C 501.234375 402.9375 501.359375 403.105469 501.648438 403.398438 C 502.234375 403.9375 502.566406 404.605469 502.566406 405.5625 C 502.566406 406.6875 500.941406 412.773438 497.859375 412.773438 C 496.484375 412.773438 495.859375 411.855469 495.859375 410.4375 C 495.859375 408.980469 496.609375 407.023438 497.398438 404.8125 C 497.609375 404.355469 497.734375 403.980469 497.734375 403.480469 C 497.734375 402.3125 496.898438 401.3125 495.566406 401.3125 C 493.066406 401.3125 492.066406 405.1875 492.066406 405.398438 C 492.066406 405.6875 492.316406 405.6875 492.359375 405.6875 C 492.648438 405.6875 492.648438 405.605469 492.773438 405.1875 C 493.566406 402.523438 494.691406 401.898438 495.484375 401.898438 C 495.691406 401.898438 496.148438 401.898438 496.148438 402.730469 C 496.148438 403.398438 495.859375 404.148438 495.691406 404.605469 C 494.523438 407.6875 494.191406 408.898438 494.191406 410.0625 C 494.191406 412.9375 496.523438 413.355469 497.734375 413.355469 C 502.191406 413.355469 503.734375 404.5625 503.734375 403.1875 Z M 503.734375 403.1875 "/>
<path fill-rule="nonzero" fill="rgb(0%, 0%, 0%)" fill-opacity="1" d="M 513.527344 413.671875 L 512.902344 413.671875 C 512.859375 414.089844 512.652344 415.171875 512.402344 415.339844 C 512.277344 415.464844 510.859375 415.464844 510.570312 415.464844 L 507.152344 415.464844 C 509.109375 413.757812 509.777344 413.214844 510.859375 412.339844 C 512.234375 411.257812 513.527344 410.089844 513.527344 408.339844 C 513.527344 406.089844 511.570312 404.714844 509.195312 404.714844 C 506.902344 404.714844 505.320312 406.339844 505.320312 408.046875 C 505.320312 408.964844 506.109375 409.089844 506.320312 409.089844 C 506.734375 409.089844 507.277344 408.757812 507.277344 408.089844 C 507.277344 407.757812 507.152344 407.089844 506.195312 407.089844 C 506.777344 405.796875 508.027344 405.382812 508.902344 405.382812 C 510.777344 405.382812 511.734375 406.839844 511.734375 408.339844 C 511.734375 409.964844 510.570312 411.214844 509.984375 411.882812 L 505.527344 416.339844 C 505.320312 416.507812 505.320312 416.546875 505.320312 417.046875 L 512.984375 417.046875 Z M 513.527344 413.671875 "/>
<path fill-rule="nonzero" fill="rgb(0%, 0%, 0%)" fill-opacity="1" d="M 524.566406 414.007812 L 524.566406 413.339844 L 522.484375 413.339844 L 522.484375 405.046875 C 522.484375 404.671875 522.484375 404.507812 522.109375 404.507812 C 521.859375 404.507812 521.773438 404.507812 521.609375 404.796875 L 515.441406 413.339844 L 515.441406 414.007812 L 520.941406 414.007812 L 520.941406 415.507812 C 520.941406 416.171875 520.941406 416.382812 519.398438 416.382812 L 518.898438 416.382812 L 518.898438 417.046875 C 519.859375 417.007812 521.023438 416.964844 521.691406 416.964844 C 522.398438 416.964844 523.566406 417.007812 524.523438 417.046875 L 524.523438 416.382812 L 524.023438 416.382812 C 522.484375 416.382812 522.484375 416.171875 522.484375 415.507812 L 522.484375 414.007812 Z M 521.066406 406.546875 L 521.066406 413.339844 L 516.148438 413.339844 Z M 521.066406 406.546875 "/>
<path fill-rule="nonzero" fill="rgb(50.196078%, 50.196078%, 50.196078%)" fill-opacity="1" d="M 460.699219 36.425781 C 460.699219 34.355469 459.019531 32.675781 456.9375 32.675781 C 454.863281 32.675781 453.1875 34.355469 453.1875 36.425781 C 453.1875 38.511719 454.863281 40.1875 456.9375 40.1875 C 459.019531 40.1875 460.699219 38.511719 460.699219 36.425781 Z M 460.699219 36.425781 "/>
<path fill-rule="nonzero" fill="rgb(0%, 0%, 0%)" fill-opacity="1" d="M 481.554688 10.414062 C 481.554688 8.957031 480.847656 8.539062 480.386719 8.539062 C 479.722656 8.539062 479.054688 9.25 479.054688 9.832031 C 479.054688 10.164062 479.179688 10.332031 479.472656 10.625 C 480.054688 11.164062 480.386719 11.832031 480.386719 12.789062 C 480.386719 13.914062 478.761719 20 475.679688 20 C 474.304688 20 473.679688 19.082031 473.679688 17.664062 C 473.679688 16.207031 474.429688 14.25 475.222656 12.039062 C 475.429688 11.582031 475.554688 11.207031 475.554688 10.707031 C 475.554688 9.539062 474.722656 8.539062 473.386719 8.539062 C 470.886719 8.539062 469.886719 12.414062 469.886719 12.625 C 469.886719 12.914062 470.136719 12.914062 470.179688 12.914062 C 470.472656 12.914062 470.472656 12.832031 470.597656 12.414062 C 471.386719 9.75 472.511719 9.125 473.304688 9.125 C 473.511719 9.125 473.972656 9.125 473.972656 9.957031 C 473.972656 10.625 473.679688 11.375 473.511719 11.832031 C 472.347656 14.914062 472.011719 16.125 472.011719 17.289062 C 472.011719 20.164062 474.347656 20.582031 475.554688 20.582031 C 480.011719 20.582031 481.554688 11.789062 481.554688 10.414062 Z M 481.554688 10.414062 "/>
<path fill-rule="nonzero" fill="rgb(0%, 0%, 0%)" fill-opacity="1" d="M 487.058594 18.066406 C 488.515625 18.066406 489.558594 19.066406 489.558594 21.066406 C 489.558594 23.359375 488.183594 24.066406 487.140625 24.066406 C 486.390625 24.066406 484.722656 23.859375 483.972656 22.734375 C 484.847656 22.734375 485.058594 22.109375 485.058594 21.691406 C 485.058594 21.109375 484.597656 20.691406 484.015625 20.691406 C 483.515625 20.691406 482.972656 21.023438 482.972656 21.773438 C 482.972656 23.523438 484.890625 24.648438 487.140625 24.648438 C 489.722656 24.648438 491.515625 22.898438 491.515625 21.066406 C 491.515625 19.609375 490.347656 18.148438 488.308594 17.734375 C 490.222656 17.023438 490.933594 15.648438 490.933594 14.484375 C 490.933594 13.023438 489.265625 11.941406 487.183594 11.941406 C 485.140625 11.941406 483.558594 12.941406 483.558594 14.441406 C 483.558594 15.066406 483.972656 15.398438 484.515625 15.398438 C 485.097656 15.398438 485.472656 14.984375 485.472656 14.484375 C 485.472656 13.941406 485.097656 13.523438 484.515625 13.484375 C 485.183594 12.691406 486.433594 12.484375 487.140625 12.484375 C 487.972656 12.484375 489.140625 12.898438 489.140625 14.484375 C 489.140625 15.273438 488.890625 16.148438 488.390625 16.691406 C 487.808594 17.398438 487.265625 17.441406 486.347656 17.523438 C 485.890625 17.566406 485.847656 17.566406 485.765625 17.566406 C 485.722656 17.566406 485.558594 17.609375 485.558594 17.816406 C 485.558594 18.066406 485.722656 18.066406 486.058594 18.066406 Z M 487.058594 18.066406 "/>
<path fill-rule="nonzero" fill="rgb(0%, 0%, 0%)" fill-opacity="1" d="M 498.761719 12.441406 C 498.761719 11.941406 498.761719 11.941406 498.222656 11.941406 C 497.011719 13.109375 495.347656 13.109375 494.597656 13.109375 L 494.597656 13.773438 C 495.011719 13.773438 496.261719 13.773438 497.261719 13.273438 L 497.261719 22.734375 C 497.261719 23.359375 497.261719 23.609375 495.429688 23.609375 L 494.722656 23.609375 L 494.722656 24.273438 C 495.054688 24.273438 497.347656 24.191406 498.011719 24.191406 C 498.597656 24.191406 500.929688 24.273438 501.347656 24.273438 L 501.347656 23.609375 L 500.636719 23.609375 C 498.761719 23.609375 498.761719 23.359375 498.761719 22.734375 Z M 498.761719 12.441406 "/>
<path fill-rule="nonzero" fill="rgb(50.196078%, 50.196078%, 50.196078%)" fill-opacity="1" d="M 460.699219 181.332031 C 460.699219 179.261719 459.019531 177.574219 456.9375 177.574219 C 454.863281 177.574219 453.1875 179.261719 453.1875 181.332031 C 453.1875 183.40625 454.863281 185.082031 456.9375 185.082031 C 459.019531 185.082031 460.699219 183.40625 460.699219 181.332031 Z M 460.699219 181.332031 "/>
<path fill-rule="nonzero" fill="rgb(0%, 0%, 0%)" fill-opacity="1" d="M 481.554688 195.050781 C 481.554688 193.59375 480.847656 193.175781 480.386719 193.175781 C 479.722656 193.175781 479.054688 193.882812 479.054688 194.46875 C 479.054688 194.800781 479.179688 194.96875 479.472656 195.257812 C 480.054688 195.800781 480.386719 196.46875 480.386719 197.425781 C 480.386719 198.550781 478.761719 204.632812 475.679688 204.632812 C 474.304688 204.632812 473.679688 203.71875 473.679688 202.300781 C 473.679688 200.84375 474.429688 198.882812 475.222656 196.675781 C 475.429688 196.21875 475.554688 195.84375 475.554688 195.34375 C 475.554688 194.175781 474.722656 193.175781 473.386719 193.175781 C 470.886719 193.175781 469.886719 197.050781 469.886719 197.257812 C 469.886719 197.550781 470.136719 197.550781 470.179688 197.550781 C 470.472656 197.550781 470.472656 197.46875 470.597656 197.050781 C 471.386719 194.382812 472.511719 193.757812 473.304688 193.757812 C 473.511719 193.757812 473.972656 193.757812 473.972656 194.59375 C 473.972656 195.257812 473.679688 196.007812 473.511719 196.46875 C 472.347656 199.550781 472.011719 200.757812 472.011719 201.925781 C 472.011719 204.800781 474.347656 205.21875 475.554688 205.21875 C 480.011719 205.21875 481.554688 196.425781 481.554688 195.050781 Z M 481.554688 195.050781 "/>
<path fill-rule="nonzero" fill="rgb(0%, 0%, 0%)" fill-opacity="1" d="M 487.058594 202.699219 C 488.515625 202.699219 489.558594 203.699219 489.558594 205.699219 C 489.558594 207.992188 488.183594 208.699219 487.140625 208.699219 C 486.390625 208.699219 484.722656 208.492188 483.972656 207.367188 C 484.847656 207.367188 485.058594 206.742188 485.058594 206.324219 C 485.058594 205.742188 484.597656 205.324219 484.015625 205.324219 C 483.515625 205.324219 482.972656 205.660156 482.972656 206.410156 C 482.972656 208.160156 484.890625 209.285156 487.140625 209.285156 C 489.722656 209.285156 491.515625 207.535156 491.515625 205.699219 C 491.515625 204.242188 490.347656 202.785156 488.308594 202.367188 C 490.222656 201.660156 490.933594 200.285156 490.933594 199.117188 C 490.933594 197.660156 489.265625 196.574219 487.183594 196.574219 C 485.140625 196.574219 483.558594 197.574219 483.558594 199.074219 C 483.558594 199.699219 483.972656 200.035156 484.515625 200.035156 C 485.097656 200.035156 485.472656 199.617188 485.472656 199.117188 C 485.472656 198.574219 485.097656 198.160156 484.515625 198.117188 C 485.183594 197.324219 486.433594 197.117188 487.140625 197.117188 C 487.972656 197.117188 489.140625 197.535156 489.140625 199.117188 C 489.140625 199.910156 488.890625 200.785156 488.390625 201.324219 C 487.808594 202.035156 487.265625 202.074219 486.347656 202.160156 C 485.890625 202.199219 485.847656 202.199219 485.765625 202.199219 C 485.722656 202.199219 485.558594 202.242188 485.558594 202.449219 C 485.558594 202.699219 485.722656 202.699219 486.058594 202.699219 Z M 487.058594 202.699219 "/>
<path fill-rule="nonzero" fill="rgb(0%, 0%, 0%)" fill-opacity="1" d="M 501.929688 205.535156 L 501.304688 205.535156 C 501.261719 205.949219 501.054688 207.035156 500.804688 207.199219 C 500.679688 207.324219 499.261719 207.324219 498.972656 207.324219 L 495.554688 207.324219 C 497.511719 205.617188 498.179688 205.074219 499.261719 204.199219 C 500.636719 203.117188 501.929688 201.949219 501.929688 200.199219 C 501.929688 197.949219 499.972656 196.574219 497.597656 196.574219 C 495.304688 196.574219 493.722656 198.199219 493.722656 199.910156 C 493.722656 200.824219 494.511719 200.949219 494.722656 200.949219 C 495.136719 200.949219 495.679688 200.617188 495.679688 199.949219 C 495.679688 199.617188 495.554688 198.949219 494.597656 198.949219 C 495.179688 197.660156 496.429688 197.242188 497.304688 197.242188 C 499.179688 197.242188 500.136719 198.699219 500.136719 200.199219 C 500.136719 201.824219 498.972656 203.074219 498.386719 203.742188 L 493.929688 208.199219 C 493.722656 208.367188 493.722656 208.410156 493.722656 208.910156 L 501.386719 208.910156 Z M 501.929688 205.535156 "/>
<path fill-rule="nonzero" fill="rgb(50.196078%, 50.196078%, 50.196078%)" fill-opacity="1" d="M 315.800781 181.332031 C 315.800781 179.261719 314.113281 177.574219 312.042969 177.574219 C 309.96875 177.574219 308.28125 179.261719 308.28125 181.332031 C 308.28125 183.40625 309.96875 185.082031 312.042969 185.082031 C 314.113281 185.082031 315.800781 183.40625 315.800781 181.332031 Z M 315.800781 181.332031 "/>
<path fill-rule="nonzero" fill="rgb(0%, 0%, 0%)" fill-opacity="1" d="M 276.960938 195.050781 C 276.960938 193.59375 276.25 193.175781 275.792969 193.175781 C 275.125 193.175781 274.460938 193.882812 274.460938 194.46875 C 274.460938 194.800781 274.585938 194.96875 274.875 195.257812 C 275.460938 195.800781 275.792969 196.46875 275.792969 197.425781 C 275.792969 198.550781 274.167969 204.632812 271.085938 204.632812 C 269.710938 204.632812 269.085938 203.71875 269.085938 202.300781 C 269.085938 200.84375 269.835938 198.882812 270.625 196.675781 C 270.835938 196.21875 270.960938 195.84375 270.960938 195.34375 C 270.960938 194.175781 270.125 193.175781 268.792969 193.175781 C 266.292969 193.175781 265.292969 197.050781 265.292969 197.257812 C 265.292969 197.550781 265.542969 197.550781 265.585938 197.550781 C 265.875 197.550781 265.875 197.46875 266 197.050781 C 266.792969 194.382812 267.917969 193.757812 268.710938 193.757812 C 268.917969 193.757812 269.375 193.757812 269.375 194.59375 C 269.375 195.257812 269.085938 196.007812 268.917969 196.46875 C 267.75 199.550781 267.417969 200.757812 267.417969 201.925781 C 267.417969 204.800781 269.75 205.21875 270.960938 205.21875 C 275.417969 205.21875 276.960938 196.425781 276.960938 195.050781 Z M 276.960938 195.050781 "/>
<path fill-rule="nonzero" fill="rgb(0%, 0%, 0%)" fill-opacity="1" d="M 282.460938 202.699219 C 283.921875 202.699219 284.960938 203.699219 284.960938 205.699219 C 284.960938 207.992188 283.585938 208.699219 282.546875 208.699219 C 281.796875 208.699219 280.128906 208.492188 279.378906 207.367188 C 280.253906 207.367188 280.460938 206.742188 280.460938 206.324219 C 280.460938 205.742188 280.003906 205.324219 279.421875 205.324219 C 278.921875 205.324219 278.378906 205.660156 278.378906 206.410156 C 278.378906 208.160156 280.296875 209.285156 282.546875 209.285156 C 285.128906 209.285156 286.921875 207.535156 286.921875 205.699219 C 286.921875 204.242188 285.753906 202.785156 283.710938 202.367188 C 285.628906 201.660156 286.335938 200.285156 286.335938 199.117188 C 286.335938 197.660156 284.671875 196.574219 282.585938 196.574219 C 280.546875 196.574219 278.960938 197.574219 278.960938 199.074219 C 278.960938 199.699219 279.378906 200.035156 279.921875 200.035156 C 280.503906 200.035156 280.878906 199.617188 280.878906 199.117188 C 280.878906 198.574219 280.503906 198.160156 279.921875 198.117188 C 280.585938 197.324219 281.835938 197.117188 282.546875 197.117188 C 283.378906 197.117188 284.546875 197.535156 284.546875 199.117188 C 284.546875 199.910156 284.296875 200.785156 283.796875 201.324219 C 283.210938 202.035156 282.671875 202.074219 281.753906 202.160156 C 281.296875 202.199219 281.253906 202.199219 281.171875 202.199219 C 281.128906 202.199219 280.960938 202.242188 280.960938 202.449219 C 280.960938 202.699219 281.128906 202.699219 281.460938 202.699219 Z M 282.460938 202.699219 "/>
<path fill-rule="nonzero" fill="rgb(0%, 0%, 0%)" fill-opacity="1" d="M 293.042969 202.699219 C 294.5 202.699219 295.542969 203.699219 295.542969 205.699219 C 295.542969 207.992188 294.167969 208.699219 293.125 208.699219 C 292.375 208.699219 290.710938 208.492188 289.960938 207.367188 C 290.835938 207.367188 291.042969 206.742188 291.042969 206.324219 C 291.042969 205.742188 290.585938 205.324219 290 205.324219 C 289.5 205.324219 288.960938 205.660156 288.960938 206.410156 C 288.960938 208.160156 290.875 209.285156 293.125 209.285156 C 295.710938 209.285156 297.5 207.535156 297.5 205.699219 C 297.5 204.242188 296.335938 202.785156 294.292969 202.367188 C 296.210938 201.660156 296.917969 200.285156 296.917969 199.117188 C 296.917969 197.660156 295.25 196.574219 293.167969 196.574219 C 291.125 196.574219 289.542969 197.574219 289.542969 199.074219 C 289.542969 199.699219 289.960938 200.035156 290.5 200.035156 C 291.085938 200.035156 291.460938 199.617188 291.460938 199.117188 C 291.460938 198.574219 291.085938 198.160156 290.5 198.117188 C 291.167969 197.324219 292.417969 197.117188 293.125 197.117188 C 293.960938 197.117188 295.125 197.535156 295.125 199.117188 C 295.125 199.910156 294.875 200.785156 294.375 201.324219 C 293.792969 202.035156 293.25 202.074219 292.335938 202.160156 C 291.875 202.199219 291.835938 202.199219 291.75 202.199219 C 291.710938 202.199219 291.542969 202.242188 291.542969 202.449219 C 291.542969 202.699219 291.710938 202.699219 292.042969 202.699219 Z M 293.042969 202.699219 "/>
<path fill-rule="nonzero" fill="rgb(50.196078%, 50.196078%, 50.196078%)" fill-opacity="1" d="M 315.800781 36.425781 C 315.800781 34.355469 314.113281 32.675781 312.042969 32.675781 C 309.96875 32.675781 308.28125 34.355469 308.28125 36.425781 C 308.28125 38.511719 309.96875 40.1875 312.042969 40.1875 C 314.113281 40.1875 315.800781 38.511719 315.800781 36.425781 Z M 315.800781 36.425781 "/>
<path fill-rule="nonzero" fill="rgb(0%, 0%, 0%)" fill-opacity="1" d="M 276.960938 10.414062 C 276.960938 8.957031 276.25 8.539062 275.792969 8.539062 C 275.125 8.539062 274.460938 9.25 274.460938 9.832031 C 274.460938 10.164062 274.585938 10.332031 274.875 10.625 C 275.460938 11.164062 275.792969 11.832031 275.792969 12.789062 C 275.792969 13.914062 274.167969 20 271.085938 20 C 269.710938 20 269.085938 19.082031 269.085938 17.664062 C 269.085938 16.207031 269.835938 14.25 270.625 12.039062 C 270.835938 11.582031 270.960938 11.207031 270.960938 10.707031 C 270.960938 9.539062 270.125 8.539062 268.792969 8.539062 C 266.292969 8.539062 265.292969 12.414062 265.292969 12.625 C 265.292969 12.914062 265.542969 12.914062 265.585938 12.914062 C 265.875 12.914062 265.875 12.832031 266 12.414062 C 266.792969 9.75 267.917969 9.125 268.710938 9.125 C 268.917969 9.125 269.375 9.125 269.375 9.957031 C 269.375 10.625 269.085938 11.375 268.917969 11.832031 C 267.75 14.914062 267.417969 16.125 267.417969 17.289062 C 267.417969 20.164062 269.75 20.582031 270.960938 20.582031 C 275.417969 20.582031 276.960938 11.789062 276.960938 10.414062 Z M 276.960938 10.414062 "/>
<path fill-rule="nonzero" fill="rgb(0%, 0%, 0%)" fill-opacity="1" d="M 282.460938 18.066406 C 283.921875 18.066406 284.960938 19.066406 284.960938 21.066406 C 284.960938 23.359375 283.585938 24.066406 282.546875 24.066406 C 281.796875 24.066406 280.128906 23.859375 279.378906 22.734375 C 280.253906 22.734375 280.460938 22.109375 280.460938 21.691406 C 280.460938 21.109375 280.003906 20.691406 279.421875 20.691406 C 278.921875 20.691406 278.378906 21.023438 278.378906 21.773438 C 278.378906 23.523438 280.296875 24.648438 282.546875 24.648438 C 285.128906 24.648438 286.921875 22.898438 286.921875 21.066406 C 286.921875 19.609375 285.753906 18.148438 283.710938 17.734375 C 285.628906 17.023438 286.335938 15.648438 286.335938 14.484375 C 286.335938 13.023438 284.671875 11.941406 282.585938 11.941406 C 280.546875 11.941406 278.960938 12.941406 278.960938 14.441406 C 278.960938 15.066406 279.378906 15.398438 279.921875 15.398438 C 280.503906 15.398438 280.878906 14.984375 280.878906 14.484375 C 280.878906 13.941406 280.503906 13.523438 279.921875 13.484375 C 280.585938 12.691406 281.835938 12.484375 282.546875 12.484375 C 283.378906 12.484375 284.546875 12.898438 284.546875 14.484375 C 284.546875 15.273438 284.296875 16.148438 283.796875 16.691406 C 283.210938 17.398438 282.671875 17.441406 281.753906 17.523438 C 281.296875 17.566406 281.253906 17.566406 281.171875 17.566406 C 281.128906 17.566406 280.960938 17.609375 280.960938 17.816406 C 280.960938 18.066406 281.128906 18.066406 281.460938 18.066406 Z M 282.460938 18.066406 "/>
<path fill-rule="nonzero" fill="rgb(0%, 0%, 0%)" fill-opacity="1" d="M 297.792969 21.234375 L 297.792969 20.566406 L 295.710938 20.566406 L 295.710938 12.273438 C 295.710938 11.898438 295.710938 11.734375 295.335938 11.734375 C 295.085938 11.734375 295 11.734375 294.835938 12.023438 L 288.667969 20.566406 L 288.667969 21.234375 L 294.167969 21.234375 L 294.167969 22.734375 C 294.167969 23.398438 294.167969 23.609375 292.625 23.609375 L 292.125 23.609375 L 292.125 24.273438 C 293.085938 24.234375 294.25 24.191406 294.917969 24.191406 C 295.625 24.191406 296.792969 24.234375 297.75 24.273438 L 297.75 23.609375 L 297.25 23.609375 C 295.710938 23.609375 295.710938 23.398438 295.710938 22.734375 L 295.710938 21.234375 Z M 294.292969 13.773438 L 294.292969 20.566406 L 289.375 20.566406 Z M 294.292969 13.773438 "/>
<path fill="none" stroke-width="0.3985" stroke-linecap="butt" stroke-linejoin="miter" stroke="rgb(0%, 0%, 0%)" stroke-opacity="1" stroke-dasharray="2.98883 2.98883" stroke-miterlimit="10" d="M 27.168987 25.69812 L 27.168987 -25.700317 " transform="matrix(2.666667, 0, 0, -2.666667, 157.717336, 501.65332)"/>
<path fill="none" stroke-width="0.3985" stroke-linecap="butt" stroke-linejoin="miter" stroke="rgb(0%, 0%, 0%)" stroke-opacity="1" stroke-dasharray="2.98883 2.98883" stroke-miterlimit="10" d="M 25.699749 -27.169556 L -25.698689 -27.169556 " transform="matrix(2.666667, 0, 0, -2.666667, 157.717336, 501.65332)"/>
<path fill="none" stroke-width="0.3985" stroke-linecap="butt" stroke-linejoin="miter" stroke="rgb(0%, 0%, 0%)" stroke-opacity="1" stroke-dasharray="2.98883 2.98883" stroke-miterlimit="10" d="M -27.167927 -25.700317 L -27.167927 25.69812 " transform="matrix(2.666667, 0, 0, -2.666667, 157.717336, 501.65332)"/>
<path fill="none" stroke-width="0.3985" stroke-linecap="butt" stroke-linejoin="miter" stroke="rgb(0%, 0%, 0%)" stroke-opacity="1" stroke-dasharray="2.98883 2.98883" stroke-miterlimit="10" d="M -25.698689 27.167358 L 25.699749 27.167358 " transform="matrix(2.666667, 0, 0, -2.666667, 157.717336, 501.65332)"/>
<path fill="none" stroke-width="0.3985" stroke-linecap="butt" stroke-linejoin="miter" stroke="rgb(0%, 0%, 0%)" stroke-opacity="1" stroke-dasharray="2.98883 2.98883" stroke-miterlimit="10" d="M 197.25053 25.69812 L 197.25053 -25.700317 " transform="matrix(2.666667, 0, 0, -2.666667, 157.717336, 501.65332)"/>
<path fill="none" stroke-width="0.3985" stroke-linecap="butt" stroke-linejoin="miter" stroke="rgb(0%, 0%, 0%)" stroke-opacity="1" stroke-dasharray="2.98883 2.98883" stroke-miterlimit="10" d="M 195.781292 -27.169556 L 144.379925 -27.169556 " transform="matrix(2.666667, 0, 0, -2.666667, 157.717336, 501.65332)"/>
<path fill="none" stroke-width="0.3985" stroke-linecap="butt" stroke-linejoin="miter" stroke="rgb(0%, 0%, 0%)" stroke-opacity="1" stroke-dasharray="2.98883 2.98883" stroke-miterlimit="10" d="M 142.910686 -25.700317 L 142.910686 25.69812 " transform="matrix(2.666667, 0, 0, -2.666667, 157.717336, 501.65332)"/>
<path fill="none" stroke-width="0.3985" stroke-linecap="butt" stroke-linejoin="miter" stroke="rgb(0%, 0%, 0%)" stroke-opacity="1" stroke-dasharray="2.98883 2.98883" stroke-miterlimit="10" d="M 144.379925 27.167358 L 195.781292 27.167358 " transform="matrix(2.666667, 0, 0, -2.666667, 157.717336, 501.65332)"/>
<path fill="none" stroke-width="0.3985" stroke-linecap="butt" stroke-linejoin="miter" stroke="rgb(0%, 0%, 0%)" stroke-opacity="1" stroke-dasharray="2.98883 2.98883" stroke-miterlimit="10" d="M 112.207561 172.991089 L 112.207561 121.588257 " transform="matrix(2.666667, 0, 0, -2.666667, 157.717336, 501.65332)"/>
<path fill="none" stroke-width="0.3985" stroke-linecap="butt" stroke-linejoin="miter" stroke="rgb(0%, 0%, 0%)" stroke-opacity="1" stroke-dasharray="2.98883 2.98883" stroke-miterlimit="10" d="M 110.738323 120.120483 L 59.339886 120.120483 " transform="matrix(2.666667, 0, 0, -2.666667, 157.717336, 501.65332)"/>
<path fill="none" stroke-width="0.3985" stroke-linecap="butt" stroke-linejoin="miter" stroke="rgb(0%, 0%, 0%)" stroke-opacity="1" stroke-dasharray="2.98883 2.98883" stroke-miterlimit="10" d="M 57.872112 121.588257 L 57.872112 172.991089 " transform="matrix(2.666667, 0, 0, -2.666667, 157.717336, 501.65332)"/>
<path fill="none" stroke-width="0.3985" stroke-linecap="butt" stroke-linejoin="miter" stroke="rgb(0%, 0%, 0%)" stroke-opacity="1" stroke-dasharray="2.98883 2.98883" stroke-miterlimit="10" d="M 59.339886 174.460327 L 110.738323 174.460327 " transform="matrix(2.666667, 0, 0, -2.666667, 157.717336, 501.65332)"/>
<path fill="none" stroke-width="1.59404" stroke-linecap="butt" stroke-linejoin="miter" stroke="rgb(0%, 0%, 0%)" stroke-opacity="1" stroke-miterlimit="10" d="M 2.079144 2.077515 L 21.258343 21.256714 " transform="matrix(2.666667, 0, 0, -2.666667, 157.717336, 501.65332)"/>
<path fill-rule="nonzero" fill="rgb(0%, 0%, 0%)" fill-opacity="1" stroke-width="1.59404" stroke-linecap="butt" stroke-linejoin="miter" stroke="rgb(0%, 0%, 0%)" stroke-opacity="1" stroke-miterlimit="10" d="M 8.908308 0.00195294 L 2.574325 2.401927 L 4.688415 0.00195294 L 2.572253 -2.402164 Z M 8.908308 0.00195294 " transform="matrix(1.8856, -1.8856, -1.8856, -1.8856, 206.319458, 453.051188)"/>
<path fill="none" stroke-width="0.79701" stroke-linecap="butt" stroke-linejoin="miter" stroke="rgb(0%, 0%, 0%)" stroke-opacity="1" stroke-miterlimit="10" d="M 172.156292 2.077515 L 192.9893 22.909058 " transform="matrix(2.666667, 0, 0, -2.666667, 157.717336, 501.65332)"/>
<path fill-rule="nonzero" fill="rgb(0%, 0%, 0%)" fill-opacity="1" stroke-width="0.79701" stroke-linecap="butt" stroke-linejoin="miter" stroke="rgb(0%, 0%, 0%)" stroke-opacity="1" stroke-miterlimit="10" d="M 6.096589 0.00151056 L 1.287319 1.815215 L 2.878324 -0.00159688 L 1.285247 -1.816338 Z M 6.096589 0.00151056 " transform="matrix(1.8856, -1.8856, -1.8856, -1.8856, 667.307902, 445.611857)"/>
<path fill="none" stroke-width="0.79701" stroke-linecap="butt" stroke-linejoin="miter" stroke="rgb(0%, 0%, 0%)" stroke-opacity="1" stroke-dasharray="2.98883 2.98883" stroke-miterlimit="10" d="M 82.961956 149.366089 L 62.128948 170.197632 " transform="matrix(2.666667, 0, 0, -2.666667, 157.717336, 501.65332)"/>
<path fill-rule="nonzero" fill="rgb(0%, 0%, 0%)" fill-opacity="1" stroke-width="0.79701" stroke-linecap="butt" stroke-linejoin="miter" stroke="rgb(0%, 0%, 0%)" stroke-opacity="1" stroke-miterlimit="10" d="M 6.09806 0.00142019 L 1.286719 1.819268 L 2.877724 0.002456 L 1.286719 -1.816428 Z M 6.09806 0.00142019 " transform="matrix(-1.8856, -1.8856, -1.8856, 1.8856, 328.450399, 52.839574)"/>
<path fill="none" stroke-width="0.79701" stroke-linecap="butt" stroke-linejoin="miter" stroke="rgb(0%, 0%, 0%)" stroke-opacity="1" stroke-dasharray="0.79701 1.99255" stroke-miterlimit="10" d="M -2.078083 2.077515 L -22.909626 22.909058 " transform="matrix(2.666667, 0, 0, -2.666667, 157.717336, 501.65332)"/>
<path fill-rule="nonzero" fill="rgb(0%, 0%, 0%)" fill-opacity="1" stroke-width="0.79701" stroke-linecap="butt" stroke-linejoin="miter" stroke="rgb(0%, 0%, 0%)" stroke-opacity="1" stroke-miterlimit="10" d="M 6.098499 0.000399219 L 1.286121 1.817212 L 2.877127 0.000399219 L 1.286121 -1.816413 Z M 6.098499 0.000399219 " transform="matrix(-1.8856, -1.8856, -1.8856, 1.8856, 101.675863, 445.611857)"/>
<path fill="none" stroke-width="1.59404" stroke-linecap="butt" stroke-linejoin="miter" stroke="rgb(0%, 0%, 0%)" stroke-opacity="1" stroke-miterlimit="10" d="M 168.004925 2.077515 L 148.821331 21.256714 " transform="matrix(2.666667, 0, 0, -2.666667, 157.717336, 501.65332)"/>
<path fill-rule="nonzero" fill="rgb(0%, 0%, 0%)" fill-opacity="1" stroke-width="1.59404" stroke-linecap="butt" stroke-linejoin="miter" stroke="rgb(0%, 0%, 0%)" stroke-opacity="1" stroke-miterlimit="10" d="M 8.910207 -0.0000539485 L 2.573116 2.403027 L 4.689278 -0.00108976 L 2.573116 -2.403135 Z M 8.910207 -0.0000539485 " transform="matrix(-1.8856, -1.8856, -1.8856, 1.8856, 562.664266, 453.051188)"/>
<path fill="none" stroke-width="0.79701" stroke-linecap="butt" stroke-linejoin="miter" stroke="rgb(0%, 0%, 0%)" stroke-opacity="1" stroke-miterlimit="10" d="M 82.961956 145.213257 L 62.128948 124.381714 " transform="matrix(2.666667, 0, 0, -2.666667, 157.717336, 501.65332)"/>
<path fill-rule="nonzero" fill="rgb(0%, 0%, 0%)" fill-opacity="1" stroke-width="0.79701" stroke-linecap="butt" stroke-linejoin="miter" stroke="rgb(0%, 0%, 0%)" stroke-opacity="1" stroke-miterlimit="10" d="M 6.097956 -0.00152404 L 1.285579 1.815288 L 2.880728 0.000547577 L 1.288686 -1.817301 Z M 6.097956 -0.00152404 " transform="matrix(-1.8856, 1.8856, 1.8856, 1.8856, 328.450399, 164.922536)"/>
<path fill="none" stroke-width="0.79701" stroke-linecap="butt" stroke-linejoin="miter" stroke="rgb(0%, 0%, 0%)" stroke-opacity="1" stroke-dasharray="2.98883 2.98883" stroke-miterlimit="10" d="M -2.078083 -2.075317 L -22.909626 -22.911255 " transform="matrix(2.666667, 0, 0, -2.666667, 157.717336, 501.65332)"/>
<path fill-rule="nonzero" fill="rgb(0%, 0%, 0%)" fill-opacity="1" stroke-width="0.79701" stroke-linecap="butt" stroke-linejoin="miter" stroke="rgb(0%, 0%, 0%)" stroke-opacity="1" stroke-miterlimit="10" d="M 6.100052 0.0011545 L 1.287675 1.817967 L 2.87868 0.0011545 L 1.287675 -1.815658 Z M 6.100052 0.0011545 " transform="matrix(-1.8856, 1.8856, 1.8856, 1.8856, 101.675863, 557.694784)"/>
<path fill="none" stroke-width="0.79701" stroke-linecap="butt" stroke-linejoin="miter" stroke="rgb(92.54902%, 0%, 54.901961%)" stroke-opacity="1" stroke-miterlimit="10" d="M 195.781292 27.167358 L 148.934124 27.167358 " transform="matrix(2.666667, 0, 0, -2.666667, 157.717336, 501.65332)"/>
<path fill-rule="nonzero" fill="rgb(92.54902%, 0%, 54.901961%)" fill-opacity="1" stroke-width="0.79701" stroke-linecap="butt" stroke-linejoin="miter" stroke="rgb(92.54902%, 0%, 54.901961%)" stroke-opacity="1" stroke-miterlimit="10" d="M 6.097382 0.00119019 L 1.28537 1.817596 L 2.87912 0.00119019 L 1.28537 -1.818146 Z M 6.097382 0.00119019 " transform="matrix(-2.666667, 0, 0, 2.666667, 562.021403, 429.203857)"/>
<path fill="none" stroke-width="0.79701" stroke-linecap="butt" stroke-linejoin="miter" stroke="rgb(92.54902%, 0%, 54.901961%)" stroke-opacity="1" stroke-miterlimit="10" d="M 57.872112 172.991089 L 57.872112 126.143921 " transform="matrix(2.666667, 0, 0, -2.666667, 157.717336, 501.65332)"/>
<path fill-rule="nonzero" fill="rgb(92.54902%, 0%, 54.901961%)" fill-opacity="1" stroke-width="0.79701" stroke-linecap="butt" stroke-linejoin="miter" stroke="rgb(92.54902%, 0%, 54.901961%)" stroke-opacity="1" stroke-miterlimit="10" d="M 6.09774 0.000221252 L 1.288658 1.816628 L 2.878014 0.000221252 L 1.288658 -1.816185 Z M 6.09774 0.000221252 " transform="matrix(0, 2.666667, 2.666667, 0, 312.042379, 158.126078)"/>
<path fill="none" stroke-width="0.79701" stroke-linecap="butt" stroke-linejoin="miter" stroke="rgb(92.54902%, 0%, 54.901961%)" stroke-opacity="1" stroke-miterlimit="10" d="M -27.167927 25.69812 L -27.167927 -21.146118 " transform="matrix(2.666667, 0, 0, -2.666667, 157.717336, 501.65332)"/>
<path fill-rule="nonzero" fill="rgb(92.54902%, 0%, 54.901961%)" fill-opacity="1" stroke-width="0.79701" stroke-linecap="butt" stroke-linejoin="miter" stroke="rgb(92.54902%, 0%, 54.901961%)" stroke-opacity="1" stroke-miterlimit="10" d="M 6.096725 0.000635147 L 1.287643 1.817041 L 2.878464 0.000635147 L 1.287643 -1.815771 Z M 6.096725 0.000635147 " transform="matrix(0, 2.666667, 2.666667, 0, 85.267838, 550.898315)"/>
<path fill="none" stroke-width="0.79701" stroke-linecap="butt" stroke-linejoin="miter" stroke="rgb(0%, 50.196078%, 50.196078%)" stroke-opacity="1" stroke-miterlimit="10" d="M 59.339886 120.120483 L 106.188519 120.120483 " transform="matrix(2.666667, 0, 0, -2.666667, 157.717336, 501.65332)"/>
<path fill-rule="nonzero" fill="rgb(0%, 50.196078%, 50.196078%)" fill-opacity="1" stroke-width="0.79701" stroke-linecap="butt" stroke-linejoin="miter" stroke="rgb(0%, 50.196078%, 50.196078%)" stroke-opacity="1" stroke-miterlimit="10" d="M 6.098679 -0.000541687 L 1.286667 1.815865 L 2.880417 -0.000541687 L 1.286667 -1.816948 Z M 6.098679 -0.000541687 " transform="matrix(2.666667, 0, 0, -2.666667, 433.736857, 181.330587)"/>
<path fill="none" stroke-width="0.79701" stroke-linecap="butt" stroke-linejoin="miter" stroke="rgb(0%, 50.196078%, 50.196078%)" stroke-opacity="1" stroke-miterlimit="10" d="M -25.698689 -27.169556 L 21.14555 -27.169556 " transform="matrix(2.666667, 0, 0, -2.666667, 157.717336, 501.65332)"/>
<path fill-rule="nonzero" fill="rgb(0%, 50.196078%, 50.196078%)" fill-opacity="1" d="M 223.21875 574.105469 L 210.394531 569.261719 L 214.636719 574.105469 L 210.394531 578.949219 Z M 223.21875 574.105469 "/>
<g clip-path="url(#clip-0)">
<path fill="none" stroke-width="0.79701" stroke-linecap="butt" stroke-linejoin="miter" stroke="rgb(0%, 50.196078%, 50.196078%)" stroke-opacity="1" stroke-miterlimit="10" d="M 6.096161 -0.000991821 L 1.287079 1.815414 L 2.877899 -0.000991821 L 1.287079 -1.817398 Z M 6.096161 -0.000991821 " transform="matrix(2.666667, 0, 0, -2.666667, 206.962321, 574.102824)"/>
</g>
<path fill="none" stroke-width="0.79701" stroke-linecap="butt" stroke-linejoin="miter" stroke="rgb(0%, 0%, 100%)" stroke-opacity="1" stroke-miterlimit="10" d="M 27.168987 -25.700317 L 27.168987 21.146851 " transform="matrix(2.666667, 0, 0, -2.666667, 157.717336, 501.65332)"/>
<path fill-rule="nonzero" fill="rgb(0%, 0%, 100%)" fill-opacity="1" stroke-width="0.79701" stroke-linecap="butt" stroke-linejoin="miter" stroke="rgb(0%, 0%, 100%)" stroke-opacity="1" stroke-miterlimit="10" d="M 6.098938 -0.000427246 L 1.285461 1.815979 L 2.879211 -0.000427246 L 1.285461 -1.816833 Z M 6.098938 -0.000427246 " transform="matrix(0, -2.666667, -2.666667, 0, 230.166829, 452.408366)"/>
<path fill="none" stroke-width="1.59404" stroke-linecap="butt" stroke-linejoin="miter" stroke="rgb(0%, 0%, 0%)" stroke-opacity="1" stroke-miterlimit="10" d="M 87.117718 145.213257 L 106.296917 126.029663 " transform="matrix(2.666667, 0, 0, -2.666667, 157.717336, 501.65332)"/>
<path fill-rule="nonzero" fill="rgb(0%, 0%, 0%)" fill-opacity="1" stroke-width="1.59404" stroke-linecap="butt" stroke-linejoin="miter" stroke="rgb(0%, 0%, 0%)" stroke-opacity="1" stroke-miterlimit="10" d="M 8.909258 0.000658172 L 2.57631 2.401668 L 4.689364 0.000658172 L 2.573202 -2.401387 Z M 8.909258 0.000658172 " transform="matrix(1.8856, 1.8856, 1.8856, -1.8856, 433.093994, 157.483195)"/>
<path fill="none" stroke-width="0.79701" stroke-linecap="butt" stroke-linejoin="miter" stroke="rgb(0%, 0%, 0%)" stroke-opacity="1" stroke-miterlimit="10" d="M 2.079144 -2.075317 L 22.910686 -22.911255 " transform="matrix(2.666667, 0, 0, -2.666667, 157.717336, 501.65332)"/>
<path fill-rule="nonzero" fill="rgb(0%, 0%, 0%)" fill-opacity="1" stroke-width="0.79701" stroke-linecap="butt" stroke-linejoin="miter" stroke="rgb(0%, 0%, 0%)" stroke-opacity="1" stroke-miterlimit="10" d="M 6.100802 -0.000404614 L 1.288425 1.816408 L 2.87943 -0.000404614 L 1.288425 -1.817217 Z M 6.100802 -0.000404614 " transform="matrix(1.8856, 1.8856, 1.8856, -1.8856, 213.758809, 557.694784)"/>
</svg>
