<?xml version="1.0" encoding="UTF-8"?>
<svg xmlns="http://www.w3.org/2000/svg" xmlns:xlink="http://www.w3.org/1999/xlink" width="244.240005" height="109.660004" viewBox="0 0 244.240005 109.660004">
<path fill-rule="nonzero" fill="rgb(0%, 0%, 0%)" fill-opacity="1" d="M 34.765625 13.191406 L 35.203125 12.535156 L 32.609375 22.441406 C 32.484375 22.910156 32.390625 23.253906 32.234375 23.535156 C 32.078125 24.003906 31.671875 24.503906 31.234375 24.691406 C 31.015625 24.785156 30.703125 24.847656 30.390625 24.847656 L 30.296875 25.128906 L 36.046875 25.128906 L 36.140625 24.847656 C 35.515625 24.847656 35.015625 24.785156 34.765625 24.597656 C 34.484375 24.378906 34.421875 23.941406 34.421875 23.535156 C 34.421875 23.222656 34.484375 22.785156 34.640625 22.253906 L 36.609375 14.785156 C 36.765625 14.160156 36.890625 13.660156 37.015625 13.285156 C 37.234375 12.691406 37.671875 12.035156 38.109375 11.722656 C 38.328125 11.597656 38.609375 11.566406 38.953125 11.566406 L 39.046875 11.285156 L 35.453125 11.285156 L 28.765625 22.003906 L 28.484375 22.003906 L 27.203125 11.285156 L 22.921875 11.285156 L 22.828125 11.566406 C 23.453125 11.566406 23.859375 11.566406 24.078125 11.691406 C 24.359375 11.816406 24.703125 12.316406 24.703125 12.691406 C 24.703125 13.003906 24.640625 13.503906 24.453125 14.160156 L 22.265625 22.441406 C 22.109375 23.066406 21.609375 23.753906 21.140625 24.160156 C 20.703125 24.566406 20.015625 24.847656 19.453125 24.847656 L 19.390625 25.128906 L 24.359375 25.128906 L 24.453125 24.847656 C 23.984375 24.816406 23.453125 24.722656 23.234375 24.410156 C 23.015625 24.097656 22.703125 23.566406 22.703125 23.066406 C 22.703125 22.785156 22.703125 22.503906 22.765625 22.253906 L 25.171875 13.191406 L 25.296875 12.753906 L 26.765625 25.128906 L 27.359375 25.128906 Z M 34.765625 13.191406 "/>
<path fill-rule="nonzero" fill="rgb(0%, 0%, 0%)" fill-opacity="1" d="M 42.242188 22.351562 C 41.617188 22.351562 40.960938 22.851562 40.492188 23.476562 L 40.398438 23.476562 L 41.898438 18.007812 L 39.648438 18.101562 L 39.554688 18.320312 C 40.148438 18.320312 40.617188 18.445312 40.617188 18.882812 C 40.617188 18.945312 40.585938 19.132812 40.523438 19.320312 L 37.992188 28.695312 L 38.960938 28.695312 L 39.679688 26.132812 L 40.054688 26.007812 L 40.835938 27.882812 C 40.992188 28.226562 41.117188 28.476562 41.242188 28.632812 C 41.367188 28.757812 41.523438 28.820312 41.710938 28.820312 C 42.648438 28.820312 42.960938 28.226562 43.460938 27.039062 L 43.210938 26.914062 C 42.929688 27.507812 42.710938 28.101562 42.273438 28.101562 C 42.085938 28.101562 41.835938 27.539062 41.679688 27.101562 L 41.054688 25.570312 L 41.335938 25.414062 C 41.992188 25.101562 42.585938 24.789062 42.960938 24.414062 C 43.335938 24.070312 43.554688 23.695312 43.554688 23.320312 C 43.554688 22.664062 43.085938 22.351562 42.242188 22.351562 Z M 39.867188 25.695312 C 39.992188 25.101562 40.492188 23.945312 40.867188 23.570312 C 41.117188 23.257812 41.648438 22.664062 42.117188 22.664062 C 42.648438 22.664062 42.648438 23.132812 42.648438 23.445312 C 42.617188 24.539062 40.679688 25.351562 39.867188 25.695312 Z M 39.867188 25.695312 "/>
<path fill-rule="nonzero" fill="rgb(0%, 0%, 0%)" fill-opacity="1" d="M 61.582031 24.441406 L 57.144531 20.003906 L 61.582031 15.566406 L 60.800781 14.753906 L 56.363281 19.222656 L 51.925781 14.753906 L 51.144531 15.566406 L 55.550781 20.003906 L 51.144531 24.441406 L 51.925781 25.222656 L 56.363281 20.785156 L 60.800781 25.222656 Z M 61.582031 24.441406 "/>
<path fill-rule="nonzero" fill="rgb(0%, 0%, 0%)" fill-opacity="1" d="M 77.351562 16.535156 C 77.351562 13.660156 76.476562 11.347656 74.320312 11.347656 C 72.632812 11.347656 70.820312 12.941406 70.820312 13.816406 C 70.820312 14.472656 71.351562 14.753906 71.757812 14.753906 C 72.164062 14.753906 72.414062 14.410156 72.476562 14.347656 C 72.414062 14.316406 72.289062 14.128906 72.289062 13.847656 C 72.289062 13.660156 72.632812 11.941406 74.351562 11.941406 C 75.789062 11.941406 76.101562 13.785156 76.101562 15.410156 C 76.101562 16.628906 75.945312 17.691406 75.945312 17.722656 L 75.914062 17.722656 C 75.914062 17.691406 75.132812 16.472656 73.570312 16.472656 C 69.570312 16.472656 67.914062 20.347656 67.914062 22.410156 C 67.914062 24.253906 69.007812 25.441406 71.226562 25.441406 C 74.664062 25.441406 77.351562 21.972656 77.351562 16.535156 Z M 75.070312 18.785156 C 75.070312 19.316406 74.570312 24.972656 71.351562 24.972656 C 70.226562 24.972656 69.726562 24.316406 69.726562 23.066406 C 69.726562 21.785156 70.539062 16.941406 73.414062 16.941406 C 74.539062 16.941406 75.070312 17.597656 75.070312 18.785156 Z M 75.070312 18.785156 "/>
<path fill-rule="nonzero" fill="rgb(0%, 0%, 0%)" fill-opacity="1" d="M 90.871094 25.128906 L 85.308594 11.660156 L 84.964844 11.660156 L 79.027344 25.128906 Z M 88.558594 24.285156 L 80.339844 24.285156 L 84.621094 14.628906 Z M 88.558594 24.285156 "/>
<path fill-rule="nonzero" fill="rgb(0%, 0%, 0%)" fill-opacity="1" d="M 95.621094 11.550781 C 94.996094 11.550781 94.339844 12.050781 93.871094 12.675781 L 93.777344 12.675781 L 95.277344 7.207031 L 93.027344 7.300781 L 92.933594 7.519531 C 93.527344 7.519531 93.996094 7.644531 93.996094 8.082031 C 93.996094 8.144531 93.964844 8.332031 93.902344 8.519531 L 91.371094 17.894531 L 92.339844 17.894531 L 93.058594 15.332031 L 93.433594 15.207031 L 94.214844 17.082031 C 94.371094 17.425781 94.496094 17.675781 94.621094 17.832031 C 94.746094 17.957031 94.902344 18.019531 95.089844 18.019531 C 96.027344 18.019531 96.339844 17.425781 96.839844 16.238281 L 96.589844 16.113281 C 96.308594 16.707031 96.089844 17.300781 95.652344 17.300781 C 95.464844 17.300781 95.214844 16.738281 95.058594 16.300781 L 94.433594 14.769531 L 94.714844 14.613281 C 95.371094 14.300781 95.964844 13.988281 96.339844 13.613281 C 96.714844 13.269531 96.933594 12.894531 96.933594 12.519531 C 96.933594 11.863281 96.464844 11.550781 95.621094 11.550781 Z M 93.246094 14.894531 C 93.371094 14.300781 93.871094 13.144531 94.246094 12.769531 C 94.496094 12.457031 95.027344 11.863281 95.496094 11.863281 C 96.027344 11.863281 96.027344 12.332031 96.027344 12.644531 C 95.996094 13.738281 94.058594 14.550781 93.246094 14.894531 Z M 93.246094 14.894531 "/>
<path fill-rule="nonzero" fill="rgb(0%, 0%, 0%)" fill-opacity="1" d="M 171.128906 28.472656 L 169.410156 28.472656 C 168.753906 28.472656 168.441406 28.128906 168.441406 27.441406 L 168.441406 12.410156 C 168.441406 11.785156 168.691406 11.535156 169.316406 11.535156 L 171.128906 11.535156 L 171.128906 11.035156 L 166.910156 11.035156 L 166.910156 28.972656 L 171.128906 28.972656 Z M 171.128906 28.472656 "/>
<path fill-rule="nonzero" fill="rgb(0%, 0%, 0%)" fill-opacity="1" d="M 187.300781 13.191406 L 187.738281 12.535156 L 185.144531 22.441406 C 185.019531 22.910156 184.925781 23.253906 184.769531 23.535156 C 184.613281 24.003906 184.207031 24.503906 183.769531 24.691406 C 183.550781 24.785156 183.238281 24.847656 182.925781 24.847656 L 182.832031 25.128906 L 188.582031 25.128906 L 188.675781 24.847656 C 188.050781 24.847656 187.550781 24.785156 187.300781 24.597656 C 187.019531 24.378906 186.957031 23.941406 186.957031 23.535156 C 186.957031 23.222656 187.019531 22.785156 187.175781 22.253906 L 189.144531 14.785156 C 189.300781 14.160156 189.425781 13.660156 189.550781 13.285156 C 189.769531 12.691406 190.207031 12.035156 190.644531 11.722656 C 190.863281 11.597656 191.144531 11.566406 191.488281 11.566406 L 191.582031 11.285156 L 187.988281 11.285156 L 181.300781 22.003906 L 181.019531 22.003906 L 179.738281 11.285156 L 175.457031 11.285156 L 175.363281 11.566406 C 175.988281 11.566406 176.394531 11.566406 176.613281 11.691406 C 176.894531 11.816406 177.238281 12.316406 177.238281 12.691406 C 177.238281 13.003906 177.175781 13.503906 176.988281 14.160156 L 174.800781 22.441406 C 174.644531 23.066406 174.144531 23.753906 173.675781 24.160156 C 173.238281 24.566406 172.550781 24.847656 171.988281 24.847656 L 171.925781 25.128906 L 176.894531 25.128906 L 176.988281 24.847656 C 176.519531 24.816406 175.988281 24.722656 175.769531 24.410156 C 175.550781 24.097656 175.238281 23.566406 175.238281 23.066406 C 175.238281 22.785156 175.238281 22.503906 175.300781 22.253906 L 177.707031 13.191406 L 177.832031 12.753906 L 179.300781 25.128906 L 179.894531 25.128906 Z M 187.300781 13.191406 "/>
<path fill-rule="nonzero" fill="rgb(0%, 0%, 0%)" fill-opacity="1" d="M 199.742188 27.664062 L 199.742188 26.820312 L 193.679688 24.007812 L 199.742188 21.164062 L 199.742188 20.351562 L 192.304688 23.882812 L 192.304688 24.164062 Z M 199.742188 29.539062 L 199.742188 28.757812 L 192.304688 28.757812 L 192.304688 29.539062 Z M 199.742188 29.539062 "/>
<path fill-rule="nonzero" fill="rgb(0%, 0%, 0%)" fill-opacity="1" d="M 205.773438 22.351562 C 205.148438 22.351562 204.492188 22.851562 204.023438 23.476562 L 203.929688 23.476562 L 205.429688 18.007812 L 203.179688 18.101562 L 203.085938 18.320312 C 203.679688 18.320312 204.148438 18.445312 204.148438 18.882812 C 204.148438 18.945312 204.117188 19.132812 204.054688 19.320312 L 201.523438 28.695312 L 202.492188 28.695312 L 203.210938 26.132812 L 203.585938 26.007812 L 204.367188 27.882812 C 204.523438 28.226562 204.648438 28.476562 204.773438 28.632812 C 204.898438 28.757812 205.054688 28.820312 205.242188 28.820312 C 206.179688 28.820312 206.492188 28.226562 206.992188 27.039062 L 206.742188 26.914062 C 206.460938 27.507812 206.242188 28.101562 205.804688 28.101562 C 205.617188 28.101562 205.367188 27.539062 205.210938 27.101562 L 204.585938 25.570312 L 204.867188 25.414062 C 205.523438 25.101562 206.117188 24.789062 206.492188 24.414062 C 206.867188 24.070312 207.085938 23.695312 207.085938 23.320312 C 207.085938 22.664062 206.617188 22.351562 205.773438 22.351562 Z M 203.398438 25.695312 C 203.523438 25.101562 204.023438 23.945312 204.398438 23.570312 C 204.648438 23.257812 205.179688 22.664062 205.648438 22.664062 C 206.179688 22.664062 206.179688 23.132812 206.179688 23.445312 C 206.148438 24.539062 204.210938 25.351562 203.398438 25.695312 Z M 203.398438 25.695312 "/>
<path fill-rule="nonzero" fill="rgb(0%, 0%, 0%)" fill-opacity="1" d="M 217.050781 25.382812 L 217.050781 24.539062 L 209.613281 24.539062 L 209.613281 25.382812 Z M 217.050781 25.382812 "/>
<path fill-rule="nonzero" fill="rgb(0%, 0%, 0%)" fill-opacity="1" d="M 225.414062 28.695312 L 225.414062 28.164062 L 224.851562 28.164062 C 223.414062 28.164062 223.414062 27.976562 223.414062 27.507812 L 223.414062 19.445312 C 223.414062 19.070312 223.382812 19.039062 222.976562 19.039062 C 222.039062 19.976562 220.726562 19.976562 220.132812 19.976562 L 220.132812 20.507812 C 220.476562 20.507812 221.445312 20.507812 222.226562 20.101562 L 222.226562 27.507812 C 222.226562 27.976562 222.226562 28.164062 220.789062 28.164062 L 220.226562 28.164062 L 220.226562 28.695312 L 222.820312 28.632812 Z M 225.414062 28.695312 "/>
<path fill-rule="nonzero" fill="rgb(0%, 0%, 0%)" fill-opacity="1" d="M 228.507812 28.472656 L 228.507812 28.972656 L 232.695312 28.972656 L 232.695312 11.035156 L 228.507812 11.035156 L 228.507812 11.535156 L 230.226562 11.535156 C 230.882812 11.535156 231.195312 11.878906 231.195312 12.566406 L 231.195312 27.597656 C 231.195312 28.222656 230.914062 28.472656 230.289062 28.472656 Z M 228.507812 28.472656 "/>
<path fill-rule="nonzero" fill="rgb(0%, 0%, 0%)" fill-opacity="1" d="M 40.484375 85.953125 L 40.921875 85.296875 L 38.328125 95.203125 C 38.203125 95.671875 38.109375 96.015625 37.953125 96.296875 C 37.796875 96.765625 37.390625 97.265625 36.953125 97.453125 C 36.734375 97.546875 36.421875 97.609375 36.109375 97.609375 L 36.015625 97.890625 L 41.765625 97.890625 L 41.859375 97.609375 C 41.234375 97.609375 40.734375 97.546875 40.484375 97.359375 C 40.203125 97.140625 40.140625 96.703125 40.140625 96.296875 C 40.140625 95.984375 40.203125 95.546875 40.359375 95.015625 L 42.328125 87.546875 C 42.484375 86.921875 42.609375 86.421875 42.734375 86.046875 C 42.953125 85.453125 43.390625 84.796875 43.828125 84.484375 C 44.046875 84.359375 44.328125 84.328125 44.671875 84.328125 L 44.765625 84.046875 L 41.171875 84.046875 L 34.484375 94.765625 L 34.203125 94.765625 L 32.921875 84.046875 L 28.640625 84.046875 L 28.546875 84.328125 C 29.171875 84.328125 29.578125 84.328125 29.796875 84.453125 C 30.078125 84.578125 30.421875 85.078125 30.421875 85.453125 C 30.421875 85.765625 30.359375 86.265625 30.171875 86.921875 L 27.984375 95.203125 C 27.828125 95.828125 27.328125 96.515625 26.859375 96.921875 C 26.421875 97.328125 25.734375 97.609375 25.171875 97.609375 L 25.109375 97.890625 L 30.078125 97.890625 L 30.171875 97.609375 C 29.703125 97.578125 29.171875 97.484375 28.953125 97.171875 C 28.734375 96.859375 28.421875 96.328125 28.421875 95.828125 C 28.421875 95.546875 28.421875 95.265625 28.484375 95.015625 L 30.890625 85.953125 L 31.015625 85.515625 L 32.484375 97.890625 L 33.078125 97.890625 Z M 40.484375 85.953125 "/>
<path fill-rule="nonzero" fill="rgb(0%, 0%, 0%)" fill-opacity="1" d="M 47.960938 95.113281 C 47.335938 95.113281 46.679688 95.613281 46.210938 96.238281 L 46.117188 96.238281 L 47.617188 90.769531 L 45.367188 90.863281 L 45.273438 91.082031 C 45.867188 91.082031 46.335938 91.207031 46.335938 91.644531 C 46.335938 91.707031 46.304688 91.894531 46.242188 92.082031 L 43.710938 101.457031 L 44.679688 101.457031 L 45.398438 98.894531 L 45.773438 98.769531 L 46.554688 100.644531 C 46.710938 100.988281 46.835938 101.238281 46.960938 101.394531 C 47.085938 101.519531 47.242188 101.582031 47.429688 101.582031 C 48.367188 101.582031 48.679688 100.988281 49.179688 99.800781 L 48.929688 99.675781 C 48.648438 100.269531 48.429688 100.863281 47.992188 100.863281 C 47.804688 100.863281 47.554688 100.300781 47.398438 99.863281 L 46.773438 98.332031 L 47.054688 98.175781 C 47.710938 97.863281 48.304688 97.550781 48.679688 97.175781 C 49.054688 96.832031 49.273438 96.457031 49.273438 96.082031 C 49.273438 95.425781 48.804688 95.113281 47.960938 95.113281 Z M 45.585938 98.457031 C 45.710938 97.863281 46.210938 96.707031 46.585938 96.332031 C 46.835938 96.019531 47.367188 95.425781 47.835938 95.425781 C 48.367188 95.425781 48.367188 95.894531 48.367188 96.207031 C 48.335938 97.300781 46.398438 98.113281 45.585938 98.457031 Z M 45.585938 98.457031 "/>
<path fill-rule="nonzero" fill="rgb(0%, 0%, 0%)" fill-opacity="1" d="M 67.300781 97.203125 L 62.863281 92.765625 L 67.300781 88.328125 L 66.519531 87.515625 L 62.082031 91.984375 L 57.644531 87.515625 L 56.863281 88.328125 L 61.269531 92.765625 L 56.863281 97.203125 L 57.644531 97.984375 L 62.082031 93.546875 L 66.519531 97.984375 Z M 67.300781 97.203125 "/>
<path fill-rule="nonzero" fill="rgb(0%, 0%, 0%)" fill-opacity="1" d="M 85.152344 97.890625 L 79.589844 84.421875 L 79.246094 84.421875 L 73.308594 97.890625 Z M 82.839844 97.046875 L 74.621094 97.046875 L 78.902344 87.390625 Z M 82.839844 97.046875 "/>
<path fill-rule="nonzero" fill="rgb(0%, 0%, 0%)" fill-opacity="1" d="M 89.898438 84.3125 C 89.273438 84.3125 88.617188 84.8125 88.148438 85.4375 L 88.054688 85.4375 L 89.554688 79.96875 L 87.304688 80.0625 L 87.210938 80.28125 C 87.804688 80.28125 88.273438 80.40625 88.273438 80.84375 C 88.273438 80.90625 88.242188 81.09375 88.179688 81.28125 L 85.648438 90.65625 L 86.617188 90.65625 L 87.335938 88.09375 L 87.710938 87.96875 L 88.492188 89.84375 C 88.648438 90.1875 88.773438 90.4375 88.898438 90.59375 C 89.023438 90.71875 89.179688 90.78125 89.367188 90.78125 C 90.304688 90.78125 90.617188 90.1875 91.117188 89 L 90.867188 88.875 C 90.585938 89.46875 90.367188 90.0625 89.929688 90.0625 C 89.742188 90.0625 89.492188 89.5 89.335938 89.0625 L 88.710938 87.53125 L 88.992188 87.375 C 89.648438 87.0625 90.242188 86.75 90.617188 86.375 C 90.992188 86.03125 91.210938 85.65625 91.210938 85.28125 C 91.210938 84.625 90.742188 84.3125 89.898438 84.3125 Z M 87.523438 87.65625 C 87.648438 87.0625 88.148438 85.90625 88.523438 85.53125 C 88.773438 85.21875 89.304688 84.625 89.773438 84.625 C 90.304688 84.625 90.304688 85.09375 90.304688 85.40625 C 90.273438 86.5 88.335938 87.3125 87.523438 87.65625 Z M 87.523438 87.65625 "/>
<path fill-rule="nonzero" fill="rgb(0%, 0%, 0%)" fill-opacity="1" d="M 180.476562 101.234375 L 178.757812 101.234375 C 178.101562 101.234375 177.789062 100.890625 177.789062 100.203125 L 177.789062 85.171875 C 177.789062 84.546875 178.039062 84.296875 178.664062 84.296875 L 180.476562 84.296875 L 180.476562 83.796875 L 176.257812 83.796875 L 176.257812 101.734375 L 180.476562 101.734375 Z M 180.476562 101.234375 "/>
<path fill-rule="nonzero" fill="rgb(0%, 0%, 0%)" fill-opacity="1" d="M 196.648438 85.953125 L 197.085938 85.296875 L 194.492188 95.203125 C 194.367188 95.671875 194.273438 96.015625 194.117188 96.296875 C 193.960938 96.765625 193.554688 97.265625 193.117188 97.453125 C 192.898438 97.546875 192.585938 97.609375 192.273438 97.609375 L 192.179688 97.890625 L 197.929688 97.890625 L 198.023438 97.609375 C 197.398438 97.609375 196.898438 97.546875 196.648438 97.359375 C 196.367188 97.140625 196.304688 96.703125 196.304688 96.296875 C 196.304688 95.984375 196.367188 95.546875 196.523438 95.015625 L 198.492188 87.546875 C 198.648438 86.921875 198.773438 86.421875 198.898438 86.046875 C 199.117188 85.453125 199.554688 84.796875 199.992188 84.484375 C 200.210938 84.359375 200.492188 84.328125 200.835938 84.328125 L 200.929688 84.046875 L 197.335938 84.046875 L 190.648438 94.765625 L 190.367188 94.765625 L 189.085938 84.046875 L 184.804688 84.046875 L 184.710938 84.328125 C 185.335938 84.328125 185.742188 84.328125 185.960938 84.453125 C 186.242188 84.578125 186.585938 85.078125 186.585938 85.453125 C 186.585938 85.765625 186.523438 86.265625 186.335938 86.921875 L 184.148438 95.203125 C 183.992188 95.828125 183.492188 96.515625 183.023438 96.921875 C 182.585938 97.328125 181.898438 97.609375 181.335938 97.609375 L 181.273438 97.890625 L 186.242188 97.890625 L 186.335938 97.609375 C 185.867188 97.578125 185.335938 97.484375 185.117188 97.171875 C 184.898438 96.859375 184.585938 96.328125 184.585938 95.828125 C 184.585938 95.546875 184.585938 95.265625 184.648438 95.015625 L 187.054688 85.953125 L 187.179688 85.515625 L 188.648438 97.890625 L 189.242188 97.890625 Z M 196.648438 85.953125 "/>
<path fill-rule="nonzero" fill="rgb(0%, 0%, 0%)" fill-opacity="1" d="M 209.089844 100.425781 L 209.089844 99.582031 L 203.027344 96.769531 L 209.089844 93.925781 L 209.089844 93.113281 L 201.652344 96.644531 L 201.652344 96.925781 Z M 209.089844 102.300781 L 209.089844 101.519531 L 201.652344 101.519531 L 201.652344 102.300781 Z M 209.089844 102.300781 "/>
<path fill-rule="nonzero" fill="rgb(0%, 0%, 0%)" fill-opacity="1" d="M 215.121094 95.113281 C 214.496094 95.113281 213.839844 95.613281 213.371094 96.238281 L 213.277344 96.238281 L 214.777344 90.769531 L 212.527344 90.863281 L 212.433594 91.082031 C 213.027344 91.082031 213.496094 91.207031 213.496094 91.644531 C 213.496094 91.707031 213.464844 91.894531 213.402344 92.082031 L 210.871094 101.457031 L 211.839844 101.457031 L 212.558594 98.894531 L 212.933594 98.769531 L 213.714844 100.644531 C 213.871094 100.988281 213.996094 101.238281 214.121094 101.394531 C 214.246094 101.519531 214.402344 101.582031 214.589844 101.582031 C 215.527344 101.582031 215.839844 100.988281 216.339844 99.800781 L 216.089844 99.675781 C 215.808594 100.269531 215.589844 100.863281 215.152344 100.863281 C 214.964844 100.863281 214.714844 100.300781 214.558594 99.863281 L 213.933594 98.332031 L 214.214844 98.175781 C 214.871094 97.863281 215.464844 97.550781 215.839844 97.175781 C 216.214844 96.832031 216.433594 96.457031 216.433594 96.082031 C 216.433594 95.425781 215.964844 95.113281 215.121094 95.113281 Z M 212.746094 98.457031 C 212.871094 97.863281 213.371094 96.707031 213.746094 96.332031 C 213.996094 96.019531 214.527344 95.425781 214.996094 95.425781 C 215.527344 95.425781 215.527344 95.894531 215.527344 96.207031 C 215.496094 97.300781 213.558594 98.113281 212.746094 98.457031 Z M 212.746094 98.457031 "/>
<path fill-rule="nonzero" fill="rgb(0%, 0%, 0%)" fill-opacity="1" d="M 219.15625 101.234375 L 219.15625 101.734375 L 223.34375 101.734375 L 223.34375 83.796875 L 219.15625 83.796875 L 219.15625 84.296875 L 220.875 84.296875 C 221.53125 84.296875 221.84375 84.640625 221.84375 85.328125 L 221.84375 100.359375 C 221.84375 100.984375 221.5625 101.234375 220.9375 101.234375 Z M 219.15625 101.234375 "/>
<path fill="none" stroke-width="0.5579" stroke-linecap="butt" stroke-linejoin="miter" stroke="rgb(0%, 0%, 0%)" stroke-opacity="1" stroke-miterlimit="10" d="M -9.901436 17.411095 L 13.055595 17.411095 " transform="matrix(2, 0, 0, -2, 127.755997, 54.830002)"/>
<path fill="none" stroke-width="0.5579" stroke-linecap="round" stroke-linejoin="round" stroke="rgb(0%, 0%, 0%)" stroke-opacity="1" stroke-miterlimit="10" d="M -2.902596 3.34766 C -2.371346 1.339848 -1.191658 0.390629 -0.00025177 0.0000038147 C -1.191658 -0.390621 -2.371346 -1.33984 -2.902596 -3.347652 " transform="matrix(2, 0, 0, -2, 154.422379, 20.00782)"/>
<path fill-rule="nonzero" fill="rgb(0%, 0%, 0%)" fill-opacity="1" d="M 116.539062 13.84375 L 116.539062 13.0625 L 116.039062 13.0625 L 116.039062 13.84375 C 116.039062 13.96875 116.039062 14.6875 115.507812 14.6875 C 114.976562 14.6875 114.976562 14 114.976562 13.8125 L 114.976562 11.25 C 114.976562 10.5 114.976562 9.9375 114.289062 9.40625 C 113.695312 8.90625 113.007812 8.6875 112.164062 8.6875 C 110.757812 8.6875 109.789062 9.1875 109.789062 10.09375 C 109.789062 10.5625 110.101562 10.8125 110.507812 10.8125 C 110.882812 10.8125 111.164062 10.5 111.164062 10.125 C 111.164062 9.875 111.070312 9.5625 110.664062 9.4375 C 111.195312 9.09375 112.039062 9.09375 112.132812 9.09375 C 112.945312 9.09375 113.820312 9.625 113.820312 10.84375 L 113.820312 11.28125 C 113.007812 11.3125 112.070312 11.375 111.007812 11.75 C 109.695312 12.25 109.289062 13.03125 109.289062 13.6875 C 109.289062 14.9375 110.789062 15.3125 111.820312 15.3125 C 112.976562 15.3125 113.664062 14.65625 113.976562 14.09375 C 114.039062 14.6875 114.445312 15.21875 115.101562 15.21875 C 115.101562 15.21875 116.539062 15.21875 116.539062 13.84375 Z M 113.820312 13.09375 C 113.820312 14.5 112.601562 14.90625 111.945312 14.90625 C 111.195312 14.90625 110.507812 14.40625 110.507812 13.6875 C 110.507812 12.875 111.195312 11.78125 113.820312 11.65625 Z M 113.820312 13.09375 "/>
<path fill-rule="nonzero" fill="rgb(0%, 0%, 0%)" fill-opacity="1" d="M 122.351562 13.3125 L 122.351562 12.53125 L 121.882812 12.53125 L 121.882812 13.3125 C 121.882812 14.3125 121.414062 14.84375 120.851562 14.84375 C 119.820312 14.84375 119.820312 13.625 119.820312 13.34375 L 119.820312 9.40625 L 122.101562 9.40625 L 122.101562 8.90625 L 119.820312 8.90625 L 119.820312 6.21875 L 119.351562 6.21875 C 119.320312 7.53125 118.726562 8.96875 117.320312 9 L 117.320312 9.40625 L 118.695312 9.40625 L 118.695312 13.34375 C 118.695312 14.96875 119.914062 15.3125 120.726562 15.3125 C 121.695312 15.3125 122.351562 14.46875 122.351562 13.3125 Z M 122.351562 13.3125 "/>
<path fill-rule="nonzero" fill="rgb(0%, 0%, 0%)" fill-opacity="1" d="M 128.84375 13.3125 L 128.84375 12.53125 L 128.375 12.53125 L 128.375 13.3125 C 128.375 14.3125 127.90625 14.84375 127.34375 14.84375 C 126.3125 14.84375 126.3125 13.625 126.3125 13.34375 L 126.3125 9.40625 L 128.59375 9.40625 L 128.59375 8.90625 L 126.3125 8.90625 L 126.3125 6.21875 L 125.84375 6.21875 C 125.8125 7.53125 125.21875 8.96875 123.8125 9 L 123.8125 9.40625 L 125.1875 9.40625 L 125.1875 13.34375 C 125.1875 14.96875 126.40625 15.3125 127.21875 15.3125 C 128.1875 15.3125 128.84375 14.46875 128.84375 13.3125 Z M 128.84375 13.3125 "/>
<path fill-rule="nonzero" fill="rgb(0%, 0%, 0%)" fill-opacity="1" d="M 137.804688 13.84375 L 137.804688 13.0625 L 137.304688 13.0625 L 137.304688 13.84375 C 137.304688 13.96875 137.304688 14.6875 136.773438 14.6875 C 136.242188 14.6875 136.242188 14 136.242188 13.8125 L 136.242188 11.25 C 136.242188 10.5 136.242188 9.9375 135.554688 9.40625 C 134.960938 8.90625 134.273438 8.6875 133.429688 8.6875 C 132.023438 8.6875 131.054688 9.1875 131.054688 10.09375 C 131.054688 10.5625 131.367188 10.8125 131.773438 10.8125 C 132.148438 10.8125 132.429688 10.5 132.429688 10.125 C 132.429688 9.875 132.335938 9.5625 131.929688 9.4375 C 132.460938 9.09375 133.304688 9.09375 133.398438 9.09375 C 134.210938 9.09375 135.085938 9.625 135.085938 10.84375 L 135.085938 11.28125 C 134.273438 11.3125 133.335938 11.375 132.273438 11.75 C 130.960938 12.25 130.554688 13.03125 130.554688 13.6875 C 130.554688 14.9375 132.054688 15.3125 133.085938 15.3125 C 134.242188 15.3125 134.929688 14.65625 135.242188 14.09375 C 135.304688 14.6875 135.710938 15.21875 136.367188 15.21875 C 136.367188 15.21875 137.804688 15.21875 137.804688 13.84375 Z M 135.085938 13.09375 C 135.085938 14.5 133.867188 14.90625 133.210938 14.90625 C 132.460938 14.90625 131.773438 14.40625 131.773438 13.6875 C 131.773438 12.875 132.460938 11.78125 135.085938 11.65625 Z M 135.085938 13.09375 "/>
<path fill-rule="nonzero" fill="rgb(0%, 0%, 0%)" fill-opacity="1" d="M 144.996094 13.40625 C 144.996094 13.25 144.808594 13.25 144.746094 13.25 C 144.558594 13.25 144.527344 13.28125 144.464844 13.5 C 144.152344 14.375 143.371094 14.84375 142.496094 14.84375 C 141.496094 14.84375 140.183594 14.09375 140.183594 12 C 140.183594 10.15625 141.089844 9.125 142.433594 9.125 C 142.621094 9.125 143.308594 9.125 143.839844 9.34375 C 143.589844 9.46875 143.433594 9.71875 143.433594 10 C 143.433594 10.375 143.714844 10.6875 144.121094 10.6875 C 144.496094 10.6875 144.808594 10.4375 144.808594 9.96875 C 144.808594 8.6875 142.777344 8.6875 142.371094 8.6875 C 140.214844 8.6875 138.839844 10.34375 138.839844 12.03125 C 138.839844 13.84375 140.402344 15.3125 142.308594 15.3125 C 144.464844 15.3125 144.996094 13.59375 144.996094 13.40625 Z M 144.996094 13.40625 "/>
<path fill-rule="nonzero" fill="rgb(0%, 0%, 0%)" fill-opacity="1" d="M 153.695312 15.15625 L 153.695312 14.625 C 152.757812 14.625 152.601562 14.625 152.601562 14 L 152.601562 10.75 C 152.601562 9.5 151.976562 8.75 150.445312 8.75 C 149.132812 8.75 148.445312 9.53125 148.101562 10.0625 L 148.101562 5.0625 L 145.914062 5.21875 L 145.914062 5.75 C 146.882812 5.75 147.007812 5.84375 147.007812 6.5625 L 147.007812 14 C 147.007812 14.625 146.851562 14.625 145.914062 14.625 L 145.914062 15.15625 C 145.914062 15.15625 146.976562 15.09375 147.570312 15.09375 C 148.101562 15.09375 149.101562 15.15625 149.257812 15.15625 L 149.257812 14.625 C 148.289062 14.625 148.164062 14.625 148.164062 14 L 148.164062 11.40625 C 148.164062 9.875 149.351562 9.15625 150.320312 9.15625 C 151.351562 9.15625 151.476562 9.96875 151.476562 10.6875 L 151.476562 14 C 151.476562 14.625 151.320312 14.625 150.382812 14.625 L 150.382812 15.15625 C 150.382812 15.15625 151.414062 15.09375 152.039062 15.09375 C 152.570312 15.09375 153.570312 15.15625 153.695312 15.15625 Z M 153.695312 15.15625 "/>
<path fill="none" stroke-width="0.5579" stroke-linecap="butt" stroke-linejoin="miter" stroke="rgb(0%, 0%, 0%)" stroke-opacity="1" stroke-miterlimit="10" d="M -34.170967 7.153282 L -34.170967 -8.209999 " transform="matrix(2, 0, 0, -2, 127.755997, 54.830002)"/>
<path fill="none" stroke-width="0.5579" stroke-linecap="round" stroke-linejoin="miter" stroke="rgb(0%, 0%, 0%)" stroke-opacity="1" stroke-miterlimit="10" d="M -0.00185966 2.733936 C 0.955172 2.733936 1.728609 2.120655 1.728609 1.366749 C 1.728609 0.612843 0.955172 -0.00043869 -0.00185966 -0.00043869 " transform="matrix(0, -2, 2, 0, 59.41494, 40.519718)"/>
<path fill="none" stroke-width="0.5579" stroke-linecap="round" stroke-linejoin="round" stroke="rgb(0%, 0%, 0%)" stroke-opacity="1" stroke-miterlimit="10" d="M -2.899395 3.347218 C -2.372051 1.339405 -1.188457 0.390186 -0.000957489 -0.00043869 C -1.188457 -0.391064 -2.372051 -1.340282 -2.899395 -3.348095 " transform="matrix(0, 2, 2, 0, 59.41494, 71.806602)"/>
<path fill-rule="nonzero" fill="rgb(0%, 0%, 0%)" fill-opacity="1" d="M 8.261719 59.414062 L 8.261719 58.882812 C 7.417969 58.882812 7.292969 58.882812 7.292969 58.289062 L 7.292969 53.007812 L 5.136719 53.164062 L 5.136719 53.695312 C 6.074219 53.695312 6.199219 53.789062 6.199219 54.476562 L 6.199219 58.257812 C 6.199219 58.882812 6.042969 58.882812 5.105469 58.882812 L 5.105469 59.414062 C 5.105469 59.414062 6.167969 59.351562 6.730469 59.351562 C 7.230469 59.351562 7.761719 59.382812 8.261719 59.414062 Z M 7.480469 50.664062 C 7.480469 50.195312 7.105469 49.820312 6.636719 49.820312 C 6.167969 49.820312 5.824219 50.226562 5.824219 50.664062 C 5.824219 51.101562 6.167969 51.507812 6.636719 51.507812 C 7.136719 51.507812 7.480469 51.101562 7.480469 50.664062 Z M 7.480469 50.664062 "/>
<path fill-rule="nonzero" fill="rgb(0%, 0%, 0%)" fill-opacity="1" d="M 17.433594 59.414062 L 17.433594 58.882812 C 16.464844 58.882812 16.339844 58.789062 16.339844 58.070312 L 16.339844 49.320312 L 14.183594 49.476562 L 14.183594 50.007812 C 15.152344 50.007812 15.246094 50.101562 15.246094 50.820312 L 15.246094 53.820312 C 14.714844 53.320312 14.027344 53.007812 13.214844 53.007812 C 11.277344 53.007812 9.652344 54.445312 9.652344 56.289062 C 9.652344 58.101562 11.214844 59.570312 13.058594 59.570312 C 14.246094 59.570312 14.964844 58.914062 15.214844 58.664062 L 15.214844 59.570312 Z M 15.214844 57.882812 C 14.808594 58.570312 14.089844 59.164062 13.152344 59.164062 C 12.308594 59.164062 11.746094 58.664062 11.464844 58.257812 C 11.152344 57.820312 10.996094 57.226562 10.996094 56.289062 C 10.996094 55.976562 10.996094 54.882812 11.589844 54.195312 C 12.152344 53.539062 12.871094 53.414062 13.308594 53.414062 C 13.996094 53.414062 14.621094 53.726562 15.027344 54.257812 C 15.214844 54.476562 15.214844 54.507812 15.214844 54.789062 Z M 15.214844 57.882812 "/>
<path fill-rule="nonzero" fill="rgb(0%, 0%, 0%)" fill-opacity="1" d="M 27.195312 58.914062 L 23.945312 55.664062 L 27.195312 52.445312 L 26.601562 51.851562 L 23.382812 55.101562 L 20.164062 51.851562 L 19.570312 52.445312 L 22.789062 55.664062 L 19.570312 58.914062 L 20.164062 59.476562 L 23.382812 56.257812 L 26.601562 59.476562 Z M 27.195312 58.914062 "/>
<path fill-rule="nonzero" fill="rgb(0%, 0%, 0%)" fill-opacity="1" d="M 32.558594 59.414062 L 32.558594 58.882812 C 31.714844 58.882812 31.589844 58.882812 31.589844 58.289062 L 31.589844 53.007812 L 29.433594 53.164062 L 29.433594 53.695312 C 30.371094 53.695312 30.496094 53.789062 30.496094 54.476562 L 30.496094 58.257812 C 30.496094 58.882812 30.339844 58.882812 29.402344 58.882812 L 29.402344 59.414062 C 29.402344 59.414062 30.464844 59.351562 31.027344 59.351562 C 31.527344 59.351562 32.058594 59.382812 32.558594 59.414062 Z M 31.777344 50.664062 C 31.777344 50.195312 31.402344 49.820312 30.933594 49.820312 C 30.464844 49.820312 30.121094 50.226562 30.121094 50.664062 C 30.121094 51.101562 30.464844 51.507812 30.933594 51.507812 C 31.433594 51.507812 31.777344 51.101562 31.777344 50.664062 Z M 31.777344 50.664062 "/>
<path fill-rule="nonzero" fill="rgb(0%, 0%, 0%)" fill-opacity="1" d="M 41.855469 59.414062 L 41.855469 58.882812 C 40.917969 58.882812 40.761719 58.882812 40.761719 58.257812 L 40.761719 55.007812 C 40.761719 53.757812 40.136719 53.007812 38.605469 53.007812 C 37.417969 53.007812 36.636719 53.664062 36.230469 54.414062 L 36.199219 54.414062 L 36.199219 53.007812 L 34.074219 53.164062 L 34.074219 53.695312 C 35.042969 53.695312 35.167969 53.789062 35.167969 54.507812 L 35.167969 58.257812 C 35.167969 58.882812 35.011719 58.882812 34.074219 58.882812 L 34.074219 59.414062 C 34.074219 59.414062 35.136719 59.351562 35.730469 59.351562 C 36.261719 59.351562 37.261719 59.414062 37.417969 59.414062 L 37.417969 58.882812 C 36.449219 58.882812 36.324219 58.882812 36.324219 58.257812 L 36.324219 55.664062 C 36.324219 54.132812 37.511719 53.414062 38.480469 53.414062 C 39.511719 53.414062 39.636719 54.226562 39.636719 54.945312 L 39.636719 58.257812 C 39.636719 58.882812 39.480469 58.882812 38.542969 58.882812 L 38.542969 59.414062 C 38.542969 59.414062 39.574219 59.351562 40.199219 59.351562 C 40.730469 59.351562 41.730469 59.414062 41.855469 59.414062 Z M 41.855469 59.414062 "/>
<path fill-rule="nonzero" fill="rgb(0%, 0%, 0%)" fill-opacity="1" d="M 49.285156 57.664062 C 49.285156 57.507812 49.097656 57.507812 49.035156 57.507812 C 48.847656 57.507812 48.816406 57.539062 48.753906 57.757812 C 48.441406 58.632812 47.660156 59.101562 46.785156 59.101562 C 45.785156 59.101562 44.472656 58.351562 44.472656 56.257812 C 44.472656 54.414062 45.378906 53.382812 46.722656 53.382812 C 46.910156 53.382812 47.597656 53.382812 48.128906 53.601562 C 47.878906 53.726562 47.722656 53.976562 47.722656 54.257812 C 47.722656 54.632812 48.003906 54.945312 48.410156 54.945312 C 48.785156 54.945312 49.097656 54.695312 49.097656 54.226562 C 49.097656 52.945312 47.066406 52.945312 46.660156 52.945312 C 44.503906 52.945312 43.128906 54.601562 43.128906 56.289062 C 43.128906 58.101562 44.691406 59.570312 46.597656 59.570312 C 48.753906 59.570312 49.285156 57.851562 49.285156 57.664062 Z M 49.285156 57.664062 "/>
<path fill-rule="nonzero" fill="rgb(0%, 0%, 0%)" fill-opacity="1" d="M 53.953125 59.414062 L 53.953125 58.882812 C 52.984375 58.882812 52.859375 58.882812 52.859375 58.257812 L 52.859375 49.320312 L 50.671875 49.476562 L 50.671875 50.007812 C 51.640625 50.007812 51.765625 50.101562 51.765625 50.820312 L 51.765625 58.257812 C 51.765625 58.882812 51.609375 58.882812 50.671875 58.882812 L 50.671875 59.414062 C 50.671875 59.414062 51.734375 59.351562 52.296875 59.351562 C 52.859375 59.351562 53.390625 59.382812 53.953125 59.414062 Z M 53.953125 59.414062 "/>
<path fill="none" stroke-width="0.5579" stroke-linecap="butt" stroke-linejoin="miter" stroke="rgb(0%, 0%, 0%)" stroke-opacity="1" stroke-miterlimit="10" d="M 36.028252 8.766563 L 36.028252 -10.077187 " transform="matrix(2, 0, 0, -2, 127.755997, 54.830002)"/>
<path fill="none" stroke-width="0.5579" stroke-linecap="round" stroke-linejoin="round" stroke="rgb(0%, 0%, 0%)" stroke-opacity="1" stroke-miterlimit="10" d="M -2.902184 3.349266 C -2.370934 1.337547 -1.191246 0.392235 0.000160217 0.0016098 C -1.191246 -0.389015 -2.370934 -1.338234 -2.902184 -3.346046 " transform="matrix(0, 2, 2, 0, 199.80928, 75.538742)"/>
<path fill-rule="nonzero" fill="rgb(0%, 0%, 0%)" fill-opacity="1" d="M 205.910156 60.246094 C 207.222656 60.214844 207.910156 59.089844 208.253906 58.308594 L 208.003906 58.183594 C 207.785156 58.527344 207.253906 59.589844 206.660156 59.589844 C 206.535156 59.589844 206.347656 59.371094 206.347656 59.214844 C 206.347656 58.933594 206.535156 58.371094 206.628906 58.152344 L 207.566406 55.402344 C 207.722656 54.996094 207.785156 54.808594 207.785156 54.558594 C 207.785156 54.121094 207.753906 53.777344 207.285156 53.777344 C 206.378906 53.777344 205.285156 54.871094 204.972656 55.589844 L 205.253906 55.746094 C 205.441406 55.464844 205.972656 54.652344 206.316406 54.652344 C 206.535156 54.652344 206.597656 54.808594 206.597656 54.964844 C 206.628906 55.183594 206.503906 55.589844 206.410156 55.871094 L 205.441406 58.621094 C 205.316406 58.964844 205.253906 59.277344 205.253906 59.464844 C 205.253906 59.964844 205.441406 60.246094 205.910156 60.246094 Z M 208.691406 51.152344 C 208.691406 50.746094 208.347656 50.371094 207.941406 50.371094 C 207.535156 50.371094 207.191406 50.746094 207.191406 51.152344 C 207.191406 51.558594 207.566406 51.871094 207.941406 51.871094 C 208.285156 51.871094 208.691406 51.496094 208.691406 51.152344 Z M 208.691406 51.152344 "/>
<path fill-rule="nonzero" fill="rgb(0%, 0%, 0%)" fill-opacity="1" d="M 211.878906 58.191406 C 211.410156 58.191406 210.941406 58.566406 210.597656 59.035156 L 210.503906 59.035156 L 211.628906 54.910156 L 209.941406 54.972656 L 209.878906 55.128906 C 210.316406 55.128906 210.691406 55.253906 210.691406 55.566406 C 210.691406 55.628906 210.660156 55.753906 210.597656 55.910156 L 208.691406 62.972656 L 209.441406 62.972656 L 209.972656 61.035156 L 210.222656 60.941406 L 210.816406 62.378906 C 210.941406 62.628906 211.035156 62.816406 211.128906 62.910156 C 211.222656 63.003906 211.347656 63.066406 211.503906 63.066406 C 212.191406 63.066406 212.441406 62.597656 212.816406 61.722656 L 212.628906 61.628906 C 212.410156 62.066406 212.253906 62.535156 211.910156 62.535156 C 211.785156 62.535156 211.597656 62.097656 211.472656 61.785156 L 211.003906 60.597656 L 211.222656 60.503906 C 211.722656 60.253906 212.160156 60.035156 212.441406 59.753906 C 212.722656 59.472656 212.878906 59.191406 212.878906 58.910156 C 212.878906 58.410156 212.535156 58.191406 211.878906 58.191406 Z M 210.097656 60.691406 C 210.191406 60.253906 210.597656 59.410156 210.847656 59.097656 C 211.035156 58.878906 211.441406 58.410156 211.816406 58.410156 C 212.222656 58.410156 212.222656 58.785156 212.222656 59.003906 C 212.191406 59.816406 210.722656 60.441406 210.097656 60.691406 Z M 210.097656 60.691406 "/>
<path fill="none" stroke-width="0.5579" stroke-linecap="butt" stroke-linejoin="miter" stroke="rgb(0%, 0%, 0%)" stroke-opacity="1" stroke-miterlimit="10" d="M -12.760811 -18.971718 L 17.72747 -18.971718 " transform="matrix(2, 0, 0, -2, 127.755997, 54.830002)"/>
<path fill="none" stroke-width="0.5579" stroke-linecap="round" stroke-linejoin="round" stroke="rgb(0%, 0%, 0%)" stroke-opacity="1" stroke-miterlimit="10" d="M -2.901146 3.346596 C -2.369896 1.338783 -1.190208 0.389565 0.00119781 -0.00106049 C -1.190208 -0.391685 -2.369896 -1.340904 -2.901146 -3.348717 " transform="matrix(2, 0, 0, -2, 163.771042, 92.771317)"/>
<path fill-rule="nonzero" fill="rgb(0%, 0%, 0%)" fill-opacity="1" d="M 155.976562 75.367188 L 155.976562 76.242188 L 161.070312 76.242188 L 161.070312 71.148438 L 160.195312 71.148438 L 160.195312 75.367188 Z M 155.976562 75.367188 "/>
</svg>
