<?xml version="1.0" encoding="UTF-8"?>
<svg xmlns="http://www.w3.org/2000/svg" xmlns:xlink="http://www.w3.org/1999/xlink" width="203.600006" height="101.559998" viewBox="0 0 203.600006 101.559998">
<defs>
<clipPath id="clip-0">
<path clip-rule="nonzero" d="M 33 0 L 190 0 L 190 101.5625 L 33 101.5625 Z M 33 0 "/>
</clipPath>
</defs>
<path fill-rule="nonzero" fill="rgb(0%, 0%, 0%)" fill-opacity="1" d="M 23.492188 11.972656 L 23.929688 11.316406 L 21.335938 21.222656 C 21.210938 21.691406 21.117188 22.035156 20.960938 22.316406 C 20.804688 22.785156 20.398438 23.285156 19.960938 23.472656 C 19.742188 23.566406 19.429688 23.628906 19.117188 23.628906 L 19.023438 23.910156 L 24.773438 23.910156 L 24.867188 23.628906 C 24.242188 23.628906 23.742188 23.566406 23.492188 23.378906 C 23.210938 23.160156 23.148438 22.722656 23.148438 22.316406 C 23.148438 22.003906 23.210938 21.566406 23.367188 21.035156 L 25.335938 13.566406 C 25.492188 12.941406 25.617188 12.441406 25.742188 12.066406 C 25.960938 11.472656 26.398438 10.816406 26.835938 10.503906 C 27.054688 10.378906 27.335938 10.347656 27.679688 10.347656 L 27.773438 10.066406 L 24.179688 10.066406 L 17.492188 20.785156 L 17.210938 20.785156 L 15.929688 10.066406 L 11.648438 10.066406 L 11.554688 10.347656 C 12.179688 10.347656 12.585938 10.347656 12.804688 10.472656 C 13.085938 10.597656 13.429688 11.097656 13.429688 11.472656 C 13.429688 11.785156 13.367188 12.285156 13.179688 12.941406 L 10.992188 21.222656 C 10.835938 21.847656 10.335938 22.535156 9.867188 22.941406 C 9.429688 23.347656 8.742188 23.628906 8.179688 23.628906 L 8.117188 23.910156 L 13.085938 23.910156 L 13.179688 23.628906 C 12.710938 23.597656 12.179688 23.503906 11.960938 23.191406 C 11.742188 22.878906 11.429688 22.347656 11.429688 21.847656 C 11.429688 21.566406 11.429688 21.285156 11.492188 21.035156 L 13.898438 11.972656 L 14.023438 11.535156 L 15.492188 23.910156 L 16.085938 23.910156 Z M 23.492188 11.972656 "/>
<path fill-rule="nonzero" fill="rgb(0%, 0%, 0%)" fill-opacity="1" d="M 33.59375 26.898438 L 33.59375 26.367188 L 33.03125 26.367188 C 31.59375 26.367188 31.59375 26.179688 31.59375 25.710938 L 31.59375 17.648438 C 31.59375 17.273438 31.5625 17.242188 31.15625 17.242188 C 30.21875 18.179688 28.90625 18.179688 28.3125 18.179688 L 28.3125 18.710938 C 28.65625 18.710938 29.625 18.710938 30.40625 18.304688 L 30.40625 25.710938 C 30.40625 26.179688 30.40625 26.367188 28.96875 26.367188 L 28.40625 26.367188 L 28.40625 26.898438 L 31 26.835938 Z M 33.59375 26.898438 "/>
<path fill-rule="nonzero" fill="rgb(0%, 0%, 0%)" fill-opacity="1" d="M 51.988281 23.222656 L 47.550781 18.785156 L 51.988281 14.347656 L 51.207031 13.535156 L 46.769531 18.003906 L 42.332031 13.535156 L 41.550781 14.347656 L 45.957031 18.785156 L 41.550781 23.222656 L 42.332031 24.003906 L 46.769531 19.566406 L 51.207031 24.003906 Z M 51.988281 23.222656 "/>
<path fill-rule="nonzero" fill="rgb(0%, 0%, 0%)" fill-opacity="1" d="M 67.753906 15.316406 C 67.753906 12.441406 66.878906 10.128906 64.722656 10.128906 C 63.035156 10.128906 61.222656 11.722656 61.222656 12.597656 C 61.222656 13.253906 61.753906 13.535156 62.160156 13.535156 C 62.566406 13.535156 62.816406 13.191406 62.878906 13.128906 C 62.816406 13.097656 62.691406 12.910156 62.691406 12.628906 C 62.691406 12.441406 63.035156 10.722656 64.753906 10.722656 C 66.191406 10.722656 66.503906 12.566406 66.503906 14.191406 C 66.503906 15.410156 66.347656 16.472656 66.347656 16.503906 L 66.316406 16.503906 C 66.316406 16.472656 65.535156 15.253906 63.972656 15.253906 C 59.972656 15.253906 58.316406 19.128906 58.316406 21.191406 C 58.316406 23.035156 59.410156 24.222656 61.628906 24.222656 C 65.066406 24.222656 67.753906 20.753906 67.753906 15.316406 Z M 65.472656 17.566406 C 65.472656 18.097656 64.972656 23.753906 61.753906 23.753906 C 60.628906 23.753906 60.128906 23.097656 60.128906 21.847656 C 60.128906 20.566406 60.941406 15.722656 63.816406 15.722656 C 64.941406 15.722656 65.472656 16.378906 65.472656 17.566406 Z M 65.472656 17.566406 "/>
<path fill-rule="nonzero" fill="rgb(0%, 0%, 0%)" fill-opacity="1" d="M 81.273438 23.910156 L 75.710938 10.441406 L 75.367188 10.441406 L 69.429688 23.910156 Z M 78.960938 23.066406 L 70.742188 23.066406 L 75.023438 13.410156 Z M 78.960938 23.066406 "/>
<path fill-rule="nonzero" fill="rgb(0%, 0%, 0%)" fill-opacity="1" d="M 88.648438 16.679688 L 88.648438 16.148438 L 88.085938 16.148438 C 86.648438 16.148438 86.648438 15.960938 86.648438 15.492188 L 86.648438 7.429688 C 86.648438 7.054688 86.617188 7.023438 86.210938 7.023438 C 85.273438 7.960938 83.960938 7.960938 83.367188 7.960938 L 83.367188 8.492188 C 83.710938 8.492188 84.679688 8.492188 85.460938 8.085938 L 85.460938 15.492188 C 85.460938 15.960938 85.460938 16.148438 84.023438 16.148438 L 83.460938 16.148438 L 83.460938 16.679688 L 86.054688 16.617188 Z M 88.648438 16.679688 "/>
<path fill-rule="nonzero" fill="rgb(0%, 0%, 0%)" fill-opacity="1" d="M 170.953125 11.972656 L 171.390625 11.316406 L 168.796875 21.222656 C 168.671875 21.691406 168.578125 22.035156 168.421875 22.316406 C 168.265625 22.785156 167.859375 23.285156 167.421875 23.472656 C 167.203125 23.566406 166.890625 23.628906 166.578125 23.628906 L 166.484375 23.910156 L 172.234375 23.910156 L 172.328125 23.628906 C 171.703125 23.628906 171.203125 23.566406 170.953125 23.378906 C 170.671875 23.160156 170.609375 22.722656 170.609375 22.316406 C 170.609375 22.003906 170.671875 21.566406 170.828125 21.035156 L 172.796875 13.566406 C 172.953125 12.941406 173.078125 12.441406 173.203125 12.066406 C 173.421875 11.472656 173.859375 10.816406 174.296875 10.503906 C 174.515625 10.378906 174.796875 10.347656 175.140625 10.347656 L 175.234375 10.066406 L 171.640625 10.066406 L 164.953125 20.785156 L 164.671875 20.785156 L 163.390625 10.066406 L 159.109375 10.066406 L 159.015625 10.347656 C 159.640625 10.347656 160.046875 10.347656 160.265625 10.472656 C 160.546875 10.597656 160.890625 11.097656 160.890625 11.472656 C 160.890625 11.785156 160.828125 12.285156 160.640625 12.941406 L 158.453125 21.222656 C 158.296875 21.847656 157.796875 22.535156 157.328125 22.941406 C 156.890625 23.347656 156.203125 23.628906 155.640625 23.628906 L 155.578125 23.910156 L 160.546875 23.910156 L 160.640625 23.628906 C 160.171875 23.597656 159.640625 23.503906 159.421875 23.191406 C 159.203125 22.878906 158.890625 22.347656 158.890625 21.847656 C 158.890625 21.566406 158.890625 21.285156 158.953125 21.035156 L 161.359375 11.972656 L 161.484375 11.535156 L 162.953125 23.910156 L 163.546875 23.910156 Z M 170.953125 11.972656 "/>
<path fill-rule="nonzero" fill="rgb(0%, 0%, 0%)" fill-opacity="1" d="M 181.054688 26.898438 L 181.054688 26.367188 L 180.492188 26.367188 C 179.054688 26.367188 179.054688 26.179688 179.054688 25.710938 L 179.054688 17.648438 C 179.054688 17.273438 179.023438 17.242188 178.617188 17.242188 C 177.679688 18.179688 176.367188 18.179688 175.773438 18.179688 L 175.773438 18.710938 C 176.117188 18.710938 177.085938 18.710938 177.867188 18.304688 L 177.867188 25.710938 C 177.867188 26.179688 177.867188 26.367188 176.429688 26.367188 L 175.867188 26.367188 L 175.867188 26.898438 L 178.460938 26.835938 Z M 181.054688 26.898438 "/>
<path fill-rule="nonzero" fill="rgb(0%, 0%, 0%)" fill-opacity="1" d="M 26.628906 79.335938 L 27.066406 78.679688 L 24.472656 88.585938 C 24.347656 89.054688 24.253906 89.398438 24.097656 89.679688 C 23.941406 90.148438 23.535156 90.648438 23.097656 90.835938 C 22.878906 90.929688 22.566406 90.992188 22.253906 90.992188 L 22.160156 91.273438 L 27.910156 91.273438 L 28.003906 90.992188 C 27.378906 90.992188 26.878906 90.929688 26.628906 90.742188 C 26.347656 90.523438 26.285156 90.085938 26.285156 89.679688 C 26.285156 89.367188 26.347656 88.929688 26.503906 88.398438 L 28.472656 80.929688 C 28.628906 80.304688 28.753906 79.804688 28.878906 79.429688 C 29.097656 78.835938 29.535156 78.179688 29.972656 77.867188 C 30.191406 77.742188 30.472656 77.710938 30.816406 77.710938 L 30.910156 77.429688 L 27.316406 77.429688 L 20.628906 88.148438 L 20.347656 88.148438 L 19.066406 77.429688 L 14.785156 77.429688 L 14.691406 77.710938 C 15.316406 77.710938 15.722656 77.710938 15.941406 77.835938 C 16.222656 77.960938 16.566406 78.460938 16.566406 78.835938 C 16.566406 79.148438 16.503906 79.648438 16.316406 80.304688 L 14.128906 88.585938 C 13.972656 89.210938 13.472656 89.898438 13.003906 90.304688 C 12.566406 90.710938 11.878906 90.992188 11.316406 90.992188 L 11.253906 91.273438 L 16.222656 91.273438 L 16.316406 90.992188 C 15.847656 90.960938 15.316406 90.867188 15.097656 90.554688 C 14.878906 90.242188 14.566406 89.710938 14.566406 89.210938 C 14.566406 88.929688 14.566406 88.648438 14.628906 88.398438 L 17.035156 79.335938 L 17.160156 78.898438 L 18.628906 91.273438 L 19.222656 91.273438 Z M 26.628906 79.335938 "/>
<path fill-rule="nonzero" fill="rgb(0%, 0%, 0%)" fill-opacity="1" d="M 37.355469 89.636719 C 37.355469 88.042969 37.167969 86.886719 36.511719 85.855469 C 36.042969 85.199219 35.136719 84.605469 33.980469 84.605469 C 30.605469 84.605469 30.605469 88.574219 30.605469 89.636719 C 30.605469 90.667969 30.605469 94.542969 33.980469 94.542969 C 37.355469 94.542969 37.355469 90.667969 37.355469 89.636719 Z M 36.042969 89.449219 C 36.042969 90.511719 36.042969 91.574219 35.855469 92.511719 C 35.542969 93.824219 34.574219 94.136719 33.980469 94.136719 C 33.324219 94.136719 32.417969 93.761719 32.136719 92.574219 C 31.917969 91.699219 31.917969 90.511719 31.917969 89.449219 C 31.917969 88.386719 31.917969 87.261719 32.136719 86.480469 C 32.449219 85.324219 33.386719 85.011719 33.980469 85.011719 C 34.761719 85.011719 35.511719 85.511719 35.792969 86.355469 C 36.011719 87.136719 36.042969 88.167969 36.042969 89.449219 Z M 36.042969 89.449219 "/>
<path fill-rule="nonzero" fill="rgb(0%, 0%, 0%)" fill-opacity="1" d="M 55.671875 84.679688 L 55.671875 83.585938 L 45.484375 83.585938 L 45.484375 84.679688 Z M 55.671875 88.742188 L 55.671875 87.617188 L 45.484375 87.617188 L 45.484375 88.742188 Z M 55.671875 88.742188 "/>
<path fill-rule="nonzero" fill="rgb(0%, 0%, 0%)" fill-opacity="1" d="M 77.65625 91.273438 L 77.65625 78.085938 L 74.75 78.085938 L 70.5625 89.742188 L 70.5 89.742188 L 66.5 78.085938 L 63.40625 78.085938 L 63.40625 91.273438 L 64.28125 91.273438 L 64.28125 81.929688 L 64.3125 81.929688 L 67.5625 91.273438 L 70.9375 91.273438 L 74.3125 81.867188 L 74.34375 81.867188 L 74.34375 91.273438 Z M 76.78125 90.398438 L 75.21875 90.398438 L 75.21875 78.960938 L 76.78125 78.960938 Z M 69.84375 90.398438 L 68.1875 90.398438 L 64.625 80.179688 L 64.21875 78.960938 L 65.8125 78.960938 Z M 69.84375 90.398438 "/>
<path fill-rule="nonzero" fill="rgb(0%, 0%, 0%)" fill-opacity="1" d="M 86.136719 89.636719 C 86.136719 88.042969 85.949219 86.886719 85.292969 85.855469 C 84.824219 85.199219 83.917969 84.605469 82.761719 84.605469 C 79.386719 84.605469 79.386719 88.574219 79.386719 89.636719 C 79.386719 90.667969 79.386719 94.542969 82.761719 94.542969 C 86.136719 94.542969 86.136719 90.667969 86.136719 89.636719 Z M 84.824219 89.449219 C 84.824219 90.511719 84.824219 91.574219 84.636719 92.511719 C 84.324219 93.824219 83.355469 94.136719 82.761719 94.136719 C 82.105469 94.136719 81.199219 93.761719 80.917969 92.574219 C 80.699219 91.699219 80.699219 90.511719 80.699219 89.449219 C 80.699219 88.386719 80.699219 87.261719 80.917969 86.480469 C 81.230469 85.324219 82.167969 85.011719 82.761719 85.011719 C 83.542969 85.011719 84.292969 85.511719 84.574219 86.355469 C 84.792969 87.136719 84.824219 88.167969 84.824219 89.449219 Z M 84.824219 89.449219 "/>
<path fill-rule="nonzero" fill="rgb(0%, 0%, 0%)" fill-opacity="1" d="M 172.453125 91.273438 L 172.453125 78.085938 L 169.546875 78.085938 L 165.359375 89.742188 L 165.296875 89.742188 L 161.296875 78.085938 L 158.203125 78.085938 L 158.203125 91.273438 L 159.078125 91.273438 L 159.078125 81.929688 L 159.109375 81.929688 L 162.359375 91.273438 L 165.734375 91.273438 L 169.109375 81.867188 L 169.140625 81.867188 L 169.140625 91.273438 Z M 171.578125 90.398438 L 170.015625 90.398438 L 170.015625 78.960938 L 171.578125 78.960938 Z M 164.640625 90.398438 L 162.984375 90.398438 L 159.421875 80.179688 L 159.015625 78.960938 L 160.609375 78.960938 Z M 164.640625 90.398438 "/>
<path fill-rule="nonzero" fill="rgb(0%, 0%, 0%)" fill-opacity="1" d="M 180.308594 94.261719 L 180.308594 93.730469 L 179.746094 93.730469 C 178.308594 93.730469 178.308594 93.542969 178.308594 93.074219 L 178.308594 85.011719 C 178.308594 84.636719 178.277344 84.605469 177.871094 84.605469 C 176.933594 85.542969 175.621094 85.542969 175.027344 85.542969 L 175.027344 86.074219 C 175.371094 86.074219 176.339844 86.074219 177.121094 85.667969 L 177.121094 93.074219 C 177.121094 93.542969 177.121094 93.730469 175.683594 93.730469 L 175.121094 93.730469 L 175.121094 94.261719 L 177.714844 94.199219 Z M 180.308594 94.261719 "/>
<path fill="none" stroke-width="0.5579" stroke-linecap="butt" stroke-linejoin="miter" stroke="rgb(0%, 0%, 0%)" stroke-opacity="1" stroke-miterlimit="10" d="M 2.00753 15.996469 L 24.960655 15.996469 " transform="matrix(2, 0, 0, -2, 96.024002, 50.782001)"/>
<path fill="none" stroke-width="0.5579" stroke-linecap="round" stroke-linejoin="round" stroke="rgb(0%, 0%, 0%)" stroke-opacity="1" stroke-miterlimit="10" d="M -2.901634 3.347575 C -2.370384 1.339763 -1.190697 0.390544 0.000709534 -0.0000810623 C -1.190697 -0.390706 -2.370384 -1.339925 -2.901634 -3.347737 " transform="matrix(2, 0, 0, -2, 146.506393, 18.7889)"/>
<path fill-rule="nonzero" fill="rgb(0%, 0%, 0%)" fill-opacity="1" d="M 120.371094 7.433594 C 120.371094 5.621094 118.871094 4.152344 117.027344 4.152344 C 116.214844 4.152344 115.371094 4.464844 114.777344 5.027344 L 114.777344 4.152344 L 112.589844 4.308594 L 112.589844 4.839844 C 113.589844 4.839844 113.683594 4.902344 113.683594 5.527344 L 113.683594 12.214844 C 113.683594 12.839844 113.527344 12.839844 112.589844 12.839844 L 112.589844 13.371094 C 112.589844 13.371094 113.621094 13.308594 114.246094 13.308594 C 114.777344 13.308594 115.777344 13.371094 115.902344 13.371094 L 115.902344 12.839844 C 114.964844 12.839844 114.808594 12.839844 114.808594 12.214844 L 114.808594 9.871094 C 114.902344 9.933594 115.589844 10.714844 116.808594 10.714844 C 118.714844 10.714844 120.371094 9.277344 120.371094 7.433594 Z M 119.027344 7.433594 C 119.027344 9.089844 117.933594 10.308594 116.714844 10.308594 C 115.433594 10.308594 114.871094 9.183594 114.808594 9.089844 L 114.808594 5.714844 C 115.246094 4.996094 116.089844 4.621094 116.871094 4.621094 C 118.089844 4.621094 119.027344 5.902344 119.027344 7.433594 Z M 119.027344 7.433594 "/>
<path fill-rule="nonzero" fill="rgb(0%, 0%, 0%)" fill-opacity="1" d="M 126.953125 5.089844 C 126.953125 4.589844 126.484375 4.152344 125.828125 4.152344 C 125.078125 4.152344 124.296875 4.589844 123.859375 5.714844 L 123.828125 5.714844 L 123.828125 4.152344 L 121.765625 4.308594 L 121.765625 4.839844 C 122.734375 4.839844 122.859375 4.933594 122.859375 5.652344 L 122.859375 9.402344 C 122.859375 10.027344 122.703125 10.027344 121.765625 10.027344 L 121.765625 10.558594 C 121.828125 10.558594 122.828125 10.496094 123.421875 10.496094 L 125.296875 10.558594 L 125.296875 10.027344 L 125.015625 10.027344 C 123.953125 10.027344 123.953125 9.871094 123.953125 9.371094 L 123.953125 7.246094 C 123.953125 6.027344 124.515625 4.558594 125.890625 4.558594 C 125.765625 4.652344 125.640625 4.839844 125.640625 5.089844 C 125.640625 5.558594 126.015625 5.746094 126.296875 5.746094 C 126.640625 5.746094 126.953125 5.527344 126.953125 5.089844 Z M 126.953125 5.089844 "/>
<path fill-rule="nonzero" fill="rgb(0%, 0%, 0%)" fill-opacity="1" d="M 133.074219 13.9375 L 133.074219 13.5 L 132.605469 13.5 C 131.480469 13.5 131.480469 13.375 131.480469 13 L 131.480469 6.96875 C 131.480469 6.65625 131.449219 6.65625 131.105469 6.65625 C 130.386719 7.34375 129.261719 7.34375 128.855469 7.34375 L 128.855469 7.78125 C 129.167969 7.78125 129.886719 7.78125 130.542969 7.46875 L 130.542969 13 C 130.542969 13.375 130.542969 13.5 129.417969 13.5 L 128.949219 13.5 L 128.949219 13.9375 C 129.542969 13.90625 130.386719 13.90625 131.011719 13.90625 C 131.636719 13.90625 132.480469 13.90625 133.074219 13.9375 Z M 133.074219 13.9375 "/>
<path fill="none" stroke-width="0.5579" stroke-linecap="butt" stroke-linejoin="miter" stroke="rgb(0%, 0%, 0%)" stroke-opacity="1" stroke-miterlimit="10" d="M -23.101845 8.094126 L -23.101845 -8.882437 " transform="matrix(2, 0, 0, -2, 96.024002, 50.782001)"/>
<path fill="none" stroke-width="0.5579" stroke-linecap="round" stroke-linejoin="round" stroke="rgb(0%, 0%, 0%)" stroke-opacity="1" stroke-miterlimit="10" d="M -2.901585 3.347853 C -2.370335 1.34004 -1.190647 0.390821 0.000759125 0.000196457 C -1.190647 -0.390429 -2.370335 -1.339647 -2.901585 -3.34746 " transform="matrix(0, 2, 2, 0, 49.81992, 69.107857)"/>
<path fill-rule="nonzero" fill="rgb(0%, 0%, 0%)" fill-opacity="1" d="M 34.523438 48.203125 C 35.210938 48.203125 35.085938 49.484375 34.960938 50.046875 C 34.929688 50.328125 34.773438 50.671875 34.679688 50.984375 C 34.335938 52.171875 33.273438 54.046875 32.460938 54.046875 C 31.867188 54.046875 31.710938 53.109375 31.710938 52.609375 C 31.710938 52.203125 31.742188 51.765625 31.898438 51.328125 C 32.273438 50.328125 33.304688 48.203125 34.523438 48.203125 Z M 34.398438 47.921875 C 33.992188 47.921875 33.554688 48.078125 33.117188 48.390625 C 32.679688 48.671875 32.273438 49.046875 31.929688 49.484375 C 31.304688 50.234375 30.710938 51.421875 30.710938 52.671875 C 30.710938 53.640625 31.054688 54.390625 31.992188 54.390625 C 33.242188 54.390625 33.710938 53.515625 34.117188 52.859375 C 33.929688 53.765625 34.054688 54.390625 34.679688 54.390625 C 35.023438 54.390625 35.367188 54.234375 35.773438 53.921875 C 36.148438 53.609375 36.523438 53.140625 36.835938 52.578125 L 36.648438 52.421875 C 36.398438 52.828125 35.773438 53.765625 35.367188 53.765625 C 35.148438 53.765625 35.085938 53.421875 35.085938 53.203125 C 35.085938 52.328125 35.679688 50.828125 35.992188 49.859375 L 36.679688 48.046875 L 35.710938 48.046875 L 35.460938 48.703125 C 35.273438 48.234375 34.992188 47.921875 34.398438 47.921875 Z M 34.398438 47.921875 "/>
<path fill-rule="nonzero" fill="rgb(0%, 0%, 0%)" fill-opacity="1" d="M 43.308594 52.949219 C 43.308594 52.136719 43.308594 49.167969 40.621094 49.167969 C 37.933594 49.167969 37.933594 52.136719 37.933594 52.949219 C 37.933594 53.730469 37.933594 56.667969 40.621094 56.667969 C 43.308594 56.667969 43.308594 53.730469 43.308594 52.949219 Z M 42.277344 52.792969 C 42.277344 53.511719 42.277344 54.605469 42.089844 55.230469 C 41.777344 56.199219 40.996094 56.324219 40.621094 56.324219 C 40.152344 56.324219 39.402344 56.105469 39.152344 55.199219 C 38.964844 54.574219 38.964844 53.480469 38.964844 52.792969 C 38.964844 52.074219 38.964844 51.230469 39.121094 50.636719 C 39.402344 49.636719 40.246094 49.511719 40.621094 49.511719 C 41.121094 49.511719 41.839844 49.761719 42.089844 50.574219 C 42.246094 51.167969 42.277344 51.949219 42.277344 52.792969 Z M 42.277344 52.792969 "/>
<path fill="none" stroke-width="0.5579" stroke-linecap="butt" stroke-linejoin="miter" stroke="rgb(0%, 0%, 0%)" stroke-opacity="1" stroke-miterlimit="10" d="M 36.866905 8.094126 L 36.866905 -9.304312 " transform="matrix(2, 0, 0, -2, 96.024002, 50.782001)"/>
<path fill="none" stroke-width="0.5579" stroke-linecap="round" stroke-linejoin="round" stroke="rgb(0%, 0%, 0%)" stroke-opacity="1" stroke-miterlimit="10" d="M -2.902077 3.348412 C -2.370827 1.340599 -1.191139 0.39138 0.000267029 0.00075531 C -1.191139 -0.38987 -2.370827 -1.339088 -2.902077 -3.346901 " transform="matrix(0, 2, 2, 0, 169.756302, 69.944778)"/>
<path fill-rule="nonzero" fill="rgb(0%, 0%, 0%)" fill-opacity="1" d="M 180.546875 48.328125 C 180.546875 48.078125 180.359375 47.796875 180.078125 47.796875 C 179.765625 47.796875 178.546875 49.015625 178.140625 49.234375 C 178.140625 48.421875 178.546875 47.609375 178.546875 47.140625 C 178.546875 46.828125 178.359375 46.640625 178.046875 46.640625 C 177.734375 46.640625 177.578125 46.828125 177.578125 47.140625 C 177.578125 47.703125 177.921875 48.453125 177.921875 49.234375 C 177.453125 48.984375 176.328125 47.765625 176.015625 47.765625 C 175.765625 47.765625 175.515625 47.984375 175.515625 48.265625 C 175.515625 48.765625 177.234375 49.109375 177.796875 49.421875 C 177.203125 49.796875 176.046875 49.953125 175.765625 50.140625 C 175.640625 50.265625 175.515625 50.390625 175.515625 50.578125 C 175.515625 50.828125 175.703125 51.078125 175.984375 51.078125 C 176.296875 51.078125 177.484375 49.890625 177.921875 49.640625 C 177.921875 50.453125 177.515625 51.265625 177.515625 51.765625 C 177.515625 52.046875 177.734375 52.265625 178.015625 52.265625 C 178.328125 52.265625 178.484375 52.046875 178.484375 51.765625 C 178.484375 51.171875 178.140625 50.421875 178.140625 49.640625 C 178.609375 49.890625 179.765625 51.109375 180.046875 51.109375 C 180.296875 51.109375 180.546875 50.890625 180.546875 50.609375 C 180.546875 50.421875 180.421875 50.296875 180.265625 50.203125 C 179.890625 49.953125 178.890625 49.796875 178.265625 49.421875 C 178.953125 49.015625 179.859375 48.984375 180.296875 48.734375 C 180.453125 48.640625 180.546875 48.515625 180.546875 48.328125 Z M 180.546875 48.328125 "/>
<path fill-rule="nonzero" fill="rgb(0%, 0%, 0%)" fill-opacity="1" d="M 190.085938 55.351562 L 190.085938 48.101562 L 188.460938 48.101562 L 186.179688 54.507812 L 186.148438 54.507812 L 183.929688 48.101562 L 182.242188 48.101562 L 182.242188 55.351562 L 182.710938 55.351562 L 182.710938 50.195312 L 182.742188 50.195312 L 184.523438 55.351562 L 186.398438 55.351562 L 188.242188 50.164062 L 188.242188 55.351562 Z M 189.585938 54.882812 L 188.742188 54.882812 L 188.742188 48.570312 L 189.585938 48.570312 Z M 185.773438 54.882812 L 184.867188 54.882812 L 182.898438 49.226562 L 182.679688 48.570312 L 183.554688 48.570312 Z M 185.773438 54.882812 "/>
<path fill-rule="nonzero" fill="rgb(0%, 0%, 0%)" fill-opacity="1" d="M 196.140625 58.546875 L 196.140625 58.109375 L 195.671875 58.109375 C 194.546875 58.109375 194.546875 57.984375 194.546875 57.609375 L 194.546875 51.578125 C 194.546875 51.265625 194.515625 51.265625 194.171875 51.265625 C 193.453125 51.953125 192.328125 51.953125 191.921875 51.953125 L 191.921875 52.390625 C 192.234375 52.390625 192.953125 52.390625 193.609375 52.078125 L 193.609375 57.609375 C 193.609375 57.984375 193.609375 58.109375 192.484375 58.109375 L 192.015625 58.109375 L 192.015625 58.546875 C 192.609375 58.515625 193.453125 58.515625 194.078125 58.515625 C 194.703125 58.515625 195.546875 58.515625 196.140625 58.546875 Z M 196.140625 58.546875 "/>
<g clip-path="url(#clip-0)">
<path fill="none" stroke-width="2.49017" stroke-linecap="butt" stroke-linejoin="miter" stroke="rgb(0%, 0%, 0%)" stroke-opacity="1" stroke-miterlimit="10" d="M 3.730186 -2.612906 L 11.38253 1.687876 " transform="matrix(2, 0, 0, -2, 96.024002, 50.782001)"/>
</g>
<path fill="none" stroke-width="1.37434" stroke-linecap="butt" stroke-linejoin="miter" stroke="rgb(100%, 100%, 100%)" stroke-opacity="1" stroke-miterlimit="10" d="M 3.730186 -2.612906 L 11.38253 1.687876 " transform="matrix(2, 0, 0, -2, 96.024002, 50.782001)"/>
<path fill="none" stroke-width="0.5579" stroke-linecap="round" stroke-linejoin="round" stroke="rgb(0%, 0%, 0%)" stroke-opacity="1" stroke-miterlimit="10" d="M -1.294109 2.560278 C -0.664885 1.207693 1.023104 0.0489778 1.989665 -0.00107475 C 1.021888 -0.0489102 -0.667447 -1.205868 -1.294157 -2.560927 " transform="matrix(1.74366, -0.9794, -0.9794, -1.74366, 118.78746, 47.407742)"/>
<path fill-rule="nonzero" fill="rgb(0%, 0%, 0%)" fill-opacity="1" d="M 121.757812 66.167969 C 123.007812 66.167969 123.695312 65.199219 124.132812 64.480469 L 123.851562 64.292969 C 123.570312 64.699219 123.070312 65.574219 122.570312 65.574219 C 122.289062 65.574219 122.195312 65.199219 122.195312 65.011719 C 122.195312 64.699219 123.320312 61.417969 123.320312 60.980469 C 123.320312 60.199219 123.039062 59.699219 122.257812 59.699219 C 121.914062 59.699219 121.320312 59.824219 121.007812 60.011719 C 120.695312 60.230469 120.414062 60.511719 120.164062 60.855469 L 120.101562 61.011719 L 121.570312 55.355469 L 119.414062 55.480469 L 119.382812 55.699219 C 119.789062 55.699219 119.976562 55.824219 120.101562 55.917969 C 120.289062 56.011719 120.382812 56.230469 120.382812 56.386719 C 120.382812 56.667969 120.289062 57.011719 120.195312 57.261719 L 117.757812 66.042969 L 118.601562 66.042969 C 119.132812 64.386719 119.695312 62.386719 120.476562 61.136719 C 120.789062 60.574219 121.320312 60.042969 121.976562 60.042969 C 122.539062 60.042969 122.382812 61.011719 122.289062 61.449219 C 122.226562 61.667969 122.132812 61.980469 121.976562 62.386719 C 121.476562 64.011719 121.164062 64.761719 121.164062 65.417969 C 121.164062 65.886719 121.320312 66.167969 121.757812 66.167969 Z M 121.757812 66.167969 "/>
<path fill-rule="nonzero" fill="rgb(0%, 0%, 0%)" fill-opacity="1" d="M 130.085938 68.226562 L 130.085938 67.789062 L 129.617188 67.789062 C 128.492188 67.789062 128.492188 67.664062 128.492188 67.289062 L 128.492188 61.257812 C 128.492188 60.945312 128.460938 60.945312 128.117188 60.945312 C 127.398438 61.632812 126.273438 61.632812 125.867188 61.632812 L 125.867188 62.070312 C 126.179688 62.070312 126.898438 62.070312 127.554688 61.757812 L 127.554688 67.289062 C 127.554688 67.664062 127.554688 67.789062 126.429688 67.789062 L 125.960938 67.789062 L 125.960938 68.226562 C 126.554688 68.195312 127.398438 68.195312 128.023438 68.195312 C 128.648438 68.195312 129.492188 68.195312 130.085938 68.226562 Z M 130.085938 68.226562 "/>
<path fill="none" stroke-width="0.5579" stroke-linecap="butt" stroke-linejoin="miter" stroke="rgb(0%, 0%, 0%)" stroke-opacity="1" stroke-miterlimit="10" d="M 0.441124 -17.683218 L 25.335655 -17.683218 " transform="matrix(2, 0, 0, -2, 96.024002, 50.782001)"/>
<path fill="none" stroke-width="0.5579" stroke-linecap="round" stroke-linejoin="round" stroke="rgb(0%, 0%, 0%)" stroke-opacity="1" stroke-miterlimit="10" d="M -2.90023 3.349037 C -2.372887 1.337318 -1.189293 0.392006 -0.00179291 0.00138092 C -1.189293 -0.389244 -2.372887 -1.338463 -2.90023 -3.346275 " transform="matrix(2, 0, 0, -2, 147.253586, 86.151199)"/>
<path fill-rule="nonzero" fill="rgb(0%, 0%, 0%)" fill-opacity="1" d="M 144.03125 60.570312 L 144.03125 61.445312 L 149.125 61.445312 L 149.125 56.351562 L 148.25 56.351562 L 148.25 60.570312 Z M 144.03125 60.570312 "/>
</svg>
