<?xml version="1.0" encoding="UTF-8"?>
<svg xmlns="http://www.w3.org/2000/svg" xmlns:xlink="http://www.w3.org/1999/xlink" width="138.860001" height="168.779999" viewBox="0 0 138.860001 168.779999">
<path fill-rule="nonzero" fill="rgb(0%, 0%, 0%)" fill-opacity="1" d="M 71.429688 27.695312 C 71.429688 26.398438 70.382812 25.351562 69.085938 25.351562 C 67.789062 25.351562 66.734375 26.398438 66.734375 27.695312 C 66.734375 28.992188 67.789062 30.046875 69.085938 30.046875 C 70.382812 30.046875 71.429688 28.992188 71.429688 27.695312 Z M 71.429688 27.695312 "/>
<path fill-rule="nonzero" fill="rgb(0%, 0%, 0%)" fill-opacity="1" d="M 69.128906 7.8125 C 69.128906 6.71875 68.597656 6.40625 68.253906 6.40625 C 67.753906 6.40625 67.253906 6.9375 67.253906 7.375 C 67.253906 7.625 67.347656 7.75 67.566406 7.96875 C 68.003906 8.375 68.253906 8.875 68.253906 9.59375 C 68.253906 10.4375 67.035156 15 64.722656 15 C 63.691406 15 63.222656 14.3125 63.222656 13.25 C 63.222656 12.15625 63.785156 10.6875 64.378906 9.03125 C 64.535156 8.6875 64.628906 8.40625 64.628906 8.03125 C 64.628906 7.15625 64.003906 6.40625 63.003906 6.40625 C 61.128906 6.40625 60.378906 9.3125 60.378906 9.46875 C 60.378906 9.6875 60.566406 9.6875 60.597656 9.6875 C 60.816406 9.6875 60.816406 9.625 60.910156 9.3125 C 61.503906 7.3125 62.347656 6.84375 62.941406 6.84375 C 63.097656 6.84375 63.441406 6.84375 63.441406 7.46875 C 63.441406 7.96875 63.222656 8.53125 63.097656 8.875 C 62.222656 11.1875 61.972656 12.09375 61.972656 12.96875 C 61.972656 15.125 63.722656 15.4375 64.628906 15.4375 C 67.972656 15.4375 69.128906 8.84375 69.128906 7.8125 Z M 69.128906 7.8125 "/>
<path fill-rule="nonzero" fill="rgb(0%, 0%, 0%)" fill-opacity="1" d="M 74.101562 9.332031 C 74.101562 8.957031 74.101562 8.957031 73.695312 8.957031 C 72.789062 9.832031 71.539062 9.832031 70.976562 9.832031 L 70.976562 10.332031 C 71.289062 10.332031 72.226562 10.332031 72.976562 9.957031 L 72.976562 17.050781 C 72.976562 17.519531 72.976562 17.707031 71.601562 17.707031 L 71.070312 17.707031 L 71.070312 18.207031 C 71.320312 18.207031 73.039062 18.144531 73.539062 18.144531 C 73.976562 18.144531 75.726562 18.207031 76.039062 18.207031 L 76.039062 17.707031 L 75.507812 17.707031 C 74.101562 17.707031 74.101562 17.519531 74.101562 17.050781 Z M 74.101562 9.332031 "/>
<path fill-rule="nonzero" fill="rgb(0%, 0%, 0%)" fill-opacity="1" d="M 71.429688 141.085938 C 71.429688 139.789062 70.382812 138.734375 69.085938 138.734375 C 67.789062 138.734375 66.734375 139.789062 66.734375 141.085938 C 66.734375 142.382812 67.789062 143.429688 69.085938 143.429688 C 70.382812 143.429688 71.429688 142.382812 71.429688 141.085938 Z M 71.429688 141.085938 "/>
<path fill-rule="nonzero" fill="rgb(0%, 0%, 0%)" fill-opacity="1" d="M 69.128906 151.742188 C 69.128906 150.648438 68.597656 150.335938 68.253906 150.335938 C 67.753906 150.335938 67.253906 150.867188 67.253906 151.304688 C 67.253906 151.554688 67.347656 151.679688 67.566406 151.898438 C 68.003906 152.304688 68.253906 152.804688 68.253906 153.523438 C 68.253906 154.367188 67.035156 158.929688 64.722656 158.929688 C 63.691406 158.929688 63.222656 158.242188 63.222656 157.179688 C 63.222656 156.085938 63.785156 154.617188 64.378906 152.960938 C 64.535156 152.617188 64.628906 152.335938 64.628906 151.960938 C 64.628906 151.085938 64.003906 150.335938 63.003906 150.335938 C 61.128906 150.335938 60.378906 153.242188 60.378906 153.398438 C 60.378906 153.617188 60.566406 153.617188 60.597656 153.617188 C 60.816406 153.617188 60.816406 153.554688 60.910156 153.242188 C 61.503906 151.242188 62.347656 150.773438 62.941406 150.773438 C 63.097656 150.773438 63.441406 150.773438 63.441406 151.398438 C 63.441406 151.898438 63.222656 152.460938 63.097656 152.804688 C 62.222656 155.117188 61.972656 156.023438 61.972656 156.898438 C 61.972656 159.054688 63.722656 159.367188 64.628906 159.367188 C 67.972656 159.367188 69.128906 152.773438 69.128906 151.742188 Z M 69.128906 151.742188 "/>
<path fill-rule="nonzero" fill="rgb(0%, 0%, 0%)" fill-opacity="1" d="M 76.476562 159.605469 L 76.007812 159.605469 C 75.976562 159.917969 75.820312 160.730469 75.632812 160.855469 C 75.539062 160.949219 74.476562 160.949219 74.257812 160.949219 L 71.695312 160.949219 C 73.164062 159.667969 73.664062 159.261719 74.476562 158.605469 C 75.507812 157.792969 76.476562 156.917969 76.476562 155.605469 C 76.476562 153.917969 75.007812 152.886719 73.226562 152.886719 C 71.507812 152.886719 70.320312 154.105469 70.320312 155.386719 C 70.320312 156.074219 70.914062 156.167969 71.070312 156.167969 C 71.382812 156.167969 71.789062 155.917969 71.789062 155.417969 C 71.789062 155.167969 71.695312 154.667969 70.976562 154.667969 C 71.414062 153.699219 72.351562 153.386719 73.007812 153.386719 C 74.414062 153.386719 75.132812 154.480469 75.132812 155.605469 C 75.132812 156.824219 74.257812 157.761719 73.820312 158.261719 L 70.476562 161.605469 C 70.320312 161.730469 70.320312 161.761719 70.320312 162.136719 L 76.070312 162.136719 Z M 76.476562 159.605469 "/>
<path fill="none" stroke-width="0.3985" stroke-linecap="butt" stroke-linejoin="miter" stroke="rgb(0%, 0%, 0%)" stroke-opacity="1" stroke-miterlimit="10" d="M -1.061531 56.081062 C -19.792 45.264656 -19.792 11.428719 -1.061531 0.612312 " transform="matrix(2, 0, 0, -2, 69.084, 141.084)"/>
<path fill-rule="nonzero" fill="rgb(0%, 0%, 0%)" fill-opacity="1" d="M 6.953125 87.84375 C 6.921875 87.90625 6.859375 87.96875 6.859375 88.03125 C 6.859375 88.125 6.984375 88.3125 7.109375 88.3125 C 7.203125 88.3125 7.265625 88.25 7.828125 87.6875 C 7.984375 87.53125 8.390625 87.15625 8.546875 87 C 8.734375 88.5625 9.296875 90.0625 10.765625 90.0625 C 11.578125 90.0625 12.265625 89.59375 12.671875 89.28125 C 12.953125 89.09375 13.890625 88.3125 13.890625 88.125 C 13.890625 88.0625 13.828125 87.875 13.671875 87.875 C 13.609375 87.875 13.578125 87.90625 13.390625 88.0625 C 12.109375 89.3125 11.390625 89.625 10.796875 89.625 C 9.921875 89.625 9.578125 88.5625 9.578125 87.03125 C 9.578125 86.90625 9.640625 86 9.703125 85.875 C 9.734375 85.8125 9.734375 85.78125 10.140625 85.375 C 11.734375 83.78125 14.578125 80.40625 14.578125 77.3125 C 14.578125 76.96875 14.578125 75.75 13.390625 75.75 C 11.734375 75.75 10.265625 79.03125 10.078125 79.5 C 9.109375 81.6875 8.484375 84 8.484375 86.375 Z M 9.796875 85.0625 C 9.828125 84.8125 10.703125 80.40625 11.828125 78.0625 C 12.359375 77 12.796875 76.1875 13.421875 76.1875 C 14.109375 76.1875 14.109375 76.90625 14.109375 77.21875 C 14.109375 80.5625 10.734375 84.0625 9.796875 85.0625 Z M 9.796875 85.0625 "/>
<path fill-rule="nonzero" fill="rgb(0%, 0%, 0%)" fill-opacity="1" d="M 19.597656 83.925781 C 19.597656 83.550781 19.597656 83.550781 19.191406 83.550781 C 18.285156 84.425781 17.035156 84.425781 16.472656 84.425781 L 16.472656 84.925781 C 16.785156 84.925781 17.722656 84.925781 18.472656 84.550781 L 18.472656 91.644531 C 18.472656 92.113281 18.472656 92.300781 17.097656 92.300781 L 16.566406 92.300781 L 16.566406 92.800781 C 16.816406 92.800781 18.535156 92.738281 19.035156 92.738281 C 19.472656 92.738281 21.222656 92.800781 21.535156 92.800781 L 21.535156 92.300781 L 21.003906 92.300781 C 19.597656 92.300781 19.597656 92.113281 19.597656 91.644531 Z M 19.597656 83.925781 "/>
<path fill-rule="nonzero" fill="rgb(0%, 0%, 0%)" fill-opacity="1" d="M 29.910156 90.269531 L 29.441406 90.269531 C 29.410156 90.582031 29.253906 91.394531 29.066406 91.519531 C 28.972656 91.613281 27.910156 91.613281 27.691406 91.613281 L 25.128906 91.613281 C 26.597656 90.332031 27.097656 89.925781 27.910156 89.269531 C 28.941406 88.457031 29.910156 87.582031 29.910156 86.269531 C 29.910156 84.582031 28.441406 83.550781 26.660156 83.550781 C 24.941406 83.550781 23.753906 84.769531 23.753906 86.050781 C 23.753906 86.738281 24.347656 86.832031 24.503906 86.832031 C 24.816406 86.832031 25.222656 86.582031 25.222656 86.082031 C 25.222656 85.832031 25.128906 85.332031 24.410156 85.332031 C 24.847656 84.363281 25.785156 84.050781 26.441406 84.050781 C 27.847656 84.050781 28.566406 85.144531 28.566406 86.269531 C 28.566406 87.488281 27.691406 88.425781 27.253906 88.925781 L 23.910156 92.269531 C 23.753906 92.394531 23.753906 92.425781 23.753906 92.800781 L 29.503906 92.800781 Z M 29.910156 90.269531 "/>
<path fill="none" stroke-width="0.3985" stroke-linecap="butt" stroke-linejoin="miter" stroke="rgb(0%, 0%, 0%)" stroke-opacity="1" stroke-miterlimit="10" d="M 1.059563 56.081062 C 19.793938 45.264656 19.793938 11.428719 1.059563 0.612312 " transform="matrix(2, 0, 0, -2, 69.084, 141.084)"/>
<path fill-rule="nonzero" fill="rgb(0%, 0%, 0%)" fill-opacity="1" d="M 108.09375 86 C 108.03125 86.3125 107.90625 86.78125 107.90625 86.875 C 107.90625 87.21875 108.1875 87.40625 108.5 87.40625 C 108.75 87.40625 109.09375 87.25 109.25 86.84375 C 109.28125 86.78125 109.9375 84.0625 110.03125 83.6875 C 110.1875 83.03125 110.5625 81.65625 110.65625 81.09375 C 110.75 80.84375 111.3125 79.90625 111.78125 79.46875 C 111.9375 79.34375 112.53125 78.8125 113.375 78.8125 C 113.90625 78.8125 114.1875 79.0625 114.21875 79.0625 C 113.625 79.15625 113.1875 79.625 113.1875 80.15625 C 113.1875 80.46875 113.40625 80.84375 113.9375 80.84375 C 114.46875 80.84375 115.03125 80.375 115.03125 79.65625 C 115.03125 78.96875 114.40625 78.375 113.375 78.375 C 112.09375 78.375 111.21875 79.34375 110.84375 79.90625 C 110.65625 79 109.9375 78.375 109 78.375 C 108.09375 78.375 107.71875 79.15625 107.53125 79.5 C 107.1875 80.1875 106.9375 81.375 106.9375 81.4375 C 106.9375 81.65625 107.125 81.65625 107.15625 81.65625 C 107.375 81.65625 107.375 81.625 107.5 81.1875 C 107.84375 79.78125 108.25 78.8125 108.96875 78.8125 C 109.28125 78.8125 109.5625 78.96875 109.5625 79.71875 C 109.5625 80.15625 109.5 80.375 109.25 81.40625 Z M 108.09375 86 "/>
<path fill-rule="nonzero" fill="rgb(0%, 0%, 0%)" fill-opacity="1" d="M 122.367188 87.644531 L 121.898438 87.644531 C 121.867188 87.957031 121.710938 88.769531 121.523438 88.894531 C 121.429688 88.988281 120.367188 88.988281 120.148438 88.988281 L 117.585938 88.988281 C 119.054688 87.707031 119.554688 87.300781 120.367188 86.644531 C 121.398438 85.832031 122.367188 84.957031 122.367188 83.644531 C 122.367188 81.957031 120.898438 80.925781 119.117188 80.925781 C 117.398438 80.925781 116.210938 82.144531 116.210938 83.425781 C 116.210938 84.113281 116.804688 84.207031 116.960938 84.207031 C 117.273438 84.207031 117.679688 83.957031 117.679688 83.457031 C 117.679688 83.207031 117.585938 82.707031 116.867188 82.707031 C 117.304688 81.738281 118.242188 81.425781 118.898438 81.425781 C 120.304688 81.425781 121.023438 82.519531 121.023438 83.644531 C 121.023438 84.863281 120.148438 85.800781 119.710938 86.300781 L 116.367188 89.644531 C 116.210938 89.769531 116.210938 89.800781 116.210938 90.175781 L 121.960938 90.175781 Z M 122.367188 87.644531 "/>
<path fill-rule="nonzero" fill="rgb(0%, 0%, 0%)" fill-opacity="1" d="M 127.925781 81.300781 C 127.925781 80.925781 127.925781 80.925781 127.519531 80.925781 C 126.613281 81.800781 125.363281 81.800781 124.800781 81.800781 L 124.800781 82.300781 C 125.113281 82.300781 126.050781 82.300781 126.800781 81.925781 L 126.800781 89.019531 C 126.800781 89.488281 126.800781 89.675781 125.425781 89.675781 L 124.894531 89.675781 L 124.894531 90.175781 C 125.144531 90.175781 126.863281 90.113281 127.363281 90.113281 C 127.800781 90.113281 129.550781 90.175781 129.863281 90.175781 L 129.863281 89.675781 L 129.332031 89.675781 C 127.925781 89.675781 127.925781 89.488281 127.925781 89.019531 Z M 127.925781 81.300781 "/>
<path fill="none" stroke-width="0.3985" stroke-linecap="butt" stroke-linejoin="miter" stroke="rgb(0%, 0%, 0%)" stroke-opacity="1" stroke-miterlimit="10" d="M 1.004875 55.995125 C 3.774406 54.069344 5.243156 52.846687 5.231438 52.8545 " transform="matrix(2, 0, 0, -2, 69.084, 141.084)"/>
<path fill-rule="nonzero" fill="rgb(0%, 0%, 0%)" fill-opacity="1" stroke-width="0.3985" stroke-linecap="butt" stroke-linejoin="miter" stroke="rgb(0%, 0%, 0%)" stroke-opacity="1" stroke-miterlimit="10" d="M 4.690957 -0.000608264 L 0.643846 1.524038 L 1.975639 0.000283057 L 0.644587 -1.525521 Z M 4.690957 -0.000608264 " transform="matrix(1.41892, 1.40936, 1.40936, -1.41892, 76.89164, 32.73164)"/>
<path fill="none" stroke-width="0.3985" stroke-linecap="butt" stroke-linejoin="miter" stroke="rgb(0%, 0%, 0%)" stroke-opacity="1" stroke-miterlimit="10" d="M 1.004875 0.69825 C 3.774406 2.624031 5.243156 3.846687 5.231438 3.838875 " transform="matrix(2, 0, 0, -2, 69.084, 141.084)"/>
<path fill-rule="nonzero" fill="rgb(0%, 0%, 0%)" fill-opacity="1" stroke-width="0.3985" stroke-linecap="butt" stroke-linejoin="miter" stroke="rgb(0%, 0%, 0%)" stroke-opacity="1" stroke-miterlimit="10" d="M 4.690805 0.00045534 L 0.644436 1.525368 L 1.975487 -0.000435982 L 0.643694 -1.524191 Z M 4.690805 0.00045534 " transform="matrix(1.41892, -1.40936, -1.40936, -1.41892, 76.89164, 136.049179)"/>
</svg>
