<?xml version="1.0" encoding="UTF-8"?>
<svg xmlns="http://www.w3.org/2000/svg" xmlns:xlink="http://www.w3.org/1999/xlink" width="197.679993" height="168.440002" viewBox="0 0 197.679993 168.440002">
<defs>
<clipPath id="clip-0">
<path clip-rule="nonzero" d="M 51 31 L 197.679688 31 L 197.679688 168.4375 L 51 168.4375 Z M 51 31 "/>
</clipPath>
</defs>
<path fill-rule="nonzero" fill="rgb(0%, 0%, 0%)" fill-opacity="1" d="M 23.492188 13.195312 L 23.929688 12.539062 L 21.335938 22.445312 C 21.210938 22.914062 21.117188 23.257812 20.960938 23.539062 C 20.804688 24.007812 20.398438 24.507812 19.960938 24.695312 C 19.742188 24.789062 19.429688 24.851562 19.117188 24.851562 L 19.023438 25.132812 L 24.773438 25.132812 L 24.867188 24.851562 C 24.242188 24.851562 23.742188 24.789062 23.492188 24.601562 C 23.210938 24.382812 23.148438 23.945312 23.148438 23.539062 C 23.148438 23.226562 23.210938 22.789062 23.367188 22.257812 L 25.335938 14.789062 C 25.492188 14.164062 25.617188 13.664062 25.742188 13.289062 C 25.960938 12.695312 26.398438 12.039062 26.835938 11.726562 C 27.054688 11.601562 27.335938 11.570312 27.679688 11.570312 L 27.773438 11.289062 L 24.179688 11.289062 L 17.492188 22.007812 L 17.210938 22.007812 L 15.929688 11.289062 L 11.648438 11.289062 L 11.554688 11.570312 C 12.179688 11.570312 12.585938 11.570312 12.804688 11.695312 C 13.085938 11.820312 13.429688 12.320312 13.429688 12.695312 C 13.429688 13.007812 13.367188 13.507812 13.179688 14.164062 L 10.992188 22.445312 C 10.835938 23.070312 10.335938 23.757812 9.867188 24.164062 C 9.429688 24.570312 8.742188 24.851562 8.179688 24.851562 L 8.117188 25.132812 L 13.085938 25.132812 L 13.179688 24.851562 C 12.710938 24.820312 12.179688 24.726562 11.960938 24.414062 C 11.742188 24.101562 11.429688 23.570312 11.429688 23.070312 C 11.429688 22.789062 11.429688 22.507812 11.492188 22.257812 L 13.898438 13.195312 L 14.023438 12.757812 L 15.492188 25.132812 L 16.085938 25.132812 Z M 23.492188 13.195312 "/>
<path fill-rule="nonzero" fill="rgb(0%, 0%, 0%)" fill-opacity="1" d="M 30.96875 22.359375 C 30.34375 22.359375 29.6875 22.859375 29.21875 23.484375 L 29.125 23.484375 L 30.625 18.015625 L 28.375 18.109375 L 28.28125 18.328125 C 28.875 18.328125 29.34375 18.453125 29.34375 18.890625 C 29.34375 18.953125 29.3125 19.140625 29.25 19.328125 L 26.71875 28.703125 L 27.6875 28.703125 L 28.40625 26.140625 L 28.78125 26.015625 L 29.5625 27.890625 C 29.71875 28.234375 29.84375 28.484375 29.96875 28.640625 C 30.09375 28.765625 30.25 28.828125 30.4375 28.828125 C 31.375 28.828125 31.6875 28.234375 32.1875 27.046875 L 31.9375 26.921875 C 31.65625 27.515625 31.4375 28.109375 31 28.109375 C 30.8125 28.109375 30.5625 27.546875 30.40625 27.109375 L 29.78125 25.578125 L 30.0625 25.421875 C 30.71875 25.109375 31.3125 24.796875 31.6875 24.421875 C 32.0625 24.078125 32.28125 23.703125 32.28125 23.328125 C 32.28125 22.671875 31.8125 22.359375 30.96875 22.359375 Z M 28.59375 25.703125 C 28.71875 25.109375 29.21875 23.953125 29.59375 23.578125 C 29.84375 23.265625 30.375 22.671875 30.84375 22.671875 C 31.375 22.671875 31.375 23.140625 31.375 23.453125 C 31.34375 24.546875 29.40625 25.359375 28.59375 25.703125 Z M 28.59375 25.703125 "/>
<path fill-rule="nonzero" fill="rgb(0%, 0%, 0%)" fill-opacity="1" d="M 50.308594 24.445312 L 45.871094 20.007812 L 50.308594 15.570312 L 49.527344 14.757812 L 45.089844 19.226562 L 40.652344 14.757812 L 39.871094 15.570312 L 44.277344 20.007812 L 39.871094 24.445312 L 40.652344 25.226562 L 45.089844 20.789062 L 49.527344 25.226562 Z M 50.308594 24.445312 "/>
<path fill-rule="nonzero" fill="rgb(0%, 0%, 0%)" fill-opacity="1" d="M 66.078125 16.539062 C 66.078125 13.664062 65.203125 11.351562 63.046875 11.351562 C 61.359375 11.351562 59.546875 12.945312 59.546875 13.820312 C 59.546875 14.476562 60.078125 14.757812 60.484375 14.757812 C 60.890625 14.757812 61.140625 14.414062 61.203125 14.351562 C 61.140625 14.320312 61.015625 14.132812 61.015625 13.851562 C 61.015625 13.664062 61.359375 11.945312 63.078125 11.945312 C 64.515625 11.945312 64.828125 13.789062 64.828125 15.414062 C 64.828125 16.632812 64.671875 17.695312 64.671875 17.726562 L 64.640625 17.726562 C 64.640625 17.695312 63.859375 16.476562 62.296875 16.476562 C 58.296875 16.476562 56.640625 20.351562 56.640625 22.414062 C 56.640625 24.257812 57.734375 25.445312 59.953125 25.445312 C 63.390625 25.445312 66.078125 21.976562 66.078125 16.539062 Z M 63.796875 18.789062 C 63.796875 19.320312 63.296875 24.976562 60.078125 24.976562 C 58.953125 24.976562 58.453125 24.320312 58.453125 23.070312 C 58.453125 21.789062 59.265625 16.945312 62.140625 16.945312 C 63.265625 16.945312 63.796875 17.601562 63.796875 18.789062 Z M 63.796875 18.789062 "/>
<path fill-rule="nonzero" fill="rgb(0%, 0%, 0%)" fill-opacity="1" d="M 79.597656 25.132812 L 74.035156 11.664062 L 73.691406 11.664062 L 67.753906 25.132812 Z M 77.285156 24.289062 L 69.066406 24.289062 L 73.347656 14.632812 Z M 77.285156 24.289062 "/>
<path fill-rule="nonzero" fill="rgb(0%, 0%, 0%)" fill-opacity="1" d="M 84.347656 11.558594 C 83.722656 11.558594 83.066406 12.058594 82.597656 12.683594 L 82.503906 12.683594 L 84.003906 7.214844 L 81.753906 7.308594 L 81.660156 7.527344 C 82.253906 7.527344 82.722656 7.652344 82.722656 8.089844 C 82.722656 8.152344 82.691406 8.339844 82.628906 8.527344 L 80.097656 17.902344 L 81.066406 17.902344 L 81.785156 15.339844 L 82.160156 15.214844 L 82.941406 17.089844 C 83.097656 17.433594 83.222656 17.683594 83.347656 17.839844 C 83.472656 17.964844 83.628906 18.027344 83.816406 18.027344 C 84.753906 18.027344 85.066406 17.433594 85.566406 16.246094 L 85.316406 16.121094 C 85.035156 16.714844 84.816406 17.308594 84.378906 17.308594 C 84.191406 17.308594 83.941406 16.746094 83.785156 16.308594 L 83.160156 14.777344 L 83.441406 14.621094 C 84.097656 14.308594 84.691406 13.996094 85.066406 13.621094 C 85.441406 13.277344 85.660156 12.902344 85.660156 12.527344 C 85.660156 11.871094 85.191406 11.558594 84.347656 11.558594 Z M 81.972656 14.902344 C 82.097656 14.308594 82.597656 13.152344 82.972656 12.777344 C 83.222656 12.464844 83.753906 11.871094 84.222656 11.871094 C 84.753906 11.871094 84.753906 12.339844 84.753906 12.652344 C 84.722656 13.746094 82.785156 14.558594 81.972656 14.902344 Z M 81.972656 14.902344 "/>
<path fill-rule="nonzero" fill="rgb(0%, 0%, 0%)" fill-opacity="1" d="M 167.597656 13.195312 L 168.035156 12.539062 L 165.441406 22.445312 C 165.316406 22.914062 165.222656 23.257812 165.066406 23.539062 C 164.910156 24.007812 164.503906 24.507812 164.066406 24.695312 C 163.847656 24.789062 163.535156 24.851562 163.222656 24.851562 L 163.128906 25.132812 L 168.878906 25.132812 L 168.972656 24.851562 C 168.347656 24.851562 167.847656 24.789062 167.597656 24.601562 C 167.316406 24.382812 167.253906 23.945312 167.253906 23.539062 C 167.253906 23.226562 167.316406 22.789062 167.472656 22.257812 L 169.441406 14.789062 C 169.597656 14.164062 169.722656 13.664062 169.847656 13.289062 C 170.066406 12.695312 170.503906 12.039062 170.941406 11.726562 C 171.160156 11.601562 171.441406 11.570312 171.785156 11.570312 L 171.878906 11.289062 L 168.285156 11.289062 L 161.597656 22.007812 L 161.316406 22.007812 L 160.035156 11.289062 L 155.753906 11.289062 L 155.660156 11.570312 C 156.285156 11.570312 156.691406 11.570312 156.910156 11.695312 C 157.191406 11.820312 157.535156 12.320312 157.535156 12.695312 C 157.535156 13.007812 157.472656 13.507812 157.285156 14.164062 L 155.097656 22.445312 C 154.941406 23.070312 154.441406 23.757812 153.972656 24.164062 C 153.535156 24.570312 152.847656 24.851562 152.285156 24.851562 L 152.222656 25.132812 L 157.191406 25.132812 L 157.285156 24.851562 C 156.816406 24.820312 156.285156 24.726562 156.066406 24.414062 C 155.847656 24.101562 155.535156 23.570312 155.535156 23.070312 C 155.535156 22.789062 155.535156 22.507812 155.597656 22.257812 L 158.003906 13.195312 L 158.128906 12.757812 L 159.597656 25.132812 L 160.191406 25.132812 Z M 167.597656 13.195312 "/>
<path fill-rule="nonzero" fill="rgb(0%, 0%, 0%)" fill-opacity="1" d="M 175.070312 22.359375 C 174.445312 22.359375 173.789062 22.859375 173.320312 23.484375 L 173.226562 23.484375 L 174.726562 18.015625 L 172.476562 18.109375 L 172.382812 18.328125 C 172.976562 18.328125 173.445312 18.453125 173.445312 18.890625 C 173.445312 18.953125 173.414062 19.140625 173.351562 19.328125 L 170.820312 28.703125 L 171.789062 28.703125 L 172.507812 26.140625 L 172.882812 26.015625 L 173.664062 27.890625 C 173.820312 28.234375 173.945312 28.484375 174.070312 28.640625 C 174.195312 28.765625 174.351562 28.828125 174.539062 28.828125 C 175.476562 28.828125 175.789062 28.234375 176.289062 27.046875 L 176.039062 26.921875 C 175.757812 27.515625 175.539062 28.109375 175.101562 28.109375 C 174.914062 28.109375 174.664062 27.546875 174.507812 27.109375 L 173.882812 25.578125 L 174.164062 25.421875 C 174.820312 25.109375 175.414062 24.796875 175.789062 24.421875 C 176.164062 24.078125 176.382812 23.703125 176.382812 23.328125 C 176.382812 22.671875 175.914062 22.359375 175.070312 22.359375 Z M 172.695312 25.703125 C 172.820312 25.109375 173.320312 23.953125 173.695312 23.578125 C 173.945312 23.265625 174.476562 22.671875 174.945312 22.671875 C 175.476562 22.671875 175.476562 23.140625 175.476562 23.453125 C 175.445312 24.546875 173.507812 25.359375 172.695312 25.703125 Z M 172.695312 25.703125 "/>
<path fill-rule="nonzero" fill="rgb(0%, 0%, 0%)" fill-opacity="1" d="M 42.328125 92.347656 L 42.328125 79.160156 L 39.421875 79.160156 L 35.234375 90.816406 L 35.171875 90.816406 L 31.171875 79.160156 L 28.078125 79.160156 L 28.078125 92.347656 L 28.953125 92.347656 L 28.953125 83.003906 L 28.984375 83.003906 L 32.234375 92.347656 L 35.609375 92.347656 L 38.984375 82.941406 L 39.015625 82.941406 L 39.015625 92.347656 Z M 41.453125 91.472656 L 39.890625 91.472656 L 39.890625 80.035156 L 41.453125 80.035156 Z M 34.515625 91.472656 L 32.859375 91.472656 L 29.296875 81.253906 L 28.890625 80.035156 L 30.484375 80.035156 Z M 34.515625 91.472656 "/>
<path fill-rule="nonzero" fill="rgb(0%, 0%, 0%)" fill-opacity="1" d="M 47.558594 89.566406 C 46.933594 89.566406 46.277344 90.066406 45.808594 90.691406 L 45.714844 90.691406 L 47.214844 85.222656 L 44.964844 85.316406 L 44.871094 85.535156 C 45.464844 85.535156 45.933594 85.660156 45.933594 86.097656 C 45.933594 86.160156 45.902344 86.347656 45.839844 86.535156 L 43.308594 95.910156 L 44.277344 95.910156 L 44.996094 93.347656 L 45.371094 93.222656 L 46.152344 95.097656 C 46.308594 95.441406 46.433594 95.691406 46.558594 95.847656 C 46.683594 95.972656 46.839844 96.035156 47.027344 96.035156 C 47.964844 96.035156 48.277344 95.441406 48.777344 94.253906 L 48.527344 94.128906 C 48.246094 94.722656 48.027344 95.316406 47.589844 95.316406 C 47.402344 95.316406 47.152344 94.753906 46.996094 94.316406 L 46.371094 92.785156 L 46.652344 92.628906 C 47.308594 92.316406 47.902344 92.003906 48.277344 91.628906 C 48.652344 91.285156 48.871094 90.910156 48.871094 90.535156 C 48.871094 89.878906 48.402344 89.566406 47.558594 89.566406 Z M 45.183594 92.910156 C 45.308594 92.316406 45.808594 91.160156 46.183594 90.785156 C 46.433594 90.472656 46.964844 89.878906 47.433594 89.878906 C 47.964844 89.878906 47.964844 90.347656 47.964844 90.660156 C 47.933594 91.753906 45.996094 92.566406 45.183594 92.910156 Z M 45.183594 92.910156 "/>
<path fill-rule="nonzero" fill="rgb(0%, 0%, 0%)" fill-opacity="1" d="M 58.839844 92.597656 L 58.839844 91.753906 L 51.402344 91.753906 L 51.402344 92.597656 Z M 58.839844 92.597656 "/>
<path fill-rule="nonzero" fill="rgb(0%, 0%, 0%)" fill-opacity="1" d="M 67.203125 95.910156 L 67.203125 95.378906 L 66.640625 95.378906 C 65.203125 95.378906 65.203125 95.191406 65.203125 94.722656 L 65.203125 86.660156 C 65.203125 86.285156 65.171875 86.253906 64.765625 86.253906 C 63.828125 87.191406 62.515625 87.191406 61.921875 87.191406 L 61.921875 87.722656 C 62.265625 87.722656 63.234375 87.722656 64.015625 87.316406 L 64.015625 94.722656 C 64.015625 95.191406 64.015625 95.378906 62.578125 95.378906 L 62.015625 95.378906 L 62.015625 95.910156 L 64.609375 95.847656 Z M 67.203125 95.910156 "/>
<path fill-rule="nonzero" fill="rgb(0%, 0%, 0%)" fill-opacity="1" d="M 169.09375 92.347656 L 169.09375 79.160156 L 166.1875 79.160156 L 162 90.816406 L 161.9375 90.816406 L 157.9375 79.160156 L 154.84375 79.160156 L 154.84375 92.347656 L 155.71875 92.347656 L 155.71875 83.003906 L 155.75 83.003906 L 159 92.347656 L 162.375 92.347656 L 165.75 82.941406 L 165.78125 82.941406 L 165.78125 92.347656 Z M 168.21875 91.472656 L 166.65625 91.472656 L 166.65625 80.035156 L 168.21875 80.035156 Z M 161.28125 91.472656 L 159.625 91.472656 L 156.0625 81.253906 L 155.65625 80.035156 L 157.25 80.035156 Z M 161.28125 91.472656 "/>
<path fill-rule="nonzero" fill="rgb(0%, 0%, 0%)" fill-opacity="1" d="M 174.324219 89.566406 C 173.699219 89.566406 173.042969 90.066406 172.574219 90.691406 L 172.480469 90.691406 L 173.980469 85.222656 L 171.730469 85.316406 L 171.636719 85.535156 C 172.230469 85.535156 172.699219 85.660156 172.699219 86.097656 C 172.699219 86.160156 172.667969 86.347656 172.605469 86.535156 L 170.074219 95.910156 L 171.042969 95.910156 L 171.761719 93.347656 L 172.136719 93.222656 L 172.917969 95.097656 C 173.074219 95.441406 173.199219 95.691406 173.324219 95.847656 C 173.449219 95.972656 173.605469 96.035156 173.792969 96.035156 C 174.730469 96.035156 175.042969 95.441406 175.542969 94.253906 L 175.292969 94.128906 C 175.011719 94.722656 174.792969 95.316406 174.355469 95.316406 C 174.167969 95.316406 173.917969 94.753906 173.761719 94.316406 L 173.136719 92.785156 L 173.417969 92.628906 C 174.074219 92.316406 174.667969 92.003906 175.042969 91.628906 C 175.417969 91.285156 175.636719 90.910156 175.636719 90.535156 C 175.636719 89.878906 175.167969 89.566406 174.324219 89.566406 Z M 171.949219 92.910156 C 172.074219 92.316406 172.574219 91.160156 172.949219 90.785156 C 173.199219 90.472656 173.730469 89.878906 174.199219 89.878906 C 174.730469 89.878906 174.730469 90.347656 174.730469 90.660156 C 174.699219 91.753906 172.761719 92.566406 171.949219 92.910156 Z M 171.949219 92.910156 "/>
<path fill-rule="nonzero" fill="rgb(0%, 0%, 0%)" fill-opacity="1" d="M 174.71875 146.867188 L 174.625 146.742188 C 174 146.835938 172.375 147.242188 171.90625 147.679688 C 171.6875 147.898438 170.9375 150.460938 170.75 150.960938 C 169.96875 153.429688 169.15625 155.429688 167.21875 157.210938 C 166.125 158.210938 164.4375 159.304688 162.9375 159.304688 C 162.625 159.304688 162.375 159.179688 162.375 158.835938 C 162.375 155.960938 164.8125 150.085938 165.78125 147.117188 C 165.625 146.992188 165.4375 146.960938 165.25 146.960938 C 163.09375 146.960938 156.15625 148.960938 156.15625 151.617188 C 156.15625 152.367188 157.3125 154.179688 158.15625 154.179688 C 158.25 154.179688 158.375 154.179688 158.46875 154.117188 C 158.125 153.679688 158 153.117188 158 152.585938 C 158 150.242188 161.34375 148.054688 163.46875 147.992188 C 162.4375 150.867188 160.03125 156.554688 160.03125 159.398438 C 160.03125 160.273438 160.375 160.992188 161.34375 160.992188 C 163.4375 160.992188 167.84375 157.929688 169.21875 156.335938 C 168.9375 157.210938 168.6875 158.117188 168.6875 159.023438 C 168.6875 159.585938 168.8125 161.210938 169.59375 161.210938 C 170.53125 161.210938 171.96875 160.367188 172.09375 159.398438 C 171.96875 159.523438 171.75 159.585938 171.5625 159.585938 C 171 159.585938 171 158.804688 171 158.398438 C 171 156.367188 173.46875 148.335938 174.71875 146.867188 Z M 174.71875 146.867188 "/>
<path fill="none" stroke-width="0.5579" stroke-linecap="butt" stroke-linejoin="miter" stroke="rgb(0%, 0%, 0%)" stroke-opacity="1" stroke-miterlimit="10" d="M 1.586845 32.107094 L 24.543877 32.107094 " transform="matrix(2, 0, 0, -2, 93.505997, 84.222)"/>
<path fill="none" stroke-width="0.5579" stroke-linecap="round" stroke-linejoin="round" stroke="rgb(0%, 0%, 0%)" stroke-opacity="1" stroke-miterlimit="10" d="M -2.902565 3.345524 C -2.371315 1.337711 -1.191628 0.392399 -0.000221252 0.00177383 C -1.191628 -0.388851 -2.371315 -1.33807 -2.902565 -3.345882 " transform="matrix(2, 0, 0, -2, 143.14888, 20.01136)"/>
<path fill-rule="nonzero" fill="rgb(0%, 0%, 0%)" fill-opacity="1" d="M 117.011719 8.660156 C 117.011719 6.847656 115.511719 5.378906 113.667969 5.378906 C 112.855469 5.378906 112.011719 5.691406 111.417969 6.253906 L 111.417969 5.378906 L 109.230469 5.535156 L 109.230469 6.066406 C 110.230469 6.066406 110.324219 6.128906 110.324219 6.753906 L 110.324219 13.441406 C 110.324219 14.066406 110.167969 14.066406 109.230469 14.066406 L 109.230469 14.597656 C 109.230469 14.597656 110.261719 14.535156 110.886719 14.535156 C 111.417969 14.535156 112.417969 14.597656 112.542969 14.597656 L 112.542969 14.066406 C 111.605469 14.066406 111.449219 14.066406 111.449219 13.441406 L 111.449219 11.097656 C 111.542969 11.160156 112.230469 11.941406 113.449219 11.941406 C 115.355469 11.941406 117.011719 10.503906 117.011719 8.660156 Z M 115.667969 8.660156 C 115.667969 10.316406 114.574219 11.535156 113.355469 11.535156 C 112.074219 11.535156 111.511719 10.410156 111.449219 10.316406 L 111.449219 6.941406 C 111.886719 6.222656 112.730469 5.847656 113.511719 5.847656 C 114.730469 5.847656 115.667969 7.128906 115.667969 8.660156 Z M 115.667969 8.660156 "/>
<path fill-rule="nonzero" fill="rgb(0%, 0%, 0%)" fill-opacity="1" d="M 123.597656 6.316406 C 123.597656 5.816406 123.128906 5.378906 122.472656 5.378906 C 121.722656 5.378906 120.941406 5.816406 120.503906 6.941406 L 120.472656 6.941406 L 120.472656 5.378906 L 118.410156 5.535156 L 118.410156 6.066406 C 119.378906 6.066406 119.503906 6.160156 119.503906 6.878906 L 119.503906 10.628906 C 119.503906 11.253906 119.347656 11.253906 118.410156 11.253906 L 118.410156 11.785156 C 118.472656 11.785156 119.472656 11.722656 120.066406 11.722656 L 121.941406 11.785156 L 121.941406 11.253906 L 121.660156 11.253906 C 120.597656 11.253906 120.597656 11.097656 120.597656 10.597656 L 120.597656 8.472656 C 120.597656 7.253906 121.160156 5.785156 122.535156 5.785156 C 122.410156 5.878906 122.285156 6.066406 122.285156 6.316406 C 122.285156 6.785156 122.660156 6.972656 122.941406 6.972656 C 123.285156 6.972656 123.597656 6.753906 123.597656 6.316406 Z M 123.597656 6.316406 "/>
<path fill-rule="nonzero" fill="rgb(0%, 0%, 0%)" fill-opacity="1" d="M 129.714844 15.160156 L 129.714844 14.722656 L 129.246094 14.722656 C 128.121094 14.722656 128.121094 14.597656 128.121094 14.222656 L 128.121094 8.191406 C 128.121094 7.878906 128.089844 7.878906 127.746094 7.878906 C 127.027344 8.566406 125.902344 8.566406 125.496094 8.566406 L 125.496094 9.003906 C 125.808594 9.003906 126.527344 9.003906 127.183594 8.691406 L 127.183594 14.222656 C 127.183594 14.597656 127.183594 14.722656 126.058594 14.722656 L 125.589844 14.722656 L 125.589844 15.160156 C 126.183594 15.128906 127.027344 15.128906 127.652344 15.128906 C 128.277344 15.128906 129.121094 15.128906 129.714844 15.160156 Z M 129.714844 15.160156 "/>
<path fill="none" stroke-width="0.5579" stroke-linecap="butt" stroke-linejoin="miter" stroke="rgb(0%, 0%, 0%)" stroke-opacity="1" stroke-miterlimit="10" d="M -22.682686 23.857094 L -22.682686 6.880531 " transform="matrix(2, 0, 0, -2, 93.505997, 84.222)"/>
<path fill="none" stroke-width="0.5579" stroke-linecap="round" stroke-linejoin="round" stroke="rgb(0%, 0%, 0%)" stroke-opacity="1" stroke-miterlimit="10" d="M -2.899326 3.347239 C -2.371983 1.339426 -1.188389 0.390207 -0.000888824 -0.000417709 C -1.188389 -0.391043 -2.371983 -1.340261 -2.899326 -3.348074 " transform="matrix(0, 2, 2, 0, 48.14146, 71.017403)"/>
<path fill-rule="nonzero" fill="rgb(0%, 0%, 0%)" fill-opacity="1" d="M 22.027344 57.34375 L 18.652344 47.71875 L 16.214844 47.71875 L 12.714844 57.34375 L 13.371094 57.34375 L 14.496094 54.3125 L 18.402344 54.3125 L 19.527344 57.34375 Z M 21.152344 56.71875 L 19.933594 56.71875 L 16.996094 48.375 L 18.214844 48.375 Z M 18.183594 53.65625 L 14.746094 53.65625 L 16.464844 48.84375 L 16.496094 48.84375 Z M 18.183594 53.65625 "/>
<path fill-rule="nonzero" fill="rgb(0%, 0%, 0%)" fill-opacity="1" d="M 25.960938 55.414062 C 25.492188 55.414062 25.023438 55.789062 24.679688 56.257812 L 24.585938 56.257812 L 25.710938 52.132812 L 24.023438 52.195312 L 23.960938 52.351562 C 24.398438 52.351562 24.773438 52.476562 24.773438 52.789062 C 24.773438 52.851562 24.742188 52.976562 24.679688 53.132812 L 22.773438 60.195312 L 23.523438 60.195312 L 24.054688 58.257812 L 24.304688 58.164062 L 24.898438 59.601562 C 25.023438 59.851562 25.117188 60.039062 25.210938 60.132812 C 25.304688 60.226562 25.429688 60.289062 25.585938 60.289062 C 26.273438 60.289062 26.523438 59.820312 26.898438 58.945312 L 26.710938 58.851562 C 26.492188 59.289062 26.335938 59.757812 25.992188 59.757812 C 25.867188 59.757812 25.679688 59.320312 25.554688 59.007812 L 25.085938 57.820312 L 25.304688 57.726562 C 25.804688 57.476562 26.242188 57.257812 26.523438 56.976562 C 26.804688 56.695312 26.960938 56.414062 26.960938 56.132812 C 26.960938 55.632812 26.617188 55.414062 25.960938 55.414062 Z M 24.179688 57.914062 C 24.273438 57.476562 24.679688 56.632812 24.929688 56.320312 C 25.117188 56.101562 25.523438 55.632812 25.898438 55.632812 C 26.304688 55.632812 26.304688 56.007812 26.304688 56.226562 C 26.273438 57.039062 24.804688 57.664062 24.179688 57.914062 Z M 24.179688 57.914062 "/>
<path fill-rule="nonzero" fill="rgb(0%, 0%, 0%)" fill-opacity="1" d="M 34.46875 57.695312 L 34.46875 57.070312 L 28.875 57.070312 L 28.875 57.695312 Z M 34.46875 57.695312 "/>
<path fill-rule="nonzero" fill="rgb(0%, 0%, 0%)" fill-opacity="1" d="M 41.128906 60.195312 L 41.128906 59.757812 L 40.660156 59.757812 C 39.535156 59.757812 39.535156 59.632812 39.535156 59.257812 L 39.535156 53.226562 C 39.535156 52.914062 39.503906 52.914062 39.160156 52.914062 C 38.441406 53.601562 37.316406 53.601562 36.910156 53.601562 L 36.910156 54.039062 C 37.222656 54.039062 37.941406 54.039062 38.597656 53.726562 L 38.597656 59.257812 C 38.597656 59.632812 38.597656 59.757812 37.472656 59.757812 L 37.003906 59.757812 L 37.003906 60.195312 C 37.597656 60.164062 38.441406 60.164062 39.066406 60.164062 C 39.691406 60.164062 40.535156 60.164062 41.128906 60.195312 Z M 41.128906 60.195312 "/>
<path fill="none" stroke-width="0.5579" stroke-linecap="butt" stroke-linejoin="miter" stroke="rgb(0%, 0%, 0%)" stroke-opacity="1" stroke-miterlimit="10" d="M 36.028252 23.857094 L 36.028252 6.880531 " transform="matrix(2, 0, 0, -2, 93.505997, 84.222)"/>
<path fill="none" stroke-width="0.5579" stroke-linecap="round" stroke-linejoin="round" stroke="rgb(0%, 0%, 0%)" stroke-opacity="1" stroke-miterlimit="10" d="M -2.899326 3.349266 C -2.371983 1.337547 -1.188389 0.392235 -0.000888824 0.0016098 C -1.188389 -0.389015 -2.371983 -1.338234 -2.899326 -3.346046 " transform="matrix(0, 2, 2, 0, 165.55928, 71.017403)"/>
<path fill-rule="nonzero" fill="rgb(0%, 0%, 0%)" fill-opacity="1" d="M 176.347656 49.316406 C 176.347656 49.066406 176.160156 48.785156 175.878906 48.785156 C 175.566406 48.785156 174.347656 50.003906 173.941406 50.222656 C 173.941406 49.410156 174.347656 48.597656 174.347656 48.128906 C 174.347656 47.816406 174.160156 47.628906 173.847656 47.628906 C 173.535156 47.628906 173.378906 47.816406 173.378906 48.128906 C 173.378906 48.691406 173.722656 49.441406 173.722656 50.222656 C 173.253906 49.972656 172.128906 48.753906 171.816406 48.753906 C 171.566406 48.753906 171.316406 48.972656 171.316406 49.253906 C 171.316406 49.753906 173.035156 50.097656 173.597656 50.410156 C 173.003906 50.785156 171.847656 50.941406 171.566406 51.128906 C 171.441406 51.253906 171.316406 51.378906 171.316406 51.566406 C 171.316406 51.816406 171.503906 52.066406 171.785156 52.066406 C 172.097656 52.066406 173.285156 50.878906 173.722656 50.628906 C 173.722656 51.441406 173.316406 52.253906 173.316406 52.753906 C 173.316406 53.035156 173.535156 53.253906 173.816406 53.253906 C 174.128906 53.253906 174.285156 53.035156 174.285156 52.753906 C 174.285156 52.160156 173.941406 51.410156 173.941406 50.628906 C 174.410156 50.878906 175.566406 52.097656 175.847656 52.097656 C 176.097656 52.097656 176.347656 51.878906 176.347656 51.597656 C 176.347656 51.410156 176.222656 51.285156 176.066406 51.191406 C 175.691406 50.941406 174.691406 50.785156 174.066406 50.410156 C 174.753906 50.003906 175.660156 49.972656 176.097656 49.722656 C 176.253906 49.628906 176.347656 49.503906 176.347656 49.316406 Z M 176.347656 49.316406 "/>
<path fill-rule="nonzero" fill="rgb(0%, 0%, 0%)" fill-opacity="1" d="M 185.886719 56.34375 L 185.886719 49.09375 L 184.261719 49.09375 L 181.980469 55.5 L 181.949219 55.5 L 179.730469 49.09375 L 178.042969 49.09375 L 178.042969 56.34375 L 178.511719 56.34375 L 178.511719 51.1875 L 178.542969 51.1875 L 180.324219 56.34375 L 182.199219 56.34375 L 184.042969 51.15625 L 184.042969 56.34375 Z M 185.386719 55.875 L 184.542969 55.875 L 184.542969 49.5625 L 185.386719 49.5625 Z M 181.574219 55.875 L 180.667969 55.875 L 178.699219 50.21875 L 178.480469 49.5625 L 179.355469 49.5625 Z M 181.574219 55.875 "/>
<path fill-rule="nonzero" fill="rgb(0%, 0%, 0%)" fill-opacity="1" d="M 189.601562 55.675781 C 189.132812 55.675781 188.664062 56.050781 188.320312 56.519531 L 188.226562 56.519531 L 189.351562 52.394531 L 187.664062 52.457031 L 187.601562 52.613281 C 188.039062 52.613281 188.414062 52.738281 188.414062 53.050781 C 188.414062 53.113281 188.382812 53.238281 188.320312 53.394531 L 186.414062 60.457031 L 187.164062 60.457031 L 187.695312 58.519531 L 187.945312 58.425781 L 188.539062 59.863281 C 188.664062 60.113281 188.757812 60.300781 188.851562 60.394531 C 188.945312 60.488281 189.070312 60.550781 189.226562 60.550781 C 189.914062 60.550781 190.164062 60.082031 190.539062 59.207031 L 190.351562 59.113281 C 190.132812 59.550781 189.976562 60.019531 189.632812 60.019531 C 189.507812 60.019531 189.320312 59.582031 189.195312 59.269531 L 188.726562 58.082031 L 188.945312 57.988281 C 189.445312 57.738281 189.882812 57.519531 190.164062 57.238281 C 190.445312 56.957031 190.601562 56.675781 190.601562 56.394531 C 190.601562 55.894531 190.257812 55.675781 189.601562 55.675781 Z M 187.820312 58.175781 C 187.914062 57.738281 188.320312 56.894531 188.570312 56.582031 C 188.757812 56.363281 189.164062 55.894531 189.539062 55.894531 C 189.945312 55.894531 189.945312 56.269531 189.945312 56.488281 C 189.914062 57.300781 188.445312 57.925781 187.820312 58.175781 Z M 187.820312 58.175781 "/>
<path fill="none" stroke-width="2.49017" stroke-linecap="butt" stroke-linejoin="miter" stroke="rgb(0%, 0%, 0%)" stroke-opacity="1" stroke-miterlimit="10" d="M -0.370186 11.271156 L 14.485283 19.775063 " transform="matrix(2, 0, 0, -2, 93.505997, 84.222)"/>
<path fill="none" stroke-width="1.37434" stroke-linecap="butt" stroke-linejoin="miter" stroke="rgb(100%, 100%, 100%)" stroke-opacity="1" stroke-miterlimit="10" d="M -0.370186 11.271156 L 14.485283 19.775063 " transform="matrix(2, 0, 0, -2, 93.505997, 84.222)"/>
<path fill="none" stroke-width="0.5579" stroke-linecap="round" stroke-linejoin="round" stroke="rgb(0%, 0%, 0%)" stroke-opacity="1" stroke-miterlimit="10" d="M -1.294292 2.558983 C -0.666869 1.209571 1.022792 0.0488122 1.989398 -0.00036888 C 1.026111 -0.0476123 -0.668204 -1.206793 -1.293784 -2.559137 " transform="matrix(1.73566, -0.99354, -0.99354, -1.73566, 122.476402, 44.671219)"/>
<path fill-rule="nonzero" fill="rgb(0%, 0%, 0%)" fill-opacity="1" d="M 95.972656 44.386719 C 97.222656 44.386719 97.910156 43.417969 98.347656 42.699219 L 98.066406 42.511719 C 97.785156 42.917969 97.285156 43.792969 96.785156 43.792969 C 96.503906 43.792969 96.410156 43.417969 96.410156 43.230469 C 96.410156 42.917969 97.535156 39.636719 97.535156 39.199219 C 97.535156 38.417969 97.253906 37.917969 96.472656 37.917969 C 96.128906 37.917969 95.535156 38.042969 95.222656 38.230469 C 94.910156 38.449219 94.628906 38.730469 94.378906 39.074219 L 94.316406 39.230469 L 95.785156 33.574219 L 93.628906 33.699219 L 93.597656 33.917969 C 94.003906 33.917969 94.191406 34.042969 94.316406 34.136719 C 94.503906 34.230469 94.597656 34.449219 94.597656 34.605469 C 94.597656 34.886719 94.503906 35.230469 94.410156 35.480469 L 91.972656 44.261719 L 92.816406 44.261719 C 93.347656 42.605469 93.910156 40.605469 94.691406 39.355469 C 95.003906 38.792969 95.535156 38.261719 96.191406 38.261719 C 96.753906 38.261719 96.597656 39.230469 96.503906 39.667969 C 96.441406 39.886719 96.347656 40.199219 96.191406 40.605469 C 95.691406 42.230469 95.378906 42.980469 95.378906 43.636719 C 95.378906 44.105469 95.535156 44.386719 95.972656 44.386719 Z M 95.972656 44.386719 "/>
<path fill-rule="nonzero" fill="rgb(0%, 0%, 0%)" fill-opacity="1" d="M 101.957031 42.332031 C 101.488281 42.332031 101.019531 42.707031 100.675781 43.175781 L 100.582031 43.175781 L 101.707031 39.050781 L 100.019531 39.113281 L 99.957031 39.269531 C 100.394531 39.269531 100.769531 39.394531 100.769531 39.707031 C 100.769531 39.769531 100.738281 39.894531 100.675781 40.050781 L 98.769531 47.113281 L 99.519531 47.113281 L 100.050781 45.175781 L 100.300781 45.082031 L 100.894531 46.519531 C 101.019531 46.769531 101.113281 46.957031 101.207031 47.050781 C 101.300781 47.144531 101.425781 47.207031 101.582031 47.207031 C 102.269531 47.207031 102.519531 46.738281 102.894531 45.863281 L 102.707031 45.769531 C 102.488281 46.207031 102.332031 46.675781 101.988281 46.675781 C 101.863281 46.675781 101.675781 46.238281 101.550781 45.925781 L 101.082031 44.738281 L 101.300781 44.644531 C 101.800781 44.394531 102.238281 44.175781 102.519531 43.894531 C 102.800781 43.613281 102.957031 43.332031 102.957031 43.050781 C 102.957031 42.550781 102.613281 42.332031 101.957031 42.332031 Z M 100.175781 44.832031 C 100.269531 44.394531 100.675781 43.550781 100.925781 43.238281 C 101.113281 43.019531 101.519531 42.550781 101.894531 42.550781 C 102.300781 42.550781 102.300781 42.925781 102.300781 43.144531 C 102.269531 43.957031 100.800781 44.582031 100.175781 44.832031 Z M 100.175781 44.832031 "/>
<path fill="none" stroke-width="0.5579" stroke-linecap="butt" stroke-linejoin="miter" stroke="rgb(0%, 0%, 0%)" stroke-opacity="1" stroke-miterlimit="10" d="M -7.456123 -1.502281 L 24.91497 -1.502281 " transform="matrix(2, 0, 0, -2, 93.505997, 84.222)"/>
<path fill="none" stroke-width="0.5579" stroke-linecap="round" stroke-linejoin="round" stroke="rgb(0%, 0%, 0%)" stroke-opacity="1" stroke-miterlimit="10" d="M -2.901176 3.346275 C -2.369926 1.338463 -1.190239 0.389244 0.0011673 -0.00138092 C -1.190239 -0.392006 -2.369926 -1.337318 -2.901176 -3.349037 " transform="matrix(2, 0, 0, -2, 143.896103, 87.223801)"/>
<path fill-rule="nonzero" fill="rgb(0%, 0%, 0%)" fill-opacity="1" d="M 100.574219 79.5625 C 101.886719 79.53125 102.574219 78.40625 102.917969 77.625 L 102.667969 77.5 C 102.449219 77.84375 101.917969 78.90625 101.324219 78.90625 C 101.199219 78.90625 101.074219 78.53125 101.074219 78.40625 C 101.074219 78.34375 101.074219 78.25 101.105469 78.1875 C 101.167969 77.96875 101.261719 77.65625 101.324219 77.46875 L 101.761719 76.28125 C 101.980469 75.6875 102.136719 75.1875 102.261719 74.78125 C 102.417969 74.40625 102.480469 74.09375 102.480469 73.875 C 102.480469 73.34375 102.386719 73.09375 101.917969 73.09375 C 101.074219 73.09375 99.949219 74.1875 99.636719 74.90625 L 99.917969 75.0625 C 100.105469 74.78125 100.636719 73.96875 100.980469 73.96875 C 101.199219 73.96875 101.167969 74.25 101.167969 74.375 C 101.167969 74.46875 101.167969 74.625 101.105469 74.8125 C 101.042969 75 100.980469 75.25 100.855469 75.5625 L 100.355469 77.0625 C 100.199219 77.46875 100.074219 77.78125 100.011719 78.03125 C 99.949219 78.3125 99.886719 78.5625 99.886719 78.78125 C 99.886719 79.28125 100.105469 79.5625 100.574219 79.5625 Z M 100.574219 79.5625 "/>
<path fill-rule="nonzero" fill="rgb(0%, 0%, 0%)" fill-opacity="1" d="M 106.542969 77.507812 C 106.074219 77.507812 105.605469 77.882812 105.261719 78.351562 L 105.167969 78.351562 L 106.292969 74.226562 L 104.605469 74.289062 L 104.542969 74.445312 C 104.980469 74.445312 105.355469 74.570312 105.355469 74.882812 C 105.355469 74.945312 105.324219 75.070312 105.261719 75.226562 L 103.355469 82.289062 L 104.105469 82.289062 L 104.636719 80.351562 L 104.886719 80.257812 L 105.480469 81.695312 C 105.605469 81.945312 105.699219 82.132812 105.792969 82.226562 C 105.886719 82.320312 106.011719 82.382812 106.167969 82.382812 C 106.855469 82.382812 107.105469 81.914062 107.480469 81.039062 L 107.292969 80.945312 C 107.074219 81.382812 106.917969 81.851562 106.574219 81.851562 C 106.449219 81.851562 106.261719 81.414062 106.136719 81.101562 L 105.667969 79.914062 L 105.886719 79.820312 C 106.386719 79.570312 106.824219 79.351562 107.105469 79.070312 C 107.386719 78.789062 107.542969 78.507812 107.542969 78.226562 C 107.542969 77.726562 107.199219 77.507812 106.542969 77.507812 Z M 104.761719 80.007812 C 104.855469 79.570312 105.261719 78.726562 105.511719 78.414062 C 105.699219 78.195312 106.105469 77.726562 106.480469 77.726562 C 106.886719 77.726562 106.886719 78.101562 106.886719 78.320312 C 106.855469 79.132812 105.386719 79.757812 104.761719 80.007812 Z M 104.761719 80.007812 "/>
<path fill-rule="nonzero" fill="rgb(0%, 0%, 0%)" fill-opacity="1" d="M 115.050781 79.789062 L 115.050781 79.164062 L 109.457031 79.164062 L 109.457031 79.789062 Z M 115.050781 79.789062 "/>
<path fill-rule="nonzero" fill="rgb(0%, 0%, 0%)" fill-opacity="1" d="M 121.707031 82.289062 L 121.707031 81.851562 L 121.238281 81.851562 C 120.113281 81.851562 120.113281 81.726562 120.113281 81.351562 L 120.113281 75.320312 C 120.113281 75.007812 120.082031 75.007812 119.738281 75.007812 C 119.019531 75.695312 117.894531 75.695312 117.488281 75.695312 L 117.488281 76.132812 C 117.800781 76.132812 118.519531 76.132812 119.175781 75.820312 L 119.175781 81.351562 C 119.175781 81.726562 119.175781 81.851562 118.050781 81.851562 L 117.582031 81.851562 L 117.582031 82.289062 C 118.175781 82.257812 119.019531 82.257812 119.644531 82.257812 C 120.269531 82.257812 121.113281 82.257812 121.707031 82.289062 Z M 121.707031 82.289062 "/>
<path fill="none" stroke-width="0.5579" stroke-linecap="butt" stroke-linejoin="miter" stroke="rgb(0%, 0%, 0%)" stroke-opacity="1" stroke-miterlimit="10" d="M -8.495186 -9.748375 L 26.28997 -29.963219 " transform="matrix(2, 0, 0, -2, 93.505997, 84.222)"/>
<path fill="none" stroke-width="0.5579" stroke-linecap="round" stroke-linejoin="round" stroke="rgb(0%, 0%, 0%)" stroke-opacity="1" stroke-miterlimit="10" d="M -2.901604 3.349211 C -2.371 1.339814 -1.19105 0.38996 -0.000605724 -0.00260215 C -1.189265 -0.390615 -2.372398 -1.340164 -2.901014 -3.3461 " transform="matrix(1.7292, 1.00482, 1.00482, -1.7292, 146.566162, 144.425797)"/>
<path fill-rule="nonzero" fill="rgb(0%, 0%, 0%)" fill-opacity="1" d="M 82.332031 142.378906 C 82.019531 142.378906 81.957031 142.191406 81.894531 141.941406 C 81.832031 141.691406 81.707031 141.410156 81.394531 141.410156 C 81.144531 141.410156 81.019531 141.628906 81.019531 141.847656 C 81.019531 142.441406 81.769531 142.722656 82.238281 142.722656 C 83.082031 142.722656 83.144531 142.472656 83.519531 141.941406 C 83.769531 141.660156 83.925781 141.253906 84.113281 140.753906 C 84.300781 140.253906 84.613281 139.597656 84.800781 138.816406 L 86.113281 133.785156 L 87.300781 133.785156 L 87.425781 133.441406 L 86.207031 133.441406 C 86.519531 132.316406 86.988281 130.347656 87.300781 129.753906 C 87.425781 129.566406 87.675781 129.285156 88.050781 129.285156 C 88.332031 129.285156 88.457031 129.472656 88.519531 129.722656 C 88.582031 130.003906 88.675781 130.253906 89.019531 130.253906 C 89.269531 130.253906 89.394531 130.066406 89.394531 129.847656 C 89.394531 129.253906 88.644531 128.972656 88.144531 128.972656 C 86.332031 129.003906 85.644531 131.910156 85.238281 133.441406 L 84.050781 133.441406 L 83.957031 133.785156 L 85.144531 133.785156 L 83.238281 140.972656 C 83.144531 141.316406 82.863281 142.378906 82.332031 142.378906 Z M 82.332031 142.378906 "/>
<path fill-rule="nonzero" fill="rgb(0%, 0%, 0%)" fill-opacity="1" d="M 89.601562 137.730469 C 89.132812 137.730469 88.664062 138.105469 88.320312 138.574219 L 88.226562 138.574219 L 89.351562 134.449219 L 87.664062 134.511719 L 87.601562 134.667969 C 88.039062 134.667969 88.414062 134.792969 88.414062 135.105469 C 88.414062 135.167969 88.382812 135.292969 88.320312 135.449219 L 86.414062 142.511719 L 87.164062 142.511719 L 87.695312 140.574219 L 87.945312 140.480469 L 88.539062 141.917969 C 88.664062 142.167969 88.757812 142.355469 88.851562 142.449219 C 88.945312 142.542969 89.070312 142.605469 89.226562 142.605469 C 89.914062 142.605469 90.164062 142.136719 90.539062 141.261719 L 90.351562 141.167969 C 90.132812 141.605469 89.976562 142.074219 89.632812 142.074219 C 89.507812 142.074219 89.320312 141.636719 89.195312 141.324219 L 88.726562 140.136719 L 88.945312 140.042969 C 89.445312 139.792969 89.882812 139.574219 90.164062 139.292969 C 90.445312 139.011719 90.601562 138.730469 90.601562 138.449219 C 90.601562 137.949219 90.257812 137.730469 89.601562 137.730469 Z M 87.820312 140.230469 C 87.914062 139.792969 88.320312 138.949219 88.570312 138.636719 C 88.757812 138.417969 89.164062 137.949219 89.539062 137.949219 C 89.945312 137.949219 89.945312 138.324219 89.945312 138.542969 C 89.914062 139.355469 88.445312 139.980469 87.820312 140.230469 Z M 87.820312 140.230469 "/>
<path fill-rule="nonzero" fill="rgb(0%, 0%, 0%)" fill-opacity="1" d="M 98.109375 140.011719 L 98.109375 139.386719 L 92.515625 139.386719 L 92.515625 140.011719 Z M 98.109375 140.011719 "/>
<path fill-rule="nonzero" fill="rgb(0%, 0%, 0%)" fill-opacity="1" d="M 104.765625 142.511719 L 104.765625 142.074219 L 104.296875 142.074219 C 103.171875 142.074219 103.171875 141.949219 103.171875 141.574219 L 103.171875 135.542969 C 103.171875 135.230469 103.140625 135.230469 102.796875 135.230469 C 102.078125 135.917969 100.953125 135.917969 100.546875 135.917969 L 100.546875 136.355469 C 100.859375 136.355469 101.578125 136.355469 102.234375 136.042969 L 102.234375 141.574219 C 102.234375 141.949219 102.234375 142.074219 101.109375 142.074219 L 100.640625 142.074219 L 100.640625 142.511719 C 101.234375 142.480469 102.078125 142.480469 102.703125 142.480469 C 103.328125 142.480469 104.171875 142.480469 104.765625 142.511719 Z M 104.765625 142.511719 "/>
<path fill-rule="nonzero" fill="rgb(0%, 0%, 0%)" fill-opacity="1" d="M 133.898438 74.539062 L 133.898438 75.414062 L 138.992188 75.414062 L 138.992188 70.320312 L 138.117188 70.320312 L 138.117188 74.539062 Z M 133.898438 74.539062 "/>
<path fill="none" stroke-width="0.5579" stroke-linecap="butt" stroke-linejoin="miter" stroke="rgb(0%, 0%, 0%)" stroke-opacity="1" stroke-miterlimit="10" d="M 36.028252 -9.748375 L 36.028252 -26.724937 " transform="matrix(2, 0, 0, -2, 93.505997, 84.222)"/>
<path fill="none" stroke-width="0.5579" stroke-linecap="round" stroke-linejoin="round" stroke="rgb(0%, 0%, 0%)" stroke-opacity="1" stroke-miterlimit="10" d="M -2.900078 3.349266 C -2.372734 1.337547 -1.18914 0.392235 -0.00164032 0.0016098 C -1.18914 -0.389015 -2.372734 -1.338234 -2.900078 -3.346046 " transform="matrix(0, 2, 2, 0, 165.55928, 138.229843)"/>
<path fill-rule="nonzero" fill="rgb(0%, 0%, 0%)" fill-opacity="1" d="M 171.117188 127.757812 C 170.804688 127.757812 170.742188 127.570312 170.679688 127.320312 C 170.617188 127.070312 170.492188 126.789062 170.179688 126.789062 C 169.929688 126.789062 169.804688 127.007812 169.804688 127.226562 C 169.804688 127.820312 170.554688 128.101562 171.023438 128.101562 C 171.867188 128.101562 171.929688 127.851562 172.304688 127.320312 C 172.554688 127.039062 172.710938 126.632812 172.898438 126.132812 C 173.085938 125.632812 173.398438 124.976562 173.585938 124.195312 L 174.898438 119.164062 L 176.085938 119.164062 L 176.210938 118.820312 L 174.992188 118.820312 C 175.304688 117.695312 175.773438 115.726562 176.085938 115.132812 C 176.210938 114.945312 176.460938 114.664062 176.835938 114.664062 C 177.117188 114.664062 177.242188 114.851562 177.304688 115.101562 C 177.367188 115.382812 177.460938 115.632812 177.804688 115.632812 C 178.054688 115.632812 178.179688 115.445312 178.179688 115.226562 C 178.179688 114.632812 177.429688 114.351562 176.929688 114.351562 C 175.117188 114.382812 174.429688 117.289062 174.023438 118.820312 L 172.835938 118.820312 L 172.742188 119.164062 L 173.929688 119.164062 L 172.023438 126.351562 C 171.929688 126.695312 171.648438 127.757812 171.117188 127.757812 Z M 171.117188 127.757812 "/>
<path fill-rule="nonzero" fill="rgb(0%, 0%, 0%)" fill-opacity="1" d="M 178.386719 123.109375 C 177.917969 123.109375 177.449219 123.484375 177.105469 123.953125 L 177.011719 123.953125 L 178.136719 119.828125 L 176.449219 119.890625 L 176.386719 120.046875 C 176.824219 120.046875 177.199219 120.171875 177.199219 120.484375 C 177.199219 120.546875 177.167969 120.671875 177.105469 120.828125 L 175.199219 127.890625 L 175.949219 127.890625 L 176.480469 125.953125 L 176.730469 125.859375 L 177.324219 127.296875 C 177.449219 127.546875 177.542969 127.734375 177.636719 127.828125 C 177.730469 127.921875 177.855469 127.984375 178.011719 127.984375 C 178.699219 127.984375 178.949219 127.515625 179.324219 126.640625 L 179.136719 126.546875 C 178.917969 126.984375 178.761719 127.453125 178.417969 127.453125 C 178.292969 127.453125 178.105469 127.015625 177.980469 126.703125 L 177.511719 125.515625 L 177.730469 125.421875 C 178.230469 125.171875 178.667969 124.953125 178.949219 124.671875 C 179.230469 124.390625 179.386719 124.109375 179.386719 123.828125 C 179.386719 123.328125 179.042969 123.109375 178.386719 123.109375 Z M 176.605469 125.609375 C 176.699219 125.171875 177.105469 124.328125 177.355469 124.015625 C 177.542969 123.796875 177.949219 123.328125 178.324219 123.328125 C 178.730469 123.328125 178.730469 123.703125 178.730469 123.921875 C 178.699219 124.734375 177.230469 125.359375 176.605469 125.609375 Z M 176.605469 125.609375 "/>
<g clip-path="url(#clip-0)">
<path fill="none" stroke-width="2.49017" stroke-linecap="butt" stroke-linejoin="miter" stroke="rgb(0%, 0%, 0%)" stroke-opacity="1" stroke-miterlimit="10" d="M 25.473564 -8.756187 L 14.247002 -16.48275 " transform="matrix(2, 0, 0, -2, 93.505997, 84.222)"/>
</g>
<path fill="none" stroke-width="1.37434" stroke-linecap="butt" stroke-linejoin="miter" stroke="rgb(100%, 100%, 100%)" stroke-opacity="1" stroke-miterlimit="10" d="M 25.473564 -8.756187 L 14.247002 -16.48275 " transform="matrix(2, 0, 0, -2, 93.505997, 84.222)"/>
<path fill="none" stroke-width="0.5579" stroke-linecap="round" stroke-linejoin="round" stroke="rgb(0%, 0%, 0%)" stroke-opacity="1" stroke-miterlimit="10" d="M -1.292851 2.560453 C -0.666686 1.209867 1.023045 0.0475207 1.989975 -0.00122225 C 1.023825 -0.0478459 -0.666116 -1.208697 -1.292591 -2.560562 " transform="matrix(-1.64768, 1.13342, 1.13342, 1.64768, 121.998978, 117.184036)"/>
</svg>
