<?xml version="1.0" encoding="UTF-8"?>
<svg xmlns="http://www.w3.org/2000/svg" xmlns:xlink="http://www.w3.org/1999/xlink" width="216" height="167.419998" viewBox="0 0 216 167.419998">
<defs>
<clipPath id="clip-0">
<path clip-rule="nonzero" d="M 68 36 L 216 36 L 216 167.421875 L 68 167.421875 Z M 68 36 "/>
</clipPath>
</defs>
<path fill-rule="nonzero" fill="rgb(0%, 0%, 0%)" fill-opacity="1" d="M 27.054688 12.117188 C 27.242188 11.398438 27.273438 11.210938 28.773438 11.210938 C 29.210938 11.210938 29.398438 11.210938 29.398438 10.804688 C 29.398438 10.585938 29.210938 10.585938 28.867188 10.585938 L 26.242188 10.585938 C 25.710938 10.585938 25.679688 10.585938 25.460938 10.960938 L 18.179688 22.335938 L 16.617188 11.054688 C 16.554688 10.585938 16.523438 10.585938 15.992188 10.585938 L 13.273438 10.585938 C 12.898438 10.585938 12.679688 10.585938 12.679688 10.960938 C 12.679688 11.210938 12.867188 11.210938 13.242188 11.210938 C 13.523438 11.210938 13.867188 11.242188 14.117188 11.242188 C 14.429688 11.304688 14.554688 11.335938 14.554688 11.585938 C 14.554688 11.648438 14.523438 11.710938 14.460938 11.960938 L 11.929688 22.085938 C 11.742188 22.898438 11.398438 23.523438 9.773438 23.585938 C 9.679688 23.585938 9.429688 23.617188 9.429688 23.960938 C 9.429688 24.148438 9.554688 24.210938 9.710938 24.210938 C 10.335938 24.210938 11.023438 24.148438 11.710938 24.148438 C 12.367188 24.148438 13.085938 24.210938 13.742188 24.210938 C 13.835938 24.210938 14.117188 24.210938 14.117188 23.804688 C 14.117188 23.585938 13.898438 23.585938 13.742188 23.585938 C 12.617188 23.585938 12.398438 23.179688 12.398438 22.710938 C 12.398438 22.585938 12.398438 22.460938 12.460938 22.242188 L 15.179688 11.398438 L 15.210938 11.398438 L 16.929688 23.742188 C 16.960938 23.992188 16.992188 24.210938 17.210938 24.210938 C 17.429688 24.210938 17.554688 23.992188 17.648438 23.867188 L 25.710938 11.242188 L 25.742188 11.242188 L 22.867188 22.648438 C 22.679688 23.429688 22.648438 23.585938 21.054688 23.585938 C 20.742188 23.585938 20.523438 23.585938 20.523438 23.960938 C 20.523438 24.210938 20.742188 24.210938 20.804688 24.210938 C 21.367188 24.210938 22.710938 24.148438 23.273438 24.148438 C 24.085938 24.148438 24.960938 24.210938 25.773438 24.210938 C 25.898438 24.210938 26.148438 24.210938 26.148438 23.804688 C 26.148438 23.585938 25.960938 23.585938 25.585938 23.585938 C 24.867188 23.585938 24.304688 23.585938 24.304688 23.242188 C 24.304688 23.148438 24.304688 23.117188 24.398438 22.742188 Z M 27.054688 12.117188 "/>
<path fill-rule="nonzero" fill="rgb(0%, 0%, 0%)" fill-opacity="1" d="M 32.292969 17.949219 C 32.292969 17.917969 32.324219 17.730469 32.324219 17.730469 C 32.324219 17.636719 32.292969 17.511719 32.105469 17.511719 C 31.824219 17.511719 30.667969 17.636719 30.324219 17.667969 C 30.230469 17.667969 30.011719 17.699219 30.011719 17.980469 C 30.011719 18.167969 30.230469 18.167969 30.386719 18.167969 C 31.042969 18.167969 31.042969 18.292969 31.042969 18.386719 C 31.042969 18.480469 31.011719 18.574219 31.011719 18.699219 L 29.042969 26.574219 C 28.949219 26.824219 28.949219 26.855469 28.949219 26.886719 C 28.949219 27.105469 29.136719 27.324219 29.449219 27.324219 C 29.824219 27.324219 29.980469 27.074219 30.074219 26.761719 C 30.105469 26.699219 30.699219 24.230469 30.761719 24.042969 C 31.761719 24.136719 32.542969 24.480469 32.542969 25.199219 C 32.542969 25.261719 32.542969 25.324219 32.511719 25.480469 C 32.449219 25.667969 32.449219 25.761719 32.449219 25.917969 C 32.449219 26.886719 33.261719 27.324219 33.949219 27.324219 C 35.292969 27.324219 35.699219 25.230469 35.699219 25.199219 C 35.699219 25.011719 35.542969 25.011719 35.480469 25.011719 C 35.292969 25.011719 35.261719 25.105469 35.199219 25.355469 C 35.042969 25.949219 34.667969 26.949219 33.980469 26.949219 C 33.605469 26.949219 33.480469 26.605469 33.480469 26.230469 C 33.480469 25.980469 33.480469 25.949219 33.574219 25.605469 C 33.605469 25.542969 33.636719 25.324219 33.636719 25.167969 C 33.636719 23.917969 31.980469 23.730469 31.386719 23.699219 C 31.792969 23.449219 32.292969 22.980469 32.542969 22.761719 C 33.261719 22.105469 33.949219 21.449219 34.730469 21.449219 C 34.886719 21.449219 35.074219 21.480469 35.199219 21.636719 C 34.605469 21.730469 34.480469 22.199219 34.480469 22.417969 C 34.480469 22.699219 34.699219 22.917969 35.011719 22.917969 C 35.417969 22.917969 35.824219 22.605469 35.824219 22.042969 C 35.824219 21.574219 35.480469 21.042969 34.761719 21.042969 C 33.949219 21.042969 33.230469 21.636719 32.511719 22.292969 C 31.917969 22.824219 31.480469 23.261719 30.886719 23.511719 Z M 32.292969 17.949219 "/>
<path fill-rule="nonzero" fill="rgb(0%, 0%, 0%)" fill-opacity="1" d="M 49.898438 18.679688 L 45.929688 14.710938 C 45.679688 14.460938 45.648438 14.429688 45.492188 14.429688 C 45.273438 14.429688 45.085938 14.585938 45.085938 14.835938 C 45.085938 14.960938 45.117188 14.992188 45.335938 15.210938 L 49.335938 19.210938 L 45.335938 23.242188 C 45.117188 23.460938 45.085938 23.492188 45.085938 23.617188 C 45.085938 23.867188 45.273438 24.023438 45.492188 24.023438 C 45.648438 24.023438 45.679688 23.992188 45.929688 23.742188 L 49.898438 19.773438 L 54.023438 23.898438 C 54.054688 23.929688 54.179688 24.023438 54.304688 24.023438 C 54.554688 24.023438 54.710938 23.867188 54.710938 23.617188 C 54.710938 23.585938 54.710938 23.523438 54.648438 23.398438 C 54.617188 23.367188 51.460938 20.242188 50.460938 19.210938 L 54.117188 15.585938 C 54.210938 15.460938 54.523438 15.210938 54.617188 15.085938 C 54.617188 15.054688 54.710938 14.960938 54.710938 14.835938 C 54.710938 14.585938 54.554688 14.429688 54.304688 14.429688 C 54.148438 14.429688 54.085938 14.492188 53.867188 14.710938 Z M 49.898438 18.679688 "/>
<path fill-rule="nonzero" fill="rgb(0%, 0%, 0%)" fill-opacity="1" d="M 71.292969 17.460938 C 71.105469 16.210938 70.292969 15.085938 68.730469 15.085938 C 67.511719 15.085938 66.230469 15.429688 64.667969 16.960938 C 63.011719 18.617188 62.886719 20.492188 62.886719 21.085938 C 62.886719 22.335938 63.761719 24.648438 66.542969 24.648438 C 71.292969 24.648438 73.355469 17.960938 73.355469 15.085938 C 73.355469 11.929688 71.511719 9.929688 69.042969 9.929688 C 66.167969 9.929688 65.230469 12.523438 65.230469 13.085938 C 65.230469 13.367188 65.417969 13.773438 66.011719 13.773438 C 66.667969 13.773438 67.074219 13.179688 67.074219 12.742188 C 67.074219 12.023438 66.449219 12.023438 66.136719 12.023438 C 67.011719 10.554688 68.449219 10.429688 69.011719 10.429688 C 70.480469 10.429688 71.855469 11.460938 71.855469 14.054688 C 71.855469 14.835938 71.730469 15.835938 71.324219 17.460938 Z M 66.605469 24.085938 C 64.417969 24.085938 64.417969 22.023438 64.417969 21.835938 C 64.417969 21.304688 64.917969 18.523438 65.730469 17.304688 C 66.511719 16.179688 67.511719 15.523438 68.730469 15.523438 C 70.917969 15.523438 70.949219 17.773438 70.949219 18.179688 C 70.949219 19.617188 69.667969 24.085938 66.605469 24.085938 Z M 66.605469 24.085938 "/>
<path fill-rule="nonzero" fill="rgb(0%, 0%, 0%)" fill-opacity="1" d="M 82.570312 10.304688 C 82.445312 10.023438 82.382812 9.929688 82.039062 9.929688 C 81.726562 9.929688 81.664062 10.023438 81.539062 10.304688 L 74.789062 23.804688 C 74.695312 23.992188 74.695312 24.023438 74.695312 24.054688 C 74.695312 24.210938 74.820312 24.210938 75.132812 24.210938 L 88.976562 24.210938 C 89.289062 24.210938 89.414062 24.210938 89.414062 24.054688 C 89.414062 24.023438 89.414062 23.992188 89.320312 23.804688 Z M 81.414062 11.929688 L 86.789062 22.710938 L 76.039062 22.710938 Z M 81.414062 11.929688 "/>
<path fill-rule="nonzero" fill="rgb(0%, 0%, 0%)" fill-opacity="1" d="M 94.738281 7.730469 C 94.738281 7.699219 94.769531 7.511719 94.769531 7.511719 C 94.769531 7.417969 94.738281 7.292969 94.550781 7.292969 C 94.269531 7.292969 93.113281 7.417969 92.769531 7.449219 C 92.675781 7.449219 92.457031 7.480469 92.457031 7.761719 C 92.457031 7.949219 92.675781 7.949219 92.832031 7.949219 C 93.488281 7.949219 93.488281 8.074219 93.488281 8.167969 C 93.488281 8.261719 93.457031 8.355469 93.457031 8.480469 L 91.488281 16.355469 C 91.394531 16.605469 91.394531 16.636719 91.394531 16.667969 C 91.394531 16.886719 91.582031 17.105469 91.894531 17.105469 C 92.269531 17.105469 92.425781 16.855469 92.519531 16.542969 C 92.550781 16.480469 93.144531 14.011719 93.207031 13.824219 C 94.207031 13.917969 94.988281 14.261719 94.988281 14.980469 C 94.988281 15.042969 94.988281 15.105469 94.957031 15.261719 C 94.894531 15.449219 94.894531 15.542969 94.894531 15.699219 C 94.894531 16.667969 95.707031 17.105469 96.394531 17.105469 C 97.738281 17.105469 98.144531 15.011719 98.144531 14.980469 C 98.144531 14.792969 97.988281 14.792969 97.925781 14.792969 C 97.738281 14.792969 97.707031 14.886719 97.644531 15.136719 C 97.488281 15.730469 97.113281 16.730469 96.425781 16.730469 C 96.050781 16.730469 95.925781 16.386719 95.925781 16.011719 C 95.925781 15.761719 95.925781 15.730469 96.019531 15.386719 C 96.050781 15.324219 96.082031 15.105469 96.082031 14.949219 C 96.082031 13.699219 94.425781 13.511719 93.832031 13.480469 C 94.238281 13.230469 94.738281 12.761719 94.988281 12.542969 C 95.707031 11.886719 96.394531 11.230469 97.175781 11.230469 C 97.332031 11.230469 97.519531 11.261719 97.644531 11.417969 C 97.050781 11.511719 96.925781 11.980469 96.925781 12.199219 C 96.925781 12.480469 97.144531 12.699219 97.457031 12.699219 C 97.863281 12.699219 98.269531 12.386719 98.269531 11.824219 C 98.269531 11.355469 97.925781 10.824219 97.207031 10.824219 C 96.394531 10.824219 95.675781 11.417969 94.957031 12.074219 C 94.363281 12.605469 93.925781 13.042969 93.332031 13.292969 Z M 94.738281 7.730469 "/>
<path fill-rule="nonzero" fill="rgb(0%, 0%, 0%)" fill-opacity="1" d="M 183.628906 12.117188 C 183.816406 11.398438 183.847656 11.210938 185.347656 11.210938 C 185.785156 11.210938 185.972656 11.210938 185.972656 10.804688 C 185.972656 10.585938 185.785156 10.585938 185.441406 10.585938 L 182.816406 10.585938 C 182.285156 10.585938 182.253906 10.585938 182.035156 10.960938 L 174.753906 22.335938 L 173.191406 11.054688 C 173.128906 10.585938 173.097656 10.585938 172.566406 10.585938 L 169.847656 10.585938 C 169.472656 10.585938 169.253906 10.585938 169.253906 10.960938 C 169.253906 11.210938 169.441406 11.210938 169.816406 11.210938 C 170.097656 11.210938 170.441406 11.242188 170.691406 11.242188 C 171.003906 11.304688 171.128906 11.335938 171.128906 11.585938 C 171.128906 11.648438 171.097656 11.710938 171.035156 11.960938 L 168.503906 22.085938 C 168.316406 22.898438 167.972656 23.523438 166.347656 23.585938 C 166.253906 23.585938 166.003906 23.617188 166.003906 23.960938 C 166.003906 24.148438 166.128906 24.210938 166.285156 24.210938 C 166.910156 24.210938 167.597656 24.148438 168.285156 24.148438 C 168.941406 24.148438 169.660156 24.210938 170.316406 24.210938 C 170.410156 24.210938 170.691406 24.210938 170.691406 23.804688 C 170.691406 23.585938 170.472656 23.585938 170.316406 23.585938 C 169.191406 23.585938 168.972656 23.179688 168.972656 22.710938 C 168.972656 22.585938 168.972656 22.460938 169.035156 22.242188 L 171.753906 11.398438 L 171.785156 11.398438 L 173.503906 23.742188 C 173.535156 23.992188 173.566406 24.210938 173.785156 24.210938 C 174.003906 24.210938 174.128906 23.992188 174.222656 23.867188 L 182.285156 11.242188 L 182.316406 11.242188 L 179.441406 22.648438 C 179.253906 23.429688 179.222656 23.585938 177.628906 23.585938 C 177.316406 23.585938 177.097656 23.585938 177.097656 23.960938 C 177.097656 24.210938 177.316406 24.210938 177.378906 24.210938 C 177.941406 24.210938 179.285156 24.148438 179.847656 24.148438 C 180.660156 24.148438 181.535156 24.210938 182.347656 24.210938 C 182.472656 24.210938 182.722656 24.210938 182.722656 23.804688 C 182.722656 23.585938 182.535156 23.585938 182.160156 23.585938 C 181.441406 23.585938 180.878906 23.585938 180.878906 23.242188 C 180.878906 23.148438 180.878906 23.117188 180.972656 22.742188 Z M 183.628906 12.117188 "/>
<path fill-rule="nonzero" fill="rgb(0%, 0%, 0%)" fill-opacity="1" d="M 188.867188 17.949219 C 188.867188 17.917969 188.898438 17.730469 188.898438 17.730469 C 188.898438 17.636719 188.867188 17.511719 188.679688 17.511719 C 188.398438 17.511719 187.242188 17.636719 186.898438 17.667969 C 186.804688 17.667969 186.585938 17.699219 186.585938 17.980469 C 186.585938 18.167969 186.804688 18.167969 186.960938 18.167969 C 187.617188 18.167969 187.617188 18.292969 187.617188 18.386719 C 187.617188 18.480469 187.585938 18.574219 187.585938 18.699219 L 185.617188 26.574219 C 185.523438 26.824219 185.523438 26.855469 185.523438 26.886719 C 185.523438 27.105469 185.710938 27.324219 186.023438 27.324219 C 186.398438 27.324219 186.554688 27.074219 186.648438 26.761719 C 186.679688 26.699219 187.273438 24.230469 187.335938 24.042969 C 188.335938 24.136719 189.117188 24.480469 189.117188 25.199219 C 189.117188 25.261719 189.117188 25.324219 189.085938 25.480469 C 189.023438 25.667969 189.023438 25.761719 189.023438 25.917969 C 189.023438 26.886719 189.835938 27.324219 190.523438 27.324219 C 191.867188 27.324219 192.273438 25.230469 192.273438 25.199219 C 192.273438 25.011719 192.117188 25.011719 192.054688 25.011719 C 191.867188 25.011719 191.835938 25.105469 191.773438 25.355469 C 191.617188 25.949219 191.242188 26.949219 190.554688 26.949219 C 190.179688 26.949219 190.054688 26.605469 190.054688 26.230469 C 190.054688 25.980469 190.054688 25.949219 190.148438 25.605469 C 190.179688 25.542969 190.210938 25.324219 190.210938 25.167969 C 190.210938 23.917969 188.554688 23.730469 187.960938 23.699219 C 188.367188 23.449219 188.867188 22.980469 189.117188 22.761719 C 189.835938 22.105469 190.523438 21.449219 191.304688 21.449219 C 191.460938 21.449219 191.648438 21.480469 191.773438 21.636719 C 191.179688 21.730469 191.054688 22.199219 191.054688 22.417969 C 191.054688 22.699219 191.273438 22.917969 191.585938 22.917969 C 191.992188 22.917969 192.398438 22.605469 192.398438 22.042969 C 192.398438 21.574219 192.054688 21.042969 191.335938 21.042969 C 190.523438 21.042969 189.804688 21.636719 189.085938 22.292969 C 188.492188 22.824219 188.054688 23.261719 187.460938 23.511719 Z M 188.867188 17.949219 "/>
<path fill-rule="nonzero" fill="rgb(0%, 0%, 0%)" fill-opacity="1" d="M 39.148438 87.203125 L 35.335938 78.140625 C 35.179688 77.734375 35.179688 77.734375 34.617188 77.734375 L 30.929688 77.734375 C 30.554688 77.734375 30.273438 77.734375 30.273438 78.078125 C 30.273438 78.421875 30.617188 78.421875 30.710938 78.421875 C 30.960938 78.421875 31.492188 78.484375 31.929688 78.640625 L 31.929688 89.265625 C 31.929688 89.703125 31.929688 90.578125 30.585938 90.703125 C 30.210938 90.734375 30.210938 91.015625 30.210938 91.046875 C 30.210938 91.390625 30.523438 91.390625 30.898438 91.390625 L 33.960938 91.390625 C 34.335938 91.390625 34.617188 91.390625 34.617188 91.046875 C 34.617188 90.859375 34.460938 90.703125 34.304688 90.703125 C 32.773438 90.578125 32.773438 89.734375 32.773438 89.265625 L 32.773438 79.359375 L 32.804688 79.328125 L 37.648438 90.984375 C 37.835938 91.328125 37.960938 91.390625 38.085938 91.390625 C 38.335938 91.390625 38.367188 91.234375 38.492188 90.984375 L 43.367188 79.328125 L 43.398438 79.359375 L 43.398438 89.265625 C 43.398438 89.703125 43.398438 90.578125 42.023438 90.703125 C 41.648438 90.734375 41.648438 91.015625 41.648438 91.046875 C 41.648438 91.390625 41.960938 91.390625 42.335938 91.390625 L 47.648438 91.390625 C 48.023438 91.390625 48.304688 91.390625 48.304688 91.046875 C 48.304688 90.859375 48.148438 90.703125 47.992188 90.703125 C 46.460938 90.578125 46.460938 89.734375 46.460938 89.265625 L 46.460938 79.859375 C 46.460938 79.421875 46.460938 78.546875 47.804688 78.421875 C 48.023438 78.421875 48.179688 78.296875 48.179688 78.078125 C 48.179688 77.734375 47.898438 77.734375 47.523438 77.734375 L 43.679688 77.734375 C 43.179688 77.734375 43.117188 77.734375 42.960938 78.140625 Z M 38.554688 87.578125 C 38.710938 87.890625 38.742188 87.921875 38.992188 88.015625 L 38.085938 90.109375 L 38.054688 90.109375 L 33.523438 79.265625 C 33.429688 79.015625 33.242188 78.671875 32.992188 78.421875 L 34.710938 78.421875 Z M 32.523438 90.703125 L 32.210938 90.703125 C 32.242188 90.640625 32.273438 90.578125 32.304688 90.546875 C 32.335938 90.515625 32.335938 90.484375 32.367188 90.484375 Z M 44.085938 78.421875 L 46.210938 78.421875 C 45.742188 78.921875 45.742188 79.453125 45.742188 79.796875 L 45.742188 89.328125 C 45.742188 89.671875 45.742188 90.203125 46.210938 90.703125 L 43.648438 90.703125 C 44.085938 90.203125 44.085938 89.671875 44.085938 89.328125 Z M 44.085938 78.421875 "/>
<path fill-rule="nonzero" fill="rgb(0%, 0%, 0%)" fill-opacity="1" d="M 53.0625 85.128906 C 53.0625 85.097656 53.09375 84.910156 53.09375 84.910156 C 53.09375 84.816406 53.0625 84.691406 52.875 84.691406 C 52.59375 84.691406 51.4375 84.816406 51.09375 84.847656 C 51 84.847656 50.78125 84.878906 50.78125 85.160156 C 50.78125 85.347656 51 85.347656 51.15625 85.347656 C 51.8125 85.347656 51.8125 85.472656 51.8125 85.566406 C 51.8125 85.660156 51.78125 85.753906 51.78125 85.878906 L 49.8125 93.753906 C 49.71875 94.003906 49.71875 94.035156 49.71875 94.066406 C 49.71875 94.285156 49.90625 94.503906 50.21875 94.503906 C 50.59375 94.503906 50.75 94.253906 50.84375 93.941406 C 50.875 93.878906 51.46875 91.410156 51.53125 91.222656 C 52.53125 91.316406 53.3125 91.660156 53.3125 92.378906 C 53.3125 92.441406 53.3125 92.503906 53.28125 92.660156 C 53.21875 92.847656 53.21875 92.941406 53.21875 93.097656 C 53.21875 94.066406 54.03125 94.503906 54.71875 94.503906 C 56.0625 94.503906 56.46875 92.410156 56.46875 92.378906 C 56.46875 92.191406 56.3125 92.191406 56.25 92.191406 C 56.0625 92.191406 56.03125 92.285156 55.96875 92.535156 C 55.8125 93.128906 55.4375 94.128906 54.75 94.128906 C 54.375 94.128906 54.25 93.785156 54.25 93.410156 C 54.25 93.160156 54.25 93.128906 54.34375 92.785156 C 54.375 92.722656 54.40625 92.503906 54.40625 92.347656 C 54.40625 91.097656 52.75 90.910156 52.15625 90.878906 C 52.5625 90.628906 53.0625 90.160156 53.3125 89.941406 C 54.03125 89.285156 54.71875 88.628906 55.5 88.628906 C 55.65625 88.628906 55.84375 88.660156 55.96875 88.816406 C 55.375 88.910156 55.25 89.378906 55.25 89.597656 C 55.25 89.878906 55.46875 90.097656 55.78125 90.097656 C 56.1875 90.097656 56.59375 89.785156 56.59375 89.222656 C 56.59375 88.753906 56.25 88.222656 55.53125 88.222656 C 54.71875 88.222656 54 88.816406 53.28125 89.472656 C 52.6875 90.003906 52.25 90.441406 51.65625 90.691406 Z M 53.0625 85.128906 "/>
<path fill-rule="nonzero" fill="rgb(0%, 0%, 0%)" fill-opacity="1" d="M 67.867188 91.222656 C 68.085938 91.222656 68.429688 91.222656 68.429688 90.910156 C 68.429688 90.535156 68.085938 90.535156 67.867188 90.535156 L 59.554688 90.535156 C 59.335938 90.535156 58.992188 90.535156 58.992188 90.878906 C 58.992188 91.222656 59.304688 91.222656 59.554688 91.222656 Z M 67.867188 91.222656 "/>
<path fill-rule="nonzero" fill="rgb(0%, 0%, 0%)" fill-opacity="1" d="M 74.601562 85.503906 C 74.601562 85.128906 74.601562 85.128906 74.195312 85.128906 C 73.289062 86.003906 72.039062 86.003906 71.476562 86.003906 L 71.476562 86.503906 C 71.789062 86.503906 72.726562 86.503906 73.476562 86.128906 L 73.476562 93.222656 C 73.476562 93.691406 73.476562 93.878906 72.101562 93.878906 L 71.570312 93.878906 L 71.570312 94.378906 C 71.820312 94.378906 73.539062 94.316406 74.039062 94.316406 C 74.476562 94.316406 76.226562 94.378906 76.539062 94.378906 L 76.539062 93.878906 L 76.007812 93.878906 C 74.601562 93.878906 74.601562 93.691406 74.601562 93.222656 Z M 74.601562 85.503906 "/>
<path fill-rule="nonzero" fill="rgb(0%, 0%, 0%)" fill-opacity="1" d="M 174.699219 87.203125 L 170.886719 78.140625 C 170.730469 77.734375 170.730469 77.734375 170.167969 77.734375 L 166.480469 77.734375 C 166.105469 77.734375 165.824219 77.734375 165.824219 78.078125 C 165.824219 78.421875 166.167969 78.421875 166.261719 78.421875 C 166.511719 78.421875 167.042969 78.484375 167.480469 78.640625 L 167.480469 89.265625 C 167.480469 89.703125 167.480469 90.578125 166.136719 90.703125 C 165.761719 90.734375 165.761719 91.015625 165.761719 91.046875 C 165.761719 91.390625 166.074219 91.390625 166.449219 91.390625 L 169.511719 91.390625 C 169.886719 91.390625 170.167969 91.390625 170.167969 91.046875 C 170.167969 90.859375 170.011719 90.703125 169.855469 90.703125 C 168.324219 90.578125 168.324219 89.734375 168.324219 89.265625 L 168.324219 79.359375 L 168.355469 79.328125 L 173.199219 90.984375 C 173.386719 91.328125 173.511719 91.390625 173.636719 91.390625 C 173.886719 91.390625 173.917969 91.234375 174.042969 90.984375 L 178.917969 79.328125 L 178.949219 79.359375 L 178.949219 89.265625 C 178.949219 89.703125 178.949219 90.578125 177.574219 90.703125 C 177.199219 90.734375 177.199219 91.015625 177.199219 91.046875 C 177.199219 91.390625 177.511719 91.390625 177.886719 91.390625 L 183.199219 91.390625 C 183.574219 91.390625 183.855469 91.390625 183.855469 91.046875 C 183.855469 90.859375 183.699219 90.703125 183.542969 90.703125 C 182.011719 90.578125 182.011719 89.734375 182.011719 89.265625 L 182.011719 79.859375 C 182.011719 79.421875 182.011719 78.546875 183.355469 78.421875 C 183.574219 78.421875 183.730469 78.296875 183.730469 78.078125 C 183.730469 77.734375 183.449219 77.734375 183.074219 77.734375 L 179.230469 77.734375 C 178.730469 77.734375 178.667969 77.734375 178.511719 78.140625 Z M 174.105469 87.578125 C 174.261719 87.890625 174.292969 87.921875 174.542969 88.015625 L 173.636719 90.109375 L 173.605469 90.109375 L 169.074219 79.265625 C 168.980469 79.015625 168.792969 78.671875 168.542969 78.421875 L 170.261719 78.421875 Z M 168.074219 90.703125 L 167.761719 90.703125 C 167.792969 90.640625 167.824219 90.578125 167.855469 90.546875 C 167.886719 90.515625 167.886719 90.484375 167.917969 90.484375 Z M 179.636719 78.421875 L 181.761719 78.421875 C 181.292969 78.921875 181.292969 79.453125 181.292969 79.796875 L 181.292969 89.328125 C 181.292969 89.671875 181.292969 90.203125 181.761719 90.703125 L 179.199219 90.703125 C 179.636719 90.203125 179.636719 89.671875 179.636719 89.328125 Z M 179.636719 78.421875 "/>
<path fill-rule="nonzero" fill="rgb(0%, 0%, 0%)" fill-opacity="1" d="M 188.609375 85.128906 C 188.609375 85.097656 188.640625 84.910156 188.640625 84.910156 C 188.640625 84.816406 188.609375 84.691406 188.421875 84.691406 C 188.140625 84.691406 186.984375 84.816406 186.640625 84.847656 C 186.546875 84.847656 186.328125 84.878906 186.328125 85.160156 C 186.328125 85.347656 186.546875 85.347656 186.703125 85.347656 C 187.359375 85.347656 187.359375 85.472656 187.359375 85.566406 C 187.359375 85.660156 187.328125 85.753906 187.328125 85.878906 L 185.359375 93.753906 C 185.265625 94.003906 185.265625 94.035156 185.265625 94.066406 C 185.265625 94.285156 185.453125 94.503906 185.765625 94.503906 C 186.140625 94.503906 186.296875 94.253906 186.390625 93.941406 C 186.421875 93.878906 187.015625 91.410156 187.078125 91.222656 C 188.078125 91.316406 188.859375 91.660156 188.859375 92.378906 C 188.859375 92.441406 188.859375 92.503906 188.828125 92.660156 C 188.765625 92.847656 188.765625 92.941406 188.765625 93.097656 C 188.765625 94.066406 189.578125 94.503906 190.265625 94.503906 C 191.609375 94.503906 192.015625 92.410156 192.015625 92.378906 C 192.015625 92.191406 191.859375 92.191406 191.796875 92.191406 C 191.609375 92.191406 191.578125 92.285156 191.515625 92.535156 C 191.359375 93.128906 190.984375 94.128906 190.296875 94.128906 C 189.921875 94.128906 189.796875 93.785156 189.796875 93.410156 C 189.796875 93.160156 189.796875 93.128906 189.890625 92.785156 C 189.921875 92.722656 189.953125 92.503906 189.953125 92.347656 C 189.953125 91.097656 188.296875 90.910156 187.703125 90.878906 C 188.109375 90.628906 188.609375 90.160156 188.859375 89.941406 C 189.578125 89.285156 190.265625 88.628906 191.046875 88.628906 C 191.203125 88.628906 191.390625 88.660156 191.515625 88.816406 C 190.921875 88.910156 190.796875 89.378906 190.796875 89.597656 C 190.796875 89.878906 191.015625 90.097656 191.328125 90.097656 C 191.734375 90.097656 192.140625 89.785156 192.140625 89.222656 C 192.140625 88.753906 191.796875 88.222656 191.078125 88.222656 C 190.265625 88.222656 189.546875 88.816406 188.828125 89.472656 C 188.234375 90.003906 187.796875 90.441406 187.203125 90.691406 Z M 188.609375 85.128906 "/>
<path fill-rule="nonzero" fill="rgb(0%, 0%, 0%)" fill-opacity="1" d="M 182.351562 154.214844 C 181.882812 155.902344 181.195312 158.371094 181.195312 159.902344 C 181.195312 160.433594 181.507812 160.683594 182.007812 160.683594 C 182.789062 160.683594 184.289062 159.808594 184.289062 159.433594 C 184.289062 159.308594 184.195312 159.277344 184.101562 159.277344 C 183.851562 159.277344 183.507812 159.464844 183.289062 159.589844 C 183.007812 159.527344 182.882812 159.339844 182.882812 159.058594 C 182.882812 156.621094 185.132812 149.652344 185.726562 148.183594 C 185.976562 147.621094 186.226562 146.808594 186.226562 146.652344 C 186.226562 146.496094 186.101562 146.496094 186.039062 146.496094 C 185.601562 146.496094 184.695312 147.027344 184.539062 147.433594 C 184.289062 148.121094 184.257812 148.214844 184.007812 148.964844 C 183.351562 150.839844 181.382812 154.152344 179.414062 156.464844 C 178.789062 157.152344 176.820312 159.464844 175.414062 159.464844 C 174.476562 159.464844 173.851562 158.652344 173.851562 157.339844 C 173.851562 155.933594 174.632812 154.152344 175.851562 151.402344 C 176.570312 149.777344 177.164062 148.371094 177.164062 147.464844 C 177.164062 146.527344 176.507812 146.496094 176.164062 146.496094 C 174.632812 146.496094 172.695312 147.746094 172.695312 148.152344 C 172.695312 148.277344 172.851562 148.277344 172.914062 148.277344 C 173.164062 148.277344 173.539062 148.121094 173.851562 147.902344 C 173.976562 147.808594 174.289062 147.589844 174.851562 147.589844 C 175.289062 147.589844 175.445312 147.871094 175.445312 148.308594 C 175.445312 149.183594 174.726562 150.839844 173.914062 152.746094 C 172.601562 155.746094 172.164062 156.996094 172.164062 158.152344 C 172.164062 159.496094 172.695312 160.558594 174.101562 160.558594 C 175.351562 160.558594 177.164062 159.746094 179.195312 157.839844 C 180.570312 156.558594 181.445312 155.371094 182.320312 154.214844 Z M 182.351562 154.214844 "/>
<path fill="none" stroke-width="0.39848" stroke-linecap="butt" stroke-linejoin="miter" stroke="rgb(0%, 0%, 0%)" stroke-opacity="1" stroke-miterlimit="10" d="M 3.857124 32.239719 L 26.970406 32.239719 " transform="matrix(2, 0, 0, -2, 101.442001, 83.706001)"/>
<path fill="none" stroke-width="0.39848" stroke-linecap="round" stroke-linejoin="round" stroke="rgb(0%, 0%, 0%)" stroke-opacity="1" stroke-miterlimit="10" d="M -2.073174 2.391044 C -1.694267 0.95745 -0.850517 0.277762 0.00104523 0.000418663 C -0.850517 -0.280831 -1.694267 -0.956613 -2.073174 -2.390206 " transform="matrix(2, 0, 0, -2, 155.77916, 19.2274)"/>
<path fill-rule="nonzero" fill="rgb(0%, 0%, 0%)" fill-opacity="1" d="M 125.140625 13.011719 C 124.234375 13.011719 124.109375 13.011719 124.109375 12.417969 L 124.109375 10.167969 C 124.171875 10.230469 124.828125 10.949219 125.984375 10.949219 C 127.828125 10.949219 129.390625 9.574219 129.390625 7.824219 C 129.390625 6.105469 127.984375 4.667969 126.203125 4.667969 C 125.421875 4.667969 124.609375 4.980469 124.046875 5.542969 L 124.046875 4.667969 L 121.953125 4.824219 L 121.953125 5.324219 C 122.921875 5.324219 122.984375 5.417969 122.984375 5.980469 L 122.984375 12.417969 C 122.984375 13.011719 122.859375 13.011719 121.953125 13.011719 L 121.953125 13.542969 C 121.984375 13.542969 122.953125 13.480469 123.546875 13.480469 C 124.046875 13.480469 125.015625 13.511719 125.140625 13.542969 Z M 124.109375 6.167969 C 124.515625 5.480469 125.328125 5.136719 126.046875 5.136719 C 127.234375 5.136719 128.140625 6.355469 128.140625 7.824219 C 128.140625 9.417969 127.078125 10.574219 125.921875 10.574219 C 124.671875 10.574219 124.140625 9.511719 124.109375 9.417969 Z M 124.109375 6.167969 "/>
<path fill-rule="nonzero" fill="rgb(0%, 0%, 0%)" fill-opacity="1" d="M 132.832031 7.636719 C 132.832031 6.480469 133.363281 5.074219 134.707031 5.074219 C 134.582031 5.167969 134.457031 5.355469 134.457031 5.574219 C 134.457031 6.042969 134.832031 6.199219 135.082031 6.199219 C 135.425781 6.199219 135.738281 5.980469 135.738281 5.574219 C 135.738281 5.105469 135.269531 4.667969 134.613281 4.667969 C 133.925781 4.667969 133.144531 5.105469 132.738281 6.167969 L 132.738281 4.667969 L 130.738281 4.824219 L 130.738281 5.324219 C 131.675781 5.324219 131.769531 5.417969 131.769531 6.105469 L 131.769531 9.730469 C 131.769531 10.324219 131.644531 10.324219 130.738281 10.324219 L 130.738281 10.824219 C 130.800781 10.824219 131.738281 10.761719 132.332031 10.761719 C 132.925781 10.761719 133.519531 10.792969 134.144531 10.824219 L 134.144531 10.324219 L 133.863281 10.324219 C 132.832031 10.324219 132.832031 10.167969 132.832031 9.699219 Z M 132.832031 7.636719 "/>
<path fill-rule="nonzero" fill="rgb(0%, 0%, 0%)" fill-opacity="1" d="M 140.261719 8.191406 C 140.261719 7.910156 140.230469 7.910156 139.886719 7.910156 C 139.199219 8.535156 138.074219 8.535156 137.886719 8.535156 L 137.730469 8.535156 L 137.730469 8.972656 L 137.886719 8.972656 C 138.105469 8.972656 138.761719 8.941406 139.355469 8.691406 L 139.355469 13.691406 C 139.355469 13.972656 139.355469 14.097656 138.292969 14.097656 L 137.792969 14.097656 L 137.792969 14.535156 C 138.324219 14.503906 139.230469 14.503906 139.792969 14.503906 C 140.386719 14.503906 141.261719 14.503906 141.824219 14.535156 L 141.824219 14.097656 L 141.324219 14.097656 C 140.261719 14.097656 140.261719 13.972656 140.261719 13.691406 Z M 140.261719 8.191406 "/>
<path fill="none" stroke-width="0.39848" stroke-linecap="butt" stroke-linejoin="miter" stroke="rgb(0%, 0%, 0%)" stroke-opacity="1" stroke-miterlimit="10" d="M -23.533501 24.403782 L -23.533501 7.270969 " transform="matrix(2, 0, 0, -2, 101.442001, 83.706001)"/>
<path fill="none" stroke-width="0.39848" stroke-linecap="round" stroke-linejoin="round" stroke="rgb(0%, 0%, 0%)" stroke-opacity="1" stroke-miterlimit="10" d="M -2.072243 2.389915 C -1.693336 0.956322 -0.849586 0.28054 -0.00193024 -0.000709534 C -0.849586 -0.278053 -1.693336 -0.957741 -2.072243 -2.391335 " transform="matrix(0, 2, 2, 0, 54.376419, 69.56636)"/>
<path fill-rule="nonzero" fill="rgb(0%, 0%, 0%)" fill-opacity="1" d="M 18.449219 45.847656 C 18.355469 45.597656 18.324219 45.535156 18.167969 45.535156 C 18.011719 45.535156 17.949219 45.660156 17.855469 45.816406 L 14.699219 54.160156 C 14.511719 54.597656 14.230469 54.816406 13.855469 54.847656 C 13.792969 54.847656 13.574219 54.878906 13.574219 55.097656 C 13.574219 55.347656 13.792969 55.347656 14.042969 55.347656 L 16.261719 55.347656 C 16.511719 55.347656 16.730469 55.347656 16.730469 55.097656 C 16.730469 54.878906 16.542969 54.878906 16.417969 54.847656 C 16.230469 54.847656 15.886719 54.785156 15.886719 53.941406 C 15.886719 53.503906 15.980469 53.035156 16.074219 52.597656 L 19.136719 52.597656 C 19.636719 53.972656 19.636719 54.191406 19.667969 54.472656 C 19.324219 54.816406 18.949219 54.847656 18.792969 54.847656 C 18.636719 54.878906 18.542969 54.972656 18.542969 55.097656 C 18.542969 55.347656 18.761719 55.347656 19.011719 55.347656 L 22.636719 55.347656 C 22.886719 55.347656 23.136719 55.347656 23.136719 55.097656 C 23.136719 54.910156 22.949219 54.878906 22.824219 54.847656 C 22.511719 54.816406 22.261719 54.566406 21.980469 53.941406 Z M 16.230469 52.128906 C 16.542969 50.878906 16.980469 49.691406 17.449219 48.535156 C 17.886719 49.472656 18.730469 51.472656 18.949219 52.128906 Z M 15.386719 53.660156 L 15.417969 53.691406 L 15.417969 53.816406 C 15.386719 53.847656 15.386719 53.878906 15.386719 53.941406 C 15.386719 54.003906 15.386719 54.535156 15.605469 54.847656 L 14.855469 54.847656 C 15.011719 54.660156 15.074219 54.503906 15.167969 54.285156 Z M 17.667969 47.785156 L 18.167969 46.441406 L 21.542969 54.128906 C 21.605469 54.285156 21.761719 54.597656 21.949219 54.847656 L 19.980469 54.847656 C 20.105469 54.785156 20.167969 54.566406 20.167969 54.410156 C 20.167969 53.566406 18.949219 50.722656 18.355469 49.347656 Z M 17.667969 47.785156 "/>
<path fill-rule="nonzero" fill="rgb(0%, 0%, 0%)" fill-opacity="1" d="M 27.054688 50.929688 C 27.117188 50.773438 27.117188 50.773438 27.117188 50.710938 C 27.117188 50.554688 26.960938 50.554688 26.804688 50.554688 L 25.585938 50.648438 C 25.398438 50.648438 25.367188 50.648438 25.335938 50.710938 C 25.304688 50.742188 25.273438 50.867188 25.273438 50.929688 C 25.273438 51.085938 25.429688 51.085938 25.554688 51.085938 C 25.585938 51.085938 25.742188 51.085938 25.898438 51.117188 C 26.085938 51.148438 26.085938 51.179688 26.085938 51.242188 C 26.085938 51.273438 26.085938 51.304688 26.054688 51.492188 L 24.679688 56.992188 C 24.648438 57.117188 24.648438 57.148438 24.648438 57.210938 C 24.648438 57.429688 24.804688 57.585938 25.023438 57.585938 C 25.398438 57.585938 25.492188 57.210938 25.523438 57.054688 L 25.992188 55.242188 C 26.242188 55.242188 27.492188 55.304688 27.492188 56.023438 C 27.492188 56.085938 27.492188 56.117188 27.460938 56.242188 C 27.429688 56.398438 27.429688 56.429688 27.429688 56.492188 C 27.429688 57.210938 28.054688 57.585938 28.648438 57.585938 C 29.648438 57.585938 30.054688 56.148438 30.054688 56.023438 C 30.054688 55.898438 29.898438 55.898438 29.835938 55.898438 C 29.679688 55.898438 29.648438 55.929688 29.617188 56.117188 C 29.523438 56.460938 29.210938 57.242188 28.679688 57.242188 C 28.304688 57.242188 28.273438 56.867188 28.273438 56.648438 C 28.273438 56.648438 28.273438 56.492188 28.304688 56.335938 C 28.335938 56.179688 28.367188 56.054688 28.367188 55.992188 C 28.367188 55.117188 27.242188 54.960938 26.585938 54.898438 C 26.867188 54.742188 27.304688 54.398438 27.460938 54.273438 C 28.023438 53.835938 28.585938 53.398438 29.148438 53.398438 C 29.367188 53.398438 29.429688 53.460938 29.492188 53.523438 C 29.492188 53.523438 29.429688 53.554688 29.398438 53.554688 C 28.960938 53.710938 28.960938 54.117188 28.960938 54.148438 C 28.960938 54.304688 29.085938 54.554688 29.398438 54.554688 C 29.585938 54.554688 30.023438 54.398438 30.023438 53.835938 C 30.023438 53.367188 29.648438 53.054688 29.148438 53.054688 C 28.492188 53.054688 27.898438 53.523438 27.179688 54.085938 C 26.835938 54.367188 26.492188 54.617188 26.085938 54.804688 Z M 27.054688 50.929688 "/>
<path fill-rule="nonzero" fill="rgb(0%, 0%, 0%)" fill-opacity="1" d="M 39.894531 55.246094 C 40.050781 55.246094 40.300781 55.246094 40.300781 54.964844 C 40.300781 54.683594 40.050781 54.683594 39.894531 54.683594 L 33.144531 54.683594 C 32.988281 54.683594 32.707031 54.683594 32.707031 54.964844 C 32.707031 55.246094 32.988281 55.246094 33.144531 55.246094 Z M 39.894531 55.246094 "/>
<path fill-rule="nonzero" fill="rgb(0%, 0%, 0%)" fill-opacity="1" d="M 45.875 51.117188 C 45.875 50.835938 45.84375 50.835938 45.5 50.835938 C 44.8125 51.460938 43.6875 51.460938 43.5 51.460938 L 43.34375 51.460938 L 43.34375 51.898438 L 43.5 51.898438 C 43.71875 51.898438 44.375 51.867188 44.96875 51.617188 L 44.96875 56.617188 C 44.96875 56.898438 44.96875 57.023438 43.90625 57.023438 L 43.40625 57.023438 L 43.40625 57.460938 C 43.9375 57.429688 44.84375 57.429688 45.40625 57.429688 C 46 57.429688 46.875 57.429688 47.4375 57.460938 L 47.4375 57.023438 L 46.9375 57.023438 C 45.875 57.023438 45.875 56.898438 45.875 56.617188 Z M 45.875 51.117188 "/>
<path fill="none" stroke-width="0.39848" stroke-linecap="butt" stroke-linejoin="miter" stroke="rgb(0%, 0%, 0%)" stroke-opacity="1" stroke-miterlimit="10" d="M 39.146187 24.403782 L 39.146187 7.270969 " transform="matrix(2, 0, 0, -2, 101.442001, 83.706001)"/>
<path fill="none" stroke-width="0.39848" stroke-linecap="round" stroke-linejoin="round" stroke="rgb(0%, 0%, 0%)" stroke-opacity="1" stroke-miterlimit="10" d="M -2.072243 2.392235 C -1.693336 0.954735 -0.849586 0.278954 -0.00193024 0.0016098 C -0.849586 -0.27964 -1.693336 -0.955421 -2.072243 -2.389015 " transform="matrix(0, 2, 2, 0, 179.731155, 69.56636)"/>
<path fill-rule="nonzero" fill="rgb(0%, 0%, 0%)" fill-opacity="1" d="M 188.925781 49.433594 C 190.082031 48.933594 190.582031 48.746094 190.925781 48.558594 C 191.207031 48.464844 191.332031 48.402344 191.332031 48.121094 C 191.332031 47.902344 191.144531 47.683594 190.894531 47.683594 C 190.800781 47.683594 190.769531 47.683594 190.613281 47.808594 L 188.707031 49.089844 L 188.925781 47.027344 C 188.957031 46.777344 188.925781 46.433594 188.488281 46.433594 C 188.332031 46.433594 188.050781 46.527344 188.050781 46.839844 C 188.050781 46.964844 188.113281 47.371094 188.144531 47.527344 C 188.175781 47.746094 188.269531 48.777344 188.300781 49.089844 L 186.394531 47.808594 C 186.269531 47.746094 186.238281 47.683594 186.113281 47.683594 C 185.832031 47.683594 185.675781 47.902344 185.675781 48.121094 C 185.675781 48.402344 185.832031 48.496094 185.957031 48.527344 L 188.050781 49.433594 C 186.925781 49.933594 186.394531 50.121094 186.050781 50.277344 C 185.800781 50.402344 185.675781 50.464844 185.675781 50.714844 C 185.675781 50.964844 185.832031 51.152344 186.113281 51.152344 C 186.207031 51.152344 186.238281 51.152344 186.394531 51.027344 L 188.300781 49.777344 L 188.050781 51.996094 C 188.050781 52.308594 188.332031 52.433594 188.488281 52.433594 C 188.675781 52.433594 188.925781 52.308594 188.925781 51.996094 C 188.925781 51.871094 188.863281 51.464844 188.863281 51.339844 C 188.832031 51.089844 188.738281 50.089844 188.707031 49.777344 L 190.363281 50.871094 C 190.738281 51.152344 190.769531 51.152344 190.894531 51.152344 C 191.144531 51.152344 191.332031 50.964844 191.332031 50.714844 C 191.332031 50.433594 191.144531 50.371094 191.019531 50.308594 Z M 188.925781 49.433594 "/>
<path fill-rule="nonzero" fill="rgb(0%, 0%, 0%)" fill-opacity="1" d="M 197.246094 52.867188 L 195.339844 48.335938 C 195.246094 48.117188 195.246094 48.117188 194.964844 48.117188 L 193.121094 48.117188 C 192.933594 48.117188 192.777344 48.117188 192.777344 48.304688 C 192.777344 48.492188 192.964844 48.492188 193.027344 48.492188 C 193.152344 48.492188 193.402344 48.492188 193.621094 48.585938 L 193.621094 53.898438 C 193.621094 54.117188 193.621094 54.554688 192.933594 54.617188 C 192.746094 54.617188 192.746094 54.773438 192.746094 54.773438 C 192.746094 54.960938 192.933594 54.960938 193.089844 54.960938 L 194.652344 54.960938 C 194.808594 54.960938 194.964844 54.960938 194.964844 54.773438 C 194.964844 54.679688 194.902344 54.617188 194.808594 54.617188 C 194.058594 54.554688 194.058594 54.148438 194.058594 53.898438 L 194.058594 48.929688 L 196.496094 54.742188 C 196.558594 54.929688 196.652344 54.960938 196.683594 54.960938 C 196.808594 54.960938 196.839844 54.867188 196.902344 54.773438 L 199.339844 48.929688 L 199.339844 53.898438 C 199.339844 54.117188 199.339844 54.554688 198.683594 54.617188 C 198.496094 54.617188 198.496094 54.773438 198.496094 54.773438 C 198.496094 54.960938 198.652344 54.960938 198.808594 54.960938 L 201.496094 54.960938 C 201.652344 54.960938 201.808594 54.960938 201.808594 54.773438 C 201.808594 54.679688 201.746094 54.617188 201.652344 54.617188 C 200.871094 54.554688 200.871094 54.148438 200.871094 53.898438 L 200.871094 49.179688 C 200.871094 48.992188 200.871094 48.554688 201.558594 48.492188 C 201.652344 48.460938 201.746094 48.429688 201.746094 48.304688 C 201.746094 48.117188 201.589844 48.117188 201.433594 48.117188 L 199.496094 48.117188 C 199.246094 48.117188 199.214844 48.117188 199.121094 48.335938 Z M 196.933594 53.054688 C 197.027344 53.210938 197.027344 53.210938 197.152344 53.273438 L 196.714844 54.335938 L 196.683594 54.335938 L 194.402344 48.898438 C 194.371094 48.773438 194.277344 48.585938 194.152344 48.492188 L 195.027344 48.492188 Z M 193.933594 54.617188 L 193.746094 54.617188 C 193.777344 54.585938 193.808594 54.554688 193.808594 54.523438 C 193.839844 54.523438 193.839844 54.523438 193.839844 54.492188 Z M 199.683594 48.492188 L 200.746094 48.492188 C 200.527344 48.742188 200.527344 48.992188 200.527344 49.179688 L 200.527344 53.929688 C 200.527344 54.117188 200.527344 54.367188 200.777344 54.617188 L 199.464844 54.617188 C 199.683594 54.367188 199.683594 54.117188 199.683594 53.929688 Z M 199.683594 48.492188 "/>
<path fill-rule="nonzero" fill="rgb(0%, 0%, 0%)" fill-opacity="1" d="M 205.652344 51.917969 C 205.714844 51.761719 205.714844 51.761719 205.714844 51.699219 C 205.714844 51.542969 205.558594 51.542969 205.402344 51.542969 L 204.183594 51.636719 C 203.996094 51.636719 203.964844 51.636719 203.933594 51.699219 C 203.902344 51.730469 203.871094 51.855469 203.871094 51.917969 C 203.871094 52.074219 204.027344 52.074219 204.152344 52.074219 C 204.183594 52.074219 204.339844 52.074219 204.496094 52.105469 C 204.683594 52.136719 204.683594 52.167969 204.683594 52.230469 C 204.683594 52.261719 204.683594 52.292969 204.652344 52.480469 L 203.277344 57.980469 C 203.246094 58.105469 203.246094 58.136719 203.246094 58.199219 C 203.246094 58.417969 203.402344 58.574219 203.621094 58.574219 C 203.996094 58.574219 204.089844 58.199219 204.121094 58.042969 L 204.589844 56.230469 C 204.839844 56.230469 206.089844 56.292969 206.089844 57.011719 C 206.089844 57.074219 206.089844 57.105469 206.058594 57.230469 C 206.027344 57.386719 206.027344 57.417969 206.027344 57.480469 C 206.027344 58.199219 206.652344 58.574219 207.246094 58.574219 C 208.246094 58.574219 208.652344 57.136719 208.652344 57.011719 C 208.652344 56.886719 208.496094 56.886719 208.433594 56.886719 C 208.277344 56.886719 208.246094 56.917969 208.214844 57.105469 C 208.121094 57.449219 207.808594 58.230469 207.277344 58.230469 C 206.902344 58.230469 206.871094 57.855469 206.871094 57.636719 C 206.871094 57.636719 206.871094 57.480469 206.902344 57.324219 C 206.933594 57.167969 206.964844 57.042969 206.964844 56.980469 C 206.964844 56.105469 205.839844 55.949219 205.183594 55.886719 C 205.464844 55.730469 205.902344 55.386719 206.058594 55.261719 C 206.621094 54.824219 207.183594 54.386719 207.746094 54.386719 C 207.964844 54.386719 208.027344 54.449219 208.089844 54.511719 C 208.089844 54.511719 208.027344 54.542969 207.996094 54.542969 C 207.558594 54.699219 207.558594 55.105469 207.558594 55.136719 C 207.558594 55.292969 207.683594 55.542969 207.996094 55.542969 C 208.183594 55.542969 208.621094 55.386719 208.621094 54.824219 C 208.621094 54.355469 208.246094 54.042969 207.746094 54.042969 C 207.089844 54.042969 206.496094 54.511719 205.777344 55.074219 C 205.433594 55.355469 205.089844 55.605469 204.683594 55.792969 Z M 205.652344 51.917969 "/>
<path fill="none" stroke-width="2.33075" stroke-linecap="butt" stroke-linejoin="miter" stroke="rgb(0%, 0%, 0%)" stroke-opacity="1" stroke-miterlimit="10" d="M 0.587593 11.575657 L 16.657906 20.192844 " transform="matrix(2, 0, 0, -2, 101.442001, 83.706001)"/>
<path fill="none" stroke-width="1.53377" stroke-linecap="butt" stroke-linejoin="miter" stroke="rgb(100%, 100%, 100%)" stroke-opacity="1" stroke-miterlimit="10" d="M 0.587593 11.575657 L 16.657906 20.192844 " transform="matrix(2, 0, 0, -2, 101.442001, 83.706001)"/>
<path fill="none" stroke-width="0.39848" stroke-linecap="round" stroke-linejoin="round" stroke="rgb(0%, 0%, 0%)" stroke-opacity="1" stroke-miterlimit="10" d="M -1.294793 2.561372 C -0.667286 1.210075 1.022916 0.0470711 1.989759 -0.00134789 C 1.025478 -0.0473766 -0.664248 -1.207059 -1.296898 -2.561032 " transform="matrix(1.7627, -0.9448, -0.9448, -1.7627, 134.757004, 43.322861)"/>
<path fill-rule="nonzero" fill="rgb(0%, 0%, 0%)" fill-opacity="1" d="M 102.257812 34.847656 C 102.257812 34.816406 102.289062 34.628906 102.289062 34.628906 C 102.289062 34.535156 102.257812 34.410156 102.070312 34.410156 C 101.789062 34.410156 100.632812 34.535156 100.289062 34.566406 C 100.195312 34.566406 99.976562 34.597656 99.976562 34.878906 C 99.976562 35.066406 100.195312 35.066406 100.351562 35.066406 C 101.007812 35.066406 101.007812 35.191406 101.007812 35.285156 C 101.007812 35.378906 100.976562 35.472656 100.976562 35.597656 L 99.007812 43.472656 C 98.914062 43.722656 98.914062 43.753906 98.914062 43.785156 C 98.914062 44.003906 99.101562 44.222656 99.414062 44.222656 C 99.570312 44.222656 99.820312 44.160156 99.976562 43.878906 C 100.007812 43.785156 100.132812 43.285156 100.195312 43.003906 L 100.539062 41.753906 C 100.570312 41.535156 100.726562 41.003906 100.757812 40.816406 C 100.882812 40.285156 100.882812 40.253906 101.164062 39.816406 C 101.632812 39.128906 102.320312 38.347656 103.414062 38.347656 C 104.195312 38.347656 104.226562 38.972656 104.226562 39.316406 C 104.226562 40.160156 103.632812 41.691406 103.414062 42.285156 C 103.257812 42.691406 103.195312 42.816406 103.195312 43.035156 C 103.195312 43.785156 103.820312 44.222656 104.507812 44.222656 C 105.914062 44.222656 106.539062 42.316406 106.539062 42.097656 C 106.539062 41.910156 106.351562 41.910156 106.289062 41.910156 C 106.101562 41.910156 106.101562 42.003906 106.039062 42.160156 C 105.726562 43.285156 105.101562 43.847656 104.570312 43.847656 C 104.257812 43.847656 104.195312 43.660156 104.195312 43.347656 C 104.195312 43.035156 104.289062 42.847656 104.539062 42.222656 C 104.695312 41.785156 105.257812 40.316406 105.257812 39.535156 C 105.257812 39.316406 105.257812 38.722656 104.757812 38.316406 C 104.507812 38.160156 104.101562 37.941406 103.445312 37.941406 C 102.445312 37.941406 101.695312 38.503906 101.195312 39.097656 Z M 102.257812 34.847656 "/>
<path fill-rule="nonzero" fill="rgb(0%, 0%, 0%)" fill-opacity="1" d="M 110.871094 39.679688 C 110.933594 39.523438 110.933594 39.523438 110.933594 39.460938 C 110.933594 39.304688 110.777344 39.304688 110.621094 39.304688 L 109.402344 39.398438 C 109.214844 39.398438 109.183594 39.398438 109.152344 39.460938 C 109.121094 39.492188 109.089844 39.617188 109.089844 39.679688 C 109.089844 39.835938 109.246094 39.835938 109.371094 39.835938 C 109.402344 39.835938 109.558594 39.835938 109.714844 39.867188 C 109.902344 39.898438 109.902344 39.929688 109.902344 39.992188 C 109.902344 40.023438 109.902344 40.054688 109.871094 40.242188 L 108.496094 45.742188 C 108.464844 45.867188 108.464844 45.898438 108.464844 45.960938 C 108.464844 46.179688 108.621094 46.335938 108.839844 46.335938 C 109.214844 46.335938 109.308594 45.960938 109.339844 45.804688 L 109.808594 43.992188 C 110.058594 43.992188 111.308594 44.054688 111.308594 44.773438 C 111.308594 44.835938 111.308594 44.867188 111.277344 44.992188 C 111.246094 45.148438 111.246094 45.179688 111.246094 45.242188 C 111.246094 45.960938 111.871094 46.335938 112.464844 46.335938 C 113.464844 46.335938 113.871094 44.898438 113.871094 44.773438 C 113.871094 44.648438 113.714844 44.648438 113.652344 44.648438 C 113.496094 44.648438 113.464844 44.679688 113.433594 44.867188 C 113.339844 45.210938 113.027344 45.992188 112.496094 45.992188 C 112.121094 45.992188 112.089844 45.617188 112.089844 45.398438 C 112.089844 45.398438 112.089844 45.242188 112.121094 45.085938 C 112.152344 44.929688 112.183594 44.804688 112.183594 44.742188 C 112.183594 43.867188 111.058594 43.710938 110.402344 43.648438 C 110.683594 43.492188 111.121094 43.148438 111.277344 43.023438 C 111.839844 42.585938 112.402344 42.148438 112.964844 42.148438 C 113.183594 42.148438 113.246094 42.210938 113.308594 42.273438 C 113.308594 42.273438 113.246094 42.304688 113.214844 42.304688 C 112.777344 42.460938 112.777344 42.867188 112.777344 42.898438 C 112.777344 43.054688 112.902344 43.304688 113.214844 43.304688 C 113.402344 43.304688 113.839844 43.148438 113.839844 42.585938 C 113.839844 42.117188 113.464844 41.804688 112.964844 41.804688 C 112.308594 41.804688 111.714844 42.273438 110.996094 42.835938 C 110.652344 43.117188 110.308594 43.367188 109.902344 43.554688 Z M 110.871094 39.679688 "/>
<path fill="none" stroke-width="0.39848" stroke-linecap="butt" stroke-linejoin="miter" stroke="rgb(0%, 0%, 0%)" stroke-opacity="1" stroke-miterlimit="10" d="M -6.783501 -1.350124 L 27.095406 -1.350124 " transform="matrix(2, 0, 0, -2, 101.442001, 83.706001)"/>
<path fill="none" stroke-width="0.39848" stroke-linecap="round" stroke-linejoin="round" stroke="rgb(0%, 0%, 0%)" stroke-opacity="1" stroke-miterlimit="10" d="M -2.072235 2.391571 C -1.693329 0.957977 -0.849579 0.27829 -0.00192261 0.000946045 C -0.849579 -0.280304 -1.693329 -0.956085 -2.072235 -2.389679 " transform="matrix(2, 0, 0, -2, 156.035095, 86.408142)"/>
<path fill-rule="nonzero" fill="rgb(0%, 0%, 0%)" fill-opacity="1" d="M 107.917969 76.316406 C 107.855469 76.503906 107.792969 76.660156 107.792969 76.910156 C 107.792969 77.566406 108.324219 78.066406 109.105469 78.066406 C 110.480469 78.066406 111.105469 76.160156 111.105469 75.941406 C 111.105469 75.753906 110.917969 75.753906 110.886719 75.753906 C 110.699219 75.753906 110.667969 75.847656 110.605469 76.003906 C 110.292969 77.128906 109.699219 77.691406 109.136719 77.691406 C 108.855469 77.691406 108.792969 77.503906 108.792969 77.191406 C 108.792969 76.878906 108.886719 76.628906 109.011719 76.316406 C 109.167969 75.941406 109.324219 75.566406 109.449219 75.191406 C 109.574219 74.847656 110.105469 73.597656 110.136719 73.410156 C 110.199219 73.285156 110.230469 73.128906 110.230469 72.972656 C 110.230469 72.316406 109.667969 71.785156 108.917969 71.785156 C 107.511719 71.785156 106.886719 73.691406 106.886719 73.941406 C 106.886719 74.097656 107.074219 74.097656 107.136719 74.097656 C 107.324219 74.097656 107.324219 74.035156 107.386719 73.878906 C 107.730469 72.691406 108.355469 72.191406 108.855469 72.191406 C 109.074219 72.191406 109.199219 72.285156 109.199219 72.660156 C 109.199219 73.003906 109.136719 73.191406 108.792969 74.066406 Z M 107.917969 76.316406 "/>
<path fill-rule="nonzero" fill="rgb(0%, 0%, 0%)" fill-opacity="1" d="M 115.449219 73.523438 C 115.511719 73.367188 115.511719 73.367188 115.511719 73.304688 C 115.511719 73.148438 115.355469 73.148438 115.199219 73.148438 L 113.980469 73.242188 C 113.792969 73.242188 113.761719 73.242188 113.730469 73.304688 C 113.699219 73.335938 113.667969 73.460938 113.667969 73.523438 C 113.667969 73.679688 113.824219 73.679688 113.949219 73.679688 C 113.980469 73.679688 114.136719 73.679688 114.292969 73.710938 C 114.480469 73.742188 114.480469 73.773438 114.480469 73.835938 C 114.480469 73.867188 114.480469 73.898438 114.449219 74.085938 L 113.074219 79.585938 C 113.042969 79.710938 113.042969 79.742188 113.042969 79.804688 C 113.042969 80.023438 113.199219 80.179688 113.417969 80.179688 C 113.792969 80.179688 113.886719 79.804688 113.917969 79.648438 L 114.386719 77.835938 C 114.636719 77.835938 115.886719 77.898438 115.886719 78.617188 C 115.886719 78.679688 115.886719 78.710938 115.855469 78.835938 C 115.824219 78.992188 115.824219 79.023438 115.824219 79.085938 C 115.824219 79.804688 116.449219 80.179688 117.042969 80.179688 C 118.042969 80.179688 118.449219 78.742188 118.449219 78.617188 C 118.449219 78.492188 118.292969 78.492188 118.230469 78.492188 C 118.074219 78.492188 118.042969 78.523438 118.011719 78.710938 C 117.917969 79.054688 117.605469 79.835938 117.074219 79.835938 C 116.699219 79.835938 116.667969 79.460938 116.667969 79.242188 C 116.667969 79.242188 116.667969 79.085938 116.699219 78.929688 C 116.730469 78.773438 116.761719 78.648438 116.761719 78.585938 C 116.761719 77.710938 115.636719 77.554688 114.980469 77.492188 C 115.261719 77.335938 115.699219 76.992188 115.855469 76.867188 C 116.417969 76.429688 116.980469 75.992188 117.542969 75.992188 C 117.761719 75.992188 117.824219 76.054688 117.886719 76.117188 C 117.886719 76.117188 117.824219 76.148438 117.792969 76.148438 C 117.355469 76.304688 117.355469 76.710938 117.355469 76.742188 C 117.355469 76.898438 117.480469 77.148438 117.792969 77.148438 C 117.980469 77.148438 118.417969 76.992188 118.417969 76.429688 C 118.417969 75.960938 118.042969 75.648438 117.542969 75.648438 C 116.886719 75.648438 116.292969 76.117188 115.574219 76.679688 C 115.230469 76.960938 114.886719 77.210938 114.480469 77.398438 Z M 115.449219 73.523438 "/>
<path fill-rule="nonzero" fill="rgb(0%, 0%, 0%)" fill-opacity="1" d="M 128.289062 77.835938 C 128.445312 77.835938 128.695312 77.835938 128.695312 77.554688 C 128.695312 77.273438 128.445312 77.273438 128.289062 77.273438 L 121.539062 77.273438 C 121.382812 77.273438 121.101562 77.273438 121.101562 77.554688 C 121.101562 77.835938 121.382812 77.835938 121.539062 77.835938 Z M 128.289062 77.835938 "/>
<path fill-rule="nonzero" fill="rgb(0%, 0%, 0%)" fill-opacity="1" d="M 134.265625 73.710938 C 134.265625 73.429688 134.234375 73.429688 133.890625 73.429688 C 133.203125 74.054688 132.078125 74.054688 131.890625 74.054688 L 131.734375 74.054688 L 131.734375 74.492188 L 131.890625 74.492188 C 132.109375 74.492188 132.765625 74.460938 133.359375 74.210938 L 133.359375 79.210938 C 133.359375 79.492188 133.359375 79.617188 132.296875 79.617188 L 131.796875 79.617188 L 131.796875 80.054688 C 132.328125 80.023438 133.234375 80.023438 133.796875 80.023438 C 134.390625 80.023438 135.265625 80.023438 135.828125 80.054688 L 135.828125 79.617188 L 135.328125 79.617188 C 134.265625 79.617188 134.265625 79.492188 134.265625 79.210938 Z M 134.265625 73.710938 "/>
<path fill="none" stroke-width="0.39848" stroke-linecap="butt" stroke-linejoin="miter" stroke="rgb(0%, 0%, 0%)" stroke-opacity="1" stroke-miterlimit="10" d="M -7.736626 -10.014187 L 30.689156 -31.084499 " transform="matrix(2, 0, 0, -2, 101.442001, 83.706001)"/>
<path fill="none" stroke-width="0.39848" stroke-linecap="round" stroke-linejoin="round" stroke="rgb(0%, 0%, 0%)" stroke-opacity="1" stroke-miterlimit="10" d="M -2.071483 2.389829 C -1.69553 0.956495 -0.851674 0.278648 -0.000259451 0.00144138 C -0.849857 -0.277233 -1.692981 -0.957766 -2.070578 -2.389911 " transform="matrix(1.75364, 0.96142, 0.96142, -1.75364, 163.170944, 146.065277)"/>
<path fill-rule="nonzero" fill="rgb(0%, 0%, 0%)" fill-opacity="1" d="M 91.683594 133.875 L 93.027344 133.875 C 93.308594 133.875 93.496094 133.875 93.496094 133.5625 C 93.496094 133.375 93.308594 133.375 93.058594 133.375 L 91.777344 133.375 C 92.089844 131.59375 92.183594 130.96875 92.308594 130.5625 C 92.371094 130.25 92.683594 129.96875 93.027344 129.96875 C 93.027344 129.96875 93.402344 129.96875 93.683594 130.125 C 93.089844 130.3125 93.058594 130.8125 93.058594 130.875 C 93.058594 131.1875 93.308594 131.40625 93.621094 131.40625 C 93.996094 131.40625 94.402344 131.09375 94.402344 130.5625 C 94.402344 129.90625 93.746094 129.5625 93.027344 129.5625 C 92.402344 129.5625 91.714844 129.90625 91.339844 130.59375 C 91.058594 131.125 90.964844 131.75 90.652344 133.375 L 89.558594 133.375 C 89.277344 133.375 89.089844 133.375 89.089844 133.6875 C 89.089844 133.875 89.277344 133.875 89.527344 133.875 L 90.558594 133.875 C 90.558594 133.96875 89.683594 138.96875 89.339844 140.46875 C 89.277344 140.78125 89.027344 141.8125 88.371094 141.8125 C 88.339844 141.8125 88.027344 141.8125 87.746094 141.65625 C 88.308594 141.46875 88.371094 140.96875 88.371094 140.90625 C 88.371094 140.59375 88.121094 140.375 87.808594 140.375 C 87.433594 140.375 87.027344 140.6875 87.027344 141.21875 C 87.027344 141.84375 87.683594 142.21875 88.371094 142.21875 C 89.246094 142.21875 89.871094 141.3125 90.027344 141 C 90.527344 140.0625 90.871094 138.34375 90.902344 138.1875 Z M 91.683594 133.875 "/>
<path fill-rule="nonzero" fill="rgb(0%, 0%, 0%)" fill-opacity="1" d="M 97.421875 134.957031 C 97.484375 134.800781 97.484375 134.800781 97.484375 134.738281 C 97.484375 134.582031 97.328125 134.582031 97.171875 134.582031 L 95.953125 134.675781 C 95.765625 134.675781 95.734375 134.675781 95.703125 134.738281 C 95.671875 134.769531 95.640625 134.894531 95.640625 134.957031 C 95.640625 135.113281 95.796875 135.113281 95.921875 135.113281 C 95.953125 135.113281 96.109375 135.113281 96.265625 135.144531 C 96.453125 135.175781 96.453125 135.207031 96.453125 135.269531 C 96.453125 135.300781 96.453125 135.332031 96.421875 135.519531 L 95.046875 141.019531 C 95.015625 141.144531 95.015625 141.175781 95.015625 141.238281 C 95.015625 141.457031 95.171875 141.613281 95.390625 141.613281 C 95.765625 141.613281 95.859375 141.238281 95.890625 141.082031 L 96.359375 139.269531 C 96.609375 139.269531 97.859375 139.332031 97.859375 140.050781 C 97.859375 140.113281 97.859375 140.144531 97.828125 140.269531 C 97.796875 140.425781 97.796875 140.457031 97.796875 140.519531 C 97.796875 141.238281 98.421875 141.613281 99.015625 141.613281 C 100.015625 141.613281 100.421875 140.175781 100.421875 140.050781 C 100.421875 139.925781 100.265625 139.925781 100.203125 139.925781 C 100.046875 139.925781 100.015625 139.957031 99.984375 140.144531 C 99.890625 140.488281 99.578125 141.269531 99.046875 141.269531 C 98.671875 141.269531 98.640625 140.894531 98.640625 140.675781 C 98.640625 140.675781 98.640625 140.519531 98.671875 140.363281 C 98.703125 140.207031 98.734375 140.082031 98.734375 140.019531 C 98.734375 139.144531 97.609375 138.988281 96.953125 138.925781 C 97.234375 138.769531 97.671875 138.425781 97.828125 138.300781 C 98.390625 137.863281 98.953125 137.425781 99.515625 137.425781 C 99.734375 137.425781 99.796875 137.488281 99.859375 137.550781 C 99.859375 137.550781 99.796875 137.582031 99.765625 137.582031 C 99.328125 137.738281 99.328125 138.144531 99.328125 138.175781 C 99.328125 138.332031 99.453125 138.582031 99.765625 138.582031 C 99.953125 138.582031 100.390625 138.425781 100.390625 137.863281 C 100.390625 137.394531 100.015625 137.082031 99.515625 137.082031 C 98.859375 137.082031 98.265625 137.550781 97.546875 138.113281 C 97.203125 138.394531 96.859375 138.644531 96.453125 138.832031 Z M 97.421875 134.957031 "/>
<path fill-rule="nonzero" fill="rgb(0%, 0%, 0%)" fill-opacity="1" d="M 110.261719 139.273438 C 110.417969 139.273438 110.667969 139.273438 110.667969 138.992188 C 110.667969 138.710938 110.417969 138.710938 110.261719 138.710938 L 103.511719 138.710938 C 103.355469 138.710938 103.074219 138.710938 103.074219 138.992188 C 103.074219 139.273438 103.355469 139.273438 103.511719 139.273438 Z M 110.261719 139.273438 "/>
<path fill-rule="nonzero" fill="rgb(0%, 0%, 0%)" fill-opacity="1" d="M 116.242188 135.144531 C 116.242188 134.863281 116.210938 134.863281 115.867188 134.863281 C 115.179688 135.488281 114.054688 135.488281 113.867188 135.488281 L 113.710938 135.488281 L 113.710938 135.925781 L 113.867188 135.925781 C 114.085938 135.925781 114.742188 135.894531 115.335938 135.644531 L 115.335938 140.644531 C 115.335938 140.925781 115.335938 141.050781 114.273438 141.050781 L 113.773438 141.050781 L 113.773438 141.488281 C 114.304688 141.457031 115.210938 141.457031 115.773438 141.457031 C 116.367188 141.457031 117.242188 141.457031 117.804688 141.488281 L 117.804688 141.050781 L 117.304688 141.050781 C 116.242188 141.050781 116.242188 140.925781 116.242188 140.644531 Z M 116.242188 135.144531 "/>
<path fill-rule="nonzero" fill="rgb(0%, 0%, 0%)" fill-opacity="1" d="M 144.914062 73.246094 C 144.695312 73.246094 144.351562 73.246094 144.351562 73.558594 C 144.351562 73.933594 144.664062 73.933594 144.914062 73.933594 L 149.789062 73.933594 C 150.257812 73.933594 150.320312 73.839844 150.320312 73.402344 L 150.320312 68.464844 C 150.320312 68.246094 150.320312 67.933594 150.007812 67.933594 C 149.632812 67.933594 149.632812 68.308594 149.632812 68.527344 L 149.632812 73.246094 Z M 144.914062 73.246094 "/>
<path fill="none" stroke-width="0.39848" stroke-linecap="butt" stroke-linejoin="miter" stroke="rgb(0%, 0%, 0%)" stroke-opacity="1" stroke-miterlimit="10" d="M 39.146187 -9.186062 L 39.146187 -27.150906 " transform="matrix(2, 0, 0, -2, 101.442001, 83.706001)"/>
<path fill="none" stroke-width="0.39848" stroke-linecap="round" stroke-linejoin="round" stroke="rgb(0%, 0%, 0%)" stroke-opacity="1" stroke-miterlimit="10" d="M -2.070969 2.392235 C -1.692062 0.954735 -0.848312 0.278954 -0.000656128 0.0016098 C -0.848312 -0.27964 -1.692062 -0.955421 -2.070969 -2.389015 " transform="matrix(0, 2, 2, 0, 179.731155, 138.407562)"/>
<path fill-rule="nonzero" fill="rgb(0%, 0%, 0%)" fill-opacity="1" d="M 190.113281 118.429688 L 191.457031 118.429688 C 191.738281 118.429688 191.925781 118.429688 191.925781 118.117188 C 191.925781 117.929688 191.738281 117.929688 191.488281 117.929688 L 190.207031 117.929688 C 190.519531 116.148438 190.613281 115.523438 190.738281 115.117188 C 190.800781 114.804688 191.113281 114.523438 191.457031 114.523438 C 191.457031 114.523438 191.832031 114.523438 192.113281 114.679688 C 191.519531 114.867188 191.488281 115.367188 191.488281 115.429688 C 191.488281 115.742188 191.738281 115.960938 192.050781 115.960938 C 192.425781 115.960938 192.832031 115.648438 192.832031 115.117188 C 192.832031 114.460938 192.175781 114.117188 191.457031 114.117188 C 190.832031 114.117188 190.144531 114.460938 189.769531 115.148438 C 189.488281 115.679688 189.394531 116.304688 189.082031 117.929688 L 187.988281 117.929688 C 187.707031 117.929688 187.519531 117.929688 187.519531 118.242188 C 187.519531 118.429688 187.707031 118.429688 187.957031 118.429688 L 188.988281 118.429688 C 188.988281 118.523438 188.113281 123.523438 187.769531 125.023438 C 187.707031 125.335938 187.457031 126.367188 186.800781 126.367188 C 186.769531 126.367188 186.457031 126.367188 186.175781 126.210938 C 186.738281 126.023438 186.800781 125.523438 186.800781 125.460938 C 186.800781 125.148438 186.550781 124.929688 186.238281 124.929688 C 185.863281 124.929688 185.457031 125.242188 185.457031 125.773438 C 185.457031 126.398438 186.113281 126.773438 186.800781 126.773438 C 187.675781 126.773438 188.300781 125.867188 188.457031 125.554688 C 188.957031 124.617188 189.300781 122.898438 189.332031 122.742188 Z M 190.113281 118.429688 "/>
<path fill-rule="nonzero" fill="rgb(0%, 0%, 0%)" fill-opacity="1" d="M 195.851562 119.511719 C 195.914062 119.355469 195.914062 119.355469 195.914062 119.292969 C 195.914062 119.136719 195.757812 119.136719 195.601562 119.136719 L 194.382812 119.230469 C 194.195312 119.230469 194.164062 119.230469 194.132812 119.292969 C 194.101562 119.324219 194.070312 119.449219 194.070312 119.511719 C 194.070312 119.667969 194.226562 119.667969 194.351562 119.667969 C 194.382812 119.667969 194.539062 119.667969 194.695312 119.699219 C 194.882812 119.730469 194.882812 119.761719 194.882812 119.824219 C 194.882812 119.855469 194.882812 119.886719 194.851562 120.074219 L 193.476562 125.574219 C 193.445312 125.699219 193.445312 125.730469 193.445312 125.792969 C 193.445312 126.011719 193.601562 126.167969 193.820312 126.167969 C 194.195312 126.167969 194.289062 125.792969 194.320312 125.636719 L 194.789062 123.824219 C 195.039062 123.824219 196.289062 123.886719 196.289062 124.605469 C 196.289062 124.667969 196.289062 124.699219 196.257812 124.824219 C 196.226562 124.980469 196.226562 125.011719 196.226562 125.074219 C 196.226562 125.792969 196.851562 126.167969 197.445312 126.167969 C 198.445312 126.167969 198.851562 124.730469 198.851562 124.605469 C 198.851562 124.480469 198.695312 124.480469 198.632812 124.480469 C 198.476562 124.480469 198.445312 124.511719 198.414062 124.699219 C 198.320312 125.042969 198.007812 125.824219 197.476562 125.824219 C 197.101562 125.824219 197.070312 125.449219 197.070312 125.230469 C 197.070312 125.230469 197.070312 125.074219 197.101562 124.917969 C 197.132812 124.761719 197.164062 124.636719 197.164062 124.574219 C 197.164062 123.699219 196.039062 123.542969 195.382812 123.480469 C 195.664062 123.324219 196.101562 122.980469 196.257812 122.855469 C 196.820312 122.417969 197.382812 121.980469 197.945312 121.980469 C 198.164062 121.980469 198.226562 122.042969 198.289062 122.105469 C 198.289062 122.105469 198.226562 122.136719 198.195312 122.136719 C 197.757812 122.292969 197.757812 122.699219 197.757812 122.730469 C 197.757812 122.886719 197.882812 123.136719 198.195312 123.136719 C 198.382812 123.136719 198.820312 122.980469 198.820312 122.417969 C 198.820312 121.949219 198.445312 121.636719 197.945312 121.636719 C 197.289062 121.636719 196.695312 122.105469 195.976562 122.667969 C 195.632812 122.949219 195.289062 123.199219 194.882812 123.386719 Z M 195.851562 119.511719 "/>
<g clip-path="url(#clip-0)">
<path fill="none" stroke-width="2.33075" stroke-linecap="butt" stroke-linejoin="miter" stroke="rgb(0%, 0%, 0%)" stroke-opacity="1" stroke-miterlimit="10" d="M 27.982124 -9.186062 L 16.587593 -17.182156 " transform="matrix(2, 0, 0, -2, 101.442001, 83.706001)"/>
</g>
<path fill="none" stroke-width="1.53377" stroke-linecap="butt" stroke-linejoin="miter" stroke="rgb(100%, 100%, 100%)" stroke-opacity="1" stroke-miterlimit="10" d="M 27.982124 -9.186062 L 16.587593 -17.182156 " transform="matrix(2, 0, 0, -2, 101.442001, 83.706001)"/>
<path fill="none" stroke-width="0.39848" stroke-linecap="round" stroke-linejoin="round" stroke="rgb(0%, 0%, 0%)" stroke-opacity="1" stroke-miterlimit="10" d="M -1.293218 2.559243 C -0.666621 1.208011 1.025553 0.0491277 1.99004 0.00221987 C 1.023196 -0.0494358 -0.666927 -1.206545 -1.293216 -2.561409 " transform="matrix(-1.63706, 1.14884, 1.14884, 1.63706, 134.614639, 118.069504)"/>
</svg>
