<?xml version="1.0" encoding="UTF-8"?>
<svg xmlns="http://www.w3.org/2000/svg" xmlns:xlink="http://www.w3.org/1999/xlink" width="285.059998" height="113.720001" viewBox="0 0 285.059998 113.720001">
<path fill-rule="nonzero" fill="rgb(0%, 0%, 0%)" fill-opacity="1" d="M 27.054688 13.980469 C 27.242188 13.261719 27.273438 13.074219 28.773438 13.074219 C 29.210938 13.074219 29.398438 13.074219 29.398438 12.667969 C 29.398438 12.449219 29.210938 12.449219 28.867188 12.449219 L 26.242188 12.449219 C 25.710938 12.449219 25.679688 12.449219 25.460938 12.824219 L 18.179688 24.199219 L 16.617188 12.917969 C 16.554688 12.449219 16.523438 12.449219 15.992188 12.449219 L 13.273438 12.449219 C 12.898438 12.449219 12.679688 12.449219 12.679688 12.824219 C 12.679688 13.074219 12.867188 13.074219 13.242188 13.074219 C 13.523438 13.074219 13.867188 13.105469 14.117188 13.105469 C 14.429688 13.167969 14.554688 13.199219 14.554688 13.449219 C 14.554688 13.511719 14.523438 13.574219 14.460938 13.824219 L 11.929688 23.949219 C 11.742188 24.761719 11.398438 25.386719 9.773438 25.449219 C 9.679688 25.449219 9.429688 25.480469 9.429688 25.824219 C 9.429688 26.011719 9.554688 26.074219 9.710938 26.074219 C 10.335938 26.074219 11.023438 26.011719 11.710938 26.011719 C 12.367188 26.011719 13.085938 26.074219 13.742188 26.074219 C 13.835938 26.074219 14.117188 26.074219 14.117188 25.667969 C 14.117188 25.449219 13.898438 25.449219 13.742188 25.449219 C 12.617188 25.449219 12.398438 25.042969 12.398438 24.574219 C 12.398438 24.449219 12.398438 24.324219 12.460938 24.105469 L 15.179688 13.261719 L 15.210938 13.261719 L 16.929688 25.605469 C 16.960938 25.855469 16.992188 26.074219 17.210938 26.074219 C 17.429688 26.074219 17.554688 25.855469 17.648438 25.730469 L 25.710938 13.105469 L 25.742188 13.105469 L 22.867188 24.511719 C 22.679688 25.292969 22.648438 25.449219 21.054688 25.449219 C 20.742188 25.449219 20.523438 25.449219 20.523438 25.824219 C 20.523438 26.074219 20.742188 26.074219 20.804688 26.074219 C 21.367188 26.074219 22.710938 26.011719 23.273438 26.011719 C 24.085938 26.011719 24.960938 26.074219 25.773438 26.074219 C 25.898438 26.074219 26.148438 26.074219 26.148438 25.667969 C 26.148438 25.449219 25.960938 25.449219 25.585938 25.449219 C 24.867188 25.449219 24.304688 25.449219 24.304688 25.105469 C 24.304688 25.011719 24.304688 24.980469 24.398438 24.605469 Z M 27.054688 13.980469 "/>
<path fill-rule="nonzero" fill="rgb(0%, 0%, 0%)" fill-opacity="1" d="M 29.601562 28.1875 C 29.570312 28.375 29.476562 28.71875 29.476562 28.75 C 29.476562 29.0625 29.726562 29.1875 29.945312 29.1875 C 30.195312 29.1875 30.414062 29.03125 30.507812 28.90625 C 30.570312 28.78125 30.664062 28.3125 30.757812 28.03125 C 30.820312 27.78125 30.976562 27.125 31.039062 26.78125 C 31.132812 26.46875 31.226562 26.15625 31.289062 25.84375 C 31.445312 25.28125 31.476562 25.15625 31.882812 24.59375 C 32.257812 24.03125 32.914062 23.3125 33.976562 23.3125 C 34.757812 23.3125 34.789062 24.03125 34.789062 24.28125 C 34.789062 25.125 34.195312 26.65625 33.976562 27.25 C 33.820312 27.65625 33.757812 27.78125 33.757812 28 C 33.757812 28.75 34.351562 29.1875 35.070312 29.1875 C 36.476562 29.1875 37.070312 27.28125 37.070312 27.0625 C 37.070312 26.875 36.914062 26.875 36.851562 26.875 C 36.664062 26.875 36.664062 26.96875 36.601562 27.125 C 36.289062 28.25 35.664062 28.8125 35.132812 28.8125 C 34.820312 28.8125 34.757812 28.625 34.757812 28.3125 C 34.757812 28 34.851562 27.8125 35.101562 27.1875 C 35.257812 26.75 35.820312 25.28125 35.820312 24.5 C 35.820312 23.15625 34.757812 22.90625 34.007812 22.90625 C 32.851562 22.90625 32.070312 23.625 31.664062 24.1875 C 31.570312 23.21875 30.757812 22.90625 30.164062 22.90625 C 29.570312 22.90625 29.257812 23.34375 29.070312 23.65625 C 28.757812 24.1875 28.570312 24.96875 28.570312 25.0625 C 28.570312 25.21875 28.757812 25.21875 28.820312 25.21875 C 29.007812 25.21875 29.007812 25.1875 29.101562 24.8125 C 29.320312 24 29.601562 23.3125 30.132812 23.3125 C 30.507812 23.3125 30.601562 23.625 30.601562 24 C 30.601562 24.25 30.476562 24.78125 30.351562 25.15625 C 30.257812 25.53125 30.132812 26.09375 30.070312 26.40625 Z M 29.601562 28.1875 "/>
<path fill-rule="nonzero" fill="rgb(0%, 0%, 0%)" fill-opacity="1" d="M 50.941406 20.542969 L 46.972656 16.574219 C 46.722656 16.324219 46.691406 16.292969 46.535156 16.292969 C 46.316406 16.292969 46.128906 16.449219 46.128906 16.699219 C 46.128906 16.824219 46.160156 16.855469 46.378906 17.074219 L 50.378906 21.074219 L 46.378906 25.105469 C 46.160156 25.324219 46.128906 25.355469 46.128906 25.480469 C 46.128906 25.730469 46.316406 25.886719 46.535156 25.886719 C 46.691406 25.886719 46.722656 25.855469 46.972656 25.605469 L 50.941406 21.636719 L 55.066406 25.761719 C 55.097656 25.792969 55.222656 25.886719 55.347656 25.886719 C 55.597656 25.886719 55.753906 25.730469 55.753906 25.480469 C 55.753906 25.449219 55.753906 25.386719 55.691406 25.261719 C 55.660156 25.230469 52.503906 22.105469 51.503906 21.074219 L 55.160156 17.449219 C 55.253906 17.324219 55.566406 17.074219 55.660156 16.949219 C 55.660156 16.917969 55.753906 16.824219 55.753906 16.699219 C 55.753906 16.449219 55.597656 16.292969 55.347656 16.292969 C 55.191406 16.292969 55.128906 16.355469 54.910156 16.574219 Z M 50.941406 20.542969 "/>
<path fill-rule="nonzero" fill="rgb(0%, 0%, 0%)" fill-opacity="1" d="M 72.335938 19.324219 C 72.148438 18.074219 71.335938 16.949219 69.773438 16.949219 C 68.554688 16.949219 67.273438 17.292969 65.710938 18.824219 C 64.054688 20.480469 63.929688 22.355469 63.929688 22.949219 C 63.929688 24.199219 64.804688 26.511719 67.585938 26.511719 C 72.335938 26.511719 74.398438 19.824219 74.398438 16.949219 C 74.398438 13.792969 72.554688 11.792969 70.085938 11.792969 C 67.210938 11.792969 66.273438 14.386719 66.273438 14.949219 C 66.273438 15.230469 66.460938 15.636719 67.054688 15.636719 C 67.710938 15.636719 68.117188 15.042969 68.117188 14.605469 C 68.117188 13.886719 67.492188 13.886719 67.179688 13.886719 C 68.054688 12.417969 69.492188 12.292969 70.054688 12.292969 C 71.523438 12.292969 72.898438 13.324219 72.898438 15.917969 C 72.898438 16.699219 72.773438 17.699219 72.367188 19.324219 Z M 67.648438 25.949219 C 65.460938 25.949219 65.460938 23.886719 65.460938 23.699219 C 65.460938 23.167969 65.960938 20.386719 66.773438 19.167969 C 67.554688 18.042969 68.554688 17.386719 69.773438 17.386719 C 71.960938 17.386719 71.992188 19.636719 71.992188 20.042969 C 71.992188 21.480469 70.710938 25.949219 67.648438 25.949219 Z M 67.648438 25.949219 "/>
<path fill-rule="nonzero" fill="rgb(0%, 0%, 0%)" fill-opacity="1" d="M 80.804688 19.761719 L 84.210938 19.761719 C 87.023438 19.761719 89.804688 17.699219 89.804688 15.480469 C 89.804688 13.917969 88.492188 12.449219 85.867188 12.449219 L 79.429688 12.449219 C 79.054688 12.449219 78.835938 12.449219 78.835938 12.824219 C 78.835938 13.074219 78.992188 13.074219 79.398438 13.074219 C 79.648438 13.074219 80.023438 13.105469 80.242188 13.105469 C 80.585938 13.167969 80.679688 13.199219 80.679688 13.449219 C 80.679688 13.511719 80.679688 13.574219 80.617188 13.824219 L 77.929688 24.511719 C 77.742188 25.292969 77.710938 25.449219 76.117188 25.449219 C 75.804688 25.449219 75.585938 25.449219 75.585938 25.824219 C 75.585938 26.074219 75.804688 26.074219 75.867188 26.074219 C 76.429688 26.074219 77.835938 26.011719 78.398438 26.011719 C 78.835938 26.011719 79.273438 26.042969 79.679688 26.042969 C 80.117188 26.042969 80.554688 26.074219 80.960938 26.074219 C 81.117188 26.074219 81.367188 26.074219 81.367188 25.667969 C 81.367188 25.449219 81.179688 25.449219 80.804688 25.449219 C 80.085938 25.449219 79.523438 25.449219 79.523438 25.105469 C 79.523438 24.980469 79.554688 24.886719 79.585938 24.761719 Z M 82.242188 13.824219 C 82.429688 13.136719 82.460938 13.074219 83.335938 13.074219 L 85.242188 13.074219 C 86.898438 13.074219 87.960938 13.605469 87.960938 14.980469 C 87.960938 15.761719 87.554688 17.480469 86.773438 18.199219 C 85.773438 19.105469 84.585938 19.261719 83.710938 19.261719 L 80.898438 19.261719 Z M 82.242188 13.824219 "/>
<path fill-rule="nonzero" fill="rgb(0%, 0%, 0%)" fill-opacity="1" d="M 96.953125 30.855469 C 96.953125 30.792969 96.953125 30.761719 96.609375 30.417969 C 94.140625 27.917969 93.484375 24.136719 93.484375 21.074219 C 93.484375 17.605469 94.234375 14.136719 96.703125 11.667969 C 96.953125 11.417969 96.953125 11.386719 96.953125 11.324219 C 96.953125 11.167969 96.890625 11.105469 96.765625 11.105469 C 96.546875 11.105469 94.765625 12.480469 93.578125 15.011719 C 92.578125 17.199219 92.328125 19.417969 92.328125 21.074219 C 92.328125 22.636719 92.546875 25.042969 93.640625 27.324219 C 94.859375 29.761719 96.546875 31.074219 96.765625 31.074219 C 96.890625 31.074219 96.953125 31.011719 96.953125 30.855469 Z M 96.953125 30.855469 "/>
<path fill-rule="nonzero" fill="rgb(0%, 0%, 0%)" fill-opacity="1" d="M 99.859375 24.886719 C 99.796875 25.199219 99.671875 25.667969 99.671875 25.761719 C 99.671875 26.105469 99.953125 26.292969 100.265625 26.292969 C 100.515625 26.292969 100.859375 26.136719 101.015625 25.730469 C 101.015625 25.699219 101.265625 24.761719 101.390625 24.261719 L 101.828125 22.480469 C 101.921875 22.011719 102.046875 21.574219 102.171875 21.136719 C 102.234375 20.792969 102.390625 20.199219 102.421875 20.136719 C 102.703125 19.511719 103.765625 17.699219 105.671875 17.699219 C 106.578125 17.699219 106.734375 18.449219 106.734375 19.105469 C 106.734375 20.324219 105.765625 22.886719 105.453125 23.730469 C 105.265625 24.199219 105.234375 24.449219 105.234375 24.667969 C 105.234375 25.605469 105.953125 26.292969 106.890625 26.292969 C 108.765625 26.292969 109.484375 23.386719 109.484375 23.230469 C 109.484375 23.011719 109.328125 23.011719 109.265625 23.011719 C 109.046875 23.011719 109.046875 23.074219 108.953125 23.386719 C 108.546875 24.730469 107.890625 25.855469 106.921875 25.855469 C 106.578125 25.855469 106.453125 25.667969 106.453125 25.199219 C 106.453125 24.699219 106.609375 24.230469 106.796875 23.792969 C 107.171875 22.730469 108.015625 20.542969 108.015625 19.386719 C 108.015625 18.074219 107.171875 17.261719 105.734375 17.261719 C 103.921875 17.261719 102.953125 18.542969 102.609375 19.011719 C 102.515625 17.886719 101.703125 17.261719 100.765625 17.261719 C 99.859375 17.261719 99.484375 18.042969 99.296875 18.386719 C 98.953125 19.074219 98.703125 20.261719 98.703125 20.324219 C 98.703125 20.542969 98.890625 20.542969 98.921875 20.542969 C 99.140625 20.542969 99.140625 20.511719 99.265625 20.074219 C 99.609375 18.667969 100.015625 17.699219 100.734375 17.699219 C 101.109375 17.699219 101.328125 17.949219 101.328125 18.605469 C 101.328125 19.042969 101.265625 19.261719 101.015625 20.292969 Z M 99.859375 24.886719 "/>
<path fill-rule="nonzero" fill="rgb(0%, 0%, 0%)" fill-opacity="1" d="M 115.816406 21.074219 C 115.816406 19.542969 115.597656 17.136719 114.503906 14.855469 C 113.316406 12.417969 111.597656 11.105469 111.410156 11.105469 C 111.285156 11.105469 111.191406 11.199219 111.191406 11.324219 C 111.191406 11.386719 111.191406 11.417969 111.566406 11.792969 C 113.535156 13.761719 114.660156 16.917969 114.660156 21.074219 C 114.660156 24.511719 113.941406 28.011719 111.472656 30.511719 C 111.191406 30.761719 111.191406 30.792969 111.191406 30.855469 C 111.191406 30.980469 111.285156 31.074219 111.410156 31.074219 C 111.597656 31.074219 113.410156 29.699219 114.566406 27.167969 C 115.597656 24.980469 115.816406 22.761719 115.816406 21.074219 Z M 115.816406 21.074219 "/>
<path fill-rule="nonzero" fill="rgb(0%, 0%, 0%)" fill-opacity="1" d="M 201.28125 13.980469 C 201.46875 13.261719 201.5 13.074219 203 13.074219 C 203.4375 13.074219 203.625 13.074219 203.625 12.667969 C 203.625 12.449219 203.4375 12.449219 203.09375 12.449219 L 200.46875 12.449219 C 199.9375 12.449219 199.90625 12.449219 199.6875 12.824219 L 192.40625 24.199219 L 190.84375 12.917969 C 190.78125 12.449219 190.75 12.449219 190.21875 12.449219 L 187.5 12.449219 C 187.125 12.449219 186.90625 12.449219 186.90625 12.824219 C 186.90625 13.074219 187.09375 13.074219 187.46875 13.074219 C 187.75 13.074219 188.09375 13.105469 188.34375 13.105469 C 188.65625 13.167969 188.78125 13.199219 188.78125 13.449219 C 188.78125 13.511719 188.75 13.574219 188.6875 13.824219 L 186.15625 23.949219 C 185.96875 24.761719 185.625 25.386719 184 25.449219 C 183.90625 25.449219 183.65625 25.480469 183.65625 25.824219 C 183.65625 26.011719 183.78125 26.074219 183.9375 26.074219 C 184.5625 26.074219 185.25 26.011719 185.9375 26.011719 C 186.59375 26.011719 187.3125 26.074219 187.96875 26.074219 C 188.0625 26.074219 188.34375 26.074219 188.34375 25.667969 C 188.34375 25.449219 188.125 25.449219 187.96875 25.449219 C 186.84375 25.449219 186.625 25.042969 186.625 24.574219 C 186.625 24.449219 186.625 24.324219 186.6875 24.105469 L 189.40625 13.261719 L 189.4375 13.261719 L 191.15625 25.605469 C 191.1875 25.855469 191.21875 26.074219 191.4375 26.074219 C 191.65625 26.074219 191.78125 25.855469 191.875 25.730469 L 199.9375 13.105469 L 199.96875 13.105469 L 197.09375 24.511719 C 196.90625 25.292969 196.875 25.449219 195.28125 25.449219 C 194.96875 25.449219 194.75 25.449219 194.75 25.824219 C 194.75 26.074219 194.96875 26.074219 195.03125 26.074219 C 195.59375 26.074219 196.9375 26.011719 197.5 26.011719 C 198.3125 26.011719 199.1875 26.074219 200 26.074219 C 200.125 26.074219 200.375 26.074219 200.375 25.667969 C 200.375 25.449219 200.1875 25.449219 199.8125 25.449219 C 199.09375 25.449219 198.53125 25.449219 198.53125 25.105469 C 198.53125 25.011719 198.53125 24.980469 198.625 24.605469 Z M 201.28125 13.980469 "/>
<path fill-rule="nonzero" fill="rgb(0%, 0%, 0%)" fill-opacity="1" d="M 203.828125 28.1875 C 203.796875 28.375 203.703125 28.71875 203.703125 28.75 C 203.703125 29.0625 203.953125 29.1875 204.171875 29.1875 C 204.421875 29.1875 204.640625 29.03125 204.734375 28.90625 C 204.796875 28.78125 204.890625 28.3125 204.984375 28.03125 C 205.046875 27.78125 205.203125 27.125 205.265625 26.78125 C 205.359375 26.46875 205.453125 26.15625 205.515625 25.84375 C 205.671875 25.28125 205.703125 25.15625 206.109375 24.59375 C 206.484375 24.03125 207.140625 23.3125 208.203125 23.3125 C 208.984375 23.3125 209.015625 24.03125 209.015625 24.28125 C 209.015625 25.125 208.421875 26.65625 208.203125 27.25 C 208.046875 27.65625 207.984375 27.78125 207.984375 28 C 207.984375 28.75 208.578125 29.1875 209.296875 29.1875 C 210.703125 29.1875 211.296875 27.28125 211.296875 27.0625 C 211.296875 26.875 211.140625 26.875 211.078125 26.875 C 210.890625 26.875 210.890625 26.96875 210.828125 27.125 C 210.515625 28.25 209.890625 28.8125 209.359375 28.8125 C 209.046875 28.8125 208.984375 28.625 208.984375 28.3125 C 208.984375 28 209.078125 27.8125 209.328125 27.1875 C 209.484375 26.75 210.046875 25.28125 210.046875 24.5 C 210.046875 23.15625 208.984375 22.90625 208.234375 22.90625 C 207.078125 22.90625 206.296875 23.625 205.890625 24.1875 C 205.796875 23.21875 204.984375 22.90625 204.390625 22.90625 C 203.796875 22.90625 203.484375 23.34375 203.296875 23.65625 C 202.984375 24.1875 202.796875 24.96875 202.796875 25.0625 C 202.796875 25.21875 202.984375 25.21875 203.046875 25.21875 C 203.234375 25.21875 203.234375 25.1875 203.328125 24.8125 C 203.546875 24 203.828125 23.3125 204.359375 23.3125 C 204.734375 23.3125 204.828125 23.625 204.828125 24 C 204.828125 24.25 204.703125 24.78125 204.578125 25.15625 C 204.484375 25.53125 204.359375 26.09375 204.296875 26.40625 Z M 203.828125 28.1875 "/>
<path fill-rule="nonzero" fill="rgb(0%, 0%, 0%)" fill-opacity="1" d="M 225.164062 20.542969 L 221.195312 16.574219 C 220.945312 16.324219 220.914062 16.292969 220.757812 16.292969 C 220.539062 16.292969 220.351562 16.449219 220.351562 16.699219 C 220.351562 16.824219 220.382812 16.855469 220.601562 17.074219 L 224.601562 21.074219 L 220.601562 25.105469 C 220.382812 25.324219 220.351562 25.355469 220.351562 25.480469 C 220.351562 25.730469 220.539062 25.886719 220.757812 25.886719 C 220.914062 25.886719 220.945312 25.855469 221.195312 25.605469 L 225.164062 21.636719 L 229.289062 25.761719 C 229.320312 25.792969 229.445312 25.886719 229.570312 25.886719 C 229.820312 25.886719 229.976562 25.730469 229.976562 25.480469 C 229.976562 25.449219 229.976562 25.386719 229.914062 25.261719 C 229.882812 25.230469 226.726562 22.105469 225.726562 21.074219 L 229.382812 17.449219 C 229.476562 17.324219 229.789062 17.074219 229.882812 16.949219 C 229.882812 16.917969 229.976562 16.824219 229.976562 16.699219 C 229.976562 16.449219 229.820312 16.292969 229.570312 16.292969 C 229.414062 16.292969 229.351562 16.355469 229.132812 16.574219 Z M 225.164062 20.542969 "/>
<path fill-rule="nonzero" fill="rgb(0%, 0%, 0%)" fill-opacity="1" d="M 246.5625 19.324219 C 246.375 18.074219 245.5625 16.949219 244 16.949219 C 242.78125 16.949219 241.5 17.292969 239.9375 18.824219 C 238.28125 20.480469 238.15625 22.355469 238.15625 22.949219 C 238.15625 24.199219 239.03125 26.511719 241.8125 26.511719 C 246.5625 26.511719 248.625 19.824219 248.625 16.949219 C 248.625 13.792969 246.78125 11.792969 244.3125 11.792969 C 241.4375 11.792969 240.5 14.386719 240.5 14.949219 C 240.5 15.230469 240.6875 15.636719 241.28125 15.636719 C 241.9375 15.636719 242.34375 15.042969 242.34375 14.605469 C 242.34375 13.886719 241.71875 13.886719 241.40625 13.886719 C 242.28125 12.417969 243.71875 12.292969 244.28125 12.292969 C 245.75 12.292969 247.125 13.324219 247.125 15.917969 C 247.125 16.699219 247 17.699219 246.59375 19.324219 Z M 241.875 25.949219 C 239.6875 25.949219 239.6875 23.886719 239.6875 23.699219 C 239.6875 23.167969 240.1875 20.386719 241 19.167969 C 241.78125 18.042969 242.78125 17.386719 244 17.386719 C 246.1875 17.386719 246.21875 19.636719 246.21875 20.042969 C 246.21875 21.480469 244.9375 25.949219 241.875 25.949219 Z M 241.875 25.949219 "/>
<path fill-rule="nonzero" fill="rgb(0%, 0%, 0%)" fill-opacity="1" d="M 257.839844 12.167969 C 257.714844 11.886719 257.652344 11.792969 257.308594 11.792969 C 256.996094 11.792969 256.933594 11.886719 256.808594 12.167969 L 250.058594 25.667969 C 249.964844 25.855469 249.964844 25.886719 249.964844 25.917969 C 249.964844 26.074219 250.089844 26.074219 250.402344 26.074219 L 264.246094 26.074219 C 264.558594 26.074219 264.683594 26.074219 264.683594 25.917969 C 264.683594 25.886719 264.683594 25.855469 264.589844 25.667969 Z M 256.683594 13.792969 L 262.058594 24.574219 L 251.308594 24.574219 Z M 256.683594 13.792969 "/>
<path fill-rule="nonzero" fill="rgb(0%, 0%, 0%)" fill-opacity="1" d="M 267.320312 17.96875 C 267.289062 18.15625 267.195312 18.5 267.195312 18.53125 C 267.195312 18.84375 267.445312 18.96875 267.664062 18.96875 C 267.914062 18.96875 268.132812 18.8125 268.226562 18.6875 C 268.289062 18.5625 268.382812 18.09375 268.476562 17.8125 C 268.539062 17.5625 268.695312 16.90625 268.757812 16.5625 C 268.851562 16.25 268.945312 15.9375 269.007812 15.625 C 269.164062 15.0625 269.195312 14.9375 269.601562 14.375 C 269.976562 13.8125 270.632812 13.09375 271.695312 13.09375 C 272.476562 13.09375 272.507812 13.8125 272.507812 14.0625 C 272.507812 14.90625 271.914062 16.4375 271.695312 17.03125 C 271.539062 17.4375 271.476562 17.5625 271.476562 17.78125 C 271.476562 18.53125 272.070312 18.96875 272.789062 18.96875 C 274.195312 18.96875 274.789062 17.0625 274.789062 16.84375 C 274.789062 16.65625 274.632812 16.65625 274.570312 16.65625 C 274.382812 16.65625 274.382812 16.75 274.320312 16.90625 C 274.007812 18.03125 273.382812 18.59375 272.851562 18.59375 C 272.539062 18.59375 272.476562 18.40625 272.476562 18.09375 C 272.476562 17.78125 272.570312 17.59375 272.820312 16.96875 C 272.976562 16.53125 273.539062 15.0625 273.539062 14.28125 C 273.539062 12.9375 272.476562 12.6875 271.726562 12.6875 C 270.570312 12.6875 269.789062 13.40625 269.382812 13.96875 C 269.289062 13 268.476562 12.6875 267.882812 12.6875 C 267.289062 12.6875 266.976562 13.125 266.789062 13.4375 C 266.476562 13.96875 266.289062 14.75 266.289062 14.84375 C 266.289062 15 266.476562 15 266.539062 15 C 266.726562 15 266.726562 14.96875 266.820312 14.59375 C 267.039062 13.78125 267.320312 13.09375 267.851562 13.09375 C 268.226562 13.09375 268.320312 13.40625 268.320312 13.78125 C 268.320312 14.03125 268.195312 14.5625 268.070312 14.9375 C 267.976562 15.3125 267.851562 15.875 267.789062 16.1875 Z M 267.320312 17.96875 "/>
<path fill-rule="nonzero" fill="rgb(0%, 0%, 0%)" fill-opacity="1" d="M 60.355469 83.152344 C 60.542969 82.433594 60.574219 82.246094 62.074219 82.246094 C 62.511719 82.246094 62.699219 82.246094 62.699219 81.839844 C 62.699219 81.621094 62.511719 81.621094 62.167969 81.621094 L 59.542969 81.621094 C 59.011719 81.621094 58.980469 81.621094 58.761719 81.996094 L 51.480469 93.371094 L 49.917969 82.089844 C 49.855469 81.621094 49.824219 81.621094 49.292969 81.621094 L 46.574219 81.621094 C 46.199219 81.621094 45.980469 81.621094 45.980469 81.996094 C 45.980469 82.246094 46.167969 82.246094 46.542969 82.246094 C 46.824219 82.246094 47.167969 82.277344 47.417969 82.277344 C 47.730469 82.339844 47.855469 82.371094 47.855469 82.621094 C 47.855469 82.683594 47.824219 82.746094 47.761719 82.996094 L 45.230469 93.121094 C 45.042969 93.933594 44.699219 94.558594 43.074219 94.621094 C 42.980469 94.621094 42.730469 94.652344 42.730469 94.996094 C 42.730469 95.183594 42.855469 95.246094 43.011719 95.246094 C 43.636719 95.246094 44.324219 95.183594 45.011719 95.183594 C 45.667969 95.183594 46.386719 95.246094 47.042969 95.246094 C 47.136719 95.246094 47.417969 95.246094 47.417969 94.839844 C 47.417969 94.621094 47.199219 94.621094 47.042969 94.621094 C 45.917969 94.621094 45.699219 94.214844 45.699219 93.746094 C 45.699219 93.621094 45.699219 93.496094 45.761719 93.277344 L 48.480469 82.433594 L 48.511719 82.433594 L 50.230469 94.777344 C 50.261719 95.027344 50.292969 95.246094 50.511719 95.246094 C 50.730469 95.246094 50.855469 95.027344 50.949219 94.902344 L 59.011719 82.277344 L 59.042969 82.277344 L 56.167969 93.683594 C 55.980469 94.464844 55.949219 94.621094 54.355469 94.621094 C 54.042969 94.621094 53.824219 94.621094 53.824219 94.996094 C 53.824219 95.246094 54.042969 95.246094 54.105469 95.246094 C 54.667969 95.246094 56.011719 95.183594 56.574219 95.183594 C 57.386719 95.183594 58.261719 95.246094 59.074219 95.246094 C 59.199219 95.246094 59.449219 95.246094 59.449219 94.839844 C 59.449219 94.621094 59.261719 94.621094 58.886719 94.621094 C 58.167969 94.621094 57.605469 94.621094 57.605469 94.277344 C 57.605469 94.183594 57.605469 94.152344 57.699219 93.777344 Z M 60.355469 83.152344 "/>
<path fill-rule="nonzero" fill="rgb(0%, 0%, 0%)" fill-opacity="1" d="M 71.839844 89.390625 C 72.027344 89.328125 72.152344 89.203125 72.152344 89.046875 C 72.152344 88.828125 71.996094 88.671875 71.808594 88.671875 C 71.777344 88.671875 71.714844 88.671875 71.527344 88.765625 L 63.027344 92.859375 C 62.808594 92.953125 62.714844 93.078125 62.714844 93.234375 C 62.714844 93.390625 62.808594 93.484375 63.027344 93.609375 L 71.527344 97.671875 C 71.714844 97.765625 71.777344 97.765625 71.808594 97.765625 C 72.027344 97.765625 72.152344 97.578125 72.152344 97.453125 C 72.152344 97.203125 71.964844 97.140625 71.839844 97.078125 L 63.839844 93.234375 Z M 71.589844 100.828125 C 71.808594 100.828125 72.152344 100.828125 72.152344 100.515625 C 72.152344 100.171875 71.808594 100.171875 71.589844 100.171875 L 63.277344 100.171875 C 63.027344 100.171875 62.714844 100.171875 62.714844 100.515625 C 62.714844 100.828125 63.058594 100.828125 63.277344 100.828125 Z M 71.589844 100.828125 "/>
<path fill-rule="nonzero" fill="rgb(0%, 0%, 0%)" fill-opacity="1" d="M 75.359375 97.359375 C 75.328125 97.546875 75.234375 97.890625 75.234375 97.921875 C 75.234375 98.234375 75.484375 98.359375 75.703125 98.359375 C 75.953125 98.359375 76.171875 98.203125 76.265625 98.078125 C 76.328125 97.953125 76.421875 97.484375 76.515625 97.203125 C 76.578125 96.953125 76.734375 96.296875 76.796875 95.953125 C 76.890625 95.640625 76.984375 95.328125 77.046875 95.015625 C 77.203125 94.453125 77.234375 94.328125 77.640625 93.765625 C 78.015625 93.203125 78.671875 92.484375 79.734375 92.484375 C 80.515625 92.484375 80.546875 93.203125 80.546875 93.453125 C 80.546875 94.296875 79.953125 95.828125 79.734375 96.421875 C 79.578125 96.828125 79.515625 96.953125 79.515625 97.171875 C 79.515625 97.921875 80.109375 98.359375 80.828125 98.359375 C 82.234375 98.359375 82.828125 96.453125 82.828125 96.234375 C 82.828125 96.046875 82.671875 96.046875 82.609375 96.046875 C 82.421875 96.046875 82.421875 96.140625 82.359375 96.296875 C 82.046875 97.421875 81.421875 97.984375 80.890625 97.984375 C 80.578125 97.984375 80.515625 97.796875 80.515625 97.484375 C 80.515625 97.171875 80.609375 96.984375 80.859375 96.359375 C 81.015625 95.921875 81.578125 94.453125 81.578125 93.671875 C 81.578125 92.328125 80.515625 92.078125 79.765625 92.078125 C 78.609375 92.078125 77.828125 92.796875 77.421875 93.359375 C 77.328125 92.390625 76.515625 92.078125 75.921875 92.078125 C 75.328125 92.078125 75.015625 92.515625 74.828125 92.828125 C 74.515625 93.359375 74.328125 94.140625 74.328125 94.234375 C 74.328125 94.390625 74.515625 94.390625 74.578125 94.390625 C 74.765625 94.390625 74.765625 94.359375 74.859375 93.984375 C 75.078125 93.171875 75.359375 92.484375 75.890625 92.484375 C 76.265625 92.484375 76.359375 92.796875 76.359375 93.171875 C 76.359375 93.421875 76.234375 93.953125 76.109375 94.328125 C 76.015625 94.703125 75.890625 95.265625 75.828125 95.578125 Z M 75.359375 97.359375 "/>
<path fill-rule="nonzero" fill="rgb(0%, 0%, 0%)" fill-opacity="1" d="M 224.09375 91.058594 L 220.28125 81.996094 C 220.125 81.589844 220.125 81.589844 219.5625 81.589844 L 215.875 81.589844 C 215.5 81.589844 215.21875 81.589844 215.21875 81.933594 C 215.21875 82.277344 215.5625 82.277344 215.65625 82.277344 C 215.90625 82.277344 216.4375 82.339844 216.875 82.496094 L 216.875 93.121094 C 216.875 93.558594 216.875 94.433594 215.53125 94.558594 C 215.15625 94.589844 215.15625 94.871094 215.15625 94.902344 C 215.15625 95.246094 215.46875 95.246094 215.84375 95.246094 L 218.90625 95.246094 C 219.28125 95.246094 219.5625 95.246094 219.5625 94.902344 C 219.5625 94.714844 219.40625 94.558594 219.25 94.558594 C 217.71875 94.433594 217.71875 93.589844 217.71875 93.121094 L 217.71875 83.214844 L 217.75 83.183594 L 222.59375 94.839844 C 222.78125 95.183594 222.90625 95.246094 223.03125 95.246094 C 223.28125 95.246094 223.3125 95.089844 223.4375 94.839844 L 228.3125 83.183594 L 228.34375 83.214844 L 228.34375 93.121094 C 228.34375 93.558594 228.34375 94.433594 226.96875 94.558594 C 226.59375 94.589844 226.59375 94.871094 226.59375 94.902344 C 226.59375 95.246094 226.90625 95.246094 227.28125 95.246094 L 232.59375 95.246094 C 232.96875 95.246094 233.25 95.246094 233.25 94.902344 C 233.25 94.714844 233.09375 94.558594 232.9375 94.558594 C 231.40625 94.433594 231.40625 93.589844 231.40625 93.121094 L 231.40625 83.714844 C 231.40625 83.277344 231.40625 82.402344 232.75 82.277344 C 232.96875 82.277344 233.125 82.152344 233.125 81.933594 C 233.125 81.589844 232.84375 81.589844 232.46875 81.589844 L 228.625 81.589844 C 228.125 81.589844 228.0625 81.589844 227.90625 81.996094 Z M 223.5 91.433594 C 223.65625 91.746094 223.6875 91.777344 223.9375 91.871094 L 223.03125 93.964844 L 223 93.964844 L 218.46875 83.121094 C 218.375 82.871094 218.1875 82.527344 217.9375 82.277344 L 219.65625 82.277344 Z M 217.46875 94.558594 L 217.15625 94.558594 C 217.1875 94.496094 217.21875 94.433594 217.25 94.402344 C 217.28125 94.371094 217.28125 94.339844 217.3125 94.339844 Z M 229.03125 82.277344 L 231.15625 82.277344 C 230.6875 82.777344 230.6875 83.308594 230.6875 83.652344 L 230.6875 93.183594 C 230.6875 93.527344 230.6875 94.058594 231.15625 94.558594 L 228.59375 94.558594 C 229.03125 94.058594 229.03125 93.527344 229.03125 93.183594 Z M 229.03125 82.277344 "/>
<path fill-rule="nonzero" fill="rgb(0%, 0%, 0%)" fill-opacity="1" d="M 235.320312 97.359375 C 235.289062 97.546875 235.195312 97.890625 235.195312 97.921875 C 235.195312 98.234375 235.445312 98.359375 235.664062 98.359375 C 235.914062 98.359375 236.132812 98.203125 236.226562 98.078125 C 236.289062 97.953125 236.382812 97.484375 236.476562 97.203125 C 236.539062 96.953125 236.695312 96.296875 236.757812 95.953125 C 236.851562 95.640625 236.945312 95.328125 237.007812 95.015625 C 237.164062 94.453125 237.195312 94.328125 237.601562 93.765625 C 237.976562 93.203125 238.632812 92.484375 239.695312 92.484375 C 240.476562 92.484375 240.507812 93.203125 240.507812 93.453125 C 240.507812 94.296875 239.914062 95.828125 239.695312 96.421875 C 239.539062 96.828125 239.476562 96.953125 239.476562 97.171875 C 239.476562 97.921875 240.070312 98.359375 240.789062 98.359375 C 242.195312 98.359375 242.789062 96.453125 242.789062 96.234375 C 242.789062 96.046875 242.632812 96.046875 242.570312 96.046875 C 242.382812 96.046875 242.382812 96.140625 242.320312 96.296875 C 242.007812 97.421875 241.382812 97.984375 240.851562 97.984375 C 240.539062 97.984375 240.476562 97.796875 240.476562 97.484375 C 240.476562 97.171875 240.570312 96.984375 240.820312 96.359375 C 240.976562 95.921875 241.539062 94.453125 241.539062 93.671875 C 241.539062 92.328125 240.476562 92.078125 239.726562 92.078125 C 238.570312 92.078125 237.789062 92.796875 237.382812 93.359375 C 237.289062 92.390625 236.476562 92.078125 235.882812 92.078125 C 235.289062 92.078125 234.976562 92.515625 234.789062 92.828125 C 234.476562 93.359375 234.289062 94.140625 234.289062 94.234375 C 234.289062 94.390625 234.476562 94.390625 234.539062 94.390625 C 234.726562 94.390625 234.726562 94.359375 234.820312 93.984375 C 235.039062 93.171875 235.320312 92.484375 235.851562 92.484375 C 236.226562 92.484375 236.320312 92.796875 236.320312 93.171875 C 236.320312 93.421875 236.195312 93.953125 236.070312 94.328125 C 235.976562 94.703125 235.851562 95.265625 235.789062 95.578125 Z M 235.320312 97.359375 "/>
<path fill="none" stroke-width="0.39848" stroke-linecap="butt" stroke-linejoin="miter" stroke="rgb(0%, 0%, 0%)" stroke-opacity="1" stroke-miterlimit="10" d="M -7.864655 17.441126 L 15.248627 17.441126 " transform="matrix(2, 0, 0, -2, 142.533997, 55.976002)"/>
<path fill="none" stroke-width="0.39848" stroke-linecap="round" stroke-linejoin="round" stroke="rgb(0%, 0%, 0%)" stroke-opacity="1" stroke-miterlimit="10" d="M -2.070969 2.38984 C -1.692062 0.956246 -0.848312 0.280465 -0.000656128 -0.000784874 C -0.848312 -0.278129 -1.692062 -0.957816 -2.070969 -2.39141 " transform="matrix(2, 0, 0, -2, 173.431, 21.09218)"/>
<path fill-rule="nonzero" fill="rgb(0%, 0%, 0%)" fill-opacity="1" d="M 121.363281 5.386719 C 121.363281 4.980469 121.019531 4.574219 120.550781 4.574219 C 120.144531 4.574219 119.769531 4.917969 119.769531 5.386719 C 119.769531 5.886719 120.175781 6.199219 120.550781 6.199219 C 121.019531 6.199219 121.363281 5.855469 121.363281 5.386719 Z M 119.238281 7.980469 L 119.238281 8.480469 C 120.113281 8.480469 120.238281 8.574219 120.238281 9.261719 L 120.238281 12.886719 C 120.238281 13.480469 120.113281 13.480469 119.207031 13.480469 L 119.207031 13.980469 C 119.238281 13.980469 120.207031 13.917969 120.769531 13.917969 C 121.269531 13.917969 121.769531 13.949219 122.238281 13.980469 L 122.238281 13.480469 C 121.425781 13.480469 121.300781 13.480469 121.300781 12.886719 L 121.300781 7.824219 Z M 119.238281 7.980469 "/>
<path fill-rule="nonzero" fill="rgb(0%, 0%, 0%)" fill-opacity="1" d="M 127.898438 4.449219 L 127.898438 4.949219 C 128.835938 4.949219 128.929688 5.074219 128.929688 5.730469 L 128.929688 8.636719 C 128.429688 8.136719 127.742188 7.824219 126.992188 7.824219 C 125.117188 7.824219 123.585938 9.230469 123.585938 10.980469 C 123.585938 12.730469 125.054688 14.105469 126.804688 14.105469 C 127.960938 14.105469 128.648438 13.511719 128.867188 13.261719 L 128.867188 14.105469 L 131.023438 13.980469 L 131.023438 13.480469 C 130.085938 13.480469 129.992188 13.386719 129.992188 12.699219 L 129.992188 4.292969 Z M 128.867188 12.511719 C 128.523438 13.167969 127.804688 13.730469 126.898438 13.730469 C 126.117188 13.730469 125.554688 13.261719 125.273438 12.855469 C 124.992188 12.449219 124.835938 11.886719 124.835938 11.011719 C 124.835938 10.667969 124.835938 9.636719 125.398438 8.980469 C 125.960938 8.355469 126.648438 8.230469 127.054688 8.230469 C 127.710938 8.230469 128.335938 8.542969 128.710938 9.042969 C 128.867188 9.261719 128.867188 9.261719 128.867188 9.542969 Z M 128.867188 12.511719 "/>
<path fill-rule="nonzero" fill="rgb(0%, 0%, 0%)" fill-opacity="1" d="M 141.488281 7.449219 C 141.644531 7.292969 141.675781 7.199219 141.675781 7.105469 C 141.675781 6.886719 141.519531 6.761719 141.363281 6.761719 C 141.207031 6.761719 141.175781 6.792969 141.019531 6.980469 L 137.957031 10.011719 L 134.894531 6.949219 C 134.738281 6.824219 134.707031 6.761719 134.582031 6.761719 C 134.363281 6.761719 134.207031 6.917969 134.207031 7.105469 C 134.207031 7.230469 134.269531 7.261719 134.425781 7.449219 L 137.457031 10.480469 L 134.425781 13.511719 C 134.238281 13.730469 134.207031 13.792969 134.207031 13.855469 C 134.207031 14.074219 134.363281 14.230469 134.582031 14.230469 C 134.707031 14.230469 134.738281 14.167969 134.894531 14.011719 L 137.957031 10.980469 L 141.144531 14.136719 C 141.207031 14.199219 141.269531 14.230469 141.363281 14.230469 C 141.519531 14.230469 141.675781 14.105469 141.675781 13.855469 C 141.675781 13.761719 141.675781 13.730469 141.613281 13.699219 C 141.582031 13.636719 138.894531 10.917969 138.457031 10.511719 Z M 141.488281 7.449219 "/>
<path fill-rule="nonzero" fill="rgb(0%, 0%, 0%)" fill-opacity="1" d="M 148.679688 10.511719 C 149.835938 10.011719 150.335938 9.824219 150.679688 9.636719 C 150.960938 9.542969 151.085938 9.480469 151.085938 9.199219 C 151.085938 8.980469 150.898438 8.761719 150.648438 8.761719 C 150.554688 8.761719 150.523438 8.761719 150.367188 8.886719 L 148.460938 10.167969 L 148.679688 8.105469 C 148.710938 7.855469 148.679688 7.511719 148.242188 7.511719 C 148.085938 7.511719 147.804688 7.605469 147.804688 7.917969 C 147.804688 8.042969 147.867188 8.449219 147.898438 8.605469 C 147.929688 8.824219 148.023438 9.855469 148.054688 10.167969 L 146.148438 8.886719 C 146.023438 8.824219 145.992188 8.761719 145.867188 8.761719 C 145.585938 8.761719 145.429688 8.980469 145.429688 9.199219 C 145.429688 9.480469 145.585938 9.574219 145.710938 9.605469 L 147.804688 10.511719 C 146.679688 11.011719 146.148438 11.199219 145.804688 11.355469 C 145.554688 11.480469 145.429688 11.542969 145.429688 11.792969 C 145.429688 12.042969 145.585938 12.230469 145.867188 12.230469 C 145.960938 12.230469 145.992188 12.230469 146.148438 12.105469 L 148.054688 10.855469 L 147.804688 13.074219 C 147.804688 13.386719 148.085938 13.511719 148.242188 13.511719 C 148.429688 13.511719 148.679688 13.386719 148.679688 13.074219 C 148.679688 12.949219 148.617188 12.542969 148.617188 12.417969 C 148.585938 12.167969 148.492188 11.167969 148.460938 10.855469 L 150.117188 11.949219 C 150.492188 12.230469 150.523438 12.230469 150.648438 12.230469 C 150.898438 12.230469 151.085938 12.042969 151.085938 11.792969 C 151.085938 11.511719 150.898438 11.449219 150.773438 11.386719 Z M 148.679688 10.511719 "/>
<path fill-rule="nonzero" fill="rgb(0%, 0%, 0%)" fill-opacity="1" d="M 155.292969 10.304688 C 155.511719 10.023438 155.980469 9.648438 156.886719 9.648438 C 157.636719 9.648438 158.792969 10.023438 158.792969 11.617188 C 158.792969 12.085938 158.699219 12.585938 158.574219 13.023438 C 158.449219 12.554688 157.949219 11.835938 156.792969 11.835938 C 156.074219 11.835938 155.324219 11.960938 154.355469 12.742188 C 153.449219 13.492188 153.386719 14.429688 153.386719 14.710938 C 153.386719 15.210938 153.605469 15.648438 154.074219 16.054688 C 154.574219 16.523438 155.167969 16.617188 155.792969 16.617188 C 158.761719 16.617188 159.761719 13.304688 159.761719 12.054688 C 159.761719 10.429688 158.574219 9.273438 156.886719 9.273438 C 155.042969 9.273438 154.605469 10.585938 154.605469 10.929688 C 154.605469 11.148438 154.761719 11.335938 155.011719 11.335938 C 155.386719 11.335938 155.636719 11.023438 155.636719 10.710938 C 155.636719 10.367188 155.292969 10.304688 155.292969 10.304688 Z M 155.824219 16.210938 C 154.699219 16.210938 154.355469 15.585938 154.355469 15.023438 C 154.355469 14.898438 154.480469 13.554688 155.136719 12.867188 C 155.824219 12.148438 156.605469 12.148438 156.855469 12.148438 C 157.917969 12.148438 158.386719 12.867188 158.386719 13.554688 C 158.386719 14.054688 157.824219 16.210938 155.824219 16.210938 Z M 155.824219 16.210938 "/>
<path fill-rule="nonzero" fill="rgb(0%, 0%, 0%)" fill-opacity="1" d="M 166.382812 9.492188 C 166.257812 9.304688 166.195312 9.273438 165.976562 9.273438 C 165.757812 9.273438 165.695312 9.304688 165.570312 9.492188 L 161.476562 16.148438 C 161.382812 16.242188 161.382812 16.273438 161.382812 16.273438 C 161.382812 16.398438 161.476562 16.398438 161.632812 16.398438 L 170.289062 16.398438 C 170.445312 16.398438 170.539062 16.398438 170.539062 16.273438 C 170.539062 16.273438 170.539062 16.242188 170.476562 16.148438 Z M 165.601562 10.273438 L 168.820312 15.492188 L 162.382812 15.492188 Z M 165.601562 10.273438 "/>
<path fill-rule="nonzero" fill="rgb(0%, 0%, 0%)" fill-opacity="1" d="M 173.378906 12.5 C 173.316406 12.75 173.222656 13.1875 173.222656 13.21875 C 173.222656 13.4375 173.410156 13.59375 173.597656 13.59375 C 173.722656 13.59375 173.941406 13.5 174.066406 13.25 C 174.066406 13.1875 174.191406 12.71875 174.253906 12.46875 C 174.597656 11.125 174.597656 11.09375 174.597656 11.0625 C 174.753906 10.8125 175.472656 9.40625 176.660156 9.40625 C 177.160156 9.40625 177.378906 9.65625 177.378906 10.125 C 177.378906 10.6875 176.941406 11.71875 176.722656 12.28125 C 176.660156 12.40625 176.628906 12.53125 176.628906 12.6875 C 176.628906 13.21875 177.128906 13.59375 177.722656 13.59375 C 178.785156 13.59375 179.316406 12.28125 179.316406 12.03125 C 179.316406 11.90625 179.160156 11.90625 179.128906 11.90625 C 178.941406 11.90625 178.941406 11.9375 178.878906 12.125 C 178.691406 12.71875 178.222656 13.25 177.753906 13.25 C 177.535156 13.25 177.441406 13.09375 177.441406 12.875 C 177.441406 12.65625 177.503906 12.5625 177.597656 12.34375 C 177.753906 11.9375 178.222656 10.8125 178.222656 10.25 C 178.222656 9.5 177.691406 9.0625 176.722656 9.0625 C 175.816406 9.0625 175.191406 9.625 174.847656 10.0625 C 174.816406 9.21875 174.003906 9.0625 173.628906 9.0625 C 172.628906 9.0625 172.347656 10.59375 172.347656 10.59375 C 172.347656 10.75 172.503906 10.75 172.566406 10.75 C 172.722656 10.75 172.753906 10.6875 172.785156 10.5625 C 172.941406 9.96875 173.160156 9.40625 173.597656 9.40625 C 173.910156 9.40625 174.003906 9.71875 174.003906 9.9375 C 174.003906 10.0625 173.878906 10.4375 173.847656 10.71875 C 173.753906 10.96875 173.660156 11.375 173.628906 11.59375 Z M 173.378906 12.5 "/>
<path fill="none" stroke-width="0.39848" stroke-linecap="butt" stroke-linejoin="miter" stroke="rgb(0%, 0%, 0%)" stroke-opacity="1" stroke-miterlimit="10" d="M -39.665436 8.613001 L -39.665436 -8.578405 " transform="matrix(2, 0, 0, -2, 142.533997, 55.976002)"/>
<path fill="none" stroke-width="0.39848" stroke-linecap="round" stroke-linejoin="round" stroke="rgb(0%, 0%, 0%)" stroke-opacity="1" stroke-miterlimit="10" d="M -2.071907 2.390978 C -1.693001 0.957384 -0.849251 0.277697 -0.00159454 0.000352859 C -0.849251 -0.276991 -1.693001 -0.956678 -2.071907 -2.390272 " transform="matrix(0, 2, 2, 0, 63.202419, 73.534439)"/>
<path fill-rule="nonzero" fill="rgb(0%, 0%, 0%)" fill-opacity="1" d="M 47.964844 53.039062 C 47.683594 52.570312 47.214844 52.195312 46.527344 52.195312 C 44.746094 52.195312 42.933594 54.164062 42.933594 56.164062 C 42.933594 57.539062 43.839844 58.476562 45.058594 58.476562 C 45.808594 58.476562 46.464844 58.070312 47.027344 57.507812 C 47.277344 58.351562 48.089844 58.476562 48.464844 58.476562 C 48.964844 58.476562 49.308594 58.195312 49.558594 57.757812 C 49.871094 57.195312 50.058594 56.414062 50.058594 56.351562 C 50.058594 56.164062 49.871094 56.164062 49.839844 56.164062 C 49.621094 56.164062 49.621094 56.226562 49.527344 56.601562 C 49.339844 57.289062 49.089844 58.101562 48.496094 58.101562 C 48.152344 58.101562 48.027344 57.789062 48.027344 57.414062 C 48.027344 57.195312 48.152344 56.664062 48.246094 56.320312 C 48.339844 55.945312 48.496094 55.382812 48.558594 55.070312 L 48.839844 54.007812 C 48.933594 53.632812 49.089844 52.976562 49.089844 52.914062 C 49.089844 52.601562 48.839844 52.476562 48.621094 52.476562 C 48.371094 52.476562 48.058594 52.632812 47.964844 53.039062 Z M 47.089844 56.601562 C 46.996094 57.007812 46.683594 57.289062 46.371094 57.539062 C 46.246094 57.664062 45.683594 58.101562 45.089844 58.101562 C 44.558594 58.101562 44.058594 57.726562 44.058594 56.757812 C 44.058594 56.007812 44.464844 54.476562 44.808594 53.914062 C 45.433594 52.789062 46.152344 52.601562 46.527344 52.601562 C 47.496094 52.601562 47.777344 53.664062 47.777344 53.820312 C 47.777344 53.851562 47.746094 53.976562 47.746094 54.007812 Z M 47.089844 56.601562 "/>
<path fill-rule="nonzero" fill="rgb(0%, 0%, 0%)" fill-opacity="1" d="M 54.703125 54 C 54.703125 53.71875 54.671875 53.71875 54.328125 53.71875 C 53.640625 54.34375 52.515625 54.34375 52.328125 54.34375 L 52.171875 54.34375 L 52.171875 54.78125 L 52.328125 54.78125 C 52.546875 54.78125 53.203125 54.75 53.796875 54.5 L 53.796875 59.5 C 53.796875 59.78125 53.796875 59.90625 52.734375 59.90625 L 52.234375 59.90625 L 52.234375 60.34375 C 52.765625 60.3125 53.671875 60.3125 54.234375 60.3125 C 54.828125 60.3125 55.703125 60.3125 56.265625 60.34375 L 56.265625 59.90625 L 55.765625 59.90625 C 54.703125 59.90625 54.703125 59.78125 54.703125 59.5 Z M 54.703125 54 "/>
<path fill="none" stroke-width="0.39848" stroke-linecap="butt" stroke-linejoin="miter" stroke="rgb(0%, 0%, 0%)" stroke-opacity="1" stroke-miterlimit="10" d="M 43.55722 9.609095 L 43.55722 -8.523718 " transform="matrix(2, 0, 0, -2, 142.533997, 55.976002)"/>
<path fill="none" stroke-width="0.39848" stroke-linecap="round" stroke-linejoin="round" stroke="rgb(0%, 0%, 0%)" stroke-opacity="1" stroke-miterlimit="10" d="M -2.071236 2.390343 C -1.692329 0.956749 -0.848579 0.277061 -0.000923157 -0.000282288 C -0.848579 -0.277626 -1.692329 -0.957314 -2.071236 -2.390907 " transform="matrix(0, 2, 2, 0, 229.649002, 73.423721)"/>
<path fill-rule="nonzero" fill="rgb(0%, 0%, 0%)" fill-opacity="1" d="M 239.46875 49.601562 C 239.375 49.351562 239.34375 49.289062 239.1875 49.289062 C 239.03125 49.289062 238.96875 49.414062 238.875 49.570312 L 235.71875 57.914062 C 235.53125 58.351562 235.25 58.570312 234.875 58.601562 C 234.8125 58.601562 234.59375 58.632812 234.59375 58.851562 C 234.59375 59.101562 234.8125 59.101562 235.0625 59.101562 L 237.28125 59.101562 C 237.53125 59.101562 237.75 59.101562 237.75 58.851562 C 237.75 58.632812 237.5625 58.632812 237.4375 58.601562 C 237.25 58.601562 236.90625 58.539062 236.90625 57.695312 C 236.90625 57.257812 237 56.789062 237.09375 56.351562 L 240.15625 56.351562 C 240.65625 57.726562 240.65625 57.945312 240.6875 58.226562 C 240.34375 58.570312 239.96875 58.601562 239.8125 58.601562 C 239.65625 58.632812 239.5625 58.726562 239.5625 58.851562 C 239.5625 59.101562 239.78125 59.101562 240.03125 59.101562 L 243.65625 59.101562 C 243.90625 59.101562 244.15625 59.101562 244.15625 58.851562 C 244.15625 58.664062 243.96875 58.632812 243.84375 58.601562 C 243.53125 58.570312 243.28125 58.320312 243 57.695312 Z M 237.25 55.882812 C 237.5625 54.632812 238 53.445312 238.46875 52.289062 C 238.90625 53.226562 239.75 55.226562 239.96875 55.882812 Z M 236.40625 57.414062 L 236.4375 57.445312 L 236.4375 57.570312 C 236.40625 57.601562 236.40625 57.632812 236.40625 57.695312 C 236.40625 57.757812 236.40625 58.289062 236.625 58.601562 L 235.875 58.601562 C 236.03125 58.414062 236.09375 58.257812 236.1875 58.039062 Z M 238.6875 51.539062 L 239.1875 50.195312 L 242.5625 57.882812 C 242.625 58.039062 242.78125 58.351562 242.96875 58.601562 L 241 58.601562 C 241.125 58.539062 241.1875 58.320312 241.1875 58.164062 C 241.1875 57.320312 239.96875 54.476562 239.375 53.101562 Z M 238.6875 51.539062 "/>
<path fill-rule="nonzero" fill="rgb(0%, 0%, 0%)" fill-opacity="1" d="M 246.351562 60.125 C 246.289062 60.375 246.195312 60.8125 246.195312 60.84375 C 246.195312 61.0625 246.382812 61.21875 246.570312 61.21875 C 246.695312 61.21875 246.914062 61.125 247.039062 60.875 C 247.039062 60.8125 247.164062 60.34375 247.226562 60.09375 C 247.570312 58.75 247.570312 58.71875 247.570312 58.6875 C 247.726562 58.4375 248.445312 57.03125 249.632812 57.03125 C 250.132812 57.03125 250.351562 57.28125 250.351562 57.75 C 250.351562 58.3125 249.914062 59.34375 249.695312 59.90625 C 249.632812 60.03125 249.601562 60.15625 249.601562 60.3125 C 249.601562 60.84375 250.101562 61.21875 250.695312 61.21875 C 251.757812 61.21875 252.289062 59.90625 252.289062 59.65625 C 252.289062 59.53125 252.132812 59.53125 252.101562 59.53125 C 251.914062 59.53125 251.914062 59.5625 251.851562 59.75 C 251.664062 60.34375 251.195312 60.875 250.726562 60.875 C 250.507812 60.875 250.414062 60.71875 250.414062 60.5 C 250.414062 60.28125 250.476562 60.1875 250.570312 59.96875 C 250.726562 59.5625 251.195312 58.4375 251.195312 57.875 C 251.195312 57.125 250.664062 56.6875 249.695312 56.6875 C 248.789062 56.6875 248.164062 57.25 247.820312 57.6875 C 247.789062 56.84375 246.976562 56.6875 246.601562 56.6875 C 245.601562 56.6875 245.320312 58.21875 245.320312 58.21875 C 245.320312 58.375 245.476562 58.375 245.539062 58.375 C 245.695312 58.375 245.726562 58.3125 245.757812 58.1875 C 245.914062 57.59375 246.132812 57.03125 246.570312 57.03125 C 246.882812 57.03125 246.976562 57.34375 246.976562 57.5625 C 246.976562 57.6875 246.851562 58.0625 246.820312 58.34375 C 246.726562 58.59375 246.632812 59 246.601562 59.21875 Z M 246.351562 60.125 "/>
<path fill="none" stroke-width="0.39848" stroke-linecap="butt" stroke-linejoin="miter" stroke="rgb(0%, 0%, 0%)" stroke-opacity="1" stroke-miterlimit="10" d="M -24.513092 -17.144812 L 31.248627 -17.144812 " transform="matrix(2, 0, 0, -2, 142.533997, 55.976002)"/>
<path fill="none" stroke-width="0.39848" stroke-linecap="round" stroke-linejoin="round" stroke="rgb(0%, 0%, 0%)" stroke-opacity="1" stroke-miterlimit="10" d="M -2.071342 2.390591 C -1.692436 0.956997 -0.848686 0.277309 -0.00102997 -0.0000343323 C -0.848686 -0.277378 -1.692436 -0.957066 -2.071342 -2.390659 " transform="matrix(2, 0, 0, -2, 205.431747, 90.265556)"/>
<path fill-rule="nonzero" fill="rgb(0%, 0%, 0%)" fill-opacity="1" d="M 134.601562 97.980469 C 135.757812 97.480469 136.257812 97.292969 136.601562 97.105469 C 136.882812 97.011719 137.007812 96.949219 137.007812 96.667969 C 137.007812 96.449219 136.820312 96.230469 136.570312 96.230469 C 136.476562 96.230469 136.445312 96.230469 136.289062 96.355469 L 134.382812 97.636719 L 134.601562 95.574219 C 134.632812 95.324219 134.601562 94.980469 134.164062 94.980469 C 134.007812 94.980469 133.726562 95.074219 133.726562 95.386719 C 133.726562 95.511719 133.789062 95.917969 133.820312 96.074219 C 133.851562 96.292969 133.945312 97.324219 133.976562 97.636719 L 132.070312 96.355469 C 131.945312 96.292969 131.914062 96.230469 131.789062 96.230469 C 131.507812 96.230469 131.351562 96.449219 131.351562 96.667969 C 131.351562 96.949219 131.507812 97.042969 131.632812 97.074219 L 133.726562 97.980469 C 132.601562 98.480469 132.070312 98.667969 131.726562 98.824219 C 131.476562 98.949219 131.351562 99.011719 131.351562 99.261719 C 131.351562 99.511719 131.507812 99.699219 131.789062 99.699219 C 131.882812 99.699219 131.914062 99.699219 132.070312 99.574219 L 133.976562 98.324219 L 133.726562 100.542969 C 133.726562 100.855469 134.007812 100.980469 134.164062 100.980469 C 134.351562 100.980469 134.601562 100.855469 134.601562 100.542969 C 134.601562 100.417969 134.539062 100.011719 134.539062 99.886719 C 134.507812 99.636719 134.414062 98.636719 134.382812 98.324219 L 136.039062 99.417969 C 136.414062 99.699219 136.445312 99.699219 136.570312 99.699219 C 136.820312 99.699219 137.007812 99.511719 137.007812 99.261719 C 137.007812 98.980469 136.820312 98.917969 136.695312 98.855469 Z M 134.601562 97.980469 "/>
<path fill-rule="nonzero" fill="rgb(0%, 0%, 0%)" fill-opacity="1" d="M 142.921875 101.414062 L 141.015625 96.882812 C 140.921875 96.664062 140.921875 96.664062 140.640625 96.664062 L 138.796875 96.664062 C 138.609375 96.664062 138.453125 96.664062 138.453125 96.851562 C 138.453125 97.039062 138.640625 97.039062 138.703125 97.039062 C 138.828125 97.039062 139.078125 97.039062 139.296875 97.132812 L 139.296875 102.445312 C 139.296875 102.664062 139.296875 103.101562 138.609375 103.164062 C 138.421875 103.164062 138.421875 103.320312 138.421875 103.320312 C 138.421875 103.507812 138.609375 103.507812 138.765625 103.507812 L 140.328125 103.507812 C 140.484375 103.507812 140.640625 103.507812 140.640625 103.320312 C 140.640625 103.226562 140.578125 103.164062 140.484375 103.164062 C 139.734375 103.101562 139.734375 102.695312 139.734375 102.445312 L 139.734375 97.476562 L 142.171875 103.289062 C 142.234375 103.476562 142.328125 103.507812 142.359375 103.507812 C 142.484375 103.507812 142.515625 103.414062 142.578125 103.320312 L 145.015625 97.476562 L 145.015625 102.445312 C 145.015625 102.664062 145.015625 103.101562 144.359375 103.164062 C 144.171875 103.164062 144.171875 103.320312 144.171875 103.320312 C 144.171875 103.507812 144.328125 103.507812 144.484375 103.507812 L 147.171875 103.507812 C 147.328125 103.507812 147.484375 103.507812 147.484375 103.320312 C 147.484375 103.226562 147.421875 103.164062 147.328125 103.164062 C 146.546875 103.101562 146.546875 102.695312 146.546875 102.445312 L 146.546875 97.726562 C 146.546875 97.539062 146.546875 97.101562 147.234375 97.039062 C 147.328125 97.007812 147.421875 96.976562 147.421875 96.851562 C 147.421875 96.664062 147.265625 96.664062 147.109375 96.664062 L 145.171875 96.664062 C 144.921875 96.664062 144.890625 96.664062 144.796875 96.882812 Z M 142.609375 101.601562 C 142.703125 101.757812 142.703125 101.757812 142.828125 101.820312 L 142.390625 102.882812 L 142.359375 102.882812 L 140.078125 97.445312 C 140.046875 97.320312 139.953125 97.132812 139.828125 97.039062 L 140.703125 97.039062 Z M 139.609375 103.164062 L 139.421875 103.164062 C 139.453125 103.132812 139.484375 103.101562 139.484375 103.070312 C 139.515625 103.070312 139.515625 103.070312 139.515625 103.039062 Z M 145.359375 97.039062 L 146.421875 97.039062 C 146.203125 97.289062 146.203125 97.539062 146.203125 97.726562 L 146.203125 102.476562 C 146.203125 102.664062 146.203125 102.914062 146.453125 103.164062 L 145.140625 103.164062 C 145.359375 102.914062 145.359375 102.664062 145.359375 102.476562 Z M 145.359375 97.039062 "/>
<path fill-rule="nonzero" fill="rgb(0%, 0%, 0%)" fill-opacity="1" d="M 156.640625 100.648438 C 156.765625 100.585938 156.859375 100.492188 156.859375 100.367188 C 156.859375 100.210938 156.734375 100.085938 156.609375 100.085938 C 156.546875 100.085938 156.484375 100.085938 156.390625 100.148438 L 149.484375 103.273438 C 149.359375 103.335938 149.265625 103.429688 149.265625 103.585938 C 149.265625 103.710938 149.359375 103.804688 149.484375 103.867188 L 156.359375 106.992188 C 156.515625 107.085938 156.578125 107.085938 156.609375 107.085938 C 156.734375 107.085938 156.859375 106.929688 156.859375 106.804688 C 156.859375 106.648438 156.765625 106.554688 156.609375 106.492188 L 150.203125 103.585938 Z M 156.453125 109.429688 C 156.609375 109.429688 156.859375 109.429688 156.859375 109.148438 C 156.859375 108.867188 156.609375 108.867188 156.453125 108.867188 L 149.703125 108.867188 C 149.546875 108.867188 149.265625 108.867188 149.265625 109.148438 C 149.265625 109.429688 149.546875 109.429688 149.703125 109.429688 Z M 156.453125 109.429688 "/>
<path fill-rule="nonzero" fill="rgb(0%, 0%, 0%)" fill-opacity="1" d="M 160.402344 106.273438 C 160.339844 106.523438 160.246094 106.960938 160.246094 106.992188 C 160.246094 107.210938 160.433594 107.367188 160.621094 107.367188 C 160.746094 107.367188 160.964844 107.273438 161.089844 107.023438 C 161.089844 106.960938 161.214844 106.492188 161.277344 106.242188 C 161.621094 104.898438 161.621094 104.867188 161.621094 104.835938 C 161.777344 104.585938 162.496094 103.179688 163.683594 103.179688 C 164.183594 103.179688 164.402344 103.429688 164.402344 103.898438 C 164.402344 104.460938 163.964844 105.492188 163.746094 106.054688 C 163.683594 106.179688 163.652344 106.304688 163.652344 106.460938 C 163.652344 106.992188 164.152344 107.367188 164.746094 107.367188 C 165.808594 107.367188 166.339844 106.054688 166.339844 105.804688 C 166.339844 105.679688 166.183594 105.679688 166.152344 105.679688 C 165.964844 105.679688 165.964844 105.710938 165.902344 105.898438 C 165.714844 106.492188 165.246094 107.023438 164.777344 107.023438 C 164.558594 107.023438 164.464844 106.867188 164.464844 106.648438 C 164.464844 106.429688 164.527344 106.335938 164.621094 106.117188 C 164.777344 105.710938 165.246094 104.585938 165.246094 104.023438 C 165.246094 103.273438 164.714844 102.835938 163.746094 102.835938 C 162.839844 102.835938 162.214844 103.398438 161.871094 103.835938 C 161.839844 102.992188 161.027344 102.835938 160.652344 102.835938 C 159.652344 102.835938 159.371094 104.367188 159.371094 104.367188 C 159.371094 104.523438 159.527344 104.523438 159.589844 104.523438 C 159.746094 104.523438 159.777344 104.460938 159.808594 104.335938 C 159.964844 103.742188 160.183594 103.179688 160.621094 103.179688 C 160.933594 103.179688 161.027344 103.492188 161.027344 103.710938 C 161.027344 103.835938 160.902344 104.210938 160.871094 104.492188 C 160.777344 104.742188 160.683594 105.148438 160.652344 105.367188 Z M 160.402344 106.273438 "/>
</svg>
