<?xml version="1.0" encoding="UTF-8"?>
<svg xmlns="http://www.w3.org/2000/svg" xmlns:xlink="http://www.w3.org/1999/xlink" width="265.440002" height="111.580002" viewBox="0 0 265.440002 111.580002">
<path fill-rule="nonzero" fill="rgb(0%, 0%, 0%)" fill-opacity="1" d="M 23.492188 15.421875 L 23.929688 14.765625 L 21.335938 24.671875 C 21.210938 25.140625 21.117188 25.484375 20.960938 25.765625 C 20.804688 26.234375 20.398438 26.734375 19.960938 26.921875 C 19.742188 27.015625 19.429688 27.078125 19.117188 27.078125 L 19.023438 27.359375 L 24.773438 27.359375 L 24.867188 27.078125 C 24.242188 27.078125 23.742188 27.015625 23.492188 26.828125 C 23.210938 26.609375 23.148438 26.171875 23.148438 25.765625 C 23.148438 25.453125 23.210938 25.015625 23.367188 24.484375 L 25.335938 17.015625 C 25.492188 16.390625 25.617188 15.890625 25.742188 15.515625 C 25.960938 14.921875 26.398438 14.265625 26.835938 13.953125 C 27.054688 13.828125 27.335938 13.796875 27.679688 13.796875 L 27.773438 13.515625 L 24.179688 13.515625 L 17.492188 24.234375 L 17.210938 24.234375 L 15.929688 13.515625 L 11.648438 13.515625 L 11.554688 13.796875 C 12.179688 13.796875 12.585938 13.796875 12.804688 13.921875 C 13.085938 14.046875 13.429688 14.546875 13.429688 14.921875 C 13.429688 15.234375 13.367188 15.734375 13.179688 16.390625 L 10.992188 24.671875 C 10.835938 25.296875 10.335938 25.984375 9.867188 26.390625 C 9.429688 26.796875 8.742188 27.078125 8.179688 27.078125 L 8.117188 27.359375 L 13.085938 27.359375 L 13.179688 27.078125 C 12.710938 27.046875 12.179688 26.953125 11.960938 26.640625 C 11.742188 26.328125 11.429688 25.796875 11.429688 25.296875 C 11.429688 25.015625 11.429688 24.734375 11.492188 24.484375 L 13.898438 15.421875 L 14.023438 14.984375 L 15.492188 27.359375 L 16.085938 27.359375 Z M 23.492188 15.421875 "/>
<path fill-rule="nonzero" fill="rgb(0%, 0%, 0%)" fill-opacity="1" d="M 31.519531 30.472656 C 32.800781 30.472656 33.425781 29.253906 33.800781 28.566406 L 33.582031 28.441406 C 33.269531 28.878906 32.707031 29.878906 32.269531 29.878906 C 32.050781 29.878906 32.050781 29.503906 32.050781 29.378906 C 32.050781 29.222656 32.113281 28.972656 32.238281 28.597656 C 32.332031 28.253906 32.457031 27.847656 32.644531 27.285156 C 32.863281 26.503906 33.113281 25.472656 33.113281 24.941406 C 33.113281 24.316406 32.894531 24.003906 32.238281 24.003906 C 31.144531 24.003906 30.300781 24.910156 29.738281 25.910156 L 29.707031 25.847656 C 29.800781 25.566406 29.832031 25.347656 29.832031 24.941406 C 29.832031 24.347656 29.738281 24.003906 29.144531 24.003906 C 27.800781 24.003906 27.425781 25.253906 27.050781 26.378906 L 27.363281 26.441406 C 27.519531 25.878906 28.050781 24.347656 28.707031 24.347656 C 28.832031 24.347656 28.988281 24.472656 28.988281 24.691406 C 28.988281 24.972656 28.894531 25.503906 28.800781 25.785156 C 28.613281 26.410156 28.488281 26.972656 28.238281 27.660156 L 27.363281 30.347656 L 28.332031 30.347656 L 29.175781 27.847656 C 29.488281 27.066406 29.988281 25.941406 30.488281 25.316406 C 30.800781 24.941406 31.363281 24.316406 31.863281 24.316406 C 32.050781 24.316406 32.175781 24.472656 32.175781 24.753906 C 32.175781 24.816406 32.144531 25.066406 32.144531 25.128906 C 32.050781 25.628906 31.925781 26.003906 31.800781 26.441406 C 31.488281 27.503906 31.332031 28.222656 31.019531 29.191406 C 31.019531 29.316406 30.957031 29.441406 30.957031 29.535156 C 30.957031 30.035156 31.050781 30.472656 31.519531 30.472656 Z M 31.519531 30.472656 "/>
<path fill-rule="nonzero" fill="rgb(0%, 0%, 0%)" fill-opacity="1" d="M 51.777344 26.671875 L 47.339844 22.234375 L 51.777344 17.796875 L 50.996094 16.984375 L 46.558594 21.453125 L 42.121094 16.984375 L 41.339844 17.796875 L 45.746094 22.234375 L 41.339844 26.671875 L 42.121094 27.453125 L 46.558594 23.015625 L 50.996094 27.453125 Z M 51.777344 26.671875 "/>
<path fill-rule="nonzero" fill="rgb(0%, 0%, 0%)" fill-opacity="1" d="M 67.546875 18.765625 C 67.546875 15.890625 66.671875 13.578125 64.515625 13.578125 C 62.828125 13.578125 61.015625 15.171875 61.015625 16.046875 C 61.015625 16.703125 61.546875 16.984375 61.953125 16.984375 C 62.359375 16.984375 62.609375 16.640625 62.671875 16.578125 C 62.609375 16.546875 62.484375 16.359375 62.484375 16.078125 C 62.484375 15.890625 62.828125 14.171875 64.546875 14.171875 C 65.984375 14.171875 66.296875 16.015625 66.296875 17.640625 C 66.296875 18.859375 66.140625 19.921875 66.140625 19.953125 L 66.109375 19.953125 C 66.109375 19.921875 65.328125 18.703125 63.765625 18.703125 C 59.765625 18.703125 58.109375 22.578125 58.109375 24.640625 C 58.109375 26.484375 59.203125 27.671875 61.421875 27.671875 C 64.859375 27.671875 67.546875 24.203125 67.546875 18.765625 Z M 65.265625 21.015625 C 65.265625 21.546875 64.765625 27.203125 61.546875 27.203125 C 60.421875 27.203125 59.921875 26.546875 59.921875 25.296875 C 59.921875 24.015625 60.734375 19.171875 63.609375 19.171875 C 64.734375 19.171875 65.265625 19.828125 65.265625 21.015625 Z M 65.265625 21.015625 "/>
<path fill-rule="nonzero" fill="rgb(0%, 0%, 0%)" fill-opacity="1" d="M 72.941406 23.640625 L 73.722656 20.859375 L 75.003906 20.859375 C 77.722656 20.859375 80.003906 20.015625 81.003906 18.328125 C 81.347656 17.796875 81.503906 17.234375 81.503906 16.578125 C 81.503906 15.609375 81.066406 14.890625 80.191406 14.328125 C 79.347656 13.796875 78.128906 13.515625 76.597656 13.515625 L 71.597656 13.515625 L 71.503906 13.796875 C 71.878906 13.796875 72.160156 13.828125 72.410156 13.859375 C 72.972656 13.953125 73.253906 14.578125 73.253906 15.203125 C 73.253906 15.546875 73.191406 15.984375 73.035156 16.546875 L 70.878906 24.484375 C 70.691406 25.234375 70.378906 26.140625 70.003906 26.515625 C 69.660156 26.828125 69.097656 27.078125 68.535156 27.078125 L 68.441406 27.359375 L 74.410156 27.359375 L 74.503906 27.078125 C 73.128906 27.078125 72.535156 26.328125 72.535156 25.609375 C 72.535156 25.453125 72.597656 25.078125 72.691406 24.734375 C 72.753906 24.421875 72.816406 24.046875 72.941406 23.640625 Z M 73.816406 20.453125 L 75.066406 15.609375 C 75.285156 14.953125 75.441406 14.171875 76.035156 13.953125 C 76.160156 13.921875 76.378906 13.921875 76.597656 13.921875 C 78.535156 13.921875 79.503906 15.046875 79.503906 16.484375 C 79.503906 17.015625 79.378906 17.484375 79.160156 17.890625 C 78.378906 19.203125 76.753906 20.453125 74.722656 20.453125 Z M 73.816406 20.453125 "/>
<path fill-rule="nonzero" fill="rgb(0%, 0%, 0%)" fill-opacity="1" d="M 89.550781 13.078125 C 86.675781 14.953125 84.644531 18.171875 84.644531 22.234375 C 84.644531 25.953125 86.738281 29.703125 89.488281 31.390625 L 89.738281 31.078125 C 87.113281 28.984375 86.332031 26.578125 86.332031 22.171875 C 86.332031 17.734375 87.175781 15.453125 89.738281 13.390625 Z M 89.550781 13.078125 "/>
<path fill-rule="nonzero" fill="rgb(0%, 0%, 0%)" fill-opacity="1" d="M 97.683594 27.515625 C 99.464844 27.515625 100.308594 25.859375 100.839844 24.921875 L 100.527344 24.734375 C 100.089844 25.359375 99.339844 26.703125 98.714844 26.703125 C 98.402344 26.703125 98.433594 26.171875 98.433594 26.015625 C 98.433594 25.796875 98.496094 25.453125 98.652344 24.953125 C 98.839844 24.453125 98.996094 23.921875 99.214844 23.140625 C 99.527344 22.078125 99.902344 20.671875 99.902344 19.953125 C 99.902344 19.109375 99.558594 18.671875 98.683594 18.671875 C 97.183594 18.671875 96.027344 19.890625 95.246094 21.265625 L 95.183594 21.203125 C 95.339844 20.765625 95.402344 20.515625 95.402344 19.953125 C 95.402344 19.140625 95.246094 18.671875 94.464844 18.671875 C 92.589844 18.671875 92.089844 20.390625 91.558594 21.890625 L 91.996094 22.015625 C 92.214844 21.234375 92.933594 19.140625 93.839844 19.140625 C 94.027344 19.140625 94.214844 19.296875 94.214844 19.578125 C 94.214844 19.984375 94.089844 20.734375 93.964844 21.109375 C 93.714844 21.921875 93.527344 22.703125 93.214844 23.671875 L 91.996094 27.359375 L 93.308594 27.359375 L 94.464844 23.921875 C 94.902344 22.859375 95.621094 21.328125 96.277344 20.453125 C 96.683594 19.921875 97.496094 19.109375 98.152344 19.109375 C 98.433594 19.109375 98.589844 19.296875 98.589844 19.703125 C 98.589844 19.796875 98.558594 20.109375 98.558594 20.203125 C 98.433594 20.890625 98.246094 21.421875 98.089844 21.984375 C 97.683594 23.453125 97.433594 24.453125 97.027344 25.796875 C 96.996094 25.921875 96.933594 26.109375 96.933594 26.234375 C 96.933594 26.921875 97.058594 27.515625 97.683594 27.515625 Z M 97.683594 27.515625 "/>
<path fill-rule="nonzero" fill="rgb(0%, 0%, 0%)" fill-opacity="1" d="M 102.917969 13.078125 L 102.761719 13.390625 C 105.324219 15.453125 106.136719 17.734375 106.136719 22.171875 C 106.136719 26.578125 105.386719 28.984375 102.761719 31.078125 L 102.980469 31.390625 C 105.730469 29.703125 107.855469 25.953125 107.855469 22.234375 C 107.855469 18.171875 105.824219 14.953125 102.917969 13.078125 Z M 102.917969 13.078125 "/>
<path fill-rule="nonzero" fill="rgb(0%, 0%, 0%)" fill-opacity="1" d="M 189.699219 15.421875 L 190.136719 14.765625 L 187.542969 24.671875 C 187.417969 25.140625 187.324219 25.484375 187.167969 25.765625 C 187.011719 26.234375 186.605469 26.734375 186.167969 26.921875 C 185.949219 27.015625 185.636719 27.078125 185.324219 27.078125 L 185.230469 27.359375 L 190.980469 27.359375 L 191.074219 27.078125 C 190.449219 27.078125 189.949219 27.015625 189.699219 26.828125 C 189.417969 26.609375 189.355469 26.171875 189.355469 25.765625 C 189.355469 25.453125 189.417969 25.015625 189.574219 24.484375 L 191.542969 17.015625 C 191.699219 16.390625 191.824219 15.890625 191.949219 15.515625 C 192.167969 14.921875 192.605469 14.265625 193.042969 13.953125 C 193.261719 13.828125 193.542969 13.796875 193.886719 13.796875 L 193.980469 13.515625 L 190.386719 13.515625 L 183.699219 24.234375 L 183.417969 24.234375 L 182.136719 13.515625 L 177.855469 13.515625 L 177.761719 13.796875 C 178.386719 13.796875 178.792969 13.796875 179.011719 13.921875 C 179.292969 14.046875 179.636719 14.546875 179.636719 14.921875 C 179.636719 15.234375 179.574219 15.734375 179.386719 16.390625 L 177.199219 24.671875 C 177.042969 25.296875 176.542969 25.984375 176.074219 26.390625 C 175.636719 26.796875 174.949219 27.078125 174.386719 27.078125 L 174.324219 27.359375 L 179.292969 27.359375 L 179.386719 27.078125 C 178.917969 27.046875 178.386719 26.953125 178.167969 26.640625 C 177.949219 26.328125 177.636719 25.796875 177.636719 25.296875 C 177.636719 25.015625 177.636719 24.734375 177.699219 24.484375 L 180.105469 15.421875 L 180.230469 14.984375 L 181.699219 27.359375 L 182.292969 27.359375 Z M 189.699219 15.421875 "/>
<path fill-rule="nonzero" fill="rgb(0%, 0%, 0%)" fill-opacity="1" d="M 197.726562 30.472656 C 199.007812 30.472656 199.632812 29.253906 200.007812 28.566406 L 199.789062 28.441406 C 199.476562 28.878906 198.914062 29.878906 198.476562 29.878906 C 198.257812 29.878906 198.257812 29.503906 198.257812 29.378906 C 198.257812 29.222656 198.320312 28.972656 198.445312 28.597656 C 198.539062 28.253906 198.664062 27.847656 198.851562 27.285156 C 199.070312 26.503906 199.320312 25.472656 199.320312 24.941406 C 199.320312 24.316406 199.101562 24.003906 198.445312 24.003906 C 197.351562 24.003906 196.507812 24.910156 195.945312 25.910156 L 195.914062 25.847656 C 196.007812 25.566406 196.039062 25.347656 196.039062 24.941406 C 196.039062 24.347656 195.945312 24.003906 195.351562 24.003906 C 194.007812 24.003906 193.632812 25.253906 193.257812 26.378906 L 193.570312 26.441406 C 193.726562 25.878906 194.257812 24.347656 194.914062 24.347656 C 195.039062 24.347656 195.195312 24.472656 195.195312 24.691406 C 195.195312 24.972656 195.101562 25.503906 195.007812 25.785156 C 194.820312 26.410156 194.695312 26.972656 194.445312 27.660156 L 193.570312 30.347656 L 194.539062 30.347656 L 195.382812 27.847656 C 195.695312 27.066406 196.195312 25.941406 196.695312 25.316406 C 197.007812 24.941406 197.570312 24.316406 198.070312 24.316406 C 198.257812 24.316406 198.382812 24.472656 198.382812 24.753906 C 198.382812 24.816406 198.351562 25.066406 198.351562 25.128906 C 198.257812 25.628906 198.132812 26.003906 198.007812 26.441406 C 197.695312 27.503906 197.539062 28.222656 197.226562 29.191406 C 197.226562 29.316406 197.164062 29.441406 197.164062 29.535156 C 197.164062 30.035156 197.257812 30.472656 197.726562 30.472656 Z M 197.726562 30.472656 "/>
<path fill-rule="nonzero" fill="rgb(0%, 0%, 0%)" fill-opacity="1" d="M 217.988281 26.671875 L 213.550781 22.234375 L 217.988281 17.796875 L 217.207031 16.984375 L 212.769531 21.453125 L 208.332031 16.984375 L 207.550781 17.796875 L 211.957031 22.234375 L 207.550781 26.671875 L 208.332031 27.453125 L 212.769531 23.015625 L 217.207031 27.453125 Z M 217.988281 26.671875 "/>
<path fill-rule="nonzero" fill="rgb(0%, 0%, 0%)" fill-opacity="1" d="M 233.753906 18.765625 C 233.753906 15.890625 232.878906 13.578125 230.722656 13.578125 C 229.035156 13.578125 227.222656 15.171875 227.222656 16.046875 C 227.222656 16.703125 227.753906 16.984375 228.160156 16.984375 C 228.566406 16.984375 228.816406 16.640625 228.878906 16.578125 C 228.816406 16.546875 228.691406 16.359375 228.691406 16.078125 C 228.691406 15.890625 229.035156 14.171875 230.753906 14.171875 C 232.191406 14.171875 232.503906 16.015625 232.503906 17.640625 C 232.503906 18.859375 232.347656 19.921875 232.347656 19.953125 L 232.316406 19.953125 C 232.316406 19.921875 231.535156 18.703125 229.972656 18.703125 C 225.972656 18.703125 224.316406 22.578125 224.316406 24.640625 C 224.316406 26.484375 225.410156 27.671875 227.628906 27.671875 C 231.066406 27.671875 233.753906 24.203125 233.753906 18.765625 Z M 231.472656 21.015625 C 231.472656 21.546875 230.972656 27.203125 227.753906 27.203125 C 226.628906 27.203125 226.128906 26.546875 226.128906 25.296875 C 226.128906 24.015625 226.941406 19.171875 229.816406 19.171875 C 230.941406 19.171875 231.472656 19.828125 231.472656 21.015625 Z M 231.472656 21.015625 "/>
<path fill-rule="nonzero" fill="rgb(0%, 0%, 0%)" fill-opacity="1" d="M 247.273438 27.359375 L 241.710938 13.890625 L 241.367188 13.890625 L 235.429688 27.359375 Z M 244.960938 26.515625 L 236.742188 26.515625 L 241.023438 16.859375 Z M 244.960938 26.515625 "/>
<path fill-rule="nonzero" fill="rgb(0%, 0%, 0%)" fill-opacity="1" d="M 252.574219 20.25 C 253.855469 20.25 254.480469 19.03125 254.855469 18.34375 L 254.636719 18.21875 C 254.324219 18.65625 253.761719 19.65625 253.324219 19.65625 C 253.105469 19.65625 253.105469 19.28125 253.105469 19.15625 C 253.105469 19 253.167969 18.75 253.292969 18.375 C 253.386719 18.03125 253.511719 17.625 253.699219 17.0625 C 253.917969 16.28125 254.167969 15.25 254.167969 14.71875 C 254.167969 14.09375 253.949219 13.78125 253.292969 13.78125 C 252.199219 13.78125 251.355469 14.6875 250.792969 15.6875 L 250.761719 15.625 C 250.855469 15.34375 250.886719 15.125 250.886719 14.71875 C 250.886719 14.125 250.792969 13.78125 250.199219 13.78125 C 248.855469 13.78125 248.480469 15.03125 248.105469 16.15625 L 248.417969 16.21875 C 248.574219 15.65625 249.105469 14.125 249.761719 14.125 C 249.886719 14.125 250.042969 14.25 250.042969 14.46875 C 250.042969 14.75 249.949219 15.28125 249.855469 15.5625 C 249.667969 16.1875 249.542969 16.75 249.292969 17.4375 L 248.417969 20.125 L 249.386719 20.125 L 250.230469 17.625 C 250.542969 16.84375 251.042969 15.71875 251.542969 15.09375 C 251.855469 14.71875 252.417969 14.09375 252.917969 14.09375 C 253.105469 14.09375 253.230469 14.25 253.230469 14.53125 C 253.230469 14.59375 253.199219 14.84375 253.199219 14.90625 C 253.105469 15.40625 252.980469 15.78125 252.855469 16.21875 C 252.542969 17.28125 252.386719 18 252.074219 18.96875 C 252.074219 19.09375 252.011719 19.21875 252.011719 19.3125 C 252.011719 19.8125 252.105469 20.25 252.574219 20.25 Z M 252.574219 20.25 "/>
<path fill-rule="nonzero" fill="rgb(0%, 0%, 0%)" fill-opacity="1" d="M 55 83.707031 L 55.4375 83.050781 L 52.84375 92.957031 C 52.71875 93.425781 52.625 93.769531 52.46875 94.050781 C 52.3125 94.519531 51.90625 95.019531 51.46875 95.207031 C 51.25 95.300781 50.9375 95.363281 50.625 95.363281 L 50.53125 95.644531 L 56.28125 95.644531 L 56.375 95.363281 C 55.75 95.363281 55.25 95.300781 55 95.113281 C 54.71875 94.894531 54.65625 94.457031 54.65625 94.050781 C 54.65625 93.738281 54.71875 93.300781 54.875 92.769531 L 56.84375 85.300781 C 57 84.675781 57.125 84.175781 57.25 83.800781 C 57.46875 83.207031 57.90625 82.550781 58.34375 82.238281 C 58.5625 82.113281 58.84375 82.082031 59.1875 82.082031 L 59.28125 81.800781 L 55.6875 81.800781 L 49 92.519531 L 48.71875 92.519531 L 47.4375 81.800781 L 43.15625 81.800781 L 43.0625 82.082031 C 43.6875 82.082031 44.09375 82.082031 44.3125 82.207031 C 44.59375 82.332031 44.9375 82.832031 44.9375 83.207031 C 44.9375 83.519531 44.875 84.019531 44.6875 84.675781 L 42.5 92.957031 C 42.34375 93.582031 41.84375 94.269531 41.375 94.675781 C 40.9375 95.082031 40.25 95.363281 39.6875 95.363281 L 39.625 95.644531 L 44.59375 95.644531 L 44.6875 95.363281 C 44.21875 95.332031 43.6875 95.238281 43.46875 94.925781 C 43.25 94.613281 42.9375 94.082031 42.9375 93.582031 C 42.9375 93.300781 42.9375 93.019531 43 92.769531 L 45.40625 83.707031 L 45.53125 83.269531 L 47 95.644531 L 47.59375 95.644531 Z M 55 83.707031 "/>
<path fill-rule="nonzero" fill="rgb(0%, 0%, 0%)" fill-opacity="1" d="M 67.445312 97.605469 L 67.445312 96.761719 L 61.382812 93.949219 L 67.445312 91.105469 L 67.445312 90.292969 L 60.007812 93.824219 L 60.007812 94.105469 Z M 67.445312 99.480469 L 67.445312 98.699219 L 60.007812 98.699219 L 60.007812 99.480469 Z M 67.445312 99.480469 "/>
<path fill-rule="nonzero" fill="rgb(0%, 0%, 0%)" fill-opacity="1" d="M 74.023438 98.761719 C 75.304688 98.761719 75.929688 97.542969 76.304688 96.855469 L 76.085938 96.730469 C 75.773438 97.167969 75.210938 98.167969 74.773438 98.167969 C 74.554688 98.167969 74.554688 97.792969 74.554688 97.667969 C 74.554688 97.511719 74.617188 97.261719 74.742188 96.886719 C 74.835938 96.542969 74.960938 96.136719 75.148438 95.574219 C 75.367188 94.792969 75.617188 93.761719 75.617188 93.230469 C 75.617188 92.605469 75.398438 92.292969 74.742188 92.292969 C 73.648438 92.292969 72.804688 93.199219 72.242188 94.199219 L 72.210938 94.136719 C 72.304688 93.855469 72.335938 93.636719 72.335938 93.230469 C 72.335938 92.636719 72.242188 92.292969 71.648438 92.292969 C 70.304688 92.292969 69.929688 93.542969 69.554688 94.667969 L 69.867188 94.730469 C 70.023438 94.167969 70.554688 92.636719 71.210938 92.636719 C 71.335938 92.636719 71.492188 92.761719 71.492188 92.980469 C 71.492188 93.261719 71.398438 93.792969 71.304688 94.074219 C 71.117188 94.699219 70.992188 95.261719 70.742188 95.949219 L 69.867188 98.636719 L 70.835938 98.636719 L 71.679688 96.136719 C 71.992188 95.355469 72.492188 94.230469 72.992188 93.605469 C 73.304688 93.230469 73.867188 92.605469 74.367188 92.605469 C 74.554688 92.605469 74.679688 92.761719 74.679688 93.042969 C 74.679688 93.105469 74.648438 93.355469 74.648438 93.417969 C 74.554688 93.917969 74.429688 94.292969 74.304688 94.730469 C 73.992188 95.792969 73.835938 96.511719 73.523438 97.480469 C 73.523438 97.605469 73.460938 97.730469 73.460938 97.824219 C 73.460938 98.324219 73.554688 98.761719 74.023438 98.761719 Z M 74.023438 98.761719 "/>
<path fill-rule="nonzero" fill="rgb(0%, 0%, 0%)" fill-opacity="1" d="M 218.621094 95.644531 L 218.621094 82.457031 L 215.714844 82.457031 L 211.527344 94.113281 L 211.464844 94.113281 L 207.464844 82.457031 L 204.371094 82.457031 L 204.371094 95.644531 L 205.246094 95.644531 L 205.246094 86.300781 L 205.277344 86.300781 L 208.527344 95.644531 L 211.902344 95.644531 L 215.277344 86.238281 L 215.308594 86.238281 L 215.308594 95.644531 Z M 217.746094 94.769531 L 216.183594 94.769531 L 216.183594 83.332031 L 217.746094 83.332031 Z M 210.808594 94.769531 L 209.152344 94.769531 L 205.589844 84.550781 L 205.183594 83.332031 L 206.777344 83.332031 Z M 210.808594 94.769531 "/>
<path fill-rule="nonzero" fill="rgb(0%, 0%, 0%)" fill-opacity="1" d="M 224.402344 98.761719 C 225.683594 98.761719 226.308594 97.542969 226.683594 96.855469 L 226.464844 96.730469 C 226.152344 97.167969 225.589844 98.167969 225.152344 98.167969 C 224.933594 98.167969 224.933594 97.792969 224.933594 97.667969 C 224.933594 97.511719 224.996094 97.261719 225.121094 96.886719 C 225.214844 96.542969 225.339844 96.136719 225.527344 95.574219 C 225.746094 94.792969 225.996094 93.761719 225.996094 93.230469 C 225.996094 92.605469 225.777344 92.292969 225.121094 92.292969 C 224.027344 92.292969 223.183594 93.199219 222.621094 94.199219 L 222.589844 94.136719 C 222.683594 93.855469 222.714844 93.636719 222.714844 93.230469 C 222.714844 92.636719 222.621094 92.292969 222.027344 92.292969 C 220.683594 92.292969 220.308594 93.542969 219.933594 94.667969 L 220.246094 94.730469 C 220.402344 94.167969 220.933594 92.636719 221.589844 92.636719 C 221.714844 92.636719 221.871094 92.761719 221.871094 92.980469 C 221.871094 93.261719 221.777344 93.792969 221.683594 94.074219 C 221.496094 94.699219 221.371094 95.261719 221.121094 95.949219 L 220.246094 98.636719 L 221.214844 98.636719 L 222.058594 96.136719 C 222.371094 95.355469 222.871094 94.230469 223.371094 93.605469 C 223.683594 93.230469 224.246094 92.605469 224.746094 92.605469 C 224.933594 92.605469 225.058594 92.761719 225.058594 93.042969 C 225.058594 93.105469 225.027344 93.355469 225.027344 93.417969 C 224.933594 93.917969 224.808594 94.292969 224.683594 94.730469 C 224.371094 95.792969 224.214844 96.511719 223.902344 97.480469 C 223.902344 97.605469 223.839844 97.730469 223.839844 97.824219 C 223.839844 98.324219 223.933594 98.761719 224.402344 98.761719 Z M 224.402344 98.761719 "/>
<path fill="none" stroke-width="0.5579" stroke-linecap="butt" stroke-linejoin="miter" stroke="rgb(0%, 0%, 0%)" stroke-opacity="1" stroke-miterlimit="10" d="M -6.96347 17.081812 L 15.989655 17.081812 " transform="matrix(2, 0, 0, -2, 132.716003, 56.397999)"/>
<path fill="none" stroke-width="0.5579" stroke-linecap="round" stroke-linejoin="round" stroke="rgb(0%, 0%, 0%)" stroke-opacity="1" stroke-miterlimit="10" d="M -2.899841 3.348509 C -2.372498 1.340696 -1.188904 0.391478 -0.00140381 0.000852585 C -1.188904 -0.389772 -2.372498 -1.338991 -2.899841 -3.346804 " transform="matrix(2, 0, 0, -2, 165.252808, 22.23608)"/>
<path fill-rule="nonzero" fill="rgb(0%, 0%, 0%)" fill-opacity="1" d="M 119.988281 14.3125 L 119.988281 13.78125 C 119.144531 13.78125 119.019531 13.78125 119.019531 13.1875 L 119.019531 7.90625 L 116.863281 8.0625 L 116.863281 8.59375 C 117.800781 8.59375 117.925781 8.6875 117.925781 9.375 L 117.925781 13.15625 C 117.925781 13.78125 117.769531 13.78125 116.832031 13.78125 L 116.832031 14.3125 C 116.832031 14.3125 117.894531 14.25 118.457031 14.25 C 118.957031 14.25 119.488281 14.28125 119.988281 14.3125 Z M 119.207031 5.5625 C 119.207031 5.09375 118.832031 4.71875 118.363281 4.71875 C 117.894531 4.71875 117.550781 5.125 117.550781 5.5625 C 117.550781 6 117.894531 6.40625 118.363281 6.40625 C 118.863281 6.40625 119.207031 6 119.207031 5.5625 Z M 119.207031 5.5625 "/>
<path fill-rule="nonzero" fill="rgb(0%, 0%, 0%)" fill-opacity="1" d="M 129.160156 14.3125 L 129.160156 13.78125 C 128.191406 13.78125 128.066406 13.6875 128.066406 12.96875 L 128.066406 4.21875 L 125.910156 4.375 L 125.910156 4.90625 C 126.878906 4.90625 126.972656 5 126.972656 5.71875 L 126.972656 8.71875 C 126.441406 8.21875 125.753906 7.90625 124.941406 7.90625 C 123.003906 7.90625 121.378906 9.34375 121.378906 11.1875 C 121.378906 13 122.941406 14.46875 124.785156 14.46875 C 125.972656 14.46875 126.691406 13.8125 126.941406 13.5625 L 126.941406 14.46875 Z M 126.941406 12.78125 C 126.535156 13.46875 125.816406 14.0625 124.878906 14.0625 C 124.035156 14.0625 123.472656 13.5625 123.191406 13.15625 C 122.878906 12.71875 122.722656 12.125 122.722656 11.1875 C 122.722656 10.875 122.722656 9.78125 123.316406 9.09375 C 123.878906 8.4375 124.597656 8.3125 125.035156 8.3125 C 125.722656 8.3125 126.347656 8.625 126.753906 9.15625 C 126.941406 9.375 126.941406 9.40625 126.941406 9.6875 Z M 126.941406 12.78125 "/>
<path fill-rule="nonzero" fill="rgb(0%, 0%, 0%)" fill-opacity="1" d="M 138.917969 13.8125 L 135.667969 10.5625 L 138.917969 7.34375 L 138.324219 6.75 L 135.105469 10 L 131.886719 6.75 L 131.292969 7.34375 L 134.511719 10.5625 L 131.292969 13.8125 L 131.886719 14.375 L 135.105469 11.15625 L 138.324219 14.375 Z M 138.917969 13.8125 "/>
<path fill-rule="nonzero" fill="rgb(0%, 0%, 0%)" fill-opacity="1" d="M 146.25 9.46875 C 146.25 9.21875 146.0625 8.9375 145.78125 8.9375 C 145.46875 8.9375 144.25 10.15625 143.84375 10.375 C 143.84375 9.5625 144.25 8.75 144.25 8.28125 C 144.25 7.96875 144.0625 7.78125 143.75 7.78125 C 143.4375 7.78125 143.28125 7.96875 143.28125 8.28125 C 143.28125 8.84375 143.625 9.59375 143.625 10.375 C 143.15625 10.125 142.03125 8.90625 141.71875 8.90625 C 141.46875 8.90625 141.21875 9.125 141.21875 9.40625 C 141.21875 9.90625 142.9375 10.25 143.5 10.5625 C 142.90625 10.9375 141.75 11.09375 141.46875 11.28125 C 141.34375 11.40625 141.21875 11.53125 141.21875 11.71875 C 141.21875 11.96875 141.40625 12.21875 141.6875 12.21875 C 142 12.21875 143.1875 11.03125 143.625 10.78125 C 143.625 11.59375 143.21875 12.40625 143.21875 12.90625 C 143.21875 13.1875 143.4375 13.40625 143.71875 13.40625 C 144.03125 13.40625 144.1875 13.1875 144.1875 12.90625 C 144.1875 12.3125 143.84375 11.5625 143.84375 10.78125 C 144.3125 11.03125 145.46875 12.25 145.75 12.25 C 146 12.25 146.25 12.03125 146.25 11.75 C 146.25 11.5625 146.125 11.4375 145.96875 11.34375 C 145.59375 11.09375 144.59375 10.9375 143.96875 10.5625 C 144.65625 10.15625 145.5625 10.125 146 9.875 C 146.15625 9.78125 146.25 9.65625 146.25 9.46875 Z M 146.25 9.46875 "/>
<path fill-rule="nonzero" fill="rgb(0%, 0%, 0%)" fill-opacity="1" d="M 152.800781 12.492188 C 152.800781 10.898438 152.300781 9.617188 151.113281 9.617188 C 150.207031 9.617188 149.207031 10.492188 149.207031 10.992188 C 149.207031 11.367188 149.488281 11.492188 149.707031 11.492188 C 149.925781 11.492188 150.082031 11.335938 150.113281 11.273438 C 150.082031 11.242188 150.019531 11.148438 150.019531 10.992188 C 150.019531 10.898438 150.207031 9.960938 151.144531 9.960938 C 151.925781 9.960938 152.113281 10.960938 152.113281 11.867188 C 152.113281 12.523438 152.019531 13.117188 152.019531 13.117188 L 151.988281 13.117188 C 151.988281 13.117188 151.582031 12.460938 150.707031 12.460938 C 148.519531 12.460938 147.613281 14.585938 147.613281 15.710938 C 147.613281 16.742188 148.207031 17.398438 149.425781 17.398438 C 151.300781 17.398438 152.800781 15.460938 152.800781 12.492188 Z M 151.550781 13.710938 C 151.550781 14.023438 151.269531 17.117188 149.488281 17.117188 C 148.863281 17.117188 148.582031 16.773438 148.582031 16.054688 C 148.582031 15.367188 149.050781 12.710938 150.644531 12.710938 C 151.238281 12.710938 151.550781 13.085938 151.550781 13.710938 Z M 151.550781 13.710938 "/>
<path fill-rule="nonzero" fill="rgb(0%, 0%, 0%)" fill-opacity="1" d="M 160.234375 17.210938 L 157.171875 9.804688 L 156.984375 9.804688 L 153.703125 17.210938 Z M 158.953125 16.742188 L 154.453125 16.742188 L 156.796875 11.429688 Z M 158.953125 16.742188 "/>
<path fill-rule="nonzero" fill="rgb(0%, 0%, 0%)" fill-opacity="1" d="M 164.113281 14.136719 C 165.113281 14.136719 165.582031 13.199219 165.863281 12.699219 L 165.707031 12.605469 C 165.457031 12.949219 165.019531 13.667969 164.675781 13.667969 C 164.519531 13.667969 164.519531 13.386719 164.519531 13.292969 C 164.519531 13.199219 164.582031 13.011719 164.675781 12.730469 C 164.738281 12.449219 164.832031 12.136719 164.957031 11.730469 C 165.144531 11.136719 165.332031 10.355469 165.332031 9.980469 C 165.332031 9.511719 165.144531 9.261719 164.675781 9.261719 C 163.832031 9.261719 163.207031 9.949219 162.769531 10.699219 L 162.738281 10.667969 C 162.832031 10.417969 162.863281 10.261719 162.863281 9.949219 C 162.863281 9.511719 162.769531 9.261719 162.332031 9.261719 C 161.300781 9.261719 161.050781 10.199219 160.769531 11.042969 L 160.988281 11.105469 C 161.113281 10.667969 161.519531 9.511719 162.019531 9.511719 C 162.113281 9.511719 162.207031 9.605469 162.207031 9.761719 C 162.207031 9.980469 162.144531 10.386719 162.082031 10.605469 C 161.925781 11.074219 161.832031 11.480469 161.644531 12.011719 L 160.988281 14.042969 L 161.707031 14.042969 L 162.363281 12.167969 C 162.582031 11.574219 162.988281 10.730469 163.332031 10.230469 C 163.582031 9.949219 164.019531 9.511719 164.394531 9.511719 C 164.550781 9.511719 164.613281 9.605469 164.613281 9.824219 C 164.613281 9.886719 164.613281 10.042969 164.582031 10.105469 C 164.550781 10.480469 164.425781 10.761719 164.332031 11.105469 C 164.113281 11.886719 163.988281 12.449219 163.769531 13.167969 C 163.738281 13.261719 163.707031 13.355469 163.707031 13.417969 C 163.707031 13.792969 163.769531 14.136719 164.113281 14.136719 Z M 164.113281 14.136719 "/>
<path fill="none" stroke-width="0.5579" stroke-linecap="butt" stroke-linejoin="miter" stroke="rgb(0%, 0%, 0%)" stroke-opacity="1" stroke-miterlimit="10" d="M -36.760345 8.714624 L -36.760345 -8.261938 " transform="matrix(2, 0, 0, -2, 132.716003, 56.397999)"/>
<path fill="none" stroke-width="0.5579" stroke-linecap="round" stroke-linejoin="round" stroke="rgb(0%, 0%, 0%)" stroke-opacity="1" stroke-miterlimit="10" d="M -2.900967 3.348513 C -2.369717 1.3407 -1.190029 0.391481 0.00137711 0.0008564 C -1.190029 -0.389769 -2.369717 -1.338987 -2.900967 -3.3468 " transform="matrix(0, 2, 2, 0, 59.1936, 73.481621)"/>
<path fill-rule="nonzero" fill="rgb(0%, 0%, 0%)" fill-opacity="1" d="M 43.894531 52.578125 C 44.582031 52.578125 44.457031 53.859375 44.332031 54.421875 C 44.300781 54.703125 44.144531 55.046875 44.050781 55.359375 C 43.707031 56.546875 42.644531 58.421875 41.832031 58.421875 C 41.238281 58.421875 41.082031 57.484375 41.082031 56.984375 C 41.082031 56.578125 41.113281 56.140625 41.269531 55.703125 C 41.644531 54.703125 42.675781 52.578125 43.894531 52.578125 Z M 43.769531 52.296875 C 43.363281 52.296875 42.925781 52.453125 42.488281 52.765625 C 42.050781 53.046875 41.644531 53.421875 41.300781 53.859375 C 40.675781 54.609375 40.082031 55.796875 40.082031 57.046875 C 40.082031 58.015625 40.425781 58.765625 41.363281 58.765625 C 42.613281 58.765625 43.082031 57.890625 43.488281 57.234375 C 43.300781 58.140625 43.425781 58.765625 44.050781 58.765625 C 44.394531 58.765625 44.738281 58.609375 45.144531 58.296875 C 45.519531 57.984375 45.894531 57.515625 46.207031 56.953125 L 46.019531 56.796875 C 45.769531 57.203125 45.144531 58.140625 44.738281 58.140625 C 44.519531 58.140625 44.457031 57.796875 44.457031 57.578125 C 44.457031 56.703125 45.050781 55.203125 45.363281 54.234375 L 46.050781 52.421875 L 45.082031 52.421875 L 44.832031 53.078125 C 44.644531 52.609375 44.363281 52.296875 43.769531 52.296875 Z M 43.769531 52.296875 "/>
<path fill-rule="nonzero" fill="rgb(0%, 0%, 0%)" fill-opacity="1" d="M 52.179688 60.820312 L 52.179688 60.382812 L 51.710938 60.382812 C 50.585938 60.382812 50.585938 60.257812 50.585938 59.882812 L 50.585938 53.851562 C 50.585938 53.539062 50.554688 53.539062 50.210938 53.539062 C 49.492188 54.226562 48.367188 54.226562 47.960938 54.226562 L 47.960938 54.664062 C 48.273438 54.664062 48.992188 54.664062 49.648438 54.351562 L 49.648438 59.882812 C 49.648438 60.257812 49.648438 60.382812 48.523438 60.382812 L 48.054688 60.382812 L 48.054688 60.820312 C 48.648438 60.789062 49.492188 60.789062 50.117188 60.789062 C 50.742188 60.789062 51.585938 60.789062 52.179688 60.820312 Z M 52.179688 60.820312 "/>
<path fill="none" stroke-width="0.5579" stroke-linecap="butt" stroke-linejoin="miter" stroke="rgb(0%, 0%, 0%)" stroke-opacity="1" stroke-miterlimit="10" d="M 41.552155 9.120874 L 41.552155 -8.679907 " transform="matrix(2, 0, 0, -2, 132.716003, 56.397999)"/>
<path fill="none" stroke-width="0.5579" stroke-linecap="round" stroke-linejoin="round" stroke="rgb(0%, 0%, 0%)" stroke-opacity="1" stroke-miterlimit="10" d="M -2.901436 3.347275 C -2.370186 1.339462 -1.190498 0.390244 0.000907898 -0.00038147 C -1.190498 -0.391006 -2.370186 -1.340225 -2.901436 -3.348038 " transform="matrix(0, 2, 2, 0, 215.821075, 74.318497)"/>
<path fill-rule="nonzero" fill="rgb(0%, 0%, 0%)" fill-opacity="1" d="M 230.703125 60.152344 L 227.328125 50.527344 L 224.890625 50.527344 L 221.390625 60.152344 L 222.046875 60.152344 L 223.171875 57.121094 L 227.078125 57.121094 L 228.203125 60.152344 Z M 229.828125 59.527344 L 228.609375 59.527344 L 225.671875 51.183594 L 226.890625 51.183594 Z M 226.859375 56.464844 L 223.421875 56.464844 L 225.140625 51.652344 L 225.171875 51.652344 Z M 226.859375 56.464844 "/>
<path fill-rule="nonzero" fill="rgb(0%, 0%, 0%)" fill-opacity="1" d="M 235.058594 62.429688 C 236.058594 62.429688 236.527344 61.492188 236.808594 60.992188 L 236.652344 60.898438 C 236.402344 61.242188 235.964844 61.960938 235.621094 61.960938 C 235.464844 61.960938 235.464844 61.679688 235.464844 61.585938 C 235.464844 61.492188 235.527344 61.304688 235.621094 61.023438 C 235.683594 60.742188 235.777344 60.429688 235.902344 60.023438 C 236.089844 59.429688 236.277344 58.648438 236.277344 58.273438 C 236.277344 57.804688 236.089844 57.554688 235.621094 57.554688 C 234.777344 57.554688 234.152344 58.242188 233.714844 58.992188 L 233.683594 58.960938 C 233.777344 58.710938 233.808594 58.554688 233.808594 58.242188 C 233.808594 57.804688 233.714844 57.554688 233.277344 57.554688 C 232.246094 57.554688 231.996094 58.492188 231.714844 59.335938 L 231.933594 59.398438 C 232.058594 58.960938 232.464844 57.804688 232.964844 57.804688 C 233.058594 57.804688 233.152344 57.898438 233.152344 58.054688 C 233.152344 58.273438 233.089844 58.679688 233.027344 58.898438 C 232.871094 59.367188 232.777344 59.773438 232.589844 60.304688 L 231.933594 62.335938 L 232.652344 62.335938 L 233.308594 60.460938 C 233.527344 59.867188 233.933594 59.023438 234.277344 58.523438 C 234.527344 58.242188 234.964844 57.804688 235.339844 57.804688 C 235.496094 57.804688 235.558594 57.898438 235.558594 58.117188 C 235.558594 58.179688 235.558594 58.335938 235.527344 58.398438 C 235.496094 58.773438 235.371094 59.054688 235.277344 59.398438 C 235.058594 60.179688 234.933594 60.742188 234.714844 61.460938 C 234.683594 61.554688 234.652344 61.648438 234.652344 61.710938 C 234.652344 62.085938 234.714844 62.429688 235.058594 62.429688 Z M 235.058594 62.429688 "/>
<path fill="none" stroke-width="0.5579" stroke-linecap="butt" stroke-linejoin="miter" stroke="rgb(0%, 0%, 0%)" stroke-opacity="1" stroke-miterlimit="10" d="M -22.717377 -17.062719 L 30.075592 -17.062719 " transform="matrix(2, 0, 0, -2, 132.716003, 56.397999)"/>
<path fill="none" stroke-width="0.5579" stroke-linecap="round" stroke-linejoin="round" stroke="rgb(0%, 0%, 0%)" stroke-opacity="1" stroke-miterlimit="10" d="M -2.89917 3.348389 C -2.371826 1.340576 -1.188232 0.391357 -0.000732422 0.000732422 C -1.188232 -0.389893 -2.371826 -1.339111 -2.89917 -3.346924 " transform="matrix(2, 0, 0, -2, 193.42334, 90.524902)"/>
<path fill-rule="nonzero" fill="rgb(0%, 0%, 0%)" fill-opacity="1" d="M 130.386719 97.152344 C 130.386719 96.902344 130.199219 96.621094 129.917969 96.621094 C 129.605469 96.621094 128.386719 97.839844 127.980469 98.058594 C 127.980469 97.246094 128.386719 96.433594 128.386719 95.964844 C 128.386719 95.652344 128.199219 95.464844 127.886719 95.464844 C 127.574219 95.464844 127.417969 95.652344 127.417969 95.964844 C 127.417969 96.527344 127.761719 97.277344 127.761719 98.058594 C 127.292969 97.808594 126.167969 96.589844 125.855469 96.589844 C 125.605469 96.589844 125.355469 96.808594 125.355469 97.089844 C 125.355469 97.589844 127.074219 97.933594 127.636719 98.246094 C 127.042969 98.621094 125.886719 98.777344 125.605469 98.964844 C 125.480469 99.089844 125.355469 99.214844 125.355469 99.402344 C 125.355469 99.652344 125.542969 99.902344 125.824219 99.902344 C 126.136719 99.902344 127.324219 98.714844 127.761719 98.464844 C 127.761719 99.277344 127.355469 100.089844 127.355469 100.589844 C 127.355469 100.871094 127.574219 101.089844 127.855469 101.089844 C 128.167969 101.089844 128.324219 100.871094 128.324219 100.589844 C 128.324219 99.996094 127.980469 99.246094 127.980469 98.464844 C 128.449219 98.714844 129.605469 99.933594 129.886719 99.933594 C 130.136719 99.933594 130.386719 99.714844 130.386719 99.433594 C 130.386719 99.246094 130.261719 99.121094 130.105469 99.027344 C 129.730469 98.777344 128.730469 98.621094 128.105469 98.246094 C 128.792969 97.839844 129.699219 97.808594 130.136719 97.558594 C 130.292969 97.464844 130.386719 97.339844 130.386719 97.152344 Z M 130.386719 97.152344 "/>
<path fill-rule="nonzero" fill="rgb(0%, 0%, 0%)" fill-opacity="1" d="M 139.925781 104.179688 L 139.925781 96.929688 L 138.300781 96.929688 L 136.019531 103.335938 L 135.988281 103.335938 L 133.769531 96.929688 L 132.082031 96.929688 L 132.082031 104.179688 L 132.550781 104.179688 L 132.550781 99.023438 L 132.582031 99.023438 L 134.363281 104.179688 L 136.238281 104.179688 L 138.082031 98.992188 L 138.082031 104.179688 Z M 139.425781 103.710938 L 138.582031 103.710938 L 138.582031 97.398438 L 139.425781 97.398438 Z M 135.613281 103.710938 L 134.707031 103.710938 L 132.738281 98.054688 L 132.519531 97.398438 L 133.394531 97.398438 Z M 135.613281 103.710938 "/>
<path fill-rule="nonzero" fill="rgb(0%, 0%, 0%)" fill-opacity="1" d="M 147.390625 105.828125 L 147.390625 105.203125 L 142.828125 103.078125 L 147.390625 100.921875 L 147.390625 100.328125 L 141.796875 102.953125 L 141.796875 103.171875 Z M 147.390625 107.234375 L 147.390625 106.671875 L 141.796875 106.671875 L 141.796875 107.234375 Z M 147.390625 107.234375 "/>
<path fill-rule="nonzero" fill="rgb(0%, 0%, 0%)" fill-opacity="1" d="M 152.347656 106.703125 C 153.347656 106.703125 153.816406 105.765625 154.097656 105.265625 L 153.941406 105.171875 C 153.691406 105.515625 153.253906 106.234375 152.910156 106.234375 C 152.753906 106.234375 152.753906 105.953125 152.753906 105.859375 C 152.753906 105.765625 152.816406 105.578125 152.910156 105.296875 C 152.972656 105.015625 153.066406 104.703125 153.191406 104.296875 C 153.378906 103.703125 153.566406 102.921875 153.566406 102.546875 C 153.566406 102.078125 153.378906 101.828125 152.910156 101.828125 C 152.066406 101.828125 151.441406 102.515625 151.003906 103.265625 L 150.972656 103.234375 C 151.066406 102.984375 151.097656 102.828125 151.097656 102.515625 C 151.097656 102.078125 151.003906 101.828125 150.566406 101.828125 C 149.535156 101.828125 149.285156 102.765625 149.003906 103.609375 L 149.222656 103.671875 C 149.347656 103.234375 149.753906 102.078125 150.253906 102.078125 C 150.347656 102.078125 150.441406 102.171875 150.441406 102.328125 C 150.441406 102.546875 150.378906 102.953125 150.316406 103.171875 C 150.160156 103.640625 150.066406 104.046875 149.878906 104.578125 L 149.222656 106.609375 L 149.941406 106.609375 L 150.597656 104.734375 C 150.816406 104.140625 151.222656 103.296875 151.566406 102.796875 C 151.816406 102.515625 152.253906 102.078125 152.628906 102.078125 C 152.785156 102.078125 152.847656 102.171875 152.847656 102.390625 C 152.847656 102.453125 152.847656 102.609375 152.816406 102.671875 C 152.785156 103.046875 152.660156 103.328125 152.566406 103.671875 C 152.347656 104.453125 152.222656 105.015625 152.003906 105.734375 C 151.972656 105.828125 151.941406 105.921875 151.941406 105.984375 C 151.941406 106.359375 152.003906 106.703125 152.347656 106.703125 Z M 152.347656 106.703125 "/>
</svg>
