<?xml version="1.0" encoding="UTF-8"?>
<svg xmlns="http://www.w3.org/2000/svg" xmlns:xlink="http://www.w3.org/1999/xlink" width="327.199992" height="225.17334" viewBox="0 0 327.199992 225.17334">
<defs>
<clipPath id="clip-0">
<path clip-rule="nonzero" d="M 126 50 L 327.199219 50 L 327.199219 225.175781 L 126 225.175781 Z M 126 50 "/>
</clipPath>
</defs>
<path fill-rule="nonzero" fill="rgb(0%, 0%, 0%)" fill-opacity="1" d="M 53.765625 15.449219 C 54.015625 14.488281 54.058594 14.238281 56.058594 14.238281 C 56.640625 14.238281 56.890625 14.238281 56.890625 13.699219 C 56.890625 13.40625 56.640625 13.40625 56.183594 13.40625 L 52.683594 13.40625 C 51.976562 13.40625 51.933594 13.40625 51.640625 13.90625 L 41.933594 29.074219 L 39.851562 14.03125 C 39.765625 13.40625 39.726562 13.40625 39.015625 13.40625 L 35.390625 13.40625 C 34.890625 13.40625 34.601562 13.40625 34.601562 13.90625 C 34.601562 14.238281 34.851562 14.238281 35.351562 14.238281 C 35.726562 14.238281 36.183594 14.28125 36.515625 14.28125 C 36.933594 14.363281 37.101562 14.40625 37.101562 14.738281 C 37.101562 14.824219 37.058594 14.90625 36.976562 15.238281 L 33.601562 28.738281 C 33.351562 29.824219 32.890625 30.65625 30.726562 30.738281 C 30.601562 30.738281 30.265625 30.78125 30.265625 31.238281 C 30.265625 31.488281 30.433594 31.574219 30.640625 31.574219 C 31.476562 31.574219 32.390625 31.488281 33.308594 31.488281 C 34.183594 31.488281 35.140625 31.574219 36.015625 31.574219 C 36.140625 31.574219 36.515625 31.574219 36.515625 31.03125 C 36.515625 30.738281 36.226562 30.738281 36.015625 30.738281 C 34.515625 30.738281 34.226562 30.199219 34.226562 29.574219 C 34.226562 29.40625 34.226562 29.238281 34.308594 28.949219 L 37.933594 14.488281 L 37.976562 14.488281 L 40.265625 30.949219 C 40.308594 31.28125 40.351562 31.574219 40.640625 31.574219 C 40.933594 31.574219 41.101562 31.28125 41.226562 31.113281 L 51.976562 14.28125 L 52.015625 14.28125 L 48.183594 29.488281 C 47.933594 30.53125 47.890625 30.738281 45.765625 30.738281 C 45.351562 30.738281 45.058594 30.738281 45.058594 31.238281 C 45.058594 31.574219 45.351562 31.574219 45.433594 31.574219 C 46.183594 31.574219 47.976562 31.488281 48.726562 31.488281 C 49.808594 31.488281 50.976562 31.574219 52.058594 31.574219 C 52.226562 31.574219 52.558594 31.574219 52.558594 31.03125 C 52.558594 30.738281 52.308594 30.738281 51.808594 30.738281 C 50.851562 30.738281 50.101562 30.738281 50.101562 30.28125 C 50.101562 30.15625 50.101562 30.113281 50.226562 29.613281 Z M 53.765625 15.449219 "/>
<path fill-rule="nonzero" fill="rgb(0%, 0%, 0%)" fill-opacity="1" d="M 60.746094 23.222656 C 60.746094 23.183594 60.789062 22.933594 60.789062 22.933594 C 60.789062 22.808594 60.746094 22.640625 60.496094 22.640625 C 60.121094 22.640625 58.582031 22.808594 58.121094 22.847656 C 57.996094 22.847656 57.707031 22.890625 57.707031 23.265625 C 57.707031 23.515625 57.996094 23.515625 58.207031 23.515625 C 59.082031 23.515625 59.082031 23.683594 59.082031 23.808594 C 59.082031 23.933594 59.039062 24.058594 59.039062 24.222656 L 56.414062 34.722656 C 56.289062 35.058594 56.289062 35.097656 56.289062 35.140625 C 56.289062 35.433594 56.539062 35.722656 56.957031 35.722656 C 57.457031 35.722656 57.664062 35.390625 57.789062 34.972656 C 57.832031 34.890625 58.621094 31.597656 58.707031 31.347656 C 60.039062 31.472656 61.082031 31.933594 61.082031 32.890625 C 61.082031 32.972656 61.082031 33.058594 61.039062 33.265625 C 60.957031 33.515625 60.957031 33.640625 60.957031 33.847656 C 60.957031 35.140625 62.039062 35.722656 62.957031 35.722656 C 64.746094 35.722656 65.289062 32.933594 65.289062 32.890625 C 65.289062 32.640625 65.082031 32.640625 64.996094 32.640625 C 64.746094 32.640625 64.707031 32.765625 64.621094 33.097656 C 64.414062 33.890625 63.914062 35.222656 62.996094 35.222656 C 62.496094 35.222656 62.332031 34.765625 62.332031 34.265625 C 62.332031 33.933594 62.332031 33.890625 62.457031 33.433594 C 62.496094 33.347656 62.539062 33.058594 62.539062 32.847656 C 62.539062 31.183594 60.332031 30.933594 59.539062 30.890625 C 60.082031 30.558594 60.746094 29.933594 61.082031 29.640625 C 62.039062 28.765625 62.957031 27.890625 63.996094 27.890625 C 64.207031 27.890625 64.457031 27.933594 64.621094 28.140625 C 63.832031 28.265625 63.664062 28.890625 63.664062 29.183594 C 63.664062 29.558594 63.957031 29.847656 64.371094 29.847656 C 64.914062 29.847656 65.457031 29.433594 65.457031 28.683594 C 65.457031 28.058594 64.996094 27.347656 64.039062 27.347656 C 62.957031 27.347656 61.996094 28.140625 61.039062 29.015625 C 60.246094 29.722656 59.664062 30.308594 58.871094 30.640625 Z M 60.746094 23.222656 "/>
<path fill-rule="nonzero" fill="rgb(0%, 0%, 0%)" fill-opacity="1" d="M 84.222656 24.199219 L 78.933594 18.90625 C 78.597656 18.574219 78.558594 18.53125 78.347656 18.53125 C 78.058594 18.53125 77.808594 18.738281 77.808594 19.074219 C 77.808594 19.238281 77.847656 19.28125 78.140625 19.574219 L 83.472656 24.90625 L 78.140625 30.28125 C 77.847656 30.574219 77.808594 30.613281 77.808594 30.78125 C 77.808594 31.113281 78.058594 31.324219 78.347656 31.324219 C 78.558594 31.324219 78.597656 31.28125 78.933594 30.949219 L 84.222656 25.65625 L 89.722656 31.15625 C 89.765625 31.199219 89.933594 31.324219 90.097656 31.324219 C 90.433594 31.324219 90.640625 31.113281 90.640625 30.78125 C 90.640625 30.738281 90.640625 30.65625 90.558594 30.488281 C 90.515625 30.449219 86.308594 26.28125 84.972656 24.90625 L 89.847656 20.074219 C 89.972656 19.90625 90.390625 19.574219 90.515625 19.40625 C 90.515625 19.363281 90.640625 19.238281 90.640625 19.074219 C 90.640625 18.738281 90.433594 18.53125 90.097656 18.53125 C 89.890625 18.53125 89.808594 18.613281 89.515625 18.90625 Z M 84.222656 24.199219 "/>
<path fill-rule="nonzero" fill="rgb(0%, 0%, 0%)" fill-opacity="1" d="M 112.746094 22.574219 C 112.496094 20.90625 111.414062 19.40625 109.332031 19.40625 C 107.707031 19.40625 105.996094 19.863281 103.914062 21.90625 C 101.707031 24.113281 101.539062 26.613281 101.539062 27.40625 C 101.539062 29.074219 102.707031 32.15625 106.414062 32.15625 C 112.746094 32.15625 115.496094 23.238281 115.496094 19.40625 C 115.496094 15.199219 113.039062 12.53125 109.746094 12.53125 C 105.914062 12.53125 104.664062 15.988281 104.664062 16.738281 C 104.664062 17.113281 104.914062 17.65625 105.707031 17.65625 C 106.582031 17.65625 107.121094 16.863281 107.121094 16.28125 C 107.121094 15.324219 106.289062 15.324219 105.871094 15.324219 C 107.039062 13.363281 108.957031 13.199219 109.707031 13.199219 C 111.664062 13.199219 113.496094 14.574219 113.496094 18.03125 C 113.496094 19.074219 113.332031 20.40625 112.789062 22.574219 Z M 106.496094 31.40625 C 103.582031 31.40625 103.582031 28.65625 103.582031 28.40625 C 103.582031 27.699219 104.246094 23.988281 105.332031 22.363281 C 106.371094 20.863281 107.707031 19.988281 109.332031 19.988281 C 112.246094 19.988281 112.289062 22.988281 112.289062 23.53125 C 112.289062 25.449219 110.582031 31.40625 106.496094 31.40625 Z M 106.496094 31.40625 "/>
<path fill-rule="nonzero" fill="rgb(0%, 0%, 0%)" fill-opacity="1" d="M 127.789062 13.03125 C 127.621094 12.65625 127.539062 12.53125 127.078125 12.53125 C 126.664062 12.53125 126.578125 12.65625 126.414062 13.03125 L 117.414062 31.03125 C 117.289062 31.28125 117.289062 31.324219 117.289062 31.363281 C 117.289062 31.574219 117.453125 31.574219 117.871094 31.574219 L 136.328125 31.574219 C 136.746094 31.574219 136.914062 31.574219 136.914062 31.363281 C 136.914062 31.324219 136.914062 31.28125 136.789062 31.03125 Z M 126.246094 15.199219 L 133.414062 29.574219 L 119.078125 29.574219 Z M 126.246094 15.199219 "/>
<path fill-rule="nonzero" fill="rgb(0%, 0%, 0%)" fill-opacity="1" d="M 130.148438 18.617188 C 130.023438 18.367188 129.984375 18.28125 129.691406 18.28125 C 129.359375 18.28125 129.316406 18.367188 129.191406 18.617188 L 122.898438 31.199219 C 122.816406 31.367188 122.816406 31.40625 122.816406 31.40625 C 122.816406 31.574219 122.941406 31.574219 123.234375 31.574219 L 136.109375 31.574219 C 136.398438 31.574219 136.523438 31.574219 136.523438 31.40625 C 136.523438 31.40625 136.523438 31.367188 136.441406 31.199219 Z M 129.066406 20.117188 L 134.066406 30.15625 L 124.066406 30.15625 Z M 129.066406 20.117188 "/>
<path fill-rule="nonzero" fill="rgb(0%, 0%, 0%)" fill-opacity="1" d="M 146.230469 37.949219 C 146.230469 37.863281 146.230469 37.824219 145.773438 37.363281 C 142.480469 34.03125 141.605469 28.988281 141.605469 24.90625 C 141.605469 20.28125 142.605469 15.65625 145.898438 12.363281 C 146.230469 12.03125 146.230469 11.988281 146.230469 11.90625 C 146.230469 11.699219 146.148438 11.613281 145.980469 11.613281 C 145.691406 11.613281 143.316406 13.449219 141.730469 16.824219 C 140.398438 19.738281 140.066406 22.699219 140.066406 24.90625 C 140.066406 26.988281 140.355469 30.199219 141.816406 33.238281 C 143.441406 36.488281 145.691406 38.238281 145.980469 38.238281 C 146.148438 38.238281 146.230469 38.15625 146.230469 37.949219 Z M 146.230469 37.949219 "/>
<path fill-rule="nonzero" fill="rgb(0%, 0%, 0%)" fill-opacity="1" d="M 155.394531 13.40625 C 155.394531 13.40625 155.394531 13.113281 155.0625 13.113281 C 154.4375 13.113281 152.519531 13.324219 151.8125 13.40625 C 151.605469 13.40625 151.3125 13.449219 151.3125 13.90625 C 151.3125 14.238281 151.5625 14.238281 151.9375 14.238281 C 153.230469 14.238281 153.269531 14.40625 153.269531 14.699219 L 153.1875 15.238281 L 149.355469 30.53125 C 149.230469 30.90625 149.230469 30.949219 149.230469 31.113281 C 149.230469 31.738281 149.769531 31.863281 150.019531 31.863281 C 150.355469 31.863281 150.730469 31.613281 150.894531 31.324219 C 151.019531 31.074219 152.230469 26.15625 152.394531 25.488281 C 153.3125 25.574219 155.480469 25.988281 155.480469 27.738281 C 155.480469 27.949219 155.480469 28.03125 155.394531 28.324219 C 155.355469 28.613281 155.3125 28.949219 155.3125 29.238281 C 155.3125 30.78125 156.355469 31.863281 157.730469 31.863281 C 158.519531 31.863281 159.269531 31.449219 159.855469 30.449219 C 160.519531 29.28125 160.8125 27.824219 160.8125 27.78125 C 160.8125 27.488281 160.5625 27.488281 160.480469 27.488281 C 160.230469 27.488281 160.1875 27.613281 160.105469 27.988281 C 159.5625 29.90625 158.980469 31.28125 157.8125 31.28125 C 157.269531 31.28125 156.9375 30.988281 156.9375 30.03125 C 156.9375 29.574219 157.0625 28.949219 157.144531 28.53125 C 157.269531 28.074219 157.269531 27.988281 157.269531 27.699219 C 157.269531 25.988281 155.605469 25.238281 153.3125 24.90625 C 154.144531 24.449219 155.019531 23.613281 155.605469 22.949219 C 156.894531 21.53125 158.105469 20.40625 159.394531 20.40625 C 159.5625 20.40625 159.605469 20.40625 159.644531 20.449219 C 159.980469 20.488281 159.980469 20.488281 160.230469 20.65625 C 160.269531 20.65625 160.269531 20.699219 160.3125 20.738281 C 159.0625 20.824219 158.8125 21.863281 158.8125 22.199219 C 158.8125 22.613281 159.105469 23.113281 159.8125 23.113281 C 160.519531 23.113281 161.269531 22.53125 161.269531 21.488281 C 161.269531 20.699219 160.644531 19.824219 159.480469 19.824219 C 158.730469 19.824219 157.519531 20.03125 155.605469 22.15625 C 154.6875 23.15625 153.644531 24.238281 152.644531 24.613281 Z M 155.394531 13.40625 "/>
<path fill-rule="nonzero" fill="rgb(0%, 0%, 0%)" fill-opacity="1" d="M 170.105469 24.90625 C 170.105469 22.863281 169.8125 19.65625 168.355469 16.613281 C 166.769531 13.363281 164.480469 11.613281 164.230469 11.613281 C 164.0625 11.613281 163.9375 11.738281 163.9375 11.90625 C 163.9375 11.988281 163.9375 12.03125 164.4375 12.53125 C 167.0625 15.15625 168.5625 19.363281 168.5625 24.90625 C 168.5625 29.488281 167.605469 34.15625 164.3125 37.488281 C 163.9375 37.824219 163.9375 37.863281 163.9375 37.949219 C 163.9375 38.113281 164.0625 38.238281 164.230469 38.238281 C 164.480469 38.238281 166.894531 36.40625 168.4375 33.03125 C 169.8125 30.113281 170.105469 27.15625 170.105469 24.90625 Z M 170.105469 24.90625 "/>
<path fill-rule="nonzero" fill="rgb(0%, 0%, 0%)" fill-opacity="1" d="M 284.058594 15.449219 C 284.308594 14.488281 284.347656 14.238281 286.347656 14.238281 C 286.933594 14.238281 287.183594 14.238281 287.183594 13.699219 C 287.183594 13.40625 286.933594 13.40625 286.472656 13.40625 L 282.972656 13.40625 C 282.265625 13.40625 282.222656 13.40625 281.933594 13.90625 L 272.222656 29.074219 L 270.140625 14.03125 C 270.058594 13.40625 270.015625 13.40625 269.308594 13.40625 L 265.683594 13.40625 C 265.183594 13.40625 264.890625 13.40625 264.890625 13.90625 C 264.890625 14.238281 265.140625 14.238281 265.640625 14.238281 C 266.015625 14.238281 266.472656 14.28125 266.808594 14.28125 C 267.222656 14.363281 267.390625 14.40625 267.390625 14.738281 C 267.390625 14.824219 267.347656 14.90625 267.265625 15.238281 L 263.890625 28.738281 C 263.640625 29.824219 263.183594 30.65625 261.015625 30.738281 C 260.890625 30.738281 260.558594 30.78125 260.558594 31.238281 C 260.558594 31.488281 260.722656 31.574219 260.933594 31.574219 C 261.765625 31.574219 262.683594 31.488281 263.597656 31.488281 C 264.472656 31.488281 265.433594 31.574219 266.308594 31.574219 C 266.433594 31.574219 266.808594 31.574219 266.808594 31.03125 C 266.808594 30.738281 266.515625 30.738281 266.308594 30.738281 C 264.808594 30.738281 264.515625 30.199219 264.515625 29.574219 C 264.515625 29.40625 264.515625 29.238281 264.597656 28.949219 L 268.222656 14.488281 L 268.265625 14.488281 L 270.558594 30.949219 C 270.597656 31.28125 270.640625 31.574219 270.933594 31.574219 C 271.222656 31.574219 271.390625 31.28125 271.515625 31.113281 L 282.265625 14.28125 L 282.308594 14.28125 L 278.472656 29.488281 C 278.222656 30.53125 278.183594 30.738281 276.058594 30.738281 C 275.640625 30.738281 275.347656 30.738281 275.347656 31.238281 C 275.347656 31.574219 275.640625 31.574219 275.722656 31.574219 C 276.472656 31.574219 278.265625 31.488281 279.015625 31.488281 C 280.097656 31.488281 281.265625 31.574219 282.347656 31.574219 C 282.515625 31.574219 282.847656 31.574219 282.847656 31.03125 C 282.847656 30.738281 282.597656 30.738281 282.097656 30.738281 C 281.140625 30.738281 280.390625 30.738281 280.390625 30.28125 C 280.390625 30.15625 280.390625 30.113281 280.515625 29.613281 Z M 284.058594 15.449219 "/>
<path fill-rule="nonzero" fill="rgb(0%, 0%, 0%)" fill-opacity="1" d="M 291.039062 23.222656 C 291.039062 23.183594 291.082031 22.933594 291.082031 22.933594 C 291.082031 22.808594 291.039062 22.640625 290.789062 22.640625 C 290.414062 22.640625 288.871094 22.808594 288.414062 22.847656 C 288.289062 22.847656 287.996094 22.890625 287.996094 23.265625 C 287.996094 23.515625 288.289062 23.515625 288.496094 23.515625 C 289.371094 23.515625 289.371094 23.683594 289.371094 23.808594 C 289.371094 23.933594 289.332031 24.058594 289.332031 24.222656 L 286.707031 34.722656 C 286.582031 35.058594 286.582031 35.097656 286.582031 35.140625 C 286.582031 35.433594 286.832031 35.722656 287.246094 35.722656 C 287.746094 35.722656 287.957031 35.390625 288.082031 34.972656 C 288.121094 34.890625 288.914062 31.597656 288.996094 31.347656 C 290.332031 31.472656 291.371094 31.933594 291.371094 32.890625 C 291.371094 32.972656 291.371094 33.058594 291.332031 33.265625 C 291.246094 33.515625 291.246094 33.640625 291.246094 33.847656 C 291.246094 35.140625 292.332031 35.722656 293.246094 35.722656 C 295.039062 35.722656 295.582031 32.933594 295.582031 32.890625 C 295.582031 32.640625 295.371094 32.640625 295.289062 32.640625 C 295.039062 32.640625 294.996094 32.765625 294.914062 33.097656 C 294.707031 33.890625 294.207031 35.222656 293.289062 35.222656 C 292.789062 35.222656 292.621094 34.765625 292.621094 34.265625 C 292.621094 33.933594 292.621094 33.890625 292.746094 33.433594 C 292.789062 33.347656 292.832031 33.058594 292.832031 32.847656 C 292.832031 31.183594 290.621094 30.933594 289.832031 30.890625 C 290.371094 30.558594 291.039062 29.933594 291.371094 29.640625 C 292.332031 28.765625 293.246094 27.890625 294.289062 27.890625 C 294.496094 27.890625 294.746094 27.933594 294.914062 28.140625 C 294.121094 28.265625 293.957031 28.890625 293.957031 29.183594 C 293.957031 29.558594 294.246094 29.847656 294.664062 29.847656 C 295.207031 29.847656 295.746094 29.433594 295.746094 28.683594 C 295.746094 28.058594 295.289062 27.347656 294.332031 27.347656 C 293.246094 27.347656 292.289062 28.140625 291.332031 29.015625 C 290.539062 29.722656 289.957031 30.308594 289.164062 30.640625 Z M 291.039062 23.222656 "/>
<path fill-rule="nonzero" fill="rgb(0%, 0%, 0%)" fill-opacity="1" d="M 80.652344 118.21875 L 75.570312 106.136719 C 75.359375 105.59375 75.359375 105.59375 74.609375 105.59375 L 69.695312 105.59375 C 69.195312 105.59375 68.820312 105.59375 68.820312 106.050781 C 68.820312 106.511719 69.277344 106.511719 69.402344 106.511719 C 69.734375 106.511719 70.445312 106.59375 71.027344 106.800781 L 71.027344 120.96875 C 71.027344 121.550781 71.027344 122.71875 69.234375 122.886719 C 68.734375 122.925781 68.734375 123.300781 68.734375 123.34375 C 68.734375 123.800781 69.152344 123.800781 69.652344 123.800781 L 73.734375 123.800781 C 74.234375 123.800781 74.609375 123.800781 74.609375 123.34375 C 74.609375 123.09375 74.402344 122.886719 74.195312 122.886719 C 72.152344 122.71875 72.152344 121.59375 72.152344 120.96875 L 72.152344 107.761719 L 72.195312 107.71875 L 78.652344 123.261719 C 78.902344 123.71875 79.070312 123.800781 79.234375 123.800781 C 79.570312 123.800781 79.609375 123.59375 79.777344 123.261719 L 86.277344 107.71875 L 86.320312 107.761719 L 86.320312 120.96875 C 86.320312 121.550781 86.320312 122.71875 84.484375 122.886719 C 83.984375 122.925781 83.984375 123.300781 83.984375 123.34375 C 83.984375 123.800781 84.402344 123.800781 84.902344 123.800781 L 91.984375 123.800781 C 92.484375 123.800781 92.859375 123.800781 92.859375 123.34375 C 92.859375 123.09375 92.652344 122.886719 92.445312 122.886719 C 90.402344 122.71875 90.402344 121.59375 90.402344 120.96875 L 90.402344 108.425781 C 90.402344 107.84375 90.402344 106.675781 92.195312 106.511719 C 92.484375 106.511719 92.695312 106.34375 92.695312 106.050781 C 92.695312 105.59375 92.320312 105.59375 91.820312 105.59375 L 86.695312 105.59375 C 86.027344 105.59375 85.945312 105.59375 85.734375 106.136719 Z M 79.859375 118.71875 C 80.070312 119.136719 80.109375 119.175781 80.445312 119.300781 L 79.234375 122.09375 L 79.195312 122.09375 L 73.152344 107.636719 C 73.027344 107.300781 72.777344 106.84375 72.445312 106.511719 L 74.734375 106.511719 Z M 71.820312 122.886719 L 71.402344 122.886719 C 71.445312 122.800781 71.484375 122.71875 71.527344 122.675781 C 71.570312 122.636719 71.570312 122.59375 71.609375 122.59375 Z M 87.234375 106.511719 L 90.070312 106.511719 C 89.445312 107.175781 89.445312 107.886719 89.445312 108.34375 L 89.445312 121.050781 C 89.445312 121.511719 89.445312 122.21875 90.070312 122.886719 L 86.652344 122.886719 C 87.234375 122.21875 87.234375 121.511719 87.234375 121.050781 Z M 87.234375 106.511719 "/>
<path fill-rule="nonzero" fill="rgb(0%, 0%, 0%)" fill-opacity="1" d="M 99.203125 115.457031 C 99.203125 115.414062 99.242188 115.164062 99.242188 115.164062 C 99.242188 115.039062 99.203125 114.871094 98.953125 114.871094 C 98.578125 114.871094 97.035156 115.039062 96.578125 115.082031 C 96.453125 115.082031 96.160156 115.121094 96.160156 115.496094 C 96.160156 115.746094 96.453125 115.746094 96.660156 115.746094 C 97.535156 115.746094 97.535156 115.914062 97.535156 116.039062 C 97.535156 116.164062 97.492188 116.289062 97.492188 116.457031 L 94.867188 126.957031 C 94.742188 127.289062 94.742188 127.332031 94.742188 127.371094 C 94.742188 127.664062 94.992188 127.957031 95.410156 127.957031 C 95.910156 127.957031 96.117188 127.621094 96.242188 127.207031 C 96.285156 127.121094 97.078125 123.832031 97.160156 123.582031 C 98.492188 123.707031 99.535156 124.164062 99.535156 125.121094 C 99.535156 125.207031 99.535156 125.289062 99.492188 125.496094 C 99.410156 125.746094 99.410156 125.871094 99.410156 126.082031 C 99.410156 127.371094 100.492188 127.957031 101.410156 127.957031 C 103.203125 127.957031 103.742188 125.164062 103.742188 125.121094 C 103.742188 124.871094 103.535156 124.871094 103.453125 124.871094 C 103.203125 124.871094 103.160156 124.996094 103.078125 125.332031 C 102.867188 126.121094 102.367188 127.457031 101.453125 127.457031 C 100.953125 127.457031 100.785156 126.996094 100.785156 126.496094 C 100.785156 126.164062 100.785156 126.121094 100.910156 125.664062 C 100.953125 125.582031 100.992188 125.289062 100.992188 125.082031 C 100.992188 123.414062 98.785156 123.164062 97.992188 123.121094 C 98.535156 122.789062 99.203125 122.164062 99.535156 121.871094 C 100.492188 120.996094 101.410156 120.121094 102.453125 120.121094 C 102.660156 120.121094 102.910156 120.164062 103.078125 120.371094 C 102.285156 120.496094 102.117188 121.121094 102.117188 121.414062 C 102.117188 121.789062 102.410156 122.082031 102.828125 122.082031 C 103.367188 122.082031 103.910156 121.664062 103.910156 120.914062 C 103.910156 120.289062 103.453125 119.582031 102.492188 119.582031 C 101.410156 119.582031 100.453125 120.371094 99.492188 121.246094 C 98.703125 121.957031 98.117188 122.539062 97.328125 122.871094 Z M 99.203125 115.457031 "/>
<path fill-rule="nonzero" fill="rgb(0%, 0%, 0%)" fill-opacity="1" d="M 118.945312 123.582031 C 119.238281 123.582031 119.695312 123.582031 119.695312 123.164062 C 119.695312 122.664062 119.238281 122.664062 118.945312 122.664062 L 107.863281 122.664062 C 107.570312 122.664062 107.113281 122.664062 107.113281 123.121094 C 107.113281 123.582031 107.527344 123.582031 107.863281 123.582031 Z M 118.945312 123.582031 "/>
<path fill-rule="nonzero" fill="rgb(0%, 0%, 0%)" fill-opacity="1" d="M 127.925781 115.957031 C 127.925781 115.457031 127.925781 115.457031 127.382812 115.457031 C 126.175781 116.621094 124.507812 116.621094 123.757812 116.621094 L 123.757812 117.289062 C 124.175781 117.289062 125.425781 117.289062 126.425781 116.789062 L 126.425781 126.246094 C 126.425781 126.871094 126.425781 127.121094 124.59375 127.121094 L 123.882812 127.121094 L 123.882812 127.789062 C 124.21875 127.789062 126.507812 127.707031 127.175781 127.707031 C 127.757812 127.707031 130.09375 127.789062 130.507812 127.789062 L 130.507812 127.121094 L 129.800781 127.121094 C 127.925781 127.121094 127.925781 126.871094 127.925781 126.246094 Z M 127.925781 115.957031 "/>
<path fill-rule="nonzero" fill="rgb(0%, 0%, 0%)" fill-opacity="1" d="M 272.148438 118.21875 L 267.066406 106.136719 C 266.855469 105.59375 266.855469 105.59375 266.105469 105.59375 L 261.191406 105.59375 C 260.691406 105.59375 260.316406 105.59375 260.316406 106.050781 C 260.316406 106.511719 260.773438 106.511719 260.898438 106.511719 C 261.230469 106.511719 261.941406 106.59375 262.523438 106.800781 L 262.523438 120.96875 C 262.523438 121.550781 262.523438 122.71875 260.730469 122.886719 C 260.230469 122.925781 260.230469 123.300781 260.230469 123.34375 C 260.230469 123.800781 260.648438 123.800781 261.148438 123.800781 L 265.230469 123.800781 C 265.730469 123.800781 266.105469 123.800781 266.105469 123.34375 C 266.105469 123.09375 265.898438 122.886719 265.691406 122.886719 C 263.648438 122.71875 263.648438 121.59375 263.648438 120.96875 L 263.648438 107.761719 L 263.691406 107.71875 L 270.148438 123.261719 C 270.398438 123.71875 270.566406 123.800781 270.730469 123.800781 C 271.066406 123.800781 271.105469 123.59375 271.273438 123.261719 L 277.773438 107.71875 L 277.816406 107.761719 L 277.816406 120.96875 C 277.816406 121.550781 277.816406 122.71875 275.980469 122.886719 C 275.480469 122.925781 275.480469 123.300781 275.480469 123.34375 C 275.480469 123.800781 275.898438 123.800781 276.398438 123.800781 L 283.480469 123.800781 C 283.980469 123.800781 284.355469 123.800781 284.355469 123.34375 C 284.355469 123.09375 284.148438 122.886719 283.941406 122.886719 C 281.898438 122.71875 281.898438 121.59375 281.898438 120.96875 L 281.898438 108.425781 C 281.898438 107.84375 281.898438 106.675781 283.691406 106.511719 C 283.980469 106.511719 284.191406 106.34375 284.191406 106.050781 C 284.191406 105.59375 283.816406 105.59375 283.316406 105.59375 L 278.191406 105.59375 C 277.523438 105.59375 277.441406 105.59375 277.230469 106.136719 Z M 271.355469 118.71875 C 271.566406 119.136719 271.605469 119.175781 271.941406 119.300781 L 270.730469 122.09375 L 270.691406 122.09375 L 264.648438 107.636719 C 264.523438 107.300781 264.273438 106.84375 263.941406 106.511719 L 266.230469 106.511719 Z M 263.316406 122.886719 L 262.898438 122.886719 C 262.941406 122.800781 262.980469 122.71875 263.023438 122.675781 C 263.066406 122.636719 263.066406 122.59375 263.105469 122.59375 Z M 278.730469 106.511719 L 281.566406 106.511719 C 280.941406 107.175781 280.941406 107.886719 280.941406 108.34375 L 280.941406 121.050781 C 280.941406 121.511719 280.941406 122.21875 281.566406 122.886719 L 278.148438 122.886719 C 278.730469 122.21875 278.730469 121.511719 278.730469 121.050781 Z M 278.730469 106.511719 "/>
<path fill-rule="nonzero" fill="rgb(0%, 0%, 0%)" fill-opacity="1" d="M 290.699219 115.457031 C 290.699219 115.414062 290.738281 115.164062 290.738281 115.164062 C 290.738281 115.039062 290.699219 114.871094 290.449219 114.871094 C 290.074219 114.871094 288.53125 115.039062 288.074219 115.082031 C 287.949219 115.082031 287.65625 115.121094 287.65625 115.496094 C 287.65625 115.746094 287.949219 115.746094 288.15625 115.746094 C 289.03125 115.746094 289.03125 115.914062 289.03125 116.039062 C 289.03125 116.164062 288.988281 116.289062 288.988281 116.457031 L 286.363281 126.957031 C 286.238281 127.289062 286.238281 127.332031 286.238281 127.371094 C 286.238281 127.664062 286.488281 127.957031 286.90625 127.957031 C 287.40625 127.957031 287.613281 127.621094 287.738281 127.207031 C 287.78125 127.121094 288.574219 123.832031 288.65625 123.582031 C 289.988281 123.707031 291.03125 124.164062 291.03125 125.121094 C 291.03125 125.207031 291.03125 125.289062 290.988281 125.496094 C 290.90625 125.746094 290.90625 125.871094 290.90625 126.082031 C 290.90625 127.371094 291.988281 127.957031 292.90625 127.957031 C 294.699219 127.957031 295.238281 125.164062 295.238281 125.121094 C 295.238281 124.871094 295.03125 124.871094 294.949219 124.871094 C 294.699219 124.871094 294.65625 124.996094 294.574219 125.332031 C 294.363281 126.121094 293.863281 127.457031 292.949219 127.457031 C 292.449219 127.457031 292.28125 126.996094 292.28125 126.496094 C 292.28125 126.164062 292.28125 126.121094 292.40625 125.664062 C 292.449219 125.582031 292.488281 125.289062 292.488281 125.082031 C 292.488281 123.414062 290.28125 123.164062 289.488281 123.121094 C 290.03125 122.789062 290.699219 122.164062 291.03125 121.871094 C 291.988281 120.996094 292.90625 120.121094 293.949219 120.121094 C 294.15625 120.121094 294.40625 120.164062 294.574219 120.371094 C 293.78125 120.496094 293.613281 121.121094 293.613281 121.414062 C 293.613281 121.789062 293.90625 122.082031 294.324219 122.082031 C 294.863281 122.082031 295.40625 121.664062 295.40625 120.914062 C 295.40625 120.289062 294.949219 119.582031 293.988281 119.582031 C 292.90625 119.582031 291.949219 120.371094 290.988281 121.246094 C 290.199219 121.957031 289.613281 122.539062 288.824219 122.871094 Z M 290.699219 115.457031 "/>
<path fill-rule="nonzero" fill="rgb(0%, 0%, 0%)" fill-opacity="1" d="M 282.347656 207.566406 C 281.722656 209.816406 280.808594 213.109375 280.808594 215.152344 C 280.808594 215.859375 281.222656 216.191406 281.890625 216.191406 C 282.933594 216.191406 284.933594 215.027344 284.933594 214.527344 C 284.933594 214.359375 284.808594 214.316406 284.683594 214.316406 C 284.347656 214.316406 283.890625 214.566406 283.597656 214.734375 C 283.222656 214.652344 283.058594 214.402344 283.058594 214.027344 C 283.058594 210.777344 286.058594 201.484375 286.847656 199.527344 C 287.183594 198.777344 287.515625 197.691406 287.515625 197.484375 C 287.515625 197.277344 287.347656 197.277344 287.265625 197.277344 C 286.683594 197.277344 285.472656 197.984375 285.265625 198.527344 C 284.933594 199.441406 284.890625 199.566406 284.558594 200.566406 C 283.683594 203.066406 281.058594 207.484375 278.433594 210.566406 C 277.597656 211.484375 274.972656 214.566406 273.097656 214.566406 C 271.847656 214.566406 271.015625 213.484375 271.015625 211.734375 C 271.015625 209.859375 272.058594 207.484375 273.683594 203.816406 C 274.640625 201.652344 275.433594 199.777344 275.433594 198.566406 C 275.433594 197.316406 274.558594 197.277344 274.097656 197.277344 C 272.058594 197.277344 269.472656 198.941406 269.472656 199.484375 C 269.472656 199.652344 269.683594 199.652344 269.765625 199.652344 C 270.097656 199.652344 270.597656 199.441406 271.015625 199.152344 C 271.183594 199.027344 271.597656 198.734375 272.347656 198.734375 C 272.933594 198.734375 273.140625 199.109375 273.140625 199.691406 C 273.140625 200.859375 272.183594 203.066406 271.097656 205.609375 C 269.347656 209.609375 268.765625 211.277344 268.765625 212.816406 C 268.765625 214.609375 269.472656 216.027344 271.347656 216.027344 C 273.015625 216.027344 275.433594 214.941406 278.140625 212.402344 C 279.972656 210.691406 281.140625 209.109375 282.308594 207.566406 Z M 282.347656 207.566406 "/>
<path fill="none" stroke-width="0.39848" stroke-linecap="butt" stroke-linejoin="miter" stroke="rgb(0%, 0%, 0%)" stroke-opacity="1" stroke-miterlimit="10" d="M 7.889252 33.231831 L 31.005951 33.231831 " transform="matrix(2.666667, 0, 0, -2.666667, 163.711995, 113.543996)"/>
<path fill="none" stroke-width="0.39848" stroke-linecap="round" stroke-linejoin="round" stroke="rgb(0%, 0%, 0%)" stroke-opacity="1" stroke-miterlimit="10" d="M -2.072952 2.391837 C -1.693558 0.957755 -0.849808 0.278068 0.00126648 0.00121212 C -0.849808 -0.280038 -1.693558 -0.956796 -2.072952 -2.389413 " transform="matrix(2.666667, 0, 0, -2.666667, 246.922404, 24.929014)"/>
<path fill-rule="nonzero" fill="rgb(0%, 0%, 0%)" fill-opacity="1" d="M 206.066406 16.644531 C 204.859375 16.644531 204.691406 16.644531 204.691406 15.851562 L 204.691406 12.851562 C 204.777344 12.9375 205.652344 13.894531 207.191406 13.894531 C 209.652344 13.894531 211.734375 12.0625 211.734375 9.726562 C 211.734375 7.4375 209.859375 5.519531 207.484375 5.519531 C 206.441406 5.519531 205.359375 5.9375 204.609375 6.6875 L 204.609375 5.519531 L 201.816406 5.726562 L 201.816406 6.394531 C 203.109375 6.394531 203.191406 6.519531 203.191406 7.269531 L 203.191406 15.851562 C 203.191406 16.644531 203.027344 16.644531 201.816406 16.644531 L 201.816406 17.351562 C 201.859375 17.351562 203.152344 17.269531 203.941406 17.269531 C 204.609375 17.269531 205.902344 17.3125 206.066406 17.351562 Z M 204.691406 7.519531 C 205.234375 6.601562 206.316406 6.144531 207.277344 6.144531 C 208.859375 6.144531 210.066406 7.769531 210.066406 9.726562 C 210.066406 11.851562 208.652344 13.394531 207.109375 13.394531 C 205.441406 13.394531 204.734375 11.976562 204.691406 11.851562 Z M 204.691406 7.519531 "/>
<path fill-rule="nonzero" fill="rgb(0%, 0%, 0%)" fill-opacity="1" d="M 216.324219 9.476562 C 216.324219 7.9375 217.035156 6.0625 218.824219 6.0625 C 218.660156 6.1875 218.492188 6.4375 218.492188 6.726562 C 218.492188 7.351562 218.992188 7.5625 219.324219 7.5625 C 219.785156 7.5625 220.199219 7.269531 220.199219 6.726562 C 220.199219 6.101562 219.574219 5.519531 218.699219 5.519531 C 217.785156 5.519531 216.742188 6.101562 216.199219 7.519531 L 216.199219 5.519531 L 213.535156 5.726562 L 213.535156 6.394531 C 214.785156 6.394531 214.910156 6.519531 214.910156 7.4375 L 214.910156 12.269531 C 214.910156 13.0625 214.742188 13.0625 213.535156 13.0625 L 213.535156 13.726562 C 213.617188 13.726562 214.867188 13.644531 215.660156 13.644531 C 216.449219 13.644531 217.242188 13.6875 218.074219 13.726562 L 218.074219 13.0625 L 217.699219 13.0625 C 216.324219 13.0625 216.324219 12.851562 216.324219 12.226562 Z M 216.324219 9.476562 "/>
<path fill-rule="nonzero" fill="rgb(0%, 0%, 0%)" fill-opacity="1" d="M 226.226562 10.214844 C 226.226562 9.839844 226.1875 9.839844 225.726562 9.839844 C 224.8125 10.671875 223.3125 10.671875 223.0625 10.671875 L 222.851562 10.671875 L 222.851562 11.253906 L 223.0625 11.253906 C 223.351562 11.253906 224.226562 11.214844 225.019531 10.878906 L 225.019531 17.546875 C 225.019531 17.921875 225.019531 18.089844 223.601562 18.089844 L 222.9375 18.089844 L 222.9375 18.671875 C 223.644531 18.628906 224.851562 18.628906 225.601562 18.628906 C 226.394531 18.628906 227.5625 18.628906 228.3125 18.671875 L 228.3125 18.089844 L 227.644531 18.089844 C 226.226562 18.089844 226.226562 17.921875 226.226562 17.546875 Z M 226.226562 10.214844 "/>
<path fill="none" stroke-width="0.39848" stroke-linecap="butt" stroke-linejoin="miter" stroke="rgb(0%, 0%, 0%)" stroke-opacity="1" stroke-miterlimit="10" d="M -23.533112 24.398823 L -23.533112 7.263081 " transform="matrix(2.666667, 0, 0, -2.666667, 163.711995, 113.543996)"/>
<path fill="none" stroke-width="0.39848" stroke-linecap="round" stroke-linejoin="round" stroke="rgb(0%, 0%, 0%)" stroke-opacity="1" stroke-miterlimit="10" d="M -2.073254 2.390301 C -1.693859 0.957684 -0.850109 0.277996 0.000965118 -0.000324249 C -0.850109 -0.27718 -1.693859 -0.956867 -2.073254 -2.390949 " transform="matrix(0, 2.666667, 2.666667, 0, 100.957896, 94.704458)"/>
<path fill-rule="nonzero" fill="rgb(0%, 0%, 0%)" fill-opacity="1" d="M 53.058594 63.078125 C 52.933594 62.746094 52.890625 62.664062 52.683594 62.664062 C 52.472656 62.664062 52.390625 62.828125 52.265625 63.039062 L 48.058594 74.164062 C 47.808594 74.746094 47.433594 75.039062 46.933594 75.078125 C 46.847656 75.078125 46.558594 75.121094 46.558594 75.414062 C 46.558594 75.746094 46.847656 75.746094 47.183594 75.746094 L 50.140625 75.746094 C 50.472656 75.746094 50.765625 75.746094 50.765625 75.414062 C 50.765625 75.121094 50.515625 75.121094 50.347656 75.078125 C 50.097656 75.078125 49.640625 74.996094 49.640625 73.871094 C 49.640625 73.289062 49.765625 72.664062 49.890625 72.078125 L 53.972656 72.078125 C 54.640625 73.914062 54.640625 74.203125 54.683594 74.578125 C 54.222656 75.039062 53.722656 75.078125 53.515625 75.078125 C 53.308594 75.121094 53.183594 75.246094 53.183594 75.414062 C 53.183594 75.746094 53.472656 75.746094 53.808594 75.746094 L 58.640625 75.746094 C 58.972656 75.746094 59.308594 75.746094 59.308594 75.414062 C 59.308594 75.164062 59.058594 75.121094 58.890625 75.078125 C 58.472656 75.039062 58.140625 74.703125 57.765625 73.871094 Z M 50.097656 71.453125 C 50.515625 69.789062 51.097656 68.203125 51.722656 66.664062 C 52.308594 67.914062 53.433594 70.578125 53.722656 71.453125 Z M 48.972656 73.496094 L 49.015625 73.539062 L 49.015625 73.703125 C 48.972656 73.746094 48.972656 73.789062 48.972656 73.871094 C 48.972656 73.953125 48.972656 74.664062 49.265625 75.078125 L 48.265625 75.078125 C 48.472656 74.828125 48.558594 74.621094 48.683594 74.328125 Z M 52.015625 65.664062 L 52.683594 63.871094 L 57.183594 74.121094 C 57.265625 74.328125 57.472656 74.746094 57.722656 75.078125 L 55.097656 75.078125 C 55.265625 74.996094 55.347656 74.703125 55.347656 74.496094 C 55.347656 73.371094 53.722656 69.578125 52.933594 67.746094 Z M 52.015625 65.664062 "/>
<path fill-rule="nonzero" fill="rgb(0%, 0%, 0%)" fill-opacity="1" d="M 64.527344 69.855469 C 64.613281 69.648438 64.613281 69.648438 64.613281 69.566406 C 64.613281 69.355469 64.402344 69.355469 64.195312 69.355469 L 62.570312 69.480469 C 62.320312 69.480469 62.277344 69.480469 62.238281 69.566406 C 62.195312 69.605469 62.152344 69.773438 62.152344 69.855469 C 62.152344 70.066406 62.363281 70.066406 62.527344 70.066406 C 62.570312 70.066406 62.777344 70.066406 62.988281 70.105469 C 63.238281 70.148438 63.238281 70.191406 63.238281 70.273438 C 63.238281 70.316406 63.238281 70.355469 63.195312 70.605469 L 61.363281 77.941406 C 61.320312 78.105469 61.320312 78.148438 61.320312 78.230469 C 61.320312 78.523438 61.527344 78.730469 61.820312 78.730469 C 62.320312 78.730469 62.445312 78.230469 62.488281 78.023438 L 63.113281 75.605469 C 63.445312 75.605469 65.113281 75.691406 65.113281 76.648438 C 65.113281 76.730469 65.113281 76.773438 65.070312 76.941406 C 65.027344 77.148438 65.027344 77.191406 65.027344 77.273438 C 65.027344 78.230469 65.863281 78.730469 66.652344 78.730469 C 67.988281 78.730469 68.527344 76.816406 68.527344 76.648438 C 68.527344 76.480469 68.320312 76.480469 68.238281 76.480469 C 68.027344 76.480469 67.988281 76.523438 67.945312 76.773438 C 67.820312 77.230469 67.402344 78.273438 66.695312 78.273438 C 66.195312 78.273438 66.152344 77.773438 66.152344 77.480469 C 66.152344 77.480469 66.152344 77.273438 66.195312 77.066406 C 66.238281 76.855469 66.277344 76.691406 66.277344 76.605469 C 66.277344 75.441406 64.777344 75.230469 63.902344 75.148438 C 64.277344 74.941406 64.863281 74.480469 65.070312 74.316406 C 65.820312 73.730469 66.570312 73.148438 67.320312 73.148438 C 67.613281 73.148438 67.695312 73.230469 67.777344 73.316406 C 67.777344 73.316406 67.695312 73.355469 67.652344 73.355469 C 67.070312 73.566406 67.070312 74.105469 67.070312 74.148438 C 67.070312 74.355469 67.238281 74.691406 67.652344 74.691406 C 67.902344 74.691406 68.488281 74.480469 68.488281 73.730469 C 68.488281 73.105469 67.988281 72.691406 67.320312 72.691406 C 66.445312 72.691406 65.652344 73.316406 64.695312 74.066406 C 64.238281 74.441406 63.777344 74.773438 63.238281 75.023438 Z M 64.527344 69.855469 "/>
<path fill-rule="nonzero" fill="rgb(0%, 0%, 0%)" fill-opacity="1" d="M 81.648438 75.605469 C 81.859375 75.605469 82.191406 75.605469 82.191406 75.230469 C 82.191406 74.855469 81.859375 74.855469 81.648438 74.855469 L 72.648438 74.855469 C 72.441406 74.855469 72.066406 74.855469 72.066406 75.230469 C 72.066406 75.605469 72.441406 75.605469 72.648438 75.605469 Z M 81.648438 75.605469 "/>
<path fill-rule="nonzero" fill="rgb(0%, 0%, 0%)" fill-opacity="1" d="M 89.621094 70.105469 C 89.621094 69.730469 89.582031 69.730469 89.121094 69.730469 C 88.207031 70.566406 86.707031 70.566406 86.457031 70.566406 L 86.246094 70.566406 L 86.246094 71.148438 L 86.457031 71.148438 C 86.746094 71.148438 87.621094 71.105469 88.414062 70.773438 L 88.414062 77.441406 C 88.414062 77.816406 88.414062 77.980469 86.996094 77.980469 L 86.332031 77.980469 L 86.332031 78.566406 C 87.039062 78.523438 88.246094 78.523438 88.996094 78.523438 C 89.789062 78.523438 90.957031 78.523438 91.707031 78.566406 L 91.707031 77.980469 L 91.039062 77.980469 C 89.621094 77.980469 89.621094 77.816406 89.621094 77.441406 Z M 89.621094 70.105469 "/>
<path fill="none" stroke-width="0.39848" stroke-linecap="butt" stroke-linejoin="miter" stroke="rgb(0%, 0%, 0%)" stroke-opacity="1" stroke-miterlimit="10" d="M 43.178802 25.394917 L 43.178802 7.263081 " transform="matrix(2.666667, 0, 0, -2.666667, 163.711995, 113.543996)"/>
<path fill="none" stroke-width="0.39848" stroke-linecap="round" stroke-linejoin="round" stroke="rgb(0%, 0%, 0%)" stroke-opacity="1" stroke-miterlimit="10" d="M -2.073254 2.389526 C -1.693859 0.955444 -0.850109 0.280151 0.000965118 -0.00109863 C -0.850109 -0.279419 -1.693859 -0.954712 -2.073254 -2.391724 " transform="matrix(0, 2.666667, 2.666667, 0, 278.858398, 94.704458)"/>
<path fill-rule="nonzero" fill="rgb(0%, 0%, 0%)" fill-opacity="1" d="M 291.113281 66.53125 C 292.65625 65.867188 293.324219 65.617188 293.78125 65.367188 C 294.15625 65.242188 294.324219 65.15625 294.324219 64.78125 C 294.324219 64.492188 294.074219 64.199219 293.738281 64.199219 C 293.613281 64.199219 293.574219 64.199219 293.363281 64.367188 L 290.824219 66.074219 L 291.113281 63.324219 C 291.15625 62.992188 291.113281 62.53125 290.53125 62.53125 C 290.324219 62.53125 289.949219 62.65625 289.949219 63.074219 C 289.949219 63.242188 290.03125 63.78125 290.074219 63.992188 C 290.113281 64.28125 290.238281 65.65625 290.28125 66.074219 L 287.738281 64.367188 C 287.574219 64.28125 287.53125 64.199219 287.363281 64.199219 C 286.988281 64.199219 286.78125 64.492188 286.78125 64.78125 C 286.78125 65.15625 286.988281 65.28125 287.15625 65.324219 L 289.949219 66.53125 C 288.449219 67.199219 287.738281 67.449219 287.28125 67.65625 C 286.949219 67.824219 286.78125 67.90625 286.78125 68.242188 C 286.78125 68.574219 286.988281 68.824219 287.363281 68.824219 C 287.488281 68.824219 287.53125 68.824219 287.738281 68.65625 L 290.28125 66.992188 L 289.949219 69.949219 C 289.949219 70.367188 290.324219 70.53125 290.53125 70.53125 C 290.78125 70.53125 291.113281 70.367188 291.113281 69.949219 C 291.113281 69.78125 291.03125 69.242188 291.03125 69.074219 C 290.988281 68.742188 290.863281 67.40625 290.824219 66.992188 L 293.03125 68.449219 C 293.53125 68.824219 293.574219 68.824219 293.738281 68.824219 C 294.074219 68.824219 294.324219 68.574219 294.324219 68.242188 C 294.324219 67.867188 294.074219 67.78125 293.90625 67.699219 Z M 291.113281 66.53125 "/>
<path fill-rule="nonzero" fill="rgb(0%, 0%, 0%)" fill-opacity="1" d="M 302.207031 71.113281 L 299.667969 65.070312 C 299.542969 64.777344 299.542969 64.777344 299.167969 64.777344 L 296.707031 64.777344 C 296.457031 64.777344 296.25 64.777344 296.25 65.027344 C 296.25 65.277344 296.5 65.277344 296.582031 65.277344 C 296.75 65.277344 297.082031 65.277344 297.375 65.402344 L 297.375 72.488281 C 297.375 72.777344 297.375 73.363281 296.457031 73.445312 C 296.207031 73.445312 296.207031 73.652344 296.207031 73.652344 C 296.207031 73.902344 296.457031 73.902344 296.667969 73.902344 L 298.75 73.902344 C 298.957031 73.902344 299.167969 73.902344 299.167969 73.652344 C 299.167969 73.527344 299.082031 73.445312 298.957031 73.445312 C 297.957031 73.363281 297.957031 72.820312 297.957031 72.488281 L 297.957031 65.863281 L 301.207031 73.613281 C 301.292969 73.863281 301.417969 73.902344 301.457031 73.902344 C 301.625 73.902344 301.667969 73.777344 301.75 73.652344 L 305 65.863281 L 305 72.488281 C 305 72.777344 305 73.363281 304.125 73.445312 C 303.875 73.445312 303.875 73.652344 303.875 73.652344 C 303.875 73.902344 304.082031 73.902344 304.292969 73.902344 L 307.875 73.902344 C 308.082031 73.902344 308.292969 73.902344 308.292969 73.652344 C 308.292969 73.527344 308.207031 73.445312 308.082031 73.445312 C 307.042969 73.363281 307.042969 72.820312 307.042969 72.488281 L 307.042969 66.195312 C 307.042969 65.945312 307.042969 65.363281 307.957031 65.277344 C 308.082031 65.238281 308.207031 65.195312 308.207031 65.027344 C 308.207031 64.777344 308 64.777344 307.792969 64.777344 L 305.207031 64.777344 C 304.875 64.777344 304.832031 64.777344 304.707031 65.070312 Z M 301.792969 71.363281 C 301.917969 71.570312 301.917969 71.570312 302.082031 71.652344 L 301.5 73.070312 L 301.457031 73.070312 L 298.417969 65.820312 C 298.375 65.652344 298.25 65.402344 298.082031 65.277344 L 299.25 65.277344 Z M 297.792969 73.445312 L 297.542969 73.445312 C 297.582031 73.402344 297.625 73.363281 297.625 73.320312 C 297.667969 73.320312 297.667969 73.320312 297.667969 73.277344 Z M 305.457031 65.277344 L 306.875 65.277344 C 306.582031 65.613281 306.582031 65.945312 306.582031 66.195312 L 306.582031 72.527344 C 306.582031 72.777344 306.582031 73.113281 306.917969 73.445312 L 305.167969 73.445312 C 305.457031 73.113281 305.457031 72.777344 305.457031 72.527344 Z M 305.457031 65.277344 "/>
<path fill-rule="nonzero" fill="rgb(0%, 0%, 0%)" fill-opacity="1" d="M 313.417969 69.84375 C 313.503906 69.636719 313.503906 69.636719 313.503906 69.550781 C 313.503906 69.34375 313.292969 69.34375 313.085938 69.34375 L 311.460938 69.46875 C 311.210938 69.46875 311.167969 69.46875 311.128906 69.550781 C 311.085938 69.59375 311.042969 69.761719 311.042969 69.84375 C 311.042969 70.050781 311.253906 70.050781 311.417969 70.050781 C 311.460938 70.050781 311.667969 70.050781 311.878906 70.09375 C 312.128906 70.136719 312.128906 70.175781 312.128906 70.261719 C 312.128906 70.300781 312.128906 70.34375 312.085938 70.59375 L 310.253906 77.925781 C 310.210938 78.09375 310.210938 78.136719 310.210938 78.21875 C 310.210938 78.511719 310.417969 78.71875 310.710938 78.71875 C 311.210938 78.71875 311.335938 78.21875 311.378906 78.011719 L 312.003906 75.59375 C 312.335938 75.59375 314.003906 75.675781 314.003906 76.636719 C 314.003906 76.71875 314.003906 76.761719 313.960938 76.925781 C 313.917969 77.136719 313.917969 77.175781 313.917969 77.261719 C 313.917969 78.21875 314.753906 78.71875 315.542969 78.71875 C 316.878906 78.71875 317.417969 76.800781 317.417969 76.636719 C 317.417969 76.46875 317.210938 76.46875 317.128906 76.46875 C 316.917969 76.46875 316.878906 76.511719 316.835938 76.761719 C 316.710938 77.21875 316.292969 78.261719 315.585938 78.261719 C 315.085938 78.261719 315.042969 77.761719 315.042969 77.46875 C 315.042969 77.46875 315.042969 77.261719 315.085938 77.050781 C 315.128906 76.84375 315.167969 76.675781 315.167969 76.59375 C 315.167969 75.425781 313.667969 75.21875 312.792969 75.136719 C 313.167969 74.925781 313.753906 74.46875 313.960938 74.300781 C 314.710938 73.71875 315.460938 73.136719 316.210938 73.136719 C 316.503906 73.136719 316.585938 73.21875 316.667969 73.300781 C 316.667969 73.300781 316.585938 73.34375 316.542969 73.34375 C 315.960938 73.550781 315.960938 74.09375 315.960938 74.136719 C 315.960938 74.34375 316.128906 74.675781 316.542969 74.675781 C 316.792969 74.675781 317.378906 74.46875 317.378906 73.71875 C 317.378906 73.09375 316.878906 72.675781 316.210938 72.675781 C 315.335938 72.675781 314.542969 73.300781 313.585938 74.050781 C 313.128906 74.425781 312.667969 74.761719 312.128906 75.011719 Z M 313.417969 69.84375 "/>
<path fill="none" stroke-width="2.33075" stroke-linecap="butt" stroke-linejoin="miter" stroke="rgb(0%, 0%, 0%)" stroke-opacity="1" stroke-miterlimit="10" d="M 1.167084 11.449604 L 20.615814 21.536518 " transform="matrix(2.666667, 0, 0, -2.666667, 163.711995, 113.543996)"/>
<path fill="none" stroke-width="1.53377" stroke-linecap="butt" stroke-linejoin="miter" stroke="rgb(100%, 100%, 100%)" stroke-opacity="1" stroke-miterlimit="10" d="M 1.167084 11.449604 L 20.615814 21.536518 " transform="matrix(2.666667, 0, 0, -2.666667, 163.711995, 113.543996)"/>
<path fill="none" stroke-width="0.39848" stroke-linecap="round" stroke-linejoin="round" stroke="rgb(0%, 0%, 0%)" stroke-opacity="1" stroke-miterlimit="10" d="M -1.294616 2.559537 C -0.667134 1.2078 1.024633 0.0500916 1.989697 0.0018408 C 1.023863 -0.0468676 -0.665948 -1.208616 -1.29513 -2.558924 " transform="matrix(2.367227, -1.227413, -1.227413, -2.367227, 218.686727, 56.114507)"/>
<path fill-rule="nonzero" fill="rgb(0%, 0%, 0%)" fill-opacity="1" d="M 170.871094 46.808594 C 170.871094 46.765625 170.914062 46.515625 170.914062 46.515625 C 170.914062 46.390625 170.871094 46.226562 170.621094 46.226562 C 170.246094 46.226562 168.703125 46.390625 168.246094 46.433594 C 168.121094 46.433594 167.828125 46.476562 167.828125 46.851562 C 167.828125 47.101562 168.121094 47.101562 168.328125 47.101562 C 169.203125 47.101562 169.203125 47.265625 169.203125 47.390625 C 169.203125 47.515625 169.164062 47.640625 169.164062 47.808594 L 166.539062 58.308594 C 166.414062 58.640625 166.414062 58.683594 166.414062 58.726562 C 166.414062 59.015625 166.664062 59.308594 167.078125 59.308594 C 167.289062 59.308594 167.621094 59.226562 167.828125 58.851562 C 167.871094 58.726562 168.039062 58.058594 168.121094 57.683594 L 168.578125 56.015625 C 168.621094 55.726562 168.828125 55.015625 168.871094 54.765625 C 169.039062 54.058594 169.039062 54.015625 169.414062 53.433594 C 170.039062 52.515625 170.953125 51.476562 172.414062 51.476562 C 173.453125 51.476562 173.496094 52.308594 173.496094 52.765625 C 173.496094 53.890625 172.703125 55.933594 172.414062 56.726562 C 172.203125 57.265625 172.121094 57.433594 172.121094 57.726562 C 172.121094 58.726562 172.953125 59.308594 173.871094 59.308594 C 175.746094 59.308594 176.578125 56.765625 176.578125 56.476562 C 176.578125 56.226562 176.328125 56.226562 176.246094 56.226562 C 175.996094 56.226562 175.996094 56.351562 175.914062 56.558594 C 175.496094 58.058594 174.664062 58.808594 173.953125 58.808594 C 173.539062 58.808594 173.453125 58.558594 173.453125 58.140625 C 173.453125 57.726562 173.578125 57.476562 173.914062 56.640625 C 174.121094 56.058594 174.871094 54.101562 174.871094 53.058594 C 174.871094 52.765625 174.871094 51.976562 174.203125 51.433594 C 173.871094 51.226562 173.328125 50.933594 172.453125 50.933594 C 171.121094 50.933594 170.121094 51.683594 169.453125 52.476562 Z M 170.871094 46.808594 "/>
<path fill-rule="nonzero" fill="rgb(0%, 0%, 0%)" fill-opacity="1" d="M 182.351562 53.25 C 182.433594 53.042969 182.433594 53.042969 182.433594 52.960938 C 182.433594 52.75 182.226562 52.75 182.015625 52.75 L 180.390625 52.875 C 180.140625 52.875 180.101562 52.875 180.058594 52.960938 C 180.015625 53 179.976562 53.167969 179.976562 53.25 C 179.976562 53.460938 180.183594 53.460938 180.351562 53.460938 C 180.390625 53.460938 180.601562 53.460938 180.808594 53.5 C 181.058594 53.542969 181.058594 53.585938 181.058594 53.667969 C 181.058594 53.710938 181.058594 53.75 181.015625 54 L 179.183594 61.335938 C 179.140625 61.5 179.140625 61.542969 179.140625 61.625 C 179.140625 61.917969 179.351562 62.125 179.640625 62.125 C 180.140625 62.125 180.265625 61.625 180.308594 61.417969 L 180.933594 59 C 181.265625 59 182.933594 59.085938 182.933594 60.042969 C 182.933594 60.125 182.933594 60.167969 182.890625 60.335938 C 182.851562 60.542969 182.851562 60.585938 182.851562 60.667969 C 182.851562 61.625 183.683594 62.125 184.476562 62.125 C 185.808594 62.125 186.351562 60.210938 186.351562 60.042969 C 186.351562 59.875 186.140625 59.875 186.058594 59.875 C 185.851562 59.875 185.808594 59.917969 185.765625 60.167969 C 185.640625 60.625 185.226562 61.667969 184.515625 61.667969 C 184.015625 61.667969 183.976562 61.167969 183.976562 60.875 C 183.976562 60.875 183.976562 60.667969 184.015625 60.460938 C 184.058594 60.25 184.101562 60.085938 184.101562 60 C 184.101562 58.835938 182.601562 58.625 181.726562 58.542969 C 182.101562 58.335938 182.683594 57.875 182.890625 57.710938 C 183.640625 57.125 184.390625 56.542969 185.140625 56.542969 C 185.433594 56.542969 185.515625 56.625 185.601562 56.710938 C 185.601562 56.710938 185.515625 56.75 185.476562 56.75 C 184.890625 56.960938 184.890625 57.5 184.890625 57.542969 C 184.890625 57.75 185.058594 58.085938 185.476562 58.085938 C 185.726562 58.085938 186.308594 57.875 186.308594 57.125 C 186.308594 56.5 185.808594 56.085938 185.140625 56.085938 C 184.265625 56.085938 183.476562 56.710938 182.515625 57.460938 C 182.058594 57.835938 181.601562 58.167969 181.058594 58.417969 Z M 182.351562 53.25 "/>
<path fill="none" stroke-width="0.39848" stroke-linecap="butt" stroke-linejoin="miter" stroke="rgb(0%, 0%, 0%)" stroke-opacity="1" stroke-miterlimit="10" d="M -6.787018 -1.354595 L 31.131927 -1.354595 " transform="matrix(2.666667, 0, 0, -2.666667, 163.711995, 113.543996)"/>
<path fill="none" stroke-width="0.39848" stroke-linecap="round" stroke-linejoin="round" stroke="rgb(0%, 0%, 0%)" stroke-opacity="1" stroke-miterlimit="10" d="M -2.072044 2.392082 C -1.69265 0.95507 -0.8489 0.278313 -0.00075531 0.00145721 C -0.8489 -0.279793 -1.69265 -0.955086 -2.072044 -2.389168 " transform="matrix(2.666667, 0, 0, -2.666667, 247.263733, 117.160136)"/>
<path fill-rule="nonzero" fill="rgb(0%, 0%, 0%)" fill-opacity="1" d="M 177.726562 103.703125 C 177.644531 103.953125 177.5625 104.160156 177.5625 104.496094 C 177.5625 105.371094 178.269531 106.035156 179.3125 106.035156 C 181.144531 106.035156 181.976562 103.496094 181.976562 103.203125 C 181.976562 102.953125 181.726562 102.953125 181.6875 102.953125 C 181.4375 102.953125 181.394531 103.078125 181.3125 103.285156 C 180.894531 104.785156 180.101562 105.535156 179.351562 105.535156 C 178.976562 105.535156 178.894531 105.285156 178.894531 104.871094 C 178.894531 104.453125 179.019531 104.121094 179.1875 103.703125 C 179.394531 103.203125 179.601562 102.703125 179.769531 102.203125 C 179.9375 101.746094 180.644531 100.078125 180.6875 99.828125 C 180.769531 99.660156 180.8125 99.453125 180.8125 99.246094 C 180.8125 98.371094 180.0625 97.660156 179.0625 97.660156 C 177.1875 97.660156 176.351562 100.203125 176.351562 100.535156 C 176.351562 100.746094 176.601562 100.746094 176.6875 100.746094 C 176.9375 100.746094 176.9375 100.660156 177.019531 100.453125 C 177.476562 98.871094 178.3125 98.203125 178.976562 98.203125 C 179.269531 98.203125 179.4375 98.328125 179.4375 98.828125 C 179.4375 99.285156 179.351562 99.535156 178.894531 100.703125 Z M 177.726562 103.703125 "/>
<path fill-rule="nonzero" fill="rgb(0%, 0%, 0%)" fill-opacity="1" d="M 187.765625 99.980469 C 187.847656 99.769531 187.847656 99.769531 187.847656 99.6875 C 187.847656 99.480469 187.640625 99.480469 187.433594 99.480469 L 185.808594 99.605469 C 185.558594 99.605469 185.515625 99.605469 185.472656 99.6875 C 185.433594 99.730469 185.390625 99.894531 185.390625 99.980469 C 185.390625 100.1875 185.597656 100.1875 185.765625 100.1875 C 185.808594 100.1875 186.015625 100.1875 186.222656 100.230469 C 186.472656 100.269531 186.472656 100.3125 186.472656 100.394531 C 186.472656 100.4375 186.472656 100.480469 186.433594 100.730469 L 184.597656 108.0625 C 184.558594 108.230469 184.558594 108.269531 184.558594 108.355469 C 184.558594 108.644531 184.765625 108.855469 185.058594 108.855469 C 185.558594 108.855469 185.683594 108.355469 185.722656 108.144531 L 186.347656 105.730469 C 186.683594 105.730469 188.347656 105.8125 188.347656 106.769531 C 188.347656 106.855469 188.347656 106.894531 188.308594 107.0625 C 188.265625 107.269531 188.265625 107.3125 188.265625 107.394531 C 188.265625 108.355469 189.097656 108.855469 189.890625 108.855469 C 191.222656 108.855469 191.765625 106.9375 191.765625 106.769531 C 191.765625 106.605469 191.558594 106.605469 191.472656 106.605469 C 191.265625 106.605469 191.222656 106.644531 191.183594 106.894531 C 191.058594 107.355469 190.640625 108.394531 189.933594 108.394531 C 189.433594 108.394531 189.390625 107.894531 189.390625 107.605469 C 189.390625 107.605469 189.390625 107.394531 189.433594 107.1875 C 189.472656 106.980469 189.515625 106.8125 189.515625 106.730469 C 189.515625 105.5625 188.015625 105.355469 187.140625 105.269531 C 187.515625 105.0625 188.097656 104.605469 188.308594 104.4375 C 189.058594 103.855469 189.808594 103.269531 190.558594 103.269531 C 190.847656 103.269531 190.933594 103.355469 191.015625 103.4375 C 191.015625 103.4375 190.933594 103.480469 190.890625 103.480469 C 190.308594 103.6875 190.308594 104.230469 190.308594 104.269531 C 190.308594 104.480469 190.472656 104.8125 190.890625 104.8125 C 191.140625 104.8125 191.722656 104.605469 191.722656 103.855469 C 191.722656 103.230469 191.222656 102.8125 190.558594 102.8125 C 189.683594 102.8125 188.890625 103.4375 187.933594 104.1875 C 187.472656 104.5625 187.015625 104.894531 186.472656 105.144531 Z M 187.765625 99.980469 "/>
<path fill-rule="nonzero" fill="rgb(0%, 0%, 0%)" fill-opacity="1" d="M 204.882812 105.730469 C 205.09375 105.730469 205.425781 105.730469 205.425781 105.355469 C 205.425781 104.980469 205.09375 104.980469 204.882812 104.980469 L 195.882812 104.980469 C 195.675781 104.980469 195.300781 104.980469 195.300781 105.355469 C 195.300781 105.730469 195.675781 105.730469 195.882812 105.730469 Z M 204.882812 105.730469 "/>
<path fill-rule="nonzero" fill="rgb(0%, 0%, 0%)" fill-opacity="1" d="M 212.859375 100.230469 C 212.859375 99.855469 212.816406 99.855469 212.359375 99.855469 C 211.441406 100.6875 209.941406 100.6875 209.691406 100.6875 L 209.484375 100.6875 L 209.484375 101.269531 L 209.691406 101.269531 C 209.984375 101.269531 210.859375 101.230469 211.652344 100.894531 L 211.652344 107.5625 C 211.652344 107.9375 211.652344 108.105469 210.234375 108.105469 L 209.566406 108.105469 L 209.566406 108.6875 C 210.277344 108.644531 211.484375 108.644531 212.234375 108.644531 C 213.027344 108.644531 214.191406 108.644531 214.941406 108.6875 L 214.941406 108.105469 L 214.277344 108.105469 C 212.859375 108.105469 212.859375 107.9375 212.859375 107.5625 Z M 212.859375 100.230469 "/>
<path fill="none" stroke-width="0.39848" stroke-linecap="butt" stroke-linejoin="miter" stroke="rgb(0%, 0%, 0%)" stroke-opacity="1" stroke-miterlimit="10" d="M -6.787018 -9.98399 L 34.720795 -31.366314 " transform="matrix(2.666667, 0, 0, -2.666667, 163.711995, 113.543996)"/>
<path fill="none" stroke-width="0.39848" stroke-linecap="round" stroke-linejoin="round" stroke="rgb(0%, 0%, 0%)" stroke-opacity="1" stroke-miterlimit="10" d="M -2.072177 2.392233 C -1.693847 0.957379 -0.851614 0.278959 -0.00177669 0.00159942 C -0.850139 -0.277268 -1.691031 -0.957668 -2.072043 -2.393175 " transform="matrix(2.370453, 1.221227, 1.221227, -2.370453, 256.77179, 197.431742)"/>
<path fill-rule="nonzero" fill="rgb(0%, 0%, 0%)" fill-opacity="1" d="M 157.355469 180.757812 L 159.144531 180.757812 C 159.519531 180.757812 159.769531 180.757812 159.769531 180.339844 C 159.769531 180.089844 159.519531 180.089844 159.1875 180.089844 L 157.480469 180.089844 C 157.894531 177.714844 158.019531 176.882812 158.1875 176.339844 C 158.269531 175.925781 158.6875 175.550781 159.144531 175.550781 C 159.144531 175.550781 159.644531 175.550781 160.019531 175.757812 C 159.230469 176.007812 159.1875 176.675781 159.1875 176.757812 C 159.1875 177.175781 159.519531 177.464844 159.9375 177.464844 C 160.4375 177.464844 160.980469 177.050781 160.980469 176.339844 C 160.980469 175.464844 160.105469 175.007812 159.144531 175.007812 C 158.3125 175.007812 157.394531 175.464844 156.894531 176.382812 C 156.519531 177.089844 156.394531 177.925781 155.980469 180.089844 L 154.519531 180.089844 C 154.144531 180.089844 153.894531 180.089844 153.894531 180.507812 C 153.894531 180.757812 154.144531 180.757812 154.480469 180.757812 L 155.855469 180.757812 C 155.855469 180.882812 154.6875 187.550781 154.230469 189.550781 C 154.144531 189.964844 153.8125 191.339844 152.9375 191.339844 C 152.894531 191.339844 152.480469 191.339844 152.105469 191.132812 C 152.855469 190.882812 152.9375 190.214844 152.9375 190.132812 C 152.9375 189.714844 152.605469 189.425781 152.1875 189.425781 C 151.6875 189.425781 151.144531 189.839844 151.144531 190.550781 C 151.144531 191.382812 152.019531 191.882812 152.9375 191.882812 C 154.105469 191.882812 154.9375 190.675781 155.144531 190.257812 C 155.8125 189.007812 156.269531 186.714844 156.3125 186.507812 Z M 157.355469 180.757812 "/>
<path fill-rule="nonzero" fill="rgb(0%, 0%, 0%)" fill-opacity="1" d="M 165.003906 182.199219 C 165.089844 181.992188 165.089844 181.992188 165.089844 181.910156 C 165.089844 181.699219 164.878906 181.699219 164.671875 181.699219 L 163.046875 181.824219 C 162.796875 181.824219 162.753906 181.824219 162.714844 181.910156 C 162.671875 181.949219 162.628906 182.117188 162.628906 182.199219 C 162.628906 182.410156 162.839844 182.410156 163.003906 182.410156 C 163.046875 182.410156 163.253906 182.410156 163.464844 182.449219 C 163.714844 182.492188 163.714844 182.535156 163.714844 182.617188 C 163.714844 182.660156 163.714844 182.699219 163.671875 182.949219 L 161.839844 190.285156 C 161.796875 190.449219 161.796875 190.492188 161.796875 190.574219 C 161.796875 190.867188 162.003906 191.074219 162.296875 191.074219 C 162.796875 191.074219 162.921875 190.574219 162.964844 190.367188 L 163.589844 187.949219 C 163.921875 187.949219 165.589844 188.035156 165.589844 188.992188 C 165.589844 189.074219 165.589844 189.117188 165.546875 189.285156 C 165.503906 189.492188 165.503906 189.535156 165.503906 189.617188 C 165.503906 190.574219 166.339844 191.074219 167.128906 191.074219 C 168.464844 191.074219 169.003906 189.160156 169.003906 188.992188 C 169.003906 188.824219 168.796875 188.824219 168.714844 188.824219 C 168.503906 188.824219 168.464844 188.867188 168.421875 189.117188 C 168.296875 189.574219 167.878906 190.617188 167.171875 190.617188 C 166.671875 190.617188 166.628906 190.117188 166.628906 189.824219 C 166.628906 189.824219 166.628906 189.617188 166.671875 189.410156 C 166.714844 189.199219 166.753906 189.035156 166.753906 188.949219 C 166.753906 187.785156 165.253906 187.574219 164.378906 187.492188 C 164.753906 187.285156 165.339844 186.824219 165.546875 186.660156 C 166.296875 186.074219 167.046875 185.492188 167.796875 185.492188 C 168.089844 185.492188 168.171875 185.574219 168.253906 185.660156 C 168.253906 185.660156 168.171875 185.699219 168.128906 185.699219 C 167.546875 185.910156 167.546875 186.449219 167.546875 186.492188 C 167.546875 186.699219 167.714844 187.035156 168.128906 187.035156 C 168.378906 187.035156 168.964844 186.824219 168.964844 186.074219 C 168.964844 185.449219 168.464844 185.035156 167.796875 185.035156 C 166.921875 185.035156 166.128906 185.660156 165.171875 186.410156 C 164.714844 186.785156 164.253906 187.117188 163.714844 187.367188 Z M 165.003906 182.199219 "/>
<path fill-rule="nonzero" fill="rgb(0%, 0%, 0%)" fill-opacity="1" d="M 182.125 187.949219 C 182.332031 187.949219 182.664062 187.949219 182.664062 187.574219 C 182.664062 187.199219 182.332031 187.199219 182.125 187.199219 L 173.125 187.199219 C 172.914062 187.199219 172.539062 187.199219 172.539062 187.574219 C 172.539062 187.949219 172.914062 187.949219 173.125 187.949219 Z M 182.125 187.949219 "/>
<path fill-rule="nonzero" fill="rgb(0%, 0%, 0%)" fill-opacity="1" d="M 190.097656 182.449219 C 190.097656 182.074219 190.054688 182.074219 189.597656 182.074219 C 188.679688 182.910156 187.179688 182.910156 186.929688 182.910156 L 186.722656 182.910156 L 186.722656 183.492188 L 186.929688 183.492188 C 187.222656 183.492188 188.097656 183.449219 188.890625 183.117188 L 188.890625 189.785156 C 188.890625 190.160156 188.890625 190.324219 187.472656 190.324219 L 186.804688 190.324219 L 186.804688 190.910156 C 187.515625 190.867188 188.722656 190.867188 189.472656 190.867188 C 190.265625 190.867188 191.429688 190.867188 192.179688 190.910156 L 192.179688 190.324219 L 191.515625 190.324219 C 190.097656 190.324219 190.097656 190.160156 190.097656 189.785156 Z M 190.097656 182.449219 "/>
<path fill-rule="nonzero" fill="rgb(0%, 0%, 0%)" fill-opacity="1" d="M 231.890625 100.078125 C 231.597656 100.078125 231.140625 100.078125 231.140625 100.496094 C 231.140625 100.996094 231.558594 100.996094 231.890625 100.996094 L 238.390625 100.996094 C 239.015625 100.996094 239.097656 100.871094 239.097656 100.289062 L 239.097656 93.703125 C 239.097656 93.414062 239.097656 92.996094 238.683594 92.996094 C 238.183594 92.996094 238.183594 93.496094 238.183594 93.789062 L 238.183594 100.078125 Z M 231.890625 100.078125 "/>
<path fill="none" stroke-width="0.39848" stroke-linecap="butt" stroke-linejoin="miter" stroke="rgb(0%, 0%, 0%)" stroke-opacity="1" stroke-miterlimit="10" d="M 43.178802 -9.190044 L 43.178802 -27.154888 " transform="matrix(2.666667, 0, 0, -2.666667, 163.711995, 113.543996)"/>
<path fill="none" stroke-width="0.39848" stroke-linecap="round" stroke-linejoin="round" stroke="rgb(0%, 0%, 0%)" stroke-opacity="1" stroke-miterlimit="10" d="M -2.071487 2.389526 C -1.692093 0.955444 -0.848343 0.280151 -0.00166321 -0.00109863 C -0.848343 -0.279419 -1.692093 -0.954712 -2.071487 -2.391724 " transform="matrix(0, 2.666667, 2.666667, 0, 278.858398, 186.492716)"/>
<path fill-rule="nonzero" fill="rgb(0%, 0%, 0%)" fill-opacity="1" d="M 292.699219 159.851562 L 294.488281 159.851562 C 294.863281 159.851562 295.113281 159.851562 295.113281 159.4375 C 295.113281 159.1875 294.863281 159.1875 294.53125 159.1875 L 292.824219 159.1875 C 293.238281 156.8125 293.363281 155.976562 293.53125 155.4375 C 293.613281 155.019531 294.03125 154.644531 294.488281 154.644531 C 294.488281 154.644531 294.988281 154.644531 295.363281 154.851562 C 294.574219 155.101562 294.53125 155.769531 294.53125 155.851562 C 294.53125 156.269531 294.863281 156.5625 295.28125 156.5625 C 295.78125 156.5625 296.324219 156.144531 296.324219 155.4375 C 296.324219 154.5625 295.449219 154.101562 294.488281 154.101562 C 293.65625 154.101562 292.738281 154.5625 292.238281 155.476562 C 291.863281 156.1875 291.738281 157.019531 291.324219 159.1875 L 289.863281 159.1875 C 289.488281 159.1875 289.238281 159.1875 289.238281 159.601562 C 289.238281 159.851562 289.488281 159.851562 289.824219 159.851562 L 291.199219 159.851562 C 291.199219 159.976562 290.03125 166.644531 289.574219 168.644531 C 289.488281 169.0625 289.15625 170.4375 288.28125 170.4375 C 288.238281 170.4375 287.824219 170.4375 287.449219 170.226562 C 288.199219 169.976562 288.28125 169.3125 288.28125 169.226562 C 288.28125 168.8125 287.949219 168.519531 287.53125 168.519531 C 287.03125 168.519531 286.488281 168.9375 286.488281 169.644531 C 286.488281 170.476562 287.363281 170.976562 288.28125 170.976562 C 289.449219 170.976562 290.28125 169.769531 290.488281 169.351562 C 291.15625 168.101562 291.613281 165.8125 291.65625 165.601562 Z M 292.699219 159.851562 "/>
<path fill-rule="nonzero" fill="rgb(0%, 0%, 0%)" fill-opacity="1" d="M 300.351562 161.296875 C 300.433594 161.089844 300.433594 161.089844 300.433594 161.003906 C 300.433594 160.796875 300.226562 160.796875 300.015625 160.796875 L 298.390625 160.921875 C 298.140625 160.921875 298.101562 160.921875 298.058594 161.003906 C 298.015625 161.046875 297.976562 161.214844 297.976562 161.296875 C 297.976562 161.503906 298.183594 161.503906 298.351562 161.503906 C 298.390625 161.503906 298.601562 161.503906 298.808594 161.546875 C 299.058594 161.589844 299.058594 161.628906 299.058594 161.714844 C 299.058594 161.753906 299.058594 161.796875 299.015625 162.046875 L 297.183594 169.378906 C 297.140625 169.546875 297.140625 169.589844 297.140625 169.671875 C 297.140625 169.964844 297.351562 170.171875 297.640625 170.171875 C 298.140625 170.171875 298.265625 169.671875 298.308594 169.464844 L 298.933594 167.046875 C 299.265625 167.046875 300.933594 167.128906 300.933594 168.089844 C 300.933594 168.171875 300.933594 168.214844 300.890625 168.378906 C 300.851562 168.589844 300.851562 168.628906 300.851562 168.714844 C 300.851562 169.671875 301.683594 170.171875 302.476562 170.171875 C 303.808594 170.171875 304.351562 168.253906 304.351562 168.089844 C 304.351562 167.921875 304.140625 167.921875 304.058594 167.921875 C 303.851562 167.921875 303.808594 167.964844 303.765625 168.214844 C 303.640625 168.671875 303.226562 169.714844 302.515625 169.714844 C 302.015625 169.714844 301.976562 169.214844 301.976562 168.921875 C 301.976562 168.921875 301.976562 168.714844 302.015625 168.503906 C 302.058594 168.296875 302.101562 168.128906 302.101562 168.046875 C 302.101562 166.878906 300.601562 166.671875 299.726562 166.589844 C 300.101562 166.378906 300.683594 165.921875 300.890625 165.753906 C 301.640625 165.171875 302.390625 164.589844 303.140625 164.589844 C 303.433594 164.589844 303.515625 164.671875 303.601562 164.753906 C 303.601562 164.753906 303.515625 164.796875 303.476562 164.796875 C 302.890625 165.003906 302.890625 165.546875 302.890625 165.589844 C 302.890625 165.796875 303.058594 166.128906 303.476562 166.128906 C 303.726562 166.128906 304.308594 165.921875 304.308594 165.171875 C 304.308594 164.546875 303.808594 164.128906 303.140625 164.128906 C 302.265625 164.128906 301.476562 164.753906 300.515625 165.503906 C 300.058594 165.878906 299.601562 166.214844 299.058594 166.464844 Z M 300.351562 161.296875 "/>
<g clip-path="url(#clip-0)">
<path fill="none" stroke-width="2.33075" stroke-linecap="butt" stroke-linejoin="miter" stroke="rgb(0%, 0%, 0%)" stroke-opacity="1" stroke-miterlimit="10" d="M 31.530365 -9.143169 L 19.146576 -17.421001 " transform="matrix(2.666667, 0, 0, -2.666667, 163.711995, 113.543996)"/>
</g>
<path fill="none" stroke-width="1.53377" stroke-linecap="butt" stroke-linejoin="miter" stroke="rgb(100%, 100%, 100%)" stroke-opacity="1" stroke-miterlimit="10" d="M 31.530365 -9.143169 L 19.146576 -17.421001 " transform="matrix(2.666667, 0, 0, -2.666667, 163.711995, 113.543996)"/>
<path fill="none" stroke-width="0.39848" stroke-linecap="round" stroke-linejoin="round" stroke="rgb(0%, 0%, 0%)" stroke-opacity="1" stroke-miterlimit="10" d="M -1.295481 2.561164 C -0.66705 1.210651 1.022455 0.0477043 1.991812 0.000550961 C 1.025583 -0.0477788 -0.665271 -1.206394 -1.294732 -2.561796 " transform="matrix(-2.2168, 1.481973, 1.481973, 2.2168, 214.770101, 160.003998)"/>
</svg>
