<?xml version="1.0" encoding="UTF-8"?>
<svg xmlns="http://www.w3.org/2000/svg" xmlns:xlink="http://www.w3.org/1999/xlink" width="277.339996" height="115.839996" viewBox="0 0 277.339996 115.839996">
<path fill-rule="nonzero" fill="rgb(0%, 0%, 0%)" fill-opacity="1" d="M 27.054688 16.101562 C 27.242188 15.382812 27.273438 15.195312 28.773438 15.195312 C 29.210938 15.195312 29.398438 15.195312 29.398438 14.789062 C 29.398438 14.570312 29.210938 14.570312 28.867188 14.570312 L 26.242188 14.570312 C 25.710938 14.570312 25.679688 14.570312 25.460938 14.945312 L 18.179688 26.320312 L 16.617188 15.039062 C 16.554688 14.570312 16.523438 14.570312 15.992188 14.570312 L 13.273438 14.570312 C 12.898438 14.570312 12.679688 14.570312 12.679688 14.945312 C 12.679688 15.195312 12.867188 15.195312 13.242188 15.195312 C 13.523438 15.195312 13.867188 15.226562 14.117188 15.226562 C 14.429688 15.289062 14.554688 15.320312 14.554688 15.570312 C 14.554688 15.632812 14.523438 15.695312 14.460938 15.945312 L 11.929688 26.070312 C 11.742188 26.882812 11.398438 27.507812 9.773438 27.570312 C 9.679688 27.570312 9.429688 27.601562 9.429688 27.945312 C 9.429688 28.132812 9.554688 28.195312 9.710938 28.195312 C 10.335938 28.195312 11.023438 28.132812 11.710938 28.132812 C 12.367188 28.132812 13.085938 28.195312 13.742188 28.195312 C 13.835938 28.195312 14.117188 28.195312 14.117188 27.789062 C 14.117188 27.570312 13.898438 27.570312 13.742188 27.570312 C 12.617188 27.570312 12.398438 27.164062 12.398438 26.695312 C 12.398438 26.570312 12.398438 26.445312 12.460938 26.226562 L 15.179688 15.382812 L 15.210938 15.382812 L 16.929688 27.726562 C 16.960938 27.976562 16.992188 28.195312 17.210938 28.195312 C 17.429688 28.195312 17.554688 27.976562 17.648438 27.851562 L 25.710938 15.226562 L 25.742188 15.226562 L 22.867188 26.632812 C 22.679688 27.414062 22.648438 27.570312 21.054688 27.570312 C 20.742188 27.570312 20.523438 27.570312 20.523438 27.945312 C 20.523438 28.195312 20.742188 28.195312 20.804688 28.195312 C 21.367188 28.195312 22.710938 28.132812 23.273438 28.132812 C 24.085938 28.132812 24.960938 28.195312 25.773438 28.195312 C 25.898438 28.195312 26.148438 28.195312 26.148438 27.789062 C 26.148438 27.570312 25.960938 27.570312 25.585938 27.570312 C 24.867188 27.570312 24.304688 27.570312 24.304688 27.226562 C 24.304688 27.132812 24.304688 27.101562 24.398438 26.726562 Z M 27.054688 16.101562 "/>
<path fill-rule="nonzero" fill="rgb(0%, 0%, 0%)" fill-opacity="1" d="M 34.945312 28.652344 L 34.476562 28.652344 C 34.445312 28.964844 34.289062 29.777344 34.101562 29.902344 C 34.007812 29.996094 32.945312 29.996094 32.726562 29.996094 L 30.164062 29.996094 C 31.632812 28.714844 32.132812 28.308594 32.945312 27.652344 C 33.976562 26.839844 34.945312 25.964844 34.945312 24.652344 C 34.945312 22.964844 33.476562 21.933594 31.695312 21.933594 C 29.976562 21.933594 28.789062 23.152344 28.789062 24.433594 C 28.789062 25.121094 29.382812 25.214844 29.539062 25.214844 C 29.851562 25.214844 30.257812 24.964844 30.257812 24.464844 C 30.257812 24.214844 30.164062 23.714844 29.445312 23.714844 C 29.882812 22.746094 30.820312 22.433594 31.476562 22.433594 C 32.882812 22.433594 33.601562 23.527344 33.601562 24.652344 C 33.601562 25.871094 32.726562 26.808594 32.289062 27.308594 L 28.945312 30.652344 C 28.789062 30.777344 28.789062 30.808594 28.789062 31.183594 L 34.539062 31.183594 Z M 34.945312 28.652344 "/>
<path fill-rule="nonzero" fill="rgb(0%, 0%, 0%)" fill-opacity="1" d="M 49.03125 22.664062 L 45.0625 18.695312 C 44.8125 18.445312 44.78125 18.414062 44.625 18.414062 C 44.40625 18.414062 44.21875 18.570312 44.21875 18.820312 C 44.21875 18.945312 44.25 18.976562 44.46875 19.195312 L 48.46875 23.195312 L 44.46875 27.226562 C 44.25 27.445312 44.21875 27.476562 44.21875 27.601562 C 44.21875 27.851562 44.40625 28.007812 44.625 28.007812 C 44.78125 28.007812 44.8125 27.976562 45.0625 27.726562 L 49.03125 23.757812 L 53.15625 27.882812 C 53.1875 27.914062 53.3125 28.007812 53.4375 28.007812 C 53.6875 28.007812 53.84375 27.851562 53.84375 27.601562 C 53.84375 27.570312 53.84375 27.507812 53.78125 27.382812 C 53.75 27.351562 50.59375 24.226562 49.59375 23.195312 L 53.25 19.570312 C 53.34375 19.445312 53.65625 19.195312 53.75 19.070312 C 53.75 19.039062 53.84375 18.945312 53.84375 18.820312 C 53.84375 18.570312 53.6875 18.414062 53.4375 18.414062 C 53.28125 18.414062 53.21875 18.476562 53 18.695312 Z M 49.03125 22.664062 "/>
<path fill-rule="nonzero" fill="rgb(0%, 0%, 0%)" fill-opacity="1" d="M 70.425781 21.445312 C 70.238281 20.195312 69.425781 19.070312 67.863281 19.070312 C 66.644531 19.070312 65.363281 19.414062 63.800781 20.945312 C 62.144531 22.601562 62.019531 24.476562 62.019531 25.070312 C 62.019531 26.320312 62.894531 28.632812 65.675781 28.632812 C 70.425781 28.632812 72.488281 21.945312 72.488281 19.070312 C 72.488281 15.914062 70.644531 13.914062 68.175781 13.914062 C 65.300781 13.914062 64.363281 16.507812 64.363281 17.070312 C 64.363281 17.351562 64.550781 17.757812 65.144531 17.757812 C 65.800781 17.757812 66.207031 17.164062 66.207031 16.726562 C 66.207031 16.007812 65.582031 16.007812 65.269531 16.007812 C 66.144531 14.539062 67.582031 14.414062 68.144531 14.414062 C 69.613281 14.414062 70.988281 15.445312 70.988281 18.039062 C 70.988281 18.820312 70.863281 19.820312 70.457031 21.445312 Z M 65.738281 28.070312 C 63.550781 28.070312 63.550781 26.007812 63.550781 25.820312 C 63.550781 25.289062 64.050781 22.507812 64.863281 21.289062 C 65.644531 20.164062 66.644531 19.507812 67.863281 19.507812 C 70.050781 19.507812 70.082031 21.757812 70.082031 22.164062 C 70.082031 23.601562 68.800781 28.070312 65.738281 28.070312 Z M 65.738281 28.070312 "/>
<path fill-rule="nonzero" fill="rgb(0%, 0%, 0%)" fill-opacity="1" d="M 78.894531 21.882812 L 82.300781 21.882812 C 85.113281 21.882812 87.894531 19.820312 87.894531 17.601562 C 87.894531 16.039062 86.582031 14.570312 83.957031 14.570312 L 77.519531 14.570312 C 77.144531 14.570312 76.925781 14.570312 76.925781 14.945312 C 76.925781 15.195312 77.082031 15.195312 77.488281 15.195312 C 77.738281 15.195312 78.113281 15.226562 78.332031 15.226562 C 78.675781 15.289062 78.769531 15.320312 78.769531 15.570312 C 78.769531 15.632812 78.769531 15.695312 78.707031 15.945312 L 76.019531 26.632812 C 75.832031 27.414062 75.800781 27.570312 74.207031 27.570312 C 73.894531 27.570312 73.675781 27.570312 73.675781 27.945312 C 73.675781 28.195312 73.894531 28.195312 73.957031 28.195312 C 74.519531 28.195312 75.925781 28.132812 76.488281 28.132812 C 76.925781 28.132812 77.363281 28.164062 77.769531 28.164062 C 78.207031 28.164062 78.644531 28.195312 79.050781 28.195312 C 79.207031 28.195312 79.457031 28.195312 79.457031 27.789062 C 79.457031 27.570312 79.269531 27.570312 78.894531 27.570312 C 78.175781 27.570312 77.613281 27.570312 77.613281 27.226562 C 77.613281 27.101562 77.644531 27.007812 77.675781 26.882812 Z M 80.332031 15.945312 C 80.519531 15.257812 80.550781 15.195312 81.425781 15.195312 L 83.332031 15.195312 C 84.988281 15.195312 86.050781 15.726562 86.050781 17.101562 C 86.050781 17.882812 85.644531 19.601562 84.863281 20.320312 C 83.863281 21.226562 82.675781 21.382812 81.800781 21.382812 L 78.988281 21.382812 Z M 80.332031 15.945312 "/>
<path fill-rule="nonzero" fill="rgb(0%, 0%, 0%)" fill-opacity="1" d="M 95.046875 32.976562 C 95.046875 32.914062 95.046875 32.882812 94.703125 32.539062 C 92.234375 30.039062 91.578125 26.257812 91.578125 23.195312 C 91.578125 19.726562 92.328125 16.257812 94.796875 13.789062 C 95.046875 13.539062 95.046875 13.507812 95.046875 13.445312 C 95.046875 13.289062 94.984375 13.226562 94.859375 13.226562 C 94.640625 13.226562 92.859375 14.601562 91.671875 17.132812 C 90.671875 19.320312 90.421875 21.539062 90.421875 23.195312 C 90.421875 24.757812 90.640625 27.164062 91.734375 29.445312 C 92.953125 31.882812 94.640625 33.195312 94.859375 33.195312 C 94.984375 33.195312 95.046875 33.132812 95.046875 32.976562 Z M 95.046875 32.976562 "/>
<path fill-rule="nonzero" fill="rgb(0%, 0%, 0%)" fill-opacity="1" d="M 98.714844 26.664062 L 100.839844 24.601562 C 103.933594 21.851562 105.121094 20.789062 105.121094 18.789062 C 105.121094 16.507812 103.339844 14.914062 100.902344 14.914062 C 98.652344 14.914062 97.183594 16.757812 97.183594 18.539062 C 97.183594 19.632812 98.183594 19.632812 98.246094 19.632812 C 98.589844 19.632812 99.277344 19.414062 99.277344 18.570312 C 99.277344 18.070312 98.902344 17.539062 98.214844 17.539062 C 98.058594 17.539062 98.027344 17.539062 97.964844 17.570312 C 98.402344 16.257812 99.496094 15.539062 100.652344 15.539062 C 102.464844 15.539062 103.308594 17.164062 103.308594 18.789062 C 103.308594 20.382812 102.339844 21.945312 101.214844 23.195312 L 97.402344 27.445312 C 97.183594 27.664062 97.183594 27.726562 97.183594 28.195312 L 104.589844 28.195312 L 105.121094 24.726562 L 104.652344 24.726562 C 104.527344 25.320312 104.402344 26.195312 104.183594 26.507812 C 104.058594 26.664062 102.746094 26.664062 102.308594 26.664062 Z M 98.714844 26.664062 "/>
<path fill-rule="nonzero" fill="rgb(0%, 0%, 0%)" fill-opacity="1" d="M 111.898438 23.195312 C 111.898438 21.664062 111.679688 19.257812 110.585938 16.976562 C 109.398438 14.539062 107.679688 13.226562 107.492188 13.226562 C 107.367188 13.226562 107.273438 13.320312 107.273438 13.445312 C 107.273438 13.507812 107.273438 13.539062 107.648438 13.914062 C 109.617188 15.882812 110.742188 19.039062 110.742188 23.195312 C 110.742188 26.632812 110.023438 30.132812 107.554688 32.632812 C 107.273438 32.882812 107.273438 32.914062 107.273438 32.976562 C 107.273438 33.101562 107.367188 33.195312 107.492188 33.195312 C 107.679688 33.195312 109.492188 31.820312 110.648438 29.289062 C 111.679688 27.101562 111.898438 24.882812 111.898438 23.195312 Z M 111.898438 23.195312 "/>
<path fill-rule="nonzero" fill="rgb(0%, 0%, 0%)" fill-opacity="1" d="M 197.378906 16.101562 C 197.566406 15.382812 197.597656 15.195312 199.097656 15.195312 C 199.535156 15.195312 199.722656 15.195312 199.722656 14.789062 C 199.722656 14.570312 199.535156 14.570312 199.191406 14.570312 L 196.566406 14.570312 C 196.035156 14.570312 196.003906 14.570312 195.785156 14.945312 L 188.503906 26.320312 L 186.941406 15.039062 C 186.878906 14.570312 186.847656 14.570312 186.316406 14.570312 L 183.597656 14.570312 C 183.222656 14.570312 183.003906 14.570312 183.003906 14.945312 C 183.003906 15.195312 183.191406 15.195312 183.566406 15.195312 C 183.847656 15.195312 184.191406 15.226562 184.441406 15.226562 C 184.753906 15.289062 184.878906 15.320312 184.878906 15.570312 C 184.878906 15.632812 184.847656 15.695312 184.785156 15.945312 L 182.253906 26.070312 C 182.066406 26.882812 181.722656 27.507812 180.097656 27.570312 C 180.003906 27.570312 179.753906 27.601562 179.753906 27.945312 C 179.753906 28.132812 179.878906 28.195312 180.035156 28.195312 C 180.660156 28.195312 181.347656 28.132812 182.035156 28.132812 C 182.691406 28.132812 183.410156 28.195312 184.066406 28.195312 C 184.160156 28.195312 184.441406 28.195312 184.441406 27.789062 C 184.441406 27.570312 184.222656 27.570312 184.066406 27.570312 C 182.941406 27.570312 182.722656 27.164062 182.722656 26.695312 C 182.722656 26.570312 182.722656 26.445312 182.785156 26.226562 L 185.503906 15.382812 L 185.535156 15.382812 L 187.253906 27.726562 C 187.285156 27.976562 187.316406 28.195312 187.535156 28.195312 C 187.753906 28.195312 187.878906 27.976562 187.972656 27.851562 L 196.035156 15.226562 L 196.066406 15.226562 L 193.191406 26.632812 C 193.003906 27.414062 192.972656 27.570312 191.378906 27.570312 C 191.066406 27.570312 190.847656 27.570312 190.847656 27.945312 C 190.847656 28.195312 191.066406 28.195312 191.128906 28.195312 C 191.691406 28.195312 193.035156 28.132812 193.597656 28.132812 C 194.410156 28.132812 195.285156 28.195312 196.097656 28.195312 C 196.222656 28.195312 196.472656 28.195312 196.472656 27.789062 C 196.472656 27.570312 196.285156 27.570312 195.910156 27.570312 C 195.191406 27.570312 194.628906 27.570312 194.628906 27.226562 C 194.628906 27.132812 194.628906 27.101562 194.722656 26.726562 Z M 197.378906 16.101562 "/>
<path fill-rule="nonzero" fill="rgb(0%, 0%, 0%)" fill-opacity="1" d="M 205.269531 28.652344 L 204.800781 28.652344 C 204.769531 28.964844 204.613281 29.777344 204.425781 29.902344 C 204.332031 29.996094 203.269531 29.996094 203.050781 29.996094 L 200.488281 29.996094 C 201.957031 28.714844 202.457031 28.308594 203.269531 27.652344 C 204.300781 26.839844 205.269531 25.964844 205.269531 24.652344 C 205.269531 22.964844 203.800781 21.933594 202.019531 21.933594 C 200.300781 21.933594 199.113281 23.152344 199.113281 24.433594 C 199.113281 25.121094 199.707031 25.214844 199.863281 25.214844 C 200.175781 25.214844 200.582031 24.964844 200.582031 24.464844 C 200.582031 24.214844 200.488281 23.714844 199.769531 23.714844 C 200.207031 22.746094 201.144531 22.433594 201.800781 22.433594 C 203.207031 22.433594 203.925781 23.527344 203.925781 24.652344 C 203.925781 25.871094 203.050781 26.808594 202.613281 27.308594 L 199.269531 30.652344 C 199.113281 30.777344 199.113281 30.808594 199.113281 31.183594 L 204.863281 31.183594 Z M 205.269531 28.652344 "/>
<path fill-rule="nonzero" fill="rgb(0%, 0%, 0%)" fill-opacity="1" d="M 219.355469 22.664062 L 215.386719 18.695312 C 215.136719 18.445312 215.105469 18.414062 214.949219 18.414062 C 214.730469 18.414062 214.542969 18.570312 214.542969 18.820312 C 214.542969 18.945312 214.574219 18.976562 214.792969 19.195312 L 218.792969 23.195312 L 214.792969 27.226562 C 214.574219 27.445312 214.542969 27.476562 214.542969 27.601562 C 214.542969 27.851562 214.730469 28.007812 214.949219 28.007812 C 215.105469 28.007812 215.136719 27.976562 215.386719 27.726562 L 219.355469 23.757812 L 223.480469 27.882812 C 223.511719 27.914062 223.636719 28.007812 223.761719 28.007812 C 224.011719 28.007812 224.167969 27.851562 224.167969 27.601562 C 224.167969 27.570312 224.167969 27.507812 224.105469 27.382812 C 224.074219 27.351562 220.917969 24.226562 219.917969 23.195312 L 223.574219 19.570312 C 223.667969 19.445312 223.980469 19.195312 224.074219 19.070312 C 224.074219 19.039062 224.167969 18.945312 224.167969 18.820312 C 224.167969 18.570312 224.011719 18.414062 223.761719 18.414062 C 223.605469 18.414062 223.542969 18.476562 223.324219 18.695312 Z M 219.355469 22.664062 "/>
<path fill-rule="nonzero" fill="rgb(0%, 0%, 0%)" fill-opacity="1" d="M 240.75 21.445312 C 240.5625 20.195312 239.75 19.070312 238.1875 19.070312 C 236.96875 19.070312 235.6875 19.414062 234.125 20.945312 C 232.46875 22.601562 232.34375 24.476562 232.34375 25.070312 C 232.34375 26.320312 233.21875 28.632812 236 28.632812 C 240.75 28.632812 242.8125 21.945312 242.8125 19.070312 C 242.8125 15.914062 240.96875 13.914062 238.5 13.914062 C 235.625 13.914062 234.6875 16.507812 234.6875 17.070312 C 234.6875 17.351562 234.875 17.757812 235.46875 17.757812 C 236.125 17.757812 236.53125 17.164062 236.53125 16.726562 C 236.53125 16.007812 235.90625 16.007812 235.59375 16.007812 C 236.46875 14.539062 237.90625 14.414062 238.46875 14.414062 C 239.9375 14.414062 241.3125 15.445312 241.3125 18.039062 C 241.3125 18.820312 241.1875 19.820312 240.78125 21.445312 Z M 236.0625 28.070312 C 233.875 28.070312 233.875 26.007812 233.875 25.820312 C 233.875 25.289062 234.375 22.507812 235.1875 21.289062 C 235.96875 20.164062 236.96875 19.507812 238.1875 19.507812 C 240.375 19.507812 240.40625 21.757812 240.40625 22.164062 C 240.40625 23.601562 239.125 28.070312 236.0625 28.070312 Z M 236.0625 28.070312 "/>
<path fill-rule="nonzero" fill="rgb(0%, 0%, 0%)" fill-opacity="1" d="M 252.027344 14.289062 C 251.902344 14.007812 251.839844 13.914062 251.496094 13.914062 C 251.183594 13.914062 251.121094 14.007812 250.996094 14.289062 L 244.246094 27.789062 C 244.152344 27.976562 244.152344 28.007812 244.152344 28.039062 C 244.152344 28.195312 244.277344 28.195312 244.589844 28.195312 L 258.433594 28.195312 C 258.746094 28.195312 258.871094 28.195312 258.871094 28.039062 C 258.871094 28.007812 258.871094 27.976562 258.777344 27.789062 Z M 250.871094 15.914062 L 256.246094 26.695312 L 245.496094 26.695312 Z M 250.871094 15.914062 "/>
<path fill-rule="nonzero" fill="rgb(0%, 0%, 0%)" fill-opacity="1" d="M 266.851562 18.433594 L 266.382812 18.433594 C 266.351562 18.746094 266.195312 19.558594 266.007812 19.683594 C 265.914062 19.777344 264.851562 19.777344 264.632812 19.777344 L 262.070312 19.777344 C 263.539062 18.496094 264.039062 18.089844 264.851562 17.433594 C 265.882812 16.621094 266.851562 15.746094 266.851562 14.433594 C 266.851562 12.746094 265.382812 11.714844 263.601562 11.714844 C 261.882812 11.714844 260.695312 12.933594 260.695312 14.214844 C 260.695312 14.902344 261.289062 14.996094 261.445312 14.996094 C 261.757812 14.996094 262.164062 14.746094 262.164062 14.246094 C 262.164062 13.996094 262.070312 13.496094 261.351562 13.496094 C 261.789062 12.527344 262.726562 12.214844 263.382812 12.214844 C 264.789062 12.214844 265.507812 13.308594 265.507812 14.433594 C 265.507812 15.652344 264.632812 16.589844 264.195312 17.089844 L 260.851562 20.433594 C 260.695312 20.558594 260.695312 20.589844 260.695312 20.964844 L 266.445312 20.964844 Z M 266.851562 18.433594 "/>
<path fill-rule="nonzero" fill="rgb(0%, 0%, 0%)" fill-opacity="1" d="M 59.355469 85.273438 C 59.542969 84.554688 59.574219 84.367188 61.074219 84.367188 C 61.511719 84.367188 61.699219 84.367188 61.699219 83.960938 C 61.699219 83.742188 61.511719 83.742188 61.167969 83.742188 L 58.542969 83.742188 C 58.011719 83.742188 57.980469 83.742188 57.761719 84.117188 L 50.480469 95.492188 L 48.917969 84.210938 C 48.855469 83.742188 48.824219 83.742188 48.292969 83.742188 L 45.574219 83.742188 C 45.199219 83.742188 44.980469 83.742188 44.980469 84.117188 C 44.980469 84.367188 45.167969 84.367188 45.542969 84.367188 C 45.824219 84.367188 46.167969 84.398438 46.417969 84.398438 C 46.730469 84.460938 46.855469 84.492188 46.855469 84.742188 C 46.855469 84.804688 46.824219 84.867188 46.761719 85.117188 L 44.230469 95.242188 C 44.042969 96.054688 43.699219 96.679688 42.074219 96.742188 C 41.980469 96.742188 41.730469 96.773438 41.730469 97.117188 C 41.730469 97.304688 41.855469 97.367188 42.011719 97.367188 C 42.636719 97.367188 43.324219 97.304688 44.011719 97.304688 C 44.667969 97.304688 45.386719 97.367188 46.042969 97.367188 C 46.136719 97.367188 46.417969 97.367188 46.417969 96.960938 C 46.417969 96.742188 46.199219 96.742188 46.042969 96.742188 C 44.917969 96.742188 44.699219 96.335938 44.699219 95.867188 C 44.699219 95.742188 44.699219 95.617188 44.761719 95.398438 L 47.480469 84.554688 L 47.511719 84.554688 L 49.230469 96.898438 C 49.261719 97.148438 49.292969 97.367188 49.511719 97.367188 C 49.730469 97.367188 49.855469 97.148438 49.949219 97.023438 L 58.011719 84.398438 L 58.042969 84.398438 L 55.167969 95.804688 C 54.980469 96.585938 54.949219 96.742188 53.355469 96.742188 C 53.042969 96.742188 52.824219 96.742188 52.824219 97.117188 C 52.824219 97.367188 53.042969 97.367188 53.105469 97.367188 C 53.667969 97.367188 55.011719 97.304688 55.574219 97.304688 C 56.386719 97.304688 57.261719 97.367188 58.074219 97.367188 C 58.199219 97.367188 58.449219 97.367188 58.449219 96.960938 C 58.449219 96.742188 58.261719 96.742188 57.886719 96.742188 C 57.167969 96.742188 56.605469 96.742188 56.605469 96.398438 C 56.605469 96.304688 56.605469 96.273438 56.699219 95.898438 Z M 59.355469 85.273438 "/>
<path fill-rule="nonzero" fill="rgb(0%, 0%, 0%)" fill-opacity="1" d="M 70.84375 91.511719 C 71.03125 91.449219 71.15625 91.324219 71.15625 91.167969 C 71.15625 90.949219 71 90.792969 70.8125 90.792969 C 70.78125 90.792969 70.71875 90.792969 70.53125 90.886719 L 62.03125 94.980469 C 61.8125 95.074219 61.71875 95.199219 61.71875 95.355469 C 61.71875 95.511719 61.8125 95.605469 62.03125 95.730469 L 70.53125 99.792969 C 70.71875 99.886719 70.78125 99.886719 70.8125 99.886719 C 71.03125 99.886719 71.15625 99.699219 71.15625 99.574219 C 71.15625 99.324219 70.96875 99.261719 70.84375 99.199219 L 62.84375 95.355469 Z M 70.59375 102.949219 C 70.8125 102.949219 71.15625 102.949219 71.15625 102.636719 C 71.15625 102.292969 70.8125 102.292969 70.59375 102.292969 L 62.28125 102.292969 C 62.03125 102.292969 61.71875 102.292969 61.71875 102.636719 C 61.71875 102.949219 62.0625 102.949219 62.28125 102.949219 Z M 70.59375 102.949219 "/>
<path fill-rule="nonzero" fill="rgb(0%, 0%, 0%)" fill-opacity="1" d="M 77.328125 91.480469 C 77.328125 91.105469 77.328125 91.105469 76.921875 91.105469 C 76.015625 91.980469 74.765625 91.980469 74.203125 91.980469 L 74.203125 92.480469 C 74.515625 92.480469 75.453125 92.480469 76.203125 92.105469 L 76.203125 99.199219 C 76.203125 99.667969 76.203125 99.855469 74.828125 99.855469 L 74.296875 99.855469 L 74.296875 100.355469 C 74.546875 100.355469 76.265625 100.292969 76.765625 100.292969 C 77.203125 100.292969 78.953125 100.355469 79.265625 100.355469 L 79.265625 99.855469 L 78.734375 99.855469 C 77.328125 99.855469 77.328125 99.667969 77.328125 99.199219 Z M 77.328125 91.480469 "/>
<path fill-rule="nonzero" fill="rgb(0%, 0%, 0%)" fill-opacity="1" d="M 219.238281 93.179688 L 215.425781 84.117188 C 215.269531 83.710938 215.269531 83.710938 214.707031 83.710938 L 211.019531 83.710938 C 210.644531 83.710938 210.363281 83.710938 210.363281 84.054688 C 210.363281 84.398438 210.707031 84.398438 210.800781 84.398438 C 211.050781 84.398438 211.582031 84.460938 212.019531 84.617188 L 212.019531 95.242188 C 212.019531 95.679688 212.019531 96.554688 210.675781 96.679688 C 210.300781 96.710938 210.300781 96.992188 210.300781 97.023438 C 210.300781 97.367188 210.613281 97.367188 210.988281 97.367188 L 214.050781 97.367188 C 214.425781 97.367188 214.707031 97.367188 214.707031 97.023438 C 214.707031 96.835938 214.550781 96.679688 214.394531 96.679688 C 212.863281 96.554688 212.863281 95.710938 212.863281 95.242188 L 212.863281 85.335938 L 212.894531 85.304688 L 217.738281 96.960938 C 217.925781 97.304688 218.050781 97.367188 218.175781 97.367188 C 218.425781 97.367188 218.457031 97.210938 218.582031 96.960938 L 223.457031 85.304688 L 223.488281 85.335938 L 223.488281 95.242188 C 223.488281 95.679688 223.488281 96.554688 222.113281 96.679688 C 221.738281 96.710938 221.738281 96.992188 221.738281 97.023438 C 221.738281 97.367188 222.050781 97.367188 222.425781 97.367188 L 227.738281 97.367188 C 228.113281 97.367188 228.394531 97.367188 228.394531 97.023438 C 228.394531 96.835938 228.238281 96.679688 228.082031 96.679688 C 226.550781 96.554688 226.550781 95.710938 226.550781 95.242188 L 226.550781 85.835938 C 226.550781 85.398438 226.550781 84.523438 227.894531 84.398438 C 228.113281 84.398438 228.269531 84.273438 228.269531 84.054688 C 228.269531 83.710938 227.988281 83.710938 227.613281 83.710938 L 223.769531 83.710938 C 223.269531 83.710938 223.207031 83.710938 223.050781 84.117188 Z M 218.644531 93.554688 C 218.800781 93.867188 218.832031 93.898438 219.082031 93.992188 L 218.175781 96.085938 L 218.144531 96.085938 L 213.613281 85.242188 C 213.519531 84.992188 213.332031 84.648438 213.082031 84.398438 L 214.800781 84.398438 Z M 212.613281 96.679688 L 212.300781 96.679688 C 212.332031 96.617188 212.363281 96.554688 212.394531 96.523438 C 212.425781 96.492188 212.425781 96.460938 212.457031 96.460938 Z M 224.175781 84.398438 L 226.300781 84.398438 C 225.832031 84.898438 225.832031 85.429688 225.832031 85.773438 L 225.832031 95.304688 C 225.832031 95.648438 225.832031 96.179688 226.300781 96.679688 L 223.738281 96.679688 C 224.175781 96.179688 224.175781 95.648438 224.175781 95.304688 Z M 224.175781 84.398438 "/>
<path fill-rule="nonzero" fill="rgb(0%, 0%, 0%)" fill-opacity="1" d="M 233.433594 91.480469 C 233.433594 91.105469 233.433594 91.105469 233.027344 91.105469 C 232.121094 91.980469 230.871094 91.980469 230.308594 91.980469 L 230.308594 92.480469 C 230.621094 92.480469 231.558594 92.480469 232.308594 92.105469 L 232.308594 99.199219 C 232.308594 99.667969 232.308594 99.855469 230.933594 99.855469 L 230.402344 99.855469 L 230.402344 100.355469 C 230.652344 100.355469 232.371094 100.292969 232.871094 100.292969 C 233.308594 100.292969 235.058594 100.355469 235.371094 100.355469 L 235.371094 99.855469 L 234.839844 99.855469 C 233.433594 99.855469 233.433594 99.667969 233.433594 99.199219 Z M 233.433594 91.480469 "/>
<path fill="none" stroke-width="0.39848" stroke-linecap="butt" stroke-linejoin="miter" stroke="rgb(0%, 0%, 0%)" stroke-opacity="1" stroke-miterlimit="10" d="M -7.887779 17.124531 L 15.225502 17.124531 " transform="matrix(2, 0, 0, -2, 138.673996, 57.459999)"/>
<path fill="none" stroke-width="0.39848" stroke-linecap="round" stroke-linejoin="round" stroke="rgb(0%, 0%, 0%)" stroke-opacity="1" stroke-miterlimit="10" d="M -2.071602 2.392056 C -1.692696 0.954556 -0.848946 0.278775 -0.00128937 0.00143147 C -0.848946 -0.279819 -1.692696 -0.9556 -2.071602 -2.389194 " transform="matrix(2, 0, 0, -2, 169.526016, 23.2138)"/>
<path fill-rule="nonzero" fill="rgb(0%, 0%, 0%)" fill-opacity="1" d="M 118.457031 5.378906 C 118.457031 4.972656 118.113281 4.566406 117.644531 4.566406 C 117.238281 4.566406 116.863281 4.910156 116.863281 5.378906 C 116.863281 5.878906 117.269531 6.191406 117.644531 6.191406 C 118.113281 6.191406 118.457031 5.847656 118.457031 5.378906 Z M 116.332031 7.972656 L 116.332031 8.472656 C 117.207031 8.472656 117.332031 8.566406 117.332031 9.253906 L 117.332031 12.878906 C 117.332031 13.472656 117.207031 13.472656 116.300781 13.472656 L 116.300781 13.972656 C 116.332031 13.972656 117.300781 13.910156 117.863281 13.910156 C 118.363281 13.910156 118.863281 13.941406 119.332031 13.972656 L 119.332031 13.472656 C 118.519531 13.472656 118.394531 13.472656 118.394531 12.878906 L 118.394531 7.816406 Z M 116.332031 7.972656 "/>
<path fill-rule="nonzero" fill="rgb(0%, 0%, 0%)" fill-opacity="1" d="M 124.992188 4.441406 L 124.992188 4.941406 C 125.929688 4.941406 126.023438 5.066406 126.023438 5.722656 L 126.023438 8.628906 C 125.523438 8.128906 124.835938 7.816406 124.085938 7.816406 C 122.210938 7.816406 120.679688 9.222656 120.679688 10.972656 C 120.679688 12.722656 122.148438 14.097656 123.898438 14.097656 C 125.054688 14.097656 125.742188 13.503906 125.960938 13.253906 L 125.960938 14.097656 L 128.117188 13.972656 L 128.117188 13.472656 C 127.179688 13.472656 127.085938 13.378906 127.085938 12.691406 L 127.085938 4.285156 Z M 125.960938 12.503906 C 125.617188 13.160156 124.898438 13.722656 123.992188 13.722656 C 123.210938 13.722656 122.648438 13.253906 122.367188 12.847656 C 122.085938 12.441406 121.929688 11.878906 121.929688 11.003906 C 121.929688 10.660156 121.929688 9.628906 122.492188 8.972656 C 123.054688 8.347656 123.742188 8.222656 124.148438 8.222656 C 124.804688 8.222656 125.429688 8.535156 125.804688 9.035156 C 125.960938 9.253906 125.960938 9.253906 125.960938 9.535156 Z M 125.960938 12.503906 "/>
<path fill-rule="nonzero" fill="rgb(0%, 0%, 0%)" fill-opacity="1" d="M 138.582031 7.441406 C 138.738281 7.285156 138.769531 7.191406 138.769531 7.097656 C 138.769531 6.878906 138.613281 6.753906 138.457031 6.753906 C 138.300781 6.753906 138.269531 6.785156 138.113281 6.972656 L 135.050781 10.003906 L 131.988281 6.941406 C 131.832031 6.816406 131.800781 6.753906 131.675781 6.753906 C 131.457031 6.753906 131.300781 6.910156 131.300781 7.097656 C 131.300781 7.222656 131.363281 7.253906 131.519531 7.441406 L 134.550781 10.472656 L 131.519531 13.503906 C 131.332031 13.722656 131.300781 13.785156 131.300781 13.847656 C 131.300781 14.066406 131.457031 14.222656 131.675781 14.222656 C 131.800781 14.222656 131.832031 14.160156 131.988281 14.003906 L 135.050781 10.972656 L 138.238281 14.128906 C 138.300781 14.191406 138.363281 14.222656 138.457031 14.222656 C 138.613281 14.222656 138.769531 14.097656 138.769531 13.847656 C 138.769531 13.753906 138.769531 13.722656 138.707031 13.691406 C 138.675781 13.628906 135.988281 10.910156 135.550781 10.503906 Z M 138.582031 7.441406 "/>
<path fill-rule="nonzero" fill="rgb(0%, 0%, 0%)" fill-opacity="1" d="M 145.773438 10.503906 C 146.929688 10.003906 147.429688 9.816406 147.773438 9.628906 C 148.054688 9.535156 148.179688 9.472656 148.179688 9.191406 C 148.179688 8.972656 147.992188 8.753906 147.742188 8.753906 C 147.648438 8.753906 147.617188 8.753906 147.460938 8.878906 L 145.554688 10.160156 L 145.773438 8.097656 C 145.804688 7.847656 145.773438 7.503906 145.335938 7.503906 C 145.179688 7.503906 144.898438 7.597656 144.898438 7.910156 C 144.898438 8.035156 144.960938 8.441406 144.992188 8.597656 C 145.023438 8.816406 145.117188 9.847656 145.148438 10.160156 L 143.242188 8.878906 C 143.117188 8.816406 143.085938 8.753906 142.960938 8.753906 C 142.679688 8.753906 142.523438 8.972656 142.523438 9.191406 C 142.523438 9.472656 142.679688 9.566406 142.804688 9.597656 L 144.898438 10.503906 C 143.773438 11.003906 143.242188 11.191406 142.898438 11.347656 C 142.648438 11.472656 142.523438 11.535156 142.523438 11.785156 C 142.523438 12.035156 142.679688 12.222656 142.960938 12.222656 C 143.054688 12.222656 143.085938 12.222656 143.242188 12.097656 L 145.148438 10.847656 L 144.898438 13.066406 C 144.898438 13.378906 145.179688 13.503906 145.335938 13.503906 C 145.523438 13.503906 145.773438 13.378906 145.773438 13.066406 C 145.773438 12.941406 145.710938 12.535156 145.710938 12.410156 C 145.679688 12.160156 145.585938 11.160156 145.554688 10.847656 L 147.210938 11.941406 C 147.585938 12.222656 147.617188 12.222656 147.742188 12.222656 C 147.992188 12.222656 148.179688 12.035156 148.179688 11.785156 C 148.179688 11.503906 147.992188 11.441406 147.867188 11.378906 Z M 145.773438 10.503906 "/>
<path fill-rule="nonzero" fill="rgb(0%, 0%, 0%)" fill-opacity="1" d="M 152.386719 12.429688 C 152.605469 12.148438 153.074219 11.773438 153.980469 11.773438 C 154.730469 11.773438 155.886719 12.148438 155.886719 13.742188 C 155.886719 14.210938 155.792969 14.710938 155.667969 15.148438 C 155.542969 14.679688 155.042969 13.960938 153.886719 13.960938 C 153.167969 13.960938 152.417969 14.085938 151.449219 14.867188 C 150.542969 15.617188 150.480469 16.554688 150.480469 16.835938 C 150.480469 17.335938 150.699219 17.773438 151.167969 18.179688 C 151.667969 18.648438 152.261719 18.742188 152.886719 18.742188 C 155.855469 18.742188 156.855469 15.429688 156.855469 14.179688 C 156.855469 12.554688 155.667969 11.398438 153.980469 11.398438 C 152.136719 11.398438 151.699219 12.710938 151.699219 13.054688 C 151.699219 13.273438 151.855469 13.460938 152.105469 13.460938 C 152.480469 13.460938 152.730469 13.148438 152.730469 12.835938 C 152.730469 12.492188 152.386719 12.429688 152.386719 12.429688 Z M 152.917969 18.335938 C 151.792969 18.335938 151.449219 17.710938 151.449219 17.148438 C 151.449219 17.023438 151.574219 15.679688 152.230469 14.992188 C 152.917969 14.273438 153.699219 14.273438 153.949219 14.273438 C 155.011719 14.273438 155.480469 14.992188 155.480469 15.679688 C 155.480469 16.179688 154.917969 18.335938 152.917969 18.335938 Z M 152.917969 18.335938 "/>
<path fill-rule="nonzero" fill="rgb(0%, 0%, 0%)" fill-opacity="1" d="M 163.476562 11.617188 C 163.351562 11.429688 163.289062 11.398438 163.070312 11.398438 C 162.851562 11.398438 162.789062 11.429688 162.664062 11.617188 L 158.570312 18.273438 C 158.476562 18.367188 158.476562 18.398438 158.476562 18.398438 C 158.476562 18.523438 158.570312 18.523438 158.726562 18.523438 L 167.382812 18.523438 C 167.539062 18.523438 167.632812 18.523438 167.632812 18.398438 C 167.632812 18.398438 167.632812 18.367188 167.570312 18.273438 Z M 162.695312 12.398438 L 165.914062 17.617188 L 159.476562 17.617188 Z M 162.695312 12.398438 "/>
<path fill-rule="nonzero" fill="rgb(0%, 0%, 0%)" fill-opacity="1" d="M 174.410156 13.652344 L 173.972656 13.652344 C 173.972656 13.839844 173.847656 14.464844 173.691406 14.558594 C 173.628906 14.621094 172.785156 14.621094 172.628906 14.621094 L 170.691406 14.621094 C 171.347656 14.152344 172.066406 13.589844 172.660156 13.183594 C 173.566406 12.558594 174.410156 11.996094 174.410156 10.933594 C 174.410156 9.652344 173.191406 8.964844 171.785156 8.964844 C 170.441406 8.964844 169.441406 9.714844 169.441406 10.714844 C 169.441406 11.214844 169.878906 11.308594 170.035156 11.308594 C 170.285156 11.308594 170.597656 11.121094 170.597656 10.714844 C 170.597656 10.371094 170.347656 10.152344 170.035156 10.152344 C 170.316406 9.683594 170.910156 9.402344 171.566406 9.402344 C 172.535156 9.402344 173.347656 9.964844 173.347656 10.933594 C 173.347656 11.777344 172.753906 12.433594 172.003906 13.058594 L 169.566406 15.121094 C 169.472656 15.214844 169.441406 15.214844 169.441406 15.277344 L 169.441406 15.589844 L 174.066406 15.589844 Z M 174.410156 13.652344 "/>
<path fill="none" stroke-width="0.39848" stroke-linecap="butt" stroke-linejoin="miter" stroke="rgb(0%, 0%, 0%)" stroke-opacity="1" stroke-miterlimit="10" d="M -38.711998 8.2925 L -38.711998 -8.898907 " transform="matrix(2, 0, 0, -2, 138.673996, 57.459999)"/>
<path fill="none" stroke-width="0.39848" stroke-linecap="round" stroke-linejoin="round" stroke="rgb(0%, 0%, 0%)" stroke-opacity="1" stroke-miterlimit="10" d="M -2.070229 2.390764 C -1.695229 0.95717 -0.851479 0.277483 0.0000839233 0.000139236 C -0.851479 -0.277205 -1.695229 -0.956892 -2.070229 -2.390486 " transform="matrix(0, 2, 2, 0, 61.249722, 75.656082)"/>
<path fill-rule="nonzero" fill="rgb(0%, 0%, 0%)" fill-opacity="1" d="M 46.011719 55.160156 C 45.730469 54.691406 45.261719 54.316406 44.574219 54.316406 C 42.792969 54.316406 40.980469 56.285156 40.980469 58.285156 C 40.980469 59.660156 41.886719 60.597656 43.105469 60.597656 C 43.855469 60.597656 44.511719 60.191406 45.074219 59.628906 C 45.324219 60.472656 46.136719 60.597656 46.511719 60.597656 C 47.011719 60.597656 47.355469 60.316406 47.605469 59.878906 C 47.917969 59.316406 48.105469 58.535156 48.105469 58.472656 C 48.105469 58.285156 47.917969 58.285156 47.886719 58.285156 C 47.667969 58.285156 47.667969 58.347656 47.574219 58.722656 C 47.386719 59.410156 47.136719 60.222656 46.542969 60.222656 C 46.199219 60.222656 46.074219 59.910156 46.074219 59.535156 C 46.074219 59.316406 46.199219 58.785156 46.292969 58.441406 C 46.386719 58.066406 46.542969 57.503906 46.605469 57.191406 L 46.886719 56.128906 C 46.980469 55.753906 47.136719 55.097656 47.136719 55.035156 C 47.136719 54.722656 46.886719 54.597656 46.667969 54.597656 C 46.417969 54.597656 46.105469 54.753906 46.011719 55.160156 Z M 45.136719 58.722656 C 45.042969 59.128906 44.730469 59.410156 44.417969 59.660156 C 44.292969 59.785156 43.730469 60.222656 43.136719 60.222656 C 42.605469 60.222656 42.105469 59.847656 42.105469 58.878906 C 42.105469 58.128906 42.511719 56.597656 42.855469 56.035156 C 43.480469 54.910156 44.199219 54.722656 44.574219 54.722656 C 45.542969 54.722656 45.824219 55.785156 45.824219 55.941406 C 45.824219 55.972656 45.792969 56.097656 45.792969 56.128906 Z M 45.136719 58.722656 "/>
<path fill-rule="nonzero" fill="rgb(0%, 0%, 0%)" fill-opacity="1" d="M 52.75 56.121094 C 52.75 55.839844 52.71875 55.839844 52.375 55.839844 C 51.6875 56.464844 50.5625 56.464844 50.375 56.464844 L 50.21875 56.464844 L 50.21875 56.902344 L 50.375 56.902344 C 50.59375 56.902344 51.25 56.871094 51.84375 56.621094 L 51.84375 61.621094 C 51.84375 61.902344 51.84375 62.027344 50.78125 62.027344 L 50.28125 62.027344 L 50.28125 62.464844 C 50.8125 62.433594 51.71875 62.433594 52.28125 62.433594 C 52.875 62.433594 53.75 62.433594 54.3125 62.464844 L 54.3125 62.027344 L 53.8125 62.027344 C 52.75 62.027344 52.75 61.902344 52.75 61.621094 Z M 52.75 56.121094 "/>
<path fill="none" stroke-width="0.39848" stroke-linecap="butt" stroke-linejoin="miter" stroke="rgb(0%, 0%, 0%)" stroke-opacity="1" stroke-miterlimit="10" d="M 42.580971 9.288593 L 42.580971 -8.844219 " transform="matrix(2, 0, 0, -2, 138.673996, 57.459999)"/>
<path fill="none" stroke-width="0.39848" stroke-linecap="round" stroke-linejoin="round" stroke="rgb(0%, 0%, 0%)" stroke-opacity="1" stroke-miterlimit="10" d="M -2.07346 2.390213 C -1.694553 0.956619 -0.850803 0.280838 0.000759125 -0.000411987 C -0.850803 -0.277756 -1.694553 -0.957443 -2.07346 -2.391037 " transform="matrix(0, 2, 2, 0, 223.836761, 75.545357)"/>
<path fill-rule="nonzero" fill="rgb(0%, 0%, 0%)" fill-opacity="1" d="M 233.65625 51.722656 C 233.5625 51.472656 233.53125 51.410156 233.375 51.410156 C 233.21875 51.410156 233.15625 51.535156 233.0625 51.691406 L 229.90625 60.035156 C 229.71875 60.472656 229.4375 60.691406 229.0625 60.722656 C 229 60.722656 228.78125 60.753906 228.78125 60.972656 C 228.78125 61.222656 229 61.222656 229.25 61.222656 L 231.46875 61.222656 C 231.71875 61.222656 231.9375 61.222656 231.9375 60.972656 C 231.9375 60.753906 231.75 60.753906 231.625 60.722656 C 231.4375 60.722656 231.09375 60.660156 231.09375 59.816406 C 231.09375 59.378906 231.1875 58.910156 231.28125 58.472656 L 234.34375 58.472656 C 234.84375 59.847656 234.84375 60.066406 234.875 60.347656 C 234.53125 60.691406 234.15625 60.722656 234 60.722656 C 233.84375 60.753906 233.75 60.847656 233.75 60.972656 C 233.75 61.222656 233.96875 61.222656 234.21875 61.222656 L 237.84375 61.222656 C 238.09375 61.222656 238.34375 61.222656 238.34375 60.972656 C 238.34375 60.785156 238.15625 60.753906 238.03125 60.722656 C 237.71875 60.691406 237.46875 60.441406 237.1875 59.816406 Z M 231.4375 58.003906 C 231.75 56.753906 232.1875 55.566406 232.65625 54.410156 C 233.09375 55.347656 233.9375 57.347656 234.15625 58.003906 Z M 230.59375 59.535156 L 230.625 59.566406 L 230.625 59.691406 C 230.59375 59.722656 230.59375 59.753906 230.59375 59.816406 C 230.59375 59.878906 230.59375 60.410156 230.8125 60.722656 L 230.0625 60.722656 C 230.21875 60.535156 230.28125 60.378906 230.375 60.160156 Z M 232.875 53.660156 L 233.375 52.316406 L 236.75 60.003906 C 236.8125 60.160156 236.96875 60.472656 237.15625 60.722656 L 235.1875 60.722656 C 235.3125 60.660156 235.375 60.441406 235.375 60.285156 C 235.375 59.441406 234.15625 56.597656 233.5625 55.222656 Z M 232.875 53.660156 "/>
<path fill-rule="nonzero" fill="rgb(0%, 0%, 0%)" fill-opacity="1" d="M 242.574219 56.871094 C 242.574219 56.589844 242.542969 56.589844 242.199219 56.589844 C 241.511719 57.214844 240.386719 57.214844 240.199219 57.214844 L 240.042969 57.214844 L 240.042969 57.652344 L 240.199219 57.652344 C 240.417969 57.652344 241.074219 57.621094 241.667969 57.371094 L 241.667969 62.371094 C 241.667969 62.652344 241.667969 62.777344 240.605469 62.777344 L 240.105469 62.777344 L 240.105469 63.214844 C 240.636719 63.183594 241.542969 63.183594 242.105469 63.183594 C 242.699219 63.183594 243.574219 63.183594 244.136719 63.214844 L 244.136719 62.777344 L 243.636719 62.777344 C 242.574219 62.777344 242.574219 62.652344 242.574219 62.371094 Z M 242.574219 56.871094 "/>
<path fill="none" stroke-width="0.39848" stroke-linecap="butt" stroke-linejoin="miter" stroke="rgb(0%, 0%, 0%)" stroke-opacity="1" stroke-miterlimit="10" d="M -24.040123 -17.465313 L 30.74894 -17.465313 " transform="matrix(2, 0, 0, -2, 138.673996, 57.459999)"/>
<path fill="none" stroke-width="0.39848" stroke-linecap="round" stroke-linejoin="round" stroke="rgb(0%, 0%, 0%)" stroke-opacity="1" stroke-miterlimit="10" d="M -2.071724 2.392799 C -1.692818 0.955299 -0.849068 0.279518 -0.00141144 -0.00173187 C -0.849068 -0.279076 -1.692818 -0.954857 -2.071724 -2.392357 " transform="matrix(2, 0, 0, -2, 200.573135, 92.387161)"/>
<path fill-rule="nonzero" fill="rgb(0%, 0%, 0%)" fill-opacity="1" d="M 131.714844 100.101562 C 132.871094 99.601562 133.371094 99.414062 133.714844 99.226562 C 133.996094 99.132812 134.121094 99.070312 134.121094 98.789062 C 134.121094 98.570312 133.933594 98.351562 133.683594 98.351562 C 133.589844 98.351562 133.558594 98.351562 133.402344 98.476562 L 131.496094 99.757812 L 131.714844 97.695312 C 131.746094 97.445312 131.714844 97.101562 131.277344 97.101562 C 131.121094 97.101562 130.839844 97.195312 130.839844 97.507812 C 130.839844 97.632812 130.902344 98.039062 130.933594 98.195312 C 130.964844 98.414062 131.058594 99.445312 131.089844 99.757812 L 129.183594 98.476562 C 129.058594 98.414062 129.027344 98.351562 128.902344 98.351562 C 128.621094 98.351562 128.464844 98.570312 128.464844 98.789062 C 128.464844 99.070312 128.621094 99.164062 128.746094 99.195312 L 130.839844 100.101562 C 129.714844 100.601562 129.183594 100.789062 128.839844 100.945312 C 128.589844 101.070312 128.464844 101.132812 128.464844 101.382812 C 128.464844 101.632812 128.621094 101.820312 128.902344 101.820312 C 128.996094 101.820312 129.027344 101.820312 129.183594 101.695312 L 131.089844 100.445312 L 130.839844 102.664062 C 130.839844 102.976562 131.121094 103.101562 131.277344 103.101562 C 131.464844 103.101562 131.714844 102.976562 131.714844 102.664062 C 131.714844 102.539062 131.652344 102.132812 131.652344 102.007812 C 131.621094 101.757812 131.527344 100.757812 131.496094 100.445312 L 133.152344 101.539062 C 133.527344 101.820312 133.558594 101.820312 133.683594 101.820312 C 133.933594 101.820312 134.121094 101.632812 134.121094 101.382812 C 134.121094 101.101562 133.933594 101.039062 133.808594 100.976562 Z M 131.714844 100.101562 "/>
<path fill-rule="nonzero" fill="rgb(0%, 0%, 0%)" fill-opacity="1" d="M 140.035156 103.535156 L 138.128906 99.003906 C 138.035156 98.785156 138.035156 98.785156 137.753906 98.785156 L 135.910156 98.785156 C 135.722656 98.785156 135.566406 98.785156 135.566406 98.972656 C 135.566406 99.160156 135.753906 99.160156 135.816406 99.160156 C 135.941406 99.160156 136.191406 99.160156 136.410156 99.253906 L 136.410156 104.566406 C 136.410156 104.785156 136.410156 105.222656 135.722656 105.285156 C 135.535156 105.285156 135.535156 105.441406 135.535156 105.441406 C 135.535156 105.628906 135.722656 105.628906 135.878906 105.628906 L 137.441406 105.628906 C 137.597656 105.628906 137.753906 105.628906 137.753906 105.441406 C 137.753906 105.347656 137.691406 105.285156 137.597656 105.285156 C 136.847656 105.222656 136.847656 104.816406 136.847656 104.566406 L 136.847656 99.597656 L 139.285156 105.410156 C 139.347656 105.597656 139.441406 105.628906 139.472656 105.628906 C 139.597656 105.628906 139.628906 105.535156 139.691406 105.441406 L 142.128906 99.597656 L 142.128906 104.566406 C 142.128906 104.785156 142.128906 105.222656 141.472656 105.285156 C 141.285156 105.285156 141.285156 105.441406 141.285156 105.441406 C 141.285156 105.628906 141.441406 105.628906 141.597656 105.628906 L 144.285156 105.628906 C 144.441406 105.628906 144.597656 105.628906 144.597656 105.441406 C 144.597656 105.347656 144.535156 105.285156 144.441406 105.285156 C 143.660156 105.222656 143.660156 104.816406 143.660156 104.566406 L 143.660156 99.847656 C 143.660156 99.660156 143.660156 99.222656 144.347656 99.160156 C 144.441406 99.128906 144.535156 99.097656 144.535156 98.972656 C 144.535156 98.785156 144.378906 98.785156 144.222656 98.785156 L 142.285156 98.785156 C 142.035156 98.785156 142.003906 98.785156 141.910156 99.003906 Z M 139.722656 103.722656 C 139.816406 103.878906 139.816406 103.878906 139.941406 103.941406 L 139.503906 105.003906 L 139.472656 105.003906 L 137.191406 99.566406 C 137.160156 99.441406 137.066406 99.253906 136.941406 99.160156 L 137.816406 99.160156 Z M 136.722656 105.285156 L 136.535156 105.285156 C 136.566406 105.253906 136.597656 105.222656 136.597656 105.191406 C 136.628906 105.191406 136.628906 105.191406 136.628906 105.160156 Z M 142.472656 99.160156 L 143.535156 99.160156 C 143.316406 99.410156 143.316406 99.660156 143.316406 99.847656 L 143.316406 104.597656 C 143.316406 104.785156 143.316406 105.035156 143.566406 105.285156 L 142.253906 105.285156 C 142.472656 105.035156 142.472656 104.785156 142.472656 104.597656 Z M 142.472656 99.160156 "/>
<path fill-rule="nonzero" fill="rgb(0%, 0%, 0%)" fill-opacity="1" d="M 153.757812 102.769531 C 153.882812 102.707031 153.976562 102.613281 153.976562 102.488281 C 153.976562 102.332031 153.851562 102.207031 153.726562 102.207031 C 153.664062 102.207031 153.601562 102.207031 153.507812 102.269531 L 146.601562 105.394531 C 146.476562 105.457031 146.382812 105.550781 146.382812 105.707031 C 146.382812 105.832031 146.476562 105.925781 146.601562 105.988281 L 153.476562 109.113281 C 153.632812 109.207031 153.695312 109.207031 153.726562 109.207031 C 153.851562 109.207031 153.976562 109.050781 153.976562 108.925781 C 153.976562 108.769531 153.882812 108.675781 153.726562 108.613281 L 147.320312 105.707031 Z M 153.570312 111.550781 C 153.726562 111.550781 153.976562 111.550781 153.976562 111.269531 C 153.976562 110.988281 153.726562 110.988281 153.570312 110.988281 L 146.820312 110.988281 C 146.664062 110.988281 146.382812 110.988281 146.382812 111.269531 C 146.382812 111.550781 146.664062 111.550781 146.820312 111.550781 Z M 153.570312 111.550781 "/>
<path fill-rule="nonzero" fill="rgb(0%, 0%, 0%)" fill-opacity="1" d="M 159.550781 103.019531 C 159.550781 102.738281 159.519531 102.738281 159.175781 102.738281 C 158.488281 103.363281 157.363281 103.363281 157.175781 103.363281 L 157.019531 103.363281 L 157.019531 103.800781 L 157.175781 103.800781 C 157.394531 103.800781 158.050781 103.769531 158.644531 103.519531 L 158.644531 108.519531 C 158.644531 108.800781 158.644531 108.925781 157.582031 108.925781 L 157.082031 108.925781 L 157.082031 109.363281 C 157.613281 109.332031 158.519531 109.332031 159.082031 109.332031 C 159.675781 109.332031 160.550781 109.332031 161.113281 109.363281 L 161.113281 108.925781 L 160.613281 108.925781 C 159.550781 108.925781 159.550781 108.800781 159.550781 108.519531 Z M 159.550781 103.019531 "/>
</svg>
