<?xml version="1.0" encoding="UTF-8"?>
<svg xmlns="http://www.w3.org/2000/svg" xmlns:xlink="http://www.w3.org/1999/xlink" width="264.959991" height="114.540001" viewBox="0 0 264.959991 114.540001">
<path fill-rule="nonzero" fill="rgb(0%, 0%, 0%)" fill-opacity="1" d="M 23.492188 17.613281 L 23.929688 16.957031 L 21.335938 26.863281 C 21.210938 27.332031 21.117188 27.675781 20.960938 27.957031 C 20.804688 28.425781 20.398438 28.925781 19.960938 29.113281 C 19.742188 29.207031 19.429688 29.269531 19.117188 29.269531 L 19.023438 29.550781 L 24.773438 29.550781 L 24.867188 29.269531 C 24.242188 29.269531 23.742188 29.207031 23.492188 29.019531 C 23.210938 28.800781 23.148438 28.363281 23.148438 27.957031 C 23.148438 27.644531 23.210938 27.207031 23.367188 26.675781 L 25.335938 19.207031 C 25.492188 18.582031 25.617188 18.082031 25.742188 17.707031 C 25.960938 17.113281 26.398438 16.457031 26.835938 16.144531 C 27.054688 16.019531 27.335938 15.988281 27.679688 15.988281 L 27.773438 15.707031 L 24.179688 15.707031 L 17.492188 26.425781 L 17.210938 26.425781 L 15.929688 15.707031 L 11.648438 15.707031 L 11.554688 15.988281 C 12.179688 15.988281 12.585938 15.988281 12.804688 16.113281 C 13.085938 16.238281 13.429688 16.738281 13.429688 17.113281 C 13.429688 17.425781 13.367188 17.925781 13.179688 18.582031 L 10.992188 26.863281 C 10.835938 27.488281 10.335938 28.175781 9.867188 28.582031 C 9.429688 28.988281 8.742188 29.269531 8.179688 29.269531 L 8.117188 29.550781 L 13.085938 29.550781 L 13.179688 29.269531 C 12.710938 29.238281 12.179688 29.144531 11.960938 28.832031 C 11.742188 28.519531 11.429688 27.988281 11.429688 27.488281 C 11.429688 27.207031 11.429688 26.925781 11.492188 26.675781 L 13.898438 17.613281 L 14.023438 17.175781 L 15.492188 29.550781 L 16.085938 29.550781 Z M 23.492188 17.613281 "/>
<path fill-rule="nonzero" fill="rgb(0%, 0%, 0%)" fill-opacity="1" d="M 34.058594 29.882812 L 33.558594 29.882812 C 33.527344 30.226562 33.371094 31.070312 33.183594 31.226562 C 33.058594 31.289062 31.933594 31.289062 31.746094 31.289062 L 29.058594 31.289062 C 30.589844 29.945312 31.089844 29.539062 31.964844 28.851562 C 33.058594 28.007812 34.058594 27.101562 34.058594 25.726562 C 34.058594 23.976562 32.527344 22.882812 30.652344 22.882812 C 28.839844 22.882812 27.621094 24.164062 27.621094 25.476562 C 27.621094 26.226562 28.246094 26.320312 28.402344 26.320312 C 28.746094 26.320312 29.183594 26.070312 29.183594 25.539062 C 29.183594 25.289062 29.058594 24.757812 28.308594 24.757812 C 28.777344 23.726562 29.746094 23.414062 30.433594 23.414062 C 31.902344 23.414062 32.652344 24.539062 32.652344 25.726562 C 32.652344 26.976562 31.746094 27.976562 31.277344 28.507812 L 27.777344 31.976562 C 27.621094 32.101562 27.621094 32.132812 27.621094 32.539062 L 33.621094 32.539062 Z M 34.058594 29.882812 "/>
<path fill-rule="nonzero" fill="rgb(0%, 0%, 0%)" fill-opacity="1" d="M 51.988281 28.863281 L 47.550781 24.425781 L 51.988281 19.988281 L 51.207031 19.175781 L 46.769531 23.644531 L 42.332031 19.175781 L 41.550781 19.988281 L 45.957031 24.425781 L 41.550781 28.863281 L 42.332031 29.644531 L 46.769531 25.207031 L 51.207031 29.644531 Z M 51.988281 28.863281 "/>
<path fill-rule="nonzero" fill="rgb(0%, 0%, 0%)" fill-opacity="1" d="M 67.753906 20.957031 C 67.753906 18.082031 66.878906 15.769531 64.722656 15.769531 C 63.035156 15.769531 61.222656 17.363281 61.222656 18.238281 C 61.222656 18.894531 61.753906 19.175781 62.160156 19.175781 C 62.566406 19.175781 62.816406 18.832031 62.878906 18.769531 C 62.816406 18.738281 62.691406 18.550781 62.691406 18.269531 C 62.691406 18.082031 63.035156 16.363281 64.753906 16.363281 C 66.191406 16.363281 66.503906 18.207031 66.503906 19.832031 C 66.503906 21.050781 66.347656 22.113281 66.347656 22.144531 L 66.316406 22.144531 C 66.316406 22.113281 65.535156 20.894531 63.972656 20.894531 C 59.972656 20.894531 58.316406 24.769531 58.316406 26.832031 C 58.316406 28.675781 59.410156 29.863281 61.628906 29.863281 C 65.066406 29.863281 67.753906 26.394531 67.753906 20.957031 Z M 65.472656 23.207031 C 65.472656 23.738281 64.972656 29.394531 61.753906 29.394531 C 60.628906 29.394531 60.128906 28.738281 60.128906 27.488281 C 60.128906 26.207031 60.941406 21.363281 63.816406 21.363281 C 64.941406 21.363281 65.472656 22.019531 65.472656 23.207031 Z M 65.472656 23.207031 "/>
<path fill-rule="nonzero" fill="rgb(0%, 0%, 0%)" fill-opacity="1" d="M 73.148438 25.832031 L 73.929688 23.050781 L 75.210938 23.050781 C 77.929688 23.050781 80.210938 22.207031 81.210938 20.519531 C 81.554688 19.988281 81.710938 19.425781 81.710938 18.769531 C 81.710938 17.800781 81.273438 17.082031 80.398438 16.519531 C 79.554688 15.988281 78.335938 15.707031 76.804688 15.707031 L 71.804688 15.707031 L 71.710938 15.988281 C 72.085938 15.988281 72.367188 16.019531 72.617188 16.050781 C 73.179688 16.144531 73.460938 16.769531 73.460938 17.394531 C 73.460938 17.738281 73.398438 18.175781 73.242188 18.738281 L 71.085938 26.675781 C 70.898438 27.425781 70.585938 28.332031 70.210938 28.707031 C 69.867188 29.019531 69.304688 29.269531 68.742188 29.269531 L 68.648438 29.550781 L 74.617188 29.550781 L 74.710938 29.269531 C 73.335938 29.269531 72.742188 28.519531 72.742188 27.800781 C 72.742188 27.644531 72.804688 27.269531 72.898438 26.925781 C 72.960938 26.613281 73.023438 26.238281 73.148438 25.832031 Z M 74.023438 22.644531 L 75.273438 17.800781 C 75.492188 17.144531 75.648438 16.363281 76.242188 16.144531 C 76.367188 16.113281 76.585938 16.113281 76.804688 16.113281 C 78.742188 16.113281 79.710938 17.238281 79.710938 18.675781 C 79.710938 19.207031 79.585938 19.675781 79.367188 20.082031 C 78.585938 21.394531 76.960938 22.644531 74.929688 22.644531 Z M 74.023438 22.644531 "/>
<path fill-rule="nonzero" fill="rgb(0%, 0%, 0%)" fill-opacity="1" d="M 89.757812 15.269531 C 86.882812 17.144531 84.851562 20.363281 84.851562 24.425781 C 84.851562 28.144531 86.945312 31.894531 89.695312 33.582031 L 89.945312 33.269531 C 87.320312 31.175781 86.539062 28.769531 86.539062 24.363281 C 86.539062 19.925781 87.382812 17.644531 89.945312 15.582031 Z M 89.757812 15.269531 "/>
<path fill-rule="nonzero" fill="rgb(0%, 0%, 0%)" fill-opacity="1" d="M 100.253906 26.082031 L 99.785156 26.082031 C 99.660156 26.675781 99.535156 27.550781 99.316406 27.863281 C 99.191406 28.019531 97.878906 28.019531 97.441406 28.019531 L 93.847656 28.019531 L 95.972656 25.957031 C 99.066406 23.207031 100.253906 22.144531 100.253906 20.144531 C 100.253906 17.863281 98.472656 16.269531 96.035156 16.269531 C 93.785156 16.269531 92.316406 18.113281 92.316406 19.894531 C 92.316406 20.988281 93.316406 20.988281 93.378906 20.988281 C 93.722656 20.988281 94.410156 20.769531 94.410156 19.925781 C 94.410156 19.425781 94.035156 18.894531 93.347656 18.894531 C 93.191406 18.894531 93.160156 18.894531 93.097656 18.925781 C 93.535156 17.613281 94.628906 16.894531 95.785156 16.894531 C 97.597656 16.894531 98.441406 18.519531 98.441406 20.144531 C 98.441406 21.738281 97.472656 23.300781 96.347656 24.550781 L 92.535156 28.800781 C 92.316406 29.019531 92.316406 29.082031 92.316406 29.550781 L 99.722656 29.550781 Z M 100.253906 26.082031 "/>
<path fill-rule="nonzero" fill="rgb(0%, 0%, 0%)" fill-opacity="1" d="M 102.03125 15.269531 L 101.875 15.582031 C 104.4375 17.644531 105.25 19.925781 105.25 24.363281 C 105.25 28.769531 104.5 31.175781 101.875 33.269531 L 102.09375 33.582031 C 104.84375 31.894531 106.96875 28.144531 106.96875 24.425781 C 106.96875 20.363281 104.9375 17.144531 102.03125 15.269531 Z M 102.03125 15.269531 "/>
<path fill-rule="nonzero" fill="rgb(0%, 0%, 0%)" fill-opacity="1" d="M 188.8125 17.613281 L 189.25 16.957031 L 186.65625 26.863281 C 186.53125 27.332031 186.4375 27.675781 186.28125 27.957031 C 186.125 28.425781 185.71875 28.925781 185.28125 29.113281 C 185.0625 29.207031 184.75 29.269531 184.4375 29.269531 L 184.34375 29.550781 L 190.09375 29.550781 L 190.1875 29.269531 C 189.5625 29.269531 189.0625 29.207031 188.8125 29.019531 C 188.53125 28.800781 188.46875 28.363281 188.46875 27.957031 C 188.46875 27.644531 188.53125 27.207031 188.6875 26.675781 L 190.65625 19.207031 C 190.8125 18.582031 190.9375 18.082031 191.0625 17.707031 C 191.28125 17.113281 191.71875 16.457031 192.15625 16.144531 C 192.375 16.019531 192.65625 15.988281 193 15.988281 L 193.09375 15.707031 L 189.5 15.707031 L 182.8125 26.425781 L 182.53125 26.425781 L 181.25 15.707031 L 176.96875 15.707031 L 176.875 15.988281 C 177.5 15.988281 177.90625 15.988281 178.125 16.113281 C 178.40625 16.238281 178.75 16.738281 178.75 17.113281 C 178.75 17.425781 178.6875 17.925781 178.5 18.582031 L 176.3125 26.863281 C 176.15625 27.488281 175.65625 28.175781 175.1875 28.582031 C 174.75 28.988281 174.0625 29.269531 173.5 29.269531 L 173.4375 29.550781 L 178.40625 29.550781 L 178.5 29.269531 C 178.03125 29.238281 177.5 29.144531 177.28125 28.832031 C 177.0625 28.519531 176.75 27.988281 176.75 27.488281 C 176.75 27.207031 176.75 26.925781 176.8125 26.675781 L 179.21875 17.613281 L 179.34375 17.175781 L 180.8125 29.550781 L 181.40625 29.550781 Z M 188.8125 17.613281 "/>
<path fill-rule="nonzero" fill="rgb(0%, 0%, 0%)" fill-opacity="1" d="M 199.382812 29.882812 L 198.882812 29.882812 C 198.851562 30.226562 198.695312 31.070312 198.507812 31.226562 C 198.382812 31.289062 197.257812 31.289062 197.070312 31.289062 L 194.382812 31.289062 C 195.914062 29.945312 196.414062 29.539062 197.289062 28.851562 C 198.382812 28.007812 199.382812 27.101562 199.382812 25.726562 C 199.382812 23.976562 197.851562 22.882812 195.976562 22.882812 C 194.164062 22.882812 192.945312 24.164062 192.945312 25.476562 C 192.945312 26.226562 193.570312 26.320312 193.726562 26.320312 C 194.070312 26.320312 194.507812 26.070312 194.507812 25.539062 C 194.507812 25.289062 194.382812 24.757812 193.632812 24.757812 C 194.101562 23.726562 195.070312 23.414062 195.757812 23.414062 C 197.226562 23.414062 197.976562 24.539062 197.976562 25.726562 C 197.976562 26.976562 197.070312 27.976562 196.601562 28.507812 L 193.101562 31.976562 C 192.945312 32.101562 192.945312 32.132812 192.945312 32.539062 L 198.945312 32.539062 Z M 199.382812 29.882812 "/>
<path fill-rule="nonzero" fill="rgb(0%, 0%, 0%)" fill-opacity="1" d="M 217.308594 28.863281 L 212.871094 24.425781 L 217.308594 19.988281 L 216.527344 19.175781 L 212.089844 23.644531 L 207.652344 19.175781 L 206.871094 19.988281 L 211.277344 24.425781 L 206.871094 28.863281 L 207.652344 29.644531 L 212.089844 25.207031 L 216.527344 29.644531 Z M 217.308594 28.863281 "/>
<path fill-rule="nonzero" fill="rgb(0%, 0%, 0%)" fill-opacity="1" d="M 233.078125 20.957031 C 233.078125 18.082031 232.203125 15.769531 230.046875 15.769531 C 228.359375 15.769531 226.546875 17.363281 226.546875 18.238281 C 226.546875 18.894531 227.078125 19.175781 227.484375 19.175781 C 227.890625 19.175781 228.140625 18.832031 228.203125 18.769531 C 228.140625 18.738281 228.015625 18.550781 228.015625 18.269531 C 228.015625 18.082031 228.359375 16.363281 230.078125 16.363281 C 231.515625 16.363281 231.828125 18.207031 231.828125 19.832031 C 231.828125 21.050781 231.671875 22.113281 231.671875 22.144531 L 231.640625 22.144531 C 231.640625 22.113281 230.859375 20.894531 229.296875 20.894531 C 225.296875 20.894531 223.640625 24.769531 223.640625 26.832031 C 223.640625 28.675781 224.734375 29.863281 226.953125 29.863281 C 230.390625 29.863281 233.078125 26.394531 233.078125 20.957031 Z M 230.796875 23.207031 C 230.796875 23.738281 230.296875 29.394531 227.078125 29.394531 C 225.953125 29.394531 225.453125 28.738281 225.453125 27.488281 C 225.453125 26.207031 226.265625 21.363281 229.140625 21.363281 C 230.265625 21.363281 230.796875 22.019531 230.796875 23.207031 Z M 230.796875 23.207031 "/>
<path fill-rule="nonzero" fill="rgb(0%, 0%, 0%)" fill-opacity="1" d="M 246.597656 29.550781 L 241.035156 16.082031 L 240.691406 16.082031 L 234.753906 29.550781 Z M 244.285156 28.707031 L 236.066406 28.707031 L 240.347656 19.050781 Z M 244.285156 28.707031 "/>
<path fill-rule="nonzero" fill="rgb(0%, 0%, 0%)" fill-opacity="1" d="M 254.441406 19.660156 L 253.941406 19.660156 C 253.910156 20.003906 253.753906 20.847656 253.566406 21.003906 C 253.441406 21.066406 252.316406 21.066406 252.128906 21.066406 L 249.441406 21.066406 C 250.972656 19.722656 251.472656 19.316406 252.347656 18.628906 C 253.441406 17.785156 254.441406 16.878906 254.441406 15.503906 C 254.441406 13.753906 252.910156 12.660156 251.035156 12.660156 C 249.222656 12.660156 248.003906 13.941406 248.003906 15.253906 C 248.003906 16.003906 248.628906 16.097656 248.785156 16.097656 C 249.128906 16.097656 249.566406 15.847656 249.566406 15.316406 C 249.566406 15.066406 249.441406 14.535156 248.691406 14.535156 C 249.160156 13.503906 250.128906 13.191406 250.816406 13.191406 C 252.285156 13.191406 253.035156 14.316406 253.035156 15.503906 C 253.035156 16.753906 252.128906 17.753906 251.660156 18.285156 L 248.160156 21.753906 C 248.003906 21.878906 248.003906 21.910156 248.003906 22.316406 L 254.003906 22.316406 Z M 254.441406 19.660156 "/>
<path fill-rule="nonzero" fill="rgb(0%, 0%, 0%)" fill-opacity="1" d="M 54.449219 85.902344 L 54.886719 85.246094 L 52.292969 95.152344 C 52.167969 95.621094 52.074219 95.964844 51.917969 96.246094 C 51.761719 96.714844 51.355469 97.214844 50.917969 97.402344 C 50.699219 97.496094 50.386719 97.558594 50.074219 97.558594 L 49.980469 97.839844 L 55.730469 97.839844 L 55.824219 97.558594 C 55.199219 97.558594 54.699219 97.496094 54.449219 97.308594 C 54.167969 97.089844 54.105469 96.652344 54.105469 96.246094 C 54.105469 95.933594 54.167969 95.496094 54.324219 94.964844 L 56.292969 87.496094 C 56.449219 86.871094 56.574219 86.371094 56.699219 85.996094 C 56.917969 85.402344 57.355469 84.746094 57.792969 84.433594 C 58.011719 84.308594 58.292969 84.277344 58.636719 84.277344 L 58.730469 83.996094 L 55.136719 83.996094 L 48.449219 94.714844 L 48.167969 94.714844 L 46.886719 83.996094 L 42.605469 83.996094 L 42.511719 84.277344 C 43.136719 84.277344 43.542969 84.277344 43.761719 84.402344 C 44.042969 84.527344 44.386719 85.027344 44.386719 85.402344 C 44.386719 85.714844 44.324219 86.214844 44.136719 86.871094 L 41.949219 95.152344 C 41.792969 95.777344 41.292969 96.464844 40.824219 96.871094 C 40.386719 97.277344 39.699219 97.558594 39.136719 97.558594 L 39.074219 97.839844 L 44.042969 97.839844 L 44.136719 97.558594 C 43.667969 97.527344 43.136719 97.433594 42.917969 97.121094 C 42.699219 96.808594 42.386719 96.277344 42.386719 95.777344 C 42.386719 95.496094 42.386719 95.214844 42.449219 94.964844 L 44.855469 85.902344 L 44.980469 85.464844 L 46.449219 97.839844 L 47.042969 97.839844 Z M 54.449219 85.902344 "/>
<path fill-rule="nonzero" fill="rgb(0%, 0%, 0%)" fill-opacity="1" d="M 66.894531 99.796875 L 66.894531 98.953125 L 60.832031 96.140625 L 66.894531 93.296875 L 66.894531 92.484375 L 59.457031 96.015625 L 59.457031 96.296875 Z M 66.894531 101.671875 L 66.894531 100.890625 L 59.457031 100.890625 L 59.457031 101.671875 Z M 66.894531 101.671875 "/>
<path fill-rule="nonzero" fill="rgb(0%, 0%, 0%)" fill-opacity="1" d="M 75.550781 100.828125 L 75.550781 100.296875 L 74.988281 100.296875 C 73.550781 100.296875 73.550781 100.109375 73.550781 99.640625 L 73.550781 91.578125 C 73.550781 91.203125 73.519531 91.171875 73.113281 91.171875 C 72.175781 92.109375 70.863281 92.109375 70.269531 92.109375 L 70.269531 92.640625 C 70.613281 92.640625 71.582031 92.640625 72.363281 92.234375 L 72.363281 99.640625 C 72.363281 100.109375 72.363281 100.296875 70.925781 100.296875 L 70.363281 100.296875 L 70.363281 100.828125 L 72.957031 100.765625 Z M 75.550781 100.828125 "/>
<path fill-rule="nonzero" fill="rgb(0%, 0%, 0%)" fill-opacity="1" d="M 217.839844 97.839844 L 217.839844 84.652344 L 214.933594 84.652344 L 210.746094 96.308594 L 210.683594 96.308594 L 206.683594 84.652344 L 203.589844 84.652344 L 203.589844 97.839844 L 204.464844 97.839844 L 204.464844 88.496094 L 204.496094 88.496094 L 207.746094 97.839844 L 211.121094 97.839844 L 214.496094 88.433594 L 214.527344 88.433594 L 214.527344 97.839844 Z M 216.964844 96.964844 L 215.402344 96.964844 L 215.402344 85.527344 L 216.964844 85.527344 Z M 210.027344 96.964844 L 208.371094 96.964844 L 204.808594 86.746094 L 204.402344 85.527344 L 205.996094 85.527344 Z M 210.027344 96.964844 "/>
<path fill-rule="nonzero" fill="rgb(0%, 0%, 0%)" fill-opacity="1" d="M 225.695312 100.828125 L 225.695312 100.296875 L 225.132812 100.296875 C 223.695312 100.296875 223.695312 100.109375 223.695312 99.640625 L 223.695312 91.578125 C 223.695312 91.203125 223.664062 91.171875 223.257812 91.171875 C 222.320312 92.109375 221.007812 92.109375 220.414062 92.109375 L 220.414062 92.640625 C 220.757812 92.640625 221.726562 92.640625 222.507812 92.234375 L 222.507812 99.640625 C 222.507812 100.109375 222.507812 100.296875 221.070312 100.296875 L 220.507812 100.296875 L 220.507812 100.828125 L 223.101562 100.765625 Z M 225.695312 100.828125 "/>
<path fill="none" stroke-width="0.5579" stroke-linecap="butt" stroke-linejoin="miter" stroke="rgb(0%, 0%, 0%)" stroke-opacity="1" stroke-miterlimit="10" d="M -7.291779 16.454157 L 15.661346 16.454157 " transform="matrix(2, 0, 0, -2, 132.481995, 57.338001)"/>
<path fill="none" stroke-width="0.5579" stroke-linecap="round" stroke-linejoin="round" stroke="rgb(0%, 0%, 0%)" stroke-opacity="1" stroke-miterlimit="10" d="M -2.901718 3.348172 C -2.370468 1.34036 -1.190781 0.391141 0.00062561 0.000515938 C -1.190781 -0.390109 -2.370468 -1.339328 -2.901718 -3.34714 " transform="matrix(2, 0, 0, -2, 164.365936, 24.430719)"/>
<path fill-rule="nonzero" fill="rgb(0%, 0%, 0%)" fill-opacity="1" d="M 118.792969 14.304688 L 118.792969 13.773438 C 117.949219 13.773438 117.824219 13.773438 117.824219 13.179688 L 117.824219 7.898438 L 115.667969 8.054688 L 115.667969 8.585938 C 116.605469 8.585938 116.730469 8.679688 116.730469 9.367188 L 116.730469 13.148438 C 116.730469 13.773438 116.574219 13.773438 115.636719 13.773438 L 115.636719 14.304688 C 115.636719 14.304688 116.699219 14.242188 117.261719 14.242188 C 117.761719 14.242188 118.292969 14.273438 118.792969 14.304688 Z M 118.011719 5.554688 C 118.011719 5.085938 117.636719 4.710938 117.167969 4.710938 C 116.699219 4.710938 116.355469 5.117188 116.355469 5.554688 C 116.355469 5.992188 116.699219 6.398438 117.167969 6.398438 C 117.667969 6.398438 118.011719 5.992188 118.011719 5.554688 Z M 118.011719 5.554688 "/>
<path fill-rule="nonzero" fill="rgb(0%, 0%, 0%)" fill-opacity="1" d="M 127.964844 14.304688 L 127.964844 13.773438 C 126.996094 13.773438 126.871094 13.679688 126.871094 12.960938 L 126.871094 4.210938 L 124.714844 4.367188 L 124.714844 4.898438 C 125.683594 4.898438 125.777344 4.992188 125.777344 5.710938 L 125.777344 8.710938 C 125.246094 8.210938 124.558594 7.898438 123.746094 7.898438 C 121.808594 7.898438 120.183594 9.335938 120.183594 11.179688 C 120.183594 12.992188 121.746094 14.460938 123.589844 14.460938 C 124.777344 14.460938 125.496094 13.804688 125.746094 13.554688 L 125.746094 14.460938 Z M 125.746094 12.773438 C 125.339844 13.460938 124.621094 14.054688 123.683594 14.054688 C 122.839844 14.054688 122.277344 13.554688 121.996094 13.148438 C 121.683594 12.710938 121.527344 12.117188 121.527344 11.179688 C 121.527344 10.867188 121.527344 9.773438 122.121094 9.085938 C 122.683594 8.429688 123.402344 8.304688 123.839844 8.304688 C 124.527344 8.304688 125.152344 8.617188 125.558594 9.148438 C 125.746094 9.367188 125.746094 9.398438 125.746094 9.679688 Z M 125.746094 12.773438 "/>
<path fill-rule="nonzero" fill="rgb(0%, 0%, 0%)" fill-opacity="1" d="M 137.726562 13.804688 L 134.476562 10.554688 L 137.726562 7.335938 L 137.132812 6.742188 L 133.914062 9.992188 L 130.695312 6.742188 L 130.101562 7.335938 L 133.320312 10.554688 L 130.101562 13.804688 L 130.695312 14.367188 L 133.914062 11.148438 L 137.132812 14.367188 Z M 137.726562 13.804688 "/>
<path fill-rule="nonzero" fill="rgb(0%, 0%, 0%)" fill-opacity="1" d="M 145.042969 9.460938 C 145.042969 9.210938 144.855469 8.929688 144.574219 8.929688 C 144.261719 8.929688 143.042969 10.148438 142.636719 10.367188 C 142.636719 9.554688 143.042969 8.742188 143.042969 8.273438 C 143.042969 7.960938 142.855469 7.773438 142.542969 7.773438 C 142.230469 7.773438 142.074219 7.960938 142.074219 8.273438 C 142.074219 8.835938 142.417969 9.585938 142.417969 10.367188 C 141.949219 10.117188 140.824219 8.898438 140.511719 8.898438 C 140.261719 8.898438 140.011719 9.117188 140.011719 9.398438 C 140.011719 9.898438 141.730469 10.242188 142.292969 10.554688 C 141.699219 10.929688 140.542969 11.085938 140.261719 11.273438 C 140.136719 11.398438 140.011719 11.523438 140.011719 11.710938 C 140.011719 11.960938 140.199219 12.210938 140.480469 12.210938 C 140.792969 12.210938 141.980469 11.023438 142.417969 10.773438 C 142.417969 11.585938 142.011719 12.398438 142.011719 12.898438 C 142.011719 13.179688 142.230469 13.398438 142.511719 13.398438 C 142.824219 13.398438 142.980469 13.179688 142.980469 12.898438 C 142.980469 12.304688 142.636719 11.554688 142.636719 10.773438 C 143.105469 11.023438 144.261719 12.242188 144.542969 12.242188 C 144.792969 12.242188 145.042969 12.023438 145.042969 11.742188 C 145.042969 11.554688 144.917969 11.429688 144.761719 11.335938 C 144.386719 11.085938 143.386719 10.929688 142.761719 10.554688 C 143.449219 10.148438 144.355469 10.117188 144.792969 9.867188 C 144.949219 9.773438 145.042969 9.648438 145.042969 9.460938 Z M 145.042969 9.460938 "/>
<path fill-rule="nonzero" fill="rgb(0%, 0%, 0%)" fill-opacity="1" d="M 151.609375 14.683594 C 151.609375 13.089844 151.109375 11.808594 149.921875 11.808594 C 149.015625 11.808594 148.015625 12.683594 148.015625 13.183594 C 148.015625 13.558594 148.296875 13.683594 148.515625 13.683594 C 148.734375 13.683594 148.890625 13.527344 148.921875 13.464844 C 148.890625 13.433594 148.828125 13.339844 148.828125 13.183594 C 148.828125 13.089844 149.015625 12.152344 149.953125 12.152344 C 150.734375 12.152344 150.921875 13.152344 150.921875 14.058594 C 150.921875 14.714844 150.828125 15.308594 150.828125 15.308594 L 150.796875 15.308594 C 150.796875 15.308594 150.390625 14.652344 149.515625 14.652344 C 147.328125 14.652344 146.421875 16.777344 146.421875 17.902344 C 146.421875 18.933594 147.015625 19.589844 148.234375 19.589844 C 150.109375 19.589844 151.609375 17.652344 151.609375 14.683594 Z M 150.359375 15.902344 C 150.359375 16.214844 150.078125 19.308594 148.296875 19.308594 C 147.671875 19.308594 147.390625 18.964844 147.390625 18.246094 C 147.390625 17.558594 147.859375 14.902344 149.453125 14.902344 C 150.046875 14.902344 150.359375 15.277344 150.359375 15.902344 Z M 150.359375 15.902344 "/>
<path fill-rule="nonzero" fill="rgb(0%, 0%, 0%)" fill-opacity="1" d="M 159.042969 19.402344 L 155.980469 11.996094 L 155.792969 11.996094 L 152.511719 19.402344 Z M 157.761719 18.933594 L 153.261719 18.933594 L 155.605469 13.621094 Z M 157.761719 18.933594 "/>
<path fill-rule="nonzero" fill="rgb(0%, 0%, 0%)" fill-opacity="1" d="M 165.214844 14.171875 L 164.808594 14.171875 C 164.777344 14.328125 164.683594 15.046875 164.496094 15.171875 C 164.433594 15.234375 163.527344 15.234375 163.402344 15.234375 L 161.339844 15.234375 L 162.746094 14.109375 C 163.121094 13.796875 164.089844 13.109375 164.433594 12.765625 C 164.746094 12.453125 165.214844 11.890625 165.214844 11.109375 C 165.214844 9.734375 163.964844 8.953125 162.496094 8.953125 C 161.089844 8.953125 160.089844 9.859375 160.089844 10.890625 C 160.089844 11.453125 160.558594 11.515625 160.683594 11.515625 C 160.964844 11.515625 161.277344 11.328125 161.277344 10.921875 C 161.277344 10.703125 161.152344 10.359375 160.652344 10.359375 C 160.902344 9.796875 161.589844 9.359375 162.339844 9.359375 C 163.496094 9.359375 164.089844 10.234375 164.089844 11.109375 C 164.089844 11.890625 163.589844 12.703125 162.808594 13.390625 L 160.214844 15.765625 C 160.121094 15.890625 160.089844 15.890625 160.089844 16.234375 L 164.871094 16.234375 Z M 165.214844 14.171875 "/>
<path fill="none" stroke-width="0.5579" stroke-linecap="butt" stroke-linejoin="miter" stroke="rgb(0%, 0%, 0%)" stroke-opacity="1" stroke-miterlimit="10" d="M -36.865997 8.086969 L -36.865997 -8.889593 " transform="matrix(2, 0, 0, -2, 132.481995, 57.338001)"/>
<path fill="none" stroke-width="0.5579" stroke-linecap="round" stroke-linejoin="round" stroke="rgb(0%, 0%, 0%)" stroke-opacity="1" stroke-miterlimit="10" d="M -2.900631 3.347807 C -2.369381 1.339994 -1.189693 0.390776 0.0017128 0.000150681 C -1.189693 -0.390474 -2.369381 -1.339693 -2.900631 -3.347506 " transform="matrix(0, 2, 2, 0, 58.749699, 75.676262)"/>
<path fill-rule="nonzero" fill="rgb(0%, 0%, 0%)" fill-opacity="1" d="M 43.453125 54.773438 C 44.140625 54.773438 44.015625 56.054688 43.890625 56.617188 C 43.859375 56.898438 43.703125 57.242188 43.609375 57.554688 C 43.265625 58.742188 42.203125 60.617188 41.390625 60.617188 C 40.796875 60.617188 40.640625 59.679688 40.640625 59.179688 C 40.640625 58.773438 40.671875 58.335938 40.828125 57.898438 C 41.203125 56.898438 42.234375 54.773438 43.453125 54.773438 Z M 43.328125 54.492188 C 42.921875 54.492188 42.484375 54.648438 42.046875 54.960938 C 41.609375 55.242188 41.203125 55.617188 40.859375 56.054688 C 40.234375 56.804688 39.640625 57.992188 39.640625 59.242188 C 39.640625 60.210938 39.984375 60.960938 40.921875 60.960938 C 42.171875 60.960938 42.640625 60.085938 43.046875 59.429688 C 42.859375 60.335938 42.984375 60.960938 43.609375 60.960938 C 43.953125 60.960938 44.296875 60.804688 44.703125 60.492188 C 45.078125 60.179688 45.453125 59.710938 45.765625 59.148438 L 45.578125 58.992188 C 45.328125 59.398438 44.703125 60.335938 44.296875 60.335938 C 44.078125 60.335938 44.015625 59.992188 44.015625 59.773438 C 44.015625 58.898438 44.609375 57.398438 44.921875 56.429688 L 45.609375 54.617188 L 44.640625 54.617188 L 44.390625 55.273438 C 44.203125 54.804688 43.921875 54.492188 43.328125 54.492188 Z M 43.328125 54.492188 "/>
<path fill-rule="nonzero" fill="rgb(0%, 0%, 0%)" fill-opacity="1" d="M 51.734375 63.015625 L 51.734375 62.578125 L 51.265625 62.578125 C 50.140625 62.578125 50.140625 62.453125 50.140625 62.078125 L 50.140625 56.046875 C 50.140625 55.734375 50.109375 55.734375 49.765625 55.734375 C 49.046875 56.421875 47.921875 56.421875 47.515625 56.421875 L 47.515625 56.859375 C 47.828125 56.859375 48.546875 56.859375 49.203125 56.546875 L 49.203125 62.078125 C 49.203125 62.453125 49.203125 62.578125 48.078125 62.578125 L 47.609375 62.578125 L 47.609375 63.015625 C 48.203125 62.984375 49.046875 62.984375 49.671875 62.984375 C 50.296875 62.984375 51.140625 62.984375 51.734375 63.015625 Z M 51.734375 63.015625 "/>
<path fill="none" stroke-width="0.5579" stroke-linecap="butt" stroke-linejoin="miter" stroke="rgb(0%, 0%, 0%)" stroke-opacity="1" stroke-miterlimit="10" d="M 41.329315 8.547907 L 41.329315 -9.307562 " transform="matrix(2, 0, 0, -2, 132.481995, 57.338001)"/>
<path fill="none" stroke-width="0.5579" stroke-linecap="round" stroke-linejoin="round" stroke="rgb(0%, 0%, 0%)" stroke-opacity="1" stroke-miterlimit="10" d="M -2.901081 3.345932 C -2.369831 1.33812 -1.190144 0.388901 0.00126266 -0.00172424 C -1.190144 -0.392349 -2.369831 -1.337662 -2.901081 -3.34938 " transform="matrix(0, 2, 2, 0, 215.144073, 76.5131)"/>
<path fill-rule="nonzero" fill="rgb(0%, 0%, 0%)" fill-opacity="1" d="M 230.027344 62.335938 L 226.652344 52.710938 L 224.214844 52.710938 L 220.714844 62.335938 L 221.371094 62.335938 L 222.496094 59.304688 L 226.402344 59.304688 L 227.527344 62.335938 Z M 229.152344 61.710938 L 227.933594 61.710938 L 224.996094 53.367188 L 226.214844 53.367188 Z M 226.183594 58.648438 L 222.746094 58.648438 L 224.464844 53.835938 L 224.496094 53.835938 Z M 226.183594 58.648438 "/>
<path fill-rule="nonzero" fill="rgb(0%, 0%, 0%)" fill-opacity="1" d="M 236.304688 64.515625 L 236.304688 64.078125 L 235.835938 64.078125 C 234.710938 64.078125 234.710938 63.953125 234.710938 63.578125 L 234.710938 57.546875 C 234.710938 57.234375 234.679688 57.234375 234.335938 57.234375 C 233.617188 57.921875 232.492188 57.921875 232.085938 57.921875 L 232.085938 58.359375 C 232.398438 58.359375 233.117188 58.359375 233.773438 58.046875 L 233.773438 63.578125 C 233.773438 63.953125 233.773438 64.078125 232.648438 64.078125 L 232.179688 64.078125 L 232.179688 64.515625 C 232.773438 64.484375 233.617188 64.484375 234.242188 64.484375 C 234.867188 64.484375 235.710938 64.484375 236.304688 64.515625 Z M 236.304688 64.515625 "/>
<path fill="none" stroke-width="0.5579" stroke-linecap="butt" stroke-linejoin="miter" stroke="rgb(0%, 0%, 0%)" stroke-opacity="1" stroke-miterlimit="10" d="M -22.772247 -17.690374 L 29.801971 -17.690374 " transform="matrix(2, 0, 0, -2, 132.481995, 57.338001)"/>
<path fill="none" stroke-width="0.5579" stroke-linecap="round" stroke-linejoin="round" stroke="rgb(0%, 0%, 0%)" stroke-opacity="1" stroke-miterlimit="10" d="M -2.902733 3.348061 C -2.371483 1.340248 -1.191795 0.391029 -0.000389099 0.000404358 C -1.191795 -0.390221 -2.371483 -1.339439 -2.902733 -3.347252 " transform="matrix(2, 0, 0, -2, 192.641403, 92.719559)"/>
<path fill-rule="nonzero" fill="rgb(0%, 0%, 0%)" fill-opacity="1" d="M 129.519531 99.347656 C 129.519531 99.097656 129.332031 98.816406 129.050781 98.816406 C 128.738281 98.816406 127.519531 100.035156 127.113281 100.253906 C 127.113281 99.441406 127.519531 98.628906 127.519531 98.160156 C 127.519531 97.847656 127.332031 97.660156 127.019531 97.660156 C 126.707031 97.660156 126.550781 97.847656 126.550781 98.160156 C 126.550781 98.722656 126.894531 99.472656 126.894531 100.253906 C 126.425781 100.003906 125.300781 98.785156 124.988281 98.785156 C 124.738281 98.785156 124.488281 99.003906 124.488281 99.285156 C 124.488281 99.785156 126.207031 100.128906 126.769531 100.441406 C 126.175781 100.816406 125.019531 100.972656 124.738281 101.160156 C 124.613281 101.285156 124.488281 101.410156 124.488281 101.597656 C 124.488281 101.847656 124.675781 102.097656 124.957031 102.097656 C 125.269531 102.097656 126.457031 100.910156 126.894531 100.660156 C 126.894531 101.472656 126.488281 102.285156 126.488281 102.785156 C 126.488281 103.066406 126.707031 103.285156 126.988281 103.285156 C 127.300781 103.285156 127.457031 103.066406 127.457031 102.785156 C 127.457031 102.191406 127.113281 101.441406 127.113281 100.660156 C 127.582031 100.910156 128.738281 102.128906 129.019531 102.128906 C 129.269531 102.128906 129.519531 101.910156 129.519531 101.628906 C 129.519531 101.441406 129.394531 101.316406 129.238281 101.222656 C 128.863281 100.972656 127.863281 100.816406 127.238281 100.441406 C 127.925781 100.035156 128.832031 100.003906 129.269531 99.753906 C 129.425781 99.660156 129.519531 99.535156 129.519531 99.347656 Z M 129.519531 99.347656 "/>
<path fill-rule="nonzero" fill="rgb(0%, 0%, 0%)" fill-opacity="1" d="M 139.058594 106.371094 L 139.058594 99.121094 L 137.433594 99.121094 L 135.152344 105.527344 L 135.121094 105.527344 L 132.902344 99.121094 L 131.214844 99.121094 L 131.214844 106.371094 L 131.683594 106.371094 L 131.683594 101.214844 L 131.714844 101.214844 L 133.496094 106.371094 L 135.371094 106.371094 L 137.214844 101.183594 L 137.214844 106.371094 Z M 138.558594 105.902344 L 137.714844 105.902344 L 137.714844 99.589844 L 138.558594 99.589844 Z M 134.746094 105.902344 L 133.839844 105.902344 L 131.871094 100.246094 L 131.652344 99.589844 L 132.527344 99.589844 Z M 134.746094 105.902344 "/>
<path fill-rule="nonzero" fill="rgb(0%, 0%, 0%)" fill-opacity="1" d="M 146.523438 108.785156 L 146.523438 108.160156 L 141.960938 106.035156 L 146.523438 103.878906 L 146.523438 103.285156 L 140.929688 105.910156 L 140.929688 106.128906 Z M 146.523438 110.191406 L 146.523438 109.628906 L 140.929688 109.628906 L 140.929688 110.191406 Z M 146.523438 110.191406 "/>
<path fill-rule="nonzero" fill="rgb(0%, 0%, 0%)" fill-opacity="1" d="M 153.398438 109.566406 L 153.398438 109.128906 L 152.929688 109.128906 C 151.804688 109.128906 151.804688 109.003906 151.804688 108.628906 L 151.804688 102.597656 C 151.804688 102.285156 151.773438 102.285156 151.429688 102.285156 C 150.710938 102.972656 149.585938 102.972656 149.179688 102.972656 L 149.179688 103.410156 C 149.492188 103.410156 150.210938 103.410156 150.867188 103.097656 L 150.867188 108.628906 C 150.867188 109.003906 150.867188 109.128906 149.742188 109.128906 L 149.273438 109.128906 L 149.273438 109.566406 C 149.867188 109.535156 150.710938 109.535156 151.335938 109.535156 C 151.960938 109.535156 152.804688 109.535156 153.398438 109.566406 Z M 153.398438 109.566406 "/>
</svg>
