<?xml version="1.0" encoding="UTF-8"?>
<svg xmlns="http://www.w3.org/2000/svg" xmlns:xlink="http://www.w3.org/1999/xlink" width="258.73999" height="186.839996" viewBox="0 0 258.73999 186.839996">
<defs>
<clipPath id="clip-0">
<path clip-rule="nonzero" d="M 125 0 L 258.742188 0 L 258.742188 186.84375 L 125 186.84375 Z M 125 0 "/>
</clipPath>
<clipPath id="clip-1">
<path clip-rule="nonzero" d="M 157 0 L 258.742188 0 L 258.742188 186.84375 L 157 186.84375 Z M 157 0 "/>
</clipPath>
</defs>
<path fill-rule="nonzero" fill="rgb(0%, 0%, 0%)" fill-opacity="1" d="M 88.71875 21.402344 L 90.9375 13.121094 C 91.03125 12.683594 91.15625 12.339844 91.28125 12.089844 C 91.65625 11.339844 91.9375 10.839844 92.96875 10.839844 C 95.21875 10.839844 95.75 12.089844 95.75 14.246094 L 96.21875 14.246094 L 96.5625 10.433594 L 84.5625 10.433594 L 82.84375 14.246094 L 83.34375 14.246094 C 84.3125 12.464844 85.5 10.839844 88.25 10.839844 C 89.03125 10.839844 89.28125 11.214844 89.28125 11.996094 C 89.28125 12.277344 89.21875 12.621094 89.125 13.058594 L 86.84375 21.589844 C 86.5625 22.589844 86.09375 23.652344 85.09375 23.871094 C 84.8125 23.933594 84.5 23.996094 84.15625 23.996094 L 84.0625 24.277344 L 90.34375 24.277344 L 90.4375 23.996094 C 89.65625 23.996094 89.125 23.933594 88.8125 23.746094 C 88.5 23.589844 88.4375 23.058594 88.4375 22.683594 C 88.4375 22.214844 88.59375 21.871094 88.71875 21.402344 Z M 88.71875 21.402344 "/>
<path fill-rule="nonzero" fill="rgb(0%, 0%, 0%)" fill-opacity="1" d="M 95.519531 27.390625 C 96.832031 27.359375 97.519531 26.234375 97.863281 25.453125 L 97.613281 25.328125 C 97.394531 25.671875 96.863281 26.734375 96.269531 26.734375 C 96.144531 26.734375 95.957031 26.515625 95.957031 26.359375 C 95.957031 26.078125 96.144531 25.515625 96.238281 25.296875 L 97.175781 22.546875 C 97.332031 22.140625 97.394531 21.953125 97.394531 21.703125 C 97.394531 21.265625 97.363281 20.921875 96.894531 20.921875 C 95.988281 20.921875 94.894531 22.015625 94.582031 22.734375 L 94.863281 22.890625 C 95.050781 22.609375 95.582031 21.796875 95.925781 21.796875 C 96.144531 21.796875 96.207031 21.953125 96.207031 22.109375 C 96.238281 22.328125 96.113281 22.734375 96.019531 23.015625 L 95.050781 25.765625 C 94.925781 26.109375 94.863281 26.421875 94.863281 26.609375 C 94.863281 27.109375 95.050781 27.390625 95.519531 27.390625 Z M 98.300781 18.296875 C 98.300781 17.890625 97.957031 17.515625 97.550781 17.515625 C 97.144531 17.515625 96.800781 17.890625 96.800781 18.296875 C 96.800781 18.703125 97.175781 19.015625 97.550781 19.015625 C 97.894531 19.015625 98.300781 18.640625 98.300781 18.296875 Z M 98.300781 18.296875 "/>
<path fill-rule="nonzero" fill="rgb(0%, 0%, 0%)" fill-opacity="1" d="M 176.207031 10.714844 L 175.675781 11.433594 C 175.269531 11.027344 174.832031 10.714844 174.394531 10.527344 C 173.925781 10.308594 173.425781 10.246094 172.863281 10.246094 C 172.269531 10.246094 171.738281 10.339844 171.207031 10.527344 C 170.707031 10.746094 170.238281 10.996094 169.863281 11.339844 C 169.488281 11.683594 169.175781 12.089844 168.925781 12.527344 C 168.707031 12.996094 168.613281 13.464844 168.613281 13.996094 C 168.613281 14.558594 168.738281 15.027344 168.988281 15.464844 C 169.269531 15.871094 169.550781 16.277344 169.925781 16.589844 C 170.300781 16.964844 170.707031 17.308594 171.144531 17.621094 C 171.613281 17.902344 171.988281 18.246094 172.363281 18.589844 C 172.738281 18.933594 173.050781 19.277344 173.300781 19.683594 C 173.550781 20.058594 173.675781 20.496094 173.675781 20.996094 C 173.675781 22.589844 172.800781 24.027344 170.738281 24.027344 C 168.644531 24.027344 167.613281 21.839844 167.457031 19.714844 L 167.019531 19.714844 L 166.269531 24.277344 L 166.707031 24.277344 L 167.269531 22.902344 C 168.269531 23.933594 169.394531 24.464844 170.707031 24.464844 C 171.363281 24.464844 171.957031 24.371094 172.519531 24.121094 C 173.050781 23.871094 173.550781 23.589844 173.957031 23.183594 C 174.394531 22.777344 174.707031 22.308594 174.925781 21.777344 C 175.175781 21.246094 175.300781 20.683594 175.300781 20.058594 C 175.300781 19.464844 175.175781 18.902344 174.925781 18.464844 C 174.707031 17.996094 174.394531 17.589844 174.019531 17.246094 C 173.675781 16.871094 173.269531 16.527344 172.832031 16.246094 C 172.394531 15.933594 172.019531 15.652344 171.644531 15.339844 C 171.269531 15.058594 170.988281 14.746094 170.738281 14.402344 C 170.488281 14.058594 170.363281 13.714844 170.363281 13.277344 C 170.363281 11.902344 170.863281 10.652344 172.925781 10.652344 C 174.644531 10.652344 175.332031 12.402344 175.394531 14.214844 L 175.832031 14.214844 L 176.582031 10.714844 Z M 176.207031 10.714844 "/>
<path fill-rule="nonzero" fill="rgb(0%, 0%, 0%)" fill-opacity="1" d="M 184.597656 17.046875 L 184.597656 16.515625 L 184.035156 16.515625 C 182.597656 16.515625 182.597656 16.328125 182.597656 15.859375 L 182.597656 7.796875 C 182.597656 7.421875 182.566406 7.390625 182.160156 7.390625 C 181.222656 8.328125 179.910156 8.328125 179.316406 8.328125 L 179.316406 8.859375 C 179.660156 8.859375 180.628906 8.859375 181.410156 8.453125 L 181.410156 15.859375 C 181.410156 16.328125 181.410156 16.515625 179.972656 16.515625 L 179.410156 16.515625 L 179.410156 17.046875 L 182.003906 16.984375 Z M 184.597656 17.046875 "/>
<path fill-rule="nonzero" fill="rgb(0%, 0%, 0%)" fill-opacity="1" d="M 88.3125 91.574219 L 90.53125 83.292969 C 90.625 82.855469 90.75 82.511719 90.875 82.261719 C 91.25 81.511719 91.53125 81.011719 92.5625 81.011719 C 94.8125 81.011719 95.34375 82.261719 95.34375 84.417969 L 95.8125 84.417969 L 96.15625 80.605469 L 84.15625 80.605469 L 82.4375 84.417969 L 82.9375 84.417969 C 83.90625 82.636719 85.09375 81.011719 87.84375 81.011719 C 88.625 81.011719 88.875 81.386719 88.875 82.167969 C 88.875 82.449219 88.8125 82.792969 88.71875 83.230469 L 86.4375 91.761719 C 86.15625 92.761719 85.6875 93.824219 84.6875 94.042969 C 84.40625 94.105469 84.09375 94.167969 83.75 94.167969 L 83.65625 94.449219 L 89.9375 94.449219 L 90.03125 94.167969 C 89.25 94.167969 88.71875 94.105469 88.40625 93.917969 C 88.09375 93.761719 88.03125 93.230469 88.03125 92.855469 C 88.03125 92.386719 88.1875 92.042969 88.3125 91.574219 Z M 88.3125 91.574219 "/>
<path fill-rule="nonzero" fill="rgb(0%, 0%, 0%)" fill-opacity="1" d="M 98.992188 88.46875 C 98.992188 88.0625 98.679688 87.6875 98.242188 87.6875 C 97.835938 87.6875 97.523438 88.0625 97.523438 88.46875 C 97.523438 88.84375 97.867188 89.1875 98.242188 89.1875 C 98.617188 89.1875 98.992188 88.84375 98.992188 88.46875 Z M 93.210938 99.59375 C 93.210938 100.125 93.773438 100.5 94.335938 100.5 C 95.023438 100.5 95.523438 100.03125 95.898438 99.65625 C 96.335938 99.15625 96.710938 98.53125 96.898438 97.84375 L 97.867188 94.3125 C 98.023438 93.6875 98.148438 93.21875 98.242188 92.78125 C 98.367188 92.375 98.429688 92.03125 98.429688 91.75 C 98.429688 91.40625 98.273438 91.09375 97.867188 91.09375 C 97.054688 91.09375 95.960938 92.21875 95.617188 92.90625 L 95.867188 93.09375 C 96.085938 92.8125 96.554688 91.96875 97.023438 91.96875 C 97.148438 91.96875 97.273438 92.1875 97.273438 92.34375 C 97.273438 92.78125 97.179688 93.09375 97.054688 93.53125 L 95.617188 98.75 C 95.523438 99.1875 95.242188 100.09375 94.773438 100.09375 C 94.648438 100.09375 94.585938 100.03125 94.523438 99.9375 C 94.304688 99.65625 94.492188 98.90625 93.804688 98.90625 C 93.398438 98.90625 93.210938 99.21875 93.210938 99.59375 Z M 93.210938 99.59375 "/>
<path fill-rule="nonzero" fill="rgb(0%, 0%, 0%)" fill-opacity="1" d="M 176.207031 80.886719 L 175.675781 81.605469 C 175.269531 81.199219 174.832031 80.886719 174.394531 80.699219 C 173.925781 80.480469 173.425781 80.417969 172.863281 80.417969 C 172.269531 80.417969 171.738281 80.511719 171.207031 80.699219 C 170.707031 80.917969 170.238281 81.167969 169.863281 81.511719 C 169.488281 81.855469 169.175781 82.261719 168.925781 82.699219 C 168.707031 83.167969 168.613281 83.636719 168.613281 84.167969 C 168.613281 84.730469 168.738281 85.199219 168.988281 85.636719 C 169.269531 86.042969 169.550781 86.449219 169.925781 86.761719 C 170.300781 87.136719 170.707031 87.480469 171.144531 87.792969 C 171.613281 88.074219 171.988281 88.417969 172.363281 88.761719 C 172.738281 89.105469 173.050781 89.449219 173.300781 89.855469 C 173.550781 90.230469 173.675781 90.667969 173.675781 91.167969 C 173.675781 92.761719 172.800781 94.199219 170.738281 94.199219 C 168.644531 94.199219 167.613281 92.011719 167.457031 89.886719 L 167.019531 89.886719 L 166.269531 94.449219 L 166.707031 94.449219 L 167.269531 93.074219 C 168.269531 94.105469 169.394531 94.636719 170.707031 94.636719 C 171.363281 94.636719 171.957031 94.542969 172.519531 94.292969 C 173.050781 94.042969 173.550781 93.761719 173.957031 93.355469 C 174.394531 92.949219 174.707031 92.480469 174.925781 91.949219 C 175.175781 91.417969 175.300781 90.855469 175.300781 90.230469 C 175.300781 89.636719 175.175781 89.074219 174.925781 88.636719 C 174.707031 88.167969 174.394531 87.761719 174.019531 87.417969 C 173.675781 87.042969 173.269531 86.699219 172.832031 86.417969 C 172.394531 86.105469 172.019531 85.824219 171.644531 85.511719 C 171.269531 85.230469 170.988281 84.917969 170.738281 84.574219 C 170.488281 84.230469 170.363281 83.886719 170.363281 83.449219 C 170.363281 82.074219 170.863281 80.824219 172.925781 80.824219 C 174.644531 80.824219 175.332031 82.574219 175.394531 84.386719 L 175.832031 84.386719 L 176.582031 80.886719 Z M 176.207031 80.886719 "/>
<path fill-rule="nonzero" fill="rgb(0%, 0%, 0%)" fill-opacity="1" d="M 184.597656 87.214844 L 184.597656 86.683594 L 184.035156 86.683594 C 182.597656 86.683594 182.597656 86.496094 182.597656 86.027344 L 182.597656 77.964844 C 182.597656 77.589844 182.566406 77.558594 182.160156 77.558594 C 181.222656 78.496094 179.910156 78.496094 179.316406 78.496094 L 179.316406 79.027344 C 179.660156 79.027344 180.628906 79.027344 181.410156 78.621094 L 181.410156 86.027344 C 181.410156 86.496094 181.410156 86.683594 179.972656 86.683594 L 179.410156 86.683594 L 179.410156 87.214844 L 182.003906 87.152344 Z M 184.597656 87.214844 "/>
<path fill-rule="nonzero" fill="rgb(0%, 0%, 0%)" fill-opacity="1" d="M 87.941406 164.65625 L 90.160156 156.375 C 90.253906 155.9375 90.378906 155.59375 90.503906 155.34375 C 90.878906 154.59375 91.160156 154.09375 92.191406 154.09375 C 94.441406 154.09375 94.972656 155.34375 94.972656 157.5 L 95.441406 157.5 L 95.785156 153.6875 L 83.785156 153.6875 L 82.066406 157.5 L 82.566406 157.5 C 83.535156 155.71875 84.722656 154.09375 87.472656 154.09375 C 88.253906 154.09375 88.503906 154.46875 88.503906 155.25 C 88.503906 155.53125 88.441406 155.875 88.347656 156.3125 L 86.066406 164.84375 C 85.785156 165.84375 85.316406 166.90625 84.316406 167.125 C 84.035156 167.1875 83.722656 167.25 83.378906 167.25 L 83.285156 167.53125 L 89.566406 167.53125 L 89.660156 167.25 C 88.878906 167.25 88.347656 167.1875 88.035156 167 C 87.722656 166.84375 87.660156 166.3125 87.660156 165.9375 C 87.660156 165.46875 87.816406 165.125 87.941406 164.65625 Z M 87.941406 164.65625 "/>
<path fill-rule="nonzero" fill="rgb(0%, 0%, 0%)" fill-opacity="1" d="M 97.742188 164.757812 C 97.117188 164.757812 96.460938 165.257812 95.992188 165.882812 L 95.898438 165.882812 L 97.398438 160.414062 L 95.148438 160.507812 L 95.054688 160.726562 C 95.648438 160.726562 96.117188 160.851562 96.117188 161.289062 C 96.117188 161.351562 96.085938 161.539062 96.023438 161.726562 L 93.492188 171.101562 L 94.460938 171.101562 L 95.179688 168.539062 L 95.554688 168.414062 L 96.335938 170.289062 C 96.492188 170.632812 96.617188 170.882812 96.742188 171.039062 C 96.867188 171.164062 97.023438 171.226562 97.210938 171.226562 C 98.148438 171.226562 98.460938 170.632812 98.960938 169.445312 L 98.710938 169.320312 C 98.429688 169.914062 98.210938 170.507812 97.773438 170.507812 C 97.585938 170.507812 97.335938 169.945312 97.179688 169.507812 L 96.554688 167.976562 L 96.835938 167.820312 C 97.492188 167.507812 98.085938 167.195312 98.460938 166.820312 C 98.835938 166.476562 99.054688 166.101562 99.054688 165.726562 C 99.054688 165.070312 98.585938 164.757812 97.742188 164.757812 Z M 95.367188 168.101562 C 95.492188 167.507812 95.992188 166.351562 96.367188 165.976562 C 96.617188 165.664062 97.148438 165.070312 97.617188 165.070312 C 98.148438 165.070312 98.148438 165.539062 98.148438 165.851562 C 98.117188 166.945312 96.179688 167.757812 95.367188 168.101562 Z M 95.367188 168.101562 "/>
<path fill-rule="nonzero" fill="rgb(0%, 0%, 0%)" fill-opacity="1" d="M 176.207031 153.96875 L 175.675781 154.6875 C 175.269531 154.28125 174.832031 153.96875 174.394531 153.78125 C 173.925781 153.5625 173.425781 153.5 172.863281 153.5 C 172.269531 153.5 171.738281 153.59375 171.207031 153.78125 C 170.707031 154 170.238281 154.25 169.863281 154.59375 C 169.488281 154.9375 169.175781 155.34375 168.925781 155.78125 C 168.707031 156.25 168.613281 156.71875 168.613281 157.25 C 168.613281 157.8125 168.738281 158.28125 168.988281 158.71875 C 169.269531 159.125 169.550781 159.53125 169.925781 159.84375 C 170.300781 160.21875 170.707031 160.5625 171.144531 160.875 C 171.613281 161.15625 171.988281 161.5 172.363281 161.84375 C 172.738281 162.1875 173.050781 162.53125 173.300781 162.9375 C 173.550781 163.3125 173.675781 163.75 173.675781 164.25 C 173.675781 165.84375 172.800781 167.28125 170.738281 167.28125 C 168.644531 167.28125 167.613281 165.09375 167.457031 162.96875 L 167.019531 162.96875 L 166.269531 167.53125 L 166.707031 167.53125 L 167.269531 166.15625 C 168.269531 167.1875 169.394531 167.71875 170.707031 167.71875 C 171.363281 167.71875 171.957031 167.625 172.519531 167.375 C 173.050781 167.125 173.550781 166.84375 173.957031 166.4375 C 174.394531 166.03125 174.707031 165.5625 174.925781 165.03125 C 175.175781 164.5 175.300781 163.9375 175.300781 163.3125 C 175.300781 162.71875 175.175781 162.15625 174.925781 161.71875 C 174.707031 161.25 174.394531 160.84375 174.019531 160.5 C 173.675781 160.125 173.269531 159.78125 172.832031 159.5 C 172.394531 159.1875 172.019531 158.90625 171.644531 158.59375 C 171.269531 158.3125 170.988281 158 170.738281 157.65625 C 170.488281 157.3125 170.363281 156.96875 170.363281 156.53125 C 170.363281 155.15625 170.863281 153.90625 172.925781 153.90625 C 174.644531 153.90625 175.332031 155.65625 175.394531 157.46875 L 175.832031 157.46875 L 176.582031 153.96875 Z M 176.207031 153.96875 "/>
<path fill-rule="nonzero" fill="rgb(0%, 0%, 0%)" fill-opacity="1" d="M 184.597656 160.300781 L 184.597656 159.769531 L 184.035156 159.769531 C 182.597656 159.769531 182.597656 159.582031 182.597656 159.113281 L 182.597656 151.050781 C 182.597656 150.675781 182.566406 150.644531 182.160156 150.644531 C 181.222656 151.582031 179.910156 151.582031 179.316406 151.582031 L 179.316406 152.113281 C 179.660156 152.113281 180.628906 152.113281 181.410156 151.707031 L 181.410156 159.113281 C 181.410156 159.582031 181.410156 159.769531 179.972656 159.769531 L 179.410156 159.769531 L 179.410156 160.300781 L 182.003906 160.238281 Z M 184.597656 160.300781 "/>
<path fill="none" stroke-width="2.49017" stroke-linecap="butt" stroke-linejoin="miter" stroke="rgb(0%, 0%, 0%)" stroke-opacity="1" stroke-miterlimit="10" d="M -12.616562 35.140877 L 11.285782 35.140877 " transform="matrix(2, 0, 0, -2, 134.529999, 89.438004)"/>
<path fill="none" stroke-width="1.37434" stroke-linecap="butt" stroke-linejoin="miter" stroke="rgb(100%, 100%, 100%)" stroke-opacity="1" stroke-miterlimit="10" d="M -12.616562 35.140877 L 11.285782 35.140877 " transform="matrix(2, 0, 0, -2, 134.529999, 89.438004)"/>
<path fill-rule="nonzero" fill="rgb(0%, 0%, 0%)" fill-opacity="1" d="M 130.230469 14.300781 L 130.230469 13.769531 C 129.386719 13.769531 129.261719 13.769531 129.261719 13.175781 L 129.261719 7.894531 L 127.105469 8.050781 L 127.105469 8.582031 C 128.042969 8.582031 128.167969 8.675781 128.167969 9.363281 L 128.167969 13.144531 C 128.167969 13.769531 128.011719 13.769531 127.074219 13.769531 L 127.074219 14.300781 C 127.074219 14.300781 128.136719 14.238281 128.699219 14.238281 C 129.199219 14.238281 129.730469 14.269531 130.230469 14.300781 Z M 129.449219 5.550781 C 129.449219 5.082031 129.074219 4.707031 128.605469 4.707031 C 128.136719 4.707031 127.792969 5.113281 127.792969 5.550781 C 127.792969 5.988281 128.136719 6.394531 128.605469 6.394531 C 129.105469 6.394531 129.449219 5.988281 129.449219 5.550781 Z M 129.449219 5.550781 "/>
<path fill-rule="nonzero" fill="rgb(0%, 0%, 0%)" fill-opacity="1" d="M 139.402344 14.300781 L 139.402344 13.769531 C 138.433594 13.769531 138.308594 13.675781 138.308594 12.957031 L 138.308594 4.207031 L 136.152344 4.363281 L 136.152344 4.894531 C 137.121094 4.894531 137.214844 4.988281 137.214844 5.707031 L 137.214844 8.707031 C 136.683594 8.207031 135.996094 7.894531 135.183594 7.894531 C 133.246094 7.894531 131.621094 9.332031 131.621094 11.175781 C 131.621094 12.988281 133.183594 14.457031 135.027344 14.457031 C 136.214844 14.457031 136.933594 13.800781 137.183594 13.550781 L 137.183594 14.457031 Z M 137.183594 12.769531 C 136.777344 13.457031 136.058594 14.050781 135.121094 14.050781 C 134.277344 14.050781 133.714844 13.550781 133.433594 13.144531 C 133.121094 12.707031 132.964844 12.113281 132.964844 11.175781 C 132.964844 10.863281 132.964844 9.769531 133.558594 9.082031 C 134.121094 8.425781 134.839844 8.300781 135.277344 8.300781 C 135.964844 8.300781 136.589844 8.613281 136.996094 9.144531 C 137.183594 9.363281 137.183594 9.394531 137.183594 9.675781 Z M 137.183594 12.769531 "/>
<path fill="none" stroke-width="0.5579" stroke-linecap="butt" stroke-linejoin="miter" stroke="rgb(0%, 0%, 0%)" stroke-opacity="1" stroke-miterlimit="10" d="M -21.479843 27.183846 L -21.479843 8.855721 " transform="matrix(2, 0, 0, -2, 134.529999, 89.438004)"/>
<path fill="none" stroke-width="0.5579" stroke-linecap="round" stroke-linejoin="round" stroke="rgb(0%, 0%, 0%)" stroke-opacity="1" stroke-miterlimit="10" d="M -2.902229 3.345901 C -2.370979 1.338089 -1.191292 0.38887 0.000114441 -0.00175476 C -1.191292 -0.39238 -2.370979 -1.337692 -2.902229 -3.345505 " transform="matrix(0, 2, 2, 0, 91.573822, 72.281021)"/>
<path fill-rule="nonzero" fill="rgb(0%, 0%, 0%)" fill-opacity="1" d="M 73.453125 54.679688 L 75.046875 48.648438 C 75.140625 48.335938 75.234375 48.085938 75.296875 47.867188 C 75.578125 47.335938 75.796875 46.992188 76.546875 46.992188 C 78.203125 46.992188 78.578125 47.867188 78.578125 49.460938 L 78.921875 49.460938 L 79.171875 46.679688 L 70.421875 46.679688 L 69.171875 49.460938 L 69.546875 49.460938 C 70.234375 48.148438 71.078125 46.992188 73.109375 46.992188 C 73.671875 46.992188 73.859375 47.242188 73.859375 47.835938 C 73.859375 48.023438 73.796875 48.273438 73.734375 48.617188 L 72.078125 54.804688 C 71.890625 55.554688 71.515625 56.335938 70.796875 56.492188 C 70.609375 56.523438 70.390625 56.554688 70.109375 56.554688 L 70.046875 56.773438 L 74.609375 56.773438 L 74.703125 56.554688 C 74.140625 56.554688 73.734375 56.523438 73.515625 56.398438 C 73.296875 56.273438 73.234375 55.898438 73.234375 55.617188 C 73.234375 55.273438 73.359375 55.023438 73.453125 54.679688 Z M 73.453125 54.679688 "/>
<path fill-rule="nonzero" fill="rgb(0%, 0%, 0%)" fill-opacity="1" d="M 81.367188 52.230469 C 81.367188 51.949219 81.148438 51.667969 80.804688 51.667969 C 80.523438 51.667969 80.242188 51.917969 80.242188 52.230469 C 80.242188 52.542969 80.523438 52.792969 80.804688 52.792969 C 81.085938 52.792969 81.367188 52.511719 81.367188 52.230469 Z M 77.023438 60.636719 C 77.023438 61.042969 77.429688 61.324219 77.867188 61.324219 C 78.367188 61.324219 78.773438 60.980469 79.054688 60.699219 C 79.367188 60.324219 79.648438 59.855469 79.773438 59.324219 L 80.523438 56.636719 C 80.648438 56.199219 80.742188 55.824219 80.804688 55.511719 C 80.898438 55.199219 80.960938 54.917969 80.960938 54.730469 C 80.960938 54.449219 80.835938 54.230469 80.523438 54.230469 C 79.898438 54.230469 79.085938 55.074219 78.835938 55.574219 L 79.023438 55.730469 C 79.179688 55.511719 79.554688 54.886719 79.898438 54.886719 C 79.992188 54.886719 80.085938 55.042969 80.085938 55.167969 C 80.085938 55.511719 79.992188 55.730469 79.929688 56.074219 L 78.835938 60.011719 C 78.742188 60.324219 78.523438 61.011719 78.179688 61.011719 C 78.117188 61.011719 78.054688 60.949219 77.992188 60.886719 C 77.835938 60.699219 77.960938 60.105469 77.460938 60.105469 C 77.148438 60.105469 77.023438 60.355469 77.023438 60.636719 Z M 77.023438 60.636719 "/>
<path fill-rule="nonzero" fill="rgb(0%, 0%, 0%)" fill-opacity="1" d="M 82.890625 59.105469 C 83.859375 59.074219 84.359375 58.230469 84.640625 57.636719 L 84.453125 57.542969 C 84.296875 57.792969 83.890625 58.605469 83.421875 58.605469 C 83.328125 58.605469 83.203125 58.449219 83.203125 58.324219 C 83.203125 58.105469 83.328125 57.699219 83.390625 57.511719 L 84.140625 55.449219 C 84.234375 55.136719 84.265625 55.011719 84.265625 54.824219 C 84.265625 54.480469 84.265625 54.230469 83.921875 54.230469 C 83.203125 54.230469 82.390625 55.042969 82.140625 55.574219 L 82.359375 55.699219 C 82.515625 55.480469 82.921875 54.886719 83.171875 54.886719 C 83.359375 54.886719 83.390625 55.011719 83.390625 55.105469 C 83.421875 55.292969 83.328125 55.605469 83.234375 55.792969 L 82.515625 57.855469 C 82.421875 58.136719 82.359375 58.386719 82.359375 58.511719 C 82.359375 58.886719 82.515625 59.105469 82.890625 59.105469 Z M 84.953125 52.230469 C 84.953125 51.949219 84.703125 51.667969 84.390625 51.667969 C 84.078125 51.667969 83.828125 51.917969 83.828125 52.230469 C 83.828125 52.542969 84.109375 52.792969 84.390625 52.792969 C 84.671875 52.792969 84.953125 52.511719 84.953125 52.230469 Z M 84.953125 52.230469 "/>
<path fill="none" stroke-width="0.5579" stroke-linecap="butt" stroke-linejoin="miter" stroke="rgb(0%, 0%, 0%)" stroke-opacity="1" stroke-miterlimit="10" d="M -30.343124 29.566658 C -61.327499 10.070564 -61.327499 -11.417717 -31.202499 -30.370842 " transform="matrix(2, 0, 0, -2, 134.529999, 89.438004)"/>
<path fill="none" stroke-width="0.5579" stroke-linecap="round" stroke-linejoin="round" stroke="rgb(0%, 0%, 0%)" stroke-opacity="1" stroke-miterlimit="10" d="M -2.901469 3.347351 C -2.372521 1.340234 -1.189163 0.39096 -0.000836229 -0.00136441 C -1.191395 -0.390411 -2.370762 -1.340084 -2.901846 -3.349525 " transform="matrix(1.69278, 1.065, 1.065, -1.69278, 72.596619, 150.475143)"/>
<path fill-rule="nonzero" fill="rgb(0%, 0%, 0%)" fill-opacity="1" d="M 8.585938 92.234375 L 10.179688 86.203125 C 10.273438 85.890625 10.367188 85.640625 10.429688 85.421875 C 10.710938 84.890625 10.929688 84.546875 11.679688 84.546875 C 13.335938 84.546875 13.710938 85.421875 13.710938 87.015625 L 14.054688 87.015625 L 14.304688 84.234375 L 5.554688 84.234375 L 4.304688 87.015625 L 4.679688 87.015625 C 5.367188 85.703125 6.210938 84.546875 8.242188 84.546875 C 8.804688 84.546875 8.992188 84.796875 8.992188 85.390625 C 8.992188 85.578125 8.929688 85.828125 8.867188 86.171875 L 7.210938 92.359375 C 7.023438 93.109375 6.648438 93.890625 5.929688 94.046875 C 5.742188 94.078125 5.523438 94.109375 5.242188 94.109375 L 5.179688 94.328125 L 9.742188 94.328125 L 9.835938 94.109375 C 9.273438 94.109375 8.867188 94.078125 8.648438 93.953125 C 8.429688 93.828125 8.367188 93.453125 8.367188 93.171875 C 8.367188 92.828125 8.492188 92.578125 8.585938 92.234375 Z M 8.585938 92.234375 "/>
<path fill-rule="nonzero" fill="rgb(0%, 0%, 0%)" fill-opacity="1" d="M 15.828125 92.402344 C 15.359375 92.402344 14.890625 92.777344 14.546875 93.246094 L 14.453125 93.246094 L 15.578125 89.121094 L 13.890625 89.183594 L 13.828125 89.339844 C 14.265625 89.339844 14.640625 89.464844 14.640625 89.777344 C 14.640625 89.839844 14.609375 89.964844 14.546875 90.121094 L 12.640625 97.183594 L 13.390625 97.183594 L 13.921875 95.246094 L 14.171875 95.152344 L 14.765625 96.589844 C 14.890625 96.839844 14.984375 97.027344 15.078125 97.121094 C 15.171875 97.214844 15.296875 97.277344 15.453125 97.277344 C 16.140625 97.277344 16.390625 96.808594 16.765625 95.933594 L 16.578125 95.839844 C 16.359375 96.277344 16.203125 96.746094 15.859375 96.746094 C 15.734375 96.746094 15.546875 96.308594 15.421875 95.996094 L 14.953125 94.808594 L 15.171875 94.714844 C 15.671875 94.464844 16.109375 94.246094 16.390625 93.964844 C 16.671875 93.683594 16.828125 93.402344 16.828125 93.121094 C 16.828125 92.621094 16.484375 92.402344 15.828125 92.402344 Z M 14.046875 94.902344 C 14.140625 94.464844 14.546875 93.621094 14.796875 93.308594 C 14.984375 93.089844 15.390625 92.621094 15.765625 92.621094 C 16.171875 92.621094 16.171875 92.996094 16.171875 93.214844 C 16.140625 94.027344 14.671875 94.652344 14.046875 94.902344 Z M 14.046875 94.902344 "/>
<path fill-rule="nonzero" fill="rgb(0%, 0%, 0%)" fill-opacity="1" d="M 18.585938 97.277344 C 19.554688 97.246094 20.054688 96.402344 20.335938 95.808594 L 20.148438 95.714844 C 19.992188 95.964844 19.585938 96.777344 19.117188 96.777344 C 19.023438 96.777344 18.898438 96.621094 18.898438 96.496094 C 18.898438 96.277344 19.023438 95.871094 19.085938 95.683594 L 19.835938 93.621094 C 19.929688 93.308594 19.960938 93.183594 19.960938 92.996094 C 19.960938 92.652344 19.960938 92.402344 19.617188 92.402344 C 18.898438 92.402344 18.085938 93.214844 17.835938 93.746094 L 18.054688 93.871094 C 18.210938 93.652344 18.617188 93.058594 18.867188 93.058594 C 19.054688 93.058594 19.085938 93.183594 19.085938 93.277344 C 19.117188 93.464844 19.023438 93.777344 18.929688 93.964844 L 18.210938 96.027344 C 18.117188 96.308594 18.054688 96.558594 18.054688 96.683594 C 18.054688 97.058594 18.210938 97.277344 18.585938 97.277344 Z M 20.648438 90.402344 C 20.648438 90.121094 20.398438 89.839844 20.085938 89.839844 C 19.773438 89.839844 19.523438 90.089844 19.523438 90.402344 C 19.523438 90.714844 19.804688 90.964844 20.085938 90.964844 C 20.367188 90.964844 20.648438 90.683594 20.648438 90.402344 Z M 20.648438 90.402344 "/>
<path fill="none" stroke-width="2.49017" stroke-linecap="butt" stroke-linejoin="miter" stroke="rgb(0%, 0%, 0%)" stroke-opacity="1" stroke-miterlimit="10" d="M 21.008438 28.656502 L 21.008438 9.648689 " transform="matrix(2, 0, 0, -2, 134.529999, 89.438004)"/>
<path fill="none" stroke-width="1.37434" stroke-linecap="butt" stroke-linejoin="miter" stroke="rgb(100%, 100%, 100%)" stroke-opacity="1" stroke-miterlimit="10" d="M 21.008438 28.656502 L 21.008438 9.648689 " transform="matrix(2, 0, 0, -2, 134.529999, 89.438004)"/>
<g clip-path="url(#clip-0)">
<path fill="none" stroke-width="2.49017" stroke-linecap="butt" stroke-linejoin="miter" stroke="rgb(0%, 0%, 0%)" stroke-opacity="1" stroke-miterlimit="10" d="M 30.731094 29.027596 C 60.860001 10.070564 60.860001 -11.417717 30.731094 -30.370842 " transform="matrix(2, 0, 0, -2, 134.529999, 89.438004)"/>
</g>
<g clip-path="url(#clip-1)">
<path fill="none" stroke-width="1.37434" stroke-linecap="butt" stroke-linejoin="miter" stroke="rgb(100%, 100%, 100%)" stroke-opacity="1" stroke-miterlimit="10" d="M 30.731094 29.027596 C 60.860001 10.070564 60.860001 -11.417717 30.731094 -30.370842 " transform="matrix(2, 0, 0, -2, 134.529999, 89.438004)"/>
</g>
<path fill="none" stroke-width="0.5579" stroke-linecap="butt" stroke-linejoin="miter" stroke="rgb(0%, 0%, 0%)" stroke-opacity="1" stroke-miterlimit="10" d="M -12.409531 0.0549393 L 10.727188 0.0549393 " transform="matrix(2, 0, 0, -2, 134.529999, 89.438004)"/>
<path fill="none" stroke-width="0.5579" stroke-linecap="round" stroke-linejoin="round" stroke="rgb(0%, 0%, 0%)" stroke-opacity="1" stroke-miterlimit="10" d="M -2.901428 3.345753 C -2.370178 1.33794 -1.190491 0.388721 0.000915527 -0.00190353 C -1.190491 -0.388622 -2.370178 -1.337841 -2.901428 -3.345654 " transform="matrix(2, 0, 0, -2, 156.545044, 89.324318)"/>
<path fill-rule="nonzero" fill="rgb(0%, 0%, 0%)" fill-opacity="1" d="M 128.917969 102.234375 L 130.511719 96.203125 C 130.605469 95.890625 130.699219 95.640625 130.761719 95.421875 C 131.042969 94.890625 131.261719 94.546875 132.011719 94.546875 C 133.667969 94.546875 134.042969 95.421875 134.042969 97.015625 L 134.386719 97.015625 L 134.636719 94.234375 L 125.886719 94.234375 L 124.636719 97.015625 L 125.011719 97.015625 C 125.699219 95.703125 126.542969 94.546875 128.574219 94.546875 C 129.136719 94.546875 129.324219 94.796875 129.324219 95.390625 C 129.324219 95.578125 129.261719 95.828125 129.199219 96.171875 L 127.542969 102.359375 C 127.355469 103.109375 126.980469 103.890625 126.261719 104.046875 C 126.074219 104.078125 125.855469 104.109375 125.574219 104.109375 L 125.511719 104.328125 L 130.074219 104.328125 L 130.167969 104.109375 C 129.605469 104.109375 129.199219 104.078125 128.980469 103.953125 C 128.761719 103.828125 128.699219 103.453125 128.699219 103.171875 C 128.699219 102.828125 128.824219 102.578125 128.917969 102.234375 Z M 128.917969 102.234375 "/>
<path fill-rule="nonzero" fill="rgb(0%, 0%, 0%)" fill-opacity="1" d="M 133.941406 106.660156 C 134.910156 106.628906 135.410156 105.785156 135.691406 105.191406 L 135.503906 105.097656 C 135.347656 105.347656 134.941406 106.160156 134.472656 106.160156 C 134.378906 106.160156 134.253906 106.003906 134.253906 105.878906 C 134.253906 105.660156 134.378906 105.253906 134.441406 105.066406 L 135.191406 103.003906 C 135.285156 102.691406 135.316406 102.566406 135.316406 102.378906 C 135.316406 102.035156 135.316406 101.785156 134.972656 101.785156 C 134.253906 101.785156 133.441406 102.597656 133.191406 103.128906 L 133.410156 103.253906 C 133.566406 103.035156 133.972656 102.441406 134.222656 102.441406 C 134.410156 102.441406 134.441406 102.566406 134.441406 102.660156 C 134.472656 102.847656 134.378906 103.160156 134.285156 103.347656 L 133.566406 105.410156 C 133.472656 105.691406 133.410156 105.941406 133.410156 106.066406 C 133.410156 106.441406 133.566406 106.660156 133.941406 106.660156 Z M 136.003906 99.785156 C 136.003906 99.503906 135.753906 99.222656 135.441406 99.222656 C 135.128906 99.222656 134.878906 99.472656 134.878906 99.785156 C 134.878906 100.097656 135.160156 100.347656 135.441406 100.347656 C 135.722656 100.347656 136.003906 100.066406 136.003906 99.785156 Z M 136.003906 99.785156 "/>
<path fill-rule="nonzero" fill="rgb(0%, 0%, 0%)" fill-opacity="1" d="M 140.636719 99.785156 C 140.636719 99.503906 140.417969 99.222656 140.074219 99.222656 C 139.792969 99.222656 139.511719 99.472656 139.511719 99.785156 C 139.511719 100.097656 139.792969 100.347656 140.074219 100.347656 C 140.355469 100.347656 140.636719 100.066406 140.636719 99.785156 Z M 136.292969 108.191406 C 136.292969 108.597656 136.699219 108.878906 137.136719 108.878906 C 137.636719 108.878906 138.042969 108.535156 138.324219 108.253906 C 138.636719 107.878906 138.917969 107.410156 139.042969 106.878906 L 139.792969 104.191406 C 139.917969 103.753906 140.011719 103.378906 140.074219 103.066406 C 140.167969 102.753906 140.230469 102.472656 140.230469 102.285156 C 140.230469 102.003906 140.105469 101.785156 139.792969 101.785156 C 139.167969 101.785156 138.355469 102.628906 138.105469 103.128906 L 138.292969 103.285156 C 138.449219 103.066406 138.824219 102.441406 139.167969 102.441406 C 139.261719 102.441406 139.355469 102.597656 139.355469 102.722656 C 139.355469 103.066406 139.261719 103.285156 139.199219 103.628906 L 138.105469 107.566406 C 138.011719 107.878906 137.792969 108.566406 137.449219 108.566406 C 137.386719 108.566406 137.324219 108.503906 137.261719 108.441406 C 137.105469 108.253906 137.230469 107.660156 136.730469 107.660156 C 136.417969 107.660156 136.292969 107.910156 136.292969 108.191406 Z M 136.292969 108.191406 "/>
<path fill="none" stroke-width="0.5579" stroke-linecap="butt" stroke-linejoin="miter" stroke="rgb(0%, 0%, 0%)" stroke-opacity="1" stroke-miterlimit="10" d="M -21.479843 -9.359123 L -21.479843 -27.687248 " transform="matrix(2, 0, 0, -2, 134.529999, 89.438004)"/>
<path fill="none" stroke-width="0.5579" stroke-linecap="round" stroke-linejoin="round" stroke="rgb(0%, 0%, 0%)" stroke-opacity="1" stroke-miterlimit="10" d="M -2.902443 3.345901 C -2.371193 1.338089 -1.191505 0.38887 -0.0000991821 -0.00175476 C -1.191505 -0.39238 -2.371193 -1.337692 -2.902443 -3.345505 " transform="matrix(0, 2, 2, 0, 91.573822, 145.367386)"/>
<path fill-rule="nonzero" fill="rgb(0%, 0%, 0%)" fill-opacity="1" d="M 72.277344 127.457031 L 73.871094 121.425781 C 73.964844 121.113281 74.058594 120.863281 74.121094 120.644531 C 74.402344 120.113281 74.621094 119.769531 75.371094 119.769531 C 77.027344 119.769531 77.402344 120.644531 77.402344 122.238281 L 77.746094 122.238281 L 77.996094 119.457031 L 69.246094 119.457031 L 67.996094 122.238281 L 68.371094 122.238281 C 69.058594 120.925781 69.902344 119.769531 71.933594 119.769531 C 72.496094 119.769531 72.683594 120.019531 72.683594 120.613281 C 72.683594 120.800781 72.621094 121.050781 72.558594 121.394531 L 70.902344 127.582031 C 70.714844 128.332031 70.339844 129.113281 69.621094 129.269531 C 69.433594 129.300781 69.214844 129.332031 68.933594 129.332031 L 68.871094 129.550781 L 73.433594 129.550781 L 73.527344 129.332031 C 72.964844 129.332031 72.558594 129.300781 72.339844 129.175781 C 72.121094 129.050781 72.058594 128.675781 72.058594 128.394531 C 72.058594 128.050781 72.183594 127.800781 72.277344 127.457031 Z M 72.277344 127.457031 "/>
<path fill-rule="nonzero" fill="rgb(0%, 0%, 0%)" fill-opacity="1" d="M 79.519531 127.621094 C 79.050781 127.621094 78.582031 127.996094 78.238281 128.464844 L 78.144531 128.464844 L 79.269531 124.339844 L 77.582031 124.402344 L 77.519531 124.558594 C 77.957031 124.558594 78.332031 124.683594 78.332031 124.996094 C 78.332031 125.058594 78.300781 125.183594 78.238281 125.339844 L 76.332031 132.402344 L 77.082031 132.402344 L 77.613281 130.464844 L 77.863281 130.371094 L 78.457031 131.808594 C 78.582031 132.058594 78.675781 132.246094 78.769531 132.339844 C 78.863281 132.433594 78.988281 132.496094 79.144531 132.496094 C 79.832031 132.496094 80.082031 132.027344 80.457031 131.152344 L 80.269531 131.058594 C 80.050781 131.496094 79.894531 131.964844 79.550781 131.964844 C 79.425781 131.964844 79.238281 131.527344 79.113281 131.214844 L 78.644531 130.027344 L 78.863281 129.933594 C 79.363281 129.683594 79.800781 129.464844 80.082031 129.183594 C 80.363281 128.902344 80.519531 128.621094 80.519531 128.339844 C 80.519531 127.839844 80.175781 127.621094 79.519531 127.621094 Z M 77.738281 130.121094 C 77.832031 129.683594 78.238281 128.839844 78.488281 128.527344 C 78.675781 128.308594 79.082031 127.839844 79.457031 127.839844 C 79.863281 127.839844 79.863281 128.214844 79.863281 128.433594 C 79.832031 129.246094 78.363281 129.871094 77.738281 130.121094 Z M 77.738281 130.121094 "/>
<path fill-rule="nonzero" fill="rgb(0%, 0%, 0%)" fill-opacity="1" d="M 85.167969 125.621094 C 85.167969 125.339844 84.949219 125.058594 84.605469 125.058594 C 84.324219 125.058594 84.042969 125.308594 84.042969 125.621094 C 84.042969 125.933594 84.324219 126.183594 84.605469 126.183594 C 84.886719 126.183594 85.167969 125.902344 85.167969 125.621094 Z M 80.824219 134.027344 C 80.824219 134.433594 81.230469 134.714844 81.667969 134.714844 C 82.167969 134.714844 82.574219 134.371094 82.855469 134.089844 C 83.167969 133.714844 83.449219 133.246094 83.574219 132.714844 L 84.324219 130.027344 C 84.449219 129.589844 84.542969 129.214844 84.605469 128.902344 C 84.699219 128.589844 84.761719 128.308594 84.761719 128.121094 C 84.761719 127.839844 84.636719 127.621094 84.324219 127.621094 C 83.699219 127.621094 82.886719 128.464844 82.636719 128.964844 L 82.824219 129.121094 C 82.980469 128.902344 83.355469 128.277344 83.699219 128.277344 C 83.792969 128.277344 83.886719 128.433594 83.886719 128.558594 C 83.886719 128.902344 83.792969 129.121094 83.730469 129.464844 L 82.636719 133.402344 C 82.542969 133.714844 82.324219 134.402344 81.980469 134.402344 C 81.917969 134.402344 81.855469 134.339844 81.792969 134.277344 C 81.636719 134.089844 81.761719 133.496094 81.261719 133.496094 C 80.949219 133.496094 80.824219 133.746094 80.824219 134.027344 Z M 80.824219 134.027344 "/>
<path fill="none" stroke-width="2.49017" stroke-linecap="butt" stroke-linejoin="miter" stroke="rgb(0%, 0%, 0%)" stroke-opacity="1" stroke-miterlimit="10" d="M 21.008438 -6.425529 L 21.008438 -26.894279 " transform="matrix(2, 0, 0, -2, 134.529999, 89.438004)"/>
<path fill="none" stroke-width="1.37434" stroke-linecap="butt" stroke-linejoin="miter" stroke="rgb(100%, 100%, 100%)" stroke-opacity="1" stroke-miterlimit="10" d="M 21.008438 -6.425529 L 21.008438 -26.894279 " transform="matrix(2, 0, 0, -2, 134.529999, 89.438004)"/>
<path fill="none" stroke-width="0.5579" stroke-linecap="butt" stroke-linejoin="miter" stroke="rgb(0%, 0%, 0%)" stroke-opacity="1" stroke-miterlimit="10" d="M -12.225937 -36.488029 L 10.727188 -36.488029 " transform="matrix(2, 0, 0, -2, 134.529999, 89.438004)"/>
<path fill="none" stroke-width="0.5579" stroke-linecap="round" stroke-linejoin="round" stroke="rgb(0%, 0%, 0%)" stroke-opacity="1" stroke-miterlimit="10" d="M -2.901428 3.345963 C -2.370178 1.33815 -1.190491 0.388931 0.000915527 -0.00169373 C -1.190491 -0.392319 -2.370178 -1.337631 -2.901428 -3.34935 " transform="matrix(2, 0, 0, -2, 156.545044, 162.410675)"/>
<path fill-rule="nonzero" fill="rgb(0%, 0%, 0%)" fill-opacity="1" d="M 119.734375 175.320312 L 121.328125 169.289062 C 121.421875 168.976562 121.515625 168.726562 121.578125 168.507812 C 121.859375 167.976562 122.078125 167.632812 122.828125 167.632812 C 124.484375 167.632812 124.859375 168.507812 124.859375 170.101562 L 125.203125 170.101562 L 125.453125 167.320312 L 116.703125 167.320312 L 115.453125 170.101562 L 115.828125 170.101562 C 116.515625 168.789062 117.359375 167.632812 119.390625 167.632812 C 119.953125 167.632812 120.140625 167.882812 120.140625 168.476562 C 120.140625 168.664062 120.078125 168.914062 120.015625 169.257812 L 118.359375 175.445312 C 118.171875 176.195312 117.796875 176.976562 117.078125 177.132812 C 116.890625 177.164062 116.671875 177.195312 116.390625 177.195312 L 116.328125 177.414062 L 120.890625 177.414062 L 120.984375 177.195312 C 120.421875 177.195312 120.015625 177.164062 119.796875 177.039062 C 119.578125 176.914062 119.515625 176.539062 119.515625 176.257812 C 119.515625 175.914062 119.640625 175.664062 119.734375 175.320312 Z M 119.734375 175.320312 "/>
<path fill-rule="nonzero" fill="rgb(0%, 0%, 0%)" fill-opacity="1" d="M 124.757812 179.746094 C 125.726562 179.714844 126.226562 178.871094 126.507812 178.277344 L 126.320312 178.183594 C 126.164062 178.433594 125.757812 179.246094 125.289062 179.246094 C 125.195312 179.246094 125.070312 179.089844 125.070312 178.964844 C 125.070312 178.746094 125.195312 178.339844 125.257812 178.152344 L 126.007812 176.089844 C 126.101562 175.777344 126.132812 175.652344 126.132812 175.464844 C 126.132812 175.121094 126.132812 174.871094 125.789062 174.871094 C 125.070312 174.871094 124.257812 175.683594 124.007812 176.214844 L 124.226562 176.339844 C 124.382812 176.121094 124.789062 175.527344 125.039062 175.527344 C 125.226562 175.527344 125.257812 175.652344 125.257812 175.746094 C 125.289062 175.933594 125.195312 176.246094 125.101562 176.433594 L 124.382812 178.496094 C 124.289062 178.777344 124.226562 179.027344 124.226562 179.152344 C 124.226562 179.527344 124.382812 179.746094 124.757812 179.746094 Z M 126.820312 172.871094 C 126.820312 172.589844 126.570312 172.308594 126.257812 172.308594 C 125.945312 172.308594 125.695312 172.558594 125.695312 172.871094 C 125.695312 173.183594 125.976562 173.433594 126.257812 173.433594 C 126.539062 173.433594 126.820312 173.152344 126.820312 172.871094 Z M 126.820312 172.871094 "/>
<path fill-rule="nonzero" fill="rgb(0%, 0%, 0%)" fill-opacity="1" d="M 131.453125 172.871094 C 131.453125 172.589844 131.234375 172.308594 130.890625 172.308594 C 130.609375 172.308594 130.328125 172.558594 130.328125 172.871094 C 130.328125 173.183594 130.609375 173.433594 130.890625 173.433594 C 131.171875 173.433594 131.453125 173.152344 131.453125 172.871094 Z M 127.109375 181.277344 C 127.109375 181.683594 127.515625 181.964844 127.953125 181.964844 C 128.453125 181.964844 128.859375 181.621094 129.140625 181.339844 C 129.453125 180.964844 129.734375 180.496094 129.859375 179.964844 L 130.609375 177.277344 C 130.734375 176.839844 130.828125 176.464844 130.890625 176.152344 C 130.984375 175.839844 131.046875 175.558594 131.046875 175.371094 C 131.046875 175.089844 130.921875 174.871094 130.609375 174.871094 C 129.984375 174.871094 129.171875 175.714844 128.921875 176.214844 L 129.109375 176.371094 C 129.265625 176.152344 129.640625 175.527344 129.984375 175.527344 C 130.078125 175.527344 130.171875 175.683594 130.171875 175.808594 C 130.171875 176.152344 130.078125 176.371094 130.015625 176.714844 L 128.921875 180.652344 C 128.828125 180.964844 128.609375 181.652344 128.265625 181.652344 C 128.203125 181.652344 128.140625 181.589844 128.078125 181.527344 C 127.921875 181.339844 128.046875 180.746094 127.546875 180.746094 C 127.234375 180.746094 127.109375 180.996094 127.109375 181.277344 Z M 127.109375 181.277344 "/>
<path fill-rule="nonzero" fill="rgb(0%, 0%, 0%)" fill-opacity="1" d="M 137.296875 175.320312 L 138.890625 169.289062 C 138.984375 168.976562 139.078125 168.726562 139.140625 168.507812 C 139.421875 167.976562 139.640625 167.632812 140.390625 167.632812 C 142.046875 167.632812 142.421875 168.507812 142.421875 170.101562 L 142.765625 170.101562 L 143.015625 167.320312 L 134.265625 167.320312 L 133.015625 170.101562 L 133.390625 170.101562 C 134.078125 168.789062 134.921875 167.632812 136.953125 167.632812 C 137.515625 167.632812 137.703125 167.882812 137.703125 168.476562 C 137.703125 168.664062 137.640625 168.914062 137.578125 169.257812 L 135.921875 175.445312 C 135.734375 176.195312 135.359375 176.976562 134.640625 177.132812 C 134.453125 177.164062 134.234375 177.195312 133.953125 177.195312 L 133.890625 177.414062 L 138.453125 177.414062 L 138.546875 177.195312 C 137.984375 177.195312 137.578125 177.164062 137.359375 177.039062 C 137.140625 176.914062 137.078125 176.539062 137.078125 176.257812 C 137.078125 175.914062 137.203125 175.664062 137.296875 175.320312 Z M 137.296875 175.320312 "/>
<path fill-rule="nonzero" fill="rgb(0%, 0%, 0%)" fill-opacity="1" d="M 145.214844 173.488281 C 145.214844 173.207031 144.996094 172.925781 144.652344 172.925781 C 144.371094 172.925781 144.089844 173.175781 144.089844 173.488281 C 144.089844 173.800781 144.371094 174.050781 144.652344 174.050781 C 144.933594 174.050781 145.214844 173.769531 145.214844 173.488281 Z M 140.871094 181.894531 C 140.871094 182.300781 141.277344 182.582031 141.714844 182.582031 C 142.214844 182.582031 142.621094 182.238281 142.902344 181.957031 C 143.214844 181.582031 143.496094 181.113281 143.621094 180.582031 L 144.371094 177.894531 C 144.496094 177.457031 144.589844 177.082031 144.652344 176.769531 C 144.746094 176.457031 144.808594 176.175781 144.808594 175.988281 C 144.808594 175.707031 144.683594 175.488281 144.371094 175.488281 C 143.746094 175.488281 142.933594 176.332031 142.683594 176.832031 L 142.871094 176.988281 C 143.027344 176.769531 143.402344 176.144531 143.746094 176.144531 C 143.839844 176.144531 143.933594 176.300781 143.933594 176.425781 C 143.933594 176.769531 143.839844 176.988281 143.777344 177.332031 L 142.683594 181.269531 C 142.589844 181.582031 142.371094 182.269531 142.027344 182.269531 C 141.964844 182.269531 141.902344 182.207031 141.839844 182.144531 C 141.683594 181.957031 141.808594 181.363281 141.308594 181.363281 C 140.996094 181.363281 140.871094 181.613281 140.871094 181.894531 Z M 140.871094 181.894531 "/>
<path fill-rule="nonzero" fill="rgb(0%, 0%, 0%)" fill-opacity="1" d="M 148.957031 175.488281 C 148.488281 175.488281 148.019531 175.863281 147.675781 176.332031 L 147.582031 176.332031 L 148.707031 172.207031 L 147.019531 172.269531 L 146.957031 172.425781 C 147.394531 172.425781 147.769531 172.550781 147.769531 172.863281 C 147.769531 172.925781 147.738281 173.050781 147.675781 173.207031 L 145.769531 180.269531 L 146.519531 180.269531 L 147.050781 178.332031 L 147.300781 178.238281 L 147.894531 179.675781 C 148.019531 179.925781 148.113281 180.113281 148.207031 180.207031 C 148.300781 180.300781 148.425781 180.363281 148.582031 180.363281 C 149.269531 180.363281 149.519531 179.894531 149.894531 179.019531 L 149.707031 178.925781 C 149.488281 179.363281 149.332031 179.832031 148.988281 179.832031 C 148.863281 179.832031 148.675781 179.394531 148.550781 179.082031 L 148.082031 177.894531 L 148.300781 177.800781 C 148.800781 177.550781 149.238281 177.332031 149.519531 177.050781 C 149.800781 176.769531 149.957031 176.488281 149.957031 176.207031 C 149.957031 175.707031 149.613281 175.488281 148.957031 175.488281 Z M 147.175781 177.988281 C 147.269531 177.550781 147.675781 176.707031 147.925781 176.394531 C 148.113281 176.175781 148.519531 175.707031 148.894531 175.707031 C 149.300781 175.707031 149.300781 176.082031 149.300781 176.300781 C 149.269531 177.113281 147.800781 177.738281 147.175781 177.988281 Z M 147.175781 177.988281 "/>
<path fill="none" stroke-width="2.49017" stroke-linecap="butt" stroke-linejoin="miter" stroke="rgb(0%, 0%, 0%)" stroke-opacity="1" stroke-miterlimit="10" d="M -30.546249 -0.140373 L -46.600937 -0.488029 " transform="matrix(2, 0, 0, -2, 134.529999, 89.438004)"/>
<path fill="none" stroke-width="1.37434" stroke-linecap="butt" stroke-linejoin="miter" stroke="rgb(100%, 100%, 100%)" stroke-opacity="1" stroke-miterlimit="10" d="M -30.546249 -0.140373 L -46.600937 -0.488029 " transform="matrix(2, 0, 0, -2, 134.529999, 89.438004)"/>
<path fill="none" stroke-width="0.5579" stroke-linecap="round" stroke-linejoin="round" stroke="rgb(0%, 0%, 0%)" stroke-opacity="1" stroke-miterlimit="10" d="M -1.292769 2.558907 C -0.665643 1.208996 1.024442 0.0470076 1.988499 -0.00126921 C 1.022408 -0.0467236 -0.66726 -1.205683 -1.294466 -2.559626 " transform="matrix(-1.99946, 0.0434, 0.0434, 1.99946, 41.327541, 90.416237)"/>
<path fill-rule="nonzero" fill="rgb(0%, 0%, 0%)" fill-opacity="1" d="M 46.214844 75.875 C 46.214844 74.40625 45.433594 73.5 44.058594 73.5 C 43.152344 73.5 42.433594 74.125 42.402344 74.125 L 42.402344 69.625 L 41.839844 69.78125 L 41.839844 80.125 C 41.839844 80.375 41.933594 80.53125 42.152344 80.53125 C 43.589844 80.53125 46.214844 78.59375 46.214844 75.875 Z M 44.964844 75.90625 C 44.964844 78.09375 43.777344 79.96875 42.683594 79.96875 C 42.433594 79.96875 42.402344 79.875 42.402344 79.78125 L 42.402344 75.25 C 42.402344 74.6875 42.746094 73.875 43.839844 73.875 C 44.652344 73.875 44.964844 74.84375 44.964844 75.90625 Z M 44.964844 75.90625 "/>
<path fill-rule="nonzero" fill="rgb(0%, 0%, 0%)" fill-opacity="1" d="M 48.007812 83.164062 C 48.976562 83.132812 49.476562 82.289062 49.757812 81.695312 L 49.570312 81.601562 C 49.414062 81.851562 49.007812 82.664062 48.539062 82.664062 C 48.445312 82.664062 48.320312 82.507812 48.320312 82.382812 C 48.320312 82.164062 48.445312 81.757812 48.507812 81.570312 L 49.257812 79.507812 C 49.351562 79.195312 49.382812 79.070312 49.382812 78.882812 C 49.382812 78.539062 49.382812 78.289062 49.039062 78.289062 C 48.320312 78.289062 47.507812 79.101562 47.257812 79.632812 L 47.476562 79.757812 C 47.632812 79.539062 48.039062 78.945312 48.289062 78.945312 C 48.476562 78.945312 48.507812 79.070312 48.507812 79.164062 C 48.539062 79.351562 48.445312 79.664062 48.351562 79.851562 L 47.632812 81.914062 C 47.539062 82.195312 47.476562 82.445312 47.476562 82.570312 C 47.476562 82.945312 47.632812 83.164062 48.007812 83.164062 Z M 50.070312 76.289062 C 50.070312 76.007812 49.820312 75.726562 49.507812 75.726562 C 49.195312 75.726562 48.945312 75.976562 48.945312 76.289062 C 48.945312 76.601562 49.226562 76.851562 49.507812 76.851562 C 49.789062 76.851562 50.070312 76.570312 50.070312 76.289062 Z M 50.070312 76.289062 "/>
<path fill-rule="nonzero" fill="rgb(0%, 0%, 0%)" fill-opacity="1" d="M 54.703125 76.289062 C 54.703125 76.007812 54.484375 75.726562 54.140625 75.726562 C 53.859375 75.726562 53.578125 75.976562 53.578125 76.289062 C 53.578125 76.601562 53.859375 76.851562 54.140625 76.851562 C 54.421875 76.851562 54.703125 76.570312 54.703125 76.289062 Z M 50.359375 84.695312 C 50.359375 85.101562 50.765625 85.382812 51.203125 85.382812 C 51.703125 85.382812 52.109375 85.039062 52.390625 84.757812 C 52.703125 84.382812 52.984375 83.914062 53.109375 83.382812 L 53.859375 80.695312 C 53.984375 80.257812 54.078125 79.882812 54.140625 79.570312 C 54.234375 79.257812 54.296875 78.976562 54.296875 78.789062 C 54.296875 78.507812 54.171875 78.289062 53.859375 78.289062 C 53.234375 78.289062 52.421875 79.132812 52.171875 79.632812 L 52.359375 79.789062 C 52.515625 79.570312 52.890625 78.945312 53.234375 78.945312 C 53.328125 78.945312 53.421875 79.101562 53.421875 79.226562 C 53.421875 79.570312 53.328125 79.789062 53.265625 80.132812 L 52.171875 84.070312 C 52.078125 84.382812 51.859375 85.070312 51.515625 85.070312 C 51.453125 85.070312 51.390625 85.007812 51.328125 84.945312 C 51.171875 84.757812 51.296875 84.164062 50.796875 84.164062 C 50.484375 84.164062 50.359375 84.414062 50.359375 84.695312 Z M 50.359375 84.695312 "/>
<path fill-rule="nonzero" fill="rgb(0%, 0%, 0%)" fill-opacity="1" d="M 58.445312 78.289062 C 57.976562 78.289062 57.507812 78.664062 57.164062 79.132812 L 57.070312 79.132812 L 58.195312 75.007812 L 56.507812 75.070312 L 56.445312 75.226562 C 56.882812 75.226562 57.257812 75.351562 57.257812 75.664062 C 57.257812 75.726562 57.226562 75.851562 57.164062 76.007812 L 55.257812 83.070312 L 56.007812 83.070312 L 56.539062 81.132812 L 56.789062 81.039062 L 57.382812 82.476562 C 57.507812 82.726562 57.601562 82.914062 57.695312 83.007812 C 57.789062 83.101562 57.914062 83.164062 58.070312 83.164062 C 58.757812 83.164062 59.007812 82.695312 59.382812 81.820312 L 59.195312 81.726562 C 58.976562 82.164062 58.820312 82.632812 58.476562 82.632812 C 58.351562 82.632812 58.164062 82.195312 58.039062 81.882812 L 57.570312 80.695312 L 57.789062 80.601562 C 58.289062 80.351562 58.726562 80.132812 59.007812 79.851562 C 59.289062 79.570312 59.445312 79.289062 59.445312 79.007812 C 59.445312 78.507812 59.101562 78.289062 58.445312 78.289062 Z M 56.664062 80.789062 C 56.757812 80.351562 57.164062 79.507812 57.414062 79.195312 C 57.601562 78.976562 58.007812 78.507812 58.382812 78.507812 C 58.789062 78.507812 58.789062 78.882812 58.789062 79.101562 C 58.757812 79.914062 57.289062 80.539062 56.664062 80.789062 Z M 56.664062 80.789062 "/>
</svg>
