<?xml version="1.0" encoding="UTF-8"?>
<svg xmlns="http://www.w3.org/2000/svg" xmlns:xlink="http://www.w3.org/1999/xlink" width="265.839996" height="183.300003" viewBox="0 0 265.839996 183.300003">
<defs>
<clipPath id="clip-0">
<path clip-rule="nonzero" d="M 138 0 L 265.84375 0 L 265.84375 183.296875 L 138 183.296875 Z M 138 0 "/>
</clipPath>
<clipPath id="clip-1">
<path clip-rule="nonzero" d="M 160 0 L 265.84375 0 L 265.84375 183.296875 L 160 183.296875 Z M 160 0 "/>
</clipPath>
</defs>
<path fill-rule="nonzero" fill="rgb(0%, 0%, 0%)" fill-opacity="1" d="M 96.292969 11.5625 C 96.449219 11 96.511719 10.875 96.761719 10.8125 C 96.949219 10.78125 97.605469 10.78125 98.011719 10.78125 C 100.042969 10.78125 100.917969 10.84375 100.917969 12.40625 C 100.917969 12.71875 100.855469 13.5 100.761719 14 C 100.761719 14.09375 100.699219 14.3125 100.699219 14.375 C 100.699219 14.5 100.761719 14.65625 100.949219 14.65625 C 101.167969 14.65625 101.199219 14.5 101.261719 14.1875 L 101.792969 10.71875 C 101.824219 10.625 101.824219 10.4375 101.824219 10.375 C 101.824219 10.15625 101.636719 10.15625 101.292969 10.15625 L 90.230469 10.15625 C 89.761719 10.15625 89.730469 10.1875 89.574219 10.5625 L 88.386719 14.0625 C 88.386719 14.09375 88.261719 14.375 88.261719 14.4375 C 88.261719 14.53125 88.386719 14.65625 88.511719 14.65625 C 88.699219 14.65625 88.730469 14.53125 88.855469 14.21875 C 89.917969 11.125 90.449219 10.78125 93.386719 10.78125 L 94.167969 10.78125 C 94.730469 10.78125 94.730469 10.84375 94.730469 11.03125 C 94.730469 11.125 94.667969 11.375 94.636719 11.4375 L 91.980469 22.09375 C 91.792969 22.8125 91.730469 23.03125 89.605469 23.03125 C 88.886719 23.03125 88.761719 23.03125 88.761719 23.40625 C 88.761719 23.65625 88.980469 23.65625 89.105469 23.65625 C 89.636719 23.65625 90.199219 23.625 90.730469 23.625 C 91.292969 23.625 91.886719 23.59375 92.449219 23.59375 C 93.011719 23.59375 93.542969 23.625 94.105469 23.625 C 94.667969 23.625 95.261719 23.65625 95.824219 23.65625 C 96.011719 23.65625 96.261719 23.65625 96.261719 23.25 C 96.261719 23.03125 96.105469 23.03125 95.574219 23.03125 C 95.105469 23.03125 94.824219 23.03125 94.324219 23 C 93.730469 22.9375 93.574219 22.875 93.574219 22.5625 C 93.574219 22.53125 93.574219 22.4375 93.667969 22.15625 Z M 96.292969 11.5625 "/>
<path fill-rule="nonzero" fill="rgb(0%, 0%, 0%)" fill-opacity="1" d="M 103.964844 17.925781 C 103.964844 17.707031 103.777344 17.394531 103.402344 17.394531 C 103.027344 17.394531 102.621094 17.769531 102.621094 18.175781 C 102.621094 18.394531 102.777344 18.707031 103.183594 18.707031 C 103.558594 18.707031 103.964844 18.300781 103.964844 17.925781 Z M 101.121094 25.019531 C 101.058594 25.207031 100.996094 25.363281 100.996094 25.613281 C 100.996094 26.269531 101.527344 26.769531 102.308594 26.769531 C 103.683594 26.769531 104.308594 24.863281 104.308594 24.644531 C 104.308594 24.457031 104.121094 24.457031 104.089844 24.457031 C 103.902344 24.457031 103.871094 24.550781 103.808594 24.707031 C 103.496094 25.832031 102.902344 26.394531 102.339844 26.394531 C 102.058594 26.394531 101.996094 26.207031 101.996094 25.894531 C 101.996094 25.582031 102.089844 25.332031 102.214844 25.019531 C 102.371094 24.644531 102.527344 24.269531 102.652344 23.894531 C 102.777344 23.550781 103.308594 22.300781 103.339844 22.113281 C 103.402344 21.988281 103.433594 21.832031 103.433594 21.675781 C 103.433594 21.019531 102.871094 20.488281 102.121094 20.488281 C 100.714844 20.488281 100.089844 22.394531 100.089844 22.644531 C 100.089844 22.800781 100.277344 22.800781 100.339844 22.800781 C 100.527344 22.800781 100.527344 22.738281 100.589844 22.582031 C 100.933594 21.394531 101.558594 20.894531 102.058594 20.894531 C 102.277344 20.894531 102.402344 20.988281 102.402344 21.363281 C 102.402344 21.707031 102.339844 21.894531 101.996094 22.769531 Z M 101.121094 25.019531 "/>
<path fill-rule="nonzero" fill="rgb(0%, 0%, 0%)" fill-opacity="1" d="M 185.523438 9.8125 C 185.523438 9.75 185.460938 9.59375 185.273438 9.59375 C 185.179688 9.59375 185.179688 9.625 184.929688 9.90625 L 183.960938 11.03125 C 183.460938 10.09375 182.429688 9.59375 181.117188 9.59375 C 178.585938 9.59375 176.210938 11.90625 176.210938 14.3125 C 176.210938 15.90625 177.242188 16.84375 178.273438 17.125 L 180.398438 17.6875 C 181.148438 17.875 182.242188 18.1875 182.242188 19.8125 C 182.242188 21.59375 180.617188 23.46875 178.648438 23.46875 C 177.367188 23.46875 175.148438 23.03125 175.148438 20.5625 C 175.148438 20.09375 175.273438 19.59375 175.273438 19.5 C 175.304688 19.40625 175.304688 19.375 175.304688 19.34375 C 175.304688 19.15625 175.179688 19.125 175.085938 19.125 C 174.992188 19.125 174.929688 19.15625 174.867188 19.21875 C 174.804688 19.28125 173.679688 23.84375 173.679688 23.90625 C 173.679688 24 173.773438 24.09375 173.898438 24.09375 C 173.992188 24.09375 174.023438 24.0625 174.273438 23.78125 L 175.242188 22.65625 C 176.085938 23.8125 177.460938 24.09375 178.617188 24.09375 C 181.335938 24.09375 183.679688 21.4375 183.679688 18.96875 C 183.679688 17.59375 182.992188 16.90625 182.710938 16.625 C 182.242188 16.1875 181.929688 16.09375 180.179688 15.65625 C 179.710938 15.53125 179.023438 15.3125 178.835938 15.28125 C 178.304688 15.09375 177.617188 14.53125 177.617188 13.46875 C 177.617188 11.84375 179.210938 10.15625 181.117188 10.15625 C 182.742188 10.15625 183.960938 11.03125 183.960938 13.25 C 183.960938 13.875 183.898438 14.25 183.898438 14.375 C 183.898438 14.375 183.898438 14.5625 184.117188 14.5625 C 184.335938 14.5625 184.367188 14.5 184.429688 14.15625 Z M 185.523438 9.8125 "/>
<path fill-rule="nonzero" fill="rgb(0%, 0%, 0%)" fill-opacity="1" d="M 190.671875 7.550781 C 190.671875 7.175781 190.671875 7.175781 190.265625 7.175781 C 189.359375 8.050781 188.109375 8.050781 187.546875 8.050781 L 187.546875 8.550781 C 187.859375 8.550781 188.796875 8.550781 189.546875 8.175781 L 189.546875 15.269531 C 189.546875 15.738281 189.546875 15.925781 188.171875 15.925781 L 187.640625 15.925781 L 187.640625 16.425781 C 187.890625 16.425781 189.609375 16.363281 190.109375 16.363281 C 190.546875 16.363281 192.296875 16.425781 192.609375 16.425781 L 192.609375 15.925781 L 192.078125 15.925781 C 190.671875 15.925781 190.671875 15.738281 190.671875 15.269531 Z M 190.671875 7.550781 "/>
<path fill-rule="nonzero" fill="rgb(0%, 0%, 0%)" fill-opacity="1" d="M 95.410156 81.234375 C 95.566406 80.671875 95.628906 80.546875 95.878906 80.484375 C 96.066406 80.453125 96.722656 80.453125 97.128906 80.453125 C 99.160156 80.453125 100.035156 80.515625 100.035156 82.078125 C 100.035156 82.390625 99.972656 83.171875 99.878906 83.671875 C 99.878906 83.765625 99.816406 83.984375 99.816406 84.046875 C 99.816406 84.171875 99.878906 84.328125 100.066406 84.328125 C 100.285156 84.328125 100.316406 84.171875 100.378906 83.859375 L 100.910156 80.390625 C 100.941406 80.296875 100.941406 80.109375 100.941406 80.046875 C 100.941406 79.828125 100.753906 79.828125 100.410156 79.828125 L 89.347656 79.828125 C 88.878906 79.828125 88.847656 79.859375 88.691406 80.234375 L 87.503906 83.734375 C 87.503906 83.765625 87.378906 84.046875 87.378906 84.109375 C 87.378906 84.203125 87.503906 84.328125 87.628906 84.328125 C 87.816406 84.328125 87.847656 84.203125 87.972656 83.890625 C 89.035156 80.796875 89.566406 80.453125 92.503906 80.453125 L 93.285156 80.453125 C 93.847656 80.453125 93.847656 80.515625 93.847656 80.703125 C 93.847656 80.796875 93.785156 81.046875 93.753906 81.109375 L 91.097656 91.765625 C 90.910156 92.484375 90.847656 92.703125 88.722656 92.703125 C 88.003906 92.703125 87.878906 92.703125 87.878906 93.078125 C 87.878906 93.328125 88.097656 93.328125 88.222656 93.328125 C 88.753906 93.328125 89.316406 93.296875 89.847656 93.296875 C 90.410156 93.296875 91.003906 93.265625 91.566406 93.265625 C 92.128906 93.265625 92.660156 93.296875 93.222656 93.296875 C 93.785156 93.296875 94.378906 93.328125 94.941406 93.328125 C 95.128906 93.328125 95.378906 93.328125 95.378906 92.921875 C 95.378906 92.703125 95.222656 92.703125 94.691406 92.703125 C 94.222656 92.703125 93.941406 92.703125 93.441406 92.671875 C 92.847656 92.609375 92.691406 92.546875 92.691406 92.234375 C 92.691406 92.203125 92.691406 92.109375 92.785156 91.828125 Z M 95.410156 81.234375 "/>
<path fill-rule="nonzero" fill="rgb(0%, 0%, 0%)" fill-opacity="1" d="M 104.675781 87.597656 C 104.675781 87.378906 104.488281 87.066406 104.113281 87.066406 C 103.707031 87.066406 103.332031 87.472656 103.332031 87.847656 C 103.332031 88.066406 103.488281 88.378906 103.894531 88.378906 C 104.269531 88.378906 104.675781 88.003906 104.675781 87.597656 Z M 101.707031 97.003906 C 101.488281 97.972656 100.738281 98.753906 99.925781 98.753906 C 99.738281 98.753906 99.582031 98.753906 99.425781 98.691406 C 99.769531 98.503906 99.894531 98.191406 99.894531 97.972656 C 99.894531 97.628906 99.613281 97.472656 99.332031 97.472656 C 98.925781 97.472656 98.550781 97.847656 98.550781 98.285156 C 98.550781 98.816406 99.082031 99.160156 99.925781 99.160156 C 100.769531 99.160156 102.394531 98.660156 102.832031 96.972656 L 104.082031 91.972656 C 104.113281 91.816406 104.144531 91.691406 104.144531 91.472656 C 104.144531 90.722656 103.488281 90.160156 102.675781 90.160156 C 101.113281 90.160156 100.238281 92.097656 100.238281 92.316406 C 100.238281 92.472656 100.425781 92.472656 100.457031 92.472656 C 100.613281 92.472656 100.644531 92.441406 100.738281 92.222656 C 101.082031 91.410156 101.800781 90.566406 102.613281 90.566406 C 102.957031 90.566406 103.082031 90.785156 103.082031 91.253906 C 103.082031 91.410156 103.082031 91.597656 103.050781 91.660156 Z M 101.707031 97.003906 "/>
<path fill-rule="nonzero" fill="rgb(0%, 0%, 0%)" fill-opacity="1" d="M 185.523438 79.484375 C 185.523438 79.421875 185.460938 79.265625 185.273438 79.265625 C 185.179688 79.265625 185.179688 79.296875 184.929688 79.578125 L 183.960938 80.703125 C 183.460938 79.765625 182.429688 79.265625 181.117188 79.265625 C 178.585938 79.265625 176.210938 81.578125 176.210938 83.984375 C 176.210938 85.578125 177.242188 86.515625 178.273438 86.796875 L 180.398438 87.359375 C 181.148438 87.546875 182.242188 87.859375 182.242188 89.484375 C 182.242188 91.265625 180.617188 93.140625 178.648438 93.140625 C 177.367188 93.140625 175.148438 92.703125 175.148438 90.234375 C 175.148438 89.765625 175.273438 89.265625 175.273438 89.171875 C 175.304688 89.078125 175.304688 89.046875 175.304688 89.015625 C 175.304688 88.828125 175.179688 88.796875 175.085938 88.796875 C 174.992188 88.796875 174.929688 88.828125 174.867188 88.890625 C 174.804688 88.953125 173.679688 93.515625 173.679688 93.578125 C 173.679688 93.671875 173.773438 93.765625 173.898438 93.765625 C 173.992188 93.765625 174.023438 93.734375 174.273438 93.453125 L 175.242188 92.328125 C 176.085938 93.484375 177.460938 93.765625 178.617188 93.765625 C 181.335938 93.765625 183.679688 91.109375 183.679688 88.640625 C 183.679688 87.265625 182.992188 86.578125 182.710938 86.296875 C 182.242188 85.859375 181.929688 85.765625 180.179688 85.328125 C 179.710938 85.203125 179.023438 84.984375 178.835938 84.953125 C 178.304688 84.765625 177.617188 84.203125 177.617188 83.140625 C 177.617188 81.515625 179.210938 79.828125 181.117188 79.828125 C 182.742188 79.828125 183.960938 80.703125 183.960938 82.921875 C 183.960938 83.546875 183.898438 83.921875 183.898438 84.046875 C 183.898438 84.046875 183.898438 84.234375 184.117188 84.234375 C 184.335938 84.234375 184.367188 84.171875 184.429688 83.828125 Z M 185.523438 79.484375 "/>
<path fill-rule="nonzero" fill="rgb(0%, 0%, 0%)" fill-opacity="1" d="M 190.671875 77.226562 C 190.671875 76.851562 190.671875 76.851562 190.265625 76.851562 C 189.359375 77.726562 188.109375 77.726562 187.546875 77.726562 L 187.546875 78.226562 C 187.859375 78.226562 188.796875 78.226562 189.546875 77.851562 L 189.546875 84.945312 C 189.546875 85.414062 189.546875 85.601562 188.171875 85.601562 L 187.640625 85.601562 L 187.640625 86.101562 C 187.890625 86.101562 189.609375 86.039062 190.109375 86.039062 C 190.546875 86.039062 192.296875 86.101562 192.609375 86.101562 L 192.609375 85.601562 L 192.078125 85.601562 C 190.671875 85.601562 190.671875 85.414062 190.671875 84.945312 Z M 190.671875 77.226562 "/>
<path fill-rule="nonzero" fill="rgb(0%, 0%, 0%)" fill-opacity="1" d="M 94.707031 153.621094 C 94.863281 153.058594 94.925781 152.933594 95.175781 152.871094 C 95.363281 152.839844 96.019531 152.839844 96.425781 152.839844 C 98.457031 152.839844 99.332031 152.902344 99.332031 154.464844 C 99.332031 154.777344 99.269531 155.558594 99.175781 156.058594 C 99.175781 156.152344 99.113281 156.371094 99.113281 156.433594 C 99.113281 156.558594 99.175781 156.714844 99.363281 156.714844 C 99.582031 156.714844 99.613281 156.558594 99.675781 156.246094 L 100.207031 152.777344 C 100.238281 152.683594 100.238281 152.496094 100.238281 152.433594 C 100.238281 152.214844 100.050781 152.214844 99.707031 152.214844 L 88.644531 152.214844 C 88.175781 152.214844 88.144531 152.246094 87.988281 152.621094 L 86.800781 156.121094 C 86.800781 156.152344 86.675781 156.433594 86.675781 156.496094 C 86.675781 156.589844 86.800781 156.714844 86.925781 156.714844 C 87.113281 156.714844 87.144531 156.589844 87.269531 156.277344 C 88.332031 153.183594 88.863281 152.839844 91.800781 152.839844 L 92.582031 152.839844 C 93.144531 152.839844 93.144531 152.902344 93.144531 153.089844 C 93.144531 153.183594 93.082031 153.433594 93.050781 153.496094 L 90.394531 164.152344 C 90.207031 164.871094 90.144531 165.089844 88.019531 165.089844 C 87.300781 165.089844 87.175781 165.089844 87.175781 165.464844 C 87.175781 165.714844 87.394531 165.714844 87.519531 165.714844 C 88.050781 165.714844 88.613281 165.683594 89.144531 165.683594 C 89.707031 165.683594 90.300781 165.652344 90.863281 165.652344 C 91.425781 165.652344 91.957031 165.683594 92.519531 165.683594 C 93.082031 165.683594 93.675781 165.714844 94.238281 165.714844 C 94.425781 165.714844 94.675781 165.714844 94.675781 165.308594 C 94.675781 165.089844 94.519531 165.089844 93.988281 165.089844 C 93.519531 165.089844 93.238281 165.089844 92.738281 165.058594 C 92.144531 164.996094 91.988281 164.933594 91.988281 164.621094 C 91.988281 164.589844 91.988281 164.496094 92.082031 164.214844 Z M 94.707031 153.621094 "/>
<path fill-rule="nonzero" fill="rgb(0%, 0%, 0%)" fill-opacity="1" d="M 102.222656 159.453125 C 102.222656 159.421875 102.253906 159.234375 102.253906 159.234375 C 102.253906 159.140625 102.222656 159.015625 102.035156 159.015625 C 101.753906 159.015625 100.597656 159.140625 100.253906 159.171875 C 100.160156 159.171875 99.941406 159.203125 99.941406 159.484375 C 99.941406 159.671875 100.160156 159.671875 100.316406 159.671875 C 100.972656 159.671875 100.972656 159.796875 100.972656 159.890625 C 100.972656 159.984375 100.941406 160.078125 100.941406 160.203125 L 98.972656 168.078125 C 98.878906 168.328125 98.878906 168.359375 98.878906 168.390625 C 98.878906 168.609375 99.066406 168.828125 99.378906 168.828125 C 99.753906 168.828125 99.910156 168.578125 100.003906 168.265625 C 100.035156 168.203125 100.628906 165.734375 100.691406 165.546875 C 101.691406 165.640625 102.472656 165.984375 102.472656 166.703125 C 102.472656 166.765625 102.472656 166.828125 102.441406 166.984375 C 102.378906 167.171875 102.378906 167.265625 102.378906 167.421875 C 102.378906 168.390625 103.191406 168.828125 103.878906 168.828125 C 105.222656 168.828125 105.628906 166.734375 105.628906 166.703125 C 105.628906 166.515625 105.472656 166.515625 105.410156 166.515625 C 105.222656 166.515625 105.191406 166.609375 105.128906 166.859375 C 104.972656 167.453125 104.597656 168.453125 103.910156 168.453125 C 103.535156 168.453125 103.410156 168.109375 103.410156 167.734375 C 103.410156 167.484375 103.410156 167.453125 103.503906 167.109375 C 103.535156 167.046875 103.566406 166.828125 103.566406 166.671875 C 103.566406 165.421875 101.910156 165.234375 101.316406 165.203125 C 101.722656 164.953125 102.222656 164.484375 102.472656 164.265625 C 103.191406 163.609375 103.878906 162.953125 104.660156 162.953125 C 104.816406 162.953125 105.003906 162.984375 105.128906 163.140625 C 104.535156 163.234375 104.410156 163.703125 104.410156 163.921875 C 104.410156 164.203125 104.628906 164.421875 104.941406 164.421875 C 105.347656 164.421875 105.753906 164.109375 105.753906 163.546875 C 105.753906 163.078125 105.410156 162.546875 104.691406 162.546875 C 103.878906 162.546875 103.160156 163.140625 102.441406 163.796875 C 101.847656 164.328125 101.410156 164.765625 100.816406 165.015625 Z M 102.222656 159.453125 "/>
<path fill-rule="nonzero" fill="rgb(0%, 0%, 0%)" fill-opacity="1" d="M 185.523438 151.871094 C 185.523438 151.808594 185.460938 151.652344 185.273438 151.652344 C 185.179688 151.652344 185.179688 151.683594 184.929688 151.964844 L 183.960938 153.089844 C 183.460938 152.152344 182.429688 151.652344 181.117188 151.652344 C 178.585938 151.652344 176.210938 153.964844 176.210938 156.371094 C 176.210938 157.964844 177.242188 158.902344 178.273438 159.183594 L 180.398438 159.746094 C 181.148438 159.933594 182.242188 160.246094 182.242188 161.871094 C 182.242188 163.652344 180.617188 165.527344 178.648438 165.527344 C 177.367188 165.527344 175.148438 165.089844 175.148438 162.621094 C 175.148438 162.152344 175.273438 161.652344 175.273438 161.558594 C 175.304688 161.464844 175.304688 161.433594 175.304688 161.402344 C 175.304688 161.214844 175.179688 161.183594 175.085938 161.183594 C 174.992188 161.183594 174.929688 161.214844 174.867188 161.277344 C 174.804688 161.339844 173.679688 165.902344 173.679688 165.964844 C 173.679688 166.058594 173.773438 166.152344 173.898438 166.152344 C 173.992188 166.152344 174.023438 166.121094 174.273438 165.839844 L 175.242188 164.714844 C 176.085938 165.871094 177.460938 166.152344 178.617188 166.152344 C 181.335938 166.152344 183.679688 163.496094 183.679688 161.027344 C 183.679688 159.652344 182.992188 158.964844 182.710938 158.683594 C 182.242188 158.246094 181.929688 158.152344 180.179688 157.714844 C 179.710938 157.589844 179.023438 157.371094 178.835938 157.339844 C 178.304688 157.152344 177.617188 156.589844 177.617188 155.527344 C 177.617188 153.902344 179.210938 152.214844 181.117188 152.214844 C 182.742188 152.214844 183.960938 153.089844 183.960938 155.308594 C 183.960938 155.933594 183.898438 156.308594 183.898438 156.433594 C 183.898438 156.433594 183.898438 156.621094 184.117188 156.621094 C 184.335938 156.621094 184.367188 156.558594 184.429688 156.214844 Z M 185.523438 151.871094 "/>
<path fill-rule="nonzero" fill="rgb(0%, 0%, 0%)" fill-opacity="1" d="M 190.671875 149.609375 C 190.671875 149.234375 190.671875 149.234375 190.265625 149.234375 C 189.359375 150.109375 188.109375 150.109375 187.546875 150.109375 L 187.546875 150.609375 C 187.859375 150.609375 188.796875 150.609375 189.546875 150.234375 L 189.546875 157.328125 C 189.546875 157.796875 189.546875 157.984375 188.171875 157.984375 L 187.640625 157.984375 L 187.640625 158.484375 C 187.890625 158.484375 189.609375 158.421875 190.109375 158.421875 C 190.546875 158.421875 192.296875 158.484375 192.609375 158.484375 L 192.609375 157.984375 L 192.078125 157.984375 C 190.671875 157.984375 190.671875 157.796875 190.671875 157.328125 Z M 190.671875 149.609375 "/>
<path fill="none" stroke-width="2.33075" stroke-linecap="butt" stroke-linejoin="miter" stroke="rgb(0%, 0%, 0%)" stroke-opacity="1" stroke-miterlimit="10" d="M -12.762657 34.699062 L 11.54203 34.699062 " transform="matrix(2, 0, 0, -2, 140.580002, 88.07)"/>
<path fill="none" stroke-width="1.53377" stroke-linecap="butt" stroke-linejoin="miter" stroke="rgb(100%, 100%, 100%)" stroke-opacity="1" stroke-miterlimit="10" d="M -12.762657 34.699062 L 11.54203 34.699062 " transform="matrix(2, 0, 0, -2, 140.580002, 88.07)"/>
<path fill-rule="nonzero" fill="rgb(0%, 0%, 0%)" fill-opacity="1" d="M 135.640625 5.386719 C 135.640625 4.980469 135.296875 4.574219 134.828125 4.574219 C 134.421875 4.574219 134.046875 4.917969 134.046875 5.386719 C 134.046875 5.886719 134.453125 6.199219 134.828125 6.199219 C 135.296875 6.199219 135.640625 5.855469 135.640625 5.386719 Z M 133.515625 7.980469 L 133.515625 8.480469 C 134.390625 8.480469 134.515625 8.574219 134.515625 9.261719 L 134.515625 12.886719 C 134.515625 13.480469 134.390625 13.480469 133.484375 13.480469 L 133.484375 13.980469 C 133.515625 13.980469 134.484375 13.917969 135.046875 13.917969 C 135.546875 13.917969 136.046875 13.949219 136.515625 13.980469 L 136.515625 13.480469 C 135.703125 13.480469 135.578125 13.480469 135.578125 12.886719 L 135.578125 7.824219 Z M 133.515625 7.980469 "/>
<path fill-rule="nonzero" fill="rgb(0%, 0%, 0%)" fill-opacity="1" d="M 142.175781 4.449219 L 142.175781 4.949219 C 143.113281 4.949219 143.207031 5.074219 143.207031 5.730469 L 143.207031 8.636719 C 142.707031 8.136719 142.019531 7.824219 141.269531 7.824219 C 139.394531 7.824219 137.863281 9.230469 137.863281 10.980469 C 137.863281 12.730469 139.332031 14.105469 141.082031 14.105469 C 142.238281 14.105469 142.925781 13.511719 143.144531 13.261719 L 143.144531 14.105469 L 145.300781 13.980469 L 145.300781 13.480469 C 144.363281 13.480469 144.269531 13.386719 144.269531 12.699219 L 144.269531 4.292969 Z M 143.144531 12.511719 C 142.800781 13.167969 142.082031 13.730469 141.175781 13.730469 C 140.394531 13.730469 139.832031 13.261719 139.550781 12.855469 C 139.269531 12.449219 139.113281 11.886719 139.113281 11.011719 C 139.113281 10.667969 139.113281 9.636719 139.675781 8.980469 C 140.238281 8.355469 140.925781 8.230469 141.332031 8.230469 C 141.988281 8.230469 142.613281 8.542969 142.988281 9.042969 C 143.144531 9.261719 143.144531 9.261719 143.144531 9.542969 Z M 143.144531 12.511719 "/>
<path fill="none" stroke-width="0.39848" stroke-linecap="butt" stroke-linejoin="miter" stroke="rgb(0%, 0%, 0%)" stroke-opacity="1" stroke-miterlimit="10" d="M -21.825157 26.863125 L -21.825157 8.425625 " transform="matrix(2, 0, 0, -2, 140.580002, 88.07)"/>
<path fill="none" stroke-width="0.39848" stroke-linecap="round" stroke-linejoin="round" stroke="rgb(0%, 0%, 0%)" stroke-opacity="1" stroke-miterlimit="10" d="M -2.074024 2.391068 C -1.695118 0.957474 -0.851368 0.277786 0.00019455 0.000442505 C -0.851368 -0.280807 -1.695118 -0.956589 -2.074024 -2.390182 " transform="matrix(0, 2, 2, 0, 96.928802, 71.616798)"/>
<path fill-rule="nonzero" fill="rgb(0%, 0%, 0%)" fill-opacity="1" d="M 76.847656 47.542969 C 76.941406 47.136719 76.972656 47.105469 77.285156 47.074219 C 77.347656 47.074219 77.816406 47.074219 78.097656 47.074219 C 78.972656 47.074219 79.316406 47.074219 79.660156 47.167969 C 80.285156 47.355469 80.316406 47.761719 80.316406 48.261719 C 80.316406 48.480469 80.316406 48.667969 80.222656 49.386719 L 80.191406 49.542969 C 80.191406 49.699219 80.285156 49.761719 80.441406 49.761719 C 80.660156 49.761719 80.660156 49.636719 80.691406 49.417969 L 81.066406 46.761719 C 81.066406 46.574219 80.910156 46.574219 80.660156 46.574219 L 72.097656 46.574219 C 71.753906 46.574219 71.722656 46.574219 71.628906 46.855469 L 70.722656 49.324219 C 70.722656 49.386719 70.660156 49.511719 70.660156 49.574219 C 70.660156 49.636719 70.691406 49.761719 70.910156 49.761719 C 71.097656 49.761719 71.097656 49.699219 71.191406 49.417969 C 72.003906 47.199219 72.472656 47.074219 74.597656 47.074219 L 75.160156 47.074219 C 75.597656 47.074219 75.597656 47.074219 75.597656 47.199219 C 75.597656 47.199219 75.597656 47.292969 75.535156 47.480469 L 73.691406 54.824219 C 73.566406 55.324219 73.535156 55.480469 72.066406 55.480469 C 71.566406 55.480469 71.441406 55.480469 71.441406 55.792969 C 71.441406 55.824219 71.472656 55.980469 71.691406 55.980469 C 72.066406 55.980469 72.503906 55.949219 72.878906 55.949219 C 73.285156 55.949219 73.691406 55.917969 74.066406 55.917969 C 74.472656 55.917969 74.941406 55.917969 75.347656 55.949219 C 75.722656 55.949219 76.128906 55.980469 76.503906 55.980469 C 76.628906 55.980469 76.816406 55.980469 76.816406 55.667969 C 76.816406 55.480469 76.691406 55.480469 76.253906 55.480469 C 76.003906 55.480469 75.722656 55.449219 75.441406 55.449219 C 74.972656 55.417969 74.941406 55.355469 74.941406 55.199219 C 74.941406 55.074219 74.941406 55.074219 75.003906 54.855469 Z M 76.847656 47.542969 "/>
<path fill-rule="nonzero" fill="rgb(0%, 0%, 0%)" fill-opacity="1" d="M 84.570312 51.753906 C 84.570312 51.535156 84.382812 51.316406 84.132812 51.316406 C 83.820312 51.316406 83.507812 51.628906 83.507812 51.910156 C 83.507812 52.160156 83.695312 52.347656 83.945312 52.347656 C 84.289062 52.347656 84.570312 52.035156 84.570312 51.753906 Z M 82.382812 58.410156 C 82.195312 59.191406 81.570312 59.691406 80.976562 59.691406 C 80.789062 59.691406 80.695312 59.660156 80.601562 59.628906 C 80.851562 59.472656 80.914062 59.222656 80.914062 59.097656 C 80.914062 58.941406 80.789062 58.691406 80.476562 58.691406 C 80.132812 58.691406 79.851562 59.003906 79.851562 59.316406 C 79.851562 59.753906 80.289062 60.003906 80.976562 60.003906 C 81.664062 60.003906 82.945312 59.660156 83.257812 58.441406 L 84.164062 54.847656 C 84.164062 54.753906 84.195312 54.660156 84.195312 54.535156 C 84.195312 53.972656 83.664062 53.566406 82.976562 53.566406 C 81.757812 53.566406 81.039062 54.910156 81.039062 55.097656 C 81.039062 55.253906 81.195312 55.253906 81.226562 55.253906 C 81.382812 55.253906 81.414062 55.222656 81.445312 55.097656 C 81.914062 54.128906 82.601562 53.910156 82.945312 53.910156 C 83.320312 53.910156 83.351562 54.253906 83.351562 54.441406 C 83.351562 54.566406 83.351562 54.597656 83.320312 54.691406 Z M 82.382812 58.410156 "/>
<path fill-rule="nonzero" fill="rgb(0%, 0%, 0%)" fill-opacity="1" d="M 89.859375 51.753906 C 89.859375 51.503906 89.703125 51.316406 89.421875 51.316406 C 89.140625 51.316406 88.828125 51.597656 88.828125 51.910156 C 88.828125 52.191406 89.046875 52.347656 89.265625 52.347656 C 89.578125 52.347656 89.859375 52.066406 89.859375 51.753906 Z M 90.328125 56.535156 C 90.328125 56.410156 90.171875 56.410156 90.140625 56.410156 C 89.953125 56.410156 89.953125 56.441406 89.890625 56.628906 C 89.734375 57.160156 89.265625 57.753906 88.765625 57.753906 C 88.546875 57.753906 88.484375 57.597656 88.484375 57.378906 C 88.484375 57.160156 88.515625 57.035156 88.609375 56.847656 C 88.671875 56.660156 88.765625 56.472656 88.828125 56.316406 C 88.859375 56.222656 89.234375 55.316406 89.390625 54.941406 C 89.453125 54.753906 89.515625 54.597656 89.515625 54.441406 C 89.515625 53.972656 89.046875 53.566406 88.421875 53.566406 C 87.390625 53.566406 86.828125 54.847656 86.828125 55.097656 C 86.828125 55.253906 86.984375 55.253906 87.046875 55.253906 C 87.203125 55.253906 87.203125 55.191406 87.265625 55.066406 C 87.484375 54.347656 87.953125 53.910156 88.390625 53.910156 C 88.578125 53.910156 88.703125 54.003906 88.703125 54.285156 C 88.703125 54.316406 88.703125 54.441406 88.640625 54.628906 C 88.578125 54.816406 88.109375 55.878906 87.984375 56.222656 C 87.890625 56.410156 87.890625 56.410156 87.765625 56.753906 C 87.703125 56.910156 87.640625 57.035156 87.640625 57.191406 C 87.640625 57.722656 88.140625 58.097656 88.734375 58.097656 C 89.765625 58.097656 90.328125 56.785156 90.328125 56.535156 Z M 90.328125 56.535156 "/>
<path fill="none" stroke-width="0.39848" stroke-linecap="butt" stroke-linejoin="miter" stroke="rgb(0%, 0%, 0%)" stroke-opacity="1" stroke-miterlimit="10" d="M -30.887657 29.046719 C -61.67672 9.835781 -61.67672 -11.472813 -32.02047 -29.972813 " transform="matrix(2, 0, 0, -2, 140.580002, 88.07)"/>
<path fill="none" stroke-width="0.39848" stroke-linecap="round" stroke-linejoin="round" stroke="rgb(0%, 0%, 0%)" stroke-opacity="1" stroke-miterlimit="10" d="M -2.071624 2.392823 C -1.695549 0.956108 -0.848899 0.278012 0.000142296 0.00197724 C -0.850586 -0.280156 -1.693763 -0.958147 -2.070882 -2.390535 " transform="matrix(1.6968, 1.05862, 1.05862, -1.6968, 76.880478, 148.229767)"/>
<path fill-rule="nonzero" fill="rgb(0%, 0%, 0%)" fill-opacity="1" d="M 11.074219 84.851562 C 11.167969 84.445312 11.199219 84.414062 11.511719 84.382812 C 11.574219 84.382812 12.042969 84.382812 12.324219 84.382812 C 13.199219 84.382812 13.542969 84.382812 13.886719 84.476562 C 14.511719 84.664062 14.542969 85.070312 14.542969 85.570312 C 14.542969 85.789062 14.542969 85.976562 14.449219 86.695312 L 14.417969 86.851562 C 14.417969 87.007812 14.511719 87.070312 14.667969 87.070312 C 14.886719 87.070312 14.886719 86.945312 14.917969 86.726562 L 15.292969 84.070312 C 15.292969 83.882812 15.136719 83.882812 14.886719 83.882812 L 6.324219 83.882812 C 5.980469 83.882812 5.949219 83.882812 5.855469 84.164062 L 4.949219 86.632812 C 4.949219 86.695312 4.886719 86.820312 4.886719 86.882812 C 4.886719 86.945312 4.917969 87.070312 5.136719 87.070312 C 5.324219 87.070312 5.324219 87.007812 5.417969 86.726562 C 6.230469 84.507812 6.699219 84.382812 8.824219 84.382812 L 9.386719 84.382812 C 9.824219 84.382812 9.824219 84.382812 9.824219 84.507812 C 9.824219 84.507812 9.824219 84.601562 9.761719 84.789062 L 7.917969 92.132812 C 7.792969 92.632812 7.761719 92.789062 6.292969 92.789062 C 5.792969 92.789062 5.667969 92.789062 5.667969 93.101562 C 5.667969 93.132812 5.699219 93.289062 5.917969 93.289062 C 6.292969 93.289062 6.730469 93.257812 7.105469 93.257812 C 7.511719 93.257812 7.917969 93.226562 8.292969 93.226562 C 8.699219 93.226562 9.167969 93.226562 9.574219 93.257812 C 9.949219 93.257812 10.355469 93.289062 10.730469 93.289062 C 10.855469 93.289062 11.042969 93.289062 11.042969 92.976562 C 11.042969 92.789062 10.917969 92.789062 10.480469 92.789062 C 10.230469 92.789062 9.949219 92.757812 9.667969 92.757812 C 9.199219 92.726562 9.167969 92.664062 9.167969 92.507812 C 9.167969 92.382812 9.167969 92.382812 9.230469 92.164062 Z M 11.074219 84.851562 "/>
<path fill-rule="nonzero" fill="rgb(0%, 0%, 0%)" fill-opacity="1" d="M 17.359375 88.871094 C 17.421875 88.714844 17.421875 88.714844 17.421875 88.652344 C 17.421875 88.496094 17.265625 88.496094 17.109375 88.496094 L 15.890625 88.589844 C 15.703125 88.589844 15.671875 88.589844 15.640625 88.652344 C 15.609375 88.683594 15.578125 88.808594 15.578125 88.871094 C 15.578125 89.027344 15.734375 89.027344 15.859375 89.027344 C 15.890625 89.027344 16.046875 89.027344 16.203125 89.058594 C 16.390625 89.089844 16.390625 89.121094 16.390625 89.183594 C 16.390625 89.214844 16.390625 89.246094 16.359375 89.433594 L 14.984375 94.933594 C 14.953125 95.058594 14.953125 95.089844 14.953125 95.152344 C 14.953125 95.371094 15.109375 95.527344 15.328125 95.527344 C 15.703125 95.527344 15.796875 95.152344 15.828125 94.996094 L 16.296875 93.183594 C 16.546875 93.183594 17.796875 93.246094 17.796875 93.964844 C 17.796875 94.027344 17.796875 94.058594 17.765625 94.183594 C 17.734375 94.339844 17.734375 94.371094 17.734375 94.433594 C 17.734375 95.152344 18.359375 95.527344 18.953125 95.527344 C 19.953125 95.527344 20.359375 94.089844 20.359375 93.964844 C 20.359375 93.839844 20.203125 93.839844 20.140625 93.839844 C 19.984375 93.839844 19.953125 93.871094 19.921875 94.058594 C 19.828125 94.402344 19.515625 95.183594 18.984375 95.183594 C 18.609375 95.183594 18.578125 94.808594 18.578125 94.589844 C 18.578125 94.589844 18.578125 94.433594 18.609375 94.277344 C 18.640625 94.121094 18.671875 93.996094 18.671875 93.933594 C 18.671875 93.058594 17.546875 92.902344 16.890625 92.839844 C 17.171875 92.683594 17.609375 92.339844 17.765625 92.214844 C 18.328125 91.777344 18.890625 91.339844 19.453125 91.339844 C 19.671875 91.339844 19.734375 91.402344 19.796875 91.464844 C 19.796875 91.464844 19.734375 91.496094 19.703125 91.496094 C 19.265625 91.652344 19.265625 92.058594 19.265625 92.089844 C 19.265625 92.246094 19.390625 92.496094 19.703125 92.496094 C 19.890625 92.496094 20.328125 92.339844 20.328125 91.777344 C 20.328125 91.308594 19.953125 90.996094 19.453125 90.996094 C 18.796875 90.996094 18.203125 91.464844 17.484375 92.027344 C 17.140625 92.308594 16.796875 92.558594 16.390625 92.746094 Z M 17.359375 88.871094 "/>
<path fill-rule="nonzero" fill="rgb(0%, 0%, 0%)" fill-opacity="1" d="M 25.351562 89.183594 C 25.351562 88.933594 25.195312 88.746094 24.914062 88.746094 C 24.632812 88.746094 24.320312 89.027344 24.320312 89.339844 C 24.320312 89.621094 24.539062 89.777344 24.757812 89.777344 C 25.070312 89.777344 25.351562 89.496094 25.351562 89.183594 Z M 25.820312 93.964844 C 25.820312 93.839844 25.664062 93.839844 25.632812 93.839844 C 25.445312 93.839844 25.445312 93.871094 25.382812 94.058594 C 25.226562 94.589844 24.757812 95.183594 24.257812 95.183594 C 24.039062 95.183594 23.976562 95.027344 23.976562 94.808594 C 23.976562 94.589844 24.007812 94.464844 24.101562 94.277344 C 24.164062 94.089844 24.257812 93.902344 24.320312 93.746094 C 24.351562 93.652344 24.726562 92.746094 24.882812 92.371094 C 24.945312 92.183594 25.007812 92.027344 25.007812 91.871094 C 25.007812 91.402344 24.539062 90.996094 23.914062 90.996094 C 22.882812 90.996094 22.320312 92.277344 22.320312 92.527344 C 22.320312 92.683594 22.476562 92.683594 22.539062 92.683594 C 22.695312 92.683594 22.695312 92.621094 22.757812 92.496094 C 22.976562 91.777344 23.445312 91.339844 23.882812 91.339844 C 24.070312 91.339844 24.195312 91.433594 24.195312 91.714844 C 24.195312 91.746094 24.195312 91.871094 24.132812 92.058594 C 24.070312 92.246094 23.601562 93.308594 23.476562 93.652344 C 23.382812 93.839844 23.382812 93.839844 23.257812 94.183594 C 23.195312 94.339844 23.132812 94.464844 23.132812 94.621094 C 23.132812 95.152344 23.632812 95.527344 24.226562 95.527344 C 25.257812 95.527344 25.820312 94.214844 25.820312 93.964844 Z M 25.820312 93.964844 "/>
<path fill="none" stroke-width="2.33075" stroke-linecap="butt" stroke-linejoin="miter" stroke="rgb(0%, 0%, 0%)" stroke-opacity="1" stroke-miterlimit="10" d="M 21.612343 28.359219 L 21.612343 9.327969 " transform="matrix(2, 0, 0, -2, 140.580002, 88.07)"/>
<path fill="none" stroke-width="1.53377" stroke-linecap="butt" stroke-linejoin="miter" stroke="rgb(100%, 100%, 100%)" stroke-opacity="1" stroke-miterlimit="10" d="M 21.612343 28.359219 L 21.612343 9.327969 " transform="matrix(2, 0, 0, -2, 140.580002, 88.07)"/>
<g clip-path="url(#clip-0)">
<path fill="none" stroke-width="2.33075" stroke-linecap="butt" stroke-linejoin="miter" stroke="rgb(0%, 0%, 0%)" stroke-opacity="1" stroke-miterlimit="10" d="M 31.682655 28.417812 C 61.463905 9.835781 61.463905 -11.472813 31.682655 -30.050938 " transform="matrix(2, 0, 0, -2, 140.580002, 88.07)"/>
</g>
<g clip-path="url(#clip-1)">
<path fill="none" stroke-width="1.53377" stroke-linecap="butt" stroke-linejoin="miter" stroke="rgb(100%, 100%, 100%)" stroke-opacity="1" stroke-miterlimit="10" d="M 31.682655 28.417812 C 61.463905 9.835781 61.463905 -11.472813 31.682655 -30.050938 " transform="matrix(2, 0, 0, -2, 140.580002, 88.07)"/>
</g>
<path fill="none" stroke-width="0.39848" stroke-linecap="butt" stroke-linejoin="miter" stroke="rgb(0%, 0%, 0%)" stroke-opacity="1" stroke-miterlimit="10" d="M -12.321251 -0.140781 L 11.143593 -0.140781 " transform="matrix(2, 0, 0, -2, 140.580002, 88.07)"/>
<path fill="none" stroke-width="0.39848" stroke-linecap="round" stroke-linejoin="round" stroke="rgb(0%, 0%, 0%)" stroke-opacity="1" stroke-miterlimit="10" d="M -2.073753 2.392681 C -1.694847 0.955181 -0.851097 0.2794 0.000465393 -0.00185013 C -0.851097 -0.279194 -1.694847 -0.954975 -2.073753 -2.392475 " transform="matrix(2, 0, 0, -2, 163.264694, 88.347862)"/>
<path fill-rule="nonzero" fill="rgb(0%, 0%, 0%)" fill-opacity="1" d="M 135.496094 94.132812 C 135.589844 93.726562 135.621094 93.695312 135.933594 93.664062 C 135.996094 93.664062 136.464844 93.664062 136.746094 93.664062 C 137.621094 93.664062 137.964844 93.664062 138.308594 93.757812 C 138.933594 93.945312 138.964844 94.351562 138.964844 94.851562 C 138.964844 95.070312 138.964844 95.257812 138.871094 95.976562 L 138.839844 96.132812 C 138.839844 96.289062 138.933594 96.351562 139.089844 96.351562 C 139.308594 96.351562 139.308594 96.226562 139.339844 96.007812 L 139.714844 93.351562 C 139.714844 93.164062 139.558594 93.164062 139.308594 93.164062 L 130.746094 93.164062 C 130.402344 93.164062 130.371094 93.164062 130.277344 93.445312 L 129.371094 95.914062 C 129.371094 95.976562 129.308594 96.101562 129.308594 96.164062 C 129.308594 96.226562 129.339844 96.351562 129.558594 96.351562 C 129.746094 96.351562 129.746094 96.289062 129.839844 96.007812 C 130.652344 93.789062 131.121094 93.664062 133.246094 93.664062 L 133.808594 93.664062 C 134.246094 93.664062 134.246094 93.664062 134.246094 93.789062 C 134.246094 93.789062 134.246094 93.882812 134.183594 94.070312 L 132.339844 101.414062 C 132.214844 101.914062 132.183594 102.070312 130.714844 102.070312 C 130.214844 102.070312 130.089844 102.070312 130.089844 102.382812 C 130.089844 102.414062 130.121094 102.570312 130.339844 102.570312 C 130.714844 102.570312 131.152344 102.539062 131.527344 102.539062 C 131.933594 102.539062 132.339844 102.507812 132.714844 102.507812 C 133.121094 102.507812 133.589844 102.507812 133.996094 102.539062 C 134.371094 102.539062 134.777344 102.570312 135.152344 102.570312 C 135.277344 102.570312 135.464844 102.570312 135.464844 102.257812 C 135.464844 102.070312 135.339844 102.070312 134.902344 102.070312 C 134.652344 102.070312 134.371094 102.039062 134.089844 102.039062 C 133.621094 102.007812 133.589844 101.945312 133.589844 101.789062 C 133.589844 101.664062 133.589844 101.664062 133.652344 101.445312 Z M 135.496094 94.132812 "/>
<path fill-rule="nonzero" fill="rgb(0%, 0%, 0%)" fill-opacity="1" d="M 142.0625 98.34375 C 142.0625 98.09375 141.90625 97.90625 141.625 97.90625 C 141.34375 97.90625 141.03125 98.1875 141.03125 98.5 C 141.03125 98.78125 141.25 98.9375 141.46875 98.9375 C 141.78125 98.9375 142.0625 98.65625 142.0625 98.34375 Z M 142.53125 103.125 C 142.53125 103 142.375 103 142.34375 103 C 142.15625 103 142.15625 103.03125 142.09375 103.21875 C 141.9375 103.75 141.46875 104.34375 140.96875 104.34375 C 140.75 104.34375 140.6875 104.1875 140.6875 103.96875 C 140.6875 103.75 140.71875 103.625 140.8125 103.4375 C 140.875 103.25 140.96875 103.0625 141.03125 102.90625 C 141.0625 102.8125 141.4375 101.90625 141.59375 101.53125 C 141.65625 101.34375 141.71875 101.1875 141.71875 101.03125 C 141.71875 100.5625 141.25 100.15625 140.625 100.15625 C 139.59375 100.15625 139.03125 101.4375 139.03125 101.6875 C 139.03125 101.84375 139.1875 101.84375 139.25 101.84375 C 139.40625 101.84375 139.40625 101.78125 139.46875 101.65625 C 139.6875 100.9375 140.15625 100.5 140.59375 100.5 C 140.78125 100.5 140.90625 100.59375 140.90625 100.875 C 140.90625 100.90625 140.90625 101.03125 140.84375 101.21875 C 140.78125 101.40625 140.3125 102.46875 140.1875 102.8125 C 140.09375 103 140.09375 103 139.96875 103.34375 C 139.90625 103.5 139.84375 103.625 139.84375 103.78125 C 139.84375 104.3125 140.34375 104.6875 140.9375 104.6875 C 141.96875 104.6875 142.53125 103.375 142.53125 103.125 Z M 142.53125 103.125 "/>
<path fill-rule="nonzero" fill="rgb(0%, 0%, 0%)" fill-opacity="1" d="M 148.527344 98.34375 C 148.527344 98.125 148.339844 97.90625 148.089844 97.90625 C 147.777344 97.90625 147.464844 98.21875 147.464844 98.5 C 147.464844 98.75 147.652344 98.9375 147.902344 98.9375 C 148.246094 98.9375 148.527344 98.625 148.527344 98.34375 Z M 146.339844 105 C 146.152344 105.78125 145.527344 106.28125 144.933594 106.28125 C 144.746094 106.28125 144.652344 106.25 144.558594 106.21875 C 144.808594 106.0625 144.871094 105.8125 144.871094 105.6875 C 144.871094 105.53125 144.746094 105.28125 144.433594 105.28125 C 144.089844 105.28125 143.808594 105.59375 143.808594 105.90625 C 143.808594 106.34375 144.246094 106.59375 144.933594 106.59375 C 145.621094 106.59375 146.902344 106.25 147.214844 105.03125 L 148.121094 101.4375 C 148.121094 101.34375 148.152344 101.25 148.152344 101.125 C 148.152344 100.5625 147.621094 100.15625 146.933594 100.15625 C 145.714844 100.15625 144.996094 101.5 144.996094 101.6875 C 144.996094 101.84375 145.152344 101.84375 145.183594 101.84375 C 145.339844 101.84375 145.371094 101.8125 145.402344 101.6875 C 145.871094 100.71875 146.558594 100.5 146.902344 100.5 C 147.277344 100.5 147.308594 100.84375 147.308594 101.03125 C 147.308594 101.15625 147.308594 101.1875 147.277344 101.28125 Z M 146.339844 105 "/>
<path fill="none" stroke-width="0.39848" stroke-linecap="butt" stroke-linejoin="miter" stroke="rgb(0%, 0%, 0%)" stroke-opacity="1" stroke-miterlimit="10" d="M -21.825157 -9.328281 L -21.825157 -27.765781 " transform="matrix(2, 0, 0, -2, 140.580002, 88.07)"/>
<path fill="none" stroke-width="0.39848" stroke-linecap="round" stroke-linejoin="round" stroke="rgb(0%, 0%, 0%)" stroke-opacity="1" stroke-miterlimit="10" d="M -2.071609 2.391068 C -1.692703 0.957474 -0.848953 0.277786 -0.001297 0.000442505 C -0.848953 -0.280807 -1.692703 -0.956589 -2.071609 -2.390182 " transform="matrix(0, 2, 2, 0, 96.928802, 144.002594)"/>
<path fill-rule="nonzero" fill="rgb(0%, 0%, 0%)" fill-opacity="1" d="M 74.445312 119.867188 C 74.539062 119.460938 74.570312 119.429688 74.882812 119.398438 C 74.945312 119.398438 75.414062 119.398438 75.695312 119.398438 C 76.570312 119.398438 76.914062 119.398438 77.257812 119.492188 C 77.882812 119.679688 77.914062 120.085938 77.914062 120.585938 C 77.914062 120.804688 77.914062 120.992188 77.820312 121.710938 L 77.789062 121.867188 C 77.789062 122.023438 77.882812 122.085938 78.039062 122.085938 C 78.257812 122.085938 78.257812 121.960938 78.289062 121.742188 L 78.664062 119.085938 C 78.664062 118.898438 78.507812 118.898438 78.257812 118.898438 L 69.695312 118.898438 C 69.351562 118.898438 69.320312 118.898438 69.226562 119.179688 L 68.320312 121.648438 C 68.320312 121.710938 68.257812 121.835938 68.257812 121.898438 C 68.257812 121.960938 68.289062 122.085938 68.507812 122.085938 C 68.695312 122.085938 68.695312 122.023438 68.789062 121.742188 C 69.601562 119.523438 70.070312 119.398438 72.195312 119.398438 L 72.757812 119.398438 C 73.195312 119.398438 73.195312 119.398438 73.195312 119.523438 C 73.195312 119.523438 73.195312 119.617188 73.132812 119.804688 L 71.289062 127.148438 C 71.164062 127.648438 71.132812 127.804688 69.664062 127.804688 C 69.164062 127.804688 69.039062 127.804688 69.039062 128.117188 C 69.039062 128.148438 69.070312 128.304688 69.289062 128.304688 C 69.664062 128.304688 70.101562 128.273438 70.476562 128.273438 C 70.882812 128.273438 71.289062 128.242188 71.664062 128.242188 C 72.070312 128.242188 72.539062 128.242188 72.945312 128.273438 C 73.320312 128.273438 73.726562 128.304688 74.101562 128.304688 C 74.226562 128.304688 74.414062 128.304688 74.414062 127.992188 C 74.414062 127.804688 74.289062 127.804688 73.851562 127.804688 C 73.601562 127.804688 73.320312 127.773438 73.039062 127.773438 C 72.570312 127.742188 72.539062 127.679688 72.539062 127.523438 C 72.539062 127.398438 72.539062 127.398438 72.601562 127.179688 Z M 74.445312 119.867188 "/>
<path fill-rule="nonzero" fill="rgb(0%, 0%, 0%)" fill-opacity="1" d="M 80.730469 123.886719 C 80.792969 123.730469 80.792969 123.730469 80.792969 123.667969 C 80.792969 123.511719 80.636719 123.511719 80.480469 123.511719 L 79.261719 123.605469 C 79.074219 123.605469 79.042969 123.605469 79.011719 123.667969 C 78.980469 123.699219 78.949219 123.824219 78.949219 123.886719 C 78.949219 124.042969 79.105469 124.042969 79.230469 124.042969 C 79.261719 124.042969 79.417969 124.042969 79.574219 124.074219 C 79.761719 124.105469 79.761719 124.136719 79.761719 124.199219 C 79.761719 124.230469 79.761719 124.261719 79.730469 124.449219 L 78.355469 129.949219 C 78.324219 130.074219 78.324219 130.105469 78.324219 130.167969 C 78.324219 130.386719 78.480469 130.542969 78.699219 130.542969 C 79.074219 130.542969 79.167969 130.167969 79.199219 130.011719 L 79.667969 128.199219 C 79.917969 128.199219 81.167969 128.261719 81.167969 128.980469 C 81.167969 129.042969 81.167969 129.074219 81.136719 129.199219 C 81.105469 129.355469 81.105469 129.386719 81.105469 129.449219 C 81.105469 130.167969 81.730469 130.542969 82.324219 130.542969 C 83.324219 130.542969 83.730469 129.105469 83.730469 128.980469 C 83.730469 128.855469 83.574219 128.855469 83.511719 128.855469 C 83.355469 128.855469 83.324219 128.886719 83.292969 129.074219 C 83.199219 129.417969 82.886719 130.199219 82.355469 130.199219 C 81.980469 130.199219 81.949219 129.824219 81.949219 129.605469 C 81.949219 129.605469 81.949219 129.449219 81.980469 129.292969 C 82.011719 129.136719 82.042969 129.011719 82.042969 128.949219 C 82.042969 128.074219 80.917969 127.917969 80.261719 127.855469 C 80.542969 127.699219 80.980469 127.355469 81.136719 127.230469 C 81.699219 126.792969 82.261719 126.355469 82.824219 126.355469 C 83.042969 126.355469 83.105469 126.417969 83.167969 126.480469 C 83.167969 126.480469 83.105469 126.511719 83.074219 126.511719 C 82.636719 126.667969 82.636719 127.074219 82.636719 127.105469 C 82.636719 127.261719 82.761719 127.511719 83.074219 127.511719 C 83.261719 127.511719 83.699219 127.355469 83.699219 126.792969 C 83.699219 126.324219 83.324219 126.011719 82.824219 126.011719 C 82.167969 126.011719 81.574219 126.480469 80.855469 127.042969 C 80.511719 127.324219 80.167969 127.574219 79.761719 127.761719 Z M 80.730469 123.886719 "/>
<path fill-rule="nonzero" fill="rgb(0%, 0%, 0%)" fill-opacity="1" d="M 89.878906 124.199219 C 89.878906 123.980469 89.691406 123.761719 89.441406 123.761719 C 89.128906 123.761719 88.816406 124.074219 88.816406 124.355469 C 88.816406 124.605469 89.003906 124.792969 89.253906 124.792969 C 89.597656 124.792969 89.878906 124.480469 89.878906 124.199219 Z M 87.691406 130.855469 C 87.503906 131.636719 86.878906 132.136719 86.285156 132.136719 C 86.097656 132.136719 86.003906 132.105469 85.910156 132.074219 C 86.160156 131.917969 86.222656 131.667969 86.222656 131.542969 C 86.222656 131.386719 86.097656 131.136719 85.785156 131.136719 C 85.441406 131.136719 85.160156 131.449219 85.160156 131.761719 C 85.160156 132.199219 85.597656 132.449219 86.285156 132.449219 C 86.972656 132.449219 88.253906 132.105469 88.566406 130.886719 L 89.472656 127.292969 C 89.472656 127.199219 89.503906 127.105469 89.503906 126.980469 C 89.503906 126.417969 88.972656 126.011719 88.285156 126.011719 C 87.066406 126.011719 86.347656 127.355469 86.347656 127.542969 C 86.347656 127.699219 86.503906 127.699219 86.535156 127.699219 C 86.691406 127.699219 86.722656 127.667969 86.753906 127.542969 C 87.222656 126.574219 87.910156 126.355469 88.253906 126.355469 C 88.628906 126.355469 88.660156 126.699219 88.660156 126.886719 C 88.660156 127.011719 88.660156 127.042969 88.628906 127.136719 Z M 87.691406 130.855469 "/>
<path fill="none" stroke-width="2.33075" stroke-linecap="butt" stroke-linejoin="miter" stroke="rgb(0%, 0%, 0%)" stroke-opacity="1" stroke-miterlimit="10" d="M 21.612343 -6.480625 L 21.612343 -26.863438 " transform="matrix(2, 0, 0, -2, 140.580002, 88.07)"/>
<path fill="none" stroke-width="1.53377" stroke-linecap="butt" stroke-linejoin="miter" stroke="rgb(100%, 100%, 100%)" stroke-opacity="1" stroke-miterlimit="10" d="M 21.612343 -6.480625 L 21.612343 -26.863438 " transform="matrix(2, 0, 0, -2, 140.580002, 88.07)"/>
<path fill="none" stroke-width="0.39848" stroke-linecap="butt" stroke-linejoin="miter" stroke="rgb(0%, 0%, 0%)" stroke-opacity="1" stroke-miterlimit="10" d="M -11.969688 -36.332188 L 11.143593 -36.332188 " transform="matrix(2, 0, 0, -2, 140.580002, 88.07)"/>
<path fill="none" stroke-width="0.39848" stroke-linecap="round" stroke-linejoin="round" stroke="rgb(0%, 0%, 0%)" stroke-opacity="1" stroke-miterlimit="10" d="M -2.073753 2.390266 C -1.694847 0.956673 -0.851097 0.276985 0.000465393 -0.000358582 C -0.851097 -0.277702 -1.694847 -0.95739 -2.073753 -2.390984 " transform="matrix(2, 0, 0, -2, 163.264694, 160.733658)"/>
<path fill-rule="nonzero" fill="rgb(0%, 0%, 0%)" fill-opacity="1" d="M 123.5625 166.519531 C 123.65625 166.113281 123.6875 166.082031 124 166.050781 C 124.0625 166.050781 124.53125 166.050781 124.8125 166.050781 C 125.6875 166.050781 126.03125 166.050781 126.375 166.144531 C 127 166.332031 127.03125 166.738281 127.03125 167.238281 C 127.03125 167.457031 127.03125 167.644531 126.9375 168.363281 L 126.90625 168.519531 C 126.90625 168.675781 127 168.738281 127.15625 168.738281 C 127.375 168.738281 127.375 168.613281 127.40625 168.394531 L 127.78125 165.738281 C 127.78125 165.550781 127.625 165.550781 127.375 165.550781 L 118.8125 165.550781 C 118.46875 165.550781 118.4375 165.550781 118.34375 165.832031 L 117.4375 168.300781 C 117.4375 168.363281 117.375 168.488281 117.375 168.550781 C 117.375 168.613281 117.40625 168.738281 117.625 168.738281 C 117.8125 168.738281 117.8125 168.675781 117.90625 168.394531 C 118.71875 166.175781 119.1875 166.050781 121.3125 166.050781 L 121.875 166.050781 C 122.3125 166.050781 122.3125 166.050781 122.3125 166.175781 C 122.3125 166.175781 122.3125 166.269531 122.25 166.457031 L 120.40625 173.800781 C 120.28125 174.300781 120.25 174.457031 118.78125 174.457031 C 118.28125 174.457031 118.15625 174.457031 118.15625 174.769531 C 118.15625 174.800781 118.1875 174.957031 118.40625 174.957031 C 118.78125 174.957031 119.21875 174.925781 119.59375 174.925781 C 120 174.925781 120.40625 174.894531 120.78125 174.894531 C 121.1875 174.894531 121.65625 174.894531 122.0625 174.925781 C 122.4375 174.925781 122.84375 174.957031 123.21875 174.957031 C 123.34375 174.957031 123.53125 174.957031 123.53125 174.644531 C 123.53125 174.457031 123.40625 174.457031 122.96875 174.457031 C 122.71875 174.457031 122.4375 174.425781 122.15625 174.425781 C 121.6875 174.394531 121.65625 174.332031 121.65625 174.175781 C 121.65625 174.050781 121.65625 174.050781 121.71875 173.832031 Z M 123.5625 166.519531 "/>
<path fill-rule="nonzero" fill="rgb(0%, 0%, 0%)" fill-opacity="1" d="M 130.128906 170.730469 C 130.128906 170.480469 129.972656 170.292969 129.691406 170.292969 C 129.410156 170.292969 129.097656 170.574219 129.097656 170.886719 C 129.097656 171.167969 129.316406 171.324219 129.535156 171.324219 C 129.847656 171.324219 130.128906 171.042969 130.128906 170.730469 Z M 130.597656 175.511719 C 130.597656 175.386719 130.441406 175.386719 130.410156 175.386719 C 130.222656 175.386719 130.222656 175.417969 130.160156 175.605469 C 130.003906 176.136719 129.535156 176.730469 129.035156 176.730469 C 128.816406 176.730469 128.753906 176.574219 128.753906 176.355469 C 128.753906 176.136719 128.785156 176.011719 128.878906 175.824219 C 128.941406 175.636719 129.035156 175.449219 129.097656 175.292969 C 129.128906 175.199219 129.503906 174.292969 129.660156 173.917969 C 129.722656 173.730469 129.785156 173.574219 129.785156 173.417969 C 129.785156 172.949219 129.316406 172.542969 128.691406 172.542969 C 127.660156 172.542969 127.097656 173.824219 127.097656 174.074219 C 127.097656 174.230469 127.253906 174.230469 127.316406 174.230469 C 127.472656 174.230469 127.472656 174.167969 127.535156 174.042969 C 127.753906 173.324219 128.222656 172.886719 128.660156 172.886719 C 128.847656 172.886719 128.972656 172.980469 128.972656 173.261719 C 128.972656 173.292969 128.972656 173.417969 128.910156 173.605469 C 128.847656 173.792969 128.378906 174.855469 128.253906 175.199219 C 128.160156 175.386719 128.160156 175.386719 128.035156 175.730469 C 127.972656 175.886719 127.910156 176.011719 127.910156 176.167969 C 127.910156 176.699219 128.410156 177.074219 129.003906 177.074219 C 130.035156 177.074219 130.597656 175.761719 130.597656 175.511719 Z M 130.597656 175.511719 "/>
<path fill-rule="nonzero" fill="rgb(0%, 0%, 0%)" fill-opacity="1" d="M 136.59375 170.730469 C 136.59375 170.511719 136.40625 170.292969 136.15625 170.292969 C 135.84375 170.292969 135.53125 170.605469 135.53125 170.886719 C 135.53125 171.136719 135.71875 171.324219 135.96875 171.324219 C 136.3125 171.324219 136.59375 171.011719 136.59375 170.730469 Z M 134.40625 177.386719 C 134.21875 178.167969 133.59375 178.667969 133 178.667969 C 132.8125 178.667969 132.71875 178.636719 132.625 178.605469 C 132.875 178.449219 132.9375 178.199219 132.9375 178.074219 C 132.9375 177.917969 132.8125 177.667969 132.5 177.667969 C 132.15625 177.667969 131.875 177.980469 131.875 178.292969 C 131.875 178.730469 132.3125 178.980469 133 178.980469 C 133.6875 178.980469 134.96875 178.636719 135.28125 177.417969 L 136.1875 173.824219 C 136.1875 173.730469 136.21875 173.636719 136.21875 173.511719 C 136.21875 172.949219 135.6875 172.542969 135 172.542969 C 133.78125 172.542969 133.0625 173.886719 133.0625 174.074219 C 133.0625 174.230469 133.21875 174.230469 133.25 174.230469 C 133.40625 174.230469 133.4375 174.199219 133.46875 174.074219 C 133.9375 173.105469 134.625 172.886719 134.96875 172.886719 C 135.34375 172.886719 135.375 173.230469 135.375 173.417969 C 135.375 173.542969 135.375 173.574219 135.34375 173.667969 Z M 134.40625 177.386719 "/>
<path fill-rule="nonzero" fill="rgb(0%, 0%, 0%)" fill-opacity="1" d="M 145.730469 166.519531 C 145.824219 166.113281 145.855469 166.082031 146.167969 166.050781 C 146.230469 166.050781 146.699219 166.050781 146.980469 166.050781 C 147.855469 166.050781 148.199219 166.050781 148.542969 166.144531 C 149.167969 166.332031 149.199219 166.738281 149.199219 167.238281 C 149.199219 167.457031 149.199219 167.644531 149.105469 168.363281 L 149.074219 168.519531 C 149.074219 168.675781 149.167969 168.738281 149.324219 168.738281 C 149.542969 168.738281 149.542969 168.613281 149.574219 168.394531 L 149.949219 165.738281 C 149.949219 165.550781 149.792969 165.550781 149.542969 165.550781 L 140.980469 165.550781 C 140.636719 165.550781 140.605469 165.550781 140.511719 165.832031 L 139.605469 168.300781 C 139.605469 168.363281 139.542969 168.488281 139.542969 168.550781 C 139.542969 168.613281 139.574219 168.738281 139.792969 168.738281 C 139.980469 168.738281 139.980469 168.675781 140.074219 168.394531 C 140.886719 166.175781 141.355469 166.050781 143.480469 166.050781 L 144.042969 166.050781 C 144.480469 166.050781 144.480469 166.050781 144.480469 166.175781 C 144.480469 166.175781 144.480469 166.269531 144.417969 166.457031 L 142.574219 173.800781 C 142.449219 174.300781 142.417969 174.457031 140.949219 174.457031 C 140.449219 174.457031 140.324219 174.457031 140.324219 174.769531 C 140.324219 174.800781 140.355469 174.957031 140.574219 174.957031 C 140.949219 174.957031 141.386719 174.925781 141.761719 174.925781 C 142.167969 174.925781 142.574219 174.894531 142.949219 174.894531 C 143.355469 174.894531 143.824219 174.894531 144.230469 174.925781 C 144.605469 174.925781 145.011719 174.957031 145.386719 174.957031 C 145.511719 174.957031 145.699219 174.957031 145.699219 174.644531 C 145.699219 174.457031 145.574219 174.457031 145.136719 174.457031 C 144.886719 174.457031 144.605469 174.425781 144.324219 174.425781 C 143.855469 174.394531 143.824219 174.332031 143.824219 174.175781 C 143.824219 174.050781 143.824219 174.050781 143.886719 173.832031 Z M 145.730469 166.519531 "/>
<path fill-rule="nonzero" fill="rgb(0%, 0%, 0%)" fill-opacity="1" d="M 153.457031 170.851562 C 153.457031 170.632812 153.269531 170.414062 153.019531 170.414062 C 152.707031 170.414062 152.394531 170.726562 152.394531 171.007812 C 152.394531 171.257812 152.582031 171.445312 152.832031 171.445312 C 153.175781 171.445312 153.457031 171.132812 153.457031 170.851562 Z M 151.269531 177.507812 C 151.082031 178.289062 150.457031 178.789062 149.863281 178.789062 C 149.675781 178.789062 149.582031 178.757812 149.488281 178.726562 C 149.738281 178.570312 149.800781 178.320312 149.800781 178.195312 C 149.800781 178.039062 149.675781 177.789062 149.363281 177.789062 C 149.019531 177.789062 148.738281 178.101562 148.738281 178.414062 C 148.738281 178.851562 149.175781 179.101562 149.863281 179.101562 C 150.550781 179.101562 151.832031 178.757812 152.144531 177.539062 L 153.050781 173.945312 C 153.050781 173.851562 153.082031 173.757812 153.082031 173.632812 C 153.082031 173.070312 152.550781 172.664062 151.863281 172.664062 C 150.644531 172.664062 149.925781 174.007812 149.925781 174.195312 C 149.925781 174.351562 150.082031 174.351562 150.113281 174.351562 C 150.269531 174.351562 150.300781 174.320312 150.332031 174.195312 C 150.800781 173.226562 151.488281 173.007812 151.832031 173.007812 C 152.207031 173.007812 152.238281 173.351562 152.238281 173.539062 C 152.238281 173.664062 152.238281 173.695312 152.207031 173.789062 Z M 151.269531 177.507812 "/>
<path fill-rule="nonzero" fill="rgb(0%, 0%, 0%)" fill-opacity="1" d="M 158.453125 170.539062 C 158.515625 170.382812 158.515625 170.382812 158.515625 170.320312 C 158.515625 170.164062 158.359375 170.164062 158.203125 170.164062 L 156.984375 170.257812 C 156.796875 170.257812 156.765625 170.257812 156.734375 170.320312 C 156.703125 170.351562 156.671875 170.476562 156.671875 170.539062 C 156.671875 170.695312 156.828125 170.695312 156.953125 170.695312 C 156.984375 170.695312 157.140625 170.695312 157.296875 170.726562 C 157.484375 170.757812 157.484375 170.789062 157.484375 170.851562 C 157.484375 170.882812 157.484375 170.914062 157.453125 171.101562 L 156.078125 176.601562 C 156.046875 176.726562 156.046875 176.757812 156.046875 176.820312 C 156.046875 177.039062 156.203125 177.195312 156.421875 177.195312 C 156.796875 177.195312 156.890625 176.820312 156.921875 176.664062 L 157.390625 174.851562 C 157.640625 174.851562 158.890625 174.914062 158.890625 175.632812 C 158.890625 175.695312 158.890625 175.726562 158.859375 175.851562 C 158.828125 176.007812 158.828125 176.039062 158.828125 176.101562 C 158.828125 176.820312 159.453125 177.195312 160.046875 177.195312 C 161.046875 177.195312 161.453125 175.757812 161.453125 175.632812 C 161.453125 175.507812 161.296875 175.507812 161.234375 175.507812 C 161.078125 175.507812 161.046875 175.539062 161.015625 175.726562 C 160.921875 176.070312 160.609375 176.851562 160.078125 176.851562 C 159.703125 176.851562 159.671875 176.476562 159.671875 176.257812 C 159.671875 176.257812 159.671875 176.101562 159.703125 175.945312 C 159.734375 175.789062 159.765625 175.664062 159.765625 175.601562 C 159.765625 174.726562 158.640625 174.570312 157.984375 174.507812 C 158.265625 174.351562 158.703125 174.007812 158.859375 173.882812 C 159.421875 173.445312 159.984375 173.007812 160.546875 173.007812 C 160.765625 173.007812 160.828125 173.070312 160.890625 173.132812 C 160.890625 173.132812 160.828125 173.164062 160.796875 173.164062 C 160.359375 173.320312 160.359375 173.726562 160.359375 173.757812 C 160.359375 173.914062 160.484375 174.164062 160.796875 174.164062 C 160.984375 174.164062 161.421875 174.007812 161.421875 173.445312 C 161.421875 172.976562 161.046875 172.664062 160.546875 172.664062 C 159.890625 172.664062 159.296875 173.132812 158.578125 173.695312 C 158.234375 173.976562 157.890625 174.226562 157.484375 174.414062 Z M 158.453125 170.539062 "/>
<path fill="none" stroke-width="2.33075" stroke-linecap="butt" stroke-linejoin="miter" stroke="rgb(0%, 0%, 0%)" stroke-opacity="1" stroke-miterlimit="10" d="M -31.329063 -0.320469 L -47.20797 -0.625156 " transform="matrix(2, 0, 0, -2, 140.580002, 88.07)"/>
<path fill="none" stroke-width="1.53377" stroke-linecap="butt" stroke-linejoin="miter" stroke="rgb(100%, 100%, 100%)" stroke-opacity="1" stroke-miterlimit="10" d="M -31.329063 -0.320469 L -47.20797 -0.625156 " transform="matrix(2, 0, 0, -2, 140.580002, 88.07)"/>
<path fill="none" stroke-width="0.39848" stroke-linecap="round" stroke-linejoin="round" stroke="rgb(0%, 0%, 0%)" stroke-opacity="1" stroke-miterlimit="10" d="M -1.295192 2.561564 C -0.668528 1.209473 1.024498 0.0480031 1.988597 -0.001662 C 1.022634 -0.0496381 -0.667822 -1.209017 -1.295318 -2.560603 " transform="matrix(-1.99958, 0.03818, 0.03818, 1.99958, 46.163921, 89.318024)"/>
<path fill-rule="nonzero" fill="rgb(0%, 0%, 0%)" fill-opacity="1" d="M 43.96875 70.355469 C 43.96875 70.074219 43.96875 69.949219 43.71875 69.949219 C 43.46875 69.949219 43.46875 70.074219 43.46875 70.355469 L 43.46875 80.261719 C 43.46875 80.511719 43.46875 80.667969 43.71875 80.667969 C 43.9375 80.667969 44.84375 80.011719 45.125 79.824219 C 46.1875 79.074219 47.75 77.792969 47.75 75.917969 C 47.75 74.699219 46.6875 73.980469 45.65625 73.980469 C 45.59375 73.980469 44.59375 73.980469 43.96875 74.511719 Z M 43.96875 75.667969 C 43.96875 75.355469 43.96875 75.105469 44.375 74.855469 C 44.5625 74.761719 44.9375 74.605469 45.46875 74.605469 C 46.46875 74.605469 46.53125 75.699219 46.53125 75.917969 C 46.53125 77.636719 45.15625 79.074219 43.96875 80.011719 Z M 43.96875 75.667969 "/>
<path fill-rule="nonzero" fill="rgb(0%, 0%, 0%)" fill-opacity="1" d="M 52.792969 76.285156 C 52.792969 76.035156 52.636719 75.847656 52.355469 75.847656 C 52.074219 75.847656 51.761719 76.128906 51.761719 76.441406 C 51.761719 76.722656 51.980469 76.878906 52.199219 76.878906 C 52.511719 76.878906 52.792969 76.597656 52.792969 76.285156 Z M 53.261719 81.066406 C 53.261719 80.941406 53.105469 80.941406 53.074219 80.941406 C 52.886719 80.941406 52.886719 80.972656 52.824219 81.160156 C 52.667969 81.691406 52.199219 82.285156 51.699219 82.285156 C 51.480469 82.285156 51.417969 82.128906 51.417969 81.910156 C 51.417969 81.691406 51.449219 81.566406 51.542969 81.378906 C 51.605469 81.191406 51.699219 81.003906 51.761719 80.847656 C 51.792969 80.753906 52.167969 79.847656 52.324219 79.472656 C 52.386719 79.285156 52.449219 79.128906 52.449219 78.972656 C 52.449219 78.503906 51.980469 78.097656 51.355469 78.097656 C 50.324219 78.097656 49.761719 79.378906 49.761719 79.628906 C 49.761719 79.785156 49.917969 79.785156 49.980469 79.785156 C 50.136719 79.785156 50.136719 79.722656 50.199219 79.597656 C 50.417969 78.878906 50.886719 78.441406 51.324219 78.441406 C 51.511719 78.441406 51.636719 78.535156 51.636719 78.816406 C 51.636719 78.847656 51.636719 78.972656 51.574219 79.160156 C 51.511719 79.347656 51.042969 80.410156 50.917969 80.753906 C 50.824219 80.941406 50.824219 80.941406 50.699219 81.285156 C 50.636719 81.441406 50.574219 81.566406 50.574219 81.722656 C 50.574219 82.253906 51.074219 82.628906 51.667969 82.628906 C 52.699219 82.628906 53.261719 81.316406 53.261719 81.066406 Z M 53.261719 81.066406 "/>
<path fill-rule="nonzero" fill="rgb(0%, 0%, 0%)" fill-opacity="1" d="M 59.261719 76.285156 C 59.261719 76.066406 59.074219 75.847656 58.824219 75.847656 C 58.511719 75.847656 58.199219 76.160156 58.199219 76.441406 C 58.199219 76.691406 58.386719 76.878906 58.636719 76.878906 C 58.980469 76.878906 59.261719 76.566406 59.261719 76.285156 Z M 57.074219 82.941406 C 56.886719 83.722656 56.261719 84.222656 55.667969 84.222656 C 55.480469 84.222656 55.386719 84.191406 55.292969 84.160156 C 55.542969 84.003906 55.605469 83.753906 55.605469 83.628906 C 55.605469 83.472656 55.480469 83.222656 55.167969 83.222656 C 54.824219 83.222656 54.542969 83.535156 54.542969 83.847656 C 54.542969 84.285156 54.980469 84.535156 55.667969 84.535156 C 56.355469 84.535156 57.636719 84.191406 57.949219 82.972656 L 58.855469 79.378906 C 58.855469 79.285156 58.886719 79.191406 58.886719 79.066406 C 58.886719 78.503906 58.355469 78.097656 57.667969 78.097656 C 56.449219 78.097656 55.730469 79.441406 55.730469 79.628906 C 55.730469 79.785156 55.886719 79.785156 55.917969 79.785156 C 56.074219 79.785156 56.105469 79.753906 56.136719 79.628906 C 56.605469 78.660156 57.292969 78.441406 57.636719 78.441406 C 58.011719 78.441406 58.042969 78.785156 58.042969 78.972656 C 58.042969 79.097656 58.042969 79.128906 58.011719 79.222656 Z M 57.074219 82.941406 "/>
<path fill-rule="nonzero" fill="rgb(0%, 0%, 0%)" fill-opacity="1" d="M 64.257812 75.972656 C 64.320312 75.816406 64.320312 75.816406 64.320312 75.753906 C 64.320312 75.597656 64.164062 75.597656 64.007812 75.597656 L 62.789062 75.691406 C 62.601562 75.691406 62.570312 75.691406 62.539062 75.753906 C 62.507812 75.785156 62.476562 75.910156 62.476562 75.972656 C 62.476562 76.128906 62.632812 76.128906 62.757812 76.128906 C 62.789062 76.128906 62.945312 76.128906 63.101562 76.160156 C 63.289062 76.191406 63.289062 76.222656 63.289062 76.285156 C 63.289062 76.316406 63.289062 76.347656 63.257812 76.535156 L 61.882812 82.035156 C 61.851562 82.160156 61.851562 82.191406 61.851562 82.253906 C 61.851562 82.472656 62.007812 82.628906 62.226562 82.628906 C 62.601562 82.628906 62.695312 82.253906 62.726562 82.097656 L 63.195312 80.285156 C 63.445312 80.285156 64.695312 80.347656 64.695312 81.066406 C 64.695312 81.128906 64.695312 81.160156 64.664062 81.285156 C 64.632812 81.441406 64.632812 81.472656 64.632812 81.535156 C 64.632812 82.253906 65.257812 82.628906 65.851562 82.628906 C 66.851562 82.628906 67.257812 81.191406 67.257812 81.066406 C 67.257812 80.941406 67.101562 80.941406 67.039062 80.941406 C 66.882812 80.941406 66.851562 80.972656 66.820312 81.160156 C 66.726562 81.503906 66.414062 82.285156 65.882812 82.285156 C 65.507812 82.285156 65.476562 81.910156 65.476562 81.691406 C 65.476562 81.691406 65.476562 81.535156 65.507812 81.378906 C 65.539062 81.222656 65.570312 81.097656 65.570312 81.035156 C 65.570312 80.160156 64.445312 80.003906 63.789062 79.941406 C 64.070312 79.785156 64.507812 79.441406 64.664062 79.316406 C 65.226562 78.878906 65.789062 78.441406 66.351562 78.441406 C 66.570312 78.441406 66.632812 78.503906 66.695312 78.566406 C 66.695312 78.566406 66.632812 78.597656 66.601562 78.597656 C 66.164062 78.753906 66.164062 79.160156 66.164062 79.191406 C 66.164062 79.347656 66.289062 79.597656 66.601562 79.597656 C 66.789062 79.597656 67.226562 79.441406 67.226562 78.878906 C 67.226562 78.410156 66.851562 78.097656 66.351562 78.097656 C 65.695312 78.097656 65.101562 78.566406 64.382812 79.128906 C 64.039062 79.410156 63.695312 79.660156 63.289062 79.847656 Z M 64.257812 75.972656 "/>
</svg>
