<?xml version="1.0" encoding="UTF-8"?>
<svg xmlns="http://www.w3.org/2000/svg" xmlns:xlink="http://www.w3.org/1999/xlink" width="323.599996" height="137.519999" viewBox="0 0 323.599996 137.519999">
<defs>
<clipPath id="clip-0">
<path clip-rule="nonzero" d="M 87 0 L 296 0 L 296 137.519531 L 87 137.519531 Z M 87 0 "/>
</clipPath>
</defs>
<path fill-rule="nonzero" fill="rgb(0%, 0%, 0%)" fill-opacity="1" d="M 53.765625 15.449219 C 54.015625 14.488281 54.058594 14.238281 56.058594 14.238281 C 56.640625 14.238281 56.890625 14.238281 56.890625 13.699219 C 56.890625 13.40625 56.640625 13.40625 56.183594 13.40625 L 52.683594 13.40625 C 51.976562 13.40625 51.933594 13.40625 51.640625 13.90625 L 41.933594 29.074219 L 39.851562 14.03125 C 39.765625 13.40625 39.726562 13.40625 39.015625 13.40625 L 35.390625 13.40625 C 34.890625 13.40625 34.601562 13.40625 34.601562 13.90625 C 34.601562 14.238281 34.851562 14.238281 35.351562 14.238281 C 35.726562 14.238281 36.183594 14.28125 36.515625 14.28125 C 36.933594 14.363281 37.101562 14.40625 37.101562 14.738281 C 37.101562 14.824219 37.058594 14.90625 36.976562 15.238281 L 33.601562 28.738281 C 33.351562 29.824219 32.890625 30.65625 30.726562 30.738281 C 30.601562 30.738281 30.265625 30.78125 30.265625 31.238281 C 30.265625 31.488281 30.433594 31.574219 30.640625 31.574219 C 31.476562 31.574219 32.390625 31.488281 33.308594 31.488281 C 34.183594 31.488281 35.140625 31.574219 36.015625 31.574219 C 36.140625 31.574219 36.515625 31.574219 36.515625 31.03125 C 36.515625 30.738281 36.226562 30.738281 36.015625 30.738281 C 34.515625 30.738281 34.226562 30.199219 34.226562 29.574219 C 34.226562 29.40625 34.226562 29.238281 34.308594 28.949219 L 37.933594 14.488281 L 37.976562 14.488281 L 40.265625 30.949219 C 40.308594 31.28125 40.351562 31.574219 40.640625 31.574219 C 40.933594 31.574219 41.101562 31.28125 41.226562 31.113281 L 51.976562 14.28125 L 52.015625 14.28125 L 48.183594 29.488281 C 47.933594 30.53125 47.890625 30.738281 45.765625 30.738281 C 45.351562 30.738281 45.058594 30.738281 45.058594 31.238281 C 45.058594 31.574219 45.351562 31.574219 45.433594 31.574219 C 46.183594 31.574219 47.976562 31.488281 48.726562 31.488281 C 49.808594 31.488281 50.976562 31.574219 52.058594 31.574219 C 52.226562 31.574219 52.558594 31.574219 52.558594 31.03125 C 52.558594 30.738281 52.308594 30.738281 51.808594 30.738281 C 50.851562 30.738281 50.101562 30.738281 50.101562 30.28125 C 50.101562 30.15625 50.101562 30.113281 50.226562 29.613281 Z M 53.765625 15.449219 "/>
<path fill-rule="nonzero" fill="rgb(0%, 0%, 0%)" fill-opacity="1" d="M 61.121094 23.722656 C 61.121094 23.222656 61.121094 23.222656 60.582031 23.222656 C 59.371094 24.390625 57.707031 24.390625 56.957031 24.390625 L 56.957031 25.058594 C 57.371094 25.058594 58.621094 25.058594 59.621094 24.558594 L 59.621094 34.015625 C 59.621094 34.640625 59.621094 34.890625 57.789062 34.890625 L 57.082031 34.890625 L 57.082031 35.558594 C 57.414062 35.558594 59.707031 35.472656 60.371094 35.472656 C 60.957031 35.472656 63.289062 35.558594 63.707031 35.558594 L 63.707031 34.890625 L 62.996094 34.890625 C 61.121094 34.890625 61.121094 34.640625 61.121094 34.015625 Z M 61.121094 23.722656 "/>
<path fill-rule="nonzero" fill="rgb(0%, 0%, 0%)" fill-opacity="1" d="M 83.070312 24.199219 L 77.78125 18.90625 C 77.445312 18.574219 77.40625 18.53125 77.195312 18.53125 C 76.90625 18.53125 76.65625 18.738281 76.65625 19.074219 C 76.65625 19.238281 76.695312 19.28125 76.988281 19.574219 L 82.320312 24.90625 L 76.988281 30.28125 C 76.695312 30.574219 76.65625 30.613281 76.65625 30.78125 C 76.65625 31.113281 76.90625 31.324219 77.195312 31.324219 C 77.40625 31.324219 77.445312 31.28125 77.78125 30.949219 L 83.070312 25.65625 L 88.570312 31.15625 C 88.613281 31.199219 88.78125 31.324219 88.945312 31.324219 C 89.28125 31.324219 89.488281 31.113281 89.488281 30.78125 C 89.488281 30.738281 89.488281 30.65625 89.40625 30.488281 C 89.363281 30.449219 85.15625 26.28125 83.820312 24.90625 L 88.695312 20.074219 C 88.820312 19.90625 89.238281 19.574219 89.363281 19.40625 C 89.363281 19.363281 89.488281 19.238281 89.488281 19.074219 C 89.488281 18.738281 89.28125 18.53125 88.945312 18.53125 C 88.738281 18.53125 88.65625 18.613281 88.363281 18.90625 Z M 83.070312 24.199219 "/>
<path fill-rule="nonzero" fill="rgb(0%, 0%, 0%)" fill-opacity="1" d="M 111.59375 22.574219 C 111.34375 20.90625 110.261719 19.40625 108.179688 19.40625 C 106.554688 19.40625 104.84375 19.863281 102.761719 21.90625 C 100.554688 24.113281 100.386719 26.613281 100.386719 27.40625 C 100.386719 29.074219 101.554688 32.15625 105.261719 32.15625 C 111.59375 32.15625 114.34375 23.238281 114.34375 19.40625 C 114.34375 15.199219 111.886719 12.53125 108.59375 12.53125 C 104.761719 12.53125 103.511719 15.988281 103.511719 16.738281 C 103.511719 17.113281 103.761719 17.65625 104.554688 17.65625 C 105.429688 17.65625 105.96875 16.863281 105.96875 16.28125 C 105.96875 15.324219 105.136719 15.324219 104.71875 15.324219 C 105.886719 13.363281 107.804688 13.199219 108.554688 13.199219 C 110.511719 13.199219 112.34375 14.574219 112.34375 18.03125 C 112.34375 19.074219 112.179688 20.40625 111.636719 22.574219 Z M 105.34375 31.40625 C 102.429688 31.40625 102.429688 28.65625 102.429688 28.40625 C 102.429688 27.699219 103.09375 23.988281 104.179688 22.363281 C 105.21875 20.863281 106.554688 19.988281 108.179688 19.988281 C 111.09375 19.988281 111.136719 22.988281 111.136719 23.53125 C 111.136719 25.449219 109.429688 31.40625 105.34375 31.40625 Z M 105.34375 31.40625 "/>
<path fill-rule="nonzero" fill="rgb(0%, 0%, 0%)" fill-opacity="1" d="M 126.636719 13.03125 C 126.46875 12.65625 126.386719 12.53125 125.925781 12.53125 C 125.511719 12.53125 125.425781 12.65625 125.261719 13.03125 L 116.261719 31.03125 C 116.136719 31.28125 116.136719 31.324219 116.136719 31.363281 C 116.136719 31.574219 116.300781 31.574219 116.71875 31.574219 L 135.175781 31.574219 C 135.59375 31.574219 135.761719 31.574219 135.761719 31.363281 C 135.761719 31.324219 135.761719 31.28125 135.636719 31.03125 Z M 125.09375 15.199219 L 132.261719 29.574219 L 117.925781 29.574219 Z M 125.09375 15.199219 "/>
<path fill-rule="nonzero" fill="rgb(0%, 0%, 0%)" fill-opacity="1" d="M 145.808594 37.949219 C 145.808594 37.863281 145.808594 37.824219 145.347656 37.363281 C 142.058594 34.03125 141.183594 28.988281 141.183594 24.90625 C 141.183594 20.28125 142.183594 15.65625 145.472656 12.363281 C 145.808594 12.03125 145.808594 11.988281 145.808594 11.90625 C 145.808594 11.699219 145.722656 11.613281 145.558594 11.613281 C 145.265625 11.613281 142.890625 13.449219 141.308594 16.824219 C 139.972656 19.738281 139.640625 22.699219 139.640625 24.90625 C 139.640625 26.988281 139.933594 30.199219 141.390625 33.238281 C 143.015625 36.488281 145.265625 38.238281 145.558594 38.238281 C 145.722656 38.238281 145.808594 38.15625 145.808594 37.949219 Z M 145.808594 37.949219 "/>
<path fill-rule="nonzero" fill="rgb(0%, 0%, 0%)" fill-opacity="1" d="M 155.15625 14.574219 C 155.15625 13.90625 155.15625 13.863281 154.53125 13.863281 C 152.863281 15.574219 150.53125 15.574219 149.699219 15.574219 L 149.699219 16.40625 C 150.238281 16.40625 151.78125 16.40625 153.15625 15.699219 L 153.15625 29.488281 C 153.15625 30.449219 153.074219 30.738281 150.699219 30.738281 L 149.863281 30.738281 L 149.863281 31.574219 C 150.78125 31.488281 153.074219 31.488281 154.15625 31.488281 C 155.199219 31.488281 157.53125 31.488281 158.449219 31.574219 L 158.449219 30.738281 L 157.613281 30.738281 C 155.199219 30.738281 155.15625 30.449219 155.15625 29.488281 Z M 155.15625 14.574219 "/>
<path fill-rule="nonzero" fill="rgb(0%, 0%, 0%)" fill-opacity="1" d="M 168.273438 24.90625 C 168.273438 22.863281 167.980469 19.65625 166.523438 16.613281 C 164.941406 13.363281 162.648438 11.613281 162.398438 11.613281 C 162.230469 11.613281 162.105469 11.738281 162.105469 11.90625 C 162.105469 11.988281 162.105469 12.03125 162.605469 12.53125 C 165.230469 15.15625 166.730469 19.363281 166.730469 24.90625 C 166.730469 29.488281 165.773438 34.15625 162.480469 37.488281 C 162.105469 37.824219 162.105469 37.863281 162.105469 37.949219 C 162.105469 38.113281 162.230469 38.238281 162.398438 38.238281 C 162.648438 38.238281 165.066406 36.40625 166.605469 33.03125 C 167.980469 30.113281 168.273438 27.15625 168.273438 24.90625 Z M 168.273438 24.90625 "/>
<path fill-rule="nonzero" fill="rgb(0%, 0%, 0%)" fill-opacity="1" d="M 282.257812 15.449219 C 282.507812 14.488281 282.546875 14.238281 284.546875 14.238281 C 285.132812 14.238281 285.382812 14.238281 285.382812 13.699219 C 285.382812 13.40625 285.132812 13.40625 284.671875 13.40625 L 281.171875 13.40625 C 280.464844 13.40625 280.421875 13.40625 280.132812 13.90625 L 270.421875 29.074219 L 268.339844 14.03125 C 268.257812 13.40625 268.214844 13.40625 267.507812 13.40625 L 263.882812 13.40625 C 263.382812 13.40625 263.089844 13.40625 263.089844 13.90625 C 263.089844 14.238281 263.339844 14.238281 263.839844 14.238281 C 264.214844 14.238281 264.671875 14.28125 265.007812 14.28125 C 265.421875 14.363281 265.589844 14.40625 265.589844 14.738281 C 265.589844 14.824219 265.546875 14.90625 265.464844 15.238281 L 262.089844 28.738281 C 261.839844 29.824219 261.382812 30.65625 259.214844 30.738281 C 259.089844 30.738281 258.757812 30.78125 258.757812 31.238281 C 258.757812 31.488281 258.921875 31.574219 259.132812 31.574219 C 259.964844 31.574219 260.882812 31.488281 261.796875 31.488281 C 262.671875 31.488281 263.632812 31.574219 264.507812 31.574219 C 264.632812 31.574219 265.007812 31.574219 265.007812 31.03125 C 265.007812 30.738281 264.714844 30.738281 264.507812 30.738281 C 263.007812 30.738281 262.714844 30.199219 262.714844 29.574219 C 262.714844 29.40625 262.714844 29.238281 262.796875 28.949219 L 266.421875 14.488281 L 266.464844 14.488281 L 268.757812 30.949219 C 268.796875 31.28125 268.839844 31.574219 269.132812 31.574219 C 269.421875 31.574219 269.589844 31.28125 269.714844 31.113281 L 280.464844 14.28125 L 280.507812 14.28125 L 276.671875 29.488281 C 276.421875 30.53125 276.382812 30.738281 274.257812 30.738281 C 273.839844 30.738281 273.546875 30.738281 273.546875 31.238281 C 273.546875 31.574219 273.839844 31.574219 273.921875 31.574219 C 274.671875 31.574219 276.464844 31.488281 277.214844 31.488281 C 278.296875 31.488281 279.464844 31.574219 280.546875 31.574219 C 280.714844 31.574219 281.046875 31.574219 281.046875 31.03125 C 281.046875 30.738281 280.796875 30.738281 280.296875 30.738281 C 279.339844 30.738281 278.589844 30.738281 278.589844 30.28125 C 278.589844 30.15625 278.589844 30.113281 278.714844 29.613281 Z M 282.257812 15.449219 "/>
<path fill-rule="nonzero" fill="rgb(0%, 0%, 0%)" fill-opacity="1" d="M 289.617188 23.722656 C 289.617188 23.222656 289.617188 23.222656 289.074219 23.222656 C 287.867188 24.390625 286.199219 24.390625 285.449219 24.390625 L 285.449219 25.058594 C 285.867188 25.058594 287.117188 25.058594 288.117188 24.558594 L 288.117188 34.015625 C 288.117188 34.640625 288.117188 34.890625 286.28125 34.890625 L 285.574219 34.890625 L 285.574219 35.558594 C 285.90625 35.558594 288.199219 35.472656 288.867188 35.472656 C 289.449219 35.472656 291.78125 35.558594 292.199219 35.558594 L 292.199219 34.890625 L 291.492188 34.890625 C 289.617188 34.890625 289.617188 34.640625 289.617188 34.015625 Z M 289.617188 23.722656 "/>
<path fill-rule="nonzero" fill="rgb(0%, 0%, 0%)" fill-opacity="1" d="M 69.621094 107.675781 C 69.871094 106.71875 69.910156 106.46875 71.910156 106.46875 C 72.496094 106.46875 72.746094 106.46875 72.746094 105.925781 C 72.746094 105.636719 72.496094 105.636719 72.035156 105.636719 L 68.535156 105.636719 C 67.828125 105.636719 67.785156 105.636719 67.496094 106.136719 L 57.785156 121.300781 L 55.703125 106.261719 C 55.621094 105.636719 55.578125 105.636719 54.871094 105.636719 L 51.246094 105.636719 C 50.746094 105.636719 50.453125 105.636719 50.453125 106.136719 C 50.453125 106.46875 50.703125 106.46875 51.203125 106.46875 C 51.578125 106.46875 52.035156 106.511719 52.371094 106.511719 C 52.785156 106.59375 52.953125 106.636719 52.953125 106.96875 C 52.953125 107.050781 52.910156 107.136719 52.828125 107.46875 L 49.453125 120.96875 C 49.203125 122.050781 48.746094 122.886719 46.578125 122.96875 C 46.453125 122.96875 46.121094 123.011719 46.121094 123.46875 C 46.121094 123.71875 46.285156 123.800781 46.496094 123.800781 C 47.328125 123.800781 48.246094 123.71875 49.160156 123.71875 C 50.035156 123.71875 50.996094 123.800781 51.871094 123.800781 C 51.996094 123.800781 52.371094 123.800781 52.371094 123.261719 C 52.371094 122.96875 52.078125 122.96875 51.871094 122.96875 C 50.371094 122.96875 50.078125 122.425781 50.078125 121.800781 C 50.078125 121.636719 50.078125 121.46875 50.160156 121.175781 L 53.785156 106.71875 L 53.828125 106.71875 L 56.121094 123.175781 C 56.160156 123.511719 56.203125 123.800781 56.496094 123.800781 C 56.785156 123.800781 56.953125 123.511719 57.078125 123.34375 L 67.828125 106.511719 L 67.871094 106.511719 L 64.035156 121.71875 C 63.785156 122.761719 63.746094 122.96875 61.621094 122.96875 C 61.203125 122.96875 60.910156 122.96875 60.910156 123.46875 C 60.910156 123.800781 61.203125 123.800781 61.285156 123.800781 C 62.035156 123.800781 63.828125 123.71875 64.578125 123.71875 C 65.660156 123.71875 66.828125 123.800781 67.910156 123.800781 C 68.078125 123.800781 68.410156 123.800781 68.410156 123.261719 C 68.410156 122.96875 68.160156 122.96875 67.660156 122.96875 C 66.703125 122.96875 65.953125 122.96875 65.953125 122.511719 C 65.953125 122.386719 65.953125 122.34375 66.078125 121.84375 Z M 69.621094 107.675781 "/>
<path fill-rule="nonzero" fill="rgb(0%, 0%, 0%)" fill-opacity="1" d="M 80.351562 121.871094 C 80.351562 119.828125 80.101562 118.328125 79.269531 117.035156 C 78.683594 116.203125 77.519531 115.453125 76.058594 115.453125 C 71.726562 115.453125 71.726562 120.535156 71.726562 121.871094 C 71.726562 123.203125 71.726562 128.160156 76.058594 128.160156 C 80.351562 128.160156 80.351562 123.203125 80.351562 121.871094 Z M 76.058594 127.621094 C 75.183594 127.621094 74.058594 127.121094 73.683594 125.621094 C 73.433594 124.535156 73.433594 122.996094 73.433594 121.621094 C 73.433594 120.246094 73.433594 118.828125 73.683594 117.828125 C 74.101562 116.371094 75.269531 115.953125 76.058594 115.953125 C 77.058594 115.953125 78.019531 116.578125 78.351562 117.660156 C 78.644531 118.660156 78.683594 119.996094 78.683594 121.621094 C 78.683594 122.996094 78.683594 124.371094 78.433594 125.535156 C 78.058594 127.246094 76.808594 127.621094 76.058594 127.621094 Z M 76.058594 127.621094 "/>
<path fill-rule="nonzero" fill="rgb(0%, 0%, 0%)" fill-opacity="1" d="M 108.316406 115.09375 C 108.734375 115.09375 109.234375 115.09375 109.234375 114.59375 C 109.234375 114.050781 108.734375 114.050781 108.359375 114.050781 L 92.441406 114.050781 C 92.066406 114.050781 91.566406 114.050781 91.566406 114.59375 C 91.566406 115.09375 92.066406 115.09375 92.441406 115.09375 Z M 108.359375 120.261719 C 108.734375 120.261719 109.234375 120.261719 109.234375 119.71875 C 109.234375 119.21875 108.734375 119.21875 108.316406 119.21875 L 92.441406 119.21875 C 92.066406 119.21875 91.566406 119.21875 91.566406 119.71875 C 91.566406 120.261719 92.066406 120.261719 92.441406 120.261719 Z M 108.359375 120.261719 "/>
<path fill-rule="nonzero" fill="rgb(0%, 0%, 0%)" fill-opacity="1" d="M 130.484375 118.21875 L 125.402344 106.136719 C 125.191406 105.59375 125.191406 105.59375 124.441406 105.59375 L 119.527344 105.59375 C 119.027344 105.59375 118.652344 105.59375 118.652344 106.050781 C 118.652344 106.511719 119.109375 106.511719 119.234375 106.511719 C 119.566406 106.511719 120.277344 106.59375 120.859375 106.800781 L 120.859375 120.96875 C 120.859375 121.550781 120.859375 122.71875 119.066406 122.886719 C 118.566406 122.925781 118.566406 123.300781 118.566406 123.34375 C 118.566406 123.800781 118.984375 123.800781 119.484375 123.800781 L 123.566406 123.800781 C 124.066406 123.800781 124.441406 123.800781 124.441406 123.34375 C 124.441406 123.09375 124.234375 122.886719 124.027344 122.886719 C 121.984375 122.71875 121.984375 121.59375 121.984375 120.96875 L 121.984375 107.761719 L 122.027344 107.71875 L 128.484375 123.261719 C 128.734375 123.71875 128.902344 123.800781 129.066406 123.800781 C 129.402344 123.800781 129.441406 123.59375 129.609375 123.261719 L 136.109375 107.71875 L 136.152344 107.761719 L 136.152344 120.96875 C 136.152344 121.550781 136.152344 122.71875 134.316406 122.886719 C 133.816406 122.925781 133.816406 123.300781 133.816406 123.34375 C 133.816406 123.800781 134.234375 123.800781 134.734375 123.800781 L 141.816406 123.800781 C 142.316406 123.800781 142.691406 123.800781 142.691406 123.34375 C 142.691406 123.09375 142.484375 122.886719 142.277344 122.886719 C 140.234375 122.71875 140.234375 121.59375 140.234375 120.96875 L 140.234375 108.425781 C 140.234375 107.84375 140.234375 106.675781 142.027344 106.511719 C 142.316406 106.511719 142.527344 106.34375 142.527344 106.050781 C 142.527344 105.59375 142.152344 105.59375 141.652344 105.59375 L 136.527344 105.59375 C 135.859375 105.59375 135.777344 105.59375 135.566406 106.136719 Z M 129.691406 118.71875 C 129.902344 119.136719 129.941406 119.175781 130.277344 119.300781 L 129.066406 122.09375 L 129.027344 122.09375 L 122.984375 107.636719 C 122.859375 107.300781 122.609375 106.84375 122.277344 106.511719 L 124.566406 106.511719 Z M 121.652344 122.886719 L 121.234375 122.886719 C 121.277344 122.800781 121.316406 122.71875 121.359375 122.675781 C 121.402344 122.636719 121.402344 122.59375 121.441406 122.59375 Z M 137.066406 106.511719 L 139.902344 106.511719 C 139.277344 107.175781 139.277344 107.886719 139.277344 108.34375 L 139.277344 121.050781 C 139.277344 121.511719 139.277344 122.21875 139.902344 122.886719 L 136.484375 122.886719 C 137.066406 122.21875 137.066406 121.511719 137.066406 121.050781 Z M 137.066406 106.511719 "/>
<path fill-rule="nonzero" fill="rgb(0%, 0%, 0%)" fill-opacity="1" d="M 152.785156 121.871094 C 152.785156 119.828125 152.535156 118.328125 151.699219 117.035156 C 151.117188 116.203125 149.949219 115.453125 148.492188 115.453125 C 144.160156 115.453125 144.160156 120.535156 144.160156 121.871094 C 144.160156 123.203125 144.160156 128.160156 148.492188 128.160156 C 152.785156 128.160156 152.785156 123.203125 152.785156 121.871094 Z M 148.492188 127.621094 C 147.617188 127.621094 146.492188 127.121094 146.117188 125.621094 C 145.867188 124.535156 145.867188 122.996094 145.867188 121.621094 C 145.867188 120.246094 145.867188 118.828125 146.117188 117.828125 C 146.535156 116.371094 147.699219 115.953125 148.492188 115.953125 C 149.492188 115.953125 150.449219 116.578125 150.785156 117.660156 C 151.074219 118.660156 151.117188 119.996094 151.117188 121.621094 C 151.117188 122.996094 151.117188 124.371094 150.867188 125.535156 C 150.492188 127.246094 149.242188 127.621094 148.492188 127.621094 Z M 148.492188 127.621094 "/>
<path fill-rule="nonzero" fill="rgb(0%, 0%, 0%)" fill-opacity="1" d="M 270.347656 118.21875 L 265.265625 106.136719 C 265.058594 105.59375 265.058594 105.59375 264.308594 105.59375 L 259.390625 105.59375 C 258.890625 105.59375 258.515625 105.59375 258.515625 106.050781 C 258.515625 106.511719 258.972656 106.511719 259.097656 106.511719 C 259.433594 106.511719 260.140625 106.59375 260.722656 106.800781 L 260.722656 120.96875 C 260.722656 121.550781 260.722656 122.71875 258.933594 122.886719 C 258.433594 122.925781 258.433594 123.300781 258.433594 123.34375 C 258.433594 123.800781 258.847656 123.800781 259.347656 123.800781 L 263.433594 123.800781 C 263.933594 123.800781 264.308594 123.800781 264.308594 123.34375 C 264.308594 123.09375 264.097656 122.886719 263.890625 122.886719 C 261.847656 122.71875 261.847656 121.59375 261.847656 120.96875 L 261.847656 107.761719 L 261.890625 107.71875 L 268.347656 123.261719 C 268.597656 123.71875 268.765625 123.800781 268.933594 123.800781 C 269.265625 123.800781 269.308594 123.59375 269.472656 123.261719 L 275.972656 107.71875 L 276.015625 107.761719 L 276.015625 120.96875 C 276.015625 121.550781 276.015625 122.71875 274.183594 122.886719 C 273.683594 122.925781 273.683594 123.300781 273.683594 123.34375 C 273.683594 123.800781 274.097656 123.800781 274.597656 123.800781 L 281.683594 123.800781 C 282.183594 123.800781 282.558594 123.800781 282.558594 123.34375 C 282.558594 123.09375 282.347656 122.886719 282.140625 122.886719 C 280.097656 122.71875 280.097656 121.59375 280.097656 120.96875 L 280.097656 108.425781 C 280.097656 107.84375 280.097656 106.675781 281.890625 106.511719 C 282.183594 106.511719 282.390625 106.34375 282.390625 106.050781 C 282.390625 105.59375 282.015625 105.59375 281.515625 105.59375 L 276.390625 105.59375 C 275.722656 105.59375 275.640625 105.59375 275.433594 106.136719 Z M 269.558594 118.71875 C 269.765625 119.136719 269.808594 119.175781 270.140625 119.300781 L 268.933594 122.09375 L 268.890625 122.09375 L 262.847656 107.636719 C 262.722656 107.300781 262.472656 106.84375 262.140625 106.511719 L 264.433594 106.511719 Z M 261.515625 122.886719 L 261.097656 122.886719 C 261.140625 122.800781 261.183594 122.71875 261.222656 122.675781 C 261.265625 122.636719 261.265625 122.59375 261.308594 122.59375 Z M 276.933594 106.511719 L 279.765625 106.511719 C 279.140625 107.175781 279.140625 107.886719 279.140625 108.34375 L 279.140625 121.050781 C 279.140625 121.511719 279.140625 122.21875 279.765625 122.886719 L 276.347656 122.886719 C 276.933594 122.21875 276.933594 121.511719 276.933594 121.050781 Z M 276.933594 106.511719 "/>
<path fill-rule="nonzero" fill="rgb(0%, 0%, 0%)" fill-opacity="1" d="M 289.273438 115.953125 C 289.273438 115.453125 289.273438 115.453125 288.734375 115.453125 C 287.523438 116.621094 285.859375 116.621094 285.109375 116.621094 L 285.109375 117.285156 C 285.523438 117.285156 286.773438 117.285156 287.773438 116.785156 L 287.773438 126.246094 C 287.773438 126.871094 287.773438 127.121094 285.941406 127.121094 L 285.234375 127.121094 L 285.234375 127.785156 C 285.566406 127.785156 287.859375 127.703125 288.523438 127.703125 C 289.109375 127.703125 291.441406 127.785156 291.859375 127.785156 L 291.859375 127.121094 L 291.148438 127.121094 C 289.273438 127.121094 289.273438 126.871094 289.273438 126.246094 Z M 289.273438 115.953125 "/>
<path fill="none" stroke-width="0.39848" stroke-linecap="butt" stroke-linejoin="miter" stroke="rgb(0%, 0%, 0%)" stroke-opacity="1" stroke-miterlimit="10" d="M 7.770885 16.796831 L 30.884655 16.796831 " transform="matrix(2.666667, 0, 0, -2.666667, 162.23467, 69.717331)"/>
<path fill="none" stroke-width="0.39848" stroke-linecap="round" stroke-linejoin="round" stroke="rgb(0%, 0%, 0%)" stroke-opacity="1" stroke-miterlimit="10" d="M -2.073105 2.392277 C -1.69371 0.958195 -0.84996 0.278507 0.00111389 0.00165176 C -0.84996 -0.279598 -1.69371 -0.956356 -2.073105 -2.388973 " transform="matrix(2.666667, 0, 0, -2.666667, 245.12203, 24.930186)"/>
<path fill-rule="nonzero" fill="rgb(0%, 0%, 0%)" fill-opacity="1" d="M 204.269531 16.644531 C 203.058594 16.644531 202.894531 16.644531 202.894531 15.851562 L 202.894531 12.851562 C 202.976562 12.9375 203.851562 13.894531 205.394531 13.894531 C 207.851562 13.894531 209.933594 12.0625 209.933594 9.726562 C 209.933594 7.4375 208.058594 5.519531 205.683594 5.519531 C 204.644531 5.519531 203.558594 5.9375 202.808594 6.6875 L 202.808594 5.519531 L 200.019531 5.726562 L 200.019531 6.394531 C 201.308594 6.394531 201.394531 6.519531 201.394531 7.269531 L 201.394531 15.851562 C 201.394531 16.644531 201.226562 16.644531 200.019531 16.644531 L 200.019531 17.351562 C 200.058594 17.351562 201.351562 17.269531 202.144531 17.269531 C 202.808594 17.269531 204.101562 17.3125 204.269531 17.351562 Z M 202.894531 7.519531 C 203.433594 6.601562 204.519531 6.144531 205.476562 6.144531 C 207.058594 6.144531 208.269531 7.769531 208.269531 9.726562 C 208.269531 11.851562 206.851562 13.394531 205.308594 13.394531 C 203.644531 13.394531 202.933594 11.976562 202.894531 11.851562 Z M 202.894531 7.519531 "/>
<path fill-rule="nonzero" fill="rgb(0%, 0%, 0%)" fill-opacity="1" d="M 214.527344 9.476562 C 214.527344 7.9375 215.234375 6.0625 217.027344 6.0625 C 216.859375 6.1875 216.691406 6.4375 216.691406 6.726562 C 216.691406 7.351562 217.191406 7.5625 217.527344 7.5625 C 217.984375 7.5625 218.402344 7.269531 218.402344 6.726562 C 218.402344 6.101562 217.777344 5.519531 216.902344 5.519531 C 215.984375 5.519531 214.941406 6.101562 214.402344 7.519531 L 214.402344 5.519531 L 211.734375 5.726562 L 211.734375 6.394531 C 212.984375 6.394531 213.109375 6.519531 213.109375 7.4375 L 213.109375 12.269531 C 213.109375 13.0625 212.941406 13.0625 211.734375 13.0625 L 211.734375 13.726562 C 211.816406 13.726562 213.066406 13.644531 213.859375 13.644531 C 214.652344 13.644531 215.441406 13.6875 216.277344 13.726562 L 216.277344 13.0625 L 215.902344 13.0625 C 214.527344 13.0625 214.527344 12.851562 214.527344 12.226562 Z M 214.527344 9.476562 "/>
<path fill-rule="nonzero" fill="rgb(0%, 0%, 0%)" fill-opacity="1" d="M 224.429688 10.214844 C 224.429688 9.839844 224.390625 9.839844 223.929688 9.839844 C 223.015625 10.671875 221.515625 10.671875 221.265625 10.671875 L 221.054688 10.671875 L 221.054688 11.253906 L 221.265625 11.253906 C 221.554688 11.253906 222.429688 11.214844 223.222656 10.878906 L 223.222656 17.546875 C 223.222656 17.921875 223.222656 18.089844 221.804688 18.089844 L 221.140625 18.089844 L 221.140625 18.671875 C 221.847656 18.628906 223.054688 18.628906 223.804688 18.628906 C 224.597656 18.628906 225.765625 18.628906 226.515625 18.671875 L 226.515625 18.089844 L 225.847656 18.089844 C 224.429688 18.089844 224.429688 17.921875 224.429688 17.546875 Z M 224.429688 10.214844 "/>
<path fill="none" stroke-width="0.39848" stroke-linecap="butt" stroke-linejoin="miter" stroke="rgb(0%, 0%, 0%)" stroke-opacity="1" stroke-miterlimit="10" d="M -23.318958 7.963823 L -23.318958 -9.171919 " transform="matrix(2.666667, 0, 0, -2.666667, 162.23467, 69.717331)"/>
<path fill="none" stroke-width="0.39848" stroke-linecap="round" stroke-linejoin="round" stroke="rgb(0%, 0%, 0%)" stroke-opacity="1" stroke-miterlimit="10" d="M -2.073673 2.392651 C -1.694279 0.955639 -0.850529 0.278881 0.000545502 -0.00236893 C -0.850529 -0.279224 -1.694279 -0.954517 -2.073673 -2.392994 " transform="matrix(0, 2.666667, 2.666667, 0, 100.057098, 94.705577)"/>
<path fill-rule="nonzero" fill="rgb(0%, 0%, 0%)" fill-opacity="1" d="M 76.832031 64.269531 C 76.707031 63.9375 76.667969 63.851562 76.457031 63.851562 C 76.25 63.851562 76.167969 64.019531 76.042969 64.226562 L 71.832031 75.351562 C 71.582031 75.9375 71.207031 76.226562 70.707031 76.269531 C 70.625 76.269531 70.332031 76.3125 70.332031 76.601562 C 70.332031 76.9375 70.625 76.9375 70.957031 76.9375 L 73.917969 76.9375 C 74.25 76.9375 74.542969 76.9375 74.542969 76.601562 C 74.542969 76.3125 74.292969 76.3125 74.125 76.269531 C 73.875 76.269531 73.417969 76.1875 73.417969 75.0625 C 73.417969 74.476562 73.542969 73.851562 73.667969 73.269531 L 77.75 73.269531 C 78.417969 75.101562 78.417969 75.394531 78.457031 75.769531 C 78 76.226562 77.5 76.269531 77.292969 76.269531 C 77.082031 76.3125 76.957031 76.4375 76.957031 76.601562 C 76.957031 76.9375 77.25 76.9375 77.582031 76.9375 L 82.417969 76.9375 C 82.75 76.9375 83.082031 76.9375 83.082031 76.601562 C 83.082031 76.351562 82.832031 76.3125 82.667969 76.269531 C 82.25 76.226562 81.917969 75.894531 81.542969 75.0625 Z M 73.875 72.644531 C 74.292969 70.976562 74.875 69.394531 75.5 67.851562 C 76.082031 69.101562 77.207031 71.769531 77.5 72.644531 Z M 72.75 74.6875 L 72.792969 74.726562 L 72.792969 74.894531 C 72.75 74.9375 72.75 74.976562 72.75 75.0625 C 72.75 75.144531 72.75 75.851562 73.042969 76.269531 L 72.042969 76.269531 C 72.25 76.019531 72.332031 75.8125 72.457031 75.519531 Z M 75.792969 66.851562 L 76.457031 65.0625 L 80.957031 75.3125 C 81.042969 75.519531 81.25 75.9375 81.5 76.269531 L 78.875 76.269531 C 79.042969 76.1875 79.125 75.894531 79.125 75.6875 C 79.125 74.5625 77.5 70.769531 76.707031 68.9375 Z M 75.792969 66.851562 "/>
<path fill-rule="nonzero" fill="rgb(0%, 0%, 0%)" fill-opacity="1" d="M 91.433594 75.34375 C 91.433594 74.382812 91.433594 70.757812 87.933594 70.757812 C 84.472656 70.757812 84.472656 74.382812 84.472656 75.34375 C 84.472656 76.300781 84.472656 79.882812 87.933594 79.882812 C 91.433594 79.882812 91.433594 76.300781 91.433594 75.34375 Z M 87.933594 79.425781 C 87.472656 79.425781 86.347656 79.257812 86.015625 77.925781 C 85.808594 77.21875 85.808594 76.257812 85.808594 75.175781 C 85.808594 74.175781 85.808594 73.257812 86.015625 72.507812 C 86.347656 71.382812 87.390625 71.175781 87.933594 71.175781 C 88.933594 71.175781 89.640625 71.675781 89.890625 72.632812 C 90.097656 73.300781 90.097656 74.382812 90.097656 75.175781 C 90.097656 76.09375 90.097656 77.175781 89.890625 77.96875 C 89.558594 79.257812 88.472656 79.425781 87.933594 79.425781 Z M 87.933594 79.425781 "/>
<path fill="none" stroke-width="0.39848" stroke-linecap="butt" stroke-linejoin="miter" stroke="rgb(0%, 0%, 0%)" stroke-opacity="1" stroke-miterlimit="10" d="M 42.842175 8.959917 L 42.842175 -9.171919 " transform="matrix(2.666667, 0, 0, -2.666667, 162.23467, 69.717331)"/>
<path fill="none" stroke-width="0.39848" stroke-linecap="round" stroke-linejoin="round" stroke="rgb(0%, 0%, 0%)" stroke-opacity="1" stroke-miterlimit="10" d="M -2.073673 2.390244 C -1.694279 0.956161 -0.850529 0.280869 0.000545502 -0.00038147 C -0.850529 -0.278702 -1.694279 -0.958389 -2.073673 -2.391006 " transform="matrix(0, 2.666667, 2.666667, 0, 276.481486, 94.705577)"/>
<path fill-rule="nonzero" fill="rgb(0%, 0%, 0%)" fill-opacity="1" d="M 288.738281 66.867188 C 290.28125 66.199219 290.945312 65.949219 291.40625 65.699219 C 291.78125 65.574219 291.945312 65.492188 291.945312 65.117188 C 291.945312 64.824219 291.695312 64.53125 291.363281 64.53125 C 291.238281 64.53125 291.195312 64.53125 290.988281 64.699219 L 288.445312 66.40625 L 288.738281 63.65625 C 288.78125 63.324219 288.738281 62.867188 288.15625 62.867188 C 287.945312 62.867188 287.570312 62.992188 287.570312 63.40625 C 287.570312 63.574219 287.65625 64.117188 287.695312 64.324219 C 287.738281 64.617188 287.863281 65.992188 287.90625 66.40625 L 285.363281 64.699219 C 285.195312 64.617188 285.15625 64.53125 284.988281 64.53125 C 284.613281 64.53125 284.40625 64.824219 284.40625 65.117188 C 284.40625 65.492188 284.613281 65.617188 284.78125 65.65625 L 287.570312 66.867188 C 286.070312 67.53125 285.363281 67.78125 284.90625 67.992188 C 284.570312 68.15625 284.40625 68.242188 284.40625 68.574219 C 284.40625 68.90625 284.613281 69.15625 284.988281 69.15625 C 285.113281 69.15625 285.15625 69.15625 285.363281 68.992188 L 287.90625 67.324219 L 287.570312 70.28125 C 287.570312 70.699219 287.945312 70.867188 288.15625 70.867188 C 288.40625 70.867188 288.738281 70.699219 288.738281 70.28125 C 288.738281 70.117188 288.65625 69.574219 288.65625 69.40625 C 288.613281 69.074219 288.488281 67.742188 288.445312 67.324219 L 290.65625 68.78125 C 291.15625 69.15625 291.195312 69.15625 291.363281 69.15625 C 291.695312 69.15625 291.945312 68.90625 291.945312 68.574219 C 291.945312 68.199219 291.695312 68.117188 291.53125 68.03125 Z M 288.738281 66.867188 "/>
<path fill-rule="nonzero" fill="rgb(0%, 0%, 0%)" fill-opacity="1" d="M 299.832031 71.441406 L 297.289062 65.402344 C 297.164062 65.109375 297.164062 65.109375 296.789062 65.109375 L 294.332031 65.109375 C 294.082031 65.109375 293.875 65.109375 293.875 65.359375 C 293.875 65.609375 294.125 65.609375 294.207031 65.609375 C 294.375 65.609375 294.707031 65.609375 295 65.734375 L 295 72.816406 C 295 73.109375 295 73.691406 294.082031 73.777344 C 293.832031 73.777344 293.832031 73.984375 293.832031 73.984375 C 293.832031 74.234375 294.082031 74.234375 294.289062 74.234375 L 296.375 74.234375 C 296.582031 74.234375 296.789062 74.234375 296.789062 73.984375 C 296.789062 73.859375 296.707031 73.777344 296.582031 73.777344 C 295.582031 73.691406 295.582031 73.152344 295.582031 72.816406 L 295.582031 66.191406 L 298.832031 73.941406 C 298.914062 74.191406 299.039062 74.234375 299.082031 74.234375 C 299.25 74.234375 299.289062 74.109375 299.375 73.984375 L 302.625 66.191406 L 302.625 72.816406 C 302.625 73.109375 302.625 73.691406 301.75 73.777344 C 301.5 73.777344 301.5 73.984375 301.5 73.984375 C 301.5 74.234375 301.707031 74.234375 301.914062 74.234375 L 305.5 74.234375 C 305.707031 74.234375 305.914062 74.234375 305.914062 73.984375 C 305.914062 73.859375 305.832031 73.777344 305.707031 73.777344 C 304.664062 73.691406 304.664062 73.152344 304.664062 72.816406 L 304.664062 66.527344 C 304.664062 66.277344 304.664062 65.691406 305.582031 65.609375 C 305.707031 65.566406 305.832031 65.527344 305.832031 65.359375 C 305.832031 65.109375 305.625 65.109375 305.414062 65.109375 L 302.832031 65.109375 C 302.5 65.109375 302.457031 65.109375 302.332031 65.402344 Z M 299.414062 71.691406 C 299.539062 71.902344 299.539062 71.902344 299.707031 71.984375 L 299.125 73.402344 L 299.082031 73.402344 L 296.039062 66.152344 C 296 65.984375 295.875 65.734375 295.707031 65.609375 L 296.875 65.609375 Z M 295.414062 73.777344 L 295.164062 73.777344 C 295.207031 73.734375 295.25 73.691406 295.25 73.652344 C 295.289062 73.652344 295.289062 73.652344 295.289062 73.609375 Z M 303.082031 65.609375 L 304.5 65.609375 C 304.207031 65.941406 304.207031 66.277344 304.207031 66.527344 L 304.207031 72.859375 C 304.207031 73.109375 304.207031 73.441406 304.539062 73.777344 L 302.789062 73.777344 C 303.082031 73.441406 303.082031 73.109375 303.082031 72.859375 Z M 303.082031 65.609375 "/>
<path fill-rule="nonzero" fill="rgb(0%, 0%, 0%)" fill-opacity="1" d="M 311.460938 69.761719 C 311.460938 69.386719 311.421875 69.386719 310.960938 69.386719 C 310.046875 70.222656 308.546875 70.222656 308.296875 70.222656 L 308.085938 70.222656 L 308.085938 70.804688 L 308.296875 70.804688 C 308.585938 70.804688 309.460938 70.761719 310.253906 70.429688 L 310.253906 77.097656 C 310.253906 77.472656 310.253906 77.636719 308.835938 77.636719 L 308.171875 77.636719 L 308.171875 78.222656 C 308.878906 78.179688 310.085938 78.179688 310.835938 78.179688 C 311.628906 78.179688 312.796875 78.179688 313.546875 78.222656 L 313.546875 77.636719 L 312.878906 77.636719 C 311.460938 77.636719 311.460938 77.472656 311.460938 77.097656 Z M 311.460938 69.761719 "/>
<g clip-path="url(#clip-0)">
<path fill="none" stroke-width="2.33075" stroke-linecap="butt" stroke-linejoin="miter" stroke="rgb(0%, 0%, 0%)" stroke-opacity="1" stroke-miterlimit="10" d="M 4.767956 -3.106001 L 16.981823 3.280718 " transform="matrix(2.666667, 0, 0, -2.666667, 162.23467, 69.717331)"/>
</g>
<path fill="none" stroke-width="1.53377" stroke-linecap="butt" stroke-linejoin="miter" stroke="rgb(100%, 100%, 100%)" stroke-opacity="1" stroke-miterlimit="10" d="M 4.767956 -3.106001 L 16.981823 3.280718 " transform="matrix(2.666667, 0, 0, -2.666667, 162.23467, 69.717331)"/>
<path fill="none" stroke-width="0.39848" stroke-linecap="round" stroke-linejoin="round" stroke="rgb(0%, 0%, 0%)" stroke-opacity="1" stroke-miterlimit="10" d="M -1.293751 2.559536 C -0.667571 1.208891 1.025457 0.0459738 1.988481 0.00035259 C 1.023058 -0.0503023 -0.666126 -1.206987 -1.293426 -2.558512 " transform="matrix(2.36304, -1.23552, -1.23552, -2.36304, 207.520325, 60.96936)"/>
<path fill-rule="nonzero" fill="rgb(0%, 0%, 0%)" fill-opacity="1" d="M 205.910156 74.972656 C 205.910156 74.933594 205.953125 74.683594 205.953125 74.683594 C 205.953125 74.558594 205.910156 74.390625 205.660156 74.390625 C 205.285156 74.390625 203.742188 74.558594 203.285156 74.597656 C 203.160156 74.597656 202.867188 74.640625 202.867188 75.015625 C 202.867188 75.265625 203.160156 75.265625 203.367188 75.265625 C 204.242188 75.265625 204.242188 75.433594 204.242188 75.558594 C 204.242188 75.683594 204.203125 75.808594 204.203125 75.972656 L 201.578125 86.472656 C 201.453125 86.808594 201.453125 86.847656 201.453125 86.890625 C 201.453125 87.183594 201.703125 87.472656 202.117188 87.472656 C 202.328125 87.472656 202.660156 87.390625 202.867188 87.015625 C 202.910156 86.890625 203.078125 86.222656 203.160156 85.847656 L 203.617188 84.183594 C 203.660156 83.890625 203.867188 83.183594 203.910156 82.933594 C 204.078125 82.222656 204.078125 82.183594 204.453125 81.597656 C 205.078125 80.683594 205.992188 79.640625 207.453125 79.640625 C 208.492188 79.640625 208.535156 80.472656 208.535156 80.933594 C 208.535156 82.058594 207.742188 84.097656 207.453125 84.890625 C 207.242188 85.433594 207.160156 85.597656 207.160156 85.890625 C 207.160156 86.890625 207.992188 87.472656 208.910156 87.472656 C 210.785156 87.472656 211.617188 84.933594 211.617188 84.640625 C 211.617188 84.390625 211.367188 84.390625 211.285156 84.390625 C 211.035156 84.390625 211.035156 84.515625 210.953125 84.722656 C 210.535156 86.222656 209.703125 86.972656 208.992188 86.972656 C 208.578125 86.972656 208.492188 86.722656 208.492188 86.308594 C 208.492188 85.890625 208.617188 85.640625 208.953125 84.808594 C 209.160156 84.222656 209.910156 82.265625 209.910156 81.222656 C 209.910156 80.933594 209.910156 80.140625 209.242188 79.597656 C 208.910156 79.390625 208.367188 79.097656 207.492188 79.097656 C 206.160156 79.097656 205.160156 79.847656 204.492188 80.640625 Z M 205.910156 74.972656 "/>
<path fill-rule="nonzero" fill="rgb(0%, 0%, 0%)" fill-opacity="1" d="M 217.808594 81.503906 C 217.808594 81.128906 217.765625 81.128906 217.308594 81.128906 C 216.390625 81.960938 214.890625 81.960938 214.640625 81.960938 L 214.433594 81.960938 L 214.433594 82.546875 L 214.640625 82.546875 C 214.933594 82.546875 215.808594 82.503906 216.601562 82.171875 L 216.601562 88.835938 C 216.601562 89.210938 216.601562 89.378906 215.183594 89.378906 L 214.515625 89.378906 L 214.515625 89.960938 C 215.226562 89.921875 216.433594 89.921875 217.183594 89.921875 C 217.976562 89.921875 219.140625 89.921875 219.890625 89.960938 L 219.890625 89.378906 L 219.226562 89.378906 C 217.808594 89.378906 217.808594 89.210938 217.808594 88.835938 Z M 217.808594 81.503906 "/>
<path fill="none" stroke-width="0.39848" stroke-linecap="butt" stroke-linejoin="miter" stroke="rgb(0%, 0%, 0%)" stroke-opacity="1" stroke-miterlimit="10" d="M 1.82655 -17.789595 L 31.009167 -17.789595 " transform="matrix(2.666667, 0, 0, -2.666667, 162.23467, 69.717331)"/>
<path fill="none" stroke-width="0.39848" stroke-linecap="round" stroke-linejoin="round" stroke="rgb(0%, 0%, 0%)" stroke-opacity="1" stroke-miterlimit="10" d="M -2.072189 2.392521 C -1.692795 0.955509 -0.849045 0.278751 -0.00236511 0.0018959 C -0.849045 -0.279354 -1.692795 -0.954647 -2.072189 -2.393124 " transform="matrix(2.666667, 0, 0, -2.666667, 245.463338, 117.161306)"/>
<path fill-rule="nonzero" fill="rgb(0%, 0%, 0%)" fill-opacity="1" d="M 251.5 99.839844 C 251.210938 99.839844 250.75 99.839844 250.75 100.257812 C 250.75 100.757812 251.167969 100.757812 251.5 100.757812 L 258 100.757812 C 258.625 100.757812 258.710938 100.632812 258.710938 100.046875 L 258.710938 93.464844 C 258.710938 93.171875 258.710938 92.757812 258.292969 92.757812 C 257.792969 92.757812 257.792969 93.257812 257.792969 93.546875 L 257.792969 99.839844 Z M 251.5 99.839844 "/>
</svg>
