<?xml version="1.0" encoding="UTF-8"?>
<svg xmlns="http://www.w3.org/2000/svg" xmlns:xlink="http://www.w3.org/1999/xlink" width="283.866659" height="134.853333" viewBox="0 0 283.866659 134.853333">
<defs>
<clipPath id="clip-0">
<path clip-rule="nonzero" d="M 56 0 L 256 0 L 256 134.855469 L 56 134.855469 Z M 56 0 "/>
</clipPath>
</defs>
<path fill-rule="nonzero" fill="rgb(0%, 0%, 0%)" fill-opacity="1" d="M 36.074219 15.4375 C 36.324219 14.480469 36.363281 14.230469 38.363281 14.230469 C 38.949219 14.230469 39.199219 14.230469 39.199219 13.6875 C 39.199219 13.394531 38.949219 13.394531 38.488281 13.394531 L 34.988281 13.394531 C 34.28125 13.394531 34.238281 13.394531 33.949219 13.894531 L 24.238281 29.0625 L 22.15625 14.019531 C 22.074219 13.394531 22.03125 13.394531 21.324219 13.394531 L 17.699219 13.394531 C 17.199219 13.394531 16.90625 13.394531 16.90625 13.894531 C 16.90625 14.230469 17.15625 14.230469 17.65625 14.230469 C 18.03125 14.230469 18.488281 14.269531 18.824219 14.269531 C 19.238281 14.355469 19.40625 14.394531 19.40625 14.730469 C 19.40625 14.8125 19.363281 14.894531 19.28125 15.230469 L 15.90625 28.730469 C 15.65625 29.8125 15.199219 30.644531 13.03125 30.730469 C 12.90625 30.730469 12.574219 30.769531 12.574219 31.230469 C 12.574219 31.480469 12.738281 31.5625 12.949219 31.5625 C 13.78125 31.5625 14.699219 31.480469 15.613281 31.480469 C 16.488281 31.480469 17.449219 31.5625 18.324219 31.5625 C 18.449219 31.5625 18.824219 31.5625 18.824219 31.019531 C 18.824219 30.730469 18.53125 30.730469 18.324219 30.730469 C 16.824219 30.730469 16.53125 30.1875 16.53125 29.5625 C 16.53125 29.394531 16.53125 29.230469 16.613281 28.9375 L 20.238281 14.480469 L 20.28125 14.480469 L 22.574219 30.9375 C 22.613281 31.269531 22.65625 31.5625 22.949219 31.5625 C 23.238281 31.5625 23.40625 31.269531 23.53125 31.105469 L 34.28125 14.269531 L 34.324219 14.269531 L 30.488281 29.480469 C 30.238281 30.519531 30.199219 30.730469 28.074219 30.730469 C 27.65625 30.730469 27.363281 30.730469 27.363281 31.230469 C 27.363281 31.5625 27.65625 31.5625 27.738281 31.5625 C 28.488281 31.5625 30.28125 31.480469 31.03125 31.480469 C 32.113281 31.480469 33.28125 31.5625 34.363281 31.5625 C 34.53125 31.5625 34.863281 31.5625 34.863281 31.019531 C 34.863281 30.730469 34.613281 30.730469 34.113281 30.730469 C 33.15625 30.730469 32.40625 30.730469 32.40625 30.269531 C 32.40625 30.144531 32.40625 30.105469 32.53125 29.605469 Z M 36.074219 15.4375 "/>
<path fill-rule="nonzero" fill="rgb(0%, 0%, 0%)" fill-opacity="1" d="M 43.429688 23.714844 C 43.429688 23.214844 43.429688 23.214844 42.886719 23.214844 C 41.679688 24.378906 40.011719 24.378906 39.261719 24.378906 L 39.261719 25.046875 C 39.679688 25.046875 40.929688 25.046875 41.929688 24.546875 L 41.929688 34.003906 C 41.929688 34.628906 41.929688 34.878906 40.097656 34.878906 L 39.386719 34.878906 L 39.386719 35.546875 C 39.722656 35.546875 42.011719 35.464844 42.679688 35.464844 C 43.261719 35.464844 45.597656 35.546875 46.011719 35.546875 L 46.011719 34.878906 L 45.304688 34.878906 C 43.429688 34.878906 43.429688 34.628906 43.429688 34.003906 Z M 43.429688 23.714844 "/>
<path fill-rule="nonzero" fill="rgb(0%, 0%, 0%)" fill-opacity="1" d="M 65.378906 24.1875 L 60.085938 18.894531 C 59.753906 18.5625 59.710938 18.519531 59.503906 18.519531 C 59.210938 18.519531 58.960938 18.730469 58.960938 19.0625 C 58.960938 19.230469 59.003906 19.269531 59.296875 19.5625 L 64.628906 24.894531 L 59.296875 30.269531 C 59.003906 30.5625 58.960938 30.605469 58.960938 30.769531 C 58.960938 31.105469 59.210938 31.3125 59.503906 31.3125 C 59.710938 31.3125 59.753906 31.269531 60.085938 30.9375 L 65.378906 25.644531 L 70.878906 31.144531 C 70.921875 31.1875 71.085938 31.3125 71.253906 31.3125 C 71.585938 31.3125 71.796875 31.105469 71.796875 30.769531 C 71.796875 30.730469 71.796875 30.644531 71.710938 30.480469 C 71.671875 30.4375 67.460938 26.269531 66.128906 24.894531 L 71.003906 20.0625 C 71.128906 19.894531 71.546875 19.5625 71.671875 19.394531 C 71.671875 19.355469 71.796875 19.230469 71.796875 19.0625 C 71.796875 18.730469 71.585938 18.519531 71.253906 18.519531 C 71.046875 18.519531 70.960938 18.605469 70.671875 18.894531 Z M 65.378906 24.1875 "/>
<path fill-rule="nonzero" fill="rgb(0%, 0%, 0%)" fill-opacity="1" d="M 93.902344 22.5625 C 93.652344 20.894531 92.570312 19.394531 90.484375 19.394531 C 88.859375 19.394531 87.152344 19.855469 85.070312 21.894531 C 82.859375 24.105469 82.695312 26.605469 82.695312 27.394531 C 82.695312 29.0625 83.859375 32.144531 87.570312 32.144531 C 93.902344 32.144531 96.652344 23.230469 96.652344 19.394531 C 96.652344 15.1875 94.195312 12.519531 90.902344 12.519531 C 87.070312 12.519531 85.820312 15.980469 85.820312 16.730469 C 85.820312 17.105469 86.070312 17.644531 86.859375 17.644531 C 87.734375 17.644531 88.277344 16.855469 88.277344 16.269531 C 88.277344 15.3125 87.445312 15.3125 87.027344 15.3125 C 88.195312 13.355469 90.109375 13.1875 90.859375 13.1875 C 92.820312 13.1875 94.652344 14.5625 94.652344 18.019531 C 94.652344 19.0625 94.484375 20.394531 93.945312 22.5625 Z M 87.652344 31.394531 C 84.734375 31.394531 84.734375 28.644531 84.734375 28.394531 C 84.734375 27.6875 85.402344 23.980469 86.484375 22.355469 C 87.527344 20.855469 88.859375 19.980469 90.484375 19.980469 C 93.402344 19.980469 93.445312 22.980469 93.445312 23.519531 C 93.445312 25.4375 91.734375 31.394531 87.652344 31.394531 Z M 87.652344 31.394531 "/>
<path fill-rule="nonzero" fill="rgb(0%, 0%, 0%)" fill-opacity="1" d="M 108.941406 13.019531 C 108.773438 12.644531 108.691406 12.519531 108.234375 12.519531 C 107.816406 12.519531 107.734375 12.644531 107.566406 13.019531 L 98.566406 31.019531 C 98.441406 31.269531 98.441406 31.3125 98.441406 31.355469 C 98.441406 31.5625 98.609375 31.5625 99.023438 31.5625 L 117.484375 31.5625 C 117.898438 31.5625 118.066406 31.5625 118.066406 31.355469 C 118.066406 31.3125 118.066406 31.269531 117.941406 31.019531 Z M 107.398438 15.1875 L 114.566406 29.5625 L 100.234375 29.5625 Z M 107.398438 15.1875 "/>
<path fill-rule="nonzero" fill="rgb(0%, 0%, 0%)" fill-opacity="1" d="M 125.539062 10.089844 C 125.539062 9.589844 125.539062 9.589844 124.996094 9.589844 C 123.789062 10.757812 122.121094 10.757812 121.371094 10.757812 L 121.371094 11.421875 C 121.789062 11.421875 123.039062 11.421875 124.039062 10.921875 L 124.039062 20.382812 C 124.039062 21.007812 124.039062 21.257812 122.207031 21.257812 L 121.496094 21.257812 L 121.496094 21.921875 C 121.832031 21.921875 124.121094 21.839844 124.789062 21.839844 C 125.371094 21.839844 127.707031 21.921875 128.121094 21.921875 L 128.121094 21.257812 L 127.414062 21.257812 C 125.539062 21.257812 125.539062 21.007812 125.539062 20.382812 Z M 125.539062 10.089844 "/>
<path fill-rule="nonzero" fill="rgb(0%, 0%, 0%)" fill-opacity="1" d="M 242.535156 15.4375 C 242.785156 14.480469 242.828125 14.230469 244.828125 14.230469 C 245.410156 14.230469 245.660156 14.230469 245.660156 13.6875 C 245.660156 13.394531 245.410156 13.394531 244.953125 13.394531 L 241.453125 13.394531 C 240.746094 13.394531 240.703125 13.394531 240.410156 13.894531 L 230.703125 29.0625 L 228.621094 14.019531 C 228.535156 13.394531 228.496094 13.394531 227.785156 13.394531 L 224.160156 13.394531 C 223.660156 13.394531 223.371094 13.394531 223.371094 13.894531 C 223.371094 14.230469 223.621094 14.230469 224.121094 14.230469 C 224.496094 14.230469 224.953125 14.269531 225.285156 14.269531 C 225.703125 14.355469 225.871094 14.394531 225.871094 14.730469 C 225.871094 14.8125 225.828125 14.894531 225.746094 15.230469 L 222.371094 28.730469 C 222.121094 29.8125 221.660156 30.644531 219.496094 30.730469 C 219.371094 30.730469 219.035156 30.769531 219.035156 31.230469 C 219.035156 31.480469 219.203125 31.5625 219.410156 31.5625 C 220.246094 31.5625 221.160156 31.480469 222.078125 31.480469 C 222.953125 31.480469 223.910156 31.5625 224.785156 31.5625 C 224.910156 31.5625 225.285156 31.5625 225.285156 31.019531 C 225.285156 30.730469 224.996094 30.730469 224.785156 30.730469 C 223.285156 30.730469 222.996094 30.1875 222.996094 29.5625 C 222.996094 29.394531 222.996094 29.230469 223.078125 28.9375 L 226.703125 14.480469 L 226.746094 14.480469 L 229.035156 30.9375 C 229.078125 31.269531 229.121094 31.5625 229.410156 31.5625 C 229.703125 31.5625 229.871094 31.269531 229.996094 31.105469 L 240.746094 14.269531 L 240.785156 14.269531 L 236.953125 29.480469 C 236.703125 30.519531 236.660156 30.730469 234.535156 30.730469 C 234.121094 30.730469 233.828125 30.730469 233.828125 31.230469 C 233.828125 31.5625 234.121094 31.5625 234.203125 31.5625 C 234.953125 31.5625 236.746094 31.480469 237.496094 31.480469 C 238.578125 31.480469 239.746094 31.5625 240.828125 31.5625 C 240.996094 31.5625 241.328125 31.5625 241.328125 31.019531 C 241.328125 30.730469 241.078125 30.730469 240.578125 30.730469 C 239.621094 30.730469 238.871094 30.730469 238.871094 30.269531 C 238.871094 30.144531 238.871094 30.105469 238.996094 29.605469 Z M 242.535156 15.4375 "/>
<path fill-rule="nonzero" fill="rgb(0%, 0%, 0%)" fill-opacity="1" d="M 249.894531 23.714844 C 249.894531 23.214844 249.894531 23.214844 249.351562 23.214844 C 248.144531 24.378906 246.476562 24.378906 245.726562 24.378906 L 245.726562 25.046875 C 246.144531 25.046875 247.394531 25.046875 248.394531 24.546875 L 248.394531 34.003906 C 248.394531 34.628906 248.394531 34.878906 246.558594 34.878906 L 245.851562 34.878906 L 245.851562 35.546875 C 246.183594 35.546875 248.476562 35.464844 249.144531 35.464844 C 249.726562 35.464844 252.058594 35.546875 252.476562 35.546875 L 252.476562 34.878906 L 251.769531 34.878906 C 249.894531 34.878906 249.894531 34.628906 249.894531 34.003906 Z M 249.894531 23.714844 "/>
<path fill-rule="nonzero" fill="rgb(0%, 0%, 0%)" fill-opacity="1" d="M 40.914062 105.011719 C 41.164062 104.050781 41.203125 103.800781 43.203125 103.800781 C 43.789062 103.800781 44.039062 103.800781 44.039062 103.261719 C 44.039062 102.96875 43.789062 102.96875 43.328125 102.96875 L 39.828125 102.96875 C 39.121094 102.96875 39.078125 102.96875 38.789062 103.46875 L 29.078125 118.636719 L 26.996094 103.59375 C 26.914062 102.96875 26.871094 102.96875 26.164062 102.96875 L 22.539062 102.96875 C 22.039062 102.96875 21.746094 102.96875 21.746094 103.46875 C 21.746094 103.800781 21.996094 103.800781 22.496094 103.800781 C 22.871094 103.800781 23.328125 103.84375 23.664062 103.84375 C 24.078125 103.925781 24.246094 103.96875 24.246094 104.300781 C 24.246094 104.386719 24.203125 104.46875 24.121094 104.800781 L 20.746094 118.300781 C 20.496094 119.386719 20.039062 120.21875 17.871094 120.300781 C 17.746094 120.300781 17.414062 120.34375 17.414062 120.800781 C 17.414062 121.050781 17.578125 121.136719 17.789062 121.136719 C 18.621094 121.136719 19.539062 121.050781 20.453125 121.050781 C 21.328125 121.050781 22.289062 121.136719 23.164062 121.136719 C 23.289062 121.136719 23.664062 121.136719 23.664062 120.59375 C 23.664062 120.300781 23.371094 120.300781 23.164062 120.300781 C 21.664062 120.300781 21.371094 119.761719 21.371094 119.136719 C 21.371094 118.96875 21.371094 118.800781 21.453125 118.511719 L 25.078125 104.050781 L 25.121094 104.050781 L 27.414062 120.511719 C 27.453125 120.84375 27.496094 121.136719 27.789062 121.136719 C 28.078125 121.136719 28.246094 120.84375 28.371094 120.675781 L 39.121094 103.84375 L 39.164062 103.84375 L 35.328125 119.050781 C 35.078125 120.09375 35.039062 120.300781 32.914062 120.300781 C 32.496094 120.300781 32.203125 120.300781 32.203125 120.800781 C 32.203125 121.136719 32.496094 121.136719 32.578125 121.136719 C 33.328125 121.136719 35.121094 121.050781 35.871094 121.050781 C 36.953125 121.050781 38.121094 121.136719 39.203125 121.136719 C 39.371094 121.136719 39.703125 121.136719 39.703125 120.59375 C 39.703125 120.300781 39.453125 120.300781 38.953125 120.300781 C 37.996094 120.300781 37.246094 120.300781 37.246094 119.84375 C 37.246094 119.71875 37.246094 119.675781 37.371094 119.175781 Z M 40.914062 105.011719 "/>
<path fill-rule="nonzero" fill="rgb(0%, 0%, 0%)" fill-opacity="1" d="M 51.644531 119.203125 C 51.644531 117.160156 51.394531 115.660156 50.5625 114.371094 C 49.976562 113.535156 48.8125 112.785156 47.351562 112.785156 C 43.019531 112.785156 43.019531 117.871094 43.019531 119.203125 C 43.019531 120.535156 43.019531 125.496094 47.351562 125.496094 C 51.644531 125.496094 51.644531 120.535156 51.644531 119.203125 Z M 47.351562 124.953125 C 46.476562 124.953125 45.351562 124.453125 44.976562 122.953125 C 44.726562 121.871094 44.726562 120.328125 44.726562 118.953125 C 44.726562 117.578125 44.726562 116.160156 44.976562 115.160156 C 45.394531 113.703125 46.5625 113.285156 47.351562 113.285156 C 48.351562 113.285156 49.3125 113.910156 49.644531 114.996094 C 49.9375 115.996094 49.976562 117.328125 49.976562 118.953125 C 49.976562 120.328125 49.976562 121.703125 49.726562 122.871094 C 49.351562 124.578125 48.101562 124.953125 47.351562 124.953125 Z M 47.351562 124.953125 "/>
<path fill-rule="nonzero" fill="rgb(0%, 0%, 0%)" fill-opacity="1" d="M 79.609375 112.425781 C 80.027344 112.425781 80.527344 112.425781 80.527344 111.925781 C 80.527344 111.386719 80.027344 111.386719 79.652344 111.386719 L 63.734375 111.386719 C 63.359375 111.386719 62.859375 111.386719 62.859375 111.925781 C 62.859375 112.425781 63.359375 112.425781 63.734375 112.425781 Z M 79.652344 117.59375 C 80.027344 117.59375 80.527344 117.59375 80.527344 117.050781 C 80.527344 116.550781 80.027344 116.550781 79.609375 116.550781 L 63.734375 116.550781 C 63.359375 116.550781 62.859375 116.550781 62.859375 117.050781 C 62.859375 117.59375 63.359375 117.59375 63.734375 117.59375 Z M 79.652344 117.59375 "/>
<path fill-rule="nonzero" fill="rgb(0%, 0%, 0%)" fill-opacity="1" d="M 101.777344 115.550781 L 96.695312 103.46875 C 96.484375 102.925781 96.484375 102.925781 95.734375 102.925781 L 90.820312 102.925781 C 90.320312 102.925781 89.945312 102.925781 89.945312 103.386719 C 89.945312 103.84375 90.402344 103.84375 90.527344 103.84375 C 90.859375 103.84375 91.570312 103.925781 92.152344 104.136719 L 92.152344 118.300781 C 92.152344 118.886719 92.152344 120.050781 90.359375 120.21875 C 89.859375 120.261719 89.859375 120.636719 89.859375 120.675781 C 89.859375 121.136719 90.277344 121.136719 90.777344 121.136719 L 94.859375 121.136719 C 95.359375 121.136719 95.734375 121.136719 95.734375 120.675781 C 95.734375 120.425781 95.527344 120.21875 95.320312 120.21875 C 93.277344 120.050781 93.277344 118.925781 93.277344 118.300781 L 93.277344 105.09375 L 93.320312 105.050781 L 99.777344 120.59375 C 100.027344 121.050781 100.195312 121.136719 100.359375 121.136719 C 100.695312 121.136719 100.734375 120.925781 100.902344 120.59375 L 107.402344 105.050781 L 107.445312 105.09375 L 107.445312 118.300781 C 107.445312 118.886719 107.445312 120.050781 105.609375 120.21875 C 105.109375 120.261719 105.109375 120.636719 105.109375 120.675781 C 105.109375 121.136719 105.527344 121.136719 106.027344 121.136719 L 113.109375 121.136719 C 113.609375 121.136719 113.984375 121.136719 113.984375 120.675781 C 113.984375 120.425781 113.777344 120.21875 113.570312 120.21875 C 111.527344 120.050781 111.527344 118.925781 111.527344 118.300781 L 111.527344 105.761719 C 111.527344 105.175781 111.527344 104.011719 113.320312 103.84375 C 113.609375 103.84375 113.820312 103.675781 113.820312 103.386719 C 113.820312 102.925781 113.445312 102.925781 112.945312 102.925781 L 107.820312 102.925781 C 107.152344 102.925781 107.070312 102.925781 106.859375 103.46875 Z M 100.984375 116.050781 C 101.195312 116.46875 101.234375 116.511719 101.570312 116.636719 L 100.359375 119.425781 L 100.320312 119.425781 L 94.277344 104.96875 C 94.152344 104.636719 93.902344 104.175781 93.570312 103.84375 L 95.859375 103.84375 Z M 92.945312 120.21875 L 92.527344 120.21875 C 92.570312 120.136719 92.609375 120.050781 92.652344 120.011719 C 92.695312 119.96875 92.695312 119.925781 92.734375 119.925781 Z M 108.359375 103.84375 L 111.195312 103.84375 C 110.570312 104.511719 110.570312 105.21875 110.570312 105.675781 L 110.570312 118.386719 C 110.570312 118.84375 110.570312 119.550781 111.195312 120.21875 L 107.777344 120.21875 C 108.359375 119.550781 108.359375 118.84375 108.359375 118.386719 Z M 108.359375 103.84375 "/>
<path fill-rule="nonzero" fill="rgb(0%, 0%, 0%)" fill-opacity="1" d="M 124.078125 119.203125 C 124.078125 117.160156 123.828125 115.660156 122.992188 114.371094 C 122.410156 113.535156 121.242188 112.785156 119.785156 112.785156 C 115.453125 112.785156 115.453125 117.871094 115.453125 119.203125 C 115.453125 120.535156 115.453125 125.496094 119.785156 125.496094 C 124.078125 125.496094 124.078125 120.535156 124.078125 119.203125 Z M 119.785156 124.953125 C 118.910156 124.953125 117.785156 124.453125 117.410156 122.953125 C 117.160156 121.871094 117.160156 120.328125 117.160156 118.953125 C 117.160156 117.578125 117.160156 116.160156 117.410156 115.160156 C 117.828125 113.703125 118.992188 113.285156 119.785156 113.285156 C 120.785156 113.285156 121.742188 113.910156 122.078125 114.996094 C 122.367188 115.996094 122.410156 117.328125 122.410156 118.953125 C 122.410156 120.328125 122.410156 121.703125 122.160156 122.871094 C 121.785156 124.578125 120.535156 124.953125 119.785156 124.953125 Z M 119.785156 124.953125 "/>
<path fill-rule="nonzero" fill="rgb(0%, 0%, 0%)" fill-opacity="1" d="M 230.628906 115.550781 L 225.546875 103.46875 C 225.335938 102.925781 225.335938 102.925781 224.585938 102.925781 L 219.671875 102.925781 C 219.171875 102.925781 218.796875 102.925781 218.796875 103.386719 C 218.796875 103.84375 219.253906 103.84375 219.378906 103.84375 C 219.710938 103.84375 220.421875 103.925781 221.003906 104.136719 L 221.003906 118.300781 C 221.003906 118.886719 221.003906 120.050781 219.210938 120.21875 C 218.710938 120.261719 218.710938 120.636719 218.710938 120.675781 C 218.710938 121.136719 219.128906 121.136719 219.628906 121.136719 L 223.710938 121.136719 C 224.210938 121.136719 224.585938 121.136719 224.585938 120.675781 C 224.585938 120.425781 224.378906 120.21875 224.171875 120.21875 C 222.128906 120.050781 222.128906 118.925781 222.128906 118.300781 L 222.128906 105.09375 L 222.171875 105.050781 L 228.628906 120.59375 C 228.878906 121.050781 229.046875 121.136719 229.210938 121.136719 C 229.546875 121.136719 229.585938 120.925781 229.753906 120.59375 L 236.253906 105.050781 L 236.296875 105.09375 L 236.296875 118.300781 C 236.296875 118.886719 236.296875 120.050781 234.460938 120.21875 C 233.960938 120.261719 233.960938 120.636719 233.960938 120.675781 C 233.960938 121.136719 234.378906 121.136719 234.878906 121.136719 L 241.960938 121.136719 C 242.460938 121.136719 242.835938 121.136719 242.835938 120.675781 C 242.835938 120.425781 242.628906 120.21875 242.421875 120.21875 C 240.378906 120.050781 240.378906 118.925781 240.378906 118.300781 L 240.378906 105.761719 C 240.378906 105.175781 240.378906 104.011719 242.171875 103.84375 C 242.460938 103.84375 242.671875 103.675781 242.671875 103.386719 C 242.671875 102.925781 242.296875 102.925781 241.796875 102.925781 L 236.671875 102.925781 C 236.003906 102.925781 235.921875 102.925781 235.710938 103.46875 Z M 229.835938 116.050781 C 230.046875 116.46875 230.085938 116.511719 230.421875 116.636719 L 229.210938 119.425781 L 229.171875 119.425781 L 223.128906 104.96875 C 223.003906 104.636719 222.753906 104.175781 222.421875 103.84375 L 224.710938 103.84375 Z M 221.796875 120.21875 L 221.378906 120.21875 C 221.421875 120.136719 221.460938 120.050781 221.503906 120.011719 C 221.546875 119.96875 221.546875 119.925781 221.585938 119.925781 Z M 237.210938 103.84375 L 240.046875 103.84375 C 239.421875 104.511719 239.421875 105.21875 239.421875 105.675781 L 239.421875 118.386719 C 239.421875 118.84375 239.421875 119.550781 240.046875 120.21875 L 236.628906 120.21875 C 237.210938 119.550781 237.210938 118.84375 237.210938 118.386719 Z M 237.210938 103.84375 "/>
<path fill-rule="nonzero" fill="rgb(0%, 0%, 0%)" fill-opacity="1" d="M 249.550781 113.285156 C 249.550781 112.785156 249.550781 112.785156 249.011719 112.785156 C 247.800781 113.953125 246.136719 113.953125 245.386719 113.953125 L 245.386719 114.621094 C 245.800781 114.621094 247.050781 114.621094 248.050781 114.121094 L 248.050781 123.578125 C 248.050781 124.203125 248.050781 124.453125 246.21875 124.453125 L 245.511719 124.453125 L 245.511719 125.121094 C 245.84375 125.121094 248.136719 125.035156 248.800781 125.035156 C 249.386719 125.035156 251.71875 125.121094 252.136719 125.121094 L 252.136719 124.453125 L 251.425781 124.453125 C 249.550781 124.453125 249.550781 124.203125 249.550781 123.578125 Z M 249.550781 113.285156 "/>
<path fill="none" stroke-width="0.39848" stroke-linecap="butt" stroke-linejoin="miter" stroke="rgb(0%, 0%, 0%)" stroke-opacity="1" stroke-miterlimit="10" d="M 3.638424 15.978762 L 26.750729 15.978762 " transform="matrix(2.666667, 0, 0, -2.666667, 133.528005, 67.528)"/>
<path fill="none" stroke-width="0.39848" stroke-linecap="round" stroke-linejoin="round" stroke="rgb(0%, 0%, 0%)" stroke-opacity="1" stroke-miterlimit="10" d="M -2.072235 2.391177 C -1.692841 0.95856 -0.849091 0.278872 -0.00241089 0.000552177 C -0.849091 -0.280698 -1.692841 -0.955991 -2.072235 -2.390073 " transform="matrix(2.666667, 0, 0, -2.666667, 205.40096, 24.919441)"/>
<path fill-rule="nonzero" fill="rgb(0%, 0%, 0%)" fill-opacity="1" d="M 164.546875 16.632812 C 163.339844 16.632812 163.171875 16.632812 163.171875 15.84375 L 163.171875 12.84375 C 163.257812 12.925781 164.132812 13.882812 165.671875 13.882812 C 168.132812 13.882812 170.214844 12.050781 170.214844 9.71875 C 170.214844 7.425781 168.339844 5.507812 165.964844 5.507812 C 164.921875 5.507812 163.839844 5.925781 163.089844 6.675781 L 163.089844 5.507812 L 160.296875 5.71875 L 160.296875 6.382812 C 161.589844 6.382812 161.671875 6.507812 161.671875 7.257812 L 161.671875 15.84375 C 161.671875 16.632812 161.507812 16.632812 160.296875 16.632812 L 160.296875 17.34375 C 160.339844 17.34375 161.632812 17.257812 162.421875 17.257812 C 163.089844 17.257812 164.382812 17.300781 164.546875 17.34375 Z M 163.171875 7.507812 C 163.714844 6.59375 164.796875 6.132812 165.757812 6.132812 C 167.339844 6.132812 168.546875 7.757812 168.546875 9.71875 C 168.546875 11.84375 167.132812 13.382812 165.589844 13.382812 C 163.921875 13.382812 163.214844 11.96875 163.171875 11.84375 Z M 163.171875 7.507812 "/>
<path fill-rule="nonzero" fill="rgb(0%, 0%, 0%)" fill-opacity="1" d="M 174.804688 9.46875 C 174.804688 7.925781 175.515625 6.050781 177.304688 6.050781 C 177.140625 6.175781 176.972656 6.425781 176.972656 6.71875 C 176.972656 7.34375 177.472656 7.550781 177.804688 7.550781 C 178.265625 7.550781 178.679688 7.257812 178.679688 6.71875 C 178.679688 6.09375 178.054688 5.507812 177.179688 5.507812 C 176.265625 5.507812 175.222656 6.09375 174.679688 7.507812 L 174.679688 5.507812 L 172.015625 5.71875 L 172.015625 6.382812 C 173.265625 6.382812 173.390625 6.507812 173.390625 7.425781 L 173.390625 12.257812 C 173.390625 13.050781 173.222656 13.050781 172.015625 13.050781 L 172.015625 13.71875 C 172.097656 13.71875 173.347656 13.632812 174.140625 13.632812 C 174.929688 13.632812 175.722656 13.675781 176.554688 13.71875 L 176.554688 13.050781 L 176.179688 13.050781 C 174.804688 13.050781 174.804688 12.84375 174.804688 12.21875 Z M 174.804688 9.46875 "/>
<path fill-rule="nonzero" fill="rgb(0%, 0%, 0%)" fill-opacity="1" d="M 184.707031 10.203125 C 184.707031 9.828125 184.664062 9.828125 184.207031 9.828125 C 183.289062 10.660156 181.789062 10.660156 181.539062 10.660156 L 181.332031 10.660156 L 181.332031 11.246094 L 181.539062 11.246094 C 181.832031 11.246094 182.707031 11.203125 183.5 10.871094 L 183.5 17.535156 C 183.5 17.910156 183.5 18.078125 182.082031 18.078125 L 181.414062 18.078125 L 181.414062 18.660156 C 182.125 18.621094 183.332031 18.621094 184.082031 18.621094 C 184.875 18.621094 186.039062 18.621094 186.789062 18.660156 L 186.789062 18.078125 L 186.125 18.078125 C 184.707031 18.078125 184.707031 17.910156 184.707031 17.535156 Z M 184.707031 10.203125 "/>
<path fill="none" stroke-width="0.39848" stroke-linecap="butt" stroke-linejoin="miter" stroke="rgb(0%, 0%, 0%)" stroke-opacity="1" stroke-miterlimit="10" d="M -23.314701 8.143312 L -23.314701 -8.993895 " transform="matrix(2.666667, 0, 0, -2.666667, 133.528005, 67.528)"/>
<path fill="none" stroke-width="0.39848" stroke-linecap="round" stroke-linejoin="round" stroke="rgb(0%, 0%, 0%)" stroke-opacity="1" stroke-miterlimit="10" d="M -2.072357 2.392515 C -1.694427 0.954039 -0.850677 0.278746 0.00186157 0.00189018 C -0.850677 -0.27936 -1.694427 -0.956118 -2.072357 -2.388735 " transform="matrix(0, 2.666667, 2.666667, 0, 71.350428, 92.038005)"/>
<path fill-rule="nonzero" fill="rgb(0%, 0%, 0%)" fill-opacity="1" d="M 48.125 61.601562 C 48 61.265625 47.960938 61.183594 47.75 61.183594 C 47.542969 61.183594 47.460938 61.351562 47.335938 61.558594 L 43.125 72.683594 C 42.875 73.265625 42.5 73.558594 42 73.601562 C 41.917969 73.601562 41.625 73.640625 41.625 73.933594 C 41.625 74.265625 41.917969 74.265625 42.25 74.265625 L 45.210938 74.265625 C 45.542969 74.265625 45.835938 74.265625 45.835938 73.933594 C 45.835938 73.640625 45.585938 73.640625 45.417969 73.601562 C 45.167969 73.601562 44.710938 73.515625 44.710938 72.390625 C 44.710938 71.808594 44.835938 71.183594 44.960938 70.601562 L 49.042969 70.601562 C 49.710938 72.433594 49.710938 72.726562 49.75 73.101562 C 49.292969 73.558594 48.792969 73.601562 48.585938 73.601562 C 48.375 73.640625 48.25 73.765625 48.25 73.933594 C 48.25 74.265625 48.542969 74.265625 48.875 74.265625 L 53.710938 74.265625 C 54.042969 74.265625 54.375 74.265625 54.375 73.933594 C 54.375 73.683594 54.125 73.640625 53.960938 73.601562 C 53.542969 73.558594 53.210938 73.226562 52.835938 72.390625 Z M 45.167969 69.976562 C 45.585938 68.308594 46.167969 66.726562 46.792969 65.183594 C 47.375 66.433594 48.5 69.101562 48.792969 69.976562 Z M 44.042969 72.015625 L 44.085938 72.058594 L 44.085938 72.226562 C 44.042969 72.265625 44.042969 72.308594 44.042969 72.390625 C 44.042969 72.476562 44.042969 73.183594 44.335938 73.601562 L 43.335938 73.601562 C 43.542969 73.351562 43.625 73.140625 43.75 72.851562 Z M 47.085938 64.183594 L 47.75 62.390625 L 52.25 72.640625 C 52.335938 72.851562 52.542969 73.265625 52.792969 73.601562 L 50.167969 73.601562 C 50.335938 73.515625 50.417969 73.226562 50.417969 73.015625 C 50.417969 71.890625 48.792969 68.101562 48 66.265625 Z M 47.085938 64.183594 "/>
<path fill-rule="nonzero" fill="rgb(0%, 0%, 0%)" fill-opacity="1" d="M 62.722656 72.671875 C 62.722656 71.714844 62.722656 68.089844 59.222656 68.089844 C 55.765625 68.089844 55.765625 71.714844 55.765625 72.671875 C 55.765625 73.632812 55.765625 77.214844 59.222656 77.214844 C 62.722656 77.214844 62.722656 73.632812 62.722656 72.671875 Z M 59.222656 76.757812 C 58.765625 76.757812 57.640625 76.589844 57.304688 75.257812 C 57.097656 74.546875 57.097656 73.589844 57.097656 72.507812 C 57.097656 71.507812 57.097656 70.589844 57.304688 69.839844 C 57.640625 68.714844 58.679688 68.507812 59.222656 68.507812 C 60.222656 68.507812 60.929688 69.007812 61.179688 69.964844 C 61.390625 70.632812 61.390625 71.714844 61.390625 72.507812 C 61.390625 73.421875 61.390625 74.507812 61.179688 75.296875 C 60.847656 76.589844 59.765625 76.757812 59.222656 76.757812 Z M 59.222656 76.757812 "/>
<path fill="none" stroke-width="0.39848" stroke-linecap="butt" stroke-linejoin="miter" stroke="rgb(0%, 0%, 0%)" stroke-opacity="1" stroke-miterlimit="10" d="M 38.712643 8.143312 L 38.712643 -8.993895 " transform="matrix(2.666667, 0, 0, -2.666667, 133.528005, 67.528)"/>
<path fill="none" stroke-width="0.39848" stroke-linecap="round" stroke-linejoin="round" stroke="rgb(0%, 0%, 0%)" stroke-opacity="1" stroke-miterlimit="10" d="M -2.072357 2.391129 C -1.694427 0.957047 -0.850677 0.277359 0.00186157 0.00050354 C -0.850677 -0.277817 -1.694427 -0.957504 -2.072357 -2.390121 " transform="matrix(0, 2.666667, 2.666667, 0, 236.760376, 92.038005)"/>
<path fill-rule="nonzero" fill="rgb(0%, 0%, 0%)" fill-opacity="1" d="M 249.015625 65.527344 C 250.558594 64.859375 251.222656 64.609375 251.683594 64.359375 C 252.058594 64.234375 252.222656 64.152344 252.222656 63.777344 C 252.222656 63.484375 251.972656 63.195312 251.640625 63.195312 C 251.515625 63.195312 251.472656 63.195312 251.265625 63.359375 L 248.722656 65.070312 L 249.015625 62.320312 C 249.058594 61.984375 249.015625 61.527344 248.433594 61.527344 C 248.222656 61.527344 247.847656 61.652344 247.847656 62.070312 C 247.847656 62.234375 247.933594 62.777344 247.972656 62.984375 C 248.015625 63.277344 248.140625 64.652344 248.183594 65.070312 L 245.640625 63.359375 C 245.472656 63.277344 245.433594 63.195312 245.265625 63.195312 C 244.890625 63.195312 244.683594 63.484375 244.683594 63.777344 C 244.683594 64.152344 244.890625 64.277344 245.058594 64.320312 L 247.847656 65.527344 C 246.347656 66.195312 245.640625 66.445312 245.183594 66.652344 C 244.847656 66.820312 244.683594 66.902344 244.683594 67.234375 C 244.683594 67.570312 244.890625 67.820312 245.265625 67.820312 C 245.390625 67.820312 245.433594 67.820312 245.640625 67.652344 L 248.183594 65.984375 L 247.847656 68.945312 C 247.847656 69.359375 248.222656 69.527344 248.433594 69.527344 C 248.683594 69.527344 249.015625 69.359375 249.015625 68.945312 C 249.015625 68.777344 248.933594 68.234375 248.933594 68.070312 C 248.890625 67.734375 248.765625 66.402344 248.722656 65.984375 L 250.933594 67.445312 C 251.433594 67.820312 251.472656 67.820312 251.640625 67.820312 C 251.972656 67.820312 252.222656 67.570312 252.222656 67.234375 C 252.222656 66.859375 251.972656 66.777344 251.808594 66.695312 Z M 249.015625 65.527344 "/>
<path fill-rule="nonzero" fill="rgb(0%, 0%, 0%)" fill-opacity="1" d="M 260.109375 70.105469 L 257.566406 64.0625 C 257.441406 63.769531 257.441406 63.769531 257.066406 63.769531 L 254.609375 63.769531 C 254.359375 63.769531 254.152344 63.769531 254.152344 64.019531 C 254.152344 64.269531 254.402344 64.269531 254.484375 64.269531 C 254.652344 64.269531 254.984375 64.269531 255.277344 64.394531 L 255.277344 71.480469 C 255.277344 71.769531 255.277344 72.355469 254.359375 72.4375 C 254.109375 72.4375 254.109375 72.644531 254.109375 72.644531 C 254.109375 72.894531 254.359375 72.894531 254.566406 72.894531 L 256.652344 72.894531 C 256.859375 72.894531 257.066406 72.894531 257.066406 72.644531 C 257.066406 72.519531 256.984375 72.4375 256.859375 72.4375 C 255.859375 72.355469 255.859375 71.8125 255.859375 71.480469 L 255.859375 64.855469 L 259.109375 72.605469 C 259.191406 72.855469 259.316406 72.894531 259.359375 72.894531 C 259.527344 72.894531 259.566406 72.769531 259.652344 72.644531 L 262.902344 64.855469 L 262.902344 71.480469 C 262.902344 71.769531 262.902344 72.355469 262.027344 72.4375 C 261.777344 72.4375 261.777344 72.644531 261.777344 72.644531 C 261.777344 72.894531 261.984375 72.894531 262.191406 72.894531 L 265.777344 72.894531 C 265.984375 72.894531 266.191406 72.894531 266.191406 72.644531 C 266.191406 72.519531 266.109375 72.4375 265.984375 72.4375 C 264.941406 72.355469 264.941406 71.8125 264.941406 71.480469 L 264.941406 65.1875 C 264.941406 64.9375 264.941406 64.355469 265.859375 64.269531 C 265.984375 64.230469 266.109375 64.1875 266.109375 64.019531 C 266.109375 63.769531 265.902344 63.769531 265.691406 63.769531 L 263.109375 63.769531 C 262.777344 63.769531 262.734375 63.769531 262.609375 64.0625 Z M 259.691406 70.355469 C 259.816406 70.5625 259.816406 70.5625 259.984375 70.644531 L 259.402344 72.0625 L 259.359375 72.0625 L 256.316406 64.8125 C 256.277344 64.644531 256.152344 64.394531 255.984375 64.269531 L 257.152344 64.269531 Z M 255.691406 72.4375 L 255.441406 72.4375 C 255.484375 72.394531 255.527344 72.355469 255.527344 72.3125 C 255.566406 72.3125 255.566406 72.3125 255.566406 72.269531 Z M 263.359375 64.269531 L 264.777344 64.269531 C 264.484375 64.605469 264.484375 64.9375 264.484375 65.1875 L 264.484375 71.519531 C 264.484375 71.769531 264.484375 72.105469 264.816406 72.4375 L 263.066406 72.4375 C 263.359375 72.105469 263.359375 71.769531 263.359375 71.519531 Z M 263.359375 64.269531 "/>
<path fill-rule="nonzero" fill="rgb(0%, 0%, 0%)" fill-opacity="1" d="M 271.738281 68.425781 C 271.738281 68.050781 271.695312 68.050781 271.238281 68.050781 C 270.320312 68.882812 268.820312 68.882812 268.570312 68.882812 L 268.363281 68.882812 L 268.363281 69.464844 L 268.570312 69.464844 C 268.863281 69.464844 269.738281 69.425781 270.527344 69.089844 L 270.527344 75.757812 C 270.527344 76.132812 270.527344 76.300781 269.113281 76.300781 L 268.445312 76.300781 L 268.445312 76.882812 C 269.152344 76.839844 270.363281 76.839844 271.113281 76.839844 C 271.902344 76.839844 273.070312 76.839844 273.820312 76.882812 L 273.820312 76.300781 L 273.152344 76.300781 C 271.738281 76.300781 271.738281 76.132812 271.738281 75.757812 Z M 271.738281 68.425781 "/>
<g clip-path="url(#clip-0)">
<path fill="none" stroke-width="2.33075" stroke-linecap="butt" stroke-linejoin="miter" stroke="rgb(0%, 0%, 0%)" stroke-opacity="1" stroke-miterlimit="10" d="M 4.121822 -2.747801 L 12.962154 2.037844 " transform="matrix(2.666667, 0, 0, -2.666667, 133.528005, 67.528)"/>
</g>
<path fill="none" stroke-width="1.53377" stroke-linecap="butt" stroke-linejoin="miter" stroke="rgb(100%, 100%, 100%)" stroke-opacity="1" stroke-miterlimit="10" d="M 4.121822 -2.747801 L 12.962154 2.037844 " transform="matrix(2.666667, 0, 0, -2.666667, 133.528005, 67.528)"/>
<path fill="none" stroke-width="0.39848" stroke-linecap="round" stroke-linejoin="round" stroke="rgb(0%, 0%, 0%)" stroke-opacity="1" stroke-miterlimit="10" d="M -1.297137 2.56038 C -0.666265 1.205862 1.026399 0.0493359 1.991664 0.00140078 C 1.022599 -0.0468952 -0.666445 -1.206293 -1.292744 -2.559707 " transform="matrix(2.3448, -1.269787, -1.269787, -2.3448, 168.093445, 62.094772)"/>
<path fill-rule="nonzero" fill="rgb(0%, 0%, 0%)" fill-opacity="1" d="M 170.964844 73.925781 C 170.964844 73.882812 171.007812 73.632812 171.007812 73.632812 C 171.007812 73.507812 170.964844 73.34375 170.714844 73.34375 C 170.339844 73.34375 168.800781 73.507812 168.339844 73.550781 C 168.214844 73.550781 167.925781 73.59375 167.925781 73.96875 C 167.925781 74.21875 168.214844 74.21875 168.425781 74.21875 C 169.300781 74.21875 169.300781 74.382812 169.300781 74.507812 C 169.300781 74.632812 169.257812 74.757812 169.257812 74.925781 L 166.632812 85.425781 C 166.507812 85.757812 166.507812 85.800781 166.507812 85.84375 C 166.507812 86.132812 166.757812 86.425781 167.175781 86.425781 C 167.382812 86.425781 167.714844 86.34375 167.925781 85.96875 C 167.964844 85.84375 168.132812 85.175781 168.214844 84.800781 L 168.675781 83.132812 C 168.714844 82.84375 168.925781 82.132812 168.964844 81.882812 C 169.132812 81.175781 169.132812 81.132812 169.507812 80.550781 C 170.132812 79.632812 171.050781 78.59375 172.507812 78.59375 C 173.550781 78.59375 173.589844 79.425781 173.589844 79.882812 C 173.589844 81.007812 172.800781 83.050781 172.507812 83.84375 C 172.300781 84.382812 172.214844 84.550781 172.214844 84.84375 C 172.214844 85.84375 173.050781 86.425781 173.964844 86.425781 C 175.839844 86.425781 176.675781 83.882812 176.675781 83.59375 C 176.675781 83.34375 176.425781 83.34375 176.339844 83.34375 C 176.089844 83.34375 176.089844 83.46875 176.007812 83.675781 C 175.589844 85.175781 174.757812 85.925781 174.050781 85.925781 C 173.632812 85.925781 173.550781 85.675781 173.550781 85.257812 C 173.550781 84.84375 173.675781 84.59375 174.007812 83.757812 C 174.214844 83.175781 174.964844 81.21875 174.964844 80.175781 C 174.964844 79.882812 174.964844 79.09375 174.300781 78.550781 C 173.964844 78.34375 173.425781 78.050781 172.550781 78.050781 C 171.214844 78.050781 170.214844 78.800781 169.550781 79.59375 Z M 170.964844 73.925781 "/>
<path fill-rule="nonzero" fill="rgb(0%, 0%, 0%)" fill-opacity="1" d="M 182.863281 80.457031 C 182.863281 80.082031 182.820312 80.082031 182.363281 80.082031 C 181.445312 80.914062 179.945312 80.914062 179.695312 80.914062 L 179.488281 80.914062 L 179.488281 81.496094 L 179.695312 81.496094 C 179.988281 81.496094 180.863281 81.457031 181.652344 81.121094 L 181.652344 87.789062 C 181.652344 88.164062 181.652344 88.332031 180.238281 88.332031 L 179.570312 88.332031 L 179.570312 88.914062 C 180.277344 88.871094 181.488281 88.871094 182.238281 88.871094 C 183.027344 88.871094 184.195312 88.871094 184.945312 88.914062 L 184.945312 88.332031 L 184.277344 88.332031 C 182.863281 88.332031 182.863281 88.164062 182.863281 87.789062 Z M 182.863281 80.457031 "/>
<path fill="none" stroke-width="0.39848" stroke-linecap="butt" stroke-linejoin="miter" stroke="rgb(0%, 0%, 0%)" stroke-opacity="1" stroke-miterlimit="10" d="M 1.824947 -17.610106 L 26.879635 -17.610106 " transform="matrix(2.666667, 0, 0, -2.666667, 133.528005, 67.528)"/>
<path fill="none" stroke-width="0.39848" stroke-linecap="round" stroke-linejoin="round" stroke="rgb(0%, 0%, 0%)" stroke-opacity="1" stroke-miterlimit="10" d="M -2.071312 2.392689 C -1.691917 0.954212 -0.848167 0.278919 -0.00148773 0.00206375 C -0.848167 -0.279186 -1.691917 -0.955944 -2.071312 -2.388561 " transform="matrix(2.666667, 0, 0, -2.666667, 205.742249, 114.493785)"/>
<path fill-rule="nonzero" fill="rgb(0%, 0%, 0%)" fill-opacity="1" d="M 211.691406 96.5625 C 211.402344 96.5625 210.941406 96.5625 210.941406 96.980469 C 210.941406 97.480469 211.359375 97.480469 211.691406 97.480469 L 218.191406 97.480469 C 218.816406 97.480469 218.902344 97.355469 218.902344 96.769531 L 218.902344 90.1875 C 218.902344 89.894531 218.902344 89.480469 218.484375 89.480469 C 217.984375 89.480469 217.984375 89.980469 217.984375 90.269531 L 217.984375 96.5625 Z M 211.691406 96.5625 "/>
</svg>
