<?xml version="1.0" encoding="UTF-8"?>
<svg xmlns="http://www.w3.org/2000/svg" xmlns:xlink="http://www.w3.org/1999/xlink" width="201.179993" height="204.399994" viewBox="0 0 201.179993 204.399994">
<defs>
<clipPath id="clip-0">
<path clip-rule="nonzero" d="M 13 17 L 201.179688 17 L 201.179688 204.398438 L 13 204.398438 Z M 13 17 "/>
</clipPath>
<clipPath id="clip-1">
<path clip-rule="nonzero" d="M 19 22 L 201.179688 22 L 201.179688 204.398438 L 19 204.398438 Z M 19 22 "/>
</clipPath>
</defs>
<g clip-path="url(#clip-0)">
<path fill="none" stroke-width="0.3985" stroke-linecap="butt" stroke-linejoin="miter" stroke="rgb(0%, 0%, 0%)" stroke-opacity="1" stroke-miterlimit="10" d="M -0.000406265 0.0000610352 L 85.038656 0.0000610352 M -0.000406265 28.347717 L 85.038656 28.347717 M -0.000406265 56.695374 L 85.038656 56.695374 M -0.000406265 85.031311 L 85.038656 85.031311 M -0.000406265 0.0000610352 L -0.000406265 85.039124 M 28.34725 0.0000610352 L 28.34725 85.039124 M 56.694906 0.0000610352 L 56.694906 85.039124 M 85.030844 0.0000610352 L 85.030844 85.039124 M -0.000406265 56.695374 L 28.34725 85.039124 M -0.000406265 28.347717 L 56.694906 85.039124 M -0.000406265 0.0000610352 L 85.038656 85.039124 M 28.34725 0.0000610352 L 85.038656 56.695374 M 56.694906 0.0000610352 L 85.038656 28.347717 " transform="matrix(2, 0, 0, -2, 25.118, 198.421997)"/>
</g>
<g clip-path="url(#clip-1)">
<path fill-rule="nonzero" fill="rgb(0%, 0%, 0%)" fill-opacity="1" d="M 31.09375 198.421875 C 31.09375 195.117188 28.421875 192.445312 25.117188 192.445312 C 21.820312 192.445312 19.140625 195.117188 19.140625 198.421875 C 19.140625 201.726562 21.820312 204.398438 25.117188 204.398438 C 28.421875 204.398438 31.09375 201.726562 31.09375 198.421875 Z M 31.09375 141.726562 C 31.09375 138.429688 28.421875 135.75 25.117188 135.75 C 21.820312 135.75 19.140625 138.429688 19.140625 141.726562 C 19.140625 145.03125 21.820312 147.703125 25.117188 147.703125 C 28.421875 147.703125 31.09375 145.03125 31.09375 141.726562 Z M 31.09375 85.03125 C 31.09375 81.734375 28.421875 79.054688 25.117188 79.054688 C 21.820312 79.054688 19.140625 81.734375 19.140625 85.03125 C 19.140625 88.335938 21.820312 91.015625 25.117188 91.015625 C 28.421875 91.015625 31.09375 88.335938 31.09375 85.03125 Z M 31.09375 28.34375 C 31.09375 25.039062 28.421875 22.367188 25.117188 22.367188 C 21.820312 22.367188 19.140625 25.039062 19.140625 28.34375 C 19.140625 31.640625 21.820312 34.320312 25.117188 34.320312 C 28.421875 34.320312 31.09375 31.640625 31.09375 28.34375 Z M 87.789062 198.421875 C 87.789062 195.117188 85.109375 192.445312 81.8125 192.445312 C 78.507812 192.445312 75.835938 195.117188 75.835938 198.421875 C 75.835938 201.726562 78.507812 204.398438 81.8125 204.398438 C 85.109375 204.398438 87.789062 201.726562 87.789062 198.421875 Z M 87.789062 141.726562 C 87.789062 138.429688 85.109375 135.75 81.8125 135.75 C 78.507812 135.75 75.835938 138.429688 75.835938 141.726562 C 75.835938 145.03125 78.507812 147.703125 81.8125 147.703125 C 85.109375 147.703125 87.789062 145.03125 87.789062 141.726562 Z M 87.789062 85.03125 C 87.789062 81.734375 85.109375 79.054688 81.8125 79.054688 C 78.507812 79.054688 75.835938 81.734375 75.835938 85.03125 C 75.835938 88.335938 78.507812 91.015625 81.8125 91.015625 C 85.109375 91.015625 87.789062 88.335938 87.789062 85.03125 Z M 87.789062 28.34375 C 87.789062 25.039062 85.109375 22.367188 81.8125 22.367188 C 78.507812 22.367188 75.835938 25.039062 75.835938 28.34375 C 75.835938 31.640625 78.507812 34.320312 81.8125 34.320312 C 85.109375 34.320312 87.789062 31.640625 87.789062 28.34375 Z M 144.484375 198.421875 C 144.484375 195.117188 141.804688 192.445312 138.507812 192.445312 C 135.203125 192.445312 132.53125 195.117188 132.53125 198.421875 C 132.53125 201.726562 135.203125 204.398438 138.507812 204.398438 C 141.804688 204.398438 144.484375 201.726562 144.484375 198.421875 Z M 144.484375 141.726562 C 144.484375 138.429688 141.804688 135.75 138.507812 135.75 C 135.203125 135.75 132.53125 138.429688 132.53125 141.726562 C 132.53125 145.03125 135.203125 147.703125 138.507812 147.703125 C 141.804688 147.703125 144.484375 145.03125 144.484375 141.726562 Z M 144.484375 85.03125 C 144.484375 81.734375 141.804688 79.054688 138.507812 79.054688 C 135.203125 79.054688 132.53125 81.734375 132.53125 85.03125 C 132.53125 88.335938 135.203125 91.015625 138.507812 91.015625 C 141.804688 91.015625 144.484375 88.335938 144.484375 85.03125 Z M 144.484375 28.34375 C 144.484375 25.039062 141.804688 22.367188 138.507812 22.367188 C 135.203125 22.367188 132.53125 25.039062 132.53125 28.34375 C 132.53125 31.640625 135.203125 34.320312 138.507812 34.320312 C 141.804688 34.320312 144.484375 31.640625 144.484375 28.34375 Z M 201.179688 198.421875 C 201.179688 195.117188 198.5 192.445312 195.195312 192.445312 C 191.898438 192.445312 189.21875 195.117188 189.21875 198.421875 C 189.21875 201.726562 191.898438 204.398438 195.195312 204.398438 C 198.5 204.398438 201.179688 201.726562 201.179688 198.421875 Z M 201.179688 141.726562 C 201.179688 138.429688 198.5 135.75 195.195312 135.75 C 191.898438 135.75 189.21875 138.429688 189.21875 141.726562 C 189.21875 145.03125 191.898438 147.703125 195.195312 147.703125 C 198.5 147.703125 201.179688 145.03125 201.179688 141.726562 Z M 201.179688 85.03125 C 201.179688 81.734375 198.5 79.054688 195.195312 79.054688 C 191.898438 79.054688 189.21875 81.734375 189.21875 85.03125 C 189.21875 88.335938 191.898438 91.015625 195.195312 91.015625 C 198.5 91.015625 201.179688 88.335938 201.179688 85.03125 Z M 201.179688 28.34375 C 201.179688 25.039062 198.5 22.367188 195.195312 22.367188 C 191.898438 22.367188 189.21875 25.039062 189.21875 28.34375 C 189.21875 31.640625 191.898438 34.320312 195.195312 34.320312 C 198.5 34.320312 201.179688 31.640625 201.179688 28.34375 Z M 201.179688 28.34375 "/>
</g>
<path fill-rule="nonzero" fill="rgb(0%, 0%, 0%)" fill-opacity="1" d="M 70.445312 12.839844 C 71.382812 12.839844 71.164062 14.589844 71.039062 15.339844 C 70.945312 15.777344 70.757812 16.214844 70.632812 16.652344 C 70.132812 18.246094 68.664062 20.839844 67.601562 20.839844 C 66.789062 20.839844 66.570312 19.589844 66.570312 18.902344 C 66.570312 18.308594 66.570312 17.746094 66.820312 17.089844 C 67.320312 15.746094 68.726562 12.839844 70.445312 12.839844 Z M 70.257812 12.464844 C 69.664062 12.464844 69.101562 12.652344 68.507812 13.089844 C 67.914062 13.464844 67.351562 13.964844 66.851562 14.621094 C 65.976562 15.621094 65.164062 17.246094 65.164062 18.964844 C 65.164062 20.308594 65.664062 21.308594 66.914062 21.308594 C 68.664062 21.308594 69.320312 20.121094 69.820312 19.246094 L 69.882812 19.246094 C 69.601562 20.464844 69.757812 21.308594 70.601562 21.308594 C 71.101562 21.308594 71.601562 21.089844 72.132812 20.683594 C 72.632812 20.246094 73.132812 19.589844 73.570312 18.808594 L 73.351562 18.652344 C 72.976562 19.183594 72.101562 20.464844 71.539062 20.464844 C 71.257812 20.464844 71.164062 19.996094 71.164062 19.683594 C 71.164062 18.496094 71.976562 16.433594 72.414062 15.089844 L 73.351562 12.621094 L 72.039062 12.621094 L 71.695312 13.527344 C 71.445312 12.871094 71.039062 12.464844 70.257812 12.464844 Z M 70.257812 12.464844 "/>
<path fill-rule="nonzero" fill="rgb(0%, 0%, 0%)" fill-opacity="1" d="M 124.664062 21.308594 C 126.882812 21.308594 128.476562 19.339844 129.289062 17.808594 C 129.726562 16.996094 130.132812 15.933594 130.132812 14.777344 C 130.132812 13.402344 129.445312 12.464844 128.101562 12.464844 C 126.851562 12.464844 125.914062 13.183594 125.445312 14.027344 L 125.382812 13.996094 L 127.445312 6.527344 L 124.664062 6.652344 L 124.601562 6.902344 C 125.414062 6.902344 125.757812 7.308594 125.757812 7.683594 C 125.757812 7.964844 125.601562 8.464844 125.539062 8.714844 L 123.382812 16.308594 C 123.164062 17.027344 122.976562 17.621094 122.882812 18.121094 C 122.789062 18.652344 122.695312 19.058594 122.695312 19.308594 C 122.695312 20.496094 123.476562 21.308594 124.664062 21.308594 Z M 127.632812 12.933594 C 129.289062 12.933594 128.851562 15.464844 128.132812 17.214844 C 127.695312 18.339844 126.414062 20.902344 124.914062 20.902344 C 124.289062 20.902344 124.007812 20.464844 124.007812 19.589844 C 124.007812 18.589844 124.351562 17.152344 124.664062 16.402344 C 125.039062 15.621094 125.664062 14.308594 126.195312 13.714844 C 126.539062 13.308594 127.039062 12.933594 127.632812 12.933594 Z M 127.632812 12.933594 "/>
<path fill-rule="nonzero" fill="rgb(0%, 0%, 0%)" fill-opacity="1" d="M 7.601562 77.601562 C 7.164062 77.601562 7.070312 77.351562 7.007812 76.976562 C 6.882812 76.632812 6.757812 76.257812 6.289062 76.257812 C 5.976562 76.257812 5.789062 76.539062 5.789062 76.851562 C 5.789062 77.664062 6.820312 78.039062 7.507812 78.039062 C 8.632812 78.039062 8.726562 77.726562 9.257812 77.007812 C 9.570312 76.570312 9.789062 76.039062 10.039062 75.351562 C 10.320312 74.664062 10.726562 73.757812 10.976562 72.664062 L 12.789062 65.789062 L 14.445312 65.789062 L 14.601562 65.320312 L 12.914062 65.320312 C 13.351562 63.757812 13.976562 61.101562 14.445312 60.289062 C 14.601562 60.007812 14.945312 59.601562 15.445312 59.601562 C 15.851562 59.601562 16.007812 59.882812 16.101562 60.226562 C 16.195312 60.601562 16.320312 60.945312 16.789062 60.945312 C 17.101562 60.945312 17.289062 60.664062 17.289062 60.382812 C 17.289062 59.570312 16.257812 59.164062 15.601562 59.164062 C 13.101562 59.226562 12.132812 63.226562 11.570312 65.320312 L 9.945312 65.320312 L 9.820312 65.789062 L 11.476562 65.789062 L 8.851562 75.664062 C 8.726562 76.132812 8.320312 77.601562 7.601562 77.601562 Z M 7.601562 77.601562 "/>
<path fill-rule="nonzero" fill="rgb(0%, 0%, 0%)" fill-opacity="1" d="M 68.089844 74.972656 C 68.089844 72.847656 68.902344 71.378906 69.839844 70.128906 C 70.027344 69.878906 70.496094 69.503906 70.496094 69.378906 C 70.496094 69.191406 70.433594 69.160156 70.277344 69.160156 C 70.183594 69.160156 70.058594 69.253906 69.964844 69.285156 C 69.902344 69.347656 69.777344 69.472656 69.527344 69.691406 C 69.371094 69.847656 69.183594 69.941406 68.964844 69.941406 C 68.589844 69.941406 68.371094 69.847656 68.152344 69.628906 C 67.902344 69.316406 67.652344 69.160156 67.183594 69.160156 C 66.339844 69.160156 65.464844 69.910156 65.464844 70.660156 C 65.464844 71.222656 65.839844 71.347656 66.214844 71.347656 C 66.589844 71.347656 66.777344 71.160156 66.777344 70.722656 C 66.777344 70.441406 66.464844 70.410156 66.464844 70.222656 C 66.464844 70.097656 66.527344 69.941406 66.777344 69.941406 C 67.339844 69.941406 67.589844 70.535156 67.808594 70.597656 C 68.121094 70.691406 68.214844 70.660156 68.621094 70.566406 L 68.871094 70.472656 C 68.277344 71.378906 67.433594 72.753906 67.089844 73.566406 C 66.746094 74.410156 66.589844 75.128906 66.589844 75.722656 C 66.589844 76.066406 66.652344 76.378906 66.714844 76.628906 C 66.996094 77.378906 67.527344 78.003906 68.558594 78.003906 C 71.121094 78.003906 72.152344 75.660156 72.933594 74.128906 C 73.371094 73.160156 73.714844 71.972656 73.714844 70.660156 C 73.714844 69.785156 73.589844 69.160156 72.777344 69.160156 C 72.214844 69.160156 71.933594 69.472656 71.933594 70.066406 C 71.933594 70.816406 72.308594 71.285156 72.308594 72.097656 C 72.308594 73.941406 71.152344 77.472656 69.152344 77.503906 C 68.121094 77.535156 68.089844 75.878906 68.089844 74.972656 Z M 68.089844 74.972656 "/>
<path fill-rule="nonzero" fill="rgb(0%, 0%, 0%)" fill-opacity="1" d="M 125.324219 75.410156 C 125.324219 74.753906 125.417969 74.097656 125.574219 73.472656 C 125.980469 72.160156 127.042969 69.597656 128.574219 69.597656 C 129.042969 69.597656 129.042969 69.816406 129.042969 69.941406 C 129.042969 70.160156 128.917969 70.285156 128.917969 70.535156 C 128.917969 71.003906 129.167969 71.316406 129.667969 71.316406 C 130.199219 71.316406 130.480469 71.003906 130.480469 70.441406 C 130.480469 69.566406 129.667969 69.160156 128.730469 69.160156 C 126.855469 69.160156 125.355469 71.097656 124.574219 72.503906 C 124.136719 73.285156 123.824219 74.253906 123.824219 75.378906 C 123.824219 76.878906 124.636719 78.003906 126.105469 78.003906 C 127.824219 78.003906 128.949219 76.597656 129.605469 75.253906 L 129.261719 75.097656 C 128.605469 76.378906 127.605469 77.566406 126.480469 77.566406 C 125.667969 77.566406 125.324219 76.253906 125.324219 75.410156 Z M 125.324219 75.410156 "/>
<path fill-rule="nonzero" fill="rgb(0%, 0%, 0%)" fill-opacity="1" d="M 15.539062 125.851562 C 14.007812 125.851562 12.820312 126.945312 12.070312 127.851562 C 11.226562 128.851562 10.570312 130.351562 10.570312 132.070312 C 10.570312 133.695312 11.132812 134.695312 12.695312 134.695312 C 14.070312 134.695312 15.351562 133.695312 16.132812 132.414062 L 15.820312 132.195312 C 15.289062 132.976562 14.195312 134.257812 13.101562 134.257812 C 12.289062 134.257812 11.945312 133.570312 11.945312 132.414062 C 11.945312 132.101562 12.007812 131.476562 12.039062 131.164062 C 14.007812 130.757812 17.289062 129.476562 17.289062 127.226562 C 17.289062 126.320312 16.476562 125.851562 15.539062 125.851562 Z M 15.351562 126.289062 C 15.726562 126.289062 16.070312 126.632812 16.070312 127.070312 C 16.070312 128.851562 13.820312 130.164062 12.132812 130.695312 C 12.507812 129.320312 13.726562 126.289062 15.351562 126.289062 Z M 15.351562 126.289062 "/>
<path fill-rule="nonzero" fill="rgb(0%, 0%, 0%)" fill-opacity="1" d="M 70.691406 134.695312 C 71.253906 134.695312 71.722656 134.445312 72.160156 133.945312 C 72.597656 133.445312 72.972656 132.695312 73.347656 131.601562 L 72.910156 131.476562 C 72.660156 132.195312 71.972656 134.007812 71.253906 134.007812 C 70.847656 134.007812 70.753906 133.351562 70.753906 132.976562 C 70.753906 132.789062 70.753906 132.570312 70.785156 132.320312 C 70.910156 131.476562 71.097656 130.757812 71.316406 129.820312 C 71.472656 129.226562 71.660156 128.507812 71.910156 127.695312 L 73.972656 119.882812 L 70.972656 119.882812 L 70.878906 120.164062 C 71.472656 120.195312 71.660156 120.257812 71.847656 120.351562 C 72.066406 120.507812 72.253906 120.789062 72.253906 120.945312 C 72.253906 121.320312 72.128906 121.695312 72.003906 122.101562 L 70.785156 126.695312 C 70.441406 126.132812 70.222656 125.851562 69.410156 125.851562 C 68.066406 125.851562 66.816406 127.070312 66.066406 127.976562 C 65.722656 128.382812 65.441406 128.851562 65.191406 129.289062 C 64.753906 130.101562 64.378906 131.101562 64.378906 132.195312 C 64.378906 132.976562 64.597656 133.539062 64.941406 133.976562 C 65.253906 134.382812 65.691406 134.695312 66.316406 134.695312 C 68.191406 134.664062 68.878906 133.539062 69.503906 132.476562 L 69.566406 132.539062 C 69.535156 132.632812 69.535156 132.789062 69.503906 132.914062 C 69.503906 133.039062 69.472656 133.164062 69.472656 133.257812 C 69.472656 134.101562 69.847656 134.695312 70.691406 134.695312 Z M 70.441406 127.351562 C 70.441406 128.226562 70.160156 129.476562 69.941406 130.195312 C 69.691406 131.007812 69.035156 132.539062 68.503906 133.195312 C 68.160156 133.632812 67.535156 134.257812 66.878906 134.257812 C 66.191406 134.257812 65.816406 133.695312 65.816406 132.976562 C 65.816406 132.132812 66.003906 130.601562 66.316406 129.882812 C 66.816406 128.726562 67.972656 126.257812 69.535156 126.257812 C 70.097656 126.257812 70.441406 126.757812 70.441406 127.351562 Z M 70.441406 127.351562 "/>
</svg>
