<?xml version="1.0" encoding="UTF-8"?>
<svg xmlns="http://www.w3.org/2000/svg" xmlns:xlink="http://www.w3.org/1999/xlink" width="201.179993" height="204.399994" viewBox="0 0 201.179993 204.399994">
<defs>
<clipPath id="clip-0">
<path clip-rule="nonzero" d="M 53 63 L 201.179688 63 L 201.179688 204.398438 L 53 204.398438 Z M 53 63 "/>
</clipPath>
<clipPath id="clip-1">
<path clip-rule="nonzero" d="M 76 86 L 201.179688 86 L 201.179688 204.398438 L 76 204.398438 Z M 76 86 "/>
</clipPath>
<clipPath id="clip-2">
<path clip-rule="nonzero" d="M 58 68 L 201.179688 68 L 201.179688 204.398438 L 58 204.398438 Z M 58 68 "/>
</clipPath>
</defs>
<g clip-path="url(#clip-0)">
<path fill="none" stroke-width="0.3985" stroke-linecap="butt" stroke-linejoin="miter" stroke="rgb(0%, 0%, 0%)" stroke-opacity="1" stroke-miterlimit="10" d="M -0.00062561 -0.00190735 L 85.042343 -0.00190735 M -0.00062561 28.345749 L 85.042343 28.345749 M -0.00062561 56.693405 L 85.042343 56.693405 M -0.00062561 85.029343 L 85.042343 85.029343 M -0.00062561 -0.00190735 L -0.00062561 85.041061 M 28.347031 -0.00190735 L 28.347031 85.041061 M 56.694687 -0.00190735 L 56.694687 85.041061 M 85.030624 -0.00190735 L 85.030624 85.041061 M -0.00062561 28.345749 L 56.694687 85.041061 M -0.00062561 -0.00190735 L 85.042343 85.041061 M 28.347031 -0.00190735 L 85.042343 56.693405 M 56.694687 -0.00190735 L 85.042343 28.345749 " transform="matrix(2, 0, 0, -2, 64.720001, 244.503998)"/>
</g>
<path fill="none" stroke-width="1.59404" stroke-linecap="butt" stroke-linejoin="miter" stroke="rgb(0%, 0%, 0%)" stroke-opacity="1" stroke-miterlimit="10" d="M -0.00062561 56.693405 L 28.347031 85.041061 " transform="matrix(2, 0, 0, -2, 64.720001, 244.503998)"/>
<path fill="none" stroke-width="1.59404" stroke-linecap="butt" stroke-linejoin="miter" stroke="rgb(0%, 0%, 0%)" stroke-opacity="1" stroke-miterlimit="10" d="M -0.00062561 28.345749 L -0.00062561 56.693405 " transform="matrix(2, 0, 0, -2, 64.720001, 244.503998)"/>
<path fill="none" stroke-width="1.59404" stroke-linecap="butt" stroke-linejoin="miter" stroke="rgb(0%, 0%, 0%)" stroke-opacity="1" stroke-miterlimit="10" d="M -0.00062561 28.345749 L 28.347031 28.345749 " transform="matrix(2, 0, 0, -2, 64.720001, 244.503998)"/>
<g clip-path="url(#clip-1)">
<path fill="none" stroke-width="1.59404" stroke-linecap="butt" stroke-linejoin="miter" stroke="rgb(0%, 0%, 0%)" stroke-opacity="1" stroke-miterlimit="10" d="M 28.347031 28.345749 L 56.694687 56.693405 " transform="matrix(2, 0, 0, -2, 64.720001, 244.503998)"/>
</g>
<path fill="none" stroke-width="1.59404" stroke-linecap="butt" stroke-linejoin="miter" stroke="rgb(0%, 0%, 0%)" stroke-opacity="1" stroke-miterlimit="10" d="M 56.694687 56.693405 L 56.694687 85.041061 " transform="matrix(2, 0, 0, -2, 64.720001, 244.503998)"/>
<path fill="none" stroke-width="1.59404" stroke-linecap="butt" stroke-linejoin="miter" stroke="rgb(0%, 0%, 0%)" stroke-opacity="1" stroke-miterlimit="10" d="M 28.347031 85.041061 L 56.694687 85.041061 " transform="matrix(2, 0, 0, -2, 64.720001, 244.503998)"/>
<g clip-path="url(#clip-2)">
<path fill-rule="nonzero" fill="rgb(0%, 0%, 0%)" fill-opacity="1" d="M 70.695312 244.507812 C 70.695312 241.203125 68.023438 238.523438 64.71875 238.523438 C 61.421875 238.523438 58.742188 241.203125 58.742188 244.507812 C 58.742188 247.804688 61.421875 250.484375 64.71875 250.484375 C 68.023438 250.484375 70.695312 247.804688 70.695312 244.507812 Z M 70.695312 187.8125 C 70.695312 184.507812 68.023438 181.835938 64.71875 181.835938 C 61.421875 181.835938 58.742188 184.507812 58.742188 187.8125 C 58.742188 191.109375 61.421875 193.789062 64.71875 193.789062 C 68.023438 193.789062 70.695312 191.109375 70.695312 187.8125 Z M 70.695312 131.117188 C 70.695312 127.8125 68.023438 125.140625 64.71875 125.140625 C 61.421875 125.140625 58.742188 127.8125 58.742188 131.117188 C 58.742188 134.421875 61.421875 137.09375 64.71875 137.09375 C 68.023438 137.09375 70.695312 134.421875 70.695312 131.117188 Z M 70.695312 74.421875 C 70.695312 71.125 68.023438 68.445312 64.71875 68.445312 C 61.421875 68.445312 58.742188 71.125 58.742188 74.421875 C 58.742188 77.726562 61.421875 80.398438 64.71875 80.398438 C 68.023438 80.398438 70.695312 77.726562 70.695312 74.421875 Z M 127.390625 244.507812 C 127.390625 241.203125 124.71875 238.523438 121.414062 238.523438 C 118.109375 238.523438 115.4375 241.203125 115.4375 244.507812 C 115.4375 247.804688 118.109375 250.484375 121.414062 250.484375 C 124.71875 250.484375 127.390625 247.804688 127.390625 244.507812 Z M 127.390625 187.8125 C 127.390625 184.507812 124.71875 181.835938 121.414062 181.835938 C 118.109375 181.835938 115.4375 184.507812 115.4375 187.8125 C 115.4375 191.109375 118.109375 193.789062 121.414062 193.789062 C 124.71875 193.789062 127.390625 191.109375 127.390625 187.8125 Z M 127.390625 131.117188 C 127.390625 127.8125 124.71875 125.140625 121.414062 125.140625 C 118.109375 125.140625 115.4375 127.8125 115.4375 131.117188 C 115.4375 134.421875 118.109375 137.09375 121.414062 137.09375 C 124.71875 137.09375 127.390625 134.421875 127.390625 131.117188 Z M 127.390625 74.421875 C 127.390625 71.125 124.71875 68.445312 121.414062 68.445312 C 118.109375 68.445312 115.4375 71.125 115.4375 74.421875 C 115.4375 77.726562 118.109375 80.398438 121.414062 80.398438 C 124.71875 80.398438 127.390625 77.726562 127.390625 74.421875 Z M 184.085938 244.507812 C 184.085938 241.203125 181.40625 238.523438 178.109375 238.523438 C 174.804688 238.523438 172.132812 241.203125 172.132812 244.507812 C 172.132812 247.804688 174.804688 250.484375 178.109375 250.484375 C 181.40625 250.484375 184.085938 247.804688 184.085938 244.507812 Z M 184.085938 187.8125 C 184.085938 184.507812 181.40625 181.835938 178.109375 181.835938 C 174.804688 181.835938 172.132812 184.507812 172.132812 187.8125 C 172.132812 191.109375 174.804688 193.789062 178.109375 193.789062 C 181.40625 193.789062 184.085938 191.109375 184.085938 187.8125 Z M 184.085938 131.117188 C 184.085938 127.8125 181.40625 125.140625 178.109375 125.140625 C 174.804688 125.140625 172.132812 127.8125 172.132812 131.117188 C 172.132812 134.421875 174.804688 137.09375 178.109375 137.09375 C 181.40625 137.09375 184.085938 134.421875 184.085938 131.117188 Z M 184.085938 74.421875 C 184.085938 71.125 181.40625 68.445312 178.109375 68.445312 C 174.804688 68.445312 172.132812 71.125 172.132812 74.421875 C 172.132812 77.726562 174.804688 80.398438 178.109375 80.398438 C 181.40625 80.398438 184.085938 77.726562 184.085938 74.421875 Z M 240.78125 244.507812 C 240.78125 241.203125 238.101562 238.523438 234.804688 238.523438 C 231.5 238.523438 228.820312 241.203125 228.820312 244.507812 C 228.820312 247.804688 231.5 250.484375 234.804688 250.484375 C 238.101562 250.484375 240.78125 247.804688 240.78125 244.507812 Z M 240.78125 187.8125 C 240.78125 184.507812 238.101562 181.835938 234.804688 181.835938 C 231.5 181.835938 228.820312 184.507812 228.820312 187.8125 C 228.820312 191.109375 231.5 193.789062 234.804688 193.789062 C 238.101562 193.789062 240.78125 191.109375 240.78125 187.8125 Z M 240.78125 131.117188 C 240.78125 127.8125 238.101562 125.140625 234.804688 125.140625 C 231.5 125.140625 228.820312 127.8125 228.820312 131.117188 C 228.820312 134.421875 231.5 137.09375 234.804688 137.09375 C 238.101562 137.09375 240.78125 134.421875 240.78125 131.117188 Z M 240.78125 74.421875 C 240.78125 71.125 238.101562 68.445312 234.804688 68.445312 C 231.5 68.445312 228.820312 71.125 228.820312 74.421875 C 228.820312 77.726562 231.5 80.398438 234.804688 80.398438 C 238.101562 80.398438 240.78125 77.726562 240.78125 74.421875 Z M 240.78125 74.421875 "/>
</g>
<path fill-rule="nonzero" fill="rgb(0%, 0%, 0%)" fill-opacity="1" d="M 110.046875 58.921875 C 110.984375 58.921875 110.765625 60.671875 110.640625 61.421875 C 110.546875 61.859375 110.359375 62.296875 110.234375 62.734375 C 109.734375 64.328125 108.265625 66.921875 107.203125 66.921875 C 106.390625 66.921875 106.171875 65.671875 106.171875 64.984375 C 106.171875 64.390625 106.171875 63.828125 106.421875 63.171875 C 106.921875 61.828125 108.328125 58.921875 110.046875 58.921875 Z M 109.859375 58.546875 C 109.265625 58.546875 108.703125 58.734375 108.109375 59.171875 C 107.515625 59.546875 106.953125 60.046875 106.453125 60.703125 C 105.578125 61.703125 104.765625 63.328125 104.765625 65.046875 C 104.765625 66.390625 105.265625 67.390625 106.515625 67.390625 C 108.265625 67.390625 108.921875 66.203125 109.421875 65.328125 L 109.484375 65.328125 C 109.203125 66.546875 109.359375 67.390625 110.203125 67.390625 C 110.703125 67.390625 111.203125 67.171875 111.734375 66.765625 C 112.234375 66.328125 112.734375 65.671875 113.171875 64.890625 L 112.953125 64.734375 C 112.578125 65.265625 111.703125 66.546875 111.140625 66.546875 C 110.859375 66.546875 110.765625 66.078125 110.765625 65.765625 C 110.765625 64.578125 111.578125 62.515625 112.015625 61.171875 L 112.953125 58.703125 L 111.640625 58.703125 L 111.296875 59.609375 C 111.046875 58.953125 110.640625 58.546875 109.859375 58.546875 Z M 109.859375 58.546875 "/>
<path fill-rule="nonzero" fill="rgb(0%, 0%, 0%)" fill-opacity="1" d="M 164.265625 67.390625 C 166.484375 67.390625 168.078125 65.421875 168.890625 63.890625 C 169.328125 63.078125 169.734375 62.015625 169.734375 60.859375 C 169.734375 59.484375 169.046875 58.546875 167.703125 58.546875 C 166.453125 58.546875 165.515625 59.265625 165.046875 60.109375 L 164.984375 60.078125 L 167.046875 52.609375 L 164.265625 52.734375 L 164.203125 52.984375 C 165.015625 52.984375 165.359375 53.390625 165.359375 53.765625 C 165.359375 54.046875 165.203125 54.546875 165.140625 54.796875 L 162.984375 62.390625 C 162.765625 63.109375 162.578125 63.703125 162.484375 64.203125 C 162.390625 64.734375 162.296875 65.140625 162.296875 65.390625 C 162.296875 66.578125 163.078125 67.390625 164.265625 67.390625 Z M 167.234375 59.015625 C 168.890625 59.015625 168.453125 61.546875 167.734375 63.296875 C 167.296875 64.421875 166.015625 66.984375 164.515625 66.984375 C 163.890625 66.984375 163.609375 66.546875 163.609375 65.671875 C 163.609375 64.671875 163.953125 63.234375 164.265625 62.484375 C 164.640625 61.703125 165.265625 60.390625 165.796875 59.796875 C 166.140625 59.390625 166.640625 59.015625 167.234375 59.015625 Z M 167.234375 59.015625 "/>
<path fill-rule="nonzero" fill="rgb(0%, 0%, 0%)" fill-opacity="1" d="M 47.203125 123.683594 C 46.765625 123.683594 46.671875 123.433594 46.609375 123.058594 C 46.484375 122.714844 46.359375 122.339844 45.890625 122.339844 C 45.578125 122.339844 45.390625 122.621094 45.390625 122.933594 C 45.390625 123.746094 46.421875 124.121094 47.109375 124.121094 C 48.234375 124.121094 48.328125 123.808594 48.859375 123.089844 C 49.171875 122.652344 49.390625 122.121094 49.640625 121.433594 C 49.921875 120.746094 50.328125 119.839844 50.578125 118.746094 L 52.390625 111.871094 L 54.046875 111.871094 L 54.203125 111.402344 L 52.515625 111.402344 C 52.953125 109.839844 53.578125 107.183594 54.046875 106.371094 C 54.203125 106.089844 54.546875 105.683594 55.046875 105.683594 C 55.453125 105.683594 55.609375 105.964844 55.703125 106.308594 C 55.796875 106.683594 55.921875 107.027344 56.390625 107.027344 C 56.703125 107.027344 56.890625 106.746094 56.890625 106.464844 C 56.890625 105.652344 55.859375 105.246094 55.203125 105.246094 C 52.703125 105.308594 51.734375 109.308594 51.171875 111.402344 L 49.546875 111.402344 L 49.421875 111.871094 L 51.078125 111.871094 L 48.453125 121.746094 C 48.328125 122.214844 47.921875 123.683594 47.203125 123.683594 Z M 47.203125 123.683594 "/>
<path fill-rule="nonzero" fill="rgb(0%, 0%, 0%)" fill-opacity="1" d="M 107.691406 121.054688 C 107.691406 118.929688 108.503906 117.460938 109.441406 116.210938 C 109.628906 115.960938 110.097656 115.585938 110.097656 115.460938 C 110.097656 115.273438 110.035156 115.242188 109.878906 115.242188 C 109.785156 115.242188 109.660156 115.335938 109.566406 115.367188 C 109.503906 115.429688 109.378906 115.554688 109.128906 115.773438 C 108.972656 115.929688 108.785156 116.023438 108.566406 116.023438 C 108.191406 116.023438 107.972656 115.929688 107.753906 115.710938 C 107.503906 115.398438 107.253906 115.242188 106.785156 115.242188 C 105.941406 115.242188 105.066406 115.992188 105.066406 116.742188 C 105.066406 117.304688 105.441406 117.429688 105.816406 117.429688 C 106.191406 117.429688 106.378906 117.242188 106.378906 116.804688 C 106.378906 116.523438 106.066406 116.492188 106.066406 116.304688 C 106.066406 116.179688 106.128906 116.023438 106.378906 116.023438 C 106.941406 116.023438 107.191406 116.617188 107.410156 116.679688 C 107.722656 116.773438 107.816406 116.742188 108.222656 116.648438 L 108.472656 116.554688 C 107.878906 117.460938 107.035156 118.835938 106.691406 119.648438 C 106.347656 120.492188 106.191406 121.210938 106.191406 121.804688 C 106.191406 122.148438 106.253906 122.460938 106.316406 122.710938 C 106.597656 123.460938 107.128906 124.085938 108.160156 124.085938 C 110.722656 124.085938 111.753906 121.742188 112.535156 120.210938 C 112.972656 119.242188 113.316406 118.054688 113.316406 116.742188 C 113.316406 115.867188 113.191406 115.242188 112.378906 115.242188 C 111.816406 115.242188 111.535156 115.554688 111.535156 116.148438 C 111.535156 116.898438 111.910156 117.367188 111.910156 118.179688 C 111.910156 120.023438 110.753906 123.554688 108.753906 123.585938 C 107.722656 123.617188 107.691406 121.960938 107.691406 121.054688 Z M 107.691406 121.054688 "/>
<path fill-rule="nonzero" fill="rgb(0%, 0%, 0%)" fill-opacity="1" d="M 164.929688 121.492188 C 164.929688 120.835938 165.023438 120.179688 165.179688 119.554688 C 165.585938 118.242188 166.648438 115.679688 168.179688 115.679688 C 168.648438 115.679688 168.648438 115.898438 168.648438 116.023438 C 168.648438 116.242188 168.523438 116.367188 168.523438 116.617188 C 168.523438 117.085938 168.773438 117.398438 169.273438 117.398438 C 169.804688 117.398438 170.085938 117.085938 170.085938 116.523438 C 170.085938 115.648438 169.273438 115.242188 168.335938 115.242188 C 166.460938 115.242188 164.960938 117.179688 164.179688 118.585938 C 163.742188 119.367188 163.429688 120.335938 163.429688 121.460938 C 163.429688 122.960938 164.242188 124.085938 165.710938 124.085938 C 167.429688 124.085938 168.554688 122.679688 169.210938 121.335938 L 168.867188 121.179688 C 168.210938 122.460938 167.210938 123.648438 166.085938 123.648438 C 165.273438 123.648438 164.929688 122.335938 164.929688 121.492188 Z M 164.929688 121.492188 "/>
<path fill-rule="nonzero" fill="rgb(0%, 0%, 0%)" fill-opacity="1" d="M 55.144531 171.933594 C 53.613281 171.933594 52.425781 173.027344 51.675781 173.933594 C 50.832031 174.933594 50.175781 176.433594 50.175781 178.152344 C 50.175781 179.777344 50.738281 180.777344 52.300781 180.777344 C 53.675781 180.777344 54.957031 179.777344 55.738281 178.496094 L 55.425781 178.277344 C 54.894531 179.058594 53.800781 180.339844 52.707031 180.339844 C 51.894531 180.339844 51.550781 179.652344 51.550781 178.496094 C 51.550781 178.183594 51.613281 177.558594 51.644531 177.246094 C 53.613281 176.839844 56.894531 175.558594 56.894531 173.308594 C 56.894531 172.402344 56.082031 171.933594 55.144531 171.933594 Z M 54.957031 172.371094 C 55.332031 172.371094 55.675781 172.714844 55.675781 173.152344 C 55.675781 174.933594 53.425781 176.246094 51.738281 176.777344 C 52.113281 175.402344 53.332031 172.371094 54.957031 172.371094 Z M 54.957031 172.371094 "/>
<path fill-rule="nonzero" fill="rgb(0%, 0%, 0%)" fill-opacity="1" d="M 110.292969 180.777344 C 110.855469 180.777344 111.324219 180.527344 111.761719 180.027344 C 112.199219 179.527344 112.574219 178.777344 112.949219 177.683594 L 112.511719 177.558594 C 112.261719 178.277344 111.574219 180.089844 110.855469 180.089844 C 110.449219 180.089844 110.355469 179.433594 110.355469 179.058594 C 110.355469 178.871094 110.355469 178.652344 110.386719 178.402344 C 110.511719 177.558594 110.699219 176.839844 110.917969 175.902344 C 111.074219 175.308594 111.261719 174.589844 111.511719 173.777344 L 113.574219 165.964844 L 110.574219 165.964844 L 110.480469 166.246094 C 111.074219 166.277344 111.261719 166.339844 111.449219 166.433594 C 111.667969 166.589844 111.855469 166.871094 111.855469 167.027344 C 111.855469 167.402344 111.730469 167.777344 111.605469 168.183594 L 110.386719 172.777344 C 110.042969 172.214844 109.824219 171.933594 109.011719 171.933594 C 107.667969 171.933594 106.417969 173.152344 105.667969 174.058594 C 105.324219 174.464844 105.042969 174.933594 104.792969 175.371094 C 104.355469 176.183594 103.980469 177.183594 103.980469 178.277344 C 103.980469 179.058594 104.199219 179.621094 104.542969 180.058594 C 104.855469 180.464844 105.292969 180.777344 105.917969 180.777344 C 107.792969 180.746094 108.480469 179.621094 109.105469 178.558594 L 109.167969 178.621094 C 109.136719 178.714844 109.136719 178.871094 109.105469 178.996094 C 109.105469 179.121094 109.074219 179.246094 109.074219 179.339844 C 109.074219 180.183594 109.449219 180.777344 110.292969 180.777344 Z M 110.042969 173.433594 C 110.042969 174.308594 109.761719 175.558594 109.542969 176.277344 C 109.292969 177.089844 108.636719 178.621094 108.105469 179.277344 C 107.761719 179.714844 107.136719 180.339844 106.480469 180.339844 C 105.792969 180.339844 105.417969 179.777344 105.417969 179.058594 C 105.417969 178.214844 105.605469 176.683594 105.917969 175.964844 C 106.417969 174.808594 107.574219 172.339844 109.136719 172.339844 C 109.699219 172.339844 110.042969 172.839844 110.042969 173.433594 Z M 110.042969 173.433594 "/>
</svg>
