<?xml version="1.0" encoding="UTF-8"?>
<svg xmlns="http://www.w3.org/2000/svg" xmlns:xlink="http://www.w3.org/1999/xlink" width="201.639999" height="203.580002" viewBox="0 0 201.639999 203.580002">
<defs>
<clipPath id="clip-0">
<path clip-rule="nonzero" d="M 14 16 L 201.640625 16 L 201.640625 203.578125 L 14 203.578125 Z M 14 16 "/>
</clipPath>
<clipPath id="clip-1">
<path clip-rule="nonzero" d="M 19 21 L 201.640625 21 L 201.640625 203.578125 L 19 203.578125 Z M 19 21 "/>
</clipPath>
</defs>
<g clip-path="url(#clip-0)">
<path fill="none" stroke-width="0.3985" stroke-linecap="butt" stroke-linejoin="miter" stroke="rgb(0%, 0%, 0%)" stroke-opacity="1" stroke-miterlimit="10" d="M -0.000937462 0.000221252 L 85.042031 0.000221252 M -0.000937462 28.347878 L 85.042031 28.347878 M -0.000937462 56.695534 L 85.042031 56.695534 M -0.000937462 85.031471 L 85.042031 85.031471 M -0.000937462 0.000221252 L -0.000937462 85.039284 M 28.346719 0.000221252 L 28.346719 85.039284 M 56.694375 0.000221252 L 56.694375 85.039284 M 85.030313 0.000221252 L 85.030313 85.039284 M -0.000937462 28.347878 L 56.694375 85.039284 M -0.000937462 0.000221252 L 85.042031 85.039284 M 28.346719 0.000221252 L 85.042031 56.695534 M 56.694375 0.000221252 L 85.042031 28.347878 " transform="matrix(2, 0, 0, -2, 25.58, 197.602005)"/>
</g>
<path fill="none" stroke-width="1.59404" stroke-linecap="butt" stroke-linejoin="miter" stroke="rgb(0%, 0%, 0%)" stroke-opacity="1" stroke-miterlimit="10" d="M -0.000937462 56.695534 L 28.346719 85.039284 " transform="matrix(2, 0, 0, -2, 25.58, 197.602005)"/>
<path fill="none" stroke-width="1.59404" stroke-linecap="butt" stroke-linejoin="miter" stroke="rgb(0%, 0%, 0%)" stroke-opacity="1" stroke-miterlimit="10" d="M -0.000937462 28.347878 L -0.000937462 56.695534 " transform="matrix(2, 0, 0, -2, 25.58, 197.602005)"/>
<path fill="none" stroke-width="1.59404" stroke-linecap="butt" stroke-linejoin="miter" stroke="rgb(0%, 0%, 0%)" stroke-opacity="1" stroke-miterlimit="10" d="M -0.000937462 28.347878 L 28.346719 28.347878 " transform="matrix(2, 0, 0, -2, 25.58, 197.602005)"/>
<path fill="none" stroke-width="1.59404" stroke-linecap="butt" stroke-linejoin="miter" stroke="rgb(0%, 0%, 0%)" stroke-opacity="1" stroke-miterlimit="10" d="M 28.346719 28.347878 L 56.694375 56.695534 " transform="matrix(2, 0, 0, -2, 25.58, 197.602005)"/>
<path fill="none" stroke-width="1.59404" stroke-linecap="butt" stroke-linejoin="miter" stroke="rgb(0%, 0%, 0%)" stroke-opacity="1" stroke-miterlimit="10" d="M 56.694375 56.695534 L 56.694375 85.039284 " transform="matrix(2, 0, 0, -2, 25.58, 197.602005)"/>
<path fill="none" stroke-width="1.59404" stroke-linecap="butt" stroke-linejoin="miter" stroke="rgb(0%, 0%, 0%)" stroke-opacity="1" stroke-miterlimit="10" d="M 28.346719 85.039284 L 56.694375 85.039284 " transform="matrix(2, 0, 0, -2, 25.58, 197.602005)"/>
<g clip-path="url(#clip-1)">
<path fill-rule="nonzero" fill="rgb(0%, 0%, 0%)" fill-opacity="1" d="M 31.554688 197.601562 C 31.554688 194.296875 28.882812 191.625 25.578125 191.625 C 22.28125 191.625 19.601562 194.296875 19.601562 197.601562 C 19.601562 200.90625 22.28125 203.578125 25.578125 203.578125 C 28.882812 203.578125 31.554688 200.90625 31.554688 197.601562 Z M 31.554688 140.90625 C 31.554688 137.609375 28.882812 134.929688 25.578125 134.929688 C 22.28125 134.929688 19.601562 137.609375 19.601562 140.90625 C 19.601562 144.210938 22.28125 146.882812 25.578125 146.882812 C 28.882812 146.882812 31.554688 144.210938 31.554688 140.90625 Z M 31.554688 84.210938 C 31.554688 80.914062 28.882812 78.234375 25.578125 78.234375 C 22.28125 78.234375 19.601562 80.914062 19.601562 84.210938 C 19.601562 87.515625 22.28125 90.195312 25.578125 90.195312 C 28.882812 90.195312 31.554688 87.515625 31.554688 84.210938 Z M 31.554688 27.523438 C 31.554688 24.21875 28.882812 21.546875 25.578125 21.546875 C 22.28125 21.546875 19.601562 24.21875 19.601562 27.523438 C 19.601562 30.820312 22.28125 33.5 25.578125 33.5 C 28.882812 33.5 31.554688 30.820312 31.554688 27.523438 Z M 88.25 197.601562 C 88.25 194.296875 85.578125 191.625 82.273438 191.625 C 78.96875 191.625 76.296875 194.296875 76.296875 197.601562 C 76.296875 200.90625 78.96875 203.578125 82.273438 203.578125 C 85.578125 203.578125 88.25 200.90625 88.25 197.601562 Z M 88.25 140.90625 C 88.25 137.609375 85.578125 134.929688 82.273438 134.929688 C 78.96875 134.929688 76.296875 137.609375 76.296875 140.90625 C 76.296875 144.210938 78.96875 146.882812 82.273438 146.882812 C 85.578125 146.882812 88.25 144.210938 88.25 140.90625 Z M 88.25 84.210938 C 88.25 80.914062 85.578125 78.234375 82.273438 78.234375 C 78.96875 78.234375 76.296875 80.914062 76.296875 84.210938 C 76.296875 87.515625 78.96875 90.195312 82.273438 90.195312 C 85.578125 90.195312 88.25 87.515625 88.25 84.210938 Z M 88.25 27.523438 C 88.25 24.21875 85.578125 21.546875 82.273438 21.546875 C 78.96875 21.546875 76.296875 24.21875 76.296875 27.523438 C 76.296875 30.820312 78.96875 33.5 82.273438 33.5 C 85.578125 33.5 88.25 30.820312 88.25 27.523438 Z M 144.945312 197.601562 C 144.945312 194.296875 142.265625 191.625 138.96875 191.625 C 135.664062 191.625 132.992188 194.296875 132.992188 197.601562 C 132.992188 200.90625 135.664062 203.578125 138.96875 203.578125 C 142.265625 203.578125 144.945312 200.90625 144.945312 197.601562 Z M 144.945312 140.90625 C 144.945312 137.609375 142.265625 134.929688 138.96875 134.929688 C 135.664062 134.929688 132.992188 137.609375 132.992188 140.90625 C 132.992188 144.210938 135.664062 146.882812 138.96875 146.882812 C 142.265625 146.882812 144.945312 144.210938 144.945312 140.90625 Z M 144.945312 84.210938 C 144.945312 80.914062 142.265625 78.234375 138.96875 78.234375 C 135.664062 78.234375 132.992188 80.914062 132.992188 84.210938 C 132.992188 87.515625 135.664062 90.195312 138.96875 90.195312 C 142.265625 90.195312 144.945312 87.515625 144.945312 84.210938 Z M 144.945312 27.523438 C 144.945312 24.21875 142.265625 21.546875 138.96875 21.546875 C 135.664062 21.546875 132.992188 24.21875 132.992188 27.523438 C 132.992188 30.820312 135.664062 33.5 138.96875 33.5 C 142.265625 33.5 144.945312 30.820312 144.945312 27.523438 Z M 201.640625 197.601562 C 201.640625 194.296875 198.960938 191.625 195.664062 191.625 C 192.359375 191.625 189.679688 194.296875 189.679688 197.601562 C 189.679688 200.90625 192.359375 203.578125 195.664062 203.578125 C 198.960938 203.578125 201.640625 200.90625 201.640625 197.601562 Z M 201.640625 140.90625 C 201.640625 137.609375 198.960938 134.929688 195.664062 134.929688 C 192.359375 134.929688 189.679688 137.609375 189.679688 140.90625 C 189.679688 144.210938 192.359375 146.882812 195.664062 146.882812 C 198.960938 146.882812 201.640625 144.210938 201.640625 140.90625 Z M 201.640625 84.210938 C 201.640625 80.914062 198.960938 78.234375 195.664062 78.234375 C 192.359375 78.234375 189.679688 80.914062 189.679688 84.210938 C 189.679688 87.515625 192.359375 90.195312 195.664062 90.195312 C 198.960938 90.195312 201.640625 87.515625 201.640625 84.210938 Z M 201.640625 27.523438 C 201.640625 24.21875 198.960938 21.546875 195.664062 21.546875 C 192.359375 21.546875 189.679688 24.21875 189.679688 27.523438 C 189.679688 30.820312 192.359375 33.5 195.664062 33.5 C 198.960938 33.5 201.640625 30.820312 201.640625 27.523438 Z M 201.640625 27.523438 "/>
</g>
<path fill-rule="nonzero" fill="rgb(0%, 0%, 0%)" fill-opacity="1" d="M 72.140625 12.949219 C 71.765625 12.199219 71.203125 11.667969 70.296875 11.667969 C 67.984375 11.667969 65.515625 14.605469 65.515625 17.511719 C 65.515625 19.386719 66.609375 20.699219 68.140625 20.699219 C 68.546875 20.699219 69.546875 20.605469 70.734375 19.199219 C 70.890625 20.042969 71.609375 20.699219 72.546875 20.699219 C 73.265625 20.699219 73.703125 20.230469 74.046875 19.605469 C 74.359375 18.886719 74.640625 17.667969 74.640625 17.636719 C 74.640625 17.417969 74.453125 17.417969 74.390625 17.417969 C 74.203125 17.417969 74.171875 17.511719 74.109375 17.792969 C 73.765625 19.074219 73.421875 20.261719 72.609375 20.261719 C 72.046875 20.261719 72.015625 19.730469 72.015625 19.355469 C 72.015625 18.917969 72.046875 18.730469 72.265625 17.855469 C 72.484375 17.042969 72.515625 16.824219 72.703125 16.074219 L 73.421875 13.292969 C 73.546875 12.730469 73.546875 12.699219 73.546875 12.605469 C 73.546875 12.261719 73.328125 12.074219 72.984375 12.074219 C 72.484375 12.074219 72.203125 12.511719 72.140625 12.949219 Z M 70.859375 18.105469 C 70.734375 18.480469 70.734375 18.511719 70.453125 18.855469 C 69.578125 19.949219 68.765625 20.261719 68.203125 20.261719 C 67.203125 20.261719 66.921875 19.167969 66.921875 18.386719 C 66.921875 17.386719 67.546875 14.949219 68.015625 14.011719 C 68.640625 12.855469 69.515625 12.105469 70.328125 12.105469 C 71.609375 12.105469 71.890625 13.730469 71.890625 13.855469 C 71.890625 13.980469 71.859375 14.105469 71.828125 14.199219 Z M 70.859375 18.105469 "/>
<path fill-rule="nonzero" fill="rgb(0%, 0%, 0%)" fill-opacity="1" d="M 128.125 6.855469 C 128.125 6.855469 128.125 6.636719 127.875 6.636719 C 127.4375 6.636719 125.96875 6.792969 125.4375 6.855469 C 125.28125 6.855469 125.0625 6.886719 125.0625 7.230469 C 125.0625 7.480469 125.25 7.480469 125.5625 7.480469 C 126.5 7.480469 126.53125 7.605469 126.53125 7.824219 C 126.53125 7.949219 126.375 8.636719 126.28125 9.042969 L 124.625 15.542969 C 124.40625 16.542969 124.3125 16.886719 124.3125 17.574219 C 124.3125 19.449219 125.375 20.699219 126.84375 20.699219 C 129.1875 20.699219 131.65625 17.730469 131.65625 14.855469 C 131.65625 13.042969 130.59375 11.667969 129 11.667969 C 128.09375 11.667969 127.25 12.261719 126.65625 12.855469 Z M 126.28125 14.386719 C 126.375 13.949219 126.375 13.917969 126.5625 13.699219 C 127.53125 12.417969 128.4375 12.105469 128.96875 12.105469 C 129.6875 12.105469 130.21875 12.699219 130.21875 13.980469 C 130.21875 15.167969 129.5625 17.449219 129.1875 18.199219 C 128.53125 19.542969 127.625 20.261719 126.84375 20.261719 C 126.15625 20.261719 125.5 19.730469 125.5 18.261719 C 125.5 17.855469 125.5 17.480469 125.8125 16.230469 Z M 126.28125 14.386719 "/>
<path fill-rule="nonzero" fill="rgb(0%, 0%, 0%)" fill-opacity="1" d="M 13.953125 65.332031 L 15.671875 65.332031 C 16.078125 65.332031 16.265625 65.332031 16.265625 64.925781 C 16.265625 64.707031 16.078125 64.707031 15.734375 64.707031 L 14.078125 64.707031 L 14.484375 62.425781 C 14.578125 62.019531 14.859375 60.613281 14.984375 60.363281 C 15.140625 59.988281 15.484375 59.675781 15.921875 59.675781 C 15.984375 59.675781 16.515625 59.675781 16.890625 60.050781 C 16.015625 60.113281 15.796875 60.832031 15.796875 61.113281 C 15.796875 61.582031 16.171875 61.832031 16.546875 61.832031 C 17.078125 61.832031 17.640625 61.363281 17.640625 60.613281 C 17.640625 59.707031 16.734375 59.238281 15.921875 59.238281 C 15.234375 59.238281 13.984375 59.613281 13.390625 61.582031 C 13.265625 61.988281 13.203125 62.207031 12.734375 64.707031 L 11.359375 64.707031 C 10.953125 64.707031 10.734375 64.707031 10.734375 65.082031 C 10.734375 65.332031 10.921875 65.332031 11.296875 65.332031 L 12.609375 65.332031 L 11.140625 73.207031 C 10.765625 75.144531 10.421875 76.957031 9.390625 76.957031 C 9.296875 76.957031 8.828125 76.957031 8.421875 76.582031 C 9.359375 76.519531 9.546875 75.800781 9.546875 75.519531 C 9.546875 75.050781 9.171875 74.800781 8.796875 74.800781 C 8.265625 74.800781 7.703125 75.269531 7.703125 76.019531 C 7.703125 76.894531 8.578125 77.394531 9.390625 77.394531 C 10.484375 77.394531 11.296875 76.207031 11.640625 75.457031 C 12.296875 74.207031 12.734375 71.800781 12.765625 71.644531 Z M 13.953125 65.332031 "/>
<path fill-rule="nonzero" fill="rgb(0%, 0%, 0%)" fill-opacity="1" d="M 74.203125 69.769531 C 74.203125 68.675781 73.671875 68.363281 73.328125 68.363281 C 72.828125 68.363281 72.328125 68.894531 72.328125 69.332031 C 72.328125 69.582031 72.421875 69.707031 72.640625 69.925781 C 73.078125 70.332031 73.328125 70.832031 73.328125 71.550781 C 73.328125 72.394531 72.109375 76.957031 69.796875 76.957031 C 68.765625 76.957031 68.296875 76.269531 68.296875 75.207031 C 68.296875 74.113281 68.859375 72.644531 69.453125 70.988281 C 69.609375 70.644531 69.703125 70.363281 69.703125 69.988281 C 69.703125 69.113281 69.078125 68.363281 68.078125 68.363281 C 66.203125 68.363281 65.453125 71.269531 65.453125 71.425781 C 65.453125 71.644531 65.640625 71.644531 65.671875 71.644531 C 65.890625 71.644531 65.890625 71.582031 65.984375 71.269531 C 66.578125 69.269531 67.421875 68.800781 68.015625 68.800781 C 68.171875 68.800781 68.515625 68.800781 68.515625 69.425781 C 68.515625 69.925781 68.296875 70.488281 68.171875 70.832031 C 67.296875 73.144531 67.046875 74.050781 67.046875 74.925781 C 67.046875 77.082031 68.796875 77.394531 69.703125 77.394531 C 73.046875 77.394531 74.203125 70.800781 74.203125 69.769531 Z M 74.203125 69.769531 "/>
<path fill-rule="nonzero" fill="rgb(0%, 0%, 0%)" fill-opacity="1" d="M 131.210938 69.613281 C 130.867188 69.613281 130.617188 69.613281 130.335938 69.863281 C 129.992188 70.175781 129.960938 70.519531 129.960938 70.644531 C 129.960938 71.144531 130.335938 71.363281 130.710938 71.363281 C 131.273438 71.363281 131.804688 70.863281 131.804688 70.082031 C 131.804688 69.113281 130.867188 68.363281 129.460938 68.363281 C 126.773438 68.363281 124.117188 71.207031 124.117188 74.019531 C 124.117188 75.832031 125.273438 77.394531 127.367188 77.394531 C 130.210938 77.394531 131.867188 75.269531 131.867188 75.050781 C 131.867188 74.925781 131.773438 74.769531 131.648438 74.769531 C 131.523438 74.769531 131.492188 74.832031 131.367188 74.988281 C 129.804688 76.957031 127.617188 76.957031 127.398438 76.957031 C 126.148438 76.957031 125.585938 75.988281 125.585938 74.769531 C 125.585938 73.957031 125.992188 72.019531 126.679688 70.800781 C 127.304688 69.644531 128.398438 68.800781 129.492188 68.800781 C 130.148438 68.800781 130.929688 69.050781 131.210938 69.613281 Z M 131.210938 69.613281 "/>
<path fill-rule="nonzero" fill="rgb(0%, 0%, 0%)" fill-opacity="1" d="M 12.980469 129.273438 C 13.574219 129.273438 15.042969 129.210938 16.042969 128.804688 C 17.449219 128.210938 17.542969 127.023438 17.542969 126.742188 C 17.542969 125.867188 16.792969 125.054688 15.417969 125.054688 C 13.199219 125.054688 10.167969 126.992188 10.167969 130.492188 C 10.167969 132.523438 11.355469 134.085938 13.324219 134.085938 C 16.167969 134.085938 17.824219 131.960938 17.824219 131.742188 C 17.824219 131.617188 17.730469 131.460938 17.605469 131.460938 C 17.480469 131.460938 17.449219 131.523438 17.324219 131.679688 C 15.761719 133.648438 13.574219 133.648438 13.355469 133.648438 C 11.792969 133.648438 11.605469 131.960938 11.605469 131.335938 C 11.605469 131.085938 11.636719 130.492188 11.917969 129.273438 Z M 12.042969 128.835938 C 12.824219 125.804688 14.886719 125.492188 15.417969 125.492188 C 16.324219 125.492188 16.886719 126.085938 16.886719 126.742188 C 16.886719 128.835938 13.699219 128.835938 12.855469 128.835938 Z M 12.042969 128.835938 "/>
<path fill-rule="nonzero" fill="rgb(0%, 0%, 0%)" fill-opacity="1" d="M 75.144531 120.242188 C 75.144531 120.242188 75.144531 120.023438 74.894531 120.023438 C 74.582031 120.023438 72.707031 120.210938 72.363281 120.242188 C 72.207031 120.273438 72.082031 120.367188 72.082031 120.617188 C 72.082031 120.867188 72.269531 120.867188 72.550781 120.867188 C 73.519531 120.867188 73.550781 120.992188 73.550781 121.210938 L 73.488281 121.617188 L 72.300781 126.335938 C 71.925781 125.585938 71.363281 125.054688 70.457031 125.054688 C 68.144531 125.054688 65.675781 127.992188 65.675781 130.898438 C 65.675781 132.773438 66.769531 134.085938 68.300781 134.085938 C 68.707031 134.085938 69.707031 133.992188 70.894531 132.585938 C 71.050781 133.429688 71.769531 134.085938 72.707031 134.085938 C 73.425781 134.085938 73.863281 133.617188 74.207031 132.992188 C 74.519531 132.273438 74.800781 131.054688 74.800781 131.023438 C 74.800781 130.804688 74.613281 130.804688 74.550781 130.804688 C 74.363281 130.804688 74.332031 130.898438 74.269531 131.179688 C 73.925781 132.460938 73.582031 133.648438 72.769531 133.648438 C 72.207031 133.648438 72.175781 133.117188 72.175781 132.742188 C 72.175781 132.242188 72.207031 132.117188 72.269531 131.773438 Z M 71.019531 131.492188 C 70.894531 131.867188 70.894531 131.898438 70.613281 132.242188 C 69.738281 133.335938 68.925781 133.648438 68.363281 133.648438 C 67.363281 133.648438 67.082031 132.554688 67.082031 131.773438 C 67.082031 130.773438 67.707031 128.335938 68.175781 127.398438 C 68.800781 126.242188 69.675781 125.492188 70.488281 125.492188 C 71.769531 125.492188 72.050781 127.117188 72.050781 127.242188 C 72.050781 127.367188 72.019531 127.492188 71.988281 127.585938 Z M 71.019531 131.492188 "/>
</svg>
