<?xml version="1.0" encoding="UTF-8"?>
<svg xmlns="http://www.w3.org/2000/svg" xmlns:xlink="http://www.w3.org/1999/xlink" width="314.980011" height="160.240005" viewBox="0 0 314.980011 160.240005">
<path fill-rule="nonzero" fill="rgb(0%, 0%, 0%)" fill-opacity="1" d="M 236.476562 12.609375 C 236.476562 10.484375 237.289062 9.015625 238.226562 7.765625 C 238.414062 7.515625 238.882812 7.140625 238.882812 7.015625 C 238.882812 6.828125 238.820312 6.796875 238.664062 6.796875 C 238.570312 6.796875 238.445312 6.890625 238.351562 6.921875 C 238.289062 6.984375 238.164062 7.109375 237.914062 7.328125 C 237.757812 7.484375 237.570312 7.578125 237.351562 7.578125 C 236.976562 7.578125 236.757812 7.484375 236.539062 7.265625 C 236.289062 6.953125 236.039062 6.796875 235.570312 6.796875 C 234.726562 6.796875 233.851562 7.546875 233.851562 8.296875 C 233.851562 8.859375 234.226562 8.984375 234.601562 8.984375 C 234.976562 8.984375 235.164062 8.796875 235.164062 8.359375 C 235.164062 8.078125 234.851562 8.046875 234.851562 7.859375 C 234.851562 7.734375 234.914062 7.578125 235.164062 7.578125 C 235.726562 7.578125 235.976562 8.171875 236.195312 8.234375 C 236.507812 8.328125 236.601562 8.296875 237.007812 8.203125 L 237.257812 8.109375 C 236.664062 9.015625 235.820312 10.390625 235.476562 11.203125 C 235.132812 12.046875 234.976562 12.765625 234.976562 13.359375 C 234.976562 13.703125 235.039062 14.015625 235.101562 14.265625 C 235.382812 15.015625 235.914062 15.640625 236.945312 15.640625 C 239.507812 15.640625 240.539062 13.296875 241.320312 11.765625 C 241.757812 10.796875 242.101562 9.609375 242.101562 8.296875 C 242.101562 7.421875 241.976562 6.796875 241.164062 6.796875 C 240.601562 6.796875 240.320312 7.109375 240.320312 7.703125 C 240.320312 8.453125 240.695312 8.921875 240.695312 9.734375 C 240.695312 11.578125 239.539062 15.109375 237.539062 15.140625 C 236.507812 15.171875 236.476562 13.515625 236.476562 12.609375 Z M 236.476562 12.609375 "/>
<path fill-rule="nonzero" fill="rgb(0%, 0%, 0%)" fill-opacity="1" d="M 249.703125 15.816406 L 249.203125 15.816406 C 249.171875 16.160156 249.015625 17.003906 248.828125 17.160156 C 248.703125 17.222656 247.578125 17.222656 247.390625 17.222656 L 244.703125 17.222656 C 246.234375 15.878906 246.734375 15.472656 247.609375 14.785156 C 248.703125 13.941406 249.703125 13.035156 249.703125 11.660156 C 249.703125 9.910156 248.171875 8.816406 246.296875 8.816406 C 244.484375 8.816406 243.265625 10.097656 243.265625 11.410156 C 243.265625 12.160156 243.890625 12.253906 244.046875 12.253906 C 244.390625 12.253906 244.828125 12.003906 244.828125 11.472656 C 244.828125 11.222656 244.703125 10.691406 243.953125 10.691406 C 244.421875 9.660156 245.390625 9.347656 246.078125 9.347656 C 247.546875 9.347656 248.296875 10.472656 248.296875 11.660156 C 248.296875 12.910156 247.390625 13.910156 246.921875 14.441406 L 243.421875 17.910156 C 243.265625 18.035156 243.265625 18.066406 243.265625 18.472656 L 249.265625 18.472656 Z M 249.703125 15.816406 "/>
<path fill-rule="nonzero" fill="rgb(0%, 0%, 0%)" fill-opacity="1" d="M 179.78125 144.679688 C 179.78125 142.554688 180.59375 141.085938 181.53125 139.835938 C 181.71875 139.585938 182.1875 139.210938 182.1875 139.085938 C 182.1875 138.898438 182.125 138.867188 181.96875 138.867188 C 181.875 138.867188 181.75 138.960938 181.65625 138.992188 C 181.59375 139.054688 181.46875 139.179688 181.21875 139.398438 C 181.0625 139.554688 180.875 139.648438 180.65625 139.648438 C 180.28125 139.648438 180.0625 139.554688 179.84375 139.335938 C 179.59375 139.023438 179.34375 138.867188 178.875 138.867188 C 178.03125 138.867188 177.15625 139.617188 177.15625 140.367188 C 177.15625 140.929688 177.53125 141.054688 177.90625 141.054688 C 178.28125 141.054688 178.46875 140.867188 178.46875 140.429688 C 178.46875 140.148438 178.15625 140.117188 178.15625 139.929688 C 178.15625 139.804688 178.21875 139.648438 178.46875 139.648438 C 179.03125 139.648438 179.28125 140.242188 179.5 140.304688 C 179.8125 140.398438 179.90625 140.367188 180.3125 140.273438 L 180.5625 140.179688 C 179.96875 141.085938 179.125 142.460938 178.78125 143.273438 C 178.4375 144.117188 178.28125 144.835938 178.28125 145.429688 C 178.28125 145.773438 178.34375 146.085938 178.40625 146.335938 C 178.6875 147.085938 179.21875 147.710938 180.25 147.710938 C 182.8125 147.710938 183.84375 145.367188 184.625 143.835938 C 185.0625 142.867188 185.40625 141.679688 185.40625 140.367188 C 185.40625 139.492188 185.28125 138.867188 184.46875 138.867188 C 183.90625 138.867188 183.625 139.179688 183.625 139.773438 C 183.625 140.523438 184 140.992188 184 141.804688 C 184 143.648438 182.84375 147.179688 180.84375 147.210938 C 179.8125 147.242188 179.78125 145.585938 179.78125 144.679688 Z M 179.78125 144.679688 "/>
<path fill-rule="nonzero" fill="rgb(0%, 0%, 0%)" fill-opacity="1" d="M 192.539062 150.542969 L 192.539062 150.011719 L 191.976562 150.011719 C 190.539062 150.011719 190.539062 149.824219 190.539062 149.355469 L 190.539062 141.292969 C 190.539062 140.917969 190.507812 140.886719 190.101562 140.886719 C 189.164062 141.824219 187.851562 141.824219 187.257812 141.824219 L 187.257812 142.355469 C 187.601562 142.355469 188.570312 142.355469 189.351562 141.949219 L 189.351562 149.355469 C 189.351562 149.824219 189.351562 150.011719 187.914062 150.011719 L 187.351562 150.011719 L 187.351562 150.542969 L 189.945312 150.480469 Z M 192.539062 150.542969 "/>
<path fill-rule="nonzero" fill="rgb(0%, 0%, 0%)" fill-opacity="1" d="M 293.171875 144.679688 C 293.171875 142.554688 293.984375 141.085938 294.921875 139.835938 C 295.109375 139.585938 295.578125 139.210938 295.578125 139.085938 C 295.578125 138.898438 295.515625 138.867188 295.359375 138.867188 C 295.265625 138.867188 295.140625 138.960938 295.046875 138.992188 C 294.984375 139.054688 294.859375 139.179688 294.609375 139.398438 C 294.453125 139.554688 294.265625 139.648438 294.046875 139.648438 C 293.671875 139.648438 293.453125 139.554688 293.234375 139.335938 C 292.984375 139.023438 292.734375 138.867188 292.265625 138.867188 C 291.421875 138.867188 290.546875 139.617188 290.546875 140.367188 C 290.546875 140.929688 290.921875 141.054688 291.296875 141.054688 C 291.671875 141.054688 291.859375 140.867188 291.859375 140.429688 C 291.859375 140.148438 291.546875 140.117188 291.546875 139.929688 C 291.546875 139.804688 291.609375 139.648438 291.859375 139.648438 C 292.421875 139.648438 292.671875 140.242188 292.890625 140.304688 C 293.203125 140.398438 293.296875 140.367188 293.703125 140.273438 L 293.953125 140.179688 C 293.359375 141.085938 292.515625 142.460938 292.171875 143.273438 C 291.828125 144.117188 291.671875 144.835938 291.671875 145.429688 C 291.671875 145.773438 291.734375 146.085938 291.796875 146.335938 C 292.078125 147.085938 292.609375 147.710938 293.640625 147.710938 C 296.203125 147.710938 297.234375 145.367188 298.015625 143.835938 C 298.453125 142.867188 298.796875 141.679688 298.796875 140.367188 C 298.796875 139.492188 298.671875 138.867188 297.859375 138.867188 C 297.296875 138.867188 297.015625 139.179688 297.015625 139.773438 C 297.015625 140.523438 297.390625 140.992188 297.390625 141.804688 C 297.390625 143.648438 296.234375 147.179688 294.234375 147.210938 C 293.203125 147.242188 293.171875 145.585938 293.171875 144.679688 Z M 293.171875 144.679688 "/>
<path fill-rule="nonzero" fill="rgb(0%, 0%, 0%)" fill-opacity="1" d="M 306.523438 148.042969 C 306.523438 146.886719 305.585938 145.761719 303.992188 145.417969 C 305.523438 144.886719 306.085938 143.792969 306.085938 142.886719 C 306.085938 141.761719 304.742188 140.886719 303.148438 140.886719 C 301.523438 140.886719 300.304688 141.667969 300.304688 142.855469 C 300.304688 143.324219 300.617188 143.605469 301.054688 143.605469 C 301.492188 143.605469 301.773438 143.292969 301.773438 142.855469 C 301.773438 142.449219 301.492188 142.136719 301.054688 142.105469 C 301.554688 141.480469 302.554688 141.324219 303.085938 141.324219 C 303.742188 141.324219 304.648438 141.636719 304.648438 142.886719 C 304.648438 143.511719 304.460938 144.167969 304.085938 144.636719 C 303.617188 145.167969 303.210938 145.199219 302.460938 145.261719 C 302.117188 145.292969 302.085938 145.292969 301.992188 145.292969 C 301.992188 145.292969 301.867188 145.324219 301.867188 145.480469 C 301.867188 145.699219 301.992188 145.699219 302.242188 145.699219 L 303.023438 145.699219 C 304.148438 145.699219 304.960938 146.480469 304.960938 148.042969 C 304.960938 149.824219 303.929688 150.355469 303.085938 150.355469 C 302.492188 150.355469 301.210938 150.199219 300.617188 149.355469 C 301.304688 149.324219 301.460938 148.855469 301.460938 148.542969 C 301.460938 148.074219 301.117188 147.730469 300.648438 147.730469 C 300.242188 147.730469 299.835938 147.980469 299.835938 148.574219 C 299.835938 149.949219 301.335938 150.824219 303.117188 150.824219 C 305.117188 150.824219 306.523438 149.480469 306.523438 148.042969 Z M 306.523438 148.042969 "/>
<path fill="none" stroke-width="0.3985" stroke-linecap="butt" stroke-linejoin="miter" stroke="rgb(0%, 0%, 0%)" stroke-opacity="1" stroke-miterlimit="10" d="M 29.498062 47.103813 L 53.849625 4.924126 " transform="matrix(2, 0, 0, -2, 186.082001, 127.692001)"/>
<path fill-rule="nonzero" fill="rgb(0%, 0%, 0%)" fill-opacity="1" stroke-width="0.3985" stroke-linecap="butt" stroke-linejoin="miter" stroke="rgb(0%, 0%, 0%)" stroke-opacity="1" stroke-miterlimit="10" d="M 4.693725 -0.00100692 L 0.644637 1.524975 L 1.974109 -0.000444107 L 0.643569 -1.523629 Z M 4.693725 -0.00100692 " transform="matrix(1.00004, 1.732, 1.732, -1.00004, 291.909393, 114.596024)"/>
<path fill-rule="nonzero" fill="rgb(0%, 0%, 0%)" fill-opacity="1" d="M 283.734375 59.878906 C 282.203125 59.878906 281.015625 60.972656 280.265625 61.878906 C 279.421875 62.878906 278.765625 64.378906 278.765625 66.097656 C 278.765625 67.722656 279.328125 68.722656 280.890625 68.722656 C 282.265625 68.722656 283.546875 67.722656 284.328125 66.441406 L 284.015625 66.222656 C 283.484375 67.003906 282.390625 68.285156 281.296875 68.285156 C 280.484375 68.285156 280.140625 67.597656 280.140625 66.441406 C 280.140625 66.128906 280.203125 65.503906 280.234375 65.191406 C 282.203125 64.785156 285.484375 63.503906 285.484375 61.253906 C 285.484375 60.347656 284.671875 59.878906 283.734375 59.878906 Z M 283.546875 60.316406 C 283.921875 60.316406 284.265625 60.660156 284.265625 61.097656 C 284.265625 62.878906 282.015625 64.191406 280.328125 64.722656 C 280.703125 63.347656 281.921875 60.316406 283.546875 60.316406 Z M 283.546875 60.316406 "/>
<path fill-rule="nonzero" fill="rgb(0%, 0%, 0%)" fill-opacity="1" d="M 293.019531 68.898438 L 292.519531 68.898438 C 292.488281 69.242188 292.332031 70.085938 292.144531 70.242188 C 292.019531 70.304688 290.894531 70.304688 290.707031 70.304688 L 288.019531 70.304688 C 289.550781 68.960938 290.050781 68.554688 290.925781 67.867188 C 292.019531 67.023438 293.019531 66.117188 293.019531 64.742188 C 293.019531 62.992188 291.488281 61.898438 289.613281 61.898438 C 287.800781 61.898438 286.582031 63.179688 286.582031 64.492188 C 286.582031 65.242188 287.207031 65.335938 287.363281 65.335938 C 287.707031 65.335938 288.144531 65.085938 288.144531 64.554688 C 288.144531 64.304688 288.019531 63.773438 287.269531 63.773438 C 287.738281 62.742188 288.707031 62.429688 289.394531 62.429688 C 290.863281 62.429688 291.613281 63.554688 291.613281 64.742188 C 291.613281 65.992188 290.707031 66.992188 290.238281 67.523438 L 286.738281 70.992188 C 286.582031 71.117188 286.582031 71.148438 286.582031 71.554688 L 292.582031 71.554688 Z M 293.019531 68.898438 "/>
<path fill-rule="nonzero" fill="rgb(0%, 0%, 0%)" fill-opacity="1" d="M 301.425781 69.054688 C 301.425781 67.898438 300.488281 66.773438 298.894531 66.429688 C 300.425781 65.898438 300.988281 64.804688 300.988281 63.898438 C 300.988281 62.773438 299.644531 61.898438 298.050781 61.898438 C 296.425781 61.898438 295.207031 62.679688 295.207031 63.867188 C 295.207031 64.335938 295.519531 64.617188 295.957031 64.617188 C 296.394531 64.617188 296.675781 64.304688 296.675781 63.867188 C 296.675781 63.460938 296.394531 63.148438 295.957031 63.117188 C 296.457031 62.492188 297.457031 62.335938 297.988281 62.335938 C 298.644531 62.335938 299.550781 62.648438 299.550781 63.898438 C 299.550781 64.523438 299.363281 65.179688 298.988281 65.648438 C 298.519531 66.179688 298.113281 66.210938 297.363281 66.273438 C 297.019531 66.304688 296.988281 66.304688 296.894531 66.304688 C 296.894531 66.304688 296.769531 66.335938 296.769531 66.492188 C 296.769531 66.710938 296.894531 66.710938 297.144531 66.710938 L 297.925781 66.710938 C 299.050781 66.710938 299.863281 67.492188 299.863281 69.054688 C 299.863281 70.835938 298.832031 71.367188 297.988281 71.367188 C 297.394531 71.367188 296.113281 71.210938 295.519531 70.367188 C 296.207031 70.335938 296.363281 69.867188 296.363281 69.554688 C 296.363281 69.085938 296.019531 68.742188 295.550781 68.742188 C 295.144531 68.742188 294.738281 68.992188 294.738281 69.585938 C 294.738281 70.960938 296.238281 71.835938 298.019531 71.835938 C 300.019531 71.835938 301.425781 70.492188 301.425781 69.054688 Z M 301.425781 69.054688 "/>
<path fill="none" stroke-width="0.3985" stroke-linecap="butt" stroke-linejoin="miter" stroke="rgb(0%, 0%, 0%)" stroke-opacity="1" stroke-miterlimit="10" d="M 1.150406 1.994438 L 25.501968 44.170219 " transform="matrix(2, 0, 0, -2, 186.082001, 127.692001)"/>
<path fill-rule="nonzero" fill="rgb(0%, 0%, 0%)" fill-opacity="1" stroke-width="0.3985" stroke-linecap="butt" stroke-linejoin="miter" stroke="rgb(0%, 0%, 0%)" stroke-opacity="1" stroke-miterlimit="10" d="M 4.691419 0.000671049 L 0.644646 1.525246 L 1.971803 0.000108233 L 0.642332 -1.52531 Z M 4.691419 0.000671049 " transform="matrix(1.00004, -1.732, -1.732, -1.00004, 235.215805, 42.594959)"/>
<path fill-rule="nonzero" fill="rgb(0%, 0%, 0%)" fill-opacity="1" d="M 187.890625 59.878906 C 186.359375 59.878906 185.171875 60.972656 184.421875 61.878906 C 183.578125 62.878906 182.921875 64.378906 182.921875 66.097656 C 182.921875 67.722656 183.484375 68.722656 185.046875 68.722656 C 186.421875 68.722656 187.703125 67.722656 188.484375 66.441406 L 188.171875 66.222656 C 187.640625 67.003906 186.546875 68.285156 185.453125 68.285156 C 184.640625 68.285156 184.296875 67.597656 184.296875 66.441406 C 184.296875 66.128906 184.359375 65.503906 184.390625 65.191406 C 186.359375 64.785156 189.640625 63.503906 189.640625 61.253906 C 189.640625 60.347656 188.828125 59.878906 187.890625 59.878906 Z M 187.703125 60.316406 C 188.078125 60.316406 188.421875 60.660156 188.421875 61.097656 C 188.421875 62.878906 186.171875 64.191406 184.484375 64.722656 C 184.859375 63.347656 186.078125 60.316406 187.703125 60.316406 Z M 187.703125 60.316406 "/>
<path fill-rule="nonzero" fill="rgb(0%, 0%, 0%)" fill-opacity="1" d="M 196.703125 71.554688 L 196.703125 71.023438 L 196.140625 71.023438 C 194.703125 71.023438 194.703125 70.835938 194.703125 70.367188 L 194.703125 62.304688 C 194.703125 61.929688 194.671875 61.898438 194.265625 61.898438 C 193.328125 62.835938 192.015625 62.835938 191.421875 62.835938 L 191.421875 63.367188 C 191.765625 63.367188 192.734375 63.367188 193.515625 62.960938 L 193.515625 70.367188 C 193.515625 70.835938 193.515625 71.023438 192.078125 71.023438 L 191.515625 71.023438 L 191.515625 71.554688 L 194.109375 71.492188 Z M 196.703125 71.554688 "/>
<path fill-rule="nonzero" fill="rgb(0%, 0%, 0%)" fill-opacity="1" d="M 205.453125 68.898438 L 204.953125 68.898438 C 204.921875 69.242188 204.765625 70.085938 204.578125 70.242188 C 204.453125 70.304688 203.328125 70.304688 203.140625 70.304688 L 200.453125 70.304688 C 201.984375 68.960938 202.484375 68.554688 203.359375 67.867188 C 204.453125 67.023438 205.453125 66.117188 205.453125 64.742188 C 205.453125 62.992188 203.921875 61.898438 202.046875 61.898438 C 200.234375 61.898438 199.015625 63.179688 199.015625 64.492188 C 199.015625 65.242188 199.640625 65.335938 199.796875 65.335938 C 200.140625 65.335938 200.578125 65.085938 200.578125 64.554688 C 200.578125 64.304688 200.453125 63.773438 199.703125 63.773438 C 200.171875 62.742188 201.140625 62.429688 201.828125 62.429688 C 203.296875 62.429688 204.046875 63.554688 204.046875 64.742188 C 204.046875 65.992188 203.140625 66.992188 202.671875 67.523438 L 199.171875 70.992188 C 199.015625 71.117188 199.015625 71.148438 199.015625 71.554688 L 205.015625 71.554688 Z M 205.453125 68.898438 "/>
<path fill="none" stroke-width="0.3985" stroke-linecap="butt" stroke-linejoin="miter" stroke="rgb(0%, 0%, 0%)" stroke-opacity="1" stroke-miterlimit="10" d="M 54.701187 -0.00165558 L 5.380875 -0.00165558 " transform="matrix(2, 0, 0, -2, 186.082001, 127.692001)"/>
<path fill-rule="nonzero" fill="rgb(0%, 0%, 0%)" fill-opacity="1" stroke-width="0.3985" stroke-linecap="butt" stroke-linejoin="miter" stroke="rgb(0%, 0%, 0%)" stroke-opacity="1" stroke-miterlimit="10" d="M 4.692314 0.00165558 L 0.641533 1.525093 L 1.973564 0.00165558 L 0.641533 -1.525688 Z M 4.692314 0.00165558 " transform="matrix(-2, 0, 0, 2, 200.587753, 127.692001)"/>
<path fill-rule="nonzero" fill="rgb(0%, 0%, 0%)" fill-opacity="1" d="M 235.8125 108.976562 C 234.28125 108.976562 233.09375 110.070312 232.34375 110.976562 C 231.5 111.976562 230.84375 113.476562 230.84375 115.195312 C 230.84375 116.820312 231.40625 117.820312 232.96875 117.820312 C 234.34375 117.820312 235.625 116.820312 236.40625 115.539062 L 236.09375 115.320312 C 235.5625 116.101562 234.46875 117.382812 233.375 117.382812 C 232.5625 117.382812 232.21875 116.695312 232.21875 115.539062 C 232.21875 115.226562 232.28125 114.601562 232.3125 114.289062 C 234.28125 113.882812 237.5625 112.601562 237.5625 110.351562 C 237.5625 109.445312 236.75 108.976562 235.8125 108.976562 Z M 235.625 109.414062 C 236 109.414062 236.34375 109.757812 236.34375 110.195312 C 236.34375 111.976562 234.09375 113.289062 232.40625 113.820312 C 232.78125 112.445312 234 109.414062 235.625 109.414062 Z M 235.625 109.414062 "/>
<path fill-rule="nonzero" fill="rgb(0%, 0%, 0%)" fill-opacity="1" d="M 245.21875 118.152344 C 245.21875 116.996094 244.28125 115.871094 242.6875 115.527344 C 244.21875 114.996094 244.78125 113.902344 244.78125 112.996094 C 244.78125 111.871094 243.4375 110.996094 241.84375 110.996094 C 240.21875 110.996094 239 111.777344 239 112.964844 C 239 113.433594 239.3125 113.714844 239.75 113.714844 C 240.1875 113.714844 240.46875 113.402344 240.46875 112.964844 C 240.46875 112.558594 240.1875 112.246094 239.75 112.214844 C 240.25 111.589844 241.25 111.433594 241.78125 111.433594 C 242.4375 111.433594 243.34375 111.746094 243.34375 112.996094 C 243.34375 113.621094 243.15625 114.277344 242.78125 114.746094 C 242.3125 115.277344 241.90625 115.308594 241.15625 115.371094 C 240.8125 115.402344 240.78125 115.402344 240.6875 115.402344 C 240.6875 115.402344 240.5625 115.433594 240.5625 115.589844 C 240.5625 115.808594 240.6875 115.808594 240.9375 115.808594 L 241.71875 115.808594 C 242.84375 115.808594 243.65625 116.589844 243.65625 118.152344 C 243.65625 119.933594 242.625 120.464844 241.78125 120.464844 C 241.1875 120.464844 239.90625 120.308594 239.3125 119.464844 C 240 119.433594 240.15625 118.964844 240.15625 118.652344 C 240.15625 118.183594 239.8125 117.839844 239.34375 117.839844 C 238.9375 117.839844 238.53125 118.089844 238.53125 118.683594 C 238.53125 120.058594 240.03125 120.933594 241.8125 120.933594 C 243.8125 120.933594 245.21875 119.589844 245.21875 118.152344 Z M 245.21875 118.152344 "/>
<path fill-rule="nonzero" fill="rgb(0%, 0%, 0%)" fill-opacity="1" d="M 252.90625 120.652344 L 252.90625 120.121094 L 252.34375 120.121094 C 250.90625 120.121094 250.90625 119.933594 250.90625 119.464844 L 250.90625 111.402344 C 250.90625 111.027344 250.875 110.996094 250.46875 110.996094 C 249.53125 111.933594 248.21875 111.933594 247.625 111.933594 L 247.625 112.464844 C 247.96875 112.464844 248.9375 112.464844 249.71875 112.058594 L 249.71875 119.464844 C 249.71875 119.933594 249.71875 120.121094 248.28125 120.121094 L 247.71875 120.121094 L 247.71875 120.652344 L 250.3125 120.589844 Z M 252.90625 120.652344 "/>
<path fill-rule="nonzero" fill="rgb(0%, 0%, 0%)" fill-opacity="1" d="M 123.53125 141.972656 L 120.625 152.566406 C 120.40625 153.160156 119.90625 153.316406 119.0625 153.316406 L 119 153.597656 L 123.5625 153.597656 L 123.625 153.316406 C 122.75 153.285156 122.03125 153.253906 122.03125 152.566406 C 122.03125 152.472656 122.03125 152.378906 122.03125 152.285156 C 122.09375 152.191406 122.09375 152.035156 122.15625 151.878906 L 122.875 149.285156 C 124.5625 149.066406 126.09375 148.285156 127.125 147.378906 C 128.0625 146.566406 129 145.347656 129 143.691406 C 129 141.910156 127.875 140.878906 126.09375 140.878906 C 125.75 140.878906 125.40625 140.910156 125.0625 141.003906 L 125.65625 138.847656 L 124.40625 138.847656 L 123.6875 141.347656 C 123.15625 141.597656 122.59375 141.941406 122.09375 142.316406 C 121.59375 142.691406 121.21875 143.097656 120.78125 143.535156 L 121.15625 143.847656 C 121.78125 143.191406 122.71875 142.410156 123.53125 141.972656 Z M 127.46875 143.816406 C 127.46875 145.003906 126.84375 146.410156 126.15625 147.128906 C 125.40625 147.878906 124.1875 148.628906 123 148.847656 L 124.96875 141.472656 C 125.09375 141.441406 125.25 141.441406 125.34375 141.441406 C 125.5 141.378906 125.65625 141.378906 125.78125 141.378906 C 127.03125 141.378906 127.46875 142.628906 127.46875 143.816406 Z M 127.46875 143.816406 "/>
<path fill-rule="nonzero" fill="rgb(0%, 0%, 0%)" fill-opacity="1" d="M 134.378906 152.679688 C 135.660156 152.679688 136.285156 151.460938 136.660156 150.773438 L 136.441406 150.648438 C 136.128906 151.085938 135.566406 152.085938 135.128906 152.085938 C 134.910156 152.085938 134.910156 151.710938 134.910156 151.585938 C 134.910156 151.429688 134.972656 151.179688 135.097656 150.804688 C 135.191406 150.460938 135.316406 150.054688 135.503906 149.492188 C 135.722656 148.710938 135.972656 147.679688 135.972656 147.148438 C 135.972656 146.523438 135.753906 146.210938 135.097656 146.210938 C 134.003906 146.210938 133.160156 147.117188 132.597656 148.117188 L 132.566406 148.054688 C 132.660156 147.773438 132.691406 147.554688 132.691406 147.148438 C 132.691406 146.554688 132.597656 146.210938 132.003906 146.210938 C 130.660156 146.210938 130.285156 147.460938 129.910156 148.585938 L 130.222656 148.648438 C 130.378906 148.085938 130.910156 146.554688 131.566406 146.554688 C 131.691406 146.554688 131.847656 146.679688 131.847656 146.898438 C 131.847656 147.179688 131.753906 147.710938 131.660156 147.992188 C 131.472656 148.617188 131.347656 149.179688 131.097656 149.867188 L 130.222656 152.554688 L 131.191406 152.554688 L 132.035156 150.054688 C 132.347656 149.273438 132.847656 148.148438 133.347656 147.523438 C 133.660156 147.148438 134.222656 146.523438 134.722656 146.523438 C 134.910156 146.523438 135.035156 146.679688 135.035156 146.960938 C 135.035156 147.023438 135.003906 147.273438 135.003906 147.335938 C 134.910156 147.835938 134.785156 148.210938 134.660156 148.648438 C 134.347656 149.710938 134.191406 150.429688 133.878906 151.398438 C 133.878906 151.523438 133.816406 151.648438 133.816406 151.742188 C 133.816406 152.242188 133.910156 152.679688 134.378906 152.679688 Z M 134.378906 152.679688 "/>
<path fill-rule="nonzero" fill="rgb(0%, 0%, 0%)" fill-opacity="1" d="M 66.730469 141.972656 L 63.824219 152.566406 C 63.605469 153.160156 63.105469 153.316406 62.261719 153.316406 L 62.199219 153.597656 L 66.761719 153.597656 L 66.824219 153.316406 C 65.949219 153.285156 65.230469 153.253906 65.230469 152.566406 C 65.230469 152.472656 65.230469 152.378906 65.230469 152.285156 C 65.292969 152.191406 65.292969 152.035156 65.355469 151.878906 L 66.074219 149.285156 C 67.761719 149.066406 69.292969 148.285156 70.324219 147.378906 C 71.261719 146.566406 72.199219 145.347656 72.199219 143.691406 C 72.199219 141.910156 71.074219 140.878906 69.292969 140.878906 C 68.949219 140.878906 68.605469 140.910156 68.261719 141.003906 L 68.855469 138.847656 L 67.605469 138.847656 L 66.886719 141.347656 C 66.355469 141.597656 65.792969 141.941406 65.292969 142.316406 C 64.792969 142.691406 64.417969 143.097656 63.980469 143.535156 L 64.355469 143.847656 C 64.980469 143.191406 65.917969 142.410156 66.730469 141.972656 Z M 70.667969 143.816406 C 70.667969 145.003906 70.042969 146.410156 69.355469 147.128906 C 68.605469 147.878906 67.386719 148.628906 66.199219 148.847656 L 68.167969 141.472656 C 68.292969 141.441406 68.449219 141.441406 68.542969 141.441406 C 68.699219 141.378906 68.855469 141.378906 68.980469 141.378906 C 70.230469 141.378906 70.667969 142.628906 70.667969 143.816406 Z M 70.667969 143.816406 "/>
<path fill-rule="nonzero" fill="rgb(0%, 0%, 0%)" fill-opacity="1" d="M 80.121094 149.898438 L 79.621094 149.898438 C 79.589844 150.242188 79.433594 151.085938 79.246094 151.242188 C 79.121094 151.304688 77.996094 151.304688 77.808594 151.304688 L 75.121094 151.304688 C 76.652344 149.960938 77.152344 149.554688 78.027344 148.867188 C 79.121094 148.023438 80.121094 147.117188 80.121094 145.742188 C 80.121094 143.992188 78.589844 142.898438 76.714844 142.898438 C 74.902344 142.898438 73.683594 144.179688 73.683594 145.492188 C 73.683594 146.242188 74.308594 146.335938 74.464844 146.335938 C 74.808594 146.335938 75.246094 146.085938 75.246094 145.554688 C 75.246094 145.304688 75.121094 144.773438 74.371094 144.773438 C 74.839844 143.742188 75.808594 143.429688 76.496094 143.429688 C 77.964844 143.429688 78.714844 144.554688 78.714844 145.742188 C 78.714844 146.992188 77.808594 147.992188 77.339844 148.523438 L 73.839844 151.992188 C 73.683594 152.117188 73.683594 152.148438 73.683594 152.554688 L 79.683594 152.554688 Z M 80.121094 149.898438 "/>
<path fill-rule="nonzero" fill="rgb(0%, 0%, 0%)" fill-opacity="1" d="M 10.039062 141.972656 L 7.132812 152.566406 C 6.914062 153.160156 6.414062 153.316406 5.570312 153.316406 L 5.507812 153.597656 L 10.070312 153.597656 L 10.132812 153.316406 C 9.257812 153.285156 8.539062 153.253906 8.539062 152.566406 C 8.539062 152.472656 8.539062 152.378906 8.539062 152.285156 C 8.601562 152.191406 8.601562 152.035156 8.664062 151.878906 L 9.382812 149.285156 C 11.070312 149.066406 12.601562 148.285156 13.632812 147.378906 C 14.570312 146.566406 15.507812 145.347656 15.507812 143.691406 C 15.507812 141.910156 14.382812 140.878906 12.601562 140.878906 C 12.257812 140.878906 11.914062 140.910156 11.570312 141.003906 L 12.164062 138.847656 L 10.914062 138.847656 L 10.195312 141.347656 C 9.664062 141.597656 9.101562 141.941406 8.601562 142.316406 C 8.101562 142.691406 7.726562 143.097656 7.289062 143.535156 L 7.664062 143.847656 C 8.289062 143.191406 9.226562 142.410156 10.039062 141.972656 Z M 13.976562 143.816406 C 13.976562 145.003906 13.351562 146.410156 12.664062 147.128906 C 11.914062 147.878906 10.695312 148.628906 9.507812 148.847656 L 11.476562 141.472656 C 11.601562 141.441406 11.757812 141.441406 11.851562 141.441406 C 12.007812 141.378906 12.164062 141.378906 12.289062 141.378906 C 13.539062 141.378906 13.976562 142.628906 13.976562 143.816406 Z M 13.976562 143.816406 "/>
<path fill-rule="nonzero" fill="rgb(0%, 0%, 0%)" fill-opacity="1" d="M 22.960938 152.554688 L 22.960938 152.023438 L 22.398438 152.023438 C 20.960938 152.023438 20.960938 151.835938 20.960938 151.367188 L 20.960938 143.304688 C 20.960938 142.929688 20.929688 142.898438 20.523438 142.898438 C 19.585938 143.835938 18.273438 143.835938 17.679688 143.835938 L 17.679688 144.367188 C 18.023438 144.367188 18.992188 144.367188 19.773438 143.960938 L 19.773438 151.367188 C 19.773438 151.835938 19.773438 152.023438 18.335938 152.023438 L 17.773438 152.023438 L 17.773438 152.554688 L 20.367188 152.492188 Z M 22.960938 152.554688 "/>
<path fill="none" stroke-width="0.3985" stroke-linecap="butt" stroke-linejoin="miter" stroke="rgb(0%, 0%, 0%)" stroke-opacity="1" stroke-miterlimit="10" d="M -83.048813 -0.00165558 L -62.07225 -0.00165558 " transform="matrix(2, 0, 0, -2, 186.082001, 127.692001)"/>
<path fill-rule="nonzero" fill="rgb(0%, 0%, 0%)" fill-opacity="1" stroke-width="0.3985" stroke-linecap="butt" stroke-linejoin="miter" stroke="rgb(0%, 0%, 0%)" stroke-opacity="1" stroke-miterlimit="10" d="M 4.694563 -0.00165558 L 0.643782 1.525688 L 1.971907 -0.00165558 L 0.643782 -1.525093 Z M 4.694563 -0.00165558 " transform="matrix(2, 0, 0, -2, 58.188999, 127.692001)"/>
<path fill-rule="nonzero" fill="rgb(0%, 0%, 0%)" fill-opacity="1" d="M 41.523438 108.976562 C 39.992188 108.976562 38.804688 110.070312 38.054688 110.976562 C 37.210938 111.976562 36.554688 113.476562 36.554688 115.195312 C 36.554688 116.820312 37.117188 117.820312 38.679688 117.820312 C 40.054688 117.820312 41.335938 116.820312 42.117188 115.539062 L 41.804688 115.320312 C 41.273438 116.101562 40.179688 117.382812 39.085938 117.382812 C 38.273438 117.382812 37.929688 116.695312 37.929688 115.539062 C 37.929688 115.226562 37.992188 114.601562 38.023438 114.289062 C 39.992188 113.882812 43.273438 112.601562 43.273438 110.351562 C 43.273438 109.445312 42.460938 108.976562 41.523438 108.976562 Z M 41.335938 109.414062 C 41.710938 109.414062 42.054688 109.757812 42.054688 110.195312 C 42.054688 111.976562 39.804688 113.289062 38.117188 113.820312 C 38.492188 112.445312 39.710938 109.414062 41.335938 109.414062 Z M 41.335938 109.414062 "/>
<path fill-rule="nonzero" fill="rgb(0%, 0%, 0%)" fill-opacity="1" d="M 50.339844 120.652344 L 50.339844 120.121094 L 49.777344 120.121094 C 48.339844 120.121094 48.339844 119.933594 48.339844 119.464844 L 48.339844 111.402344 C 48.339844 111.027344 48.308594 110.996094 47.902344 110.996094 C 46.964844 111.933594 45.652344 111.933594 45.058594 111.933594 L 45.058594 112.464844 C 45.402344 112.464844 46.371094 112.464844 47.152344 112.058594 L 47.152344 119.464844 C 47.152344 119.933594 47.152344 120.121094 45.714844 120.121094 L 45.152344 120.121094 L 45.152344 120.652344 L 47.746094 120.589844 Z M 50.339844 120.652344 "/>
<path fill="none" stroke-width="0.79701" stroke-linecap="butt" stroke-linejoin="miter" stroke="rgb(0%, 0%, 0%)" stroke-opacity="1" stroke-dasharray="2.98883 2.98883" stroke-miterlimit="10" d="M -54.701157 -0.00165558 L -30.337875 -0.00165558 " transform="matrix(2, 0, 0, -2, 186.082001, 127.692001)"/>
<path fill="none" stroke-width="0.3985" stroke-linecap="butt" stroke-linejoin="miter" stroke="rgb(0%, 0%, 0%)" stroke-opacity="1" stroke-miterlimit="10" d="M -26.3535 -0.00165558 L -5.380844 -0.00165558 " transform="matrix(2, 0, 0, -2, 186.082001, 127.692001)"/>
<path fill-rule="nonzero" fill="rgb(0%, 0%, 0%)" fill-opacity="1" stroke-width="0.3985" stroke-linecap="butt" stroke-linejoin="miter" stroke="rgb(0%, 0%, 0%)" stroke-opacity="1" stroke-miterlimit="10" d="M 4.692352 -0.00165558 L 0.641571 1.525688 L 1.973602 -0.00165558 L 0.641571 -1.525093 Z M 4.692352 -0.00165558 " transform="matrix(2, 0, 0, -2, 171.576233, 127.692001)"/>
<path fill-rule="nonzero" fill="rgb(0%, 0%, 0%)" fill-opacity="1" d="M 155.015625 108.867188 C 153.484375 108.867188 152.296875 109.960938 151.546875 110.867188 C 150.703125 111.867188 150.046875 113.367188 150.046875 115.085938 C 150.046875 116.710938 150.609375 117.710938 152.171875 117.710938 C 153.546875 117.710938 154.828125 116.710938 155.609375 115.429688 L 155.296875 115.210938 C 154.765625 115.992188 153.671875 117.273438 152.578125 117.273438 C 151.765625 117.273438 151.421875 116.585938 151.421875 115.429688 C 151.421875 115.117188 151.484375 114.492188 151.515625 114.179688 C 153.484375 113.773438 156.765625 112.492188 156.765625 110.242188 C 156.765625 109.335938 155.953125 108.867188 155.015625 108.867188 Z M 154.828125 109.304688 C 155.203125 109.304688 155.546875 109.648438 155.546875 110.085938 C 155.546875 111.867188 153.296875 113.179688 151.609375 113.710938 C 151.984375 112.335938 153.203125 109.304688 154.828125 109.304688 Z M 154.828125 109.304688 "/>
<path fill-rule="nonzero" fill="rgb(0%, 0%, 0%)" fill-opacity="1" d="M 161.757812 120.667969 C 163.039062 120.667969 163.664062 119.449219 164.039062 118.761719 L 163.820312 118.636719 C 163.507812 119.074219 162.945312 120.074219 162.507812 120.074219 C 162.289062 120.074219 162.289062 119.699219 162.289062 119.574219 C 162.289062 119.417969 162.351562 119.167969 162.476562 118.792969 C 162.570312 118.449219 162.695312 118.042969 162.882812 117.480469 C 163.101562 116.699219 163.351562 115.667969 163.351562 115.136719 C 163.351562 114.511719 163.132812 114.199219 162.476562 114.199219 C 161.382812 114.199219 160.539062 115.105469 159.976562 116.105469 L 159.945312 116.042969 C 160.039062 115.761719 160.070312 115.542969 160.070312 115.136719 C 160.070312 114.542969 159.976562 114.199219 159.382812 114.199219 C 158.039062 114.199219 157.664062 115.449219 157.289062 116.574219 L 157.601562 116.636719 C 157.757812 116.074219 158.289062 114.542969 158.945312 114.542969 C 159.070312 114.542969 159.226562 114.667969 159.226562 114.886719 C 159.226562 115.167969 159.132812 115.699219 159.039062 115.980469 C 158.851562 116.605469 158.726562 117.167969 158.476562 117.855469 L 157.601562 120.542969 L 158.570312 120.542969 L 159.414062 118.042969 C 159.726562 117.261719 160.226562 116.136719 160.726562 115.511719 C 161.039062 115.136719 161.601562 114.511719 162.101562 114.511719 C 162.289062 114.511719 162.414062 114.667969 162.414062 114.949219 C 162.414062 115.011719 162.382812 115.261719 162.382812 115.324219 C 162.289062 115.824219 162.164062 116.199219 162.039062 116.636719 C 161.726562 117.699219 161.570312 118.417969 161.257812 119.386719 C 161.257812 119.511719 161.195312 119.636719 161.195312 119.730469 C 161.195312 120.230469 161.289062 120.667969 161.757812 120.667969 Z M 161.757812 120.667969 "/>
<path fill-rule="nonzero" fill="rgb(0%, 0%, 0%)" fill-opacity="1" d="M 246.757812 29.5 C 246.757812 27.296875 244.976562 25.515625 242.773438 25.515625 C 240.578125 25.515625 238.789062 27.296875 238.789062 29.5 C 238.789062 31.703125 240.578125 33.484375 242.773438 33.484375 C 244.976562 33.484375 246.757812 31.703125 246.757812 29.5 Z M 246.757812 29.5 "/>
<path fill-rule="nonzero" fill="rgb(0%, 0%, 0%)" fill-opacity="1" d="M 190.070312 127.695312 C 190.070312 125.492188 188.28125 123.703125 186.078125 123.703125 C 183.882812 123.703125 182.09375 125.492188 182.09375 127.695312 C 182.09375 129.890625 183.882812 131.679688 186.078125 131.679688 C 188.28125 131.679688 190.070312 129.890625 190.070312 127.695312 Z M 190.070312 127.695312 "/>
<path fill-rule="nonzero" fill="rgb(0%, 0%, 0%)" fill-opacity="1" d="M 303.453125 127.695312 C 303.453125 125.492188 301.671875 123.703125 299.46875 123.703125 C 297.265625 123.703125 295.484375 125.492188 295.484375 127.695312 C 295.484375 129.890625 297.265625 131.679688 299.46875 131.679688 C 301.671875 131.679688 303.453125 129.890625 303.453125 127.695312 Z M 303.453125 127.695312 "/>
<path fill-rule="nonzero" fill="rgb(0%, 0%, 0%)" fill-opacity="1" d="M 133.375 127.695312 C 133.375 125.492188 131.585938 123.703125 129.390625 123.703125 C 127.1875 123.703125 125.40625 125.492188 125.40625 127.695312 C 125.40625 129.890625 127.1875 131.679688 129.390625 131.679688 C 131.585938 131.679688 133.375 129.890625 133.375 127.695312 Z M 133.375 127.695312 "/>
<path fill-rule="nonzero" fill="rgb(0%, 0%, 0%)" fill-opacity="1" d="M 76.679688 127.695312 C 76.679688 125.492188 74.898438 123.703125 72.695312 123.703125 C 70.492188 123.703125 68.710938 125.492188 68.710938 127.695312 C 68.710938 129.890625 70.492188 131.679688 72.695312 131.679688 C 74.898438 131.679688 76.679688 129.890625 76.679688 127.695312 Z M 76.679688 127.695312 "/>
<path fill-rule="nonzero" fill="rgb(0%, 0%, 0%)" fill-opacity="1" d="M 19.984375 127.695312 C 19.984375 125.492188 18.203125 123.703125 16 123.703125 C 13.796875 123.703125 12.015625 125.492188 12.015625 127.695312 C 12.015625 129.890625 13.796875 131.679688 16 131.679688 C 18.203125 131.679688 19.984375 129.890625 19.984375 127.695312 Z M 19.984375 127.695312 "/>
</svg>
