<?xml version="1.0" encoding="UTF-8"?>
<svg xmlns="http://www.w3.org/2000/svg" xmlns:xlink="http://www.w3.org/1999/xlink" width="205.059998" height="104.580002" viewBox="0 0 205.059998 104.580002">
<defs>
<clipPath id="clip-0">
<path clip-rule="nonzero" d="M 22 0 L 195 0 L 195 104.578125 L 22 104.578125 Z M 22 0 "/>
</clipPath>
</defs>
<path fill-rule="nonzero" fill="rgb(0%, 0%, 0%)" fill-opacity="1" d="M 13.960938 13.941406 C 13.960938 13.191406 14.554688 11.722656 16.148438 11.347656 C 16.242188 11.285156 16.335938 11.222656 16.335938 11.128906 C 16.335938 10.941406 16.148438 10.878906 15.929688 10.941406 C 14.398438 11.160156 12.523438 12.441406 12.523438 13.785156 L 12.523438 17.347656 C 12.523438 18.035156 12.398438 19.035156 12.117188 19.222656 C 11.398438 19.691406 10.648438 19.753906 10.210938 19.753906 C 10.117188 19.753906 10.054688 19.878906 10.054688 19.972656 C 10.054688 20.191406 10.148438 20.222656 10.367188 20.253906 C 11.679688 20.316406 12.242188 20.910156 12.460938 21.816406 C 12.523438 22.003906 12.523438 22.035156 12.523438 22.691406 L 12.523438 25.878906 C 12.523438 26.628906 12.304688 27.535156 13.273438 28.222656 C 14.054688 28.753906 15.179688 29.066406 15.929688 29.066406 C 16.148438 29.066406 16.335938 29.066406 16.335938 28.847656 C 16.335938 28.691406 16.210938 28.722656 15.992188 28.660156 C 14.679688 28.316406 14.273438 27.628906 14.023438 26.691406 C 13.960938 26.535156 13.960938 26.472656 13.960938 25.847656 L 13.960938 22.410156 C 13.960938 21.597656 13.804688 21.285156 13.148438 20.691406 C 12.742188 20.316406 12.554688 20.128906 11.992188 19.972656 C 13.617188 19.597656 13.960938 18.753906 13.960938 17.691406 Z M 13.960938 13.941406 "/>
<path fill-rule="nonzero" fill="rgb(0%, 0%, 0%)" fill-opacity="1" d="M 28.054688 25.285156 C 29.710938 25.285156 30.804688 23.378906 31.367188 22.378906 L 31.023438 22.128906 C 30.585938 22.785156 29.648438 24.441406 28.960938 24.441406 C 28.710938 24.441406 28.804688 23.941406 28.804688 23.722656 C 28.804688 23.628906 28.804688 23.503906 28.804688 23.441406 C 29.085938 22.316406 29.617188 20.972656 29.960938 19.785156 C 30.148438 19.160156 30.429688 18.535156 30.429688 17.816406 C 30.429688 16.941406 30.023438 16.441406 29.148438 16.441406 C 28.492188 16.441406 27.992188 16.722656 27.554688 17.097656 C 26.929688 17.660156 26.460938 18.285156 25.960938 19.160156 L 25.898438 19.128906 C 26.054688 18.535156 26.148438 18.410156 26.148438 17.878906 C 26.148438 17.003906 25.679688 16.441406 24.804688 16.441406 C 23.710938 16.441406 22.679688 17.253906 21.679688 19.097656 L 21.648438 19.035156 C 21.804688 18.597656 21.867188 18.222656 21.867188 17.691406 C 21.867188 16.910156 21.710938 16.441406 20.929688 16.441406 C 19.273438 16.441406 18.554688 18.160156 18.023438 19.660156 L 18.367188 19.753906 C 18.585938 19.003906 19.554688 16.847656 20.398438 16.847656 C 20.617188 16.847656 20.710938 17.410156 20.710938 17.722656 C 20.710938 17.816406 20.679688 18.003906 20.617188 18.160156 C 20.304688 19.316406 19.992188 20.253906 19.617188 21.441406 L 18.460938 25.128906 L 19.773438 25.128906 L 21.148438 21.066406 C 21.710938 19.628906 22.585938 18.160156 23.648438 17.222656 C 23.960938 16.972656 24.242188 16.878906 24.460938 16.878906 C 25.117188 16.878906 24.960938 18.503906 24.804688 18.972656 C 24.554688 19.941406 24.242188 20.753906 23.867188 21.910156 L 22.804688 25.128906 L 24.148438 25.128906 C 24.648438 23.628906 25.023438 22.160156 25.523438 20.910156 C 25.992188 19.660156 26.929688 18.222656 27.710938 17.441406 C 28.148438 17.066406 28.460938 16.878906 28.742188 16.878906 C 28.960938 16.878906 29.179688 17.035156 29.179688 17.347656 C 29.179688 18.128906 28.835938 18.878906 28.554688 19.753906 C 28.148438 20.972656 27.773438 21.878906 27.492188 22.910156 C 27.398438 23.378906 27.273438 23.628906 27.273438 24.035156 C 27.273438 24.722656 27.460938 25.285156 28.054688 25.285156 Z M 28.054688 25.285156 "/>
<path fill-rule="nonzero" fill="rgb(0%, 0%, 0%)" fill-opacity="1" d="M 36.007812 22.351562 C 35.382812 22.351562 34.726562 22.851562 34.257812 23.476562 L 34.164062 23.476562 L 35.664062 18.007812 L 33.414062 18.101562 L 33.320312 18.320312 C 33.914062 18.320312 34.382812 18.445312 34.382812 18.882812 C 34.382812 18.945312 34.351562 19.132812 34.289062 19.320312 L 31.757812 28.695312 L 32.726562 28.695312 L 33.445312 26.132812 L 33.820312 26.007812 L 34.601562 27.882812 C 34.757812 28.226562 34.882812 28.476562 35.007812 28.632812 C 35.132812 28.757812 35.289062 28.820312 35.476562 28.820312 C 36.414062 28.820312 36.726562 28.226562 37.226562 27.039062 L 36.976562 26.914062 C 36.695312 27.507812 36.476562 28.101562 36.039062 28.101562 C 35.851562 28.101562 35.601562 27.539062 35.445312 27.101562 L 34.820312 25.570312 L 35.101562 25.414062 C 35.757812 25.101562 36.351562 24.789062 36.726562 24.414062 C 37.101562 24.070312 37.320312 23.695312 37.320312 23.320312 C 37.320312 22.664062 36.851562 22.351562 36.007812 22.351562 Z M 33.632812 25.695312 C 33.757812 25.101562 34.257812 23.945312 34.632812 23.570312 C 34.882812 23.257812 35.414062 22.664062 35.882812 22.664062 C 36.414062 22.664062 36.414062 23.132812 36.414062 23.445312 C 36.382812 24.539062 34.445312 25.351562 33.632812 25.695312 Z M 33.632812 25.695312 "/>
<path fill-rule="nonzero" fill="rgb(0%, 0%, 0%)" fill-opacity="1" d="M 43.199219 13.941406 L 43.199219 17.691406 C 43.199219 18.753906 43.511719 19.597656 45.136719 19.972656 C 44.574219 20.128906 44.386719 20.316406 43.980469 20.691406 C 43.355469 21.285156 43.199219 21.597656 43.199219 22.410156 L 43.199219 25.847656 C 43.199219 26.472656 43.199219 26.535156 43.136719 26.691406 C 42.855469 27.628906 42.480469 28.316406 41.136719 28.660156 C 40.917969 28.722656 40.824219 28.691406 40.824219 28.847656 C 40.824219 29.066406 40.980469 29.066406 41.199219 29.066406 C 41.980469 29.066406 43.074219 28.753906 43.855469 28.222656 C 44.824219 27.535156 44.605469 26.628906 44.605469 25.878906 L 44.605469 22.691406 C 44.605469 22.035156 44.605469 22.003906 44.667969 21.816406 C 44.886719 20.910156 45.449219 20.316406 46.761719 20.253906 C 46.980469 20.222656 47.105469 20.191406 47.105469 19.972656 C 47.105469 19.878906 47.011719 19.753906 46.917969 19.753906 C 46.480469 19.753906 45.730469 19.691406 45.011719 19.222656 C 44.730469 19.035156 44.605469 18.035156 44.605469 17.347656 L 44.605469 13.785156 C 44.605469 12.441406 42.761719 11.160156 41.199219 10.941406 C 40.980469 10.878906 40.824219 10.941406 40.824219 11.128906 C 40.824219 11.222656 40.886719 11.285156 40.980469 11.347656 C 42.574219 11.722656 43.199219 13.191406 43.199219 13.941406 Z M 43.199219 13.941406 "/>
<path fill-rule="nonzero" fill="rgb(0%, 0%, 0%)" fill-opacity="1" d="M 64.527344 24.441406 L 60.089844 20.003906 L 64.527344 15.566406 L 63.746094 14.753906 L 59.308594 19.222656 L 54.871094 14.753906 L 54.089844 15.566406 L 58.496094 20.003906 L 54.089844 24.441406 L 54.871094 25.222656 L 59.308594 20.785156 L 63.746094 25.222656 Z M 64.527344 24.441406 "/>
<path fill-rule="nonzero" fill="rgb(0%, 0%, 0%)" fill-opacity="1" d="M 80.191406 11.566406 L 79.660156 12.285156 C 79.253906 11.878906 78.816406 11.566406 78.378906 11.378906 C 77.910156 11.160156 77.410156 11.097656 76.847656 11.097656 C 76.253906 11.097656 75.722656 11.191406 75.191406 11.378906 C 74.691406 11.597656 74.222656 11.847656 73.847656 12.191406 C 73.472656 12.535156 73.160156 12.941406 72.910156 13.378906 C 72.691406 13.847656 72.597656 14.316406 72.597656 14.847656 C 72.597656 15.410156 72.722656 15.878906 72.972656 16.316406 C 73.253906 16.722656 73.535156 17.128906 73.910156 17.441406 C 74.285156 17.816406 74.691406 18.160156 75.128906 18.472656 C 75.597656 18.753906 75.972656 19.097656 76.347656 19.441406 C 76.722656 19.785156 77.035156 20.128906 77.285156 20.535156 C 77.535156 20.910156 77.660156 21.347656 77.660156 21.847656 C 77.660156 23.441406 76.785156 24.878906 74.722656 24.878906 C 72.628906 24.878906 71.597656 22.691406 71.441406 20.566406 L 71.003906 20.566406 L 70.253906 25.128906 L 70.691406 25.128906 L 71.253906 23.753906 C 72.253906 24.785156 73.378906 25.316406 74.691406 25.316406 C 75.347656 25.316406 75.941406 25.222656 76.503906 24.972656 C 77.035156 24.722656 77.535156 24.441406 77.941406 24.035156 C 78.378906 23.628906 78.691406 23.160156 78.910156 22.628906 C 79.160156 22.097656 79.285156 21.535156 79.285156 20.910156 C 79.285156 20.316406 79.160156 19.753906 78.910156 19.316406 C 78.691406 18.847656 78.378906 18.441406 78.003906 18.097656 C 77.660156 17.722656 77.253906 17.378906 76.816406 17.097656 C 76.378906 16.785156 76.003906 16.503906 75.628906 16.191406 C 75.253906 15.910156 74.972656 15.597656 74.722656 15.253906 C 74.472656 14.910156 74.347656 14.566406 74.347656 14.128906 C 74.347656 12.753906 74.847656 11.503906 76.910156 11.503906 C 78.628906 11.503906 79.316406 13.253906 79.378906 15.066406 L 79.816406 15.066406 L 80.566406 11.566406 Z M 80.191406 11.566406 "/>
<path fill-rule="nonzero" fill="rgb(0%, 0%, 0%)" fill-opacity="1" d="M 85.957031 11.550781 C 85.332031 11.550781 84.675781 12.050781 84.207031 12.675781 L 84.113281 12.675781 L 85.613281 7.207031 L 83.363281 7.300781 L 83.269531 7.519531 C 83.863281 7.519531 84.332031 7.644531 84.332031 8.082031 C 84.332031 8.144531 84.300781 8.332031 84.238281 8.519531 L 81.707031 17.894531 L 82.675781 17.894531 L 83.394531 15.332031 L 83.769531 15.207031 L 84.550781 17.082031 C 84.707031 17.425781 84.832031 17.675781 84.957031 17.832031 C 85.082031 17.957031 85.238281 18.019531 85.425781 18.019531 C 86.363281 18.019531 86.675781 17.425781 87.175781 16.238281 L 86.925781 16.113281 C 86.644531 16.707031 86.425781 17.300781 85.988281 17.300781 C 85.800781 17.300781 85.550781 16.738281 85.394531 16.300781 L 84.769531 14.769531 L 85.050781 14.613281 C 85.707031 14.300781 86.300781 13.988281 86.675781 13.613281 C 87.050781 13.269531 87.269531 12.894531 87.269531 12.519531 C 87.269531 11.863281 86.800781 11.550781 85.957031 11.550781 Z M 83.582031 14.894531 C 83.707031 14.300781 84.207031 13.144531 84.582031 12.769531 C 84.832031 12.457031 85.363281 11.863281 85.832031 11.863281 C 86.363281 11.863281 86.363281 12.332031 86.363281 12.644531 C 86.332031 13.738281 84.394531 14.550781 83.582031 14.894531 Z M 83.582031 14.894531 "/>
<path fill-rule="nonzero" fill="rgb(0%, 0%, 0%)" fill-opacity="1" d="M 164.585938 25.285156 C 166.242188 25.285156 167.335938 23.378906 167.898438 22.378906 L 167.554688 22.128906 C 167.117188 22.785156 166.179688 24.441406 165.492188 24.441406 C 165.242188 24.441406 165.335938 23.941406 165.335938 23.722656 C 165.335938 23.628906 165.335938 23.503906 165.335938 23.441406 C 165.617188 22.316406 166.148438 20.972656 166.492188 19.785156 C 166.679688 19.160156 166.960938 18.535156 166.960938 17.816406 C 166.960938 16.941406 166.554688 16.441406 165.679688 16.441406 C 165.023438 16.441406 164.523438 16.722656 164.085938 17.097656 C 163.460938 17.660156 162.992188 18.285156 162.492188 19.160156 L 162.429688 19.128906 C 162.585938 18.535156 162.679688 18.410156 162.679688 17.878906 C 162.679688 17.003906 162.210938 16.441406 161.335938 16.441406 C 160.242188 16.441406 159.210938 17.253906 158.210938 19.097656 L 158.179688 19.035156 C 158.335938 18.597656 158.398438 18.222656 158.398438 17.691406 C 158.398438 16.910156 158.242188 16.441406 157.460938 16.441406 C 155.804688 16.441406 155.085938 18.160156 154.554688 19.660156 L 154.898438 19.753906 C 155.117188 19.003906 156.085938 16.847656 156.929688 16.847656 C 157.148438 16.847656 157.242188 17.410156 157.242188 17.722656 C 157.242188 17.816406 157.210938 18.003906 157.148438 18.160156 C 156.835938 19.316406 156.523438 20.253906 156.148438 21.441406 L 154.992188 25.128906 L 156.304688 25.128906 L 157.679688 21.066406 C 158.242188 19.628906 159.117188 18.160156 160.179688 17.222656 C 160.492188 16.972656 160.773438 16.878906 160.992188 16.878906 C 161.648438 16.878906 161.492188 18.503906 161.335938 18.972656 C 161.085938 19.941406 160.773438 20.753906 160.398438 21.910156 L 159.335938 25.128906 L 160.679688 25.128906 C 161.179688 23.628906 161.554688 22.160156 162.054688 20.910156 C 162.523438 19.660156 163.460938 18.222656 164.242188 17.441406 C 164.679688 17.066406 164.992188 16.878906 165.273438 16.878906 C 165.492188 16.878906 165.710938 17.035156 165.710938 17.347656 C 165.710938 18.128906 165.367188 18.878906 165.085938 19.753906 C 164.679688 20.972656 164.304688 21.878906 164.023438 22.910156 C 163.929688 23.378906 163.804688 23.628906 163.804688 24.035156 C 163.804688 24.722656 163.992188 25.285156 164.585938 25.285156 Z M 164.585938 25.285156 "/>
<path fill-rule="nonzero" fill="rgb(0%, 0%, 0%)" fill-opacity="1" d="M 172.542969 22.351562 C 171.917969 22.351562 171.261719 22.851562 170.792969 23.476562 L 170.699219 23.476562 L 172.199219 18.007812 L 169.949219 18.101562 L 169.855469 18.320312 C 170.449219 18.320312 170.917969 18.445312 170.917969 18.882812 C 170.917969 18.945312 170.886719 19.132812 170.824219 19.320312 L 168.292969 28.695312 L 169.261719 28.695312 L 169.980469 26.132812 L 170.355469 26.007812 L 171.136719 27.882812 C 171.292969 28.226562 171.417969 28.476562 171.542969 28.632812 C 171.667969 28.757812 171.824219 28.820312 172.011719 28.820312 C 172.949219 28.820312 173.261719 28.226562 173.761719 27.039062 L 173.511719 26.914062 C 173.230469 27.507812 173.011719 28.101562 172.574219 28.101562 C 172.386719 28.101562 172.136719 27.539062 171.980469 27.101562 L 171.355469 25.570312 L 171.636719 25.414062 C 172.292969 25.101562 172.886719 24.789062 173.261719 24.414062 C 173.636719 24.070312 173.855469 23.695312 173.855469 23.320312 C 173.855469 22.664062 173.386719 22.351562 172.542969 22.351562 Z M 170.167969 25.695312 C 170.292969 25.101562 170.792969 23.945312 171.167969 23.570312 C 171.417969 23.257812 171.949219 22.664062 172.417969 22.664062 C 172.949219 22.664062 172.949219 23.132812 172.949219 23.445312 C 172.917969 24.539062 170.980469 25.351562 170.167969 25.695312 Z M 170.167969 25.695312 "/>
<path fill-rule="nonzero" fill="rgb(0%, 0%, 0%)" fill-opacity="1" d="M 43.136719 93.605469 L 43.136719 80.417969 L 40.230469 80.417969 L 36.042969 92.074219 L 35.980469 92.074219 L 31.980469 80.417969 L 28.886719 80.417969 L 28.886719 93.605469 L 29.761719 93.605469 L 29.761719 84.261719 L 29.792969 84.261719 L 33.042969 93.605469 L 36.417969 93.605469 L 39.792969 84.199219 L 39.824219 84.199219 L 39.824219 93.605469 Z M 42.261719 92.730469 L 40.699219 92.730469 L 40.699219 81.292969 L 42.261719 81.292969 Z M 35.324219 92.730469 L 33.667969 92.730469 L 30.105469 82.511719 L 29.699219 81.292969 L 31.292969 81.292969 Z M 35.324219 92.730469 "/>
<path fill-rule="nonzero" fill="rgb(0%, 0%, 0%)" fill-opacity="1" d="M 48.367188 90.828125 C 47.742188 90.828125 47.085938 91.328125 46.617188 91.953125 L 46.523438 91.953125 L 48.023438 86.484375 L 45.773438 86.578125 L 45.679688 86.796875 C 46.273438 86.796875 46.742188 86.921875 46.742188 87.359375 C 46.742188 87.421875 46.710938 87.609375 46.648438 87.796875 L 44.117188 97.171875 L 45.085938 97.171875 L 45.804688 94.609375 L 46.179688 94.484375 L 46.960938 96.359375 C 47.117188 96.703125 47.242188 96.953125 47.367188 97.109375 C 47.492188 97.234375 47.648438 97.296875 47.835938 97.296875 C 48.773438 97.296875 49.085938 96.703125 49.585938 95.515625 L 49.335938 95.390625 C 49.054688 95.984375 48.835938 96.578125 48.398438 96.578125 C 48.210938 96.578125 47.960938 96.015625 47.804688 95.578125 L 47.179688 94.046875 L 47.460938 93.890625 C 48.117188 93.578125 48.710938 93.265625 49.085938 92.890625 C 49.460938 92.546875 49.679688 92.171875 49.679688 91.796875 C 49.679688 91.140625 49.210938 90.828125 48.367188 90.828125 Z M 45.992188 94.171875 C 46.117188 93.578125 46.617188 92.421875 46.992188 92.046875 C 47.242188 91.734375 47.773438 91.140625 48.242188 91.140625 C 48.773438 91.140625 48.773438 91.609375 48.773438 91.921875 C 48.742188 93.015625 46.804688 93.828125 45.992188 94.171875 Z M 45.992188 94.171875 "/>
<path fill-rule="nonzero" fill="rgb(0%, 0%, 0%)" fill-opacity="1" d="M 59.644531 93.859375 L 59.644531 93.015625 L 52.207031 93.015625 L 52.207031 93.859375 Z M 59.644531 93.859375 "/>
<path fill-rule="nonzero" fill="rgb(0%, 0%, 0%)" fill-opacity="1" d="M 68.011719 97.171875 L 68.011719 96.640625 L 67.449219 96.640625 C 66.011719 96.640625 66.011719 96.453125 66.011719 95.984375 L 66.011719 87.921875 C 66.011719 87.546875 65.980469 87.515625 65.574219 87.515625 C 64.636719 88.453125 63.324219 88.453125 62.730469 88.453125 L 62.730469 88.984375 C 63.074219 88.984375 64.042969 88.984375 64.824219 88.578125 L 64.824219 95.984375 C 64.824219 96.453125 64.824219 96.640625 63.386719 96.640625 L 62.824219 96.640625 L 62.824219 97.171875 L 65.417969 97.109375 Z M 68.011719 97.171875 "/>
<path fill-rule="nonzero" fill="rgb(0%, 0%, 0%)" fill-opacity="1" d="M 174.261719 79.886719 L 174.167969 79.761719 C 173.542969 79.855469 171.917969 80.261719 171.449219 80.699219 C 171.230469 80.917969 170.480469 83.480469 170.292969 83.980469 C 169.511719 86.449219 168.699219 88.449219 166.761719 90.230469 C 165.667969 91.230469 163.980469 92.324219 162.480469 92.324219 C 162.167969 92.324219 161.917969 92.199219 161.917969 91.855469 C 161.917969 88.980469 164.355469 83.105469 165.324219 80.136719 C 165.167969 80.011719 164.980469 79.980469 164.792969 79.980469 C 162.636719 79.980469 155.699219 81.980469 155.699219 84.636719 C 155.699219 85.386719 156.855469 87.199219 157.699219 87.199219 C 157.792969 87.199219 157.917969 87.199219 158.011719 87.136719 C 157.667969 86.699219 157.542969 86.136719 157.542969 85.605469 C 157.542969 83.261719 160.886719 81.074219 163.011719 81.011719 C 161.980469 83.886719 159.574219 89.574219 159.574219 92.417969 C 159.574219 93.292969 159.917969 94.011719 160.886719 94.011719 C 162.980469 94.011719 167.386719 90.949219 168.761719 89.355469 C 168.480469 90.230469 168.230469 91.136719 168.230469 92.042969 C 168.230469 92.605469 168.355469 94.230469 169.136719 94.230469 C 170.074219 94.230469 171.511719 93.386719 171.636719 92.417969 C 171.511719 92.542969 171.292969 92.605469 171.105469 92.605469 C 170.542969 92.605469 170.542969 91.824219 170.542969 91.417969 C 170.542969 89.386719 173.011719 81.355469 174.261719 79.886719 Z M 174.261719 79.886719 "/>
<path fill="none" stroke-width="0.5579" stroke-linecap="butt" stroke-linejoin="miter" stroke="rgb(0%, 0%, 0%)" stroke-opacity="1" stroke-miterlimit="10" d="M 3.028439 16.140093 L 25.981564 16.140093 " transform="matrix(2, 0, 0, -2, 92.239998, 52.287998)"/>
<path fill="none" stroke-width="0.5579" stroke-linecap="round" stroke-linejoin="round" stroke="rgb(0%, 0%, 0%)" stroke-opacity="1" stroke-miterlimit="10" d="M -2.900589 3.34619 C -2.369339 1.338378 -1.189651 0.389159 0.00175476 -0.0014658 C -1.189651 -0.392091 -2.369339 -1.337403 -2.900589 -3.349122 " transform="matrix(2, 0, 0, -2, 144.762115, 20.004881)"/>
<path fill-rule="nonzero" fill="rgb(0%, 0%, 0%)" fill-opacity="1" d="M 122.644531 5.589844 C 122.644531 5.058594 122.175781 4.777344 121.800781 4.777344 C 121.394531 4.777344 120.957031 5.089844 120.957031 5.589844 L 121.519531 11.996094 C 121.550781 12.308594 121.613281 12.339844 121.800781 12.339844 C 121.988281 12.339844 122.050781 12.308594 122.082031 11.996094 Z M 122.644531 14.308594 C 122.644531 13.871094 122.269531 13.496094 121.800781 13.496094 C 121.300781 13.496094 120.957031 13.902344 120.957031 14.308594 C 120.957031 14.808594 121.363281 15.152344 121.800781 15.152344 C 122.269531 15.152344 122.644531 14.777344 122.644531 14.308594 Z M 122.644531 14.308594 "/>
<path fill="none" stroke-width="0.5579" stroke-linecap="butt" stroke-linejoin="miter" stroke="rgb(0%, 0%, 0%)" stroke-opacity="1" stroke-miterlimit="10" d="M -21.647343 7.772905 L -21.647343 -9.715376 " transform="matrix(2, 0, 0, -2, 92.239998, 52.287998)"/>
<path fill="none" stroke-width="0.5579" stroke-linecap="round" stroke-linejoin="round" stroke="rgb(0%, 0%, 0%)" stroke-opacity="1" stroke-miterlimit="10" d="M -2.900028 3.346462 C -2.372684 1.33865 -1.189091 0.389431 -0.00159073 -0.001194 C -1.189091 -0.391819 -2.372684 -1.337132 -2.900028 -3.34885 " transform="matrix(0, 2, 2, 0, 48.947701, 72.276619)"/>
<path fill-rule="nonzero" fill="rgb(0%, 0%, 0%)" fill-opacity="1" d="M 24.164062 52.144531 C 24.164062 50.050781 23.507812 48.332031 21.945312 48.332031 C 20.726562 48.332031 19.414062 49.488281 19.414062 50.144531 C 19.414062 50.644531 19.789062 50.832031 20.070312 50.832031 C 20.382812 50.832031 20.570312 50.582031 20.601562 50.550781 C 20.539062 50.519531 20.476562 50.363281 20.476562 50.175781 C 20.476562 50.050781 20.726562 48.769531 21.976562 48.769531 C 23.039062 48.769531 23.257812 50.113281 23.257812 51.300781 C 23.257812 52.175781 23.132812 52.988281 23.132812 52.988281 L 23.101562 52.988281 C 23.101562 52.988281 22.539062 52.082031 21.382812 52.082031 C 18.476562 52.082031 17.289062 54.894531 17.289062 56.394531 C 17.289062 57.769531 18.070312 58.613281 19.695312 58.613281 C 22.195312 58.613281 24.164062 56.082031 24.164062 52.144531 Z M 22.507812 53.769531 C 22.507812 54.144531 22.132812 58.269531 19.789062 58.269531 C 18.976562 58.269531 18.601562 57.800781 18.601562 56.894531 C 18.601562 55.957031 19.195312 52.425781 21.289062 52.425781 C 22.101562 52.425781 22.507812 52.925781 22.507812 53.769531 Z M 22.507812 53.769531 "/>
<path fill-rule="nonzero" fill="rgb(0%, 0%, 0%)" fill-opacity="1" d="M 26.765625 56.464844 C 26.296875 56.464844 25.828125 56.839844 25.484375 57.308594 L 25.390625 57.308594 L 26.515625 53.183594 L 24.828125 53.246094 L 24.765625 53.402344 C 25.203125 53.402344 25.578125 53.527344 25.578125 53.839844 C 25.578125 53.902344 25.546875 54.027344 25.484375 54.183594 L 23.578125 61.246094 L 24.328125 61.246094 L 24.859375 59.308594 L 25.109375 59.214844 L 25.703125 60.652344 C 25.828125 60.902344 25.921875 61.089844 26.015625 61.183594 C 26.109375 61.277344 26.234375 61.339844 26.390625 61.339844 C 27.078125 61.339844 27.328125 60.871094 27.703125 59.996094 L 27.515625 59.902344 C 27.296875 60.339844 27.140625 60.808594 26.796875 60.808594 C 26.671875 60.808594 26.484375 60.371094 26.359375 60.058594 L 25.890625 58.871094 L 26.109375 58.777344 C 26.609375 58.527344 27.046875 58.308594 27.328125 58.027344 C 27.609375 57.746094 27.765625 57.464844 27.765625 57.183594 C 27.765625 56.683594 27.421875 56.464844 26.765625 56.464844 Z M 24.984375 58.964844 C 25.078125 58.527344 25.484375 57.683594 25.734375 57.371094 C 25.921875 57.152344 26.328125 56.683594 26.703125 56.683594 C 27.109375 56.683594 27.109375 57.058594 27.109375 57.277344 C 27.078125 58.089844 25.609375 58.714844 24.984375 58.964844 Z M 24.984375 58.964844 "/>
<path fill-rule="nonzero" fill="rgb(0%, 0%, 0%)" fill-opacity="1" d="M 35.273438 58.746094 L 35.273438 58.121094 L 29.679688 58.121094 L 29.679688 58.746094 Z M 35.273438 58.746094 "/>
<path fill-rule="nonzero" fill="rgb(0%, 0%, 0%)" fill-opacity="1" d="M 41.933594 61.246094 L 41.933594 60.808594 L 41.464844 60.808594 C 40.339844 60.808594 40.339844 60.683594 40.339844 60.308594 L 40.339844 54.277344 C 40.339844 53.964844 40.308594 53.964844 39.964844 53.964844 C 39.246094 54.652344 38.121094 54.652344 37.714844 54.652344 L 37.714844 55.089844 C 38.027344 55.089844 38.746094 55.089844 39.402344 54.777344 L 39.402344 60.308594 C 39.402344 60.683594 39.402344 60.808594 38.277344 60.808594 L 37.808594 60.808594 L 37.808594 61.246094 C 38.402344 61.214844 39.246094 61.214844 39.871094 61.214844 C 40.496094 61.214844 41.339844 61.214844 41.933594 61.246094 Z M 41.933594 61.246094 "/>
<path fill="none" stroke-width="0.5579" stroke-linecap="butt" stroke-linejoin="miter" stroke="rgb(0%, 0%, 0%)" stroke-opacity="1" stroke-miterlimit="10" d="M 36.430782 7.893999 L 36.430782 -9.203657 " transform="matrix(2, 0, 0, -2, 92.239998, 52.287998)"/>
<path fill="none" stroke-width="0.5579" stroke-linecap="round" stroke-linejoin="round" stroke="rgb(0%, 0%, 0%)" stroke-opacity="1" stroke-miterlimit="10" d="M -2.902542 3.348305 C -2.371292 1.340492 -1.191605 0.391273 -0.000198364 0.000648499 C -1.191605 -0.389977 -2.371292 -1.339195 -2.902542 -3.347008 " transform="matrix(0, 2, 2, 0, 165.100266, 71.250397)"/>
<path fill-rule="nonzero" fill="rgb(0%, 0%, 0%)" fill-opacity="1" d="M 170.65625 60.660156 C 170.34375 60.660156 170.28125 60.472656 170.21875 60.222656 C 170.15625 59.972656 170.03125 59.691406 169.71875 59.691406 C 169.46875 59.691406 169.34375 59.910156 169.34375 60.128906 C 169.34375 60.722656 170.09375 61.003906 170.5625 61.003906 C 171.40625 61.003906 171.46875 60.753906 171.84375 60.222656 C 172.09375 59.941406 172.25 59.535156 172.4375 59.035156 C 172.625 58.535156 172.9375 57.878906 173.125 57.097656 L 174.4375 52.066406 L 175.625 52.066406 L 175.75 51.722656 L 174.53125 51.722656 C 174.84375 50.597656 175.3125 48.628906 175.625 48.035156 C 175.75 47.847656 176 47.566406 176.375 47.566406 C 176.65625 47.566406 176.78125 47.753906 176.84375 48.003906 C 176.90625 48.285156 177 48.535156 177.34375 48.535156 C 177.59375 48.535156 177.71875 48.347656 177.71875 48.128906 C 177.71875 47.535156 176.96875 47.253906 176.46875 47.253906 C 174.65625 47.285156 173.96875 50.191406 173.5625 51.722656 L 172.375 51.722656 L 172.28125 52.066406 L 173.46875 52.066406 L 171.5625 59.253906 C 171.46875 59.597656 171.1875 60.660156 170.65625 60.660156 Z M 170.65625 60.660156 "/>
<path fill-rule="nonzero" fill="rgb(0%, 0%, 0%)" fill-opacity="1" d="M 177.925781 56.011719 C 177.457031 56.011719 176.988281 56.386719 176.644531 56.855469 L 176.550781 56.855469 L 177.675781 52.730469 L 175.988281 52.792969 L 175.925781 52.949219 C 176.363281 52.949219 176.738281 53.074219 176.738281 53.386719 C 176.738281 53.449219 176.707031 53.574219 176.644531 53.730469 L 174.738281 60.792969 L 175.488281 60.792969 L 176.019531 58.855469 L 176.269531 58.761719 L 176.863281 60.199219 C 176.988281 60.449219 177.082031 60.636719 177.175781 60.730469 C 177.269531 60.824219 177.394531 60.886719 177.550781 60.886719 C 178.238281 60.886719 178.488281 60.417969 178.863281 59.542969 L 178.675781 59.449219 C 178.457031 59.886719 178.300781 60.355469 177.957031 60.355469 C 177.832031 60.355469 177.644531 59.917969 177.519531 59.605469 L 177.050781 58.417969 L 177.269531 58.324219 C 177.769531 58.074219 178.207031 57.855469 178.488281 57.574219 C 178.769531 57.292969 178.925781 57.011719 178.925781 56.730469 C 178.925781 56.230469 178.582031 56.011719 177.925781 56.011719 Z M 176.144531 58.511719 C 176.238281 58.074219 176.644531 57.230469 176.894531 56.917969 C 177.082031 56.699219 177.488281 56.230469 177.863281 56.230469 C 178.269531 56.230469 178.269531 56.605469 178.269531 56.824219 C 178.238281 57.636719 176.769531 58.261719 176.144531 58.511719 Z M 176.144531 58.511719 "/>
<path fill-rule="nonzero" fill="rgb(0%, 0%, 0%)" fill-opacity="1" d="M 187.023438 54.191406 C 187.023438 52.722656 185.835938 51.503906 184.335938 51.503906 C 182.804688 51.503906 181.617188 52.722656 181.617188 54.191406 C 181.617188 55.722656 182.804688 56.910156 184.335938 56.910156 C 185.835938 56.910156 187.023438 55.722656 187.023438 54.191406 Z M 186.335938 54.191406 C 186.335938 55.316406 185.429688 56.222656 184.335938 56.222656 C 183.210938 56.222656 182.304688 55.316406 182.304688 54.191406 C 182.304688 53.097656 183.210938 52.191406 184.335938 52.191406 C 185.429688 52.191406 186.335938 53.097656 186.335938 54.191406 Z M 186.335938 54.191406 "/>
<path fill-rule="nonzero" fill="rgb(0%, 0%, 0%)" fill-opacity="1" d="M 193.875 53.097656 C 193.875 52.847656 193.6875 52.566406 193.40625 52.566406 C 193.09375 52.566406 191.875 53.785156 191.46875 54.003906 C 191.46875 53.191406 191.875 52.378906 191.875 51.910156 C 191.875 51.597656 191.6875 51.410156 191.375 51.410156 C 191.0625 51.410156 190.90625 51.597656 190.90625 51.910156 C 190.90625 52.472656 191.25 53.222656 191.25 54.003906 C 190.78125 53.753906 189.65625 52.535156 189.34375 52.535156 C 189.09375 52.535156 188.84375 52.753906 188.84375 53.035156 C 188.84375 53.535156 190.5625 53.878906 191.125 54.191406 C 190.53125 54.566406 189.375 54.722656 189.09375 54.910156 C 188.96875 55.035156 188.84375 55.160156 188.84375 55.347656 C 188.84375 55.597656 189.03125 55.847656 189.3125 55.847656 C 189.625 55.847656 190.8125 54.660156 191.25 54.410156 C 191.25 55.222656 190.84375 56.035156 190.84375 56.535156 C 190.84375 56.816406 191.0625 57.035156 191.34375 57.035156 C 191.65625 57.035156 191.8125 56.816406 191.8125 56.535156 C 191.8125 55.941406 191.46875 55.191406 191.46875 54.410156 C 191.9375 54.660156 193.09375 55.878906 193.375 55.878906 C 193.625 55.878906 193.875 55.660156 193.875 55.378906 C 193.875 55.191406 193.75 55.066406 193.59375 54.972656 C 193.21875 54.722656 192.21875 54.566406 191.59375 54.191406 C 192.28125 53.785156 193.1875 53.753906 193.625 53.503906 C 193.78125 53.410156 193.875 53.285156 193.875 53.097656 Z M 193.875 53.097656 "/>
<path fill-rule="nonzero" fill="rgb(0%, 0%, 0%)" fill-opacity="1" d="M 197.976562 56.011719 C 197.507812 56.011719 197.039062 56.386719 196.695312 56.855469 L 196.601562 56.855469 L 197.726562 52.730469 L 196.039062 52.792969 L 195.976562 52.949219 C 196.414062 52.949219 196.789062 53.074219 196.789062 53.386719 C 196.789062 53.449219 196.757812 53.574219 196.695312 53.730469 L 194.789062 60.792969 L 195.539062 60.792969 L 196.070312 58.855469 L 196.320312 58.761719 L 196.914062 60.199219 C 197.039062 60.449219 197.132812 60.636719 197.226562 60.730469 C 197.320312 60.824219 197.445312 60.886719 197.601562 60.886719 C 198.289062 60.886719 198.539062 60.417969 198.914062 59.542969 L 198.726562 59.449219 C 198.507812 59.886719 198.351562 60.355469 198.007812 60.355469 C 197.882812 60.355469 197.695312 59.917969 197.570312 59.605469 L 197.101562 58.417969 L 197.320312 58.324219 C 197.820312 58.074219 198.257812 57.855469 198.539062 57.574219 C 198.820312 57.292969 198.976562 57.011719 198.976562 56.730469 C 198.976562 56.230469 198.632812 56.011719 197.976562 56.011719 Z M 196.195312 58.511719 C 196.289062 58.074219 196.695312 57.230469 196.945312 56.917969 C 197.132812 56.699219 197.539062 56.230469 197.914062 56.230469 C 198.320312 56.230469 198.320312 56.605469 198.320312 56.824219 C 198.289062 57.636719 196.820312 58.261719 196.195312 58.511719 Z M 196.195312 58.511719 "/>
<g clip-path="url(#clip-0)">
<path fill="none" stroke-width="2.49017" stroke-linecap="butt" stroke-linejoin="miter" stroke="rgb(0%, 0%, 0%)" stroke-opacity="1" stroke-miterlimit="10" d="M 0.20422 -5.215376 L 16.005001 4.10103 " transform="matrix(2, 0, 0, -2, 92.239998, 52.287998)"/>
</g>
<path fill="none" stroke-width="1.37434" stroke-linecap="butt" stroke-linejoin="miter" stroke="rgb(100%, 100%, 100%)" stroke-opacity="1" stroke-miterlimit="10" d="M 0.20422 -5.215376 L 16.005001 4.10103 " transform="matrix(2, 0, 0, -2, 92.239998, 52.287998)"/>
<path fill="none" stroke-width="0.5579" stroke-linecap="round" stroke-linejoin="round" stroke="rgb(0%, 0%, 0%)" stroke-opacity="1" stroke-miterlimit="10" d="M -1.295784 2.560614 C -0.666278 1.205426 1.024263 0.0500347 1.992754 0.000557017 C 1.024363 -0.0497903 -0.665084 -1.207803 -1.294478 -2.55997 " transform="matrix(1.72278, -1.01568, -1.01568, -1.72278, 124.247177, 44.08746)"/>
<path fill-rule="nonzero" fill="rgb(0%, 0%, 0%)" fill-opacity="1" d="M 98.753906 40.121094 C 98.753906 38.652344 97.972656 37.746094 96.597656 37.746094 C 95.691406 37.746094 94.972656 38.371094 94.941406 38.371094 L 94.941406 33.871094 L 94.378906 34.027344 L 94.378906 44.371094 C 94.378906 44.621094 94.472656 44.777344 94.691406 44.777344 C 96.128906 44.777344 98.753906 42.839844 98.753906 40.121094 Z M 97.503906 40.152344 C 97.503906 42.339844 96.316406 44.214844 95.222656 44.214844 C 94.972656 44.214844 94.941406 44.121094 94.941406 44.027344 L 94.941406 39.496094 C 94.941406 38.933594 95.285156 38.121094 96.378906 38.121094 C 97.191406 38.121094 97.503906 39.089844 97.503906 40.152344 Z M 97.503906 40.152344 "/>
<path fill-rule="nonzero" fill="rgb(0%, 0%, 0%)" fill-opacity="1" d="M 102.765625 42.535156 C 102.296875 42.535156 101.828125 42.910156 101.484375 43.378906 L 101.390625 43.378906 L 102.515625 39.253906 L 100.828125 39.316406 L 100.765625 39.472656 C 101.203125 39.472656 101.578125 39.597656 101.578125 39.910156 C 101.578125 39.972656 101.546875 40.097656 101.484375 40.253906 L 99.578125 47.316406 L 100.328125 47.316406 L 100.859375 45.378906 L 101.109375 45.285156 L 101.703125 46.722656 C 101.828125 46.972656 101.921875 47.160156 102.015625 47.253906 C 102.109375 47.347656 102.234375 47.410156 102.390625 47.410156 C 103.078125 47.410156 103.328125 46.941406 103.703125 46.066406 L 103.515625 45.972656 C 103.296875 46.410156 103.140625 46.878906 102.796875 46.878906 C 102.671875 46.878906 102.484375 46.441406 102.359375 46.128906 L 101.890625 44.941406 L 102.109375 44.847656 C 102.609375 44.597656 103.046875 44.378906 103.328125 44.097656 C 103.609375 43.816406 103.765625 43.535156 103.765625 43.253906 C 103.765625 42.753906 103.421875 42.535156 102.765625 42.535156 Z M 100.984375 45.035156 C 101.078125 44.597656 101.484375 43.753906 101.734375 43.441406 C 101.921875 43.222656 102.328125 42.753906 102.703125 42.753906 C 103.109375 42.753906 103.109375 43.128906 103.109375 43.347656 C 103.078125 44.160156 101.609375 44.785156 100.984375 45.035156 Z M 100.984375 45.035156 "/>
<path fill="none" stroke-width="0.5579" stroke-linecap="butt" stroke-linejoin="miter" stroke="rgb(0%, 0%, 0%)" stroke-opacity="1" stroke-miterlimit="10" d="M -6.42078 -18.098188 L 26.618282 -18.098188 " transform="matrix(2, 0, 0, -2, 92.239998, 52.287998)"/>
<path fill="none" stroke-width="0.5579" stroke-linecap="round" stroke-linejoin="round" stroke="rgb(0%, 0%, 0%)" stroke-opacity="1" stroke-miterlimit="10" d="M -2.902496 3.34697 C -2.371246 1.339157 -1.191559 0.389938 -0.000152588 -0.000686646 C -1.191559 -0.391312 -2.371246 -1.34053 -2.902496 -3.348343 " transform="matrix(2, 0, 0, -2, 146.031555, 88.483002)"/>
</svg>
