<?xml version="1.0" encoding="UTF-8"?>
<svg xmlns="http://www.w3.org/2000/svg" xmlns:xlink="http://www.w3.org/1999/xlink" width="786.666667" height="548.666667" viewBox="0 0 786.666667 548.666667">
<defs>
<clipPath id="clip-0">
<path clip-rule="nonzero" d="M 604 444 L 721 444 L 721 548.667969 L 604 548.667969 Z M 604 444 "/>
</clipPath>
<clipPath id="clip-1">
<path clip-rule="nonzero" d="M 653.332031 493.332031 L 727 493.332031 L 727 548.667969 L 653.332031 548.667969 Z M 653.332031 493.332031 "/>
</clipPath>
<clipPath id="clip-2">
<path clip-rule="nonzero" d="M 150 444 L 266.667969 444 L 266.667969 548.667969 L 150 548.667969 Z M 150 444 "/>
</clipPath>
<clipPath id="clip-3">
<path clip-rule="nonzero" d="M 200 493.332031 L 274 493.332031 L 274 548.667969 L 200 548.667969 Z M 200 493.332031 "/>
</clipPath>
<clipPath id="clip-4">
<path clip-rule="nonzero" d="M 537 444 L 654 444 L 654 548.667969 L 537 548.667969 Z M 537 444 "/>
</clipPath>
<clipPath id="clip-5">
<path clip-rule="nonzero" d="M 531 493.332031 L 604 493.332031 L 604 548.667969 L 531 548.667969 Z M 531 493.332031 "/>
</clipPath>
<clipPath id="clip-6">
<path clip-rule="nonzero" d="M 84 444 L 200 444 L 200 548.667969 L 84 548.667969 Z M 84 444 "/>
</clipPath>
<clipPath id="clip-7">
<path clip-rule="nonzero" d="M 77.332031 493.332031 L 151 493.332031 L 151 548.667969 L 77.332031 548.667969 Z M 77.332031 493.332031 "/>
</clipPath>
<clipPath id="clip-8">
<path clip-rule="nonzero" d="M 533.332031 506 L 607 506 L 607 548.667969 L 533.332031 548.667969 Z M 533.332031 506 "/>
</clipPath>
<clipPath id="clip-9">
<path clip-rule="nonzero" d="M 79 506 L 153 506 L 153 548.667969 L 79 548.667969 Z M 79 506 "/>
</clipPath>
</defs>
<path fill-rule="nonzero" fill="rgb(0%, 0%, 0%)" fill-opacity="1" d="M 182.925781 468.988281 C 182.925781 464.832031 179.5625 461.46875 175.40625 461.46875 C 171.261719 461.46875 167.894531 464.832031 167.894531 468.988281 C 167.894531 473.136719 171.261719 476.5 175.40625 476.5 C 179.5625 476.5 182.925781 473.136719 182.925781 468.988281 Z M 182.925781 468.988281 "/>
<path fill-rule="nonzero" fill="rgb(0%, 0%, 0%)" fill-opacity="1" d="M 202.792969 485.472656 C 202.792969 484.015625 202.085938 483.597656 201.628906 483.597656 C 200.960938 483.597656 200.292969 484.308594 200.292969 484.890625 C 200.292969 485.222656 200.417969 485.390625 200.710938 485.683594 C 201.292969 486.222656 201.628906 486.890625 201.628906 487.847656 C 201.628906 488.972656 200.003906 495.058594 196.917969 495.058594 C 195.542969 495.058594 194.917969 494.140625 194.917969 492.722656 C 194.917969 491.265625 195.667969 489.308594 196.460938 487.097656 C 196.667969 486.640625 196.792969 486.265625 196.792969 485.765625 C 196.792969 484.597656 195.960938 483.597656 194.628906 483.597656 C 192.128906 483.597656 191.128906 487.472656 191.128906 487.683594 C 191.128906 487.972656 191.378906 487.972656 191.417969 487.972656 C 191.710938 487.972656 191.710938 487.890625 191.835938 487.472656 C 192.628906 484.808594 193.753906 484.183594 194.542969 484.183594 C 194.753906 484.183594 195.210938 484.183594 195.210938 485.015625 C 195.210938 485.683594 194.917969 486.433594 194.753906 486.890625 C 193.585938 489.972656 193.253906 491.183594 193.253906 492.347656 C 193.253906 495.222656 195.585938 495.640625 196.792969 495.640625 C 201.253906 495.640625 202.792969 486.847656 202.792969 485.472656 Z M 202.792969 485.472656 "/>
<path fill-rule="nonzero" fill="rgb(0%, 0%, 0%)" fill-opacity="1" d="M 209.421875 487.5 C 209.421875 487 209.421875 487 208.878906 487 C 207.671875 488.167969 206.003906 488.167969 205.253906 488.167969 L 205.253906 488.832031 C 205.671875 488.832031 206.921875 488.832031 207.921875 488.332031 L 207.921875 497.792969 C 207.921875 498.417969 207.921875 498.667969 206.089844 498.667969 L 205.378906 498.667969 L 205.378906 499.332031 C 205.714844 499.332031 208.003906 499.25 208.671875 499.25 C 209.253906 499.25 211.589844 499.332031 212.003906 499.332031 L 212.003906 498.667969 L 211.296875 498.667969 C 209.421875 498.667969 209.421875 498.417969 209.421875 497.792969 Z M 209.421875 487.5 "/>
<path fill-rule="nonzero" fill="rgb(0%, 0%, 0%)" fill-opacity="1" d="M 636.46875 468.988281 C 636.46875 464.832031 633.113281 461.46875 628.957031 461.46875 C 624.8125 461.46875 621.449219 464.832031 621.449219 468.988281 C 621.449219 473.136719 624.8125 476.5 628.957031 476.5 C 633.113281 476.5 636.46875 473.136719 636.46875 468.988281 Z M 636.46875 468.988281 "/>
<path fill-rule="nonzero" fill="rgb(0%, 0%, 0%)" fill-opacity="1" d="M 629.019531 487.769531 C 629.019531 486.3125 628.3125 485.894531 627.855469 485.894531 C 627.1875 485.894531 626.519531 486.605469 626.519531 487.1875 C 626.519531 487.519531 626.644531 487.6875 626.9375 487.980469 C 627.519531 488.519531 627.855469 489.1875 627.855469 490.144531 C 627.855469 491.269531 626.230469 497.355469 623.144531 497.355469 C 621.769531 497.355469 621.144531 496.4375 621.144531 495.019531 C 621.144531 493.5625 621.894531 491.605469 622.6875 489.394531 C 622.894531 488.9375 623.019531 488.5625 623.019531 488.0625 C 623.019531 486.894531 622.1875 485.894531 620.855469 485.894531 C 618.355469 485.894531 617.355469 489.769531 617.355469 489.980469 C 617.355469 490.269531 617.605469 490.269531 617.644531 490.269531 C 617.9375 490.269531 617.9375 490.1875 618.0625 489.769531 C 618.855469 487.105469 619.980469 486.480469 620.769531 486.480469 C 620.980469 486.480469 621.4375 486.480469 621.4375 487.3125 C 621.4375 487.980469 621.144531 488.730469 620.980469 489.1875 C 619.8125 492.269531 619.480469 493.480469 619.480469 494.644531 C 619.480469 497.519531 621.8125 497.9375 623.019531 497.9375 C 627.480469 497.9375 629.019531 489.144531 629.019531 487.769531 Z M 629.019531 487.769531 "/>
<path fill-rule="nonzero" fill="rgb(0%, 0%, 0%)" fill-opacity="1" d="M 634.523438 495.421875 C 635.980469 495.421875 637.023438 496.421875 637.023438 498.421875 C 637.023438 500.710938 635.648438 501.421875 634.605469 501.421875 C 633.855469 501.421875 632.191406 501.210938 631.441406 500.085938 C 632.316406 500.085938 632.523438 499.460938 632.523438 499.046875 C 632.523438 498.460938 632.066406 498.046875 631.480469 498.046875 C 630.980469 498.046875 630.441406 498.378906 630.441406 499.128906 C 630.441406 500.878906 632.355469 502.003906 634.605469 502.003906 C 637.191406 502.003906 638.980469 500.253906 638.980469 498.421875 C 638.980469 496.960938 637.816406 495.503906 635.773438 495.085938 C 637.691406 494.378906 638.398438 493.003906 638.398438 491.835938 C 638.398438 490.378906 636.730469 489.296875 634.648438 489.296875 C 632.605469 489.296875 631.023438 490.296875 631.023438 491.796875 C 631.023438 492.421875 631.441406 492.753906 631.980469 492.753906 C 632.566406 492.753906 632.941406 492.335938 632.941406 491.835938 C 632.941406 491.296875 632.566406 490.878906 631.980469 490.835938 C 632.648438 490.046875 633.898438 489.835938 634.605469 489.835938 C 635.441406 489.835938 636.605469 490.253906 636.605469 491.835938 C 636.605469 492.628906 636.355469 493.503906 635.855469 494.046875 C 635.273438 494.753906 634.730469 494.796875 633.816406 494.878906 C 633.355469 494.921875 633.316406 494.921875 633.230469 494.921875 C 633.191406 494.921875 633.023438 494.960938 633.023438 495.171875 C 633.023438 495.421875 633.191406 495.421875 633.523438 495.421875 Z M 634.523438 495.421875 "/>
<path fill-rule="nonzero" fill="rgb(0%, 0%, 0%)" fill-opacity="1" d="M 409.699219 76.21875 C 409.699219 72.0625 406.332031 68.699219 402.1875 68.699219 C 398.03125 68.699219 394.667969 72.0625 394.667969 76.21875 C 394.667969 80.363281 398.03125 83.730469 402.1875 83.730469 C 406.332031 83.730469 409.699219 80.363281 409.699219 76.21875 Z M 409.699219 76.21875 "/>
<path fill-rule="nonzero" fill="rgb(0%, 0%, 0%)" fill-opacity="1" d="M 402.246094 45.136719 C 402.246094 43.675781 401.535156 43.261719 401.078125 43.261719 C 400.410156 43.261719 399.746094 43.96875 399.746094 44.550781 C 399.746094 44.886719 399.871094 45.050781 400.160156 45.34375 C 400.746094 45.886719 401.078125 46.550781 401.078125 47.511719 C 401.078125 48.636719 399.453125 54.71875 396.371094 54.71875 C 394.996094 54.71875 394.371094 53.800781 394.371094 52.386719 C 394.371094 50.925781 395.121094 48.96875 395.910156 46.761719 C 396.121094 46.300781 396.246094 45.925781 396.246094 45.425781 C 396.246094 44.261719 395.410156 43.261719 394.078125 43.261719 C 391.578125 43.261719 390.578125 47.136719 390.578125 47.34375 C 390.578125 47.636719 390.828125 47.636719 390.871094 47.636719 C 391.160156 47.636719 391.160156 47.550781 391.285156 47.136719 C 392.078125 44.46875 393.203125 43.84375 393.996094 43.84375 C 394.203125 43.84375 394.660156 43.84375 394.660156 44.675781 C 394.660156 45.34375 394.371094 46.09375 394.203125 46.550781 C 393.035156 49.636719 392.703125 50.84375 392.703125 52.011719 C 392.703125 54.886719 395.035156 55.300781 396.246094 55.300781 C 400.703125 55.300781 402.246094 46.511719 402.246094 45.136719 Z M 402.246094 45.136719 "/>
<path fill-rule="nonzero" fill="rgb(0%, 0%, 0%)" fill-opacity="1" d="M 412.039062 55.621094 L 411.414062 55.621094 C 411.371094 56.035156 411.164062 57.121094 410.914062 57.285156 C 410.789062 57.410156 409.371094 57.410156 409.082031 57.410156 L 405.664062 57.410156 C 407.621094 55.703125 408.289062 55.160156 409.371094 54.285156 C 410.746094 53.203125 412.039062 52.035156 412.039062 50.285156 C 412.039062 48.035156 410.082031 46.660156 407.707031 46.660156 C 405.414062 46.660156 403.832031 48.285156 403.832031 49.996094 C 403.832031 50.910156 404.621094 51.035156 404.832031 51.035156 C 405.246094 51.035156 405.789062 50.703125 405.789062 50.035156 C 405.789062 49.703125 405.664062 49.035156 404.707031 49.035156 C 405.289062 47.746094 406.539062 47.328125 407.414062 47.328125 C 409.289062 47.328125 410.246094 48.785156 410.246094 50.285156 C 410.246094 51.910156 409.082031 53.160156 408.496094 53.828125 L 404.039062 58.285156 C 403.832031 58.453125 403.832031 58.496094 403.832031 58.996094 L 411.496094 58.996094 Z M 412.039062 55.621094 "/>
<path fill="none" stroke-width="1.19553" stroke-linecap="butt" stroke-linejoin="miter" stroke="rgb(0%, 50.196078%, 50.196078%)" stroke-opacity="1" stroke-miterlimit="10" d="M 86.510551 144.744995 L 165.752739 7.49939 " transform="matrix(2.666667, 0, 0, -2.666667, 175.410665, 468.986654)"/>
<path fill-rule="nonzero" fill="rgb(0%, 50.196078%, 50.196078%)" fill-opacity="1" stroke-width="1.19553" stroke-linecap="butt" stroke-linejoin="miter" stroke="rgb(0%, 50.196078%, 50.196078%)" stroke-opacity="1" stroke-miterlimit="10" d="M 7.50177 -0.000863454 L 1.932581 2.110026 L 3.781375 0.000650205 L 1.931196 -2.111123 Z M 7.50177 -0.000863454 " transform="matrix(1.333333, 2.30936, 2.30936, -1.333333, 612.769165, 440.944092)"/>
<path fill-rule="nonzero" fill="rgb(0%, 50.196078%, 50.196078%)" fill-opacity="1" d="M 530.980469 252.039062 C 531.769531 252.039062 533.730469 251.957031 535.0625 251.414062 C 536.9375 250.625 537.0625 249.039062 537.0625 248.664062 C 537.0625 247.5 536.0625 246.414062 534.230469 246.414062 C 531.269531 246.414062 527.230469 249 527.230469 253.664062 C 527.230469 256.375 528.8125 258.457031 531.4375 258.457031 C 535.230469 258.457031 537.4375 255.625 537.4375 255.332031 C 537.4375 255.164062 537.3125 254.957031 537.144531 254.957031 C 536.980469 254.957031 536.9375 255.039062 536.769531 255.25 C 534.6875 257.875 531.769531 257.875 531.480469 257.875 C 529.394531 257.875 529.144531 255.625 529.144531 254.789062 C 529.144531 254.457031 529.1875 253.664062 529.5625 252.039062 Z M 529.730469 251.457031 C 530.769531 247.414062 533.519531 247 534.230469 247 C 535.4375 247 536.1875 247.789062 536.1875 248.664062 C 536.1875 251.457031 531.9375 251.457031 530.8125 251.457031 Z M 529.730469 251.457031 "/>
<path fill-rule="nonzero" fill="rgb(0%, 50.196078%, 50.196078%)" fill-opacity="1" d="M 547.765625 258.773438 L 547.140625 258.773438 C 547.101562 259.191406 546.890625 260.273438 546.640625 260.441406 C 546.515625 260.566406 545.101562 260.566406 544.808594 260.566406 L 541.390625 260.566406 C 543.351562 258.859375 544.015625 258.316406 545.101562 257.441406 C 546.476562 256.359375 547.765625 255.191406 547.765625 253.441406 C 547.765625 251.191406 545.808594 249.816406 543.433594 249.816406 C 541.140625 249.816406 539.558594 251.441406 539.558594 253.148438 C 539.558594 254.066406 540.351562 254.191406 540.558594 254.191406 C 540.976562 254.191406 541.515625 253.859375 541.515625 253.191406 C 541.515625 252.859375 541.390625 252.191406 540.433594 252.191406 C 541.015625 250.898438 542.265625 250.484375 543.140625 250.484375 C 545.015625 250.484375 545.976562 251.941406 545.976562 253.441406 C 545.976562 255.066406 544.808594 256.316406 544.226562 256.984375 L 539.765625 261.441406 C 539.558594 261.609375 539.558594 261.648438 539.558594 262.148438 L 547.226562 262.148438 Z M 547.765625 258.773438 "/>
<path fill-rule="nonzero" fill="rgb(0%, 50.196078%, 50.196078%)" fill-opacity="1" d="M 554.058594 255.941406 C 555.515625 255.941406 556.558594 256.941406 556.558594 258.941406 C 556.558594 261.234375 555.183594 261.941406 554.140625 261.941406 C 553.390625 261.941406 551.722656 261.734375 550.972656 260.609375 C 551.847656 260.609375 552.058594 259.984375 552.058594 259.566406 C 552.058594 258.984375 551.597656 258.566406 551.015625 258.566406 C 550.515625 258.566406 549.972656 258.898438 549.972656 259.648438 C 549.972656 261.398438 551.890625 262.523438 554.140625 262.523438 C 556.722656 262.523438 558.515625 260.773438 558.515625 258.941406 C 558.515625 257.484375 557.347656 256.023438 555.308594 255.609375 C 557.222656 254.898438 557.933594 253.523438 557.933594 252.359375 C 557.933594 250.898438 556.265625 249.816406 554.183594 249.816406 C 552.140625 249.816406 550.558594 250.816406 550.558594 252.316406 C 550.558594 252.941406 550.972656 253.273438 551.515625 253.273438 C 552.097656 253.273438 552.472656 252.859375 552.472656 252.359375 C 552.472656 251.816406 552.097656 251.398438 551.515625 251.359375 C 552.183594 250.566406 553.433594 250.359375 554.140625 250.359375 C 554.972656 250.359375 556.140625 250.773438 556.140625 252.359375 C 556.140625 253.148438 555.890625 254.023438 555.390625 254.566406 C 554.808594 255.273438 554.265625 255.316406 553.347656 255.398438 C 552.890625 255.441406 552.847656 255.441406 552.765625 255.441406 C 552.722656 255.441406 552.558594 255.484375 552.558594 255.691406 C 552.558594 255.941406 552.722656 255.941406 553.058594 255.941406 Z M 554.058594 255.941406 "/>
<path fill="none" stroke-width="1.19553" stroke-linecap="butt" stroke-linejoin="miter" stroke="rgb(92.54902%, 0%, 54.901961%)" stroke-opacity="1" stroke-miterlimit="10" d="M 1.467583 2.542358 L 80.70977 139.792358 " transform="matrix(2.666667, 0, 0, -2.666667, 175.410665, 468.986654)"/>
<path fill-rule="nonzero" fill="rgb(92.54902%, 0%, 54.901961%)" fill-opacity="1" stroke-width="1.19553" stroke-linecap="butt" stroke-linejoin="miter" stroke="rgb(92.54902%, 0%, 54.901961%)" stroke-opacity="1" stroke-miterlimit="10" d="M 7.504587 0.0002874 L 1.930207 2.10835 L 3.784192 -0.00122626 L 1.929395 -2.108994 Z M 7.504587 0.0002874 " transform="matrix(1.333333, -2.30936, -2.30936, -1.333333, 385.994548, 104.256958)"/>
<path fill-rule="nonzero" fill="rgb(92.54902%, 0%, 54.901961%)" fill-opacity="1" d="M 248.425781 252.039062 C 249.21875 252.039062 251.175781 251.957031 252.511719 251.414062 C 254.386719 250.625 254.511719 249.039062 254.511719 248.664062 C 254.511719 247.5 253.511719 246.414062 251.675781 246.414062 C 248.71875 246.414062 244.675781 249 244.675781 253.664062 C 244.675781 256.375 246.261719 258.457031 248.886719 258.457031 C 252.675781 258.457031 254.886719 255.625 254.886719 255.332031 C 254.886719 255.164062 254.761719 254.957031 254.59375 254.957031 C 254.425781 254.957031 254.386719 255.039062 254.21875 255.25 C 252.136719 257.875 249.21875 257.875 248.925781 257.875 C 246.84375 257.875 246.59375 255.625 246.59375 254.789062 C 246.59375 254.457031 246.636719 253.664062 247.011719 252.039062 Z M 247.175781 251.457031 C 248.21875 247.414062 250.96875 247 251.675781 247 C 252.886719 247 253.636719 247.789062 253.636719 248.664062 C 253.636719 251.457031 249.386719 251.457031 248.261719 251.457031 Z M 247.175781 251.457031 "/>
<path fill-rule="nonzero" fill="rgb(92.54902%, 0%, 54.901961%)" fill-opacity="1" d="M 262.046875 250.316406 C 262.046875 249.816406 262.046875 249.816406 261.507812 249.816406 C 260.296875 250.984375 258.632812 250.984375 257.882812 250.984375 L 257.882812 251.648438 C 258.296875 251.648438 259.546875 251.648438 260.546875 251.148438 L 260.546875 260.609375 C 260.546875 261.234375 260.546875 261.484375 258.714844 261.484375 L 258.007812 261.484375 L 258.007812 262.148438 C 258.339844 262.148438 260.632812 262.066406 261.296875 262.066406 C 261.882812 262.066406 264.214844 262.148438 264.632812 262.148438 L 264.632812 261.484375 L 263.921875 261.484375 C 262.046875 261.484375 262.046875 261.234375 262.046875 260.609375 Z M 262.046875 250.316406 "/>
<path fill-rule="nonzero" fill="rgb(92.54902%, 0%, 54.901961%)" fill-opacity="1" d="M 275.796875 258.773438 L 275.171875 258.773438 C 275.128906 259.191406 274.921875 260.273438 274.671875 260.441406 C 274.546875 260.566406 273.128906 260.566406 272.839844 260.566406 L 269.421875 260.566406 C 271.378906 258.859375 272.046875 258.316406 273.128906 257.441406 C 274.503906 256.359375 275.796875 255.191406 275.796875 253.441406 C 275.796875 251.191406 273.839844 249.816406 271.464844 249.816406 C 269.171875 249.816406 267.589844 251.441406 267.589844 253.148438 C 267.589844 254.066406 268.378906 254.191406 268.589844 254.191406 C 269.003906 254.191406 269.546875 253.859375 269.546875 253.191406 C 269.546875 252.859375 269.421875 252.191406 268.464844 252.191406 C 269.046875 250.898438 270.296875 250.484375 271.171875 250.484375 C 273.046875 250.484375 274.003906 251.941406 274.003906 253.441406 C 274.003906 255.066406 272.839844 256.316406 272.253906 256.984375 L 267.796875 261.441406 C 267.589844 261.609375 267.589844 261.648438 267.589844 262.148438 L 275.253906 262.148438 Z M 275.796875 258.773438 "/>
<path fill="none" stroke-width="1.19553" stroke-linecap="butt" stroke-linejoin="miter" stroke="rgb(0%, 0%, 100%)" stroke-opacity="1" stroke-miterlimit="10" d="M 167.142876 -0.000610352 L 8.658501 -0.000610352 " transform="matrix(2.666667, 0, 0, -2.666667, 175.410665, 468.986654)"/>
<path fill-rule="nonzero" fill="rgb(0%, 0%, 100%)" fill-opacity="1" stroke-width="1.19553" stroke-linecap="butt" stroke-linejoin="miter" stroke="rgb(0%, 0%, 100%)" stroke-opacity="1" stroke-miterlimit="10" d="M 7.503998 0.000610352 L 1.930267 2.109985 L 3.78183 0.000610352 L 1.930267 -2.108765 Z M 7.503998 0.000610352 " transform="matrix(-2.666667, 0, 0, 2.666667, 207.791911, 468.986654)"/>
<path fill-rule="nonzero" fill="rgb(0%, 0%, 100%)" fill-opacity="1" d="M 389.703125 484.75 C 390.496094 484.75 392.453125 484.667969 393.789062 484.125 C 395.664062 483.332031 395.789062 481.75 395.789062 481.375 C 395.789062 480.207031 394.789062 479.125 392.953125 479.125 C 389.996094 479.125 385.953125 481.707031 385.953125 486.375 C 385.953125 489.082031 387.539062 491.167969 390.164062 491.167969 C 393.953125 491.167969 396.164062 488.332031 396.164062 488.042969 C 396.164062 487.875 396.039062 487.667969 395.871094 487.667969 C 395.703125 487.667969 395.664062 487.75 395.496094 487.957031 C 393.414062 490.582031 390.496094 490.582031 390.203125 490.582031 C 388.121094 490.582031 387.871094 488.332031 387.871094 487.5 C 387.871094 487.167969 387.914062 486.375 388.289062 484.75 Z M 388.453125 484.167969 C 389.496094 480.125 392.246094 479.707031 392.953125 479.707031 C 394.164062 479.707031 394.914062 480.5 394.914062 481.375 C 394.914062 484.167969 390.664062 484.167969 389.539062 484.167969 Z M 388.453125 484.167969 "/>
<path fill-rule="nonzero" fill="rgb(0%, 0%, 100%)" fill-opacity="1" d="M 402.199219 488.648438 C 403.660156 488.648438 404.699219 489.648438 404.699219 491.648438 C 404.699219 493.941406 403.324219 494.648438 402.285156 494.648438 C 401.535156 494.648438 399.867188 494.441406 399.117188 493.316406 C 399.992188 493.316406 400.199219 492.691406 400.199219 492.273438 C 400.199219 491.691406 399.742188 491.273438 399.160156 491.273438 C 398.660156 491.273438 398.117188 491.609375 398.117188 492.359375 C 398.117188 494.109375 400.035156 495.234375 402.285156 495.234375 C 404.867188 495.234375 406.660156 493.484375 406.660156 491.648438 C 406.660156 490.191406 405.492188 488.734375 403.449219 488.316406 C 405.367188 487.609375 406.074219 486.234375 406.074219 485.066406 C 406.074219 483.609375 404.410156 482.523438 402.324219 482.523438 C 400.285156 482.523438 398.699219 483.523438 398.699219 485.023438 C 398.699219 485.648438 399.117188 485.984375 399.660156 485.984375 C 400.242188 485.984375 400.617188 485.566406 400.617188 485.066406 C 400.617188 484.523438 400.242188 484.109375 399.660156 484.066406 C 400.324219 483.273438 401.574219 483.066406 402.285156 483.066406 C 403.117188 483.066406 404.285156 483.484375 404.285156 485.066406 C 404.285156 485.859375 404.035156 486.734375 403.535156 487.273438 C 402.949219 487.984375 402.410156 488.023438 401.492188 488.109375 C 401.035156 488.148438 400.992188 488.148438 400.910156 488.148438 C 400.867188 488.148438 400.699219 488.191406 400.699219 488.398438 C 400.699219 488.648438 400.867188 488.648438 401.199219 488.648438 Z M 402.199219 488.648438 "/>
<path fill-rule="nonzero" fill="rgb(0%, 0%, 100%)" fill-opacity="1" d="M 413.90625 483.023438 C 413.90625 482.523438 413.90625 482.523438 413.367188 482.523438 C 412.15625 483.691406 410.492188 483.691406 409.742188 483.691406 L 409.742188 484.359375 C 410.15625 484.359375 411.40625 484.359375 412.40625 483.859375 L 412.40625 493.316406 C 412.40625 493.941406 412.40625 494.191406 410.574219 494.191406 L 409.867188 494.191406 L 409.867188 494.859375 C 410.199219 494.859375 412.492188 494.773438 413.15625 494.773438 C 413.742188 494.773438 416.074219 494.859375 416.492188 494.859375 L 416.492188 494.191406 L 415.78125 494.191406 C 413.90625 494.191406 413.90625 493.941406 413.90625 493.316406 Z M 413.90625 483.023438 "/>
<path fill-rule="nonzero" fill="rgb(50.196078%, 50.196078%, 50.196078%)" fill-opacity="1" d="M 251.613281 396.542969 C 251.613281 394.457031 249.9375 392.78125 247.863281 392.78125 C 245.78125 392.78125 244.105469 394.457031 244.105469 396.542969 C 244.105469 398.613281 245.78125 400.292969 247.863281 400.292969 C 249.9375 400.292969 251.613281 398.613281 251.613281 396.542969 Z M 251.613281 396.542969 "/>
<path fill-rule="nonzero" fill="rgb(50.196078%, 50.196078%, 50.196078%)" fill-opacity="1" d="M 251.613281 541.4375 C 251.613281 539.363281 249.9375 537.675781 247.863281 537.675781 C 245.78125 537.675781 244.105469 539.363281 244.105469 541.4375 C 244.105469 543.511719 245.78125 545.199219 247.863281 545.199219 C 249.9375 545.199219 251.613281 543.511719 251.613281 541.4375 Z M 251.613281 541.4375 "/>
<path fill-rule="nonzero" fill="rgb(50.196078%, 50.196078%, 50.196078%)" fill-opacity="1" d="M 106.71875 541.4375 C 106.71875 539.363281 105.03125 537.675781 102.957031 537.675781 C 100.886719 537.675781 99.207031 539.363281 99.207031 541.4375 C 99.207031 543.511719 100.886719 545.199219 102.957031 545.199219 C 105.03125 545.199219 106.71875 543.511719 106.71875 541.4375 Z M 106.71875 541.4375 "/>
<path fill-rule="nonzero" fill="rgb(50.196078%, 50.196078%, 50.196078%)" fill-opacity="1" d="M 106.71875 396.542969 C 106.71875 394.457031 105.03125 392.78125 102.957031 392.78125 C 100.886719 392.78125 99.207031 394.457031 99.207031 396.542969 C 99.207031 398.613281 100.886719 400.292969 102.957031 400.292969 C 105.03125 400.292969 106.71875 398.613281 106.71875 396.542969 Z M 106.71875 396.542969 "/>
<path fill-rule="nonzero" fill="rgb(0%, 0%, 0%)" fill-opacity="1" d="M 37.878906 459.945312 C 38.089844 459.195312 38.171875 459.03125 38.503906 458.945312 C 38.753906 458.90625 39.628906 458.90625 40.171875 458.90625 C 42.878906 458.90625 44.046875 458.988281 44.046875 461.070312 C 44.046875 461.488281 43.964844 462.53125 43.839844 463.195312 C 43.839844 463.320312 43.753906 463.613281 43.753906 463.695312 C 43.753906 463.863281 43.839844 464.070312 44.089844 464.070312 C 44.378906 464.070312 44.421875 463.863281 44.503906 463.445312 L 45.214844 458.820312 C 45.253906 458.695312 45.253906 458.445312 45.253906 458.363281 C 45.253906 458.070312 45.003906 458.070312 44.546875 458.070312 L 29.796875 458.070312 C 29.171875 458.070312 29.128906 458.113281 28.921875 458.613281 L 27.339844 463.28125 C 27.339844 463.320312 27.171875 463.695312 27.171875 463.78125 C 27.171875 463.90625 27.339844 464.070312 27.503906 464.070312 C 27.753906 464.070312 27.796875 463.90625 27.964844 463.488281 C 29.378906 459.363281 30.089844 458.90625 34.003906 458.90625 L 35.046875 458.90625 C 35.796875 458.90625 35.796875 458.988281 35.796875 459.238281 C 35.796875 459.363281 35.714844 459.695312 35.671875 459.78125 L 32.128906 473.988281 C 31.878906 474.945312 31.796875 475.238281 28.964844 475.238281 C 28.003906 475.238281 27.839844 475.238281 27.839844 475.738281 C 27.839844 476.070312 28.128906 476.070312 28.296875 476.070312 C 29.003906 476.070312 29.753906 476.03125 30.464844 476.03125 C 31.214844 476.03125 32.003906 475.988281 32.753906 475.988281 C 33.503906 475.988281 34.214844 476.03125 34.964844 476.03125 C 35.714844 476.03125 36.503906 476.070312 37.253906 476.070312 C 37.503906 476.070312 37.839844 476.070312 37.839844 475.53125 C 37.839844 475.238281 37.628906 475.238281 36.921875 475.238281 C 36.296875 475.238281 35.921875 475.238281 35.253906 475.195312 C 34.464844 475.113281 34.253906 475.03125 34.253906 474.613281 C 34.253906 474.570312 34.253906 474.445312 34.378906 474.070312 Z M 37.878906 459.945312 "/>
<path fill-rule="nonzero" fill="rgb(0%, 0%, 0%)" fill-opacity="1" d="M 48.28125 468.222656 C 48.28125 467.722656 48.28125 467.722656 47.738281 467.722656 C 46.53125 468.890625 44.863281 468.890625 44.113281 468.890625 L 44.113281 469.554688 C 44.53125 469.554688 45.78125 469.554688 46.78125 469.054688 L 46.78125 478.515625 C 46.78125 479.140625 46.78125 479.390625 44.945312 479.390625 L 44.238281 479.390625 L 44.238281 480.054688 C 44.570312 480.054688 46.863281 479.972656 47.53125 479.972656 C 48.113281 479.972656 50.445312 480.054688 50.863281 480.054688 L 50.863281 479.390625 L 50.15625 479.390625 C 48.28125 479.390625 48.28125 479.140625 48.28125 478.515625 Z M 48.28125 468.222656 "/>
<path fill-rule="nonzero" fill="rgb(0%, 0%, 0%)" fill-opacity="1" d="M 534.9375 67.171875 C 535.148438 66.421875 535.230469 66.257812 535.5625 66.171875 C 535.8125 66.132812 536.6875 66.132812 537.230469 66.132812 C 539.9375 66.132812 541.105469 66.214844 541.105469 68.296875 C 541.105469 68.714844 541.023438 69.757812 540.898438 70.421875 C 540.898438 70.546875 540.8125 70.839844 540.8125 70.921875 C 540.8125 71.089844 540.898438 71.296875 541.148438 71.296875 C 541.4375 71.296875 541.480469 71.089844 541.5625 70.671875 L 542.273438 66.046875 C 542.3125 65.921875 542.3125 65.671875 542.3125 65.589844 C 542.3125 65.296875 542.0625 65.296875 541.605469 65.296875 L 526.855469 65.296875 C 526.230469 65.296875 526.1875 65.339844 525.980469 65.839844 L 524.398438 70.507812 C 524.398438 70.546875 524.230469 70.921875 524.230469 71.007812 C 524.230469 71.132812 524.398438 71.296875 524.5625 71.296875 C 524.8125 71.296875 524.855469 71.132812 525.023438 70.714844 C 526.4375 66.589844 527.148438 66.132812 531.0625 66.132812 L 532.105469 66.132812 C 532.855469 66.132812 532.855469 66.214844 532.855469 66.464844 C 532.855469 66.589844 532.773438 66.921875 532.730469 67.007812 L 529.1875 81.214844 C 528.9375 82.171875 528.855469 82.464844 526.023438 82.464844 C 525.0625 82.464844 524.898438 82.464844 524.898438 82.964844 C 524.898438 83.296875 525.1875 83.296875 525.355469 83.296875 C 526.0625 83.296875 526.8125 83.257812 527.523438 83.257812 C 528.273438 83.257812 529.0625 83.214844 529.8125 83.214844 C 530.5625 83.214844 531.273438 83.257812 532.023438 83.257812 C 532.773438 83.257812 533.5625 83.296875 534.3125 83.296875 C 534.5625 83.296875 534.898438 83.296875 534.898438 82.757812 C 534.898438 82.464844 534.6875 82.464844 533.980469 82.464844 C 533.355469 82.464844 532.980469 82.464844 532.3125 82.421875 C 531.523438 82.339844 531.3125 82.257812 531.3125 81.839844 C 531.3125 81.796875 531.3125 81.671875 531.4375 81.296875 Z M 534.9375 67.171875 "/>
<path fill-rule="nonzero" fill="rgb(0%, 0%, 0%)" fill-opacity="1" d="M 548.503906 83.90625 L 547.878906 83.90625 C 547.839844 84.324219 547.628906 85.40625 547.378906 85.574219 C 547.253906 85.699219 545.839844 85.699219 545.546875 85.699219 L 542.128906 85.699219 C 544.089844 83.992188 544.753906 83.449219 545.839844 82.574219 C 547.214844 81.492188 548.503906 80.324219 548.503906 78.574219 C 548.503906 76.324219 546.546875 74.949219 544.171875 74.949219 C 541.878906 74.949219 540.296875 76.574219 540.296875 78.28125 C 540.296875 79.199219 541.089844 79.324219 541.296875 79.324219 C 541.714844 79.324219 542.253906 78.992188 542.253906 78.324219 C 542.253906 77.992188 542.128906 77.324219 541.171875 77.324219 C 541.753906 76.03125 543.003906 75.617188 543.878906 75.617188 C 545.753906 75.617188 546.714844 77.074219 546.714844 78.574219 C 546.714844 80.199219 545.546875 81.449219 544.964844 82.117188 L 540.503906 86.574219 C 540.296875 86.742188 540.296875 86.78125 540.296875 87.28125 L 547.964844 87.28125 Z M 548.503906 83.90625 "/>
<path fill-rule="nonzero" fill="rgb(0%, 0%, 0%)" fill-opacity="1" d="M 761.710938 459.945312 C 761.921875 459.195312 762.003906 459.03125 762.335938 458.945312 C 762.585938 458.90625 763.460938 458.90625 764.003906 458.90625 C 766.710938 458.90625 767.878906 458.988281 767.878906 461.070312 C 767.878906 461.488281 767.796875 462.53125 767.671875 463.195312 C 767.671875 463.320312 767.585938 463.613281 767.585938 463.695312 C 767.585938 463.863281 767.671875 464.070312 767.921875 464.070312 C 768.210938 464.070312 768.253906 463.863281 768.335938 463.445312 L 769.046875 458.820312 C 769.085938 458.695312 769.085938 458.445312 769.085938 458.363281 C 769.085938 458.070312 768.835938 458.070312 768.378906 458.070312 L 753.628906 458.070312 C 753.003906 458.070312 752.960938 458.113281 752.753906 458.613281 L 751.171875 463.28125 C 751.171875 463.320312 751.003906 463.695312 751.003906 463.78125 C 751.003906 463.90625 751.171875 464.070312 751.335938 464.070312 C 751.585938 464.070312 751.628906 463.90625 751.796875 463.488281 C 753.210938 459.363281 753.921875 458.90625 757.835938 458.90625 L 758.878906 458.90625 C 759.628906 458.90625 759.628906 458.988281 759.628906 459.238281 C 759.628906 459.363281 759.546875 459.695312 759.503906 459.78125 L 755.960938 473.988281 C 755.710938 474.945312 755.628906 475.238281 752.796875 475.238281 C 751.835938 475.238281 751.671875 475.238281 751.671875 475.738281 C 751.671875 476.070312 751.960938 476.070312 752.128906 476.070312 C 752.835938 476.070312 753.585938 476.03125 754.296875 476.03125 C 755.046875 476.03125 755.835938 475.988281 756.585938 475.988281 C 757.335938 475.988281 758.046875 476.03125 758.796875 476.03125 C 759.546875 476.03125 760.335938 476.070312 761.085938 476.070312 C 761.335938 476.070312 761.671875 476.070312 761.671875 475.53125 C 761.671875 475.238281 761.460938 475.238281 760.753906 475.238281 C 760.128906 475.238281 759.753906 475.238281 759.085938 475.195312 C 758.296875 475.113281 758.085938 475.03125 758.085938 474.613281 C 758.085938 474.570312 758.085938 474.445312 758.210938 474.070312 Z M 761.710938 459.945312 "/>
<path fill-rule="nonzero" fill="rgb(0%, 0%, 0%)" fill-opacity="1" d="M 770.988281 473.847656 C 772.445312 473.847656 773.488281 474.847656 773.488281 476.847656 C 773.488281 479.140625 772.113281 479.847656 771.070312 479.847656 C 770.320312 479.847656 768.652344 479.640625 767.902344 478.515625 C 768.777344 478.515625 768.988281 477.890625 768.988281 477.472656 C 768.988281 476.890625 768.527344 476.472656 767.945312 476.472656 C 767.445312 476.472656 766.902344 476.804688 766.902344 477.554688 C 766.902344 479.304688 768.820312 480.429688 771.070312 480.429688 C 773.652344 480.429688 775.445312 478.679688 775.445312 476.847656 C 775.445312 475.390625 774.277344 473.929688 772.238281 473.515625 C 774.152344 472.804688 774.863281 471.429688 774.863281 470.265625 C 774.863281 468.804688 773.195312 467.722656 771.113281 467.722656 C 769.070312 467.722656 767.488281 468.722656 767.488281 470.222656 C 767.488281 470.847656 767.902344 471.179688 768.445312 471.179688 C 769.027344 471.179688 769.402344 470.765625 769.402344 470.265625 C 769.402344 469.722656 769.027344 469.304688 768.445312 469.265625 C 769.113281 468.472656 770.363281 468.265625 771.070312 468.265625 C 771.902344 468.265625 773.070312 468.679688 773.070312 470.265625 C 773.070312 471.054688 772.820312 471.929688 772.320312 472.472656 C 771.738281 473.179688 771.195312 473.222656 770.277344 473.304688 C 769.820312 473.347656 769.777344 473.347656 769.695312 473.347656 C 769.652344 473.347656 769.488281 473.390625 769.488281 473.597656 C 769.488281 473.847656 769.652344 473.847656 769.988281 473.847656 Z M 770.988281 473.847656 "/>
<path fill-rule="nonzero" fill="rgb(50.196078%, 50.196078%, 50.196078%)" fill-opacity="1" d="M 478.394531 3.761719 C 478.394531 1.6875 476.707031 0.0117188 474.636719 0.0117188 C 472.5625 0.0117188 470.875 1.6875 470.875 3.761719 C 470.875 5.84375 472.5625 7.519531 474.636719 7.519531 C 476.707031 7.519531 478.394531 5.84375 478.394531 3.761719 Z M 478.394531 3.761719 "/>
<path fill-rule="nonzero" fill="rgb(50.196078%, 50.196078%, 50.196078%)" fill-opacity="1" d="M 478.394531 148.667969 C 478.394531 146.59375 476.707031 144.90625 474.636719 144.90625 C 472.5625 144.90625 470.875 146.59375 470.875 148.667969 C 470.875 150.738281 472.5625 152.417969 474.636719 152.417969 C 476.707031 152.417969 478.394531 150.738281 478.394531 148.667969 Z M 478.394531 148.667969 "/>
<path fill-rule="nonzero" fill="rgb(50.196078%, 50.196078%, 50.196078%)" fill-opacity="1" d="M 333.488281 148.667969 C 333.488281 146.59375 331.8125 144.90625 329.738281 144.90625 C 327.65625 144.90625 325.980469 146.59375 325.980469 148.667969 C 325.980469 150.738281 327.65625 152.417969 329.738281 152.417969 C 331.8125 152.417969 333.488281 150.738281 333.488281 148.667969 Z M 333.488281 148.667969 "/>
<path fill-rule="nonzero" fill="rgb(50.196078%, 50.196078%, 50.196078%)" fill-opacity="1" d="M 333.488281 3.761719 C 333.488281 1.6875 331.8125 0.0117188 329.738281 0.0117188 C 327.65625 0.0117188 325.980469 1.6875 325.980469 3.761719 C 325.980469 5.84375 327.65625 7.519531 329.738281 7.519531 C 331.8125 7.519531 333.488281 5.84375 333.488281 3.761719 Z M 333.488281 3.761719 "/>
<path fill-rule="nonzero" fill="rgb(50.196078%, 50.196078%, 50.196078%)" fill-opacity="1" d="M 705.167969 396.542969 C 705.167969 394.457031 703.480469 392.78125 701.40625 392.78125 C 699.332031 392.78125 697.65625 394.457031 697.65625 396.542969 C 697.65625 398.613281 699.332031 400.292969 701.40625 400.292969 C 703.480469 400.292969 705.167969 398.613281 705.167969 396.542969 Z M 705.167969 396.542969 "/>
<path fill-rule="nonzero" fill="rgb(50.196078%, 50.196078%, 50.196078%)" fill-opacity="1" d="M 705.167969 541.4375 C 705.167969 539.363281 703.480469 537.675781 701.40625 537.675781 C 699.332031 537.675781 697.65625 539.363281 697.65625 541.4375 C 697.65625 543.511719 699.332031 545.199219 701.40625 545.199219 C 703.480469 545.199219 705.167969 543.511719 705.167969 541.4375 Z M 705.167969 541.4375 "/>
<path fill-rule="nonzero" fill="rgb(50.196078%, 50.196078%, 50.196078%)" fill-opacity="1" d="M 560.269531 541.4375 C 560.269531 539.363281 558.582031 537.675781 556.511719 537.675781 C 554.4375 537.675781 552.75 539.363281 552.75 541.4375 C 552.75 543.511719 554.4375 545.199219 556.511719 545.199219 C 558.582031 545.199219 560.269531 543.511719 560.269531 541.4375 Z M 560.269531 541.4375 "/>
<path fill-rule="nonzero" fill="rgb(50.196078%, 50.196078%, 50.196078%)" fill-opacity="1" d="M 560.269531 396.542969 C 560.269531 394.457031 558.582031 392.78125 556.511719 392.78125 C 554.4375 392.78125 552.75 394.457031 552.75 396.542969 C 552.75 398.613281 554.4375 400.292969 556.511719 400.292969 C 558.582031 400.292969 560.269531 398.613281 560.269531 396.542969 Z M 560.269531 396.542969 "/>
<path fill="none" stroke-width="0.3985" stroke-linecap="butt" stroke-linejoin="miter" stroke="rgb(0%, 0%, 0%)" stroke-opacity="1" stroke-dasharray="2.98883 2.98883" stroke-miterlimit="10" d="M 25.701958 27.166382 L -25.700874 27.166382 " transform="matrix(2.666667, 0, 0, -2.666667, 175.410665, 468.986654)"/>
<path fill="none" stroke-width="0.3985" stroke-linecap="butt" stroke-linejoin="miter" stroke="rgb(0%, 0%, 0%)" stroke-opacity="1" stroke-dasharray="2.98883 2.98883" stroke-miterlimit="10" d="M -27.170113 25.698608 L -27.170113 -25.699829 " transform="matrix(2.666667, 0, 0, -2.666667, 175.410665, 468.986654)"/>
<path fill="none" stroke-width="0.3985" stroke-linecap="butt" stroke-linejoin="miter" stroke="rgb(0%, 0%, 0%)" stroke-opacity="1" stroke-dasharray="2.98883 2.98883" stroke-miterlimit="10" d="M -25.700874 -27.169067 L 25.701958 -27.169067 " transform="matrix(2.666667, 0, 0, -2.666667, 175.410665, 468.986654)"/>
<path fill="none" stroke-width="0.3985" stroke-linecap="butt" stroke-linejoin="miter" stroke="rgb(0%, 0%, 0%)" stroke-opacity="1" stroke-dasharray="2.98883 2.98883" stroke-miterlimit="10" d="M 27.169731 -25.699829 L 27.169731 25.698608 " transform="matrix(2.666667, 0, 0, -2.666667, 175.410665, 468.986654)"/>
<path fill="none" stroke-width="0.3985" stroke-linecap="butt" stroke-linejoin="miter" stroke="rgb(0%, 0%, 0%)" stroke-opacity="1" stroke-dasharray="2.98883 2.98883" stroke-miterlimit="10" d="M 110.740532 174.459351 L 59.342094 174.459351 " transform="matrix(2.666667, 0, 0, -2.666667, 175.410665, 468.986654)"/>
<path fill="none" stroke-width="0.3985" stroke-linecap="butt" stroke-linejoin="miter" stroke="rgb(0%, 0%, 0%)" stroke-opacity="1" stroke-dasharray="2.98883 2.98883" stroke-miterlimit="10" d="M 57.872856 172.991577 L 57.872856 121.588745 " transform="matrix(2.666667, 0, 0, -2.666667, 175.410665, 468.986654)"/>
<path fill="none" stroke-width="0.3985" stroke-linecap="butt" stroke-linejoin="miter" stroke="rgb(0%, 0%, 0%)" stroke-opacity="1" stroke-dasharray="2.98883 2.98883" stroke-miterlimit="10" d="M 59.342094 120.119507 L 110.740532 120.119507 " transform="matrix(2.666667, 0, 0, -2.666667, 175.410665, 468.986654)"/>
<path fill="none" stroke-width="0.3985" stroke-linecap="butt" stroke-linejoin="miter" stroke="rgb(0%, 0%, 0%)" stroke-opacity="1" stroke-dasharray="2.98883 2.98883" stroke-miterlimit="10" d="M 112.20977 121.588745 L 112.20977 172.991577 " transform="matrix(2.666667, 0, 0, -2.666667, 175.410665, 468.986654)"/>
<path fill="none" stroke-width="0.3985" stroke-linecap="butt" stroke-linejoin="miter" stroke="rgb(0%, 0%, 0%)" stroke-opacity="1" stroke-dasharray="2.98883 2.98883" stroke-miterlimit="10" d="M 195.779106 27.166382 L 144.380669 27.166382 " transform="matrix(2.666667, 0, 0, -2.666667, 175.410665, 468.986654)"/>
<path fill="none" stroke-width="0.3985" stroke-linecap="butt" stroke-linejoin="miter" stroke="rgb(0%, 0%, 0%)" stroke-opacity="1" stroke-dasharray="2.98883 2.98883" stroke-miterlimit="10" d="M 142.912895 25.698608 L 142.912895 -25.699829 " transform="matrix(2.666667, 0, 0, -2.666667, 175.410665, 468.986654)"/>
<path fill="none" stroke-width="0.3985" stroke-linecap="butt" stroke-linejoin="miter" stroke="rgb(0%, 0%, 0%)" stroke-opacity="1" stroke-dasharray="2.98883 2.98883" stroke-miterlimit="10" d="M 144.380669 -27.169067 L 195.779106 -27.169067 " transform="matrix(2.666667, 0, 0, -2.666667, 175.410665, 468.986654)"/>
<path fill="none" stroke-width="0.3985" stroke-linecap="butt" stroke-linejoin="miter" stroke="rgb(0%, 0%, 0%)" stroke-opacity="1" stroke-dasharray="2.98883 2.98883" stroke-miterlimit="10" d="M 197.248344 -25.699829 L 197.248344 25.698608 " transform="matrix(2.666667, 0, 0, -2.666667, 175.410665, 468.986654)"/>
<path fill="none" stroke-width="1.59404" stroke-linecap="butt" stroke-linejoin="miter" stroke="rgb(0%, 0%, 0%)" stroke-opacity="1" stroke-miterlimit="10" d="M 2.076958 2.076538 L 21.260551 21.257202 " transform="matrix(2.666667, 0, 0, -2.666667, 175.410665, 468.986654)"/>
<path fill-rule="nonzero" fill="rgb(0%, 0%, 0%)" fill-opacity="1" stroke-width="1.59404" stroke-linecap="butt" stroke-linejoin="miter" stroke="rgb(0%, 0%, 0%)" stroke-opacity="1" stroke-miterlimit="10" d="M 8.910213 0.000739094 L 2.573122 2.40382 L 4.689283 -0.000296717 L 2.573122 -2.402342 Z M 8.910213 0.000739094 " transform="matrix(1.8856, -1.8856, -1.8856, -1.8856, 224.012797, 420.384521)"/>
<path fill="none" stroke-width="0.79701" stroke-linecap="butt" stroke-linejoin="miter" stroke="rgb(0%, 0%, 0%)" stroke-opacity="1" stroke-miterlimit="10" d="M 87.115532 149.366577 L 107.951469 170.19812 " transform="matrix(2.666667, 0, 0, -2.666667, 175.410665, 468.986654)"/>
<path fill-rule="nonzero" fill="rgb(0%, 0%, 0%)" fill-opacity="1" stroke-width="0.79701" stroke-linecap="butt" stroke-linejoin="miter" stroke="rgb(0%, 0%, 0%)" stroke-opacity="1" stroke-miterlimit="10" d="M 6.099096 -0.0017658 L 1.286718 1.815047 L 2.877724 -0.0017658 L 1.286718 -1.818578 Z M 6.099096 -0.0017658 " transform="matrix(1.8856, -1.8856, -1.8856, -1.8856, 458.226685, 20.172906)"/>
<g clip-path="url(#clip-0)">
<path fill="none" stroke-width="0.79701" stroke-linecap="butt" stroke-linejoin="miter" stroke="rgb(0%, 0%, 0%)" stroke-opacity="1" stroke-dasharray="2.98883 2.98883" stroke-miterlimit="10" d="M 172.158501 -2.074829 L 192.990044 -22.910767 " transform="matrix(2.666667, 0, 0, -2.666667, 175.410665, 468.986654)"/>
</g>
<path fill-rule="nonzero" fill="rgb(0%, 0%, 0%)" fill-opacity="1" d="M 696.5 536.53125 L 690.855469 524.03125 L 690.425781 530.457031 L 684 530.886719 Z M 696.5 536.53125 "/>
<g clip-path="url(#clip-1)">
<path fill="none" stroke-width="0.79701" stroke-linecap="butt" stroke-linejoin="miter" stroke="rgb(0%, 0%, 0%)" stroke-opacity="1" stroke-miterlimit="10" d="M 6.099362 -0.0011545 L 1.28802 1.816694 L 2.87799 -0.0011545 L 1.28802 -1.819003 Z M 6.099362 -0.0011545 " transform="matrix(1.8856, 1.8856, 1.8856, -1.8856, 685.001221, 525.028117)"/>
</g>
<g clip-path="url(#clip-2)">
<path fill="none" stroke-width="0.79701" stroke-linecap="butt" stroke-linejoin="miter" stroke="rgb(0%, 0%, 0%)" stroke-opacity="1" stroke-dasharray="0.79701 1.99255" stroke-miterlimit="10" d="M 2.076958 -2.074829 L 22.908501 -22.910767 " transform="matrix(2.666667, 0, 0, -2.666667, 175.410665, 468.986654)"/>
</g>
<path fill-rule="nonzero" fill="rgb(0%, 0%, 0%)" fill-opacity="1" d="M 242.949219 536.53125 L 237.300781 524.03125 L 236.875 530.457031 L 230.449219 530.886719 Z M 242.949219 536.53125 "/>
<g clip-path="url(#clip-3)">
<path fill="none" stroke-width="0.79701" stroke-linecap="butt" stroke-linejoin="miter" stroke="rgb(0%, 0%, 0%)" stroke-opacity="1" stroke-miterlimit="10" d="M 6.098914 -0.00160227 L 1.286537 1.81521 L 2.877542 -0.00160227 L 1.287572 -1.81945 Z M 6.098914 -0.00160227 " transform="matrix(1.8856, 1.8856, 1.8856, -1.8856, 231.452128, 525.028117)"/>
</g>
<path fill="none" stroke-width="1.59404" stroke-linecap="butt" stroke-linejoin="miter" stroke="rgb(0%, 0%, 0%)" stroke-opacity="1" stroke-miterlimit="10" d="M 87.115532 145.213745 L 106.299126 126.030151 " transform="matrix(2.666667, 0, 0, -2.666667, 175.410665, 468.986654)"/>
<path fill-rule="nonzero" fill="rgb(0%, 0%, 0%)" fill-opacity="1" stroke-width="1.59404" stroke-linecap="butt" stroke-linejoin="miter" stroke="rgb(0%, 0%, 0%)" stroke-opacity="1" stroke-miterlimit="10" d="M 8.907359 -0.000550275 L 2.574411 2.400459 L 4.687465 -0.000550275 L 2.574411 -2.40156 Z M 8.907359 -0.000550275 " transform="matrix(1.8856, 1.8856, 1.8856, -1.8856, 450.787354, 124.816528)"/>
<g clip-path="url(#clip-4)">
<path fill="none" stroke-width="0.79701" stroke-linecap="butt" stroke-linejoin="miter" stroke="rgb(0%, 0%, 0%)" stroke-opacity="1" stroke-miterlimit="10" d="M 168.002739 -2.074829 L 147.169731 -22.910767 " transform="matrix(2.666667, 0, 0, -2.666667, 175.410665, 468.986654)"/>
</g>
<path fill-rule="nonzero" fill="rgb(0%, 0%, 0%)" fill-opacity="1" d="M 561.417969 536.53125 L 573.917969 530.886719 L 567.488281 530.457031 L 567.0625 524.03125 Z M 561.417969 536.53125 "/>
<g clip-path="url(#clip-5)">
<path fill="none" stroke-width="0.79701" stroke-linecap="butt" stroke-linejoin="miter" stroke="rgb(0%, 0%, 0%)" stroke-opacity="1" stroke-miterlimit="10" d="M 6.099783 0.000733699 L 1.288441 1.818582 L 2.879446 -0.000302112 L 1.288441 -1.817114 Z M 6.099783 0.000733699 " transform="matrix(-1.8856, 1.8856, 1.8856, 1.8856, 572.918335, 525.028117)"/>
</g>
<g clip-path="url(#clip-6)">
<path fill="none" stroke-width="0.79701" stroke-linecap="butt" stroke-linejoin="miter" stroke="rgb(0%, 0%, 0%)" stroke-opacity="1" stroke-dasharray="2.98883 2.98883" stroke-miterlimit="10" d="M -2.075874 -2.074829 L -22.907417 -22.910767 " transform="matrix(2.666667, 0, 0, -2.666667, 175.410665, 468.986654)"/>
</g>
<path fill-rule="nonzero" fill="rgb(0%, 0%, 0%)" fill-opacity="1" d="M 107.875 536.53125 L 120.363281 530.886719 L 113.9375 530.457031 L 113.519531 524.03125 Z M 107.875 536.53125 "/>
<g clip-path="url(#clip-7)">
<path fill="none" stroke-width="0.79701" stroke-linecap="butt" stroke-linejoin="miter" stroke="rgb(0%, 0%, 0%)" stroke-opacity="1" stroke-miterlimit="10" d="M 6.098148 0.00236834 L 1.289914 1.817109 L 2.879883 -0.000739094 L 1.286806 -1.81548 Z M 6.098148 0.00236834 " transform="matrix(-1.8856, 1.8856, 1.8856, 1.8856, 119.369202, 525.028117)"/>
</g>
<path fill="none" stroke-width="0.79701" stroke-linecap="butt" stroke-linejoin="miter" stroke="rgb(92.54902%, 0%, 54.901961%)" stroke-opacity="1" stroke-miterlimit="10" d="M 112.20977 172.991577 L 112.20977 126.142944 " transform="matrix(2.666667, 0, 0, -2.666667, 175.410665, 468.986654)"/>
<path fill-rule="nonzero" fill="rgb(92.54902%, 0%, 54.901961%)" fill-opacity="1" stroke-width="0.79701" stroke-linecap="butt" stroke-linejoin="miter" stroke="rgb(92.54902%, 0%, 54.901961%)" stroke-opacity="1" stroke-miterlimit="10" d="M 6.097252 0.000762939 L 1.28817 1.817169 L 2.87899 0.000762939 L 1.28817 -1.815643 Z M 6.097252 0.000762939 " transform="matrix(0, 2.666667, 2.666667, 0, 474.634684, 125.459412)"/>
<path fill="none" stroke-width="0.79701" stroke-linecap="butt" stroke-linejoin="miter" stroke="rgb(92.54902%, 0%, 54.901961%)" stroke-opacity="1" stroke-miterlimit="10" d="M 195.779106 -27.169067 L 148.936333 -27.169067 " transform="matrix(2.666667, 0, 0, -2.666667, 175.410665, 468.986654)"/>
<path fill-rule="nonzero" fill="rgb(92.54902%, 0%, 54.901961%)" fill-opacity="1" d="M 563.457031 541.4375 L 576.28125 546.28125 L 572.042969 541.4375 L 576.28125 536.59375 Z M 563.457031 541.4375 "/>
<g clip-path="url(#clip-8)">
<path fill="none" stroke-width="0.79701" stroke-linecap="butt" stroke-linejoin="miter" stroke="rgb(92.54902%, 0%, 54.901961%)" stroke-opacity="1" stroke-miterlimit="10" d="M 6.096649 0.00050354 L 1.287567 1.81691 L 2.876923 0.00050354 L 1.287567 -1.815903 Z M 6.096649 0.00050354 " transform="matrix(-2.666667, 0, 0, 2.666667, 579.714762, 541.436157)"/>
</g>
<path fill="none" stroke-width="0.79701" stroke-linecap="butt" stroke-linejoin="miter" stroke="rgb(92.54902%, 0%, 54.901961%)" stroke-opacity="1" stroke-miterlimit="10" d="M 25.701958 -27.169067 L -21.146675 -27.169067 " transform="matrix(2.666667, 0, 0, -2.666667, 175.410665, 468.986654)"/>
<path fill-rule="nonzero" fill="rgb(92.54902%, 0%, 54.901961%)" fill-opacity="1" d="M 109.90625 541.4375 L 122.730469 546.28125 L 118.488281 541.4375 L 122.730469 536.59375 Z M 109.90625 541.4375 "/>
<g clip-path="url(#clip-9)">
<path fill="none" stroke-width="0.79701" stroke-linecap="butt" stroke-linejoin="miter" stroke="rgb(92.54902%, 0%, 54.901961%)" stroke-opacity="1" stroke-miterlimit="10" d="M 6.097286 0.00050354 L 1.288204 1.81691 L 2.879025 0.00050354 L 1.288204 -1.815903 Z M 6.097286 0.00050354 " transform="matrix(-2.666667, 0, 0, 2.666667, 126.16568, 541.436157)"/>
</g>
<path fill="none" stroke-width="0.79701" stroke-linecap="butt" stroke-linejoin="miter" stroke="rgb(0%, 50.196078%, 50.196078%)" stroke-opacity="1" stroke-miterlimit="10" d="M 142.912895 -25.699829 L 142.912895 21.147339 " transform="matrix(2.666667, 0, 0, -2.666667, 175.410665, 468.986654)"/>
<path fill-rule="nonzero" fill="rgb(0%, 50.196078%, 50.196078%)" fill-opacity="1" stroke-width="0.79701" stroke-linecap="butt" stroke-linejoin="miter" stroke="rgb(0%, 50.196078%, 50.196078%)" stroke-opacity="1" stroke-miterlimit="10" d="M 6.097961 -0.000549316 L 1.28595 1.815857 L 2.8797 -0.000549316 L 1.28595 -1.816956 Z M 6.097961 -0.000549316 " transform="matrix(0, -2.666667, -2.666667, 0, 556.510254, 419.741699)"/>
<path fill="none" stroke-width="0.79701" stroke-linecap="butt" stroke-linejoin="miter" stroke="rgb(0%, 50.196078%, 50.196078%)" stroke-opacity="1" stroke-miterlimit="10" d="M -27.170113 -25.699829 L -27.170113 21.147339 " transform="matrix(2.666667, 0, 0, -2.666667, 175.410665, 468.986654)"/>
<path fill-rule="nonzero" fill="rgb(0%, 50.196078%, 50.196078%)" fill-opacity="1" stroke-width="0.79701" stroke-linecap="butt" stroke-linejoin="miter" stroke="rgb(0%, 50.196078%, 50.196078%)" stroke-opacity="1" stroke-miterlimit="10" d="M 6.097961 0.00155258 L 1.28595 1.817959 L 2.8797 0.00155258 L 1.28595 -1.814854 Z M 6.097961 0.00155258 " transform="matrix(0, -2.666667, -2.666667, 0, 102.961171, 419.741699)"/>
<path fill="none" stroke-width="0.79701" stroke-linecap="butt" stroke-linejoin="miter" stroke="rgb(0%, 0%, 100%)" stroke-opacity="1" stroke-miterlimit="10" d="M -25.700874 27.166382 L 21.146294 27.166382 " transform="matrix(2.666667, 0, 0, -2.666667, 175.410665, 468.986654)"/>
<path fill-rule="nonzero" fill="rgb(0%, 0%, 100%)" fill-opacity="1" stroke-width="0.79701" stroke-linecap="butt" stroke-linejoin="miter" stroke="rgb(0%, 0%, 100%)" stroke-opacity="1" stroke-miterlimit="10" d="M 6.098366 -0.00216675 L 1.284889 1.818634 L 2.878639 -0.00216675 L 1.284889 -1.818573 Z M 6.098366 -0.00216675 " transform="matrix(2.666667, 0, 0, -2.666667, 224.65566, 396.537191)"/>
<path fill="none" stroke-width="1.59404" stroke-linecap="butt" stroke-linejoin="miter" stroke="rgb(0%, 0%, 0%)" stroke-opacity="1" stroke-miterlimit="10" d="M 168.002739 2.076538 L 148.822075 21.257202 " transform="matrix(2.666667, 0, 0, -2.666667, 175.410665, 468.986654)"/>
<path fill-rule="nonzero" fill="rgb(0%, 0%, 0%)" fill-opacity="1" stroke-width="1.59404" stroke-linecap="butt" stroke-linejoin="miter" stroke="rgb(0%, 0%, 0%)" stroke-opacity="1" stroke-miterlimit="10" d="M 8.908988 -0.00196372 L 2.571897 2.401118 L 4.688059 -0.000927914 L 2.575004 -2.401938 Z M 8.908988 -0.00196372 " transform="matrix(-1.8856, -1.8856, -1.8856, 1.8856, 580.357585, 420.384521)"/>
<path fill="none" stroke-width="0.79701" stroke-linecap="butt" stroke-linejoin="miter" stroke="rgb(0%, 0%, 0%)" stroke-opacity="1" stroke-miterlimit="10" d="M -2.075874 2.076538 L -22.907417 22.909546 " transform="matrix(2.666667, 0, 0, -2.666667, 175.410665, 468.986654)"/>
<path fill-rule="nonzero" fill="rgb(0%, 0%, 0%)" fill-opacity="1" stroke-width="0.79701" stroke-linecap="butt" stroke-linejoin="miter" stroke="rgb(0%, 0%, 0%)" stroke-opacity="1" stroke-miterlimit="10" d="M 6.096249 -0.000469352 L 1.284907 1.817379 L 2.87902 0.00160227 L 1.288015 -1.81521 Z M 6.096249 -0.000469352 " transform="matrix(-1.8856, -1.8856, -1.8856, 1.8856, 119.369202, 412.94519)"/>
</svg>
