<?xml version="1.0" encoding="UTF-8"?>
<svg xmlns="http://www.w3.org/2000/svg" xmlns:xlink="http://www.w3.org/1999/xlink" width="208.559998" height="104.580002" viewBox="0 0 208.559998 104.580002">
<defs>
<clipPath id="clip-0">
<path clip-rule="nonzero" d="M 31 0 L 208.5625 0 L 208.5625 104.578125 L 31 104.578125 Z M 31 0 "/>
</clipPath>
</defs>
<path fill-rule="nonzero" fill="rgb(0%, 0%, 0%)" fill-opacity="1" d="M 13.960938 13.941406 C 13.960938 13.191406 14.554688 11.722656 16.148438 11.347656 C 16.242188 11.285156 16.335938 11.222656 16.335938 11.128906 C 16.335938 10.941406 16.148438 10.878906 15.929688 10.941406 C 14.398438 11.160156 12.523438 12.441406 12.523438 13.785156 L 12.523438 17.347656 C 12.523438 18.035156 12.398438 19.035156 12.117188 19.222656 C 11.398438 19.691406 10.648438 19.753906 10.210938 19.753906 C 10.117188 19.753906 10.054688 19.878906 10.054688 19.972656 C 10.054688 20.191406 10.148438 20.222656 10.367188 20.253906 C 11.679688 20.316406 12.242188 20.910156 12.460938 21.816406 C 12.523438 22.003906 12.523438 22.035156 12.523438 22.691406 L 12.523438 25.878906 C 12.523438 26.628906 12.304688 27.535156 13.273438 28.222656 C 14.054688 28.753906 15.179688 29.066406 15.929688 29.066406 C 16.148438 29.066406 16.335938 29.066406 16.335938 28.847656 C 16.335938 28.691406 16.210938 28.722656 15.992188 28.660156 C 14.679688 28.316406 14.273438 27.628906 14.023438 26.691406 C 13.960938 26.535156 13.960938 26.472656 13.960938 25.847656 L 13.960938 22.410156 C 13.960938 21.597656 13.804688 21.285156 13.148438 20.691406 C 12.742188 20.316406 12.554688 20.128906 11.992188 19.972656 C 13.617188 19.597656 13.960938 18.753906 13.960938 17.691406 Z M 13.960938 13.941406 "/>
<path fill-rule="nonzero" fill="rgb(0%, 0%, 0%)" fill-opacity="1" d="M 28.054688 25.285156 C 29.710938 25.285156 30.804688 23.378906 31.367188 22.378906 L 31.023438 22.128906 C 30.585938 22.785156 29.648438 24.441406 28.960938 24.441406 C 28.710938 24.441406 28.804688 23.941406 28.804688 23.722656 C 28.804688 23.628906 28.804688 23.503906 28.804688 23.441406 C 29.085938 22.316406 29.617188 20.972656 29.960938 19.785156 C 30.148438 19.160156 30.429688 18.535156 30.429688 17.816406 C 30.429688 16.941406 30.023438 16.441406 29.148438 16.441406 C 28.492188 16.441406 27.992188 16.722656 27.554688 17.097656 C 26.929688 17.660156 26.460938 18.285156 25.960938 19.160156 L 25.898438 19.128906 C 26.054688 18.535156 26.148438 18.410156 26.148438 17.878906 C 26.148438 17.003906 25.679688 16.441406 24.804688 16.441406 C 23.710938 16.441406 22.679688 17.253906 21.679688 19.097656 L 21.648438 19.035156 C 21.804688 18.597656 21.867188 18.222656 21.867188 17.691406 C 21.867188 16.910156 21.710938 16.441406 20.929688 16.441406 C 19.273438 16.441406 18.554688 18.160156 18.023438 19.660156 L 18.367188 19.753906 C 18.585938 19.003906 19.554688 16.847656 20.398438 16.847656 C 20.617188 16.847656 20.710938 17.410156 20.710938 17.722656 C 20.710938 17.816406 20.679688 18.003906 20.617188 18.160156 C 20.304688 19.316406 19.992188 20.253906 19.617188 21.441406 L 18.460938 25.128906 L 19.773438 25.128906 L 21.148438 21.066406 C 21.710938 19.628906 22.585938 18.160156 23.648438 17.222656 C 23.960938 16.972656 24.242188 16.878906 24.460938 16.878906 C 25.117188 16.878906 24.960938 18.503906 24.804688 18.972656 C 24.554688 19.941406 24.242188 20.753906 23.867188 21.910156 L 22.804688 25.128906 L 24.148438 25.128906 C 24.648438 23.628906 25.023438 22.160156 25.523438 20.910156 C 25.992188 19.660156 26.929688 18.222656 27.710938 17.441406 C 28.148438 17.066406 28.460938 16.878906 28.742188 16.878906 C 28.960938 16.878906 29.179688 17.035156 29.179688 17.347656 C 29.179688 18.128906 28.835938 18.878906 28.554688 19.753906 C 28.148438 20.972656 27.773438 21.878906 27.492188 22.910156 C 27.398438 23.378906 27.273438 23.628906 27.273438 24.035156 C 27.273438 24.722656 27.460938 25.285156 28.054688 25.285156 Z M 28.054688 25.285156 "/>
<path fill-rule="nonzero" fill="rgb(0%, 0%, 0%)" fill-opacity="1" d="M 36.011719 22.351562 C 35.386719 22.351562 34.730469 22.851562 34.261719 23.476562 L 34.167969 23.476562 L 35.667969 18.007812 L 33.417969 18.101562 L 33.324219 18.320312 C 33.917969 18.320312 34.386719 18.445312 34.386719 18.882812 C 34.386719 18.945312 34.355469 19.132812 34.292969 19.320312 L 31.761719 28.695312 L 32.730469 28.695312 L 33.449219 26.132812 L 33.824219 26.007812 L 34.605469 27.882812 C 34.761719 28.226562 34.886719 28.476562 35.011719 28.632812 C 35.136719 28.757812 35.292969 28.820312 35.480469 28.820312 C 36.417969 28.820312 36.730469 28.226562 37.230469 27.039062 L 36.980469 26.914062 C 36.699219 27.507812 36.480469 28.101562 36.042969 28.101562 C 35.855469 28.101562 35.605469 27.539062 35.449219 27.101562 L 34.824219 25.570312 L 35.105469 25.414062 C 35.761719 25.101562 36.355469 24.789062 36.730469 24.414062 C 37.105469 24.070312 37.324219 23.695312 37.324219 23.320312 C 37.324219 22.664062 36.855469 22.351562 36.011719 22.351562 Z M 33.636719 25.695312 C 33.761719 25.101562 34.261719 23.945312 34.636719 23.570312 C 34.886719 23.257812 35.417969 22.664062 35.886719 22.664062 C 36.417969 22.664062 36.417969 23.132812 36.417969 23.445312 C 36.386719 24.539062 34.449219 25.351562 33.636719 25.695312 Z M 33.636719 25.695312 "/>
<path fill-rule="nonzero" fill="rgb(0%, 0%, 0%)" fill-opacity="1" d="M 43.203125 13.941406 L 43.203125 17.691406 C 43.203125 18.753906 43.515625 19.597656 45.140625 19.972656 C 44.578125 20.128906 44.390625 20.316406 43.984375 20.691406 C 43.359375 21.285156 43.203125 21.597656 43.203125 22.410156 L 43.203125 25.847656 C 43.203125 26.472656 43.203125 26.535156 43.140625 26.691406 C 42.859375 27.628906 42.484375 28.316406 41.140625 28.660156 C 40.921875 28.722656 40.828125 28.691406 40.828125 28.847656 C 40.828125 29.066406 40.984375 29.066406 41.203125 29.066406 C 41.984375 29.066406 43.078125 28.753906 43.859375 28.222656 C 44.828125 27.535156 44.609375 26.628906 44.609375 25.878906 L 44.609375 22.691406 C 44.609375 22.035156 44.609375 22.003906 44.671875 21.816406 C 44.890625 20.910156 45.453125 20.316406 46.765625 20.253906 C 46.984375 20.222656 47.109375 20.191406 47.109375 19.972656 C 47.109375 19.878906 47.015625 19.753906 46.921875 19.753906 C 46.484375 19.753906 45.734375 19.691406 45.015625 19.222656 C 44.734375 19.035156 44.609375 18.035156 44.609375 17.347656 L 44.609375 13.785156 C 44.609375 12.441406 42.765625 11.160156 41.203125 10.941406 C 40.984375 10.878906 40.828125 10.941406 40.828125 11.128906 C 40.828125 11.222656 40.890625 11.285156 40.984375 11.347656 C 42.578125 11.722656 43.203125 13.191406 43.203125 13.941406 Z M 43.203125 13.941406 "/>
<path fill-rule="nonzero" fill="rgb(0%, 0%, 0%)" fill-opacity="1" d="M 64.53125 24.441406 L 60.09375 20.003906 L 64.53125 15.566406 L 63.75 14.753906 L 59.3125 19.222656 L 54.875 14.753906 L 54.09375 15.566406 L 58.5 20.003906 L 54.09375 24.441406 L 54.875 25.222656 L 59.3125 20.785156 L 63.75 25.222656 Z M 64.53125 24.441406 "/>
<path fill-rule="nonzero" fill="rgb(0%, 0%, 0%)" fill-opacity="1" d="M 80.304688 16.535156 C 80.304688 13.660156 79.429688 11.347656 77.273438 11.347656 C 75.585938 11.347656 73.773438 12.941406 73.773438 13.816406 C 73.773438 14.472656 74.304688 14.753906 74.710938 14.753906 C 75.117188 14.753906 75.367188 14.410156 75.429688 14.347656 C 75.367188 14.316406 75.242188 14.128906 75.242188 13.847656 C 75.242188 13.660156 75.585938 11.941406 77.304688 11.941406 C 78.742188 11.941406 79.054688 13.785156 79.054688 15.410156 C 79.054688 16.628906 78.898438 17.691406 78.898438 17.722656 L 78.867188 17.722656 C 78.867188 17.691406 78.085938 16.472656 76.523438 16.472656 C 72.523438 16.472656 70.867188 20.347656 70.867188 22.410156 C 70.867188 24.253906 71.960938 25.441406 74.179688 25.441406 C 77.617188 25.441406 80.304688 21.972656 80.304688 16.535156 Z M 78.023438 18.785156 C 78.023438 19.316406 77.523438 24.972656 74.304688 24.972656 C 73.179688 24.972656 72.679688 24.316406 72.679688 23.066406 C 72.679688 21.785156 73.492188 16.941406 76.367188 16.941406 C 77.492188 16.941406 78.023438 17.597656 78.023438 18.785156 Z M 78.023438 18.785156 "/>
<path fill-rule="nonzero" fill="rgb(0%, 0%, 0%)" fill-opacity="1" d="M 93.824219 25.128906 L 88.261719 11.660156 L 87.917969 11.660156 L 81.980469 25.128906 Z M 91.511719 24.285156 L 83.292969 24.285156 L 87.574219 14.628906 Z M 91.511719 24.285156 "/>
<path fill-rule="nonzero" fill="rgb(0%, 0%, 0%)" fill-opacity="1" d="M 98.570312 11.550781 C 97.945312 11.550781 97.289062 12.050781 96.820312 12.675781 L 96.726562 12.675781 L 98.226562 7.207031 L 95.976562 7.300781 L 95.882812 7.519531 C 96.476562 7.519531 96.945312 7.644531 96.945312 8.082031 C 96.945312 8.144531 96.914062 8.332031 96.851562 8.519531 L 94.320312 17.894531 L 95.289062 17.894531 L 96.007812 15.332031 L 96.382812 15.207031 L 97.164062 17.082031 C 97.320312 17.425781 97.445312 17.675781 97.570312 17.832031 C 97.695312 17.957031 97.851562 18.019531 98.039062 18.019531 C 98.976562 18.019531 99.289062 17.425781 99.789062 16.238281 L 99.539062 16.113281 C 99.257812 16.707031 99.039062 17.300781 98.601562 17.300781 C 98.414062 17.300781 98.164062 16.738281 98.007812 16.300781 L 97.382812 14.769531 L 97.664062 14.613281 C 98.320312 14.300781 98.914062 13.988281 99.289062 13.613281 C 99.664062 13.269531 99.882812 12.894531 99.882812 12.519531 C 99.882812 11.863281 99.414062 11.550781 98.570312 11.550781 Z M 96.195312 14.894531 C 96.320312 14.300781 96.820312 13.144531 97.195312 12.769531 C 97.445312 12.457031 97.976562 11.863281 98.445312 11.863281 C 98.976562 11.863281 98.976562 12.332031 98.976562 12.644531 C 98.945312 13.738281 97.007812 14.550781 96.195312 14.894531 Z M 96.195312 14.894531 "/>
<path fill-rule="nonzero" fill="rgb(0%, 0%, 0%)" fill-opacity="1" d="M 180.023438 25.128906 L 180.023438 24.191406 L 177.710938 24.191406 L 177.710938 12.722656 C 177.710938 12.066406 177.617188 12.066406 176.929688 12.066406 C 175.617188 13.347656 173.523438 13.347656 172.835938 13.347656 L 172.835938 14.285156 C 173.367188 14.285156 174.304688 14.285156 175.335938 13.941406 L 175.335938 24.191406 L 173.117188 24.191406 L 173.117188 25.128906 C 173.867188 25.066406 175.679688 25.066406 176.554688 25.066406 C 177.398438 25.066406 179.273438 25.066406 180.023438 25.128906 Z M 180.023438 25.128906 "/>
<path fill-rule="nonzero" fill="rgb(0%, 0%, 0%)" fill-opacity="1" d="M 49.445312 93.605469 L 49.445312 80.417969 L 46.539062 80.417969 L 42.351562 92.074219 L 42.289062 92.074219 L 38.289062 80.417969 L 35.195312 80.417969 L 35.195312 93.605469 L 36.070312 93.605469 L 36.070312 84.261719 L 36.101562 84.261719 L 39.351562 93.605469 L 42.726562 93.605469 L 46.101562 84.199219 L 46.132812 84.199219 L 46.132812 93.605469 Z M 48.570312 92.730469 L 47.007812 92.730469 L 47.007812 81.292969 L 48.570312 81.292969 Z M 41.632812 92.730469 L 39.976562 92.730469 L 36.414062 82.511719 L 36.007812 81.292969 L 37.601562 81.292969 Z M 41.632812 92.730469 "/>
<path fill-rule="nonzero" fill="rgb(0%, 0%, 0%)" fill-opacity="1" d="M 54.675781 90.828125 C 54.050781 90.828125 53.394531 91.328125 52.925781 91.953125 L 52.832031 91.953125 L 54.332031 86.484375 L 52.082031 86.578125 L 51.988281 86.796875 C 52.582031 86.796875 53.050781 86.921875 53.050781 87.359375 C 53.050781 87.421875 53.019531 87.609375 52.957031 87.796875 L 50.425781 97.171875 L 51.394531 97.171875 L 52.113281 94.609375 L 52.488281 94.484375 L 53.269531 96.359375 C 53.425781 96.703125 53.550781 96.953125 53.675781 97.109375 C 53.800781 97.234375 53.957031 97.296875 54.144531 97.296875 C 55.082031 97.296875 55.394531 96.703125 55.894531 95.515625 L 55.644531 95.390625 C 55.363281 95.984375 55.144531 96.578125 54.707031 96.578125 C 54.519531 96.578125 54.269531 96.015625 54.113281 95.578125 L 53.488281 94.046875 L 53.769531 93.890625 C 54.425781 93.578125 55.019531 93.265625 55.394531 92.890625 C 55.769531 92.546875 55.988281 92.171875 55.988281 91.796875 C 55.988281 91.140625 55.519531 90.828125 54.675781 90.828125 Z M 52.300781 94.171875 C 52.425781 93.578125 52.925781 92.421875 53.300781 92.046875 C 53.550781 91.734375 54.082031 91.140625 54.550781 91.140625 C 55.082031 91.140625 55.082031 91.609375 55.082031 91.921875 C 55.050781 93.015625 53.113281 93.828125 52.300781 94.171875 Z M 52.300781 94.171875 "/>
<path fill-rule="nonzero" fill="rgb(0%, 0%, 0%)" fill-opacity="1" d="M 65.953125 93.859375 L 65.953125 93.015625 L 58.515625 93.015625 L 58.515625 93.859375 Z M 65.953125 93.859375 "/>
<path fill-rule="nonzero" fill="rgb(0%, 0%, 0%)" fill-opacity="1" d="M 74.316406 97.171875 L 74.316406 96.640625 L 73.753906 96.640625 C 72.316406 96.640625 72.316406 96.453125 72.316406 95.984375 L 72.316406 87.921875 C 72.316406 87.546875 72.285156 87.515625 71.878906 87.515625 C 70.941406 88.453125 69.628906 88.453125 69.035156 88.453125 L 69.035156 88.984375 C 69.378906 88.984375 70.347656 88.984375 71.128906 88.578125 L 71.128906 95.984375 C 71.128906 96.453125 71.128906 96.640625 69.691406 96.640625 L 69.128906 96.640625 L 69.128906 97.171875 L 71.722656 97.109375 Z M 74.316406 97.171875 "/>
<path fill-rule="nonzero" fill="rgb(0%, 0%, 0%)" fill-opacity="1" d="M 185.609375 79.886719 L 185.515625 79.761719 C 184.890625 79.855469 183.265625 80.261719 182.796875 80.699219 C 182.578125 80.917969 181.828125 83.480469 181.640625 83.980469 C 180.859375 86.449219 180.046875 88.449219 178.109375 90.230469 C 177.015625 91.230469 175.328125 92.324219 173.828125 92.324219 C 173.515625 92.324219 173.265625 92.199219 173.265625 91.855469 C 173.265625 88.980469 175.703125 83.105469 176.671875 80.136719 C 176.515625 80.011719 176.328125 79.980469 176.140625 79.980469 C 173.984375 79.980469 167.046875 81.980469 167.046875 84.636719 C 167.046875 85.386719 168.203125 87.199219 169.046875 87.199219 C 169.140625 87.199219 169.265625 87.199219 169.359375 87.136719 C 169.015625 86.699219 168.890625 86.136719 168.890625 85.605469 C 168.890625 83.261719 172.234375 81.074219 174.359375 81.011719 C 173.328125 83.886719 170.921875 89.574219 170.921875 92.417969 C 170.921875 93.292969 171.265625 94.011719 172.234375 94.011719 C 174.328125 94.011719 178.734375 90.949219 180.109375 89.355469 C 179.828125 90.230469 179.578125 91.136719 179.578125 92.042969 C 179.578125 92.605469 179.703125 94.230469 180.484375 94.230469 C 181.421875 94.230469 182.859375 93.386719 182.984375 92.417969 C 182.859375 92.542969 182.640625 92.605469 182.453125 92.605469 C 181.890625 92.605469 181.890625 91.824219 181.890625 91.417969 C 181.890625 89.386719 184.359375 81.355469 185.609375 79.886719 Z M 185.609375 79.886719 "/>
<path fill="none" stroke-width="0.5579" stroke-linecap="butt" stroke-linejoin="miter" stroke="rgb(0%, 0%, 0%)" stroke-opacity="1" stroke-miterlimit="10" d="M 6.814125 16.140093 L 32.040688 16.140093 " transform="matrix(2, 0, 0, -2, 97.278, 52.287998)"/>
<path fill="none" stroke-width="0.5579" stroke-linecap="round" stroke-linejoin="round" stroke="rgb(0%, 0%, 0%)" stroke-opacity="1" stroke-miterlimit="10" d="M -2.900909 3.34619 C -2.369659 1.338378 -1.189972 0.389159 0.00143433 -0.0014658 C -1.189972 -0.392091 -2.369659 -1.337403 -2.900909 -3.349122 " transform="matrix(2, 0, 0, -2, 161.919006, 20.004881)"/>
<path fill-rule="nonzero" fill="rgb(0%, 0%, 0%)" fill-opacity="1" d="M 137.53125 5.589844 C 137.53125 5.058594 137.0625 4.777344 136.6875 4.777344 C 136.28125 4.777344 135.84375 5.089844 135.84375 5.589844 L 136.40625 11.996094 C 136.4375 12.308594 136.5 12.339844 136.6875 12.339844 C 136.875 12.339844 136.9375 12.308594 136.96875 11.996094 Z M 137.53125 14.308594 C 137.53125 13.871094 137.15625 13.496094 136.6875 13.496094 C 136.1875 13.496094 135.84375 13.902344 135.84375 14.308594 C 135.84375 14.808594 136.25 15.152344 136.6875 15.152344 C 137.15625 15.152344 137.53125 14.777344 137.53125 14.308594 Z M 137.53125 14.308594 "/>
<path fill="none" stroke-width="0.5579" stroke-linecap="butt" stroke-linejoin="miter" stroke="rgb(0%, 0%, 0%)" stroke-opacity="1" stroke-miterlimit="10" d="M -21.010094 7.772905 L -21.010094 -9.715376 " transform="matrix(2, 0, 0, -2, 97.278, 52.287998)"/>
<path fill="none" stroke-width="0.5579" stroke-linecap="round" stroke-linejoin="round" stroke="rgb(0%, 0%, 0%)" stroke-opacity="1" stroke-miterlimit="10" d="M -2.900028 3.348993 C -2.372684 1.337275 -1.189091 0.391962 -0.00159073 0.00133705 C -1.189091 -0.389288 -2.372684 -1.338507 -2.900028 -3.346319 " transform="matrix(0, 2, 2, 0, 55.255138, 72.276619)"/>
<path fill-rule="nonzero" fill="rgb(0%, 0%, 0%)" fill-opacity="1" d="M 29.140625 58.089844 L 25.765625 48.464844 L 23.328125 48.464844 L 19.828125 58.089844 L 20.484375 58.089844 L 21.609375 55.058594 L 25.515625 55.058594 L 26.640625 58.089844 Z M 28.265625 57.464844 L 27.046875 57.464844 L 24.109375 49.121094 L 25.328125 49.121094 Z M 25.296875 54.402344 L 21.859375 54.402344 L 23.578125 49.589844 L 23.609375 49.589844 Z M 25.296875 54.402344 "/>
<path fill-rule="nonzero" fill="rgb(0%, 0%, 0%)" fill-opacity="1" d="M 33.074219 56.160156 C 32.605469 56.160156 32.136719 56.535156 31.792969 57.003906 L 31.699219 57.003906 L 32.824219 52.878906 L 31.136719 52.941406 L 31.074219 53.097656 C 31.511719 53.097656 31.886719 53.222656 31.886719 53.535156 C 31.886719 53.597656 31.855469 53.722656 31.792969 53.878906 L 29.886719 60.941406 L 30.636719 60.941406 L 31.167969 59.003906 L 31.417969 58.910156 L 32.011719 60.347656 C 32.136719 60.597656 32.230469 60.785156 32.324219 60.878906 C 32.417969 60.972656 32.542969 61.035156 32.699219 61.035156 C 33.386719 61.035156 33.636719 60.566406 34.011719 59.691406 L 33.824219 59.597656 C 33.605469 60.035156 33.449219 60.503906 33.105469 60.503906 C 32.980469 60.503906 32.792969 60.066406 32.667969 59.753906 L 32.199219 58.566406 L 32.417969 58.472656 C 32.917969 58.222656 33.355469 58.003906 33.636719 57.722656 C 33.917969 57.441406 34.074219 57.160156 34.074219 56.878906 C 34.074219 56.378906 33.730469 56.160156 33.074219 56.160156 Z M 31.292969 58.660156 C 31.386719 58.222656 31.792969 57.378906 32.042969 57.066406 C 32.230469 56.847656 32.636719 56.378906 33.011719 56.378906 C 33.417969 56.378906 33.417969 56.753906 33.417969 56.972656 C 33.386719 57.785156 31.917969 58.410156 31.292969 58.660156 Z M 31.292969 58.660156 "/>
<path fill-rule="nonzero" fill="rgb(0%, 0%, 0%)" fill-opacity="1" d="M 41.582031 58.441406 L 41.582031 57.816406 L 35.988281 57.816406 L 35.988281 58.441406 Z M 41.582031 58.441406 "/>
<path fill-rule="nonzero" fill="rgb(0%, 0%, 0%)" fill-opacity="1" d="M 48.242188 60.941406 L 48.242188 60.503906 L 47.773438 60.503906 C 46.648438 60.503906 46.648438 60.378906 46.648438 60.003906 L 46.648438 53.972656 C 46.648438 53.660156 46.617188 53.660156 46.273438 53.660156 C 45.554688 54.347656 44.429688 54.347656 44.023438 54.347656 L 44.023438 54.785156 C 44.335938 54.785156 45.054688 54.785156 45.710938 54.472656 L 45.710938 60.003906 C 45.710938 60.378906 45.710938 60.503906 44.585938 60.503906 L 44.117188 60.503906 L 44.117188 60.941406 C 44.710938 60.910156 45.554688 60.910156 46.179688 60.910156 C 46.804688 60.910156 47.648438 60.910156 48.242188 60.941406 Z M 48.242188 60.941406 "/>
<path fill="none" stroke-width="0.5579" stroke-linecap="butt" stroke-linejoin="miter" stroke="rgb(0%, 0%, 0%)" stroke-opacity="1" stroke-miterlimit="10" d="M 39.583656 9.733843 L 39.583656 -9.203657 " transform="matrix(2, 0, 0, -2, 97.278, 52.287998)"/>
<path fill="none" stroke-width="0.5579" stroke-linecap="round" stroke-linejoin="round" stroke="rgb(0%, 0%, 0%)" stroke-opacity="1" stroke-miterlimit="10" d="M -2.902542 3.347969 C -2.371292 1.340157 -1.191605 0.390938 -0.000198364 0.000312805 C -1.191605 -0.390312 -2.371292 -1.339531 -2.902542 -3.347343 " transform="matrix(0, 2, 2, 0, 176.444687, 71.250397)"/>
<path fill-rule="nonzero" fill="rgb(0%, 0%, 0%)" fill-opacity="1" d="M 187.234375 47.589844 C 187.234375 47.339844 187.046875 47.058594 186.765625 47.058594 C 186.453125 47.058594 185.234375 48.277344 184.828125 48.496094 C 184.828125 47.683594 185.234375 46.871094 185.234375 46.402344 C 185.234375 46.089844 185.046875 45.902344 184.734375 45.902344 C 184.421875 45.902344 184.265625 46.089844 184.265625 46.402344 C 184.265625 46.964844 184.609375 47.714844 184.609375 48.496094 C 184.140625 48.246094 183.015625 47.027344 182.703125 47.027344 C 182.453125 47.027344 182.203125 47.246094 182.203125 47.527344 C 182.203125 48.027344 183.921875 48.371094 184.484375 48.683594 C 183.890625 49.058594 182.734375 49.214844 182.453125 49.402344 C 182.328125 49.527344 182.203125 49.652344 182.203125 49.839844 C 182.203125 50.089844 182.390625 50.339844 182.671875 50.339844 C 182.984375 50.339844 184.171875 49.152344 184.609375 48.902344 C 184.609375 49.714844 184.203125 50.527344 184.203125 51.027344 C 184.203125 51.308594 184.421875 51.527344 184.703125 51.527344 C 185.015625 51.527344 185.171875 51.308594 185.171875 51.027344 C 185.171875 50.433594 184.828125 49.683594 184.828125 48.902344 C 185.296875 49.152344 186.453125 50.371094 186.734375 50.371094 C 186.984375 50.371094 187.234375 50.152344 187.234375 49.871094 C 187.234375 49.683594 187.109375 49.558594 186.953125 49.464844 C 186.578125 49.214844 185.578125 49.058594 184.953125 48.683594 C 185.640625 48.277344 186.546875 48.246094 186.984375 47.996094 C 187.140625 47.902344 187.234375 47.777344 187.234375 47.589844 Z M 187.234375 47.589844 "/>
<path fill-rule="nonzero" fill="rgb(0%, 0%, 0%)" fill-opacity="1" d="M 196.769531 54.617188 L 196.769531 47.367188 L 195.144531 47.367188 L 192.863281 53.773438 L 192.832031 53.773438 L 190.613281 47.367188 L 188.925781 47.367188 L 188.925781 54.617188 L 189.394531 54.617188 L 189.394531 49.460938 L 189.425781 49.460938 L 191.207031 54.617188 L 193.082031 54.617188 L 194.925781 49.429688 L 194.925781 54.617188 Z M 196.269531 54.148438 L 195.425781 54.148438 L 195.425781 47.835938 L 196.269531 47.835938 Z M 192.457031 54.148438 L 191.550781 54.148438 L 189.582031 48.492188 L 189.363281 47.835938 L 190.238281 47.835938 Z M 192.457031 54.148438 "/>
<path fill-rule="nonzero" fill="rgb(0%, 0%, 0%)" fill-opacity="1" d="M 200.484375 53.953125 C 200.015625 53.953125 199.546875 54.328125 199.203125 54.796875 L 199.109375 54.796875 L 200.234375 50.671875 L 198.546875 50.734375 L 198.484375 50.890625 C 198.921875 50.890625 199.296875 51.015625 199.296875 51.328125 C 199.296875 51.390625 199.265625 51.515625 199.203125 51.671875 L 197.296875 58.734375 L 198.046875 58.734375 L 198.578125 56.796875 L 198.828125 56.703125 L 199.421875 58.140625 C 199.546875 58.390625 199.640625 58.578125 199.734375 58.671875 C 199.828125 58.765625 199.953125 58.828125 200.109375 58.828125 C 200.796875 58.828125 201.046875 58.359375 201.421875 57.484375 L 201.234375 57.390625 C 201.015625 57.828125 200.859375 58.296875 200.515625 58.296875 C 200.390625 58.296875 200.203125 57.859375 200.078125 57.546875 L 199.609375 56.359375 L 199.828125 56.265625 C 200.328125 56.015625 200.765625 55.796875 201.046875 55.515625 C 201.328125 55.234375 201.484375 54.953125 201.484375 54.671875 C 201.484375 54.171875 201.140625 53.953125 200.484375 53.953125 Z M 198.703125 56.453125 C 198.796875 56.015625 199.203125 55.171875 199.453125 54.859375 C 199.640625 54.640625 200.046875 54.171875 200.421875 54.171875 C 200.828125 54.171875 200.828125 54.546875 200.828125 54.765625 C 200.796875 55.578125 199.328125 56.203125 198.703125 56.453125 Z M 198.703125 56.453125 "/>
<g clip-path="url(#clip-0)">
<path fill="none" stroke-width="2.49017" stroke-linecap="butt" stroke-linejoin="miter" stroke="rgb(0%, 0%, 0%)" stroke-opacity="1" stroke-miterlimit="10" d="M 2.372719 -4.883345 L 21.083656 5.690874 " transform="matrix(2, 0, 0, -2, 97.278, 52.287998)"/>
</g>
<path fill="none" stroke-width="1.37434" stroke-linecap="butt" stroke-linejoin="miter" stroke="rgb(100%, 100%, 100%)" stroke-opacity="1" stroke-miterlimit="10" d="M 2.372719 -4.883345 L 21.083656 5.690874 " transform="matrix(2, 0, 0, -2, 97.278, 52.287998)"/>
<path fill="none" stroke-width="0.5579" stroke-linecap="round" stroke-linejoin="round" stroke="rgb(0%, 0%, 0%)" stroke-opacity="1" stroke-miterlimit="10" d="M -1.295115 2.55911 C -0.667433 1.208313 1.022911 0.0467543 1.987864 -0.000451286 C 1.023365 -0.0477295 -0.667453 -1.205683 -1.294234 -2.561058 " transform="matrix(1.74114, -0.98386, -0.98386, -1.74114, 139.444656, 40.908119)"/>
<path fill-rule="nonzero" fill="rgb(0%, 0%, 0%)" fill-opacity="1" d="M 111.0625 38.234375 C 111.0625 36.765625 110.28125 35.859375 108.90625 35.859375 C 108 35.859375 107.28125 36.484375 107.25 36.484375 L 107.25 31.984375 L 106.6875 32.140625 L 106.6875 42.484375 C 106.6875 42.734375 106.78125 42.890625 107 42.890625 C 108.4375 42.890625 111.0625 40.953125 111.0625 38.234375 Z M 109.8125 38.265625 C 109.8125 40.453125 108.625 42.328125 107.53125 42.328125 C 107.28125 42.328125 107.25 42.234375 107.25 42.140625 L 107.25 37.609375 C 107.25 37.046875 107.59375 36.234375 108.6875 36.234375 C 109.5 36.234375 109.8125 37.203125 109.8125 38.265625 Z M 109.8125 38.265625 "/>
<path fill-rule="nonzero" fill="rgb(0%, 0%, 0%)" fill-opacity="1" d="M 115.074219 40.648438 C 114.605469 40.648438 114.136719 41.023438 113.792969 41.492188 L 113.699219 41.492188 L 114.824219 37.367188 L 113.136719 37.429688 L 113.074219 37.585938 C 113.511719 37.585938 113.886719 37.710938 113.886719 38.023438 C 113.886719 38.085938 113.855469 38.210938 113.792969 38.367188 L 111.886719 45.429688 L 112.636719 45.429688 L 113.167969 43.492188 L 113.417969 43.398438 L 114.011719 44.835938 C 114.136719 45.085938 114.230469 45.273438 114.324219 45.367188 C 114.417969 45.460938 114.542969 45.523438 114.699219 45.523438 C 115.386719 45.523438 115.636719 45.054688 116.011719 44.179688 L 115.824219 44.085938 C 115.605469 44.523438 115.449219 44.992188 115.105469 44.992188 C 114.980469 44.992188 114.792969 44.554688 114.667969 44.242188 L 114.199219 43.054688 L 114.417969 42.960938 C 114.917969 42.710938 115.355469 42.492188 115.636719 42.210938 C 115.917969 41.929688 116.074219 41.648438 116.074219 41.367188 C 116.074219 40.867188 115.730469 40.648438 115.074219 40.648438 Z M 113.292969 43.148438 C 113.386719 42.710938 113.792969 41.867188 114.042969 41.554688 C 114.230469 41.335938 114.636719 40.867188 115.011719 40.867188 C 115.417969 40.867188 115.417969 41.242188 115.417969 41.460938 C 115.386719 42.273438 113.917969 42.898438 113.292969 43.148438 Z M 113.292969 43.148438 "/>
<path fill="none" stroke-width="0.5579" stroke-linecap="butt" stroke-linejoin="miter" stroke="rgb(0%, 0%, 0%)" stroke-opacity="1" stroke-miterlimit="10" d="M -5.783531 -18.098188 L 29.771156 -18.098188 " transform="matrix(2, 0, 0, -2, 97.278, 52.287998)"/>
<path fill="none" stroke-width="0.5579" stroke-linecap="round" stroke-linejoin="round" stroke="rgb(0%, 0%, 0%)" stroke-opacity="1" stroke-miterlimit="10" d="M -2.902847 3.34697 C -2.371597 1.339157 -1.19191 0.389938 -0.00050354 -0.000686646 C -1.19191 -0.391312 -2.371597 -1.34053 -2.902847 -3.348343 " transform="matrix(2, 0, 0, -2, 157.376007, 88.483002)"/>
</svg>
