<?xml version="1.0" encoding="UTF-8"?>
<svg xmlns="http://www.w3.org/2000/svg" xmlns:xlink="http://www.w3.org/1999/xlink" width="403.399994" height="98.5" viewBox="0 0 403.399994 98.5">
<path fill-rule="nonzero" fill="rgb(0%, 0%, 0%)" fill-opacity="1" d="M 24.242188 22.980469 L 24.242188 9.792969 L 21.335938 9.792969 L 17.148438 21.449219 L 17.085938 21.449219 L 13.085938 9.792969 L 9.992188 9.792969 L 9.992188 22.980469 L 10.867188 22.980469 L 10.867188 13.636719 L 10.898438 13.636719 L 14.148438 22.980469 L 17.523438 22.980469 L 20.898438 13.574219 L 20.929688 13.574219 L 20.929688 22.980469 Z M 23.367188 22.105469 L 21.804688 22.105469 L 21.804688 10.667969 L 23.367188 10.667969 Z M 16.429688 22.105469 L 14.773438 22.105469 L 11.210938 11.886719 L 10.804688 10.667969 L 12.398438 10.667969 Z M 16.429688 22.105469 "/>
<path fill-rule="nonzero" fill="rgb(0%, 0%, 0%)" fill-opacity="1" d="M 32.722656 21.347656 C 32.722656 19.753906 32.535156 18.597656 31.878906 17.566406 C 31.410156 16.910156 30.503906 16.316406 29.347656 16.316406 C 25.972656 16.316406 25.972656 20.285156 25.972656 21.347656 C 25.972656 22.378906 25.972656 26.253906 29.347656 26.253906 C 32.722656 26.253906 32.722656 22.378906 32.722656 21.347656 Z M 31.410156 21.160156 C 31.410156 22.222656 31.410156 23.285156 31.222656 24.222656 C 30.910156 25.535156 29.941406 25.847656 29.347656 25.847656 C 28.691406 25.847656 27.785156 25.472656 27.503906 24.285156 C 27.285156 23.410156 27.285156 22.222656 27.285156 21.160156 C 27.285156 20.097656 27.285156 18.972656 27.503906 18.191406 C 27.816406 17.035156 28.753906 16.722656 29.347656 16.722656 C 30.128906 16.722656 30.878906 17.222656 31.160156 18.066406 C 31.378906 18.847656 31.410156 19.878906 31.410156 21.160156 Z M 31.410156 21.160156 "/>
<path fill-rule="nonzero" fill="rgb(0%, 0%, 0%)" fill-opacity="1" d="M 115.152344 22.980469 L 115.152344 9.792969 L 112.246094 9.792969 L 108.058594 21.449219 L 107.996094 21.449219 L 103.996094 9.792969 L 100.902344 9.792969 L 100.902344 22.980469 L 101.777344 22.980469 L 101.777344 13.636719 L 101.808594 13.636719 L 105.058594 22.980469 L 108.433594 22.980469 L 111.808594 13.574219 L 111.839844 13.574219 L 111.839844 22.980469 Z M 114.277344 22.105469 L 112.714844 22.105469 L 112.714844 10.667969 L 114.277344 10.667969 Z M 107.339844 22.105469 L 105.683594 22.105469 L 102.121094 11.886719 L 101.714844 10.667969 L 103.308594 10.667969 Z M 107.339844 22.105469 "/>
<path fill-rule="nonzero" fill="rgb(0%, 0%, 0%)" fill-opacity="1" d="M 123.007812 25.972656 L 123.007812 25.441406 L 122.445312 25.441406 C 121.007812 25.441406 121.007812 25.253906 121.007812 24.785156 L 121.007812 16.722656 C 121.007812 16.347656 120.976562 16.316406 120.570312 16.316406 C 119.632812 17.253906 118.320312 17.253906 117.726562 17.253906 L 117.726562 17.785156 C 118.070312 17.785156 119.039062 17.785156 119.820312 17.378906 L 119.820312 24.785156 C 119.820312 25.253906 119.820312 25.441406 118.382812 25.441406 L 117.820312 25.441406 L 117.820312 25.972656 L 120.414062 25.910156 Z M 123.007812 25.972656 "/>
<path fill-rule="nonzero" fill="rgb(0%, 0%, 0%)" fill-opacity="1" d="M 206.066406 22.980469 L 206.066406 9.792969 L 203.160156 9.792969 L 198.972656 21.449219 L 198.910156 21.449219 L 194.910156 9.792969 L 191.816406 9.792969 L 191.816406 22.980469 L 192.691406 22.980469 L 192.691406 13.636719 L 192.722656 13.636719 L 195.972656 22.980469 L 199.347656 22.980469 L 202.722656 13.574219 L 202.753906 13.574219 L 202.753906 22.980469 Z M 205.191406 22.105469 L 203.628906 22.105469 L 203.628906 10.667969 L 205.191406 10.667969 Z M 198.253906 22.105469 L 196.597656 22.105469 L 193.035156 11.886719 L 192.628906 10.667969 L 194.222656 10.667969 Z M 198.253906 22.105469 "/>
<path fill-rule="nonzero" fill="rgb(0%, 0%, 0%)" fill-opacity="1" d="M 214.390625 23.316406 L 213.890625 23.316406 C 213.859375 23.660156 213.703125 24.503906 213.515625 24.660156 C 213.390625 24.722656 212.265625 24.722656 212.078125 24.722656 L 209.390625 24.722656 C 210.921875 23.378906 211.421875 22.972656 212.296875 22.285156 C 213.390625 21.441406 214.390625 20.535156 214.390625 19.160156 C 214.390625 17.410156 212.859375 16.316406 210.984375 16.316406 C 209.171875 16.316406 207.953125 17.597656 207.953125 18.910156 C 207.953125 19.660156 208.578125 19.753906 208.734375 19.753906 C 209.078125 19.753906 209.515625 19.503906 209.515625 18.972656 C 209.515625 18.722656 209.390625 18.191406 208.640625 18.191406 C 209.109375 17.160156 210.078125 16.847656 210.765625 16.847656 C 212.234375 16.847656 212.984375 17.972656 212.984375 19.160156 C 212.984375 20.410156 212.078125 21.410156 211.609375 21.941406 L 208.109375 25.410156 C 207.953125 25.535156 207.953125 25.566406 207.953125 25.972656 L 213.953125 25.972656 Z M 214.390625 23.316406 "/>
<path fill-rule="nonzero" fill="rgb(0%, 0%, 0%)" fill-opacity="1" d="M 285.117188 17.886719 C 285.117188 17.261719 284.617188 16.730469 284.023438 16.730469 C 283.429688 16.730469 282.929688 17.230469 282.929688 17.886719 C 282.929688 18.636719 283.585938 18.949219 284.023438 18.949219 C 284.429688 18.949219 285.117188 18.605469 285.117188 17.886719 Z M 285.117188 17.886719 "/>
<path fill-rule="nonzero" fill="rgb(0%, 0%, 0%)" fill-opacity="1" d="M 293.804688 17.886719 C 293.804688 17.261719 293.304688 16.730469 292.710938 16.730469 C 292.117188 16.730469 291.617188 17.230469 291.617188 17.886719 C 291.617188 18.636719 292.273438 18.949219 292.710938 18.949219 C 293.117188 18.949219 293.804688 18.605469 293.804688 17.886719 Z M 293.804688 17.886719 "/>
<path fill-rule="nonzero" fill="rgb(0%, 0%, 0%)" fill-opacity="1" d="M 302.511719 17.886719 C 302.511719 17.261719 302.011719 16.730469 301.417969 16.730469 C 300.824219 16.730469 300.324219 17.230469 300.324219 17.886719 C 300.324219 18.636719 300.980469 18.949219 301.417969 18.949219 C 301.824219 18.949219 302.511719 18.605469 302.511719 17.886719 Z M 302.511719 17.886719 "/>
<path fill-rule="nonzero" fill="rgb(0%, 0%, 0%)" fill-opacity="1" d="M 384.753906 22.980469 L 384.753906 9.792969 L 381.847656 9.792969 L 377.660156 21.449219 L 377.597656 21.449219 L 373.597656 9.792969 L 370.503906 9.792969 L 370.503906 22.980469 L 371.378906 22.980469 L 371.378906 13.636719 L 371.410156 13.636719 L 374.660156 22.980469 L 378.035156 22.980469 L 381.410156 13.574219 L 381.441406 13.574219 L 381.441406 22.980469 Z M 383.878906 22.105469 L 382.316406 22.105469 L 382.316406 10.667969 L 383.878906 10.667969 Z M 376.941406 22.105469 L 375.285156 22.105469 L 371.722656 11.886719 L 371.316406 10.667969 L 372.910156 10.667969 Z M 376.941406 22.105469 "/>
<path fill-rule="nonzero" fill="rgb(0%, 0%, 0%)" fill-opacity="1" d="M 390.539062 26.097656 C 391.820312 26.097656 392.445312 24.878906 392.820312 24.191406 L 392.601562 24.066406 C 392.289062 24.503906 391.726562 25.503906 391.289062 25.503906 C 391.070312 25.503906 391.070312 25.128906 391.070312 25.003906 C 391.070312 24.847656 391.132812 24.597656 391.257812 24.222656 C 391.351562 23.878906 391.476562 23.472656 391.664062 22.910156 C 391.882812 22.128906 392.132812 21.097656 392.132812 20.566406 C 392.132812 19.941406 391.914062 19.628906 391.257812 19.628906 C 390.164062 19.628906 389.320312 20.535156 388.757812 21.535156 L 388.726562 21.472656 C 388.820312 21.191406 388.851562 20.972656 388.851562 20.566406 C 388.851562 19.972656 388.757812 19.628906 388.164062 19.628906 C 386.820312 19.628906 386.445312 20.878906 386.070312 22.003906 L 386.382812 22.066406 C 386.539062 21.503906 387.070312 19.972656 387.726562 19.972656 C 387.851562 19.972656 388.007812 20.097656 388.007812 20.316406 C 388.007812 20.597656 387.914062 21.128906 387.820312 21.410156 C 387.632812 22.035156 387.507812 22.597656 387.257812 23.285156 L 386.382812 25.972656 L 387.351562 25.972656 L 388.195312 23.472656 C 388.507812 22.691406 389.007812 21.566406 389.507812 20.941406 C 389.820312 20.566406 390.382812 19.941406 390.882812 19.941406 C 391.070312 19.941406 391.195312 20.097656 391.195312 20.378906 C 391.195312 20.441406 391.164062 20.691406 391.164062 20.753906 C 391.070312 21.253906 390.945312 21.628906 390.820312 22.066406 C 390.507812 23.128906 390.351562 23.847656 390.039062 24.816406 C 390.039062 24.941406 389.976562 25.066406 389.976562 25.160156 C 389.976562 25.660156 390.070312 26.097656 390.539062 26.097656 Z M 390.539062 26.097656 "/>
<path fill-rule="nonzero" fill="rgb(0%, 0%, 0%)" fill-opacity="1" d="M 212.53125 76.921875 L 212.4375 76.796875 C 211.8125 76.890625 210.1875 77.296875 209.71875 77.734375 C 209.5 77.953125 208.75 80.515625 208.5625 81.015625 C 207.78125 83.484375 206.96875 85.484375 205.03125 87.265625 C 203.9375 88.265625 202.25 89.359375 200.75 89.359375 C 200.4375 89.359375 200.1875 89.234375 200.1875 88.890625 C 200.1875 86.015625 202.625 80.140625 203.59375 77.171875 C 203.4375 77.046875 203.25 77.015625 203.0625 77.015625 C 200.90625 77.015625 193.96875 79.015625 193.96875 81.671875 C 193.96875 82.421875 195.125 84.234375 195.96875 84.234375 C 196.0625 84.234375 196.1875 84.234375 196.28125 84.171875 C 195.9375 83.734375 195.8125 83.171875 195.8125 82.640625 C 195.8125 80.296875 199.15625 78.109375 201.28125 78.046875 C 200.25 80.921875 197.84375 86.609375 197.84375 89.453125 C 197.84375 90.328125 198.1875 91.046875 199.15625 91.046875 C 201.25 91.046875 205.65625 87.984375 207.03125 86.390625 C 206.75 87.265625 206.5 88.171875 206.5 89.078125 C 206.5 89.640625 206.625 91.265625 207.40625 91.265625 C 208.34375 91.265625 209.78125 90.421875 209.90625 89.453125 C 209.78125 89.578125 209.5625 89.640625 209.375 89.640625 C 208.8125 89.640625 208.8125 88.859375 208.8125 88.453125 C 208.8125 86.421875 211.28125 78.390625 212.53125 76.921875 Z M 212.53125 76.921875 "/>
<path fill="none" stroke-width="0.5579" stroke-linecap="butt" stroke-linejoin="miter" stroke="rgb(0%, 0%, 0%)" stroke-opacity="1" stroke-miterlimit="10" d="M -79.106812 16.348312 L -56.14978 16.348312 " transform="matrix(2, 0, 0, -2, 201.697998, 50.556)"/>
<path fill="none" stroke-width="0.5579" stroke-linecap="round" stroke-linejoin="round" stroke="rgb(0%, 0%, 0%)" stroke-opacity="1" stroke-miterlimit="10" d="M -2.90292 3.348679 C -2.37167 1.340866 -1.188076 0.391647 -0.000576019 0.00102234 C -1.188076 -0.389603 -2.37167 -1.338821 -2.90292 -3.346634 " transform="matrix(2, 0, 0, -2, 89.954277, 17.86142)"/>
<path fill-rule="nonzero" fill="rgb(0%, 0%, 0%)" fill-opacity="1" d="M 62.460938 10.953125 C 63.773438 10.921875 64.460938 9.796875 64.804688 9.015625 L 64.554688 8.890625 C 64.335938 9.234375 63.804688 10.296875 63.210938 10.296875 C 63.085938 10.296875 62.960938 9.921875 62.960938 9.796875 C 62.960938 9.734375 62.960938 9.640625 62.992188 9.578125 C 63.054688 9.359375 63.148438 9.046875 63.210938 8.859375 L 63.648438 7.671875 C 63.867188 7.078125 64.023438 6.578125 64.148438 6.171875 C 64.304688 5.796875 64.367188 5.484375 64.367188 5.265625 C 64.367188 4.734375 64.273438 4.484375 63.804688 4.484375 C 62.960938 4.484375 61.835938 5.578125 61.523438 6.296875 L 61.804688 6.453125 C 61.992188 6.171875 62.523438 5.359375 62.867188 5.359375 C 63.085938 5.359375 63.054688 5.640625 63.054688 5.765625 C 63.054688 5.859375 63.054688 6.015625 62.992188 6.203125 C 62.929688 6.390625 62.867188 6.640625 62.742188 6.953125 L 62.242188 8.453125 C 62.085938 8.859375 61.960938 9.171875 61.898438 9.421875 C 61.835938 9.703125 61.773438 9.953125 61.773438 10.171875 C 61.773438 10.671875 61.992188 10.953125 62.460938 10.953125 Z M 62.460938 10.953125 "/>
<path fill-rule="nonzero" fill="rgb(0%, 0%, 0%)" fill-opacity="1" d="M 71.269531 9.511719 C 71.269531 8.699219 71.269531 5.730469 68.582031 5.730469 C 65.894531 5.730469 65.894531 8.699219 65.894531 9.511719 C 65.894531 10.292969 65.894531 13.230469 68.582031 13.230469 C 71.269531 13.230469 71.269531 10.292969 71.269531 9.511719 Z M 70.238281 9.355469 C 70.238281 10.074219 70.238281 11.167969 70.050781 11.792969 C 69.738281 12.761719 68.957031 12.886719 68.582031 12.886719 C 68.113281 12.886719 67.363281 12.667969 67.113281 11.761719 C 66.925781 11.136719 66.925781 10.042969 66.925781 9.355469 C 66.925781 8.636719 66.925781 7.792969 67.082031 7.199219 C 67.363281 6.199219 68.207031 6.074219 68.582031 6.074219 C 69.082031 6.074219 69.800781 6.324219 70.050781 7.136719 C 70.207031 7.730469 70.238281 8.511719 70.238281 9.355469 Z M 70.238281 9.355469 "/>
<path fill="none" stroke-width="0.5579" stroke-linecap="butt" stroke-linejoin="miter" stroke="rgb(0%, 0%, 0%)" stroke-opacity="1" stroke-miterlimit="10" d="M -79.106812 12.266281 L -8.942749 -13.847 " transform="matrix(2, 0, 0, -2, 201.697998, 50.556)"/>
<path fill="none" stroke-width="0.5579" stroke-linecap="round" stroke-linejoin="round" stroke="rgb(0%, 0%, 0%)" stroke-opacity="1" stroke-miterlimit="10" d="M -2.901639 3.348781 C -2.369889 1.337541 -1.187613 0.389529 -0.00119576 0.0015943 C -1.189102 -0.390474 -2.370166 -1.338532 -2.901437 -3.349406 " transform="matrix(1.87432, 0.69754, 0.69754, -1.87432, 184.337067, 78.441322)"/>
<path fill-rule="nonzero" fill="rgb(0%, 0%, 0%)" fill-opacity="1" d="M 119.730469 47.171875 C 119.417969 47.171875 119.355469 46.984375 119.292969 46.734375 C 119.230469 46.484375 119.105469 46.203125 118.792969 46.203125 C 118.542969 46.203125 118.417969 46.421875 118.417969 46.640625 C 118.417969 47.234375 119.167969 47.515625 119.636719 47.515625 C 120.480469 47.515625 120.542969 47.265625 120.917969 46.734375 C 121.167969 46.453125 121.324219 46.046875 121.511719 45.546875 C 121.699219 45.046875 122.011719 44.390625 122.199219 43.609375 L 123.511719 38.578125 L 124.699219 38.578125 L 124.824219 38.234375 L 123.605469 38.234375 C 123.917969 37.109375 124.386719 35.140625 124.699219 34.546875 C 124.824219 34.359375 125.074219 34.078125 125.449219 34.078125 C 125.730469 34.078125 125.855469 34.265625 125.917969 34.515625 C 125.980469 34.796875 126.074219 35.046875 126.417969 35.046875 C 126.667969 35.046875 126.792969 34.859375 126.792969 34.640625 C 126.792969 34.046875 126.042969 33.765625 125.542969 33.765625 C 123.730469 33.796875 123.042969 36.703125 122.636719 38.234375 L 121.449219 38.234375 L 121.355469 38.578125 L 122.542969 38.578125 L 120.636719 45.765625 C 120.542969 46.109375 120.261719 47.171875 119.730469 47.171875 Z M 119.730469 47.171875 "/>
<path fill-rule="nonzero" fill="rgb(0%, 0%, 0%)" fill-opacity="1" d="M 129.84375 43.132812 C 129.84375 42.320312 129.84375 39.351562 127.15625 39.351562 C 124.46875 39.351562 124.46875 42.320312 124.46875 43.132812 C 124.46875 43.914062 124.46875 46.851562 127.15625 46.851562 C 129.84375 46.851562 129.84375 43.914062 129.84375 43.132812 Z M 128.8125 42.976562 C 128.8125 43.695312 128.8125 44.789062 128.625 45.414062 C 128.3125 46.382812 127.53125 46.507812 127.15625 46.507812 C 126.6875 46.507812 125.9375 46.289062 125.6875 45.382812 C 125.5 44.757812 125.5 43.664062 125.5 42.976562 C 125.5 42.257812 125.5 41.414062 125.65625 40.820312 C 125.9375 39.820312 126.78125 39.695312 127.15625 39.695312 C 127.65625 39.695312 128.375 39.945312 128.625 40.757812 C 128.78125 41.351562 128.8125 42.132812 128.8125 42.976562 Z M 128.8125 42.976562 "/>
<path fill="none" stroke-width="0.5579" stroke-linecap="butt" stroke-linejoin="miter" stroke="rgb(0%, 0%, 0%)" stroke-opacity="1" stroke-miterlimit="10" d="M -33.64978 16.348312 L -10.692749 16.348312 " transform="matrix(2, 0, 0, -2, 201.697998, 50.556)"/>
<path fill="none" stroke-width="0.5579" stroke-linecap="round" stroke-linejoin="round" stroke="rgb(0%, 0%, 0%)" stroke-opacity="1" stroke-miterlimit="10" d="M -2.902748 3.348679 C -2.371498 1.340866 -1.191811 0.391647 -0.000404358 0.00102234 C -1.191811 -0.389603 -2.371498 -1.338821 -2.902748 -3.346634 " transform="matrix(2, 0, 0, -2, 180.867996, 17.86142)"/>
<path fill-rule="nonzero" fill="rgb(0%, 0%, 0%)" fill-opacity="1" d="M 153.375 10.953125 C 154.6875 10.921875 155.375 9.796875 155.71875 9.015625 L 155.46875 8.890625 C 155.25 9.234375 154.71875 10.296875 154.125 10.296875 C 154 10.296875 153.875 9.921875 153.875 9.796875 C 153.875 9.734375 153.875 9.640625 153.90625 9.578125 C 153.96875 9.359375 154.0625 9.046875 154.125 8.859375 L 154.5625 7.671875 C 154.78125 7.078125 154.9375 6.578125 155.0625 6.171875 C 155.21875 5.796875 155.28125 5.484375 155.28125 5.265625 C 155.28125 4.734375 155.1875 4.484375 154.71875 4.484375 C 153.875 4.484375 152.75 5.578125 152.4375 6.296875 L 152.71875 6.453125 C 152.90625 6.171875 153.4375 5.359375 153.78125 5.359375 C 154 5.359375 153.96875 5.640625 153.96875 5.765625 C 153.96875 5.859375 153.96875 6.015625 153.90625 6.203125 C 153.84375 6.390625 153.78125 6.640625 153.65625 6.953125 L 153.15625 8.453125 C 153 8.859375 152.875 9.171875 152.8125 9.421875 C 152.75 9.703125 152.6875 9.953125 152.6875 10.171875 C 152.6875 10.671875 152.90625 10.953125 153.375 10.953125 Z M 153.375 10.953125 "/>
<path fill-rule="nonzero" fill="rgb(0%, 0%, 0%)" fill-opacity="1" d="M 161.683594 13.011719 L 161.683594 12.574219 L 161.214844 12.574219 C 160.089844 12.574219 160.089844 12.449219 160.089844 12.074219 L 160.089844 6.042969 C 160.089844 5.730469 160.058594 5.730469 159.714844 5.730469 C 158.996094 6.417969 157.871094 6.417969 157.464844 6.417969 L 157.464844 6.855469 C 157.777344 6.855469 158.496094 6.855469 159.152344 6.542969 L 159.152344 12.074219 C 159.152344 12.449219 159.152344 12.574219 158.027344 12.574219 L 157.558594 12.574219 L 157.558594 13.011719 C 158.152344 12.980469 158.996094 12.980469 159.621094 12.980469 C 160.246094 12.980469 161.089844 12.980469 161.683594 13.011719 Z M 161.683594 13.011719 "/>
<path fill="none" stroke-width="0.5579" stroke-linecap="butt" stroke-linejoin="miter" stroke="rgb(0%, 0%, 0%)" stroke-opacity="1" stroke-miterlimit="10" d="M -34.001343 8.442062 L -8.864624 -10.264969 " transform="matrix(2, 0, 0, -2, 201.697998, 50.556)"/>
<path fill="none" stroke-width="0.5579" stroke-linecap="round" stroke-linejoin="round" stroke="rgb(0%, 0%, 0%)" stroke-opacity="1" stroke-miterlimit="10" d="M -2.901115 3.349781 C -2.369433 1.339904 -1.190838 0.390979 -0.0000245471 0.00141313 C -1.188252 -0.391102 -2.371498 -1.339915 -2.903145 -3.347435 " transform="matrix(1.60434, 1.19404, 1.19404, -1.60434, 184.412415, 71.416359)"/>
<path fill-rule="nonzero" fill="rgb(0%, 0%, 0%)" fill-opacity="1" d="M 164.832031 47.550781 C 164.519531 47.550781 164.457031 47.363281 164.394531 47.113281 C 164.332031 46.863281 164.207031 46.582031 163.894531 46.582031 C 163.644531 46.582031 163.519531 46.800781 163.519531 47.019531 C 163.519531 47.613281 164.269531 47.894531 164.738281 47.894531 C 165.582031 47.894531 165.644531 47.644531 166.019531 47.113281 C 166.269531 46.832031 166.425781 46.425781 166.613281 45.925781 C 166.800781 45.425781 167.113281 44.769531 167.300781 43.988281 L 168.613281 38.957031 L 169.800781 38.957031 L 169.925781 38.613281 L 168.707031 38.613281 C 169.019531 37.488281 169.488281 35.519531 169.800781 34.925781 C 169.925781 34.738281 170.175781 34.457031 170.550781 34.457031 C 170.832031 34.457031 170.957031 34.644531 171.019531 34.894531 C 171.082031 35.175781 171.175781 35.425781 171.519531 35.425781 C 171.769531 35.425781 171.894531 35.238281 171.894531 35.019531 C 171.894531 34.425781 171.144531 34.144531 170.644531 34.144531 C 168.832031 34.175781 168.144531 37.082031 167.738281 38.613281 L 166.550781 38.613281 L 166.457031 38.957031 L 167.644531 38.957031 L 165.738281 46.144531 C 165.644531 46.488281 165.363281 47.550781 164.832031 47.550781 Z M 164.832031 47.550781 "/>
<path fill-rule="nonzero" fill="rgb(0%, 0%, 0%)" fill-opacity="1" d="M 174.445312 47.015625 L 174.445312 46.578125 L 173.976562 46.578125 C 172.851562 46.578125 172.851562 46.453125 172.851562 46.078125 L 172.851562 40.046875 C 172.851562 39.734375 172.820312 39.734375 172.476562 39.734375 C 171.757812 40.421875 170.632812 40.421875 170.226562 40.421875 L 170.226562 40.859375 C 170.539062 40.859375 171.257812 40.859375 171.914062 40.546875 L 171.914062 46.078125 C 171.914062 46.453125 171.914062 46.578125 170.789062 46.578125 L 170.320312 46.578125 L 170.320312 47.015625 C 170.914062 46.984375 171.757812 46.984375 172.382812 46.984375 C 173.007812 46.984375 173.851562 46.984375 174.445312 47.015625 Z M 174.445312 47.015625 "/>
<path fill="none" stroke-width="0.5579" stroke-linecap="butt" stroke-linejoin="miter" stroke="rgb(0%, 0%, 0%)" stroke-opacity="1" stroke-miterlimit="10" d="M 11.807251 16.348312 L 34.764282 16.348312 " transform="matrix(2, 0, 0, -2, 201.697998, 50.556)"/>
<path fill="none" stroke-width="0.5579" stroke-linecap="round" stroke-linejoin="round" stroke="rgb(0%, 0%, 0%)" stroke-opacity="1" stroke-miterlimit="10" d="M -2.902573 3.348679 C -2.371323 1.340866 -1.191635 0.391647 -0.000228882 0.00102234 C -1.191635 -0.389603 -2.371323 -1.338821 -2.902573 -3.346634 " transform="matrix(2, 0, 0, -2, 271.781708, 17.86142)"/>
<path fill-rule="nonzero" fill="rgb(0%, 0%, 0%)" fill-opacity="1" d="M 244.289062 10.953125 C 245.601562 10.921875 246.289062 9.796875 246.632812 9.015625 L 246.382812 8.890625 C 246.164062 9.234375 245.632812 10.296875 245.039062 10.296875 C 244.914062 10.296875 244.789062 9.921875 244.789062 9.796875 C 244.789062 9.734375 244.789062 9.640625 244.820312 9.578125 C 244.882812 9.359375 244.976562 9.046875 245.039062 8.859375 L 245.476562 7.671875 C 245.695312 7.078125 245.851562 6.578125 245.976562 6.171875 C 246.132812 5.796875 246.195312 5.484375 246.195312 5.265625 C 246.195312 4.734375 246.101562 4.484375 245.632812 4.484375 C 244.789062 4.484375 243.664062 5.578125 243.351562 6.296875 L 243.632812 6.453125 C 243.820312 6.171875 244.351562 5.359375 244.695312 5.359375 C 244.914062 5.359375 244.882812 5.640625 244.882812 5.765625 C 244.882812 5.859375 244.882812 6.015625 244.820312 6.203125 C 244.757812 6.390625 244.695312 6.640625 244.570312 6.953125 L 244.070312 8.453125 C 243.914062 8.859375 243.789062 9.171875 243.726562 9.421875 C 243.664062 9.703125 243.601562 9.953125 243.601562 10.171875 C 243.601562 10.671875 243.820312 10.953125 244.289062 10.953125 Z M 244.289062 10.953125 "/>
<path fill-rule="nonzero" fill="rgb(0%, 0%, 0%)" fill-opacity="1" d="M 252.972656 10.949219 L 252.566406 10.949219 C 252.535156 11.105469 252.441406 11.824219 252.253906 11.949219 C 252.191406 12.011719 251.285156 12.011719 251.160156 12.011719 L 249.097656 12.011719 L 250.503906 10.886719 C 250.878906 10.574219 251.847656 9.886719 252.191406 9.542969 C 252.503906 9.230469 252.972656 8.667969 252.972656 7.886719 C 252.972656 6.511719 251.722656 5.730469 250.253906 5.730469 C 248.847656 5.730469 247.847656 6.636719 247.847656 7.667969 C 247.847656 8.230469 248.316406 8.292969 248.441406 8.292969 C 248.722656 8.292969 249.035156 8.105469 249.035156 7.699219 C 249.035156 7.480469 248.910156 7.136719 248.410156 7.136719 C 248.660156 6.574219 249.347656 6.136719 250.097656 6.136719 C 251.253906 6.136719 251.847656 7.011719 251.847656 7.886719 C 251.847656 8.667969 251.347656 9.480469 250.566406 10.167969 L 247.972656 12.542969 C 247.878906 12.667969 247.847656 12.667969 247.847656 13.011719 L 252.628906 13.011719 Z M 252.972656 10.949219 "/>
<path fill="none" stroke-width="0.5579" stroke-linecap="butt" stroke-linejoin="miter" stroke="rgb(0%, 0%, 0%)" stroke-opacity="1" stroke-miterlimit="10" d="M 0.834595 8.442062 L 0.834595 -8.589188 " transform="matrix(2, 0, 0, -2, 201.697998, 50.556)"/>
<path fill="none" stroke-width="0.5579" stroke-linecap="round" stroke-linejoin="round" stroke="rgb(0%, 0%, 0%)" stroke-opacity="1" stroke-miterlimit="10" d="M -2.902542 3.345901 C -2.371292 1.338089 -1.191605 0.38887 -0.000198364 -0.00175476 C -1.191605 -0.39238 -2.371292 -1.337692 -2.902542 -3.345505 " transform="matrix(0, 2, 2, 0, 203.370697, 68.289459)"/>
<path fill-rule="nonzero" fill="rgb(0%, 0%, 0%)" fill-opacity="1" d="M 208.925781 57.761719 C 208.613281 57.761719 208.550781 57.574219 208.488281 57.324219 C 208.425781 57.074219 208.300781 56.792969 207.988281 56.792969 C 207.738281 56.792969 207.613281 57.011719 207.613281 57.230469 C 207.613281 57.824219 208.363281 58.105469 208.832031 58.105469 C 209.675781 58.105469 209.738281 57.855469 210.113281 57.324219 C 210.363281 57.042969 210.519531 56.636719 210.707031 56.136719 C 210.894531 55.636719 211.207031 54.980469 211.394531 54.199219 L 212.707031 49.167969 L 213.894531 49.167969 L 214.019531 48.824219 L 212.800781 48.824219 C 213.113281 47.699219 213.582031 45.730469 213.894531 45.136719 C 214.019531 44.949219 214.269531 44.667969 214.644531 44.667969 C 214.925781 44.667969 215.050781 44.855469 215.113281 45.105469 C 215.175781 45.386719 215.269531 45.636719 215.613281 45.636719 C 215.863281 45.636719 215.988281 45.449219 215.988281 45.230469 C 215.988281 44.636719 215.238281 44.355469 214.738281 44.355469 C 212.925781 44.386719 212.238281 47.292969 211.832031 48.824219 L 210.644531 48.824219 L 210.550781 49.167969 L 211.738281 49.167969 L 209.832031 56.355469 C 209.738281 56.699219 209.457031 57.761719 208.925781 57.761719 Z M 208.925781 57.761719 "/>
<path fill-rule="nonzero" fill="rgb(0%, 0%, 0%)" fill-opacity="1" d="M 218.914062 55.164062 L 218.507812 55.164062 C 218.476562 55.320312 218.382812 56.039062 218.195312 56.164062 C 218.132812 56.226562 217.226562 56.226562 217.101562 56.226562 L 215.039062 56.226562 L 216.445312 55.101562 C 216.820312 54.789062 217.789062 54.101562 218.132812 53.757812 C 218.445312 53.445312 218.914062 52.882812 218.914062 52.101562 C 218.914062 50.726562 217.664062 49.945312 216.195312 49.945312 C 214.789062 49.945312 213.789062 50.851562 213.789062 51.882812 C 213.789062 52.445312 214.257812 52.507812 214.382812 52.507812 C 214.664062 52.507812 214.976562 52.320312 214.976562 51.914062 C 214.976562 51.695312 214.851562 51.351562 214.351562 51.351562 C 214.601562 50.789062 215.289062 50.351562 216.039062 50.351562 C 217.195312 50.351562 217.789062 51.226562 217.789062 52.101562 C 217.789062 52.882812 217.289062 53.695312 216.507812 54.382812 L 213.914062 56.757812 C 213.820312 56.882812 213.789062 56.882812 213.789062 57.226562 L 218.570312 57.226562 Z M 218.914062 55.164062 "/>
<path fill="none" stroke-width="0.5579" stroke-linecap="butt" stroke-linejoin="miter" stroke="rgb(0%, 0%, 0%)" stroke-opacity="1" stroke-miterlimit="10" d="M 55.697876 16.348312 L 78.651001 16.348312 " transform="matrix(2, 0, 0, -2, 201.697998, 50.556)"/>
<path fill="none" stroke-width="0.5579" stroke-linecap="round" stroke-linejoin="round" stroke="rgb(0%, 0%, 0%)" stroke-opacity="1" stroke-miterlimit="10" d="M -2.901062 3.348679 C -2.369812 1.340866 -1.190125 0.391647 0.00128174 0.00102234 C -1.190125 -0.389603 -2.369812 -1.338821 -2.901062 -3.346634 " transform="matrix(2, 0, 0, -2, 359.559937, 17.86142)"/>
<path fill-rule="nonzero" fill="rgb(0%, 0%, 0%)" fill-opacity="1" d="M 325.105469 10.871094 C 326.417969 10.839844 327.105469 9.714844 327.449219 8.933594 L 327.199219 8.808594 C 326.980469 9.152344 326.449219 10.214844 325.855469 10.214844 C 325.730469 10.214844 325.605469 9.839844 325.605469 9.714844 C 325.605469 9.652344 325.605469 9.558594 325.636719 9.496094 C 325.699219 9.277344 325.792969 8.964844 325.855469 8.777344 L 326.292969 7.589844 C 326.511719 6.996094 326.667969 6.496094 326.792969 6.089844 C 326.949219 5.714844 327.011719 5.402344 327.011719 5.183594 C 327.011719 4.652344 326.917969 4.402344 326.449219 4.402344 C 325.605469 4.402344 324.480469 5.496094 324.167969 6.214844 L 324.449219 6.371094 C 324.636719 6.089844 325.167969 5.277344 325.511719 5.277344 C 325.730469 5.277344 325.699219 5.558594 325.699219 5.683594 C 325.699219 5.777344 325.699219 5.933594 325.636719 6.121094 C 325.574219 6.308594 325.511719 6.558594 325.386719 6.871094 L 324.886719 8.371094 C 324.730469 8.777344 324.605469 9.089844 324.542969 9.339844 C 324.480469 9.621094 324.417969 9.871094 324.417969 10.089844 C 324.417969 10.589844 324.636719 10.871094 325.105469 10.871094 Z M 325.105469 10.871094 "/>
<path fill-rule="nonzero" fill="rgb(0%, 0%, 0%)" fill-opacity="1" d="M 331.492188 13.023438 C 332.492188 13.023438 332.960938 12.085938 333.242188 11.585938 L 333.085938 11.492188 C 332.835938 11.835938 332.398438 12.554688 332.054688 12.554688 C 331.898438 12.554688 331.898438 12.273438 331.898438 12.179688 C 331.898438 12.085938 331.960938 11.898438 332.054688 11.617188 C 332.117188 11.335938 332.210938 11.023438 332.335938 10.617188 C 332.523438 10.023438 332.710938 9.242188 332.710938 8.867188 C 332.710938 8.398438 332.523438 8.148438 332.054688 8.148438 C 331.210938 8.148438 330.585938 8.835938 330.148438 9.585938 L 330.117188 9.554688 C 330.210938 9.304688 330.242188 9.148438 330.242188 8.835938 C 330.242188 8.398438 330.148438 8.148438 329.710938 8.148438 C 328.679688 8.148438 328.429688 9.085938 328.148438 9.929688 L 328.367188 9.992188 C 328.492188 9.554688 328.898438 8.398438 329.398438 8.398438 C 329.492188 8.398438 329.585938 8.492188 329.585938 8.648438 C 329.585938 8.867188 329.523438 9.273438 329.460938 9.492188 C 329.304688 9.960938 329.210938 10.367188 329.023438 10.898438 L 328.367188 12.929688 L 329.085938 12.929688 L 329.742188 11.054688 C 329.960938 10.460938 330.367188 9.617188 330.710938 9.117188 C 330.960938 8.835938 331.398438 8.398438 331.773438 8.398438 C 331.929688 8.398438 331.992188 8.492188 331.992188 8.710938 C 331.992188 8.773438 331.992188 8.929688 331.960938 8.992188 C 331.929688 9.367188 331.804688 9.648438 331.710938 9.992188 C 331.492188 10.773438 331.367188 11.335938 331.148438 12.054688 C 331.117188 12.148438 331.085938 12.242188 331.085938 12.304688 C 331.085938 12.679688 331.148438 13.023438 331.492188 13.023438 Z M 331.492188 13.023438 "/>
<path fill-rule="nonzero" fill="rgb(0%, 0%, 0%)" fill-opacity="1" d="M 340.683594 10.429688 L 340.683594 9.804688 L 335.089844 9.804688 L 335.089844 10.429688 Z M 340.683594 10.429688 "/>
<path fill-rule="nonzero" fill="rgb(0%, 0%, 0%)" fill-opacity="1" d="M 347.34375 12.929688 L 347.34375 12.492188 L 346.875 12.492188 C 345.75 12.492188 345.75 12.367188 345.75 11.992188 L 345.75 5.960938 C 345.75 5.648438 345.71875 5.648438 345.375 5.648438 C 344.65625 6.335938 343.53125 6.335938 343.125 6.335938 L 343.125 6.773438 C 343.4375 6.773438 344.15625 6.773438 344.8125 6.460938 L 344.8125 11.992188 C 344.8125 12.367188 344.8125 12.492188 343.6875 12.492188 L 343.21875 12.492188 L 343.21875 12.929688 C 343.8125 12.898438 344.65625 12.898438 345.28125 12.898438 C 345.90625 12.898438 346.75 12.898438 347.34375 12.929688 Z M 347.34375 12.929688 "/>
<path fill="none" stroke-width="0.5579" stroke-linecap="butt" stroke-linejoin="miter" stroke="rgb(0%, 0%, 0%)" stroke-opacity="1" stroke-miterlimit="10" d="M 79.209595 12.2155 L 10.611938 -13.780594 " transform="matrix(2, 0, 0, -2, 201.697998, 50.556)"/>
<path fill="none" stroke-width="0.5579" stroke-linecap="round" stroke-linejoin="round" stroke="rgb(0%, 0%, 0%)" stroke-opacity="1" stroke-miterlimit="10" d="M -2.902589 3.34689 C -2.371791 1.341081 -1.189943 0.391952 -0.00160824 0.000148405 C -1.189427 -0.389436 -2.371389 -1.336846 -2.899065 -3.346791 " transform="matrix(-1.87014, 0.70864, 0.70864, 1.87014, 222.403137, 78.313362)"/>
<path fill-rule="nonzero" fill="rgb(0%, 0%, 0%)" fill-opacity="1" d="M 274.988281 47.160156 C 274.675781 47.160156 274.613281 46.972656 274.550781 46.722656 C 274.488281 46.472656 274.363281 46.191406 274.050781 46.191406 C 273.800781 46.191406 273.675781 46.410156 273.675781 46.628906 C 273.675781 47.222656 274.425781 47.503906 274.894531 47.503906 C 275.738281 47.503906 275.800781 47.253906 276.175781 46.722656 C 276.425781 46.441406 276.582031 46.035156 276.769531 45.535156 C 276.957031 45.035156 277.269531 44.378906 277.457031 43.597656 L 278.769531 38.566406 L 279.957031 38.566406 L 280.082031 38.222656 L 278.863281 38.222656 C 279.175781 37.097656 279.644531 35.128906 279.957031 34.535156 C 280.082031 34.347656 280.332031 34.066406 280.707031 34.066406 C 280.988281 34.066406 281.113281 34.253906 281.175781 34.503906 C 281.238281 34.785156 281.332031 35.035156 281.675781 35.035156 C 281.925781 35.035156 282.050781 34.847656 282.050781 34.628906 C 282.050781 34.035156 281.300781 33.753906 280.800781 33.753906 C 278.988281 33.785156 278.300781 36.691406 277.894531 38.222656 L 276.707031 38.222656 L 276.613281 38.566406 L 277.800781 38.566406 L 275.894531 45.753906 C 275.800781 46.097656 275.519531 47.160156 274.988281 47.160156 Z M 274.988281 47.160156 "/>
<path fill-rule="nonzero" fill="rgb(0%, 0%, 0%)" fill-opacity="1" d="M 282.679688 46.71875 C 283.679688 46.71875 284.148438 45.78125 284.429688 45.28125 L 284.273438 45.1875 C 284.023438 45.53125 283.585938 46.25 283.242188 46.25 C 283.085938 46.25 283.085938 45.96875 283.085938 45.875 C 283.085938 45.78125 283.148438 45.59375 283.242188 45.3125 C 283.304688 45.03125 283.398438 44.71875 283.523438 44.3125 C 283.710938 43.71875 283.898438 42.9375 283.898438 42.5625 C 283.898438 42.09375 283.710938 41.84375 283.242188 41.84375 C 282.398438 41.84375 281.773438 42.53125 281.335938 43.28125 L 281.304688 43.25 C 281.398438 43 281.429688 42.84375 281.429688 42.53125 C 281.429688 42.09375 281.335938 41.84375 280.898438 41.84375 C 279.867188 41.84375 279.617188 42.78125 279.335938 43.625 L 279.554688 43.6875 C 279.679688 43.25 280.085938 42.09375 280.585938 42.09375 C 280.679688 42.09375 280.773438 42.1875 280.773438 42.34375 C 280.773438 42.5625 280.710938 42.96875 280.648438 43.1875 C 280.492188 43.65625 280.398438 44.0625 280.210938 44.59375 L 279.554688 46.625 L 280.273438 46.625 L 280.929688 44.75 C 281.148438 44.15625 281.554688 43.3125 281.898438 42.8125 C 282.148438 42.53125 282.585938 42.09375 282.960938 42.09375 C 283.117188 42.09375 283.179688 42.1875 283.179688 42.40625 C 283.179688 42.46875 283.179688 42.625 283.148438 42.6875 C 283.117188 43.0625 282.992188 43.34375 282.898438 43.6875 C 282.679688 44.46875 282.554688 45.03125 282.335938 45.75 C 282.304688 45.84375 282.273438 45.9375 282.273438 46 C 282.273438 46.375 282.335938 46.71875 282.679688 46.71875 Z M 282.679688 46.71875 "/>
</svg>
