<?xml version="1.0" encoding="UTF-8"?>
<svg xmlns="http://www.w3.org/2000/svg" xmlns:xlink="http://www.w3.org/1999/xlink" width="413.339996" height="98" viewBox="0 0 413.339996 98">
<path fill-rule="nonzero" fill="rgb(0%, 0%, 0%)" fill-opacity="1" d="M 17.867188 19.445312 L 14.054688 10.382812 C 13.898438 9.976562 13.898438 9.976562 13.335938 9.976562 L 9.648438 9.976562 C 9.273438 9.976562 8.992188 9.976562 8.992188 10.320312 C 8.992188 10.664062 9.335938 10.664062 9.429688 10.664062 C 9.679688 10.664062 10.210938 10.726562 10.648438 10.882812 L 10.648438 21.507812 C 10.648438 21.945312 10.648438 22.820312 9.304688 22.945312 C 8.929688 22.976562 8.929688 23.257812 8.929688 23.289062 C 8.929688 23.632812 9.242188 23.632812 9.617188 23.632812 L 12.679688 23.632812 C 13.054688 23.632812 13.335938 23.632812 13.335938 23.289062 C 13.335938 23.101562 13.179688 22.945312 13.023438 22.945312 C 11.492188 22.820312 11.492188 21.976562 11.492188 21.507812 L 11.492188 11.601562 L 11.523438 11.570312 L 16.367188 23.226562 C 16.554688 23.570312 16.679688 23.632812 16.804688 23.632812 C 17.054688 23.632812 17.085938 23.476562 17.210938 23.226562 L 22.085938 11.570312 L 22.117188 11.601562 L 22.117188 21.507812 C 22.117188 21.945312 22.117188 22.820312 20.742188 22.945312 C 20.367188 22.976562 20.367188 23.257812 20.367188 23.289062 C 20.367188 23.632812 20.679688 23.632812 21.054688 23.632812 L 26.367188 23.632812 C 26.742188 23.632812 27.023438 23.632812 27.023438 23.289062 C 27.023438 23.101562 26.867188 22.945312 26.710938 22.945312 C 25.179688 22.820312 25.179688 21.976562 25.179688 21.507812 L 25.179688 12.101562 C 25.179688 11.664062 25.179688 10.789062 26.523438 10.664062 C 26.742188 10.664062 26.898438 10.539062 26.898438 10.320312 C 26.898438 9.976562 26.617188 9.976562 26.242188 9.976562 L 22.398438 9.976562 C 21.898438 9.976562 21.835938 9.976562 21.679688 10.382812 Z M 17.273438 19.820312 C 17.429688 20.132812 17.460938 20.164062 17.710938 20.257812 L 16.804688 22.351562 L 16.773438 22.351562 L 12.242188 11.507812 C 12.148438 11.257812 11.960938 10.914062 11.710938 10.664062 L 13.429688 10.664062 Z M 11.242188 22.945312 L 10.929688 22.945312 C 10.960938 22.882812 10.992188 22.820312 11.023438 22.789062 C 11.054688 22.757812 11.054688 22.726562 11.085938 22.726562 Z M 22.804688 10.664062 L 24.929688 10.664062 C 24.460938 11.164062 24.460938 11.695312 24.460938 12.039062 L 24.460938 21.570312 C 24.460938 21.914062 24.460938 22.445312 24.929688 22.945312 L 22.367188 22.945312 C 22.804688 22.445312 22.804688 21.914062 22.804688 21.570312 Z M 22.804688 10.664062 "/>
<path fill-rule="nonzero" fill="rgb(0%, 0%, 0%)" fill-opacity="1" d="M 34.589844 22.183594 C 34.589844 20.652344 34.402344 19.527344 33.777344 18.558594 C 33.339844 17.933594 32.464844 17.371094 31.371094 17.371094 C 28.121094 17.371094 28.121094 21.183594 28.121094 22.183594 C 28.121094 23.183594 28.121094 26.902344 31.371094 26.902344 C 34.589844 26.902344 34.589844 23.183594 34.589844 22.183594 Z M 31.371094 26.496094 C 30.714844 26.496094 29.871094 26.121094 29.589844 24.996094 C 29.402344 24.183594 29.402344 23.027344 29.402344 21.996094 C 29.402344 20.964844 29.402344 19.902344 29.589844 19.152344 C 29.902344 18.058594 30.777344 17.746094 31.371094 17.746094 C 32.121094 17.746094 32.839844 18.214844 33.089844 19.027344 C 33.308594 19.777344 33.339844 20.777344 33.339844 21.996094 C 33.339844 23.027344 33.339844 24.058594 33.152344 24.933594 C 32.871094 26.214844 31.933594 26.496094 31.371094 26.496094 Z M 31.371094 26.496094 "/>
<path fill-rule="nonzero" fill="rgb(0%, 0%, 0%)" fill-opacity="1" d="M 110.621094 19.445312 L 106.808594 10.382812 C 106.652344 9.976562 106.652344 9.976562 106.089844 9.976562 L 102.402344 9.976562 C 102.027344 9.976562 101.746094 9.976562 101.746094 10.320312 C 101.746094 10.664062 102.089844 10.664062 102.183594 10.664062 C 102.433594 10.664062 102.964844 10.726562 103.402344 10.882812 L 103.402344 21.507812 C 103.402344 21.945312 103.402344 22.820312 102.058594 22.945312 C 101.683594 22.976562 101.683594 23.257812 101.683594 23.289062 C 101.683594 23.632812 101.996094 23.632812 102.371094 23.632812 L 105.433594 23.632812 C 105.808594 23.632812 106.089844 23.632812 106.089844 23.289062 C 106.089844 23.101562 105.933594 22.945312 105.777344 22.945312 C 104.246094 22.820312 104.246094 21.976562 104.246094 21.507812 L 104.246094 11.601562 L 104.277344 11.570312 L 109.121094 23.226562 C 109.308594 23.570312 109.433594 23.632812 109.558594 23.632812 C 109.808594 23.632812 109.839844 23.476562 109.964844 23.226562 L 114.839844 11.570312 L 114.871094 11.601562 L 114.871094 21.507812 C 114.871094 21.945312 114.871094 22.820312 113.496094 22.945312 C 113.121094 22.976562 113.121094 23.257812 113.121094 23.289062 C 113.121094 23.632812 113.433594 23.632812 113.808594 23.632812 L 119.121094 23.632812 C 119.496094 23.632812 119.777344 23.632812 119.777344 23.289062 C 119.777344 23.101562 119.621094 22.945312 119.464844 22.945312 C 117.933594 22.820312 117.933594 21.976562 117.933594 21.507812 L 117.933594 12.101562 C 117.933594 11.664062 117.933594 10.789062 119.277344 10.664062 C 119.496094 10.664062 119.652344 10.539062 119.652344 10.320312 C 119.652344 9.976562 119.371094 9.976562 118.996094 9.976562 L 115.152344 9.976562 C 114.652344 9.976562 114.589844 9.976562 114.433594 10.382812 Z M 110.027344 19.820312 C 110.183594 20.132812 110.214844 20.164062 110.464844 20.257812 L 109.558594 22.351562 L 109.527344 22.351562 L 104.996094 11.507812 C 104.902344 11.257812 104.714844 10.914062 104.464844 10.664062 L 106.183594 10.664062 Z M 103.996094 22.945312 L 103.683594 22.945312 C 103.714844 22.882812 103.746094 22.820312 103.777344 22.789062 C 103.808594 22.757812 103.808594 22.726562 103.839844 22.726562 Z M 115.558594 10.664062 L 117.683594 10.664062 C 117.214844 11.164062 117.214844 11.695312 117.214844 12.039062 L 117.214844 21.570312 C 117.214844 21.914062 117.214844 22.445312 117.683594 22.945312 L 115.121094 22.945312 C 115.558594 22.445312 115.558594 21.914062 115.558594 21.570312 Z M 115.558594 10.664062 "/>
<path fill-rule="nonzero" fill="rgb(0%, 0%, 0%)" fill-opacity="1" d="M 124.8125 17.746094 C 124.8125 17.371094 124.8125 17.371094 124.40625 17.371094 C 123.5 18.246094 122.25 18.246094 121.6875 18.246094 L 121.6875 18.746094 C 122 18.746094 122.9375 18.746094 123.6875 18.371094 L 123.6875 25.464844 C 123.6875 25.933594 123.6875 26.121094 122.3125 26.121094 L 121.78125 26.121094 L 121.78125 26.621094 C 122.03125 26.621094 123.75 26.558594 124.25 26.558594 C 124.6875 26.558594 126.4375 26.621094 126.75 26.621094 L 126.75 26.121094 L 126.21875 26.121094 C 124.8125 26.121094 124.8125 25.933594 124.8125 25.464844 Z M 124.8125 17.746094 "/>
<path fill-rule="nonzero" fill="rgb(0%, 0%, 0%)" fill-opacity="1" d="M 203.375 19.445312 L 199.5625 10.382812 C 199.40625 9.976562 199.40625 9.976562 198.84375 9.976562 L 195.15625 9.976562 C 194.78125 9.976562 194.5 9.976562 194.5 10.320312 C 194.5 10.664062 194.84375 10.664062 194.9375 10.664062 C 195.1875 10.664062 195.71875 10.726562 196.15625 10.882812 L 196.15625 21.507812 C 196.15625 21.945312 196.15625 22.820312 194.8125 22.945312 C 194.4375 22.976562 194.4375 23.257812 194.4375 23.289062 C 194.4375 23.632812 194.75 23.632812 195.125 23.632812 L 198.1875 23.632812 C 198.5625 23.632812 198.84375 23.632812 198.84375 23.289062 C 198.84375 23.101562 198.6875 22.945312 198.53125 22.945312 C 197 22.820312 197 21.976562 197 21.507812 L 197 11.601562 L 197.03125 11.570312 L 201.875 23.226562 C 202.0625 23.570312 202.1875 23.632812 202.3125 23.632812 C 202.5625 23.632812 202.59375 23.476562 202.71875 23.226562 L 207.59375 11.570312 L 207.625 11.601562 L 207.625 21.507812 C 207.625 21.945312 207.625 22.820312 206.25 22.945312 C 205.875 22.976562 205.875 23.257812 205.875 23.289062 C 205.875 23.632812 206.1875 23.632812 206.5625 23.632812 L 211.875 23.632812 C 212.25 23.632812 212.53125 23.632812 212.53125 23.289062 C 212.53125 23.101562 212.375 22.945312 212.21875 22.945312 C 210.6875 22.820312 210.6875 21.976562 210.6875 21.507812 L 210.6875 12.101562 C 210.6875 11.664062 210.6875 10.789062 212.03125 10.664062 C 212.25 10.664062 212.40625 10.539062 212.40625 10.320312 C 212.40625 9.976562 212.125 9.976562 211.75 9.976562 L 207.90625 9.976562 C 207.40625 9.976562 207.34375 9.976562 207.1875 10.382812 Z M 202.78125 19.820312 C 202.9375 20.132812 202.96875 20.164062 203.21875 20.257812 L 202.3125 22.351562 L 202.28125 22.351562 L 197.75 11.507812 C 197.65625 11.257812 197.46875 10.914062 197.21875 10.664062 L 198.9375 10.664062 Z M 196.75 22.945312 L 196.4375 22.945312 C 196.46875 22.882812 196.5 22.820312 196.53125 22.789062 C 196.5625 22.757812 196.5625 22.726562 196.59375 22.726562 Z M 208.3125 10.664062 L 210.4375 10.664062 C 209.96875 11.164062 209.96875 11.695312 209.96875 12.039062 L 209.96875 21.570312 C 209.96875 21.914062 209.96875 22.445312 210.4375 22.945312 L 207.875 22.945312 C 208.3125 22.445312 208.3125 21.914062 208.3125 21.570312 Z M 208.3125 10.664062 "/>
<path fill-rule="nonzero" fill="rgb(0%, 0%, 0%)" fill-opacity="1" d="M 219.941406 24.089844 L 219.472656 24.089844 C 219.441406 24.402344 219.285156 25.214844 219.097656 25.339844 C 219.003906 25.433594 217.941406 25.433594 217.722656 25.433594 L 215.160156 25.433594 C 216.628906 24.152344 217.128906 23.746094 217.941406 23.089844 C 218.972656 22.277344 219.941406 21.402344 219.941406 20.089844 C 219.941406 18.402344 218.472656 17.371094 216.691406 17.371094 C 214.972656 17.371094 213.785156 18.589844 213.785156 19.871094 C 213.785156 20.558594 214.378906 20.652344 214.535156 20.652344 C 214.847656 20.652344 215.253906 20.402344 215.253906 19.902344 C 215.253906 19.652344 215.160156 19.152344 214.441406 19.152344 C 214.878906 18.183594 215.816406 17.871094 216.472656 17.871094 C 217.878906 17.871094 218.597656 18.964844 218.597656 20.089844 C 218.597656 21.308594 217.722656 22.246094 217.285156 22.746094 L 213.941406 26.089844 C 213.785156 26.214844 213.785156 26.246094 213.785156 26.621094 L 219.535156 26.621094 Z M 219.941406 24.089844 "/>
<path fill-rule="nonzero" fill="rgb(0%, 0%, 0%)" fill-opacity="1" d="M 290.65625 18.632812 C 290.65625 18.070312 290.1875 17.601562 289.625 17.601562 C 289.03125 17.601562 288.5625 18.070312 288.5625 18.632812 C 288.5625 19.226562 289.03125 19.695312 289.625 19.695312 C 290.1875 19.695312 290.65625 19.226562 290.65625 18.632812 Z M 290.65625 18.632812 "/>
<path fill-rule="nonzero" fill="rgb(0%, 0%, 0%)" fill-opacity="1" d="M 299.484375 18.632812 C 299.484375 18.070312 299.015625 17.601562 298.453125 17.601562 C 297.859375 17.601562 297.390625 18.070312 297.390625 18.632812 C 297.390625 19.226562 297.859375 19.695312 298.453125 19.695312 C 299.015625 19.695312 299.484375 19.226562 299.484375 18.632812 Z M 299.484375 18.632812 "/>
<path fill-rule="nonzero" fill="rgb(0%, 0%, 0%)" fill-opacity="1" d="M 308.332031 18.632812 C 308.332031 18.070312 307.863281 17.601562 307.300781 17.601562 C 306.707031 17.601562 306.238281 18.070312 306.238281 18.632812 C 306.238281 19.226562 306.707031 19.695312 307.300781 19.695312 C 307.863281 19.695312 308.332031 19.226562 308.332031 18.632812 Z M 308.332031 18.632812 "/>
<path fill-rule="nonzero" fill="rgb(0%, 0%, 0%)" fill-opacity="1" d="M 384.367188 19.445312 L 380.554688 10.382812 C 380.398438 9.976562 380.398438 9.976562 379.835938 9.976562 L 376.148438 9.976562 C 375.773438 9.976562 375.492188 9.976562 375.492188 10.320312 C 375.492188 10.664062 375.835938 10.664062 375.929688 10.664062 C 376.179688 10.664062 376.710938 10.726562 377.148438 10.882812 L 377.148438 21.507812 C 377.148438 21.945312 377.148438 22.820312 375.804688 22.945312 C 375.429688 22.976562 375.429688 23.257812 375.429688 23.289062 C 375.429688 23.632812 375.742188 23.632812 376.117188 23.632812 L 379.179688 23.632812 C 379.554688 23.632812 379.835938 23.632812 379.835938 23.289062 C 379.835938 23.101562 379.679688 22.945312 379.523438 22.945312 C 377.992188 22.820312 377.992188 21.976562 377.992188 21.507812 L 377.992188 11.601562 L 378.023438 11.570312 L 382.867188 23.226562 C 383.054688 23.570312 383.179688 23.632812 383.304688 23.632812 C 383.554688 23.632812 383.585938 23.476562 383.710938 23.226562 L 388.585938 11.570312 L 388.617188 11.601562 L 388.617188 21.507812 C 388.617188 21.945312 388.617188 22.820312 387.242188 22.945312 C 386.867188 22.976562 386.867188 23.257812 386.867188 23.289062 C 386.867188 23.632812 387.179688 23.632812 387.554688 23.632812 L 392.867188 23.632812 C 393.242188 23.632812 393.523438 23.632812 393.523438 23.289062 C 393.523438 23.101562 393.367188 22.945312 393.210938 22.945312 C 391.679688 22.820312 391.679688 21.976562 391.679688 21.507812 L 391.679688 12.101562 C 391.679688 11.664062 391.679688 10.789062 393.023438 10.664062 C 393.242188 10.664062 393.398438 10.539062 393.398438 10.320312 C 393.398438 9.976562 393.117188 9.976562 392.742188 9.976562 L 388.898438 9.976562 C 388.398438 9.976562 388.335938 9.976562 388.179688 10.382812 Z M 383.773438 19.820312 C 383.929688 20.132812 383.960938 20.164062 384.210938 20.257812 L 383.304688 22.351562 L 383.273438 22.351562 L 378.742188 11.507812 C 378.648438 11.257812 378.460938 10.914062 378.210938 10.664062 L 379.929688 10.664062 Z M 377.742188 22.945312 L 377.429688 22.945312 C 377.460938 22.882812 377.492188 22.820312 377.523438 22.789062 C 377.554688 22.757812 377.554688 22.726562 377.585938 22.726562 Z M 389.304688 10.664062 L 391.429688 10.664062 C 390.960938 11.164062 390.960938 11.695312 390.960938 12.039062 L 390.960938 21.570312 C 390.960938 21.914062 390.960938 22.445312 391.429688 22.945312 L 388.867188 22.945312 C 389.304688 22.445312 389.304688 21.914062 389.304688 21.570312 Z M 389.304688 10.664062 "/>
<path fill-rule="nonzero" fill="rgb(0%, 0%, 0%)" fill-opacity="1" d="M 395.59375 25.746094 C 395.5625 25.933594 395.46875 26.277344 395.46875 26.308594 C 395.46875 26.621094 395.71875 26.746094 395.9375 26.746094 C 396.1875 26.746094 396.40625 26.589844 396.5 26.464844 C 396.5625 26.339844 396.65625 25.871094 396.75 25.589844 C 396.8125 25.339844 396.96875 24.683594 397.03125 24.339844 C 397.125 24.027344 397.21875 23.714844 397.28125 23.402344 C 397.4375 22.839844 397.46875 22.714844 397.875 22.152344 C 398.25 21.589844 398.90625 20.871094 399.96875 20.871094 C 400.75 20.871094 400.78125 21.589844 400.78125 21.839844 C 400.78125 22.683594 400.1875 24.214844 399.96875 24.808594 C 399.8125 25.214844 399.75 25.339844 399.75 25.558594 C 399.75 26.308594 400.34375 26.746094 401.0625 26.746094 C 402.46875 26.746094 403.0625 24.839844 403.0625 24.621094 C 403.0625 24.433594 402.90625 24.433594 402.84375 24.433594 C 402.65625 24.433594 402.65625 24.527344 402.59375 24.683594 C 402.28125 25.808594 401.65625 26.371094 401.125 26.371094 C 400.8125 26.371094 400.75 26.183594 400.75 25.871094 C 400.75 25.558594 400.84375 25.371094 401.09375 24.746094 C 401.25 24.308594 401.8125 22.839844 401.8125 22.058594 C 401.8125 20.714844 400.75 20.464844 400 20.464844 C 398.84375 20.464844 398.0625 21.183594 397.65625 21.746094 C 397.5625 20.777344 396.75 20.464844 396.15625 20.464844 C 395.5625 20.464844 395.25 20.902344 395.0625 21.214844 C 394.75 21.746094 394.5625 22.527344 394.5625 22.621094 C 394.5625 22.777344 394.75 22.777344 394.8125 22.777344 C 395 22.777344 395 22.746094 395.09375 22.371094 C 395.3125 21.558594 395.59375 20.871094 396.125 20.871094 C 396.5 20.871094 396.59375 21.183594 396.59375 21.558594 C 396.59375 21.808594 396.46875 22.339844 396.34375 22.714844 C 396.25 23.089844 396.125 23.652344 396.0625 23.964844 Z M 395.59375 25.746094 "/>
<path fill-rule="nonzero" fill="rgb(0%, 0%, 0%)" fill-opacity="1" d="M 210.589844 84.796875 C 210.121094 86.484375 209.433594 88.953125 209.433594 90.484375 C 209.433594 91.015625 209.746094 91.265625 210.246094 91.265625 C 211.027344 91.265625 212.527344 90.390625 212.527344 90.015625 C 212.527344 89.890625 212.433594 89.859375 212.339844 89.859375 C 212.089844 89.859375 211.746094 90.046875 211.527344 90.171875 C 211.246094 90.109375 211.121094 89.921875 211.121094 89.640625 C 211.121094 87.203125 213.371094 80.234375 213.964844 78.765625 C 214.214844 78.203125 214.464844 77.390625 214.464844 77.234375 C 214.464844 77.078125 214.339844 77.078125 214.277344 77.078125 C 213.839844 77.078125 212.933594 77.609375 212.777344 78.015625 C 212.527344 78.703125 212.496094 78.796875 212.246094 79.546875 C 211.589844 81.421875 209.621094 84.734375 207.652344 87.046875 C 207.027344 87.734375 205.058594 90.046875 203.652344 90.046875 C 202.714844 90.046875 202.089844 89.234375 202.089844 87.921875 C 202.089844 86.515625 202.871094 84.734375 204.089844 81.984375 C 204.808594 80.359375 205.402344 78.953125 205.402344 78.046875 C 205.402344 77.109375 204.746094 77.078125 204.402344 77.078125 C 202.871094 77.078125 200.933594 78.328125 200.933594 78.734375 C 200.933594 78.859375 201.089844 78.859375 201.152344 78.859375 C 201.402344 78.859375 201.777344 78.703125 202.089844 78.484375 C 202.214844 78.390625 202.527344 78.171875 203.089844 78.171875 C 203.527344 78.171875 203.683594 78.453125 203.683594 78.890625 C 203.683594 79.765625 202.964844 81.421875 202.152344 83.328125 C 200.839844 86.328125 200.402344 87.578125 200.402344 88.734375 C 200.402344 90.078125 200.933594 91.140625 202.339844 91.140625 C 203.589844 91.140625 205.402344 90.328125 207.433594 88.421875 C 208.808594 87.140625 209.683594 85.953125 210.558594 84.796875 Z M 210.589844 84.796875 "/>
<path fill="none" stroke-width="0.39848" stroke-linecap="butt" stroke-linejoin="miter" stroke="rgb(0%, 0%, 0%)" stroke-opacity="1" stroke-miterlimit="10" d="M -80.670937 15.827782 L -57.557655 15.827782 " transform="matrix(2, 0, 0, -2, 206.669998, 50.304001)"/>
<path fill="none" stroke-width="0.39848" stroke-linecap="round" stroke-linejoin="round" stroke="rgb(0%, 0%, 0%)" stroke-opacity="1" stroke-miterlimit="10" d="M -2.070702 2.391836 C -1.691795 0.958242 -0.848045 0.278555 -0.000389099 0.00121117 C -0.848045 -0.280039 -1.691795 -0.95582 -2.070702 -2.389414 " transform="matrix(2, 0, 0, -2, 91.953903, 18.65086)"/>
<path fill-rule="nonzero" fill="rgb(0%, 0%, 0%)" fill-opacity="1" d="M 63.859375 10.339844 C 63.796875 10.527344 63.734375 10.683594 63.734375 10.933594 C 63.734375 11.589844 64.265625 12.089844 65.046875 12.089844 C 66.421875 12.089844 67.046875 10.183594 67.046875 9.964844 C 67.046875 9.777344 66.859375 9.777344 66.828125 9.777344 C 66.640625 9.777344 66.609375 9.871094 66.546875 10.027344 C 66.234375 11.152344 65.640625 11.714844 65.078125 11.714844 C 64.796875 11.714844 64.734375 11.527344 64.734375 11.214844 C 64.734375 10.902344 64.828125 10.652344 64.953125 10.339844 C 65.109375 9.964844 65.265625 9.589844 65.390625 9.214844 C 65.515625 8.871094 66.046875 7.621094 66.078125 7.433594 C 66.140625 7.308594 66.171875 7.152344 66.171875 6.996094 C 66.171875 6.339844 65.609375 5.808594 64.859375 5.808594 C 63.453125 5.808594 62.828125 7.714844 62.828125 7.964844 C 62.828125 8.121094 63.015625 8.121094 63.078125 8.121094 C 63.265625 8.121094 63.265625 8.058594 63.328125 7.902344 C 63.671875 6.714844 64.296875 6.214844 64.796875 6.214844 C 65.015625 6.214844 65.140625 6.308594 65.140625 6.683594 C 65.140625 7.027344 65.078125 7.214844 64.734375 8.089844 Z M 63.859375 10.339844 "/>
<path fill-rule="nonzero" fill="rgb(0%, 0%, 0%)" fill-opacity="1" d="M 73.734375 10.769531 C 73.734375 10.050781 73.734375 7.332031 71.109375 7.332031 C 68.515625 7.332031 68.515625 10.050781 68.515625 10.769531 C 68.515625 11.488281 68.515625 14.175781 71.109375 14.175781 C 73.734375 14.175781 73.734375 11.488281 73.734375 10.769531 Z M 71.109375 13.832031 C 70.765625 13.832031 69.921875 13.707031 69.671875 12.707031 C 69.515625 12.175781 69.515625 11.457031 69.515625 10.644531 C 69.515625 9.894531 69.515625 9.207031 69.671875 8.644531 C 69.921875 7.800781 70.703125 7.644531 71.109375 7.644531 C 71.859375 7.644531 72.390625 8.019531 72.578125 8.738281 C 72.734375 9.238281 72.734375 10.050781 72.734375 10.644531 C 72.734375 11.332031 72.734375 12.144531 72.578125 12.738281 C 72.328125 13.707031 71.515625 13.832031 71.109375 13.832031 Z M 71.109375 13.832031 "/>
<path fill="none" stroke-width="0.39848" stroke-linecap="butt" stroke-linejoin="miter" stroke="rgb(0%, 0%, 0%)" stroke-opacity="1" stroke-miterlimit="10" d="M -80.670937 11.694969 L -7.827187 -14.644875 " transform="matrix(2, 0, 0, -2, 206.669998, 50.304001)"/>
<path fill="none" stroke-width="0.39848" stroke-linecap="round" stroke-linejoin="round" stroke="rgb(0%, 0%, 0%)" stroke-opacity="1" stroke-miterlimit="10" d="M -2.070945 2.390282 C -1.693702 0.956524 -0.84988 0.277191 -0.00133858 -0.00166046 C -0.848201 -0.278825 -1.691106 -0.957488 -2.073794 -2.391894 " transform="matrix(1.88076, 0.68012, 0.68012, -1.88076, 191.386459, 79.732162)"/>
<path fill-rule="nonzero" fill="rgb(0%, 0%, 0%)" fill-opacity="1" d="M 128.925781 40.484375 L 130.269531 40.484375 C 130.550781 40.484375 130.738281 40.484375 130.738281 40.171875 C 130.738281 39.984375 130.550781 39.984375 130.300781 39.984375 L 129.019531 39.984375 C 129.332031 38.203125 129.425781 37.578125 129.550781 37.171875 C 129.613281 36.859375 129.925781 36.578125 130.269531 36.578125 C 130.269531 36.578125 130.644531 36.578125 130.925781 36.734375 C 130.332031 36.921875 130.300781 37.421875 130.300781 37.484375 C 130.300781 37.796875 130.550781 38.015625 130.863281 38.015625 C 131.238281 38.015625 131.644531 37.703125 131.644531 37.171875 C 131.644531 36.515625 130.988281 36.171875 130.269531 36.171875 C 129.644531 36.171875 128.957031 36.515625 128.582031 37.203125 C 128.300781 37.734375 128.207031 38.359375 127.894531 39.984375 L 126.800781 39.984375 C 126.519531 39.984375 126.332031 39.984375 126.332031 40.296875 C 126.332031 40.484375 126.519531 40.484375 126.769531 40.484375 L 127.800781 40.484375 C 127.800781 40.578125 126.925781 45.578125 126.582031 47.078125 C 126.519531 47.390625 126.269531 48.421875 125.613281 48.421875 C 125.582031 48.421875 125.269531 48.421875 124.988281 48.265625 C 125.550781 48.078125 125.613281 47.578125 125.613281 47.515625 C 125.613281 47.203125 125.363281 46.984375 125.050781 46.984375 C 124.675781 46.984375 124.269531 47.296875 124.269531 47.828125 C 124.269531 48.453125 124.925781 48.828125 125.613281 48.828125 C 126.488281 48.828125 127.113281 47.921875 127.269531 47.609375 C 127.769531 46.671875 128.113281 44.953125 128.144531 44.796875 Z M 128.925781 40.484375 "/>
<path fill-rule="nonzero" fill="rgb(0%, 0%, 0%)" fill-opacity="1" d="M 137.007812 44.789062 C 137.007812 44.070312 137.007812 41.351562 134.382812 41.351562 C 131.789062 41.351562 131.789062 44.070312 131.789062 44.789062 C 131.789062 45.507812 131.789062 48.195312 134.382812 48.195312 C 137.007812 48.195312 137.007812 45.507812 137.007812 44.789062 Z M 134.382812 47.851562 C 134.039062 47.851562 133.195312 47.726562 132.945312 46.726562 C 132.789062 46.195312 132.789062 45.476562 132.789062 44.664062 C 132.789062 43.914062 132.789062 43.226562 132.945312 42.664062 C 133.195312 41.820312 133.976562 41.664062 134.382812 41.664062 C 135.132812 41.664062 135.664062 42.039062 135.851562 42.757812 C 136.007812 43.257812 136.007812 44.070312 136.007812 44.664062 C 136.007812 45.351562 136.007812 46.164062 135.851562 46.757812 C 135.601562 47.726562 134.789062 47.851562 134.382812 47.851562 Z M 134.382812 47.851562 "/>
<path fill="none" stroke-width="0.39848" stroke-linecap="butt" stroke-linejoin="miter" stroke="rgb(0%, 0%, 0%)" stroke-opacity="1" stroke-miterlimit="10" d="M -34.29203 15.827782 L -11.178749 15.827782 " transform="matrix(2, 0, 0, -2, 206.669998, 50.304001)"/>
<path fill="none" stroke-width="0.39848" stroke-linecap="round" stroke-linejoin="round" stroke="rgb(0%, 0%, 0%)" stroke-opacity="1" stroke-miterlimit="10" d="M -2.072929 2.391836 C -1.694023 0.958242 -0.850273 0.278555 0.00128937 0.00121117 C -0.850273 -0.280039 -1.694023 -0.95582 -2.072929 -2.389414 " transform="matrix(2, 0, 0, -2, 184.708359, 18.65086)"/>
<path fill-rule="nonzero" fill="rgb(0%, 0%, 0%)" fill-opacity="1" d="M 156.613281 10.339844 C 156.550781 10.527344 156.488281 10.683594 156.488281 10.933594 C 156.488281 11.589844 157.019531 12.089844 157.800781 12.089844 C 159.175781 12.089844 159.800781 10.183594 159.800781 9.964844 C 159.800781 9.777344 159.613281 9.777344 159.582031 9.777344 C 159.394531 9.777344 159.363281 9.871094 159.300781 10.027344 C 158.988281 11.152344 158.394531 11.714844 157.832031 11.714844 C 157.550781 11.714844 157.488281 11.527344 157.488281 11.214844 C 157.488281 10.902344 157.582031 10.652344 157.707031 10.339844 C 157.863281 9.964844 158.019531 9.589844 158.144531 9.214844 C 158.269531 8.871094 158.800781 7.621094 158.832031 7.433594 C 158.894531 7.308594 158.925781 7.152344 158.925781 6.996094 C 158.925781 6.339844 158.363281 5.808594 157.613281 5.808594 C 156.207031 5.808594 155.582031 7.714844 155.582031 7.964844 C 155.582031 8.121094 155.769531 8.121094 155.832031 8.121094 C 156.019531 8.121094 156.019531 8.058594 156.082031 7.902344 C 156.425781 6.714844 157.050781 6.214844 157.550781 6.214844 C 157.769531 6.214844 157.894531 6.308594 157.894531 6.683594 C 157.894531 7.027344 157.832031 7.214844 157.488281 8.089844 Z M 156.613281 10.339844 "/>
<path fill-rule="nonzero" fill="rgb(0%, 0%, 0%)" fill-opacity="1" d="M 164.457031 7.613281 C 164.457031 7.332031 164.425781 7.332031 164.082031 7.332031 C 163.394531 7.957031 162.269531 7.957031 162.082031 7.957031 L 161.925781 7.957031 L 161.925781 8.394531 L 162.082031 8.394531 C 162.300781 8.394531 162.957031 8.363281 163.550781 8.113281 L 163.550781 13.113281 C 163.550781 13.394531 163.550781 13.519531 162.488281 13.519531 L 161.988281 13.519531 L 161.988281 13.957031 C 162.519531 13.925781 163.425781 13.925781 163.988281 13.925781 C 164.582031 13.925781 165.457031 13.925781 166.019531 13.957031 L 166.019531 13.519531 L 165.519531 13.519531 C 164.457031 13.519531 164.457031 13.394531 164.457031 13.113281 Z M 164.457031 7.613281 "/>
<path fill="none" stroke-width="0.39848" stroke-linecap="butt" stroke-linejoin="miter" stroke="rgb(0%, 0%, 0%)" stroke-opacity="1" stroke-miterlimit="10" d="M -34.893593 7.991844 L -7.776405 -11.617531 " transform="matrix(2, 0, 0, -2, 206.669998, 50.304001)"/>
<path fill="none" stroke-width="0.39848" stroke-linecap="round" stroke-linejoin="round" stroke="rgb(0%, 0%, 0%)" stroke-opacity="1" stroke-miterlimit="10" d="M -2.072139 2.391382 C -1.695458 0.957218 -0.847738 0.27828 -0.0000879525 -0.000581464 C -0.850386 -0.278027 -1.695158 -0.956425 -2.07095 -2.389997 " transform="matrix(1.62058, 1.17194, 1.17194, -1.62058, 191.438324, 73.772598)"/>
<path fill-rule="nonzero" fill="rgb(0%, 0%, 0%)" fill-opacity="1" d="M 174.703125 41.257812 L 176.046875 41.257812 C 176.328125 41.257812 176.515625 41.257812 176.515625 40.945312 C 176.515625 40.757812 176.328125 40.757812 176.078125 40.757812 L 174.796875 40.757812 C 175.109375 38.976562 175.203125 38.351562 175.328125 37.945312 C 175.390625 37.632812 175.703125 37.351562 176.046875 37.351562 C 176.046875 37.351562 176.421875 37.351562 176.703125 37.507812 C 176.109375 37.695312 176.078125 38.195312 176.078125 38.257812 C 176.078125 38.570312 176.328125 38.789062 176.640625 38.789062 C 177.015625 38.789062 177.421875 38.476562 177.421875 37.945312 C 177.421875 37.289062 176.765625 36.945312 176.046875 36.945312 C 175.421875 36.945312 174.734375 37.289062 174.359375 37.976562 C 174.078125 38.507812 173.984375 39.132812 173.671875 40.757812 L 172.578125 40.757812 C 172.296875 40.757812 172.109375 40.757812 172.109375 41.070312 C 172.109375 41.257812 172.296875 41.257812 172.546875 41.257812 L 173.578125 41.257812 C 173.578125 41.351562 172.703125 46.351562 172.359375 47.851562 C 172.296875 48.164062 172.046875 49.195312 171.390625 49.195312 C 171.359375 49.195312 171.046875 49.195312 170.765625 49.039062 C 171.328125 48.851562 171.390625 48.351562 171.390625 48.289062 C 171.390625 47.976562 171.140625 47.757812 170.828125 47.757812 C 170.453125 47.757812 170.046875 48.070312 170.046875 48.601562 C 170.046875 49.226562 170.703125 49.601562 171.390625 49.601562 C 172.265625 49.601562 172.890625 48.695312 173.046875 48.382812 C 173.546875 47.445312 173.890625 45.726562 173.921875 45.570312 Z M 174.703125 41.257812 "/>
<path fill-rule="nonzero" fill="rgb(0%, 0%, 0%)" fill-opacity="1" d="M 180.753906 42.40625 C 180.753906 42.125 180.722656 42.125 180.378906 42.125 C 179.691406 42.75 178.566406 42.75 178.378906 42.75 L 178.222656 42.75 L 178.222656 43.1875 L 178.378906 43.1875 C 178.597656 43.1875 179.253906 43.15625 179.847656 42.90625 L 179.847656 47.90625 C 179.847656 48.1875 179.847656 48.3125 178.785156 48.3125 L 178.285156 48.3125 L 178.285156 48.75 C 178.816406 48.71875 179.722656 48.71875 180.285156 48.71875 C 180.878906 48.71875 181.753906 48.71875 182.316406 48.75 L 182.316406 48.3125 L 181.816406 48.3125 C 180.753906 48.3125 180.753906 48.1875 180.753906 47.90625 Z M 180.753906 42.40625 "/>
<path fill="none" stroke-width="0.39848" stroke-linecap="butt" stroke-linejoin="miter" stroke="rgb(0%, 0%, 0%)" stroke-opacity="1" stroke-miterlimit="10" d="M 12.08297 15.827782 L 35.196251 15.827782 " transform="matrix(2, 0, 0, -2, 206.669998, 50.304001)"/>
<path fill="none" stroke-width="0.39848" stroke-linecap="round" stroke-linejoin="round" stroke="rgb(0%, 0%, 0%)" stroke-opacity="1" stroke-miterlimit="10" d="M -2.071243 2.391836 C -1.692337 0.958242 -0.848587 0.278555 -0.000930786 0.00121117 C -0.848587 -0.280039 -1.692337 -0.95582 -2.071243 -2.389414 " transform="matrix(2, 0, 0, -2, 277.462799, 18.65086)"/>
<path fill-rule="nonzero" fill="rgb(0%, 0%, 0%)" fill-opacity="1" d="M 249.367188 10.339844 C 249.304688 10.527344 249.242188 10.683594 249.242188 10.933594 C 249.242188 11.589844 249.773438 12.089844 250.554688 12.089844 C 251.929688 12.089844 252.554688 10.183594 252.554688 9.964844 C 252.554688 9.777344 252.367188 9.777344 252.335938 9.777344 C 252.148438 9.777344 252.117188 9.871094 252.054688 10.027344 C 251.742188 11.152344 251.148438 11.714844 250.585938 11.714844 C 250.304688 11.714844 250.242188 11.527344 250.242188 11.214844 C 250.242188 10.902344 250.335938 10.652344 250.460938 10.339844 C 250.617188 9.964844 250.773438 9.589844 250.898438 9.214844 C 251.023438 8.871094 251.554688 7.621094 251.585938 7.433594 C 251.648438 7.308594 251.679688 7.152344 251.679688 6.996094 C 251.679688 6.339844 251.117188 5.808594 250.367188 5.808594 C 248.960938 5.808594 248.335938 7.714844 248.335938 7.964844 C 248.335938 8.121094 248.523438 8.121094 248.585938 8.121094 C 248.773438 8.121094 248.773438 8.058594 248.835938 7.902344 C 249.179688 6.714844 249.804688 6.214844 250.304688 6.214844 C 250.523438 6.214844 250.648438 6.308594 250.648438 6.683594 C 250.648438 7.027344 250.585938 7.214844 250.242188 8.089844 Z M 249.367188 10.339844 "/>
<path fill-rule="nonzero" fill="rgb(0%, 0%, 0%)" fill-opacity="1" d="M 259.117188 12.019531 L 258.679688 12.019531 C 258.679688 12.207031 258.554688 12.832031 258.398438 12.925781 C 258.335938 12.988281 257.492188 12.988281 257.335938 12.988281 L 255.398438 12.988281 C 256.054688 12.519531 256.773438 11.957031 257.367188 11.550781 C 258.273438 10.925781 259.117188 10.363281 259.117188 9.300781 C 259.117188 8.019531 257.898438 7.332031 256.492188 7.332031 C 255.148438 7.332031 254.148438 8.082031 254.148438 9.082031 C 254.148438 9.582031 254.585938 9.675781 254.742188 9.675781 C 254.992188 9.675781 255.304688 9.488281 255.304688 9.082031 C 255.304688 8.738281 255.054688 8.519531 254.742188 8.519531 C 255.023438 8.050781 255.617188 7.769531 256.273438 7.769531 C 257.242188 7.769531 258.054688 8.332031 258.054688 9.300781 C 258.054688 10.144531 257.460938 10.800781 256.710938 11.425781 L 254.273438 13.488281 C 254.179688 13.582031 254.148438 13.582031 254.148438 13.644531 L 254.148438 13.957031 L 258.773438 13.957031 Z M 259.117188 12.019531 "/>
<path fill="none" stroke-width="0.39848" stroke-linecap="butt" stroke-linejoin="miter" stroke="rgb(0%, 0%, 0%)" stroke-opacity="1" stroke-miterlimit="10" d="M 0.649376 7.991844 L 0.649376 -9.144875 " transform="matrix(2, 0, 0, -2, 206.669998, 50.304001)"/>
<path fill="none" stroke-width="0.39848" stroke-linecap="round" stroke-linejoin="round" stroke="rgb(0%, 0%, 0%)" stroke-opacity="1" stroke-miterlimit="10" d="M -2.073006 2.38903 C -1.694099 0.955437 -0.850349 0.279655 0.00121307 -0.00159454 C -0.850349 -0.278938 -1.694099 -0.95472 -2.073006 -2.39222 " transform="matrix(0, 2, 2, 0, 207.971939, 68.989761)"/>
<path fill-rule="nonzero" fill="rgb(0%, 0%, 0%)" fill-opacity="1" d="M 218.351562 49.839844 L 219.695312 49.839844 C 219.976562 49.839844 220.164062 49.839844 220.164062 49.527344 C 220.164062 49.339844 219.976562 49.339844 219.726562 49.339844 L 218.445312 49.339844 C 218.757812 47.558594 218.851562 46.933594 218.976562 46.527344 C 219.039062 46.214844 219.351562 45.933594 219.695312 45.933594 C 219.695312 45.933594 220.070312 45.933594 220.351562 46.089844 C 219.757812 46.277344 219.726562 46.777344 219.726562 46.839844 C 219.726562 47.152344 219.976562 47.371094 220.289062 47.371094 C 220.664062 47.371094 221.070312 47.058594 221.070312 46.527344 C 221.070312 45.871094 220.414062 45.527344 219.695312 45.527344 C 219.070312 45.527344 218.382812 45.871094 218.007812 46.558594 C 217.726562 47.089844 217.632812 47.714844 217.320312 49.339844 L 216.226562 49.339844 C 215.945312 49.339844 215.757812 49.339844 215.757812 49.652344 C 215.757812 49.839844 215.945312 49.839844 216.195312 49.839844 L 217.226562 49.839844 C 217.226562 49.933594 216.351562 54.933594 216.007812 56.433594 C 215.945312 56.746094 215.695312 57.777344 215.039062 57.777344 C 215.007812 57.777344 214.695312 57.777344 214.414062 57.621094 C 214.976562 57.433594 215.039062 56.933594 215.039062 56.871094 C 215.039062 56.558594 214.789062 56.339844 214.476562 56.339844 C 214.101562 56.339844 213.695312 56.652344 213.695312 57.183594 C 213.695312 57.808594 214.351562 58.183594 215.039062 58.183594 C 215.914062 58.183594 216.539062 57.277344 216.695312 56.964844 C 217.195312 56.027344 217.539062 54.308594 217.570312 54.152344 Z M 218.351562 49.839844 "/>
<path fill-rule="nonzero" fill="rgb(0%, 0%, 0%)" fill-opacity="1" d="M 226.308594 55.394531 L 225.871094 55.394531 C 225.871094 55.582031 225.746094 56.207031 225.589844 56.300781 C 225.527344 56.363281 224.683594 56.363281 224.527344 56.363281 L 222.589844 56.363281 C 223.246094 55.894531 223.964844 55.332031 224.558594 54.925781 C 225.464844 54.300781 226.308594 53.738281 226.308594 52.675781 C 226.308594 51.394531 225.089844 50.707031 223.683594 50.707031 C 222.339844 50.707031 221.339844 51.457031 221.339844 52.457031 C 221.339844 52.957031 221.777344 53.050781 221.933594 53.050781 C 222.183594 53.050781 222.496094 52.863281 222.496094 52.457031 C 222.496094 52.113281 222.246094 51.894531 221.933594 51.894531 C 222.214844 51.425781 222.808594 51.144531 223.464844 51.144531 C 224.433594 51.144531 225.246094 51.707031 225.246094 52.675781 C 225.246094 53.519531 224.652344 54.175781 223.902344 54.800781 L 221.464844 56.863281 C 221.371094 56.957031 221.339844 56.957031 221.339844 57.019531 L 221.339844 57.332031 L 225.964844 57.332031 Z M 226.308594 55.394531 "/>
<path fill="none" stroke-width="0.39848" stroke-linecap="butt" stroke-linejoin="miter" stroke="rgb(0%, 0%, 0%)" stroke-opacity="1" stroke-miterlimit="10" d="M 56.204063 15.827782 L 79.317345 15.827782 " transform="matrix(2, 0, 0, -2, 206.669998, 50.304001)"/>
<path fill="none" stroke-width="0.39848" stroke-linecap="round" stroke-linejoin="round" stroke="rgb(0%, 0%, 0%)" stroke-opacity="1" stroke-miterlimit="10" d="M -2.071793 2.391836 C -1.692886 0.958242 -0.849136 0.278555 -0.0014801 0.00121117 C -0.849136 -0.280039 -1.692886 -0.95582 -2.071793 -2.389414 " transform="matrix(2, 0, 0, -2, 365.706085, 18.65086)"/>
<path fill-rule="nonzero" fill="rgb(0%, 0%, 0%)" fill-opacity="1" d="M 327.828125 8.679688 C 327.765625 8.867188 327.703125 9.023438 327.703125 9.273438 C 327.703125 9.929688 328.234375 10.429688 329.015625 10.429688 C 330.390625 10.429688 331.015625 8.523438 331.015625 8.304688 C 331.015625 8.117188 330.828125 8.117188 330.796875 8.117188 C 330.609375 8.117188 330.578125 8.210938 330.515625 8.367188 C 330.203125 9.492188 329.609375 10.054688 329.046875 10.054688 C 328.765625 10.054688 328.703125 9.867188 328.703125 9.554688 C 328.703125 9.242188 328.796875 8.992188 328.921875 8.679688 C 329.078125 8.304688 329.234375 7.929688 329.359375 7.554688 C 329.484375 7.210938 330.015625 5.960938 330.046875 5.773438 C 330.109375 5.648438 330.140625 5.492188 330.140625 5.335938 C 330.140625 4.679688 329.578125 4.148438 328.828125 4.148438 C 327.421875 4.148438 326.796875 6.054688 326.796875 6.304688 C 326.796875 6.460938 326.984375 6.460938 327.046875 6.460938 C 327.234375 6.460938 327.234375 6.398438 327.296875 6.242188 C 327.640625 5.054688 328.265625 4.554688 328.765625 4.554688 C 328.984375 4.554688 329.109375 4.648438 329.109375 5.023438 C 329.109375 5.367188 329.046875 5.554688 328.703125 6.429688 Z M 327.828125 8.679688 "/>
<path fill-rule="nonzero" fill="rgb(0%, 0%, 0%)" fill-opacity="1" d="M 333.640625 11.328125 C 333.578125 11.578125 333.484375 12.015625 333.484375 12.046875 C 333.484375 12.265625 333.671875 12.421875 333.859375 12.421875 C 333.984375 12.421875 334.203125 12.328125 334.328125 12.078125 C 334.328125 12.015625 334.453125 11.546875 334.515625 11.296875 C 334.859375 9.953125 334.859375 9.921875 334.859375 9.890625 C 335.015625 9.640625 335.734375 8.234375 336.921875 8.234375 C 337.421875 8.234375 337.640625 8.484375 337.640625 8.953125 C 337.640625 9.515625 337.203125 10.546875 336.984375 11.109375 C 336.921875 11.234375 336.890625 11.359375 336.890625 11.515625 C 336.890625 12.046875 337.390625 12.421875 337.984375 12.421875 C 339.046875 12.421875 339.578125 11.109375 339.578125 10.859375 C 339.578125 10.734375 339.421875 10.734375 339.390625 10.734375 C 339.203125 10.734375 339.203125 10.765625 339.140625 10.953125 C 338.953125 11.546875 338.484375 12.078125 338.015625 12.078125 C 337.796875 12.078125 337.703125 11.921875 337.703125 11.703125 C 337.703125 11.484375 337.765625 11.390625 337.859375 11.171875 C 338.015625 10.765625 338.484375 9.640625 338.484375 9.078125 C 338.484375 8.328125 337.953125 7.890625 336.984375 7.890625 C 336.078125 7.890625 335.453125 8.453125 335.109375 8.890625 C 335.078125 8.046875 334.265625 7.890625 333.890625 7.890625 C 332.890625 7.890625 332.609375 9.421875 332.609375 9.421875 C 332.609375 9.578125 332.765625 9.578125 332.828125 9.578125 C 332.984375 9.578125 333.015625 9.515625 333.046875 9.390625 C 333.203125 8.796875 333.421875 8.234375 333.859375 8.234375 C 334.171875 8.234375 334.265625 8.546875 334.265625 8.765625 C 334.265625 8.890625 334.140625 9.265625 334.109375 9.546875 C 334.015625 9.796875 333.921875 10.203125 333.890625 10.421875 Z M 333.640625 11.328125 "/>
<path fill-rule="nonzero" fill="rgb(0%, 0%, 0%)" fill-opacity="1" d="M 349.257812 10.078125 C 349.414062 10.078125 349.664062 10.078125 349.664062 9.796875 C 349.664062 9.515625 349.414062 9.515625 349.257812 9.515625 L 342.507812 9.515625 C 342.351562 9.515625 342.070312 9.515625 342.070312 9.796875 C 342.070312 10.078125 342.351562 10.078125 342.507812 10.078125 Z M 349.257812 10.078125 "/>
<path fill-rule="nonzero" fill="rgb(0%, 0%, 0%)" fill-opacity="1" d="M 355.238281 5.953125 C 355.238281 5.671875 355.207031 5.671875 354.863281 5.671875 C 354.175781 6.296875 353.050781 6.296875 352.863281 6.296875 L 352.707031 6.296875 L 352.707031 6.734375 L 352.863281 6.734375 C 353.082031 6.734375 353.738281 6.703125 354.332031 6.453125 L 354.332031 11.453125 C 354.332031 11.734375 354.332031 11.859375 353.269531 11.859375 L 352.769531 11.859375 L 352.769531 12.296875 C 353.300781 12.265625 354.207031 12.265625 354.769531 12.265625 C 355.363281 12.265625 356.238281 12.265625 356.800781 12.296875 L 356.800781 11.859375 L 356.300781 11.859375 C 355.238281 11.859375 355.238281 11.734375 355.238281 11.453125 Z M 355.238281 5.953125 "/>
<path fill="none" stroke-width="0.39848" stroke-linecap="butt" stroke-linejoin="miter" stroke="rgb(0%, 0%, 0%)" stroke-opacity="1" stroke-miterlimit="10" d="M 79.715782 11.441063 L 9.129845 -14.586281 " transform="matrix(2, 0, 0, -2, 206.669998, 50.304001)"/>
<path fill="none" stroke-width="0.39848" stroke-linecap="round" stroke-linejoin="round" stroke="rgb(0%, 0%, 0%)" stroke-opacity="1" stroke-miterlimit="10" d="M -2.073681 2.390411 C -1.69495 0.955931 -0.849925 0.277977 0.00156788 0.00149551 C -0.851417 -0.279378 -1.692155 -0.956132 -2.071034 -2.390228 " transform="matrix(-1.87644, 0.69186, 0.69186, 1.87644, 224.556595, 79.613297)"/>
<path fill-rule="nonzero" fill="rgb(0%, 0%, 0%)" fill-opacity="1" d="M 278.597656 40.683594 L 279.941406 40.683594 C 280.222656 40.683594 280.410156 40.683594 280.410156 40.371094 C 280.410156 40.183594 280.222656 40.183594 279.972656 40.183594 L 278.691406 40.183594 C 279.003906 38.402344 279.097656 37.777344 279.222656 37.371094 C 279.285156 37.058594 279.597656 36.777344 279.941406 36.777344 C 279.941406 36.777344 280.316406 36.777344 280.597656 36.933594 C 280.003906 37.121094 279.972656 37.621094 279.972656 37.683594 C 279.972656 37.996094 280.222656 38.214844 280.535156 38.214844 C 280.910156 38.214844 281.316406 37.902344 281.316406 37.371094 C 281.316406 36.714844 280.660156 36.371094 279.941406 36.371094 C 279.316406 36.371094 278.628906 36.714844 278.253906 37.402344 C 277.972656 37.933594 277.878906 38.558594 277.566406 40.183594 L 276.472656 40.183594 C 276.191406 40.183594 276.003906 40.183594 276.003906 40.496094 C 276.003906 40.683594 276.191406 40.683594 276.441406 40.683594 L 277.472656 40.683594 C 277.472656 40.777344 276.597656 45.777344 276.253906 47.277344 C 276.191406 47.589844 275.941406 48.621094 275.285156 48.621094 C 275.253906 48.621094 274.941406 48.621094 274.660156 48.464844 C 275.222656 48.277344 275.285156 47.777344 275.285156 47.714844 C 275.285156 47.402344 275.035156 47.183594 274.722656 47.183594 C 274.347656 47.183594 273.941406 47.496094 273.941406 48.027344 C 273.941406 48.652344 274.597656 49.027344 275.285156 49.027344 C 276.160156 49.027344 276.785156 48.121094 276.941406 47.808594 C 277.441406 46.871094 277.785156 45.152344 277.816406 44.996094 Z M 278.597656 40.683594 "/>
<path fill-rule="nonzero" fill="rgb(0%, 0%, 0%)" fill-opacity="1" d="M 282.617188 47.207031 C 282.554688 47.457031 282.460938 47.894531 282.460938 47.925781 C 282.460938 48.144531 282.648438 48.300781 282.835938 48.300781 C 282.960938 48.300781 283.179688 48.207031 283.304688 47.957031 C 283.304688 47.894531 283.429688 47.425781 283.492188 47.175781 C 283.835938 45.832031 283.835938 45.800781 283.835938 45.769531 C 283.992188 45.519531 284.710938 44.113281 285.898438 44.113281 C 286.398438 44.113281 286.617188 44.363281 286.617188 44.832031 C 286.617188 45.394531 286.179688 46.425781 285.960938 46.988281 C 285.898438 47.113281 285.867188 47.238281 285.867188 47.394531 C 285.867188 47.925781 286.367188 48.300781 286.960938 48.300781 C 288.023438 48.300781 288.554688 46.988281 288.554688 46.738281 C 288.554688 46.613281 288.398438 46.613281 288.367188 46.613281 C 288.179688 46.613281 288.179688 46.644531 288.117188 46.832031 C 287.929688 47.425781 287.460938 47.957031 286.992188 47.957031 C 286.773438 47.957031 286.679688 47.800781 286.679688 47.582031 C 286.679688 47.363281 286.742188 47.269531 286.835938 47.050781 C 286.992188 46.644531 287.460938 45.519531 287.460938 44.957031 C 287.460938 44.207031 286.929688 43.769531 285.960938 43.769531 C 285.054688 43.769531 284.429688 44.332031 284.085938 44.769531 C 284.054688 43.925781 283.242188 43.769531 282.867188 43.769531 C 281.867188 43.769531 281.585938 45.300781 281.585938 45.300781 C 281.585938 45.457031 281.742188 45.457031 281.804688 45.457031 C 281.960938 45.457031 281.992188 45.394531 282.023438 45.269531 C 282.179688 44.675781 282.398438 44.113281 282.835938 44.113281 C 283.148438 44.113281 283.242188 44.425781 283.242188 44.644531 C 283.242188 44.769531 283.117188 45.144531 283.085938 45.425781 C 282.992188 45.675781 282.898438 46.082031 282.867188 46.300781 Z M 282.617188 47.207031 "/>
</svg>
