<?xml version="1.0" encoding="UTF-8"?>
<svg xmlns="http://www.w3.org/2000/svg" xmlns:xlink="http://www.w3.org/1999/xlink" width="410.186686" height="155.279999" viewBox="0 0 410.186686 155.279999">
<path fill-rule="nonzero" fill="rgb(0%, 0%, 0%)" fill-opacity="1" d="M 53.765625 22.292969 C 54.015625 21.335938 54.058594 21.085938 56.058594 21.085938 C 56.640625 21.085938 56.890625 21.085938 56.890625 20.542969 C 56.890625 20.253906 56.640625 20.253906 56.183594 20.253906 L 52.683594 20.253906 C 51.976562 20.253906 51.933594 20.253906 51.640625 20.753906 L 41.933594 35.917969 L 39.851562 20.878906 C 39.765625 20.253906 39.726562 20.253906 39.015625 20.253906 L 35.390625 20.253906 C 34.890625 20.253906 34.601562 20.253906 34.601562 20.753906 C 34.601562 21.085938 34.851562 21.085938 35.351562 21.085938 C 35.726562 21.085938 36.183594 21.128906 36.515625 21.128906 C 36.933594 21.210938 37.101562 21.253906 37.101562 21.585938 C 37.101562 21.667969 37.058594 21.753906 36.976562 22.085938 L 33.601562 35.585938 C 33.351562 36.667969 32.890625 37.503906 30.726562 37.585938 C 30.601562 37.585938 30.265625 37.628906 30.265625 38.085938 C 30.265625 38.335938 30.433594 38.417969 30.640625 38.417969 C 31.476562 38.417969 32.390625 38.335938 33.308594 38.335938 C 34.183594 38.335938 35.140625 38.417969 36.015625 38.417969 C 36.140625 38.417969 36.515625 38.417969 36.515625 37.878906 C 36.515625 37.585938 36.226562 37.585938 36.015625 37.585938 C 34.515625 37.585938 34.226562 37.042969 34.226562 36.417969 C 34.226562 36.253906 34.226562 36.085938 34.308594 35.792969 L 37.933594 21.335938 L 37.976562 21.335938 L 40.265625 37.792969 C 40.308594 38.128906 40.351562 38.417969 40.640625 38.417969 C 40.933594 38.417969 41.101562 38.128906 41.226562 37.960938 L 51.976562 21.128906 L 52.015625 21.128906 L 48.183594 36.335938 C 47.933594 37.378906 47.890625 37.585938 45.765625 37.585938 C 45.351562 37.585938 45.058594 37.585938 45.058594 38.085938 C 45.058594 38.417969 45.351562 38.417969 45.433594 38.417969 C 46.183594 38.417969 47.976562 38.335938 48.726562 38.335938 C 49.808594 38.335938 50.976562 38.417969 52.058594 38.417969 C 52.226562 38.417969 52.558594 38.417969 52.558594 37.878906 C 52.558594 37.585938 52.308594 37.585938 51.808594 37.585938 C 50.851562 37.585938 50.101562 37.585938 50.101562 37.128906 C 50.101562 37.003906 50.101562 36.960938 50.226562 36.460938 Z M 53.765625 22.292969 "/>
<path fill-rule="nonzero" fill="rgb(0%, 0%, 0%)" fill-opacity="1" d="M 64.289062 39.027344 L 63.664062 39.027344 C 63.621094 39.445312 63.414062 40.527344 63.164062 40.695312 C 63.039062 40.820312 61.621094 40.820312 61.332031 40.820312 L 57.914062 40.820312 C 59.871094 39.109375 60.539062 38.570312 61.621094 37.695312 C 62.996094 36.609375 64.289062 35.445312 64.289062 33.695312 C 64.289062 31.445312 62.332031 30.070312 59.957031 30.070312 C 57.664062 30.070312 56.082031 31.695312 56.082031 33.402344 C 56.082031 34.320312 56.871094 34.445312 57.082031 34.445312 C 57.496094 34.445312 58.039062 34.109375 58.039062 33.445312 C 58.039062 33.109375 57.914062 32.445312 56.957031 32.445312 C 57.539062 31.152344 58.789062 30.734375 59.664062 30.734375 C 61.539062 30.734375 62.496094 32.195312 62.496094 33.695312 C 62.496094 35.320312 61.332031 36.570312 60.746094 37.234375 L 56.289062 41.695312 C 56.082031 41.859375 56.082031 41.902344 56.082031 42.402344 L 63.746094 42.402344 Z M 64.289062 39.027344 "/>
<path fill-rule="nonzero" fill="rgb(0%, 0%, 0%)" fill-opacity="1" d="M 83.070312 31.042969 L 77.777344 25.753906 C 77.445312 25.417969 77.402344 25.378906 77.195312 25.378906 C 76.902344 25.378906 76.652344 25.585938 76.652344 25.917969 C 76.652344 26.085938 76.695312 26.128906 76.984375 26.417969 L 82.320312 31.753906 L 76.984375 37.128906 C 76.695312 37.417969 76.652344 37.460938 76.652344 37.628906 C 76.652344 37.960938 76.902344 38.167969 77.195312 38.167969 C 77.402344 38.167969 77.445312 38.128906 77.777344 37.792969 L 83.070312 32.503906 L 88.570312 38.003906 C 88.609375 38.042969 88.777344 38.167969 88.945312 38.167969 C 89.277344 38.167969 89.484375 37.960938 89.484375 37.628906 C 89.484375 37.585938 89.484375 37.503906 89.402344 37.335938 C 89.359375 37.292969 85.152344 33.128906 83.820312 31.753906 L 88.695312 26.917969 C 88.820312 26.753906 89.234375 26.417969 89.359375 26.253906 C 89.359375 26.210938 89.484375 26.085938 89.484375 25.917969 C 89.484375 25.585938 89.277344 25.378906 88.945312 25.378906 C 88.734375 25.378906 88.652344 25.460938 88.359375 25.753906 Z M 83.070312 31.042969 "/>
<path fill-rule="nonzero" fill="rgb(0%, 0%, 0%)" fill-opacity="1" d="M 111.59375 29.417969 C 111.34375 27.753906 110.261719 26.253906 108.179688 26.253906 C 106.554688 26.253906 104.84375 26.710938 102.761719 28.753906 C 100.554688 30.960938 100.386719 33.460938 100.386719 34.253906 C 100.386719 35.917969 101.554688 39.003906 105.261719 39.003906 C 111.59375 39.003906 114.34375 30.085938 114.34375 26.253906 C 114.34375 22.042969 111.886719 19.378906 108.59375 19.378906 C 104.761719 19.378906 103.511719 22.835938 103.511719 23.585938 C 103.511719 23.960938 103.761719 24.503906 104.554688 24.503906 C 105.429688 24.503906 105.96875 23.710938 105.96875 23.128906 C 105.96875 22.167969 105.136719 22.167969 104.71875 22.167969 C 105.886719 20.210938 107.804688 20.042969 108.554688 20.042969 C 110.511719 20.042969 112.34375 21.417969 112.34375 24.878906 C 112.34375 25.917969 112.179688 27.253906 111.636719 29.417969 Z M 105.34375 38.253906 C 102.429688 38.253906 102.429688 35.503906 102.429688 35.253906 C 102.429688 34.542969 103.09375 30.835938 104.179688 29.210938 C 105.21875 27.710938 106.554688 26.835938 108.179688 26.835938 C 111.09375 26.835938 111.136719 29.835938 111.136719 30.378906 C 111.136719 32.292969 109.429688 38.253906 105.34375 38.253906 Z M 105.34375 38.253906 "/>
<path fill-rule="nonzero" fill="rgb(0%, 0%, 0%)" fill-opacity="1" d="M 126.632812 19.878906 C 126.464844 19.503906 126.382812 19.378906 125.925781 19.378906 C 125.507812 19.378906 125.425781 19.503906 125.257812 19.878906 L 116.257812 37.878906 C 116.132812 38.128906 116.132812 38.167969 116.132812 38.210938 C 116.132812 38.417969 116.300781 38.417969 116.714844 38.417969 L 135.175781 38.417969 C 135.589844 38.417969 135.757812 38.417969 135.757812 38.210938 C 135.757812 38.167969 135.757812 38.128906 135.632812 37.878906 Z M 125.089844 22.042969 L 132.257812 36.417969 L 117.925781 36.417969 Z M 125.089844 22.042969 "/>
<path fill-rule="nonzero" fill="rgb(0%, 0%, 0%)" fill-opacity="1" d="M 145.804688 44.792969 C 145.804688 44.710938 145.804688 44.667969 145.347656 44.210938 C 142.054688 40.878906 141.179688 35.835938 141.179688 31.753906 C 141.179688 27.128906 142.179688 22.503906 145.472656 19.210938 C 145.804688 18.878906 145.804688 18.835938 145.804688 18.753906 C 145.804688 18.542969 145.722656 18.460938 145.554688 18.460938 C 145.261719 18.460938 142.886719 20.292969 141.304688 23.667969 C 139.972656 26.585938 139.636719 29.542969 139.636719 31.753906 C 139.636719 33.835938 139.929688 37.042969 141.386719 40.085938 C 143.011719 43.335938 145.261719 45.085938 145.554688 45.085938 C 145.722656 45.085938 145.804688 45.003906 145.804688 44.792969 Z M 145.804688 44.792969 "/>
<path fill-rule="nonzero" fill="rgb(0%, 0%, 0%)" fill-opacity="1" d="M 150.695312 36.378906 L 153.527344 33.628906 C 157.652344 29.960938 159.238281 28.542969 159.238281 25.878906 C 159.238281 22.835938 156.863281 20.710938 153.613281 20.710938 C 150.613281 20.710938 148.652344 23.167969 148.652344 25.542969 C 148.652344 27.003906 149.988281 27.003906 150.070312 27.003906 C 150.527344 27.003906 151.445312 26.710938 151.445312 25.585938 C 151.445312 24.917969 150.945312 24.210938 150.027344 24.210938 C 149.820312 24.210938 149.777344 24.210938 149.695312 24.253906 C 150.277344 22.503906 151.738281 21.542969 153.277344 21.542969 C 155.695312 21.542969 156.820312 23.710938 156.820312 25.878906 C 156.820312 28.003906 155.527344 30.085938 154.027344 31.753906 L 148.945312 37.417969 C 148.652344 37.710938 148.652344 37.792969 148.652344 38.417969 L 158.527344 38.417969 L 159.238281 33.792969 L 158.613281 33.792969 C 158.445312 34.585938 158.277344 35.753906 157.988281 36.167969 C 157.820312 36.378906 156.070312 36.378906 155.488281 36.378906 Z M 150.695312 36.378906 "/>
<path fill-rule="nonzero" fill="rgb(0%, 0%, 0%)" fill-opacity="1" d="M 168.269531 31.753906 C 168.269531 29.710938 167.980469 26.503906 166.519531 23.460938 C 164.9375 20.210938 162.644531 18.460938 162.394531 18.460938 C 162.230469 18.460938 162.105469 18.585938 162.105469 18.753906 C 162.105469 18.835938 162.105469 18.878906 162.605469 19.378906 C 165.230469 22.003906 166.730469 26.210938 166.730469 31.753906 C 166.730469 36.335938 165.769531 41.003906 162.480469 44.335938 C 162.105469 44.667969 162.105469 44.710938 162.105469 44.792969 C 162.105469 44.960938 162.230469 45.085938 162.394531 45.085938 C 162.644531 45.085938 165.0625 43.253906 166.605469 39.878906 C 167.980469 36.960938 168.269531 34.003906 168.269531 31.753906 Z M 168.269531 31.753906 "/>
<path fill-rule="nonzero" fill="rgb(0%, 0%, 0%)" fill-opacity="1" d="M 282.253906 22.292969 C 282.503906 21.335938 282.546875 21.085938 284.546875 21.085938 C 285.128906 21.085938 285.378906 21.085938 285.378906 20.542969 C 285.378906 20.253906 285.128906 20.253906 284.671875 20.253906 L 281.171875 20.253906 C 280.460938 20.253906 280.421875 20.253906 280.128906 20.753906 L 270.421875 35.917969 L 268.335938 20.878906 C 268.253906 20.253906 268.210938 20.253906 267.503906 20.253906 L 263.878906 20.253906 C 263.378906 20.253906 263.085938 20.253906 263.085938 20.753906 C 263.085938 21.085938 263.335938 21.085938 263.835938 21.085938 C 264.210938 21.085938 264.671875 21.128906 265.003906 21.128906 C 265.421875 21.210938 265.585938 21.253906 265.585938 21.585938 C 265.585938 21.667969 265.546875 21.753906 265.460938 22.085938 L 262.085938 35.585938 C 261.835938 36.667969 261.378906 37.503906 259.210938 37.585938 C 259.085938 37.585938 258.753906 37.628906 258.753906 38.085938 C 258.753906 38.335938 258.921875 38.417969 259.128906 38.417969 C 259.960938 38.417969 260.878906 38.335938 261.796875 38.335938 C 262.671875 38.335938 263.628906 38.417969 264.503906 38.417969 C 264.628906 38.417969 265.003906 38.417969 265.003906 37.878906 C 265.003906 37.585938 264.710938 37.585938 264.503906 37.585938 C 263.003906 37.585938 262.710938 37.042969 262.710938 36.417969 C 262.710938 36.253906 262.710938 36.085938 262.796875 35.792969 L 266.421875 21.335938 L 266.460938 21.335938 L 268.753906 37.792969 C 268.796875 38.128906 268.835938 38.417969 269.128906 38.417969 C 269.421875 38.417969 269.585938 38.128906 269.710938 37.960938 L 280.460938 21.128906 L 280.503906 21.128906 L 276.671875 36.335938 C 276.421875 37.378906 276.378906 37.585938 274.253906 37.585938 C 273.835938 37.585938 273.546875 37.585938 273.546875 38.085938 C 273.546875 38.417969 273.835938 38.417969 273.921875 38.417969 C 274.671875 38.417969 276.460938 38.335938 277.210938 38.335938 C 278.296875 38.335938 279.460938 38.417969 280.546875 38.417969 C 280.710938 38.417969 281.046875 38.417969 281.046875 37.878906 C 281.046875 37.585938 280.796875 37.585938 280.296875 37.585938 C 279.335938 37.585938 278.585938 37.585938 278.585938 37.128906 C 278.585938 37.003906 278.585938 36.960938 278.710938 36.460938 Z M 282.253906 22.292969 "/>
<path fill-rule="nonzero" fill="rgb(0%, 0%, 0%)" fill-opacity="1" d="M 292.777344 39.027344 L 292.152344 39.027344 C 292.109375 39.445312 291.902344 40.527344 291.652344 40.695312 C 291.527344 40.820312 290.109375 40.820312 289.820312 40.820312 L 286.402344 40.820312 C 288.359375 39.109375 289.027344 38.570312 290.109375 37.695312 C 291.484375 36.609375 292.777344 35.445312 292.777344 33.695312 C 292.777344 31.445312 290.820312 30.070312 288.445312 30.070312 C 286.152344 30.070312 284.570312 31.695312 284.570312 33.402344 C 284.570312 34.320312 285.359375 34.445312 285.570312 34.445312 C 285.984375 34.445312 286.527344 34.109375 286.527344 33.445312 C 286.527344 33.109375 286.402344 32.445312 285.445312 32.445312 C 286.027344 31.152344 287.277344 30.734375 288.152344 30.734375 C 290.027344 30.734375 290.984375 32.195312 290.984375 33.695312 C 290.984375 35.320312 289.820312 36.570312 289.234375 37.234375 L 284.777344 41.695312 C 284.570312 41.859375 284.570312 41.902344 284.570312 42.402344 L 292.234375 42.402344 Z M 292.777344 39.027344 "/>
<path fill-rule="nonzero" fill="rgb(0%, 0%, 0%)" fill-opacity="1" d="M 311.558594 31.042969 L 306.269531 25.753906 C 305.933594 25.417969 305.894531 25.378906 305.683594 25.378906 C 305.394531 25.378906 305.144531 25.585938 305.144531 25.917969 C 305.144531 26.085938 305.183594 26.128906 305.476562 26.417969 L 310.808594 31.753906 L 305.476562 37.128906 C 305.183594 37.417969 305.144531 37.460938 305.144531 37.628906 C 305.144531 37.960938 305.394531 38.167969 305.683594 38.167969 C 305.894531 38.167969 305.933594 38.128906 306.269531 37.792969 L 311.558594 32.503906 L 317.058594 38.003906 C 317.101562 38.042969 317.269531 38.167969 317.433594 38.167969 C 317.769531 38.167969 317.976562 37.960938 317.976562 37.628906 C 317.976562 37.585938 317.976562 37.503906 317.894531 37.335938 C 317.851562 37.292969 313.644531 33.128906 312.308594 31.753906 L 317.183594 26.917969 C 317.308594 26.753906 317.726562 26.417969 317.851562 26.253906 C 317.851562 26.210938 317.976562 26.085938 317.976562 25.917969 C 317.976562 25.585938 317.769531 25.378906 317.433594 25.378906 C 317.226562 25.378906 317.144531 25.460938 316.851562 25.753906 Z M 311.558594 31.042969 "/>
<path fill-rule="nonzero" fill="rgb(0%, 0%, 0%)" fill-opacity="1" d="M 340.082031 29.417969 C 339.832031 27.753906 338.75 26.253906 336.667969 26.253906 C 335.042969 26.253906 333.332031 26.710938 331.25 28.753906 C 329.042969 30.960938 328.875 33.460938 328.875 34.253906 C 328.875 35.917969 330.042969 39.003906 333.75 39.003906 C 340.082031 39.003906 342.832031 30.085938 342.832031 26.253906 C 342.832031 22.042969 340.375 19.378906 337.082031 19.378906 C 333.25 19.378906 332 22.835938 332 23.585938 C 332 23.960938 332.25 24.503906 333.042969 24.503906 C 333.917969 24.503906 334.457031 23.710938 334.457031 23.128906 C 334.457031 22.167969 333.625 22.167969 333.207031 22.167969 C 334.375 20.210938 336.292969 20.042969 337.042969 20.042969 C 339 20.042969 340.832031 21.417969 340.832031 24.878906 C 340.832031 25.917969 340.667969 27.253906 340.125 29.417969 Z M 333.832031 38.253906 C 330.917969 38.253906 330.917969 35.503906 330.917969 35.253906 C 330.917969 34.542969 331.582031 30.835938 332.667969 29.210938 C 333.707031 27.710938 335.042969 26.835938 336.667969 26.835938 C 339.582031 26.835938 339.625 29.835938 339.625 30.378906 C 339.625 32.292969 337.917969 38.253906 333.832031 38.253906 Z M 333.832031 38.253906 "/>
<path fill-rule="nonzero" fill="rgb(0%, 0%, 0%)" fill-opacity="1" d="M 355.125 19.878906 C 354.957031 19.503906 354.875 19.378906 354.414062 19.378906 C 354 19.378906 353.914062 19.503906 353.75 19.878906 L 344.75 37.878906 C 344.625 38.128906 344.625 38.167969 344.625 38.210938 C 344.625 38.417969 344.789062 38.417969 345.207031 38.417969 L 363.664062 38.417969 C 364.082031 38.417969 364.25 38.417969 364.25 38.210938 C 364.25 38.167969 364.25 38.128906 364.125 37.878906 Z M 353.582031 22.042969 L 360.75 36.417969 L 346.414062 36.417969 Z M 353.582031 22.042969 "/>
<path fill-rule="nonzero" fill="rgb(0%, 0%, 0%)" fill-opacity="1" d="M 357.484375 25.460938 C 357.359375 25.210938 357.320312 25.125 357.027344 25.125 C 356.695312 25.125 356.652344 25.210938 356.527344 25.460938 L 350.234375 38.042969 C 350.152344 38.210938 350.152344 38.25 350.152344 38.25 C 350.152344 38.417969 350.277344 38.417969 350.570312 38.417969 L 363.445312 38.417969 C 363.734375 38.417969 363.859375 38.417969 363.859375 38.25 C 363.859375 38.25 363.859375 38.210938 363.777344 38.042969 Z M 356.402344 26.960938 L 361.402344 37 L 351.402344 37 Z M 356.402344 26.960938 "/>
<path fill-rule="nonzero" fill="rgb(0%, 0%, 0%)" fill-opacity="1" d="M 373.566406 44.792969 C 373.566406 44.710938 373.566406 44.667969 373.109375 44.210938 C 369.816406 40.878906 368.941406 35.835938 368.941406 31.753906 C 368.941406 27.128906 369.941406 22.503906 373.234375 19.210938 C 373.566406 18.878906 373.566406 18.835938 373.566406 18.753906 C 373.566406 18.542969 373.484375 18.460938 373.316406 18.460938 C 373.027344 18.460938 370.652344 20.292969 369.066406 23.667969 C 367.734375 26.585938 367.402344 29.542969 367.402344 31.753906 C 367.402344 33.835938 367.691406 37.042969 369.152344 40.085938 C 370.777344 43.335938 373.027344 45.085938 373.316406 45.085938 C 373.484375 45.085938 373.566406 45.003906 373.566406 44.792969 Z M 373.566406 44.792969 "/>
<path fill-rule="nonzero" fill="rgb(0%, 0%, 0%)" fill-opacity="1" d="M 378.460938 36.378906 L 381.292969 33.628906 C 385.417969 29.960938 387 28.542969 387 25.878906 C 387 22.835938 384.625 20.710938 381.375 20.710938 C 378.375 20.710938 376.417969 23.167969 376.417969 25.542969 C 376.417969 27.003906 377.75 27.003906 377.835938 27.003906 C 378.292969 27.003906 379.210938 26.710938 379.210938 25.585938 C 379.210938 24.917969 378.710938 24.210938 377.792969 24.210938 C 377.585938 24.210938 377.542969 24.210938 377.460938 24.253906 C 378.042969 22.503906 379.5 21.542969 381.042969 21.542969 C 383.460938 21.542969 384.585938 23.710938 384.585938 25.878906 C 384.585938 28.003906 383.292969 30.085938 381.792969 31.753906 L 376.710938 37.417969 C 376.417969 37.710938 376.417969 37.792969 376.417969 38.417969 L 386.292969 38.417969 L 387 33.792969 L 386.375 33.792969 C 386.210938 34.585938 386.042969 35.753906 385.75 36.167969 C 385.585938 36.378906 383.835938 36.378906 383.25 36.378906 Z M 378.460938 36.378906 "/>
<path fill-rule="nonzero" fill="rgb(0%, 0%, 0%)" fill-opacity="1" d="M 396.035156 31.753906 C 396.035156 29.710938 395.742188 26.503906 394.285156 23.460938 C 392.699219 20.210938 390.410156 18.460938 390.160156 18.460938 C 389.992188 18.460938 389.867188 18.585938 389.867188 18.753906 C 389.867188 18.835938 389.867188 18.878906 390.367188 19.378906 C 392.992188 22.003906 394.492188 26.210938 394.492188 31.753906 C 394.492188 36.335938 393.535156 41.003906 390.242188 44.335938 C 389.867188 44.667969 389.867188 44.710938 389.867188 44.792969 C 389.867188 44.960938 389.992188 45.085938 390.160156 45.085938 C 390.410156 45.085938 392.824219 43.253906 394.367188 39.878906 C 395.742188 36.960938 396.035156 34.003906 396.035156 31.753906 Z M 396.035156 31.753906 "/>
<path fill-rule="nonzero" fill="rgb(0%, 0%, 0%)" fill-opacity="1" d="M 97.53125 114.523438 C 97.78125 113.566406 97.824219 113.316406 99.824219 113.316406 C 100.40625 113.316406 100.65625 113.316406 100.65625 112.773438 C 100.65625 112.480469 100.40625 112.480469 99.949219 112.480469 L 96.449219 112.480469 C 95.738281 112.480469 95.699219 112.480469 95.40625 112.980469 L 85.699219 128.148438 L 83.613281 113.105469 C 83.53125 112.480469 83.488281 112.480469 82.78125 112.480469 L 79.15625 112.480469 C 78.65625 112.480469 78.363281 112.480469 78.363281 112.980469 C 78.363281 113.316406 78.613281 113.316406 79.113281 113.316406 C 79.488281 113.316406 79.949219 113.355469 80.28125 113.355469 C 80.699219 113.441406 80.863281 113.480469 80.863281 113.816406 C 80.863281 113.898438 80.824219 113.980469 80.738281 114.316406 L 77.363281 127.816406 C 77.113281 128.898438 76.65625 129.730469 74.488281 129.816406 C 74.363281 129.816406 74.03125 129.855469 74.03125 130.316406 C 74.03125 130.566406 74.199219 130.648438 74.40625 130.648438 C 75.238281 130.648438 76.15625 130.566406 77.074219 130.566406 C 77.949219 130.566406 78.90625 130.648438 79.78125 130.648438 C 79.90625 130.648438 80.28125 130.648438 80.28125 130.105469 C 80.28125 129.816406 79.988281 129.816406 79.78125 129.816406 C 78.28125 129.816406 77.988281 129.273438 77.988281 128.648438 C 77.988281 128.480469 77.988281 128.316406 78.074219 128.023438 L 81.699219 113.566406 L 81.738281 113.566406 L 84.03125 130.023438 C 84.074219 130.355469 84.113281 130.648438 84.40625 130.648438 C 84.699219 130.648438 84.863281 130.355469 84.988281 130.191406 L 95.738281 113.355469 L 95.78125 113.355469 L 91.949219 128.566406 C 91.699219 129.605469 91.65625 129.816406 89.53125 129.816406 C 89.113281 129.816406 88.824219 129.816406 88.824219 130.316406 C 88.824219 130.648438 89.113281 130.648438 89.199219 130.648438 C 89.949219 130.648438 91.738281 130.566406 92.488281 130.566406 C 93.574219 130.566406 94.738281 130.648438 95.824219 130.648438 C 95.988281 130.648438 96.324219 130.648438 96.324219 130.105469 C 96.324219 129.816406 96.074219 129.816406 95.574219 129.816406 C 94.613281 129.816406 93.863281 129.816406 93.863281 129.355469 C 93.863281 129.230469 93.863281 129.191406 93.988281 128.691406 Z M 97.53125 114.523438 "/>
<path fill-rule="nonzero" fill="rgb(0%, 0%, 0%)" fill-opacity="1" d="M 112.847656 122.839844 C 113.097656 122.757812 113.261719 122.589844 113.261719 122.382812 C 113.261719 122.089844 113.054688 121.882812 112.804688 121.882812 C 112.761719 121.882812 112.679688 121.882812 112.429688 122.007812 L 101.097656 127.464844 C 100.804688 127.589844 100.679688 127.757812 100.679688 127.964844 C 100.679688 128.171875 100.804688 128.296875 101.097656 128.464844 L 112.429688 133.882812 C 112.679688 134.007812 112.761719 134.007812 112.804688 134.007812 C 113.097656 134.007812 113.261719 133.757812 113.261719 133.589844 C 113.261719 133.257812 113.011719 133.171875 112.847656 133.089844 L 102.179688 127.964844 Z M 112.511719 138.089844 C 112.804688 138.089844 113.261719 138.089844 113.261719 137.671875 C 113.261719 137.214844 112.804688 137.214844 112.511719 137.214844 L 101.429688 137.214844 C 101.097656 137.214844 100.679688 137.214844 100.679688 137.671875 C 100.679688 138.089844 101.136719 138.089844 101.429688 138.089844 Z M 112.511719 138.089844 "/>
<path fill-rule="nonzero" fill="rgb(0%, 0%, 0%)" fill-opacity="1" d="M 121.492188 122.796875 C 121.492188 122.296875 121.492188 122.296875 120.949219 122.296875 C 119.742188 123.464844 118.074219 123.464844 117.324219 123.464844 L 117.324219 124.132812 C 117.742188 124.132812 118.992188 124.132812 119.992188 123.632812 L 119.992188 133.089844 C 119.992188 133.714844 119.992188 133.964844 118.15625 133.964844 L 117.449219 133.964844 L 117.449219 134.632812 C 117.78125 134.632812 120.074219 134.546875 120.742188 134.546875 C 121.324219 134.546875 123.65625 134.632812 124.074219 134.632812 L 124.074219 133.964844 L 123.367188 133.964844 C 121.492188 133.964844 121.492188 133.714844 121.492188 133.089844 Z M 121.492188 122.796875 "/>
<path fill-rule="nonzero" fill="rgb(0%, 0%, 0%)" fill-opacity="1" d="M 322.046875 125.066406 L 316.964844 112.980469 C 316.753906 112.441406 316.753906 112.441406 316.003906 112.441406 L 311.089844 112.441406 C 310.589844 112.441406 310.214844 112.441406 310.214844 112.898438 C 310.214844 113.355469 310.671875 113.355469 310.796875 113.355469 C 311.128906 113.355469 311.839844 113.441406 312.421875 113.648438 L 312.421875 127.816406 C 312.421875 128.398438 312.421875 129.566406 310.628906 129.730469 C 310.128906 129.773438 310.128906 130.148438 310.128906 130.191406 C 310.128906 130.648438 310.546875 130.648438 311.046875 130.648438 L 315.128906 130.648438 C 315.628906 130.648438 316.003906 130.648438 316.003906 130.191406 C 316.003906 129.941406 315.796875 129.730469 315.589844 129.730469 C 313.546875 129.566406 313.546875 128.441406 313.546875 127.816406 L 313.546875 114.605469 L 313.589844 114.566406 L 320.046875 130.105469 C 320.296875 130.566406 320.464844 130.648438 320.628906 130.648438 C 320.964844 130.648438 321.003906 130.441406 321.171875 130.105469 L 327.671875 114.566406 L 327.714844 114.605469 L 327.714844 127.816406 C 327.714844 128.398438 327.714844 129.566406 325.878906 129.730469 C 325.378906 129.773438 325.378906 130.148438 325.378906 130.191406 C 325.378906 130.648438 325.796875 130.648438 326.296875 130.648438 L 333.378906 130.648438 C 333.878906 130.648438 334.253906 130.648438 334.253906 130.191406 C 334.253906 129.941406 334.046875 129.730469 333.839844 129.730469 C 331.796875 129.566406 331.796875 128.441406 331.796875 127.816406 L 331.796875 115.273438 C 331.796875 114.691406 331.796875 113.523438 333.589844 113.355469 C 333.878906 113.355469 334.089844 113.191406 334.089844 112.898438 C 334.089844 112.441406 333.714844 112.441406 333.214844 112.441406 L 328.089844 112.441406 C 327.421875 112.441406 327.339844 112.441406 327.128906 112.980469 Z M 321.253906 125.566406 C 321.464844 125.980469 321.503906 126.023438 321.839844 126.148438 L 320.628906 128.941406 L 320.589844 128.941406 L 314.546875 114.480469 C 314.421875 114.148438 314.171875 113.691406 313.839844 113.355469 L 316.128906 113.355469 Z M 313.214844 129.730469 L 312.796875 129.730469 C 312.839844 129.648438 312.878906 129.566406 312.921875 129.523438 C 312.964844 129.480469 312.964844 129.441406 313.003906 129.441406 Z M 328.628906 113.355469 L 331.464844 113.355469 C 330.839844 114.023438 330.839844 114.730469 330.839844 115.191406 L 330.839844 127.898438 C 330.839844 128.355469 330.839844 129.066406 331.464844 129.730469 L 328.046875 129.730469 C 328.628906 129.066406 328.628906 128.355469 328.628906 127.898438 Z M 328.628906 113.355469 "/>
<path fill-rule="nonzero" fill="rgb(0%, 0%, 0%)" fill-opacity="1" d="M 340.972656 122.796875 C 340.972656 122.296875 340.972656 122.296875 340.429688 122.296875 C 339.222656 123.464844 337.554688 123.464844 336.804688 123.464844 L 336.804688 124.132812 C 337.222656 124.132812 338.472656 124.132812 339.472656 123.632812 L 339.472656 133.089844 C 339.472656 133.714844 339.472656 133.964844 337.636719 133.964844 L 336.929688 133.964844 L 336.929688 134.632812 C 337.261719 134.632812 339.554688 134.546875 340.222656 134.546875 C 340.804688 134.546875 343.136719 134.632812 343.554688 134.632812 L 343.554688 133.964844 L 342.847656 133.964844 C 340.972656 133.964844 340.972656 133.714844 340.972656 133.089844 Z M 340.972656 122.796875 "/>
<path fill="none" stroke-width="0.39848" stroke-linecap="butt" stroke-linejoin="miter" stroke="rgb(0%, 0%, 0%)" stroke-opacity="1" stroke-miterlimit="10" d="M -11.617111 17.440031 L 11.496658 17.440031 " transform="matrix(2.666667, 0, 0, -2.666667, 213.935994, 78.287999)"/>
<path fill="none" stroke-width="0.39848" stroke-linecap="round" stroke-linejoin="round" stroke="rgb(0%, 0%, 0%)" stroke-opacity="1" stroke-miterlimit="10" d="M -2.073441 2.393141 C -1.694046 0.954664 -0.850296 0.279371 0.000778198 -0.00187874 C -0.850296 -0.278734 -1.694046 -0.955492 -2.073441 -2.392504 " transform="matrix(2.666667, 0, 0, -2.666667, 245.122925, 31.77624)"/>
<path fill-rule="nonzero" fill="rgb(0%, 0%, 0%)" fill-opacity="1" d="M 170.363281 7.183594 C 170.363281 6.644531 169.90625 6.101562 169.28125 6.101562 C 168.738281 6.101562 168.238281 6.558594 168.238281 7.183594 C 168.238281 7.851562 168.78125 8.269531 169.28125 8.269531 C 169.90625 8.269531 170.363281 7.808594 170.363281 7.183594 Z M 167.53125 10.644531 L 167.53125 11.308594 C 168.699219 11.308594 168.863281 11.433594 168.863281 12.351562 L 168.863281 17.183594 C 168.863281 17.976562 168.699219 17.976562 167.488281 17.976562 L 167.488281 18.644531 C 167.53125 18.644531 168.824219 18.558594 169.574219 18.558594 C 170.238281 18.558594 170.90625 18.601562 171.53125 18.644531 L 171.53125 17.976562 C 170.449219 17.976562 170.28125 17.976562 170.28125 17.183594 L 170.28125 10.433594 Z M 167.53125 10.644531 "/>
<path fill-rule="nonzero" fill="rgb(0%, 0%, 0%)" fill-opacity="1" d="M 179.078125 5.933594 L 179.078125 6.601562 C 180.328125 6.601562 180.453125 6.769531 180.453125 7.644531 L 180.453125 11.519531 C 179.789062 10.851562 178.871094 10.433594 177.871094 10.433594 C 175.371094 10.433594 173.328125 12.308594 173.328125 14.644531 C 173.328125 16.976562 175.289062 18.808594 177.621094 18.808594 C 179.164062 18.808594 180.078125 18.019531 180.371094 17.683594 L 180.371094 18.808594 L 183.246094 18.644531 L 183.246094 17.976562 C 181.996094 17.976562 181.871094 17.851562 181.871094 16.933594 L 181.871094 5.726562 Z M 180.371094 16.683594 C 179.914062 17.558594 178.953125 18.308594 177.746094 18.308594 C 176.703125 18.308594 175.953125 17.683594 175.578125 17.144531 C 175.203125 16.601562 174.996094 15.851562 174.996094 14.683594 C 174.996094 14.226562 174.996094 12.851562 175.746094 11.976562 C 176.496094 11.144531 177.414062 10.976562 177.953125 10.976562 C 178.828125 10.976562 179.664062 11.394531 180.164062 12.058594 C 180.371094 12.351562 180.371094 12.351562 180.371094 12.726562 Z M 180.371094 16.683594 "/>
<path fill-rule="nonzero" fill="rgb(0%, 0%, 0%)" fill-opacity="1" d="M 197.195312 9.933594 C 197.402344 9.726562 197.445312 9.601562 197.445312 9.476562 C 197.445312 9.183594 197.234375 9.019531 197.027344 9.019531 C 196.820312 9.019531 196.777344 9.058594 196.570312 9.308594 L 192.484375 13.351562 L 188.402344 9.269531 C 188.195312 9.101562 188.152344 9.019531 187.984375 9.019531 C 187.695312 9.019531 187.484375 9.226562 187.484375 9.476562 C 187.484375 9.644531 187.570312 9.683594 187.777344 9.933594 L 191.820312 13.976562 L 187.777344 18.019531 C 187.527344 18.308594 187.484375 18.394531 187.484375 18.476562 C 187.484375 18.769531 187.695312 18.976562 187.984375 18.976562 C 188.152344 18.976562 188.195312 18.894531 188.402344 18.683594 L 192.484375 14.644531 L 196.734375 18.851562 C 196.820312 18.933594 196.902344 18.976562 197.027344 18.976562 C 197.234375 18.976562 197.445312 18.808594 197.445312 18.476562 C 197.445312 18.351562 197.445312 18.308594 197.359375 18.269531 C 197.320312 18.183594 193.734375 14.558594 193.152344 14.019531 Z M 197.195312 9.933594 "/>
<path fill-rule="nonzero" fill="rgb(0%, 0%, 0%)" fill-opacity="1" d="M 206.78125 14.019531 C 208.324219 13.351562 208.992188 13.101562 209.449219 12.851562 C 209.824219 12.726562 209.992188 12.644531 209.992188 12.269531 C 209.992188 11.976562 209.742188 11.683594 209.40625 11.683594 C 209.28125 11.683594 209.242188 11.683594 209.03125 11.851562 L 206.492188 13.558594 L 206.78125 10.808594 C 206.824219 10.476562 206.78125 10.019531 206.199219 10.019531 C 205.992188 10.019531 205.617188 10.144531 205.617188 10.558594 C 205.617188 10.726562 205.699219 11.269531 205.742188 11.476562 C 205.78125 11.769531 205.90625 13.144531 205.949219 13.558594 L 203.40625 11.851562 C 203.242188 11.769531 203.199219 11.683594 203.03125 11.683594 C 202.65625 11.683594 202.449219 11.976562 202.449219 12.269531 C 202.449219 12.644531 202.65625 12.769531 202.824219 12.808594 L 205.617188 14.019531 C 204.117188 14.683594 203.40625 14.933594 202.949219 15.144531 C 202.617188 15.308594 202.449219 15.394531 202.449219 15.726562 C 202.449219 16.058594 202.65625 16.308594 203.03125 16.308594 C 203.15625 16.308594 203.199219 16.308594 203.40625 16.144531 L 205.949219 14.476562 L 205.617188 17.433594 C 205.617188 17.851562 205.992188 18.019531 206.199219 18.019531 C 206.449219 18.019531 206.78125 17.851562 206.78125 17.433594 C 206.78125 17.269531 206.699219 16.726562 206.699219 16.558594 C 206.65625 16.226562 206.53125 14.894531 206.492188 14.476562 L 208.699219 15.933594 C 209.199219 16.308594 209.242188 16.308594 209.40625 16.308594 C 209.742188 16.308594 209.992188 16.058594 209.992188 15.726562 C 209.992188 15.351562 209.742188 15.269531 209.574219 15.183594 Z M 206.78125 14.019531 "/>
<path fill-rule="nonzero" fill="rgb(0%, 0%, 0%)" fill-opacity="1" d="M 215.601562 14.074219 C 215.894531 13.699219 216.519531 13.199219 217.726562 13.199219 C 218.726562 13.199219 220.269531 13.699219 220.269531 15.824219 C 220.269531 16.449219 220.144531 17.117188 219.976562 17.699219 C 219.808594 17.074219 219.144531 16.117188 217.601562 16.117188 C 216.644531 16.117188 215.644531 16.285156 214.351562 17.324219 C 213.144531 18.324219 213.058594 19.574219 213.058594 19.949219 C 213.058594 20.617188 213.351562 21.199219 213.976562 21.742188 C 214.644531 22.367188 215.433594 22.492188 216.269531 22.492188 C 220.226562 22.492188 221.558594 18.074219 221.558594 16.410156 C 221.558594 14.242188 219.976562 12.699219 217.726562 12.699219 C 215.269531 12.699219 214.683594 14.449219 214.683594 14.910156 C 214.683594 15.199219 214.894531 15.449219 215.226562 15.449219 C 215.726562 15.449219 216.058594 15.035156 216.058594 14.617188 C 216.058594 14.160156 215.601562 14.074219 215.601562 14.074219 Z M 216.308594 21.949219 C 214.808594 21.949219 214.351562 21.117188 214.351562 20.367188 C 214.351562 20.199219 214.519531 18.410156 215.394531 17.492188 C 216.308594 16.535156 217.351562 16.535156 217.683594 16.535156 C 219.101562 16.535156 219.726562 17.492188 219.726562 18.410156 C 219.726562 19.074219 218.976562 21.949219 216.308594 21.949219 Z M 216.308594 21.949219 "/>
<path fill-rule="nonzero" fill="rgb(0%, 0%, 0%)" fill-opacity="1" d="M 230.390625 12.992188 C 230.222656 12.742188 230.140625 12.699219 229.847656 12.699219 C 229.558594 12.699219 229.472656 12.742188 229.308594 12.992188 L 223.847656 21.867188 C 223.722656 21.992188 223.722656 22.035156 223.722656 22.035156 C 223.722656 22.199219 223.847656 22.199219 224.058594 22.199219 L 235.597656 22.199219 C 235.808594 22.199219 235.933594 22.199219 235.933594 22.035156 C 235.933594 22.035156 235.933594 21.992188 235.847656 21.867188 Z M 229.347656 14.035156 L 233.640625 20.992188 L 225.058594 20.992188 Z M 229.347656 14.035156 "/>
<path fill-rule="nonzero" fill="rgb(0%, 0%, 0%)" fill-opacity="1" d="M 231.679688 13.242188 C 231.554688 12.992188 231.515625 12.949219 231.265625 12.949219 C 231.097656 12.949219 230.972656 12.949219 230.847656 13.15625 L 226.054688 21.90625 C 225.972656 22.03125 225.972656 22.074219 225.972656 22.074219 C 225.972656 22.199219 226.097656 22.199219 226.304688 22.199219 L 236.265625 22.199219 C 236.472656 22.199219 236.554688 22.199219 236.554688 22.074219 C 236.554688 22.074219 236.554688 22.03125 236.472656 21.90625 Z M 230.847656 14.199219 L 234.640625 21.117188 L 227.015625 21.117188 Z M 230.847656 14.199219 "/>
<path fill-rule="nonzero" fill="rgb(0%, 0%, 0%)" fill-opacity="1" d="M 243.273438 12.535156 C 243.273438 12.535156 243.3125 12.492188 243.3125 12.410156 C 243.3125 12.367188 243.273438 12.242188 243.0625 12.242188 C 242.8125 12.242188 239.398438 14.367188 239.398438 18.867188 C 239.398438 23.367188 242.8125 25.535156 243.0625 25.535156 C 243.273438 25.535156 243.3125 25.410156 243.3125 25.324219 C 243.3125 25.242188 243.230469 25.199219 243.1875 25.160156 C 240.855469 23.285156 240.398438 20.574219 240.398438 18.867188 C 240.398438 15.617188 241.898438 13.492188 243.273438 12.535156 Z M 243.273438 12.535156 "/>
<path fill-rule="nonzero" fill="rgb(0%, 0%, 0%)" fill-opacity="1" d="M 252.417969 19.617188 L 251.832031 19.617188 C 251.832031 19.867188 251.667969 20.699219 251.457031 20.824219 C 251.375 20.910156 250.25 20.910156 250.042969 20.910156 L 247.457031 20.910156 C 248.332031 20.285156 249.292969 19.535156 250.082031 18.992188 C 251.292969 18.160156 252.417969 17.410156 252.417969 15.992188 C 252.417969 14.285156 250.792969 13.367188 248.917969 13.367188 C 247.125 13.367188 245.792969 14.367188 245.792969 15.699219 C 245.792969 16.367188 246.375 16.492188 246.582031 16.492188 C 246.917969 16.492188 247.332031 16.242188 247.332031 15.699219 C 247.332031 15.242188 247 14.949219 246.582031 14.949219 C 246.957031 14.324219 247.75 13.949219 248.625 13.949219 C 249.917969 13.949219 251 14.699219 251 15.992188 C 251 17.117188 250.207031 17.992188 249.207031 18.824219 L 245.957031 21.574219 C 245.832031 21.699219 245.792969 21.699219 245.792969 21.785156 L 245.792969 22.199219 L 251.957031 22.199219 Z M 252.417969 19.617188 "/>
<path fill-rule="nonzero" fill="rgb(0%, 0%, 0%)" fill-opacity="1" d="M 258.824219 18.867188 C 258.824219 14.367188 255.40625 12.242188 255.117188 12.242188 C 254.90625 12.242188 254.90625 12.410156 254.90625 12.410156 C 254.90625 12.449219 254.90625 12.492188 254.992188 12.574219 C 256.992188 14.160156 257.78125 16.492188 257.78125 18.867188 C 257.78125 20.074219 257.574219 21.324219 257.117188 22.410156 C 256.492188 23.910156 255.617188 24.660156 254.992188 25.199219 C 254.949219 25.199219 254.90625 25.285156 254.90625 25.324219 C 254.90625 25.367188 254.90625 25.535156 255.117188 25.535156 C 255.40625 25.535156 258.824219 23.410156 258.824219 18.867188 Z M 258.824219 18.867188 "/>
<path fill="none" stroke-width="0.39848" stroke-linecap="butt" stroke-linejoin="miter" stroke="rgb(0%, 0%, 0%)" stroke-opacity="1" stroke-miterlimit="10" d="M -42.70256 8.611418 L -42.70256 -8.579988 " transform="matrix(2.666667, 0, 0, -2.666667, 213.935994, 78.287999)"/>
<path fill="none" stroke-width="0.39848" stroke-linecap="round" stroke-linejoin="round" stroke="rgb(0%, 0%, 0%)" stroke-opacity="1" stroke-miterlimit="10" d="M -2.071301 2.392311 C -1.691906 0.955299 -0.848156 0.278542 -0.0000114441 0.0016861 C -0.848156 -0.279564 -1.691906 -0.954857 -2.071301 -2.393333 " transform="matrix(0, 2.666667, 2.666667, 0, 100.058004, 101.699249)"/>
<path fill-rule="nonzero" fill="rgb(0%, 0%, 0%)" fill-opacity="1" d="M 79.742188 74.371094 C 79.367188 73.746094 78.742188 73.246094 77.824219 73.246094 C 75.449219 73.246094 73.035156 75.871094 73.035156 78.535156 C 73.035156 80.371094 74.242188 81.621094 75.867188 81.621094 C 76.867188 81.621094 77.742188 81.078125 78.492188 80.328125 C 78.824219 81.453125 79.910156 81.621094 80.410156 81.621094 C 81.074219 81.621094 81.535156 81.246094 81.867188 80.660156 C 82.285156 79.910156 82.535156 78.871094 82.535156 78.785156 C 82.535156 78.535156 82.285156 78.535156 82.242188 78.535156 C 81.949219 78.535156 81.949219 78.621094 81.824219 79.121094 C 81.574219 80.035156 81.242188 81.121094 80.449219 81.121094 C 79.992188 81.121094 79.824219 80.703125 79.824219 80.203125 C 79.824219 79.910156 79.992188 79.203125 80.117188 78.746094 C 80.242188 78.246094 80.449219 77.496094 80.535156 77.078125 L 80.910156 75.660156 C 81.035156 75.160156 81.242188 74.285156 81.242188 74.203125 C 81.242188 73.785156 80.910156 73.621094 80.617188 73.621094 C 80.285156 73.621094 79.867188 73.828125 79.742188 74.371094 Z M 78.574219 79.121094 C 78.449219 79.660156 78.035156 80.035156 77.617188 80.371094 C 77.449219 80.535156 76.699219 81.121094 75.910156 81.121094 C 75.199219 81.121094 74.535156 80.621094 74.535156 79.328125 C 74.535156 78.328125 75.074219 76.285156 75.535156 75.535156 C 76.367188 74.035156 77.324219 73.785156 77.824219 73.785156 C 79.117188 73.785156 79.492188 75.203125 79.492188 75.410156 C 79.492188 75.453125 79.449219 75.621094 79.449219 75.660156 Z M 78.574219 79.121094 "/>
<path fill-rule="nonzero" fill="rgb(0%, 0%, 0%)" fill-opacity="1" d="M 88.722656 75.652344 C 88.722656 75.277344 88.683594 75.277344 88.222656 75.277344 C 87.308594 76.109375 85.808594 76.109375 85.558594 76.109375 L 85.347656 76.109375 L 85.347656 76.691406 L 85.558594 76.691406 C 85.847656 76.691406 86.722656 76.652344 87.515625 76.316406 L 87.515625 82.984375 C 87.515625 83.359375 87.515625 83.527344 86.097656 83.527344 L 85.433594 83.527344 L 85.433594 84.109375 C 86.140625 84.066406 87.347656 84.066406 88.097656 84.066406 C 88.890625 84.066406 90.058594 84.066406 90.808594 84.109375 L 90.808594 83.527344 L 90.140625 83.527344 C 88.722656 83.527344 88.722656 83.359375 88.722656 82.984375 Z M 88.722656 75.652344 "/>
<path fill="none" stroke-width="0.39848" stroke-linecap="butt" stroke-linejoin="miter" stroke="rgb(0%, 0%, 0%)" stroke-opacity="1" stroke-miterlimit="10" d="M 42.844315 8.611418 L 42.844315 -8.524324 " transform="matrix(2.666667, 0, 0, -2.666667, 213.935994, 78.287999)"/>
<path fill="none" stroke-width="0.39848" stroke-linecap="round" stroke-linejoin="round" stroke="rgb(0%, 0%, 0%)" stroke-opacity="1" stroke-miterlimit="10" d="M -2.074535 2.39238 C -1.695141 0.955368 -0.851391 0.27861 -0.00031662 0.00175476 C -0.851391 -0.279495 -1.695141 -0.954788 -2.074535 -2.393265 " transform="matrix(0, 2.666667, 2.666667, 0, 328.182821, 101.551626)"/>
<path fill-rule="nonzero" fill="rgb(0%, 0%, 0%)" fill-opacity="1" d="M 341.273438 71.113281 C 341.148438 70.78125 341.105469 70.699219 340.898438 70.699219 C 340.691406 70.699219 340.605469 70.863281 340.480469 71.074219 L 336.273438 82.199219 C 336.023438 82.78125 335.648438 83.074219 335.148438 83.113281 C 335.066406 83.113281 334.773438 83.15625 334.773438 83.449219 C 334.773438 83.78125 335.066406 83.78125 335.398438 83.78125 L 338.355469 83.78125 C 338.691406 83.78125 338.980469 83.78125 338.980469 83.449219 C 338.980469 83.15625 338.730469 83.15625 338.566406 83.113281 C 338.316406 83.113281 337.855469 83.03125 337.855469 81.90625 C 337.855469 81.324219 337.980469 80.699219 338.105469 80.113281 L 342.191406 80.113281 C 342.855469 81.949219 342.855469 82.238281 342.898438 82.613281 C 342.441406 83.074219 341.941406 83.113281 341.730469 83.113281 C 341.523438 83.15625 341.398438 83.28125 341.398438 83.449219 C 341.398438 83.78125 341.691406 83.78125 342.023438 83.78125 L 346.855469 83.78125 C 347.191406 83.78125 347.523438 83.78125 347.523438 83.449219 C 347.523438 83.199219 347.273438 83.15625 347.105469 83.113281 C 346.691406 83.074219 346.355469 82.738281 345.980469 81.90625 Z M 338.316406 79.488281 C 338.730469 77.824219 339.316406 76.238281 339.941406 74.699219 C 340.523438 75.949219 341.648438 78.613281 341.941406 79.488281 Z M 337.191406 81.53125 L 337.230469 81.574219 L 337.230469 81.738281 C 337.191406 81.78125 337.191406 81.824219 337.191406 81.90625 C 337.191406 81.988281 337.191406 82.699219 337.480469 83.113281 L 336.480469 83.113281 C 336.691406 82.863281 336.773438 82.65625 336.898438 82.363281 Z M 340.230469 73.699219 L 340.898438 71.90625 L 345.398438 82.15625 C 345.480469 82.363281 345.691406 82.78125 345.941406 83.113281 L 343.316406 83.113281 C 343.480469 83.03125 343.566406 82.738281 343.566406 82.53125 C 343.566406 81.40625 341.941406 77.613281 341.148438 75.78125 Z M 340.230469 73.699219 "/>
<path fill-rule="nonzero" fill="rgb(0%, 0%, 0%)" fill-opacity="1" d="M 353.160156 77.980469 C 353.160156 77.605469 353.121094 77.605469 352.660156 77.605469 C 351.746094 78.4375 350.246094 78.4375 349.996094 78.4375 L 349.785156 78.4375 L 349.785156 79.019531 L 349.996094 79.019531 C 350.285156 79.019531 351.160156 78.980469 351.953125 78.644531 L 351.953125 85.3125 C 351.953125 85.6875 351.953125 85.855469 350.535156 85.855469 L 349.871094 85.855469 L 349.871094 86.4375 C 350.578125 86.394531 351.785156 86.394531 352.535156 86.394531 C 353.328125 86.394531 354.496094 86.394531 355.246094 86.4375 L 355.246094 85.855469 L 354.578125 85.855469 C 353.160156 85.855469 353.160156 85.6875 353.160156 85.3125 Z M 353.160156 77.980469 "/>
<path fill="none" stroke-width="0.39848" stroke-linecap="butt" stroke-linejoin="miter" stroke="rgb(0%, 0%, 0%)" stroke-opacity="1" stroke-miterlimit="10" d="M -28.030685 -17.146395 L 31.012772 -17.146395 " transform="matrix(2.666667, 0, 0, -2.666667, 213.935994, 78.287999)"/>
<path fill="none" stroke-width="0.39848" stroke-linecap="round" stroke-linejoin="round" stroke="rgb(0%, 0%, 0%)" stroke-opacity="1" stroke-miterlimit="10" d="M -2.072983 2.389011 C -1.695053 0.956394 -0.851303 0.279636 0.00123596 -0.00161362 C -0.851303 -0.278469 -1.695053 -0.958157 -2.072983 -2.392239 " transform="matrix(2.666667, 0, 0, -2.666667, 297.164673, 124.007416)"/>
<path fill-rule="nonzero" fill="rgb(0%, 0%, 0%)" fill-opacity="1" d="M 199.683594 134.292969 C 201.222656 133.625 201.890625 133.375 202.347656 133.125 C 202.722656 133 202.890625 132.917969 202.890625 132.542969 C 202.890625 132.25 202.640625 131.960938 202.308594 131.960938 C 202.183594 131.960938 202.140625 131.960938 201.933594 132.125 L 199.390625 133.835938 L 199.683594 131.085938 C 199.722656 130.75 199.683594 130.292969 199.097656 130.292969 C 198.890625 130.292969 198.515625 130.417969 198.515625 130.835938 C 198.515625 131 198.597656 131.542969 198.640625 131.75 C 198.683594 132.042969 198.808594 133.417969 198.847656 133.835938 L 196.308594 132.125 C 196.140625 132.042969 196.097656 131.960938 195.933594 131.960938 C 195.558594 131.960938 195.347656 132.25 195.347656 132.542969 C 195.347656 132.917969 195.558594 133.042969 195.722656 133.085938 L 198.515625 134.292969 C 197.015625 134.960938 196.308594 135.210938 195.847656 135.417969 C 195.515625 135.585938 195.347656 135.667969 195.347656 136 C 195.347656 136.335938 195.558594 136.585938 195.933594 136.585938 C 196.058594 136.585938 196.097656 136.585938 196.308594 136.417969 L 198.847656 134.75 L 198.515625 137.710938 C 198.515625 138.125 198.890625 138.292969 199.097656 138.292969 C 199.347656 138.292969 199.683594 138.125 199.683594 137.710938 C 199.683594 137.542969 199.597656 137 199.597656 136.835938 C 199.558594 136.5 199.433594 135.167969 199.390625 134.75 L 201.597656 136.210938 C 202.097656 136.585938 202.140625 136.585938 202.308594 136.585938 C 202.640625 136.585938 202.890625 136.335938 202.890625 136 C 202.890625 135.625 202.640625 135.542969 202.472656 135.460938 Z M 199.683594 134.292969 "/>
<path fill-rule="nonzero" fill="rgb(0%, 0%, 0%)" fill-opacity="1" d="M 210.777344 138.871094 L 208.234375 132.828125 C 208.109375 132.535156 208.109375 132.535156 207.734375 132.535156 L 205.277344 132.535156 C 205.027344 132.535156 204.816406 132.535156 204.816406 132.785156 C 204.816406 133.035156 205.066406 133.035156 205.152344 133.035156 C 205.316406 133.035156 205.652344 133.035156 205.941406 133.160156 L 205.941406 140.246094 C 205.941406 140.535156 205.941406 141.121094 205.027344 141.203125 C 204.777344 141.203125 204.777344 141.410156 204.777344 141.410156 C 204.777344 141.660156 205.027344 141.660156 205.234375 141.660156 L 207.316406 141.660156 C 207.527344 141.660156 207.734375 141.660156 207.734375 141.410156 C 207.734375 141.285156 207.652344 141.203125 207.527344 141.203125 C 206.527344 141.121094 206.527344 140.578125 206.527344 140.246094 L 206.527344 133.621094 L 209.777344 141.371094 C 209.859375 141.621094 209.984375 141.660156 210.027344 141.660156 C 210.191406 141.660156 210.234375 141.535156 210.316406 141.410156 L 213.566406 133.621094 L 213.566406 140.246094 C 213.566406 140.535156 213.566406 141.121094 212.691406 141.203125 C 212.441406 141.203125 212.441406 141.410156 212.441406 141.410156 C 212.441406 141.660156 212.652344 141.660156 212.859375 141.660156 L 216.441406 141.660156 C 216.652344 141.660156 216.859375 141.660156 216.859375 141.410156 C 216.859375 141.285156 216.777344 141.203125 216.652344 141.203125 C 215.609375 141.121094 215.609375 140.578125 215.609375 140.246094 L 215.609375 133.953125 C 215.609375 133.703125 215.609375 133.121094 216.527344 133.035156 C 216.652344 132.996094 216.777344 132.953125 216.777344 132.785156 C 216.777344 132.535156 216.566406 132.535156 216.359375 132.535156 L 213.777344 132.535156 C 213.441406 132.535156 213.402344 132.535156 213.277344 132.828125 Z M 210.359375 139.121094 C 210.484375 139.328125 210.484375 139.328125 210.652344 139.410156 L 210.066406 140.828125 L 210.027344 140.828125 L 206.984375 133.578125 C 206.941406 133.410156 206.816406 133.160156 206.652344 133.035156 L 207.816406 133.035156 Z M 206.359375 141.203125 L 206.109375 141.203125 C 206.152344 141.160156 206.191406 141.121094 206.191406 141.078125 C 206.234375 141.078125 206.234375 141.078125 206.234375 141.035156 Z M 214.027344 133.035156 L 215.441406 133.035156 C 215.152344 133.371094 215.152344 133.703125 215.152344 133.953125 L 215.152344 140.285156 C 215.152344 140.535156 215.152344 140.871094 215.484375 141.203125 L 213.734375 141.203125 C 214.027344 140.871094 214.027344 140.535156 214.027344 140.285156 Z M 214.027344 133.035156 "/>
<path fill-rule="nonzero" fill="rgb(0%, 0%, 0%)" fill-opacity="1" d="M 229.070312 137.851562 C 229.238281 137.769531 229.363281 137.644531 229.363281 137.476562 C 229.363281 137.269531 229.195312 137.101562 229.027344 137.101562 C 228.945312 137.101562 228.863281 137.101562 228.738281 137.183594 L 219.527344 141.351562 C 219.363281 141.433594 219.238281 141.558594 219.238281 141.769531 C 219.238281 141.933594 219.363281 142.058594 219.527344 142.144531 L 228.695312 146.308594 C 228.902344 146.433594 228.988281 146.433594 229.027344 146.433594 C 229.195312 146.433594 229.363281 146.226562 229.363281 146.058594 C 229.363281 145.851562 229.238281 145.726562 229.027344 145.644531 L 220.488281 141.769531 Z M 228.820312 149.558594 C 229.027344 149.558594 229.363281 149.558594 229.363281 149.183594 C 229.363281 148.808594 229.027344 148.808594 228.820312 148.808594 L 219.820312 148.808594 C 219.613281 148.808594 219.238281 148.808594 219.238281 149.183594 C 219.238281 149.558594 219.613281 149.558594 219.820312 149.558594 Z M 228.820312 149.558594 "/>
<path fill-rule="nonzero" fill="rgb(0%, 0%, 0%)" fill-opacity="1" d="M 236.796875 138.183594 C 236.796875 137.808594 236.753906 137.808594 236.296875 137.808594 C 235.378906 138.644531 233.878906 138.644531 233.628906 138.644531 L 233.421875 138.644531 L 233.421875 139.226562 L 233.628906 139.226562 C 233.921875 139.226562 234.796875 139.183594 235.585938 138.851562 L 235.585938 145.519531 C 235.585938 145.894531 235.585938 146.058594 234.171875 146.058594 L 233.503906 146.058594 L 233.503906 146.644531 C 234.210938 146.601562 235.421875 146.601562 236.171875 146.601562 C 236.960938 146.601562 238.128906 146.601562 238.878906 146.644531 L 238.878906 146.058594 L 238.210938 146.058594 C 236.796875 146.058594 236.796875 145.894531 236.796875 145.519531 Z M 236.796875 138.183594 "/>
</svg>
