<?xml version="1.0" encoding="UTF-8"?>
<svg xmlns="http://www.w3.org/2000/svg" xmlns:xlink="http://www.w3.org/1999/xlink" width="191.979996" height="84.019997" viewBox="0 0 191.979996 84.019997">
<defs>
<clipPath id="clip-0">
<path clip-rule="nonzero" d="M 138 65 L 144 65 L 144 84.023438 L 138 84.023438 Z M 138 65 "/>
</clipPath>
<clipPath id="clip-1">
<path clip-rule="nonzero" d="M 180 65 L 186 65 L 186 84.023438 L 180 84.023438 Z M 180 65 "/>
</clipPath>
</defs>
<path fill-rule="nonzero" fill="rgb(0%, 0%, 0%)" fill-opacity="1" d="M 29.734375 10.550781 L 30.515625 7.769531 L 31.796875 7.769531 C 34.515625 7.769531 36.796875 6.925781 37.796875 5.238281 C 38.140625 4.707031 38.296875 4.144531 38.296875 3.488281 C 38.296875 2.519531 37.859375 1.800781 36.984375 1.238281 C 36.140625 0.707031 34.921875 0.425781 33.390625 0.425781 L 28.390625 0.425781 L 28.296875 0.707031 C 28.671875 0.707031 28.953125 0.738281 29.203125 0.769531 C 29.765625 0.863281 30.046875 1.488281 30.046875 2.113281 C 30.046875 2.457031 29.984375 2.894531 29.828125 3.457031 L 27.671875 11.394531 C 27.484375 12.144531 27.171875 13.050781 26.796875 13.425781 C 26.453125 13.738281 25.890625 13.988281 25.328125 13.988281 L 25.234375 14.269531 L 31.203125 14.269531 L 31.296875 13.988281 C 29.921875 13.988281 29.328125 13.238281 29.328125 12.519531 C 29.328125 12.363281 29.390625 11.988281 29.484375 11.644531 C 29.546875 11.332031 29.609375 10.957031 29.734375 10.550781 Z M 30.609375 7.363281 L 31.859375 2.519531 C 32.078125 1.863281 32.234375 1.082031 32.828125 0.863281 C 32.953125 0.832031 33.171875 0.832031 33.390625 0.832031 C 35.328125 0.832031 36.296875 1.957031 36.296875 3.394531 C 36.296875 3.925781 36.171875 4.394531 35.953125 4.800781 C 35.171875 6.113281 33.546875 7.363281 31.515625 7.363281 Z M 30.609375 7.363281 "/>
<path fill-rule="nonzero" fill="rgb(0%, 0%, 0%)" fill-opacity="1" d="M 113.804688 9.113281 L 113.304688 9.113281 C 112.804688 12.207031 112.335938 13.644531 108.929688 13.644531 L 106.273438 13.644531 C 105.335938 13.644531 105.304688 13.519531 105.304688 12.863281 L 105.304688 7.519531 L 107.085938 7.519531 C 109.023438 7.519531 109.242188 8.175781 109.242188 9.863281 L 109.742188 9.863281 L 109.742188 4.582031 L 109.242188 4.582031 C 109.242188 6.300781 109.023438 6.925781 107.085938 6.925781 L 105.304688 6.925781 L 105.304688 2.113281 C 105.304688 1.457031 105.335938 1.332031 106.273438 1.332031 L 108.835938 1.332031 C 111.898438 1.332031 112.429688 2.425781 112.742188 5.207031 L 113.242188 5.207031 L 112.679688 0.707031 L 101.460938 0.707031 L 101.460938 1.332031 L 101.929688 1.332031 C 103.460938 1.332031 103.523438 1.550781 103.523438 2.269531 L 103.523438 12.707031 C 103.523438 13.425781 103.460938 13.644531 101.929688 13.644531 L 101.460938 13.644531 L 101.460938 14.269531 L 112.960938 14.269531 Z M 113.804688 9.113281 "/>
<path fill-rule="nonzero" fill="rgb(0%, 0%, 0%)" fill-opacity="1" d="M 131.894531 14.269531 L 131.894531 13.644531 L 131.394531 13.644531 C 129.863281 13.644531 129.832031 13.425781 129.832031 12.707031 L 129.832031 2.207031 C 129.832031 1.488281 129.863281 1.269531 131.394531 1.269531 L 131.894531 1.269531 L 131.894531 0.644531 L 128.519531 0.644531 C 127.988281 0.644531 127.988281 0.675781 127.863281 1.019531 L 123.488281 12.269531 L 119.175781 1.082031 C 118.988281 0.644531 118.925781 0.644531 118.457031 0.644531 L 115.113281 0.644531 L 115.113281 1.269531 L 115.582031 1.269531 C 117.113281 1.269531 117.144531 1.488281 117.144531 2.207031 L 117.144531 12.175781 C 117.144531 12.707031 117.144531 13.644531 115.113281 13.644531 L 115.113281 14.269531 L 117.425781 14.207031 L 119.769531 14.269531 L 119.769531 13.644531 C 117.707031 13.644531 117.707031 12.707031 117.707031 12.175781 L 117.707031 1.425781 L 117.738281 1.425781 L 122.550781 13.832031 C 122.644531 14.082031 122.738281 14.269531 122.925781 14.269531 C 123.144531 14.269531 123.207031 14.113281 123.300781 13.894531 L 128.207031 1.269531 L 128.207031 12.707031 C 128.207031 13.425781 128.175781 13.644531 126.644531 13.644531 L 126.175781 13.644531 L 126.175781 14.269531 C 126.894531 14.207031 128.269531 14.207031 129.050781 14.207031 C 129.800781 14.207031 131.144531 14.207031 131.894531 14.269531 Z M 131.894531 14.269531 "/>
<path fill-rule="nonzero" fill="rgb(0%, 0%, 0%)" fill-opacity="1" d="M 138.941406 13.511719 C 138.941406 12.042969 137.753906 10.824219 136.253906 10.824219 C 134.722656 10.824219 133.535156 12.042969 133.535156 13.511719 C 133.535156 15.042969 134.722656 16.230469 136.253906 16.230469 C 137.753906 16.230469 138.941406 15.042969 138.941406 13.511719 Z M 138.941406 13.511719 "/>
<path fill-rule="nonzero" fill="rgb(0%, 0%, 0%)" fill-opacity="1" d="M 147.726562 -0.0117188 C 144.851562 1.863281 142.820312 5.082031 142.820312 9.144531 C 142.820312 12.863281 144.914062 16.613281 147.664062 18.300781 L 147.914062 17.988281 C 145.289062 15.894531 144.507812 13.488281 144.507812 9.082031 C 144.507812 4.644531 145.351562 2.363281 147.914062 0.300781 Z M 147.726562 -0.0117188 "/>
<path fill-rule="nonzero" fill="rgb(0%, 0%, 0%)" fill-opacity="1" d="M 162.785156 1.957031 L 162.785156 1.082031 L 151.285156 1.082031 L 151.285156 1.957031 L 158.628906 1.957031 L 150.285156 13.394531 L 150.285156 14.269531 L 162.597656 14.269531 L 162.597656 13.394531 L 154.316406 13.394531 Z M 161.597656 1.957031 L 153.285156 13.394531 L 151.347656 13.394531 L 159.722656 1.957031 Z M 161.597656 1.957031 "/>
<path fill-rule="nonzero" fill="rgb(0%, 0%, 0%)" fill-opacity="1" d="M 165.753906 13.207031 C 165.753906 13.769531 166.128906 14.269531 166.691406 14.269531 C 166.910156 14.269531 167.066406 14.238281 167.222656 14.144531 C 167.222656 14.644531 167.128906 15.113281 166.847656 15.519531 C 166.566406 15.957031 166.066406 16.394531 165.441406 16.832031 L 165.847656 17.425781 C 166.316406 17.113281 166.691406 16.769531 167.003906 16.488281 C 167.691406 15.832031 168.285156 15.175781 168.285156 13.894531 C 168.285156 12.707031 167.847656 12.082031 166.972656 12.082031 C 166.285156 12.082031 165.753906 12.519531 165.753906 13.207031 Z M 165.753906 13.207031 "/>
<path fill-rule="nonzero" fill="rgb(0%, 0%, 0%)" fill-opacity="1" d="M 182.726562 14.269531 L 182.726562 13.644531 L 182.101562 13.644531 C 180.289062 13.644531 180.257812 13.425781 180.257812 12.707031 L 180.257812 1.519531 C 180.257812 1.019531 180.257812 0.988281 179.789062 0.988281 C 178.539062 2.269531 176.789062 2.269531 176.164062 2.269531 L 176.164062 2.894531 C 176.570312 2.894531 177.726562 2.894531 178.757812 2.363281 L 178.757812 12.707031 C 178.757812 13.425781 178.695312 13.644531 176.914062 13.644531 L 176.289062 13.644531 L 176.289062 14.269531 C 176.976562 14.207031 178.695312 14.207031 179.507812 14.207031 C 180.289062 14.207031 182.039062 14.207031 182.726562 14.269531 Z M 182.726562 14.269531 "/>
<path fill-rule="nonzero" fill="rgb(0%, 0%, 0%)" fill-opacity="1" d="M 185.097656 -0.0117188 L 184.941406 0.300781 C 187.503906 2.363281 188.316406 4.644531 188.316406 9.082031 C 188.316406 13.488281 187.566406 15.894531 184.941406 17.988281 L 185.160156 18.300781 C 187.910156 16.613281 190.035156 12.863281 190.035156 9.144531 C 190.035156 5.082031 188.003906 1.863281 185.097656 -0.0117188 Z M 185.097656 -0.0117188 "/>
<path fill-rule="nonzero" fill="rgb(0%, 0%, 0%)" fill-opacity="1" d="M 39.648438 80.105469 L 39.648438 66.917969 L 36.742188 66.917969 L 32.554688 78.574219 L 32.492188 78.574219 L 28.492188 66.917969 L 25.398438 66.917969 L 25.398438 80.105469 L 26.273438 80.105469 L 26.273438 70.761719 L 26.304688 70.761719 L 29.554688 80.105469 L 32.929688 80.105469 L 36.304688 70.699219 L 36.335938 70.699219 L 36.335938 80.105469 Z M 38.773438 79.230469 L 37.210938 79.230469 L 37.210938 67.792969 L 38.773438 67.792969 Z M 31.835938 79.230469 L 30.179688 79.230469 L 26.617188 69.011719 L 26.210938 67.792969 L 27.804688 67.792969 Z M 31.835938 79.230469 "/>
<path fill-rule="nonzero" fill="rgb(0%, 0%, 0%)" fill-opacity="1" d="M 117.914062 74.949219 L 117.414062 74.949219 C 116.914062 78.042969 116.445312 79.480469 113.039062 79.480469 L 110.382812 79.480469 C 109.445312 79.480469 109.414062 79.355469 109.414062 78.699219 L 109.414062 73.355469 L 111.195312 73.355469 C 113.132812 73.355469 113.351562 74.011719 113.351562 75.699219 L 113.851562 75.699219 L 113.851562 70.417969 L 113.351562 70.417969 C 113.351562 72.136719 113.132812 72.761719 111.195312 72.761719 L 109.414062 72.761719 L 109.414062 67.949219 C 109.414062 67.292969 109.445312 67.167969 110.382812 67.167969 L 112.945312 67.167969 C 116.007812 67.167969 116.539062 68.261719 116.851562 71.042969 L 117.351562 71.042969 L 116.789062 66.542969 L 105.570312 66.542969 L 105.570312 67.167969 L 106.039062 67.167969 C 107.570312 67.167969 107.632812 67.386719 107.632812 68.105469 L 107.632812 78.542969 C 107.632812 79.261719 107.570312 79.480469 106.039062 79.480469 L 105.570312 79.480469 L 105.570312 80.105469 L 117.070312 80.105469 Z M 117.914062 74.949219 "/>
<path fill-rule="nonzero" fill="rgb(0%, 0%, 0%)" fill-opacity="1" d="M 136.007812 80.105469 L 136.007812 79.480469 L 135.507812 79.480469 C 133.976562 79.480469 133.945312 79.261719 133.945312 78.542969 L 133.945312 68.042969 C 133.945312 67.324219 133.976562 67.105469 135.507812 67.105469 L 136.007812 67.105469 L 136.007812 66.480469 L 132.632812 66.480469 C 132.101562 66.480469 132.101562 66.511719 131.976562 66.855469 L 127.601562 78.105469 L 123.289062 66.917969 C 123.101562 66.480469 123.039062 66.480469 122.570312 66.480469 L 119.226562 66.480469 L 119.226562 67.105469 L 119.695312 67.105469 C 121.226562 67.105469 121.257812 67.324219 121.257812 68.042969 L 121.257812 78.011719 C 121.257812 78.542969 121.257812 79.480469 119.226562 79.480469 L 119.226562 80.105469 L 121.539062 80.042969 L 123.882812 80.105469 L 123.882812 79.480469 C 121.820312 79.480469 121.820312 78.542969 121.820312 78.011719 L 121.820312 67.261719 L 121.851562 67.261719 L 126.664062 79.667969 C 126.757812 79.917969 126.851562 80.105469 127.039062 80.105469 C 127.257812 80.105469 127.320312 79.949219 127.414062 79.730469 L 132.320312 67.105469 L 132.320312 78.542969 C 132.320312 79.261719 132.289062 79.480469 130.757812 79.480469 L 130.289062 79.480469 L 130.289062 80.105469 C 131.007812 80.042969 132.382812 80.042969 133.164062 80.042969 C 133.914062 80.042969 135.257812 80.042969 136.007812 80.105469 Z M 136.007812 80.105469 "/>
<g clip-path="url(#clip-0)">
<path fill-rule="nonzero" fill="rgb(0%, 0%, 0%)" fill-opacity="1" d="M 143.613281 65.824219 C 140.738281 67.699219 138.707031 70.917969 138.707031 74.980469 C 138.707031 78.699219 140.800781 82.449219 143.550781 84.136719 L 143.800781 83.824219 C 141.175781 81.730469 140.394531 79.324219 140.394531 74.917969 C 140.394531 70.480469 141.238281 68.199219 143.800781 66.136719 Z M 143.613281 65.824219 "/>
</g>
<path fill-rule="nonzero" fill="rgb(0%, 0%, 0%)" fill-opacity="1" d="M 158.671875 67.792969 L 158.671875 66.917969 L 147.171875 66.917969 L 147.171875 67.792969 L 154.515625 67.792969 L 146.171875 79.230469 L 146.171875 80.105469 L 158.484375 80.105469 L 158.484375 79.230469 L 150.203125 79.230469 Z M 157.484375 67.792969 L 149.171875 79.230469 L 147.234375 79.230469 L 155.609375 67.792969 Z M 157.484375 67.792969 "/>
<path fill-rule="nonzero" fill="rgb(0%, 0%, 0%)" fill-opacity="1" d="M 161.640625 79.042969 C 161.640625 79.605469 162.015625 80.105469 162.578125 80.105469 C 162.796875 80.105469 162.953125 80.074219 163.109375 79.980469 C 163.109375 80.480469 163.015625 80.949219 162.734375 81.355469 C 162.453125 81.792969 161.953125 82.230469 161.328125 82.667969 L 161.734375 83.261719 C 162.203125 82.949219 162.578125 82.605469 162.890625 82.324219 C 163.578125 81.667969 164.171875 81.011719 164.171875 79.730469 C 164.171875 78.542969 163.734375 77.917969 162.859375 77.917969 C 162.171875 77.917969 161.640625 78.355469 161.640625 79.042969 Z M 161.640625 79.042969 "/>
<path fill-rule="nonzero" fill="rgb(0%, 0%, 0%)" fill-opacity="1" d="M 178.613281 80.105469 L 178.613281 79.480469 L 177.988281 79.480469 C 176.175781 79.480469 176.144531 79.261719 176.144531 78.542969 L 176.144531 67.355469 C 176.144531 66.855469 176.144531 66.824219 175.675781 66.824219 C 174.425781 68.105469 172.675781 68.105469 172.050781 68.105469 L 172.050781 68.730469 C 172.457031 68.730469 173.613281 68.730469 174.644531 68.199219 L 174.644531 78.542969 C 174.644531 79.261719 174.582031 79.480469 172.800781 79.480469 L 172.175781 79.480469 L 172.175781 80.105469 C 172.863281 80.042969 174.582031 80.042969 175.394531 80.042969 C 176.175781 80.042969 177.925781 80.042969 178.613281 80.105469 Z M 178.613281 80.105469 "/>
<g clip-path="url(#clip-1)">
<path fill-rule="nonzero" fill="rgb(0%, 0%, 0%)" fill-opacity="1" d="M 180.980469 65.824219 L 180.824219 66.136719 C 183.386719 68.199219 184.199219 70.480469 184.199219 74.917969 C 184.199219 79.324219 183.449219 81.730469 180.824219 83.824219 L 181.042969 84.136719 C 183.792969 82.449219 185.917969 78.699219 185.917969 74.980469 C 185.917969 70.917969 183.886719 67.699219 180.980469 65.824219 Z M 180.980469 65.824219 "/>
</g>
<path fill="none" stroke-width="0.5579" stroke-linecap="butt" stroke-linejoin="miter" stroke="rgb(0%, 0%, 0%)" stroke-opacity="1" stroke-miterlimit="10" d="M -31.066219 16.473782 L -7.335751 16.473782 " transform="matrix(2, 0, 0, -2, 107.984001, 42.096001)"/>
<path fill="none" stroke-width="0.5579" stroke-linecap="round" stroke-linejoin="round" stroke="rgb(0%, 0%, 0%)" stroke-opacity="1" stroke-miterlimit="10" d="M -2.899643 3.347978 C -2.372299 1.340165 -1.188705 0.390946 -0.00120544 0.000321388 C -1.188705 -0.390304 -2.372299 -1.339522 -2.899643 -3.347335 " transform="matrix(2, 0, 0, -2, 93.869598, 9.14908)"/>
<path fill="none" stroke-width="0.5579" stroke-linecap="butt" stroke-linejoin="miter" stroke="rgb(0%, 0%, 0%)" stroke-opacity="1" stroke-miterlimit="10" d="M -37.738094 10.723782 L -37.738094 -8.721531 " transform="matrix(2, 0, 0, -2, 107.984001, 42.096001)"/>
<path fill="none" stroke-width="0.5579" stroke-linecap="round" stroke-linejoin="round" stroke="rgb(0%, 0%, 0%)" stroke-opacity="1" stroke-miterlimit="10" d="M -2.900953 3.347082 C -2.369703 1.33927 -1.190016 0.390051 0.00139046 -0.000574112 C -1.190016 -0.391199 -2.369703 -1.340418 -2.900953 -3.34823 " transform="matrix(0, 2, 2, 0, 32.508961, 60.098782)"/>
<path fill-rule="nonzero" fill="rgb(0%, 0%, 0%)" fill-opacity="1" d="M 12.792969 38.96875 C 12.792969 37.15625 11.292969 35.6875 9.449219 35.6875 C 8.636719 35.6875 7.792969 36 7.199219 36.5625 L 7.199219 35.6875 L 5.011719 35.84375 L 5.011719 36.375 C 6.011719 36.375 6.105469 36.4375 6.105469 37.0625 L 6.105469 43.75 C 6.105469 44.375 5.949219 44.375 5.011719 44.375 L 5.011719 44.90625 C 5.011719 44.90625 6.042969 44.84375 6.667969 44.84375 C 7.199219 44.84375 8.199219 44.90625 8.324219 44.90625 L 8.324219 44.375 C 7.386719 44.375 7.230469 44.375 7.230469 43.75 L 7.230469 41.40625 C 7.324219 41.46875 8.011719 42.25 9.230469 42.25 C 11.136719 42.25 12.792969 40.8125 12.792969 38.96875 Z M 11.449219 38.96875 C 11.449219 40.625 10.355469 41.84375 9.136719 41.84375 C 7.855469 41.84375 7.292969 40.71875 7.230469 40.625 L 7.230469 37.25 C 7.667969 36.53125 8.511719 36.15625 9.292969 36.15625 C 10.511719 36.15625 11.449219 37.4375 11.449219 38.96875 Z M 11.449219 38.96875 "/>
<path fill-rule="nonzero" fill="rgb(0%, 0%, 0%)" fill-opacity="1" d="M 19.375 36.625 C 19.375 36.125 18.90625 35.6875 18.25 35.6875 C 17.5 35.6875 16.71875 36.125 16.28125 37.25 L 16.25 37.25 L 16.25 35.6875 L 14.1875 35.84375 L 14.1875 36.375 C 15.15625 36.375 15.28125 36.46875 15.28125 37.1875 L 15.28125 40.9375 C 15.28125 41.5625 15.125 41.5625 14.1875 41.5625 L 14.1875 42.09375 C 14.25 42.09375 15.25 42.03125 15.84375 42.03125 L 17.71875 42.09375 L 17.71875 41.5625 L 17.4375 41.5625 C 16.375 41.5625 16.375 41.40625 16.375 40.90625 L 16.375 38.78125 C 16.375 37.5625 16.9375 36.09375 18.3125 36.09375 C 18.1875 36.1875 18.0625 36.375 18.0625 36.625 C 18.0625 37.09375 18.4375 37.28125 18.71875 37.28125 C 19.0625 37.28125 19.375 37.0625 19.375 36.625 Z M 19.375 36.625 "/>
<path fill-rule="nonzero" fill="rgb(0%, 0%, 0%)" fill-opacity="1" d="M 25.496094 45.46875 L 25.496094 45.03125 L 25.027344 45.03125 C 23.902344 45.03125 23.902344 44.90625 23.902344 44.53125 L 23.902344 38.5 C 23.902344 38.1875 23.871094 38.1875 23.527344 38.1875 C 22.808594 38.875 21.683594 38.875 21.277344 38.875 L 21.277344 39.3125 C 21.589844 39.3125 22.308594 39.3125 22.964844 39 L 22.964844 44.53125 C 22.964844 44.90625 22.964844 45.03125 21.839844 45.03125 L 21.371094 45.03125 L 21.371094 45.46875 C 21.964844 45.4375 22.808594 45.4375 23.433594 45.4375 C 24.058594 45.4375 24.902344 45.4375 25.496094 45.46875 Z M 25.496094 45.46875 "/>
<path fill-rule="nonzero" fill="rgb(0%, 0%, 0%)" fill-opacity="1" d="M 57.214844 24.640625 L 57.214844 19.546875 L 56.339844 19.546875 L 56.339844 23.765625 L 52.121094 23.765625 L 52.121094 24.640625 Z M 57.214844 24.640625 "/>
<path fill="none" stroke-width="0.5579" stroke-linecap="butt" stroke-linejoin="miter" stroke="rgb(0%, 0%, 0%)" stroke-opacity="1" stroke-miterlimit="10" d="M 19.203312 8.76675 L 19.203312 -8.209812 " transform="matrix(2, 0, 0, -2, 107.984001, 42.096001)"/>
<path fill="none" stroke-width="0.5579" stroke-linecap="round" stroke-linejoin="round" stroke="rgb(0%, 0%, 0%)" stroke-opacity="1" stroke-miterlimit="10" d="M -2.899582 3.34774 C -2.372238 1.339928 -1.188644 0.390709 -0.00114441 0.0000839233 C -1.188644 -0.390541 -2.372238 -1.33976 -2.899582 -3.347572 " transform="matrix(0, 2, 2, 0, 146.390457, 59.072601)"/>
<path fill-rule="nonzero" fill="rgb(0%, 0%, 0%)" fill-opacity="1" d="M 126.675781 40.414062 C 126.675781 38.601562 125.175781 37.132812 123.332031 37.132812 C 122.519531 37.132812 121.675781 37.445312 121.082031 38.007812 L 121.082031 37.132812 L 118.894531 37.289062 L 118.894531 37.820312 C 119.894531 37.820312 119.988281 37.882812 119.988281 38.507812 L 119.988281 45.195312 C 119.988281 45.820312 119.832031 45.820312 118.894531 45.820312 L 118.894531 46.351562 C 118.894531 46.351562 119.925781 46.289062 120.550781 46.289062 C 121.082031 46.289062 122.082031 46.351562 122.207031 46.351562 L 122.207031 45.820312 C 121.269531 45.820312 121.113281 45.820312 121.113281 45.195312 L 121.113281 42.851562 C 121.207031 42.914062 121.894531 43.695312 123.113281 43.695312 C 125.019531 43.695312 126.675781 42.257812 126.675781 40.414062 Z M 125.332031 40.414062 C 125.332031 42.070312 124.238281 43.289062 123.019531 43.289062 C 121.738281 43.289062 121.175781 42.164062 121.113281 42.070312 L 121.113281 38.695312 C 121.550781 37.976562 122.394531 37.601562 123.175781 37.601562 C 124.394531 37.601562 125.332031 38.882812 125.332031 40.414062 Z M 125.332031 40.414062 "/>
<path fill-rule="nonzero" fill="rgb(0%, 0%, 0%)" fill-opacity="1" d="M 133.257812 38.070312 C 133.257812 37.570312 132.789062 37.132812 132.132812 37.132812 C 131.382812 37.132812 130.601562 37.570312 130.164062 38.695312 L 130.132812 38.695312 L 130.132812 37.132812 L 128.070312 37.289062 L 128.070312 37.820312 C 129.039062 37.820312 129.164062 37.914062 129.164062 38.632812 L 129.164062 42.382812 C 129.164062 43.007812 129.007812 43.007812 128.070312 43.007812 L 128.070312 43.539062 C 128.132812 43.539062 129.132812 43.476562 129.726562 43.476562 L 131.601562 43.539062 L 131.601562 43.007812 L 131.320312 43.007812 C 130.257812 43.007812 130.257812 42.851562 130.257812 42.351562 L 130.257812 40.226562 C 130.257812 39.007812 130.820312 37.539062 132.195312 37.539062 C 132.070312 37.632812 131.945312 37.820312 131.945312 38.070312 C 131.945312 38.539062 132.320312 38.726562 132.601562 38.726562 C 132.945312 38.726562 133.257812 38.507812 133.257812 38.070312 Z M 133.257812 38.070312 "/>
<path fill-rule="nonzero" fill="rgb(0%, 0%, 0%)" fill-opacity="1" d="M 139.378906 46.914062 L 139.378906 46.476562 L 138.910156 46.476562 C 137.785156 46.476562 137.785156 46.351562 137.785156 45.976562 L 137.785156 39.945312 C 137.785156 39.632812 137.753906 39.632812 137.410156 39.632812 C 136.691406 40.320312 135.566406 40.320312 135.160156 40.320312 L 135.160156 40.757812 C 135.472656 40.757812 136.191406 40.757812 136.847656 40.445312 L 136.847656 45.976562 C 136.847656 46.351562 136.847656 46.476562 135.722656 46.476562 L 135.253906 46.476562 L 135.253906 46.914062 C 135.847656 46.882812 136.691406 46.882812 137.316406 46.882812 C 137.941406 46.882812 138.785156 46.882812 139.378906 46.914062 Z M 139.378906 46.914062 "/>
<path fill="none" stroke-width="0.5579" stroke-linecap="butt" stroke-linejoin="miter" stroke="rgb(0%, 0%, 0%)" stroke-opacity="1" stroke-miterlimit="10" d="M -30.288876 -16.444187 L -5.281063 -16.444187 " transform="matrix(2, 0, 0, -2, 107.984001, 42.096001)"/>
<path fill="none" stroke-width="0.5579" stroke-linecap="round" stroke-linejoin="round" stroke="rgb(0%, 0%, 0%)" stroke-opacity="1" stroke-miterlimit="10" d="M -2.901306 3.347038 C -2.370056 1.339226 -1.190369 0.390007 0.0010376 -0.000617981 C -1.190369 -0.391243 -2.370056 -1.340462 -2.901306 -3.348274 " transform="matrix(2, 0, 0, -2, 97.9823, 74.983139)"/>
<path fill-rule="nonzero" fill="rgb(0%, 0%, 0%)" fill-opacity="1" d="M 63.894531 70.132812 L 63.894531 60.039062 L 62.675781 60.039062 L 62.675781 70.132812 Z M 63.894531 70.132812 "/>
<path fill-rule="nonzero" fill="rgb(0%, 0%, 0%)" fill-opacity="1" d="M 67.582031 70.132812 L 67.582031 63.695312 L 66.363281 63.695312 L 66.363281 70.132812 Z M 67.707031 62.007812 L 67.707031 60.539062 L 66.238281 60.539062 L 66.238281 62.007812 Z M 67.707031 62.007812 "/>
<path fill-rule="nonzero" fill="rgb(0%, 0%, 0%)" fill-opacity="1" d="M 75.582031 70.132812 L 75.582031 65.820312 C 75.582031 64.695312 75.269531 63.539062 73.457031 63.539062 C 72.644531 63.539062 71.832031 63.882812 71.207031 64.632812 L 71.207031 63.570312 L 70.050781 63.570312 L 70.050781 70.132812 L 71.300781 70.132812 L 71.300781 66.601562 C 71.300781 65.632812 71.707031 64.507812 72.832031 64.507812 C 74.332031 64.507812 74.332031 65.507812 74.332031 65.945312 L 74.332031 70.132812 Z M 75.582031 70.132812 "/>
<path fill-rule="nonzero" fill="rgb(0%, 0%, 0%)" fill-opacity="1" d="M 84.058594 70.132812 L 81.152344 66.195312 L 83.746094 63.695312 L 82.339844 63.695312 L 79.214844 66.695312 L 79.214844 60.039062 L 78.089844 60.039062 L 78.089844 70.132812 L 79.152344 70.132812 L 79.152344 68.101562 L 80.402344 66.914062 L 82.808594 70.132812 Z M 84.058594 70.132812 "/>
</svg>
