<?xml version="1.0" encoding="UTF-8"?>
<svg xmlns="http://www.w3.org/2000/svg" xmlns:xlink="http://www.w3.org/1999/xlink" width="189.559998" height="87.68" viewBox="0 0 189.559998 87.68">
<defs>
<clipPath id="clip-0">
<path clip-rule="nonzero" d="M 139 67 L 144 67 L 144 87.679688 L 139 87.679688 Z M 139 67 "/>
</clipPath>
<clipPath id="clip-1">
<path clip-rule="nonzero" d="M 178 67 L 183 67 L 183 87.679688 L 178 87.679688 Z M 178 67 "/>
</clipPath>
</defs>
<path fill-rule="nonzero" fill="rgb(0%, 0%, 0%)" fill-opacity="1" d="M 30.039062 8.640625 L 33.445312 8.640625 C 36.257812 8.640625 39.039062 6.578125 39.039062 4.359375 C 39.039062 2.796875 37.726562 1.328125 35.101562 1.328125 L 28.664062 1.328125 C 28.289062 1.328125 28.070312 1.328125 28.070312 1.703125 C 28.070312 1.953125 28.226562 1.953125 28.632812 1.953125 C 28.882812 1.953125 29.257812 1.984375 29.476562 1.984375 C 29.820312 2.046875 29.914062 2.078125 29.914062 2.328125 C 29.914062 2.390625 29.914062 2.453125 29.851562 2.703125 L 27.164062 13.390625 C 26.976562 14.171875 26.945312 14.328125 25.351562 14.328125 C 25.039062 14.328125 24.820312 14.328125 24.820312 14.703125 C 24.820312 14.953125 25.039062 14.953125 25.101562 14.953125 C 25.664062 14.953125 27.070312 14.890625 27.632812 14.890625 C 28.070312 14.890625 28.507812 14.921875 28.914062 14.921875 C 29.351562 14.921875 29.789062 14.953125 30.195312 14.953125 C 30.351562 14.953125 30.601562 14.953125 30.601562 14.546875 C 30.601562 14.328125 30.414062 14.328125 30.039062 14.328125 C 29.320312 14.328125 28.757812 14.328125 28.757812 13.984375 C 28.757812 13.859375 28.789062 13.765625 28.820312 13.640625 Z M 31.476562 2.703125 C 31.664062 2.015625 31.695312 1.953125 32.570312 1.953125 L 34.476562 1.953125 C 36.132812 1.953125 37.195312 2.484375 37.195312 3.859375 C 37.195312 4.640625 36.789062 6.359375 36.007812 7.078125 C 35.007812 7.984375 33.820312 8.140625 32.945312 8.140625 L 30.132812 8.140625 Z M 31.476562 2.703125 "/>
<path fill-rule="nonzero" fill="rgb(0%, 0%, 0%)" fill-opacity="1" d="M 103.691406 13.390625 C 103.691406 14.109375 103.628906 14.328125 102.097656 14.328125 L 101.628906 14.328125 L 101.628906 14.953125 L 113.128906 14.953125 L 113.972656 9.796875 L 113.472656 9.796875 C 112.972656 12.890625 112.503906 14.328125 109.097656 14.328125 L 106.441406 14.328125 C 105.503906 14.328125 105.472656 14.203125 105.472656 13.546875 L 105.472656 8.203125 L 107.253906 8.203125 C 109.191406 8.203125 109.410156 8.859375 109.410156 10.546875 L 109.910156 10.546875 L 109.910156 5.265625 L 109.410156 5.265625 C 109.410156 6.984375 109.191406 7.609375 107.253906 7.609375 L 105.472656 7.609375 L 105.472656 2.796875 C 105.472656 2.140625 105.503906 2.015625 106.441406 2.015625 L 109.003906 2.015625 C 112.066406 2.015625 112.597656 3.109375 112.910156 5.890625 L 113.410156 5.890625 L 112.847656 1.390625 L 101.628906 1.390625 L 101.628906 2.015625 L 102.097656 2.015625 C 103.628906 2.015625 103.691406 2.234375 103.691406 2.953125 Z M 103.691406 13.390625 "/>
<path fill-rule="nonzero" fill="rgb(0%, 0%, 0%)" fill-opacity="1" d="M 119.335938 1.765625 C 119.148438 1.328125 119.085938 1.328125 118.617188 1.328125 L 115.273438 1.328125 L 115.273438 1.953125 L 115.742188 1.953125 C 117.273438 1.953125 117.304688 2.171875 117.304688 2.890625 L 117.304688 12.859375 C 117.304688 13.390625 117.304688 14.328125 115.273438 14.328125 L 115.273438 14.953125 C 115.960938 14.921875 116.929688 14.890625 117.585938 14.890625 C 118.242188 14.890625 119.242188 14.921875 119.929688 14.953125 L 119.929688 14.328125 C 117.867188 14.328125 117.867188 13.390625 117.867188 12.859375 L 117.867188 2.109375 L 117.898438 2.109375 L 122.710938 14.515625 C 122.804688 14.765625 122.898438 14.953125 123.085938 14.953125 C 123.304688 14.953125 123.367188 14.796875 123.460938 14.578125 L 128.367188 1.953125 L 128.367188 13.390625 C 128.367188 14.109375 128.335938 14.328125 126.804688 14.328125 L 126.335938 14.328125 L 126.335938 14.953125 C 127.054688 14.890625 128.429688 14.890625 129.210938 14.890625 C 129.960938 14.890625 131.304688 14.890625 132.054688 14.953125 L 132.054688 14.328125 L 131.554688 14.328125 C 130.023438 14.328125 129.992188 14.109375 129.992188 13.390625 L 129.992188 2.890625 C 129.992188 2.171875 130.023438 1.953125 131.554688 1.953125 L 132.054688 1.953125 L 132.054688 1.328125 L 128.679688 1.328125 C 128.148438 1.328125 128.148438 1.359375 128.023438 1.703125 L 123.648438 12.953125 Z M 119.335938 1.765625 "/>
<path fill-rule="nonzero" fill="rgb(0%, 0%, 0%)" fill-opacity="1" d="M 139.863281 14.472656 C 139.863281 12.785156 138.519531 11.472656 136.863281 11.472656 C 135.207031 11.472656 133.863281 12.816406 133.863281 14.441406 C 133.863281 16.128906 135.238281 17.441406 136.863281 17.441406 C 138.550781 17.441406 139.863281 16.097656 139.863281 14.472656 Z M 139.863281 14.472656 "/>
<path fill-rule="nonzero" fill="rgb(0%, 0%, 0%)" fill-opacity="1" d="M 148.554688 19.734375 C 148.554688 19.671875 148.554688 19.640625 148.210938 19.296875 C 145.742188 16.796875 145.085938 13.015625 145.085938 9.953125 C 145.085938 6.484375 145.835938 3.015625 148.304688 0.546875 C 148.554688 0.296875 148.554688 0.265625 148.554688 0.203125 C 148.554688 0.046875 148.492188 -0.015625 148.367188 -0.015625 C 148.148438 -0.015625 146.367188 1.359375 145.179688 3.890625 C 144.179688 6.078125 143.929688 8.296875 143.929688 9.953125 C 143.929688 11.515625 144.148438 13.921875 145.242188 16.203125 C 146.460938 18.640625 148.148438 19.953125 148.367188 19.953125 C 148.492188 19.953125 148.554688 19.890625 148.554688 19.734375 Z M 148.554688 19.734375 "/>
<path fill-rule="nonzero" fill="rgb(0%, 0%, 0%)" fill-opacity="1" d="M 161.582031 2.015625 C 161.769531 1.765625 161.769531 1.703125 161.769531 1.640625 C 161.769531 1.296875 161.457031 1.296875 161.113281 1.296875 L 151.988281 1.296875 C 151.332031 1.296875 151.332031 1.359375 151.269531 1.859375 L 150.988281 4.578125 L 150.957031 4.828125 C 150.957031 5.109375 151.175781 5.203125 151.300781 5.203125 C 151.488281 5.203125 151.613281 5.078125 151.644531 4.890625 C 151.707031 4.421875 151.894531 3.546875 153.113281 2.796875 C 154.238281 2.046875 155.644531 1.984375 156.332031 1.984375 L 157.925781 1.984375 L 150.457031 14.234375 C 150.269531 14.484375 150.269531 14.546875 150.269531 14.609375 C 150.269531 14.953125 150.582031 14.953125 150.957031 14.953125 L 161.175781 14.953125 C 161.769531 14.953125 161.769531 14.921875 161.863281 14.390625 L 162.394531 10.453125 C 162.394531 10.234375 162.207031 10.109375 162.050781 10.109375 C 161.738281 10.109375 161.707031 10.296875 161.644531 10.703125 C 161.300781 12.328125 159.769531 14.265625 156.925781 14.265625 L 154.082031 14.265625 Z M 151.957031 1.984375 L 153.019531 1.984375 L 153.019531 2.015625 C 152.488281 2.328125 152.113281 2.671875 151.863281 2.890625 Z M 158.769531 1.984375 L 160.800781 1.984375 L 153.269531 14.265625 L 151.238281 14.265625 Z M 159.800781 14.234375 C 160.363281 13.921875 160.894531 13.484375 161.363281 12.921875 C 161.300781 13.328125 161.269531 13.546875 161.175781 14.265625 L 159.800781 14.265625 Z M 159.800781 14.234375 "/>
<path fill-rule="nonzero" fill="rgb(0%, 0%, 0%)" fill-opacity="1" d="M 167.054688 14.921875 C 167.054688 13.609375 166.554688 12.828125 165.773438 12.828125 C 165.117188 12.828125 164.710938 13.328125 164.710938 13.890625 C 164.710938 14.421875 165.117188 14.953125 165.773438 14.953125 C 165.992188 14.953125 166.273438 14.859375 166.460938 14.703125 C 166.523438 14.640625 166.554688 14.640625 166.554688 14.640625 C 166.585938 14.640625 166.585938 14.640625 166.585938 14.921875 C 166.585938 16.421875 165.898438 17.609375 165.242188 18.265625 C 165.023438 18.484375 165.023438 18.515625 165.023438 18.578125 C 165.023438 18.734375 165.117188 18.796875 165.210938 18.796875 C 165.429688 18.796875 167.054688 17.265625 167.054688 14.921875 Z M 167.054688 14.921875 "/>
<path fill-rule="nonzero" fill="rgb(0%, 0%, 0%)" fill-opacity="1" d="M 177.722656 2.203125 C 177.722656 1.703125 177.722656 1.671875 177.253906 1.671875 C 176.003906 2.953125 174.253906 2.953125 173.628906 2.953125 L 173.628906 3.578125 C 174.035156 3.578125 175.191406 3.578125 176.222656 3.046875 L 176.222656 13.390625 C 176.222656 14.109375 176.160156 14.328125 174.378906 14.328125 L 173.753906 14.328125 L 173.753906 14.953125 C 174.441406 14.890625 176.160156 14.890625 176.972656 14.890625 C 177.753906 14.890625 179.503906 14.890625 180.191406 14.953125 L 180.191406 14.328125 L 179.566406 14.328125 C 177.753906 14.328125 177.722656 14.109375 177.722656 13.390625 Z M 177.722656 2.203125 "/>
<path fill-rule="nonzero" fill="rgb(0%, 0%, 0%)" fill-opacity="1" d="M 187.5625 9.953125 C 187.5625 8.421875 187.34375 6.015625 186.25 3.734375 C 185.0625 1.296875 183.34375 -0.015625 183.15625 -0.015625 C 183.03125 -0.015625 182.9375 0.078125 182.9375 0.203125 C 182.9375 0.265625 182.9375 0.296875 183.3125 0.671875 C 185.28125 2.640625 186.40625 5.796875 186.40625 9.953125 C 186.40625 13.390625 185.6875 16.890625 183.21875 19.390625 C 182.9375 19.640625 182.9375 19.671875 182.9375 19.734375 C 182.9375 19.859375 183.03125 19.953125 183.15625 19.953125 C 183.34375 19.953125 185.15625 18.578125 186.3125 16.046875 C 187.34375 13.859375 187.5625 11.640625 187.5625 9.953125 Z M 187.5625 9.953125 "/>
<path fill-rule="nonzero" fill="rgb(0%, 0%, 0%)" fill-opacity="1" d="M 31.660156 78.511719 L 27.847656 69.449219 C 27.691406 69.042969 27.691406 69.042969 27.128906 69.042969 L 23.441406 69.042969 C 23.066406 69.042969 22.785156 69.042969 22.785156 69.386719 C 22.785156 69.730469 23.128906 69.730469 23.222656 69.730469 C 23.472656 69.730469 24.003906 69.792969 24.441406 69.949219 L 24.441406 80.574219 C 24.441406 81.011719 24.441406 81.886719 23.097656 82.011719 C 22.722656 82.042969 22.722656 82.324219 22.722656 82.355469 C 22.722656 82.699219 23.035156 82.699219 23.410156 82.699219 L 26.472656 82.699219 C 26.847656 82.699219 27.128906 82.699219 27.128906 82.355469 C 27.128906 82.167969 26.972656 82.011719 26.816406 82.011719 C 25.285156 81.886719 25.285156 81.042969 25.285156 80.574219 L 25.285156 70.667969 L 25.316406 70.636719 L 30.160156 82.292969 C 30.347656 82.636719 30.472656 82.699219 30.597656 82.699219 C 30.847656 82.699219 30.878906 82.542969 31.003906 82.292969 L 35.878906 70.636719 L 35.910156 70.667969 L 35.910156 80.574219 C 35.910156 81.011719 35.910156 81.886719 34.535156 82.011719 C 34.160156 82.042969 34.160156 82.324219 34.160156 82.355469 C 34.160156 82.699219 34.472656 82.699219 34.847656 82.699219 L 40.160156 82.699219 C 40.535156 82.699219 40.816406 82.699219 40.816406 82.355469 C 40.816406 82.167969 40.660156 82.011719 40.503906 82.011719 C 38.972656 81.886719 38.972656 81.042969 38.972656 80.574219 L 38.972656 71.167969 C 38.972656 70.730469 38.972656 69.855469 40.316406 69.730469 C 40.535156 69.730469 40.691406 69.605469 40.691406 69.386719 C 40.691406 69.042969 40.410156 69.042969 40.035156 69.042969 L 36.191406 69.042969 C 35.691406 69.042969 35.628906 69.042969 35.472656 69.449219 Z M 31.066406 78.886719 C 31.222656 79.199219 31.253906 79.230469 31.503906 79.324219 L 30.597656 81.417969 L 30.566406 81.417969 L 26.035156 70.574219 C 25.941406 70.324219 25.753906 69.980469 25.503906 69.730469 L 27.222656 69.730469 Z M 25.035156 82.011719 L 24.722656 82.011719 C 24.753906 81.949219 24.785156 81.886719 24.816406 81.855469 C 24.847656 81.824219 24.847656 81.792969 24.878906 81.792969 Z M 36.597656 69.730469 L 38.722656 69.730469 C 38.253906 70.230469 38.253906 70.761719 38.253906 71.105469 L 38.253906 80.636719 C 38.253906 80.980469 38.253906 81.511719 38.722656 82.011719 L 36.160156 82.011719 C 36.597656 81.511719 36.597656 80.980469 36.597656 80.636719 Z M 36.597656 69.730469 "/>
<path fill-rule="nonzero" fill="rgb(0%, 0%, 0%)" fill-opacity="1" d="M 108.273438 81.136719 C 108.273438 81.855469 108.210938 82.074219 106.679688 82.074219 L 106.210938 82.074219 L 106.210938 82.699219 L 117.710938 82.699219 L 118.554688 77.542969 L 118.054688 77.542969 C 117.554688 80.636719 117.085938 82.074219 113.679688 82.074219 L 111.023438 82.074219 C 110.085938 82.074219 110.054688 81.949219 110.054688 81.292969 L 110.054688 75.949219 L 111.835938 75.949219 C 113.773438 75.949219 113.992188 76.605469 113.992188 78.292969 L 114.492188 78.292969 L 114.492188 73.011719 L 113.992188 73.011719 C 113.992188 74.730469 113.773438 75.355469 111.835938 75.355469 L 110.054688 75.355469 L 110.054688 70.542969 C 110.054688 69.886719 110.085938 69.761719 111.023438 69.761719 L 113.585938 69.761719 C 116.648438 69.761719 117.179688 70.855469 117.492188 73.636719 L 117.992188 73.636719 L 117.429688 69.136719 L 106.210938 69.136719 L 106.210938 69.761719 L 106.679688 69.761719 C 108.210938 69.761719 108.273438 69.980469 108.273438 70.699219 Z M 108.273438 81.136719 "/>
<path fill-rule="nonzero" fill="rgb(0%, 0%, 0%)" fill-opacity="1" d="M 123.914062 69.511719 C 123.726562 69.074219 123.664062 69.074219 123.195312 69.074219 L 119.851562 69.074219 L 119.851562 69.699219 L 120.320312 69.699219 C 121.851562 69.699219 121.882812 69.917969 121.882812 70.636719 L 121.882812 80.605469 C 121.882812 81.136719 121.882812 82.074219 119.851562 82.074219 L 119.851562 82.699219 C 120.539062 82.667969 121.507812 82.636719 122.164062 82.636719 C 122.820312 82.636719 123.820312 82.667969 124.507812 82.699219 L 124.507812 82.074219 C 122.445312 82.074219 122.445312 81.136719 122.445312 80.605469 L 122.445312 69.855469 L 122.476562 69.855469 L 127.289062 82.261719 C 127.382812 82.511719 127.476562 82.699219 127.664062 82.699219 C 127.882812 82.699219 127.945312 82.542969 128.039062 82.324219 L 132.945312 69.699219 L 132.945312 81.136719 C 132.945312 81.855469 132.914062 82.074219 131.382812 82.074219 L 130.914062 82.074219 L 130.914062 82.699219 C 131.632812 82.636719 133.007812 82.636719 133.789062 82.636719 C 134.539062 82.636719 135.882812 82.636719 136.632812 82.699219 L 136.632812 82.074219 L 136.132812 82.074219 C 134.601562 82.074219 134.570312 81.855469 134.570312 81.136719 L 134.570312 70.636719 C 134.570312 69.917969 134.601562 69.699219 136.132812 69.699219 L 136.632812 69.699219 L 136.632812 69.074219 L 133.257812 69.074219 C 132.726562 69.074219 132.726562 69.105469 132.601562 69.449219 L 128.226562 80.699219 Z M 123.914062 69.511719 "/>
<g clip-path="url(#clip-0)">
<path fill-rule="nonzero" fill="rgb(0%, 0%, 0%)" fill-opacity="1" d="M 143.949219 87.480469 C 143.949219 87.417969 143.949219 87.386719 143.605469 87.042969 C 141.136719 84.542969 140.480469 80.761719 140.480469 77.699219 C 140.480469 74.230469 141.230469 70.761719 143.699219 68.292969 C 143.949219 68.042969 143.949219 68.011719 143.949219 67.949219 C 143.949219 67.792969 143.886719 67.730469 143.761719 67.730469 C 143.542969 67.730469 141.761719 69.105469 140.574219 71.636719 C 139.574219 73.824219 139.324219 76.042969 139.324219 77.699219 C 139.324219 79.261719 139.542969 81.667969 140.636719 83.949219 C 141.855469 86.386719 143.542969 87.699219 143.761719 87.699219 C 143.886719 87.699219 143.949219 87.636719 143.949219 87.480469 Z M 143.949219 87.480469 "/>
</g>
<path fill-rule="nonzero" fill="rgb(0%, 0%, 0%)" fill-opacity="1" d="M 157.003906 69.761719 C 157.191406 69.511719 157.191406 69.449219 157.191406 69.386719 C 157.191406 69.042969 156.878906 69.042969 156.535156 69.042969 L 147.410156 69.042969 C 146.753906 69.042969 146.753906 69.105469 146.691406 69.605469 L 146.410156 72.324219 L 146.378906 72.574219 C 146.378906 72.855469 146.597656 72.949219 146.722656 72.949219 C 146.910156 72.949219 147.035156 72.824219 147.066406 72.636719 C 147.128906 72.167969 147.316406 71.292969 148.535156 70.542969 C 149.660156 69.792969 151.066406 69.730469 151.753906 69.730469 L 153.347656 69.730469 L 145.878906 81.980469 C 145.691406 82.230469 145.691406 82.292969 145.691406 82.355469 C 145.691406 82.699219 146.003906 82.699219 146.378906 82.699219 L 156.597656 82.699219 C 157.191406 82.699219 157.191406 82.667969 157.285156 82.136719 L 157.816406 78.199219 C 157.816406 77.980469 157.628906 77.855469 157.472656 77.855469 C 157.160156 77.855469 157.128906 78.042969 157.066406 78.449219 C 156.722656 80.074219 155.191406 82.011719 152.347656 82.011719 L 149.503906 82.011719 Z M 147.378906 69.730469 L 148.441406 69.730469 L 148.441406 69.761719 C 147.910156 70.074219 147.535156 70.417969 147.285156 70.636719 Z M 154.191406 69.730469 L 156.222656 69.730469 L 148.691406 82.011719 L 146.660156 82.011719 Z M 155.222656 81.980469 C 155.785156 81.667969 156.316406 81.230469 156.785156 80.667969 C 156.722656 81.074219 156.691406 81.292969 156.597656 82.011719 L 155.222656 82.011719 Z M 155.222656 81.980469 "/>
<path fill-rule="nonzero" fill="rgb(0%, 0%, 0%)" fill-opacity="1" d="M 162.472656 82.667969 C 162.472656 81.355469 161.972656 80.574219 161.191406 80.574219 C 160.535156 80.574219 160.128906 81.074219 160.128906 81.636719 C 160.128906 82.167969 160.535156 82.699219 161.191406 82.699219 C 161.410156 82.699219 161.691406 82.605469 161.878906 82.449219 C 161.941406 82.386719 161.972656 82.386719 161.972656 82.386719 C 162.003906 82.386719 162.003906 82.386719 162.003906 82.667969 C 162.003906 84.167969 161.316406 85.355469 160.660156 86.011719 C 160.441406 86.230469 160.441406 86.261719 160.441406 86.324219 C 160.441406 86.480469 160.535156 86.542969 160.628906 86.542969 C 160.847656 86.542969 162.472656 85.011719 162.472656 82.667969 Z M 162.472656 82.667969 "/>
<path fill-rule="nonzero" fill="rgb(0%, 0%, 0%)" fill-opacity="1" d="M 173.144531 69.949219 C 173.144531 69.449219 173.144531 69.417969 172.675781 69.417969 C 171.425781 70.699219 169.675781 70.699219 169.050781 70.699219 L 169.050781 71.324219 C 169.457031 71.324219 170.613281 71.324219 171.644531 70.792969 L 171.644531 81.136719 C 171.644531 81.855469 171.582031 82.074219 169.800781 82.074219 L 169.175781 82.074219 L 169.175781 82.699219 C 169.863281 82.636719 171.582031 82.636719 172.394531 82.636719 C 173.175781 82.636719 174.925781 82.636719 175.613281 82.699219 L 175.613281 82.074219 L 174.988281 82.074219 C 173.175781 82.074219 173.144531 81.855469 173.144531 81.136719 Z M 173.144531 69.949219 "/>
<g clip-path="url(#clip-1)">
<path fill-rule="nonzero" fill="rgb(0%, 0%, 0%)" fill-opacity="1" d="M 182.980469 77.699219 C 182.980469 76.167969 182.761719 73.761719 181.667969 71.480469 C 180.480469 69.042969 178.761719 67.730469 178.574219 67.730469 C 178.449219 67.730469 178.355469 67.824219 178.355469 67.949219 C 178.355469 68.011719 178.355469 68.042969 178.730469 68.417969 C 180.699219 70.386719 181.824219 73.542969 181.824219 77.699219 C 181.824219 81.136719 181.105469 84.636719 178.636719 87.136719 C 178.355469 87.386719 178.355469 87.417969 178.355469 87.480469 C 178.355469 87.605469 178.449219 87.699219 178.574219 87.699219 C 178.761719 87.699219 180.574219 86.324219 181.730469 83.792969 C 182.761719 81.605469 182.980469 79.386719 182.980469 77.699219 Z M 182.980469 77.699219 "/>
</g>
<path fill="none" stroke-width="0.39848" stroke-linecap="butt" stroke-linejoin="miter" stroke="rgb(0%, 0%, 0%)" stroke-opacity="1" stroke-miterlimit="10" d="M -30.012344 16.937626 L -6.082657 16.937626 " transform="matrix(2, 0, 0, -2, 105.970001, 43.844002)"/>
<path fill="none" stroke-width="0.39848" stroke-linecap="round" stroke-linejoin="round" stroke="rgb(0%, 0%, 0%)" stroke-opacity="1" stroke-miterlimit="10" d="M -2.072697 2.39151 C -1.69379 0.957916 -0.85004 0.278229 0.00152206 0.00088501 C -0.85004 -0.280365 -1.69379 -0.956146 -2.072697 -2.38974 " transform="matrix(2, 0, 0, -2, 94.200081, 9.97052)"/>
<path fill="none" stroke-width="0.39848" stroke-linecap="butt" stroke-linejoin="miter" stroke="rgb(0%, 0%, 0%)" stroke-opacity="1" stroke-miterlimit="10" d="M -37.090469 11.257938 L -37.090469 -8.976437 " transform="matrix(2, 0, 0, -2, 105.970001, 43.844002)"/>
<path fill="none" stroke-width="0.39848" stroke-linecap="round" stroke-linejoin="round" stroke="rgb(0%, 0%, 0%)" stroke-opacity="1" stroke-miterlimit="10" d="M -2.071507 2.390737 C -1.6926 0.957143 -0.84885 0.277455 -0.001194 0.00011158 C -0.84885 -0.277232 -1.6926 -0.95692 -2.071507 -2.390513 " transform="matrix(0, 2, 2, 0, 31.788839, 62.197701)"/>
<path fill-rule="nonzero" fill="rgb(0%, 0%, 0%)" fill-opacity="1" d="M 8.167969 45.296875 C 7.261719 45.296875 7.136719 45.296875 7.136719 44.703125 L 7.136719 42.453125 C 7.199219 42.515625 7.855469 43.234375 9.011719 43.234375 C 10.855469 43.234375 12.417969 41.859375 12.417969 40.109375 C 12.417969 38.390625 11.011719 36.953125 9.230469 36.953125 C 8.449219 36.953125 7.636719 37.265625 7.074219 37.828125 L 7.074219 36.953125 L 4.980469 37.109375 L 4.980469 37.609375 C 5.949219 37.609375 6.011719 37.703125 6.011719 38.265625 L 6.011719 44.703125 C 6.011719 45.296875 5.886719 45.296875 4.980469 45.296875 L 4.980469 45.828125 C 5.011719 45.828125 5.980469 45.765625 6.574219 45.765625 C 7.074219 45.765625 8.042969 45.796875 8.167969 45.828125 Z M 7.136719 38.453125 C 7.542969 37.765625 8.355469 37.421875 9.074219 37.421875 C 10.261719 37.421875 11.167969 38.640625 11.167969 40.109375 C 11.167969 41.703125 10.105469 42.859375 8.949219 42.859375 C 7.699219 42.859375 7.167969 41.796875 7.136719 41.703125 Z M 7.136719 38.453125 "/>
<path fill-rule="nonzero" fill="rgb(0%, 0%, 0%)" fill-opacity="1" d="M 15.859375 39.921875 C 15.859375 38.765625 16.390625 37.359375 17.734375 37.359375 C 17.609375 37.453125 17.484375 37.640625 17.484375 37.859375 C 17.484375 38.328125 17.859375 38.484375 18.109375 38.484375 C 18.453125 38.484375 18.765625 38.265625 18.765625 37.859375 C 18.765625 37.390625 18.296875 36.953125 17.640625 36.953125 C 16.953125 36.953125 16.171875 37.390625 15.765625 38.453125 L 15.765625 36.953125 L 13.765625 37.109375 L 13.765625 37.609375 C 14.703125 37.609375 14.796875 37.703125 14.796875 38.390625 L 14.796875 42.015625 C 14.796875 42.609375 14.671875 42.609375 13.765625 42.609375 L 13.765625 43.109375 C 13.828125 43.109375 14.765625 43.046875 15.359375 43.046875 C 15.953125 43.046875 16.546875 43.078125 17.171875 43.109375 L 17.171875 42.609375 L 16.890625 42.609375 C 15.859375 42.609375 15.859375 42.453125 15.859375 41.984375 Z M 15.859375 39.921875 "/>
<path fill-rule="nonzero" fill="rgb(0%, 0%, 0%)" fill-opacity="1" d="M 23.289062 40.472656 C 23.289062 40.191406 23.257812 40.191406 22.914062 40.191406 C 22.226562 40.816406 21.101562 40.816406 20.914062 40.816406 L 20.757812 40.816406 L 20.757812 41.253906 L 20.914062 41.253906 C 21.132812 41.253906 21.789062 41.222656 22.382812 40.972656 L 22.382812 45.972656 C 22.382812 46.253906 22.382812 46.378906 21.320312 46.378906 L 20.820312 46.378906 L 20.820312 46.816406 C 21.351562 46.785156 22.257812 46.785156 22.820312 46.785156 C 23.414062 46.785156 24.289062 46.785156 24.851562 46.816406 L 24.851562 46.378906 L 24.351562 46.378906 C 23.289062 46.378906 23.289062 46.253906 23.289062 45.972656 Z M 23.289062 40.472656 "/>
<path fill-rule="nonzero" fill="rgb(0%, 0%, 0%)" fill-opacity="1" d="M 57.921875 21.636719 C 57.921875 21.417969 57.921875 21.105469 57.578125 21.105469 C 57.234375 21.105469 57.234375 21.449219 57.234375 21.699219 L 57.234375 26.386719 L 52.484375 26.386719 C 52.265625 26.386719 51.953125 26.386719 51.953125 26.730469 C 51.953125 27.074219 52.265625 27.074219 52.484375 27.074219 L 57.359375 27.074219 C 57.828125 27.074219 57.921875 26.980469 57.921875 26.542969 Z M 57.921875 21.636719 "/>
<path fill="none" stroke-width="0.39848" stroke-linecap="butt" stroke-linejoin="miter" stroke="rgb(0%, 0%, 0%)" stroke-opacity="1" stroke-miterlimit="10" d="M 19.647812 8.765751 L 19.647812 -8.367062 " transform="matrix(2, 0, 0, -2, 105.970001, 43.844002)"/>
<path fill="none" stroke-width="0.39848" stroke-linecap="round" stroke-linejoin="round" stroke="rgb(0%, 0%, 0%)" stroke-opacity="1" stroke-miterlimit="10" d="M -2.072041 2.389641 C -1.693134 0.956047 -0.849384 0.280266 -0.00172806 -0.000984192 C -0.849384 -0.278328 -1.693134 -0.958015 -2.072041 -2.391609 " transform="matrix(0, 2, 2, 0, 145.267593, 60.980019)"/>
<path fill-rule="nonzero" fill="rgb(0%, 0%, 0%)" fill-opacity="1" d="M 121.648438 47.179688 C 120.742188 47.179688 120.617188 47.179688 120.617188 46.585938 L 120.617188 44.335938 C 120.679688 44.398438 121.335938 45.117188 122.492188 45.117188 C 124.335938 45.117188 125.898438 43.742188 125.898438 41.992188 C 125.898438 40.273438 124.492188 38.835938 122.710938 38.835938 C 121.929688 38.835938 121.117188 39.148438 120.554688 39.710938 L 120.554688 38.835938 L 118.460938 38.992188 L 118.460938 39.492188 C 119.429688 39.492188 119.492188 39.585938 119.492188 40.148438 L 119.492188 46.585938 C 119.492188 47.179688 119.367188 47.179688 118.460938 47.179688 L 118.460938 47.710938 C 118.492188 47.710938 119.460938 47.648438 120.054688 47.648438 C 120.554688 47.648438 121.523438 47.679688 121.648438 47.710938 Z M 120.617188 40.335938 C 121.023438 39.648438 121.835938 39.304688 122.554688 39.304688 C 123.742188 39.304688 124.648438 40.523438 124.648438 41.992188 C 124.648438 43.585938 123.585938 44.742188 122.429688 44.742188 C 121.179688 44.742188 120.648438 43.679688 120.617188 43.585938 Z M 120.617188 40.335938 "/>
<path fill-rule="nonzero" fill="rgb(0%, 0%, 0%)" fill-opacity="1" d="M 129.339844 41.804688 C 129.339844 40.648438 129.871094 39.242188 131.214844 39.242188 C 131.089844 39.335938 130.964844 39.523438 130.964844 39.742188 C 130.964844 40.210938 131.339844 40.367188 131.589844 40.367188 C 131.933594 40.367188 132.246094 40.148438 132.246094 39.742188 C 132.246094 39.273438 131.777344 38.835938 131.121094 38.835938 C 130.433594 38.835938 129.652344 39.273438 129.246094 40.335938 L 129.246094 38.835938 L 127.246094 38.992188 L 127.246094 39.492188 C 128.183594 39.492188 128.277344 39.585938 128.277344 40.273438 L 128.277344 43.898438 C 128.277344 44.492188 128.152344 44.492188 127.246094 44.492188 L 127.246094 44.992188 C 127.308594 44.992188 128.246094 44.929688 128.839844 44.929688 C 129.433594 44.929688 130.027344 44.960938 130.652344 44.992188 L 130.652344 44.492188 L 130.371094 44.492188 C 129.339844 44.492188 129.339844 44.335938 129.339844 43.867188 Z M 129.339844 41.804688 "/>
<path fill-rule="nonzero" fill="rgb(0%, 0%, 0%)" fill-opacity="1" d="M 136.769531 42.355469 C 136.769531 42.074219 136.738281 42.074219 136.394531 42.074219 C 135.707031 42.699219 134.582031 42.699219 134.394531 42.699219 L 134.238281 42.699219 L 134.238281 43.136719 L 134.394531 43.136719 C 134.613281 43.136719 135.269531 43.105469 135.863281 42.855469 L 135.863281 47.855469 C 135.863281 48.136719 135.863281 48.261719 134.800781 48.261719 L 134.300781 48.261719 L 134.300781 48.699219 C 134.832031 48.667969 135.738281 48.667969 136.300781 48.667969 C 136.894531 48.667969 137.769531 48.667969 138.332031 48.699219 L 138.332031 48.261719 L 137.832031 48.261719 C 136.769531 48.261719 136.769531 48.136719 136.769531 47.855469 Z M 136.769531 42.355469 "/>
<path fill="none" stroke-width="0.39848" stroke-linecap="butt" stroke-linejoin="miter" stroke="rgb(0%, 0%, 0%)" stroke-opacity="1" stroke-miterlimit="10" d="M -29.195938 -16.937374 L -3.793594 -16.937374 " transform="matrix(2, 0, 0, -2, 105.970001, 43.844002)"/>
<path fill="none" stroke-width="0.39848" stroke-linecap="round" stroke-linejoin="round" stroke="rgb(0%, 0%, 0%)" stroke-opacity="1" stroke-miterlimit="10" d="M -2.073685 2.389992 C -1.694778 0.956398 -0.851028 0.280617 0.000534058 -0.00063324 C -0.851028 -0.277977 -1.694778 -0.957664 -2.073685 -2.391258 " transform="matrix(2, 0, 0, -2, 98.780182, 77.717484)"/>
<path fill-rule="nonzero" fill="rgb(0%, 0%, 0%)" fill-opacity="1" d="M 64.738281 63.339844 L 63.550781 63.339844 L 63.550781 73.027344 L 64.738281 73.027344 Z M 64.738281 63.339844 "/>
<path fill-rule="nonzero" fill="rgb(0%, 0%, 0%)" fill-opacity="1" d="M 68.359375 63.464844 L 66.953125 63.464844 L 66.953125 64.871094 L 68.359375 64.871094 Z M 68.265625 66.839844 L 67.078125 66.839844 L 67.078125 73.027344 L 68.265625 73.027344 Z M 68.265625 66.839844 "/>
<path fill-rule="nonzero" fill="rgb(0%, 0%, 0%)" fill-opacity="1" d="M 75.921875 68.902344 C 75.921875 67.808594 75.609375 66.714844 73.890625 66.714844 C 73.109375 66.714844 72.328125 67.027344 71.734375 67.746094 L 71.734375 66.746094 L 70.609375 66.746094 L 70.609375 73.027344 L 71.828125 73.027344 L 71.828125 69.652344 C 71.828125 68.714844 72.203125 67.621094 73.296875 67.621094 C 74.734375 67.621094 74.734375 68.589844 74.734375 68.996094 L 74.734375 73.027344 L 75.921875 73.027344 Z M 75.921875 68.902344 "/>
<path fill-rule="nonzero" fill="rgb(0%, 0%, 0%)" fill-opacity="1" d="M 81.25 69.246094 L 83.75 66.839844 L 82.375 66.839844 L 79.40625 69.714844 L 79.40625 63.339844 L 78.3125 63.339844 L 78.3125 73.027344 L 79.34375 73.027344 L 79.34375 71.089844 L 80.53125 69.933594 L 82.84375 73.027344 L 84.0625 73.027344 Z M 81.25 69.246094 "/>
</svg>
