<?xml version="1.0" encoding="UTF-8"?>
<svg xmlns="http://www.w3.org/2000/svg" xmlns:xlink="http://www.w3.org/1999/xlink" width="532.359985" height="458.420013" viewBox="0 0 532.359985 458.420013">
<path fill-rule="nonzero" fill="rgb(0%, 0%, 0%)" fill-opacity="1" d="M 101.742188 376.5 C 101.742188 373.390625 99.21875 370.867188 96.101562 370.867188 C 92.992188 370.867188 90.46875 373.390625 90.46875 376.5 C 90.46875 379.617188 92.992188 382.140625 96.101562 382.140625 C 99.21875 382.140625 101.742188 379.617188 101.742188 376.5 Z M 101.742188 376.5 "/>
<path fill-rule="nonzero" fill="rgb(0%, 0%, 0%)" fill-opacity="1" d="M 109.863281 393.65625 C 109.863281 391.53125 110.675781 390.0625 111.613281 388.8125 C 111.800781 388.5625 112.269531 388.1875 112.269531 388.0625 C 112.269531 387.875 112.207031 387.84375 112.050781 387.84375 C 111.957031 387.84375 111.832031 387.9375 111.738281 387.96875 C 111.675781 388.03125 111.550781 388.15625 111.300781 388.375 C 111.144531 388.53125 110.957031 388.625 110.738281 388.625 C 110.363281 388.625 110.144531 388.53125 109.925781 388.3125 C 109.675781 388 109.425781 387.84375 108.957031 387.84375 C 108.113281 387.84375 107.238281 388.59375 107.238281 389.34375 C 107.238281 389.90625 107.613281 390.03125 107.988281 390.03125 C 108.363281 390.03125 108.550781 389.84375 108.550781 389.40625 C 108.550781 389.125 108.238281 389.09375 108.238281 388.90625 C 108.238281 388.78125 108.300781 388.625 108.550781 388.625 C 109.113281 388.625 109.363281 389.21875 109.582031 389.28125 C 109.894531 389.375 109.988281 389.34375 110.394531 389.25 L 110.644531 389.15625 C 110.050781 390.0625 109.207031 391.4375 108.863281 392.25 C 108.519531 393.09375 108.363281 393.8125 108.363281 394.40625 C 108.363281 394.75 108.425781 395.0625 108.488281 395.3125 C 108.769531 396.0625 109.300781 396.6875 110.332031 396.6875 C 112.894531 396.6875 113.925781 394.34375 114.707031 392.8125 C 115.144531 391.84375 115.488281 390.65625 115.488281 389.34375 C 115.488281 388.46875 115.363281 387.84375 114.550781 387.84375 C 113.988281 387.84375 113.707031 388.15625 113.707031 388.75 C 113.707031 389.5 114.082031 389.96875 114.082031 390.78125 C 114.082031 392.625 112.925781 396.15625 110.925781 396.1875 C 109.894531 396.21875 109.863281 394.5625 109.863281 393.65625 Z M 109.863281 393.65625 "/>
<path fill-rule="nonzero" fill="rgb(0%, 0%, 0%)" fill-opacity="1" d="M 122.621094 399.519531 L 122.621094 398.988281 L 122.058594 398.988281 C 120.621094 398.988281 120.621094 398.800781 120.621094 398.332031 L 120.621094 390.269531 C 120.621094 389.894531 120.589844 389.863281 120.183594 389.863281 C 119.246094 390.800781 117.933594 390.800781 117.339844 390.800781 L 117.339844 391.332031 C 117.683594 391.332031 118.652344 391.332031 119.433594 390.925781 L 119.433594 398.332031 C 119.433594 398.800781 119.433594 398.988281 117.996094 398.988281 L 117.433594 398.988281 L 117.433594 399.519531 L 120.027344 399.457031 Z M 122.621094 399.519531 "/>
<path fill-rule="nonzero" fill="rgb(0%, 0%, 0%)" fill-opacity="1" d="M 441.898438 376.5 C 441.898438 373.390625 439.375 370.867188 436.265625 370.867188 C 433.15625 370.867188 430.632812 373.390625 430.632812 376.5 C 430.632812 379.617188 433.15625 382.140625 436.265625 382.140625 C 439.375 382.140625 441.898438 379.617188 441.898438 376.5 Z M 441.898438 376.5 "/>
<path fill-rule="nonzero" fill="rgb(0%, 0%, 0%)" fill-opacity="1" d="M 429.964844 395.378906 C 429.964844 393.253906 430.777344 391.785156 431.714844 390.535156 C 431.902344 390.285156 432.371094 389.910156 432.371094 389.785156 C 432.371094 389.597656 432.308594 389.566406 432.152344 389.566406 C 432.058594 389.566406 431.933594 389.660156 431.839844 389.691406 C 431.777344 389.753906 431.652344 389.878906 431.402344 390.097656 C 431.246094 390.253906 431.058594 390.347656 430.839844 390.347656 C 430.464844 390.347656 430.246094 390.253906 430.027344 390.035156 C 429.777344 389.722656 429.527344 389.566406 429.058594 389.566406 C 428.214844 389.566406 427.339844 390.316406 427.339844 391.066406 C 427.339844 391.628906 427.714844 391.753906 428.089844 391.753906 C 428.464844 391.753906 428.652344 391.566406 428.652344 391.128906 C 428.652344 390.847656 428.339844 390.816406 428.339844 390.628906 C 428.339844 390.503906 428.402344 390.347656 428.652344 390.347656 C 429.214844 390.347656 429.464844 390.941406 429.683594 391.003906 C 429.996094 391.097656 430.089844 391.066406 430.496094 390.972656 L 430.746094 390.878906 C 430.152344 391.785156 429.308594 393.160156 428.964844 393.972656 C 428.621094 394.816406 428.464844 395.535156 428.464844 396.128906 C 428.464844 396.472656 428.527344 396.785156 428.589844 397.035156 C 428.871094 397.785156 429.402344 398.410156 430.433594 398.410156 C 432.996094 398.410156 434.027344 396.066406 434.808594 394.535156 C 435.246094 393.566406 435.589844 392.378906 435.589844 391.066406 C 435.589844 390.191406 435.464844 389.566406 434.652344 389.566406 C 434.089844 389.566406 433.808594 389.878906 433.808594 390.472656 C 433.808594 391.222656 434.183594 391.691406 434.183594 392.503906 C 434.183594 394.347656 433.027344 397.878906 431.027344 397.910156 C 429.996094 397.941406 429.964844 396.285156 429.964844 395.378906 Z M 429.964844 395.378906 "/>
<path fill-rule="nonzero" fill="rgb(0%, 0%, 0%)" fill-opacity="1" d="M 443.195312 398.585938 L 442.695312 398.585938 C 442.664062 398.929688 442.507812 399.773438 442.320312 399.929688 C 442.195312 399.992188 441.070312 399.992188 440.882812 399.992188 L 438.195312 399.992188 C 439.726562 398.648438 440.226562 398.242188 441.101562 397.554688 C 442.195312 396.710938 443.195312 395.804688 443.195312 394.429688 C 443.195312 392.679688 441.664062 391.585938 439.789062 391.585938 C 437.976562 391.585938 436.757812 392.867188 436.757812 394.179688 C 436.757812 394.929688 437.382812 395.023438 437.539062 395.023438 C 437.882812 395.023438 438.320312 394.773438 438.320312 394.242188 C 438.320312 393.992188 438.195312 393.460938 437.445312 393.460938 C 437.914062 392.429688 438.882812 392.117188 439.570312 392.117188 C 441.039062 392.117188 441.789062 393.242188 441.789062 394.429688 C 441.789062 395.679688 440.882812 396.679688 440.414062 397.210938 L 436.914062 400.679688 C 436.757812 400.804688 436.757812 400.835938 436.757812 401.242188 L 442.757812 401.242188 Z M 443.195312 398.585938 "/>
<path fill-rule="nonzero" fill="rgb(0%, 0%, 0%)" fill-opacity="1" d="M 271.820312 81.921875 C 271.820312 78.8125 269.296875 76.289062 266.1875 76.289062 C 263.070312 76.289062 260.546875 78.8125 260.546875 81.921875 C 260.546875 85.039062 263.070312 87.554688 266.1875 87.554688 C 269.296875 87.554688 271.820312 85.039062 271.820312 81.921875 Z M 271.820312 81.921875 "/>
<path fill-rule="nonzero" fill="rgb(0%, 0%, 0%)" fill-opacity="1" d="M 259.886719 63.144531 C 259.886719 61.019531 260.699219 59.550781 261.636719 58.300781 C 261.824219 58.050781 262.292969 57.675781 262.292969 57.550781 C 262.292969 57.363281 262.230469 57.332031 262.074219 57.332031 C 261.980469 57.332031 261.855469 57.425781 261.761719 57.457031 C 261.699219 57.519531 261.574219 57.644531 261.324219 57.863281 C 261.167969 58.019531 260.980469 58.113281 260.761719 58.113281 C 260.386719 58.113281 260.167969 58.019531 259.949219 57.800781 C 259.699219 57.488281 259.449219 57.332031 258.980469 57.332031 C 258.136719 57.332031 257.261719 58.082031 257.261719 58.832031 C 257.261719 59.394531 257.636719 59.519531 258.011719 59.519531 C 258.386719 59.519531 258.574219 59.332031 258.574219 58.894531 C 258.574219 58.613281 258.261719 58.582031 258.261719 58.394531 C 258.261719 58.269531 258.324219 58.113281 258.574219 58.113281 C 259.136719 58.113281 259.386719 58.707031 259.605469 58.769531 C 259.917969 58.863281 260.011719 58.832031 260.417969 58.738281 L 260.667969 58.644531 C 260.074219 59.550781 259.230469 60.925781 258.886719 61.738281 C 258.542969 62.582031 258.386719 63.300781 258.386719 63.894531 C 258.386719 64.238281 258.449219 64.550781 258.511719 64.800781 C 258.792969 65.550781 259.324219 66.175781 260.355469 66.175781 C 262.917969 66.175781 263.949219 63.832031 264.730469 62.300781 C 265.167969 61.332031 265.511719 60.144531 265.511719 58.832031 C 265.511719 57.957031 265.386719 57.332031 264.574219 57.332031 C 264.011719 57.332031 263.730469 57.644531 263.730469 58.238281 C 263.730469 58.988281 264.105469 59.457031 264.105469 60.269531 C 264.105469 62.113281 262.949219 65.644531 260.949219 65.675781 C 259.917969 65.707031 259.886719 64.050781 259.886719 63.144531 Z M 259.886719 63.144531 "/>
<path fill-rule="nonzero" fill="rgb(0%, 0%, 0%)" fill-opacity="1" d="M 273.238281 66.507812 C 273.238281 65.351562 272.300781 64.226562 270.707031 63.882812 C 272.238281 63.351562 272.800781 62.257812 272.800781 61.351562 C 272.800781 60.226562 271.457031 59.351562 269.863281 59.351562 C 268.238281 59.351562 267.019531 60.132812 267.019531 61.320312 C 267.019531 61.789062 267.332031 62.070312 267.769531 62.070312 C 268.207031 62.070312 268.488281 61.757812 268.488281 61.320312 C 268.488281 60.914062 268.207031 60.601562 267.769531 60.570312 C 268.269531 59.945312 269.269531 59.789062 269.800781 59.789062 C 270.457031 59.789062 271.363281 60.101562 271.363281 61.351562 C 271.363281 61.976562 271.175781 62.632812 270.800781 63.101562 C 270.332031 63.632812 269.925781 63.664062 269.175781 63.726562 C 268.832031 63.757812 268.800781 63.757812 268.707031 63.757812 C 268.707031 63.757812 268.582031 63.789062 268.582031 63.945312 C 268.582031 64.164062 268.707031 64.164062 268.957031 64.164062 L 269.738281 64.164062 C 270.863281 64.164062 271.675781 64.945312 271.675781 66.507812 C 271.675781 68.289062 270.644531 68.820312 269.800781 68.820312 C 269.207031 68.820312 267.925781 68.664062 267.332031 67.820312 C 268.019531 67.789062 268.175781 67.320312 268.175781 67.007812 C 268.175781 66.539062 267.832031 66.195312 267.363281 66.195312 C 266.957031 66.195312 266.550781 66.445312 266.550781 67.039062 C 266.550781 68.414062 268.050781 69.289062 269.832031 69.289062 C 271.832031 69.289062 273.238281 67.945312 273.238281 66.507812 Z M 273.238281 66.507812 "/>
<path fill="none" stroke-width="1.19553" stroke-linecap="butt" stroke-linejoin="miter" stroke="rgb(0%, 50.196078%, 50.196078%)" stroke-opacity="1" stroke-miterlimit="10" d="M 168.612064 2.543976 L 89.369877 139.79007 " transform="matrix(2, 0, 0, -2, 96.103996, 376.502014)"/>
<path fill-rule="nonzero" fill="rgb(0%, 50.196078%, 50.196078%)" fill-opacity="1" stroke-width="1.19553" stroke-linecap="butt" stroke-linejoin="miter" stroke="rgb(0%, 50.196078%, 50.196078%)" stroke-opacity="1" stroke-miterlimit="10" d="M 7.501512 -0.00101371 L 1.931656 2.109697 L 3.780872 0.0000770777 L 1.930271 -2.111452 Z M 7.501512 -0.00101371 " transform="matrix(-1, -1.73202, -1.73202, 1, 278.327881, 102.95472)"/>
<path fill-rule="nonzero" fill="rgb(0%, 50.196078%, 50.196078%)" fill-opacity="1" d="M 323.890625 237.199219 C 322.359375 237.199219 321.171875 238.292969 320.421875 239.199219 C 319.578125 240.199219 318.921875 241.699219 318.921875 243.417969 C 318.921875 245.042969 319.484375 246.042969 321.046875 246.042969 C 322.421875 246.042969 323.703125 245.042969 324.484375 243.761719 L 324.171875 243.542969 C 323.640625 244.324219 322.546875 245.605469 321.453125 245.605469 C 320.640625 245.605469 320.296875 244.917969 320.296875 243.761719 C 320.296875 243.449219 320.359375 242.824219 320.390625 242.511719 C 322.359375 242.105469 325.640625 240.824219 325.640625 238.574219 C 325.640625 237.667969 324.828125 237.199219 323.890625 237.199219 Z M 323.703125 237.636719 C 324.078125 237.636719 324.421875 237.980469 324.421875 238.417969 C 324.421875 240.199219 322.171875 241.511719 320.484375 242.042969 C 320.859375 240.667969 322.078125 237.636719 323.703125 237.636719 Z M 323.703125 237.636719 "/>
<path fill-rule="nonzero" fill="rgb(0%, 50.196078%, 50.196078%)" fill-opacity="1" d="M 333.171875 246.21875 L 332.671875 246.21875 C 332.640625 246.5625 332.484375 247.40625 332.296875 247.5625 C 332.171875 247.625 331.046875 247.625 330.859375 247.625 L 328.171875 247.625 C 329.703125 246.28125 330.203125 245.875 331.078125 245.1875 C 332.171875 244.34375 333.171875 243.4375 333.171875 242.0625 C 333.171875 240.3125 331.640625 239.21875 329.765625 239.21875 C 327.953125 239.21875 326.734375 240.5 326.734375 241.8125 C 326.734375 242.5625 327.359375 242.65625 327.515625 242.65625 C 327.859375 242.65625 328.296875 242.40625 328.296875 241.875 C 328.296875 241.625 328.171875 241.09375 327.421875 241.09375 C 327.890625 240.0625 328.859375 239.75 329.546875 239.75 C 331.015625 239.75 331.765625 240.875 331.765625 242.0625 C 331.765625 243.3125 330.859375 244.3125 330.390625 244.84375 L 326.890625 248.3125 C 326.734375 248.4375 326.734375 248.46875 326.734375 248.875 L 332.734375 248.875 Z M 333.171875 246.21875 "/>
<path fill-rule="nonzero" fill="rgb(0%, 50.196078%, 50.196078%)" fill-opacity="1" d="M 341.578125 246.375 C 341.578125 245.21875 340.640625 244.09375 339.046875 243.75 C 340.578125 243.21875 341.140625 242.125 341.140625 241.21875 C 341.140625 240.09375 339.796875 239.21875 338.203125 239.21875 C 336.578125 239.21875 335.359375 240 335.359375 241.1875 C 335.359375 241.65625 335.671875 241.9375 336.109375 241.9375 C 336.546875 241.9375 336.828125 241.625 336.828125 241.1875 C 336.828125 240.78125 336.546875 240.46875 336.109375 240.4375 C 336.609375 239.8125 337.609375 239.65625 338.140625 239.65625 C 338.796875 239.65625 339.703125 239.96875 339.703125 241.21875 C 339.703125 241.84375 339.515625 242.5 339.140625 242.96875 C 338.671875 243.5 338.265625 243.53125 337.515625 243.59375 C 337.171875 243.625 337.140625 243.625 337.046875 243.625 C 337.046875 243.625 336.921875 243.65625 336.921875 243.8125 C 336.921875 244.03125 337.046875 244.03125 337.296875 244.03125 L 338.078125 244.03125 C 339.203125 244.03125 340.015625 244.8125 340.015625 246.375 C 340.015625 248.15625 338.984375 248.6875 338.140625 248.6875 C 337.546875 248.6875 336.265625 248.53125 335.671875 247.6875 C 336.359375 247.65625 336.515625 247.1875 336.515625 246.875 C 336.515625 246.40625 336.171875 246.0625 335.703125 246.0625 C 335.296875 246.0625 334.890625 246.3125 334.890625 246.90625 C 334.890625 248.28125 336.390625 249.15625 338.171875 249.15625 C 340.171875 249.15625 341.578125 247.8125 341.578125 246.375 Z M 341.578125 246.375 "/>
<path fill="none" stroke-width="1.19553" stroke-linecap="butt" stroke-linejoin="miter" stroke="rgb(92.54902%, 0%, 54.901961%)" stroke-opacity="1" stroke-miterlimit="10" d="M 2.936283 0.00100708 L 161.420658 0.00100708 " transform="matrix(2, 0, 0, -2, 96.103996, 376.502014)"/>
<path fill-rule="nonzero" fill="rgb(92.54902%, 0%, 54.901961%)" fill-opacity="1" stroke-width="1.19553" stroke-linecap="butt" stroke-linejoin="miter" stroke="rgb(92.54902%, 0%, 54.901961%)" stroke-opacity="1" stroke-miterlimit="10" d="M 7.502243 0.00100708 L 1.931931 2.110382 L 3.783493 0.00100708 L 1.931931 -2.108368 Z M 7.502243 0.00100708 " transform="matrix(2, 0, 0, -2, 411.979889, 376.502014)"/>
<path fill-rule="nonzero" fill="rgb(92.54902%, 0%, 54.901961%)" fill-opacity="1" d="M 259.222656 356.988281 C 257.691406 356.988281 256.503906 358.082031 255.753906 358.988281 C 254.910156 359.988281 254.253906 361.488281 254.253906 363.207031 C 254.253906 364.832031 254.816406 365.832031 256.378906 365.832031 C 257.753906 365.832031 259.035156 364.832031 259.816406 363.550781 L 259.503906 363.332031 C 258.972656 364.113281 257.878906 365.394531 256.785156 365.394531 C 255.972656 365.394531 255.628906 364.707031 255.628906 363.550781 C 255.628906 363.238281 255.691406 362.613281 255.722656 362.300781 C 257.691406 361.894531 260.972656 360.613281 260.972656 358.363281 C 260.972656 357.457031 260.160156 356.988281 259.222656 356.988281 Z M 259.035156 357.425781 C 259.410156 357.425781 259.753906 357.769531 259.753906 358.207031 C 259.753906 359.988281 257.503906 361.300781 255.816406 361.832031 C 256.191406 360.457031 257.410156 357.425781 259.035156 357.425781 Z M 259.035156 357.425781 "/>
<path fill-rule="nonzero" fill="rgb(92.54902%, 0%, 54.901961%)" fill-opacity="1" d="M 268.035156 368.664062 L 268.035156 368.132812 L 267.472656 368.132812 C 266.035156 368.132812 266.035156 367.945312 266.035156 367.476562 L 266.035156 359.414062 C 266.035156 359.039062 266.003906 359.007812 265.597656 359.007812 C 264.660156 359.945312 263.347656 359.945312 262.753906 359.945312 L 262.753906 360.476562 C 263.097656 360.476562 264.066406 360.476562 264.847656 360.070312 L 264.847656 367.476562 C 264.847656 367.945312 264.847656 368.132812 263.410156 368.132812 L 262.847656 368.132812 L 262.847656 368.664062 L 265.441406 368.601562 Z M 268.035156 368.664062 "/>
<path fill-rule="nonzero" fill="rgb(92.54902%, 0%, 54.901961%)" fill-opacity="1" d="M 276.785156 366.007812 L 276.285156 366.007812 C 276.253906 366.351562 276.097656 367.195312 275.910156 367.351562 C 275.785156 367.414062 274.660156 367.414062 274.472656 367.414062 L 271.785156 367.414062 C 273.316406 366.070312 273.816406 365.664062 274.691406 364.976562 C 275.785156 364.132812 276.785156 363.226562 276.785156 361.851562 C 276.785156 360.101562 275.253906 359.007812 273.378906 359.007812 C 271.566406 359.007812 270.347656 360.289062 270.347656 361.601562 C 270.347656 362.351562 270.972656 362.445312 271.128906 362.445312 C 271.472656 362.445312 271.910156 362.195312 271.910156 361.664062 C 271.910156 361.414062 271.785156 360.882812 271.035156 360.882812 C 271.503906 359.851562 272.472656 359.539062 273.160156 359.539062 C 274.628906 359.539062 275.378906 360.664062 275.378906 361.851562 C 275.378906 363.101562 274.472656 364.101562 274.003906 364.632812 L 270.503906 368.101562 C 270.347656 368.226562 270.347656 368.257812 270.347656 368.664062 L 276.347656 368.664062 Z M 276.785156 366.007812 "/>
<path fill="none" stroke-width="1.19553" stroke-linecap="butt" stroke-linejoin="miter" stroke="rgb(0%, 0%, 100%)" stroke-opacity="1" stroke-miterlimit="10" d="M 83.573002 144.747101 L 4.330814 7.497101 " transform="matrix(2, 0, 0, -2, 96.103996, 376.502014)"/>
<path fill-rule="nonzero" fill="rgb(0%, 0%, 100%)" fill-opacity="1" stroke-width="1.19553" stroke-linecap="butt" stroke-linejoin="miter" stroke="rgb(0%, 0%, 100%)" stroke-opacity="1" stroke-miterlimit="10" d="M 7.504882 0.0000521302 L 1.930258 2.108537 L 3.784242 -0.00103866 L 1.92969 -2.109229 Z M 7.504882 0.0000521302 " transform="matrix(-1, 1.73202, 1.73202, 1, 108.246979, 355.470093)"/>
<path fill-rule="nonzero" fill="rgb(0%, 0%, 100%)" fill-opacity="1" d="M 194.554688 237.199219 C 193.023438 237.199219 191.835938 238.292969 191.085938 239.199219 C 190.242188 240.199219 189.585938 241.699219 189.585938 243.417969 C 189.585938 245.042969 190.148438 246.042969 191.710938 246.042969 C 193.085938 246.042969 194.367188 245.042969 195.148438 243.761719 L 194.835938 243.542969 C 194.304688 244.324219 193.210938 245.605469 192.117188 245.605469 C 191.304688 245.605469 190.960938 244.917969 190.960938 243.761719 C 190.960938 243.449219 191.023438 242.824219 191.054688 242.511719 C 193.023438 242.105469 196.304688 240.824219 196.304688 238.574219 C 196.304688 237.667969 195.492188 237.199219 194.554688 237.199219 Z M 194.367188 237.636719 C 194.742188 237.636719 195.085938 237.980469 195.085938 238.417969 C 195.085938 240.199219 192.835938 241.511719 191.148438 242.042969 C 191.523438 240.667969 192.742188 237.636719 194.367188 237.636719 Z M 194.367188 237.636719 "/>
<path fill-rule="nonzero" fill="rgb(0%, 0%, 100%)" fill-opacity="1" d="M 203.960938 246.375 C 203.960938 245.21875 203.023438 244.09375 201.429688 243.75 C 202.960938 243.21875 203.523438 242.125 203.523438 241.21875 C 203.523438 240.09375 202.179688 239.21875 200.585938 239.21875 C 198.960938 239.21875 197.742188 240 197.742188 241.1875 C 197.742188 241.65625 198.054688 241.9375 198.492188 241.9375 C 198.929688 241.9375 199.210938 241.625 199.210938 241.1875 C 199.210938 240.78125 198.929688 240.46875 198.492188 240.4375 C 198.992188 239.8125 199.992188 239.65625 200.523438 239.65625 C 201.179688 239.65625 202.085938 239.96875 202.085938 241.21875 C 202.085938 241.84375 201.898438 242.5 201.523438 242.96875 C 201.054688 243.5 200.648438 243.53125 199.898438 243.59375 C 199.554688 243.625 199.523438 243.625 199.429688 243.625 C 199.429688 243.625 199.304688 243.65625 199.304688 243.8125 C 199.304688 244.03125 199.429688 244.03125 199.679688 244.03125 L 200.460938 244.03125 C 201.585938 244.03125 202.398438 244.8125 202.398438 246.375 C 202.398438 248.15625 201.367188 248.6875 200.523438 248.6875 C 199.929688 248.6875 198.648438 248.53125 198.054688 247.6875 C 198.742188 247.65625 198.898438 247.1875 198.898438 246.875 C 198.898438 246.40625 198.554688 246.0625 198.085938 246.0625 C 197.679688 246.0625 197.273438 246.3125 197.273438 246.90625 C 197.273438 248.28125 198.773438 249.15625 200.554688 249.15625 C 202.554688 249.15625 203.960938 247.8125 203.960938 246.375 Z M 203.960938 246.375 "/>
<path fill-rule="nonzero" fill="rgb(0%, 0%, 100%)" fill-opacity="1" d="M 211.652344 248.875 L 211.652344 248.34375 L 211.089844 248.34375 C 209.652344 248.34375 209.652344 248.15625 209.652344 247.6875 L 209.652344 239.625 C 209.652344 239.25 209.621094 239.21875 209.214844 239.21875 C 208.277344 240.15625 206.964844 240.15625 206.371094 240.15625 L 206.371094 240.6875 C 206.714844 240.6875 207.683594 240.6875 208.464844 240.28125 L 208.464844 247.6875 C 208.464844 248.15625 208.464844 248.34375 207.027344 248.34375 L 206.464844 248.34375 L 206.464844 248.875 L 209.058594 248.8125 Z M 211.652344 248.875 "/>
<path fill-rule="nonzero" fill="rgb(50.196078%, 50.196078%, 50.196078%)" fill-opacity="1" d="M 153.257812 322.164062 C 153.257812 320.609375 152 319.34375 150.4375 319.34375 C 148.882812 319.34375 147.625 320.609375 147.625 322.164062 C 147.625 323.71875 148.882812 324.984375 150.4375 324.984375 C 152 324.984375 153.257812 323.71875 153.257812 322.164062 Z M 153.257812 322.164062 "/>
<path fill-rule="nonzero" fill="rgb(0%, 0%, 0%)" fill-opacity="1" d="M 162.121094 307.183594 C 162.121094 305.058594 162.933594 303.589844 163.871094 302.339844 C 164.058594 302.089844 164.527344 301.714844 164.527344 301.589844 C 164.527344 301.402344 164.464844 301.371094 164.308594 301.371094 C 164.214844 301.371094 164.089844 301.464844 163.996094 301.496094 C 163.933594 301.558594 163.808594 301.683594 163.558594 301.902344 C 163.402344 302.058594 163.214844 302.152344 162.996094 302.152344 C 162.621094 302.152344 162.402344 302.058594 162.183594 301.839844 C 161.933594 301.527344 161.683594 301.371094 161.214844 301.371094 C 160.371094 301.371094 159.496094 302.121094 159.496094 302.871094 C 159.496094 303.433594 159.871094 303.558594 160.246094 303.558594 C 160.621094 303.558594 160.808594 303.371094 160.808594 302.933594 C 160.808594 302.652344 160.496094 302.621094 160.496094 302.433594 C 160.496094 302.308594 160.558594 302.152344 160.808594 302.152344 C 161.371094 302.152344 161.621094 302.746094 161.839844 302.808594 C 162.152344 302.902344 162.246094 302.871094 162.652344 302.777344 L 162.902344 302.683594 C 162.308594 303.589844 161.464844 304.964844 161.121094 305.777344 C 160.777344 306.621094 160.621094 307.339844 160.621094 307.933594 C 160.621094 308.277344 160.683594 308.589844 160.746094 308.839844 C 161.027344 309.589844 161.558594 310.214844 162.589844 310.214844 C 165.152344 310.214844 166.183594 307.871094 166.964844 306.339844 C 167.402344 305.371094 167.746094 304.183594 167.746094 302.871094 C 167.746094 301.996094 167.621094 301.371094 166.808594 301.371094 C 166.246094 301.371094 165.964844 301.683594 165.964844 302.277344 C 165.964844 303.027344 166.339844 303.496094 166.339844 304.308594 C 166.339844 306.152344 165.183594 309.683594 163.183594 309.714844 C 162.152344 309.746094 162.121094 308.089844 162.121094 307.183594 Z M 162.121094 307.183594 "/>
<path fill-rule="nonzero" fill="rgb(0%, 0%, 0%)" fill-opacity="1" d="M 174.882812 313.046875 L 174.882812 312.515625 L 174.320312 312.515625 C 172.882812 312.515625 172.882812 312.328125 172.882812 311.859375 L 172.882812 303.796875 C 172.882812 303.421875 172.851562 303.390625 172.445312 303.390625 C 171.507812 304.328125 170.195312 304.328125 169.601562 304.328125 L 169.601562 304.859375 C 169.945312 304.859375 170.914062 304.859375 171.695312 304.453125 L 171.695312 311.859375 C 171.695312 312.328125 171.695312 312.515625 170.257812 312.515625 L 169.695312 312.515625 L 169.695312 313.046875 L 172.289062 312.984375 Z M 174.882812 313.046875 "/>
<path fill-rule="nonzero" fill="rgb(0%, 0%, 0%)" fill-opacity="1" d="M 183.164062 313.046875 L 183.164062 312.515625 L 182.601562 312.515625 C 181.164062 312.515625 181.164062 312.328125 181.164062 311.859375 L 181.164062 303.796875 C 181.164062 303.421875 181.132812 303.390625 180.726562 303.390625 C 179.789062 304.328125 178.476562 304.328125 177.882812 304.328125 L 177.882812 304.859375 C 178.226562 304.859375 179.195312 304.859375 179.976562 304.453125 L 179.976562 311.859375 C 179.976562 312.328125 179.976562 312.515625 178.539062 312.515625 L 177.976562 312.515625 L 177.976562 313.046875 L 180.570312 312.984375 Z M 183.164062 313.046875 "/>
<path fill-rule="nonzero" fill="rgb(50.196078%, 50.196078%, 50.196078%)" fill-opacity="1" d="M 153.257812 430.835938 C 153.257812 429.28125 152 428.023438 150.4375 428.023438 C 148.882812 428.023438 147.625 429.28125 147.625 430.835938 C 147.625 432.398438 148.882812 433.65625 150.4375 433.65625 C 152 433.65625 153.257812 432.398438 153.257812 430.835938 Z M 153.257812 430.835938 "/>
<path fill-rule="nonzero" fill="rgb(0%, 0%, 0%)" fill-opacity="1" d="M 162.121094 445.917969 C 162.121094 443.792969 162.933594 442.324219 163.871094 441.074219 C 164.058594 440.824219 164.527344 440.449219 164.527344 440.324219 C 164.527344 440.136719 164.464844 440.105469 164.308594 440.105469 C 164.214844 440.105469 164.089844 440.199219 163.996094 440.230469 C 163.933594 440.292969 163.808594 440.417969 163.558594 440.636719 C 163.402344 440.792969 163.214844 440.886719 162.996094 440.886719 C 162.621094 440.886719 162.402344 440.792969 162.183594 440.574219 C 161.933594 440.261719 161.683594 440.105469 161.214844 440.105469 C 160.371094 440.105469 159.496094 440.855469 159.496094 441.605469 C 159.496094 442.167969 159.871094 442.292969 160.246094 442.292969 C 160.621094 442.292969 160.808594 442.105469 160.808594 441.667969 C 160.808594 441.386719 160.496094 441.355469 160.496094 441.167969 C 160.496094 441.042969 160.558594 440.886719 160.808594 440.886719 C 161.371094 440.886719 161.621094 441.480469 161.839844 441.542969 C 162.152344 441.636719 162.246094 441.605469 162.652344 441.511719 L 162.902344 441.417969 C 162.308594 442.324219 161.464844 443.699219 161.121094 444.511719 C 160.777344 445.355469 160.621094 446.074219 160.621094 446.667969 C 160.621094 447.011719 160.683594 447.324219 160.746094 447.574219 C 161.027344 448.324219 161.558594 448.949219 162.589844 448.949219 C 165.152344 448.949219 166.183594 446.605469 166.964844 445.074219 C 167.402344 444.105469 167.746094 442.917969 167.746094 441.605469 C 167.746094 440.730469 167.621094 440.105469 166.808594 440.105469 C 166.246094 440.105469 165.964844 440.417969 165.964844 441.011719 C 165.964844 441.761719 166.339844 442.230469 166.339844 443.042969 C 166.339844 444.886719 165.183594 448.417969 163.183594 448.449219 C 162.152344 448.480469 162.121094 446.824219 162.121094 445.917969 Z M 162.121094 445.917969 "/>
<path fill-rule="nonzero" fill="rgb(0%, 0%, 0%)" fill-opacity="1" d="M 174.882812 451.78125 L 174.882812 451.25 L 174.320312 451.25 C 172.882812 451.25 172.882812 451.0625 172.882812 450.59375 L 172.882812 442.53125 C 172.882812 442.15625 172.851562 442.125 172.445312 442.125 C 171.507812 443.0625 170.195312 443.0625 169.601562 443.0625 L 169.601562 443.59375 C 169.945312 443.59375 170.914062 443.59375 171.695312 443.1875 L 171.695312 450.59375 C 171.695312 451.0625 171.695312 451.25 170.257812 451.25 L 169.695312 451.25 L 169.695312 451.78125 L 172.289062 451.71875 Z M 174.882812 451.78125 "/>
<path fill-rule="nonzero" fill="rgb(0%, 0%, 0%)" fill-opacity="1" d="M 183.632812 449.125 L 183.132812 449.125 C 183.101562 449.46875 182.945312 450.3125 182.757812 450.46875 C 182.632812 450.53125 181.507812 450.53125 181.320312 450.53125 L 178.632812 450.53125 C 180.164062 449.1875 180.664062 448.78125 181.539062 448.09375 C 182.632812 447.25 183.632812 446.34375 183.632812 444.96875 C 183.632812 443.21875 182.101562 442.125 180.226562 442.125 C 178.414062 442.125 177.195312 443.40625 177.195312 444.71875 C 177.195312 445.46875 177.820312 445.5625 177.976562 445.5625 C 178.320312 445.5625 178.757812 445.3125 178.757812 444.78125 C 178.757812 444.53125 178.632812 444 177.882812 444 C 178.351562 442.96875 179.320312 442.65625 180.007812 442.65625 C 181.476562 442.65625 182.226562 443.78125 182.226562 444.96875 C 182.226562 446.21875 181.320312 447.21875 180.851562 447.75 L 177.351562 451.21875 C 177.195312 451.34375 177.195312 451.375 177.195312 451.78125 L 183.195312 451.78125 Z M 183.632812 449.125 "/>
<path fill-rule="nonzero" fill="rgb(50.196078%, 50.196078%, 50.196078%)" fill-opacity="1" d="M 44.585938 430.835938 C 44.585938 429.28125 43.320312 428.023438 41.765625 428.023438 C 40.210938 428.023438 38.945312 429.28125 38.945312 430.835938 C 38.945312 432.398438 40.210938 433.65625 41.765625 433.65625 C 43.320312 433.65625 44.585938 432.398438 44.585938 430.835938 Z M 44.585938 430.835938 "/>
<path fill-rule="nonzero" fill="rgb(0%, 0%, 0%)" fill-opacity="1" d="M 9.203125 445.917969 C 9.203125 443.792969 10.015625 442.324219 10.953125 441.074219 C 11.140625 440.824219 11.609375 440.449219 11.609375 440.324219 C 11.609375 440.136719 11.546875 440.105469 11.390625 440.105469 C 11.296875 440.105469 11.171875 440.199219 11.078125 440.230469 C 11.015625 440.292969 10.890625 440.417969 10.640625 440.636719 C 10.484375 440.792969 10.296875 440.886719 10.078125 440.886719 C 9.703125 440.886719 9.484375 440.792969 9.265625 440.574219 C 9.015625 440.261719 8.765625 440.105469 8.296875 440.105469 C 7.453125 440.105469 6.578125 440.855469 6.578125 441.605469 C 6.578125 442.167969 6.953125 442.292969 7.328125 442.292969 C 7.703125 442.292969 7.890625 442.105469 7.890625 441.667969 C 7.890625 441.386719 7.578125 441.355469 7.578125 441.167969 C 7.578125 441.042969 7.640625 440.886719 7.890625 440.886719 C 8.453125 440.886719 8.703125 441.480469 8.921875 441.542969 C 9.234375 441.636719 9.328125 441.605469 9.734375 441.511719 L 9.984375 441.417969 C 9.390625 442.324219 8.546875 443.699219 8.203125 444.511719 C 7.859375 445.355469 7.703125 446.074219 7.703125 446.667969 C 7.703125 447.011719 7.765625 447.324219 7.828125 447.574219 C 8.109375 448.324219 8.640625 448.949219 9.671875 448.949219 C 12.234375 448.949219 13.265625 446.605469 14.046875 445.074219 C 14.484375 444.105469 14.828125 442.917969 14.828125 441.605469 C 14.828125 440.730469 14.703125 440.105469 13.890625 440.105469 C 13.328125 440.105469 13.046875 440.417969 13.046875 441.011719 C 13.046875 441.761719 13.421875 442.230469 13.421875 443.042969 C 13.421875 444.886719 12.265625 448.417969 10.265625 448.449219 C 9.234375 448.480469 9.203125 446.824219 9.203125 445.917969 Z M 9.203125 445.917969 "/>
<path fill-rule="nonzero" fill="rgb(0%, 0%, 0%)" fill-opacity="1" d="M 21.964844 451.78125 L 21.964844 451.25 L 21.402344 451.25 C 19.964844 451.25 19.964844 451.0625 19.964844 450.59375 L 19.964844 442.53125 C 19.964844 442.15625 19.933594 442.125 19.527344 442.125 C 18.589844 443.0625 17.277344 443.0625 16.683594 443.0625 L 16.683594 443.59375 C 17.027344 443.59375 17.996094 443.59375 18.777344 443.1875 L 18.777344 450.59375 C 18.777344 451.0625 18.777344 451.25 17.339844 451.25 L 16.777344 451.25 L 16.777344 451.78125 L 19.371094 451.71875 Z M 21.964844 451.78125 "/>
<path fill-rule="nonzero" fill="rgb(0%, 0%, 0%)" fill-opacity="1" d="M 30.839844 449.28125 C 30.839844 448.125 29.902344 447 28.308594 446.65625 C 29.839844 446.125 30.402344 445.03125 30.402344 444.125 C 30.402344 443 29.058594 442.125 27.464844 442.125 C 25.839844 442.125 24.621094 442.90625 24.621094 444.09375 C 24.621094 444.5625 24.933594 444.84375 25.371094 444.84375 C 25.808594 444.84375 26.089844 444.53125 26.089844 444.09375 C 26.089844 443.6875 25.808594 443.375 25.371094 443.34375 C 25.871094 442.71875 26.871094 442.5625 27.402344 442.5625 C 28.058594 442.5625 28.964844 442.875 28.964844 444.125 C 28.964844 444.75 28.777344 445.40625 28.402344 445.875 C 27.933594 446.40625 27.527344 446.4375 26.777344 446.5 C 26.433594 446.53125 26.402344 446.53125 26.308594 446.53125 C 26.308594 446.53125 26.183594 446.5625 26.183594 446.71875 C 26.183594 446.9375 26.308594 446.9375 26.558594 446.9375 L 27.339844 446.9375 C 28.464844 446.9375 29.277344 447.71875 29.277344 449.28125 C 29.277344 451.0625 28.246094 451.59375 27.402344 451.59375 C 26.808594 451.59375 25.527344 451.4375 24.933594 450.59375 C 25.621094 450.5625 25.777344 450.09375 25.777344 449.78125 C 25.777344 449.3125 25.433594 448.96875 24.964844 448.96875 C 24.558594 448.96875 24.152344 449.21875 24.152344 449.8125 C 24.152344 451.1875 25.652344 452.0625 27.433594 452.0625 C 29.433594 452.0625 30.839844 450.71875 30.839844 449.28125 Z M 30.839844 449.28125 "/>
<path fill-rule="nonzero" fill="rgb(50.196078%, 50.196078%, 50.196078%)" fill-opacity="1" d="M 44.585938 322.164062 C 44.585938 320.609375 43.320312 319.34375 41.765625 319.34375 C 40.210938 319.34375 38.945312 320.609375 38.945312 322.164062 C 38.945312 323.71875 40.210938 324.984375 41.765625 324.984375 C 43.320312 324.984375 44.585938 323.71875 44.585938 322.164062 Z M 44.585938 322.164062 "/>
<path fill-rule="nonzero" fill="rgb(0%, 0%, 0%)" fill-opacity="1" d="M 9.203125 307.183594 C 9.203125 305.058594 10.015625 303.589844 10.953125 302.339844 C 11.140625 302.089844 11.609375 301.714844 11.609375 301.589844 C 11.609375 301.402344 11.546875 301.371094 11.390625 301.371094 C 11.296875 301.371094 11.171875 301.464844 11.078125 301.496094 C 11.015625 301.558594 10.890625 301.683594 10.640625 301.902344 C 10.484375 302.058594 10.296875 302.152344 10.078125 302.152344 C 9.703125 302.152344 9.484375 302.058594 9.265625 301.839844 C 9.015625 301.527344 8.765625 301.371094 8.296875 301.371094 C 7.453125 301.371094 6.578125 302.121094 6.578125 302.871094 C 6.578125 303.433594 6.953125 303.558594 7.328125 303.558594 C 7.703125 303.558594 7.890625 303.371094 7.890625 302.933594 C 7.890625 302.652344 7.578125 302.621094 7.578125 302.433594 C 7.578125 302.308594 7.640625 302.152344 7.890625 302.152344 C 8.453125 302.152344 8.703125 302.746094 8.921875 302.808594 C 9.234375 302.902344 9.328125 302.871094 9.734375 302.777344 L 9.984375 302.683594 C 9.390625 303.589844 8.546875 304.964844 8.203125 305.777344 C 7.859375 306.621094 7.703125 307.339844 7.703125 307.933594 C 7.703125 308.277344 7.765625 308.589844 7.828125 308.839844 C 8.109375 309.589844 8.640625 310.214844 9.671875 310.214844 C 12.234375 310.214844 13.265625 307.871094 14.046875 306.339844 C 14.484375 305.371094 14.828125 304.183594 14.828125 302.871094 C 14.828125 301.996094 14.703125 301.371094 13.890625 301.371094 C 13.328125 301.371094 13.046875 301.683594 13.046875 302.277344 C 13.046875 303.027344 13.421875 303.496094 13.421875 304.308594 C 13.421875 306.152344 12.265625 309.683594 10.265625 309.714844 C 9.234375 309.746094 9.203125 308.089844 9.203125 307.183594 Z M 9.203125 307.183594 "/>
<path fill-rule="nonzero" fill="rgb(0%, 0%, 0%)" fill-opacity="1" d="M 21.964844 313.046875 L 21.964844 312.515625 L 21.402344 312.515625 C 19.964844 312.515625 19.964844 312.328125 19.964844 311.859375 L 19.964844 303.796875 C 19.964844 303.421875 19.933594 303.390625 19.527344 303.390625 C 18.589844 304.328125 17.277344 304.328125 16.683594 304.328125 L 16.683594 304.859375 C 17.027344 304.859375 17.996094 304.859375 18.777344 304.453125 L 18.777344 311.859375 C 18.777344 312.328125 18.777344 312.515625 17.339844 312.515625 L 16.777344 312.515625 L 16.777344 313.046875 L 19.371094 312.984375 Z M 21.964844 313.046875 "/>
<path fill-rule="nonzero" fill="rgb(0%, 0%, 0%)" fill-opacity="1" d="M 31.058594 310.671875 L 31.058594 310.140625 L 29.433594 310.140625 L 29.433594 303.671875 C 29.433594 303.359375 29.433594 303.265625 29.121094 303.265625 C 28.964844 303.265625 28.902344 303.265625 28.746094 303.453125 L 23.933594 310.140625 L 23.933594 310.671875 L 28.214844 310.671875 L 28.214844 311.859375 C 28.214844 312.359375 28.214844 312.515625 27.027344 312.515625 L 26.652344 312.515625 L 26.652344 313.046875 L 28.808594 312.984375 L 31.027344 313.046875 L 31.027344 312.515625 L 30.621094 312.515625 C 29.433594 312.515625 29.433594 312.359375 29.433594 311.859375 L 29.433594 310.671875 Z M 28.308594 310.140625 L 24.464844 310.140625 L 28.308594 304.828125 Z M 28.308594 310.140625 "/>
<path fill-rule="nonzero" fill="rgb(50.196078%, 50.196078%, 50.196078%)" fill-opacity="1" d="M 493.421875 322.164062 C 493.421875 320.609375 492.15625 319.34375 490.601562 319.34375 C 489.046875 319.34375 487.789062 320.609375 487.789062 322.164062 C 487.789062 323.71875 489.046875 324.984375 490.601562 324.984375 C 492.15625 324.984375 493.421875 323.71875 493.421875 322.164062 Z M 493.421875 322.164062 "/>
<path fill-rule="nonzero" fill="rgb(0%, 0%, 0%)" fill-opacity="1" d="M 502.285156 307.183594 C 502.285156 305.058594 503.097656 303.589844 504.035156 302.339844 C 504.222656 302.089844 504.691406 301.714844 504.691406 301.589844 C 504.691406 301.402344 504.628906 301.371094 504.472656 301.371094 C 504.378906 301.371094 504.253906 301.464844 504.160156 301.496094 C 504.097656 301.558594 503.972656 301.683594 503.722656 301.902344 C 503.566406 302.058594 503.378906 302.152344 503.160156 302.152344 C 502.785156 302.152344 502.566406 302.058594 502.347656 301.839844 C 502.097656 301.527344 501.847656 301.371094 501.378906 301.371094 C 500.535156 301.371094 499.660156 302.121094 499.660156 302.871094 C 499.660156 303.433594 500.035156 303.558594 500.410156 303.558594 C 500.785156 303.558594 500.972656 303.371094 500.972656 302.933594 C 500.972656 302.652344 500.660156 302.621094 500.660156 302.433594 C 500.660156 302.308594 500.722656 302.152344 500.972656 302.152344 C 501.535156 302.152344 501.785156 302.746094 502.003906 302.808594 C 502.316406 302.902344 502.410156 302.871094 502.816406 302.777344 L 503.066406 302.683594 C 502.472656 303.589844 501.628906 304.964844 501.285156 305.777344 C 500.941406 306.621094 500.785156 307.339844 500.785156 307.933594 C 500.785156 308.277344 500.847656 308.589844 500.910156 308.839844 C 501.191406 309.589844 501.722656 310.214844 502.753906 310.214844 C 505.316406 310.214844 506.347656 307.871094 507.128906 306.339844 C 507.566406 305.371094 507.910156 304.183594 507.910156 302.871094 C 507.910156 301.996094 507.785156 301.371094 506.972656 301.371094 C 506.410156 301.371094 506.128906 301.683594 506.128906 302.277344 C 506.128906 303.027344 506.503906 303.496094 506.503906 304.308594 C 506.503906 306.152344 505.347656 309.683594 503.347656 309.714844 C 502.316406 309.746094 502.285156 308.089844 502.285156 307.183594 Z M 502.285156 307.183594 "/>
<path fill-rule="nonzero" fill="rgb(0%, 0%, 0%)" fill-opacity="1" d="M 515.511719 310.390625 L 515.011719 310.390625 C 514.980469 310.734375 514.824219 311.578125 514.636719 311.734375 C 514.511719 311.796875 513.386719 311.796875 513.199219 311.796875 L 510.511719 311.796875 C 512.042969 310.453125 512.542969 310.046875 513.417969 309.359375 C 514.511719 308.515625 515.511719 307.609375 515.511719 306.234375 C 515.511719 304.484375 513.980469 303.390625 512.105469 303.390625 C 510.292969 303.390625 509.074219 304.671875 509.074219 305.984375 C 509.074219 306.734375 509.699219 306.828125 509.855469 306.828125 C 510.199219 306.828125 510.636719 306.578125 510.636719 306.046875 C 510.636719 305.796875 510.511719 305.265625 509.761719 305.265625 C 510.230469 304.234375 511.199219 303.921875 511.886719 303.921875 C 513.355469 303.921875 514.105469 305.046875 514.105469 306.234375 C 514.105469 307.484375 513.199219 308.484375 512.730469 309.015625 L 509.230469 312.484375 C 509.074219 312.609375 509.074219 312.640625 509.074219 313.046875 L 515.074219 313.046875 Z M 515.511719 310.390625 "/>
<path fill-rule="nonzero" fill="rgb(0%, 0%, 0%)" fill-opacity="1" d="M 523.324219 313.046875 L 523.324219 312.515625 L 522.761719 312.515625 C 521.324219 312.515625 521.324219 312.328125 521.324219 311.859375 L 521.324219 303.796875 C 521.324219 303.421875 521.292969 303.390625 520.886719 303.390625 C 519.949219 304.328125 518.636719 304.328125 518.042969 304.328125 L 518.042969 304.859375 C 518.386719 304.859375 519.355469 304.859375 520.136719 304.453125 L 520.136719 311.859375 C 520.136719 312.328125 520.136719 312.515625 518.699219 312.515625 L 518.136719 312.515625 L 518.136719 313.046875 L 520.730469 312.984375 Z M 523.324219 313.046875 "/>
<path fill-rule="nonzero" fill="rgb(50.196078%, 50.196078%, 50.196078%)" fill-opacity="1" d="M 493.421875 430.835938 C 493.421875 429.28125 492.15625 428.023438 490.601562 428.023438 C 489.046875 428.023438 487.789062 429.28125 487.789062 430.835938 C 487.789062 432.398438 489.046875 433.65625 490.601562 433.65625 C 492.15625 433.65625 493.421875 432.398438 493.421875 430.835938 Z M 493.421875 430.835938 "/>
<path fill-rule="nonzero" fill="rgb(0%, 0%, 0%)" fill-opacity="1" d="M 502.285156 445.917969 C 502.285156 443.792969 503.097656 442.324219 504.035156 441.074219 C 504.222656 440.824219 504.691406 440.449219 504.691406 440.324219 C 504.691406 440.136719 504.628906 440.105469 504.472656 440.105469 C 504.378906 440.105469 504.253906 440.199219 504.160156 440.230469 C 504.097656 440.292969 503.972656 440.417969 503.722656 440.636719 C 503.566406 440.792969 503.378906 440.886719 503.160156 440.886719 C 502.785156 440.886719 502.566406 440.792969 502.347656 440.574219 C 502.097656 440.261719 501.847656 440.105469 501.378906 440.105469 C 500.535156 440.105469 499.660156 440.855469 499.660156 441.605469 C 499.660156 442.167969 500.035156 442.292969 500.410156 442.292969 C 500.785156 442.292969 500.972656 442.105469 500.972656 441.667969 C 500.972656 441.386719 500.660156 441.355469 500.660156 441.167969 C 500.660156 441.042969 500.722656 440.886719 500.972656 440.886719 C 501.535156 440.886719 501.785156 441.480469 502.003906 441.542969 C 502.316406 441.636719 502.410156 441.605469 502.816406 441.511719 L 503.066406 441.417969 C 502.472656 442.324219 501.628906 443.699219 501.285156 444.511719 C 500.941406 445.355469 500.785156 446.074219 500.785156 446.667969 C 500.785156 447.011719 500.847656 447.324219 500.910156 447.574219 C 501.191406 448.324219 501.722656 448.949219 502.753906 448.949219 C 505.316406 448.949219 506.347656 446.605469 507.128906 445.074219 C 507.566406 444.105469 507.910156 442.917969 507.910156 441.605469 C 507.910156 440.730469 507.785156 440.105469 506.972656 440.105469 C 506.410156 440.105469 506.128906 440.417969 506.128906 441.011719 C 506.128906 441.761719 506.503906 442.230469 506.503906 443.042969 C 506.503906 444.886719 505.347656 448.417969 503.347656 448.449219 C 502.316406 448.480469 502.285156 446.824219 502.285156 445.917969 Z M 502.285156 445.917969 "/>
<path fill-rule="nonzero" fill="rgb(0%, 0%, 0%)" fill-opacity="1" d="M 515.511719 449.125 L 515.011719 449.125 C 514.980469 449.46875 514.824219 450.3125 514.636719 450.46875 C 514.511719 450.53125 513.386719 450.53125 513.199219 450.53125 L 510.511719 450.53125 C 512.042969 449.1875 512.542969 448.78125 513.417969 448.09375 C 514.511719 447.25 515.511719 446.34375 515.511719 444.96875 C 515.511719 443.21875 513.980469 442.125 512.105469 442.125 C 510.292969 442.125 509.074219 443.40625 509.074219 444.71875 C 509.074219 445.46875 509.699219 445.5625 509.855469 445.5625 C 510.199219 445.5625 510.636719 445.3125 510.636719 444.78125 C 510.636719 444.53125 510.511719 444 509.761719 444 C 510.230469 442.96875 511.199219 442.65625 511.886719 442.65625 C 513.355469 442.65625 514.105469 443.78125 514.105469 444.96875 C 514.105469 446.21875 513.199219 447.21875 512.730469 447.75 L 509.230469 451.21875 C 509.074219 451.34375 509.074219 451.375 509.074219 451.78125 L 515.074219 451.78125 Z M 515.511719 449.125 "/>
<path fill-rule="nonzero" fill="rgb(0%, 0%, 0%)" fill-opacity="1" d="M 523.792969 449.125 L 523.292969 449.125 C 523.261719 449.46875 523.105469 450.3125 522.917969 450.46875 C 522.792969 450.53125 521.667969 450.53125 521.480469 450.53125 L 518.792969 450.53125 C 520.324219 449.1875 520.824219 448.78125 521.699219 448.09375 C 522.792969 447.25 523.792969 446.34375 523.792969 444.96875 C 523.792969 443.21875 522.261719 442.125 520.386719 442.125 C 518.574219 442.125 517.355469 443.40625 517.355469 444.71875 C 517.355469 445.46875 517.980469 445.5625 518.136719 445.5625 C 518.480469 445.5625 518.917969 445.3125 518.917969 444.78125 C 518.917969 444.53125 518.792969 444 518.042969 444 C 518.511719 442.96875 519.480469 442.65625 520.167969 442.65625 C 521.636719 442.65625 522.386719 443.78125 522.386719 444.96875 C 522.386719 446.21875 521.480469 447.21875 521.011719 447.75 L 517.511719 451.21875 C 517.355469 451.34375 517.355469 451.375 517.355469 451.78125 L 523.355469 451.78125 Z M 523.792969 449.125 "/>
<path fill-rule="nonzero" fill="rgb(50.196078%, 50.196078%, 50.196078%)" fill-opacity="1" d="M 384.75 430.835938 C 384.75 429.28125 383.484375 428.023438 381.929688 428.023438 C 380.375 428.023438 379.109375 429.28125 379.109375 430.835938 C 379.109375 432.398438 380.375 433.65625 381.929688 433.65625 C 383.484375 433.65625 384.75 432.398438 384.75 430.835938 Z M 384.75 430.835938 "/>
<path fill-rule="nonzero" fill="rgb(0%, 0%, 0%)" fill-opacity="1" d="M 349.367188 445.917969 C 349.367188 443.792969 350.179688 442.324219 351.117188 441.074219 C 351.304688 440.824219 351.773438 440.449219 351.773438 440.324219 C 351.773438 440.136719 351.710938 440.105469 351.554688 440.105469 C 351.460938 440.105469 351.335938 440.199219 351.242188 440.230469 C 351.179688 440.292969 351.054688 440.417969 350.804688 440.636719 C 350.648438 440.792969 350.460938 440.886719 350.242188 440.886719 C 349.867188 440.886719 349.648438 440.792969 349.429688 440.574219 C 349.179688 440.261719 348.929688 440.105469 348.460938 440.105469 C 347.617188 440.105469 346.742188 440.855469 346.742188 441.605469 C 346.742188 442.167969 347.117188 442.292969 347.492188 442.292969 C 347.867188 442.292969 348.054688 442.105469 348.054688 441.667969 C 348.054688 441.386719 347.742188 441.355469 347.742188 441.167969 C 347.742188 441.042969 347.804688 440.886719 348.054688 440.886719 C 348.617188 440.886719 348.867188 441.480469 349.085938 441.542969 C 349.398438 441.636719 349.492188 441.605469 349.898438 441.511719 L 350.148438 441.417969 C 349.554688 442.324219 348.710938 443.699219 348.367188 444.511719 C 348.023438 445.355469 347.867188 446.074219 347.867188 446.667969 C 347.867188 447.011719 347.929688 447.324219 347.992188 447.574219 C 348.273438 448.324219 348.804688 448.949219 349.835938 448.949219 C 352.398438 448.949219 353.429688 446.605469 354.210938 445.074219 C 354.648438 444.105469 354.992188 442.917969 354.992188 441.605469 C 354.992188 440.730469 354.867188 440.105469 354.054688 440.105469 C 353.492188 440.105469 353.210938 440.417969 353.210938 441.011719 C 353.210938 441.761719 353.585938 442.230469 353.585938 443.042969 C 353.585938 444.886719 352.429688 448.417969 350.429688 448.449219 C 349.398438 448.480469 349.367188 446.824219 349.367188 445.917969 Z M 349.367188 445.917969 "/>
<path fill-rule="nonzero" fill="rgb(0%, 0%, 0%)" fill-opacity="1" d="M 362.59375 449.125 L 362.09375 449.125 C 362.0625 449.46875 361.90625 450.3125 361.71875 450.46875 C 361.59375 450.53125 360.46875 450.53125 360.28125 450.53125 L 357.59375 450.53125 C 359.125 449.1875 359.625 448.78125 360.5 448.09375 C 361.59375 447.25 362.59375 446.34375 362.59375 444.96875 C 362.59375 443.21875 361.0625 442.125 359.1875 442.125 C 357.375 442.125 356.15625 443.40625 356.15625 444.71875 C 356.15625 445.46875 356.78125 445.5625 356.9375 445.5625 C 357.28125 445.5625 357.71875 445.3125 357.71875 444.78125 C 357.71875 444.53125 357.59375 444 356.84375 444 C 357.3125 442.96875 358.28125 442.65625 358.96875 442.65625 C 360.4375 442.65625 361.1875 443.78125 361.1875 444.96875 C 361.1875 446.21875 360.28125 447.21875 359.8125 447.75 L 356.3125 451.21875 C 356.15625 451.34375 356.15625 451.375 356.15625 451.78125 L 362.15625 451.78125 Z M 362.59375 449.125 "/>
<path fill-rule="nonzero" fill="rgb(0%, 0%, 0%)" fill-opacity="1" d="M 371 449.28125 C 371 448.125 370.0625 447 368.46875 446.65625 C 370 446.125 370.5625 445.03125 370.5625 444.125 C 370.5625 443 369.21875 442.125 367.625 442.125 C 366 442.125 364.78125 442.90625 364.78125 444.09375 C 364.78125 444.5625 365.09375 444.84375 365.53125 444.84375 C 365.96875 444.84375 366.25 444.53125 366.25 444.09375 C 366.25 443.6875 365.96875 443.375 365.53125 443.34375 C 366.03125 442.71875 367.03125 442.5625 367.5625 442.5625 C 368.21875 442.5625 369.125 442.875 369.125 444.125 C 369.125 444.75 368.9375 445.40625 368.5625 445.875 C 368.09375 446.40625 367.6875 446.4375 366.9375 446.5 C 366.59375 446.53125 366.5625 446.53125 366.46875 446.53125 C 366.46875 446.53125 366.34375 446.5625 366.34375 446.71875 C 366.34375 446.9375 366.46875 446.9375 366.71875 446.9375 L 367.5 446.9375 C 368.625 446.9375 369.4375 447.71875 369.4375 449.28125 C 369.4375 451.0625 368.40625 451.59375 367.5625 451.59375 C 366.96875 451.59375 365.6875 451.4375 365.09375 450.59375 C 365.78125 450.5625 365.9375 450.09375 365.9375 449.78125 C 365.9375 449.3125 365.59375 448.96875 365.125 448.96875 C 364.71875 448.96875 364.3125 449.21875 364.3125 449.8125 C 364.3125 451.1875 365.8125 452.0625 367.59375 452.0625 C 369.59375 452.0625 371 450.71875 371 449.28125 Z M 371 449.28125 "/>
<path fill-rule="nonzero" fill="rgb(50.196078%, 50.196078%, 50.196078%)" fill-opacity="1" d="M 384.75 322.164062 C 384.75 320.609375 383.484375 319.34375 381.929688 319.34375 C 380.375 319.34375 379.109375 320.609375 379.109375 322.164062 C 379.109375 323.71875 380.375 324.984375 381.929688 324.984375 C 383.484375 324.984375 384.75 323.71875 384.75 322.164062 Z M 384.75 322.164062 "/>
<path fill-rule="nonzero" fill="rgb(0%, 0%, 0%)" fill-opacity="1" d="M 349.367188 307.183594 C 349.367188 305.058594 350.179688 303.589844 351.117188 302.339844 C 351.304688 302.089844 351.773438 301.714844 351.773438 301.589844 C 351.773438 301.402344 351.710938 301.371094 351.554688 301.371094 C 351.460938 301.371094 351.335938 301.464844 351.242188 301.496094 C 351.179688 301.558594 351.054688 301.683594 350.804688 301.902344 C 350.648438 302.058594 350.460938 302.152344 350.242188 302.152344 C 349.867188 302.152344 349.648438 302.058594 349.429688 301.839844 C 349.179688 301.527344 348.929688 301.371094 348.460938 301.371094 C 347.617188 301.371094 346.742188 302.121094 346.742188 302.871094 C 346.742188 303.433594 347.117188 303.558594 347.492188 303.558594 C 347.867188 303.558594 348.054688 303.371094 348.054688 302.933594 C 348.054688 302.652344 347.742188 302.621094 347.742188 302.433594 C 347.742188 302.308594 347.804688 302.152344 348.054688 302.152344 C 348.617188 302.152344 348.867188 302.746094 349.085938 302.808594 C 349.398438 302.902344 349.492188 302.871094 349.898438 302.777344 L 350.148438 302.683594 C 349.554688 303.589844 348.710938 304.964844 348.367188 305.777344 C 348.023438 306.621094 347.867188 307.339844 347.867188 307.933594 C 347.867188 308.277344 347.929688 308.589844 347.992188 308.839844 C 348.273438 309.589844 348.804688 310.214844 349.835938 310.214844 C 352.398438 310.214844 353.429688 307.871094 354.210938 306.339844 C 354.648438 305.371094 354.992188 304.183594 354.992188 302.871094 C 354.992188 301.996094 354.867188 301.371094 354.054688 301.371094 C 353.492188 301.371094 353.210938 301.683594 353.210938 302.277344 C 353.210938 303.027344 353.585938 303.496094 353.585938 304.308594 C 353.585938 306.152344 352.429688 309.683594 350.429688 309.714844 C 349.398438 309.746094 349.367188 308.089844 349.367188 307.183594 Z M 349.367188 307.183594 "/>
<path fill-rule="nonzero" fill="rgb(0%, 0%, 0%)" fill-opacity="1" d="M 362.59375 310.390625 L 362.09375 310.390625 C 362.0625 310.734375 361.90625 311.578125 361.71875 311.734375 C 361.59375 311.796875 360.46875 311.796875 360.28125 311.796875 L 357.59375 311.796875 C 359.125 310.453125 359.625 310.046875 360.5 309.359375 C 361.59375 308.515625 362.59375 307.609375 362.59375 306.234375 C 362.59375 304.484375 361.0625 303.390625 359.1875 303.390625 C 357.375 303.390625 356.15625 304.671875 356.15625 305.984375 C 356.15625 306.734375 356.78125 306.828125 356.9375 306.828125 C 357.28125 306.828125 357.71875 306.578125 357.71875 306.046875 C 357.71875 305.796875 357.59375 305.265625 356.84375 305.265625 C 357.3125 304.234375 358.28125 303.921875 358.96875 303.921875 C 360.4375 303.921875 361.1875 305.046875 361.1875 306.234375 C 361.1875 307.484375 360.28125 308.484375 359.8125 309.015625 L 356.3125 312.484375 C 356.15625 312.609375 356.15625 312.640625 356.15625 313.046875 L 362.15625 313.046875 Z M 362.59375 310.390625 "/>
<path fill-rule="nonzero" fill="rgb(0%, 0%, 0%)" fill-opacity="1" d="M 371.21875 310.671875 L 371.21875 310.140625 L 369.59375 310.140625 L 369.59375 303.671875 C 369.59375 303.359375 369.59375 303.265625 369.28125 303.265625 C 369.125 303.265625 369.0625 303.265625 368.90625 303.453125 L 364.09375 310.140625 L 364.09375 310.671875 L 368.375 310.671875 L 368.375 311.859375 C 368.375 312.359375 368.375 312.515625 367.1875 312.515625 L 366.8125 312.515625 L 366.8125 313.046875 L 368.96875 312.984375 L 371.1875 313.046875 L 371.1875 312.515625 L 370.78125 312.515625 C 369.59375 312.515625 369.59375 312.359375 369.59375 311.859375 L 369.59375 310.671875 Z M 368.46875 310.140625 L 364.625 310.140625 L 368.46875 304.828125 Z M 368.46875 310.140625 "/>
<path fill-rule="nonzero" fill="rgb(50.196078%, 50.196078%, 50.196078%)" fill-opacity="1" d="M 323.335938 27.585938 C 323.335938 26.03125 322.078125 24.765625 320.523438 24.765625 C 318.96875 24.765625 317.703125 26.03125 317.703125 27.585938 C 317.703125 29.140625 318.96875 30.40625 320.523438 30.40625 C 322.078125 30.40625 323.335938 29.140625 323.335938 27.585938 Z M 323.335938 27.585938 "/>
<path fill-rule="nonzero" fill="rgb(0%, 0%, 0%)" fill-opacity="1" d="M 332.203125 12.605469 C 332.203125 10.480469 333.015625 9.011719 333.953125 7.761719 C 334.140625 7.511719 334.609375 7.136719 334.609375 7.011719 C 334.609375 6.824219 334.546875 6.792969 334.390625 6.792969 C 334.296875 6.792969 334.171875 6.886719 334.078125 6.917969 C 334.015625 6.980469 333.890625 7.105469 333.640625 7.324219 C 333.484375 7.480469 333.296875 7.574219 333.078125 7.574219 C 332.703125 7.574219 332.484375 7.480469 332.265625 7.261719 C 332.015625 6.949219 331.765625 6.792969 331.296875 6.792969 C 330.453125 6.792969 329.578125 7.542969 329.578125 8.292969 C 329.578125 8.855469 329.953125 8.980469 330.328125 8.980469 C 330.703125 8.980469 330.890625 8.792969 330.890625 8.355469 C 330.890625 8.074219 330.578125 8.042969 330.578125 7.855469 C 330.578125 7.730469 330.640625 7.574219 330.890625 7.574219 C 331.453125 7.574219 331.703125 8.167969 331.921875 8.230469 C 332.234375 8.324219 332.328125 8.292969 332.734375 8.199219 L 332.984375 8.105469 C 332.390625 9.011719 331.546875 10.386719 331.203125 11.199219 C 330.859375 12.042969 330.703125 12.761719 330.703125 13.355469 C 330.703125 13.699219 330.765625 14.011719 330.828125 14.261719 C 331.109375 15.011719 331.640625 15.636719 332.671875 15.636719 C 335.234375 15.636719 336.265625 13.292969 337.046875 11.761719 C 337.484375 10.792969 337.828125 9.605469 337.828125 8.292969 C 337.828125 7.417969 337.703125 6.792969 336.890625 6.792969 C 336.328125 6.792969 336.046875 7.105469 336.046875 7.699219 C 336.046875 8.449219 336.421875 8.917969 336.421875 9.730469 C 336.421875 11.574219 335.265625 15.105469 333.265625 15.136719 C 332.234375 15.167969 332.203125 13.511719 332.203125 12.605469 Z M 332.203125 12.605469 "/>
<path fill-rule="nonzero" fill="rgb(0%, 0%, 0%)" fill-opacity="1" d="M 345.554688 15.96875 C 345.554688 14.8125 344.617188 13.6875 343.023438 13.34375 C 344.554688 12.8125 345.117188 11.71875 345.117188 10.8125 C 345.117188 9.6875 343.773438 8.8125 342.179688 8.8125 C 340.554688 8.8125 339.335938 9.59375 339.335938 10.78125 C 339.335938 11.25 339.648438 11.53125 340.085938 11.53125 C 340.523438 11.53125 340.804688 11.21875 340.804688 10.78125 C 340.804688 10.375 340.523438 10.0625 340.085938 10.03125 C 340.585938 9.40625 341.585938 9.25 342.117188 9.25 C 342.773438 9.25 343.679688 9.5625 343.679688 10.8125 C 343.679688 11.4375 343.492188 12.09375 343.117188 12.5625 C 342.648438 13.09375 342.242188 13.125 341.492188 13.1875 C 341.148438 13.21875 341.117188 13.21875 341.023438 13.21875 C 341.023438 13.21875 340.898438 13.25 340.898438 13.40625 C 340.898438 13.625 341.023438 13.625 341.273438 13.625 L 342.054688 13.625 C 343.179688 13.625 343.992188 14.40625 343.992188 15.96875 C 343.992188 17.75 342.960938 18.28125 342.117188 18.28125 C 341.523438 18.28125 340.242188 18.125 339.648438 17.28125 C 340.335938 17.25 340.492188 16.78125 340.492188 16.46875 C 340.492188 16 340.148438 15.65625 339.679688 15.65625 C 339.273438 15.65625 338.867188 15.90625 338.867188 16.5 C 338.867188 17.875 340.367188 18.75 342.148438 18.75 C 344.148438 18.75 345.554688 17.40625 345.554688 15.96875 Z M 345.554688 15.96875 "/>
<path fill-rule="nonzero" fill="rgb(0%, 0%, 0%)" fill-opacity="1" d="M 353.242188 18.46875 L 353.242188 17.9375 L 352.679688 17.9375 C 351.242188 17.9375 351.242188 17.75 351.242188 17.28125 L 351.242188 9.21875 C 351.242188 8.84375 351.210938 8.8125 350.804688 8.8125 C 349.867188 9.75 348.554688 9.75 347.960938 9.75 L 347.960938 10.28125 C 348.304688 10.28125 349.273438 10.28125 350.054688 9.875 L 350.054688 17.28125 C 350.054688 17.75 350.054688 17.9375 348.617188 17.9375 L 348.054688 17.9375 L 348.054688 18.46875 L 350.648438 18.40625 Z M 353.242188 18.46875 "/>
<path fill-rule="nonzero" fill="rgb(50.196078%, 50.196078%, 50.196078%)" fill-opacity="1" d="M 323.335938 136.257812 C 323.335938 134.703125 322.078125 133.445312 320.523438 133.445312 C 318.96875 133.445312 317.703125 134.703125 317.703125 136.257812 C 317.703125 137.8125 318.96875 139.078125 320.523438 139.078125 C 322.078125 139.078125 323.335938 137.8125 323.335938 136.257812 Z M 323.335938 136.257812 "/>
<path fill-rule="nonzero" fill="rgb(0%, 0%, 0%)" fill-opacity="1" d="M 332.203125 151.339844 C 332.203125 149.214844 333.015625 147.746094 333.953125 146.496094 C 334.140625 146.246094 334.609375 145.871094 334.609375 145.746094 C 334.609375 145.558594 334.546875 145.527344 334.390625 145.527344 C 334.296875 145.527344 334.171875 145.621094 334.078125 145.652344 C 334.015625 145.714844 333.890625 145.839844 333.640625 146.058594 C 333.484375 146.214844 333.296875 146.308594 333.078125 146.308594 C 332.703125 146.308594 332.484375 146.214844 332.265625 145.996094 C 332.015625 145.683594 331.765625 145.527344 331.296875 145.527344 C 330.453125 145.527344 329.578125 146.277344 329.578125 147.027344 C 329.578125 147.589844 329.953125 147.714844 330.328125 147.714844 C 330.703125 147.714844 330.890625 147.527344 330.890625 147.089844 C 330.890625 146.808594 330.578125 146.777344 330.578125 146.589844 C 330.578125 146.464844 330.640625 146.308594 330.890625 146.308594 C 331.453125 146.308594 331.703125 146.902344 331.921875 146.964844 C 332.234375 147.058594 332.328125 147.027344 332.734375 146.933594 L 332.984375 146.839844 C 332.390625 147.746094 331.546875 149.121094 331.203125 149.933594 C 330.859375 150.777344 330.703125 151.496094 330.703125 152.089844 C 330.703125 152.433594 330.765625 152.746094 330.828125 152.996094 C 331.109375 153.746094 331.640625 154.371094 332.671875 154.371094 C 335.234375 154.371094 336.265625 152.027344 337.046875 150.496094 C 337.484375 149.527344 337.828125 148.339844 337.828125 147.027344 C 337.828125 146.152344 337.703125 145.527344 336.890625 145.527344 C 336.328125 145.527344 336.046875 145.839844 336.046875 146.433594 C 336.046875 147.183594 336.421875 147.652344 336.421875 148.464844 C 336.421875 150.308594 335.265625 153.839844 333.265625 153.871094 C 332.234375 153.902344 332.203125 152.246094 332.203125 151.339844 Z M 332.203125 151.339844 "/>
<path fill-rule="nonzero" fill="rgb(0%, 0%, 0%)" fill-opacity="1" d="M 345.554688 154.703125 C 345.554688 153.546875 344.617188 152.421875 343.023438 152.078125 C 344.554688 151.546875 345.117188 150.453125 345.117188 149.546875 C 345.117188 148.421875 343.773438 147.546875 342.179688 147.546875 C 340.554688 147.546875 339.335938 148.328125 339.335938 149.515625 C 339.335938 149.984375 339.648438 150.265625 340.085938 150.265625 C 340.523438 150.265625 340.804688 149.953125 340.804688 149.515625 C 340.804688 149.109375 340.523438 148.796875 340.085938 148.765625 C 340.585938 148.140625 341.585938 147.984375 342.117188 147.984375 C 342.773438 147.984375 343.679688 148.296875 343.679688 149.546875 C 343.679688 150.171875 343.492188 150.828125 343.117188 151.296875 C 342.648438 151.828125 342.242188 151.859375 341.492188 151.921875 C 341.148438 151.953125 341.117188 151.953125 341.023438 151.953125 C 341.023438 151.953125 340.898438 151.984375 340.898438 152.140625 C 340.898438 152.359375 341.023438 152.359375 341.273438 152.359375 L 342.054688 152.359375 C 343.179688 152.359375 343.992188 153.140625 343.992188 154.703125 C 343.992188 156.484375 342.960938 157.015625 342.117188 157.015625 C 341.523438 157.015625 340.242188 156.859375 339.648438 156.015625 C 340.335938 155.984375 340.492188 155.515625 340.492188 155.203125 C 340.492188 154.734375 340.148438 154.390625 339.679688 154.390625 C 339.273438 154.390625 338.867188 154.640625 338.867188 155.234375 C 338.867188 156.609375 340.367188 157.484375 342.148438 157.484375 C 344.148438 157.484375 345.554688 156.140625 345.554688 154.703125 Z M 345.554688 154.703125 "/>
<path fill-rule="nonzero" fill="rgb(0%, 0%, 0%)" fill-opacity="1" d="M 353.710938 154.546875 L 353.210938 154.546875 C 353.179688 154.890625 353.023438 155.734375 352.835938 155.890625 C 352.710938 155.953125 351.585938 155.953125 351.398438 155.953125 L 348.710938 155.953125 C 350.242188 154.609375 350.742188 154.203125 351.617188 153.515625 C 352.710938 152.671875 353.710938 151.765625 353.710938 150.390625 C 353.710938 148.640625 352.179688 147.546875 350.304688 147.546875 C 348.492188 147.546875 347.273438 148.828125 347.273438 150.140625 C 347.273438 150.890625 347.898438 150.984375 348.054688 150.984375 C 348.398438 150.984375 348.835938 150.734375 348.835938 150.203125 C 348.835938 149.953125 348.710938 149.421875 347.960938 149.421875 C 348.429688 148.390625 349.398438 148.078125 350.085938 148.078125 C 351.554688 148.078125 352.304688 149.203125 352.304688 150.390625 C 352.304688 151.640625 351.398438 152.640625 350.929688 153.171875 L 347.429688 156.640625 C 347.273438 156.765625 347.273438 156.796875 347.273438 157.203125 L 353.273438 157.203125 Z M 353.710938 154.546875 "/>
<path fill-rule="nonzero" fill="rgb(50.196078%, 50.196078%, 50.196078%)" fill-opacity="1" d="M 214.664062 136.257812 C 214.664062 134.703125 213.40625 133.445312 211.851562 133.445312 C 210.289062 133.445312 209.03125 134.703125 209.03125 136.257812 C 209.03125 137.8125 210.289062 139.078125 211.851562 139.078125 C 213.40625 139.078125 214.664062 137.8125 214.664062 136.257812 Z M 214.664062 136.257812 "/>
<path fill-rule="nonzero" fill="rgb(0%, 0%, 0%)" fill-opacity="1" d="M 179.285156 151.339844 C 179.285156 149.214844 180.097656 147.746094 181.035156 146.496094 C 181.222656 146.246094 181.691406 145.871094 181.691406 145.746094 C 181.691406 145.558594 181.628906 145.527344 181.472656 145.527344 C 181.378906 145.527344 181.253906 145.621094 181.160156 145.652344 C 181.097656 145.714844 180.972656 145.839844 180.722656 146.058594 C 180.566406 146.214844 180.378906 146.308594 180.160156 146.308594 C 179.785156 146.308594 179.566406 146.214844 179.347656 145.996094 C 179.097656 145.683594 178.847656 145.527344 178.378906 145.527344 C 177.535156 145.527344 176.660156 146.277344 176.660156 147.027344 C 176.660156 147.589844 177.035156 147.714844 177.410156 147.714844 C 177.785156 147.714844 177.972656 147.527344 177.972656 147.089844 C 177.972656 146.808594 177.660156 146.777344 177.660156 146.589844 C 177.660156 146.464844 177.722656 146.308594 177.972656 146.308594 C 178.535156 146.308594 178.785156 146.902344 179.003906 146.964844 C 179.316406 147.058594 179.410156 147.027344 179.816406 146.933594 L 180.066406 146.839844 C 179.472656 147.746094 178.628906 149.121094 178.285156 149.933594 C 177.941406 150.777344 177.785156 151.496094 177.785156 152.089844 C 177.785156 152.433594 177.847656 152.746094 177.910156 152.996094 C 178.191406 153.746094 178.722656 154.371094 179.753906 154.371094 C 182.316406 154.371094 183.347656 152.027344 184.128906 150.496094 C 184.566406 149.527344 184.910156 148.339844 184.910156 147.027344 C 184.910156 146.152344 184.785156 145.527344 183.972656 145.527344 C 183.410156 145.527344 183.128906 145.839844 183.128906 146.433594 C 183.128906 147.183594 183.503906 147.652344 183.503906 148.464844 C 183.503906 150.308594 182.347656 153.839844 180.347656 153.871094 C 179.316406 153.902344 179.285156 152.246094 179.285156 151.339844 Z M 179.285156 151.339844 "/>
<path fill-rule="nonzero" fill="rgb(0%, 0%, 0%)" fill-opacity="1" d="M 192.640625 154.703125 C 192.640625 153.546875 191.703125 152.421875 190.109375 152.078125 C 191.640625 151.546875 192.203125 150.453125 192.203125 149.546875 C 192.203125 148.421875 190.859375 147.546875 189.265625 147.546875 C 187.640625 147.546875 186.421875 148.328125 186.421875 149.515625 C 186.421875 149.984375 186.734375 150.265625 187.171875 150.265625 C 187.609375 150.265625 187.890625 149.953125 187.890625 149.515625 C 187.890625 149.109375 187.609375 148.796875 187.171875 148.765625 C 187.671875 148.140625 188.671875 147.984375 189.203125 147.984375 C 189.859375 147.984375 190.765625 148.296875 190.765625 149.546875 C 190.765625 150.171875 190.578125 150.828125 190.203125 151.296875 C 189.734375 151.828125 189.328125 151.859375 188.578125 151.921875 C 188.234375 151.953125 188.203125 151.953125 188.109375 151.953125 C 188.109375 151.953125 187.984375 151.984375 187.984375 152.140625 C 187.984375 152.359375 188.109375 152.359375 188.359375 152.359375 L 189.140625 152.359375 C 190.265625 152.359375 191.078125 153.140625 191.078125 154.703125 C 191.078125 156.484375 190.046875 157.015625 189.203125 157.015625 C 188.609375 157.015625 187.328125 156.859375 186.734375 156.015625 C 187.421875 155.984375 187.578125 155.515625 187.578125 155.203125 C 187.578125 154.734375 187.234375 154.390625 186.765625 154.390625 C 186.359375 154.390625 185.953125 154.640625 185.953125 155.234375 C 185.953125 156.609375 187.453125 157.484375 189.234375 157.484375 C 191.234375 157.484375 192.640625 156.140625 192.640625 154.703125 Z M 192.640625 154.703125 "/>
<path fill-rule="nonzero" fill="rgb(0%, 0%, 0%)" fill-opacity="1" d="M 200.921875 154.703125 C 200.921875 153.546875 199.984375 152.421875 198.390625 152.078125 C 199.921875 151.546875 200.484375 150.453125 200.484375 149.546875 C 200.484375 148.421875 199.140625 147.546875 197.546875 147.546875 C 195.921875 147.546875 194.703125 148.328125 194.703125 149.515625 C 194.703125 149.984375 195.015625 150.265625 195.453125 150.265625 C 195.890625 150.265625 196.171875 149.953125 196.171875 149.515625 C 196.171875 149.109375 195.890625 148.796875 195.453125 148.765625 C 195.953125 148.140625 196.953125 147.984375 197.484375 147.984375 C 198.140625 147.984375 199.046875 148.296875 199.046875 149.546875 C 199.046875 150.171875 198.859375 150.828125 198.484375 151.296875 C 198.015625 151.828125 197.609375 151.859375 196.859375 151.921875 C 196.515625 151.953125 196.484375 151.953125 196.390625 151.953125 C 196.390625 151.953125 196.265625 151.984375 196.265625 152.140625 C 196.265625 152.359375 196.390625 152.359375 196.640625 152.359375 L 197.421875 152.359375 C 198.546875 152.359375 199.359375 153.140625 199.359375 154.703125 C 199.359375 156.484375 198.328125 157.015625 197.484375 157.015625 C 196.890625 157.015625 195.609375 156.859375 195.015625 156.015625 C 195.703125 155.984375 195.859375 155.515625 195.859375 155.203125 C 195.859375 154.734375 195.515625 154.390625 195.046875 154.390625 C 194.640625 154.390625 194.234375 154.640625 194.234375 155.234375 C 194.234375 156.609375 195.734375 157.484375 197.515625 157.484375 C 199.515625 157.484375 200.921875 156.140625 200.921875 154.703125 Z M 200.921875 154.703125 "/>
<path fill-rule="nonzero" fill="rgb(50.196078%, 50.196078%, 50.196078%)" fill-opacity="1" d="M 214.664062 27.585938 C 214.664062 26.03125 213.40625 24.765625 211.851562 24.765625 C 210.289062 24.765625 209.03125 26.03125 209.03125 27.585938 C 209.03125 29.140625 210.289062 30.40625 211.851562 30.40625 C 213.40625 30.40625 214.664062 29.140625 214.664062 27.585938 Z M 214.664062 27.585938 "/>
<path fill-rule="nonzero" fill="rgb(0%, 0%, 0%)" fill-opacity="1" d="M 179.285156 12.605469 C 179.285156 10.480469 180.097656 9.011719 181.035156 7.761719 C 181.222656 7.511719 181.691406 7.136719 181.691406 7.011719 C 181.691406 6.824219 181.628906 6.792969 181.472656 6.792969 C 181.378906 6.792969 181.253906 6.886719 181.160156 6.917969 C 181.097656 6.980469 180.972656 7.105469 180.722656 7.324219 C 180.566406 7.480469 180.378906 7.574219 180.160156 7.574219 C 179.785156 7.574219 179.566406 7.480469 179.347656 7.261719 C 179.097656 6.949219 178.847656 6.792969 178.378906 6.792969 C 177.535156 6.792969 176.660156 7.542969 176.660156 8.292969 C 176.660156 8.855469 177.035156 8.980469 177.410156 8.980469 C 177.785156 8.980469 177.972656 8.792969 177.972656 8.355469 C 177.972656 8.074219 177.660156 8.042969 177.660156 7.855469 C 177.660156 7.730469 177.722656 7.574219 177.972656 7.574219 C 178.535156 7.574219 178.785156 8.167969 179.003906 8.230469 C 179.316406 8.324219 179.410156 8.292969 179.816406 8.199219 L 180.066406 8.105469 C 179.472656 9.011719 178.628906 10.386719 178.285156 11.199219 C 177.941406 12.042969 177.785156 12.761719 177.785156 13.355469 C 177.785156 13.699219 177.847656 14.011719 177.910156 14.261719 C 178.191406 15.011719 178.722656 15.636719 179.753906 15.636719 C 182.316406 15.636719 183.347656 13.292969 184.128906 11.761719 C 184.566406 10.792969 184.910156 9.605469 184.910156 8.292969 C 184.910156 7.417969 184.785156 6.792969 183.972656 6.792969 C 183.410156 6.792969 183.128906 7.105469 183.128906 7.699219 C 183.128906 8.449219 183.503906 8.917969 183.503906 9.730469 C 183.503906 11.574219 182.347656 15.105469 180.347656 15.136719 C 179.316406 15.167969 179.285156 13.511719 179.285156 12.605469 Z M 179.285156 12.605469 "/>
<path fill-rule="nonzero" fill="rgb(0%, 0%, 0%)" fill-opacity="1" d="M 192.640625 15.96875 C 192.640625 14.8125 191.703125 13.6875 190.109375 13.34375 C 191.640625 12.8125 192.203125 11.71875 192.203125 10.8125 C 192.203125 9.6875 190.859375 8.8125 189.265625 8.8125 C 187.640625 8.8125 186.421875 9.59375 186.421875 10.78125 C 186.421875 11.25 186.734375 11.53125 187.171875 11.53125 C 187.609375 11.53125 187.890625 11.21875 187.890625 10.78125 C 187.890625 10.375 187.609375 10.0625 187.171875 10.03125 C 187.671875 9.40625 188.671875 9.25 189.203125 9.25 C 189.859375 9.25 190.765625 9.5625 190.765625 10.8125 C 190.765625 11.4375 190.578125 12.09375 190.203125 12.5625 C 189.734375 13.09375 189.328125 13.125 188.578125 13.1875 C 188.234375 13.21875 188.203125 13.21875 188.109375 13.21875 C 188.109375 13.21875 187.984375 13.25 187.984375 13.40625 C 187.984375 13.625 188.109375 13.625 188.359375 13.625 L 189.140625 13.625 C 190.265625 13.625 191.078125 14.40625 191.078125 15.96875 C 191.078125 17.75 190.046875 18.28125 189.203125 18.28125 C 188.609375 18.28125 187.328125 18.125 186.734375 17.28125 C 187.421875 17.25 187.578125 16.78125 187.578125 16.46875 C 187.578125 16 187.234375 15.65625 186.765625 15.65625 C 186.359375 15.65625 185.953125 15.90625 185.953125 16.5 C 185.953125 17.875 187.453125 18.75 189.234375 18.75 C 191.234375 18.75 192.640625 17.40625 192.640625 15.96875 Z M 192.640625 15.96875 "/>
<path fill-rule="nonzero" fill="rgb(0%, 0%, 0%)" fill-opacity="1" d="M 201.140625 16.09375 L 201.140625 15.5625 L 199.515625 15.5625 L 199.515625 9.09375 C 199.515625 8.78125 199.515625 8.6875 199.203125 8.6875 C 199.046875 8.6875 198.984375 8.6875 198.828125 8.875 L 194.015625 15.5625 L 194.015625 16.09375 L 198.296875 16.09375 L 198.296875 17.28125 C 198.296875 17.78125 198.296875 17.9375 197.109375 17.9375 L 196.734375 17.9375 L 196.734375 18.46875 L 198.890625 18.40625 L 201.109375 18.46875 L 201.109375 17.9375 L 200.703125 17.9375 C 199.515625 17.9375 199.515625 17.78125 199.515625 17.28125 L 199.515625 16.09375 Z M 198.390625 15.5625 L 194.546875 15.5625 L 198.390625 10.25 Z M 198.390625 15.5625 "/>
<path fill="none" stroke-width="0.3985" stroke-linecap="butt" stroke-linejoin="miter" stroke="rgb(0%, 0%, 0%)" stroke-opacity="1" stroke-dasharray="2.98883 2.98883" stroke-miterlimit="10" d="M 27.166752 25.700226 L 27.166752 -25.698212 " transform="matrix(2, 0, 0, -2, 96.103996, 376.502014)"/>
<path fill="none" stroke-width="0.3985" stroke-linecap="butt" stroke-linejoin="miter" stroke="rgb(0%, 0%, 0%)" stroke-opacity="1" stroke-dasharray="2.98883 2.98883" stroke-miterlimit="10" d="M 25.698002 -27.166962 L -25.700436 -27.166962 " transform="matrix(2, 0, 0, -2, 96.103996, 376.502014)"/>
<path fill="none" stroke-width="0.3985" stroke-linecap="butt" stroke-linejoin="miter" stroke="rgb(0%, 0%, 0%)" stroke-opacity="1" stroke-dasharray="2.98883 2.98883" stroke-miterlimit="10" d="M -27.169186 -25.698212 L -27.169186 25.700226 " transform="matrix(2, 0, 0, -2, 96.103996, 376.502014)"/>
<path fill="none" stroke-width="0.3985" stroke-linecap="butt" stroke-linejoin="miter" stroke="rgb(0%, 0%, 0%)" stroke-opacity="1" stroke-dasharray="2.98883 2.98883" stroke-miterlimit="10" d="M -25.700436 27.168976 L 25.698002 27.168976 " transform="matrix(2, 0, 0, -2, 96.103996, 376.502014)"/>
<path fill="none" stroke-width="0.3985" stroke-linecap="butt" stroke-linejoin="miter" stroke="rgb(0%, 0%, 0%)" stroke-opacity="1" stroke-dasharray="2.98883 2.98883" stroke-miterlimit="10" d="M 197.248783 25.700226 L 197.248783 -25.698212 " transform="matrix(2, 0, 0, -2, 96.103996, 376.502014)"/>
<path fill="none" stroke-width="0.3985" stroke-linecap="butt" stroke-linejoin="miter" stroke="rgb(0%, 0%, 0%)" stroke-opacity="1" stroke-dasharray="2.98883 2.98883" stroke-miterlimit="10" d="M 195.780033 -27.166962 L 144.381596 -27.166962 " transform="matrix(2, 0, 0, -2, 96.103996, 376.502014)"/>
<path fill="none" stroke-width="0.3985" stroke-linecap="butt" stroke-linejoin="miter" stroke="rgb(0%, 0%, 0%)" stroke-opacity="1" stroke-dasharray="2.98883 2.98883" stroke-miterlimit="10" d="M 142.912846 -25.698212 L 142.912846 25.700226 " transform="matrix(2, 0, 0, -2, 96.103996, 376.502014)"/>
<path fill="none" stroke-width="0.3985" stroke-linecap="butt" stroke-linejoin="miter" stroke="rgb(0%, 0%, 0%)" stroke-opacity="1" stroke-dasharray="2.98883 2.98883" stroke-miterlimit="10" d="M 144.381596 27.168976 L 195.780033 27.168976 " transform="matrix(2, 0, 0, -2, 96.103996, 376.502014)"/>
<path fill="none" stroke-width="0.3985" stroke-linecap="butt" stroke-linejoin="miter" stroke="rgb(0%, 0%, 0%)" stroke-opacity="1" stroke-dasharray="2.98883 2.98883" stroke-miterlimit="10" d="M 112.209721 172.989288 L 112.209721 121.590851 " transform="matrix(2, 0, 0, -2, 96.103996, 376.502014)"/>
<path fill="none" stroke-width="0.3985" stroke-linecap="butt" stroke-linejoin="miter" stroke="rgb(0%, 0%, 0%)" stroke-opacity="1" stroke-dasharray="2.98883 2.98883" stroke-miterlimit="10" d="M 110.740971 120.122101 L 59.338627 120.122101 " transform="matrix(2, 0, 0, -2, 96.103996, 376.502014)"/>
<path fill="none" stroke-width="0.3985" stroke-linecap="butt" stroke-linejoin="miter" stroke="rgb(0%, 0%, 0%)" stroke-opacity="1" stroke-dasharray="2.98883 2.98883" stroke-miterlimit="10" d="M 57.873783 121.590851 L 57.873783 172.989288 " transform="matrix(2, 0, 0, -2, 96.103996, 376.502014)"/>
<path fill="none" stroke-width="0.3985" stroke-linecap="butt" stroke-linejoin="miter" stroke="rgb(0%, 0%, 0%)" stroke-opacity="1" stroke-dasharray="2.98883 2.98883" stroke-miterlimit="10" d="M 59.338627 174.458038 L 110.740971 174.458038 " transform="matrix(2, 0, 0, -2, 96.103996, 376.502014)"/>
<path fill="none" stroke-width="1.59404" stroke-linecap="butt" stroke-linejoin="miter" stroke="rgb(0%, 0%, 0%)" stroke-opacity="1" stroke-miterlimit="10" d="M 2.076908 2.075226 L 21.260502 21.25882 " transform="matrix(2, 0, 0, -2, 96.103996, 376.502014)"/>
<path fill-rule="nonzero" fill="rgb(0%, 0%, 0%)" fill-opacity="1" stroke-width="1.59404" stroke-linecap="butt" stroke-linejoin="miter" stroke="rgb(0%, 0%, 0%)" stroke-opacity="1" stroke-miterlimit="10" d="M 8.908902 -0.00118687 L 2.572501 2.401894 L 4.688318 -0.00118687 L 2.575263 -2.401506 Z M 8.908902 -0.00118687 " transform="matrix(1.4142, -1.4142, -1.4142, -1.4142, 132.555603, 340.050415)"/>
<path fill="none" stroke-width="0.79701" stroke-linecap="butt" stroke-linejoin="miter" stroke="rgb(0%, 0%, 0%)" stroke-opacity="1" stroke-miterlimit="10" d="M 172.158939 2.075226 L 192.990971 22.911163 " transform="matrix(2, 0, 0, -2, 96.103996, 376.502014)"/>
<path fill-rule="nonzero" fill="rgb(0%, 0%, 0%)" fill-opacity="1" stroke-width="0.79701" stroke-linecap="butt" stroke-linejoin="miter" stroke="rgb(0%, 0%, 0%)" stroke-opacity="1" stroke-miterlimit="10" d="M 6.099588 0.000776858 L 1.287901 1.81828 L 2.878907 0.000776858 L 1.287901 -1.816726 Z M 6.099588 0.000776858 " transform="matrix(1.4142, -1.4142, -1.4142, -1.4142, 478.296936, 334.470886)"/>
<path fill="none" stroke-width="0.79701" stroke-linecap="butt" stroke-linejoin="miter" stroke="rgb(0%, 0%, 0%)" stroke-opacity="1" stroke-dasharray="2.98883 2.98883" stroke-miterlimit="10" d="M 82.963627 149.368195 L 62.131596 170.200226 " transform="matrix(2, 0, 0, -2, 96.103996, 376.502014)"/>
<path fill-rule="nonzero" fill="rgb(0%, 0%, 0%)" fill-opacity="1" stroke-width="0.79701" stroke-linecap="butt" stroke-linejoin="miter" stroke="rgb(0%, 0%, 0%)" stroke-opacity="1" stroke-miterlimit="10" d="M 6.09836 -0.00124216 L 1.286673 1.816261 L 2.877678 -0.00124216 L 1.286673 -1.818745 Z M 6.09836 -0.00124216 " transform="matrix(-1.4142, -1.4142, -1.4142, 1.4142, 224.153793, 39.891682)"/>
<path fill="none" stroke-width="0.79701" stroke-linecap="butt" stroke-linejoin="miter" stroke="rgb(0%, 0%, 0%)" stroke-opacity="1" stroke-dasharray="0.79701 1.99255" stroke-miterlimit="10" d="M -2.075436 2.075226 L -22.911373 22.911163 " transform="matrix(2, 0, 0, -2, 96.103996, 376.502014)"/>
<path fill-rule="nonzero" fill="rgb(0%, 0%, 0%)" fill-opacity="1" stroke-width="0.79701" stroke-linecap="butt" stroke-linejoin="miter" stroke="rgb(0%, 0%, 0%)" stroke-opacity="1" stroke-miterlimit="10" d="M 6.100524 0.000159148 L 1.288837 1.817662 L 2.879843 0.000159148 L 1.288837 -1.817344 Z M 6.100524 0.000159148 " transform="matrix(-1.4142, -1.4142, -1.4142, 1.4142, 54.072899, 334.470886)"/>
<path fill="none" stroke-width="1.59404" stroke-linecap="butt" stroke-linejoin="miter" stroke="rgb(0%, 0%, 0%)" stroke-opacity="1" stroke-miterlimit="10" d="M 168.002689 2.075226 L 148.823002 21.25882 " transform="matrix(2, 0, 0, -2, 96.103996, 376.502014)"/>
<path fill-rule="nonzero" fill="rgb(0%, 0%, 0%)" fill-opacity="1" stroke-width="1.59404" stroke-linecap="butt" stroke-linejoin="miter" stroke="rgb(0%, 0%, 0%)" stroke-opacity="1" stroke-miterlimit="10" d="M 8.907068 -0.000647382 L 2.573429 2.399672 L 4.686483 -0.000647382 L 2.573429 -2.400967 Z M 8.907068 -0.000647382 " transform="matrix(-1.4142, -1.4142, -1.4142, 1.4142, 399.814209, 340.050415)"/>
<path fill="none" stroke-width="0.79701" stroke-linecap="butt" stroke-linejoin="miter" stroke="rgb(0%, 0%, 0%)" stroke-opacity="1" stroke-miterlimit="10" d="M 82.963627 145.211945 L 62.131596 124.379913 " transform="matrix(2, 0, 0, -2, 96.103996, 376.502014)"/>
<path fill-rule="nonzero" fill="rgb(0%, 0%, 0%)" fill-opacity="1" stroke-width="0.79701" stroke-linecap="butt" stroke-linejoin="miter" stroke="rgb(0%, 0%, 0%)" stroke-opacity="1" stroke-miterlimit="10" d="M 6.097711 0.000593433 L 1.286024 1.818096 L 2.87703 0.000593433 L 1.286024 -1.816909 Z M 6.097711 0.000593433 " transform="matrix(-1.4142, 1.4142, 1.4142, 1.4142, 224.153793, 123.953903)"/>
<path fill="none" stroke-width="0.79701" stroke-linecap="butt" stroke-linejoin="miter" stroke="rgb(0%, 0%, 0%)" stroke-opacity="1" stroke-dasharray="2.98883 2.98883" stroke-miterlimit="10" d="M -2.075436 -2.077118 L -22.911373 -22.909149 " transform="matrix(2, 0, 0, -2, 96.103996, 376.502014)"/>
<path fill-rule="nonzero" fill="rgb(0%, 0%, 0%)" fill-opacity="1" stroke-width="0.79701" stroke-linecap="butt" stroke-linejoin="miter" stroke="rgb(0%, 0%, 0%)" stroke-opacity="1" stroke-miterlimit="10" d="M 6.099111 -0.0015726 L 1.287424 1.81593 L 2.87843 -0.0015726 L 1.287424 -1.819075 Z M 6.099111 -0.0015726 " transform="matrix(-1.4142, 1.4142, 1.4142, 1.4142, 54.072899, 418.533112)"/>
<path fill="none" stroke-width="0.79701" stroke-linecap="butt" stroke-linejoin="miter" stroke="rgb(92.54902%, 0%, 54.901961%)" stroke-opacity="1" stroke-miterlimit="10" d="M 195.780033 27.168976 L 148.936283 27.168976 " transform="matrix(2, 0, 0, -2, 96.103996, 376.502014)"/>
<path fill-rule="nonzero" fill="rgb(92.54902%, 0%, 54.901961%)" fill-opacity="1" stroke-width="0.79701" stroke-linecap="butt" stroke-linejoin="miter" stroke="rgb(92.54902%, 0%, 54.901961%)" stroke-opacity="1" stroke-miterlimit="10" d="M 6.099625 -0.000411987 L 1.287125 1.815994 L 2.876968 -0.000411987 L 1.287125 -1.816818 Z M 6.099625 -0.000411987 " transform="matrix(-2, 0, 0, 2, 399.332062, 322.164886)"/>
<path fill="none" stroke-width="0.79701" stroke-linecap="butt" stroke-linejoin="miter" stroke="rgb(92.54902%, 0%, 54.901961%)" stroke-opacity="1" stroke-miterlimit="10" d="M 57.873783 172.989288 L 57.873783 126.145538 " transform="matrix(2, 0, 0, -2, 96.103996, 376.502014)"/>
<path fill-rule="nonzero" fill="rgb(92.54902%, 0%, 54.901961%)" fill-opacity="1" stroke-width="0.79701" stroke-linecap="butt" stroke-linejoin="miter" stroke="rgb(92.54902%, 0%, 54.901961%)" stroke-opacity="1" stroke-miterlimit="10" d="M 6.099064 0.00189209 L 1.286564 1.818298 L 2.876408 0.00189209 L 1.286564 -1.81842 Z M 6.099064 0.00189209 " transform="matrix(0, 2, 2, 0, 211.847778, 118.85656)"/>
<path fill="none" stroke-width="0.79701" stroke-linecap="butt" stroke-linejoin="miter" stroke="rgb(92.54902%, 0%, 54.901961%)" stroke-opacity="1" stroke-miterlimit="10" d="M -27.169186 25.700226 L -27.169186 -21.14743 " transform="matrix(2, 0, 0, -2, 96.103996, 376.502014)"/>
<path fill-rule="nonzero" fill="rgb(92.54902%, 0%, 54.901961%)" fill-opacity="1" stroke-width="0.79701" stroke-linecap="butt" stroke-linejoin="miter" stroke="rgb(92.54902%, 0%, 54.901961%)" stroke-opacity="1" stroke-miterlimit="10" d="M 6.098541 -0.000627518 L 1.286041 1.815779 L 2.879791 -0.000627518 L 1.286041 -1.817034 Z M 6.098541 -0.000627518 " transform="matrix(0, 2, 2, 0, 41.76688, 413.43573)"/>
<path fill="none" stroke-width="0.79701" stroke-linecap="butt" stroke-linejoin="miter" stroke="rgb(0%, 50.196078%, 50.196078%)" stroke-opacity="1" stroke-miterlimit="10" d="M 59.338627 120.122101 L 106.186283 120.122101 " transform="matrix(2, 0, 0, -2, 96.103996, 376.502014)"/>
<path fill-rule="nonzero" fill="rgb(0%, 50.196078%, 50.196078%)" fill-opacity="1" stroke-width="0.79701" stroke-linecap="butt" stroke-linejoin="miter" stroke="rgb(0%, 50.196078%, 50.196078%)" stroke-opacity="1" stroke-miterlimit="10" d="M 6.096924 0.00106049 L 1.28833 1.817467 L 2.878174 0.00106049 L 1.28833 -1.815346 Z M 6.096924 0.00106049 " transform="matrix(2, 0, 0, -2, 303.118652, 136.259933)"/>
<path fill="none" stroke-width="0.79701" stroke-linecap="butt" stroke-linejoin="miter" stroke="rgb(0%, 50.196078%, 50.196078%)" stroke-opacity="1" stroke-miterlimit="10" d="M -25.700436 -27.166962 L 21.147221 -27.166962 " transform="matrix(2, 0, 0, -2, 96.103996, 376.502014)"/>
<path fill-rule="nonzero" fill="rgb(0%, 50.196078%, 50.196078%)" fill-opacity="1" stroke-width="0.79701" stroke-linecap="butt" stroke-linejoin="miter" stroke="rgb(0%, 50.196078%, 50.196078%)" stroke-opacity="1" stroke-miterlimit="10" d="M 6.09832 0.00158691 L 1.28582 1.817993 L 2.87957 0.00158691 L 1.28582 -1.818726 Z M 6.09832 0.00158691 " transform="matrix(2, 0, 0, -2, 133.037735, 430.839111)"/>
<path fill="none" stroke-width="0.79701" stroke-linecap="butt" stroke-linejoin="miter" stroke="rgb(0%, 0%, 100%)" stroke-opacity="1" stroke-miterlimit="10" d="M 27.166752 -25.698212 L 27.166752 21.145538 " transform="matrix(2, 0, 0, -2, 96.103996, 376.502014)"/>
<path fill-rule="nonzero" fill="rgb(0%, 0%, 100%)" fill-opacity="1" stroke-width="0.79701" stroke-linecap="butt" stroke-linejoin="miter" stroke="rgb(0%, 0%, 100%)" stroke-opacity="1" stroke-miterlimit="10" d="M 6.096634 0.00180817 L 1.28804 1.818214 L 2.877884 0.00180817 L 1.28804 -1.818504 Z M 6.096634 0.00180817 " transform="matrix(0, -2, -2, 0, 150.441116, 339.568268)"/>
<path fill="none" stroke-width="1.59404" stroke-linecap="butt" stroke-linejoin="miter" stroke="rgb(0%, 0%, 0%)" stroke-opacity="1" stroke-miterlimit="10" d="M 87.115971 145.211945 L 106.299564 126.032257 " transform="matrix(2, 0, 0, -2, 96.103996, 376.502014)"/>
<path fill-rule="nonzero" fill="rgb(0%, 0%, 0%)" fill-opacity="1" stroke-width="1.59404" stroke-linecap="butt" stroke-linejoin="miter" stroke="rgb(0%, 0%, 0%)" stroke-opacity="1" stroke-miterlimit="10" d="M 8.909644 -0.00151865 L 2.573243 2.401563 L 4.686297 0.00124351 L 2.576005 -2.401838 Z M 8.909644 -0.00151865 " transform="matrix(1.4142, 1.4142, 1.4142, -1.4142, 302.636505, 118.374397)"/>
<path fill="none" stroke-width="0.79701" stroke-linecap="butt" stroke-linejoin="miter" stroke="rgb(0%, 0%, 0%)" stroke-opacity="1" stroke-miterlimit="10" d="M 2.076908 -2.077118 L 22.908939 -22.909149 " transform="matrix(2, 0, 0, -2, 96.103996, 376.502014)"/>
<path fill-rule="nonzero" fill="rgb(0%, 0%, 0%)" fill-opacity="1" stroke-width="0.79701" stroke-linecap="butt" stroke-linejoin="miter" stroke="rgb(0%, 0%, 0%)" stroke-opacity="1" stroke-miterlimit="10" d="M 6.097387 -0.000151056 L 1.2857 1.817352 L 2.876706 -0.000151056 L 1.2857 -1.817654 Z M 6.097387 -0.000151056 " transform="matrix(1.4142, 1.4142, 1.4142, -1.4142, 138.135101, 418.533112)"/>
</svg>
