<?xml version="1.0" encoding="UTF-8"?>
<svg xmlns="http://www.w3.org/2000/svg" xmlns:xlink="http://www.w3.org/1999/xlink" width="193.539993" height="84.019997" viewBox="0 0 193.539993 84.019997">
<defs>
<clipPath id="clip-0">
<path clip-rule="nonzero" d="M 140 65 L 146 65 L 146 84.023438 L 140 84.023438 Z M 140 65 "/>
</clipPath>
<clipPath id="clip-1">
<path clip-rule="nonzero" d="M 182 65 L 188 65 L 188 84.023438 L 182 84.023438 Z M 182 65 "/>
</clipPath>
</defs>
<path fill-rule="nonzero" fill="rgb(0%, 0%, 0%)" fill-opacity="1" d="M 29.730469 10.550781 L 30.511719 7.769531 L 31.792969 7.769531 C 34.511719 7.769531 36.792969 6.925781 37.792969 5.238281 C 38.136719 4.707031 38.292969 4.144531 38.292969 3.488281 C 38.292969 2.519531 37.855469 1.800781 36.980469 1.238281 C 36.136719 0.707031 34.917969 0.425781 33.386719 0.425781 L 28.386719 0.425781 L 28.292969 0.707031 C 28.667969 0.707031 28.949219 0.738281 29.199219 0.769531 C 29.761719 0.863281 30.042969 1.488281 30.042969 2.113281 C 30.042969 2.457031 29.980469 2.894531 29.824219 3.457031 L 27.667969 11.394531 C 27.480469 12.144531 27.167969 13.050781 26.792969 13.425781 C 26.449219 13.738281 25.886719 13.988281 25.324219 13.988281 L 25.230469 14.269531 L 31.199219 14.269531 L 31.292969 13.988281 C 29.917969 13.988281 29.324219 13.238281 29.324219 12.519531 C 29.324219 12.363281 29.386719 11.988281 29.480469 11.644531 C 29.542969 11.332031 29.605469 10.957031 29.730469 10.550781 Z M 30.605469 7.363281 L 31.855469 2.519531 C 32.074219 1.863281 32.230469 1.082031 32.824219 0.863281 C 32.949219 0.832031 33.167969 0.832031 33.386719 0.832031 C 35.324219 0.832031 36.292969 1.957031 36.292969 3.394531 C 36.292969 3.925781 36.167969 4.394531 35.949219 4.800781 C 35.167969 6.113281 33.542969 7.363281 31.511719 7.363281 Z M 30.605469 7.363281 "/>
<path fill-rule="nonzero" fill="rgb(0%, 0%, 0%)" fill-opacity="1" d="M 115.367188 9.113281 L 114.867188 9.113281 C 114.367188 12.207031 113.898438 13.644531 110.492188 13.644531 L 107.835938 13.644531 C 106.898438 13.644531 106.867188 13.519531 106.867188 12.863281 L 106.867188 7.519531 L 108.648438 7.519531 C 110.585938 7.519531 110.804688 8.175781 110.804688 9.863281 L 111.304688 9.863281 L 111.304688 4.582031 L 110.804688 4.582031 C 110.804688 6.300781 110.585938 6.925781 108.648438 6.925781 L 106.867188 6.925781 L 106.867188 2.113281 C 106.867188 1.457031 106.898438 1.332031 107.835938 1.332031 L 110.398438 1.332031 C 113.460938 1.332031 113.992188 2.425781 114.304688 5.207031 L 114.804688 5.207031 L 114.242188 0.707031 L 103.023438 0.707031 L 103.023438 1.332031 L 103.492188 1.332031 C 105.023438 1.332031 105.085938 1.550781 105.085938 2.269531 L 105.085938 12.707031 C 105.085938 13.425781 105.023438 13.644531 103.492188 13.644531 L 103.023438 13.644531 L 103.023438 14.269531 L 114.523438 14.269531 Z M 115.367188 9.113281 "/>
<path fill-rule="nonzero" fill="rgb(0%, 0%, 0%)" fill-opacity="1" d="M 133.457031 14.269531 L 133.457031 13.644531 L 132.957031 13.644531 C 131.425781 13.644531 131.394531 13.425781 131.394531 12.707031 L 131.394531 2.207031 C 131.394531 1.488281 131.425781 1.269531 132.957031 1.269531 L 133.457031 1.269531 L 133.457031 0.644531 L 130.082031 0.644531 C 129.550781 0.644531 129.550781 0.675781 129.425781 1.019531 L 125.050781 12.269531 L 120.738281 1.082031 C 120.550781 0.644531 120.488281 0.644531 120.019531 0.644531 L 116.675781 0.644531 L 116.675781 1.269531 L 117.144531 1.269531 C 118.675781 1.269531 118.707031 1.488281 118.707031 2.207031 L 118.707031 12.175781 C 118.707031 12.707031 118.707031 13.644531 116.675781 13.644531 L 116.675781 14.269531 L 118.988281 14.207031 L 121.332031 14.269531 L 121.332031 13.644531 C 119.269531 13.644531 119.269531 12.707031 119.269531 12.175781 L 119.269531 1.425781 L 119.300781 1.425781 L 124.113281 13.832031 C 124.207031 14.082031 124.300781 14.269531 124.488281 14.269531 C 124.707031 14.269531 124.769531 14.113281 124.863281 13.894531 L 129.769531 1.269531 L 129.769531 12.707031 C 129.769531 13.425781 129.738281 13.644531 128.207031 13.644531 L 127.738281 13.644531 L 127.738281 14.269531 C 128.457031 14.207031 129.832031 14.207031 130.613281 14.207031 C 131.363281 14.207031 132.707031 14.207031 133.457031 14.269531 Z M 133.457031 14.269531 "/>
<path fill-rule="nonzero" fill="rgb(0%, 0%, 0%)" fill-opacity="1" d="M 140.503906 13.511719 C 140.503906 12.042969 139.316406 10.824219 137.816406 10.824219 C 136.285156 10.824219 135.097656 12.042969 135.097656 13.511719 C 135.097656 15.042969 136.285156 16.230469 137.816406 16.230469 C 139.316406 16.230469 140.503906 15.042969 140.503906 13.511719 Z M 140.503906 13.511719 "/>
<path fill-rule="nonzero" fill="rgb(0%, 0%, 0%)" fill-opacity="1" d="M 149.289062 -0.0117188 C 146.414062 1.863281 144.382812 5.082031 144.382812 9.144531 C 144.382812 12.863281 146.476562 16.613281 149.226562 18.300781 L 149.476562 17.988281 C 146.851562 15.894531 146.070312 13.488281 146.070312 9.082031 C 146.070312 4.644531 146.914062 2.363281 149.476562 0.300781 Z M 149.289062 -0.0117188 "/>
<path fill-rule="nonzero" fill="rgb(0%, 0%, 0%)" fill-opacity="1" d="M 164.347656 1.957031 L 164.347656 1.082031 L 152.847656 1.082031 L 152.847656 1.957031 L 160.191406 1.957031 L 151.847656 13.394531 L 151.847656 14.269531 L 164.160156 14.269531 L 164.160156 13.394531 L 155.878906 13.394531 Z M 163.160156 1.957031 L 154.847656 13.394531 L 152.910156 13.394531 L 161.285156 1.957031 Z M 163.160156 1.957031 "/>
<path fill-rule="nonzero" fill="rgb(0%, 0%, 0%)" fill-opacity="1" d="M 167.316406 13.207031 C 167.316406 13.769531 167.691406 14.269531 168.253906 14.269531 C 168.472656 14.269531 168.628906 14.238281 168.785156 14.144531 C 168.785156 14.644531 168.691406 15.113281 168.410156 15.519531 C 168.128906 15.957031 167.628906 16.394531 167.003906 16.832031 L 167.410156 17.425781 C 167.878906 17.113281 168.253906 16.769531 168.566406 16.488281 C 169.253906 15.832031 169.847656 15.175781 169.847656 13.894531 C 169.847656 12.707031 169.410156 12.082031 168.535156 12.082031 C 167.847656 12.082031 167.316406 12.519531 167.316406 13.207031 Z M 167.316406 13.207031 "/>
<path fill-rule="nonzero" fill="rgb(0%, 0%, 0%)" fill-opacity="1" d="M 184.289062 14.269531 L 184.289062 13.644531 L 183.664062 13.644531 C 181.851562 13.644531 181.820312 13.425781 181.820312 12.707031 L 181.820312 1.519531 C 181.820312 1.019531 181.820312 0.988281 181.351562 0.988281 C 180.101562 2.269531 178.351562 2.269531 177.726562 2.269531 L 177.726562 2.894531 C 178.132812 2.894531 179.289062 2.894531 180.320312 2.363281 L 180.320312 12.707031 C 180.320312 13.425781 180.257812 13.644531 178.476562 13.644531 L 177.851562 13.644531 L 177.851562 14.269531 C 178.539062 14.207031 180.257812 14.207031 181.070312 14.207031 C 181.851562 14.207031 183.601562 14.207031 184.289062 14.269531 Z M 184.289062 14.269531 "/>
<path fill-rule="nonzero" fill="rgb(0%, 0%, 0%)" fill-opacity="1" d="M 186.65625 -0.0117188 L 186.5 0.300781 C 189.0625 2.363281 189.875 4.644531 189.875 9.082031 C 189.875 13.488281 189.125 15.894531 186.5 17.988281 L 186.71875 18.300781 C 189.46875 16.613281 191.59375 12.863281 191.59375 9.144531 C 191.59375 5.082031 189.5625 1.863281 186.65625 -0.0117188 Z M 186.65625 -0.0117188 "/>
<path fill-rule="nonzero" fill="rgb(0%, 0%, 0%)" fill-opacity="1" d="M 37.332031 68.167969 L 37.769531 67.511719 L 35.175781 77.417969 C 35.050781 77.886719 34.957031 78.230469 34.800781 78.511719 C 34.644531 78.980469 34.238281 79.480469 33.800781 79.667969 C 33.582031 79.761719 33.269531 79.824219 32.957031 79.824219 L 32.863281 80.105469 L 38.613281 80.105469 L 38.707031 79.824219 C 38.082031 79.824219 37.582031 79.761719 37.332031 79.574219 C 37.050781 79.355469 36.988281 78.917969 36.988281 78.511719 C 36.988281 78.199219 37.050781 77.761719 37.207031 77.230469 L 39.175781 69.761719 C 39.332031 69.136719 39.457031 68.636719 39.582031 68.261719 C 39.800781 67.667969 40.238281 67.011719 40.675781 66.699219 C 40.894531 66.574219 41.175781 66.542969 41.519531 66.542969 L 41.613281 66.261719 L 38.019531 66.261719 L 31.332031 76.980469 L 31.050781 76.980469 L 29.769531 66.261719 L 25.488281 66.261719 L 25.394531 66.542969 C 26.019531 66.542969 26.425781 66.542969 26.644531 66.667969 C 26.925781 66.792969 27.269531 67.292969 27.269531 67.667969 C 27.269531 67.980469 27.207031 68.480469 27.019531 69.136719 L 24.832031 77.417969 C 24.675781 78.042969 24.175781 78.730469 23.707031 79.136719 C 23.269531 79.542969 22.582031 79.824219 22.019531 79.824219 L 21.957031 80.105469 L 26.925781 80.105469 L 27.019531 79.824219 C 26.550781 79.792969 26.019531 79.699219 25.800781 79.386719 C 25.582031 79.074219 25.269531 78.542969 25.269531 78.042969 C 25.269531 77.761719 25.269531 77.480469 25.332031 77.230469 L 27.738281 68.167969 L 27.863281 67.730469 L 29.332031 80.105469 L 29.925781 80.105469 Z M 37.332031 68.167969 "/>
<path fill-rule="nonzero" fill="rgb(0%, 0%, 0%)" fill-opacity="1" d="M 119.476562 74.949219 L 118.976562 74.949219 C 118.476562 78.042969 118.007812 79.480469 114.601562 79.480469 L 111.945312 79.480469 C 111.007812 79.480469 110.976562 79.355469 110.976562 78.699219 L 110.976562 73.355469 L 112.757812 73.355469 C 114.695312 73.355469 114.914062 74.011719 114.914062 75.699219 L 115.414062 75.699219 L 115.414062 70.417969 L 114.914062 70.417969 C 114.914062 72.136719 114.695312 72.761719 112.757812 72.761719 L 110.976562 72.761719 L 110.976562 67.949219 C 110.976562 67.292969 111.007812 67.167969 111.945312 67.167969 L 114.507812 67.167969 C 117.570312 67.167969 118.101562 68.261719 118.414062 71.042969 L 118.914062 71.042969 L 118.351562 66.542969 L 107.132812 66.542969 L 107.132812 67.167969 L 107.601562 67.167969 C 109.132812 67.167969 109.195312 67.386719 109.195312 68.105469 L 109.195312 78.542969 C 109.195312 79.261719 109.132812 79.480469 107.601562 79.480469 L 107.132812 79.480469 L 107.132812 80.105469 L 118.632812 80.105469 Z M 119.476562 74.949219 "/>
<path fill-rule="nonzero" fill="rgb(0%, 0%, 0%)" fill-opacity="1" d="M 137.570312 80.105469 L 137.570312 79.480469 L 137.070312 79.480469 C 135.539062 79.480469 135.507812 79.261719 135.507812 78.542969 L 135.507812 68.042969 C 135.507812 67.324219 135.539062 67.105469 137.070312 67.105469 L 137.570312 67.105469 L 137.570312 66.480469 L 134.195312 66.480469 C 133.664062 66.480469 133.664062 66.511719 133.539062 66.855469 L 129.164062 78.105469 L 124.851562 66.917969 C 124.664062 66.480469 124.601562 66.480469 124.132812 66.480469 L 120.789062 66.480469 L 120.789062 67.105469 L 121.257812 67.105469 C 122.789062 67.105469 122.820312 67.324219 122.820312 68.042969 L 122.820312 78.011719 C 122.820312 78.542969 122.820312 79.480469 120.789062 79.480469 L 120.789062 80.105469 L 123.101562 80.042969 L 125.445312 80.105469 L 125.445312 79.480469 C 123.382812 79.480469 123.382812 78.542969 123.382812 78.011719 L 123.382812 67.261719 L 123.414062 67.261719 L 128.226562 79.667969 C 128.320312 79.917969 128.414062 80.105469 128.601562 80.105469 C 128.820312 80.105469 128.882812 79.949219 128.976562 79.730469 L 133.882812 67.105469 L 133.882812 78.542969 C 133.882812 79.261719 133.851562 79.480469 132.320312 79.480469 L 131.851562 79.480469 L 131.851562 80.105469 C 132.570312 80.042969 133.945312 80.042969 134.726562 80.042969 C 135.476562 80.042969 136.820312 80.042969 137.570312 80.105469 Z M 137.570312 80.105469 "/>
<g clip-path="url(#clip-0)">
<path fill-rule="nonzero" fill="rgb(0%, 0%, 0%)" fill-opacity="1" d="M 145.175781 65.824219 C 142.300781 67.699219 140.269531 70.917969 140.269531 74.980469 C 140.269531 78.699219 142.363281 82.449219 145.113281 84.136719 L 145.363281 83.824219 C 142.738281 81.730469 141.957031 79.324219 141.957031 74.917969 C 141.957031 70.480469 142.800781 68.199219 145.363281 66.136719 Z M 145.175781 65.824219 "/>
</g>
<path fill-rule="nonzero" fill="rgb(0%, 0%, 0%)" fill-opacity="1" d="M 160.230469 67.792969 L 160.230469 66.917969 L 148.730469 66.917969 L 148.730469 67.792969 L 156.074219 67.792969 L 147.730469 79.230469 L 147.730469 80.105469 L 160.042969 80.105469 L 160.042969 79.230469 L 151.761719 79.230469 Z M 159.042969 67.792969 L 150.730469 79.230469 L 148.792969 79.230469 L 157.167969 67.792969 Z M 159.042969 67.792969 "/>
<path fill-rule="nonzero" fill="rgb(0%, 0%, 0%)" fill-opacity="1" d="M 163.203125 79.042969 C 163.203125 79.605469 163.578125 80.105469 164.140625 80.105469 C 164.359375 80.105469 164.515625 80.074219 164.671875 79.980469 C 164.671875 80.480469 164.578125 80.949219 164.296875 81.355469 C 164.015625 81.792969 163.515625 82.230469 162.890625 82.667969 L 163.296875 83.261719 C 163.765625 82.949219 164.140625 82.605469 164.453125 82.324219 C 165.140625 81.667969 165.734375 81.011719 165.734375 79.730469 C 165.734375 78.542969 165.296875 77.917969 164.421875 77.917969 C 163.734375 77.917969 163.203125 78.355469 163.203125 79.042969 Z M 163.203125 79.042969 "/>
<path fill-rule="nonzero" fill="rgb(0%, 0%, 0%)" fill-opacity="1" d="M 180.175781 80.105469 L 180.175781 79.480469 L 179.550781 79.480469 C 177.738281 79.480469 177.707031 79.261719 177.707031 78.542969 L 177.707031 67.355469 C 177.707031 66.855469 177.707031 66.824219 177.238281 66.824219 C 175.988281 68.105469 174.238281 68.105469 173.613281 68.105469 L 173.613281 68.730469 C 174.019531 68.730469 175.175781 68.730469 176.207031 68.199219 L 176.207031 78.542969 C 176.207031 79.261719 176.144531 79.480469 174.363281 79.480469 L 173.738281 79.480469 L 173.738281 80.105469 C 174.425781 80.042969 176.144531 80.042969 176.957031 80.042969 C 177.738281 80.042969 179.488281 80.042969 180.175781 80.105469 Z M 180.175781 80.105469 "/>
<g clip-path="url(#clip-1)">
<path fill-rule="nonzero" fill="rgb(0%, 0%, 0%)" fill-opacity="1" d="M 182.542969 65.824219 L 182.386719 66.136719 C 184.949219 68.199219 185.761719 70.480469 185.761719 74.917969 C 185.761719 79.324219 185.011719 81.730469 182.386719 83.824219 L 182.605469 84.136719 C 185.355469 82.449219 187.480469 78.699219 187.480469 74.980469 C 187.480469 70.917969 185.449219 67.699219 182.542969 65.824219 Z M 182.542969 65.824219 "/>
</g>
<path fill="none" stroke-width="0.5579" stroke-linecap="butt" stroke-linejoin="miter" stroke="rgb(0%, 0%, 0%)" stroke-opacity="1" stroke-miterlimit="10" d="M -31.066219 16.473782 L -6.554501 16.473782 " transform="matrix(2, 0, 0, -2, 107.984001, 42.096001)"/>
<path fill="none" stroke-width="0.5579" stroke-linecap="round" stroke-linejoin="round" stroke="rgb(0%, 0%, 0%)" stroke-opacity="1" stroke-miterlimit="10" d="M -2.900444 3.347978 C -2.369194 1.340165 -1.189507 0.390946 0.00189972 0.000321388 C -1.189507 -0.390304 -2.369194 -1.339522 -2.900444 -3.347335 " transform="matrix(2, 0, 0, -2, 95.433701, 9.14908)"/>
<path fill="none" stroke-width="0.5579" stroke-linecap="butt" stroke-linejoin="miter" stroke="rgb(0%, 0%, 0%)" stroke-opacity="1" stroke-miterlimit="10" d="M -37.738094 10.723782 L -37.738094 -8.303562 " transform="matrix(2, 0, 0, -2, 107.984001, 42.096001)"/>
<path fill="none" stroke-width="0.5579" stroke-linecap="round" stroke-linejoin="round" stroke="rgb(0%, 0%, 0%)" stroke-opacity="1" stroke-miterlimit="10" d="M -2.900461 3.347082 C -2.369211 1.33927 -1.189524 0.390051 0.00188255 -0.000574112 C -1.189524 -0.391199 -2.369211 -1.340418 -2.900461 -3.34823 " transform="matrix(0, 2, 2, 0, 32.508961, 59.26186)"/>
<path fill-rule="nonzero" fill="rgb(0%, 0%, 0%)" fill-opacity="1" d="M 12.792969 38.550781 C 12.792969 36.738281 11.292969 35.269531 9.449219 35.269531 C 8.636719 35.269531 7.792969 35.582031 7.199219 36.144531 L 7.199219 35.269531 L 5.011719 35.425781 L 5.011719 35.957031 C 6.011719 35.957031 6.105469 36.019531 6.105469 36.644531 L 6.105469 43.332031 C 6.105469 43.957031 5.949219 43.957031 5.011719 43.957031 L 5.011719 44.488281 C 5.011719 44.488281 6.042969 44.425781 6.667969 44.425781 C 7.199219 44.425781 8.199219 44.488281 8.324219 44.488281 L 8.324219 43.957031 C 7.386719 43.957031 7.230469 43.957031 7.230469 43.332031 L 7.230469 40.988281 C 7.324219 41.050781 8.011719 41.832031 9.230469 41.832031 C 11.136719 41.832031 12.792969 40.394531 12.792969 38.550781 Z M 11.449219 38.550781 C 11.449219 40.207031 10.355469 41.425781 9.136719 41.425781 C 7.855469 41.425781 7.292969 40.300781 7.230469 40.207031 L 7.230469 36.832031 C 7.667969 36.113281 8.511719 35.738281 9.292969 35.738281 C 10.511719 35.738281 11.449219 37.019531 11.449219 38.550781 Z M 11.449219 38.550781 "/>
<path fill-rule="nonzero" fill="rgb(0%, 0%, 0%)" fill-opacity="1" d="M 19.375 36.207031 C 19.375 35.707031 18.90625 35.269531 18.25 35.269531 C 17.5 35.269531 16.71875 35.707031 16.28125 36.832031 L 16.25 36.832031 L 16.25 35.269531 L 14.1875 35.425781 L 14.1875 35.957031 C 15.15625 35.957031 15.28125 36.050781 15.28125 36.769531 L 15.28125 40.519531 C 15.28125 41.144531 15.125 41.144531 14.1875 41.144531 L 14.1875 41.675781 C 14.25 41.675781 15.25 41.613281 15.84375 41.613281 L 17.71875 41.675781 L 17.71875 41.144531 L 17.4375 41.144531 C 16.375 41.144531 16.375 40.988281 16.375 40.488281 L 16.375 38.363281 C 16.375 37.144531 16.9375 35.675781 18.3125 35.675781 C 18.1875 35.769531 18.0625 35.957031 18.0625 36.207031 C 18.0625 36.675781 18.4375 36.863281 18.71875 36.863281 C 19.0625 36.863281 19.375 36.644531 19.375 36.207031 Z M 19.375 36.207031 "/>
<path fill-rule="nonzero" fill="rgb(0%, 0%, 0%)" fill-opacity="1" d="M 25.496094 45.050781 L 25.496094 44.613281 L 25.027344 44.613281 C 23.902344 44.613281 23.902344 44.488281 23.902344 44.113281 L 23.902344 38.082031 C 23.902344 37.769531 23.871094 37.769531 23.527344 37.769531 C 22.808594 38.457031 21.683594 38.457031 21.277344 38.457031 L 21.277344 38.894531 C 21.589844 38.894531 22.308594 38.894531 22.964844 38.582031 L 22.964844 44.113281 C 22.964844 44.488281 22.964844 44.613281 21.839844 44.613281 L 21.371094 44.613281 L 21.371094 45.050781 C 21.964844 45.019531 22.808594 45.019531 23.433594 45.019531 C 24.058594 45.019531 24.902344 45.019531 25.496094 45.050781 Z M 25.496094 45.050781 "/>
<path fill-rule="nonzero" fill="rgb(0%, 0%, 0%)" fill-opacity="1" d="M 57.363281 24.550781 L 57.363281 19.457031 L 56.488281 19.457031 L 56.488281 23.675781 L 52.269531 23.675781 L 52.269531 24.550781 Z M 57.363281 24.550781 "/>
<path fill="none" stroke-width="0.5579" stroke-linecap="butt" stroke-linejoin="miter" stroke="rgb(0%, 0%, 0%)" stroke-opacity="1" stroke-miterlimit="10" d="M 19.984562 8.76675 L 19.984562 -8.209812 " transform="matrix(2, 0, 0, -2, 107.984001, 42.096001)"/>
<path fill="none" stroke-width="0.5579" stroke-linecap="round" stroke-linejoin="round" stroke="rgb(0%, 0%, 0%)" stroke-opacity="1" stroke-miterlimit="10" d="M -2.899582 3.346916 C -2.372238 1.339104 -1.188644 0.389885 -0.00114441 -0.000740051 C -1.188644 -0.391365 -2.372238 -1.340584 -2.899582 -3.348396 " transform="matrix(0, 2, 2, 0, 147.954605, 59.072601)"/>
<path fill-rule="nonzero" fill="rgb(0%, 0%, 0%)" fill-opacity="1" d="M 128.238281 40.414062 C 128.238281 38.601562 126.738281 37.132812 124.894531 37.132812 C 124.082031 37.132812 123.238281 37.445312 122.644531 38.007812 L 122.644531 37.132812 L 120.457031 37.289062 L 120.457031 37.820312 C 121.457031 37.820312 121.550781 37.882812 121.550781 38.507812 L 121.550781 45.195312 C 121.550781 45.820312 121.394531 45.820312 120.457031 45.820312 L 120.457031 46.351562 C 120.457031 46.351562 121.488281 46.289062 122.113281 46.289062 C 122.644531 46.289062 123.644531 46.351562 123.769531 46.351562 L 123.769531 45.820312 C 122.832031 45.820312 122.675781 45.820312 122.675781 45.195312 L 122.675781 42.851562 C 122.769531 42.914062 123.457031 43.695312 124.675781 43.695312 C 126.582031 43.695312 128.238281 42.257812 128.238281 40.414062 Z M 126.894531 40.414062 C 126.894531 42.070312 125.800781 43.289062 124.582031 43.289062 C 123.300781 43.289062 122.738281 42.164062 122.675781 42.070312 L 122.675781 38.695312 C 123.113281 37.976562 123.957031 37.601562 124.738281 37.601562 C 125.957031 37.601562 126.894531 38.882812 126.894531 40.414062 Z M 126.894531 40.414062 "/>
<path fill-rule="nonzero" fill="rgb(0%, 0%, 0%)" fill-opacity="1" d="M 134.824219 38.070312 C 134.824219 37.570312 134.355469 37.132812 133.699219 37.132812 C 132.949219 37.132812 132.167969 37.570312 131.730469 38.695312 L 131.699219 38.695312 L 131.699219 37.132812 L 129.636719 37.289062 L 129.636719 37.820312 C 130.605469 37.820312 130.730469 37.914062 130.730469 38.632812 L 130.730469 42.382812 C 130.730469 43.007812 130.574219 43.007812 129.636719 43.007812 L 129.636719 43.539062 C 129.699219 43.539062 130.699219 43.476562 131.292969 43.476562 L 133.167969 43.539062 L 133.167969 43.007812 L 132.886719 43.007812 C 131.824219 43.007812 131.824219 42.851562 131.824219 42.351562 L 131.824219 40.226562 C 131.824219 39.007812 132.386719 37.539062 133.761719 37.539062 C 133.636719 37.632812 133.511719 37.820312 133.511719 38.070312 C 133.511719 38.539062 133.886719 38.726562 134.167969 38.726562 C 134.511719 38.726562 134.824219 38.507812 134.824219 38.070312 Z M 134.824219 38.070312 "/>
<path fill-rule="nonzero" fill="rgb(0%, 0%, 0%)" fill-opacity="1" d="M 140.941406 46.914062 L 140.941406 46.476562 L 140.472656 46.476562 C 139.347656 46.476562 139.347656 46.351562 139.347656 45.976562 L 139.347656 39.945312 C 139.347656 39.632812 139.316406 39.632812 138.972656 39.632812 C 138.253906 40.320312 137.128906 40.320312 136.722656 40.320312 L 136.722656 40.757812 C 137.035156 40.757812 137.753906 40.757812 138.410156 40.445312 L 138.410156 45.976562 C 138.410156 46.351562 138.410156 46.476562 137.285156 46.476562 L 136.816406 46.476562 L 136.816406 46.914062 C 137.410156 46.882812 138.253906 46.882812 138.878906 46.882812 C 139.503906 46.882812 140.347656 46.882812 140.941406 46.914062 Z M 140.941406 46.914062 "/>
<path fill="none" stroke-width="0.5579" stroke-linecap="butt" stroke-linejoin="miter" stroke="rgb(0%, 0%, 0%)" stroke-opacity="1" stroke-miterlimit="10" d="M -29.507626 -16.444187 L -4.495907 -16.444187 " transform="matrix(2, 0, 0, -2, 107.984001, 42.096001)"/>
<path fill="none" stroke-width="0.5579" stroke-linecap="round" stroke-linejoin="round" stroke="rgb(0%, 0%, 0%)" stroke-opacity="1" stroke-miterlimit="10" d="M -2.902126 3.347038 C -2.370876 1.339226 -1.191189 0.390007 0.000217438 -0.000617981 C -1.191189 -0.391243 -2.370876 -1.340462 -2.902126 -3.348274 " transform="matrix(2, 0, 0, -2, 99.54644, 74.983139)"/>
<path fill-rule="nonzero" fill="rgb(0%, 0%, 0%)" fill-opacity="1" d="M 65.457031 70.132812 L 65.457031 60.039062 L 64.238281 60.039062 L 64.238281 70.132812 Z M 65.457031 70.132812 "/>
<path fill-rule="nonzero" fill="rgb(0%, 0%, 0%)" fill-opacity="1" d="M 69.144531 70.132812 L 69.144531 63.695312 L 67.925781 63.695312 L 67.925781 70.132812 Z M 69.269531 62.007812 L 69.269531 60.539062 L 67.800781 60.539062 L 67.800781 62.007812 Z M 69.269531 62.007812 "/>
<path fill-rule="nonzero" fill="rgb(0%, 0%, 0%)" fill-opacity="1" d="M 77.144531 70.132812 L 77.144531 65.820312 C 77.144531 64.695312 76.832031 63.539062 75.019531 63.539062 C 74.207031 63.539062 73.394531 63.882812 72.769531 64.632812 L 72.769531 63.570312 L 71.613281 63.570312 L 71.613281 70.132812 L 72.863281 70.132812 L 72.863281 66.601562 C 72.863281 65.632812 73.269531 64.507812 74.394531 64.507812 C 75.894531 64.507812 75.894531 65.507812 75.894531 65.945312 L 75.894531 70.132812 Z M 77.144531 70.132812 "/>
<path fill-rule="nonzero" fill="rgb(0%, 0%, 0%)" fill-opacity="1" d="M 85.625 70.132812 L 82.71875 66.195312 L 85.3125 63.695312 L 83.90625 63.695312 L 80.78125 66.695312 L 80.78125 60.039062 L 79.65625 60.039062 L 79.65625 70.132812 L 80.71875 70.132812 L 80.71875 68.101562 L 81.96875 66.914062 L 84.375 70.132812 Z M 85.625 70.132812 "/>
</svg>
