<?xml version="1.0" encoding="UTF-8"?>
<svg xmlns="http://www.w3.org/2000/svg" xmlns:xlink="http://www.w3.org/1999/xlink" width="203.779999" height="104.580002" viewBox="0 0 203.779999 104.580002">
<defs>
<clipPath id="clip-0">
<path clip-rule="nonzero" d="M 25 0 L 203.78125 0 L 203.78125 104.578125 L 25 104.578125 Z M 25 0 "/>
</clipPath>
</defs>
<path fill-rule="nonzero" fill="rgb(0%, 0%, 0%)" fill-opacity="1" d="M 13.960938 13.941406 C 13.960938 13.191406 14.554688 11.722656 16.148438 11.347656 C 16.242188 11.285156 16.335938 11.222656 16.335938 11.128906 C 16.335938 10.941406 16.148438 10.878906 15.929688 10.941406 C 14.398438 11.160156 12.523438 12.441406 12.523438 13.785156 L 12.523438 17.347656 C 12.523438 18.035156 12.398438 19.035156 12.117188 19.222656 C 11.398438 19.691406 10.648438 19.753906 10.210938 19.753906 C 10.117188 19.753906 10.054688 19.878906 10.054688 19.972656 C 10.054688 20.191406 10.148438 20.222656 10.367188 20.253906 C 11.679688 20.316406 12.242188 20.910156 12.460938 21.816406 C 12.523438 22.003906 12.523438 22.035156 12.523438 22.691406 L 12.523438 25.878906 C 12.523438 26.628906 12.304688 27.535156 13.273438 28.222656 C 14.054688 28.753906 15.179688 29.066406 15.929688 29.066406 C 16.148438 29.066406 16.335938 29.066406 16.335938 28.847656 C 16.335938 28.691406 16.210938 28.722656 15.992188 28.660156 C 14.679688 28.316406 14.273438 27.628906 14.023438 26.691406 C 13.960938 26.535156 13.960938 26.472656 13.960938 25.847656 L 13.960938 22.410156 C 13.960938 21.597656 13.804688 21.285156 13.148438 20.691406 C 12.742188 20.316406 12.554688 20.128906 11.992188 19.972656 C 13.617188 19.597656 13.960938 18.753906 13.960938 17.691406 Z M 13.960938 13.941406 "/>
<path fill-rule="nonzero" fill="rgb(0%, 0%, 0%)" fill-opacity="1" d="M 28.054688 25.285156 C 29.710938 25.285156 30.804688 23.378906 31.367188 22.378906 L 31.023438 22.128906 C 30.585938 22.785156 29.648438 24.441406 28.960938 24.441406 C 28.710938 24.441406 28.804688 23.941406 28.804688 23.722656 C 28.804688 23.628906 28.804688 23.503906 28.804688 23.441406 C 29.085938 22.316406 29.617188 20.972656 29.960938 19.785156 C 30.148438 19.160156 30.429688 18.535156 30.429688 17.816406 C 30.429688 16.941406 30.023438 16.441406 29.148438 16.441406 C 28.492188 16.441406 27.992188 16.722656 27.554688 17.097656 C 26.929688 17.660156 26.460938 18.285156 25.960938 19.160156 L 25.898438 19.128906 C 26.054688 18.535156 26.148438 18.410156 26.148438 17.878906 C 26.148438 17.003906 25.679688 16.441406 24.804688 16.441406 C 23.710938 16.441406 22.679688 17.253906 21.679688 19.097656 L 21.648438 19.035156 C 21.804688 18.597656 21.867188 18.222656 21.867188 17.691406 C 21.867188 16.910156 21.710938 16.441406 20.929688 16.441406 C 19.273438 16.441406 18.554688 18.160156 18.023438 19.660156 L 18.367188 19.753906 C 18.585938 19.003906 19.554688 16.847656 20.398438 16.847656 C 20.617188 16.847656 20.710938 17.410156 20.710938 17.722656 C 20.710938 17.816406 20.679688 18.003906 20.617188 18.160156 C 20.304688 19.316406 19.992188 20.253906 19.617188 21.441406 L 18.460938 25.128906 L 19.773438 25.128906 L 21.148438 21.066406 C 21.710938 19.628906 22.585938 18.160156 23.648438 17.222656 C 23.960938 16.972656 24.242188 16.878906 24.460938 16.878906 C 25.117188 16.878906 24.960938 18.503906 24.804688 18.972656 C 24.554688 19.941406 24.242188 20.753906 23.867188 21.910156 L 22.804688 25.128906 L 24.148438 25.128906 C 24.648438 23.628906 25.023438 22.160156 25.523438 20.910156 C 25.992188 19.660156 26.929688 18.222656 27.710938 17.441406 C 28.148438 17.066406 28.460938 16.878906 28.742188 16.878906 C 28.960938 16.878906 29.179688 17.035156 29.179688 17.347656 C 29.179688 18.128906 28.835938 18.878906 28.554688 19.753906 C 28.148438 20.972656 27.773438 21.878906 27.492188 22.910156 C 27.398438 23.378906 27.273438 23.628906 27.273438 24.035156 C 27.273438 24.722656 27.460938 25.285156 28.054688 25.285156 Z M 28.054688 25.285156 "/>
<path fill-rule="nonzero" fill="rgb(0%, 0%, 0%)" fill-opacity="1" d="M 36.011719 22.351562 C 35.386719 22.351562 34.730469 22.851562 34.261719 23.476562 L 34.167969 23.476562 L 35.667969 18.007812 L 33.417969 18.101562 L 33.324219 18.320312 C 33.917969 18.320312 34.386719 18.445312 34.386719 18.882812 C 34.386719 18.945312 34.355469 19.132812 34.292969 19.320312 L 31.761719 28.695312 L 32.730469 28.695312 L 33.449219 26.132812 L 33.824219 26.007812 L 34.605469 27.882812 C 34.761719 28.226562 34.886719 28.476562 35.011719 28.632812 C 35.136719 28.757812 35.292969 28.820312 35.480469 28.820312 C 36.417969 28.820312 36.730469 28.226562 37.230469 27.039062 L 36.980469 26.914062 C 36.699219 27.507812 36.480469 28.101562 36.042969 28.101562 C 35.855469 28.101562 35.605469 27.539062 35.449219 27.101562 L 34.824219 25.570312 L 35.105469 25.414062 C 35.761719 25.101562 36.355469 24.789062 36.730469 24.414062 C 37.105469 24.070312 37.324219 23.695312 37.324219 23.320312 C 37.324219 22.664062 36.855469 22.351562 36.011719 22.351562 Z M 33.636719 25.695312 C 33.761719 25.101562 34.261719 23.945312 34.636719 23.570312 C 34.886719 23.257812 35.417969 22.664062 35.886719 22.664062 C 36.417969 22.664062 36.417969 23.132812 36.417969 23.445312 C 36.386719 24.539062 34.449219 25.351562 33.636719 25.695312 Z M 33.636719 25.695312 "/>
<path fill-rule="nonzero" fill="rgb(0%, 0%, 0%)" fill-opacity="1" d="M 43.203125 13.941406 L 43.203125 17.691406 C 43.203125 18.753906 43.515625 19.597656 45.140625 19.972656 C 44.578125 20.128906 44.390625 20.316406 43.984375 20.691406 C 43.359375 21.285156 43.203125 21.597656 43.203125 22.410156 L 43.203125 25.847656 C 43.203125 26.472656 43.203125 26.535156 43.140625 26.691406 C 42.859375 27.628906 42.484375 28.316406 41.140625 28.660156 C 40.921875 28.722656 40.828125 28.691406 40.828125 28.847656 C 40.828125 29.066406 40.984375 29.066406 41.203125 29.066406 C 41.984375 29.066406 43.078125 28.753906 43.859375 28.222656 C 44.828125 27.535156 44.609375 26.628906 44.609375 25.878906 L 44.609375 22.691406 C 44.609375 22.035156 44.609375 22.003906 44.671875 21.816406 C 44.890625 20.910156 45.453125 20.316406 46.765625 20.253906 C 46.984375 20.222656 47.109375 20.191406 47.109375 19.972656 C 47.109375 19.878906 47.015625 19.753906 46.921875 19.753906 C 46.484375 19.753906 45.734375 19.691406 45.015625 19.222656 C 44.734375 19.035156 44.609375 18.035156 44.609375 17.347656 L 44.609375 13.785156 C 44.609375 12.441406 42.765625 11.160156 41.203125 10.941406 C 40.984375 10.878906 40.828125 10.941406 40.828125 11.128906 C 40.828125 11.222656 40.890625 11.285156 40.984375 11.347656 C 42.578125 11.722656 43.203125 13.191406 43.203125 13.941406 Z M 43.203125 13.941406 "/>
<path fill-rule="nonzero" fill="rgb(0%, 0%, 0%)" fill-opacity="1" d="M 64.53125 24.441406 L 60.09375 20.003906 L 64.53125 15.566406 L 63.75 14.753906 L 59.3125 19.222656 L 54.875 14.753906 L 54.09375 15.566406 L 58.5 20.003906 L 54.09375 24.441406 L 54.875 25.222656 L 59.3125 20.785156 L 63.75 25.222656 Z M 64.53125 24.441406 "/>
<path fill-rule="nonzero" fill="rgb(0%, 0%, 0%)" fill-opacity="1" d="M 80.191406 11.566406 L 79.660156 12.285156 C 79.253906 11.878906 78.816406 11.566406 78.378906 11.378906 C 77.910156 11.160156 77.410156 11.097656 76.847656 11.097656 C 76.253906 11.097656 75.722656 11.191406 75.191406 11.378906 C 74.691406 11.597656 74.222656 11.847656 73.847656 12.191406 C 73.472656 12.535156 73.160156 12.941406 72.910156 13.378906 C 72.691406 13.847656 72.597656 14.316406 72.597656 14.847656 C 72.597656 15.410156 72.722656 15.878906 72.972656 16.316406 C 73.253906 16.722656 73.535156 17.128906 73.910156 17.441406 C 74.285156 17.816406 74.691406 18.160156 75.128906 18.472656 C 75.597656 18.753906 75.972656 19.097656 76.347656 19.441406 C 76.722656 19.785156 77.035156 20.128906 77.285156 20.535156 C 77.535156 20.910156 77.660156 21.347656 77.660156 21.847656 C 77.660156 23.441406 76.785156 24.878906 74.722656 24.878906 C 72.628906 24.878906 71.597656 22.691406 71.441406 20.566406 L 71.003906 20.566406 L 70.253906 25.128906 L 70.691406 25.128906 L 71.253906 23.753906 C 72.253906 24.785156 73.378906 25.316406 74.691406 25.316406 C 75.347656 25.316406 75.941406 25.222656 76.503906 24.972656 C 77.035156 24.722656 77.535156 24.441406 77.941406 24.035156 C 78.378906 23.628906 78.691406 23.160156 78.910156 22.628906 C 79.160156 22.097656 79.285156 21.535156 79.285156 20.910156 C 79.285156 20.316406 79.160156 19.753906 78.910156 19.316406 C 78.691406 18.847656 78.378906 18.441406 78.003906 18.097656 C 77.660156 17.722656 77.253906 17.378906 76.816406 17.097656 C 76.378906 16.785156 76.003906 16.503906 75.628906 16.191406 C 75.253906 15.910156 74.972656 15.597656 74.722656 15.253906 C 74.472656 14.910156 74.347656 14.566406 74.347656 14.128906 C 74.347656 12.753906 74.847656 11.503906 76.910156 11.503906 C 78.628906 11.503906 79.316406 13.253906 79.378906 15.066406 L 79.816406 15.066406 L 80.566406 11.566406 Z M 80.191406 11.566406 "/>
<path fill-rule="nonzero" fill="rgb(0%, 0%, 0%)" fill-opacity="1" d="M 85.960938 11.550781 C 85.335938 11.550781 84.679688 12.050781 84.210938 12.675781 L 84.117188 12.675781 L 85.617188 7.207031 L 83.367188 7.300781 L 83.273438 7.519531 C 83.867188 7.519531 84.335938 7.644531 84.335938 8.082031 C 84.335938 8.144531 84.304688 8.332031 84.242188 8.519531 L 81.710938 17.894531 L 82.679688 17.894531 L 83.398438 15.332031 L 83.773438 15.207031 L 84.554688 17.082031 C 84.710938 17.425781 84.835938 17.675781 84.960938 17.832031 C 85.085938 17.957031 85.242188 18.019531 85.429688 18.019531 C 86.367188 18.019531 86.679688 17.425781 87.179688 16.238281 L 86.929688 16.113281 C 86.648438 16.707031 86.429688 17.300781 85.992188 17.300781 C 85.804688 17.300781 85.554688 16.738281 85.398438 16.300781 L 84.773438 14.769531 L 85.054688 14.613281 C 85.710938 14.300781 86.304688 13.988281 86.679688 13.613281 C 87.054688 13.269531 87.273438 12.894531 87.273438 12.519531 C 87.273438 11.863281 86.804688 11.550781 85.960938 11.550781 Z M 83.585938 14.894531 C 83.710938 14.300781 84.210938 13.144531 84.585938 12.769531 C 84.835938 12.457031 85.367188 11.863281 85.835938 11.863281 C 86.367188 11.863281 86.367188 12.332031 86.367188 12.644531 C 86.335938 13.738281 84.398438 14.550781 83.585938 14.894531 Z M 83.585938 14.894531 "/>
<path fill-rule="nonzero" fill="rgb(0%, 0%, 0%)" fill-opacity="1" d="M 167.410156 25.128906 L 167.410156 24.191406 L 165.097656 24.191406 L 165.097656 12.722656 C 165.097656 12.066406 165.003906 12.066406 164.316406 12.066406 C 163.003906 13.347656 160.910156 13.347656 160.222656 13.347656 L 160.222656 14.285156 C 160.753906 14.285156 161.691406 14.285156 162.722656 13.941406 L 162.722656 24.191406 L 160.503906 24.191406 L 160.503906 25.128906 C 161.253906 25.066406 163.066406 25.066406 163.941406 25.066406 C 164.785156 25.066406 166.660156 25.066406 167.410156 25.128906 Z M 167.410156 25.128906 "/>
<path fill-rule="nonzero" fill="rgb(0%, 0%, 0%)" fill-opacity="1" d="M 43.136719 93.605469 L 43.136719 80.417969 L 40.230469 80.417969 L 36.042969 92.074219 L 35.980469 92.074219 L 31.980469 80.417969 L 28.886719 80.417969 L 28.886719 93.605469 L 29.761719 93.605469 L 29.761719 84.261719 L 29.792969 84.261719 L 33.042969 93.605469 L 36.417969 93.605469 L 39.792969 84.199219 L 39.824219 84.199219 L 39.824219 93.605469 Z M 42.261719 92.730469 L 40.699219 92.730469 L 40.699219 81.292969 L 42.261719 81.292969 Z M 35.324219 92.730469 L 33.667969 92.730469 L 30.105469 82.511719 L 29.699219 81.292969 L 31.292969 81.292969 Z M 35.324219 92.730469 "/>
<path fill-rule="nonzero" fill="rgb(0%, 0%, 0%)" fill-opacity="1" d="M 48.367188 90.828125 C 47.742188 90.828125 47.085938 91.328125 46.617188 91.953125 L 46.523438 91.953125 L 48.023438 86.484375 L 45.773438 86.578125 L 45.679688 86.796875 C 46.273438 86.796875 46.742188 86.921875 46.742188 87.359375 C 46.742188 87.421875 46.710938 87.609375 46.648438 87.796875 L 44.117188 97.171875 L 45.085938 97.171875 L 45.804688 94.609375 L 46.179688 94.484375 L 46.960938 96.359375 C 47.117188 96.703125 47.242188 96.953125 47.367188 97.109375 C 47.492188 97.234375 47.648438 97.296875 47.835938 97.296875 C 48.773438 97.296875 49.085938 96.703125 49.585938 95.515625 L 49.335938 95.390625 C 49.054688 95.984375 48.835938 96.578125 48.398438 96.578125 C 48.210938 96.578125 47.960938 96.015625 47.804688 95.578125 L 47.179688 94.046875 L 47.460938 93.890625 C 48.117188 93.578125 48.710938 93.265625 49.085938 92.890625 C 49.460938 92.546875 49.679688 92.171875 49.679688 91.796875 C 49.679688 91.140625 49.210938 90.828125 48.367188 90.828125 Z M 45.992188 94.171875 C 46.117188 93.578125 46.617188 92.421875 46.992188 92.046875 C 47.242188 91.734375 47.773438 91.140625 48.242188 91.140625 C 48.773438 91.140625 48.773438 91.609375 48.773438 91.921875 C 48.742188 93.015625 46.804688 93.828125 45.992188 94.171875 Z M 45.992188 94.171875 "/>
<path fill-rule="nonzero" fill="rgb(0%, 0%, 0%)" fill-opacity="1" d="M 59.648438 93.859375 L 59.648438 93.015625 L 52.210938 93.015625 L 52.210938 93.859375 Z M 59.648438 93.859375 "/>
<path fill-rule="nonzero" fill="rgb(0%, 0%, 0%)" fill-opacity="1" d="M 68.011719 97.171875 L 68.011719 96.640625 L 67.449219 96.640625 C 66.011719 96.640625 66.011719 96.453125 66.011719 95.984375 L 66.011719 87.921875 C 66.011719 87.546875 65.980469 87.515625 65.574219 87.515625 C 64.636719 88.453125 63.324219 88.453125 62.730469 88.453125 L 62.730469 88.984375 C 63.074219 88.984375 64.042969 88.984375 64.824219 88.578125 L 64.824219 95.984375 C 64.824219 96.453125 64.824219 96.640625 63.386719 96.640625 L 62.824219 96.640625 L 62.824219 97.171875 L 65.417969 97.109375 Z M 68.011719 97.171875 "/>
<path fill-rule="nonzero" fill="rgb(0%, 0%, 0%)" fill-opacity="1" d="M 172.992188 79.886719 L 172.898438 79.761719 C 172.273438 79.855469 170.648438 80.261719 170.179688 80.699219 C 169.960938 80.917969 169.210938 83.480469 169.023438 83.980469 C 168.242188 86.449219 167.429688 88.449219 165.492188 90.230469 C 164.398438 91.230469 162.710938 92.324219 161.210938 92.324219 C 160.898438 92.324219 160.648438 92.199219 160.648438 91.855469 C 160.648438 88.980469 163.085938 83.105469 164.054688 80.136719 C 163.898438 80.011719 163.710938 79.980469 163.523438 79.980469 C 161.367188 79.980469 154.429688 81.980469 154.429688 84.636719 C 154.429688 85.386719 155.585938 87.199219 156.429688 87.199219 C 156.523438 87.199219 156.648438 87.199219 156.742188 87.136719 C 156.398438 86.699219 156.273438 86.136719 156.273438 85.605469 C 156.273438 83.261719 159.617188 81.074219 161.742188 81.011719 C 160.710938 83.886719 158.304688 89.574219 158.304688 92.417969 C 158.304688 93.292969 158.648438 94.011719 159.617188 94.011719 C 161.710938 94.011719 166.117188 90.949219 167.492188 89.355469 C 167.210938 90.230469 166.960938 91.136719 166.960938 92.042969 C 166.960938 92.605469 167.085938 94.230469 167.867188 94.230469 C 168.804688 94.230469 170.242188 93.386719 170.367188 92.417969 C 170.242188 92.542969 170.023438 92.605469 169.835938 92.605469 C 169.273438 92.605469 169.273438 91.824219 169.273438 91.417969 C 169.273438 89.386719 171.742188 81.355469 172.992188 79.886719 Z M 172.992188 79.886719 "/>
<path fill="none" stroke-width="0.5579" stroke-linecap="butt" stroke-linejoin="miter" stroke="rgb(0%, 0%, 0%)" stroke-opacity="1" stroke-miterlimit="10" d="M 3.662437 16.140093 L 28.889 16.140093 " transform="matrix(2, 0, 0, -2, 90.972, 52.287998)"/>
<path fill="none" stroke-width="0.5579" stroke-linecap="round" stroke-linejoin="round" stroke="rgb(0%, 0%, 0%)" stroke-opacity="1" stroke-miterlimit="10" d="M -2.899376 3.34619 C -2.372032 1.338378 -1.188438 0.389159 -0.000938416 -0.0014658 C -1.188438 -0.392091 -2.372032 -1.337403 -2.899376 -3.349122 " transform="matrix(2, 0, 0, -2, 149.306564, 20.004881)"/>
<path fill-rule="nonzero" fill="rgb(0%, 0%, 0%)" fill-opacity="1" d="M 124.914062 5.589844 C 124.914062 5.058594 124.445312 4.777344 124.070312 4.777344 C 123.664062 4.777344 123.226562 5.089844 123.226562 5.589844 L 123.789062 11.996094 C 123.820312 12.308594 123.882812 12.339844 124.070312 12.339844 C 124.257812 12.339844 124.320312 12.308594 124.351562 11.996094 Z M 124.914062 14.308594 C 124.914062 13.871094 124.539062 13.496094 124.070312 13.496094 C 123.570312 13.496094 123.226562 13.902344 123.226562 14.308594 C 123.226562 14.808594 123.632812 15.152344 124.070312 15.152344 C 124.539062 15.152344 124.914062 14.777344 124.914062 14.308594 Z M 124.914062 14.308594 "/>
<path fill="none" stroke-width="0.5579" stroke-linecap="butt" stroke-linejoin="miter" stroke="rgb(0%, 0%, 0%)" stroke-opacity="1" stroke-miterlimit="10" d="M -21.013344 7.772905 L -21.013344 -9.715376 " transform="matrix(2, 0, 0, -2, 90.972, 52.287998)"/>
<path fill="none" stroke-width="0.5579" stroke-linecap="round" stroke-linejoin="round" stroke="rgb(0%, 0%, 0%)" stroke-opacity="1" stroke-miterlimit="10" d="M -2.900028 3.345743 C -2.372684 1.337931 -1.189091 0.388712 -0.00159073 -0.00191307 C -1.189091 -0.388632 -2.372684 -1.337851 -2.900028 -3.345663 " transform="matrix(0, 2, 2, 0, 48.949139, 72.276619)"/>
<path fill-rule="nonzero" fill="rgb(0%, 0%, 0%)" fill-opacity="1" d="M 24.164062 52.144531 C 24.164062 50.050781 23.507812 48.332031 21.945312 48.332031 C 20.726562 48.332031 19.414062 49.488281 19.414062 50.144531 C 19.414062 50.644531 19.789062 50.832031 20.070312 50.832031 C 20.382812 50.832031 20.570312 50.582031 20.601562 50.550781 C 20.539062 50.519531 20.476562 50.363281 20.476562 50.175781 C 20.476562 50.050781 20.726562 48.769531 21.976562 48.769531 C 23.039062 48.769531 23.257812 50.113281 23.257812 51.300781 C 23.257812 52.175781 23.132812 52.988281 23.132812 52.988281 L 23.101562 52.988281 C 23.101562 52.988281 22.539062 52.082031 21.382812 52.082031 C 18.476562 52.082031 17.289062 54.894531 17.289062 56.394531 C 17.289062 57.769531 18.070312 58.613281 19.695312 58.613281 C 22.195312 58.613281 24.164062 56.082031 24.164062 52.144531 Z M 22.507812 53.769531 C 22.507812 54.144531 22.132812 58.269531 19.789062 58.269531 C 18.976562 58.269531 18.601562 57.800781 18.601562 56.894531 C 18.601562 55.957031 19.195312 52.425781 21.289062 52.425781 C 22.101562 52.425781 22.507812 52.925781 22.507812 53.769531 Z M 22.507812 53.769531 "/>
<path fill-rule="nonzero" fill="rgb(0%, 0%, 0%)" fill-opacity="1" d="M 26.769531 56.464844 C 26.300781 56.464844 25.832031 56.839844 25.488281 57.308594 L 25.394531 57.308594 L 26.519531 53.183594 L 24.832031 53.246094 L 24.769531 53.402344 C 25.207031 53.402344 25.582031 53.527344 25.582031 53.839844 C 25.582031 53.902344 25.550781 54.027344 25.488281 54.183594 L 23.582031 61.246094 L 24.332031 61.246094 L 24.863281 59.308594 L 25.113281 59.214844 L 25.707031 60.652344 C 25.832031 60.902344 25.925781 61.089844 26.019531 61.183594 C 26.113281 61.277344 26.238281 61.339844 26.394531 61.339844 C 27.082031 61.339844 27.332031 60.871094 27.707031 59.996094 L 27.519531 59.902344 C 27.300781 60.339844 27.144531 60.808594 26.800781 60.808594 C 26.675781 60.808594 26.488281 60.371094 26.363281 60.058594 L 25.894531 58.871094 L 26.113281 58.777344 C 26.613281 58.527344 27.050781 58.308594 27.332031 58.027344 C 27.613281 57.746094 27.769531 57.464844 27.769531 57.183594 C 27.769531 56.683594 27.425781 56.464844 26.769531 56.464844 Z M 24.988281 58.964844 C 25.082031 58.527344 25.488281 57.683594 25.738281 57.371094 C 25.925781 57.152344 26.332031 56.683594 26.707031 56.683594 C 27.113281 56.683594 27.113281 57.058594 27.113281 57.277344 C 27.082031 58.089844 25.613281 58.714844 24.988281 58.964844 Z M 24.988281 58.964844 "/>
<path fill-rule="nonzero" fill="rgb(0%, 0%, 0%)" fill-opacity="1" d="M 35.277344 58.746094 L 35.277344 58.121094 L 29.683594 58.121094 L 29.683594 58.746094 Z M 35.277344 58.746094 "/>
<path fill-rule="nonzero" fill="rgb(0%, 0%, 0%)" fill-opacity="1" d="M 41.933594 61.246094 L 41.933594 60.808594 L 41.464844 60.808594 C 40.339844 60.808594 40.339844 60.683594 40.339844 60.308594 L 40.339844 54.277344 C 40.339844 53.964844 40.308594 53.964844 39.964844 53.964844 C 39.246094 54.652344 38.121094 54.652344 37.714844 54.652344 L 37.714844 55.089844 C 38.027344 55.089844 38.746094 55.089844 39.402344 54.777344 L 39.402344 60.308594 C 39.402344 60.683594 39.402344 60.808594 38.277344 60.808594 L 37.808594 60.808594 L 37.808594 61.246094 C 38.402344 61.214844 39.246094 61.214844 39.871094 61.214844 C 40.496094 61.214844 41.339844 61.214844 41.933594 61.246094 Z M 41.933594 61.246094 "/>
<path fill="none" stroke-width="0.5579" stroke-linecap="butt" stroke-linejoin="miter" stroke="rgb(0%, 0%, 0%)" stroke-opacity="1" stroke-miterlimit="10" d="M 36.431969 9.733843 L 36.431969 -9.203657 " transform="matrix(2, 0, 0, -2, 90.972, 52.287998)"/>
<path fill="none" stroke-width="0.5579" stroke-linecap="round" stroke-linejoin="round" stroke="rgb(0%, 0%, 0%)" stroke-opacity="1" stroke-miterlimit="10" d="M -2.902542 3.345589 C -2.371292 1.337776 -1.191605 0.392464 -0.000198364 0.00183868 C -1.191605 -0.388786 -2.371292 -1.338005 -2.902542 -3.345818 " transform="matrix(0, 2, 2, 0, 163.83226, 71.250397)"/>
<path fill-rule="nonzero" fill="rgb(0%, 0%, 0%)" fill-opacity="1" d="M 169.386719 58.820312 C 169.074219 58.820312 169.011719 58.632812 168.949219 58.382812 C 168.886719 58.132812 168.761719 57.851562 168.449219 57.851562 C 168.199219 57.851562 168.074219 58.070312 168.074219 58.289062 C 168.074219 58.882812 168.824219 59.164062 169.292969 59.164062 C 170.136719 59.164062 170.199219 58.914062 170.574219 58.382812 C 170.824219 58.101562 170.980469 57.695312 171.167969 57.195312 C 171.355469 56.695312 171.667969 56.039062 171.855469 55.257812 L 173.167969 50.226562 L 174.355469 50.226562 L 174.480469 49.882812 L 173.261719 49.882812 C 173.574219 48.757812 174.042969 46.789062 174.355469 46.195312 C 174.480469 46.007812 174.730469 45.726562 175.105469 45.726562 C 175.386719 45.726562 175.511719 45.914062 175.574219 46.164062 C 175.636719 46.445312 175.730469 46.695312 176.074219 46.695312 C 176.324219 46.695312 176.449219 46.507812 176.449219 46.289062 C 176.449219 45.695312 175.699219 45.414062 175.199219 45.414062 C 173.386719 45.445312 172.699219 48.351562 172.292969 49.882812 L 171.105469 49.882812 L 171.011719 50.226562 L 172.199219 50.226562 L 170.292969 57.414062 C 170.199219 57.757812 169.917969 58.820312 169.386719 58.820312 Z M 169.386719 58.820312 "/>
<path fill-rule="nonzero" fill="rgb(0%, 0%, 0%)" fill-opacity="1" d="M 176.65625 54.171875 C 176.1875 54.171875 175.71875 54.546875 175.375 55.015625 L 175.28125 55.015625 L 176.40625 50.890625 L 174.71875 50.953125 L 174.65625 51.109375 C 175.09375 51.109375 175.46875 51.234375 175.46875 51.546875 C 175.46875 51.609375 175.4375 51.734375 175.375 51.890625 L 173.46875 58.953125 L 174.21875 58.953125 L 174.75 57.015625 L 175 56.921875 L 175.59375 58.359375 C 175.71875 58.609375 175.8125 58.796875 175.90625 58.890625 C 176 58.984375 176.125 59.046875 176.28125 59.046875 C 176.96875 59.046875 177.21875 58.578125 177.59375 57.703125 L 177.40625 57.609375 C 177.1875 58.046875 177.03125 58.515625 176.6875 58.515625 C 176.5625 58.515625 176.375 58.078125 176.25 57.765625 L 175.78125 56.578125 L 176 56.484375 C 176.5 56.234375 176.9375 56.015625 177.21875 55.734375 C 177.5 55.453125 177.65625 55.171875 177.65625 54.890625 C 177.65625 54.390625 177.3125 54.171875 176.65625 54.171875 Z M 174.875 56.671875 C 174.96875 56.234375 175.375 55.390625 175.625 55.078125 C 175.8125 54.859375 176.21875 54.390625 176.59375 54.390625 C 177 54.390625 177 54.765625 177 54.984375 C 176.96875 55.796875 175.5 56.421875 174.875 56.671875 Z M 174.875 56.671875 "/>
<path fill-rule="nonzero" fill="rgb(0%, 0%, 0%)" fill-opacity="1" d="M 185.753906 52.351562 C 185.753906 50.882812 184.566406 49.664062 183.066406 49.664062 C 181.535156 49.664062 180.347656 50.882812 180.347656 52.351562 C 180.347656 53.882812 181.535156 55.070312 183.066406 55.070312 C 184.566406 55.070312 185.753906 53.882812 185.753906 52.351562 Z M 185.066406 52.351562 C 185.066406 53.476562 184.160156 54.382812 183.066406 54.382812 C 181.941406 54.382812 181.035156 53.476562 181.035156 52.351562 C 181.035156 51.257812 181.941406 50.351562 183.066406 50.351562 C 184.160156 50.351562 185.066406 51.257812 185.066406 52.351562 Z M 185.066406 52.351562 "/>
<path fill-rule="nonzero" fill="rgb(0%, 0%, 0%)" fill-opacity="1" d="M 192.605469 51.257812 C 192.605469 51.007812 192.417969 50.726562 192.136719 50.726562 C 191.824219 50.726562 190.605469 51.945312 190.199219 52.164062 C 190.199219 51.351562 190.605469 50.539062 190.605469 50.070312 C 190.605469 49.757812 190.417969 49.570312 190.105469 49.570312 C 189.792969 49.570312 189.636719 49.757812 189.636719 50.070312 C 189.636719 50.632812 189.980469 51.382812 189.980469 52.164062 C 189.511719 51.914062 188.386719 50.695312 188.074219 50.695312 C 187.824219 50.695312 187.574219 50.914062 187.574219 51.195312 C 187.574219 51.695312 189.292969 52.039062 189.855469 52.351562 C 189.261719 52.726562 188.105469 52.882812 187.824219 53.070312 C 187.699219 53.195312 187.574219 53.320312 187.574219 53.507812 C 187.574219 53.757812 187.761719 54.007812 188.042969 54.007812 C 188.355469 54.007812 189.542969 52.820312 189.980469 52.570312 C 189.980469 53.382812 189.574219 54.195312 189.574219 54.695312 C 189.574219 54.976562 189.792969 55.195312 190.074219 55.195312 C 190.386719 55.195312 190.542969 54.976562 190.542969 54.695312 C 190.542969 54.101562 190.199219 53.351562 190.199219 52.570312 C 190.667969 52.820312 191.824219 54.039062 192.105469 54.039062 C 192.355469 54.039062 192.605469 53.820312 192.605469 53.539062 C 192.605469 53.351562 192.480469 53.226562 192.324219 53.132812 C 191.949219 52.882812 190.949219 52.726562 190.324219 52.351562 C 191.011719 51.945312 191.917969 51.914062 192.355469 51.664062 C 192.511719 51.570312 192.605469 51.445312 192.605469 51.257812 Z M 192.605469 51.257812 "/>
<path fill-rule="nonzero" fill="rgb(0%, 0%, 0%)" fill-opacity="1" d="M 196.707031 54.171875 C 196.238281 54.171875 195.769531 54.546875 195.425781 55.015625 L 195.332031 55.015625 L 196.457031 50.890625 L 194.769531 50.953125 L 194.707031 51.109375 C 195.144531 51.109375 195.519531 51.234375 195.519531 51.546875 C 195.519531 51.609375 195.488281 51.734375 195.425781 51.890625 L 193.519531 58.953125 L 194.269531 58.953125 L 194.800781 57.015625 L 195.050781 56.921875 L 195.644531 58.359375 C 195.769531 58.609375 195.863281 58.796875 195.957031 58.890625 C 196.050781 58.984375 196.175781 59.046875 196.332031 59.046875 C 197.019531 59.046875 197.269531 58.578125 197.644531 57.703125 L 197.457031 57.609375 C 197.238281 58.046875 197.082031 58.515625 196.738281 58.515625 C 196.613281 58.515625 196.425781 58.078125 196.300781 57.765625 L 195.832031 56.578125 L 196.050781 56.484375 C 196.550781 56.234375 196.988281 56.015625 197.269531 55.734375 C 197.550781 55.453125 197.707031 55.171875 197.707031 54.890625 C 197.707031 54.390625 197.363281 54.171875 196.707031 54.171875 Z M 194.925781 56.671875 C 195.019531 56.234375 195.425781 55.390625 195.675781 55.078125 C 195.863281 54.859375 196.269531 54.390625 196.644531 54.390625 C 197.050781 54.390625 197.050781 54.765625 197.050781 54.984375 C 197.019531 55.796875 195.550781 56.421875 194.925781 56.671875 Z M 194.925781 56.671875 "/>
<g clip-path="url(#clip-0)">
<path fill="none" stroke-width="2.49017" stroke-linecap="butt" stroke-linejoin="miter" stroke="rgb(0%, 0%, 0%)" stroke-opacity="1" stroke-miterlimit="10" d="M 20.889 6.878374 L 2.615562 -4.012251 " transform="matrix(2, 0, 0, -2, 90.972, 52.287998)"/>
</g>
<path fill="none" stroke-width="1.37434" stroke-linecap="butt" stroke-linejoin="miter" stroke="rgb(100%, 100%, 100%)" stroke-opacity="1" stroke-miterlimit="10" d="M 20.889 6.878374 L 2.615562 -4.012251 " transform="matrix(2, 0, 0, -2, 90.972, 52.287998)"/>
<path fill="none" stroke-width="0.5579" stroke-linecap="round" stroke-linejoin="round" stroke="rgb(0%, 0%, 0%)" stroke-opacity="1" stroke-miterlimit="10" d="M -1.294288 2.559894 C -0.667263 1.208435 1.025088 0.0497021 1.99197 0.000956454 C 1.024711 -0.0501217 -0.665525 -1.207403 -1.294654 -2.560543 " transform="matrix(-1.71792, 1.0239, 1.0239, 1.71792, 96.202316, 60.310341)"/>
<path fill-rule="nonzero" fill="rgb(0%, 0%, 0%)" fill-opacity="1" d="M 122.5625 61.6875 C 122.5625 60.21875 121.78125 59.3125 120.40625 59.3125 C 119.5 59.3125 118.78125 59.9375 118.75 59.9375 L 118.75 55.4375 L 118.1875 55.59375 L 118.1875 65.9375 C 118.1875 66.1875 118.28125 66.34375 118.5 66.34375 C 119.9375 66.34375 122.5625 64.40625 122.5625 61.6875 Z M 121.3125 61.71875 C 121.3125 63.90625 120.125 65.78125 119.03125 65.78125 C 118.78125 65.78125 118.75 65.6875 118.75 65.59375 L 118.75 61.0625 C 118.75 60.5 119.09375 59.6875 120.1875 59.6875 C 121 59.6875 121.3125 60.65625 121.3125 61.71875 Z M 121.3125 61.71875 "/>
<path fill-rule="nonzero" fill="rgb(0%, 0%, 0%)" fill-opacity="1" d="M 126.570312 64.101562 C 126.101562 64.101562 125.632812 64.476562 125.289062 64.945312 L 125.195312 64.945312 L 126.320312 60.820312 L 124.632812 60.882812 L 124.570312 61.039062 C 125.007812 61.039062 125.382812 61.164062 125.382812 61.476562 C 125.382812 61.539062 125.351562 61.664062 125.289062 61.820312 L 123.382812 68.882812 L 124.132812 68.882812 L 124.664062 66.945312 L 124.914062 66.851562 L 125.507812 68.289062 C 125.632812 68.539062 125.726562 68.726562 125.820312 68.820312 C 125.914062 68.914062 126.039062 68.976562 126.195312 68.976562 C 126.882812 68.976562 127.132812 68.507812 127.507812 67.632812 L 127.320312 67.539062 C 127.101562 67.976562 126.945312 68.445312 126.601562 68.445312 C 126.476562 68.445312 126.289062 68.007812 126.164062 67.695312 L 125.695312 66.507812 L 125.914062 66.414062 C 126.414062 66.164062 126.851562 65.945312 127.132812 65.664062 C 127.414062 65.382812 127.570312 65.101562 127.570312 64.820312 C 127.570312 64.320312 127.226562 64.101562 126.570312 64.101562 Z M 124.789062 66.601562 C 124.882812 66.164062 125.289062 65.320312 125.539062 65.007812 C 125.726562 64.789062 126.132812 64.320312 126.507812 64.320312 C 126.914062 64.320312 126.914062 64.695312 126.914062 64.914062 C 126.882812 65.726562 125.414062 66.351562 124.789062 66.601562 Z M 124.789062 66.601562 "/>
<path fill="none" stroke-width="0.5579" stroke-linecap="butt" stroke-linejoin="miter" stroke="rgb(0%, 0%, 0%)" stroke-opacity="1" stroke-miterlimit="10" d="M -5.782875 -18.098188 L 26.615562 -18.098188 " transform="matrix(2, 0, 0, -2, 90.972, 52.287998)"/>
<path fill="none" stroke-width="0.5579" stroke-linecap="round" stroke-linejoin="round" stroke="rgb(0%, 0%, 0%)" stroke-opacity="1" stroke-miterlimit="10" d="M -2.901314 3.34697 C -2.370064 1.339157 -1.190376 0.389938 0.00102997 -0.000686646 C -1.190376 -0.391312 -2.370064 -1.34053 -2.901314 -3.348343 " transform="matrix(2, 0, 0, -2, 144.763565, 88.483002)"/>
</svg>
