<?xml version="1.0" encoding="UTF-8"?>
<svg xmlns="http://www.w3.org/2000/svg" xmlns:xlink="http://www.w3.org/1999/xlink" width="260.160004" height="170.179993" viewBox="0 0 260.160004 170.179993">
<defs>
<clipPath id="clip-0">
<path clip-rule="nonzero" d="M 126 0 L 260.15625 0 L 260.15625 170.179688 L 126 170.179688 Z M 126 0 "/>
</clipPath>
<clipPath id="clip-1">
<path clip-rule="nonzero" d="M 158 0 L 260.15625 0 L 260.15625 170.179688 L 158 170.179688 Z M 158 0 "/>
</clipPath>
<clipPath id="clip-2">
<path clip-rule="nonzero" d="M 126 16 L 260.15625 16 L 260.15625 159 L 126 159 Z M 126 16 "/>
</clipPath>
<clipPath id="clip-3">
<path clip-rule="nonzero" d="M 158 48 L 260.15625 48 L 260.15625 128 L 158 128 Z M 158 48 "/>
</clipPath>
<clipPath id="clip-4">
<path clip-rule="nonzero" d="M 59 44 L 214 44 L 214 170.179688 L 59 170.179688 Z M 59 44 "/>
</clipPath>
</defs>
<path fill-rule="nonzero" fill="rgb(0%, 0%, 0%)" fill-opacity="1" d="M 85.503906 21.421875 L 87.722656 13.140625 C 87.816406 12.703125 87.941406 12.359375 88.066406 12.109375 C 88.441406 11.359375 88.722656 10.859375 89.753906 10.859375 C 92.003906 10.859375 92.535156 12.109375 92.535156 14.265625 L 93.003906 14.265625 L 93.347656 10.453125 L 81.347656 10.453125 L 79.628906 14.265625 L 80.128906 14.265625 C 81.097656 12.484375 82.285156 10.859375 85.035156 10.859375 C 85.816406 10.859375 86.066406 11.234375 86.066406 12.015625 C 86.066406 12.296875 86.003906 12.640625 85.910156 13.078125 L 83.628906 21.609375 C 83.347656 22.609375 82.878906 23.671875 81.878906 23.890625 C 81.597656 23.953125 81.285156 24.015625 80.941406 24.015625 L 80.847656 24.296875 L 87.128906 24.296875 L 87.222656 24.015625 C 86.441406 24.015625 85.910156 23.953125 85.597656 23.765625 C 85.285156 23.609375 85.222656 23.078125 85.222656 22.703125 C 85.222656 22.234375 85.378906 21.890625 85.503906 21.421875 Z M 85.503906 21.421875 "/>
<path fill-rule="nonzero" fill="rgb(0%, 0%, 0%)" fill-opacity="1" d="M 96.273438 24.453125 C 98.023438 24.421875 98.960938 22.890625 99.460938 21.828125 L 99.117188 21.640625 C 98.835938 22.109375 98.085938 23.578125 97.273438 23.578125 C 97.085938 23.578125 96.835938 23.265625 96.835938 23.046875 C 96.835938 22.671875 97.085938 21.890625 97.210938 21.578125 L 98.523438 17.828125 C 98.742188 17.265625 98.804688 16.984375 98.804688 16.671875 C 98.804688 16.078125 98.773438 15.609375 98.117188 15.609375 C 96.867188 15.609375 95.367188 17.109375 94.929688 18.078125 L 95.335938 18.265625 C 95.585938 17.890625 96.335938 16.765625 96.804688 16.765625 C 97.117188 16.765625 97.179688 17.015625 97.179688 17.234375 C 97.242188 17.546875 97.054688 18.109375 96.929688 18.453125 L 95.585938 22.234375 C 95.429688 22.703125 95.335938 23.140625 95.335938 23.390625 C 95.335938 24.109375 95.585938 24.453125 96.273438 24.453125 Z M 100.054688 11.984375 C 100.054688 11.421875 99.554688 10.953125 99.023438 10.953125 C 98.460938 10.953125 98.023438 11.421875 98.023438 11.984375 C 98.023438 12.546875 98.492188 12.984375 99.023438 12.984375 C 99.523438 12.984375 100.054688 12.484375 100.054688 11.984375 Z M 100.054688 11.984375 "/>
<path fill-rule="nonzero" fill="rgb(0%, 0%, 0%)" fill-opacity="1" d="M 177.640625 10.734375 L 177.109375 11.453125 C 176.703125 11.046875 176.265625 10.734375 175.828125 10.546875 C 175.359375 10.328125 174.859375 10.265625 174.296875 10.265625 C 173.703125 10.265625 173.171875 10.359375 172.640625 10.546875 C 172.140625 10.765625 171.671875 11.015625 171.296875 11.359375 C 170.921875 11.703125 170.609375 12.109375 170.359375 12.546875 C 170.140625 13.015625 170.046875 13.484375 170.046875 14.015625 C 170.046875 14.578125 170.171875 15.046875 170.421875 15.484375 C 170.703125 15.890625 170.984375 16.296875 171.359375 16.609375 C 171.734375 16.984375 172.140625 17.328125 172.578125 17.640625 C 173.046875 17.921875 173.421875 18.265625 173.796875 18.609375 C 174.171875 18.953125 174.484375 19.296875 174.734375 19.703125 C 174.984375 20.078125 175.109375 20.515625 175.109375 21.015625 C 175.109375 22.609375 174.234375 24.046875 172.171875 24.046875 C 170.078125 24.046875 169.046875 21.859375 168.890625 19.734375 L 168.453125 19.734375 L 167.703125 24.296875 L 168.140625 24.296875 L 168.703125 22.921875 C 169.703125 23.953125 170.828125 24.484375 172.140625 24.484375 C 172.796875 24.484375 173.390625 24.390625 173.953125 24.140625 C 174.484375 23.890625 174.984375 23.609375 175.390625 23.203125 C 175.828125 22.796875 176.140625 22.328125 176.359375 21.796875 C 176.609375 21.265625 176.734375 20.703125 176.734375 20.078125 C 176.734375 19.484375 176.609375 18.921875 176.359375 18.484375 C 176.140625 18.015625 175.828125 17.609375 175.453125 17.265625 C 175.109375 16.890625 174.703125 16.546875 174.265625 16.265625 C 173.828125 15.953125 173.453125 15.671875 173.078125 15.359375 C 172.703125 15.078125 172.421875 14.765625 172.171875 14.421875 C 171.921875 14.078125 171.796875 13.734375 171.796875 13.296875 C 171.796875 11.921875 172.296875 10.671875 174.359375 10.671875 C 176.078125 10.671875 176.765625 12.421875 176.828125 14.234375 L 177.265625 14.234375 L 178.015625 10.734375 Z M 177.640625 10.734375 "/>
<path fill-rule="nonzero" fill="rgb(0%, 0%, 0%)" fill-opacity="1" d="M 186.03125 17.0625 L 186.03125 16.53125 L 185.46875 16.53125 C 184.03125 16.53125 184.03125 16.34375 184.03125 15.875 L 184.03125 7.8125 C 184.03125 7.4375 184 7.40625 183.59375 7.40625 C 182.65625 8.34375 181.34375 8.34375 180.75 8.34375 L 180.75 8.875 C 181.09375 8.875 182.0625 8.875 182.84375 8.46875 L 182.84375 15.875 C 182.84375 16.34375 182.84375 16.53125 181.40625 16.53125 L 180.84375 16.53125 L 180.84375 17.0625 L 183.4375 17 Z M 186.03125 17.0625 "/>
<path fill-rule="nonzero" fill="rgb(0%, 0%, 0%)" fill-opacity="1" d="M 84.945312 88.640625 L 87.164062 80.359375 C 87.257812 79.921875 87.382812 79.578125 87.507812 79.328125 C 87.882812 78.578125 88.164062 78.078125 89.195312 78.078125 C 91.445312 78.078125 91.976562 79.328125 91.976562 81.484375 L 92.445312 81.484375 L 92.789062 77.671875 L 80.789062 77.671875 L 79.070312 81.484375 L 79.570312 81.484375 C 80.539062 79.703125 81.726562 78.078125 84.476562 78.078125 C 85.257812 78.078125 85.507812 78.453125 85.507812 79.234375 C 85.507812 79.515625 85.445312 79.859375 85.351562 80.296875 L 83.070312 88.828125 C 82.789062 89.828125 82.320312 90.890625 81.320312 91.109375 C 81.039062 91.171875 80.726562 91.234375 80.382812 91.234375 L 80.289062 91.515625 L 86.570312 91.515625 L 86.664062 91.234375 C 85.882812 91.234375 85.351562 91.171875 85.039062 90.984375 C 84.726562 90.828125 84.664062 90.296875 84.664062 89.921875 C 84.664062 89.453125 84.820312 89.109375 84.945312 88.640625 Z M 84.945312 88.640625 "/>
<path fill-rule="nonzero" fill="rgb(0%, 0%, 0%)" fill-opacity="1" d="M 101 79.203125 C 101 78.640625 100.5625 78.171875 99.96875 78.171875 C 99.4375 78.171875 98.96875 78.640625 98.96875 79.203125 C 98.96875 79.734375 99.46875 80.203125 99.96875 80.203125 C 100.46875 80.203125 101 79.703125 101 79.203125 Z M 93.09375 94.484375 C 93.09375 95.234375 93.84375 95.703125 94.625 95.703125 C 95.53125 95.703125 96.25 95.078125 96.75 94.578125 C 97.34375 93.890625 97.84375 93.015625 98.125 92.078125 L 99.4375 87.203125 C 99.6875 86.390625 99.875 85.703125 99.96875 85.140625 C 100.15625 84.546875 100.21875 84.078125 100.21875 83.734375 C 100.21875 83.234375 100 82.828125 99.46875 82.828125 C 98.34375 82.828125 96.84375 84.328125 96.375 85.296875 L 96.75 85.546875 C 97 85.140625 97.65625 83.984375 98.28125 83.984375 C 98.5 83.984375 98.65625 84.296875 98.65625 84.515625 C 98.65625 85.140625 98.5 85.546875 98.34375 86.171875 L 96.375 93.328125 C 96.25 93.921875 95.84375 95.140625 95.1875 95.140625 C 95.0625 95.140625 94.9375 95.078125 94.875 94.953125 C 94.5625 94.578125 94.8125 93.515625 93.875 93.515625 C 93.3125 93.515625 93.09375 93.953125 93.09375 94.484375 Z M 93.09375 94.484375 "/>
<path fill-rule="nonzero" fill="rgb(0%, 0%, 0%)" fill-opacity="1" d="M 177.640625 77.953125 L 177.109375 78.671875 C 176.703125 78.265625 176.265625 77.953125 175.828125 77.765625 C 175.359375 77.546875 174.859375 77.484375 174.296875 77.484375 C 173.703125 77.484375 173.171875 77.578125 172.640625 77.765625 C 172.140625 77.984375 171.671875 78.234375 171.296875 78.578125 C 170.921875 78.921875 170.609375 79.328125 170.359375 79.765625 C 170.140625 80.234375 170.046875 80.703125 170.046875 81.234375 C 170.046875 81.796875 170.171875 82.265625 170.421875 82.703125 C 170.703125 83.109375 170.984375 83.515625 171.359375 83.828125 C 171.734375 84.203125 172.140625 84.546875 172.578125 84.859375 C 173.046875 85.140625 173.421875 85.484375 173.796875 85.828125 C 174.171875 86.171875 174.484375 86.515625 174.734375 86.921875 C 174.984375 87.296875 175.109375 87.734375 175.109375 88.234375 C 175.109375 89.828125 174.234375 91.265625 172.171875 91.265625 C 170.078125 91.265625 169.046875 89.078125 168.890625 86.953125 L 168.453125 86.953125 L 167.703125 91.515625 L 168.140625 91.515625 L 168.703125 90.140625 C 169.703125 91.171875 170.828125 91.703125 172.140625 91.703125 C 172.796875 91.703125 173.390625 91.609375 173.953125 91.359375 C 174.484375 91.109375 174.984375 90.828125 175.390625 90.421875 C 175.828125 90.015625 176.140625 89.546875 176.359375 89.015625 C 176.609375 88.484375 176.734375 87.921875 176.734375 87.296875 C 176.734375 86.703125 176.609375 86.140625 176.359375 85.703125 C 176.140625 85.234375 175.828125 84.828125 175.453125 84.484375 C 175.109375 84.109375 174.703125 83.765625 174.265625 83.484375 C 173.828125 83.171875 173.453125 82.890625 173.078125 82.578125 C 172.703125 82.296875 172.421875 81.984375 172.171875 81.640625 C 171.921875 81.296875 171.796875 80.953125 171.796875 80.515625 C 171.796875 79.140625 172.296875 77.890625 174.359375 77.890625 C 176.078125 77.890625 176.765625 79.640625 176.828125 81.453125 L 177.265625 81.453125 L 178.015625 77.953125 Z M 177.640625 77.953125 "/>
<path fill-rule="nonzero" fill="rgb(0%, 0%, 0%)" fill-opacity="1" d="M 186.03125 84.285156 L 186.03125 83.753906 L 185.46875 83.753906 C 184.03125 83.753906 184.03125 83.566406 184.03125 83.097656 L 184.03125 75.035156 C 184.03125 74.660156 184 74.628906 183.59375 74.628906 C 182.65625 75.566406 181.34375 75.566406 180.75 75.566406 L 180.75 76.097656 C 181.09375 76.097656 182.0625 76.097656 182.84375 75.691406 L 182.84375 83.097656 C 182.84375 83.566406 182.84375 83.753906 181.40625 83.753906 L 180.84375 83.753906 L 180.84375 84.285156 L 183.4375 84.222656 Z M 186.03125 84.285156 "/>
<path fill-rule="nonzero" fill="rgb(0%, 0%, 0%)" fill-opacity="1" d="M 84.4375 159.855469 L 86.65625 151.574219 C 86.75 151.136719 86.875 150.792969 87 150.542969 C 87.375 149.792969 87.65625 149.292969 88.6875 149.292969 C 90.9375 149.292969 91.46875 150.542969 91.46875 152.699219 L 91.9375 152.699219 L 92.28125 148.886719 L 80.28125 148.886719 L 78.5625 152.699219 L 79.0625 152.699219 C 80.03125 150.917969 81.21875 149.292969 83.96875 149.292969 C 84.75 149.292969 85 149.667969 85 150.449219 C 85 150.730469 84.9375 151.074219 84.84375 151.511719 L 82.5625 160.042969 C 82.28125 161.042969 81.8125 162.105469 80.8125 162.324219 C 80.53125 162.386719 80.21875 162.449219 79.875 162.449219 L 79.78125 162.730469 L 86.0625 162.730469 L 86.15625 162.449219 C 85.375 162.449219 84.84375 162.386719 84.53125 162.199219 C 84.21875 162.042969 84.15625 161.511719 84.15625 161.136719 C 84.15625 160.667969 84.3125 160.324219 84.4375 159.855469 Z M 84.4375 159.855469 "/>
<path fill-rule="nonzero" fill="rgb(0%, 0%, 0%)" fill-opacity="1" d="M 99.269531 154.011719 C 98.425781 154.011719 97.519531 154.730469 96.894531 155.574219 L 96.738281 155.542969 L 98.800781 148.042969 L 95.707031 148.230469 L 95.613281 148.480469 C 96.425781 148.480469 97.050781 148.667969 97.050781 149.261719 C 97.050781 149.386719 97.019531 149.605469 96.957031 149.855469 L 93.425781 162.730469 L 94.800781 162.730469 L 95.769531 159.230469 L 96.269531 159.074219 L 97.332031 161.636719 C 97.550781 162.105469 97.738281 162.449219 97.894531 162.636719 C 98.082031 162.824219 98.269531 162.886719 98.550781 162.886719 C 99.832031 162.886719 100.269531 162.074219 100.957031 160.449219 L 100.613281 160.292969 C 100.207031 161.105469 99.925781 161.917969 99.332031 161.917969 C 99.050781 161.917969 98.738281 161.167969 98.519531 160.542969 L 97.644531 158.417969 L 98.050781 158.230469 C 98.957031 157.792969 99.769531 157.355469 100.300781 156.855469 C 100.769531 156.355469 101.082031 155.855469 101.082031 155.355469 C 101.082031 154.449219 100.425781 154.011719 99.269531 154.011719 Z M 96.019531 158.605469 C 96.175781 157.792969 96.894531 156.230469 97.394531 155.699219 C 97.738281 155.261719 98.488281 154.449219 99.113281 154.449219 C 99.863281 154.449219 99.863281 155.105469 99.863281 155.511719 C 99.832031 157.011719 97.144531 158.136719 96.019531 158.605469 Z M 96.019531 158.605469 "/>
<path fill-rule="nonzero" fill="rgb(0%, 0%, 0%)" fill-opacity="1" d="M 177.640625 149.167969 L 177.109375 149.886719 C 176.703125 149.480469 176.265625 149.167969 175.828125 148.980469 C 175.359375 148.761719 174.859375 148.699219 174.296875 148.699219 C 173.703125 148.699219 173.171875 148.792969 172.640625 148.980469 C 172.140625 149.199219 171.671875 149.449219 171.296875 149.792969 C 170.921875 150.136719 170.609375 150.542969 170.359375 150.980469 C 170.140625 151.449219 170.046875 151.917969 170.046875 152.449219 C 170.046875 153.011719 170.171875 153.480469 170.421875 153.917969 C 170.703125 154.324219 170.984375 154.730469 171.359375 155.042969 C 171.734375 155.417969 172.140625 155.761719 172.578125 156.074219 C 173.046875 156.355469 173.421875 156.699219 173.796875 157.042969 C 174.171875 157.386719 174.484375 157.730469 174.734375 158.136719 C 174.984375 158.511719 175.109375 158.949219 175.109375 159.449219 C 175.109375 161.042969 174.234375 162.480469 172.171875 162.480469 C 170.078125 162.480469 169.046875 160.292969 168.890625 158.167969 L 168.453125 158.167969 L 167.703125 162.730469 L 168.140625 162.730469 L 168.703125 161.355469 C 169.703125 162.386719 170.828125 162.917969 172.140625 162.917969 C 172.796875 162.917969 173.390625 162.824219 173.953125 162.574219 C 174.484375 162.324219 174.984375 162.042969 175.390625 161.636719 C 175.828125 161.230469 176.140625 160.761719 176.359375 160.230469 C 176.609375 159.699219 176.734375 159.136719 176.734375 158.511719 C 176.734375 157.917969 176.609375 157.355469 176.359375 156.917969 C 176.140625 156.449219 175.828125 156.042969 175.453125 155.699219 C 175.109375 155.324219 174.703125 154.980469 174.265625 154.699219 C 173.828125 154.386719 173.453125 154.105469 173.078125 153.792969 C 172.703125 153.511719 172.421875 153.199219 172.171875 152.855469 C 171.921875 152.511719 171.796875 152.167969 171.796875 151.730469 C 171.796875 150.355469 172.296875 149.105469 174.359375 149.105469 C 176.078125 149.105469 176.765625 150.855469 176.828125 152.667969 L 177.265625 152.667969 L 178.015625 149.167969 Z M 177.640625 149.167969 "/>
<path fill-rule="nonzero" fill="rgb(0%, 0%, 0%)" fill-opacity="1" d="M 186.03125 155.5 L 186.03125 154.96875 L 185.46875 154.96875 C 184.03125 154.96875 184.03125 154.78125 184.03125 154.3125 L 184.03125 146.25 C 184.03125 145.875 184 145.84375 183.59375 145.84375 C 182.65625 146.78125 181.34375 146.78125 180.75 146.78125 L 180.75 147.3125 C 181.09375 147.3125 182.0625 147.3125 182.84375 146.90625 L 182.84375 154.3125 C 182.84375 154.78125 182.84375 154.96875 181.40625 154.96875 L 180.84375 154.96875 L 180.84375 155.5 L 183.4375 155.4375 Z M 186.03125 155.5 "/>
<path fill="none" stroke-width="2.49017" stroke-linecap="butt" stroke-linejoin="miter" stroke="rgb(0%, 0%, 0%)" stroke-opacity="1" stroke-miterlimit="10" d="M -11.525345 33.056061 L 12.52153 33.056061 " transform="matrix(2, 0, 0, -2, 133.496002, 85.283997)"/>
<path fill="none" stroke-width="1.37434" stroke-linecap="butt" stroke-linejoin="miter" stroke="rgb(100%, 100%, 100%)" stroke-opacity="1" stroke-miterlimit="10" d="M -11.525345 33.056061 L 12.52153 33.056061 " transform="matrix(2, 0, 0, -2, 133.496002, 85.283997)"/>
<path fill-rule="nonzero" fill="rgb(0%, 0%, 0%)" fill-opacity="1" d="M 131.519531 14.320312 L 131.519531 13.789062 C 130.675781 13.789062 130.550781 13.789062 130.550781 13.195312 L 130.550781 7.914062 L 128.394531 8.070312 L 128.394531 8.601562 C 129.332031 8.601562 129.457031 8.695312 129.457031 9.382812 L 129.457031 13.164062 C 129.457031 13.789062 129.300781 13.789062 128.363281 13.789062 L 128.363281 14.320312 C 128.363281 14.320312 129.425781 14.257812 129.988281 14.257812 C 130.488281 14.257812 131.019531 14.289062 131.519531 14.320312 Z M 130.738281 5.570312 C 130.738281 5.101562 130.363281 4.726562 129.894531 4.726562 C 129.425781 4.726562 129.082031 5.132812 129.082031 5.570312 C 129.082031 6.007812 129.425781 6.414062 129.894531 6.414062 C 130.394531 6.414062 130.738281 6.007812 130.738281 5.570312 Z M 130.738281 5.570312 "/>
<path fill-rule="nonzero" fill="rgb(0%, 0%, 0%)" fill-opacity="1" d="M 140.691406 14.320312 L 140.691406 13.789062 C 139.722656 13.789062 139.597656 13.695312 139.597656 12.976562 L 139.597656 4.226562 L 137.441406 4.382812 L 137.441406 4.914062 C 138.410156 4.914062 138.503906 5.007812 138.503906 5.726562 L 138.503906 8.726562 C 137.972656 8.226562 137.285156 7.914062 136.472656 7.914062 C 134.535156 7.914062 132.910156 9.351562 132.910156 11.195312 C 132.910156 13.007812 134.472656 14.476562 136.316406 14.476562 C 137.503906 14.476562 138.222656 13.820312 138.472656 13.570312 L 138.472656 14.476562 Z M 138.472656 12.789062 C 138.066406 13.476562 137.347656 14.070312 136.410156 14.070312 C 135.566406 14.070312 135.003906 13.570312 134.722656 13.164062 C 134.410156 12.726562 134.253906 12.132812 134.253906 11.195312 C 134.253906 10.882812 134.253906 9.789062 134.847656 9.101562 C 135.410156 8.445312 136.128906 8.320312 136.566406 8.320312 C 137.253906 8.320312 137.878906 8.632812 138.285156 9.164062 C 138.472656 9.382812 138.472656 9.414062 138.472656 9.695312 Z M 138.472656 12.789062 "/>
<path fill="none" stroke-width="0.5579" stroke-linecap="butt" stroke-linejoin="miter" stroke="rgb(0%, 0%, 0%)" stroke-opacity="1" stroke-miterlimit="10" d="M -21.47847 26.571686 L -21.47847 8.243561 " transform="matrix(2, 0, 0, -2, 133.496002, 85.283997)"/>
<path fill="none" stroke-width="0.5579" stroke-linecap="round" stroke-linejoin="round" stroke="rgb(0%, 0%, 0%)" stroke-opacity="1" stroke-miterlimit="10" d="M -2.902012 3.347279 C -2.370762 1.339466 -1.191074 0.390247 0.000331879 -0.000377655 C -1.191074 -0.391003 -2.370762 -1.340221 -2.902012 -3.348034 " transform="matrix(0, 2, 2, 0, 90.539818, 69.350899)"/>
<path fill-rule="nonzero" fill="rgb(0%, 0%, 0%)" fill-opacity="1" d="M 101.242188 46.460938 C 101.429688 46.367188 101.429688 46.304688 101.648438 46.304688 C 101.742188 46.304688 101.835938 46.304688 101.898438 46.367188 C 102.085938 46.523438 102.210938 46.992188 102.554688 46.992188 C 102.835938 46.992188 103.085938 46.742188 103.085938 46.398438 C 103.085938 45.992188 102.585938 45.648438 102.148438 45.648438 C 101.804688 45.648438 101.460938 45.835938 101.085938 46.273438 C 100.679688 45.835938 100.210938 45.648438 99.648438 45.648438 C 98.804688 45.648438 98.179688 45.992188 97.742188 46.429688 C 97.304688 46.867188 96.898438 47.460938 96.898438 48.304688 C 96.898438 48.992188 97.148438 49.523438 97.742188 49.929688 L 97.710938 49.992188 C 97.179688 50.148438 96.929688 50.304688 96.742188 50.460938 C 96.523438 50.617188 96.398438 50.835938 96.398438 51.054688 C 96.398438 51.398438 96.523438 51.679688 96.929688 51.867188 C 97.335938 52.054688 97.960938 52.210938 98.804688 52.398438 C 99.273438 52.460938 99.648438 52.617188 99.898438 52.773438 C 100.179688 52.960938 100.304688 53.148438 100.304688 53.367188 C 100.304688 54.117188 99.210938 54.710938 98.148438 54.710938 C 96.960938 54.742188 96.210938 54.242188 96.210938 53.460938 C 96.210938 52.960938 96.492188 52.617188 96.929688 52.429688 C 96.679688 52.335938 96.617188 52.273438 96.335938 52.273438 C 95.710938 52.273438 95.304688 52.773438 95.304688 53.398438 C 95.304688 53.648438 95.304688 53.867188 95.429688 54.054688 C 95.960938 54.742188 96.898438 55.054688 98.117188 55.054688 C 99.054688 55.054688 99.804688 54.835938 100.398438 54.460938 C 100.835938 54.148438 101.148438 53.710938 101.148438 52.992188 C 101.148438 52.179688 100.054688 51.679688 99.429688 51.523438 C 98.929688 51.367188 98.335938 51.210938 97.929688 51.054688 C 97.742188 50.992188 97.648438 50.867188 97.648438 50.679688 C 97.648438 50.335938 98.242188 50.335938 98.710938 50.273438 C 100.335938 50.148438 101.367188 49.085938 101.367188 47.335938 C 101.367188 47.023438 101.335938 46.710938 101.242188 46.460938 Z M 97.867188 48.742188 C 97.867188 47.429688 98.492188 45.960938 99.523438 45.960938 C 100.242188 45.960938 100.429688 46.585938 100.429688 47.117188 C 100.429688 48.554688 99.804688 49.898438 98.773438 49.898438 C 98.210938 49.898438 97.867188 49.304688 97.867188 48.742188 Z M 97.867188 48.742188 "/>
<path fill-rule="nonzero" fill="rgb(0%, 0%, 0%)" fill-opacity="1" d="M 105.988281 47.449219 C 105.988281 47.167969 105.769531 46.886719 105.425781 46.886719 C 105.144531 46.886719 104.863281 47.136719 104.863281 47.449219 C 104.863281 47.761719 105.144531 48.011719 105.425781 48.011719 C 105.707031 48.011719 105.988281 47.730469 105.988281 47.449219 Z M 101.644531 55.855469 C 101.644531 56.261719 102.050781 56.542969 102.488281 56.542969 C 102.988281 56.542969 103.394531 56.199219 103.675781 55.917969 C 103.988281 55.542969 104.269531 55.074219 104.394531 54.542969 L 105.144531 51.855469 C 105.269531 51.417969 105.363281 51.042969 105.425781 50.730469 C 105.519531 50.417969 105.582031 50.136719 105.582031 49.949219 C 105.582031 49.667969 105.457031 49.449219 105.144531 49.449219 C 104.519531 49.449219 103.707031 50.292969 103.457031 50.792969 L 103.644531 50.949219 C 103.800781 50.730469 104.175781 50.105469 104.519531 50.105469 C 104.613281 50.105469 104.707031 50.261719 104.707031 50.386719 C 104.707031 50.730469 104.613281 50.949219 104.550781 51.292969 L 103.457031 55.230469 C 103.363281 55.542969 103.144531 56.230469 102.800781 56.230469 C 102.738281 56.230469 102.675781 56.167969 102.613281 56.105469 C 102.457031 55.917969 102.582031 55.324219 102.082031 55.324219 C 101.769531 55.324219 101.644531 55.574219 101.644531 55.855469 Z M 101.644531 55.855469 "/>
<path fill-rule="nonzero" fill="rgb(0%, 0%, 0%)" fill-opacity="1" d="M 107.5 54.324219 C 108.46875 54.292969 108.96875 53.449219 109.25 52.855469 L 109.0625 52.761719 C 108.90625 53.011719 108.5 53.824219 108.03125 53.824219 C 107.9375 53.824219 107.8125 53.667969 107.8125 53.542969 C 107.8125 53.324219 107.9375 52.917969 108 52.730469 L 108.75 50.667969 C 108.84375 50.355469 108.875 50.230469 108.875 50.042969 C 108.875 49.699219 108.875 49.449219 108.53125 49.449219 C 107.8125 49.449219 107 50.261719 106.75 50.792969 L 106.96875 50.917969 C 107.125 50.699219 107.53125 50.105469 107.78125 50.105469 C 107.96875 50.105469 108 50.230469 108 50.324219 C 108.03125 50.511719 107.9375 50.824219 107.84375 51.011719 L 107.125 53.074219 C 107.03125 53.355469 106.96875 53.605469 106.96875 53.730469 C 106.96875 54.105469 107.125 54.324219 107.5 54.324219 Z M 109.5625 47.449219 C 109.5625 47.167969 109.3125 46.886719 109 46.886719 C 108.6875 46.886719 108.4375 47.136719 108.4375 47.449219 C 108.4375 47.761719 108.71875 48.011719 109 48.011719 C 109.28125 48.011719 109.5625 47.730469 109.5625 47.449219 Z M 109.5625 47.449219 "/>
<path fill="none" stroke-width="0.5579" stroke-linecap="butt" stroke-linejoin="miter" stroke="rgb(0%, 0%, 0%)" stroke-opacity="1" stroke-miterlimit="10" d="M -31.431595 27.00528 C -61.330032 8.829498 -61.330032 -11.936127 -32.439407 -29.498627 " transform="matrix(2, 0, 0, -2, 133.496002, 85.283997)"/>
<path fill="none" stroke-width="0.5579" stroke-linecap="round" stroke-linejoin="round" stroke="rgb(0%, 0%, 0%)" stroke-opacity="1" stroke-miterlimit="10" d="M -2.901325 3.345249 C -2.372341 1.339825 -1.190986 0.389395 0.00181945 -0.00088499 C -1.191084 -0.392445 -2.371351 -1.338656 -2.900878 -3.347616 " transform="matrix(1.70884, 1.039, 1.039, -1.70884, 69.09156, 144.574722)"/>
<path fill-rule="nonzero" fill="rgb(0%, 0%, 0%)" fill-opacity="1" d="M 10.144531 84.492188 C 10.332031 84.398438 10.332031 84.335938 10.550781 84.335938 C 10.644531 84.335938 10.738281 84.335938 10.800781 84.398438 C 10.988281 84.554688 11.113281 85.023438 11.457031 85.023438 C 11.738281 85.023438 11.988281 84.773438 11.988281 84.429688 C 11.988281 84.023438 11.488281 83.679688 11.050781 83.679688 C 10.707031 83.679688 10.363281 83.867188 9.988281 84.304688 C 9.582031 83.867188 9.113281 83.679688 8.550781 83.679688 C 7.707031 83.679688 7.082031 84.023438 6.644531 84.460938 C 6.207031 84.898438 5.800781 85.492188 5.800781 86.335938 C 5.800781 87.023438 6.050781 87.554688 6.644531 87.960938 L 6.613281 88.023438 C 6.082031 88.179688 5.832031 88.335938 5.644531 88.492188 C 5.425781 88.648438 5.300781 88.867188 5.300781 89.085938 C 5.300781 89.429688 5.425781 89.710938 5.832031 89.898438 C 6.238281 90.085938 6.863281 90.242188 7.707031 90.429688 C 8.175781 90.492188 8.550781 90.648438 8.800781 90.804688 C 9.082031 90.992188 9.207031 91.179688 9.207031 91.398438 C 9.207031 92.148438 8.113281 92.742188 7.050781 92.742188 C 5.863281 92.773438 5.113281 92.273438 5.113281 91.492188 C 5.113281 90.992188 5.394531 90.648438 5.832031 90.460938 C 5.582031 90.367188 5.519531 90.304688 5.238281 90.304688 C 4.613281 90.304688 4.207031 90.804688 4.207031 91.429688 C 4.207031 91.679688 4.207031 91.898438 4.332031 92.085938 C 4.863281 92.773438 5.800781 93.085938 7.019531 93.085938 C 7.957031 93.085938 8.707031 92.867188 9.300781 92.492188 C 9.738281 92.179688 10.050781 91.742188 10.050781 91.023438 C 10.050781 90.210938 8.957031 89.710938 8.332031 89.554688 C 7.832031 89.398438 7.238281 89.242188 6.832031 89.085938 C 6.644531 89.023438 6.550781 88.898438 6.550781 88.710938 C 6.550781 88.367188 7.144531 88.367188 7.613281 88.304688 C 9.238281 88.179688 10.269531 87.117188 10.269531 85.367188 C 10.269531 85.054688 10.238281 84.742188 10.144531 84.492188 Z M 6.769531 86.773438 C 6.769531 85.460938 7.394531 83.992188 8.425781 83.992188 C 9.144531 83.992188 9.332031 84.617188 9.332031 85.148438 C 9.332031 86.585938 8.707031 87.929688 7.675781 87.929688 C 7.113281 87.929688 6.769531 87.335938 6.769531 86.773438 Z M 6.769531 86.773438 "/>
<path fill-rule="nonzero" fill="rgb(0%, 0%, 0%)" fill-opacity="1" d="M 14.214844 88.09375 C 13.746094 88.09375 13.277344 88.46875 12.933594 88.9375 L 12.839844 88.9375 L 13.964844 84.8125 L 12.277344 84.875 L 12.214844 85.03125 C 12.652344 85.03125 13.027344 85.15625 13.027344 85.46875 C 13.027344 85.53125 12.996094 85.65625 12.933594 85.8125 L 11.027344 92.875 L 11.777344 92.875 L 12.308594 90.9375 L 12.558594 90.84375 L 13.152344 92.28125 C 13.277344 92.53125 13.371094 92.71875 13.464844 92.8125 C 13.558594 92.90625 13.683594 92.96875 13.839844 92.96875 C 14.527344 92.96875 14.777344 92.5 15.152344 91.625 L 14.964844 91.53125 C 14.746094 91.96875 14.589844 92.4375 14.246094 92.4375 C 14.121094 92.4375 13.933594 92 13.808594 91.6875 L 13.339844 90.5 L 13.558594 90.40625 C 14.058594 90.15625 14.496094 89.9375 14.777344 89.65625 C 15.058594 89.375 15.214844 89.09375 15.214844 88.8125 C 15.214844 88.3125 14.871094 88.09375 14.214844 88.09375 Z M 12.433594 90.59375 C 12.527344 90.15625 12.933594 89.3125 13.183594 89 C 13.371094 88.78125 13.777344 88.3125 14.152344 88.3125 C 14.558594 88.3125 14.558594 88.6875 14.558594 88.90625 C 14.527344 89.71875 13.058594 90.34375 12.433594 90.59375 Z M 12.433594 90.59375 "/>
<path fill-rule="nonzero" fill="rgb(0%, 0%, 0%)" fill-opacity="1" d="M 16.96875 92.96875 C 17.9375 92.9375 18.4375 92.09375 18.71875 91.5 L 18.53125 91.40625 C 18.375 91.65625 17.96875 92.46875 17.5 92.46875 C 17.40625 92.46875 17.28125 92.3125 17.28125 92.1875 C 17.28125 91.96875 17.40625 91.5625 17.46875 91.375 L 18.21875 89.3125 C 18.3125 89 18.34375 88.875 18.34375 88.6875 C 18.34375 88.34375 18.34375 88.09375 18 88.09375 C 17.28125 88.09375 16.46875 88.90625 16.21875 89.4375 L 16.4375 89.5625 C 16.59375 89.34375 17 88.75 17.25 88.75 C 17.4375 88.75 17.46875 88.875 17.46875 88.96875 C 17.5 89.15625 17.40625 89.46875 17.3125 89.65625 L 16.59375 91.71875 C 16.5 92 16.4375 92.25 16.4375 92.375 C 16.4375 92.75 16.59375 92.96875 16.96875 92.96875 Z M 19.03125 86.09375 C 19.03125 85.8125 18.78125 85.53125 18.46875 85.53125 C 18.15625 85.53125 17.90625 85.78125 17.90625 86.09375 C 17.90625 86.40625 18.1875 86.65625 18.46875 86.65625 C 18.75 86.65625 19.03125 86.375 19.03125 86.09375 Z M 19.03125 86.09375 "/>
<path fill="none" stroke-width="2.49017" stroke-linecap="butt" stroke-linejoin="miter" stroke="rgb(0%, 0%, 0%)" stroke-opacity="1" stroke-miterlimit="10" d="M 22.24028 26.571686 L 22.24028 9.03653 " transform="matrix(2, 0, 0, -2, 133.496002, 85.283997)"/>
<path fill="none" stroke-width="1.37434" stroke-linecap="butt" stroke-linejoin="miter" stroke="rgb(100%, 100%, 100%)" stroke-opacity="1" stroke-miterlimit="10" d="M 22.24028 26.571686 L 22.24028 9.03653 " transform="matrix(2, 0, 0, -2, 133.496002, 85.283997)"/>
<g clip-path="url(#clip-0)">
<path fill="none" stroke-width="2.49017" stroke-linecap="butt" stroke-linejoin="miter" stroke="rgb(0%, 0%, 0%)" stroke-opacity="1" stroke-miterlimit="10" d="M 31.962936 27.145905 C 62.091843 8.829498 62.091843 -11.936127 31.962936 -30.252533 " transform="matrix(2, 0, 0, -2, 133.496002, 85.283997)"/>
</g>
<g clip-path="url(#clip-1)">
<path fill="none" stroke-width="1.37434" stroke-linecap="butt" stroke-linejoin="miter" stroke="rgb(100%, 100%, 100%)" stroke-opacity="1" stroke-miterlimit="10" d="M 31.962936 27.145905 C 62.091843 8.829498 62.091843 -11.936127 31.962936 -30.252533 " transform="matrix(2, 0, 0, -2, 133.496002, 85.283997)"/>
</g>
<path fill="none" stroke-width="0.5579" stroke-linecap="butt" stroke-linejoin="miter" stroke="rgb(0%, 0%, 0%)" stroke-opacity="1" stroke-miterlimit="10" d="M -11.248001 -0.553314 L 11.962936 -0.553314 " transform="matrix(2, 0, 0, -2, 133.496002, 85.283997)"/>
<path fill="none" stroke-width="0.5579" stroke-linecap="round" stroke-linejoin="round" stroke="rgb(0%, 0%, 0%)" stroke-opacity="1" stroke-miterlimit="10" d="M -2.90287 3.345539 C -2.37162 1.337727 -1.191933 0.392414 -0.000526428 0.00178909 C -1.191933 -0.388836 -2.37162 -1.338055 -2.90287 -3.345867 " transform="matrix(2, 0, 0, -2, 157.977615, 86.394203)"/>
<path fill-rule="nonzero" fill="rgb(0%, 0%, 0%)" fill-opacity="1" d="M 132.644531 71.492188 C 132.832031 71.398438 132.832031 71.335938 133.050781 71.335938 C 133.144531 71.335938 133.238281 71.335938 133.300781 71.398438 C 133.488281 71.554688 133.613281 72.023438 133.957031 72.023438 C 134.238281 72.023438 134.488281 71.773438 134.488281 71.429688 C 134.488281 71.023438 133.988281 70.679688 133.550781 70.679688 C 133.207031 70.679688 132.863281 70.867188 132.488281 71.304688 C 132.082031 70.867188 131.613281 70.679688 131.050781 70.679688 C 130.207031 70.679688 129.582031 71.023438 129.144531 71.460938 C 128.707031 71.898438 128.300781 72.492188 128.300781 73.335938 C 128.300781 74.023438 128.550781 74.554688 129.144531 74.960938 L 129.113281 75.023438 C 128.582031 75.179688 128.332031 75.335938 128.144531 75.492188 C 127.925781 75.648438 127.800781 75.867188 127.800781 76.085938 C 127.800781 76.429688 127.925781 76.710938 128.332031 76.898438 C 128.738281 77.085938 129.363281 77.242188 130.207031 77.429688 C 130.675781 77.492188 131.050781 77.648438 131.300781 77.804688 C 131.582031 77.992188 131.707031 78.179688 131.707031 78.398438 C 131.707031 79.148438 130.613281 79.742188 129.550781 79.742188 C 128.363281 79.773438 127.613281 79.273438 127.613281 78.492188 C 127.613281 77.992188 127.894531 77.648438 128.332031 77.460938 C 128.082031 77.367188 128.019531 77.304688 127.738281 77.304688 C 127.113281 77.304688 126.707031 77.804688 126.707031 78.429688 C 126.707031 78.679688 126.707031 78.898438 126.832031 79.085938 C 127.363281 79.773438 128.300781 80.085938 129.519531 80.085938 C 130.457031 80.085938 131.207031 79.867188 131.800781 79.492188 C 132.238281 79.179688 132.550781 78.742188 132.550781 78.023438 C 132.550781 77.210938 131.457031 76.710938 130.832031 76.554688 C 130.332031 76.398438 129.738281 76.242188 129.332031 76.085938 C 129.144531 76.023438 129.050781 75.898438 129.050781 75.710938 C 129.050781 75.367188 129.644531 75.367188 130.113281 75.304688 C 131.738281 75.179688 132.769531 74.117188 132.769531 72.367188 C 132.769531 72.054688 132.738281 71.742188 132.644531 71.492188 Z M 129.269531 73.773438 C 129.269531 72.460938 129.894531 70.992188 130.925781 70.992188 C 131.644531 70.992188 131.832031 71.617188 131.832031 72.148438 C 131.832031 73.585938 131.207031 74.929688 130.175781 74.929688 C 129.613281 74.929688 129.269531 74.335938 129.269531 73.773438 Z M 129.269531 73.773438 "/>
<path fill-rule="nonzero" fill="rgb(0%, 0%, 0%)" fill-opacity="1" d="M 134.496094 79.355469 C 135.464844 79.324219 135.964844 78.480469 136.246094 77.886719 L 136.058594 77.792969 C 135.902344 78.042969 135.496094 78.855469 135.027344 78.855469 C 134.933594 78.855469 134.808594 78.699219 134.808594 78.574219 C 134.808594 78.355469 134.933594 77.949219 134.996094 77.761719 L 135.746094 75.699219 C 135.839844 75.386719 135.871094 75.261719 135.871094 75.074219 C 135.871094 74.730469 135.871094 74.480469 135.527344 74.480469 C 134.808594 74.480469 133.996094 75.292969 133.746094 75.824219 L 133.964844 75.949219 C 134.121094 75.730469 134.527344 75.136719 134.777344 75.136719 C 134.964844 75.136719 134.996094 75.261719 134.996094 75.355469 C 135.027344 75.542969 134.933594 75.855469 134.839844 76.042969 L 134.121094 78.105469 C 134.027344 78.386719 133.964844 78.636719 133.964844 78.761719 C 133.964844 79.136719 134.121094 79.355469 134.496094 79.355469 Z M 136.558594 72.480469 C 136.558594 72.199219 136.308594 71.917969 135.996094 71.917969 C 135.683594 71.917969 135.433594 72.167969 135.433594 72.480469 C 135.433594 72.792969 135.714844 73.042969 135.996094 73.042969 C 136.277344 73.042969 136.558594 72.761719 136.558594 72.480469 Z M 136.558594 72.480469 "/>
<path fill-rule="nonzero" fill="rgb(0%, 0%, 0%)" fill-opacity="1" d="M 141.191406 72.480469 C 141.191406 72.199219 140.972656 71.917969 140.628906 71.917969 C 140.347656 71.917969 140.066406 72.167969 140.066406 72.480469 C 140.066406 72.792969 140.347656 73.042969 140.628906 73.042969 C 140.910156 73.042969 141.191406 72.761719 141.191406 72.480469 Z M 136.847656 80.886719 C 136.847656 81.292969 137.253906 81.574219 137.691406 81.574219 C 138.191406 81.574219 138.597656 81.230469 138.878906 80.949219 C 139.191406 80.574219 139.472656 80.105469 139.597656 79.574219 L 140.347656 76.886719 C 140.472656 76.449219 140.566406 76.074219 140.628906 75.761719 C 140.722656 75.449219 140.785156 75.167969 140.785156 74.980469 C 140.785156 74.699219 140.660156 74.480469 140.347656 74.480469 C 139.722656 74.480469 138.910156 75.324219 138.660156 75.824219 L 138.847656 75.980469 C 139.003906 75.761719 139.378906 75.136719 139.722656 75.136719 C 139.816406 75.136719 139.910156 75.292969 139.910156 75.417969 C 139.910156 75.761719 139.816406 75.980469 139.753906 76.324219 L 138.660156 80.261719 C 138.566406 80.574219 138.347656 81.261719 138.003906 81.261719 C 137.941406 81.261719 137.878906 81.199219 137.816406 81.136719 C 137.660156 80.949219 137.785156 80.355469 137.285156 80.355469 C 136.972656 80.355469 136.847656 80.605469 136.847656 80.886719 Z M 136.847656 80.886719 "/>
<path fill="none" stroke-width="0.5579" stroke-linecap="butt" stroke-linejoin="miter" stroke="rgb(0%, 0%, 0%)" stroke-opacity="1" stroke-miterlimit="10" d="M -21.47847 -9.037689 L -21.47847 -27.05722 " transform="matrix(2, 0, 0, -2, 133.496002, 85.283997)"/>
<path fill="none" stroke-width="0.5579" stroke-linecap="round" stroke-linejoin="round" stroke="rgb(0%, 0%, 0%)" stroke-opacity="1" stroke-miterlimit="10" d="M -2.901756 3.347279 C -2.370506 1.339466 -1.190819 0.390247 0.000587463 -0.000377655 C -1.190819 -0.391003 -2.370506 -1.340221 -2.901756 -3.348034 " transform="matrix(0, 2, 2, 0, 90.539818, 139.959763)"/>
<path fill-rule="nonzero" fill="rgb(0%, 0%, 0%)" fill-opacity="1" d="M 101.242188 117.066406 C 101.429688 116.972656 101.429688 116.910156 101.648438 116.910156 C 101.742188 116.910156 101.835938 116.910156 101.898438 116.972656 C 102.085938 117.128906 102.210938 117.597656 102.554688 117.597656 C 102.835938 117.597656 103.085938 117.347656 103.085938 117.003906 C 103.085938 116.597656 102.585938 116.253906 102.148438 116.253906 C 101.804688 116.253906 101.460938 116.441406 101.085938 116.878906 C 100.679688 116.441406 100.210938 116.253906 99.648438 116.253906 C 98.804688 116.253906 98.179688 116.597656 97.742188 117.035156 C 97.304688 117.472656 96.898438 118.066406 96.898438 118.910156 C 96.898438 119.597656 97.148438 120.128906 97.742188 120.535156 L 97.710938 120.597656 C 97.179688 120.753906 96.929688 120.910156 96.742188 121.066406 C 96.523438 121.222656 96.398438 121.441406 96.398438 121.660156 C 96.398438 122.003906 96.523438 122.285156 96.929688 122.472656 C 97.335938 122.660156 97.960938 122.816406 98.804688 123.003906 C 99.273438 123.066406 99.648438 123.222656 99.898438 123.378906 C 100.179688 123.566406 100.304688 123.753906 100.304688 123.972656 C 100.304688 124.722656 99.210938 125.316406 98.148438 125.316406 C 96.960938 125.347656 96.210938 124.847656 96.210938 124.066406 C 96.210938 123.566406 96.492188 123.222656 96.929688 123.035156 C 96.679688 122.941406 96.617188 122.878906 96.335938 122.878906 C 95.710938 122.878906 95.304688 123.378906 95.304688 124.003906 C 95.304688 124.253906 95.304688 124.472656 95.429688 124.660156 C 95.960938 125.347656 96.898438 125.660156 98.117188 125.660156 C 99.054688 125.660156 99.804688 125.441406 100.398438 125.066406 C 100.835938 124.753906 101.148438 124.316406 101.148438 123.597656 C 101.148438 122.785156 100.054688 122.285156 99.429688 122.128906 C 98.929688 121.972656 98.335938 121.816406 97.929688 121.660156 C 97.742188 121.597656 97.648438 121.472656 97.648438 121.285156 C 97.648438 120.941406 98.242188 120.941406 98.710938 120.878906 C 100.335938 120.753906 101.367188 119.691406 101.367188 117.941406 C 101.367188 117.628906 101.335938 117.316406 101.242188 117.066406 Z M 97.867188 119.347656 C 97.867188 118.035156 98.492188 116.566406 99.523438 116.566406 C 100.242188 116.566406 100.429688 117.191406 100.429688 117.722656 C 100.429688 119.160156 99.804688 120.503906 98.773438 120.503906 C 98.210938 120.503906 97.867188 119.910156 97.867188 119.347656 Z M 97.867188 119.347656 "/>
<path fill-rule="nonzero" fill="rgb(0%, 0%, 0%)" fill-opacity="1" d="M 105.3125 120.667969 C 104.84375 120.667969 104.375 121.042969 104.03125 121.511719 L 103.9375 121.511719 L 105.0625 117.386719 L 103.375 117.449219 L 103.3125 117.605469 C 103.75 117.605469 104.125 117.730469 104.125 118.042969 C 104.125 118.105469 104.09375 118.230469 104.03125 118.386719 L 102.125 125.449219 L 102.875 125.449219 L 103.40625 123.511719 L 103.65625 123.417969 L 104.25 124.855469 C 104.375 125.105469 104.46875 125.292969 104.5625 125.386719 C 104.65625 125.480469 104.78125 125.542969 104.9375 125.542969 C 105.625 125.542969 105.875 125.074219 106.25 124.199219 L 106.0625 124.105469 C 105.84375 124.542969 105.6875 125.011719 105.34375 125.011719 C 105.21875 125.011719 105.03125 124.574219 104.90625 124.261719 L 104.4375 123.074219 L 104.65625 122.980469 C 105.15625 122.730469 105.59375 122.511719 105.875 122.230469 C 106.15625 121.949219 106.3125 121.667969 106.3125 121.386719 C 106.3125 120.886719 105.96875 120.667969 105.3125 120.667969 Z M 103.53125 123.167969 C 103.625 122.730469 104.03125 121.886719 104.28125 121.574219 C 104.46875 121.355469 104.875 120.886719 105.25 120.886719 C 105.65625 120.886719 105.65625 121.261719 105.65625 121.480469 C 105.625 122.292969 104.15625 122.917969 103.53125 123.167969 Z M 103.53125 123.167969 "/>
<path fill-rule="nonzero" fill="rgb(0%, 0%, 0%)" fill-opacity="1" d="M 110.964844 118.667969 C 110.964844 118.386719 110.746094 118.105469 110.402344 118.105469 C 110.121094 118.105469 109.839844 118.355469 109.839844 118.667969 C 109.839844 118.980469 110.121094 119.230469 110.402344 119.230469 C 110.683594 119.230469 110.964844 118.949219 110.964844 118.667969 Z M 106.621094 127.074219 C 106.621094 127.480469 107.027344 127.761719 107.464844 127.761719 C 107.964844 127.761719 108.371094 127.417969 108.652344 127.136719 C 108.964844 126.761719 109.246094 126.292969 109.371094 125.761719 L 110.121094 123.074219 C 110.246094 122.636719 110.339844 122.261719 110.402344 121.949219 C 110.496094 121.636719 110.558594 121.355469 110.558594 121.167969 C 110.558594 120.886719 110.433594 120.667969 110.121094 120.667969 C 109.496094 120.667969 108.683594 121.511719 108.433594 122.011719 L 108.621094 122.167969 C 108.777344 121.949219 109.152344 121.324219 109.496094 121.324219 C 109.589844 121.324219 109.683594 121.480469 109.683594 121.605469 C 109.683594 121.949219 109.589844 122.167969 109.527344 122.511719 L 108.433594 126.449219 C 108.339844 126.761719 108.121094 127.449219 107.777344 127.449219 C 107.714844 127.449219 107.652344 127.386719 107.589844 127.324219 C 107.433594 127.136719 107.558594 126.542969 107.058594 126.542969 C 106.746094 126.542969 106.621094 126.792969 106.621094 127.074219 Z M 106.621094 127.074219 "/>
<path fill="none" stroke-width="2.49017" stroke-linecap="butt" stroke-linejoin="miter" stroke="rgb(0%, 0%, 0%)" stroke-opacity="1" stroke-miterlimit="10" d="M 22.24028 -7.037689 L 22.24028 -26.572845 " transform="matrix(2, 0, 0, -2, 133.496002, 85.283997)"/>
<path fill="none" stroke-width="1.37434" stroke-linecap="butt" stroke-linejoin="miter" stroke="rgb(100%, 100%, 100%)" stroke-opacity="1" stroke-miterlimit="10" d="M 22.24028 -7.037689 L 22.24028 -26.572845 " transform="matrix(2, 0, 0, -2, 133.496002, 85.283997)"/>
<path fill="none" stroke-width="0.5579" stroke-linecap="butt" stroke-linejoin="miter" stroke="rgb(0%, 0%, 0%)" stroke-opacity="1" stroke-miterlimit="10" d="M -10.994095 -36.162689 L 11.962936 -36.162689 " transform="matrix(2, 0, 0, -2, 133.496002, 85.283997)"/>
<path fill="none" stroke-width="0.5579" stroke-linecap="round" stroke-linejoin="round" stroke="rgb(0%, 0%, 0%)" stroke-opacity="1" stroke-miterlimit="10" d="M -2.90287 3.348366 C -2.37162 1.340553 -1.191933 0.391335 -0.000526428 0.000709534 C -1.191933 -0.389915 -2.37162 -1.339134 -2.90287 -3.346947 " transform="matrix(2, 0, 0, -2, 157.977615, 157.610794)"/>
<path fill-rule="nonzero" fill="rgb(0%, 0%, 0%)" fill-opacity="1" d="M 124.339844 142.097656 C 124.527344 142.003906 124.527344 141.941406 124.746094 141.941406 C 124.839844 141.941406 124.933594 141.941406 124.996094 142.003906 C 125.183594 142.160156 125.308594 142.628906 125.652344 142.628906 C 125.933594 142.628906 126.183594 142.378906 126.183594 142.035156 C 126.183594 141.628906 125.683594 141.285156 125.246094 141.285156 C 124.902344 141.285156 124.558594 141.472656 124.183594 141.910156 C 123.777344 141.472656 123.308594 141.285156 122.746094 141.285156 C 121.902344 141.285156 121.277344 141.628906 120.839844 142.066406 C 120.402344 142.503906 119.996094 143.097656 119.996094 143.941406 C 119.996094 144.628906 120.246094 145.160156 120.839844 145.566406 L 120.808594 145.628906 C 120.277344 145.785156 120.027344 145.941406 119.839844 146.097656 C 119.621094 146.253906 119.496094 146.472656 119.496094 146.691406 C 119.496094 147.035156 119.621094 147.316406 120.027344 147.503906 C 120.433594 147.691406 121.058594 147.847656 121.902344 148.035156 C 122.371094 148.097656 122.746094 148.253906 122.996094 148.410156 C 123.277344 148.597656 123.402344 148.785156 123.402344 149.003906 C 123.402344 149.753906 122.308594 150.347656 121.246094 150.347656 C 120.058594 150.378906 119.308594 149.878906 119.308594 149.097656 C 119.308594 148.597656 119.589844 148.253906 120.027344 148.066406 C 119.777344 147.972656 119.714844 147.910156 119.433594 147.910156 C 118.808594 147.910156 118.402344 148.410156 118.402344 149.035156 C 118.402344 149.285156 118.402344 149.503906 118.527344 149.691406 C 119.058594 150.378906 119.996094 150.691406 121.214844 150.691406 C 122.152344 150.691406 122.902344 150.472656 123.496094 150.097656 C 123.933594 149.785156 124.246094 149.347656 124.246094 148.628906 C 124.246094 147.816406 123.152344 147.316406 122.527344 147.160156 C 122.027344 147.003906 121.433594 146.847656 121.027344 146.691406 C 120.839844 146.628906 120.746094 146.503906 120.746094 146.316406 C 120.746094 145.972656 121.339844 145.972656 121.808594 145.910156 C 123.433594 145.785156 124.464844 144.722656 124.464844 142.972656 C 124.464844 142.660156 124.433594 142.347656 124.339844 142.097656 Z M 120.964844 144.378906 C 120.964844 143.066406 121.589844 141.597656 122.621094 141.597656 C 123.339844 141.597656 123.527344 142.222656 123.527344 142.753906 C 123.527344 144.191406 122.902344 145.535156 121.871094 145.535156 C 121.308594 145.535156 120.964844 144.941406 120.964844 144.378906 Z M 120.964844 144.378906 "/>
<path fill-rule="nonzero" fill="rgb(0%, 0%, 0%)" fill-opacity="1" d="M 126.191406 149.960938 C 127.160156 149.929688 127.660156 149.085938 127.941406 148.492188 L 127.753906 148.398438 C 127.597656 148.648438 127.191406 149.460938 126.722656 149.460938 C 126.628906 149.460938 126.503906 149.304688 126.503906 149.179688 C 126.503906 148.960938 126.628906 148.554688 126.691406 148.367188 L 127.441406 146.304688 C 127.535156 145.992188 127.566406 145.867188 127.566406 145.679688 C 127.566406 145.335938 127.566406 145.085938 127.222656 145.085938 C 126.503906 145.085938 125.691406 145.898438 125.441406 146.429688 L 125.660156 146.554688 C 125.816406 146.335938 126.222656 145.742188 126.472656 145.742188 C 126.660156 145.742188 126.691406 145.867188 126.691406 145.960938 C 126.722656 146.148438 126.628906 146.460938 126.535156 146.648438 L 125.816406 148.710938 C 125.722656 148.992188 125.660156 149.242188 125.660156 149.367188 C 125.660156 149.742188 125.816406 149.960938 126.191406 149.960938 Z M 128.253906 143.085938 C 128.253906 142.804688 128.003906 142.523438 127.691406 142.523438 C 127.378906 142.523438 127.128906 142.773438 127.128906 143.085938 C 127.128906 143.398438 127.410156 143.648438 127.691406 143.648438 C 127.972656 143.648438 128.253906 143.367188 128.253906 143.085938 Z M 128.253906 143.085938 "/>
<path fill-rule="nonzero" fill="rgb(0%, 0%, 0%)" fill-opacity="1" d="M 132.886719 143.085938 C 132.886719 142.804688 132.667969 142.523438 132.324219 142.523438 C 132.042969 142.523438 131.761719 142.773438 131.761719 143.085938 C 131.761719 143.398438 132.042969 143.648438 132.324219 143.648438 C 132.605469 143.648438 132.886719 143.367188 132.886719 143.085938 Z M 128.542969 151.492188 C 128.542969 151.898438 128.949219 152.179688 129.386719 152.179688 C 129.886719 152.179688 130.292969 151.835938 130.574219 151.554688 C 130.886719 151.179688 131.167969 150.710938 131.292969 150.179688 L 132.042969 147.492188 C 132.167969 147.054688 132.261719 146.679688 132.324219 146.367188 C 132.417969 146.054688 132.480469 145.773438 132.480469 145.585938 C 132.480469 145.304688 132.355469 145.085938 132.042969 145.085938 C 131.417969 145.085938 130.605469 145.929688 130.355469 146.429688 L 130.542969 146.585938 C 130.699219 146.367188 131.074219 145.742188 131.417969 145.742188 C 131.511719 145.742188 131.605469 145.898438 131.605469 146.023438 C 131.605469 146.367188 131.511719 146.585938 131.449219 146.929688 L 130.355469 150.867188 C 130.261719 151.179688 130.042969 151.867188 129.699219 151.867188 C 129.636719 151.867188 129.574219 151.804688 129.511719 151.742188 C 129.355469 151.554688 129.480469 150.960938 128.980469 150.960938 C 128.667969 150.960938 128.542969 151.210938 128.542969 151.492188 Z M 128.542969 151.492188 "/>
<path fill-rule="nonzero" fill="rgb(0%, 0%, 0%)" fill-opacity="1" d="M 140.289062 142.097656 C 140.476562 142.003906 140.476562 141.941406 140.695312 141.941406 C 140.789062 141.941406 140.882812 141.941406 140.945312 142.003906 C 141.132812 142.160156 141.257812 142.628906 141.601562 142.628906 C 141.882812 142.628906 142.132812 142.378906 142.132812 142.035156 C 142.132812 141.628906 141.632812 141.285156 141.195312 141.285156 C 140.851562 141.285156 140.507812 141.472656 140.132812 141.910156 C 139.726562 141.472656 139.257812 141.285156 138.695312 141.285156 C 137.851562 141.285156 137.226562 141.628906 136.789062 142.066406 C 136.351562 142.503906 135.945312 143.097656 135.945312 143.941406 C 135.945312 144.628906 136.195312 145.160156 136.789062 145.566406 L 136.757812 145.628906 C 136.226562 145.785156 135.976562 145.941406 135.789062 146.097656 C 135.570312 146.253906 135.445312 146.472656 135.445312 146.691406 C 135.445312 147.035156 135.570312 147.316406 135.976562 147.503906 C 136.382812 147.691406 137.007812 147.847656 137.851562 148.035156 C 138.320312 148.097656 138.695312 148.253906 138.945312 148.410156 C 139.226562 148.597656 139.351562 148.785156 139.351562 149.003906 C 139.351562 149.753906 138.257812 150.347656 137.195312 150.347656 C 136.007812 150.378906 135.257812 149.878906 135.257812 149.097656 C 135.257812 148.597656 135.539062 148.253906 135.976562 148.066406 C 135.726562 147.972656 135.664062 147.910156 135.382812 147.910156 C 134.757812 147.910156 134.351562 148.410156 134.351562 149.035156 C 134.351562 149.285156 134.351562 149.503906 134.476562 149.691406 C 135.007812 150.378906 135.945312 150.691406 137.164062 150.691406 C 138.101562 150.691406 138.851562 150.472656 139.445312 150.097656 C 139.882812 149.785156 140.195312 149.347656 140.195312 148.628906 C 140.195312 147.816406 139.101562 147.316406 138.476562 147.160156 C 137.976562 147.003906 137.382812 146.847656 136.976562 146.691406 C 136.789062 146.628906 136.695312 146.503906 136.695312 146.316406 C 136.695312 145.972656 137.289062 145.972656 137.757812 145.910156 C 139.382812 145.785156 140.414062 144.722656 140.414062 142.972656 C 140.414062 142.660156 140.382812 142.347656 140.289062 142.097656 Z M 136.914062 144.378906 C 136.914062 143.066406 137.539062 141.597656 138.570312 141.597656 C 139.289062 141.597656 139.476562 142.222656 139.476562 142.753906 C 139.476562 144.191406 138.851562 145.535156 137.820312 145.535156 C 137.257812 145.535156 136.914062 144.941406 136.914062 144.378906 Z M 136.914062 144.378906 "/>
<path fill-rule="nonzero" fill="rgb(0%, 0%, 0%)" fill-opacity="1" d="M 145.035156 143.699219 C 145.035156 143.417969 144.816406 143.136719 144.472656 143.136719 C 144.191406 143.136719 143.910156 143.386719 143.910156 143.699219 C 143.910156 144.011719 144.191406 144.261719 144.472656 144.261719 C 144.753906 144.261719 145.035156 143.980469 145.035156 143.699219 Z M 140.691406 152.105469 C 140.691406 152.511719 141.097656 152.792969 141.535156 152.792969 C 142.035156 152.792969 142.441406 152.449219 142.722656 152.167969 C 143.035156 151.792969 143.316406 151.324219 143.441406 150.792969 L 144.191406 148.105469 C 144.316406 147.667969 144.410156 147.292969 144.472656 146.980469 C 144.566406 146.667969 144.628906 146.386719 144.628906 146.199219 C 144.628906 145.917969 144.503906 145.699219 144.191406 145.699219 C 143.566406 145.699219 142.753906 146.542969 142.503906 147.042969 L 142.691406 147.199219 C 142.847656 146.980469 143.222656 146.355469 143.566406 146.355469 C 143.660156 146.355469 143.753906 146.511719 143.753906 146.636719 C 143.753906 146.980469 143.660156 147.199219 143.597656 147.542969 L 142.503906 151.480469 C 142.410156 151.792969 142.191406 152.480469 141.847656 152.480469 C 141.785156 152.480469 141.722656 152.417969 141.660156 152.355469 C 141.503906 152.167969 141.628906 151.574219 141.128906 151.574219 C 140.816406 151.574219 140.691406 151.824219 140.691406 152.105469 Z M 140.691406 152.105469 "/>
<path fill-rule="nonzero" fill="rgb(0%, 0%, 0%)" fill-opacity="1" d="M 148.765625 145.699219 C 148.296875 145.699219 147.828125 146.074219 147.484375 146.542969 L 147.390625 146.542969 L 148.515625 142.417969 L 146.828125 142.480469 L 146.765625 142.636719 C 147.203125 142.636719 147.578125 142.761719 147.578125 143.074219 C 147.578125 143.136719 147.546875 143.261719 147.484375 143.417969 L 145.578125 150.480469 L 146.328125 150.480469 L 146.859375 148.542969 L 147.109375 148.449219 L 147.703125 149.886719 C 147.828125 150.136719 147.921875 150.324219 148.015625 150.417969 C 148.109375 150.511719 148.234375 150.574219 148.390625 150.574219 C 149.078125 150.574219 149.328125 150.105469 149.703125 149.230469 L 149.515625 149.136719 C 149.296875 149.574219 149.140625 150.042969 148.796875 150.042969 C 148.671875 150.042969 148.484375 149.605469 148.359375 149.292969 L 147.890625 148.105469 L 148.109375 148.011719 C 148.609375 147.761719 149.046875 147.542969 149.328125 147.261719 C 149.609375 146.980469 149.765625 146.699219 149.765625 146.417969 C 149.765625 145.917969 149.421875 145.699219 148.765625 145.699219 Z M 146.984375 148.199219 C 147.078125 147.761719 147.484375 146.917969 147.734375 146.605469 C 147.921875 146.386719 148.328125 145.917969 148.703125 145.917969 C 149.109375 145.917969 149.109375 146.292969 149.109375 146.511719 C 149.078125 147.324219 147.609375 147.949219 146.984375 148.199219 Z M 146.984375 148.199219 "/>
<path fill="none" stroke-width="2.49017" stroke-linecap="butt" stroke-linejoin="miter" stroke="rgb(0%, 0%, 0%)" stroke-opacity="1" stroke-miterlimit="10" d="M -31.708939 -0.858002 L -48.88472 -1.365814 " transform="matrix(2, 0, 0, -2, 133.496002, 85.283997)"/>
<path fill="none" stroke-width="1.37434" stroke-linecap="butt" stroke-linejoin="miter" stroke="rgb(100%, 100%, 100%)" stroke-opacity="1" stroke-miterlimit="10" d="M -31.708939 -0.858002 L -48.88472 -1.365814 " transform="matrix(2, 0, 0, -2, 133.496002, 85.283997)"/>
<path fill="none" stroke-width="0.5579" stroke-linecap="round" stroke-linejoin="round" stroke="rgb(0%, 0%, 0%)" stroke-opacity="1" stroke-miterlimit="10" d="M -1.295867 2.560348 C -0.667507 1.209092 1.02562 0.049134 1.989518 0.00110568 C 1.022735 -0.0484849 -0.664635 -1.206239 -1.29476 -2.559381 " transform="matrix(-1.99902, 0.05908, 0.05908, 1.99902, 35.72702, 88.013062)"/>
<path fill-rule="nonzero" fill="rgb(0%, 0%, 0%)" fill-opacity="1" d="M 43.726562 73.304688 C 43.726562 71.835938 42.945312 70.929688 41.570312 70.929688 C 40.664062 70.929688 39.945312 71.554688 39.914062 71.554688 L 39.914062 67.054688 L 39.351562 67.210938 L 39.351562 77.554688 C 39.351562 77.804688 39.445312 77.960938 39.664062 77.960938 C 41.101562 77.960938 43.726562 76.023438 43.726562 73.304688 Z M 42.476562 73.335938 C 42.476562 75.523438 41.289062 77.398438 40.195312 77.398438 C 39.945312 77.398438 39.914062 77.304688 39.914062 77.210938 L 39.914062 72.679688 C 39.914062 72.117188 40.257812 71.304688 41.351562 71.304688 C 42.164062 71.304688 42.476562 72.273438 42.476562 73.335938 Z M 42.476562 73.335938 "/>
<path fill-rule="nonzero" fill="rgb(0%, 0%, 0%)" fill-opacity="1" d="M 45.515625 80.59375 C 46.484375 80.5625 46.984375 79.71875 47.265625 79.125 L 47.078125 79.03125 C 46.921875 79.28125 46.515625 80.09375 46.046875 80.09375 C 45.953125 80.09375 45.828125 79.9375 45.828125 79.8125 C 45.828125 79.59375 45.953125 79.1875 46.015625 79 L 46.765625 76.9375 C 46.859375 76.625 46.890625 76.5 46.890625 76.3125 C 46.890625 75.96875 46.890625 75.71875 46.546875 75.71875 C 45.828125 75.71875 45.015625 76.53125 44.765625 77.0625 L 44.984375 77.1875 C 45.140625 76.96875 45.546875 76.375 45.796875 76.375 C 45.984375 76.375 46.015625 76.5 46.015625 76.59375 C 46.046875 76.78125 45.953125 77.09375 45.859375 77.28125 L 45.140625 79.34375 C 45.046875 79.625 44.984375 79.875 44.984375 80 C 44.984375 80.375 45.140625 80.59375 45.515625 80.59375 Z M 47.578125 73.71875 C 47.578125 73.4375 47.328125 73.15625 47.015625 73.15625 C 46.703125 73.15625 46.453125 73.40625 46.453125 73.71875 C 46.453125 74.03125 46.734375 74.28125 47.015625 74.28125 C 47.296875 74.28125 47.578125 74 47.578125 73.71875 Z M 47.578125 73.71875 "/>
<path fill-rule="nonzero" fill="rgb(0%, 0%, 0%)" fill-opacity="1" d="M 52.210938 73.71875 C 52.210938 73.4375 51.992188 73.15625 51.648438 73.15625 C 51.367188 73.15625 51.085938 73.40625 51.085938 73.71875 C 51.085938 74.03125 51.367188 74.28125 51.648438 74.28125 C 51.929688 74.28125 52.210938 74 52.210938 73.71875 Z M 47.867188 82.125 C 47.867188 82.53125 48.273438 82.8125 48.710938 82.8125 C 49.210938 82.8125 49.617188 82.46875 49.898438 82.1875 C 50.210938 81.8125 50.492188 81.34375 50.617188 80.8125 L 51.367188 78.125 C 51.492188 77.6875 51.585938 77.3125 51.648438 77 C 51.742188 76.6875 51.804688 76.40625 51.804688 76.21875 C 51.804688 75.9375 51.679688 75.71875 51.367188 75.71875 C 50.742188 75.71875 49.929688 76.5625 49.679688 77.0625 L 49.867188 77.21875 C 50.023438 77 50.398438 76.375 50.742188 76.375 C 50.835938 76.375 50.929688 76.53125 50.929688 76.65625 C 50.929688 77 50.835938 77.21875 50.773438 77.5625 L 49.679688 81.5 C 49.585938 81.8125 49.367188 82.5 49.023438 82.5 C 48.960938 82.5 48.898438 82.4375 48.835938 82.375 C 48.679688 82.1875 48.804688 81.59375 48.304688 81.59375 C 47.992188 81.59375 47.867188 81.84375 47.867188 82.125 Z M 47.867188 82.125 "/>
<path fill-rule="nonzero" fill="rgb(0%, 0%, 0%)" fill-opacity="1" d="M 55.953125 75.71875 C 55.484375 75.71875 55.015625 76.09375 54.671875 76.5625 L 54.578125 76.5625 L 55.703125 72.4375 L 54.015625 72.5 L 53.953125 72.65625 C 54.390625 72.65625 54.765625 72.78125 54.765625 73.09375 C 54.765625 73.15625 54.734375 73.28125 54.671875 73.4375 L 52.765625 80.5 L 53.515625 80.5 L 54.046875 78.5625 L 54.296875 78.46875 L 54.890625 79.90625 C 55.015625 80.15625 55.109375 80.34375 55.203125 80.4375 C 55.296875 80.53125 55.421875 80.59375 55.578125 80.59375 C 56.265625 80.59375 56.515625 80.125 56.890625 79.25 L 56.703125 79.15625 C 56.484375 79.59375 56.328125 80.0625 55.984375 80.0625 C 55.859375 80.0625 55.671875 79.625 55.546875 79.3125 L 55.078125 78.125 L 55.296875 78.03125 C 55.796875 77.78125 56.234375 77.5625 56.515625 77.28125 C 56.796875 77 56.953125 76.71875 56.953125 76.4375 C 56.953125 75.9375 56.609375 75.71875 55.953125 75.71875 Z M 54.171875 78.21875 C 54.265625 77.78125 54.671875 76.9375 54.921875 76.625 C 55.109375 76.40625 55.515625 75.9375 55.890625 75.9375 C 56.296875 75.9375 56.296875 76.3125 56.296875 76.53125 C 56.265625 77.34375 54.796875 77.96875 54.171875 78.21875 Z M 54.171875 78.21875 "/>
<g clip-path="url(#clip-2)">
<path fill="none" stroke-width="2.49017" stroke-linecap="butt" stroke-linejoin="miter" stroke="rgb(0%, 0%, 0%)" stroke-opacity="1" stroke-miterlimit="10" d="M 31.962936 -0.854095 L 51.791061 -1.467377 " transform="matrix(2, 0, 0, -2, 133.496002, 85.283997)"/>
</g>
<g clip-path="url(#clip-3)">
<path fill="none" stroke-width="1.37434" stroke-linecap="butt" stroke-linejoin="miter" stroke="rgb(100%, 100%, 100%)" stroke-opacity="1" stroke-miterlimit="10" d="M 31.962936 -0.854095 L 51.791061 -1.467377 " transform="matrix(2, 0, 0, -2, 133.496002, 85.283997)"/>
</g>
<path fill="none" stroke-width="2.49017" stroke-linecap="butt" stroke-linejoin="miter" stroke="rgb(0%, 0%, 0%)" stroke-opacity="1" stroke-miterlimit="10" d="M -1.767532 14.595123 L 4.33403 19.28653 " transform="matrix(2, 0, 0, -2, 133.496002, 85.283997)"/>
<path fill="none" stroke-width="1.37434" stroke-linecap="butt" stroke-linejoin="miter" stroke="rgb(100%, 100%, 100%)" stroke-opacity="1" stroke-miterlimit="10" d="M -1.767532 14.595123 L 4.33403 19.28653 " transform="matrix(2, 0, 0, -2, 133.496002, 85.283997)"/>
<g clip-path="url(#clip-4)">
<path fill="none" stroke-width="2.49017" stroke-linecap="butt" stroke-linejoin="miter" stroke="rgb(0%, 0%, 0%)" stroke-opacity="1" stroke-miterlimit="10" d="M -1.724564 -20.076752 L 5.013718 -14.58847 " transform="matrix(2, 0, 0, -2, 133.496002, 85.283997)"/>
</g>
<path fill="none" stroke-width="1.37434" stroke-linecap="butt" stroke-linejoin="miter" stroke="rgb(100%, 100%, 100%)" stroke-opacity="1" stroke-miterlimit="10" d="M -1.724564 -20.076752 L 5.013718 -14.58847 " transform="matrix(2, 0, 0, -2, 133.496002, 85.283997)"/>
</svg>
