<?xml version="1.0" encoding="UTF-8"?>
<svg xmlns="http://www.w3.org/2000/svg" xmlns:xlink="http://www.w3.org/1999/xlink" width="264.800008" height="276.639994" viewBox="0 0 264.800008 276.639994">
<defs>
<clipPath id="clip-0">
<path clip-rule="nonzero" d="M 87 100 L 264.800781 100 L 264.800781 276.636719 L 87 276.636719 Z M 87 100 "/>
</clipPath>
<clipPath id="clip-1">
<path clip-rule="nonzero" d="M 87 0 L 264.800781 0 L 264.800781 191 L 87 191 Z M 87 0 "/>
</clipPath>
<clipPath id="clip-2">
<path clip-rule="nonzero" d="M 0 87 L 178 87 L 178 276.636719 L 0 276.636719 Z M 0 87 "/>
</clipPath>
<clipPath id="clip-3">
<path clip-rule="nonzero" d="M 202 111 L 264.800781 111 L 264.800781 179 L 202 179 Z M 202 111 "/>
</clipPath>
</defs>
<path fill="none" stroke-width="0.3985" stroke-linecap="butt" stroke-linejoin="miter" stroke="rgb(0%, 0%, 0%)" stroke-opacity="1" stroke-dasharray="0.3985 3.9851" stroke-miterlimit="10" d="M 9.972675 9.267956 L 38.827168 -2.377552 " transform="matrix(2.666667, 0, 0, -2.666667, 132.386668, 138.76533)"/>
<path fill="none" stroke-width="0.3985" stroke-linecap="butt" stroke-linejoin="miter" stroke="rgb(0%, 0%, 0%)" stroke-opacity="1" stroke-dasharray="0.3985 3.9851" stroke-miterlimit="10" d="M 9.972675 9.267956 L 0.00294876 -38.53722 " transform="matrix(2.666667, 0, 0, -2.666667, 132.386668, 138.76533)"/>
<path fill="none" stroke-width="0.3985" stroke-linecap="butt" stroke-linejoin="miter" stroke="rgb(0%, 0%, 0%)" stroke-opacity="1" stroke-dasharray="0.3985 3.9851" stroke-miterlimit="10" d="M 9.972675 9.267956 L 0.0000190735 38.536999 " transform="matrix(2.666667, 0, 0, -2.666667, 132.386668, 138.76533)"/>
<path fill="none" stroke-width="0.3985" stroke-linecap="butt" stroke-linejoin="miter" stroke="rgb(0%, 0%, 0%)" stroke-opacity="1" stroke-dasharray="0.3985 3.9851" stroke-miterlimit="10" d="M -38.828594 2.377331 L 9.972675 9.267956 " transform="matrix(2.666667, 0, 0, -2.666667, 132.386668, 138.76533)"/>
<path fill-rule="nonzero" fill="rgb(0%, 0%, 0%)" fill-opacity="1" stroke-width="0.79701" stroke-linecap="butt" stroke-linejoin="miter" stroke="rgb(0%, 25.098039%, 0%)" stroke-opacity="1" stroke-miterlimit="10" d="M 11.378925 9.267956 C 11.378925 10.044323 10.749043 10.677135 9.972675 10.677135 C 9.194843 10.677135 8.562031 10.044323 8.562031 9.267956 C 8.562031 8.490124 9.194843 7.857311 9.972675 7.857311 C 10.749043 7.857311 11.378925 8.490124 11.378925 9.267956 Z M 11.378925 9.267956 " transform="matrix(2.666667, 0, 0, -2.666667, 132.386668, 138.76533)"/>
<path fill-rule="nonzero" fill="rgb(0%, 0%, 94.901961%)" fill-opacity="0.1" d="M 105.792969 163.480469 L 235.925781 145.105469 L 132.386719 36 Z M 105.792969 163.480469 "/>
<g clip-path="url(#clip-0)">
<path fill="none" stroke-width="1.19553" stroke-linecap="butt" stroke-linejoin="miter" stroke="rgb(0%, 0%, 0%)" stroke-opacity="1" stroke-miterlimit="10" d="M 38.827168 -2.377552 L 0.00294876 -38.53722 " transform="matrix(2.666667, 0, 0, -2.666667, 132.386668, 138.76533)"/>
</g>
<g clip-path="url(#clip-1)">
<path fill="none" stroke-width="1.19553" stroke-linecap="butt" stroke-linejoin="miter" stroke="rgb(0%, 0%, 0%)" stroke-opacity="1" stroke-miterlimit="10" d="M 0.0000190735 38.536999 L 38.827168 -2.377552 " transform="matrix(2.666667, 0, 0, -2.666667, 132.386668, 138.76533)"/>
</g>
<path fill="none" stroke-width="0.3985" stroke-linecap="butt" stroke-linejoin="miter" stroke="rgb(0%, 0%, 0%)" stroke-opacity="1" stroke-miterlimit="10" d="M 38.827168 -2.377552 L -9.972637 -9.268177 " transform="matrix(2.666667, 0, 0, -2.666667, 132.386668, 138.76533)"/>
<g clip-path="url(#clip-2)">
<path fill="none" stroke-width="1.19553" stroke-linecap="butt" stroke-linejoin="miter" stroke="rgb(0%, 0%, 0%)" stroke-opacity="1" stroke-miterlimit="10" d="M 0.00294876 -38.53722 L -38.828594 2.377331 " transform="matrix(2.666667, 0, 0, -2.666667, 132.386668, 138.76533)"/>
</g>
<path fill="none" stroke-width="0.3985" stroke-linecap="butt" stroke-linejoin="miter" stroke="rgb(0%, 0%, 0%)" stroke-opacity="1" stroke-miterlimit="10" d="M 0.00294876 -38.53722 L -9.972637 -9.268177 " transform="matrix(2.666667, 0, 0, -2.666667, 132.386668, 138.76533)"/>
<path fill="none" stroke-width="1.19553" stroke-linecap="butt" stroke-linejoin="miter" stroke="rgb(100%, 0%, 0%)" stroke-opacity="1" stroke-miterlimit="10" d="M -38.828594 2.377331 L 0.0000190735 38.536999 " transform="matrix(2.666667, 0, 0, -2.666667, 132.386668, 138.76533)"/>
<path fill="none" stroke-width="0.3985" stroke-linecap="butt" stroke-linejoin="miter" stroke="rgb(0%, 0%, 0%)" stroke-opacity="1" stroke-miterlimit="10" d="M 0.0000190735 38.536999 L -9.972637 -9.268177 " transform="matrix(2.666667, 0, 0, -2.666667, 132.386668, 138.76533)"/>
<path fill="none" stroke-width="0.3985" stroke-linecap="butt" stroke-linejoin="miter" stroke="rgb(0%, 0%, 0%)" stroke-opacity="1" stroke-miterlimit="10" d="M -9.972637 -9.268177 L -38.828594 2.377331 " transform="matrix(2.666667, 0, 0, -2.666667, 132.386668, 138.76533)"/>
<path fill-rule="nonzero" fill="rgb(0%, 0%, 0%)" fill-opacity="1" d="M 239.6875 145.105469 C 239.6875 143.03125 238 141.355469 235.925781 141.355469 C 233.855469 141.355469 232.175781 143.03125 232.175781 145.105469 C 232.175781 147.175781 233.855469 148.863281 235.925781 148.863281 C 238 148.863281 239.6875 147.175781 239.6875 145.105469 Z M 239.6875 145.105469 "/>
<g clip-path="url(#clip-3)">
<path fill="none" stroke-width="0.79701" stroke-linecap="butt" stroke-linejoin="miter" stroke="rgb(0%, 25.098039%, 0%)" stroke-opacity="1" stroke-miterlimit="10" d="M 40.237812 -2.377552 C 40.237812 -1.59972 39.605 -0.971302 38.827168 -0.971302 C 38.0508 -0.971302 37.420918 -1.59972 37.420918 -2.377552 C 37.420918 -3.153919 38.0508 -3.786732 38.827168 -3.786732 C 39.605 -3.786732 40.237812 -3.153919 40.237812 -2.377552 Z M 40.237812 -2.377552 " transform="matrix(2.666667, 0, 0, -2.666667, 132.386668, 138.76533)"/>
</g>
<path fill-rule="nonzero" fill="rgb(0%, 0%, 0%)" fill-opacity="1" d="M 250.960938 121.765625 C 250.960938 121.765625 250.960938 121.472656 250.628906 121.472656 C 250.046875 121.472656 248.085938 121.679688 247.378906 121.765625 C 247.171875 121.765625 246.878906 121.804688 246.878906 122.265625 C 246.878906 122.597656 247.128906 122.597656 247.546875 122.597656 C 248.796875 122.597656 248.835938 122.765625 248.835938 123.054688 C 248.835938 123.222656 248.628906 124.140625 248.503906 124.679688 L 246.296875 133.347656 C 246.003906 134.679688 245.878906 135.140625 245.878906 136.054688 C 245.878906 138.554688 247.296875 140.222656 249.253906 140.222656 C 252.378906 140.222656 255.671875 136.265625 255.671875 132.429688 C 255.671875 130.015625 254.253906 128.179688 252.128906 128.179688 C 250.921875 128.179688 249.796875 128.972656 249.003906 129.765625 Z M 248.503906 131.804688 C 248.628906 131.222656 248.628906 131.179688 248.878906 130.890625 C 250.171875 129.179688 251.378906 128.765625 252.085938 128.765625 C 253.046875 128.765625 253.753906 129.554688 253.753906 131.265625 C 253.753906 132.847656 252.878906 135.890625 252.378906 136.890625 C 251.503906 138.679688 250.296875 139.640625 249.253906 139.640625 C 248.335938 139.640625 247.460938 138.929688 247.460938 136.972656 C 247.460938 136.429688 247.460938 135.929688 247.878906 134.265625 Z M 248.503906 131.804688 "/>
<path fill-rule="nonzero" fill="rgb(0%, 0%, 0%)" fill-opacity="1" stroke-width="0.79701" stroke-linecap="butt" stroke-linejoin="miter" stroke="rgb(0%, 25.098039%, 0%)" stroke-opacity="1" stroke-miterlimit="10" d="M 1.409199 -38.53722 C 1.409199 -37.759388 0.780781 -37.13097 0.00294876 -37.13097 C -0.777813 -37.13097 -1.406231 -37.759388 -1.406231 -38.53722 C -1.406231 -39.317982 -0.777813 -39.947865 0.00294876 -39.947865 C 0.780781 -39.947865 1.409199 -39.317982 1.409199 -38.53722 Z M 1.409199 -38.53722 " transform="matrix(2.666667, 0, 0, -2.666667, 132.386668, 138.76533)"/>
<path fill-rule="nonzero" fill="rgb(0%, 0%, 0%)" fill-opacity="1" d="M 138.320312 255.039062 C 138.445312 254.664062 138.445312 254.625 138.445312 254.414062 C 138.445312 253.957031 138.070312 253.707031 137.652344 253.707031 C 137.402344 253.707031 136.984375 253.875 136.734375 254.25 C 136.695312 254.414062 136.445312 255.207031 136.359375 255.707031 C 136.152344 256.375 135.984375 257.125 135.820312 257.832031 L 134.609375 262.625 C 134.527344 263 133.359375 264.875 131.609375 264.875 C 130.277344 264.875 129.984375 263.707031 129.984375 262.707031 C 129.984375 261.5 130.445312 259.832031 131.320312 257.5 C 131.734375 256.414062 131.859375 256.125 131.859375 255.582031 C 131.859375 254.414062 131.027344 253.414062 129.695312 253.414062 C 127.152344 253.414062 126.195312 257.289062 126.195312 257.5 C 126.195312 257.789062 126.445312 257.789062 126.484375 257.789062 C 126.777344 257.789062 126.777344 257.707031 126.902344 257.289062 C 127.652344 254.789062 128.695312 254 129.609375 254 C 129.820312 254 130.277344 254 130.277344 254.832031 C 130.277344 255.5 129.984375 256.207031 129.820312 256.707031 C 128.734375 259.539062 128.277344 261.039062 128.277344 262.289062 C 128.277344 264.664062 129.945312 265.457031 131.527344 265.457031 C 132.570312 265.457031 133.445312 265 134.195312 264.25 C 133.859375 265.625 133.527344 266.957031 132.484375 268.375 C 131.777344 269.25 130.777344 270.039062 129.570312 270.039062 C 129.195312 270.039062 127.984375 269.957031 127.527344 268.914062 C 127.945312 268.914062 128.320312 268.914062 128.652344 268.582031 C 128.945312 268.375 129.195312 268 129.195312 267.5 C 129.195312 266.664062 128.484375 266.582031 128.234375 266.582031 C 127.609375 266.582031 126.734375 267 126.734375 268.289062 C 126.734375 269.625 127.902344 270.625 129.570312 270.625 C 132.277344 270.625 135.027344 268.207031 135.777344 265.207031 Z M 138.320312 255.039062 "/>
<path fill-rule="nonzero" fill="rgb(0%, 0%, 0%)" fill-opacity="1" stroke-width="0.79701" stroke-linecap="butt" stroke-linejoin="miter" stroke="rgb(0%, 25.098039%, 0%)" stroke-opacity="1" stroke-miterlimit="10" d="M 1.406269 38.536999 C 1.406269 39.31776 0.776386 39.947643 0.0000190735 39.947643 C -0.782207 39.947643 -1.410625 39.31776 -1.410625 38.536999 C -1.410625 37.759167 -0.782207 37.130749 0.0000190735 37.130749 C 0.776386 37.130749 1.406269 37.759167 1.406269 38.536999 Z M 1.406269 38.536999 " transform="matrix(2.666667, 0, 0, -2.666667, 132.386668, 138.76533)"/>
<path fill-rule="nonzero" fill="rgb(0%, 0%, 0%)" fill-opacity="1" d="M 134.804688 11.78125 C 134.929688 11.199219 135.179688 10.199219 135.179688 10.03125 C 135.179688 9.574219 134.804688 9.324219 134.429688 9.324219 C 134.097656 9.324219 133.640625 9.53125 133.429688 10.074219 C 133.347656 10.238281 132.097656 15.324219 131.929688 16.03125 C 131.722656 16.824219 131.679688 17.28125 131.679688 17.78125 C 131.679688 18.074219 131.679688 18.113281 131.722656 18.238281 C 131.097656 19.65625 130.304688 20.488281 129.265625 20.488281 C 127.140625 20.488281 127.140625 18.53125 127.140625 18.074219 C 127.140625 17.238281 127.265625 16.199219 128.515625 12.90625 C 128.804688 12.113281 128.972656 11.738281 128.972656 11.199219 C 128.972656 10.03125 128.097656 9.03125 126.804688 9.03125 C 124.265625 9.03125 123.304688 12.90625 123.304688 13.113281 C 123.304688 13.40625 123.554688 13.40625 123.597656 13.40625 C 123.890625 13.40625 123.890625 13.324219 124.015625 12.90625 C 124.765625 10.449219 125.765625 9.613281 126.722656 9.613281 C 126.972656 9.613281 127.390625 9.65625 127.390625 10.488281 C 127.390625 11.15625 127.097656 11.90625 126.890625 12.363281 C 125.722656 15.488281 125.429688 16.699219 125.429688 17.738281 C 125.429688 20.15625 127.179688 21.074219 129.179688 21.074219 C 129.640625 21.074219 130.890625 21.074219 131.929688 19.199219 C 132.640625 20.90625 134.472656 21.074219 135.265625 21.074219 C 137.265625 21.074219 138.429688 19.40625 139.140625 17.824219 C 140.015625 15.738281 140.890625 12.15625 140.890625 10.90625 C 140.890625 9.449219 140.179688 9.03125 139.722656 9.03125 C 139.054688 9.03125 138.390625 9.738281 138.390625 10.324219 C 138.390625 10.65625 138.554688 10.824219 138.765625 11.03125 C 139.054688 11.324219 139.722656 11.988281 139.722656 13.28125 C 139.722656 14.199219 138.972656 16.78125 138.265625 18.15625 C 137.597656 19.574219 136.640625 20.488281 135.347656 20.488281 C 134.097656 20.488281 133.390625 19.699219 133.390625 18.15625 C 133.390625 17.449219 133.554688 16.613281 133.679688 16.238281 Z M 134.804688 11.78125 "/>
<path fill-rule="nonzero" fill="rgb(0%, 0%, 0%)" fill-opacity="1" stroke-width="0.79701" stroke-linecap="butt" stroke-linejoin="miter" stroke="rgb(0%, 25.098039%, 0%)" stroke-opacity="1" stroke-miterlimit="10" d="M -37.41795 2.377331 C -37.41795 3.158092 -38.050762 3.78651 -38.828594 3.78651 C -39.606426 3.78651 -40.239239 3.158092 -40.239239 2.377331 C -40.239239 1.599499 -39.606426 0.971081 -38.828594 0.971081 C -38.050762 0.971081 -37.41795 1.599499 -37.41795 2.377331 Z M -37.41795 2.377331 " transform="matrix(2.666667, 0, 0, -2.666667, 132.386668, 138.76533)"/>
<path fill-rule="nonzero" fill="rgb(0%, 0%, 0%)" fill-opacity="1" d="M 20.144531 111.132812 C 20.1875 111.007812 20.230469 110.84375 20.230469 110.675781 C 20.230469 110.21875 19.9375 109.96875 19.480469 109.96875 C 19.230469 109.96875 18.480469 110.132812 18.394531 111.09375 C 17.894531 110.132812 16.980469 109.425781 15.894531 109.425781 C 12.894531 109.425781 9.605469 113.132812 9.605469 116.96875 C 9.605469 119.59375 11.1875 121.175781 13.105469 121.175781 C 14.6875 121.175781 15.9375 119.925781 16.1875 119.632812 L 16.230469 119.675781 C 15.6875 122.007812 15.355469 123.132812 15.355469 123.175781 C 15.230469 123.425781 14.355469 126.050781 11.519531 126.050781 C 11.019531 126.050781 10.144531 126.007812 9.394531 125.757812 C 10.1875 125.550781 10.480469 124.84375 10.480469 124.382812 C 10.480469 123.96875 10.1875 123.46875 9.480469 123.46875 C 8.894531 123.46875 8.0625 123.925781 8.0625 125.007812 C 8.0625 126.09375 9.019531 126.632812 11.5625 126.632812 C 14.894531 126.632812 16.8125 124.550781 17.230469 122.96875 Z M 16.730469 117.757812 C 16.5625 118.46875 15.9375 119.132812 15.355469 119.632812 C 14.8125 120.09375 13.980469 120.59375 13.1875 120.59375 C 11.855469 120.59375 11.480469 119.21875 11.480469 118.132812 C 11.480469 116.882812 12.230469 113.71875 12.980469 112.382812 C 13.6875 111.09375 14.8125 110.007812 15.9375 110.007812 C 17.6875 110.007812 18.0625 112.175781 18.0625 112.300781 C 18.0625 112.425781 18.019531 112.59375 17.980469 112.675781 Z M 16.730469 117.757812 "/>
<path fill-rule="nonzero" fill="rgb(0%, 0%, 0%)" fill-opacity="1" stroke-width="0.79701" stroke-linecap="butt" stroke-linejoin="miter" stroke="rgb(0%, 25.098039%, 0%)" stroke-opacity="1" stroke-miterlimit="10" d="M -8.563457 -9.268177 C -8.563457 -8.490345 -9.191875 -7.857533 -9.972637 -7.857533 C -10.750469 -7.857533 -11.378887 -8.490345 -11.378887 -9.268177 C -11.378887 -10.044544 -10.750469 -10.674427 -9.972637 -10.674427 C -9.191875 -10.674427 -8.563457 -10.044544 -8.563457 -9.268177 Z M -8.563457 -9.268177 " transform="matrix(2.666667, 0, 0, -2.666667, 132.386668, 138.76533)"/>
<path fill-rule="nonzero" fill="rgb(0%, 0%, 0%)" fill-opacity="1" d="M 88.925781 154.769531 C 88.84375 155.183594 88.675781 155.808594 88.675781 155.933594 C 88.675781 156.394531 89.050781 156.644531 89.46875 156.644531 C 89.800781 156.644531 90.257812 156.433594 90.46875 155.894531 C 90.507812 155.808594 91.382812 152.183594 91.507812 151.683594 C 91.71875 150.808594 92.21875 148.976562 92.34375 148.226562 C 92.46875 147.894531 93.21875 146.644531 93.84375 146.058594 C 94.050781 145.894531 94.84375 145.183594 95.96875 145.183594 C 96.675781 145.183594 97.050781 145.519531 97.09375 145.519531 C 96.300781 145.644531 95.71875 146.269531 95.71875 146.976562 C 95.71875 147.394531 96.007812 147.894531 96.71875 147.894531 C 97.425781 147.894531 98.175781 147.269531 98.175781 146.308594 C 98.175781 145.394531 97.34375 144.601562 95.96875 144.601562 C 94.257812 144.601562 93.09375 145.894531 92.59375 146.644531 C 92.34375 145.433594 91.382812 144.601562 90.132812 144.601562 C 88.925781 144.601562 88.425781 145.644531 88.175781 146.101562 C 87.71875 147.019531 87.382812 148.601562 87.382812 148.683594 C 87.382812 148.976562 87.632812 148.976562 87.675781 148.976562 C 87.96875 148.976562 87.96875 148.933594 88.132812 148.351562 C 88.59375 146.476562 89.132812 145.183594 90.09375 145.183594 C 90.507812 145.183594 90.882812 145.394531 90.882812 146.394531 C 90.882812 146.976562 90.800781 147.269531 90.46875 148.644531 Z M 88.925781 154.769531 "/>
<path fill-rule="nonzero" fill="rgb(0%, 0%, 0%)" fill-opacity="1" stroke-width="0.79701" stroke-linecap="butt" stroke-linejoin="miter" stroke="rgb(0%, 25.098039%, 0%)" stroke-opacity="1" stroke-miterlimit="10" d="M 11.378925 9.267956 C 11.378925 10.044323 10.749043 10.677135 9.972675 10.677135 C 9.194843 10.677135 8.562031 10.044323 8.562031 9.267956 C 8.562031 8.490124 9.194843 7.857311 9.972675 7.857311 C 10.749043 7.857311 11.378925 8.490124 11.378925 9.267956 Z M 11.378925 9.267956 " transform="matrix(2.666667, 0, 0, -2.666667, 132.386668, 138.76533)"/>
<path fill-rule="nonzero" fill="rgb(0%, 0%, 0%)" fill-opacity="1" d="M 177.867188 99.652344 C 177.867188 96.859375 176.03125 95.152344 173.617188 95.152344 C 170.074219 95.152344 166.492188 98.941406 166.492188 102.691406 C 166.492188 105.316406 168.28125 107.191406 170.742188 107.191406 C 174.28125 107.191406 177.867188 103.527344 177.867188 99.652344 Z M 170.78125 106.609375 C 169.617188 106.609375 168.449219 105.777344 168.449219 103.691406 C 168.449219 102.402344 169.15625 99.527344 169.992188 98.191406 C 171.324219 96.152344 172.867188 95.734375 173.617188 95.734375 C 175.15625 95.734375 175.949219 97.027344 175.949219 98.609375 C 175.949219 99.652344 175.40625 102.441406 174.40625 104.152344 C 173.449219 105.691406 171.992188 106.609375 170.78125 106.609375 Z M 170.78125 106.609375 "/>
</svg>
