<?xml version="1.0" encoding="UTF-8"?>
<svg xmlns="http://www.w3.org/2000/svg" xmlns:xlink="http://www.w3.org/1999/xlink" width="394.720001" height="98.379997" viewBox="0 0 394.720001 98.379997">
<path fill-rule="nonzero" fill="rgb(0%, 0%, 0%)" fill-opacity="1" d="M 24.242188 22.972656 L 24.242188 9.785156 L 21.335938 9.785156 L 17.148438 21.441406 L 17.085938 21.441406 L 13.085938 9.785156 L 9.992188 9.785156 L 9.992188 22.972656 L 10.867188 22.972656 L 10.867188 13.628906 L 10.898438 13.628906 L 14.148438 22.972656 L 17.523438 22.972656 L 20.898438 13.566406 L 20.929688 13.566406 L 20.929688 22.972656 Z M 23.367188 22.097656 L 21.804688 22.097656 L 21.804688 10.660156 L 23.367188 10.660156 Z M 16.429688 22.097656 L 14.773438 22.097656 L 11.210938 11.878906 L 10.804688 10.660156 L 12.398438 10.660156 Z M 16.429688 22.097656 "/>
<path fill-rule="nonzero" fill="rgb(0%, 0%, 0%)" fill-opacity="1" d="M 32.722656 21.335938 C 32.722656 19.742188 32.535156 18.585938 31.878906 17.554688 C 31.410156 16.898438 30.503906 16.304688 29.347656 16.304688 C 25.972656 16.304688 25.972656 20.273438 25.972656 21.335938 C 25.972656 22.367188 25.972656 26.242188 29.347656 26.242188 C 32.722656 26.242188 32.722656 22.367188 32.722656 21.335938 Z M 31.410156 21.148438 C 31.410156 22.210938 31.410156 23.273438 31.222656 24.210938 C 30.910156 25.523438 29.941406 25.835938 29.347656 25.835938 C 28.691406 25.835938 27.785156 25.460938 27.503906 24.273438 C 27.285156 23.398438 27.285156 22.210938 27.285156 21.148438 C 27.285156 20.085938 27.285156 18.960938 27.503906 18.179688 C 27.816406 17.023438 28.753906 16.710938 29.347656 16.710938 C 30.128906 16.710938 30.878906 17.210938 31.160156 18.054688 C 31.378906 18.835938 31.410156 19.867188 31.410156 21.148438 Z M 31.410156 21.148438 "/>
<path fill-rule="nonzero" fill="rgb(0%, 0%, 0%)" fill-opacity="1" d="M 115.152344 22.972656 L 115.152344 9.785156 L 112.246094 9.785156 L 108.058594 21.441406 L 107.996094 21.441406 L 103.996094 9.785156 L 100.902344 9.785156 L 100.902344 22.972656 L 101.777344 22.972656 L 101.777344 13.628906 L 101.808594 13.628906 L 105.058594 22.972656 L 108.433594 22.972656 L 111.808594 13.566406 L 111.839844 13.566406 L 111.839844 22.972656 Z M 114.277344 22.097656 L 112.714844 22.097656 L 112.714844 10.660156 L 114.277344 10.660156 Z M 107.339844 22.097656 L 105.683594 22.097656 L 102.121094 11.878906 L 101.714844 10.660156 L 103.308594 10.660156 Z M 107.339844 22.097656 "/>
<path fill-rule="nonzero" fill="rgb(0%, 0%, 0%)" fill-opacity="1" d="M 123.011719 25.960938 L 123.011719 25.429688 L 122.449219 25.429688 C 121.011719 25.429688 121.011719 25.242188 121.011719 24.773438 L 121.011719 16.710938 C 121.011719 16.335938 120.980469 16.304688 120.574219 16.304688 C 119.636719 17.242188 118.324219 17.242188 117.730469 17.242188 L 117.730469 17.773438 C 118.074219 17.773438 119.042969 17.773438 119.824219 17.367188 L 119.824219 24.773438 C 119.824219 25.242188 119.824219 25.429688 118.386719 25.429688 L 117.824219 25.429688 L 117.824219 25.960938 L 120.417969 25.898438 Z M 123.011719 25.960938 "/>
<path fill-rule="nonzero" fill="rgb(0%, 0%, 0%)" fill-opacity="1" d="M 206.066406 22.972656 L 206.066406 9.785156 L 203.160156 9.785156 L 198.972656 21.441406 L 198.910156 21.441406 L 194.910156 9.785156 L 191.816406 9.785156 L 191.816406 22.972656 L 192.691406 22.972656 L 192.691406 13.628906 L 192.722656 13.628906 L 195.972656 22.972656 L 199.347656 22.972656 L 202.722656 13.566406 L 202.753906 13.566406 L 202.753906 22.972656 Z M 205.191406 22.097656 L 203.628906 22.097656 L 203.628906 10.660156 L 205.191406 10.660156 Z M 198.253906 22.097656 L 196.597656 22.097656 L 193.035156 11.878906 L 192.628906 10.660156 L 194.222656 10.660156 Z M 198.253906 22.097656 "/>
<path fill-rule="nonzero" fill="rgb(0%, 0%, 0%)" fill-opacity="1" d="M 214.390625 23.304688 L 213.890625 23.304688 C 213.859375 23.648438 213.703125 24.492188 213.515625 24.648438 C 213.390625 24.710938 212.265625 24.710938 212.078125 24.710938 L 209.390625 24.710938 C 210.921875 23.367188 211.421875 22.960938 212.296875 22.273438 C 213.390625 21.429688 214.390625 20.523438 214.390625 19.148438 C 214.390625 17.398438 212.859375 16.304688 210.984375 16.304688 C 209.171875 16.304688 207.953125 17.585938 207.953125 18.898438 C 207.953125 19.648438 208.578125 19.742188 208.734375 19.742188 C 209.078125 19.742188 209.515625 19.492188 209.515625 18.960938 C 209.515625 18.710938 209.390625 18.179688 208.640625 18.179688 C 209.109375 17.148438 210.078125 16.835938 210.765625 16.835938 C 212.234375 16.835938 212.984375 17.960938 212.984375 19.148438 C 212.984375 20.398438 212.078125 21.398438 211.609375 21.929688 L 208.109375 25.398438 C 207.953125 25.523438 207.953125 25.554688 207.953125 25.960938 L 213.953125 25.960938 Z M 214.390625 23.304688 "/>
<path fill-rule="nonzero" fill="rgb(0%, 0%, 0%)" fill-opacity="1" d="M 285.117188 17.878906 C 285.117188 17.253906 284.617188 16.722656 284.023438 16.722656 C 283.429688 16.722656 282.929688 17.222656 282.929688 17.878906 C 282.929688 18.628906 283.585938 18.941406 284.023438 18.941406 C 284.429688 18.941406 285.117188 18.597656 285.117188 17.878906 Z M 285.117188 17.878906 "/>
<path fill-rule="nonzero" fill="rgb(0%, 0%, 0%)" fill-opacity="1" d="M 293.804688 17.878906 C 293.804688 17.253906 293.304688 16.722656 292.710938 16.722656 C 292.117188 16.722656 291.617188 17.222656 291.617188 17.878906 C 291.617188 18.628906 292.273438 18.941406 292.710938 18.941406 C 293.117188 18.941406 293.804688 18.597656 293.804688 17.878906 Z M 293.804688 17.878906 "/>
<path fill-rule="nonzero" fill="rgb(0%, 0%, 0%)" fill-opacity="1" d="M 302.511719 17.878906 C 302.511719 17.253906 302.011719 16.722656 301.417969 16.722656 C 300.824219 16.722656 300.324219 17.222656 300.324219 17.878906 C 300.324219 18.628906 300.980469 18.941406 301.417969 18.941406 C 301.824219 18.941406 302.511719 18.597656 302.511719 17.878906 Z M 302.511719 17.878906 "/>
<path fill-rule="nonzero" fill="rgb(0%, 0%, 0%)" fill-opacity="1" d="M 384.757812 22.972656 L 384.757812 9.785156 L 381.851562 9.785156 L 377.664062 21.441406 L 377.601562 21.441406 L 373.601562 9.785156 L 370.507812 9.785156 L 370.507812 22.972656 L 371.382812 22.972656 L 371.382812 13.628906 L 371.414062 13.628906 L 374.664062 22.972656 L 378.039062 22.972656 L 381.414062 13.566406 L 381.445312 13.566406 L 381.445312 22.972656 Z M 383.882812 22.097656 L 382.320312 22.097656 L 382.320312 10.660156 L 383.882812 10.660156 Z M 376.945312 22.097656 L 375.289062 22.097656 L 371.726562 11.878906 L 371.320312 10.660156 L 372.914062 10.660156 Z M 376.945312 22.097656 "/>
<path fill-rule="nonzero" fill="rgb(0%, 0%, 0%)" fill-opacity="1" d="M 212.53125 76.804688 L 212.4375 76.679688 C 211.8125 76.773438 210.1875 77.179688 209.71875 77.617188 C 209.5 77.835938 208.75 80.398438 208.5625 80.898438 C 207.78125 83.367188 206.96875 85.367188 205.03125 87.148438 C 203.9375 88.148438 202.25 89.242188 200.75 89.242188 C 200.4375 89.242188 200.1875 89.117188 200.1875 88.773438 C 200.1875 85.898438 202.625 80.023438 203.59375 77.054688 C 203.4375 76.929688 203.25 76.898438 203.0625 76.898438 C 200.90625 76.898438 193.96875 78.898438 193.96875 81.554688 C 193.96875 82.304688 195.125 84.117188 195.96875 84.117188 C 196.0625 84.117188 196.1875 84.117188 196.28125 84.054688 C 195.9375 83.617188 195.8125 83.054688 195.8125 82.523438 C 195.8125 80.179688 199.15625 77.992188 201.28125 77.929688 C 200.25 80.804688 197.84375 86.492188 197.84375 89.335938 C 197.84375 90.210938 198.1875 90.929688 199.15625 90.929688 C 201.25 90.929688 205.65625 87.867188 207.03125 86.273438 C 206.75 87.148438 206.5 88.054688 206.5 88.960938 C 206.5 89.523438 206.625 91.148438 207.40625 91.148438 C 208.34375 91.148438 209.78125 90.304688 209.90625 89.335938 C 209.78125 89.460938 209.5625 89.523438 209.375 89.523438 C 208.8125 89.523438 208.8125 88.742188 208.8125 88.335938 C 208.8125 86.304688 211.28125 78.273438 212.53125 76.804688 Z M 212.53125 76.804688 "/>
<path fill="none" stroke-width="0.5579" stroke-linecap="butt" stroke-linejoin="miter" stroke="rgb(0%, 0%, 0%)" stroke-opacity="1" stroke-miterlimit="10" d="M -76.935905 16.31922 L -53.98278 16.31922 " transform="matrix(2, 0, 0, -2, 197.363998, 50.490002)"/>
<path fill="none" stroke-width="0.5579" stroke-linecap="round" stroke-linejoin="round" stroke="rgb(0%, 0%, 0%)" stroke-opacity="1" stroke-miterlimit="10" d="M -2.899654 3.346855 C -2.372311 1.339043 -1.188717 0.389824 -0.00121689 -0.000801086 C -1.188717 -0.391426 -2.372311 -1.340645 -2.899654 -3.348457 " transform="matrix(2, 0, 0, -2, 89.955559, 17.84996)"/>
<path fill-rule="nonzero" fill="rgb(0%, 0%, 0%)" fill-opacity="1" d="M 62.460938 10.941406 C 63.773438 10.910156 64.460938 9.785156 64.804688 9.003906 L 64.554688 8.878906 C 64.335938 9.222656 63.804688 10.285156 63.210938 10.285156 C 63.085938 10.285156 62.960938 9.910156 62.960938 9.785156 C 62.960938 9.722656 62.960938 9.628906 62.992188 9.566406 C 63.054688 9.347656 63.148438 9.035156 63.210938 8.847656 L 63.648438 7.660156 C 63.867188 7.066406 64.023438 6.566406 64.148438 6.160156 C 64.304688 5.785156 64.367188 5.472656 64.367188 5.253906 C 64.367188 4.722656 64.273438 4.472656 63.804688 4.472656 C 62.960938 4.472656 61.835938 5.566406 61.523438 6.285156 L 61.804688 6.441406 C 61.992188 6.160156 62.523438 5.347656 62.867188 5.347656 C 63.085938 5.347656 63.054688 5.628906 63.054688 5.753906 C 63.054688 5.847656 63.054688 6.003906 62.992188 6.191406 C 62.929688 6.378906 62.867188 6.628906 62.742188 6.941406 L 62.242188 8.441406 C 62.085938 8.847656 61.960938 9.160156 61.898438 9.410156 C 61.835938 9.691406 61.773438 9.941406 61.773438 10.160156 C 61.773438 10.660156 61.992188 10.941406 62.460938 10.941406 Z M 62.460938 10.941406 "/>
<path fill-rule="nonzero" fill="rgb(0%, 0%, 0%)" fill-opacity="1" d="M 71.273438 9.496094 C 71.273438 8.683594 71.273438 5.714844 68.585938 5.714844 C 65.898438 5.714844 65.898438 8.683594 65.898438 9.496094 C 65.898438 10.277344 65.898438 13.214844 68.585938 13.214844 C 71.273438 13.214844 71.273438 10.277344 71.273438 9.496094 Z M 70.242188 9.339844 C 70.242188 10.058594 70.242188 11.152344 70.054688 11.777344 C 69.742188 12.746094 68.960938 12.871094 68.585938 12.871094 C 68.117188 12.871094 67.367188 12.652344 67.117188 11.746094 C 66.929688 11.121094 66.929688 10.027344 66.929688 9.339844 C 66.929688 8.621094 66.929688 7.777344 67.085938 7.183594 C 67.367188 6.183594 68.210938 6.058594 68.585938 6.058594 C 69.085938 6.058594 69.804688 6.308594 70.054688 7.121094 C 70.210938 7.714844 70.242188 8.496094 70.242188 9.339844 Z M 70.242188 9.339844 "/>
<path fill="none" stroke-width="0.5579" stroke-linecap="butt" stroke-linejoin="miter" stroke="rgb(0%, 0%, 0%)" stroke-opacity="1" stroke-miterlimit="10" d="M -76.935905 12.245001 L -6.775749 -13.825312 " transform="matrix(2, 0, 0, -2, 197.363998, 50.490002)"/>
<path fill="none" stroke-width="0.5579" stroke-linecap="round" stroke-linejoin="round" stroke="rgb(0%, 0%, 0%)" stroke-opacity="1" stroke-miterlimit="10" d="M -2.899148 3.346549 C -2.369813 1.33866 -1.188019 0.39001 -0.000429102 -0.00221873 C -1.18992 -0.390004 -2.371502 -1.337453 -2.900181 -3.346715 " transform="matrix(1.87466, 0.69654, 0.69654, -1.87466, 184.338287, 78.332077)"/>
<path fill-rule="nonzero" fill="rgb(0%, 0%, 0%)" fill-opacity="1" d="M 119.730469 47.101562 C 119.417969 47.101562 119.355469 46.914062 119.292969 46.664062 C 119.230469 46.414062 119.105469 46.132812 118.792969 46.132812 C 118.542969 46.132812 118.417969 46.351562 118.417969 46.570312 C 118.417969 47.164062 119.167969 47.445312 119.636719 47.445312 C 120.480469 47.445312 120.542969 47.195312 120.917969 46.664062 C 121.167969 46.382812 121.324219 45.976562 121.511719 45.476562 C 121.699219 44.976562 122.011719 44.320312 122.199219 43.539062 L 123.511719 38.507812 L 124.699219 38.507812 L 124.824219 38.164062 L 123.605469 38.164062 C 123.917969 37.039062 124.386719 35.070312 124.699219 34.476562 C 124.824219 34.289062 125.074219 34.007812 125.449219 34.007812 C 125.730469 34.007812 125.855469 34.195312 125.917969 34.445312 C 125.980469 34.726562 126.074219 34.976562 126.417969 34.976562 C 126.667969 34.976562 126.792969 34.789062 126.792969 34.570312 C 126.792969 33.976562 126.042969 33.695312 125.542969 33.695312 C 123.730469 33.726562 123.042969 36.632812 122.636719 38.164062 L 121.449219 38.164062 L 121.355469 38.507812 L 122.542969 38.507812 L 120.636719 45.695312 C 120.542969 46.039062 120.261719 47.101562 119.730469 47.101562 Z M 119.730469 47.101562 "/>
<path fill-rule="nonzero" fill="rgb(0%, 0%, 0%)" fill-opacity="1" d="M 129.84375 43.066406 C 129.84375 42.253906 129.84375 39.285156 127.15625 39.285156 C 124.46875 39.285156 124.46875 42.253906 124.46875 43.066406 C 124.46875 43.847656 124.46875 46.785156 127.15625 46.785156 C 129.84375 46.785156 129.84375 43.847656 129.84375 43.066406 Z M 128.8125 42.910156 C 128.8125 43.628906 128.8125 44.722656 128.625 45.347656 C 128.3125 46.316406 127.53125 46.441406 127.15625 46.441406 C 126.6875 46.441406 125.9375 46.222656 125.6875 45.316406 C 125.5 44.691406 125.5 43.597656 125.5 42.910156 C 125.5 42.191406 125.5 41.347656 125.65625 40.753906 C 125.9375 39.753906 126.78125 39.628906 127.15625 39.628906 C 127.65625 39.628906 128.375 39.878906 128.625 40.691406 C 128.78125 41.285156 128.8125 42.066406 128.8125 42.910156 Z M 128.8125 42.910156 "/>
<path fill="none" stroke-width="0.5579" stroke-linecap="butt" stroke-linejoin="miter" stroke="rgb(0%, 0%, 0%)" stroke-opacity="1" stroke-miterlimit="10" d="M -31.478874 16.31922 L -8.525749 16.31922 " transform="matrix(2, 0, 0, -2, 197.363998, 50.490002)"/>
<path fill="none" stroke-width="0.5579" stroke-linecap="round" stroke-linejoin="round" stroke="rgb(0%, 0%, 0%)" stroke-opacity="1" stroke-miterlimit="10" d="M -2.899483 3.346855 C -2.372139 1.339043 -1.188545 0.389824 -0.00104523 -0.000801086 C -1.188545 -0.391426 -2.372139 -1.340645 -2.899483 -3.348457 " transform="matrix(2, 0, 0, -2, 180.869278, 17.84996)"/>
<path fill-rule="nonzero" fill="rgb(0%, 0%, 0%)" fill-opacity="1" d="M 153.375 10.941406 C 154.6875 10.910156 155.375 9.785156 155.71875 9.003906 L 155.46875 8.878906 C 155.25 9.222656 154.71875 10.285156 154.125 10.285156 C 154 10.285156 153.875 9.910156 153.875 9.785156 C 153.875 9.722656 153.875 9.628906 153.90625 9.566406 C 153.96875 9.347656 154.0625 9.035156 154.125 8.847656 L 154.5625 7.660156 C 154.78125 7.066406 154.9375 6.566406 155.0625 6.160156 C 155.21875 5.785156 155.28125 5.472656 155.28125 5.253906 C 155.28125 4.722656 155.1875 4.472656 154.71875 4.472656 C 153.875 4.472656 152.75 5.566406 152.4375 6.285156 L 152.71875 6.441406 C 152.90625 6.160156 153.4375 5.347656 153.78125 5.347656 C 154 5.347656 153.96875 5.628906 153.96875 5.753906 C 153.96875 5.847656 153.96875 6.003906 153.90625 6.191406 C 153.84375 6.378906 153.78125 6.628906 153.65625 6.941406 L 153.15625 8.441406 C 153 8.847656 152.875 9.160156 152.8125 9.410156 C 152.75 9.691406 152.6875 9.941406 152.6875 10.160156 C 152.6875 10.660156 152.90625 10.941406 153.375 10.941406 Z M 153.375 10.941406 "/>
<path fill-rule="nonzero" fill="rgb(0%, 0%, 0%)" fill-opacity="1" d="M 161.6875 12.996094 L 161.6875 12.558594 L 161.21875 12.558594 C 160.09375 12.558594 160.09375 12.433594 160.09375 12.058594 L 160.09375 6.027344 C 160.09375 5.714844 160.0625 5.714844 159.71875 5.714844 C 159 6.402344 157.875 6.402344 157.46875 6.402344 L 157.46875 6.839844 C 157.78125 6.839844 158.5 6.839844 159.15625 6.527344 L 159.15625 12.058594 C 159.15625 12.433594 159.15625 12.558594 158.03125 12.558594 L 157.5625 12.558594 L 157.5625 12.996094 C 158.15625 12.964844 159 12.964844 159.625 12.964844 C 160.25 12.964844 161.09375 12.964844 161.6875 12.996094 Z M 161.6875 12.996094 "/>
<path fill="none" stroke-width="0.5579" stroke-linecap="butt" stroke-linejoin="miter" stroke="rgb(0%, 0%, 0%)" stroke-opacity="1" stroke-miterlimit="10" d="M -31.818718 8.416876 L -6.697624 -10.247187 " transform="matrix(2, 0, 0, -2, 197.363998, 50.490002)"/>
<path fill="none" stroke-width="0.5579" stroke-linecap="round" stroke-linejoin="round" stroke="rgb(0%, 0%, 0%)" stroke-opacity="1" stroke-miterlimit="10" d="M -2.900736 3.347636 C -2.370606 1.337347 -1.189608 0.389842 0.000905843 -0.000643418 C -1.189955 -0.389106 -2.371605 -1.340142 -2.899335 -3.348058 " transform="matrix(1.60526, 1.1928, 1.1928, -1.60526, 184.413376, 71.318199)"/>
<path fill-rule="nonzero" fill="rgb(0%, 0%, 0%)" fill-opacity="1" d="M 164.851562 47.496094 C 164.539062 47.496094 164.476562 47.308594 164.414062 47.058594 C 164.351562 46.808594 164.226562 46.527344 163.914062 46.527344 C 163.664062 46.527344 163.539062 46.746094 163.539062 46.964844 C 163.539062 47.558594 164.289062 47.839844 164.757812 47.839844 C 165.601562 47.839844 165.664062 47.589844 166.039062 47.058594 C 166.289062 46.777344 166.445312 46.371094 166.632812 45.871094 C 166.820312 45.371094 167.132812 44.714844 167.320312 43.933594 L 168.632812 38.902344 L 169.820312 38.902344 L 169.945312 38.558594 L 168.726562 38.558594 C 169.039062 37.433594 169.507812 35.464844 169.820312 34.871094 C 169.945312 34.683594 170.195312 34.402344 170.570312 34.402344 C 170.851562 34.402344 170.976562 34.589844 171.039062 34.839844 C 171.101562 35.121094 171.195312 35.371094 171.539062 35.371094 C 171.789062 35.371094 171.914062 35.183594 171.914062 34.964844 C 171.914062 34.371094 171.164062 34.089844 170.664062 34.089844 C 168.851562 34.121094 168.164062 37.027344 167.757812 38.558594 L 166.570312 38.558594 L 166.476562 38.902344 L 167.664062 38.902344 L 165.757812 46.089844 C 165.664062 46.433594 165.382812 47.496094 164.851562 47.496094 Z M 164.851562 47.496094 "/>
<path fill-rule="nonzero" fill="rgb(0%, 0%, 0%)" fill-opacity="1" d="M 174.464844 46.960938 L 174.464844 46.523438 L 173.996094 46.523438 C 172.871094 46.523438 172.871094 46.398438 172.871094 46.023438 L 172.871094 39.992188 C 172.871094 39.679688 172.839844 39.679688 172.496094 39.679688 C 171.777344 40.367188 170.652344 40.367188 170.246094 40.367188 L 170.246094 40.804688 C 170.558594 40.804688 171.277344 40.804688 171.933594 40.492188 L 171.933594 46.023438 C 171.933594 46.398438 171.933594 46.523438 170.808594 46.523438 L 170.339844 46.523438 L 170.339844 46.960938 C 170.933594 46.929688 171.777344 46.929688 172.402344 46.929688 C 173.027344 46.929688 173.871094 46.929688 174.464844 46.960938 Z M 174.464844 46.960938 "/>
<path fill="none" stroke-width="0.5579" stroke-linecap="butt" stroke-linejoin="miter" stroke="rgb(0%, 0%, 0%)" stroke-opacity="1" stroke-miterlimit="10" d="M 13.978157 16.31922 L 36.931282 16.31922 " transform="matrix(2, 0, 0, -2, 197.363998, 50.490002)"/>
<path fill="none" stroke-width="0.5579" stroke-linecap="round" stroke-linejoin="round" stroke="rgb(0%, 0%, 0%)" stroke-opacity="1" stroke-miterlimit="10" d="M -2.899307 3.346855 C -2.371964 1.339043 -1.18837 0.389824 -0.000869751 -0.000801086 C -1.18837 -0.391426 -2.371964 -1.340645 -2.899307 -3.348457 " transform="matrix(2, 0, 0, -2, 271.78299, 17.84996)"/>
<path fill-rule="nonzero" fill="rgb(0%, 0%, 0%)" fill-opacity="1" d="M 244.289062 10.941406 C 245.601562 10.910156 246.289062 9.785156 246.632812 9.003906 L 246.382812 8.878906 C 246.164062 9.222656 245.632812 10.285156 245.039062 10.285156 C 244.914062 10.285156 244.789062 9.910156 244.789062 9.785156 C 244.789062 9.722656 244.789062 9.628906 244.820312 9.566406 C 244.882812 9.347656 244.976562 9.035156 245.039062 8.847656 L 245.476562 7.660156 C 245.695312 7.066406 245.851562 6.566406 245.976562 6.160156 C 246.132812 5.785156 246.195312 5.472656 246.195312 5.253906 C 246.195312 4.722656 246.101562 4.472656 245.632812 4.472656 C 244.789062 4.472656 243.664062 5.566406 243.351562 6.285156 L 243.632812 6.441406 C 243.820312 6.160156 244.351562 5.347656 244.695312 5.347656 C 244.914062 5.347656 244.882812 5.628906 244.882812 5.753906 C 244.882812 5.847656 244.882812 6.003906 244.820312 6.191406 C 244.757812 6.378906 244.695312 6.628906 244.570312 6.941406 L 244.070312 8.441406 C 243.914062 8.847656 243.789062 9.160156 243.726562 9.410156 C 243.664062 9.691406 243.601562 9.941406 243.601562 10.160156 C 243.601562 10.660156 243.820312 10.941406 244.289062 10.941406 Z M 244.289062 10.941406 "/>
<path fill-rule="nonzero" fill="rgb(0%, 0%, 0%)" fill-opacity="1" d="M 252.972656 10.933594 L 252.566406 10.933594 C 252.535156 11.089844 252.441406 11.808594 252.253906 11.933594 C 252.191406 11.996094 251.285156 11.996094 251.160156 11.996094 L 249.097656 11.996094 L 250.503906 10.871094 C 250.878906 10.558594 251.847656 9.871094 252.191406 9.527344 C 252.503906 9.214844 252.972656 8.652344 252.972656 7.871094 C 252.972656 6.496094 251.722656 5.714844 250.253906 5.714844 C 248.847656 5.714844 247.847656 6.621094 247.847656 7.652344 C 247.847656 8.214844 248.316406 8.277344 248.441406 8.277344 C 248.722656 8.277344 249.035156 8.089844 249.035156 7.683594 C 249.035156 7.464844 248.910156 7.121094 248.410156 7.121094 C 248.660156 6.558594 249.347656 6.121094 250.097656 6.121094 C 251.253906 6.121094 251.847656 6.996094 251.847656 7.871094 C 251.847656 8.652344 251.347656 9.464844 250.566406 10.152344 L 247.972656 12.527344 C 247.878906 12.652344 247.847656 12.652344 247.847656 12.996094 L 252.628906 12.996094 Z M 252.972656 10.933594 "/>
<path fill="none" stroke-width="0.5579" stroke-linecap="butt" stroke-linejoin="miter" stroke="rgb(0%, 0%, 0%)" stroke-opacity="1" stroke-miterlimit="10" d="M 3.005501 8.416876 L 3.005501 -8.559687 " transform="matrix(2, 0, 0, -2, 197.363998, 50.490002)"/>
<path fill="none" stroke-width="0.5579" stroke-linecap="round" stroke-linejoin="round" stroke="rgb(0%, 0%, 0%)" stroke-opacity="1" stroke-miterlimit="10" d="M -2.900887 3.349174 C -2.369637 1.337456 -1.189949 0.392143 0.00145721 0.00151825 C -1.189949 -0.389107 -2.369637 -1.338326 -2.900887 -3.346138 " transform="matrix(0, 2, 2, 0, 203.371964, 68.168961)"/>
<path fill-rule="nonzero" fill="rgb(0%, 0%, 0%)" fill-opacity="1" d="M 208.929688 57.695312 C 208.617188 57.695312 208.554688 57.507812 208.492188 57.257812 C 208.429688 57.007812 208.304688 56.726562 207.992188 56.726562 C 207.742188 56.726562 207.617188 56.945312 207.617188 57.164062 C 207.617188 57.757812 208.367188 58.039062 208.835938 58.039062 C 209.679688 58.039062 209.742188 57.789062 210.117188 57.257812 C 210.367188 56.976562 210.523438 56.570312 210.710938 56.070312 C 210.898438 55.570312 211.210938 54.914062 211.398438 54.132812 L 212.710938 49.101562 L 213.898438 49.101562 L 214.023438 48.757812 L 212.804688 48.757812 C 213.117188 47.632812 213.585938 45.664062 213.898438 45.070312 C 214.023438 44.882812 214.273438 44.601562 214.648438 44.601562 C 214.929688 44.601562 215.054688 44.789062 215.117188 45.039062 C 215.179688 45.320312 215.273438 45.570312 215.617188 45.570312 C 215.867188 45.570312 215.992188 45.382812 215.992188 45.164062 C 215.992188 44.570312 215.242188 44.289062 214.742188 44.289062 C 212.929688 44.320312 212.242188 47.226562 211.835938 48.757812 L 210.648438 48.757812 L 210.554688 49.101562 L 211.742188 49.101562 L 209.835938 56.289062 C 209.742188 56.632812 209.460938 57.695312 208.929688 57.695312 Z M 208.929688 57.695312 "/>
<path fill-rule="nonzero" fill="rgb(0%, 0%, 0%)" fill-opacity="1" d="M 218.914062 55.097656 L 218.507812 55.097656 C 218.476562 55.253906 218.382812 55.972656 218.195312 56.097656 C 218.132812 56.160156 217.226562 56.160156 217.101562 56.160156 L 215.039062 56.160156 L 216.445312 55.035156 C 216.820312 54.722656 217.789062 54.035156 218.132812 53.691406 C 218.445312 53.378906 218.914062 52.816406 218.914062 52.035156 C 218.914062 50.660156 217.664062 49.878906 216.195312 49.878906 C 214.789062 49.878906 213.789062 50.785156 213.789062 51.816406 C 213.789062 52.378906 214.257812 52.441406 214.382812 52.441406 C 214.664062 52.441406 214.976562 52.253906 214.976562 51.847656 C 214.976562 51.628906 214.851562 51.285156 214.351562 51.285156 C 214.601562 50.722656 215.289062 50.285156 216.039062 50.285156 C 217.195312 50.285156 217.789062 51.160156 217.789062 52.035156 C 217.789062 52.816406 217.289062 53.628906 216.507812 54.316406 L 213.914062 56.691406 C 213.820312 56.816406 213.789062 56.816406 213.789062 57.160156 L 218.570312 57.160156 Z M 218.914062 55.097656 "/>
<path fill="none" stroke-width="0.5579" stroke-linecap="butt" stroke-linejoin="miter" stroke="rgb(0%, 0%, 0%)" stroke-opacity="1" stroke-miterlimit="10" d="M 57.864876 16.31922 L 80.818001 16.31922 " transform="matrix(2, 0, 0, -2, 197.363998, 50.490002)"/>
<path fill="none" stroke-width="0.5579" stroke-linecap="round" stroke-linejoin="round" stroke="rgb(0%, 0%, 0%)" stroke-opacity="1" stroke-miterlimit="10" d="M -2.901688 3.346855 C -2.370438 1.339043 -1.19075 0.389824 0.000656128 -0.000801086 C -1.19075 -0.391426 -2.370438 -1.340645 -2.901688 -3.348457 " transform="matrix(2, 0, 0, -2, 359.561188, 17.84996)"/>
<path fill-rule="nonzero" fill="rgb(0%, 0%, 0%)" fill-opacity="1" d="M 325.101562 10.859375 C 326.414062 10.828125 327.101562 9.703125 327.445312 8.921875 L 327.195312 8.796875 C 326.976562 9.140625 326.445312 10.203125 325.851562 10.203125 C 325.726562 10.203125 325.601562 9.828125 325.601562 9.703125 C 325.601562 9.640625 325.601562 9.546875 325.632812 9.484375 C 325.695312 9.265625 325.789062 8.953125 325.851562 8.765625 L 326.289062 7.578125 C 326.507812 6.984375 326.664062 6.484375 326.789062 6.078125 C 326.945312 5.703125 327.007812 5.390625 327.007812 5.171875 C 327.007812 4.640625 326.914062 4.390625 326.445312 4.390625 C 325.601562 4.390625 324.476562 5.484375 324.164062 6.203125 L 324.445312 6.359375 C 324.632812 6.078125 325.164062 5.265625 325.507812 5.265625 C 325.726562 5.265625 325.695312 5.546875 325.695312 5.671875 C 325.695312 5.765625 325.695312 5.921875 325.632812 6.109375 C 325.570312 6.296875 325.507812 6.546875 325.382812 6.859375 L 324.882812 8.359375 C 324.726562 8.765625 324.601562 9.078125 324.539062 9.328125 C 324.476562 9.609375 324.414062 9.859375 324.414062 10.078125 C 324.414062 10.578125 324.632812 10.859375 325.101562 10.859375 Z M 325.101562 10.859375 "/>
<path fill-rule="nonzero" fill="rgb(0%, 0%, 0%)" fill-opacity="1" d="M 331.492188 13.007812 C 332.492188 13.007812 332.960938 12.070312 333.242188 11.570312 L 333.085938 11.476562 C 332.835938 11.820312 332.398438 12.539062 332.054688 12.539062 C 331.898438 12.539062 331.898438 12.257812 331.898438 12.164062 C 331.898438 12.070312 331.960938 11.882812 332.054688 11.601562 C 332.117188 11.320312 332.210938 11.007812 332.335938 10.601562 C 332.523438 10.007812 332.710938 9.226562 332.710938 8.851562 C 332.710938 8.382812 332.523438 8.132812 332.054688 8.132812 C 331.210938 8.132812 330.585938 8.820312 330.148438 9.570312 L 330.117188 9.539062 C 330.210938 9.289062 330.242188 9.132812 330.242188 8.820312 C 330.242188 8.382812 330.148438 8.132812 329.710938 8.132812 C 328.679688 8.132812 328.429688 9.070312 328.148438 9.914062 L 328.367188 9.976562 C 328.492188 9.539062 328.898438 8.382812 329.398438 8.382812 C 329.492188 8.382812 329.585938 8.476562 329.585938 8.632812 C 329.585938 8.851562 329.523438 9.257812 329.460938 9.476562 C 329.304688 9.945312 329.210938 10.351562 329.023438 10.882812 L 328.367188 12.914062 L 329.085938 12.914062 L 329.742188 11.039062 C 329.960938 10.445312 330.367188 9.601562 330.710938 9.101562 C 330.960938 8.820312 331.398438 8.382812 331.773438 8.382812 C 331.929688 8.382812 331.992188 8.476562 331.992188 8.695312 C 331.992188 8.757812 331.992188 8.914062 331.960938 8.976562 C 331.929688 9.351562 331.804688 9.632812 331.710938 9.976562 C 331.492188 10.757812 331.367188 11.320312 331.148438 12.039062 C 331.117188 12.132812 331.085938 12.226562 331.085938 12.289062 C 331.085938 12.664062 331.148438 13.007812 331.492188 13.007812 Z M 331.492188 13.007812 "/>
<path fill-rule="nonzero" fill="rgb(0%, 0%, 0%)" fill-opacity="1" d="M 340.683594 10.414062 L 340.683594 9.789062 L 335.089844 9.789062 L 335.089844 10.414062 Z M 340.683594 10.414062 "/>
<path fill-rule="nonzero" fill="rgb(0%, 0%, 0%)" fill-opacity="1" d="M 347.339844 12.914062 L 347.339844 12.476562 L 346.871094 12.476562 C 345.746094 12.476562 345.746094 12.351562 345.746094 11.976562 L 345.746094 5.945312 C 345.746094 5.632812 345.714844 5.632812 345.371094 5.632812 C 344.652344 6.320312 343.527344 6.320312 343.121094 6.320312 L 343.121094 6.757812 C 343.433594 6.757812 344.152344 6.757812 344.808594 6.445312 L 344.808594 11.976562 C 344.808594 12.351562 344.808594 12.476562 343.683594 12.476562 L 343.214844 12.476562 L 343.214844 12.914062 C 343.808594 12.882812 344.652344 12.882812 345.277344 12.882812 C 345.902344 12.882812 346.746094 12.882812 347.339844 12.914062 Z M 347.339844 12.914062 "/>
<path fill="none" stroke-width="0.5579" stroke-linecap="butt" stroke-linejoin="miter" stroke="rgb(0%, 0%, 0%)" stroke-opacity="1" stroke-miterlimit="10" d="M 81.376595 12.928595 L 12.778938 -13.669062 " transform="matrix(2, 0, 0, -2, 197.363998, 50.490002)"/>
<path fill="none" stroke-width="0.5579" stroke-linecap="round" stroke-linejoin="round" stroke="rgb(0%, 0%, 0%)" stroke-opacity="1" stroke-miterlimit="10" d="M -2.902088 3.347565 C -2.369273 1.339387 -1.190491 0.392164 -0.000955726 0.00219947 C -1.188674 -0.392028 -2.371983 -1.336826 -2.900465 -3.348319 " transform="matrix(-1.86466, 0.72294, 0.72294, 1.86466, 222.402878, 78.02784)"/>
<path fill-rule="nonzero" fill="rgb(0%, 0%, 0%)" fill-opacity="1" d="M 278.503906 46.273438 C 278.191406 46.273438 278.128906 46.085938 278.066406 45.835938 C 278.003906 45.585938 277.878906 45.304688 277.566406 45.304688 C 277.316406 45.304688 277.191406 45.523438 277.191406 45.742188 C 277.191406 46.335938 277.941406 46.617188 278.410156 46.617188 C 279.253906 46.617188 279.316406 46.367188 279.691406 45.835938 C 279.941406 45.554688 280.097656 45.148438 280.285156 44.648438 C 280.472656 44.148438 280.785156 43.492188 280.972656 42.710938 L 282.285156 37.679688 L 283.472656 37.679688 L 283.597656 37.335938 L 282.378906 37.335938 C 282.691406 36.210938 283.160156 34.242188 283.472656 33.648438 C 283.597656 33.460938 283.847656 33.179688 284.222656 33.179688 C 284.503906 33.179688 284.628906 33.367188 284.691406 33.617188 C 284.753906 33.898438 284.847656 34.148438 285.191406 34.148438 C 285.441406 34.148438 285.566406 33.960938 285.566406 33.742188 C 285.566406 33.148438 284.816406 32.867188 284.316406 32.867188 C 282.503906 32.898438 281.816406 35.804688 281.410156 37.335938 L 280.222656 37.335938 L 280.128906 37.679688 L 281.316406 37.679688 L 279.410156 44.867188 C 279.316406 45.210938 279.035156 46.273438 278.503906 46.273438 Z M 278.503906 46.273438 "/>
</svg>
