<?xml version="1.0" encoding="UTF-8"?>
<svg xmlns="http://www.w3.org/2000/svg" xmlns:xlink="http://www.w3.org/1999/xlink" width="331.220001" height="162" viewBox="0 0 331.220001 162">
<path fill-rule="nonzero" fill="rgb(0%, 0%, 0%)" fill-opacity="1" d="M 252.722656 12.597656 C 252.722656 10.472656 253.535156 9.003906 254.472656 7.753906 C 254.660156 7.503906 255.128906 7.128906 255.128906 7.003906 C 255.128906 6.816406 255.066406 6.785156 254.910156 6.785156 C 254.816406 6.785156 254.691406 6.878906 254.597656 6.910156 C 254.535156 6.972656 254.410156 7.097656 254.160156 7.316406 C 254.003906 7.472656 253.816406 7.566406 253.597656 7.566406 C 253.222656 7.566406 253.003906 7.472656 252.785156 7.253906 C 252.535156 6.941406 252.285156 6.785156 251.816406 6.785156 C 250.972656 6.785156 250.097656 7.535156 250.097656 8.285156 C 250.097656 8.847656 250.472656 8.972656 250.847656 8.972656 C 251.222656 8.972656 251.410156 8.785156 251.410156 8.347656 C 251.410156 8.066406 251.097656 8.035156 251.097656 7.847656 C 251.097656 7.722656 251.160156 7.566406 251.410156 7.566406 C 251.972656 7.566406 252.222656 8.160156 252.441406 8.222656 C 252.753906 8.316406 252.847656 8.285156 253.253906 8.191406 L 253.503906 8.097656 C 252.910156 9.003906 252.066406 10.378906 251.722656 11.191406 C 251.378906 12.035156 251.222656 12.753906 251.222656 13.347656 C 251.222656 13.691406 251.285156 14.003906 251.347656 14.253906 C 251.628906 15.003906 252.160156 15.628906 253.191406 15.628906 C 255.753906 15.628906 256.785156 13.285156 257.566406 11.753906 C 258.003906 10.785156 258.347656 9.597656 258.347656 8.285156 C 258.347656 7.410156 258.222656 6.785156 257.410156 6.785156 C 256.847656 6.785156 256.566406 7.097656 256.566406 7.691406 C 256.566406 8.441406 256.941406 8.910156 256.941406 9.722656 C 256.941406 11.566406 255.785156 15.097656 253.785156 15.128906 C 252.753906 15.160156 252.722656 13.503906 252.722656 12.597656 Z M 252.722656 12.597656 "/>
<path fill-rule="nonzero" fill="rgb(0%, 0%, 0%)" fill-opacity="1" d="M 265.953125 15.804688 L 265.453125 15.804688 C 265.421875 16.148438 265.265625 16.992188 265.078125 17.148438 C 264.953125 17.210938 263.828125 17.210938 263.640625 17.210938 L 260.953125 17.210938 C 262.484375 15.867188 262.984375 15.460938 263.859375 14.773438 C 264.953125 13.929688 265.953125 13.023438 265.953125 11.648438 C 265.953125 9.898438 264.421875 8.804688 262.546875 8.804688 C 260.734375 8.804688 259.515625 10.085938 259.515625 11.398438 C 259.515625 12.148438 260.140625 12.242188 260.296875 12.242188 C 260.640625 12.242188 261.078125 11.992188 261.078125 11.460938 C 261.078125 11.210938 260.953125 10.679688 260.203125 10.679688 C 260.671875 9.648438 261.640625 9.335938 262.328125 9.335938 C 263.796875 9.335938 264.546875 10.460938 264.546875 11.648438 C 264.546875 12.898438 263.640625 13.898438 263.171875 14.429688 L 259.671875 17.898438 C 259.515625 18.023438 259.515625 18.054688 259.515625 18.460938 L 265.515625 18.460938 Z M 265.953125 15.804688 "/>
<path fill-rule="nonzero" fill="rgb(0%, 0%, 0%)" fill-opacity="1" d="M 196.03125 144.667969 C 196.03125 142.542969 196.84375 141.074219 197.78125 139.824219 C 197.96875 139.574219 198.4375 139.199219 198.4375 139.074219 C 198.4375 138.886719 198.375 138.855469 198.21875 138.855469 C 198.125 138.855469 198 138.949219 197.90625 138.980469 C 197.84375 139.042969 197.71875 139.167969 197.46875 139.386719 C 197.3125 139.542969 197.125 139.636719 196.90625 139.636719 C 196.53125 139.636719 196.3125 139.542969 196.09375 139.324219 C 195.84375 139.011719 195.59375 138.855469 195.125 138.855469 C 194.28125 138.855469 193.40625 139.605469 193.40625 140.355469 C 193.40625 140.917969 193.78125 141.042969 194.15625 141.042969 C 194.53125 141.042969 194.71875 140.855469 194.71875 140.417969 C 194.71875 140.136719 194.40625 140.105469 194.40625 139.917969 C 194.40625 139.792969 194.46875 139.636719 194.71875 139.636719 C 195.28125 139.636719 195.53125 140.230469 195.75 140.292969 C 196.0625 140.386719 196.15625 140.355469 196.5625 140.261719 L 196.8125 140.167969 C 196.21875 141.074219 195.375 142.449219 195.03125 143.261719 C 194.6875 144.105469 194.53125 144.824219 194.53125 145.417969 C 194.53125 145.761719 194.59375 146.074219 194.65625 146.324219 C 194.9375 147.074219 195.46875 147.699219 196.5 147.699219 C 199.0625 147.699219 200.09375 145.355469 200.875 143.824219 C 201.3125 142.855469 201.65625 141.667969 201.65625 140.355469 C 201.65625 139.480469 201.53125 138.855469 200.71875 138.855469 C 200.15625 138.855469 199.875 139.167969 199.875 139.761719 C 199.875 140.511719 200.25 140.980469 200.25 141.792969 C 200.25 143.636719 199.09375 147.167969 197.09375 147.199219 C 196.0625 147.230469 196.03125 145.574219 196.03125 144.667969 Z M 196.03125 144.667969 "/>
<path fill-rule="nonzero" fill="rgb(0%, 0%, 0%)" fill-opacity="1" d="M 208.789062 150.53125 L 208.789062 150 L 208.226562 150 C 206.789062 150 206.789062 149.8125 206.789062 149.34375 L 206.789062 141.28125 C 206.789062 140.90625 206.757812 140.875 206.351562 140.875 C 205.414062 141.8125 204.101562 141.8125 203.507812 141.8125 L 203.507812 142.34375 C 203.851562 142.34375 204.820312 142.34375 205.601562 141.9375 L 205.601562 149.34375 C 205.601562 149.8125 205.601562 150 204.164062 150 L 203.601562 150 L 203.601562 150.53125 L 206.195312 150.46875 Z M 208.789062 150.53125 "/>
<path fill-rule="nonzero" fill="rgb(0%, 0%, 0%)" fill-opacity="1" d="M 309.417969 144.667969 C 309.417969 142.542969 310.230469 141.074219 311.167969 139.824219 C 311.355469 139.574219 311.824219 139.199219 311.824219 139.074219 C 311.824219 138.886719 311.761719 138.855469 311.605469 138.855469 C 311.511719 138.855469 311.386719 138.949219 311.292969 138.980469 C 311.230469 139.042969 311.105469 139.167969 310.855469 139.386719 C 310.699219 139.542969 310.511719 139.636719 310.292969 139.636719 C 309.917969 139.636719 309.699219 139.542969 309.480469 139.324219 C 309.230469 139.011719 308.980469 138.855469 308.511719 138.855469 C 307.667969 138.855469 306.792969 139.605469 306.792969 140.355469 C 306.792969 140.917969 307.167969 141.042969 307.542969 141.042969 C 307.917969 141.042969 308.105469 140.855469 308.105469 140.417969 C 308.105469 140.136719 307.792969 140.105469 307.792969 139.917969 C 307.792969 139.792969 307.855469 139.636719 308.105469 139.636719 C 308.667969 139.636719 308.917969 140.230469 309.136719 140.292969 C 309.449219 140.386719 309.542969 140.355469 309.949219 140.261719 L 310.199219 140.167969 C 309.605469 141.074219 308.761719 142.449219 308.417969 143.261719 C 308.074219 144.105469 307.917969 144.824219 307.917969 145.417969 C 307.917969 145.761719 307.980469 146.074219 308.042969 146.324219 C 308.324219 147.074219 308.855469 147.699219 309.886719 147.699219 C 312.449219 147.699219 313.480469 145.355469 314.261719 143.824219 C 314.699219 142.855469 315.042969 141.667969 315.042969 140.355469 C 315.042969 139.480469 314.917969 138.855469 314.105469 138.855469 C 313.542969 138.855469 313.261719 139.167969 313.261719 139.761719 C 313.261719 140.511719 313.636719 140.980469 313.636719 141.792969 C 313.636719 143.636719 312.480469 147.167969 310.480469 147.199219 C 309.449219 147.230469 309.417969 145.574219 309.417969 144.667969 Z M 309.417969 144.667969 "/>
<path fill-rule="nonzero" fill="rgb(0%, 0%, 0%)" fill-opacity="1" d="M 322.769531 148.03125 C 322.769531 146.875 321.832031 145.75 320.238281 145.40625 C 321.769531 144.875 322.332031 143.78125 322.332031 142.875 C 322.332031 141.75 320.988281 140.875 319.394531 140.875 C 317.769531 140.875 316.550781 141.65625 316.550781 142.84375 C 316.550781 143.3125 316.863281 143.59375 317.300781 143.59375 C 317.738281 143.59375 318.019531 143.28125 318.019531 142.84375 C 318.019531 142.4375 317.738281 142.125 317.300781 142.09375 C 317.800781 141.46875 318.800781 141.3125 319.332031 141.3125 C 319.988281 141.3125 320.894531 141.625 320.894531 142.875 C 320.894531 143.5 320.707031 144.15625 320.332031 144.625 C 319.863281 145.15625 319.457031 145.1875 318.707031 145.25 C 318.363281 145.28125 318.332031 145.28125 318.238281 145.28125 C 318.238281 145.28125 318.113281 145.3125 318.113281 145.46875 C 318.113281 145.6875 318.238281 145.6875 318.488281 145.6875 L 319.269531 145.6875 C 320.394531 145.6875 321.207031 146.46875 321.207031 148.03125 C 321.207031 149.8125 320.175781 150.34375 319.332031 150.34375 C 318.738281 150.34375 317.457031 150.1875 316.863281 149.34375 C 317.550781 149.3125 317.707031 148.84375 317.707031 148.53125 C 317.707031 148.0625 317.363281 147.71875 316.894531 147.71875 C 316.488281 147.71875 316.082031 147.96875 316.082031 148.5625 C 316.082031 149.9375 317.582031 150.8125 319.363281 150.8125 C 321.363281 150.8125 322.769531 149.46875 322.769531 148.03125 Z M 322.769531 148.03125 "/>
<path fill-rule="nonzero" fill="rgb(0%, 0%, 0%)" fill-opacity="1" d="M 251.773438 86.164062 L 251.710938 86.445312 L 257.992188 86.445312 L 258.085938 86.164062 C 257.273438 86.164062 256.710938 85.976562 256.398438 85.757812 C 256.085938 85.507812 255.898438 85.195312 255.898438 84.757812 C 255.898438 84.476562 255.960938 84.164062 256.054688 83.789062 L 257.273438 79.382812 L 258.710938 79.382812 C 260.085938 79.382812 260.148438 80.914062 259.992188 82.351562 L 260.398438 82.351562 L 261.679688 76.664062 L 261.273438 76.664062 C 260.742188 77.820312 260.179688 78.882812 258.585938 78.882812 L 257.398438 78.882812 L 258.898438 73.007812 L 261.242188 73.007812 C 261.617188 73.007812 261.960938 73.007812 262.242188 73.132812 C 263.367188 73.632812 264.273438 74.851562 264.429688 76.226562 L 264.867188 76.226562 L 264.867188 72.601562 L 255.054688 72.601562 L 254.992188 72.882812 C 255.617188 72.882812 256.054688 73.039062 256.304688 73.257812 C 256.554688 73.414062 256.710938 73.695312 256.710938 74.070312 C 256.710938 74.257812 256.710938 74.445312 256.679688 74.695312 C 256.617188 74.914062 256.554688 75.195312 256.460938 75.476562 L 254.273438 83.789062 C 254.179688 84.226562 254.054688 84.570312 253.929688 84.820312 C 253.710938 85.351562 253.273438 85.757812 252.867188 85.976562 C 252.585938 86.101562 252.179688 86.164062 251.773438 86.164062 Z M 251.773438 86.164062 "/>
<path fill="none" stroke-width="0.3985" stroke-linecap="butt" stroke-linejoin="miter" stroke="rgb(0%, 0%, 0%)" stroke-opacity="1" stroke-miterlimit="10" d="M 29.499062 47.105625 L 53.850624 4.925938 " transform="matrix(2, 0, 0, -2, 202.330002, 127.68)"/>
<path fill-rule="nonzero" fill="rgb(0%, 0%, 0%)" fill-opacity="1" stroke-width="0.3985" stroke-linecap="butt" stroke-linejoin="miter" stroke="rgb(0%, 0%, 0%)" stroke-opacity="1" stroke-miterlimit="10" d="M 4.692652 0.000758063 L 0.643564 1.52674 L 1.973036 0.00132088 L 0.643925 -1.5272 Z M 4.692652 0.000758063 " transform="matrix(1.00004, 1.732, 1.732, -1.00004, 308.15741, 114.584023)"/>
<path fill-rule="nonzero" fill="rgb(0%, 0%, 0%)" fill-opacity="1" d="M 299.984375 59.867188 C 298.453125 59.867188 297.265625 60.960938 296.515625 61.867188 C 295.671875 62.867188 295.015625 64.367188 295.015625 66.085938 C 295.015625 67.710938 295.578125 68.710938 297.140625 68.710938 C 298.515625 68.710938 299.796875 67.710938 300.578125 66.429688 L 300.265625 66.210938 C 299.734375 66.992188 298.640625 68.273438 297.546875 68.273438 C 296.734375 68.273438 296.390625 67.585938 296.390625 66.429688 C 296.390625 66.117188 296.453125 65.492188 296.484375 65.179688 C 298.453125 64.773438 301.734375 63.492188 301.734375 61.242188 C 301.734375 60.335938 300.921875 59.867188 299.984375 59.867188 Z M 299.796875 60.304688 C 300.171875 60.304688 300.515625 60.648438 300.515625 61.085938 C 300.515625 62.867188 298.265625 64.179688 296.578125 64.710938 C 296.953125 63.335938 298.171875 60.304688 299.796875 60.304688 Z M 299.796875 60.304688 "/>
<path fill-rule="nonzero" fill="rgb(0%, 0%, 0%)" fill-opacity="1" d="M 309.265625 68.886719 L 308.765625 68.886719 C 308.734375 69.230469 308.578125 70.074219 308.390625 70.230469 C 308.265625 70.292969 307.140625 70.292969 306.953125 70.292969 L 304.265625 70.292969 C 305.796875 68.949219 306.296875 68.542969 307.171875 67.855469 C 308.265625 67.011719 309.265625 66.105469 309.265625 64.730469 C 309.265625 62.980469 307.734375 61.886719 305.859375 61.886719 C 304.046875 61.886719 302.828125 63.167969 302.828125 64.480469 C 302.828125 65.230469 303.453125 65.324219 303.609375 65.324219 C 303.953125 65.324219 304.390625 65.074219 304.390625 64.542969 C 304.390625 64.292969 304.265625 63.761719 303.515625 63.761719 C 303.984375 62.730469 304.953125 62.417969 305.640625 62.417969 C 307.109375 62.417969 307.859375 63.542969 307.859375 64.730469 C 307.859375 65.980469 306.953125 66.980469 306.484375 67.511719 L 302.984375 70.980469 C 302.828125 71.105469 302.828125 71.136719 302.828125 71.542969 L 308.828125 71.542969 Z M 309.265625 68.886719 "/>
<path fill-rule="nonzero" fill="rgb(0%, 0%, 0%)" fill-opacity="1" d="M 317.671875 69.042969 C 317.671875 67.886719 316.734375 66.761719 315.140625 66.417969 C 316.671875 65.886719 317.234375 64.792969 317.234375 63.886719 C 317.234375 62.761719 315.890625 61.886719 314.296875 61.886719 C 312.671875 61.886719 311.453125 62.667969 311.453125 63.855469 C 311.453125 64.324219 311.765625 64.605469 312.203125 64.605469 C 312.640625 64.605469 312.921875 64.292969 312.921875 63.855469 C 312.921875 63.449219 312.640625 63.136719 312.203125 63.105469 C 312.703125 62.480469 313.703125 62.324219 314.234375 62.324219 C 314.890625 62.324219 315.796875 62.636719 315.796875 63.886719 C 315.796875 64.511719 315.609375 65.167969 315.234375 65.636719 C 314.765625 66.167969 314.359375 66.199219 313.609375 66.261719 C 313.265625 66.292969 313.234375 66.292969 313.140625 66.292969 C 313.140625 66.292969 313.015625 66.324219 313.015625 66.480469 C 313.015625 66.699219 313.140625 66.699219 313.390625 66.699219 L 314.171875 66.699219 C 315.296875 66.699219 316.109375 67.480469 316.109375 69.042969 C 316.109375 70.824219 315.078125 71.355469 314.234375 71.355469 C 313.640625 71.355469 312.359375 71.199219 311.765625 70.355469 C 312.453125 70.324219 312.609375 69.855469 312.609375 69.542969 C 312.609375 69.074219 312.265625 68.730469 311.796875 68.730469 C 311.390625 68.730469 310.984375 68.980469 310.984375 69.574219 C 310.984375 70.949219 312.484375 71.824219 314.265625 71.824219 C 316.265625 71.824219 317.671875 70.480469 317.671875 69.042969 Z M 317.671875 69.042969 "/>
<path fill="none" stroke-width="0.3985" stroke-linecap="butt" stroke-linejoin="miter" stroke="rgb(0%, 0%, 0%)" stroke-opacity="1" stroke-miterlimit="10" d="M 1.151405 1.992344 L 25.502968 44.172031 " transform="matrix(2, 0, 0, -2, 202.330002, 127.68)"/>
<path fill-rule="nonzero" fill="rgb(0%, 0%, 0%)" fill-opacity="1" stroke-width="0.3985" stroke-linecap="butt" stroke-linejoin="miter" stroke="rgb(0%, 0%, 0%)" stroke-opacity="1" stroke-miterlimit="10" d="M 4.693488 0.000711553 L 0.643332 1.523334 L 1.973872 0.000148737 L 0.644401 -1.52527 Z M 4.693488 0.000711553 " transform="matrix(1.00004, -1.732, -1.732, -1.00004, 251.463806, 42.582958)"/>
<path fill-rule="nonzero" fill="rgb(0%, 0%, 0%)" fill-opacity="1" d="M 204.136719 59.867188 C 202.605469 59.867188 201.417969 60.960938 200.667969 61.867188 C 199.824219 62.867188 199.167969 64.367188 199.167969 66.085938 C 199.167969 67.710938 199.730469 68.710938 201.292969 68.710938 C 202.667969 68.710938 203.949219 67.710938 204.730469 66.429688 L 204.417969 66.210938 C 203.886719 66.992188 202.792969 68.273438 201.699219 68.273438 C 200.886719 68.273438 200.542969 67.585938 200.542969 66.429688 C 200.542969 66.117188 200.605469 65.492188 200.636719 65.179688 C 202.605469 64.773438 205.886719 63.492188 205.886719 61.242188 C 205.886719 60.335938 205.074219 59.867188 204.136719 59.867188 Z M 203.949219 60.304688 C 204.324219 60.304688 204.667969 60.648438 204.667969 61.085938 C 204.667969 62.867188 202.417969 64.179688 200.730469 64.710938 C 201.105469 63.335938 202.324219 60.304688 203.949219 60.304688 Z M 203.949219 60.304688 "/>
<path fill-rule="nonzero" fill="rgb(0%, 0%, 0%)" fill-opacity="1" d="M 212.949219 71.542969 L 212.949219 71.011719 L 212.386719 71.011719 C 210.949219 71.011719 210.949219 70.824219 210.949219 70.355469 L 210.949219 62.292969 C 210.949219 61.917969 210.917969 61.886719 210.511719 61.886719 C 209.574219 62.824219 208.261719 62.824219 207.667969 62.824219 L 207.667969 63.355469 C 208.011719 63.355469 208.980469 63.355469 209.761719 62.949219 L 209.761719 70.355469 C 209.761719 70.824219 209.761719 71.011719 208.324219 71.011719 L 207.761719 71.011719 L 207.761719 71.542969 L 210.355469 71.480469 Z M 212.949219 71.542969 "/>
<path fill-rule="nonzero" fill="rgb(0%, 0%, 0%)" fill-opacity="1" d="M 221.703125 68.886719 L 221.203125 68.886719 C 221.171875 69.230469 221.015625 70.074219 220.828125 70.230469 C 220.703125 70.292969 219.578125 70.292969 219.390625 70.292969 L 216.703125 70.292969 C 218.234375 68.949219 218.734375 68.542969 219.609375 67.855469 C 220.703125 67.011719 221.703125 66.105469 221.703125 64.730469 C 221.703125 62.980469 220.171875 61.886719 218.296875 61.886719 C 216.484375 61.886719 215.265625 63.167969 215.265625 64.480469 C 215.265625 65.230469 215.890625 65.324219 216.046875 65.324219 C 216.390625 65.324219 216.828125 65.074219 216.828125 64.542969 C 216.828125 64.292969 216.703125 63.761719 215.953125 63.761719 C 216.421875 62.730469 217.390625 62.417969 218.078125 62.417969 C 219.546875 62.417969 220.296875 63.542969 220.296875 64.730469 C 220.296875 65.980469 219.390625 66.980469 218.921875 67.511719 L 215.421875 70.980469 C 215.265625 71.105469 215.265625 71.136719 215.265625 71.542969 L 221.265625 71.542969 Z M 221.703125 68.886719 "/>
<path fill="none" stroke-width="0.3985" stroke-linecap="butt" stroke-linejoin="miter" stroke="rgb(0%, 0%, 0%)" stroke-opacity="1" stroke-miterlimit="10" d="M 54.702187 0.000156403 L 5.377968 0.000156403 " transform="matrix(2, 0, 0, -2, 202.330002, 127.68)"/>
<path fill-rule="nonzero" fill="rgb(0%, 0%, 0%)" fill-opacity="1" stroke-width="0.3985" stroke-linecap="butt" stroke-linejoin="miter" stroke="rgb(0%, 0%, 0%)" stroke-opacity="1" stroke-miterlimit="10" d="M 4.691315 -0.000156403 L 0.64444 1.523281 L 1.972565 -0.000156403 L 0.64444 -1.523594 Z M 4.691315 -0.000156403 " transform="matrix(-2, 0, 0, 2, 216.835754, 127.68)"/>
<path fill-rule="nonzero" fill="rgb(0%, 0%, 0%)" fill-opacity="1" d="M 252.058594 134.867188 C 250.527344 134.867188 249.339844 135.960938 248.589844 136.867188 C 247.746094 137.867188 247.089844 139.367188 247.089844 141.085938 C 247.089844 142.710938 247.652344 143.710938 249.214844 143.710938 C 250.589844 143.710938 251.871094 142.710938 252.652344 141.429688 L 252.339844 141.210938 C 251.808594 141.992188 250.714844 143.273438 249.621094 143.273438 C 248.808594 143.273438 248.464844 142.585938 248.464844 141.429688 C 248.464844 141.117188 248.527344 140.492188 248.558594 140.179688 C 250.527344 139.773438 253.808594 138.492188 253.808594 136.242188 C 253.808594 135.335938 252.996094 134.867188 252.058594 134.867188 Z M 251.871094 135.304688 C 252.246094 135.304688 252.589844 135.648438 252.589844 136.085938 C 252.589844 137.867188 250.339844 139.179688 248.652344 139.710938 C 249.027344 138.335938 250.246094 135.304688 251.871094 135.304688 Z M 251.871094 135.304688 "/>
<path fill-rule="nonzero" fill="rgb(0%, 0%, 0%)" fill-opacity="1" d="M 261.464844 144.042969 C 261.464844 142.886719 260.527344 141.761719 258.933594 141.417969 C 260.464844 140.886719 261.027344 139.792969 261.027344 138.886719 C 261.027344 137.761719 259.683594 136.886719 258.089844 136.886719 C 256.464844 136.886719 255.246094 137.667969 255.246094 138.855469 C 255.246094 139.324219 255.558594 139.605469 255.996094 139.605469 C 256.433594 139.605469 256.714844 139.292969 256.714844 138.855469 C 256.714844 138.449219 256.433594 138.136719 255.996094 138.105469 C 256.496094 137.480469 257.496094 137.324219 258.027344 137.324219 C 258.683594 137.324219 259.589844 137.636719 259.589844 138.886719 C 259.589844 139.511719 259.402344 140.167969 259.027344 140.636719 C 258.558594 141.167969 258.152344 141.199219 257.402344 141.261719 C 257.058594 141.292969 257.027344 141.292969 256.933594 141.292969 C 256.933594 141.292969 256.808594 141.324219 256.808594 141.480469 C 256.808594 141.699219 256.933594 141.699219 257.183594 141.699219 L 257.964844 141.699219 C 259.089844 141.699219 259.902344 142.480469 259.902344 144.042969 C 259.902344 145.824219 258.871094 146.355469 258.027344 146.355469 C 257.433594 146.355469 256.152344 146.199219 255.558594 145.355469 C 256.246094 145.324219 256.402344 144.855469 256.402344 144.542969 C 256.402344 144.074219 256.058594 143.730469 255.589844 143.730469 C 255.183594 143.730469 254.777344 143.980469 254.777344 144.574219 C 254.777344 145.949219 256.277344 146.824219 258.058594 146.824219 C 260.058594 146.824219 261.464844 145.480469 261.464844 144.042969 Z M 261.464844 144.042969 "/>
<path fill-rule="nonzero" fill="rgb(0%, 0%, 0%)" fill-opacity="1" d="M 269.15625 146.542969 L 269.15625 146.011719 L 268.59375 146.011719 C 267.15625 146.011719 267.15625 145.824219 267.15625 145.355469 L 267.15625 137.292969 C 267.15625 136.917969 267.125 136.886719 266.71875 136.886719 C 265.78125 137.824219 264.46875 137.824219 263.875 137.824219 L 263.875 138.355469 C 264.21875 138.355469 265.1875 138.355469 265.96875 137.949219 L 265.96875 145.355469 C 265.96875 145.824219 265.96875 146.011719 264.53125 146.011719 L 263.96875 146.011719 L 263.96875 146.542969 L 266.5625 146.480469 Z M 269.15625 146.542969 "/>
<path fill-rule="nonzero" fill="rgb(0%, 0%, 0%)" fill-opacity="1" d="M 16.917969 132.179688 C 18.574219 132.179688 19.667969 130.273438 20.230469 129.273438 L 19.886719 129.023438 C 19.449219 129.679688 18.511719 131.335938 17.824219 131.335938 C 17.574219 131.335938 17.667969 130.835938 17.667969 130.617188 C 17.667969 130.523438 17.667969 130.398438 17.667969 130.335938 C 17.949219 129.210938 18.480469 127.867188 18.824219 126.679688 C 19.011719 126.054688 19.292969 125.429688 19.292969 124.710938 C 19.292969 123.835938 18.886719 123.335938 18.011719 123.335938 C 17.355469 123.335938 16.855469 123.617188 16.417969 123.992188 C 15.792969 124.554688 15.324219 125.179688 14.824219 126.054688 L 14.761719 126.023438 C 14.917969 125.429688 15.011719 125.304688 15.011719 124.773438 C 15.011719 123.898438 14.542969 123.335938 13.667969 123.335938 C 12.574219 123.335938 11.542969 124.148438 10.542969 125.992188 L 10.511719 125.929688 C 10.667969 125.492188 10.730469 125.117188 10.730469 124.585938 C 10.730469 123.804688 10.574219 123.335938 9.792969 123.335938 C 8.136719 123.335938 7.417969 125.054688 6.886719 126.554688 L 7.230469 126.648438 C 7.449219 125.898438 8.417969 123.742188 9.261719 123.742188 C 9.480469 123.742188 9.574219 124.304688 9.574219 124.617188 C 9.574219 124.710938 9.542969 124.898438 9.480469 125.054688 C 9.167969 126.210938 8.855469 127.148438 8.480469 128.335938 L 7.324219 132.023438 L 8.636719 132.023438 L 10.011719 127.960938 C 10.574219 126.523438 11.449219 125.054688 12.511719 124.117188 C 12.824219 123.867188 13.105469 123.773438 13.324219 123.773438 C 13.980469 123.773438 13.824219 125.398438 13.667969 125.867188 C 13.417969 126.835938 13.105469 127.648438 12.730469 128.804688 L 11.667969 132.023438 L 13.011719 132.023438 C 13.511719 130.523438 13.886719 129.054688 14.386719 127.804688 C 14.855469 126.554688 15.792969 125.117188 16.574219 124.335938 C 17.011719 123.960938 17.324219 123.773438 17.605469 123.773438 C 17.824219 123.773438 18.042969 123.929688 18.042969 124.242188 C 18.042969 125.023438 17.699219 125.773438 17.417969 126.648438 C 17.011719 127.867188 16.636719 128.773438 16.355469 129.804688 C 16.261719 130.273438 16.136719 130.523438 16.136719 130.929688 C 16.136719 131.617188 16.324219 132.179688 16.917969 132.179688 Z M 16.917969 132.179688 "/>
<path fill="none" stroke-width="0.3985" stroke-linecap="butt" stroke-linejoin="miter" stroke="rgb(0%, 0%, 0%)" stroke-opacity="1" stroke-miterlimit="10" d="M -83.047813 0.000156403 L -5.379845 0.000156403 " transform="matrix(2, 0, 0, -2, 202.330002, 127.68)"/>
<path fill-rule="nonzero" fill="rgb(0%, 0%, 0%)" fill-opacity="1" stroke-width="0.3985" stroke-linecap="butt" stroke-linejoin="miter" stroke="rgb(0%, 0%, 0%)" stroke-opacity="1" stroke-miterlimit="10" d="M 4.693352 0.000156403 L 0.64257 1.523594 L 1.974602 0.000156403 L 0.64257 -1.523281 Z M 4.693352 0.000156403 " transform="matrix(2, 0, 0, -2, 187.824234, 127.68)"/>
<path fill-rule="nonzero" fill="rgb(0%, 0%, 0%)" fill-opacity="1" d="M 102.699219 109.011719 L 99.792969 119.605469 C 99.574219 120.199219 99.074219 120.355469 98.230469 120.355469 L 98.167969 120.636719 L 102.730469 120.636719 L 102.792969 120.355469 C 101.917969 120.324219 101.199219 120.292969 101.199219 119.605469 C 101.199219 119.511719 101.199219 119.417969 101.199219 119.324219 C 101.261719 119.230469 101.261719 119.074219 101.324219 118.917969 L 102.042969 116.324219 C 103.730469 116.105469 105.261719 115.324219 106.292969 114.417969 C 107.230469 113.605469 108.167969 112.386719 108.167969 110.730469 C 108.167969 108.949219 107.042969 107.917969 105.261719 107.917969 C 104.917969 107.917969 104.574219 107.949219 104.230469 108.042969 L 104.824219 105.886719 L 103.574219 105.886719 L 102.855469 108.386719 C 102.324219 108.636719 101.761719 108.980469 101.261719 109.355469 C 100.761719 109.730469 100.386719 110.136719 99.949219 110.574219 L 100.324219 110.886719 C 100.949219 110.230469 101.886719 109.449219 102.699219 109.011719 Z M 106.636719 110.855469 C 106.636719 112.042969 106.011719 113.449219 105.324219 114.167969 C 104.574219 114.917969 103.355469 115.667969 102.167969 115.886719 L 104.136719 108.511719 C 104.261719 108.480469 104.417969 108.480469 104.511719 108.480469 C 104.667969 108.417969 104.824219 108.417969 104.949219 108.417969 C 106.199219 108.417969 106.636719 109.667969 106.636719 110.855469 Z M 106.636719 110.855469 "/>
<path fill-rule="nonzero" fill="rgb(0%, 0%, 0%)" fill-opacity="1" d="M 134.0625 111.449219 L 130.15625 107.386719 L 129.53125 108.042969 L 131.90625 110.917969 L 116.125 110.917969 L 116.125 112.042969 L 131.90625 112.042969 L 129.53125 114.917969 L 130.15625 115.574219 Z M 134.0625 111.449219 "/>
<path fill="none" stroke-width="0.3985" stroke-linecap="butt" stroke-linejoin="miter" stroke="rgb(0%, 0%, 0%)" stroke-opacity="1" stroke-miterlimit="10" d="M -1.993126 0.000156403 L -79.661095 0.000156403 " transform="matrix(2, 0, 0, -2, 202.330002, 127.68)"/>
<path fill-rule="nonzero" fill="rgb(0%, 0%, 0%)" fill-opacity="1" stroke-width="0.3985" stroke-linecap="butt" stroke-linejoin="miter" stroke="rgb(0%, 0%, 0%)" stroke-opacity="1" stroke-miterlimit="10" d="M 4.693886 -0.000156403 L 0.643105 1.523281 L 1.975136 -0.000156403 L 0.643105 -1.523594 Z M 4.693886 -0.000156403 " transform="matrix(-2, 0, 0, 2, 46.754959, 127.68)"/>
<path fill-rule="nonzero" fill="rgb(0%, 0%, 0%)" fill-opacity="1" d="M 108.640625 146.761719 L 108.640625 145.636719 L 92.828125 145.636719 L 95.203125 142.761719 L 94.609375 142.105469 L 90.703125 146.230469 L 94.609375 150.292969 L 95.203125 149.636719 L 92.828125 146.761719 Z M 108.640625 146.761719 "/>
<path fill-rule="nonzero" fill="rgb(0%, 0%, 0%)" fill-opacity="1" d="M 118.789062 143.730469 L 115.882812 154.324219 C 115.664062 154.917969 115.164062 155.074219 114.320312 155.074219 L 114.257812 155.355469 L 118.820312 155.355469 L 118.882812 155.074219 C 118.007812 155.042969 117.289062 155.011719 117.289062 154.324219 C 117.289062 154.230469 117.289062 154.136719 117.289062 154.042969 C 117.351562 153.949219 117.351562 153.792969 117.414062 153.636719 L 118.132812 151.042969 C 119.820312 150.824219 121.351562 150.042969 122.382812 149.136719 C 123.320312 148.324219 124.257812 147.105469 124.257812 145.449219 C 124.257812 143.667969 123.132812 142.636719 121.351562 142.636719 C 121.007812 142.636719 120.664062 142.667969 120.320312 142.761719 L 120.914062 140.605469 L 119.664062 140.605469 L 118.945312 143.105469 C 118.414062 143.355469 117.851562 143.699219 117.351562 144.074219 C 116.851562 144.449219 116.476562 144.855469 116.039062 145.292969 L 116.414062 145.605469 C 117.039062 144.949219 117.976562 144.167969 118.789062 143.730469 Z M 122.726562 145.574219 C 122.726562 146.761719 122.101562 148.167969 121.414062 148.886719 C 120.664062 149.636719 119.445312 150.386719 118.257812 150.605469 L 120.226562 143.230469 C 120.351562 143.199219 120.507812 143.199219 120.601562 143.199219 C 120.757812 143.136719 120.914062 143.136719 121.039062 143.136719 C 122.289062 143.136719 122.726562 144.386719 122.726562 145.574219 Z M 122.726562 145.574219 "/>
<path fill-rule="nonzero" fill="rgb(0%, 0%, 0%)" fill-opacity="1" d="M 134.359375 140.78125 L 134.359375 139.9375 L 126.921875 139.9375 L 126.921875 140.78125 Z M 134.359375 140.78125 "/>
<path fill-rule="nonzero" fill="rgb(0%, 0%, 0%)" fill-opacity="1" d="M 142.722656 144.09375 L 142.722656 143.5625 L 142.160156 143.5625 C 140.722656 143.5625 140.722656 143.375 140.722656 142.90625 L 140.722656 134.84375 C 140.722656 134.46875 140.691406 134.4375 140.285156 134.4375 C 139.347656 135.375 138.035156 135.375 137.441406 135.375 L 137.441406 135.90625 C 137.785156 135.90625 138.753906 135.90625 139.535156 135.5 L 139.535156 142.90625 C 139.535156 143.375 139.535156 143.5625 138.097656 143.5625 L 137.535156 143.5625 L 137.535156 144.09375 L 140.128906 144.03125 Z M 142.722656 144.09375 "/>
<path fill-rule="nonzero" fill="rgb(0%, 0%, 0%)" fill-opacity="1" d="M 263.007812 29.484375 C 263.007812 27.289062 261.226562 25.5 259.023438 25.5 C 256.820312 25.5 255.039062 27.289062 255.039062 29.484375 C 255.039062 31.6875 256.820312 33.46875 259.023438 33.46875 C 261.226562 33.46875 263.007812 31.6875 263.007812 29.484375 Z M 263.007812 29.484375 "/>
<path fill-rule="nonzero" fill="rgb(0%, 0%, 0%)" fill-opacity="1" d="M 206.3125 127.679688 C 206.3125 125.476562 204.53125 123.695312 202.328125 123.695312 C 200.132812 123.695312 198.34375 125.476562 198.34375 127.679688 C 198.34375 129.882812 200.132812 131.664062 202.328125 131.664062 C 204.53125 131.664062 206.3125 129.882812 206.3125 127.679688 Z M 206.3125 127.679688 "/>
<path fill-rule="nonzero" fill="rgb(0%, 0%, 0%)" fill-opacity="1" d="M 319.703125 127.679688 C 319.703125 125.476562 317.921875 123.695312 315.71875 123.695312 C 313.515625 123.695312 311.734375 125.476562 311.734375 127.679688 C 311.734375 129.882812 313.515625 131.664062 315.71875 131.664062 C 317.921875 131.664062 319.703125 129.882812 319.703125 127.679688 Z M 319.703125 127.679688 "/>
<path fill-rule="nonzero" fill="rgb(0%, 0%, 0%)" fill-opacity="1" d="M 36.234375 127.679688 C 36.234375 125.476562 34.453125 123.695312 32.25 123.695312 C 30.046875 123.695312 28.265625 125.476562 28.265625 127.679688 C 28.265625 129.882812 30.046875 131.664062 32.25 131.664062 C 34.453125 131.664062 36.234375 129.882812 36.234375 127.679688 Z M 36.234375 127.679688 "/>
</svg>
