<?xml version="1.0" encoding="UTF-8"?>
<svg xmlns="http://www.w3.org/2000/svg" xmlns:xlink="http://www.w3.org/1999/xlink" width="550.613322" height="233.280009" viewBox="0 0 550.613322 233.280009">
<defs>
<clipPath id="clip-0">
<path clip-rule="nonzero" d="M 108 68 L 313 68 L 313 233.28125 L 108 233.28125 Z M 108 68 "/>
</clipPath>
</defs>
<path fill-rule="nonzero" fill="rgb(0%, 0%, 0%)" fill-opacity="1" d="M 281.519531 15.4375 C 281.769531 14.480469 281.808594 14.230469 283.808594 14.230469 C 284.394531 14.230469 284.644531 14.230469 284.644531 13.6875 C 284.644531 13.394531 284.394531 13.394531 283.933594 13.394531 L 280.433594 13.394531 C 279.726562 13.394531 279.683594 13.394531 279.394531 13.894531 L 269.683594 29.0625 L 267.601562 14.019531 C 267.519531 13.394531 267.476562 13.394531 266.769531 13.394531 L 263.144531 13.394531 C 262.644531 13.394531 262.351562 13.394531 262.351562 13.894531 C 262.351562 14.230469 262.601562 14.230469 263.101562 14.230469 C 263.476562 14.230469 263.933594 14.269531 264.269531 14.269531 C 264.683594 14.355469 264.851562 14.394531 264.851562 14.730469 C 264.851562 14.8125 264.808594 14.894531 264.726562 15.230469 L 261.351562 28.730469 C 261.101562 29.8125 260.644531 30.644531 258.476562 30.730469 C 258.351562 30.730469 258.019531 30.769531 258.019531 31.230469 C 258.019531 31.480469 258.183594 31.5625 258.394531 31.5625 C 259.226562 31.5625 260.144531 31.480469 261.058594 31.480469 C 261.933594 31.480469 262.894531 31.5625 263.769531 31.5625 C 263.894531 31.5625 264.269531 31.5625 264.269531 31.019531 C 264.269531 30.730469 263.976562 30.730469 263.769531 30.730469 C 262.269531 30.730469 261.976562 30.1875 261.976562 29.5625 C 261.976562 29.394531 261.976562 29.230469 262.058594 28.9375 L 265.683594 14.480469 L 265.726562 14.480469 L 268.019531 30.9375 C 268.058594 31.269531 268.101562 31.5625 268.394531 31.5625 C 268.683594 31.5625 268.851562 31.269531 268.976562 31.105469 L 279.726562 14.269531 L 279.769531 14.269531 L 275.933594 29.480469 C 275.683594 30.519531 275.644531 30.730469 273.519531 30.730469 C 273.101562 30.730469 272.808594 30.730469 272.808594 31.230469 C 272.808594 31.5625 273.101562 31.5625 273.183594 31.5625 C 273.933594 31.5625 275.726562 31.480469 276.476562 31.480469 C 277.558594 31.480469 278.726562 31.5625 279.808594 31.5625 C 279.976562 31.5625 280.308594 31.5625 280.308594 31.019531 C 280.308594 30.730469 280.058594 30.730469 279.558594 30.730469 C 278.601562 30.730469 277.851562 30.730469 277.851562 30.269531 C 277.851562 30.144531 277.851562 30.105469 277.976562 29.605469 Z M 281.519531 15.4375 "/>
<path fill-rule="nonzero" fill="rgb(0%, 0%, 0%)" fill-opacity="1" d="M 292.042969 32.175781 L 291.417969 32.175781 C 291.375 32.589844 291.167969 33.675781 290.917969 33.839844 C 290.792969 33.964844 289.375 33.964844 289.082031 33.964844 L 285.667969 33.964844 C 287.625 32.257812 288.292969 31.714844 289.375 30.839844 C 290.75 29.757812 292.042969 28.589844 292.042969 26.839844 C 292.042969 24.589844 290.082031 23.214844 287.707031 23.214844 C 285.417969 23.214844 283.832031 24.839844 283.832031 26.550781 C 283.832031 27.464844 284.625 27.589844 284.832031 27.589844 C 285.25 27.589844 285.792969 27.257812 285.792969 26.589844 C 285.792969 26.257812 285.667969 25.589844 284.707031 25.589844 C 285.292969 24.300781 286.542969 23.882812 287.417969 23.882812 C 289.292969 23.882812 290.25 25.339844 290.25 26.839844 C 290.25 28.464844 289.082031 29.714844 288.5 30.382812 L 284.042969 34.839844 C 283.832031 35.007812 283.832031 35.050781 283.832031 35.550781 L 291.5 35.550781 Z M 292.042969 32.175781 "/>
<path fill-rule="nonzero" fill="rgb(0%, 0%, 0%)" fill-opacity="1" d="M 310.820312 24.1875 L 305.53125 18.894531 C 305.195312 18.5625 305.15625 18.519531 304.945312 18.519531 C 304.65625 18.519531 304.40625 18.730469 304.40625 19.0625 C 304.40625 19.230469 304.445312 19.269531 304.738281 19.5625 L 310.070312 24.894531 L 304.738281 30.269531 C 304.445312 30.5625 304.40625 30.605469 304.40625 30.769531 C 304.40625 31.105469 304.65625 31.3125 304.945312 31.3125 C 305.15625 31.3125 305.195312 31.269531 305.53125 30.9375 L 310.820312 25.644531 L 316.320312 31.144531 C 316.363281 31.1875 316.53125 31.3125 316.695312 31.3125 C 317.03125 31.3125 317.238281 31.105469 317.238281 30.769531 C 317.238281 30.730469 317.238281 30.644531 317.15625 30.480469 C 317.113281 30.4375 312.90625 26.269531 311.570312 24.894531 L 316.445312 20.0625 C 316.570312 19.894531 316.988281 19.5625 317.113281 19.394531 C 317.113281 19.355469 317.238281 19.230469 317.238281 19.0625 C 317.238281 18.730469 317.03125 18.519531 316.695312 18.519531 C 316.488281 18.519531 316.40625 18.605469 316.113281 18.894531 Z M 310.820312 24.1875 "/>
<path fill-rule="nonzero" fill="rgb(0%, 0%, 0%)" fill-opacity="1" d="M 339.347656 22.5625 C 339.097656 20.894531 338.015625 19.394531 335.929688 19.394531 C 334.304688 19.394531 332.597656 19.855469 330.515625 21.894531 C 328.304688 24.105469 328.140625 26.605469 328.140625 27.394531 C 328.140625 29.0625 329.304688 32.144531 333.015625 32.144531 C 339.347656 32.144531 342.097656 23.230469 342.097656 19.394531 C 342.097656 15.1875 339.640625 12.519531 336.347656 12.519531 C 332.515625 12.519531 331.265625 15.980469 331.265625 16.730469 C 331.265625 17.105469 331.515625 17.644531 332.304688 17.644531 C 333.179688 17.644531 333.722656 16.855469 333.722656 16.269531 C 333.722656 15.3125 332.890625 15.3125 332.472656 15.3125 C 333.640625 13.355469 335.554688 13.1875 336.304688 13.1875 C 338.265625 13.1875 340.097656 14.5625 340.097656 18.019531 C 340.097656 19.0625 339.929688 20.394531 339.390625 22.5625 Z M 333.097656 31.394531 C 330.179688 31.394531 330.179688 28.644531 330.179688 28.394531 C 330.179688 27.6875 330.847656 23.980469 331.929688 22.355469 C 332.972656 20.855469 334.304688 19.980469 335.929688 19.980469 C 338.847656 19.980469 338.890625 22.980469 338.890625 23.519531 C 338.890625 25.4375 337.179688 31.394531 333.097656 31.394531 Z M 333.097656 31.394531 "/>
<path fill-rule="nonzero" fill="rgb(0%, 0%, 0%)" fill-opacity="1" d="M 354.382812 13.019531 C 354.21875 12.644531 354.132812 12.519531 353.675781 12.519531 C 353.257812 12.519531 353.175781 12.644531 353.007812 13.019531 L 344.007812 31.019531 C 343.882812 31.269531 343.882812 31.3125 343.882812 31.355469 C 343.882812 31.5625 344.050781 31.5625 344.46875 31.5625 L 362.925781 31.5625 C 363.34375 31.5625 363.507812 31.5625 363.507812 31.355469 C 363.507812 31.3125 363.507812 31.269531 363.382812 31.019531 Z M 352.84375 15.1875 L 360.007812 29.5625 L 345.675781 29.5625 Z M 352.84375 15.1875 "/>
<path fill-rule="nonzero" fill="rgb(0%, 0%, 0%)" fill-opacity="1" d="M 356.746094 18.605469 C 356.621094 18.355469 356.578125 18.269531 356.289062 18.269531 C 355.953125 18.269531 355.914062 18.355469 355.789062 18.605469 L 349.496094 31.1875 C 349.414062 31.355469 349.414062 31.394531 349.414062 31.394531 C 349.414062 31.5625 349.539062 31.5625 349.828125 31.5625 L 362.703125 31.5625 C 362.996094 31.5625 363.121094 31.5625 363.121094 31.394531 C 363.121094 31.394531 363.121094 31.355469 363.039062 31.1875 Z M 355.664062 20.105469 L 360.664062 30.144531 L 350.664062 30.144531 Z M 355.664062 20.105469 "/>
<path fill-rule="nonzero" fill="rgb(0%, 0%, 0%)" fill-opacity="1" d="M 372.828125 37.9375 C 372.828125 37.855469 372.828125 37.8125 372.371094 37.355469 C 369.078125 34.019531 368.203125 28.980469 368.203125 24.894531 C 368.203125 20.269531 369.203125 15.644531 372.496094 12.355469 C 372.828125 12.019531 372.828125 11.980469 372.828125 11.894531 C 372.828125 11.6875 372.746094 11.605469 372.578125 11.605469 C 372.289062 11.605469 369.914062 13.4375 368.328125 16.8125 C 366.996094 19.730469 366.664062 22.6875 366.664062 24.894531 C 366.664062 26.980469 366.953125 30.1875 368.414062 33.230469 C 370.039062 36.480469 372.289062 38.230469 372.578125 38.230469 C 372.746094 38.230469 372.828125 38.144531 372.828125 37.9375 Z M 372.828125 37.9375 "/>
<path fill-rule="nonzero" fill="rgb(0%, 0%, 0%)" fill-opacity="1" d="M 377.71875 29.519531 L 380.554688 26.769531 C 384.679688 23.105469 386.261719 21.6875 386.261719 19.019531 C 386.261719 15.980469 383.886719 13.855469 380.636719 13.855469 C 377.636719 13.855469 375.679688 16.3125 375.679688 18.6875 C 375.679688 20.144531 377.011719 20.144531 377.09375 20.144531 C 377.554688 20.144531 378.46875 19.855469 378.46875 18.730469 C 378.46875 18.0625 377.96875 17.355469 377.054688 17.355469 C 376.84375 17.355469 376.804688 17.355469 376.71875 17.394531 C 377.304688 15.644531 378.761719 14.6875 380.304688 14.6875 C 382.71875 14.6875 383.84375 16.855469 383.84375 19.019531 C 383.84375 21.144531 382.554688 23.230469 381.054688 24.894531 L 375.96875 30.5625 C 375.679688 30.855469 375.679688 30.9375 375.679688 31.5625 L 385.554688 31.5625 L 386.261719 26.9375 L 385.636719 26.9375 C 385.46875 27.730469 385.304688 28.894531 385.011719 29.3125 C 384.84375 29.519531 383.09375 29.519531 382.511719 29.519531 Z M 377.71875 29.519531 "/>
<path fill-rule="nonzero" fill="rgb(0%, 0%, 0%)" fill-opacity="1" d="M 395.296875 24.894531 C 395.296875 22.855469 395.003906 19.644531 393.546875 16.605469 C 391.960938 13.355469 389.671875 11.605469 389.421875 11.605469 C 389.253906 11.605469 389.128906 11.730469 389.128906 11.894531 C 389.128906 11.980469 389.128906 12.019531 389.628906 12.519531 C 392.253906 15.144531 393.753906 19.355469 393.753906 24.894531 C 393.753906 29.480469 392.796875 34.144531 389.503906 37.480469 C 389.128906 37.8125 389.128906 37.855469 389.128906 37.9375 C 389.128906 38.105469 389.253906 38.230469 389.421875 38.230469 C 389.671875 38.230469 392.085938 36.394531 393.628906 33.019531 C 395.003906 30.105469 395.296875 27.144531 395.296875 24.894531 Z M 395.296875 24.894531 "/>
<path fill-rule="nonzero" fill="rgb(0%, 0%, 0%)" fill-opacity="1" d="M 509.273438 15.4375 C 509.523438 14.480469 509.566406 14.230469 511.566406 14.230469 C 512.148438 14.230469 512.398438 14.230469 512.398438 13.6875 C 512.398438 13.394531 512.148438 13.394531 511.691406 13.394531 L 508.191406 13.394531 C 507.480469 13.394531 507.441406 13.394531 507.148438 13.894531 L 497.441406 29.0625 L 495.355469 14.019531 C 495.273438 13.394531 495.230469 13.394531 494.523438 13.394531 L 490.898438 13.394531 C 490.398438 13.394531 490.105469 13.394531 490.105469 13.894531 C 490.105469 14.230469 490.355469 14.230469 490.855469 14.230469 C 491.230469 14.230469 491.691406 14.269531 492.023438 14.269531 C 492.441406 14.355469 492.605469 14.394531 492.605469 14.730469 C 492.605469 14.8125 492.566406 14.894531 492.480469 15.230469 L 489.105469 28.730469 C 488.855469 29.8125 488.398438 30.644531 486.230469 30.730469 C 486.105469 30.730469 485.773438 30.769531 485.773438 31.230469 C 485.773438 31.480469 485.941406 31.5625 486.148438 31.5625 C 486.980469 31.5625 487.898438 31.480469 488.816406 31.480469 C 489.691406 31.480469 490.648438 31.5625 491.523438 31.5625 C 491.648438 31.5625 492.023438 31.5625 492.023438 31.019531 C 492.023438 30.730469 491.730469 30.730469 491.523438 30.730469 C 490.023438 30.730469 489.730469 30.1875 489.730469 29.5625 C 489.730469 29.394531 489.730469 29.230469 489.816406 28.9375 L 493.441406 14.480469 L 493.480469 14.480469 L 495.773438 30.9375 C 495.816406 31.269531 495.855469 31.5625 496.148438 31.5625 C 496.441406 31.5625 496.605469 31.269531 496.730469 31.105469 L 507.480469 14.269531 L 507.523438 14.269531 L 503.691406 29.480469 C 503.441406 30.519531 503.398438 30.730469 501.273438 30.730469 C 500.855469 30.730469 500.566406 30.730469 500.566406 31.230469 C 500.566406 31.5625 500.855469 31.5625 500.941406 31.5625 C 501.691406 31.5625 503.480469 31.480469 504.230469 31.480469 C 505.316406 31.480469 506.480469 31.5625 507.566406 31.5625 C 507.730469 31.5625 508.066406 31.5625 508.066406 31.019531 C 508.066406 30.730469 507.816406 30.730469 507.316406 30.730469 C 506.355469 30.730469 505.605469 30.730469 505.605469 30.269531 C 505.605469 30.144531 505.605469 30.105469 505.730469 29.605469 Z M 509.273438 15.4375 "/>
<path fill-rule="nonzero" fill="rgb(0%, 0%, 0%)" fill-opacity="1" d="M 519.796875 32.175781 L 519.171875 32.175781 C 519.128906 32.589844 518.921875 33.675781 518.671875 33.839844 C 518.546875 33.964844 517.128906 33.964844 516.839844 33.964844 L 513.421875 33.964844 C 515.378906 32.257812 516.046875 31.714844 517.128906 30.839844 C 518.503906 29.757812 519.796875 28.589844 519.796875 26.839844 C 519.796875 24.589844 517.839844 23.214844 515.464844 23.214844 C 513.171875 23.214844 511.589844 24.839844 511.589844 26.550781 C 511.589844 27.464844 512.378906 27.589844 512.589844 27.589844 C 513.003906 27.589844 513.546875 27.257812 513.546875 26.589844 C 513.546875 26.257812 513.421875 25.589844 512.464844 25.589844 C 513.046875 24.300781 514.296875 23.882812 515.171875 23.882812 C 517.046875 23.882812 518.003906 25.339844 518.003906 26.839844 C 518.003906 28.464844 516.839844 29.714844 516.253906 30.382812 L 511.796875 34.839844 C 511.589844 35.007812 511.589844 35.050781 511.589844 35.550781 L 519.253906 35.550781 Z M 519.796875 32.175781 "/>
<path fill-rule="nonzero" fill="rgb(0%, 0%, 0%)" fill-opacity="1" d="M 93.554688 118.210938 L 88.472656 106.128906 C 88.265625 105.585938 88.265625 105.585938 87.515625 105.585938 L 82.597656 105.585938 C 82.097656 105.585938 81.722656 105.585938 81.722656 106.042969 C 81.722656 106.503906 82.179688 106.503906 82.304688 106.503906 C 82.640625 106.503906 83.347656 106.585938 83.929688 106.792969 L 83.929688 120.960938 C 83.929688 121.542969 83.929688 122.710938 82.140625 122.878906 C 81.640625 122.917969 81.640625 123.292969 81.640625 123.335938 C 81.640625 123.792969 82.054688 123.792969 82.554688 123.792969 L 86.640625 123.792969 C 87.140625 123.792969 87.515625 123.792969 87.515625 123.335938 C 87.515625 123.085938 87.304688 122.878906 87.097656 122.878906 C 85.054688 122.710938 85.054688 121.585938 85.054688 120.960938 L 85.054688 107.753906 L 85.097656 107.710938 L 91.554688 123.253906 C 91.804688 123.710938 91.972656 123.792969 92.140625 123.792969 C 92.472656 123.792969 92.515625 123.585938 92.679688 123.253906 L 99.179688 107.710938 L 99.222656 107.753906 L 99.222656 120.960938 C 99.222656 121.542969 99.222656 122.710938 97.390625 122.878906 C 96.890625 122.917969 96.890625 123.292969 96.890625 123.335938 C 96.890625 123.792969 97.304688 123.792969 97.804688 123.792969 L 104.890625 123.792969 C 105.390625 123.792969 105.765625 123.792969 105.765625 123.335938 C 105.765625 123.085938 105.554688 122.878906 105.347656 122.878906 C 103.304688 122.710938 103.304688 121.585938 103.304688 120.960938 L 103.304688 108.417969 C 103.304688 107.835938 103.304688 106.667969 105.097656 106.503906 C 105.390625 106.503906 105.597656 106.335938 105.597656 106.042969 C 105.597656 105.585938 105.222656 105.585938 104.722656 105.585938 L 99.597656 105.585938 C 98.929688 105.585938 98.847656 105.585938 98.640625 106.128906 Z M 92.765625 118.710938 C 92.972656 119.128906 93.015625 119.167969 93.347656 119.292969 L 92.140625 122.085938 L 92.097656 122.085938 L 86.054688 107.628906 C 85.929688 107.292969 85.679688 106.835938 85.347656 106.503906 L 87.640625 106.503906 Z M 84.722656 122.878906 L 84.304688 122.878906 C 84.347656 122.792969 84.390625 122.710938 84.429688 122.667969 C 84.472656 122.628906 84.472656 122.585938 84.515625 122.585938 Z M 100.140625 106.503906 L 102.972656 106.503906 C 102.347656 107.167969 102.347656 107.878906 102.347656 108.335938 L 102.347656 121.042969 C 102.347656 121.503906 102.347656 122.210938 102.972656 122.878906 L 99.554688 122.878906 C 100.140625 122.210938 100.140625 121.503906 100.140625 121.042969 Z M 100.140625 106.503906 "/>
<path fill-rule="nonzero" fill="rgb(0%, 0%, 0%)" fill-opacity="1" d="M 115.855469 121.863281 C 115.855469 119.820312 115.605469 118.320312 114.773438 117.027344 C 114.1875 116.195312 113.023438 115.445312 111.5625 115.445312 C 107.230469 115.445312 107.230469 120.527344 107.230469 121.863281 C 107.230469 123.195312 107.230469 128.152344 111.5625 128.152344 C 115.855469 128.152344 115.855469 123.195312 115.855469 121.863281 Z M 111.5625 127.613281 C 110.6875 127.613281 109.5625 127.113281 109.1875 125.613281 C 108.9375 124.527344 108.9375 122.988281 108.9375 121.613281 C 108.9375 120.238281 108.9375 118.820312 109.1875 117.820312 C 109.605469 116.363281 110.773438 115.945312 111.5625 115.945312 C 112.5625 115.945312 113.523438 116.570312 113.855469 117.652344 C 114.148438 118.652344 114.1875 119.988281 114.1875 121.613281 C 114.1875 122.988281 114.1875 124.363281 113.9375 125.527344 C 113.5625 127.238281 112.3125 127.613281 111.5625 127.613281 Z M 111.5625 127.613281 "/>
<path fill-rule="nonzero" fill="rgb(0%, 0%, 0%)" fill-opacity="1" d="M 321.3125 118.210938 L 316.226562 106.128906 C 316.019531 105.585938 316.019531 105.585938 315.269531 105.585938 L 310.351562 105.585938 C 309.851562 105.585938 309.476562 105.585938 309.476562 106.042969 C 309.476562 106.503906 309.9375 106.503906 310.0625 106.503906 C 310.394531 106.503906 311.101562 106.585938 311.6875 106.792969 L 311.6875 120.960938 C 311.6875 121.542969 311.6875 122.710938 309.894531 122.878906 C 309.394531 122.917969 309.394531 123.292969 309.394531 123.335938 C 309.394531 123.792969 309.8125 123.792969 310.3125 123.792969 L 314.394531 123.792969 C 314.894531 123.792969 315.269531 123.792969 315.269531 123.335938 C 315.269531 123.085938 315.0625 122.878906 314.851562 122.878906 C 312.8125 122.710938 312.8125 121.585938 312.8125 120.960938 L 312.8125 107.753906 L 312.851562 107.710938 L 319.3125 123.253906 C 319.5625 123.710938 319.726562 123.792969 319.894531 123.792969 C 320.226562 123.792969 320.269531 123.585938 320.4375 123.253906 L 326.9375 107.710938 L 326.976562 107.753906 L 326.976562 120.960938 C 326.976562 121.542969 326.976562 122.710938 325.144531 122.878906 C 324.644531 122.917969 324.644531 123.292969 324.644531 123.335938 C 324.644531 123.792969 325.0625 123.792969 325.5625 123.792969 L 332.644531 123.792969 C 333.144531 123.792969 333.519531 123.792969 333.519531 123.335938 C 333.519531 123.085938 333.3125 122.878906 333.101562 122.878906 C 331.0625 122.710938 331.0625 121.585938 331.0625 120.960938 L 331.0625 108.417969 C 331.0625 107.835938 331.0625 106.667969 332.851562 106.503906 C 333.144531 106.503906 333.351562 106.335938 333.351562 106.042969 C 333.351562 105.585938 332.976562 105.585938 332.476562 105.585938 L 327.351562 105.585938 C 326.6875 105.585938 326.601562 105.585938 326.394531 106.128906 Z M 320.519531 118.710938 C 320.726562 119.128906 320.769531 119.167969 321.101562 119.292969 L 319.894531 122.085938 L 319.851562 122.085938 L 313.8125 107.628906 C 313.6875 107.292969 313.4375 106.835938 313.101562 106.503906 L 315.394531 106.503906 Z M 312.476562 122.878906 L 312.0625 122.878906 C 312.101562 122.792969 312.144531 122.710938 312.1875 122.667969 C 312.226562 122.628906 312.226562 122.585938 312.269531 122.585938 Z M 327.894531 106.503906 L 330.726562 106.503906 C 330.101562 107.167969 330.101562 107.878906 330.101562 108.335938 L 330.101562 121.042969 C 330.101562 121.503906 330.101562 122.210938 330.726562 122.878906 L 327.3125 122.878906 C 327.894531 122.210938 327.894531 121.503906 327.894531 121.042969 Z M 327.894531 106.503906 "/>
<path fill-rule="nonzero" fill="rgb(0%, 0%, 0%)" fill-opacity="1" d="M 340.234375 115.945312 C 340.234375 115.445312 340.234375 115.445312 339.691406 115.445312 C 338.484375 116.613281 336.816406 116.613281 336.066406 116.613281 L 336.066406 117.277344 C 336.484375 117.277344 337.734375 117.277344 338.734375 116.777344 L 338.734375 126.238281 C 338.734375 126.863281 338.734375 127.113281 336.902344 127.113281 L 336.191406 127.113281 L 336.191406 127.777344 C 336.527344 127.777344 338.816406 127.695312 339.484375 127.695312 C 340.066406 127.695312 342.402344 127.777344 342.816406 127.777344 L 342.816406 127.113281 L 342.109375 127.113281 C 340.234375 127.113281 340.234375 126.863281 340.234375 126.238281 Z M 340.234375 115.945312 "/>
<path fill-rule="nonzero" fill="rgb(0%, 0%, 0%)" fill-opacity="1" d="M 497.363281 118.210938 L 492.28125 106.128906 C 492.074219 105.585938 492.074219 105.585938 491.324219 105.585938 L 486.40625 105.585938 C 485.90625 105.585938 485.53125 105.585938 485.53125 106.042969 C 485.53125 106.503906 485.988281 106.503906 486.113281 106.503906 C 486.449219 106.503906 487.15625 106.585938 487.738281 106.792969 L 487.738281 120.960938 C 487.738281 121.542969 487.738281 122.710938 485.949219 122.878906 C 485.449219 122.917969 485.449219 123.292969 485.449219 123.335938 C 485.449219 123.792969 485.863281 123.792969 486.363281 123.792969 L 490.449219 123.792969 C 490.949219 123.792969 491.324219 123.792969 491.324219 123.335938 C 491.324219 123.085938 491.113281 122.878906 490.90625 122.878906 C 488.863281 122.710938 488.863281 121.585938 488.863281 120.960938 L 488.863281 107.753906 L 488.90625 107.710938 L 495.363281 123.253906 C 495.613281 123.710938 495.78125 123.792969 495.949219 123.792969 C 496.28125 123.792969 496.324219 123.585938 496.488281 123.253906 L 502.988281 107.710938 L 503.03125 107.753906 L 503.03125 120.960938 C 503.03125 121.542969 503.03125 122.710938 501.199219 122.878906 C 500.699219 122.917969 500.699219 123.292969 500.699219 123.335938 C 500.699219 123.792969 501.113281 123.792969 501.613281 123.792969 L 508.699219 123.792969 C 509.199219 123.792969 509.574219 123.792969 509.574219 123.335938 C 509.574219 123.085938 509.363281 122.878906 509.15625 122.878906 C 507.113281 122.710938 507.113281 121.585938 507.113281 120.960938 L 507.113281 108.417969 C 507.113281 107.835938 507.113281 106.667969 508.90625 106.503906 C 509.199219 106.503906 509.40625 106.335938 509.40625 106.042969 C 509.40625 105.585938 509.03125 105.585938 508.53125 105.585938 L 503.40625 105.585938 C 502.738281 105.585938 502.65625 105.585938 502.449219 106.128906 Z M 496.574219 118.710938 C 496.78125 119.128906 496.824219 119.167969 497.15625 119.292969 L 495.949219 122.085938 L 495.90625 122.085938 L 489.863281 107.628906 C 489.738281 107.292969 489.488281 106.835938 489.15625 106.503906 L 491.449219 106.503906 Z M 488.53125 122.878906 L 488.113281 122.878906 C 488.15625 122.792969 488.199219 122.710938 488.238281 122.667969 C 488.28125 122.628906 488.28125 122.585938 488.324219 122.585938 Z M 503.949219 106.503906 L 506.78125 106.503906 C 506.15625 107.167969 506.15625 107.878906 506.15625 108.335938 L 506.15625 121.042969 C 506.15625 121.503906 506.15625 122.210938 506.78125 122.878906 L 503.363281 122.878906 C 503.949219 122.210938 503.949219 121.503906 503.949219 121.042969 Z M 503.949219 106.503906 "/>
<path fill-rule="nonzero" fill="rgb(0%, 0%, 0%)" fill-opacity="1" d="M 519.453125 124.402344 L 518.828125 124.402344 C 518.789062 124.820312 518.578125 125.902344 518.328125 126.070312 C 518.203125 126.195312 516.789062 126.195312 516.496094 126.195312 L 513.078125 126.195312 C 515.039062 124.488281 515.703125 123.945312 516.789062 123.070312 C 518.164062 121.988281 519.453125 120.820312 519.453125 119.070312 C 519.453125 116.820312 517.496094 115.445312 515.121094 115.445312 C 512.828125 115.445312 511.246094 117.070312 511.246094 118.777344 C 511.246094 119.695312 512.039062 119.820312 512.246094 119.820312 C 512.664062 119.820312 513.203125 119.488281 513.203125 118.820312 C 513.203125 118.488281 513.078125 117.820312 512.121094 117.820312 C 512.703125 116.527344 513.953125 116.113281 514.828125 116.113281 C 516.703125 116.113281 517.664062 117.570312 517.664062 119.070312 C 517.664062 120.695312 516.496094 121.945312 515.914062 122.613281 L 511.453125 127.070312 C 511.246094 127.238281 511.246094 127.277344 511.246094 127.777344 L 518.914062 127.777344 Z M 519.453125 124.402344 "/>
<path fill-rule="nonzero" fill="rgb(0%, 0%, 0%)" fill-opacity="1" d="M 53.761719 198.863281 C 54.011719 197.90625 54.054688 197.65625 56.054688 197.65625 C 56.636719 197.65625 56.886719 197.65625 56.886719 197.113281 C 56.886719 196.824219 56.636719 196.824219 56.179688 196.824219 L 52.679688 196.824219 C 51.972656 196.824219 51.929688 196.824219 51.636719 197.324219 L 41.929688 212.488281 L 39.847656 197.449219 C 39.761719 196.824219 39.722656 196.824219 39.011719 196.824219 L 35.386719 196.824219 C 34.886719 196.824219 34.597656 196.824219 34.597656 197.324219 C 34.597656 197.65625 34.847656 197.65625 35.347656 197.65625 C 35.722656 197.65625 36.179688 197.699219 36.511719 197.699219 C 36.929688 197.78125 37.097656 197.824219 37.097656 198.15625 C 37.097656 198.238281 37.054688 198.324219 36.972656 198.65625 L 33.597656 212.15625 C 33.347656 213.238281 32.886719 214.074219 30.722656 214.15625 C 30.597656 214.15625 30.261719 214.199219 30.261719 214.65625 C 30.261719 214.90625 30.429688 214.988281 30.636719 214.988281 C 31.472656 214.988281 32.386719 214.90625 33.304688 214.90625 C 34.179688 214.90625 35.136719 214.988281 36.011719 214.988281 C 36.136719 214.988281 36.511719 214.988281 36.511719 214.449219 C 36.511719 214.15625 36.222656 214.15625 36.011719 214.15625 C 34.511719 214.15625 34.222656 213.613281 34.222656 212.988281 C 34.222656 212.824219 34.222656 212.65625 34.304688 212.363281 L 37.929688 197.90625 L 37.972656 197.90625 L 40.261719 214.363281 C 40.304688 214.699219 40.347656 214.988281 40.636719 214.988281 C 40.929688 214.988281 41.097656 214.699219 41.222656 214.53125 L 51.972656 197.699219 L 52.011719 197.699219 L 48.179688 212.90625 C 47.929688 213.949219 47.886719 214.15625 45.761719 214.15625 C 45.347656 214.15625 45.054688 214.15625 45.054688 214.65625 C 45.054688 214.988281 45.347656 214.988281 45.429688 214.988281 C 46.179688 214.988281 47.972656 214.90625 48.722656 214.90625 C 49.804688 214.90625 50.972656 214.988281 52.054688 214.988281 C 52.222656 214.988281 52.554688 214.988281 52.554688 214.449219 C 52.554688 214.15625 52.304688 214.15625 51.804688 214.15625 C 50.847656 214.15625 50.097656 214.15625 50.097656 213.699219 C 50.097656 213.574219 50.097656 213.53125 50.222656 213.03125 Z M 53.761719 198.863281 "/>
<path fill-rule="nonzero" fill="rgb(0%, 0%, 0%)" fill-opacity="1" d="M 61.121094 207.144531 C 61.121094 206.644531 61.121094 206.644531 60.578125 206.644531 C 59.371094 207.808594 57.703125 207.808594 56.953125 207.808594 L 56.953125 208.476562 C 57.371094 208.476562 58.621094 208.476562 59.621094 207.976562 L 59.621094 217.433594 C 59.621094 218.058594 59.621094 218.308594 57.785156 218.308594 L 57.078125 218.308594 L 57.078125 218.976562 C 57.410156 218.976562 59.703125 218.894531 60.371094 218.894531 C 60.953125 218.894531 63.285156 218.976562 63.703125 218.976562 L 63.703125 218.308594 L 62.996094 218.308594 C 61.121094 218.308594 61.121094 218.058594 61.121094 217.433594 Z M 61.121094 207.144531 "/>
<path fill-rule="nonzero" fill="rgb(0%, 0%, 0%)" fill-opacity="1" d="M 83.070312 207.613281 L 77.777344 202.324219 C 77.445312 201.988281 77.402344 201.949219 77.195312 201.949219 C 76.902344 201.949219 76.652344 202.15625 76.652344 202.488281 C 76.652344 202.65625 76.695312 202.699219 76.984375 202.988281 L 82.320312 208.324219 L 76.984375 213.699219 C 76.695312 213.988281 76.652344 214.03125 76.652344 214.199219 C 76.652344 214.53125 76.902344 214.738281 77.195312 214.738281 C 77.402344 214.738281 77.445312 214.699219 77.777344 214.363281 L 83.070312 209.074219 L 88.570312 214.574219 C 88.609375 214.613281 88.777344 214.738281 88.945312 214.738281 C 89.277344 214.738281 89.484375 214.53125 89.484375 214.199219 C 89.484375 214.15625 89.484375 214.074219 89.402344 213.90625 C 89.359375 213.863281 85.152344 209.699219 83.820312 208.324219 L 88.695312 203.488281 C 88.820312 203.324219 89.234375 202.988281 89.359375 202.824219 C 89.359375 202.78125 89.484375 202.65625 89.484375 202.488281 C 89.484375 202.15625 89.277344 201.949219 88.945312 201.949219 C 88.734375 201.949219 88.652344 202.03125 88.359375 202.324219 Z M 83.070312 207.613281 "/>
<path fill-rule="nonzero" fill="rgb(0%, 0%, 0%)" fill-opacity="1" d="M 111.59375 205.988281 C 111.34375 204.324219 110.257812 202.824219 108.175781 202.824219 C 106.550781 202.824219 104.84375 203.28125 102.757812 205.324219 C 100.550781 207.53125 100.382812 210.03125 100.382812 210.824219 C 100.382812 212.488281 101.550781 215.574219 105.257812 215.574219 C 111.59375 215.574219 114.34375 206.65625 114.34375 202.824219 C 114.34375 198.613281 111.882812 195.949219 108.59375 195.949219 C 104.757812 195.949219 103.507812 199.40625 103.507812 200.15625 C 103.507812 200.53125 103.757812 201.074219 104.550781 201.074219 C 105.425781 201.074219 105.96875 200.28125 105.96875 199.699219 C 105.96875 198.738281 105.132812 198.738281 104.71875 198.738281 C 105.882812 196.78125 107.800781 196.613281 108.550781 196.613281 C 110.507812 196.613281 112.34375 197.988281 112.34375 201.449219 C 112.34375 202.488281 112.175781 203.824219 111.632812 205.988281 Z M 105.34375 214.824219 C 102.425781 214.824219 102.425781 212.074219 102.425781 211.824219 C 102.425781 211.113281 103.09375 207.40625 104.175781 205.78125 C 105.21875 204.28125 106.550781 203.40625 108.175781 203.40625 C 111.09375 203.40625 111.132812 206.40625 111.132812 206.949219 C 111.132812 208.863281 109.425781 214.824219 105.34375 214.824219 Z M 105.34375 214.824219 "/>
<path fill-rule="nonzero" fill="rgb(0%, 0%, 0%)" fill-opacity="1" d="M 126.632812 196.449219 C 126.464844 196.074219 126.382812 195.949219 125.925781 195.949219 C 125.507812 195.949219 125.425781 196.074219 125.257812 196.449219 L 116.257812 214.449219 C 116.132812 214.699219 116.132812 214.738281 116.132812 214.78125 C 116.132812 214.988281 116.300781 214.988281 116.714844 214.988281 L 135.175781 214.988281 C 135.589844 214.988281 135.757812 214.988281 135.757812 214.78125 C 135.757812 214.738281 135.757812 214.699219 135.632812 214.449219 Z M 125.089844 198.613281 L 132.257812 212.988281 L 117.925781 212.988281 Z M 125.089844 198.613281 "/>
<path fill-rule="nonzero" fill="rgb(0%, 0%, 0%)" fill-opacity="1" d="M 128.996094 202.03125 C 128.871094 201.78125 128.828125 201.699219 128.535156 201.699219 C 128.203125 201.699219 128.160156 201.78125 128.035156 202.03125 L 121.746094 214.617188 C 121.660156 214.78125 121.660156 214.824219 121.660156 214.824219 C 121.660156 214.992188 121.785156 214.992188 122.078125 214.992188 L 134.953125 214.992188 C 135.246094 214.992188 135.371094 214.992188 135.371094 214.824219 C 135.371094 214.824219 135.371094 214.78125 135.285156 214.617188 Z M 127.910156 203.53125 L 132.910156 213.574219 L 122.910156 213.574219 Z M 127.910156 203.53125 "/>
<path fill-rule="nonzero" fill="rgb(0%, 0%, 0%)" fill-opacity="1" d="M 145.078125 221.363281 C 145.078125 221.28125 145.078125 221.238281 144.617188 220.78125 C 141.328125 217.449219 140.453125 212.40625 140.453125 208.324219 C 140.453125 203.699219 141.453125 199.074219 144.742188 195.78125 C 145.078125 195.449219 145.078125 195.40625 145.078125 195.324219 C 145.078125 195.113281 144.992188 195.03125 144.828125 195.03125 C 144.535156 195.03125 142.160156 196.863281 140.578125 200.238281 C 139.242188 203.15625 138.910156 206.113281 138.910156 208.324219 C 138.910156 210.40625 139.203125 213.613281 140.660156 216.65625 C 142.285156 219.90625 144.535156 221.65625 144.828125 221.65625 C 144.992188 221.65625 145.078125 221.574219 145.078125 221.363281 Z M 145.078125 221.363281 "/>
<path fill-rule="nonzero" fill="rgb(0%, 0%, 0%)" fill-opacity="1" d="M 154.425781 197.988281 C 154.425781 197.324219 154.425781 197.28125 153.800781 197.28125 C 152.136719 198.988281 149.800781 198.988281 148.96875 198.988281 L 148.96875 199.824219 C 149.511719 199.824219 151.050781 199.824219 152.425781 199.113281 L 152.425781 212.90625 C 152.425781 213.863281 152.34375 214.15625 149.96875 214.15625 L 149.136719 214.15625 L 149.136719 214.988281 C 150.050781 214.90625 152.34375 214.90625 153.425781 214.90625 C 154.46875 214.90625 156.800781 214.90625 157.71875 214.988281 L 157.71875 214.15625 L 156.886719 214.15625 C 154.46875 214.15625 154.425781 213.863281 154.425781 212.90625 Z M 154.425781 197.988281 "/>
<path fill-rule="nonzero" fill="rgb(0%, 0%, 0%)" fill-opacity="1" d="M 167.542969 208.324219 C 167.542969 206.28125 167.25 203.074219 165.792969 200.03125 C 164.210938 196.78125 161.917969 195.03125 161.667969 195.03125 C 161.5 195.03125 161.375 195.15625 161.375 195.324219 C 161.375 195.40625 161.375 195.449219 161.875 195.949219 C 164.5 198.574219 166 202.78125 166 208.324219 C 166 212.90625 165.042969 217.574219 161.75 220.90625 C 161.375 221.238281 161.375 221.28125 161.375 221.363281 C 161.375 221.53125 161.5 221.65625 161.667969 221.65625 C 161.917969 221.65625 164.335938 219.824219 165.875 216.449219 C 167.25 213.53125 167.542969 210.574219 167.542969 208.324219 Z M 167.542969 208.324219 "/>
<path fill-rule="nonzero" fill="rgb(0%, 0%, 0%)" fill-opacity="1" d="M 333.21875 198.863281 C 333.46875 197.90625 333.511719 197.65625 335.511719 197.65625 C 336.09375 197.65625 336.34375 197.65625 336.34375 197.113281 C 336.34375 196.824219 336.09375 196.824219 335.636719 196.824219 L 332.136719 196.824219 C 331.429688 196.824219 331.386719 196.824219 331.09375 197.324219 L 321.386719 212.488281 L 319.304688 197.449219 C 319.21875 196.824219 319.179688 196.824219 318.46875 196.824219 L 314.84375 196.824219 C 314.34375 196.824219 314.054688 196.824219 314.054688 197.324219 C 314.054688 197.65625 314.304688 197.65625 314.804688 197.65625 C 315.179688 197.65625 315.636719 197.699219 315.96875 197.699219 C 316.386719 197.78125 316.554688 197.824219 316.554688 198.15625 C 316.554688 198.238281 316.511719 198.324219 316.429688 198.65625 L 313.054688 212.15625 C 312.804688 213.238281 312.34375 214.074219 310.179688 214.15625 C 310.054688 214.15625 309.71875 214.199219 309.71875 214.65625 C 309.71875 214.90625 309.886719 214.988281 310.09375 214.988281 C 310.929688 214.988281 311.84375 214.90625 312.761719 214.90625 C 313.636719 214.90625 314.59375 214.988281 315.46875 214.988281 C 315.59375 214.988281 315.96875 214.988281 315.96875 214.449219 C 315.96875 214.15625 315.679688 214.15625 315.46875 214.15625 C 313.96875 214.15625 313.679688 213.613281 313.679688 212.988281 C 313.679688 212.824219 313.679688 212.65625 313.761719 212.363281 L 317.386719 197.90625 L 317.429688 197.90625 L 319.71875 214.363281 C 319.761719 214.699219 319.804688 214.988281 320.09375 214.988281 C 320.386719 214.988281 320.554688 214.699219 320.679688 214.53125 L 331.429688 197.699219 L 331.46875 197.699219 L 327.636719 212.90625 C 327.386719 213.949219 327.34375 214.15625 325.21875 214.15625 C 324.804688 214.15625 324.511719 214.15625 324.511719 214.65625 C 324.511719 214.988281 324.804688 214.988281 324.886719 214.988281 C 325.636719 214.988281 327.429688 214.90625 328.179688 214.90625 C 329.261719 214.90625 330.429688 214.988281 331.511719 214.988281 C 331.679688 214.988281 332.011719 214.988281 332.011719 214.449219 C 332.011719 214.15625 331.761719 214.15625 331.261719 214.15625 C 330.304688 214.15625 329.554688 214.15625 329.554688 213.699219 C 329.554688 213.574219 329.554688 213.53125 329.679688 213.03125 Z M 333.21875 198.863281 "/>
<path fill-rule="nonzero" fill="rgb(0%, 0%, 0%)" fill-opacity="1" d="M 340.578125 207.144531 C 340.578125 206.644531 340.578125 206.644531 340.035156 206.644531 C 338.828125 207.808594 337.160156 207.808594 336.410156 207.808594 L 336.410156 208.476562 C 336.828125 208.476562 338.078125 208.476562 339.078125 207.976562 L 339.078125 217.433594 C 339.078125 218.058594 339.078125 218.308594 337.242188 218.308594 L 336.535156 218.308594 L 336.535156 218.976562 C 336.867188 218.976562 339.160156 218.894531 339.828125 218.894531 C 340.410156 218.894531 342.742188 218.976562 343.160156 218.976562 L 343.160156 218.308594 L 342.453125 218.308594 C 340.578125 218.308594 340.578125 218.058594 340.578125 217.433594 Z M 340.578125 207.144531 "/>
<path fill="none" stroke-width="0.39848" stroke-linecap="butt" stroke-linejoin="miter" stroke="rgb(0%, 0%, 0%)" stroke-opacity="1" stroke-miterlimit="10" d="M 50.334282 34.392761 L 73.448051 34.392761 " transform="matrix(2.666667, 0, 0, -2.666667, 275.743998, 116.631999)"/>
<path fill="none" stroke-width="0.39848" stroke-linecap="round" stroke-linejoin="round" stroke="rgb(0%, 0%, 0%)" stroke-opacity="1" stroke-miterlimit="10" d="M -2.072723 2.390447 C -1.693329 0.957829 -0.849579 0.278142 -0.00143433 -0.000178337 C -0.849579 -0.277034 -1.693329 -0.956721 -2.072723 -2.390803 " transform="matrix(2.666667, 0, 0, -2.666667, 472.140544, 24.917493)"/>
<path fill-rule="nonzero" fill="rgb(0%, 0%, 0%)" fill-opacity="1" d="M 431.285156 16.632812 C 430.078125 16.632812 429.910156 16.632812 429.910156 15.84375 L 429.910156 12.84375 C 429.996094 12.925781 430.871094 13.882812 432.410156 13.882812 C 434.871094 13.882812 436.953125 12.050781 436.953125 9.71875 C 436.953125 7.425781 435.078125 5.507812 432.703125 5.507812 C 431.660156 5.507812 430.578125 5.925781 429.828125 6.675781 L 429.828125 5.507812 L 427.035156 5.71875 L 427.035156 6.382812 C 428.328125 6.382812 428.410156 6.507812 428.410156 7.257812 L 428.410156 15.84375 C 428.410156 16.632812 428.246094 16.632812 427.035156 16.632812 L 427.035156 17.34375 C 427.078125 17.34375 428.371094 17.257812 429.160156 17.257812 C 429.828125 17.257812 431.121094 17.300781 431.285156 17.34375 Z M 429.910156 7.507812 C 430.453125 6.59375 431.535156 6.132812 432.496094 6.132812 C 434.078125 6.132812 435.285156 7.757812 435.285156 9.71875 C 435.285156 11.84375 433.871094 13.382812 432.328125 13.382812 C 430.660156 13.382812 429.953125 11.96875 429.910156 11.84375 Z M 429.910156 7.507812 "/>
<path fill-rule="nonzero" fill="rgb(0%, 0%, 0%)" fill-opacity="1" d="M 441.542969 9.46875 C 441.542969 7.925781 442.253906 6.050781 444.042969 6.050781 C 443.878906 6.175781 443.710938 6.425781 443.710938 6.71875 C 443.710938 7.34375 444.210938 7.550781 444.542969 7.550781 C 445.003906 7.550781 445.417969 7.257812 445.417969 6.71875 C 445.417969 6.09375 444.792969 5.507812 443.917969 5.507812 C 443.003906 5.507812 441.960938 6.09375 441.417969 7.507812 L 441.417969 5.507812 L 438.753906 5.71875 L 438.753906 6.382812 C 440.003906 6.382812 440.128906 6.507812 440.128906 7.425781 L 440.128906 12.257812 C 440.128906 13.050781 439.960938 13.050781 438.753906 13.050781 L 438.753906 13.71875 C 438.835938 13.71875 440.085938 13.632812 440.878906 13.632812 C 441.667969 13.632812 442.460938 13.675781 443.292969 13.71875 L 443.292969 13.050781 L 442.917969 13.050781 C 441.542969 13.050781 441.542969 12.84375 441.542969 12.21875 Z M 441.542969 9.46875 "/>
<path fill-rule="nonzero" fill="rgb(0%, 0%, 0%)" fill-opacity="1" d="M 451.445312 10.207031 C 451.445312 9.832031 451.40625 9.832031 450.945312 9.832031 C 450.03125 10.664062 448.53125 10.664062 448.28125 10.664062 L 448.070312 10.664062 L 448.070312 11.246094 L 448.28125 11.246094 C 448.570312 11.246094 449.445312 11.207031 450.238281 10.871094 L 450.238281 17.539062 C 450.238281 17.914062 450.238281 18.082031 448.820312 18.082031 L 448.15625 18.082031 L 448.15625 18.664062 C 448.863281 18.621094 450.070312 18.621094 450.820312 18.621094 C 451.613281 18.621094 452.78125 18.621094 453.53125 18.664062 L 453.53125 18.082031 L 452.863281 18.082031 C 451.445312 18.082031 451.445312 17.914062 451.445312 17.539062 Z M 451.445312 10.207031 "/>
<path fill="none" stroke-width="0.39848" stroke-linecap="butt" stroke-linejoin="miter" stroke="rgb(0%, 0%, 0%)" stroke-opacity="1" stroke-miterlimit="10" d="M 19.389458 25.561218 L 19.389458 8.424011 " transform="matrix(2.666667, 0, 0, -2.666667, 275.743998, 116.631999)"/>
<path fill="none" stroke-width="0.39848" stroke-linecap="round" stroke-linejoin="round" stroke="rgb(0%, 0%, 0%)" stroke-opacity="1" stroke-miterlimit="10" d="M -2.071842 2.392433 C -1.693913 0.953957 -0.850163 0.278664 0.00237656 0.00180817 C -0.850163 -0.279442 -1.693913 -0.9562 -2.071842 -2.388817 " transform="matrix(0, 2.666667, 2.666667, 0, 327.444397, 94.692881)"/>
<path fill-rule="nonzero" fill="rgb(0%, 0%, 0%)" fill-opacity="1" d="M 304.21875 64.257812 C 304.09375 63.921875 304.054688 63.839844 303.84375 63.839844 C 303.636719 63.839844 303.554688 64.007812 303.429688 64.214844 L 299.21875 75.339844 C 298.96875 75.921875 298.59375 76.214844 298.09375 76.257812 C 298.011719 76.257812 297.71875 76.296875 297.71875 76.589844 C 297.71875 76.921875 298.011719 76.921875 298.34375 76.921875 L 301.304688 76.921875 C 301.636719 76.921875 301.929688 76.921875 301.929688 76.589844 C 301.929688 76.296875 301.679688 76.296875 301.511719 76.257812 C 301.261719 76.257812 300.804688 76.171875 300.804688 75.046875 C 300.804688 74.464844 300.929688 73.839844 301.054688 73.257812 L 305.136719 73.257812 C 305.804688 75.089844 305.804688 75.382812 305.84375 75.757812 C 305.386719 76.214844 304.886719 76.257812 304.679688 76.257812 C 304.46875 76.296875 304.34375 76.421875 304.34375 76.589844 C 304.34375 76.921875 304.636719 76.921875 304.96875 76.921875 L 309.804688 76.921875 C 310.136719 76.921875 310.46875 76.921875 310.46875 76.589844 C 310.46875 76.339844 310.21875 76.296875 310.054688 76.257812 C 309.636719 76.214844 309.304688 75.882812 308.929688 75.046875 Z M 301.261719 72.632812 C 301.679688 70.964844 302.261719 69.382812 302.886719 67.839844 C 303.46875 69.089844 304.59375 71.757812 304.886719 72.632812 Z M 300.136719 74.671875 L 300.179688 74.714844 L 300.179688 74.882812 C 300.136719 74.921875 300.136719 74.964844 300.136719 75.046875 C 300.136719 75.132812 300.136719 75.839844 300.429688 76.257812 L 299.429688 76.257812 C 299.636719 76.007812 299.71875 75.796875 299.84375 75.507812 Z M 303.179688 66.839844 L 303.84375 65.046875 L 308.34375 75.296875 C 308.429688 75.507812 308.636719 75.921875 308.886719 76.257812 L 306.261719 76.257812 C 306.429688 76.171875 306.511719 75.882812 306.511719 75.671875 C 306.511719 74.546875 304.886719 70.757812 304.09375 68.921875 Z M 303.179688 66.839844 "/>
<path fill-rule="nonzero" fill="rgb(0%, 0%, 0%)" fill-opacity="1" d="M 316.109375 71.121094 C 316.109375 70.746094 316.066406 70.746094 315.609375 70.746094 C 314.691406 71.582031 313.191406 71.582031 312.941406 71.582031 L 312.734375 71.582031 L 312.734375 72.164062 L 312.941406 72.164062 C 313.234375 72.164062 314.109375 72.121094 314.898438 71.789062 L 314.898438 78.457031 C 314.898438 78.832031 314.898438 78.996094 313.484375 78.996094 L 312.816406 78.996094 L 312.816406 79.582031 C 313.523438 79.539062 314.734375 79.539062 315.484375 79.539062 C 316.273438 79.539062 317.441406 79.539062 318.191406 79.582031 L 318.191406 78.996094 L 317.523438 78.996094 C 316.109375 78.996094 316.109375 78.832031 316.109375 78.457031 Z M 316.109375 71.121094 "/>
<path fill="none" stroke-width="0.39848" stroke-linecap="butt" stroke-linejoin="miter" stroke="rgb(0%, 0%, 0%)" stroke-opacity="1" stroke-miterlimit="10" d="M 85.408501 26.557312 L 85.408501 8.424011 " transform="matrix(2.666667, 0, 0, -2.666667, 275.743998, 116.631999)"/>
<path fill="none" stroke-width="0.39848" stroke-linecap="round" stroke-linejoin="round" stroke="rgb(0%, 0%, 0%)" stroke-opacity="1" stroke-miterlimit="10" d="M -2.071842 2.39061 C -1.693913 0.956528 -0.850163 0.27684 0.00237656 -0.0000152588 C -0.850163 -0.276871 -1.693913 -0.956558 -2.071842 -2.39064 " transform="matrix(0, 2.666667, 2.666667, 0, 503.500041, 94.692881)"/>
<path fill-rule="nonzero" fill="rgb(0%, 0%, 0%)" fill-opacity="1" d="M 515.757812 66.851562 C 517.300781 66.1875 517.964844 65.9375 518.425781 65.6875 C 518.800781 65.5625 518.964844 65.476562 518.964844 65.101562 C 518.964844 64.8125 518.714844 64.519531 518.382812 64.519531 C 518.257812 64.519531 518.214844 64.519531 518.007812 64.6875 L 515.464844 66.394531 L 515.757812 63.644531 C 515.800781 63.3125 515.757812 62.851562 515.175781 62.851562 C 514.964844 62.851562 514.589844 62.976562 514.589844 63.394531 C 514.589844 63.5625 514.675781 64.101562 514.714844 64.3125 C 514.757812 64.601562 514.882812 65.976562 514.925781 66.394531 L 512.382812 64.6875 C 512.214844 64.601562 512.175781 64.519531 512.007812 64.519531 C 511.632812 64.519531 511.425781 64.8125 511.425781 65.101562 C 511.425781 65.476562 511.632812 65.601562 511.800781 65.644531 L 514.589844 66.851562 C 513.089844 67.519531 512.382812 67.769531 511.925781 67.976562 C 511.589844 68.144531 511.425781 68.226562 511.425781 68.5625 C 511.425781 68.894531 511.632812 69.144531 512.007812 69.144531 C 512.132812 69.144531 512.175781 69.144531 512.382812 68.976562 L 514.925781 67.3125 L 514.589844 70.269531 C 514.589844 70.6875 514.964844 70.851562 515.175781 70.851562 C 515.425781 70.851562 515.757812 70.6875 515.757812 70.269531 C 515.757812 70.101562 515.675781 69.5625 515.675781 69.394531 C 515.632812 69.0625 515.507812 67.726562 515.464844 67.3125 L 517.675781 68.769531 C 518.175781 69.144531 518.214844 69.144531 518.382812 69.144531 C 518.714844 69.144531 518.964844 68.894531 518.964844 68.5625 C 518.964844 68.1875 518.714844 68.101562 518.550781 68.019531 Z M 515.757812 66.851562 "/>
<path fill-rule="nonzero" fill="rgb(0%, 0%, 0%)" fill-opacity="1" d="M 526.851562 71.433594 L 524.308594 65.390625 C 524.183594 65.097656 524.183594 65.097656 523.808594 65.097656 L 521.351562 65.097656 C 521.101562 65.097656 520.894531 65.097656 520.894531 65.347656 C 520.894531 65.597656 521.144531 65.597656 521.226562 65.597656 C 521.394531 65.597656 521.726562 65.597656 522.019531 65.722656 L 522.019531 72.808594 C 522.019531 73.097656 522.019531 73.683594 521.101562 73.765625 C 520.851562 73.765625 520.851562 73.972656 520.851562 73.972656 C 520.851562 74.222656 521.101562 74.222656 521.308594 74.222656 L 523.394531 74.222656 C 523.601562 74.222656 523.808594 74.222656 523.808594 73.972656 C 523.808594 73.847656 523.726562 73.765625 523.601562 73.765625 C 522.601562 73.683594 522.601562 73.140625 522.601562 72.808594 L 522.601562 66.183594 L 525.851562 73.933594 C 525.933594 74.183594 526.058594 74.222656 526.101562 74.222656 C 526.269531 74.222656 526.308594 74.097656 526.394531 73.972656 L 529.644531 66.183594 L 529.644531 72.808594 C 529.644531 73.097656 529.644531 73.683594 528.769531 73.765625 C 528.519531 73.765625 528.519531 73.972656 528.519531 73.972656 C 528.519531 74.222656 528.726562 74.222656 528.933594 74.222656 L 532.519531 74.222656 C 532.726562 74.222656 532.933594 74.222656 532.933594 73.972656 C 532.933594 73.847656 532.851562 73.765625 532.726562 73.765625 C 531.683594 73.683594 531.683594 73.140625 531.683594 72.808594 L 531.683594 66.515625 C 531.683594 66.265625 531.683594 65.683594 532.601562 65.597656 C 532.726562 65.558594 532.851562 65.515625 532.851562 65.347656 C 532.851562 65.097656 532.644531 65.097656 532.433594 65.097656 L 529.851562 65.097656 C 529.519531 65.097656 529.476562 65.097656 529.351562 65.390625 Z M 526.433594 71.683594 C 526.558594 71.890625 526.558594 71.890625 526.726562 71.972656 L 526.144531 73.390625 L 526.101562 73.390625 L 523.058594 66.140625 C 523.019531 65.972656 522.894531 65.722656 522.726562 65.597656 L 523.894531 65.597656 Z M 522.433594 73.765625 L 522.183594 73.765625 C 522.226562 73.722656 522.269531 73.683594 522.269531 73.640625 C 522.308594 73.640625 522.308594 73.640625 522.308594 73.597656 Z M 530.101562 65.597656 L 531.519531 65.597656 C 531.226562 65.933594 531.226562 66.265625 531.226562 66.515625 L 531.226562 72.847656 C 531.226562 73.097656 531.226562 73.433594 531.558594 73.765625 L 529.808594 73.765625 C 530.101562 73.433594 530.101562 73.097656 530.101562 72.847656 Z M 530.101562 65.597656 "/>
<path fill-rule="nonzero" fill="rgb(0%, 0%, 0%)" fill-opacity="1" d="M 541.019531 75.625 L 540.4375 75.625 C 540.4375 75.875 540.269531 76.707031 540.0625 76.832031 C 539.976562 76.917969 538.851562 76.917969 538.644531 76.917969 L 536.0625 76.917969 C 536.9375 76.292969 537.894531 75.542969 538.6875 75 C 539.894531 74.167969 541.019531 73.417969 541.019531 72 C 541.019531 70.292969 539.394531 69.375 537.519531 69.375 C 535.726562 69.375 534.394531 70.375 534.394531 71.707031 C 534.394531 72.375 534.976562 72.5 535.1875 72.5 C 535.519531 72.5 535.9375 72.25 535.9375 71.707031 C 535.9375 71.25 535.601562 70.957031 535.1875 70.957031 C 535.5625 70.332031 536.351562 69.957031 537.226562 69.957031 C 538.519531 69.957031 539.601562 70.707031 539.601562 72 C 539.601562 73.125 538.8125 74 537.8125 74.832031 L 534.5625 77.582031 C 534.4375 77.707031 534.394531 77.707031 534.394531 77.792969 L 534.394531 78.207031 L 540.5625 78.207031 Z M 541.019531 75.625 "/>
<path fill="none" stroke-width="0.39848" stroke-linecap="butt" stroke-linejoin="miter" stroke="rgb(0%, 0%, 0%)" stroke-opacity="1" stroke-miterlimit="10" d="M -54.588081 -0.1922 L 7.55645 -0.1922 " transform="matrix(2.666667, 0, 0, -2.666667, 275.743998, 116.631999)"/>
<path fill="none" stroke-width="0.39848" stroke-linecap="round" stroke-linejoin="round" stroke="rgb(0%, 0%, 0%)" stroke-opacity="1" stroke-miterlimit="10" d="M -2.074394 2.392155 C -1.695 0.958073 -0.85125 0.278385 -0.000175476 0.00152969 C -0.85125 -0.27972 -1.695 -0.956478 -2.074394 -2.389095 " transform="matrix(2.666667, 0, 0, -2.666667, 296.426249, 117.14861)"/>
<g clip-path="url(#clip-0)">
<path fill="none" stroke-width="2.33075" stroke-linecap="butt" stroke-linejoin="miter" stroke="rgb(0%, 0%, 0%)" stroke-opacity="1" stroke-miterlimit="10" d="M -29.618355 -14.770325 L -19.176949 -18.953918 " transform="matrix(2.666667, 0, 0, -2.666667, 275.743998, 116.631999)"/>
</g>
<path fill="none" stroke-width="1.53377" stroke-linecap="butt" stroke-linejoin="miter" stroke="rgb(100%, 100%, 100%)" stroke-opacity="1" stroke-miterlimit="10" d="M -29.618355 -14.770325 L -19.176949 -18.953918 " transform="matrix(2.666667, 0, 0, -2.666667, 275.743998, 116.631999)"/>
<path fill="none" stroke-width="0.39848" stroke-linecap="round" stroke-linejoin="round" stroke="rgb(0%, 0%, 0%)" stroke-opacity="1" stroke-miterlimit="10" d="M -1.296195 2.560749 C -0.666759 1.209569 1.023503 0.0464894 1.988665 0.000612534 C 1.024084 -0.0495352 -0.666655 -1.206285 -1.295061 -2.560937 " transform="matrix(2.475467, 0.99128, 0.99128, -2.475467, 224.607768, 167.174723)"/>
<path fill-rule="nonzero" fill="rgb(0%, 0%, 0%)" fill-opacity="1" d="M 190.167969 169.519531 C 190.167969 169.476562 190.207031 169.226562 190.207031 169.226562 C 190.207031 169.101562 190.167969 168.9375 189.917969 168.9375 C 189.542969 168.9375 188 169.101562 187.542969 169.144531 C 187.417969 169.144531 187.125 169.1875 187.125 169.5625 C 187.125 169.8125 187.417969 169.8125 187.625 169.8125 C 188.5 169.8125 188.5 169.976562 188.5 170.101562 C 188.5 170.226562 188.457031 170.351562 188.457031 170.519531 L 185.832031 181.019531 C 185.707031 181.351562 185.707031 181.394531 185.707031 181.4375 C 185.707031 181.726562 185.957031 182.019531 186.375 182.019531 C 186.582031 182.019531 186.917969 181.9375 187.125 181.5625 C 187.167969 181.4375 187.332031 180.769531 187.417969 180.394531 L 187.875 178.726562 C 187.917969 178.4375 188.125 177.726562 188.167969 177.476562 C 188.332031 176.769531 188.332031 176.726562 188.707031 176.144531 C 189.332031 175.226562 190.25 174.1875 191.707031 174.1875 C 192.75 174.1875 192.792969 175.019531 192.792969 175.476562 C 192.792969 176.601562 192 178.644531 191.707031 179.4375 C 191.5 179.976562 191.417969 180.144531 191.417969 180.4375 C 191.417969 181.4375 192.25 182.019531 193.167969 182.019531 C 195.042969 182.019531 195.875 179.476562 195.875 179.1875 C 195.875 178.9375 195.625 178.9375 195.542969 178.9375 C 195.292969 178.9375 195.292969 179.0625 195.207031 179.269531 C 194.792969 180.769531 193.957031 181.519531 193.25 181.519531 C 192.832031 181.519531 192.75 181.269531 192.75 180.851562 C 192.75 180.4375 192.875 180.1875 193.207031 179.351562 C 193.417969 178.769531 194.167969 176.8125 194.167969 175.769531 C 194.167969 175.476562 194.167969 174.6875 193.5 174.144531 C 193.167969 173.9375 192.625 173.644531 191.75 173.644531 C 190.417969 173.644531 189.417969 174.394531 188.75 175.1875 Z M 190.167969 169.519531 "/>
<path fill-rule="nonzero" fill="rgb(0%, 0%, 0%)" fill-opacity="1" d="M 202.0625 176.054688 C 202.0625 175.679688 202.019531 175.679688 201.5625 175.679688 C 200.644531 176.511719 199.144531 176.511719 198.894531 176.511719 L 198.6875 176.511719 L 198.6875 177.09375 L 198.894531 177.09375 C 199.1875 177.09375 200.0625 177.054688 200.855469 176.71875 L 200.855469 183.386719 C 200.855469 183.761719 200.855469 183.929688 199.4375 183.929688 L 198.769531 183.929688 L 198.769531 184.511719 C 199.480469 184.46875 200.6875 184.46875 201.4375 184.46875 C 202.230469 184.46875 203.394531 184.46875 204.144531 184.511719 L 204.144531 183.929688 L 203.480469 183.929688 C 202.0625 183.929688 202.0625 183.761719 202.0625 183.386719 Z M 202.0625 176.054688 "/>
<path fill="none" stroke-width="2.33075" stroke-linecap="butt" stroke-linejoin="miter" stroke="rgb(0%, 0%, 0%)" stroke-opacity="1" stroke-miterlimit="10" d="M 45.822563 13.654968 L 56.908501 19.463074 " transform="matrix(2.666667, 0, 0, -2.666667, 275.743998, 116.631999)"/>
<path fill="none" stroke-width="1.53377" stroke-linecap="butt" stroke-linejoin="miter" stroke="rgb(100%, 100%, 100%)" stroke-opacity="1" stroke-miterlimit="10" d="M 45.822563 13.654968 L 56.908501 19.463074 " transform="matrix(2.666667, 0, 0, -2.666667, 275.743998, 116.631999)"/>
<path fill="none" stroke-width="0.39848" stroke-linecap="round" stroke-linejoin="round" stroke="rgb(0%, 0%, 0%)" stroke-opacity="1" stroke-miterlimit="10" d="M -1.295641 2.560924 C -0.668163 1.208297 1.023208 0.0489811 1.990093 0.000388485 C 1.024608 -0.049334 -0.667755 -1.208294 -1.293775 -2.56059 " transform="matrix(2.361813, -1.237787, -1.237787, -2.361813, 427.499471, 64.725947)"/>
<path fill-rule="nonzero" fill="rgb(0%, 0%, 0%)" fill-opacity="1" d="M 392.070312 49.871094 C 392.070312 49.832031 392.113281 49.582031 392.113281 49.582031 C 392.113281 49.457031 392.070312 49.289062 391.820312 49.289062 C 391.445312 49.289062 389.902344 49.457031 389.445312 49.496094 C 389.320312 49.496094 389.027344 49.539062 389.027344 49.914062 C 389.027344 50.164062 389.320312 50.164062 389.527344 50.164062 C 390.402344 50.164062 390.402344 50.332031 390.402344 50.457031 C 390.402344 50.582031 390.363281 50.707031 390.363281 50.871094 L 387.738281 61.371094 C 387.613281 61.707031 387.613281 61.746094 387.613281 61.789062 C 387.613281 62.082031 387.863281 62.371094 388.277344 62.371094 C 388.488281 62.371094 388.820312 62.289062 389.027344 61.914062 C 389.070312 61.789062 389.238281 61.121094 389.320312 60.746094 L 389.777344 59.082031 C 389.820312 58.789062 390.027344 58.082031 390.070312 57.832031 C 390.238281 57.121094 390.238281 57.082031 390.613281 56.496094 C 391.238281 55.582031 392.152344 54.539062 393.613281 54.539062 C 394.652344 54.539062 394.695312 55.371094 394.695312 55.832031 C 394.695312 56.957031 393.902344 58.996094 393.613281 59.789062 C 393.402344 60.332031 393.320312 60.496094 393.320312 60.789062 C 393.320312 61.789062 394.152344 62.371094 395.070312 62.371094 C 396.945312 62.371094 397.777344 59.832031 397.777344 59.539062 C 397.777344 59.289062 397.527344 59.289062 397.445312 59.289062 C 397.195312 59.289062 397.195312 59.414062 397.113281 59.621094 C 396.695312 61.121094 395.863281 61.871094 395.152344 61.871094 C 394.738281 61.871094 394.652344 61.621094 394.652344 61.207031 C 394.652344 60.789062 394.777344 60.539062 395.113281 59.707031 C 395.320312 59.121094 396.070312 57.164062 396.070312 56.121094 C 396.070312 55.832031 396.070312 55.039062 395.402344 54.496094 C 395.070312 54.289062 394.527344 53.996094 393.652344 53.996094 C 392.320312 53.996094 391.320312 54.746094 390.652344 55.539062 Z M 392.070312 49.871094 "/>
<path fill-rule="nonzero" fill="rgb(0%, 0%, 0%)" fill-opacity="1" d="M 406.507812 62.28125 L 405.925781 62.28125 C 405.925781 62.53125 405.757812 63.363281 405.550781 63.488281 C 405.464844 63.574219 404.339844 63.574219 404.132812 63.574219 L 401.550781 63.574219 C 402.425781 62.949219 403.382812 62.199219 404.175781 61.65625 C 405.382812 60.824219 406.507812 60.074219 406.507812 58.65625 C 406.507812 56.949219 404.882812 56.03125 403.007812 56.03125 C 401.214844 56.03125 399.882812 57.03125 399.882812 58.363281 C 399.882812 59.03125 400.464844 59.15625 400.675781 59.15625 C 401.007812 59.15625 401.425781 58.90625 401.425781 58.363281 C 401.425781 57.90625 401.089844 57.613281 400.675781 57.613281 C 401.050781 56.988281 401.839844 56.613281 402.714844 56.613281 C 404.007812 56.613281 405.089844 57.363281 405.089844 58.65625 C 405.089844 59.78125 404.300781 60.65625 403.300781 61.488281 L 400.050781 64.238281 C 399.925781 64.363281 399.882812 64.363281 399.882812 64.449219 L 399.882812 64.863281 L 406.050781 64.863281 Z M 406.507812 62.28125 "/>
<path fill="none" stroke-width="0.39848" stroke-linecap="butt" stroke-linejoin="miter" stroke="rgb(0%, 0%, 0%)" stroke-opacity="1" stroke-miterlimit="10" d="M 30.818169 -0.1922 L 73.576958 -0.1922 " transform="matrix(2.666667, 0, 0, -2.666667, 275.743998, 116.631999)"/>
<path fill="none" stroke-width="0.39848" stroke-linecap="round" stroke-linejoin="round" stroke="rgb(0%, 0%, 0%)" stroke-opacity="1" stroke-miterlimit="10" d="M -2.071808 2.392155 C -1.692413 0.958073 -0.848663 0.278385 -0.000518799 0.00152969 C -0.848663 -0.27972 -1.692413 -0.956478 -2.071808 -2.389095 " transform="matrix(2.666667, 0, 0, -2.666667, 472.481852, 117.14861)"/>
<path fill-rule="nonzero" fill="rgb(0%, 0%, 0%)" fill-opacity="1" d="M 303.734375 138.726562 C 303.734375 139.019531 303.734375 139.476562 304.152344 139.476562 C 304.652344 139.476562 304.652344 139.0625 304.652344 138.726562 L 304.652344 132.226562 C 304.652344 131.601562 304.527344 131.519531 303.945312 131.519531 L 297.359375 131.519531 C 297.070312 131.519531 296.652344 131.519531 296.652344 131.9375 C 296.652344 132.4375 297.152344 132.4375 297.445312 132.4375 L 303.734375 132.4375 Z M 303.734375 138.726562 "/>
<path fill-rule="nonzero" fill="rgb(0%, 0%, 0%)" fill-opacity="1" d="M 478.511719 99.800781 C 478.21875 99.800781 477.761719 99.800781 477.761719 100.21875 C 477.761719 100.71875 478.179688 100.71875 478.511719 100.71875 L 485.011719 100.71875 C 485.636719 100.71875 485.71875 100.59375 485.71875 100.011719 L 485.71875 93.425781 C 485.71875 93.136719 485.71875 92.71875 485.304688 92.71875 C 484.804688 92.71875 484.804688 93.21875 484.804688 93.511719 L 484.804688 99.800781 Z M 478.511719 99.800781 "/>
<path fill="none" stroke-width="0.39848" stroke-linecap="butt" stroke-linejoin="miter" stroke="rgb(0%, 0%, 0%)" stroke-opacity="1" stroke-miterlimit="10" d="M -66.021187 -25.563293 L -66.021187 -8.427551 " transform="matrix(2.666667, 0, 0, -2.666667, 275.743998, 116.631999)"/>
<path fill="none" stroke-width="0.39848" stroke-linecap="round" stroke-linejoin="round" stroke="rgb(0%, 0%, 0%)" stroke-opacity="1" stroke-miterlimit="10" d="M -2.070988 2.390972 C -1.691593 0.95689 -0.847843 0.277203 -0.00116348 0.000347137 C -0.847843 -0.276508 -1.691593 -0.956196 -2.070988 -2.390278 " transform="matrix(0, -2.666667, -2.666667, 0, 99.688426, 138.571116)"/>
<path fill-rule="nonzero" fill="rgb(0%, 0%, 0%)" fill-opacity="1" d="M 76.464844 153.828125 C 76.339844 153.496094 76.296875 153.414062 76.089844 153.414062 C 75.882812 153.414062 75.796875 153.578125 75.671875 153.789062 L 71.464844 164.914062 C 71.214844 165.496094 70.839844 165.789062 70.339844 165.828125 C 70.257812 165.828125 69.964844 165.871094 69.964844 166.164062 C 69.964844 166.496094 70.257812 166.496094 70.589844 166.496094 L 73.546875 166.496094 C 73.882812 166.496094 74.171875 166.496094 74.171875 166.164062 C 74.171875 165.871094 73.921875 165.871094 73.757812 165.828125 C 73.507812 165.828125 73.046875 165.746094 73.046875 164.621094 C 73.046875 164.039062 73.171875 163.414062 73.296875 162.828125 L 77.382812 162.828125 C 78.046875 164.664062 78.046875 164.953125 78.089844 165.328125 C 77.632812 165.789062 77.132812 165.828125 76.921875 165.828125 C 76.714844 165.871094 76.589844 165.996094 76.589844 166.164062 C 76.589844 166.496094 76.882812 166.496094 77.214844 166.496094 L 82.046875 166.496094 C 82.382812 166.496094 82.714844 166.496094 82.714844 166.164062 C 82.714844 165.914062 82.464844 165.871094 82.296875 165.828125 C 81.882812 165.789062 81.546875 165.453125 81.171875 164.621094 Z M 73.507812 162.203125 C 73.921875 160.539062 74.507812 158.953125 75.132812 157.414062 C 75.714844 158.664062 76.839844 161.328125 77.132812 162.203125 Z M 72.382812 164.246094 L 72.421875 164.289062 L 72.421875 164.453125 C 72.382812 164.496094 72.382812 164.539062 72.382812 164.621094 C 72.382812 164.703125 72.382812 165.414062 72.671875 165.828125 L 71.671875 165.828125 C 71.882812 165.578125 71.964844 165.371094 72.089844 165.078125 Z M 75.421875 156.414062 L 76.089844 154.621094 L 80.589844 164.871094 C 80.671875 165.078125 80.882812 165.496094 81.132812 165.828125 L 78.507812 165.828125 C 78.671875 165.746094 78.757812 165.453125 78.757812 165.246094 C 78.757812 164.121094 77.132812 160.328125 76.339844 158.496094 Z M 75.421875 156.414062 "/>
<path fill-rule="nonzero" fill="rgb(0%, 0%, 0%)" fill-opacity="1" d="M 91.0625 164.90625 C 91.0625 163.945312 91.0625 160.320312 87.5625 160.320312 C 84.101562 160.320312 84.101562 163.945312 84.101562 164.90625 C 84.101562 165.863281 84.101562 169.445312 87.5625 169.445312 C 91.0625 169.445312 91.0625 165.863281 91.0625 164.90625 Z M 87.5625 168.988281 C 87.101562 168.988281 85.976562 168.820312 85.644531 167.488281 C 85.4375 166.78125 85.4375 165.820312 85.4375 164.738281 C 85.4375 163.738281 85.4375 162.820312 85.644531 162.070312 C 85.976562 160.945312 87.019531 160.738281 87.5625 160.738281 C 88.5625 160.738281 89.269531 161.238281 89.519531 162.195312 C 89.726562 162.863281 89.726562 163.945312 89.726562 164.738281 C 89.726562 165.65625 89.726562 166.738281 89.519531 167.53125 C 89.1875 168.820312 88.101562 168.988281 87.5625 168.988281 Z M 87.5625 168.988281 "/>
<path fill="none" stroke-width="0.39848" stroke-linecap="butt" stroke-linejoin="miter" stroke="rgb(0%, 0%, 0%)" stroke-opacity="1" stroke-miterlimit="10" d="M -35.071968 -34.391907 L 7.427544 -34.391907 " transform="matrix(2.666667, 0, 0, -2.666667, 275.743998, 116.631999)"/>
<path fill="none" stroke-width="0.39848" stroke-linecap="round" stroke-linejoin="round" stroke="rgb(0%, 0%, 0%)" stroke-opacity="1" stroke-miterlimit="10" d="M -2.070915 2.391655 C -1.691521 0.957573 -0.847771 0.277885 -0.001091 0.00102997 C -0.847771 -0.28022 -1.691521 -0.955513 -2.070915 -2.389595 " transform="matrix(2.666667, 0, 0, -2.666667, 296.084941, 208.346497)"/>
<path fill-rule="nonzero" fill="rgb(0%, 0%, 0%)" fill-opacity="1" d="M 229.378906 225.527344 C 228.171875 225.527344 228.003906 225.527344 228.003906 224.734375 L 228.003906 221.734375 C 228.089844 221.820312 228.964844 222.777344 230.503906 222.777344 C 232.964844 222.777344 235.046875 220.945312 235.046875 218.609375 C 235.046875 216.320312 233.171875 214.402344 230.796875 214.402344 C 229.753906 214.402344 228.671875 214.820312 227.921875 215.570312 L 227.921875 214.402344 L 225.128906 214.609375 L 225.128906 215.277344 C 226.421875 215.277344 226.503906 215.402344 226.503906 216.152344 L 226.503906 224.734375 C 226.503906 225.527344 226.339844 225.527344 225.128906 225.527344 L 225.128906 226.234375 C 225.171875 226.234375 226.464844 226.152344 227.253906 226.152344 C 227.921875 226.152344 229.214844 226.195312 229.378906 226.234375 Z M 228.003906 216.402344 C 228.546875 215.484375 229.628906 215.027344 230.589844 215.027344 C 232.171875 215.027344 233.378906 216.652344 233.378906 218.609375 C 233.378906 220.734375 231.964844 222.277344 230.421875 222.277344 C 228.753906 222.277344 228.046875 220.859375 228.003906 220.734375 Z M 228.003906 216.402344 "/>
<path fill-rule="nonzero" fill="rgb(0%, 0%, 0%)" fill-opacity="1" d="M 239.636719 218.359375 C 239.636719 216.820312 240.347656 214.945312 242.136719 214.945312 C 241.972656 215.070312 241.804688 215.320312 241.804688 215.609375 C 241.804688 216.234375 242.304688 216.445312 242.636719 216.445312 C 243.097656 216.445312 243.511719 216.152344 243.511719 215.609375 C 243.511719 214.984375 242.886719 214.402344 242.011719 214.402344 C 241.097656 214.402344 240.054688 214.984375 239.511719 216.402344 L 239.511719 214.402344 L 236.847656 214.609375 L 236.847656 215.277344 C 238.097656 215.277344 238.222656 215.402344 238.222656 216.320312 L 238.222656 221.152344 C 238.222656 221.945312 238.054688 221.945312 236.847656 221.945312 L 236.847656 222.609375 C 236.929688 222.609375 238.179688 222.527344 238.972656 222.527344 C 239.761719 222.527344 240.554688 222.570312 241.386719 222.609375 L 241.386719 221.945312 L 241.011719 221.945312 C 239.636719 221.945312 239.636719 221.734375 239.636719 221.109375 Z M 239.636719 218.359375 "/>
<path fill-rule="nonzero" fill="rgb(0%, 0%, 0%)" fill-opacity="1" d="M 249.539062 219.097656 C 249.539062 218.722656 249.496094 218.722656 249.039062 218.722656 C 248.121094 219.558594 246.621094 219.558594 246.371094 219.558594 L 246.164062 219.558594 L 246.164062 220.140625 L 246.371094 220.140625 C 246.664062 220.140625 247.539062 220.097656 248.332031 219.765625 L 248.332031 226.433594 C 248.332031 226.808594 248.332031 226.972656 246.914062 226.972656 L 246.246094 226.972656 L 246.246094 227.558594 C 246.957031 227.515625 248.164062 227.515625 248.914062 227.515625 C 249.707031 227.515625 250.871094 227.515625 251.621094 227.558594 L 251.621094 226.972656 L 250.957031 226.972656 C 249.539062 226.972656 249.539062 226.808594 249.539062 226.433594 Z M 249.539062 219.097656 "/>
<path fill="none" stroke-width="0.39848" stroke-linecap="butt" stroke-linejoin="miter" stroke="rgb(0%, 0%, 0%)" stroke-opacity="1" stroke-miterlimit="10" d="M 19.389458 -26.228333 L 19.389458 -8.427551 " transform="matrix(2.666667, 0, 0, -2.666667, 275.743998, 116.631999)"/>
<path fill="none" stroke-width="0.39848" stroke-linecap="round" stroke-linejoin="round" stroke="rgb(0%, 0%, 0%)" stroke-opacity="1" stroke-miterlimit="10" d="M -2.070988 2.388817 C -1.691593 0.9562 -0.847843 0.279442 -0.00116348 -0.00180817 C -0.847843 -0.278664 -1.691593 -0.953957 -2.070988 -2.392433 " transform="matrix(0, -2.666667, -2.666667, 0, 327.444397, 138.571116)"/>
<path fill-rule="nonzero" fill="rgb(0%, 0%, 0%)" fill-opacity="1" d="M 339.703125 158.640625 C 341.242188 157.976562 341.910156 157.726562 342.367188 157.476562 C 342.742188 157.351562 342.910156 157.265625 342.910156 156.890625 C 342.910156 156.601562 342.660156 156.308594 342.328125 156.308594 C 342.203125 156.308594 342.160156 156.308594 341.953125 156.476562 L 339.410156 158.183594 L 339.703125 155.433594 C 339.742188 155.101562 339.703125 154.640625 339.117188 154.640625 C 338.910156 154.640625 338.535156 154.765625 338.535156 155.183594 C 338.535156 155.351562 338.617188 155.890625 338.660156 156.101562 C 338.703125 156.390625 338.828125 157.765625 338.867188 158.183594 L 336.328125 156.476562 C 336.160156 156.390625 336.117188 156.308594 335.953125 156.308594 C 335.578125 156.308594 335.367188 156.601562 335.367188 156.890625 C 335.367188 157.265625 335.578125 157.390625 335.742188 157.433594 L 338.535156 158.640625 C 337.035156 159.308594 336.328125 159.558594 335.867188 159.765625 C 335.535156 159.933594 335.367188 160.015625 335.367188 160.351562 C 335.367188 160.683594 335.578125 160.933594 335.953125 160.933594 C 336.078125 160.933594 336.117188 160.933594 336.328125 160.765625 L 338.867188 159.101562 L 338.535156 162.058594 C 338.535156 162.476562 338.910156 162.640625 339.117188 162.640625 C 339.367188 162.640625 339.703125 162.476562 339.703125 162.058594 C 339.703125 161.890625 339.617188 161.351562 339.617188 161.183594 C 339.578125 160.851562 339.453125 159.515625 339.410156 159.101562 L 341.617188 160.558594 C 342.117188 160.933594 342.160156 160.933594 342.328125 160.933594 C 342.660156 160.933594 342.910156 160.683594 342.910156 160.351562 C 342.910156 159.976562 342.660156 159.890625 342.492188 159.808594 Z M 339.703125 158.640625 "/>
<path fill-rule="nonzero" fill="rgb(0%, 0%, 0%)" fill-opacity="1" d="M 350.796875 163.222656 L 348.253906 157.179688 C 348.128906 156.886719 348.128906 156.886719 347.753906 156.886719 L 345.296875 156.886719 C 345.046875 156.886719 344.835938 156.886719 344.835938 157.136719 C 344.835938 157.386719 345.085938 157.386719 345.171875 157.386719 C 345.335938 157.386719 345.671875 157.386719 345.960938 157.511719 L 345.960938 164.597656 C 345.960938 164.886719 345.960938 165.472656 345.046875 165.554688 C 344.796875 165.554688 344.796875 165.761719 344.796875 165.761719 C 344.796875 166.011719 345.046875 166.011719 345.253906 166.011719 L 347.335938 166.011719 C 347.546875 166.011719 347.753906 166.011719 347.753906 165.761719 C 347.753906 165.636719 347.671875 165.554688 347.546875 165.554688 C 346.546875 165.472656 346.546875 164.929688 346.546875 164.597656 L 346.546875 157.972656 L 349.796875 165.722656 C 349.878906 165.972656 350.003906 166.011719 350.046875 166.011719 C 350.210938 166.011719 350.253906 165.886719 350.335938 165.761719 L 353.585938 157.972656 L 353.585938 164.597656 C 353.585938 164.886719 353.585938 165.472656 352.710938 165.554688 C 352.460938 165.554688 352.460938 165.761719 352.460938 165.761719 C 352.460938 166.011719 352.671875 166.011719 352.878906 166.011719 L 356.460938 166.011719 C 356.671875 166.011719 356.878906 166.011719 356.878906 165.761719 C 356.878906 165.636719 356.796875 165.554688 356.671875 165.554688 C 355.628906 165.472656 355.628906 164.929688 355.628906 164.597656 L 355.628906 158.304688 C 355.628906 158.054688 355.628906 157.472656 356.546875 157.386719 C 356.671875 157.347656 356.796875 157.304688 356.796875 157.136719 C 356.796875 156.886719 356.585938 156.886719 356.378906 156.886719 L 353.796875 156.886719 C 353.460938 156.886719 353.421875 156.886719 353.296875 157.179688 Z M 350.378906 163.472656 C 350.503906 163.679688 350.503906 163.679688 350.671875 163.761719 L 350.085938 165.179688 L 350.046875 165.179688 L 347.003906 157.929688 C 346.960938 157.761719 346.835938 157.511719 346.671875 157.386719 L 347.835938 157.386719 Z M 346.378906 165.554688 L 346.128906 165.554688 C 346.171875 165.511719 346.210938 165.472656 346.210938 165.429688 C 346.253906 165.429688 346.253906 165.429688 346.253906 165.386719 Z M 354.046875 157.386719 L 355.460938 157.386719 C 355.171875 157.722656 355.171875 158.054688 355.171875 158.304688 L 355.171875 164.636719 C 355.171875 164.886719 355.171875 165.222656 355.503906 165.554688 L 353.753906 165.554688 C 354.046875 165.222656 354.046875 164.886719 354.046875 164.636719 Z M 354.046875 157.386719 "/>
<path fill-rule="nonzero" fill="rgb(0%, 0%, 0%)" fill-opacity="1" d="M 362.421875 161.539062 C 362.421875 161.164062 362.378906 161.164062 361.921875 161.164062 C 361.003906 161.996094 359.503906 161.996094 359.253906 161.996094 L 359.046875 161.996094 L 359.046875 162.582031 L 359.253906 162.582031 C 359.546875 162.582031 360.421875 162.539062 361.214844 162.207031 L 361.214844 168.871094 C 361.214844 169.246094 361.214844 169.414062 359.796875 169.414062 L 359.128906 169.414062 L 359.128906 169.996094 C 359.839844 169.957031 361.046875 169.957031 361.796875 169.957031 C 362.589844 169.957031 363.753906 169.957031 364.503906 169.996094 L 364.503906 169.414062 L 363.839844 169.414062 C 362.421875 169.414062 362.421875 169.246094 362.421875 168.871094 Z M 362.421875 161.539062 "/>
</svg>
