<?xml version="1.0" encoding="UTF-8"?>
<svg xmlns="http://www.w3.org/2000/svg" xmlns:xlink="http://www.w3.org/1999/xlink" width="351.059998" height="174.160004" viewBox="0 0 351.059998 174.160004">
<defs>
<clipPath id="clip-0">
<path clip-rule="nonzero" d="M 342 56 L 351.0625 56 L 351.0625 70 L 342 70 Z M 342 56 "/>
</clipPath>
<clipPath id="clip-1">
<path clip-rule="nonzero" d="M 345 123 L 351.0625 123 L 351.0625 137 L 345 137 Z M 345 123 "/>
</clipPath>
<clipPath id="clip-2">
<path clip-rule="nonzero" d="M 349 108 L 351.0625 108 L 351.0625 116 L 349 116 Z M 349 108 "/>
</clipPath>
<clipPath id="clip-3">
<path clip-rule="nonzero" d="M 89 94 L 232 94 L 232 174.15625 L 89 174.15625 Z M 89 94 "/>
</clipPath>
<clipPath id="clip-4">
<path clip-rule="nonzero" d="M 121 126 L 201 126 L 201 174.15625 L 121 174.15625 Z M 121 126 "/>
</clipPath>
<clipPath id="clip-5">
<path clip-rule="nonzero" d="M 143 171 L 150 171 L 150 174.15625 L 143 174.15625 Z M 143 171 "/>
</clipPath>
<clipPath id="clip-6">
<path clip-rule="nonzero" d="M 218 25 L 351.0625 25 L 351.0625 174 L 218 174 Z M 218 25 "/>
</clipPath>
<clipPath id="clip-7">
<path clip-rule="nonzero" d="M 88 147 L 90 147 L 90 174.15625 L 88 174.15625 Z M 88 147 "/>
</clipPath>
<clipPath id="clip-8">
<path clip-rule="nonzero" d="M 236 147 L 238 147 L 238 174.15625 L 236 174.15625 Z M 236 147 "/>
</clipPath>
</defs>
<path fill-rule="nonzero" fill="rgb(0%, 0%, 0%)" fill-opacity="1" d="M 210.554688 58.054688 L 210.992188 57.398438 L 208.398438 67.304688 C 208.273438 67.773438 208.179688 68.117188 208.023438 68.398438 C 207.867188 68.867188 207.460938 69.367188 207.023438 69.554688 C 206.804688 69.648438 206.492188 69.710938 206.179688 69.710938 L 206.085938 69.992188 L 211.835938 69.992188 L 211.929688 69.710938 C 211.304688 69.710938 210.804688 69.648438 210.554688 69.460938 C 210.273438 69.242188 210.210938 68.804688 210.210938 68.398438 C 210.210938 68.085938 210.273438 67.648438 210.429688 67.117188 L 212.398438 59.648438 C 212.554688 59.023438 212.679688 58.523438 212.804688 58.148438 C 213.023438 57.554688 213.460938 56.898438 213.898438 56.585938 C 214.117188 56.460938 214.398438 56.429688 214.742188 56.429688 L 214.835938 56.148438 L 211.242188 56.148438 L 204.554688 66.867188 L 204.273438 66.867188 L 202.992188 56.148438 L 198.710938 56.148438 L 198.617188 56.429688 C 199.242188 56.429688 199.648438 56.429688 199.867188 56.554688 C 200.148438 56.679688 200.492188 57.179688 200.492188 57.554688 C 200.492188 57.867188 200.429688 58.367188 200.242188 59.023438 L 198.054688 67.304688 C 197.898438 67.929688 197.398438 68.617188 196.929688 69.023438 C 196.492188 69.429688 195.804688 69.710938 195.242188 69.710938 L 195.179688 69.992188 L 200.148438 69.992188 L 200.242188 69.710938 C 199.773438 69.679688 199.242188 69.585938 199.023438 69.273438 C 198.804688 68.960938 198.492188 68.429688 198.492188 67.929688 C 198.492188 67.648438 198.492188 67.367188 198.554688 67.117188 L 200.960938 58.054688 L 201.085938 57.617188 L 202.554688 69.992188 L 203.148438 69.992188 Z M 210.554688 58.054688 "/>
<path fill-rule="nonzero" fill="rgb(0%, 0%, 0%)" fill-opacity="1" d="M 221.125 70.328125 L 220.625 70.328125 C 220.59375 70.671875 220.4375 71.515625 220.25 71.671875 C 220.125 71.734375 219 71.734375 218.8125 71.734375 L 216.125 71.734375 C 217.65625 70.390625 218.15625 69.984375 219.03125 69.296875 C 220.125 68.453125 221.125 67.546875 221.125 66.171875 C 221.125 64.421875 219.59375 63.328125 217.71875 63.328125 C 215.90625 63.328125 214.6875 64.609375 214.6875 65.921875 C 214.6875 66.671875 215.3125 66.765625 215.46875 66.765625 C 215.8125 66.765625 216.25 66.515625 216.25 65.984375 C 216.25 65.734375 216.125 65.203125 215.375 65.203125 C 215.84375 64.171875 216.8125 63.859375 217.5 63.859375 C 218.96875 63.859375 219.71875 64.984375 219.71875 66.171875 C 219.71875 67.421875 218.8125 68.421875 218.34375 68.953125 L 214.84375 72.421875 C 214.6875 72.546875 214.6875 72.578125 214.6875 72.984375 L 220.6875 72.984375 Z M 221.125 70.328125 "/>
<path fill-rule="nonzero" fill="rgb(0%, 0%, 0%)" fill-opacity="1" d="M 239.050781 69.304688 L 234.613281 64.867188 L 239.050781 60.429688 L 238.269531 59.617188 L 233.832031 64.085938 L 229.394531 59.617188 L 228.613281 60.429688 L 233.019531 64.867188 L 228.613281 69.304688 L 229.394531 70.085938 L 233.832031 65.648438 L 238.269531 70.085938 Z M 239.050781 69.304688 "/>
<path fill-rule="nonzero" fill="rgb(0%, 0%, 0%)" fill-opacity="1" d="M 254.820312 61.398438 C 254.820312 58.523438 253.945312 56.210938 251.789062 56.210938 C 250.101562 56.210938 248.289062 57.804688 248.289062 58.679688 C 248.289062 59.335938 248.820312 59.617188 249.226562 59.617188 C 249.632812 59.617188 249.882812 59.273438 249.945312 59.210938 C 249.882812 59.179688 249.757812 58.992188 249.757812 58.710938 C 249.757812 58.523438 250.101562 56.804688 251.820312 56.804688 C 253.257812 56.804688 253.570312 58.648438 253.570312 60.273438 C 253.570312 61.492188 253.414062 62.554688 253.414062 62.585938 L 253.382812 62.585938 C 253.382812 62.554688 252.601562 61.335938 251.039062 61.335938 C 247.039062 61.335938 245.382812 65.210938 245.382812 67.273438 C 245.382812 69.117188 246.476562 70.304688 248.695312 70.304688 C 252.132812 70.304688 254.820312 66.835938 254.820312 61.398438 Z M 252.539062 63.648438 C 252.539062 64.179688 252.039062 69.835938 248.820312 69.835938 C 247.695312 69.835938 247.195312 69.179688 247.195312 67.929688 C 247.195312 66.648438 248.007812 61.804688 250.882812 61.804688 C 252.007812 61.804688 252.539062 62.460938 252.539062 63.648438 Z M 252.539062 63.648438 "/>
<path fill-rule="nonzero" fill="rgb(0%, 0%, 0%)" fill-opacity="1" d="M 268.339844 69.992188 L 262.777344 56.523438 L 262.433594 56.523438 L 256.496094 69.992188 Z M 266.027344 69.148438 L 257.808594 69.148438 L 262.089844 59.492188 Z M 266.027344 69.148438 "/>
<path fill-rule="nonzero" fill="rgb(0%, 0%, 0%)" fill-opacity="1" d="M 276.183594 60.105469 L 275.683594 60.105469 C 275.652344 60.449219 275.496094 61.292969 275.308594 61.449219 C 275.183594 61.511719 274.058594 61.511719 273.871094 61.511719 L 271.183594 61.511719 C 272.714844 60.167969 273.214844 59.761719 274.089844 59.074219 C 275.183594 58.230469 276.183594 57.324219 276.183594 55.949219 C 276.183594 54.199219 274.652344 53.105469 272.777344 53.105469 C 270.964844 53.105469 269.746094 54.386719 269.746094 55.699219 C 269.746094 56.449219 270.371094 56.542969 270.527344 56.542969 C 270.871094 56.542969 271.308594 56.292969 271.308594 55.761719 C 271.308594 55.511719 271.183594 54.980469 270.433594 54.980469 C 270.902344 53.949219 271.871094 53.636719 272.558594 53.636719 C 274.027344 53.636719 274.777344 54.761719 274.777344 55.949219 C 274.777344 57.199219 273.871094 58.199219 273.402344 58.730469 L 269.902344 62.199219 C 269.746094 62.324219 269.746094 62.355469 269.746094 62.761719 L 275.746094 62.761719 Z M 276.183594 60.105469 "/>
<g clip-path="url(#clip-0)">
<path fill-rule="nonzero" fill="rgb(0%, 0%, 0%)" fill-opacity="1" d="M 358.019531 58.054688 L 358.457031 57.398438 L 355.863281 67.304688 C 355.738281 67.773438 355.644531 68.117188 355.488281 68.398438 C 355.332031 68.867188 354.925781 69.367188 354.488281 69.554688 C 354.269531 69.648438 353.957031 69.710938 353.644531 69.710938 L 353.550781 69.992188 L 359.300781 69.992188 L 359.394531 69.710938 C 358.769531 69.710938 358.269531 69.648438 358.019531 69.460938 C 357.738281 69.242188 357.675781 68.804688 357.675781 68.398438 C 357.675781 68.085938 357.738281 67.648438 357.894531 67.117188 L 359.863281 59.648438 C 360.019531 59.023438 360.144531 58.523438 360.269531 58.148438 C 360.488281 57.554688 360.925781 56.898438 361.363281 56.585938 C 361.582031 56.460938 361.863281 56.429688 362.207031 56.429688 L 362.300781 56.148438 L 358.707031 56.148438 L 352.019531 66.867188 L 351.738281 66.867188 L 350.457031 56.148438 L 346.175781 56.148438 L 346.082031 56.429688 C 346.707031 56.429688 347.113281 56.429688 347.332031 56.554688 C 347.613281 56.679688 347.957031 57.179688 347.957031 57.554688 C 347.957031 57.867188 347.894531 58.367188 347.707031 59.023438 L 345.519531 67.304688 C 345.363281 67.929688 344.863281 68.617188 344.394531 69.023438 C 343.957031 69.429688 343.269531 69.710938 342.707031 69.710938 L 342.644531 69.992188 L 347.613281 69.992188 L 347.707031 69.710938 C 347.238281 69.679688 346.707031 69.585938 346.488281 69.273438 C 346.269531 68.960938 345.957031 68.429688 345.957031 67.929688 C 345.957031 67.648438 345.957031 67.367188 346.019531 67.117188 L 348.425781 58.054688 L 348.550781 57.617188 L 350.019531 69.992188 L 350.613281 69.992188 Z M 358.019531 58.054688 "/>
</g>
<path fill-rule="nonzero" fill="rgb(0%, 0%, 0%)" fill-opacity="1" d="M 92.117188 136.519531 L 92.117188 123.332031 L 89.210938 123.332031 L 85.023438 134.988281 L 84.960938 134.988281 L 80.960938 123.332031 L 77.867188 123.332031 L 77.867188 136.519531 L 78.742188 136.519531 L 78.742188 127.175781 L 78.773438 127.175781 L 82.023438 136.519531 L 85.398438 136.519531 L 88.773438 127.113281 L 88.804688 127.113281 L 88.804688 136.519531 Z M 91.242188 135.644531 L 89.679688 135.644531 L 89.679688 124.207031 L 91.242188 124.207031 Z M 84.304688 135.644531 L 82.648438 135.644531 L 79.085938 125.425781 L 78.679688 124.207031 L 80.273438 124.207031 Z M 84.304688 135.644531 "/>
<path fill-rule="nonzero" fill="rgb(0%, 0%, 0%)" fill-opacity="1" d="M 100.601562 134.882812 C 100.601562 133.289062 100.414062 132.132812 99.757812 131.101562 C 99.289062 130.445312 98.382812 129.851562 97.226562 129.851562 C 93.851562 129.851562 93.851562 133.820312 93.851562 134.882812 C 93.851562 135.914062 93.851562 139.789062 97.226562 139.789062 C 100.601562 139.789062 100.601562 135.914062 100.601562 134.882812 Z M 99.289062 134.695312 C 99.289062 135.757812 99.289062 136.820312 99.101562 137.757812 C 98.789062 139.070312 97.820312 139.382812 97.226562 139.382812 C 96.570312 139.382812 95.664062 139.007812 95.382812 137.820312 C 95.164062 136.945312 95.164062 135.757812 95.164062 134.695312 C 95.164062 133.632812 95.164062 132.507812 95.382812 131.726562 C 95.695312 130.570312 96.632812 130.257812 97.226562 130.257812 C 98.007812 130.257812 98.757812 130.757812 99.039062 131.601562 C 99.257812 132.382812 99.289062 133.414062 99.289062 134.695312 Z M 99.289062 134.695312 "/>
<path fill-rule="nonzero" fill="rgb(0%, 0%, 0%)" fill-opacity="1" d="M 239.582031 136.519531 L 239.582031 123.332031 L 236.675781 123.332031 L 232.488281 134.988281 L 232.425781 134.988281 L 228.425781 123.332031 L 225.332031 123.332031 L 225.332031 136.519531 L 226.207031 136.519531 L 226.207031 127.175781 L 226.238281 127.175781 L 229.488281 136.519531 L 232.863281 136.519531 L 236.238281 127.113281 L 236.269531 127.113281 L 236.269531 136.519531 Z M 238.707031 135.644531 L 237.144531 135.644531 L 237.144531 124.207031 L 238.707031 124.207031 Z M 231.769531 135.644531 L 230.113281 135.644531 L 226.550781 125.425781 L 226.144531 124.207031 L 227.738281 124.207031 Z M 231.769531 135.644531 "/>
<path fill-rule="nonzero" fill="rgb(0%, 0%, 0%)" fill-opacity="1" d="M 247.4375 139.507812 L 247.4375 138.976562 L 246.875 138.976562 C 245.4375 138.976562 245.4375 138.789062 245.4375 138.320312 L 245.4375 130.257812 C 245.4375 129.882812 245.40625 129.851562 245 129.851562 C 244.0625 130.789062 242.75 130.789062 242.15625 130.789062 L 242.15625 131.320312 C 242.5 131.320312 243.46875 131.320312 244.25 130.914062 L 244.25 138.320312 C 244.25 138.789062 244.25 138.976562 242.8125 138.976562 L 242.25 138.976562 L 242.25 139.507812 L 244.84375 139.445312 Z M 247.4375 139.507812 "/>
<g clip-path="url(#clip-1)">
<path fill-rule="nonzero" fill="rgb(0%, 0%, 0%)" fill-opacity="1" d="M 359.515625 136.519531 L 359.515625 123.332031 L 356.609375 123.332031 L 352.421875 134.988281 L 352.359375 134.988281 L 348.359375 123.332031 L 345.265625 123.332031 L 345.265625 136.519531 L 346.140625 136.519531 L 346.140625 127.175781 L 346.171875 127.175781 L 349.421875 136.519531 L 352.796875 136.519531 L 356.171875 127.113281 L 356.203125 127.113281 L 356.203125 136.519531 Z M 358.640625 135.644531 L 357.078125 135.644531 L 357.078125 124.207031 L 358.640625 124.207031 Z M 351.703125 135.644531 L 350.046875 135.644531 L 346.484375 125.425781 L 346.078125 124.207031 L 347.671875 124.207031 Z M 351.703125 135.644531 "/>
</g>
<path fill="none" stroke-width="0.5579" stroke-linecap="butt" stroke-linejoin="miter" stroke="rgb(0%, 0%, 0%)" stroke-opacity="1" stroke-miterlimit="10" d="M 38.875687 33.301498 L 61.828812 33.301498 " transform="matrix(2, 0, 0, -2, 209.358002, 131.477997)"/>
<path fill="none" stroke-width="0.5579" stroke-linecap="round" stroke-linejoin="round" stroke="rgb(0%, 0%, 0%)" stroke-opacity="1" stroke-miterlimit="10" d="M -2.899628 3.346607 C -2.372284 1.338795 -1.18869 0.389576 -0.00119019 -0.00104904 C -1.18869 -0.391674 -2.372284 -1.340893 -2.899628 -3.348705 " transform="matrix(2, 0, 0, -2, 333.572693, 64.872902)"/>
<path fill-rule="nonzero" fill="rgb(0%, 0%, 0%)" fill-opacity="1" d="M 307.4375 53.519531 C 307.4375 51.707031 305.9375 50.238281 304.09375 50.238281 C 303.28125 50.238281 302.4375 50.550781 301.84375 51.113281 L 301.84375 50.238281 L 299.65625 50.394531 L 299.65625 50.925781 C 300.65625 50.925781 300.75 50.988281 300.75 51.613281 L 300.75 58.300781 C 300.75 58.925781 300.59375 58.925781 299.65625 58.925781 L 299.65625 59.457031 C 299.65625 59.457031 300.6875 59.394531 301.3125 59.394531 C 301.84375 59.394531 302.84375 59.457031 302.96875 59.457031 L 302.96875 58.925781 C 302.03125 58.925781 301.875 58.925781 301.875 58.300781 L 301.875 55.957031 C 301.96875 56.019531 302.65625 56.800781 303.875 56.800781 C 305.78125 56.800781 307.4375 55.363281 307.4375 53.519531 Z M 306.09375 53.519531 C 306.09375 55.175781 305 56.394531 303.78125 56.394531 C 302.5 56.394531 301.9375 55.269531 301.875 55.175781 L 301.875 51.800781 C 302.3125 51.082031 303.15625 50.707031 303.9375 50.707031 C 305.15625 50.707031 306.09375 51.988281 306.09375 53.519531 Z M 306.09375 53.519531 "/>
<path fill-rule="nonzero" fill="rgb(0%, 0%, 0%)" fill-opacity="1" d="M 314.019531 51.175781 C 314.019531 50.675781 313.550781 50.238281 312.894531 50.238281 C 312.144531 50.238281 311.363281 50.675781 310.925781 51.800781 L 310.894531 51.800781 L 310.894531 50.238281 L 308.832031 50.394531 L 308.832031 50.925781 C 309.800781 50.925781 309.925781 51.019531 309.925781 51.738281 L 309.925781 55.488281 C 309.925781 56.113281 309.769531 56.113281 308.832031 56.113281 L 308.832031 56.644531 C 308.894531 56.644531 309.894531 56.582031 310.488281 56.582031 L 312.363281 56.644531 L 312.363281 56.113281 L 312.082031 56.113281 C 311.019531 56.113281 311.019531 55.957031 311.019531 55.457031 L 311.019531 53.332031 C 311.019531 52.113281 311.582031 50.644531 312.957031 50.644531 C 312.832031 50.738281 312.707031 50.925781 312.707031 51.175781 C 312.707031 51.644531 313.082031 51.832031 313.363281 51.832031 C 313.707031 51.832031 314.019531 51.613281 314.019531 51.175781 Z M 314.019531 51.175781 "/>
<path fill-rule="nonzero" fill="rgb(0%, 0%, 0%)" fill-opacity="1" d="M 320.136719 60.019531 L 320.136719 59.582031 L 319.667969 59.582031 C 318.542969 59.582031 318.542969 59.457031 318.542969 59.082031 L 318.542969 53.050781 C 318.542969 52.738281 318.511719 52.738281 318.167969 52.738281 C 317.449219 53.425781 316.324219 53.425781 315.917969 53.425781 L 315.917969 53.863281 C 316.230469 53.863281 316.949219 53.863281 317.605469 53.550781 L 317.605469 59.082031 C 317.605469 59.457031 317.605469 59.582031 316.480469 59.582031 L 316.011719 59.582031 L 316.011719 60.019531 C 316.605469 59.988281 317.449219 59.988281 318.074219 59.988281 C 318.699219 59.988281 319.542969 59.988281 320.136719 60.019531 Z M 320.136719 60.019531 "/>
<path fill="none" stroke-width="0.5579" stroke-linecap="butt" stroke-linejoin="miter" stroke="rgb(0%, 0%, 0%)" stroke-opacity="1" stroke-miterlimit="10" d="M 13.762405 25.399155 L 13.762405 8.422592 " transform="matrix(2, 0, 0, -2, 209.358002, 131.477997)"/>
<path fill="none" stroke-width="0.5579" stroke-linecap="round" stroke-linejoin="round" stroke="rgb(0%, 0%, 0%)" stroke-opacity="1" stroke-miterlimit="10" d="M -2.900639 3.345955 C -2.369389 1.338142 -1.189701 0.388924 0.00170517 -0.00170135 C -1.189701 -0.392326 -2.369389 -1.337639 -2.900639 -3.349358 " transform="matrix(0, 2, 2, 0, 236.886215, 115.191902)"/>
<path fill-rule="nonzero" fill="rgb(0%, 0%, 0%)" fill-opacity="1" d="M 223.59375 101.894531 L 220.21875 92.269531 L 217.78125 92.269531 L 214.28125 101.894531 L 214.9375 101.894531 L 216.0625 98.863281 L 219.96875 98.863281 L 221.09375 101.894531 Z M 222.71875 101.269531 L 221.5 101.269531 L 218.5625 92.925781 L 219.78125 92.925781 Z M 219.75 98.207031 L 216.3125 98.207031 L 218.03125 93.394531 L 218.0625 93.394531 Z M 219.75 98.207031 "/>
<path fill-rule="nonzero" fill="rgb(0%, 0%, 0%)" fill-opacity="1" d="M 229.871094 104.078125 L 229.871094 103.640625 L 229.402344 103.640625 C 228.277344 103.640625 228.277344 103.515625 228.277344 103.140625 L 228.277344 97.109375 C 228.277344 96.796875 228.246094 96.796875 227.902344 96.796875 C 227.183594 97.484375 226.058594 97.484375 225.652344 97.484375 L 225.652344 97.921875 C 225.964844 97.921875 226.683594 97.921875 227.339844 97.609375 L 227.339844 103.140625 C 227.339844 103.515625 227.339844 103.640625 226.214844 103.640625 L 225.746094 103.640625 L 225.746094 104.078125 C 226.339844 104.046875 227.183594 104.046875 227.808594 104.046875 C 228.433594 104.046875 229.277344 104.046875 229.871094 104.078125 Z M 229.871094 104.078125 "/>
<g clip-path="url(#clip-2)">
<path fill="none" stroke-width="0.5579" stroke-linecap="round" stroke-linejoin="round" stroke="rgb(0%, 0%, 0%)" stroke-opacity="1" stroke-miterlimit="10" d="M -2.900639 3.346512 C -2.369389 1.338699 -1.189701 0.389481 0.00170517 -0.00114441 C -1.189701 -0.391769 -2.369389 -1.337082 -2.900639 -3.348801 " transform="matrix(0, 2, 2, 0, 356.822601, 115.191902)"/>
</g>
<path fill="none" stroke-width="0.5579" stroke-linecap="butt" stroke-linejoin="miter" stroke="rgb(0%, 0%, 0%)" stroke-opacity="1" stroke-miterlimit="10" d="M -48.995407 0.0397797 L 2.235062 0.0397797 " transform="matrix(2, 0, 0, -2, 209.358002, 131.477997)"/>
<path fill="none" stroke-width="0.5579" stroke-linecap="round" stroke-linejoin="round" stroke="rgb(0%, 0%, 0%)" stroke-opacity="1" stroke-miterlimit="10" d="M -2.902695 3.347595 C -2.371445 1.339783 -1.191757 0.390564 -0.000350952 -0.0000610352 C -1.191757 -0.390686 -2.371445 -1.339905 -2.902695 -3.347717 " transform="matrix(2, 0, 0, -2, 214.383514, 131.398315)"/>
<g clip-path="url(#clip-3)">
<path fill="none" stroke-width="2.49017" stroke-linecap="butt" stroke-linejoin="miter" stroke="rgb(0%, 0%, 0%)" stroke-opacity="1" stroke-miterlimit="10" d="M -24.702438 -16.714127 L -23.925095 -17.08522 " transform="matrix(2, 0, 0, -2, 209.358002, 131.477997)"/>
</g>
<g clip-path="url(#clip-4)">
<path fill="none" stroke-width="1.37434" stroke-linecap="butt" stroke-linejoin="miter" stroke="rgb(100%, 100%, 100%)" stroke-opacity="1" stroke-miterlimit="10" d="M -24.702438 -16.714127 L -23.925095 -17.08522 " transform="matrix(2, 0, 0, -2, 209.358002, 131.477997)"/>
</g>
<path fill="none" stroke-width="0.5579" stroke-linecap="round" stroke-linejoin="round" stroke="rgb(0%, 0%, 0%)" stroke-opacity="1" stroke-miterlimit="10" d="M -1.293398 2.558966 C -0.668672 1.207974 1.024042 0.0487814 1.989392 0.00149914 C 1.022119 -0.0472856 -0.666375 -1.208688 -1.296249 -2.559029 " transform="matrix(1.8063, 0.8584, 0.8584, -1.8063, 161.506836, 165.646576)"/>
<g clip-path="url(#clip-5)">
<path fill-rule="nonzero" fill="rgb(0%, 0%, 0%)" fill-opacity="1" d="M 147.4375 181.824219 C 148.6875 181.824219 149.375 180.855469 149.8125 180.136719 L 149.53125 179.949219 C 149.25 180.355469 148.75 181.230469 148.25 181.230469 C 147.96875 181.230469 147.875 180.855469 147.875 180.667969 C 147.875 180.355469 149 177.074219 149 176.636719 C 149 175.855469 148.71875 175.355469 147.9375 175.355469 C 147.59375 175.355469 147 175.480469 146.6875 175.667969 C 146.375 175.886719 146.09375 176.167969 145.84375 176.511719 L 145.78125 176.667969 L 147.25 171.011719 L 145.09375 171.136719 L 145.0625 171.355469 C 145.46875 171.355469 145.65625 171.480469 145.78125 171.574219 C 145.96875 171.667969 146.0625 171.886719 146.0625 172.042969 C 146.0625 172.324219 145.96875 172.667969 145.875 172.917969 L 143.4375 181.699219 L 144.28125 181.699219 C 144.8125 180.042969 145.375 178.042969 146.15625 176.792969 C 146.46875 176.230469 147 175.699219 147.65625 175.699219 C 148.21875 175.699219 148.0625 176.667969 147.96875 177.105469 C 147.90625 177.324219 147.8125 177.636719 147.65625 178.042969 C 147.15625 179.667969 146.84375 180.417969 146.84375 181.074219 C 146.84375 181.542969 147 181.824219 147.4375 181.824219 Z M 147.4375 181.824219 "/>
</g>
<g clip-path="url(#clip-6)">
<path fill="none" stroke-width="2.49017" stroke-linecap="butt" stroke-linejoin="miter" stroke="rgb(0%, 0%, 0%)" stroke-opacity="1" stroke-miterlimit="10" d="M 39.547562 14.340561 L 45.594437 17.69603 " transform="matrix(2, 0, 0, -2, 209.358002, 131.477997)"/>
</g>
<path fill="none" stroke-width="1.37434" stroke-linecap="butt" stroke-linejoin="miter" stroke="rgb(100%, 100%, 100%)" stroke-opacity="1" stroke-miterlimit="10" d="M 39.547562 14.340561 L 45.594437 17.69603 " transform="matrix(2, 0, 0, -2, 209.358002, 131.477997)"/>
<path fill="none" stroke-width="0.5579" stroke-linecap="round" stroke-linejoin="round" stroke="rgb(0%, 0%, 0%)" stroke-opacity="1" stroke-miterlimit="10" d="M -1.294242 2.559435 C -0.668642 1.207139 1.024915 0.0485183 1.989796 0.0000730889 C 1.024206 -0.0493716 -0.667393 -1.20595 -1.293868 -2.560413 " transform="matrix(1.74878, -0.97036, -0.97036, -1.74878, 300.543793, 96.087196)"/>
<path fill-rule="nonzero" fill="rgb(0%, 0%, 0%)" fill-opacity="1" d="M 281.136719 91.433594 C 282.386719 91.433594 283.074219 90.464844 283.511719 89.746094 L 283.230469 89.558594 C 282.949219 89.964844 282.449219 90.839844 281.949219 90.839844 C 281.667969 90.839844 281.574219 90.464844 281.574219 90.277344 C 281.574219 89.964844 282.699219 86.683594 282.699219 86.246094 C 282.699219 85.464844 282.417969 84.964844 281.636719 84.964844 C 281.292969 84.964844 280.699219 85.089844 280.386719 85.277344 C 280.074219 85.496094 279.792969 85.777344 279.542969 86.121094 L 279.480469 86.277344 L 280.949219 80.621094 L 278.792969 80.746094 L 278.761719 80.964844 C 279.167969 80.964844 279.355469 81.089844 279.480469 81.183594 C 279.667969 81.277344 279.761719 81.496094 279.761719 81.652344 C 279.761719 81.933594 279.667969 82.277344 279.574219 82.527344 L 277.136719 91.308594 L 277.980469 91.308594 C 278.511719 89.652344 279.074219 87.652344 279.855469 86.402344 C 280.167969 85.839844 280.699219 85.308594 281.355469 85.308594 C 281.917969 85.308594 281.761719 86.277344 281.667969 86.714844 C 281.605469 86.933594 281.511719 87.246094 281.355469 87.652344 C 280.855469 89.277344 280.542969 90.027344 280.542969 90.683594 C 280.542969 91.152344 280.699219 91.433594 281.136719 91.433594 Z M 281.136719 91.433594 "/>
<path fill-rule="nonzero" fill="rgb(0%, 0%, 0%)" fill-opacity="1" d="M 289.839844 91.425781 L 289.433594 91.425781 C 289.402344 91.582031 289.308594 92.300781 289.121094 92.425781 C 289.058594 92.488281 288.152344 92.488281 288.027344 92.488281 L 285.964844 92.488281 L 287.371094 91.363281 C 287.746094 91.050781 288.714844 90.363281 289.058594 90.019531 C 289.371094 89.707031 289.839844 89.144531 289.839844 88.363281 C 289.839844 86.988281 288.589844 86.207031 287.121094 86.207031 C 285.714844 86.207031 284.714844 87.113281 284.714844 88.144531 C 284.714844 88.707031 285.183594 88.769531 285.308594 88.769531 C 285.589844 88.769531 285.902344 88.582031 285.902344 88.175781 C 285.902344 87.957031 285.777344 87.613281 285.277344 87.613281 C 285.527344 87.050781 286.214844 86.613281 286.964844 86.613281 C 288.121094 86.613281 288.714844 87.488281 288.714844 88.363281 C 288.714844 89.144531 288.214844 89.957031 287.433594 90.644531 L 284.839844 93.019531 C 284.746094 93.144531 284.714844 93.144531 284.714844 93.488281 L 289.496094 93.488281 Z M 289.839844 91.425781 "/>
<path fill="none" stroke-width="0.5579" stroke-linecap="butt" stroke-linejoin="miter" stroke="rgb(0%, 0%, 0%)" stroke-opacity="1" stroke-miterlimit="10" d="M 24.735062 0.0397797 L 62.203812 0.0397797 " transform="matrix(2, 0, 0, -2, 209.358002, 131.477997)"/>
<path fill="none" stroke-width="0.5579" stroke-linecap="round" stroke-linejoin="round" stroke="rgb(0%, 0%, 0%)" stroke-opacity="1" stroke-miterlimit="10" d="M -2.90213 3.347595 C -2.37088 1.339783 -1.191193 0.390564 0.000213623 -0.0000610352 C -1.191193 -0.390686 -2.37088 -1.339905 -2.90213 -3.347717 " transform="matrix(2, 0, 0, -2, 334.319885, 131.398315)"/>
<path fill-rule="nonzero" fill="rgb(0%, 0%, 0%)" fill-opacity="1" d="M 217.953125 148.625 L 218.828125 148.625 L 218.828125 143.53125 L 213.734375 143.53125 L 213.734375 144.40625 L 217.953125 144.40625 Z M 217.953125 148.625 "/>
<path fill-rule="nonzero" fill="rgb(0%, 0%, 0%)" fill-opacity="1" d="M 339.164062 117.9375 L 339.164062 118.8125 L 344.257812 118.8125 L 344.257812 113.71875 L 343.382812 113.71875 L 343.382812 117.9375 Z M 339.164062 117.9375 "/>
<g clip-path="url(#clip-7)">
<path fill="none" stroke-width="0.5579" stroke-linecap="butt" stroke-linejoin="miter" stroke="rgb(0%, 0%, 0%)" stroke-opacity="1" stroke-miterlimit="10" d="M -59.968063 -25.39772 L -59.968063 -8.421158 " transform="matrix(2, 0, 0, -2, 209.358002, 131.477997)"/>
</g>
<path fill="none" stroke-width="0.5579" stroke-linecap="round" stroke-linejoin="round" stroke="rgb(0%, 0%, 0%)" stroke-opacity="1" stroke-miterlimit="10" d="M -2.8992 3.34753 C -2.371857 1.339718 -1.188263 0.390499 -0.000762939 -0.000125885 C -1.188263 -0.390751 -2.371857 -1.33997 -2.8992 -3.347782 " transform="matrix(0, -2, -2, 0, 89.421623, 147.764099)"/>
<path fill-rule="nonzero" fill="rgb(0%, 0%, 0%)" fill-opacity="1" d="M 76.128906 168.421875 L 72.753906 158.796875 L 70.316406 158.796875 L 66.816406 168.421875 L 67.472656 168.421875 L 68.597656 165.390625 L 72.503906 165.390625 L 73.628906 168.421875 Z M 75.253906 167.796875 L 74.035156 167.796875 L 71.097656 159.453125 L 72.316406 159.453125 Z M 72.285156 164.734375 L 68.847656 164.734375 L 70.566406 159.921875 L 70.597656 159.921875 Z M 72.285156 164.734375 "/>
<path fill-rule="nonzero" fill="rgb(0%, 0%, 0%)" fill-opacity="1" d="M 82.90625 167.101562 C 82.90625 166.289062 82.90625 163.320312 80.21875 163.320312 C 77.53125 163.320312 77.53125 166.289062 77.53125 167.101562 C 77.53125 167.882812 77.53125 170.820312 80.21875 170.820312 C 82.90625 170.820312 82.90625 167.882812 82.90625 167.101562 Z M 81.875 166.945312 C 81.875 167.664062 81.875 168.757812 81.6875 169.382812 C 81.375 170.351562 80.59375 170.476562 80.21875 170.476562 C 79.75 170.476562 79 170.257812 78.75 169.351562 C 78.5625 168.726562 78.5625 167.632812 78.5625 166.945312 C 78.5625 166.226562 78.5625 165.382812 78.71875 164.789062 C 79 163.789062 79.84375 163.664062 80.21875 163.664062 C 80.71875 163.664062 81.4375 163.914062 81.6875 164.726562 C 81.84375 165.320312 81.875 166.101562 81.875 166.945312 Z M 81.875 166.945312 "/>
<g clip-path="url(#clip-8)">
<path fill="none" stroke-width="0.5579" stroke-linecap="butt" stroke-linejoin="miter" stroke="rgb(0%, 0%, 0%)" stroke-opacity="1" stroke-miterlimit="10" d="M 13.762405 -26.749283 L 13.762405 -8.421158 " transform="matrix(2, 0, 0, -2, 209.358002, 131.477997)"/>
</g>
<path fill="none" stroke-width="0.5579" stroke-linecap="round" stroke-linejoin="round" stroke="rgb(0%, 0%, 0%)" stroke-opacity="1" stroke-miterlimit="10" d="M -2.8992 3.349358 C -2.371857 1.337639 -1.188263 0.392326 -0.000762939 0.00170135 C -1.188263 -0.388924 -2.371857 -1.338142 -2.8992 -3.345955 " transform="matrix(0, -2, -2, 0, 236.886215, 147.764099)"/>
<path fill-rule="nonzero" fill="rgb(0%, 0%, 0%)" fill-opacity="1" d="M 247.675781 161.867188 C 247.675781 161.617188 247.488281 161.335938 247.207031 161.335938 C 246.894531 161.335938 245.675781 162.554688 245.269531 162.773438 C 245.269531 161.960938 245.675781 161.148438 245.675781 160.679688 C 245.675781 160.367188 245.488281 160.179688 245.175781 160.179688 C 244.863281 160.179688 244.707031 160.367188 244.707031 160.679688 C 244.707031 161.242188 245.050781 161.992188 245.050781 162.773438 C 244.582031 162.523438 243.457031 161.304688 243.144531 161.304688 C 242.894531 161.304688 242.644531 161.523438 242.644531 161.804688 C 242.644531 162.304688 244.363281 162.648438 244.925781 162.960938 C 244.332031 163.335938 243.175781 163.492188 242.894531 163.679688 C 242.769531 163.804688 242.644531 163.929688 242.644531 164.117188 C 242.644531 164.367188 242.832031 164.617188 243.113281 164.617188 C 243.425781 164.617188 244.613281 163.429688 245.050781 163.179688 C 245.050781 163.992188 244.644531 164.804688 244.644531 165.304688 C 244.644531 165.585938 244.863281 165.804688 245.144531 165.804688 C 245.457031 165.804688 245.613281 165.585938 245.613281 165.304688 C 245.613281 164.710938 245.269531 163.960938 245.269531 163.179688 C 245.738281 163.429688 246.894531 164.648438 247.175781 164.648438 C 247.425781 164.648438 247.675781 164.429688 247.675781 164.148438 C 247.675781 163.960938 247.550781 163.835938 247.394531 163.742188 C 247.019531 163.492188 246.019531 163.335938 245.394531 162.960938 C 246.082031 162.554688 246.988281 162.523438 247.425781 162.273438 C 247.582031 162.179688 247.675781 162.054688 247.675781 161.867188 Z M 247.675781 161.867188 "/>
<path fill-rule="nonzero" fill="rgb(0%, 0%, 0%)" fill-opacity="1" d="M 257.214844 168.890625 L 257.214844 161.640625 L 255.589844 161.640625 L 253.308594 168.046875 L 253.277344 168.046875 L 251.058594 161.640625 L 249.371094 161.640625 L 249.371094 168.890625 L 249.839844 168.890625 L 249.839844 163.734375 L 249.871094 163.734375 L 251.652344 168.890625 L 253.527344 168.890625 L 255.371094 163.703125 L 255.371094 168.890625 Z M 256.714844 168.421875 L 255.871094 168.421875 L 255.871094 162.109375 L 256.714844 162.109375 Z M 252.902344 168.421875 L 251.996094 168.421875 L 250.027344 162.765625 L 249.808594 162.109375 L 250.683594 162.109375 Z M 252.902344 168.421875 "/>
<path fill-rule="nonzero" fill="rgb(0%, 0%, 0%)" fill-opacity="1" d="M 263.269531 172.089844 L 263.269531 171.652344 L 262.800781 171.652344 C 261.675781 171.652344 261.675781 171.527344 261.675781 171.152344 L 261.675781 165.121094 C 261.675781 164.808594 261.644531 164.808594 261.300781 164.808594 C 260.582031 165.496094 259.457031 165.496094 259.050781 165.496094 L 259.050781 165.933594 C 259.363281 165.933594 260.082031 165.933594 260.738281 165.621094 L 260.738281 171.152344 C 260.738281 171.527344 260.738281 171.652344 259.613281 171.652344 L 259.144531 171.652344 L 259.144531 172.089844 C 259.738281 172.058594 260.582031 172.058594 261.207031 172.058594 C 261.832031 172.058594 262.675781 172.058594 263.269531 172.089844 Z M 263.269531 172.089844 "/>
</svg>
