<?xml version="1.0" encoding="UTF-8"?>
<svg xmlns="http://www.w3.org/2000/svg" xmlns:xlink="http://www.w3.org/1999/xlink" width="367.73999" height="174.259995" viewBox="0 0 367.73999 174.259995">
<defs>
<clipPath id="clip-0">
<path clip-rule="nonzero" d="M 59 52 L 199 52 L 199 174.257812 L 59 174.257812 Z M 59 52 "/>
</clipPath>
</defs>
<path fill-rule="nonzero" fill="rgb(0%, 0%, 0%)" fill-opacity="1" d="M 181.898438 11.597656 C 182.085938 10.878906 182.117188 10.691406 183.617188 10.691406 C 184.054688 10.691406 184.242188 10.691406 184.242188 10.285156 C 184.242188 10.066406 184.054688 10.066406 183.710938 10.066406 L 181.085938 10.066406 C 180.554688 10.066406 180.523438 10.066406 180.304688 10.441406 L 173.023438 21.816406 L 171.460938 10.535156 C 171.398438 10.066406 171.367188 10.066406 170.835938 10.066406 L 168.117188 10.066406 C 167.742188 10.066406 167.523438 10.066406 167.523438 10.441406 C 167.523438 10.691406 167.710938 10.691406 168.085938 10.691406 C 168.367188 10.691406 168.710938 10.722656 168.960938 10.722656 C 169.273438 10.785156 169.398438 10.816406 169.398438 11.066406 C 169.398438 11.128906 169.367188 11.191406 169.304688 11.441406 L 166.773438 21.566406 C 166.585938 22.378906 166.242188 23.003906 164.617188 23.066406 C 164.523438 23.066406 164.273438 23.097656 164.273438 23.441406 C 164.273438 23.628906 164.398438 23.691406 164.554688 23.691406 C 165.179688 23.691406 165.867188 23.628906 166.554688 23.628906 C 167.210938 23.628906 167.929688 23.691406 168.585938 23.691406 C 168.679688 23.691406 168.960938 23.691406 168.960938 23.285156 C 168.960938 23.066406 168.742188 23.066406 168.585938 23.066406 C 167.460938 23.066406 167.242188 22.660156 167.242188 22.191406 C 167.242188 22.066406 167.242188 21.941406 167.304688 21.722656 L 170.023438 10.878906 L 170.054688 10.878906 L 171.773438 23.222656 C 171.804688 23.472656 171.835938 23.691406 172.054688 23.691406 C 172.273438 23.691406 172.398438 23.472656 172.492188 23.347656 L 180.554688 10.722656 L 180.585938 10.722656 L 177.710938 22.128906 C 177.523438 22.910156 177.492188 23.066406 175.898438 23.066406 C 175.585938 23.066406 175.367188 23.066406 175.367188 23.441406 C 175.367188 23.691406 175.585938 23.691406 175.648438 23.691406 C 176.210938 23.691406 177.554688 23.628906 178.117188 23.628906 C 178.929688 23.628906 179.804688 23.691406 180.617188 23.691406 C 180.742188 23.691406 180.992188 23.691406 180.992188 23.285156 C 180.992188 23.066406 180.804688 23.066406 180.429688 23.066406 C 179.710938 23.066406 179.148438 23.066406 179.148438 22.722656 C 179.148438 22.628906 179.148438 22.597656 179.242188 22.222656 Z M 181.898438 11.597656 "/>
<path fill-rule="nonzero" fill="rgb(0%, 0%, 0%)" fill-opacity="1" d="M 189.792969 24.148438 L 189.324219 24.148438 C 189.292969 24.460938 189.136719 25.273438 188.949219 25.398438 C 188.855469 25.492188 187.792969 25.492188 187.574219 25.492188 L 185.011719 25.492188 C 186.480469 24.210938 186.980469 23.804688 187.792969 23.148438 C 188.824219 22.335938 189.792969 21.460938 189.792969 20.148438 C 189.792969 18.460938 188.324219 17.429688 186.542969 17.429688 C 184.824219 17.429688 183.636719 18.648438 183.636719 19.929688 C 183.636719 20.617188 184.230469 20.710938 184.386719 20.710938 C 184.699219 20.710938 185.105469 20.460938 185.105469 19.960938 C 185.105469 19.710938 185.011719 19.210938 184.292969 19.210938 C 184.730469 18.242188 185.667969 17.929688 186.324219 17.929688 C 187.730469 17.929688 188.449219 19.023438 188.449219 20.148438 C 188.449219 21.367188 187.574219 22.304688 187.136719 22.804688 L 183.792969 26.148438 C 183.636719 26.273438 183.636719 26.304688 183.636719 26.679688 L 189.386719 26.679688 Z M 189.792969 24.148438 "/>
<path fill-rule="nonzero" fill="rgb(0%, 0%, 0%)" fill-opacity="1" d="M 203.878906 18.160156 L 199.910156 14.191406 C 199.660156 13.941406 199.628906 13.910156 199.472656 13.910156 C 199.253906 13.910156 199.066406 14.066406 199.066406 14.316406 C 199.066406 14.441406 199.097656 14.472656 199.316406 14.691406 L 203.316406 18.691406 L 199.316406 22.722656 C 199.097656 22.941406 199.066406 22.972656 199.066406 23.097656 C 199.066406 23.347656 199.253906 23.503906 199.472656 23.503906 C 199.628906 23.503906 199.660156 23.472656 199.910156 23.222656 L 203.878906 19.253906 L 208.003906 23.378906 C 208.035156 23.410156 208.160156 23.503906 208.285156 23.503906 C 208.535156 23.503906 208.691406 23.347656 208.691406 23.097656 C 208.691406 23.066406 208.691406 23.003906 208.628906 22.878906 C 208.597656 22.847656 205.441406 19.722656 204.441406 18.691406 L 208.097656 15.066406 C 208.191406 14.941406 208.503906 14.691406 208.597656 14.566406 C 208.597656 14.535156 208.691406 14.441406 208.691406 14.316406 C 208.691406 14.066406 208.535156 13.910156 208.285156 13.910156 C 208.128906 13.910156 208.066406 13.972656 207.847656 14.191406 Z M 203.878906 18.160156 "/>
<path fill-rule="nonzero" fill="rgb(0%, 0%, 0%)" fill-opacity="1" d="M 225.269531 16.941406 C 225.082031 15.691406 224.269531 14.566406 222.707031 14.566406 C 221.488281 14.566406 220.207031 14.910156 218.644531 16.441406 C 216.988281 18.097656 216.863281 19.972656 216.863281 20.566406 C 216.863281 21.816406 217.738281 24.128906 220.519531 24.128906 C 225.269531 24.128906 227.332031 17.441406 227.332031 14.566406 C 227.332031 11.410156 225.488281 9.410156 223.019531 9.410156 C 220.144531 9.410156 219.207031 12.003906 219.207031 12.566406 C 219.207031 12.847656 219.394531 13.253906 219.988281 13.253906 C 220.644531 13.253906 221.050781 12.660156 221.050781 12.222656 C 221.050781 11.503906 220.425781 11.503906 220.113281 11.503906 C 220.988281 10.035156 222.425781 9.910156 222.988281 9.910156 C 224.457031 9.910156 225.832031 10.941406 225.832031 13.535156 C 225.832031 14.316406 225.707031 15.316406 225.300781 16.941406 Z M 220.582031 23.566406 C 218.394531 23.566406 218.394531 21.503906 218.394531 21.316406 C 218.394531 20.785156 218.894531 18.003906 219.707031 16.785156 C 220.488281 15.660156 221.488281 15.003906 222.707031 15.003906 C 224.894531 15.003906 224.925781 17.253906 224.925781 17.660156 C 224.925781 19.097656 223.644531 23.566406 220.582031 23.566406 Z M 220.582031 23.566406 "/>
<path fill-rule="nonzero" fill="rgb(0%, 0%, 0%)" fill-opacity="1" d="M 236.550781 9.785156 C 236.425781 9.503906 236.363281 9.410156 236.019531 9.410156 C 235.707031 9.410156 235.644531 9.503906 235.519531 9.785156 L 228.769531 23.285156 C 228.675781 23.472656 228.675781 23.503906 228.675781 23.535156 C 228.675781 23.691406 228.800781 23.691406 229.113281 23.691406 L 242.957031 23.691406 C 243.269531 23.691406 243.394531 23.691406 243.394531 23.535156 C 243.394531 23.503906 243.394531 23.472656 243.300781 23.285156 Z M 235.394531 11.410156 L 240.769531 22.191406 L 230.019531 22.191406 Z M 235.394531 11.410156 "/>
<path fill-rule="nonzero" fill="rgb(0%, 0%, 0%)" fill-opacity="1" d="M 251.375 13.925781 L 250.90625 13.925781 C 250.875 14.238281 250.71875 15.050781 250.53125 15.175781 C 250.4375 15.269531 249.375 15.269531 249.15625 15.269531 L 246.59375 15.269531 C 248.0625 13.988281 248.5625 13.582031 249.375 12.925781 C 250.40625 12.113281 251.375 11.238281 251.375 9.925781 C 251.375 8.238281 249.90625 7.207031 248.125 7.207031 C 246.40625 7.207031 245.21875 8.425781 245.21875 9.707031 C 245.21875 10.394531 245.8125 10.488281 245.96875 10.488281 C 246.28125 10.488281 246.6875 10.238281 246.6875 9.738281 C 246.6875 9.488281 246.59375 8.988281 245.875 8.988281 C 246.3125 8.019531 247.25 7.707031 247.90625 7.707031 C 249.3125 7.707031 250.03125 8.800781 250.03125 9.925781 C 250.03125 11.144531 249.15625 12.082031 248.71875 12.582031 L 245.375 15.925781 C 245.21875 16.050781 245.21875 16.082031 245.21875 16.457031 L 250.96875 16.457031 Z M 251.375 13.925781 "/>
<path fill-rule="nonzero" fill="rgb(0%, 0%, 0%)" fill-opacity="1" d="M 336.746094 11.597656 C 336.933594 10.878906 336.964844 10.691406 338.464844 10.691406 C 338.902344 10.691406 339.089844 10.691406 339.089844 10.285156 C 339.089844 10.066406 338.902344 10.066406 338.558594 10.066406 L 335.933594 10.066406 C 335.402344 10.066406 335.371094 10.066406 335.152344 10.441406 L 327.871094 21.816406 L 326.308594 10.535156 C 326.246094 10.066406 326.214844 10.066406 325.683594 10.066406 L 322.964844 10.066406 C 322.589844 10.066406 322.371094 10.066406 322.371094 10.441406 C 322.371094 10.691406 322.558594 10.691406 322.933594 10.691406 C 323.214844 10.691406 323.558594 10.722656 323.808594 10.722656 C 324.121094 10.785156 324.246094 10.816406 324.246094 11.066406 C 324.246094 11.128906 324.214844 11.191406 324.152344 11.441406 L 321.621094 21.566406 C 321.433594 22.378906 321.089844 23.003906 319.464844 23.066406 C 319.371094 23.066406 319.121094 23.097656 319.121094 23.441406 C 319.121094 23.628906 319.246094 23.691406 319.402344 23.691406 C 320.027344 23.691406 320.714844 23.628906 321.402344 23.628906 C 322.058594 23.628906 322.777344 23.691406 323.433594 23.691406 C 323.527344 23.691406 323.808594 23.691406 323.808594 23.285156 C 323.808594 23.066406 323.589844 23.066406 323.433594 23.066406 C 322.308594 23.066406 322.089844 22.660156 322.089844 22.191406 C 322.089844 22.066406 322.089844 21.941406 322.152344 21.722656 L 324.871094 10.878906 L 324.902344 10.878906 L 326.621094 23.222656 C 326.652344 23.472656 326.683594 23.691406 326.902344 23.691406 C 327.121094 23.691406 327.246094 23.472656 327.339844 23.347656 L 335.402344 10.722656 L 335.433594 10.722656 L 332.558594 22.128906 C 332.371094 22.910156 332.339844 23.066406 330.746094 23.066406 C 330.433594 23.066406 330.214844 23.066406 330.214844 23.441406 C 330.214844 23.691406 330.433594 23.691406 330.496094 23.691406 C 331.058594 23.691406 332.402344 23.628906 332.964844 23.628906 C 333.777344 23.628906 334.652344 23.691406 335.464844 23.691406 C 335.589844 23.691406 335.839844 23.691406 335.839844 23.285156 C 335.839844 23.066406 335.652344 23.066406 335.277344 23.066406 C 334.558594 23.066406 333.996094 23.066406 333.996094 22.722656 C 333.996094 22.628906 333.996094 22.597656 334.089844 22.222656 Z M 336.746094 11.597656 "/>
<path fill-rule="nonzero" fill="rgb(0%, 0%, 0%)" fill-opacity="1" d="M 344.640625 24.148438 L 344.171875 24.148438 C 344.140625 24.460938 343.984375 25.273438 343.796875 25.398438 C 343.703125 25.492188 342.640625 25.492188 342.421875 25.492188 L 339.859375 25.492188 C 341.328125 24.210938 341.828125 23.804688 342.640625 23.148438 C 343.671875 22.335938 344.640625 21.460938 344.640625 20.148438 C 344.640625 18.460938 343.171875 17.429688 341.390625 17.429688 C 339.671875 17.429688 338.484375 18.648438 338.484375 19.929688 C 338.484375 20.617188 339.078125 20.710938 339.234375 20.710938 C 339.546875 20.710938 339.953125 20.460938 339.953125 19.960938 C 339.953125 19.710938 339.859375 19.210938 339.140625 19.210938 C 339.578125 18.242188 340.515625 17.929688 341.171875 17.929688 C 342.578125 17.929688 343.296875 19.023438 343.296875 20.148438 C 343.296875 21.367188 342.421875 22.304688 341.984375 22.804688 L 338.640625 26.148438 C 338.484375 26.273438 338.484375 26.304688 338.484375 26.679688 L 344.234375 26.679688 Z M 344.640625 24.148438 "/>
<path fill-rule="nonzero" fill="rgb(0%, 0%, 0%)" fill-opacity="1" d="M 48.914062 86.683594 L 45.101562 77.621094 C 44.945312 77.214844 44.945312 77.214844 44.382812 77.214844 L 40.695312 77.214844 C 40.320312 77.214844 40.039062 77.214844 40.039062 77.558594 C 40.039062 77.902344 40.382812 77.902344 40.476562 77.902344 C 40.726562 77.902344 41.257812 77.964844 41.695312 78.121094 L 41.695312 88.746094 C 41.695312 89.183594 41.695312 90.058594 40.351562 90.183594 C 39.976562 90.214844 39.976562 90.496094 39.976562 90.527344 C 39.976562 90.871094 40.289062 90.871094 40.664062 90.871094 L 43.726562 90.871094 C 44.101562 90.871094 44.382812 90.871094 44.382812 90.527344 C 44.382812 90.339844 44.226562 90.183594 44.070312 90.183594 C 42.539062 90.058594 42.539062 89.214844 42.539062 88.746094 L 42.539062 78.839844 L 42.570312 78.808594 L 47.414062 90.464844 C 47.601562 90.808594 47.726562 90.871094 47.851562 90.871094 C 48.101562 90.871094 48.132812 90.714844 48.257812 90.464844 L 53.132812 78.808594 L 53.164062 78.839844 L 53.164062 88.746094 C 53.164062 89.183594 53.164062 90.058594 51.789062 90.183594 C 51.414062 90.214844 51.414062 90.496094 51.414062 90.527344 C 51.414062 90.871094 51.726562 90.871094 52.101562 90.871094 L 57.414062 90.871094 C 57.789062 90.871094 58.070312 90.871094 58.070312 90.527344 C 58.070312 90.339844 57.914062 90.183594 57.757812 90.183594 C 56.226562 90.058594 56.226562 89.214844 56.226562 88.746094 L 56.226562 79.339844 C 56.226562 78.902344 56.226562 78.027344 57.570312 77.902344 C 57.789062 77.902344 57.945312 77.777344 57.945312 77.558594 C 57.945312 77.214844 57.664062 77.214844 57.289062 77.214844 L 53.445312 77.214844 C 52.945312 77.214844 52.882812 77.214844 52.726562 77.621094 Z M 48.320312 87.058594 C 48.476562 87.371094 48.507812 87.402344 48.757812 87.496094 L 47.851562 89.589844 L 47.820312 89.589844 L 43.289062 78.746094 C 43.195312 78.496094 43.007812 78.152344 42.757812 77.902344 L 44.476562 77.902344 Z M 42.289062 90.183594 L 41.976562 90.183594 C 42.007812 90.121094 42.039062 90.058594 42.070312 90.027344 C 42.101562 89.996094 42.101562 89.964844 42.132812 89.964844 Z M 53.851562 77.902344 L 55.976562 77.902344 C 55.507812 78.402344 55.507812 78.933594 55.507812 79.277344 L 55.507812 88.808594 C 55.507812 89.152344 55.507812 89.683594 55.976562 90.183594 L 53.414062 90.183594 C 53.851562 89.683594 53.851562 89.152344 53.851562 88.808594 Z M 53.851562 77.902344 "/>
<path fill-rule="nonzero" fill="rgb(0%, 0%, 0%)" fill-opacity="1" d="M 65.636719 89.421875 C 65.636719 87.890625 65.449219 86.765625 64.824219 85.796875 C 64.386719 85.171875 63.511719 84.609375 62.417969 84.609375 C 59.167969 84.609375 59.167969 88.421875 59.167969 89.421875 C 59.167969 90.421875 59.167969 94.140625 62.417969 94.140625 C 65.636719 94.140625 65.636719 90.421875 65.636719 89.421875 Z M 62.417969 93.734375 C 61.761719 93.734375 60.917969 93.359375 60.636719 92.234375 C 60.449219 91.421875 60.449219 90.265625 60.449219 89.234375 C 60.449219 88.203125 60.449219 87.140625 60.636719 86.390625 C 60.949219 85.296875 61.824219 84.984375 62.417969 84.984375 C 63.167969 84.984375 63.886719 85.453125 64.136719 86.265625 C 64.355469 87.015625 64.386719 88.015625 64.386719 89.234375 C 64.386719 90.265625 64.386719 91.296875 64.199219 92.171875 C 63.917969 93.453125 62.980469 93.734375 62.417969 93.734375 Z M 62.417969 93.734375 "/>
<path fill-rule="nonzero" fill="rgb(0%, 0%, 0%)" fill-opacity="1" d="M 203.757812 86.683594 L 199.945312 77.621094 C 199.789062 77.214844 199.789062 77.214844 199.226562 77.214844 L 195.539062 77.214844 C 195.164062 77.214844 194.882812 77.214844 194.882812 77.558594 C 194.882812 77.902344 195.226562 77.902344 195.320312 77.902344 C 195.570312 77.902344 196.101562 77.964844 196.539062 78.121094 L 196.539062 88.746094 C 196.539062 89.183594 196.539062 90.058594 195.195312 90.183594 C 194.820312 90.214844 194.820312 90.496094 194.820312 90.527344 C 194.820312 90.871094 195.132812 90.871094 195.507812 90.871094 L 198.570312 90.871094 C 198.945312 90.871094 199.226562 90.871094 199.226562 90.527344 C 199.226562 90.339844 199.070312 90.183594 198.914062 90.183594 C 197.382812 90.058594 197.382812 89.214844 197.382812 88.746094 L 197.382812 78.839844 L 197.414062 78.808594 L 202.257812 90.464844 C 202.445312 90.808594 202.570312 90.871094 202.695312 90.871094 C 202.945312 90.871094 202.976562 90.714844 203.101562 90.464844 L 207.976562 78.808594 L 208.007812 78.839844 L 208.007812 88.746094 C 208.007812 89.183594 208.007812 90.058594 206.632812 90.183594 C 206.257812 90.214844 206.257812 90.496094 206.257812 90.527344 C 206.257812 90.871094 206.570312 90.871094 206.945312 90.871094 L 212.257812 90.871094 C 212.632812 90.871094 212.914062 90.871094 212.914062 90.527344 C 212.914062 90.339844 212.757812 90.183594 212.601562 90.183594 C 211.070312 90.058594 211.070312 89.214844 211.070312 88.746094 L 211.070312 79.339844 C 211.070312 78.902344 211.070312 78.027344 212.414062 77.902344 C 212.632812 77.902344 212.789062 77.777344 212.789062 77.558594 C 212.789062 77.214844 212.507812 77.214844 212.132812 77.214844 L 208.289062 77.214844 C 207.789062 77.214844 207.726562 77.214844 207.570312 77.621094 Z M 203.164062 87.058594 C 203.320312 87.371094 203.351562 87.402344 203.601562 87.496094 L 202.695312 89.589844 L 202.664062 89.589844 L 198.132812 78.746094 C 198.039062 78.496094 197.851562 78.152344 197.601562 77.902344 L 199.320312 77.902344 Z M 197.132812 90.183594 L 196.820312 90.183594 C 196.851562 90.121094 196.882812 90.058594 196.914062 90.027344 C 196.945312 89.996094 196.945312 89.964844 196.976562 89.964844 Z M 208.695312 77.902344 L 210.820312 77.902344 C 210.351562 78.402344 210.351562 78.933594 210.351562 79.277344 L 210.351562 88.808594 C 210.351562 89.152344 210.351562 89.683594 210.820312 90.183594 L 208.257812 90.183594 C 208.695312 89.683594 208.695312 89.152344 208.695312 88.808594 Z M 208.695312 77.902344 "/>
<path fill-rule="nonzero" fill="rgb(0%, 0%, 0%)" fill-opacity="1" d="M 217.953125 84.984375 C 217.953125 84.609375 217.953125 84.609375 217.546875 84.609375 C 216.640625 85.484375 215.390625 85.484375 214.828125 85.484375 L 214.828125 85.984375 C 215.140625 85.984375 216.078125 85.984375 216.828125 85.609375 L 216.828125 92.703125 C 216.828125 93.171875 216.828125 93.359375 215.453125 93.359375 L 214.921875 93.359375 L 214.921875 93.859375 C 215.171875 93.859375 216.890625 93.796875 217.390625 93.796875 C 217.828125 93.796875 219.578125 93.859375 219.890625 93.859375 L 219.890625 93.359375 L 219.359375 93.359375 C 217.953125 93.359375 217.953125 93.171875 217.953125 92.703125 Z M 217.953125 84.984375 "/>
<path fill-rule="nonzero" fill="rgb(0%, 0%, 0%)" fill-opacity="1" d="M 327.816406 86.683594 L 324.003906 77.621094 C 323.847656 77.214844 323.847656 77.214844 323.285156 77.214844 L 319.597656 77.214844 C 319.222656 77.214844 318.941406 77.214844 318.941406 77.558594 C 318.941406 77.902344 319.285156 77.902344 319.378906 77.902344 C 319.628906 77.902344 320.160156 77.964844 320.597656 78.121094 L 320.597656 88.746094 C 320.597656 89.183594 320.597656 90.058594 319.253906 90.183594 C 318.878906 90.214844 318.878906 90.496094 318.878906 90.527344 C 318.878906 90.871094 319.191406 90.871094 319.566406 90.871094 L 322.628906 90.871094 C 323.003906 90.871094 323.285156 90.871094 323.285156 90.527344 C 323.285156 90.339844 323.128906 90.183594 322.972656 90.183594 C 321.441406 90.058594 321.441406 89.214844 321.441406 88.746094 L 321.441406 78.839844 L 321.472656 78.808594 L 326.316406 90.464844 C 326.503906 90.808594 326.628906 90.871094 326.753906 90.871094 C 327.003906 90.871094 327.035156 90.714844 327.160156 90.464844 L 332.035156 78.808594 L 332.066406 78.839844 L 332.066406 88.746094 C 332.066406 89.183594 332.066406 90.058594 330.691406 90.183594 C 330.316406 90.214844 330.316406 90.496094 330.316406 90.527344 C 330.316406 90.871094 330.628906 90.871094 331.003906 90.871094 L 336.316406 90.871094 C 336.691406 90.871094 336.972656 90.871094 336.972656 90.527344 C 336.972656 90.339844 336.816406 90.183594 336.660156 90.183594 C 335.128906 90.058594 335.128906 89.214844 335.128906 88.746094 L 335.128906 79.339844 C 335.128906 78.902344 335.128906 78.027344 336.472656 77.902344 C 336.691406 77.902344 336.847656 77.777344 336.847656 77.558594 C 336.847656 77.214844 336.566406 77.214844 336.191406 77.214844 L 332.347656 77.214844 C 331.847656 77.214844 331.785156 77.214844 331.628906 77.621094 Z M 327.222656 87.058594 C 327.378906 87.371094 327.410156 87.402344 327.660156 87.496094 L 326.753906 89.589844 L 326.722656 89.589844 L 322.191406 78.746094 C 322.097656 78.496094 321.910156 78.152344 321.660156 77.902344 L 323.378906 77.902344 Z M 321.191406 90.183594 L 320.878906 90.183594 C 320.910156 90.121094 320.941406 90.058594 320.972656 90.027344 C 321.003906 89.996094 321.003906 89.964844 321.035156 89.964844 Z M 332.753906 77.902344 L 334.878906 77.902344 C 334.410156 78.402344 334.410156 78.933594 334.410156 79.277344 L 334.410156 88.808594 C 334.410156 89.152344 334.410156 89.683594 334.878906 90.183594 L 332.316406 90.183594 C 332.753906 89.683594 332.753906 89.152344 332.753906 88.808594 Z M 332.753906 77.902344 "/>
<path fill-rule="nonzero" fill="rgb(0%, 0%, 0%)" fill-opacity="1" d="M 344.382812 91.328125 L 343.914062 91.328125 C 343.882812 91.640625 343.726562 92.453125 343.539062 92.578125 C 343.445312 92.671875 342.382812 92.671875 342.164062 92.671875 L 339.601562 92.671875 C 341.070312 91.390625 341.570312 90.984375 342.382812 90.328125 C 343.414062 89.515625 344.382812 88.640625 344.382812 87.328125 C 344.382812 85.640625 342.914062 84.609375 341.132812 84.609375 C 339.414062 84.609375 338.226562 85.828125 338.226562 87.109375 C 338.226562 87.796875 338.820312 87.890625 338.976562 87.890625 C 339.289062 87.890625 339.695312 87.640625 339.695312 87.140625 C 339.695312 86.890625 339.601562 86.390625 338.882812 86.390625 C 339.320312 85.421875 340.257812 85.109375 340.914062 85.109375 C 342.320312 85.109375 343.039062 86.203125 343.039062 87.328125 C 343.039062 88.546875 342.164062 89.484375 341.726562 89.984375 L 338.382812 93.328125 C 338.226562 93.453125 338.226562 93.484375 338.226562 93.859375 L 343.976562 93.859375 Z M 344.382812 91.328125 "/>
<path fill-rule="nonzero" fill="rgb(0%, 0%, 0%)" fill-opacity="1" d="M 27.054688 148.449219 C 27.242188 147.730469 27.273438 147.542969 28.773438 147.542969 C 29.210938 147.542969 29.398438 147.542969 29.398438 147.136719 C 29.398438 146.917969 29.210938 146.917969 28.867188 146.917969 L 26.242188 146.917969 C 25.710938 146.917969 25.679688 146.917969 25.460938 147.292969 L 18.179688 158.667969 L 16.617188 147.386719 C 16.554688 146.917969 16.523438 146.917969 15.992188 146.917969 L 13.273438 146.917969 C 12.898438 146.917969 12.679688 146.917969 12.679688 147.292969 C 12.679688 147.542969 12.867188 147.542969 13.242188 147.542969 C 13.523438 147.542969 13.867188 147.574219 14.117188 147.574219 C 14.429688 147.636719 14.554688 147.667969 14.554688 147.917969 C 14.554688 147.980469 14.523438 148.042969 14.460938 148.292969 L 11.929688 158.417969 C 11.742188 159.230469 11.398438 159.855469 9.773438 159.917969 C 9.679688 159.917969 9.429688 159.949219 9.429688 160.292969 C 9.429688 160.480469 9.554688 160.542969 9.710938 160.542969 C 10.335938 160.542969 11.023438 160.480469 11.710938 160.480469 C 12.367188 160.480469 13.085938 160.542969 13.742188 160.542969 C 13.835938 160.542969 14.117188 160.542969 14.117188 160.136719 C 14.117188 159.917969 13.898438 159.917969 13.742188 159.917969 C 12.617188 159.917969 12.398438 159.511719 12.398438 159.042969 C 12.398438 158.917969 12.398438 158.792969 12.460938 158.574219 L 15.179688 147.730469 L 15.210938 147.730469 L 16.929688 160.074219 C 16.960938 160.324219 16.992188 160.542969 17.210938 160.542969 C 17.429688 160.542969 17.554688 160.324219 17.648438 160.199219 L 25.710938 147.574219 L 25.742188 147.574219 L 22.867188 158.980469 C 22.679688 159.761719 22.648438 159.917969 21.054688 159.917969 C 20.742188 159.917969 20.523438 159.917969 20.523438 160.292969 C 20.523438 160.542969 20.742188 160.542969 20.804688 160.542969 C 21.367188 160.542969 22.710938 160.480469 23.273438 160.480469 C 24.085938 160.480469 24.960938 160.542969 25.773438 160.542969 C 25.898438 160.542969 26.148438 160.542969 26.148438 160.136719 C 26.148438 159.917969 25.960938 159.917969 25.585938 159.917969 C 24.867188 159.917969 24.304688 159.917969 24.304688 159.574219 C 24.304688 159.480469 24.304688 159.449219 24.398438 159.074219 Z M 27.054688 148.449219 "/>
<path fill-rule="nonzero" fill="rgb(0%, 0%, 0%)" fill-opacity="1" d="M 32.570312 154.65625 C 32.570312 154.28125 32.570312 154.28125 32.164062 154.28125 C 31.257812 155.15625 30.007812 155.15625 29.445312 155.15625 L 29.445312 155.65625 C 29.757812 155.65625 30.695312 155.65625 31.445312 155.28125 L 31.445312 162.375 C 31.445312 162.84375 31.445312 163.03125 30.070312 163.03125 L 29.539062 163.03125 L 29.539062 163.53125 C 29.789062 163.53125 31.507812 163.46875 32.007812 163.46875 C 32.445312 163.46875 34.195312 163.53125 34.507812 163.53125 L 34.507812 163.03125 L 33.976562 163.03125 C 32.570312 163.03125 32.570312 162.84375 32.570312 162.375 Z M 32.570312 154.65625 "/>
<path fill-rule="nonzero" fill="rgb(0%, 0%, 0%)" fill-opacity="1" d="M 49.03125 155.011719 L 45.0625 151.042969 C 44.8125 150.792969 44.78125 150.761719 44.625 150.761719 C 44.40625 150.761719 44.21875 150.917969 44.21875 151.167969 C 44.21875 151.292969 44.25 151.324219 44.46875 151.542969 L 48.46875 155.542969 L 44.46875 159.574219 C 44.25 159.792969 44.21875 159.824219 44.21875 159.949219 C 44.21875 160.199219 44.40625 160.355469 44.625 160.355469 C 44.78125 160.355469 44.8125 160.324219 45.0625 160.074219 L 49.03125 156.105469 L 53.15625 160.230469 C 53.1875 160.261719 53.3125 160.355469 53.4375 160.355469 C 53.6875 160.355469 53.84375 160.199219 53.84375 159.949219 C 53.84375 159.917969 53.84375 159.855469 53.78125 159.730469 C 53.75 159.699219 50.59375 156.574219 49.59375 155.542969 L 53.25 151.917969 C 53.34375 151.792969 53.65625 151.542969 53.75 151.417969 C 53.75 151.386719 53.84375 151.292969 53.84375 151.167969 C 53.84375 150.917969 53.6875 150.761719 53.4375 150.761719 C 53.28125 150.761719 53.21875 150.824219 53 151.042969 Z M 49.03125 155.011719 "/>
<path fill-rule="nonzero" fill="rgb(0%, 0%, 0%)" fill-opacity="1" d="M 70.425781 153.792969 C 70.238281 152.542969 69.425781 151.417969 67.863281 151.417969 C 66.644531 151.417969 65.363281 151.761719 63.800781 153.292969 C 62.144531 154.949219 62.019531 156.824219 62.019531 157.417969 C 62.019531 158.667969 62.894531 160.980469 65.675781 160.980469 C 70.425781 160.980469 72.488281 154.292969 72.488281 151.417969 C 72.488281 148.261719 70.644531 146.261719 68.175781 146.261719 C 65.300781 146.261719 64.363281 148.855469 64.363281 149.417969 C 64.363281 149.699219 64.550781 150.105469 65.144531 150.105469 C 65.800781 150.105469 66.207031 149.511719 66.207031 149.074219 C 66.207031 148.355469 65.582031 148.355469 65.269531 148.355469 C 66.144531 146.886719 67.582031 146.761719 68.144531 146.761719 C 69.613281 146.761719 70.988281 147.792969 70.988281 150.386719 C 70.988281 151.167969 70.863281 152.167969 70.457031 153.792969 Z M 65.738281 160.417969 C 63.550781 160.417969 63.550781 158.355469 63.550781 158.167969 C 63.550781 157.636719 64.050781 154.855469 64.863281 153.636719 C 65.644531 152.511719 66.644531 151.855469 67.863281 151.855469 C 70.050781 151.855469 70.082031 154.105469 70.082031 154.511719 C 70.082031 155.949219 68.800781 160.417969 65.738281 160.417969 Z M 65.738281 160.417969 "/>
<path fill-rule="nonzero" fill="rgb(0%, 0%, 0%)" fill-opacity="1" d="M 81.703125 146.636719 C 81.578125 146.355469 81.515625 146.261719 81.171875 146.261719 C 80.859375 146.261719 80.796875 146.355469 80.671875 146.636719 L 73.921875 160.136719 C 73.828125 160.324219 73.828125 160.355469 73.828125 160.386719 C 73.828125 160.542969 73.953125 160.542969 74.265625 160.542969 L 88.109375 160.542969 C 88.421875 160.542969 88.546875 160.542969 88.546875 160.386719 C 88.546875 160.355469 88.546875 160.324219 88.453125 160.136719 Z M 80.546875 148.261719 L 85.921875 159.042969 L 75.171875 159.042969 Z M 80.546875 148.261719 "/>
<path fill-rule="nonzero" fill="rgb(0%, 0%, 0%)" fill-opacity="1" d="M 94.152344 144.4375 C 94.152344 144.0625 94.152344 144.0625 93.746094 144.0625 C 92.839844 144.9375 91.589844 144.9375 91.027344 144.9375 L 91.027344 145.4375 C 91.339844 145.4375 92.277344 145.4375 93.027344 145.0625 L 93.027344 152.15625 C 93.027344 152.625 93.027344 152.8125 91.652344 152.8125 L 91.121094 152.8125 L 91.121094 153.3125 C 91.371094 153.3125 93.089844 153.25 93.589844 153.25 C 94.027344 153.25 95.777344 153.3125 96.089844 153.3125 L 96.089844 152.8125 L 95.558594 152.8125 C 94.152344 152.8125 94.152344 152.625 94.152344 152.15625 Z M 94.152344 144.4375 "/>
<path fill-rule="nonzero" fill="rgb(0%, 0%, 0%)" fill-opacity="1" d="M 212.691406 148.449219 C 212.878906 147.730469 212.910156 147.542969 214.410156 147.542969 C 214.847656 147.542969 215.035156 147.542969 215.035156 147.136719 C 215.035156 146.917969 214.847656 146.917969 214.503906 146.917969 L 211.878906 146.917969 C 211.347656 146.917969 211.316406 146.917969 211.097656 147.292969 L 203.816406 158.667969 L 202.253906 147.386719 C 202.191406 146.917969 202.160156 146.917969 201.628906 146.917969 L 198.910156 146.917969 C 198.535156 146.917969 198.316406 146.917969 198.316406 147.292969 C 198.316406 147.542969 198.503906 147.542969 198.878906 147.542969 C 199.160156 147.542969 199.503906 147.574219 199.753906 147.574219 C 200.066406 147.636719 200.191406 147.667969 200.191406 147.917969 C 200.191406 147.980469 200.160156 148.042969 200.097656 148.292969 L 197.566406 158.417969 C 197.378906 159.230469 197.035156 159.855469 195.410156 159.917969 C 195.316406 159.917969 195.066406 159.949219 195.066406 160.292969 C 195.066406 160.480469 195.191406 160.542969 195.347656 160.542969 C 195.972656 160.542969 196.660156 160.480469 197.347656 160.480469 C 198.003906 160.480469 198.722656 160.542969 199.378906 160.542969 C 199.472656 160.542969 199.753906 160.542969 199.753906 160.136719 C 199.753906 159.917969 199.535156 159.917969 199.378906 159.917969 C 198.253906 159.917969 198.035156 159.511719 198.035156 159.042969 C 198.035156 158.917969 198.035156 158.792969 198.097656 158.574219 L 200.816406 147.730469 L 200.847656 147.730469 L 202.566406 160.074219 C 202.597656 160.324219 202.628906 160.542969 202.847656 160.542969 C 203.066406 160.542969 203.191406 160.324219 203.285156 160.199219 L 211.347656 147.574219 L 211.378906 147.574219 L 208.503906 158.980469 C 208.316406 159.761719 208.285156 159.917969 206.691406 159.917969 C 206.378906 159.917969 206.160156 159.917969 206.160156 160.292969 C 206.160156 160.542969 206.378906 160.542969 206.441406 160.542969 C 207.003906 160.542969 208.347656 160.480469 208.910156 160.480469 C 209.722656 160.480469 210.597656 160.542969 211.410156 160.542969 C 211.535156 160.542969 211.785156 160.542969 211.785156 160.136719 C 211.785156 159.917969 211.597656 159.917969 211.222656 159.917969 C 210.503906 159.917969 209.941406 159.917969 209.941406 159.574219 C 209.941406 159.480469 209.941406 159.449219 210.035156 159.074219 Z M 212.691406 148.449219 "/>
<path fill-rule="nonzero" fill="rgb(0%, 0%, 0%)" fill-opacity="1" d="M 218.207031 154.65625 C 218.207031 154.28125 218.207031 154.28125 217.800781 154.28125 C 216.894531 155.15625 215.644531 155.15625 215.082031 155.15625 L 215.082031 155.65625 C 215.394531 155.65625 216.332031 155.65625 217.082031 155.28125 L 217.082031 162.375 C 217.082031 162.84375 217.082031 163.03125 215.707031 163.03125 L 215.175781 163.03125 L 215.175781 163.53125 C 215.425781 163.53125 217.144531 163.46875 217.644531 163.46875 C 218.082031 163.46875 219.832031 163.53125 220.144531 163.53125 L 220.144531 163.03125 L 219.613281 163.03125 C 218.207031 163.03125 218.207031 162.84375 218.207031 162.375 Z M 218.207031 154.65625 "/>
<path fill="none" stroke-width="0.39848" stroke-linecap="butt" stroke-linejoin="miter" stroke="rgb(0%, 0%, 0%)" stroke-opacity="1" stroke-miterlimit="10" d="M 42.352722 33.398438 L 65.466003 33.398438 " transform="matrix(2, 0, 0, -2, 177.567993, 85.5)"/>
<path fill="none" stroke-width="0.39848" stroke-linecap="round" stroke-linejoin="round" stroke="rgb(0%, 0%, 0%)" stroke-opacity="1" stroke-miterlimit="10" d="M -2.073502 2.392412 C -1.694595 0.954912 -0.850845 0.279131 0.000717163 0.00178719 C -0.850845 -0.279463 -1.694595 -0.955244 -2.073502 -2.392744 " transform="matrix(2, 0, 0, -2, 308.897003, 18.706699)"/>
<path fill-rule="nonzero" fill="rgb(0%, 0%, 0%)" fill-opacity="1" d="M 278.257812 12.492188 C 277.351562 12.492188 277.226562 12.492188 277.226562 11.898438 L 277.226562 9.648438 C 277.289062 9.710938 277.945312 10.429688 279.101562 10.429688 C 280.945312 10.429688 282.507812 9.054688 282.507812 7.304688 C 282.507812 5.585938 281.101562 4.148438 279.320312 4.148438 C 278.539062 4.148438 277.726562 4.460938 277.164062 5.023438 L 277.164062 4.148438 L 275.070312 4.304688 L 275.070312 4.804688 C 276.039062 4.804688 276.101562 4.898438 276.101562 5.460938 L 276.101562 11.898438 C 276.101562 12.492188 275.976562 12.492188 275.070312 12.492188 L 275.070312 13.023438 C 275.101562 13.023438 276.070312 12.960938 276.664062 12.960938 C 277.164062 12.960938 278.132812 12.992188 278.257812 13.023438 Z M 277.226562 5.648438 C 277.632812 4.960938 278.445312 4.617188 279.164062 4.617188 C 280.351562 4.617188 281.257812 5.835938 281.257812 7.304688 C 281.257812 8.898438 280.195312 10.054688 279.039062 10.054688 C 277.789062 10.054688 277.257812 8.992188 277.226562 8.898438 Z M 277.226562 5.648438 "/>
<path fill-rule="nonzero" fill="rgb(0%, 0%, 0%)" fill-opacity="1" d="M 285.949219 7.117188 C 285.949219 5.960938 286.480469 4.554688 287.824219 4.554688 C 287.699219 4.648438 287.574219 4.835938 287.574219 5.054688 C 287.574219 5.523438 287.949219 5.679688 288.199219 5.679688 C 288.542969 5.679688 288.855469 5.460938 288.855469 5.054688 C 288.855469 4.585938 288.386719 4.148438 287.730469 4.148438 C 287.042969 4.148438 286.261719 4.585938 285.855469 5.648438 L 285.855469 4.148438 L 283.855469 4.304688 L 283.855469 4.804688 C 284.792969 4.804688 284.886719 4.898438 284.886719 5.585938 L 284.886719 9.210938 C 284.886719 9.804688 284.761719 9.804688 283.855469 9.804688 L 283.855469 10.304688 C 283.917969 10.304688 284.855469 10.242188 285.449219 10.242188 C 286.042969 10.242188 286.636719 10.273438 287.261719 10.304688 L 287.261719 9.804688 L 286.980469 9.804688 C 285.949219 9.804688 285.949219 9.648438 285.949219 9.179688 Z M 285.949219 7.117188 "/>
<path fill-rule="nonzero" fill="rgb(0%, 0%, 0%)" fill-opacity="1" d="M 293.378906 7.671875 C 293.378906 7.390625 293.347656 7.390625 293.003906 7.390625 C 292.316406 8.015625 291.191406 8.015625 291.003906 8.015625 L 290.847656 8.015625 L 290.847656 8.453125 L 291.003906 8.453125 C 291.222656 8.453125 291.878906 8.421875 292.472656 8.171875 L 292.472656 13.171875 C 292.472656 13.453125 292.472656 13.578125 291.410156 13.578125 L 290.910156 13.578125 L 290.910156 14.015625 C 291.441406 13.984375 292.347656 13.984375 292.910156 13.984375 C 293.503906 13.984375 294.378906 13.984375 294.941406 14.015625 L 294.941406 13.578125 L 294.441406 13.578125 C 293.378906 13.578125 293.378906 13.453125 293.378906 13.171875 Z M 293.378906 7.671875 "/>
<path fill="none" stroke-width="0.39848" stroke-linecap="butt" stroke-linejoin="miter" stroke="rgb(0%, 0%, 0%)" stroke-opacity="1" stroke-miterlimit="10" d="M 15.395691 25.5625 L 15.395691 8.425781 " transform="matrix(2, 0, 0, -2, 177.567993, 85.5)"/>
<path fill="none" stroke-width="0.39848" stroke-linecap="round" stroke-linejoin="round" stroke="rgb(0%, 0%, 0%)" stroke-opacity="1" stroke-miterlimit="10" d="M -2.073612 2.390762 C -1.694706 0.957169 -0.850956 0.277481 0.000606537 0.000137329 C -0.850956 -0.277206 -1.694706 -0.956894 -2.073612 -2.390488 " transform="matrix(0, 2, 2, 0, 208.3591, 69.045662)"/>
<path fill-rule="nonzero" fill="rgb(0%, 0%, 0%)" fill-opacity="1" d="M 190.941406 46.21875 C 190.847656 45.96875 190.816406 45.90625 190.660156 45.90625 C 190.503906 45.90625 190.441406 46.03125 190.347656 46.1875 L 187.191406 54.53125 C 187.003906 54.96875 186.722656 55.1875 186.347656 55.21875 C 186.285156 55.21875 186.066406 55.25 186.066406 55.46875 C 186.066406 55.71875 186.285156 55.71875 186.535156 55.71875 L 188.753906 55.71875 C 189.003906 55.71875 189.222656 55.71875 189.222656 55.46875 C 189.222656 55.25 189.035156 55.25 188.910156 55.21875 C 188.722656 55.21875 188.378906 55.15625 188.378906 54.3125 C 188.378906 53.875 188.472656 53.40625 188.566406 52.96875 L 191.628906 52.96875 C 192.128906 54.34375 192.128906 54.5625 192.160156 54.84375 C 191.816406 55.1875 191.441406 55.21875 191.285156 55.21875 C 191.128906 55.25 191.035156 55.34375 191.035156 55.46875 C 191.035156 55.71875 191.253906 55.71875 191.503906 55.71875 L 195.128906 55.71875 C 195.378906 55.71875 195.628906 55.71875 195.628906 55.46875 C 195.628906 55.28125 195.441406 55.25 195.316406 55.21875 C 195.003906 55.1875 194.753906 54.9375 194.472656 54.3125 Z M 188.722656 52.5 C 189.035156 51.25 189.472656 50.0625 189.941406 48.90625 C 190.378906 49.84375 191.222656 51.84375 191.441406 52.5 Z M 187.878906 54.03125 L 187.910156 54.0625 L 187.910156 54.1875 C 187.878906 54.21875 187.878906 54.25 187.878906 54.3125 C 187.878906 54.375 187.878906 54.90625 188.097656 55.21875 L 187.347656 55.21875 C 187.503906 55.03125 187.566406 54.875 187.660156 54.65625 Z M 190.160156 48.15625 L 190.660156 46.8125 L 194.035156 54.5 C 194.097656 54.65625 194.253906 54.96875 194.441406 55.21875 L 192.472656 55.21875 C 192.597656 55.15625 192.660156 54.9375 192.660156 54.78125 C 192.660156 53.9375 191.441406 51.09375 190.847656 49.71875 Z M 190.160156 48.15625 "/>
<path fill-rule="nonzero" fill="rgb(0%, 0%, 0%)" fill-opacity="1" d="M 199.859375 51.367188 C 199.859375 51.085938 199.828125 51.085938 199.484375 51.085938 C 198.796875 51.710938 197.671875 51.710938 197.484375 51.710938 L 197.328125 51.710938 L 197.328125 52.148438 L 197.484375 52.148438 C 197.703125 52.148438 198.359375 52.117188 198.953125 51.867188 L 198.953125 56.867188 C 198.953125 57.148438 198.953125 57.273438 197.890625 57.273438 L 197.390625 57.273438 L 197.390625 57.710938 C 197.921875 57.679688 198.828125 57.679688 199.390625 57.679688 C 199.984375 57.679688 200.859375 57.679688 201.421875 57.710938 L 201.421875 57.273438 L 200.921875 57.273438 C 199.859375 57.273438 199.859375 57.148438 199.859375 56.867188 Z M 199.859375 51.367188 "/>
<path fill="none" stroke-width="0.39848" stroke-linecap="butt" stroke-linejoin="miter" stroke="rgb(0%, 0%, 0%)" stroke-opacity="1" stroke-miterlimit="10" d="M 77.423035 25.5625 L 77.423035 8.425781 " transform="matrix(2, 0, 0, -2, 177.567993, 85.5)"/>
<path fill="none" stroke-width="0.39848" stroke-linecap="round" stroke-linejoin="round" stroke="rgb(0%, 0%, 0%)" stroke-opacity="1" stroke-miterlimit="10" d="M -2.073612 2.389359 C -1.694706 0.955765 -0.850956 0.279984 0.000606537 -0.00126648 C -0.850956 -0.27861 -1.694706 -0.954391 -2.073612 -2.391891 " transform="matrix(0, 2, 2, 0, 332.416595, 69.045662)"/>
<path fill-rule="nonzero" fill="rgb(0%, 0%, 0%)" fill-opacity="1" d="M 341.609375 49.160156 C 342.765625 48.660156 343.265625 48.472656 343.609375 48.285156 C 343.890625 48.191406 344.015625 48.128906 344.015625 47.847656 C 344.015625 47.628906 343.828125 47.410156 343.578125 47.410156 C 343.484375 47.410156 343.453125 47.410156 343.296875 47.535156 L 341.390625 48.816406 L 341.609375 46.753906 C 341.640625 46.503906 341.609375 46.160156 341.171875 46.160156 C 341.015625 46.160156 340.734375 46.253906 340.734375 46.566406 C 340.734375 46.691406 340.796875 47.097656 340.828125 47.253906 C 340.859375 47.472656 340.953125 48.503906 340.984375 48.816406 L 339.078125 47.535156 C 338.953125 47.472656 338.921875 47.410156 338.796875 47.410156 C 338.515625 47.410156 338.359375 47.628906 338.359375 47.847656 C 338.359375 48.128906 338.515625 48.222656 338.640625 48.253906 L 340.734375 49.160156 C 339.609375 49.660156 339.078125 49.847656 338.734375 50.003906 C 338.484375 50.128906 338.359375 50.191406 338.359375 50.441406 C 338.359375 50.691406 338.515625 50.878906 338.796875 50.878906 C 338.890625 50.878906 338.921875 50.878906 339.078125 50.753906 L 340.984375 49.503906 L 340.734375 51.722656 C 340.734375 52.035156 341.015625 52.160156 341.171875 52.160156 C 341.359375 52.160156 341.609375 52.035156 341.609375 51.722656 C 341.609375 51.597656 341.546875 51.191406 341.546875 51.066406 C 341.515625 50.816406 341.421875 49.816406 341.390625 49.503906 L 343.046875 50.597656 C 343.421875 50.878906 343.453125 50.878906 343.578125 50.878906 C 343.828125 50.878906 344.015625 50.691406 344.015625 50.441406 C 344.015625 50.160156 343.828125 50.097656 343.703125 50.035156 Z M 341.609375 49.160156 "/>
<path fill-rule="nonzero" fill="rgb(0%, 0%, 0%)" fill-opacity="1" d="M 349.929688 52.597656 L 348.023438 48.066406 C 347.929688 47.847656 347.929688 47.847656 347.648438 47.847656 L 345.804688 47.847656 C 345.617188 47.847656 345.460938 47.847656 345.460938 48.035156 C 345.460938 48.222656 345.648438 48.222656 345.710938 48.222656 C 345.835938 48.222656 346.085938 48.222656 346.304688 48.316406 L 346.304688 53.628906 C 346.304688 53.847656 346.304688 54.285156 345.617188 54.347656 C 345.429688 54.347656 345.429688 54.503906 345.429688 54.503906 C 345.429688 54.691406 345.617188 54.691406 345.773438 54.691406 L 347.335938 54.691406 C 347.492188 54.691406 347.648438 54.691406 347.648438 54.503906 C 347.648438 54.410156 347.585938 54.347656 347.492188 54.347656 C 346.742188 54.285156 346.742188 53.878906 346.742188 53.628906 L 346.742188 48.660156 L 349.179688 54.472656 C 349.242188 54.660156 349.335938 54.691406 349.367188 54.691406 C 349.492188 54.691406 349.523438 54.597656 349.585938 54.503906 L 352.023438 48.660156 L 352.023438 53.628906 C 352.023438 53.847656 352.023438 54.285156 351.367188 54.347656 C 351.179688 54.347656 351.179688 54.503906 351.179688 54.503906 C 351.179688 54.691406 351.335938 54.691406 351.492188 54.691406 L 354.179688 54.691406 C 354.335938 54.691406 354.492188 54.691406 354.492188 54.503906 C 354.492188 54.410156 354.429688 54.347656 354.335938 54.347656 C 353.554688 54.285156 353.554688 53.878906 353.554688 53.628906 L 353.554688 48.910156 C 353.554688 48.722656 353.554688 48.285156 354.242188 48.222656 C 354.335938 48.191406 354.429688 48.160156 354.429688 48.035156 C 354.429688 47.847656 354.273438 47.847656 354.117188 47.847656 L 352.179688 47.847656 C 351.929688 47.847656 351.898438 47.847656 351.804688 48.066406 Z M 349.617188 52.785156 C 349.710938 52.941406 349.710938 52.941406 349.835938 53.003906 L 349.398438 54.066406 L 349.367188 54.066406 L 347.085938 48.628906 C 347.054688 48.503906 346.960938 48.316406 346.835938 48.222656 L 347.710938 48.222656 Z M 346.617188 54.347656 L 346.429688 54.347656 C 346.460938 54.316406 346.492188 54.285156 346.492188 54.253906 C 346.523438 54.253906 346.523438 54.253906 346.523438 54.222656 Z M 352.367188 48.222656 L 353.429688 48.222656 C 353.210938 48.472656 353.210938 48.722656 353.210938 48.910156 L 353.210938 53.660156 C 353.210938 53.847656 353.210938 54.097656 353.460938 54.347656 L 352.148438 54.347656 C 352.367188 54.097656 352.367188 53.847656 352.367188 53.660156 Z M 352.367188 48.222656 "/>
<path fill-rule="nonzero" fill="rgb(0%, 0%, 0%)" fill-opacity="1" d="M 360.558594 55.742188 L 360.121094 55.742188 C 360.121094 55.929688 359.996094 56.554688 359.839844 56.648438 C 359.777344 56.710938 358.933594 56.710938 358.777344 56.710938 L 356.839844 56.710938 C 357.496094 56.242188 358.214844 55.679688 358.808594 55.273438 C 359.714844 54.648438 360.558594 54.085938 360.558594 53.023438 C 360.558594 51.742188 359.339844 51.054688 357.933594 51.054688 C 356.589844 51.054688 355.589844 51.804688 355.589844 52.804688 C 355.589844 53.304688 356.027344 53.398438 356.183594 53.398438 C 356.433594 53.398438 356.746094 53.210938 356.746094 52.804688 C 356.746094 52.460938 356.496094 52.242188 356.183594 52.242188 C 356.464844 51.773438 357.058594 51.492188 357.714844 51.492188 C 358.683594 51.492188 359.496094 52.054688 359.496094 53.023438 C 359.496094 53.867188 358.902344 54.523438 358.152344 55.148438 L 355.714844 57.210938 C 355.621094 57.304688 355.589844 57.304688 355.589844 57.367188 L 355.589844 57.679688 L 360.214844 57.679688 Z M 360.558594 55.742188 "/>
<path fill="none" stroke-width="0.39848" stroke-linecap="butt" stroke-linejoin="miter" stroke="rgb(0%, 0%, 0%)" stroke-opacity="1" stroke-miterlimit="10" d="M -50.596497 -0.195312 L 3.56366 -0.195312 " transform="matrix(2, 0, 0, -2, 177.567993, 85.5)"/>
<path fill="none" stroke-width="0.39848" stroke-linecap="round" stroke-linejoin="round" stroke="rgb(0%, 0%, 0%)" stroke-opacity="1" stroke-miterlimit="10" d="M -2.07119 2.389042 C -1.692284 0.955448 -0.848534 0.279667 -0.00087738 -0.0015831 C -0.848534 -0.278927 -1.692284 -0.954708 -2.07119 -2.392208 " transform="matrix(2, 0, 0, -2, 185.095505, 85.887459)"/>
<g clip-path="url(#clip-0)">
<path fill="none" stroke-width="2.33075" stroke-linecap="butt" stroke-linejoin="miter" stroke="rgb(0%, 0%, 0%)" stroke-opacity="1" stroke-miterlimit="10" d="M -26.069153 -16.375 L -22.690247 -17.894531 " transform="matrix(2, 0, 0, -2, 177.567993, 85.5)"/>
</g>
<path fill="none" stroke-width="1.53377" stroke-linecap="butt" stroke-linejoin="miter" stroke="rgb(100%, 100%, 100%)" stroke-opacity="1" stroke-miterlimit="10" d="M -26.069153 -16.375 L -22.690247 -17.894531 " transform="matrix(2, 0, 0, -2, 177.567993, 85.5)"/>
<path fill="none" stroke-width="0.39848" stroke-linecap="round" stroke-linejoin="round" stroke="rgb(0%, 0%, 0%)" stroke-opacity="1" stroke-miterlimit="10" d="M -1.293894 2.562016 C -0.667281 1.207602 1.02341 0.0492897 1.991839 0.00101433 C 1.024657 -0.0486754 -0.668007 -1.20875 -1.293209 -2.56102 " transform="matrix(1.82376, 0.82068, 0.82068, -1.82376, 132.186844, 121.289062)"/>
<path fill-rule="nonzero" fill="rgb(0%, 0%, 0%)" fill-opacity="1" d="M 113.386719 125.796875 C 113.386719 125.765625 113.417969 125.578125 113.417969 125.578125 C 113.417969 125.484375 113.386719 125.359375 113.199219 125.359375 C 112.917969 125.359375 111.761719 125.484375 111.417969 125.515625 C 111.324219 125.515625 111.105469 125.546875 111.105469 125.828125 C 111.105469 126.015625 111.324219 126.015625 111.480469 126.015625 C 112.136719 126.015625 112.136719 126.140625 112.136719 126.234375 C 112.136719 126.328125 112.105469 126.421875 112.105469 126.546875 L 110.136719 134.421875 C 110.042969 134.671875 110.042969 134.703125 110.042969 134.734375 C 110.042969 134.953125 110.230469 135.171875 110.542969 135.171875 C 110.699219 135.171875 110.949219 135.109375 111.105469 134.828125 C 111.136719 134.734375 111.261719 134.234375 111.324219 133.953125 L 111.667969 132.703125 C 111.699219 132.484375 111.855469 131.953125 111.886719 131.765625 C 112.011719 131.234375 112.011719 131.203125 112.292969 130.765625 C 112.761719 130.078125 113.449219 129.296875 114.542969 129.296875 C 115.324219 129.296875 115.355469 129.921875 115.355469 130.265625 C 115.355469 131.109375 114.761719 132.640625 114.542969 133.234375 C 114.386719 133.640625 114.324219 133.765625 114.324219 133.984375 C 114.324219 134.734375 114.949219 135.171875 115.636719 135.171875 C 117.042969 135.171875 117.667969 133.265625 117.667969 133.046875 C 117.667969 132.859375 117.480469 132.859375 117.417969 132.859375 C 117.230469 132.859375 117.230469 132.953125 117.167969 133.109375 C 116.855469 134.234375 116.230469 134.796875 115.699219 134.796875 C 115.386719 134.796875 115.324219 134.609375 115.324219 134.296875 C 115.324219 133.984375 115.417969 133.796875 115.667969 133.171875 C 115.824219 132.734375 116.386719 131.265625 116.386719 130.484375 C 116.386719 130.265625 116.386719 129.671875 115.886719 129.265625 C 115.636719 129.109375 115.230469 128.890625 114.574219 128.890625 C 113.574219 128.890625 112.824219 129.453125 112.324219 130.046875 Z M 113.386719 125.796875 "/>
<path fill-rule="nonzero" fill="rgb(0%, 0%, 0%)" fill-opacity="1" d="M 122.308594 130.695312 C 122.308594 130.414062 122.277344 130.414062 121.933594 130.414062 C 121.246094 131.039062 120.121094 131.039062 119.933594 131.039062 L 119.777344 131.039062 L 119.777344 131.476562 L 119.933594 131.476562 C 120.152344 131.476562 120.808594 131.445312 121.402344 131.195312 L 121.402344 136.195312 C 121.402344 136.476562 121.402344 136.601562 120.339844 136.601562 L 119.839844 136.601562 L 119.839844 137.039062 C 120.371094 137.007812 121.277344 137.007812 121.839844 137.007812 C 122.433594 137.007812 123.308594 137.007812 123.871094 137.039062 L 123.871094 136.601562 L 123.371094 136.601562 C 122.308594 136.601562 122.308594 136.476562 122.308594 136.195312 Z M 122.308594 130.695312 "/>
<path fill="none" stroke-width="2.33075" stroke-linecap="butt" stroke-linejoin="miter" stroke="rgb(0%, 0%, 0%)" stroke-opacity="1" stroke-miterlimit="10" d="M 41.71991 14.0625 L 49.048035 18.03125 " transform="matrix(2, 0, 0, -2, 177.567993, 85.5)"/>
<path fill="none" stroke-width="1.53377" stroke-linecap="butt" stroke-linejoin="miter" stroke="rgb(100%, 100%, 100%)" stroke-opacity="1" stroke-miterlimit="10" d="M 41.71991 14.0625 L 49.048035 18.03125 " transform="matrix(2, 0, 0, -2, 177.567993, 85.5)"/>
<path fill="none" stroke-width="0.39848" stroke-linecap="round" stroke-linejoin="round" stroke="rgb(0%, 0%, 0%)" stroke-opacity="1" stroke-miterlimit="10" d="M -1.295986 2.559712 C -0.665697 1.205346 1.023406 0.0504776 1.991907 0.00123106 C 1.023691 -0.0474174 -0.666159 -1.206821 -1.292619 -2.560169 " transform="matrix(1.75848, -0.95254, -0.95254, -1.75848, 275.662506, 49.438599)"/>
<path fill-rule="nonzero" fill="rgb(0%, 0%, 0%)" fill-opacity="1" d="M 252.835938 36.429688 C 252.835938 36.398438 252.867188 36.210938 252.867188 36.210938 C 252.867188 36.117188 252.835938 35.992188 252.648438 35.992188 C 252.367188 35.992188 251.210938 36.117188 250.867188 36.148438 C 250.773438 36.148438 250.554688 36.179688 250.554688 36.460938 C 250.554688 36.648438 250.773438 36.648438 250.929688 36.648438 C 251.585938 36.648438 251.585938 36.773438 251.585938 36.867188 C 251.585938 36.960938 251.554688 37.054688 251.554688 37.179688 L 249.585938 45.054688 C 249.492188 45.304688 249.492188 45.335938 249.492188 45.367188 C 249.492188 45.585938 249.679688 45.804688 249.992188 45.804688 C 250.148438 45.804688 250.398438 45.742188 250.554688 45.460938 C 250.585938 45.367188 250.710938 44.867188 250.773438 44.585938 L 251.117188 43.335938 C 251.148438 43.117188 251.304688 42.585938 251.335938 42.398438 C 251.460938 41.867188 251.460938 41.835938 251.742188 41.398438 C 252.210938 40.710938 252.898438 39.929688 253.992188 39.929688 C 254.773438 39.929688 254.804688 40.554688 254.804688 40.898438 C 254.804688 41.742188 254.210938 43.273438 253.992188 43.867188 C 253.835938 44.273438 253.773438 44.398438 253.773438 44.617188 C 253.773438 45.367188 254.398438 45.804688 255.085938 45.804688 C 256.492188 45.804688 257.117188 43.898438 257.117188 43.679688 C 257.117188 43.492188 256.929688 43.492188 256.867188 43.492188 C 256.679688 43.492188 256.679688 43.585938 256.617188 43.742188 C 256.304688 44.867188 255.679688 45.429688 255.148438 45.429688 C 254.835938 45.429688 254.773438 45.242188 254.773438 44.929688 C 254.773438 44.617188 254.867188 44.429688 255.117188 43.804688 C 255.273438 43.367188 255.835938 41.898438 255.835938 41.117188 C 255.835938 40.898438 255.835938 40.304688 255.335938 39.898438 C 255.085938 39.742188 254.679688 39.523438 254.023438 39.523438 C 253.023438 39.523438 252.273438 40.085938 251.773438 40.679688 Z M 252.835938 36.429688 "/>
<path fill-rule="nonzero" fill="rgb(0%, 0%, 0%)" fill-opacity="1" d="M 263.667969 45.734375 L 263.230469 45.734375 C 263.230469 45.921875 263.105469 46.546875 262.949219 46.640625 C 262.886719 46.703125 262.042969 46.703125 261.886719 46.703125 L 259.949219 46.703125 C 260.605469 46.234375 261.324219 45.671875 261.917969 45.265625 C 262.824219 44.640625 263.667969 44.078125 263.667969 43.015625 C 263.667969 41.734375 262.449219 41.046875 261.042969 41.046875 C 259.699219 41.046875 258.699219 41.796875 258.699219 42.796875 C 258.699219 43.296875 259.136719 43.390625 259.292969 43.390625 C 259.542969 43.390625 259.855469 43.203125 259.855469 42.796875 C 259.855469 42.453125 259.605469 42.234375 259.292969 42.234375 C 259.574219 41.765625 260.167969 41.484375 260.824219 41.484375 C 261.792969 41.484375 262.605469 42.046875 262.605469 43.015625 C 262.605469 43.859375 262.011719 44.515625 261.261719 45.140625 L 258.824219 47.203125 C 258.730469 47.296875 258.699219 47.296875 258.699219 47.359375 L 258.699219 47.671875 L 263.324219 47.671875 Z M 263.667969 45.734375 "/>
<path fill="none" stroke-width="0.39848" stroke-linecap="butt" stroke-linejoin="miter" stroke="rgb(0%, 0%, 0%)" stroke-opacity="1" stroke-miterlimit="10" d="M 26.829285 -0.195312 L 65.59491 -0.195312 " transform="matrix(2, 0, 0, -2, 177.567993, 85.5)"/>
<path fill="none" stroke-width="0.39848" stroke-linecap="round" stroke-linejoin="round" stroke="rgb(0%, 0%, 0%)" stroke-opacity="1" stroke-miterlimit="10" d="M -2.072601 2.389042 C -1.693695 0.955448 -0.849945 0.279667 0.00161743 -0.0015831 C -0.849945 -0.278927 -1.693695 -0.954708 -2.072601 -2.392208 " transform="matrix(2, 0, 0, -2, 309.153015, 85.887459)"/>
<path fill-rule="nonzero" fill="rgb(0%, 0%, 0%)" fill-opacity="1" d="M 189.1875 103.3125 C 189.1875 103.53125 189.1875 103.875 189.5 103.875 C 189.875 103.875 189.875 103.5625 189.875 103.3125 L 189.875 98.4375 C 189.875 97.96875 189.78125 97.90625 189.34375 97.90625 L 184.40625 97.90625 C 184.1875 97.90625 183.875 97.90625 183.875 98.21875 C 183.875 98.59375 184.25 98.59375 184.46875 98.59375 L 189.1875 98.59375 Z M 189.1875 103.3125 "/>
<path fill-rule="nonzero" fill="rgb(0%, 0%, 0%)" fill-opacity="1" d="M 313.621094 72.441406 C 313.402344 72.441406 313.058594 72.441406 313.058594 72.753906 C 313.058594 73.128906 313.371094 73.128906 313.621094 73.128906 L 318.496094 73.128906 C 318.964844 73.128906 319.027344 73.035156 319.027344 72.597656 L 319.027344 67.660156 C 319.027344 67.441406 319.027344 67.128906 318.714844 67.128906 C 318.339844 67.128906 318.339844 67.503906 318.339844 67.722656 L 318.339844 72.441406 Z M 313.621094 72.441406 "/>
<path fill="none" stroke-width="0.39848" stroke-linecap="butt" stroke-linejoin="miter" stroke="rgb(0%, 0%, 0%)" stroke-opacity="1" stroke-miterlimit="10" d="M -62.03009 -25.5625 L -62.03009 -8.425781 " transform="matrix(2, 0, 0, -2, 177.567993, 85.5)"/>
<path fill="none" stroke-width="0.39848" stroke-linecap="round" stroke-linejoin="round" stroke="rgb(0%, 0%, 0%)" stroke-opacity="1" stroke-miterlimit="10" d="M -2.073612 2.39197 C -1.694706 0.95447 -0.850956 0.278688 0.000606537 0.00134468 C -0.850956 -0.279905 -1.694706 -0.955687 -2.073612 -2.38928 " transform="matrix(0, -2, -2, 0, 53.510502, 101.954338)"/>
<path fill-rule="nonzero" fill="rgb(0%, 0%, 0%)" fill-opacity="1" d="M 36.09375 113.398438 C 36 113.148438 35.96875 113.085938 35.8125 113.085938 C 35.65625 113.085938 35.59375 113.210938 35.5 113.367188 L 32.34375 121.710938 C 32.15625 122.148438 31.875 122.367188 31.5 122.398438 C 31.4375 122.398438 31.21875 122.429688 31.21875 122.648438 C 31.21875 122.898438 31.4375 122.898438 31.6875 122.898438 L 33.90625 122.898438 C 34.15625 122.898438 34.375 122.898438 34.375 122.648438 C 34.375 122.429688 34.1875 122.429688 34.0625 122.398438 C 33.875 122.398438 33.53125 122.335938 33.53125 121.492188 C 33.53125 121.054688 33.625 120.585938 33.71875 120.148438 L 36.78125 120.148438 C 37.28125 121.523438 37.28125 121.742188 37.3125 122.023438 C 36.96875 122.367188 36.59375 122.398438 36.4375 122.398438 C 36.28125 122.429688 36.1875 122.523438 36.1875 122.648438 C 36.1875 122.898438 36.40625 122.898438 36.65625 122.898438 L 40.28125 122.898438 C 40.53125 122.898438 40.78125 122.898438 40.78125 122.648438 C 40.78125 122.460938 40.59375 122.429688 40.46875 122.398438 C 40.15625 122.367188 39.90625 122.117188 39.625 121.492188 Z M 33.875 119.679688 C 34.1875 118.429688 34.625 117.242188 35.09375 116.085938 C 35.53125 117.023438 36.375 119.023438 36.59375 119.679688 Z M 33.03125 121.210938 L 33.0625 121.242188 L 33.0625 121.367188 C 33.03125 121.398438 33.03125 121.429688 33.03125 121.492188 C 33.03125 121.554688 33.03125 122.085938 33.25 122.398438 L 32.5 122.398438 C 32.65625 122.210938 32.71875 122.054688 32.8125 121.835938 Z M 35.3125 115.335938 L 35.8125 113.992188 L 39.1875 121.679688 C 39.25 121.835938 39.40625 122.148438 39.59375 122.398438 L 37.625 122.398438 C 37.75 122.335938 37.8125 122.117188 37.8125 121.960938 C 37.8125 121.117188 36.59375 118.273438 36 116.898438 Z M 35.3125 115.335938 "/>
<path fill-rule="nonzero" fill="rgb(0%, 0%, 0%)" fill-opacity="1" d="M 47.042969 121.703125 C 47.042969 120.984375 47.042969 118.265625 44.417969 118.265625 C 41.824219 118.265625 41.824219 120.984375 41.824219 121.703125 C 41.824219 122.421875 41.824219 125.109375 44.417969 125.109375 C 47.042969 125.109375 47.042969 122.421875 47.042969 121.703125 Z M 44.417969 124.765625 C 44.074219 124.765625 43.230469 124.640625 42.980469 123.640625 C 42.824219 123.109375 42.824219 122.390625 42.824219 121.578125 C 42.824219 120.828125 42.824219 120.140625 42.980469 119.578125 C 43.230469 118.734375 44.011719 118.578125 44.417969 118.578125 C 45.167969 118.578125 45.699219 118.953125 45.886719 119.671875 C 46.042969 120.171875 46.042969 120.984375 46.042969 121.578125 C 46.042969 122.265625 46.042969 123.078125 45.886719 123.671875 C 45.636719 124.640625 44.824219 124.765625 44.417969 124.765625 Z M 44.417969 124.765625 "/>
<path fill="none" stroke-width="0.39848" stroke-linecap="butt" stroke-linejoin="miter" stroke="rgb(0%, 0%, 0%)" stroke-opacity="1" stroke-miterlimit="10" d="M -35.073059 -35.03125 L 3.434753 -35.03125 " transform="matrix(2, 0, 0, -2, 177.567993, 85.5)"/>
<path fill="none" stroke-width="0.39848" stroke-linecap="round" stroke-linejoin="round" stroke="rgb(0%, 0%, 0%)" stroke-opacity="1" stroke-miterlimit="10" d="M -2.072105 2.389977 C -1.693199 0.956383 -0.849449 0.280602 -0.00179291 -0.000648499 C -0.849449 -0.277992 -1.693199 -0.95768 -2.072105 -2.391273 " transform="matrix(2, 0, 0, -2, 184.839523, 155.561203)"/>
<path fill-rule="nonzero" fill="rgb(0%, 0%, 0%)" fill-opacity="1" d="M 138.804688 168.445312 C 137.898438 168.445312 137.773438 168.445312 137.773438 167.851562 L 137.773438 165.601562 C 137.835938 165.664062 138.492188 166.382812 139.648438 166.382812 C 141.492188 166.382812 143.054688 165.007812 143.054688 163.257812 C 143.054688 161.539062 141.648438 160.101562 139.867188 160.101562 C 139.085938 160.101562 138.273438 160.414062 137.710938 160.976562 L 137.710938 160.101562 L 135.617188 160.257812 L 135.617188 160.757812 C 136.585938 160.757812 136.648438 160.851562 136.648438 161.414062 L 136.648438 167.851562 C 136.648438 168.445312 136.523438 168.445312 135.617188 168.445312 L 135.617188 168.976562 C 135.648438 168.976562 136.617188 168.914062 137.210938 168.914062 C 137.710938 168.914062 138.679688 168.945312 138.804688 168.976562 Z M 137.773438 161.601562 C 138.179688 160.914062 138.992188 160.570312 139.710938 160.570312 C 140.898438 160.570312 141.804688 161.789062 141.804688 163.257812 C 141.804688 164.851562 140.742188 166.007812 139.585938 166.007812 C 138.335938 166.007812 137.804688 164.945312 137.773438 164.851562 Z M 137.773438 161.601562 "/>
<path fill-rule="nonzero" fill="rgb(0%, 0%, 0%)" fill-opacity="1" d="M 146.496094 163.070312 C 146.496094 161.914062 147.027344 160.507812 148.371094 160.507812 C 148.246094 160.601562 148.121094 160.789062 148.121094 161.007812 C 148.121094 161.476562 148.496094 161.632812 148.746094 161.632812 C 149.089844 161.632812 149.402344 161.414062 149.402344 161.007812 C 149.402344 160.539062 148.933594 160.101562 148.277344 160.101562 C 147.589844 160.101562 146.808594 160.539062 146.402344 161.601562 L 146.402344 160.101562 L 144.402344 160.257812 L 144.402344 160.757812 C 145.339844 160.757812 145.433594 160.851562 145.433594 161.539062 L 145.433594 165.164062 C 145.433594 165.757812 145.308594 165.757812 144.402344 165.757812 L 144.402344 166.257812 C 144.464844 166.257812 145.402344 166.195312 145.996094 166.195312 C 146.589844 166.195312 147.183594 166.226562 147.808594 166.257812 L 147.808594 165.757812 L 147.527344 165.757812 C 146.496094 165.757812 146.496094 165.601562 146.496094 165.132812 Z M 146.496094 163.070312 "/>
<path fill-rule="nonzero" fill="rgb(0%, 0%, 0%)" fill-opacity="1" d="M 153.925781 163.621094 C 153.925781 163.339844 153.894531 163.339844 153.550781 163.339844 C 152.863281 163.964844 151.738281 163.964844 151.550781 163.964844 L 151.394531 163.964844 L 151.394531 164.402344 L 151.550781 164.402344 C 151.769531 164.402344 152.425781 164.371094 153.019531 164.121094 L 153.019531 169.121094 C 153.019531 169.402344 153.019531 169.527344 151.957031 169.527344 L 151.457031 169.527344 L 151.457031 169.964844 C 151.988281 169.933594 152.894531 169.933594 153.457031 169.933594 C 154.050781 169.933594 154.925781 169.933594 155.488281 169.964844 L 155.488281 169.527344 L 154.988281 169.527344 C 153.925781 169.527344 153.925781 169.402344 153.925781 169.121094 Z M 153.925781 163.621094 "/>
<path fill="none" stroke-width="0.39848" stroke-linecap="butt" stroke-linejoin="miter" stroke="rgb(0%, 0%, 0%)" stroke-opacity="1" stroke-miterlimit="10" d="M 15.395691 -26.863281 L 15.395691 -8.425781 " transform="matrix(2, 0, 0, -2, 177.567993, 85.5)"/>
<path fill="none" stroke-width="0.39848" stroke-linecap="round" stroke-linejoin="round" stroke="rgb(0%, 0%, 0%)" stroke-opacity="1" stroke-miterlimit="10" d="M -2.073612 2.390488 C -1.694706 0.956894 -0.850956 0.277206 0.000606537 -0.000137329 C -0.850956 -0.277481 -1.694706 -0.957169 -2.073612 -2.390762 " transform="matrix(0, -2, -2, 0, 208.3591, 101.954338)"/>
<path fill-rule="nonzero" fill="rgb(0%, 0%, 0%)" fill-opacity="1" d="M 217.550781 117.644531 C 218.707031 117.144531 219.207031 116.957031 219.550781 116.769531 C 219.832031 116.675781 219.957031 116.613281 219.957031 116.332031 C 219.957031 116.113281 219.769531 115.894531 219.519531 115.894531 C 219.425781 115.894531 219.394531 115.894531 219.238281 116.019531 L 217.332031 117.300781 L 217.550781 115.238281 C 217.582031 114.988281 217.550781 114.644531 217.113281 114.644531 C 216.957031 114.644531 216.675781 114.738281 216.675781 115.050781 C 216.675781 115.175781 216.738281 115.582031 216.769531 115.738281 C 216.800781 115.957031 216.894531 116.988281 216.925781 117.300781 L 215.019531 116.019531 C 214.894531 115.957031 214.863281 115.894531 214.738281 115.894531 C 214.457031 115.894531 214.300781 116.113281 214.300781 116.332031 C 214.300781 116.613281 214.457031 116.707031 214.582031 116.738281 L 216.675781 117.644531 C 215.550781 118.144531 215.019531 118.332031 214.675781 118.488281 C 214.425781 118.613281 214.300781 118.675781 214.300781 118.925781 C 214.300781 119.175781 214.457031 119.363281 214.738281 119.363281 C 214.832031 119.363281 214.863281 119.363281 215.019531 119.238281 L 216.925781 117.988281 L 216.675781 120.207031 C 216.675781 120.519531 216.957031 120.644531 217.113281 120.644531 C 217.300781 120.644531 217.550781 120.519531 217.550781 120.207031 C 217.550781 120.082031 217.488281 119.675781 217.488281 119.550781 C 217.457031 119.300781 217.363281 118.300781 217.332031 117.988281 L 218.988281 119.082031 C 219.363281 119.363281 219.394531 119.363281 219.519531 119.363281 C 219.769531 119.363281 219.957031 119.175781 219.957031 118.925781 C 219.957031 118.644531 219.769531 118.582031 219.644531 118.519531 Z M 217.550781 117.644531 "/>
<path fill-rule="nonzero" fill="rgb(0%, 0%, 0%)" fill-opacity="1" d="M 225.871094 121.082031 L 223.964844 116.550781 C 223.871094 116.332031 223.871094 116.332031 223.589844 116.332031 L 221.746094 116.332031 C 221.558594 116.332031 221.402344 116.332031 221.402344 116.519531 C 221.402344 116.707031 221.589844 116.707031 221.652344 116.707031 C 221.777344 116.707031 222.027344 116.707031 222.246094 116.800781 L 222.246094 122.113281 C 222.246094 122.332031 222.246094 122.769531 221.558594 122.832031 C 221.371094 122.832031 221.371094 122.988281 221.371094 122.988281 C 221.371094 123.175781 221.558594 123.175781 221.714844 123.175781 L 223.277344 123.175781 C 223.433594 123.175781 223.589844 123.175781 223.589844 122.988281 C 223.589844 122.894531 223.527344 122.832031 223.433594 122.832031 C 222.683594 122.769531 222.683594 122.363281 222.683594 122.113281 L 222.683594 117.144531 L 225.121094 122.957031 C 225.183594 123.144531 225.277344 123.175781 225.308594 123.175781 C 225.433594 123.175781 225.464844 123.082031 225.527344 122.988281 L 227.964844 117.144531 L 227.964844 122.113281 C 227.964844 122.332031 227.964844 122.769531 227.308594 122.832031 C 227.121094 122.832031 227.121094 122.988281 227.121094 122.988281 C 227.121094 123.175781 227.277344 123.175781 227.433594 123.175781 L 230.121094 123.175781 C 230.277344 123.175781 230.433594 123.175781 230.433594 122.988281 C 230.433594 122.894531 230.371094 122.832031 230.277344 122.832031 C 229.496094 122.769531 229.496094 122.363281 229.496094 122.113281 L 229.496094 117.394531 C 229.496094 117.207031 229.496094 116.769531 230.183594 116.707031 C 230.277344 116.675781 230.371094 116.644531 230.371094 116.519531 C 230.371094 116.332031 230.214844 116.332031 230.058594 116.332031 L 228.121094 116.332031 C 227.871094 116.332031 227.839844 116.332031 227.746094 116.550781 Z M 225.558594 121.269531 C 225.652344 121.425781 225.652344 121.425781 225.777344 121.488281 L 225.339844 122.550781 L 225.308594 122.550781 L 223.027344 117.113281 C 222.996094 116.988281 222.902344 116.800781 222.777344 116.707031 L 223.652344 116.707031 Z M 222.558594 122.832031 L 222.371094 122.832031 C 222.402344 122.800781 222.433594 122.769531 222.433594 122.738281 C 222.464844 122.738281 222.464844 122.738281 222.464844 122.707031 Z M 228.308594 116.707031 L 229.371094 116.707031 C 229.152344 116.957031 229.152344 117.207031 229.152344 117.394531 L 229.152344 122.144531 C 229.152344 122.332031 229.152344 122.582031 229.402344 122.832031 L 228.089844 122.832031 C 228.308594 122.582031 228.308594 122.332031 228.308594 122.144531 Z M 228.308594 116.707031 "/>
<path fill-rule="nonzero" fill="rgb(0%, 0%, 0%)" fill-opacity="1" d="M 234.59375 119.816406 C 234.59375 119.535156 234.5625 119.535156 234.21875 119.535156 C 233.53125 120.160156 232.40625 120.160156 232.21875 120.160156 L 232.0625 120.160156 L 232.0625 120.597656 L 232.21875 120.597656 C 232.4375 120.597656 233.09375 120.566406 233.6875 120.316406 L 233.6875 125.316406 C 233.6875 125.597656 233.6875 125.722656 232.625 125.722656 L 232.125 125.722656 L 232.125 126.160156 C 232.65625 126.128906 233.5625 126.128906 234.125 126.128906 C 234.71875 126.128906 235.59375 126.128906 236.15625 126.160156 L 236.15625 125.722656 L 235.65625 125.722656 C 234.59375 125.722656 234.59375 125.597656 234.59375 125.316406 Z M 234.59375 119.816406 "/>
</svg>
