<?xml version="1.0" encoding="UTF-8"?>
<svg xmlns="http://www.w3.org/2000/svg" xmlns:xlink="http://www.w3.org/1999/xlink" width="552.079997" height="233.280009" viewBox="0 0 552.079997 233.280009">
<defs>
<clipPath id="clip-0">
<path clip-rule="nonzero" d="M 109 67 L 314 67 L 314 233.28125 L 109 233.28125 Z M 109 67 "/>
</clipPath>
</defs>
<path fill-rule="nonzero" fill="rgb(0%, 0%, 0%)" fill-opacity="1" d="M 282.257812 15.4375 C 282.507812 14.480469 282.546875 14.230469 284.546875 14.230469 C 285.132812 14.230469 285.382812 14.230469 285.382812 13.6875 C 285.382812 13.394531 285.132812 13.394531 284.671875 13.394531 L 281.171875 13.394531 C 280.464844 13.394531 280.421875 13.394531 280.132812 13.894531 L 270.421875 29.0625 L 268.339844 14.019531 C 268.257812 13.394531 268.214844 13.394531 267.507812 13.394531 L 263.882812 13.394531 C 263.382812 13.394531 263.089844 13.394531 263.089844 13.894531 C 263.089844 14.230469 263.339844 14.230469 263.839844 14.230469 C 264.214844 14.230469 264.671875 14.269531 265.007812 14.269531 C 265.421875 14.355469 265.589844 14.394531 265.589844 14.730469 C 265.589844 14.8125 265.546875 14.894531 265.464844 15.230469 L 262.089844 28.730469 C 261.839844 29.8125 261.382812 30.644531 259.214844 30.730469 C 259.089844 30.730469 258.757812 30.769531 258.757812 31.230469 C 258.757812 31.480469 258.921875 31.5625 259.132812 31.5625 C 259.964844 31.5625 260.882812 31.480469 261.796875 31.480469 C 262.671875 31.480469 263.632812 31.5625 264.507812 31.5625 C 264.632812 31.5625 265.007812 31.5625 265.007812 31.019531 C 265.007812 30.730469 264.714844 30.730469 264.507812 30.730469 C 263.007812 30.730469 262.714844 30.1875 262.714844 29.5625 C 262.714844 29.394531 262.714844 29.230469 262.796875 28.9375 L 266.421875 14.480469 L 266.464844 14.480469 L 268.757812 30.9375 C 268.796875 31.269531 268.839844 31.5625 269.132812 31.5625 C 269.421875 31.5625 269.589844 31.269531 269.714844 31.105469 L 280.464844 14.269531 L 280.507812 14.269531 L 276.671875 29.480469 C 276.421875 30.519531 276.382812 30.730469 274.257812 30.730469 C 273.839844 30.730469 273.546875 30.730469 273.546875 31.230469 C 273.546875 31.5625 273.839844 31.5625 273.921875 31.5625 C 274.671875 31.5625 276.464844 31.480469 277.214844 31.480469 C 278.296875 31.480469 279.464844 31.5625 280.546875 31.5625 C 280.714844 31.5625 281.046875 31.5625 281.046875 31.019531 C 281.046875 30.730469 280.796875 30.730469 280.296875 30.730469 C 279.339844 30.730469 278.589844 30.730469 278.589844 30.269531 C 278.589844 30.144531 278.589844 30.105469 278.714844 29.605469 Z M 282.257812 15.4375 "/>
<path fill-rule="nonzero" fill="rgb(0%, 0%, 0%)" fill-opacity="1" d="M 292.78125 32.175781 L 292.15625 32.175781 C 292.113281 32.589844 291.90625 33.675781 291.65625 33.839844 C 291.53125 33.964844 290.113281 33.964844 289.820312 33.964844 L 286.40625 33.964844 C 288.363281 32.257812 289.03125 31.714844 290.113281 30.839844 C 291.488281 29.757812 292.78125 28.589844 292.78125 26.839844 C 292.78125 24.589844 290.820312 23.214844 288.445312 23.214844 C 286.15625 23.214844 284.570312 24.839844 284.570312 26.550781 C 284.570312 27.464844 285.363281 27.589844 285.570312 27.589844 C 285.988281 27.589844 286.53125 27.257812 286.53125 26.589844 C 286.53125 26.257812 286.40625 25.589844 285.445312 25.589844 C 286.03125 24.300781 287.28125 23.882812 288.15625 23.882812 C 290.03125 23.882812 290.988281 25.339844 290.988281 26.839844 C 290.988281 28.464844 289.820312 29.714844 289.238281 30.382812 L 284.78125 34.839844 C 284.570312 35.007812 284.570312 35.050781 284.570312 35.550781 L 292.238281 35.550781 Z M 292.78125 32.175781 "/>
<path fill-rule="nonzero" fill="rgb(0%, 0%, 0%)" fill-opacity="1" d="M 311.5625 24.1875 L 306.269531 18.894531 C 305.9375 18.5625 305.894531 18.519531 305.6875 18.519531 C 305.394531 18.519531 305.144531 18.730469 305.144531 19.0625 C 305.144531 19.230469 305.1875 19.269531 305.480469 19.5625 L 310.8125 24.894531 L 305.480469 30.269531 C 305.1875 30.5625 305.144531 30.605469 305.144531 30.769531 C 305.144531 31.105469 305.394531 31.3125 305.6875 31.3125 C 305.894531 31.3125 305.9375 31.269531 306.269531 30.9375 L 311.5625 25.644531 L 317.0625 31.144531 C 317.105469 31.1875 317.269531 31.3125 317.4375 31.3125 C 317.769531 31.3125 317.980469 31.105469 317.980469 30.769531 C 317.980469 30.730469 317.980469 30.644531 317.894531 30.480469 C 317.855469 30.4375 313.644531 26.269531 312.3125 24.894531 L 317.1875 20.0625 C 317.3125 19.894531 317.730469 19.5625 317.855469 19.394531 C 317.855469 19.355469 317.980469 19.230469 317.980469 19.0625 C 317.980469 18.730469 317.769531 18.519531 317.4375 18.519531 C 317.230469 18.519531 317.144531 18.605469 316.855469 18.894531 Z M 311.5625 24.1875 "/>
<path fill-rule="nonzero" fill="rgb(0%, 0%, 0%)" fill-opacity="1" d="M 340.085938 22.5625 C 339.835938 20.894531 338.753906 19.394531 336.667969 19.394531 C 335.042969 19.394531 333.335938 19.855469 331.253906 21.894531 C 329.042969 24.105469 328.878906 26.605469 328.878906 27.394531 C 328.878906 29.0625 330.042969 32.144531 333.753906 32.144531 C 340.085938 32.144531 342.835938 23.230469 342.835938 19.394531 C 342.835938 15.1875 340.378906 12.519531 337.085938 12.519531 C 333.253906 12.519531 332.003906 15.980469 332.003906 16.730469 C 332.003906 17.105469 332.253906 17.644531 333.042969 17.644531 C 333.917969 17.644531 334.460938 16.855469 334.460938 16.269531 C 334.460938 15.3125 333.628906 15.3125 333.210938 15.3125 C 334.378906 13.355469 336.292969 13.1875 337.042969 13.1875 C 339.003906 13.1875 340.835938 14.5625 340.835938 18.019531 C 340.835938 19.0625 340.667969 20.394531 340.128906 22.5625 Z M 333.835938 31.394531 C 330.917969 31.394531 330.917969 28.644531 330.917969 28.394531 C 330.917969 27.6875 331.585938 23.980469 332.667969 22.355469 C 333.710938 20.855469 335.042969 19.980469 336.667969 19.980469 C 339.585938 19.980469 339.628906 22.980469 339.628906 23.519531 C 339.628906 25.4375 337.917969 31.394531 333.835938 31.394531 Z M 333.835938 31.394531 "/>
<path fill-rule="nonzero" fill="rgb(0%, 0%, 0%)" fill-opacity="1" d="M 355.125 13.019531 C 354.960938 12.644531 354.875 12.519531 354.417969 12.519531 C 354 12.519531 353.917969 12.644531 353.75 13.019531 L 344.75 31.019531 C 344.625 31.269531 344.625 31.3125 344.625 31.355469 C 344.625 31.5625 344.792969 31.5625 345.210938 31.5625 L 363.667969 31.5625 C 364.085938 31.5625 364.25 31.5625 364.25 31.355469 C 364.25 31.3125 364.25 31.269531 364.125 31.019531 Z M 353.585938 15.1875 L 360.75 29.5625 L 346.417969 29.5625 Z M 353.585938 15.1875 "/>
<path fill-rule="nonzero" fill="rgb(0%, 0%, 0%)" fill-opacity="1" d="M 374.296875 37.9375 C 374.296875 37.855469 374.296875 37.8125 373.839844 37.355469 C 370.546875 34.019531 369.671875 28.980469 369.671875 24.894531 C 369.671875 20.269531 370.671875 15.644531 373.964844 12.355469 C 374.296875 12.019531 374.296875 11.980469 374.296875 11.894531 C 374.296875 11.6875 374.214844 11.605469 374.046875 11.605469 C 373.757812 11.605469 371.382812 13.4375 369.796875 16.8125 C 368.464844 19.730469 368.132812 22.6875 368.132812 24.894531 C 368.132812 26.980469 368.421875 30.1875 369.882812 33.230469 C 371.507812 36.480469 373.757812 38.230469 374.046875 38.230469 C 374.214844 38.230469 374.296875 38.144531 374.296875 37.9375 Z M 374.296875 37.9375 "/>
<path fill-rule="nonzero" fill="rgb(0%, 0%, 0%)" fill-opacity="1" d="M 379.1875 29.519531 L 382.023438 26.769531 C 386.148438 23.105469 387.730469 21.6875 387.730469 19.019531 C 387.730469 15.980469 385.355469 13.855469 382.105469 13.855469 C 379.105469 13.855469 377.148438 16.3125 377.148438 18.6875 C 377.148438 20.144531 378.480469 20.144531 378.5625 20.144531 C 379.023438 20.144531 379.9375 19.855469 379.9375 18.730469 C 379.9375 18.0625 379.4375 17.355469 378.523438 17.355469 C 378.3125 17.355469 378.273438 17.355469 378.1875 17.394531 C 378.773438 15.644531 380.230469 14.6875 381.773438 14.6875 C 384.1875 14.6875 385.3125 16.855469 385.3125 19.019531 C 385.3125 21.144531 384.023438 23.230469 382.523438 24.894531 L 377.4375 30.5625 C 377.148438 30.855469 377.148438 30.9375 377.148438 31.5625 L 387.023438 31.5625 L 387.730469 26.9375 L 387.105469 26.9375 C 386.9375 27.730469 386.773438 28.894531 386.480469 29.3125 C 386.3125 29.519531 384.5625 29.519531 383.980469 29.519531 Z M 379.1875 29.519531 "/>
<path fill-rule="nonzero" fill="rgb(0%, 0%, 0%)" fill-opacity="1" d="M 396.765625 24.894531 C 396.765625 22.855469 396.472656 19.644531 395.015625 16.605469 C 393.429688 13.355469 391.140625 11.605469 390.890625 11.605469 C 390.722656 11.605469 390.597656 11.730469 390.597656 11.894531 C 390.597656 11.980469 390.597656 12.019531 391.097656 12.519531 C 393.722656 15.144531 395.222656 19.355469 395.222656 24.894531 C 395.222656 29.480469 394.265625 34.144531 390.972656 37.480469 C 390.597656 37.8125 390.597656 37.855469 390.597656 37.9375 C 390.597656 38.105469 390.722656 38.230469 390.890625 38.230469 C 391.140625 38.230469 393.554688 36.394531 395.097656 33.019531 C 396.472656 30.105469 396.765625 27.144531 396.765625 24.894531 Z M 396.765625 24.894531 "/>
<path fill-rule="nonzero" fill="rgb(0%, 0%, 0%)" fill-opacity="1" d="M 510.75 15.4375 C 511 14.480469 511.042969 14.230469 513.042969 14.230469 C 513.625 14.230469 513.875 14.230469 513.875 13.6875 C 513.875 13.394531 513.625 13.394531 513.167969 13.394531 L 509.667969 13.394531 C 508.957031 13.394531 508.917969 13.394531 508.625 13.894531 L 498.917969 29.0625 L 496.832031 14.019531 C 496.75 13.394531 496.707031 13.394531 496 13.394531 L 492.375 13.394531 C 491.875 13.394531 491.582031 13.394531 491.582031 13.894531 C 491.582031 14.230469 491.832031 14.230469 492.332031 14.230469 C 492.707031 14.230469 493.167969 14.269531 493.5 14.269531 C 493.917969 14.355469 494.082031 14.394531 494.082031 14.730469 C 494.082031 14.8125 494.042969 14.894531 493.957031 15.230469 L 490.582031 28.730469 C 490.332031 29.8125 489.875 30.644531 487.707031 30.730469 C 487.582031 30.730469 487.25 30.769531 487.25 31.230469 C 487.25 31.480469 487.417969 31.5625 487.625 31.5625 C 488.457031 31.5625 489.375 31.480469 490.292969 31.480469 C 491.167969 31.480469 492.125 31.5625 493 31.5625 C 493.125 31.5625 493.5 31.5625 493.5 31.019531 C 493.5 30.730469 493.207031 30.730469 493 30.730469 C 491.5 30.730469 491.207031 30.1875 491.207031 29.5625 C 491.207031 29.394531 491.207031 29.230469 491.292969 28.9375 L 494.917969 14.480469 L 494.957031 14.480469 L 497.25 30.9375 C 497.292969 31.269531 497.332031 31.5625 497.625 31.5625 C 497.917969 31.5625 498.082031 31.269531 498.207031 31.105469 L 508.957031 14.269531 L 509 14.269531 L 505.167969 29.480469 C 504.917969 30.519531 504.875 30.730469 502.75 30.730469 C 502.332031 30.730469 502.042969 30.730469 502.042969 31.230469 C 502.042969 31.5625 502.332031 31.5625 502.417969 31.5625 C 503.167969 31.5625 504.957031 31.480469 505.707031 31.480469 C 506.792969 31.480469 507.957031 31.5625 509.042969 31.5625 C 509.207031 31.5625 509.542969 31.5625 509.542969 31.019531 C 509.542969 30.730469 509.292969 30.730469 508.792969 30.730469 C 507.832031 30.730469 507.082031 30.730469 507.082031 30.269531 C 507.082031 30.144531 507.082031 30.105469 507.207031 29.605469 Z M 510.75 15.4375 "/>
<path fill-rule="nonzero" fill="rgb(0%, 0%, 0%)" fill-opacity="1" d="M 521.273438 32.175781 L 520.648438 32.175781 C 520.605469 32.589844 520.398438 33.675781 520.148438 33.839844 C 520.023438 33.964844 518.605469 33.964844 518.316406 33.964844 L 514.898438 33.964844 C 516.855469 32.257812 517.523438 31.714844 518.605469 30.839844 C 519.980469 29.757812 521.273438 28.589844 521.273438 26.839844 C 521.273438 24.589844 519.316406 23.214844 516.941406 23.214844 C 514.648438 23.214844 513.066406 24.839844 513.066406 26.550781 C 513.066406 27.464844 513.855469 27.589844 514.066406 27.589844 C 514.480469 27.589844 515.023438 27.257812 515.023438 26.589844 C 515.023438 26.257812 514.898438 25.589844 513.941406 25.589844 C 514.523438 24.300781 515.773438 23.882812 516.648438 23.882812 C 518.523438 23.882812 519.480469 25.339844 519.480469 26.839844 C 519.480469 28.464844 518.316406 29.714844 517.730469 30.382812 L 513.273438 34.839844 C 513.066406 35.007812 513.066406 35.050781 513.066406 35.550781 L 520.730469 35.550781 Z M 521.273438 32.175781 "/>
<path fill-rule="nonzero" fill="rgb(0%, 0%, 0%)" fill-opacity="1" d="M 93.925781 118.210938 L 88.84375 106.128906 C 88.636719 105.585938 88.636719 105.585938 87.886719 105.585938 L 82.96875 105.585938 C 82.46875 105.585938 82.09375 105.585938 82.09375 106.042969 C 82.09375 106.503906 82.550781 106.503906 82.675781 106.503906 C 83.011719 106.503906 83.71875 106.585938 84.300781 106.792969 L 84.300781 120.960938 C 84.300781 121.542969 84.300781 122.710938 82.511719 122.878906 C 82.011719 122.917969 82.011719 123.292969 82.011719 123.335938 C 82.011719 123.792969 82.425781 123.792969 82.925781 123.792969 L 87.011719 123.792969 C 87.511719 123.792969 87.886719 123.792969 87.886719 123.335938 C 87.886719 123.085938 87.675781 122.878906 87.46875 122.878906 C 85.425781 122.710938 85.425781 121.585938 85.425781 120.960938 L 85.425781 107.753906 L 85.46875 107.710938 L 91.925781 123.253906 C 92.175781 123.710938 92.34375 123.792969 92.511719 123.792969 C 92.84375 123.792969 92.886719 123.585938 93.050781 123.253906 L 99.550781 107.710938 L 99.59375 107.753906 L 99.59375 120.960938 C 99.59375 121.542969 99.59375 122.710938 97.761719 122.878906 C 97.261719 122.917969 97.261719 123.292969 97.261719 123.335938 C 97.261719 123.792969 97.675781 123.792969 98.175781 123.792969 L 105.261719 123.792969 C 105.761719 123.792969 106.136719 123.792969 106.136719 123.335938 C 106.136719 123.085938 105.925781 122.878906 105.71875 122.878906 C 103.675781 122.710938 103.675781 121.585938 103.675781 120.960938 L 103.675781 108.417969 C 103.675781 107.835938 103.675781 106.667969 105.46875 106.503906 C 105.761719 106.503906 105.96875 106.335938 105.96875 106.042969 C 105.96875 105.585938 105.59375 105.585938 105.09375 105.585938 L 99.96875 105.585938 C 99.300781 105.585938 99.21875 105.585938 99.011719 106.128906 Z M 93.136719 118.710938 C 93.34375 119.128906 93.386719 119.167969 93.71875 119.292969 L 92.511719 122.085938 L 92.46875 122.085938 L 86.425781 107.628906 C 86.300781 107.292969 86.050781 106.835938 85.71875 106.503906 L 88.011719 106.503906 Z M 85.09375 122.878906 L 84.675781 122.878906 C 84.71875 122.792969 84.761719 122.710938 84.800781 122.667969 C 84.84375 122.628906 84.84375 122.585938 84.886719 122.585938 Z M 100.511719 106.503906 L 103.34375 106.503906 C 102.71875 107.167969 102.71875 107.878906 102.71875 108.335938 L 102.71875 121.042969 C 102.71875 121.503906 102.71875 122.210938 103.34375 122.878906 L 99.925781 122.878906 C 100.511719 122.210938 100.511719 121.503906 100.511719 121.042969 Z M 100.511719 106.503906 "/>
<path fill-rule="nonzero" fill="rgb(0%, 0%, 0%)" fill-opacity="1" d="M 116.226562 121.863281 C 116.226562 119.820312 115.976562 118.320312 115.144531 117.027344 C 114.558594 116.195312 113.394531 115.445312 111.933594 115.445312 C 107.601562 115.445312 107.601562 120.527344 107.601562 121.863281 C 107.601562 123.195312 107.601562 128.152344 111.933594 128.152344 C 116.226562 128.152344 116.226562 123.195312 116.226562 121.863281 Z M 111.933594 127.613281 C 111.058594 127.613281 109.933594 127.113281 109.558594 125.613281 C 109.308594 124.527344 109.308594 122.988281 109.308594 121.613281 C 109.308594 120.238281 109.308594 118.820312 109.558594 117.820312 C 109.976562 116.363281 111.144531 115.945312 111.933594 115.945312 C 112.933594 115.945312 113.894531 116.570312 114.226562 117.652344 C 114.519531 118.652344 114.558594 119.988281 114.558594 121.613281 C 114.558594 122.988281 114.558594 124.363281 114.308594 125.527344 C 113.933594 127.238281 112.683594 127.613281 111.933594 127.613281 Z M 111.933594 127.613281 "/>
<path fill-rule="nonzero" fill="rgb(0%, 0%, 0%)" fill-opacity="1" d="M 322.417969 118.210938 L 317.335938 106.128906 C 317.125 105.585938 317.125 105.585938 316.375 105.585938 L 311.460938 105.585938 C 310.960938 105.585938 310.585938 105.585938 310.585938 106.042969 C 310.585938 106.503906 311.042969 106.503906 311.167969 106.503906 C 311.5 106.503906 312.210938 106.585938 312.792969 106.792969 L 312.792969 120.960938 C 312.792969 121.542969 312.792969 122.710938 311 122.878906 C 310.5 122.917969 310.5 123.292969 310.5 123.335938 C 310.5 123.792969 310.917969 123.792969 311.417969 123.792969 L 315.5 123.792969 C 316 123.792969 316.375 123.792969 316.375 123.335938 C 316.375 123.085938 316.167969 122.878906 315.960938 122.878906 C 313.917969 122.710938 313.917969 121.585938 313.917969 120.960938 L 313.917969 107.753906 L 313.960938 107.710938 L 320.417969 123.253906 C 320.667969 123.710938 320.835938 123.792969 321 123.792969 C 321.335938 123.792969 321.375 123.585938 321.542969 123.253906 L 328.042969 107.710938 L 328.085938 107.753906 L 328.085938 120.960938 C 328.085938 121.542969 328.085938 122.710938 326.25 122.878906 C 325.75 122.917969 325.75 123.292969 325.75 123.335938 C 325.75 123.792969 326.167969 123.792969 326.667969 123.792969 L 333.75 123.792969 C 334.25 123.792969 334.625 123.792969 334.625 123.335938 C 334.625 123.085938 334.417969 122.878906 334.210938 122.878906 C 332.167969 122.710938 332.167969 121.585938 332.167969 120.960938 L 332.167969 108.417969 C 332.167969 107.835938 332.167969 106.667969 333.960938 106.503906 C 334.25 106.503906 334.460938 106.335938 334.460938 106.042969 C 334.460938 105.585938 334.085938 105.585938 333.585938 105.585938 L 328.460938 105.585938 C 327.792969 105.585938 327.710938 105.585938 327.5 106.128906 Z M 321.625 118.710938 C 321.835938 119.128906 321.875 119.167969 322.210938 119.292969 L 321 122.085938 L 320.960938 122.085938 L 314.917969 107.628906 C 314.792969 107.292969 314.542969 106.835938 314.210938 106.503906 L 316.5 106.503906 Z M 313.585938 122.878906 L 313.167969 122.878906 C 313.210938 122.792969 313.25 122.710938 313.292969 122.667969 C 313.335938 122.628906 313.335938 122.585938 313.375 122.585938 Z M 329 106.503906 L 331.835938 106.503906 C 331.210938 107.167969 331.210938 107.878906 331.210938 108.335938 L 331.210938 121.042969 C 331.210938 121.503906 331.210938 122.210938 331.835938 122.878906 L 328.417969 122.878906 C 329 122.210938 329 121.503906 329 121.042969 Z M 329 106.503906 "/>
<path fill-rule="nonzero" fill="rgb(0%, 0%, 0%)" fill-opacity="1" d="M 341.339844 115.945312 C 341.339844 115.445312 341.339844 115.445312 340.800781 115.445312 C 339.589844 116.613281 337.925781 116.613281 337.175781 116.613281 L 337.175781 117.277344 C 337.589844 117.277344 338.839844 117.277344 339.839844 116.777344 L 339.839844 126.238281 C 339.839844 126.863281 339.839844 127.113281 338.007812 127.113281 L 337.300781 127.113281 L 337.300781 127.777344 C 337.632812 127.777344 339.925781 127.695312 340.589844 127.695312 C 341.175781 127.695312 343.507812 127.777344 343.925781 127.777344 L 343.925781 127.113281 L 343.214844 127.113281 C 341.339844 127.113281 341.339844 126.863281 341.339844 126.238281 Z M 341.339844 115.945312 "/>
<path fill-rule="nonzero" fill="rgb(0%, 0%, 0%)" fill-opacity="1" d="M 498.839844 118.210938 L 493.757812 106.128906 C 493.550781 105.585938 493.550781 105.585938 492.800781 105.585938 L 487.882812 105.585938 C 487.382812 105.585938 487.007812 105.585938 487.007812 106.042969 C 487.007812 106.503906 487.464844 106.503906 487.589844 106.503906 C 487.925781 106.503906 488.632812 106.585938 489.214844 106.792969 L 489.214844 120.960938 C 489.214844 121.542969 489.214844 122.710938 487.425781 122.878906 C 486.925781 122.917969 486.925781 123.292969 486.925781 123.335938 C 486.925781 123.792969 487.339844 123.792969 487.839844 123.792969 L 491.925781 123.792969 C 492.425781 123.792969 492.800781 123.792969 492.800781 123.335938 C 492.800781 123.085938 492.589844 122.878906 492.382812 122.878906 C 490.339844 122.710938 490.339844 121.585938 490.339844 120.960938 L 490.339844 107.753906 L 490.382812 107.710938 L 496.839844 123.253906 C 497.089844 123.710938 497.257812 123.792969 497.425781 123.792969 C 497.757812 123.792969 497.800781 123.585938 497.964844 123.253906 L 504.464844 107.710938 L 504.507812 107.753906 L 504.507812 120.960938 C 504.507812 121.542969 504.507812 122.710938 502.675781 122.878906 C 502.175781 122.917969 502.175781 123.292969 502.175781 123.335938 C 502.175781 123.792969 502.589844 123.792969 503.089844 123.792969 L 510.175781 123.792969 C 510.675781 123.792969 511.050781 123.792969 511.050781 123.335938 C 511.050781 123.085938 510.839844 122.878906 510.632812 122.878906 C 508.589844 122.710938 508.589844 121.585938 508.589844 120.960938 L 508.589844 108.417969 C 508.589844 107.835938 508.589844 106.667969 510.382812 106.503906 C 510.675781 106.503906 510.882812 106.335938 510.882812 106.042969 C 510.882812 105.585938 510.507812 105.585938 510.007812 105.585938 L 504.882812 105.585938 C 504.214844 105.585938 504.132812 105.585938 503.925781 106.128906 Z M 498.050781 118.710938 C 498.257812 119.128906 498.300781 119.167969 498.632812 119.292969 L 497.425781 122.085938 L 497.382812 122.085938 L 491.339844 107.628906 C 491.214844 107.292969 490.964844 106.835938 490.632812 106.503906 L 492.925781 106.503906 Z M 490.007812 122.878906 L 489.589844 122.878906 C 489.632812 122.792969 489.675781 122.710938 489.714844 122.667969 C 489.757812 122.628906 489.757812 122.585938 489.800781 122.585938 Z M 505.425781 106.503906 L 508.257812 106.503906 C 507.632812 107.167969 507.632812 107.878906 507.632812 108.335938 L 507.632812 121.042969 C 507.632812 121.503906 507.632812 122.210938 508.257812 122.878906 L 504.839844 122.878906 C 505.425781 122.210938 505.425781 121.503906 505.425781 121.042969 Z M 505.425781 106.503906 "/>
<path fill-rule="nonzero" fill="rgb(0%, 0%, 0%)" fill-opacity="1" d="M 520.933594 124.402344 L 520.308594 124.402344 C 520.265625 124.820312 520.058594 125.902344 519.808594 126.070312 C 519.683594 126.195312 518.265625 126.195312 517.972656 126.195312 L 514.558594 126.195312 C 516.515625 124.488281 517.183594 123.945312 518.265625 123.070312 C 519.640625 121.988281 520.933594 120.820312 520.933594 119.070312 C 520.933594 116.820312 518.972656 115.445312 516.597656 115.445312 C 514.308594 115.445312 512.722656 117.070312 512.722656 118.777344 C 512.722656 119.695312 513.515625 119.820312 513.722656 119.820312 C 514.140625 119.820312 514.683594 119.488281 514.683594 118.820312 C 514.683594 118.488281 514.558594 117.820312 513.597656 117.820312 C 514.183594 116.527344 515.433594 116.113281 516.308594 116.113281 C 518.183594 116.113281 519.140625 117.570312 519.140625 119.070312 C 519.140625 120.695312 517.972656 121.945312 517.390625 122.613281 L 512.933594 127.070312 C 512.722656 127.238281 512.722656 127.277344 512.722656 127.777344 L 520.390625 127.777344 Z M 520.933594 124.402344 "/>
<path fill-rule="nonzero" fill="rgb(0%, 0%, 0%)" fill-opacity="1" d="M 53.765625 198.863281 C 54.015625 197.90625 54.058594 197.65625 56.058594 197.65625 C 56.640625 197.65625 56.890625 197.65625 56.890625 197.113281 C 56.890625 196.824219 56.640625 196.824219 56.183594 196.824219 L 52.683594 196.824219 C 51.976562 196.824219 51.933594 196.824219 51.640625 197.324219 L 41.933594 212.488281 L 39.851562 197.449219 C 39.765625 196.824219 39.726562 196.824219 39.015625 196.824219 L 35.390625 196.824219 C 34.890625 196.824219 34.601562 196.824219 34.601562 197.324219 C 34.601562 197.65625 34.851562 197.65625 35.351562 197.65625 C 35.726562 197.65625 36.183594 197.699219 36.515625 197.699219 C 36.933594 197.78125 37.101562 197.824219 37.101562 198.15625 C 37.101562 198.238281 37.058594 198.324219 36.976562 198.65625 L 33.601562 212.15625 C 33.351562 213.238281 32.890625 214.074219 30.726562 214.15625 C 30.601562 214.15625 30.265625 214.199219 30.265625 214.65625 C 30.265625 214.90625 30.433594 214.988281 30.640625 214.988281 C 31.476562 214.988281 32.390625 214.90625 33.308594 214.90625 C 34.183594 214.90625 35.140625 214.988281 36.015625 214.988281 C 36.140625 214.988281 36.515625 214.988281 36.515625 214.449219 C 36.515625 214.15625 36.226562 214.15625 36.015625 214.15625 C 34.515625 214.15625 34.226562 213.613281 34.226562 212.988281 C 34.226562 212.824219 34.226562 212.65625 34.308594 212.363281 L 37.933594 197.90625 L 37.976562 197.90625 L 40.265625 214.363281 C 40.308594 214.699219 40.351562 214.988281 40.640625 214.988281 C 40.933594 214.988281 41.101562 214.699219 41.226562 214.53125 L 51.976562 197.699219 L 52.015625 197.699219 L 48.183594 212.90625 C 47.933594 213.949219 47.890625 214.15625 45.765625 214.15625 C 45.351562 214.15625 45.058594 214.15625 45.058594 214.65625 C 45.058594 214.988281 45.351562 214.988281 45.433594 214.988281 C 46.183594 214.988281 47.976562 214.90625 48.726562 214.90625 C 49.808594 214.90625 50.976562 214.988281 52.058594 214.988281 C 52.226562 214.988281 52.558594 214.988281 52.558594 214.449219 C 52.558594 214.15625 52.308594 214.15625 51.808594 214.15625 C 50.851562 214.15625 50.101562 214.15625 50.101562 213.699219 C 50.101562 213.574219 50.101562 213.53125 50.226562 213.03125 Z M 53.765625 198.863281 "/>
<path fill-rule="nonzero" fill="rgb(0%, 0%, 0%)" fill-opacity="1" d="M 61.121094 207.144531 C 61.121094 206.644531 61.121094 206.644531 60.582031 206.644531 C 59.371094 207.808594 57.707031 207.808594 56.957031 207.808594 L 56.957031 208.476562 C 57.371094 208.476562 58.621094 208.476562 59.621094 207.976562 L 59.621094 217.433594 C 59.621094 218.058594 59.621094 218.308594 57.789062 218.308594 L 57.082031 218.308594 L 57.082031 218.976562 C 57.414062 218.976562 59.707031 218.894531 60.371094 218.894531 C 60.957031 218.894531 63.289062 218.976562 63.707031 218.976562 L 63.707031 218.308594 L 62.996094 218.308594 C 61.121094 218.308594 61.121094 218.058594 61.121094 217.433594 Z M 61.121094 207.144531 "/>
<path fill-rule="nonzero" fill="rgb(0%, 0%, 0%)" fill-opacity="1" d="M 83.070312 207.613281 L 77.78125 202.324219 C 77.445312 201.988281 77.40625 201.949219 77.195312 201.949219 C 76.90625 201.949219 76.65625 202.15625 76.65625 202.488281 C 76.65625 202.65625 76.695312 202.699219 76.988281 202.988281 L 82.320312 208.324219 L 76.988281 213.699219 C 76.695312 213.988281 76.65625 214.03125 76.65625 214.199219 C 76.65625 214.53125 76.90625 214.738281 77.195312 214.738281 C 77.40625 214.738281 77.445312 214.699219 77.78125 214.363281 L 83.070312 209.074219 L 88.570312 214.574219 C 88.613281 214.613281 88.78125 214.738281 88.945312 214.738281 C 89.28125 214.738281 89.488281 214.53125 89.488281 214.199219 C 89.488281 214.15625 89.488281 214.074219 89.40625 213.90625 C 89.363281 213.863281 85.15625 209.699219 83.820312 208.324219 L 88.695312 203.488281 C 88.820312 203.324219 89.238281 202.988281 89.363281 202.824219 C 89.363281 202.78125 89.488281 202.65625 89.488281 202.488281 C 89.488281 202.15625 89.28125 201.949219 88.945312 201.949219 C 88.738281 201.949219 88.65625 202.03125 88.363281 202.324219 Z M 83.070312 207.613281 "/>
<path fill-rule="nonzero" fill="rgb(0%, 0%, 0%)" fill-opacity="1" d="M 111.59375 205.988281 C 111.34375 204.324219 110.261719 202.824219 108.179688 202.824219 C 106.554688 202.824219 104.84375 203.28125 102.761719 205.324219 C 100.554688 207.53125 100.386719 210.03125 100.386719 210.824219 C 100.386719 212.488281 101.554688 215.574219 105.261719 215.574219 C 111.59375 215.574219 114.34375 206.65625 114.34375 202.824219 C 114.34375 198.613281 111.886719 195.949219 108.59375 195.949219 C 104.761719 195.949219 103.511719 199.40625 103.511719 200.15625 C 103.511719 200.53125 103.761719 201.074219 104.554688 201.074219 C 105.429688 201.074219 105.96875 200.28125 105.96875 199.699219 C 105.96875 198.738281 105.136719 198.738281 104.71875 198.738281 C 105.886719 196.78125 107.804688 196.613281 108.554688 196.613281 C 110.511719 196.613281 112.34375 197.988281 112.34375 201.449219 C 112.34375 202.488281 112.179688 203.824219 111.636719 205.988281 Z M 105.34375 214.824219 C 102.429688 214.824219 102.429688 212.074219 102.429688 211.824219 C 102.429688 211.113281 103.09375 207.40625 104.179688 205.78125 C 105.21875 204.28125 106.554688 203.40625 108.179688 203.40625 C 111.09375 203.40625 111.136719 206.40625 111.136719 206.949219 C 111.136719 208.863281 109.429688 214.824219 105.34375 214.824219 Z M 105.34375 214.824219 "/>
<path fill-rule="nonzero" fill="rgb(0%, 0%, 0%)" fill-opacity="1" d="M 126.636719 196.449219 C 126.46875 196.074219 126.386719 195.949219 125.925781 195.949219 C 125.511719 195.949219 125.425781 196.074219 125.261719 196.449219 L 116.261719 214.449219 C 116.136719 214.699219 116.136719 214.738281 116.136719 214.78125 C 116.136719 214.988281 116.300781 214.988281 116.71875 214.988281 L 135.175781 214.988281 C 135.59375 214.988281 135.761719 214.988281 135.761719 214.78125 C 135.761719 214.738281 135.761719 214.699219 135.636719 214.449219 Z M 125.09375 198.613281 L 132.261719 212.988281 L 117.925781 212.988281 Z M 125.09375 198.613281 "/>
<path fill-rule="nonzero" fill="rgb(0%, 0%, 0%)" fill-opacity="1" d="M 145.808594 221.363281 C 145.808594 221.28125 145.808594 221.238281 145.347656 220.78125 C 142.058594 217.449219 141.183594 212.40625 141.183594 208.324219 C 141.183594 203.699219 142.183594 199.074219 145.472656 195.78125 C 145.808594 195.449219 145.808594 195.40625 145.808594 195.324219 C 145.808594 195.113281 145.722656 195.03125 145.558594 195.03125 C 145.265625 195.03125 142.890625 196.863281 141.308594 200.238281 C 139.972656 203.15625 139.640625 206.113281 139.640625 208.324219 C 139.640625 210.40625 139.933594 213.613281 141.390625 216.65625 C 143.015625 219.90625 145.265625 221.65625 145.558594 221.65625 C 145.722656 221.65625 145.808594 221.574219 145.808594 221.363281 Z M 145.808594 221.363281 "/>
<path fill-rule="nonzero" fill="rgb(0%, 0%, 0%)" fill-opacity="1" d="M 155.15625 197.988281 C 155.15625 197.324219 155.15625 197.28125 154.53125 197.28125 C 152.863281 198.988281 150.53125 198.988281 149.699219 198.988281 L 149.699219 199.824219 C 150.238281 199.824219 151.78125 199.824219 153.15625 199.113281 L 153.15625 212.90625 C 153.15625 213.863281 153.074219 214.15625 150.699219 214.15625 L 149.863281 214.15625 L 149.863281 214.988281 C 150.78125 214.90625 153.074219 214.90625 154.15625 214.90625 C 155.199219 214.90625 157.53125 214.90625 158.449219 214.988281 L 158.449219 214.15625 L 157.613281 214.15625 C 155.199219 214.15625 155.15625 213.863281 155.15625 212.90625 Z M 155.15625 197.988281 "/>
<path fill-rule="nonzero" fill="rgb(0%, 0%, 0%)" fill-opacity="1" d="M 168.273438 208.324219 C 168.273438 206.28125 167.980469 203.074219 166.523438 200.03125 C 164.941406 196.78125 162.648438 195.03125 162.398438 195.03125 C 162.230469 195.03125 162.105469 195.15625 162.105469 195.324219 C 162.105469 195.40625 162.105469 195.449219 162.605469 195.949219 C 165.230469 198.574219 166.730469 202.78125 166.730469 208.324219 C 166.730469 212.90625 165.773438 217.574219 162.480469 220.90625 C 162.105469 221.238281 162.105469 221.28125 162.105469 221.363281 C 162.105469 221.53125 162.230469 221.65625 162.398438 221.65625 C 162.648438 221.65625 165.066406 219.824219 166.605469 216.449219 C 167.980469 213.53125 168.273438 210.574219 168.273438 208.324219 Z M 168.273438 208.324219 "/>
<path fill-rule="nonzero" fill="rgb(0%, 0%, 0%)" fill-opacity="1" d="M 334.328125 198.863281 C 334.578125 197.90625 334.617188 197.65625 336.617188 197.65625 C 337.203125 197.65625 337.453125 197.65625 337.453125 197.113281 C 337.453125 196.824219 337.203125 196.824219 336.742188 196.824219 L 333.242188 196.824219 C 332.535156 196.824219 332.492188 196.824219 332.203125 197.324219 L 322.492188 212.488281 L 320.410156 197.449219 C 320.328125 196.824219 320.285156 196.824219 319.578125 196.824219 L 315.953125 196.824219 C 315.453125 196.824219 315.160156 196.824219 315.160156 197.324219 C 315.160156 197.65625 315.410156 197.65625 315.910156 197.65625 C 316.285156 197.65625 316.742188 197.699219 317.078125 197.699219 C 317.492188 197.78125 317.660156 197.824219 317.660156 198.15625 C 317.660156 198.238281 317.617188 198.324219 317.535156 198.65625 L 314.160156 212.15625 C 313.910156 213.238281 313.453125 214.074219 311.285156 214.15625 C 311.160156 214.15625 310.828125 214.199219 310.828125 214.65625 C 310.828125 214.90625 310.992188 214.988281 311.203125 214.988281 C 312.035156 214.988281 312.953125 214.90625 313.867188 214.90625 C 314.742188 214.90625 315.703125 214.988281 316.578125 214.988281 C 316.703125 214.988281 317.078125 214.988281 317.078125 214.449219 C 317.078125 214.15625 316.785156 214.15625 316.578125 214.15625 C 315.078125 214.15625 314.785156 213.613281 314.785156 212.988281 C 314.785156 212.824219 314.785156 212.65625 314.867188 212.363281 L 318.492188 197.90625 L 318.535156 197.90625 L 320.828125 214.363281 C 320.867188 214.699219 320.910156 214.988281 321.203125 214.988281 C 321.492188 214.988281 321.660156 214.699219 321.785156 214.53125 L 332.535156 197.699219 L 332.578125 197.699219 L 328.742188 212.90625 C 328.492188 213.949219 328.453125 214.15625 326.328125 214.15625 C 325.910156 214.15625 325.617188 214.15625 325.617188 214.65625 C 325.617188 214.988281 325.910156 214.988281 325.992188 214.988281 C 326.742188 214.988281 328.535156 214.90625 329.285156 214.90625 C 330.367188 214.90625 331.535156 214.988281 332.617188 214.988281 C 332.785156 214.988281 333.117188 214.988281 333.117188 214.449219 C 333.117188 214.15625 332.867188 214.15625 332.367188 214.15625 C 331.410156 214.15625 330.660156 214.15625 330.660156 213.699219 C 330.660156 213.574219 330.660156 213.53125 330.785156 213.03125 Z M 334.328125 198.863281 "/>
<path fill-rule="nonzero" fill="rgb(0%, 0%, 0%)" fill-opacity="1" d="M 341.683594 207.144531 C 341.683594 206.644531 341.683594 206.644531 341.140625 206.644531 C 339.933594 207.808594 338.265625 207.808594 337.515625 207.808594 L 337.515625 208.476562 C 337.933594 208.476562 339.183594 208.476562 340.183594 207.976562 L 340.183594 217.433594 C 340.183594 218.058594 340.183594 218.308594 338.351562 218.308594 L 337.640625 218.308594 L 337.640625 218.976562 C 337.976562 218.976562 340.265625 218.894531 340.933594 218.894531 C 341.515625 218.894531 343.851562 218.976562 344.265625 218.976562 L 344.265625 218.308594 L 343.558594 218.308594 C 341.683594 218.308594 341.683594 218.058594 341.683594 217.433594 Z M 341.683594 207.144531 "/>
<path fill="none" stroke-width="0.39848" stroke-linecap="butt" stroke-linejoin="miter" stroke="rgb(0%, 0%, 0%)" stroke-opacity="1" stroke-miterlimit="10" d="M 50.613457 34.392761 L 73.725761 34.392761 " transform="matrix(2.666667, 0, 0, -2.666667, 276.480001, 116.631999)"/>
<path fill="none" stroke-width="0.39848" stroke-linecap="round" stroke-linejoin="round" stroke="rgb(0%, 0%, 0%)" stroke-opacity="1" stroke-miterlimit="10" d="M -2.074554 2.390447 C -1.69516 0.957829 -0.85141 0.278142 -0.000335693 -0.000178337 C -0.85141 -0.277034 -1.69516 -0.956721 -2.074554 -2.390803 " transform="matrix(2.666667, 0, 0, -2.666667, 473.614176, 24.917493)"/>
<path fill-rule="nonzero" fill="rgb(0%, 0%, 0%)" fill-opacity="1" d="M 432.761719 16.632812 C 431.554688 16.632812 431.386719 16.632812 431.386719 15.84375 L 431.386719 12.84375 C 431.46875 12.925781 432.34375 13.882812 433.886719 13.882812 C 436.34375 13.882812 438.429688 12.050781 438.429688 9.71875 C 438.429688 7.425781 436.554688 5.507812 434.179688 5.507812 C 433.136719 5.507812 432.054688 5.925781 431.304688 6.675781 L 431.304688 5.507812 L 428.511719 5.71875 L 428.511719 6.382812 C 429.804688 6.382812 429.886719 6.507812 429.886719 7.257812 L 429.886719 15.84375 C 429.886719 16.632812 429.71875 16.632812 428.511719 16.632812 L 428.511719 17.34375 C 428.554688 17.34375 429.84375 17.257812 430.636719 17.257812 C 431.304688 17.257812 432.59375 17.300781 432.761719 17.34375 Z M 431.386719 7.507812 C 431.929688 6.59375 433.011719 6.132812 433.96875 6.132812 C 435.554688 6.132812 436.761719 7.757812 436.761719 9.71875 C 436.761719 11.84375 435.34375 13.382812 433.804688 13.382812 C 432.136719 13.382812 431.429688 11.96875 431.386719 11.84375 Z M 431.386719 7.507812 "/>
<path fill-rule="nonzero" fill="rgb(0%, 0%, 0%)" fill-opacity="1" d="M 443.019531 9.46875 C 443.019531 7.925781 443.726562 6.050781 445.519531 6.050781 C 445.351562 6.175781 445.1875 6.425781 445.1875 6.71875 C 445.1875 7.34375 445.6875 7.550781 446.019531 7.550781 C 446.476562 7.550781 446.894531 7.257812 446.894531 6.71875 C 446.894531 6.09375 446.269531 5.507812 445.394531 5.507812 C 444.476562 5.507812 443.4375 6.09375 442.894531 7.507812 L 442.894531 5.507812 L 440.226562 5.71875 L 440.226562 6.382812 C 441.476562 6.382812 441.601562 6.507812 441.601562 7.425781 L 441.601562 12.257812 C 441.601562 13.050781 441.4375 13.050781 440.226562 13.050781 L 440.226562 13.71875 C 440.3125 13.71875 441.5625 13.632812 442.351562 13.632812 C 443.144531 13.632812 443.9375 13.675781 444.769531 13.71875 L 444.769531 13.050781 L 444.394531 13.050781 C 443.019531 13.050781 443.019531 12.84375 443.019531 12.21875 Z M 443.019531 9.46875 "/>
<path fill-rule="nonzero" fill="rgb(0%, 0%, 0%)" fill-opacity="1" d="M 452.921875 10.207031 C 452.921875 9.832031 452.882812 9.832031 452.421875 9.832031 C 451.507812 10.664062 450.007812 10.664062 449.757812 10.664062 L 449.546875 10.664062 L 449.546875 11.246094 L 449.757812 11.246094 C 450.046875 11.246094 450.921875 11.207031 451.714844 10.871094 L 451.714844 17.539062 C 451.714844 17.914062 451.714844 18.082031 450.296875 18.082031 L 449.632812 18.082031 L 449.632812 18.664062 C 450.339844 18.621094 451.546875 18.621094 452.296875 18.621094 C 453.089844 18.621094 454.257812 18.621094 455.007812 18.664062 L 455.007812 18.082031 L 454.339844 18.082031 C 452.921875 18.082031 452.921875 17.914062 452.921875 17.539062 Z M 452.921875 10.207031 "/>
<path fill="none" stroke-width="0.39848" stroke-linecap="butt" stroke-linejoin="miter" stroke="rgb(0%, 0%, 0%)" stroke-opacity="1" stroke-miterlimit="10" d="M 19.526543 25.561218 L 19.526543 8.424011 " transform="matrix(2.666667, 0, 0, -2.666667, 276.480001, 116.631999)"/>
<path fill="none" stroke-width="0.39848" stroke-linecap="round" stroke-linejoin="round" stroke="rgb(0%, 0%, 0%)" stroke-opacity="1" stroke-miterlimit="10" d="M -2.071842 2.391205 C -1.693913 0.958588 -0.850163 0.2789 0.00237656 0.000579834 C -0.850163 -0.28067 -1.693913 -0.955963 -2.071842 -2.390045 " transform="matrix(0, 2.666667, 2.666667, 0, 328.549235, 94.692881)"/>
<path fill-rule="nonzero" fill="rgb(0%, 0%, 0%)" fill-opacity="1" d="M 305.328125 64.257812 C 305.203125 63.921875 305.160156 63.839844 304.953125 63.839844 C 304.742188 63.839844 304.660156 64.007812 304.535156 64.214844 L 300.328125 75.339844 C 300.078125 75.921875 299.703125 76.214844 299.203125 76.257812 C 299.117188 76.257812 298.828125 76.296875 298.828125 76.589844 C 298.828125 76.921875 299.117188 76.921875 299.453125 76.921875 L 302.410156 76.921875 C 302.742188 76.921875 303.035156 76.921875 303.035156 76.589844 C 303.035156 76.296875 302.785156 76.296875 302.617188 76.257812 C 302.367188 76.257812 301.910156 76.171875 301.910156 75.046875 C 301.910156 74.464844 302.035156 73.839844 302.160156 73.257812 L 306.242188 73.257812 C 306.910156 75.089844 306.910156 75.382812 306.953125 75.757812 C 306.492188 76.214844 305.992188 76.257812 305.785156 76.257812 C 305.578125 76.296875 305.453125 76.421875 305.453125 76.589844 C 305.453125 76.921875 305.742188 76.921875 306.078125 76.921875 L 310.910156 76.921875 C 311.242188 76.921875 311.578125 76.921875 311.578125 76.589844 C 311.578125 76.339844 311.328125 76.296875 311.160156 76.257812 C 310.742188 76.214844 310.410156 75.882812 310.035156 75.046875 Z M 302.367188 72.632812 C 302.785156 70.964844 303.367188 69.382812 303.992188 67.839844 C 304.578125 69.089844 305.703125 71.757812 305.992188 72.632812 Z M 301.242188 74.671875 L 301.285156 74.714844 L 301.285156 74.882812 C 301.242188 74.921875 301.242188 74.964844 301.242188 75.046875 C 301.242188 75.132812 301.242188 75.839844 301.535156 76.257812 L 300.535156 76.257812 C 300.742188 76.007812 300.828125 75.796875 300.953125 75.507812 Z M 304.285156 66.839844 L 304.953125 65.046875 L 309.453125 75.296875 C 309.535156 75.507812 309.742188 75.921875 309.992188 76.257812 L 307.367188 76.257812 C 307.535156 76.171875 307.617188 75.882812 307.617188 75.671875 C 307.617188 74.546875 305.992188 70.757812 305.203125 68.921875 Z M 304.285156 66.839844 "/>
<path fill-rule="nonzero" fill="rgb(0%, 0%, 0%)" fill-opacity="1" d="M 317.21875 71.121094 C 317.21875 70.746094 317.175781 70.746094 316.71875 70.746094 C 315.800781 71.582031 314.300781 71.582031 314.050781 71.582031 L 313.84375 71.582031 L 313.84375 72.164062 L 314.050781 72.164062 C 314.34375 72.164062 315.21875 72.121094 316.007812 71.789062 L 316.007812 78.457031 C 316.007812 78.832031 316.007812 78.996094 314.59375 78.996094 L 313.925781 78.996094 L 313.925781 79.582031 C 314.632812 79.539062 315.84375 79.539062 316.59375 79.539062 C 317.382812 79.539062 318.550781 79.539062 319.300781 79.582031 L 319.300781 78.996094 L 318.632812 78.996094 C 317.21875 78.996094 317.21875 78.832031 317.21875 78.457031 Z M 317.21875 71.121094 "/>
<path fill="none" stroke-width="0.39848" stroke-linecap="butt" stroke-linejoin="miter" stroke="rgb(0%, 0%, 0%)" stroke-opacity="1" stroke-miterlimit="10" d="M 85.683281 26.557312 L 85.683281 8.424011 " transform="matrix(2.666667, 0, 0, -2.666667, 276.480001, 116.631999)"/>
<path fill="none" stroke-width="0.39848" stroke-linecap="round" stroke-linejoin="round" stroke="rgb(0%, 0%, 0%)" stroke-opacity="1" stroke-miterlimit="10" d="M -2.071842 2.393173 C -1.693913 0.954697 -0.850163 0.279404 0.00237656 -0.00184631 C -0.850163 -0.278702 -1.693913 -0.95546 -2.071842 -2.392471 " transform="matrix(0, 2.666667, 2.666667, 0, 504.973674, 94.692881)"/>
<path fill-rule="nonzero" fill="rgb(0%, 0%, 0%)" fill-opacity="1" d="M 517.230469 66.851562 C 518.769531 66.1875 519.4375 65.9375 519.894531 65.6875 C 520.269531 65.5625 520.4375 65.476562 520.4375 65.101562 C 520.4375 64.8125 520.1875 64.519531 519.855469 64.519531 C 519.730469 64.519531 519.6875 64.519531 519.480469 64.6875 L 516.9375 66.394531 L 517.230469 63.644531 C 517.269531 63.3125 517.230469 62.851562 516.644531 62.851562 C 516.4375 62.851562 516.0625 62.976562 516.0625 63.394531 C 516.0625 63.5625 516.144531 64.101562 516.1875 64.3125 C 516.230469 64.601562 516.355469 65.976562 516.394531 66.394531 L 513.855469 64.6875 C 513.6875 64.601562 513.644531 64.519531 513.480469 64.519531 C 513.105469 64.519531 512.894531 64.8125 512.894531 65.101562 C 512.894531 65.476562 513.105469 65.601562 513.269531 65.644531 L 516.0625 66.851562 C 514.5625 67.519531 513.855469 67.769531 513.394531 67.976562 C 513.0625 68.144531 512.894531 68.226562 512.894531 68.5625 C 512.894531 68.894531 513.105469 69.144531 513.480469 69.144531 C 513.605469 69.144531 513.644531 69.144531 513.855469 68.976562 L 516.394531 67.3125 L 516.0625 70.269531 C 516.0625 70.6875 516.4375 70.851562 516.644531 70.851562 C 516.894531 70.851562 517.230469 70.6875 517.230469 70.269531 C 517.230469 70.101562 517.144531 69.5625 517.144531 69.394531 C 517.105469 69.0625 516.980469 67.726562 516.9375 67.3125 L 519.144531 68.769531 C 519.644531 69.144531 519.6875 69.144531 519.855469 69.144531 C 520.1875 69.144531 520.4375 68.894531 520.4375 68.5625 C 520.4375 68.1875 520.1875 68.101562 520.019531 68.019531 Z M 517.230469 66.851562 "/>
<path fill-rule="nonzero" fill="rgb(0%, 0%, 0%)" fill-opacity="1" d="M 528.324219 71.433594 L 525.78125 65.390625 C 525.65625 65.097656 525.65625 65.097656 525.28125 65.097656 L 522.824219 65.097656 C 522.574219 65.097656 522.363281 65.097656 522.363281 65.347656 C 522.363281 65.597656 522.613281 65.597656 522.699219 65.597656 C 522.863281 65.597656 523.199219 65.597656 523.488281 65.722656 L 523.488281 72.808594 C 523.488281 73.097656 523.488281 73.683594 522.574219 73.765625 C 522.324219 73.765625 522.324219 73.972656 522.324219 73.972656 C 522.324219 74.222656 522.574219 74.222656 522.78125 74.222656 L 524.863281 74.222656 C 525.074219 74.222656 525.28125 74.222656 525.28125 73.972656 C 525.28125 73.847656 525.199219 73.765625 525.074219 73.765625 C 524.074219 73.683594 524.074219 73.140625 524.074219 72.808594 L 524.074219 66.183594 L 527.324219 73.933594 C 527.40625 74.183594 527.53125 74.222656 527.574219 74.222656 C 527.738281 74.222656 527.78125 74.097656 527.863281 73.972656 L 531.113281 66.183594 L 531.113281 72.808594 C 531.113281 73.097656 531.113281 73.683594 530.238281 73.765625 C 529.988281 73.765625 529.988281 73.972656 529.988281 73.972656 C 529.988281 74.222656 530.199219 74.222656 530.40625 74.222656 L 533.988281 74.222656 C 534.199219 74.222656 534.40625 74.222656 534.40625 73.972656 C 534.40625 73.847656 534.324219 73.765625 534.199219 73.765625 C 533.15625 73.683594 533.15625 73.140625 533.15625 72.808594 L 533.15625 66.515625 C 533.15625 66.265625 533.15625 65.683594 534.074219 65.597656 C 534.199219 65.558594 534.324219 65.515625 534.324219 65.347656 C 534.324219 65.097656 534.113281 65.097656 533.90625 65.097656 L 531.324219 65.097656 C 530.988281 65.097656 530.949219 65.097656 530.824219 65.390625 Z M 527.90625 71.683594 C 528.03125 71.890625 528.03125 71.890625 528.199219 71.972656 L 527.613281 73.390625 L 527.574219 73.390625 L 524.53125 66.140625 C 524.488281 65.972656 524.363281 65.722656 524.199219 65.597656 L 525.363281 65.597656 Z M 523.90625 73.765625 L 523.65625 73.765625 C 523.699219 73.722656 523.738281 73.683594 523.738281 73.640625 C 523.78125 73.640625 523.78125 73.640625 523.78125 73.597656 Z M 531.574219 65.597656 L 532.988281 65.597656 C 532.699219 65.933594 532.699219 66.265625 532.699219 66.515625 L 532.699219 72.847656 C 532.699219 73.097656 532.699219 73.433594 533.03125 73.765625 L 531.28125 73.765625 C 531.574219 73.433594 531.574219 73.097656 531.574219 72.847656 Z M 531.574219 65.597656 "/>
<path fill-rule="nonzero" fill="rgb(0%, 0%, 0%)" fill-opacity="1" d="M 542.496094 75.625 L 541.910156 75.625 C 541.910156 75.875 541.746094 76.707031 541.535156 76.832031 C 541.453125 76.917969 540.328125 76.917969 540.121094 76.917969 L 537.535156 76.917969 C 538.410156 76.292969 539.371094 75.542969 540.160156 75 C 541.371094 74.167969 542.496094 73.417969 542.496094 72 C 542.496094 70.292969 540.871094 69.375 538.996094 69.375 C 537.203125 69.375 535.871094 70.375 535.871094 71.707031 C 535.871094 72.375 536.453125 72.5 536.660156 72.5 C 536.996094 72.5 537.410156 72.25 537.410156 71.707031 C 537.410156 71.25 537.078125 70.957031 536.660156 70.957031 C 537.035156 70.332031 537.828125 69.957031 538.703125 69.957031 C 539.996094 69.957031 541.078125 70.707031 541.078125 72 C 541.078125 73.125 540.285156 74 539.285156 74.832031 L 536.035156 77.582031 C 535.910156 77.707031 535.871094 77.707031 535.871094 77.792969 L 535.871094 78.207031 L 542.035156 78.207031 Z M 542.496094 75.625 "/>
<path fill="none" stroke-width="0.39848" stroke-linecap="butt" stroke-linejoin="miter" stroke="rgb(0%, 0%, 0%)" stroke-opacity="1" stroke-miterlimit="10" d="M -54.726387 -0.1922 L 7.695 -0.1922 " transform="matrix(2.666667, 0, 0, -2.666667, 276.480001, 116.631999)"/>
<path fill="none" stroke-width="0.39848" stroke-linecap="round" stroke-linejoin="round" stroke="rgb(0%, 0%, 0%)" stroke-opacity="1" stroke-miterlimit="10" d="M -2.069756 2.392155 C -1.694756 0.958073 -0.851006 0.278385 0.0000686646 0.00152969 C -0.851006 -0.27972 -1.694756 -0.956478 -2.069756 -2.389095 " transform="matrix(2.666667, 0, 0, -2.666667, 297.531067, 117.14861)"/>
<g clip-path="url(#clip-0)">
<path fill="none" stroke-width="2.33075" stroke-linecap="butt" stroke-linejoin="miter" stroke="rgb(0%, 0%, 0%)" stroke-opacity="1" stroke-miterlimit="10" d="M -29.746407 -14.72345 L -19.051582 -18.993469 " transform="matrix(2.666667, 0, 0, -2.666667, 276.480001, 116.631999)"/>
</g>
<path fill="none" stroke-width="1.53377" stroke-linecap="butt" stroke-linejoin="miter" stroke="rgb(100%, 100%, 100%)" stroke-opacity="1" stroke-miterlimit="10" d="M -29.746407 -14.72345 L -19.051582 -18.993469 " transform="matrix(2.666667, 0, 0, -2.666667, 276.480001, 116.631999)"/>
<path fill="none" stroke-width="0.39848" stroke-linecap="round" stroke-linejoin="round" stroke="rgb(0%, 0%, 0%)" stroke-opacity="1" stroke-miterlimit="10" d="M -1.292512 2.560154 C -0.664553 1.208274 1.024995 0.0498635 1.990657 0.00156835 C 1.023293 -0.0486091 -0.668999 -1.206778 -1.293452 -2.558578 " transform="matrix(2.476533, 0.98856, 0.98856, -2.476533, 225.681803, 167.286001)"/>
<path fill-rule="nonzero" fill="rgb(0%, 0%, 0%)" fill-opacity="1" d="M 190.902344 169.511719 C 190.902344 169.46875 190.945312 169.21875 190.945312 169.21875 C 190.945312 169.09375 190.902344 168.929688 190.652344 168.929688 C 190.277344 168.929688 188.734375 169.09375 188.277344 169.136719 C 188.152344 169.136719 187.859375 169.179688 187.859375 169.554688 C 187.859375 169.804688 188.152344 169.804688 188.359375 169.804688 C 189.234375 169.804688 189.234375 169.96875 189.234375 170.09375 C 189.234375 170.21875 189.195312 170.34375 189.195312 170.511719 L 186.570312 181.011719 C 186.445312 181.34375 186.445312 181.386719 186.445312 181.429688 C 186.445312 181.71875 186.695312 182.011719 187.109375 182.011719 C 187.320312 182.011719 187.652344 181.929688 187.859375 181.554688 C 187.902344 181.429688 188.070312 180.761719 188.152344 180.386719 L 188.609375 178.71875 C 188.652344 178.429688 188.859375 177.71875 188.902344 177.46875 C 189.070312 176.761719 189.070312 176.71875 189.445312 176.136719 C 190.070312 175.21875 190.984375 174.179688 192.445312 174.179688 C 193.484375 174.179688 193.527344 175.011719 193.527344 175.46875 C 193.527344 176.59375 192.734375 178.636719 192.445312 179.429688 C 192.234375 179.96875 192.152344 180.136719 192.152344 180.429688 C 192.152344 181.429688 192.984375 182.011719 193.902344 182.011719 C 195.777344 182.011719 196.609375 179.46875 196.609375 179.179688 C 196.609375 178.929688 196.359375 178.929688 196.277344 178.929688 C 196.027344 178.929688 196.027344 179.054688 195.945312 179.261719 C 195.527344 180.761719 194.695312 181.511719 193.984375 181.511719 C 193.570312 181.511719 193.484375 181.261719 193.484375 180.84375 C 193.484375 180.429688 193.609375 180.179688 193.945312 179.34375 C 194.152344 178.761719 194.902344 176.804688 194.902344 175.761719 C 194.902344 175.46875 194.902344 174.679688 194.234375 174.136719 C 193.902344 173.929688 193.359375 173.636719 192.484375 173.636719 C 191.152344 173.636719 190.152344 174.386719 189.484375 175.179688 Z M 190.902344 169.511719 "/>
<path fill-rule="nonzero" fill="rgb(0%, 0%, 0%)" fill-opacity="1" d="M 202.800781 176.046875 C 202.800781 175.671875 202.757812 175.671875 202.300781 175.671875 C 201.382812 176.503906 199.882812 176.503906 199.632812 176.503906 L 199.425781 176.503906 L 199.425781 177.085938 L 199.632812 177.085938 C 199.925781 177.085938 200.800781 177.046875 201.59375 176.710938 L 201.59375 183.378906 C 201.59375 183.753906 201.59375 183.921875 200.175781 183.921875 L 199.507812 183.921875 L 199.507812 184.503906 C 200.21875 184.460938 201.425781 184.460938 202.175781 184.460938 C 202.96875 184.460938 204.132812 184.460938 204.882812 184.503906 L 204.882812 183.921875 L 204.21875 183.921875 C 202.800781 183.921875 202.800781 183.753906 202.800781 183.378906 Z M 202.800781 176.046875 "/>
<path fill="none" stroke-width="2.33075" stroke-linecap="butt" stroke-linejoin="miter" stroke="rgb(0%, 0%, 0%)" stroke-opacity="1" stroke-miterlimit="10" d="M 45.964043 13.627136 L 57.175957 19.490906 " transform="matrix(2.666667, 0, 0, -2.666667, 276.480001, 116.631999)"/>
<path fill="none" stroke-width="1.53377" stroke-linecap="butt" stroke-linejoin="miter" stroke="rgb(100%, 100%, 100%)" stroke-opacity="1" stroke-miterlimit="10" d="M 45.964043 13.627136 L 57.175957 19.490906 " transform="matrix(2.666667, 0, 0, -2.666667, 276.480001, 116.631999)"/>
<path fill="none" stroke-width="0.39848" stroke-linecap="round" stroke-linejoin="round" stroke="rgb(0%, 0%, 0%)" stroke-opacity="1" stroke-miterlimit="10" d="M -1.294662 2.559071 C -0.666023 1.207015 1.025023 0.04987 1.989894 -0.00177651 C 1.022614 -0.0464053 -0.668709 -1.206811 -1.296138 -2.558266 " transform="matrix(2.362933, -1.23576, -1.23576, -2.362933, 428.952067, 64.654053)"/>
<path fill-rule="nonzero" fill="rgb(0%, 0%, 0%)" fill-opacity="1" d="M 393.359375 49.871094 C 393.359375 49.832031 393.402344 49.582031 393.402344 49.582031 C 393.402344 49.457031 393.359375 49.289062 393.109375 49.289062 C 392.734375 49.289062 391.195312 49.457031 390.734375 49.496094 C 390.609375 49.496094 390.320312 49.539062 390.320312 49.914062 C 390.320312 50.164062 390.609375 50.164062 390.820312 50.164062 C 391.695312 50.164062 391.695312 50.332031 391.695312 50.457031 C 391.695312 50.582031 391.652344 50.707031 391.652344 50.871094 L 389.027344 61.371094 C 388.902344 61.707031 388.902344 61.746094 388.902344 61.789062 C 388.902344 62.082031 389.152344 62.371094 389.570312 62.371094 C 389.777344 62.371094 390.109375 62.289062 390.320312 61.914062 C 390.359375 61.789062 390.527344 61.121094 390.609375 60.746094 L 391.070312 59.082031 C 391.109375 58.789062 391.320312 58.082031 391.359375 57.832031 C 391.527344 57.121094 391.527344 57.082031 391.902344 56.496094 C 392.527344 55.582031 393.445312 54.539062 394.902344 54.539062 C 395.945312 54.539062 395.984375 55.371094 395.984375 55.832031 C 395.984375 56.957031 395.195312 58.996094 394.902344 59.789062 C 394.695312 60.332031 394.609375 60.496094 394.609375 60.789062 C 394.609375 61.789062 395.445312 62.371094 396.359375 62.371094 C 398.234375 62.371094 399.070312 59.832031 399.070312 59.539062 C 399.070312 59.289062 398.820312 59.289062 398.734375 59.289062 C 398.484375 59.289062 398.484375 59.414062 398.402344 59.621094 C 397.984375 61.121094 397.152344 61.871094 396.445312 61.871094 C 396.027344 61.871094 395.945312 61.621094 395.945312 61.207031 C 395.945312 60.789062 396.070312 60.539062 396.402344 59.707031 C 396.609375 59.121094 397.359375 57.164062 397.359375 56.121094 C 397.359375 55.832031 397.359375 55.039062 396.695312 54.496094 C 396.359375 54.289062 395.820312 53.996094 394.945312 53.996094 C 393.609375 53.996094 392.609375 54.746094 391.945312 55.539062 Z M 393.359375 49.871094 "/>
<path fill-rule="nonzero" fill="rgb(0%, 0%, 0%)" fill-opacity="1" d="M 407.800781 62.28125 L 407.21875 62.28125 C 407.21875 62.53125 407.050781 63.363281 406.84375 63.488281 C 406.757812 63.574219 405.632812 63.574219 405.425781 63.574219 L 402.84375 63.574219 C 403.71875 62.949219 404.675781 62.199219 405.46875 61.65625 C 406.675781 60.824219 407.800781 60.074219 407.800781 58.65625 C 407.800781 56.949219 406.175781 56.03125 404.300781 56.03125 C 402.507812 56.03125 401.175781 57.03125 401.175781 58.363281 C 401.175781 59.03125 401.757812 59.15625 401.96875 59.15625 C 402.300781 59.15625 402.71875 58.90625 402.71875 58.363281 C 402.71875 57.90625 402.382812 57.613281 401.96875 57.613281 C 402.34375 56.988281 403.132812 56.613281 404.007812 56.613281 C 405.300781 56.613281 406.382812 57.363281 406.382812 58.65625 C 406.382812 59.78125 405.59375 60.65625 404.59375 61.488281 L 401.34375 64.238281 C 401.21875 64.363281 401.175781 64.363281 401.175781 64.449219 L 401.175781 64.863281 L 407.34375 64.863281 Z M 407.800781 62.28125 "/>
<path fill="none" stroke-width="0.39848" stroke-linecap="butt" stroke-linejoin="miter" stroke="rgb(0%, 0%, 0%)" stroke-opacity="1" stroke-miterlimit="10" d="M 30.956718 -0.1922 L 73.854668 -0.1922 " transform="matrix(2.666667, 0, 0, -2.666667, 276.480001, 116.631999)"/>
<path fill="none" stroke-width="0.39848" stroke-linecap="round" stroke-linejoin="round" stroke="rgb(0%, 0%, 0%)" stroke-opacity="1" stroke-miterlimit="10" d="M -2.073639 2.392155 C -1.694244 0.958073 -0.850494 0.278385 0.000579834 0.00152969 C -0.850494 -0.27972 -1.694244 -0.956478 -2.073639 -2.389095 " transform="matrix(2.666667, 0, 0, -2.666667, 473.955485, 117.14861)"/>
<path fill-rule="nonzero" fill="rgb(0%, 0%, 0%)" fill-opacity="1" d="M 304.898438 138.6875 C 304.898438 138.980469 304.898438 139.4375 305.316406 139.4375 C 305.816406 139.4375 305.816406 139.019531 305.816406 138.6875 L 305.816406 132.1875 C 305.816406 131.5625 305.691406 131.480469 305.105469 131.480469 L 298.523438 131.480469 C 298.230469 131.480469 297.816406 131.480469 297.816406 131.894531 C 297.816406 132.394531 298.316406 132.394531 298.605469 132.394531 L 304.898438 132.394531 Z M 304.898438 138.6875 "/>
<path fill-rule="nonzero" fill="rgb(0%, 0%, 0%)" fill-opacity="1" d="M 479.996094 99.828125 C 479.703125 99.828125 479.246094 99.828125 479.246094 100.246094 C 479.246094 100.746094 479.660156 100.746094 479.996094 100.746094 L 486.496094 100.746094 C 487.121094 100.746094 487.203125 100.621094 487.203125 100.039062 L 487.203125 93.453125 C 487.203125 93.164062 487.203125 92.746094 486.785156 92.746094 C 486.285156 92.746094 486.285156 93.246094 486.285156 93.539062 L 486.285156 99.828125 Z M 479.996094 99.828125 "/>
<path fill="none" stroke-width="0.39848" stroke-linecap="butt" stroke-linejoin="miter" stroke="rgb(0%, 0%, 0%)" stroke-opacity="1" stroke-miterlimit="10" d="M -66.160957 -25.563293 L -66.160957 -8.427551 " transform="matrix(2.666667, 0, 0, -2.666667, 276.480001, 116.631999)"/>
<path fill="none" stroke-width="0.39848" stroke-linecap="round" stroke-linejoin="round" stroke="rgb(0%, 0%, 0%)" stroke-opacity="1" stroke-miterlimit="10" d="M -2.070988 2.392433 C -1.691593 0.953957 -0.847843 0.278664 -0.00116348 0.00180817 C -0.847843 -0.279442 -1.691593 -0.9562 -2.070988 -2.388817 " transform="matrix(0, -2.666667, -2.666667, 0, 100.055603, 138.571116)"/>
<path fill-rule="nonzero" fill="rgb(0%, 0%, 0%)" fill-opacity="1" d="M 76.832031 153.828125 C 76.707031 153.496094 76.667969 153.414062 76.457031 153.414062 C 76.25 153.414062 76.167969 153.578125 76.042969 153.789062 L 71.832031 164.914062 C 71.582031 165.496094 71.207031 165.789062 70.707031 165.828125 C 70.625 165.828125 70.332031 165.871094 70.332031 166.164062 C 70.332031 166.496094 70.625 166.496094 70.957031 166.496094 L 73.917969 166.496094 C 74.25 166.496094 74.542969 166.496094 74.542969 166.164062 C 74.542969 165.871094 74.292969 165.871094 74.125 165.828125 C 73.875 165.828125 73.417969 165.746094 73.417969 164.621094 C 73.417969 164.039062 73.542969 163.414062 73.667969 162.828125 L 77.75 162.828125 C 78.417969 164.664062 78.417969 164.953125 78.457031 165.328125 C 78 165.789062 77.5 165.828125 77.292969 165.828125 C 77.082031 165.871094 76.957031 165.996094 76.957031 166.164062 C 76.957031 166.496094 77.25 166.496094 77.582031 166.496094 L 82.417969 166.496094 C 82.75 166.496094 83.082031 166.496094 83.082031 166.164062 C 83.082031 165.914062 82.832031 165.871094 82.667969 165.828125 C 82.25 165.789062 81.917969 165.453125 81.542969 164.621094 Z M 73.875 162.203125 C 74.292969 160.539062 74.875 158.953125 75.5 157.414062 C 76.082031 158.664062 77.207031 161.328125 77.5 162.203125 Z M 72.75 164.246094 L 72.792969 164.289062 L 72.792969 164.453125 C 72.75 164.496094 72.75 164.539062 72.75 164.621094 C 72.75 164.703125 72.75 165.414062 73.042969 165.828125 L 72.042969 165.828125 C 72.25 165.578125 72.332031 165.371094 72.457031 165.078125 Z M 75.792969 156.414062 L 76.457031 154.621094 L 80.957031 164.871094 C 81.042969 165.078125 81.25 165.496094 81.5 165.828125 L 78.875 165.828125 C 79.042969 165.746094 79.125 165.453125 79.125 165.246094 C 79.125 164.121094 77.5 160.328125 76.707031 158.496094 Z M 75.792969 156.414062 "/>
<path fill-rule="nonzero" fill="rgb(0%, 0%, 0%)" fill-opacity="1" d="M 91.433594 164.90625 C 91.433594 163.945312 91.433594 160.320312 87.933594 160.320312 C 84.472656 160.320312 84.472656 163.945312 84.472656 164.90625 C 84.472656 165.863281 84.472656 169.445312 87.933594 169.445312 C 91.433594 169.445312 91.433594 165.863281 91.433594 164.90625 Z M 87.933594 168.988281 C 87.472656 168.988281 86.347656 168.820312 86.015625 167.488281 C 85.808594 166.78125 85.808594 165.820312 85.808594 164.738281 C 85.808594 163.738281 85.808594 162.820312 86.015625 162.070312 C 86.347656 160.945312 87.390625 160.738281 87.933594 160.738281 C 88.933594 160.738281 89.640625 161.238281 89.890625 162.195312 C 90.097656 162.863281 90.097656 163.945312 90.097656 164.738281 C 90.097656 165.65625 90.097656 166.738281 89.890625 167.53125 C 89.558594 168.820312 88.472656 168.988281 87.933594 168.988281 Z M 87.933594 168.988281 "/>
<path fill="none" stroke-width="0.39848" stroke-linecap="butt" stroke-linejoin="miter" stroke="rgb(0%, 0%, 0%)" stroke-opacity="1" stroke-miterlimit="10" d="M -35.074043 -34.391907 L 7.566093 -34.391907 " transform="matrix(2.666667, 0, 0, -2.666667, 276.480001, 116.631999)"/>
<path fill="none" stroke-width="0.39848" stroke-linecap="round" stroke-linejoin="round" stroke="rgb(0%, 0%, 0%)" stroke-opacity="1" stroke-miterlimit="10" d="M -2.070671 2.391655 C -1.692741 0.957573 -0.848991 0.277885 -0.000846863 0.00102997 C -0.848991 -0.28022 -1.692741 -0.955513 -2.070671 -2.389595 " transform="matrix(2.666667, 0, 0, -2.666667, 297.189758, 208.346497)"/>
<path fill-rule="nonzero" fill="rgb(0%, 0%, 0%)" fill-opacity="1" d="M 230.300781 225.527344 C 229.089844 225.527344 228.925781 225.527344 228.925781 224.734375 L 228.925781 221.734375 C 229.007812 221.820312 229.882812 222.777344 231.425781 222.777344 C 233.882812 222.777344 235.964844 220.945312 235.964844 218.609375 C 235.964844 216.320312 234.089844 214.402344 231.714844 214.402344 C 230.675781 214.402344 229.589844 214.820312 228.839844 215.570312 L 228.839844 214.402344 L 226.050781 214.609375 L 226.050781 215.277344 C 227.339844 215.277344 227.425781 215.402344 227.425781 216.152344 L 227.425781 224.734375 C 227.425781 225.527344 227.257812 225.527344 226.050781 225.527344 L 226.050781 226.234375 C 226.089844 226.234375 227.382812 226.152344 228.175781 226.152344 C 228.839844 226.152344 230.132812 226.195312 230.300781 226.234375 Z M 228.925781 216.402344 C 229.464844 215.484375 230.550781 215.027344 231.507812 215.027344 C 233.089844 215.027344 234.300781 216.652344 234.300781 218.609375 C 234.300781 220.734375 232.882812 222.277344 231.339844 222.277344 C 229.675781 222.277344 228.964844 220.859375 228.925781 220.734375 Z M 228.925781 216.402344 "/>
<path fill-rule="nonzero" fill="rgb(0%, 0%, 0%)" fill-opacity="1" d="M 240.558594 218.359375 C 240.558594 216.820312 241.265625 214.945312 243.058594 214.945312 C 242.890625 215.070312 242.722656 215.320312 242.722656 215.609375 C 242.722656 216.234375 243.222656 216.445312 243.558594 216.445312 C 244.015625 216.445312 244.433594 216.152344 244.433594 215.609375 C 244.433594 214.984375 243.808594 214.402344 242.933594 214.402344 C 242.015625 214.402344 240.972656 214.984375 240.433594 216.402344 L 240.433594 214.402344 L 237.765625 214.609375 L 237.765625 215.277344 C 239.015625 215.277344 239.140625 215.402344 239.140625 216.320312 L 239.140625 221.152344 C 239.140625 221.945312 238.972656 221.945312 237.765625 221.945312 L 237.765625 222.609375 C 237.847656 222.609375 239.097656 222.527344 239.890625 222.527344 C 240.683594 222.527344 241.472656 222.570312 242.308594 222.609375 L 242.308594 221.945312 L 241.933594 221.945312 C 240.558594 221.945312 240.558594 221.734375 240.558594 221.109375 Z M 240.558594 218.359375 "/>
<path fill-rule="nonzero" fill="rgb(0%, 0%, 0%)" fill-opacity="1" d="M 250.460938 219.097656 C 250.460938 218.722656 250.421875 218.722656 249.960938 218.722656 C 249.046875 219.558594 247.546875 219.558594 247.296875 219.558594 L 247.085938 219.558594 L 247.085938 220.140625 L 247.296875 220.140625 C 247.585938 220.140625 248.460938 220.097656 249.253906 219.765625 L 249.253906 226.433594 C 249.253906 226.808594 249.253906 226.972656 247.835938 226.972656 L 247.171875 226.972656 L 247.171875 227.558594 C 247.878906 227.515625 249.085938 227.515625 249.835938 227.515625 C 250.628906 227.515625 251.796875 227.515625 252.546875 227.558594 L 252.546875 226.972656 L 251.878906 226.972656 C 250.460938 226.972656 250.460938 226.808594 250.460938 226.433594 Z M 250.460938 219.097656 "/>
<path fill="none" stroke-width="0.39848" stroke-linecap="butt" stroke-linejoin="miter" stroke="rgb(0%, 0%, 0%)" stroke-opacity="1" stroke-miterlimit="10" d="M 19.526543 -26.228333 L 19.526543 -8.427551 " transform="matrix(2.666667, 0, 0, -2.666667, 276.480001, 116.631999)"/>
<path fill="none" stroke-width="0.39848" stroke-linecap="round" stroke-linejoin="round" stroke="rgb(0%, 0%, 0%)" stroke-opacity="1" stroke-miterlimit="10" d="M -2.070988 2.390045 C -1.691593 0.955963 -0.847843 0.28067 -0.00116348 -0.000579834 C -0.847843 -0.2789 -1.691593 -0.958588 -2.070988 -2.391205 " transform="matrix(0, -2.666667, -2.666667, 0, 328.549235, 138.571116)"/>
<path fill-rule="nonzero" fill="rgb(0%, 0%, 0%)" fill-opacity="1" d="M 340.804688 158.640625 C 342.347656 157.976562 343.011719 157.726562 343.472656 157.476562 C 343.847656 157.351562 344.011719 157.265625 344.011719 156.890625 C 344.011719 156.601562 343.761719 156.308594 343.429688 156.308594 C 343.304688 156.308594 343.261719 156.308594 343.054688 156.476562 L 340.511719 158.183594 L 340.804688 155.433594 C 340.847656 155.101562 340.804688 154.640625 340.222656 154.640625 C 340.011719 154.640625 339.636719 154.765625 339.636719 155.183594 C 339.636719 155.351562 339.722656 155.890625 339.761719 156.101562 C 339.804688 156.390625 339.929688 157.765625 339.972656 158.183594 L 337.429688 156.476562 C 337.261719 156.390625 337.222656 156.308594 337.054688 156.308594 C 336.679688 156.308594 336.472656 156.601562 336.472656 156.890625 C 336.472656 157.265625 336.679688 157.390625 336.847656 157.433594 L 339.636719 158.640625 C 338.136719 159.308594 337.429688 159.558594 336.972656 159.765625 C 336.636719 159.933594 336.472656 160.015625 336.472656 160.351562 C 336.472656 160.683594 336.679688 160.933594 337.054688 160.933594 C 337.179688 160.933594 337.222656 160.933594 337.429688 160.765625 L 339.972656 159.101562 L 339.636719 162.058594 C 339.636719 162.476562 340.011719 162.640625 340.222656 162.640625 C 340.472656 162.640625 340.804688 162.476562 340.804688 162.058594 C 340.804688 161.890625 340.722656 161.351562 340.722656 161.183594 C 340.679688 160.851562 340.554688 159.515625 340.511719 159.101562 L 342.722656 160.558594 C 343.222656 160.933594 343.261719 160.933594 343.429688 160.933594 C 343.761719 160.933594 344.011719 160.683594 344.011719 160.351562 C 344.011719 159.976562 343.761719 159.890625 343.597656 159.808594 Z M 340.804688 158.640625 "/>
<path fill-rule="nonzero" fill="rgb(0%, 0%, 0%)" fill-opacity="1" d="M 351.898438 163.222656 L 349.355469 157.179688 C 349.230469 156.886719 349.230469 156.886719 348.855469 156.886719 L 346.398438 156.886719 C 346.148438 156.886719 345.941406 156.886719 345.941406 157.136719 C 345.941406 157.386719 346.191406 157.386719 346.273438 157.386719 C 346.441406 157.386719 346.773438 157.386719 347.066406 157.511719 L 347.066406 164.597656 C 347.066406 164.886719 347.066406 165.472656 346.148438 165.554688 C 345.898438 165.554688 345.898438 165.761719 345.898438 165.761719 C 345.898438 166.011719 346.148438 166.011719 346.355469 166.011719 L 348.441406 166.011719 C 348.648438 166.011719 348.855469 166.011719 348.855469 165.761719 C 348.855469 165.636719 348.773438 165.554688 348.648438 165.554688 C 347.648438 165.472656 347.648438 164.929688 347.648438 164.597656 L 347.648438 157.972656 L 350.898438 165.722656 C 350.980469 165.972656 351.105469 166.011719 351.148438 166.011719 C 351.316406 166.011719 351.355469 165.886719 351.441406 165.761719 L 354.691406 157.972656 L 354.691406 164.597656 C 354.691406 164.886719 354.691406 165.472656 353.816406 165.554688 C 353.566406 165.554688 353.566406 165.761719 353.566406 165.761719 C 353.566406 166.011719 353.773438 166.011719 353.980469 166.011719 L 357.566406 166.011719 C 357.773438 166.011719 357.980469 166.011719 357.980469 165.761719 C 357.980469 165.636719 357.898438 165.554688 357.773438 165.554688 C 356.730469 165.472656 356.730469 164.929688 356.730469 164.597656 L 356.730469 158.304688 C 356.730469 158.054688 356.730469 157.472656 357.648438 157.386719 C 357.773438 157.347656 357.898438 157.304688 357.898438 157.136719 C 357.898438 156.886719 357.691406 156.886719 357.480469 156.886719 L 354.898438 156.886719 C 354.566406 156.886719 354.523438 156.886719 354.398438 157.179688 Z M 351.480469 163.472656 C 351.605469 163.679688 351.605469 163.679688 351.773438 163.761719 L 351.191406 165.179688 L 351.148438 165.179688 L 348.105469 157.929688 C 348.066406 157.761719 347.941406 157.511719 347.773438 157.386719 L 348.941406 157.386719 Z M 347.480469 165.554688 L 347.230469 165.554688 C 347.273438 165.511719 347.316406 165.472656 347.316406 165.429688 C 347.355469 165.429688 347.355469 165.429688 347.355469 165.386719 Z M 355.148438 157.386719 L 356.566406 157.386719 C 356.273438 157.722656 356.273438 158.054688 356.273438 158.304688 L 356.273438 164.636719 C 356.273438 164.886719 356.273438 165.222656 356.605469 165.554688 L 354.855469 165.554688 C 355.148438 165.222656 355.148438 164.886719 355.148438 164.636719 Z M 355.148438 157.386719 "/>
<path fill-rule="nonzero" fill="rgb(0%, 0%, 0%)" fill-opacity="1" d="M 363.527344 161.539062 C 363.527344 161.164062 363.488281 161.164062 363.027344 161.164062 C 362.113281 161.996094 360.613281 161.996094 360.363281 161.996094 L 360.152344 161.996094 L 360.152344 162.582031 L 360.363281 162.582031 C 360.652344 162.582031 361.527344 162.539062 362.320312 162.207031 L 362.320312 168.871094 C 362.320312 169.246094 362.320312 169.414062 360.902344 169.414062 L 360.238281 169.414062 L 360.238281 169.996094 C 360.945312 169.957031 362.152344 169.957031 362.902344 169.957031 C 363.695312 169.957031 364.863281 169.957031 365.613281 169.996094 L 365.613281 169.414062 L 364.945312 169.414062 C 363.527344 169.414062 363.527344 169.246094 363.527344 168.871094 Z M 363.527344 161.539062 "/>
</svg>
