<?xml version="1.0" encoding="UTF-8"?>
<svg xmlns="http://www.w3.org/2000/svg" xmlns:xlink="http://www.w3.org/1999/xlink" width="348.5" height="175" viewBox="0 0 348.5 175">
<path fill-rule="nonzero" fill="rgb(0%, 0%, 0%)" fill-opacity="1" d="M 174.746094 11.976562 L 175.183594 11.320312 L 172.589844 21.226562 C 172.464844 21.695312 172.371094 22.039062 172.214844 22.320312 C 172.058594 22.789062 171.652344 23.289062 171.214844 23.476562 C 170.996094 23.570312 170.683594 23.632812 170.371094 23.632812 L 170.277344 23.914062 L 176.027344 23.914062 L 176.121094 23.632812 C 175.496094 23.632812 174.996094 23.570312 174.746094 23.382812 C 174.464844 23.164062 174.402344 22.726562 174.402344 22.320312 C 174.402344 22.007812 174.464844 21.570312 174.621094 21.039062 L 176.589844 13.570312 C 176.746094 12.945312 176.871094 12.445312 176.996094 12.070312 C 177.214844 11.476562 177.652344 10.820312 178.089844 10.507812 C 178.308594 10.382812 178.589844 10.351562 178.933594 10.351562 L 179.027344 10.070312 L 175.433594 10.070312 L 168.746094 20.789062 L 168.464844 20.789062 L 167.183594 10.070312 L 162.902344 10.070312 L 162.808594 10.351562 C 163.433594 10.351562 163.839844 10.351562 164.058594 10.476562 C 164.339844 10.601562 164.683594 11.101562 164.683594 11.476562 C 164.683594 11.789062 164.621094 12.289062 164.433594 12.945312 L 162.246094 21.226562 C 162.089844 21.851562 161.589844 22.539062 161.121094 22.945312 C 160.683594 23.351562 159.996094 23.632812 159.433594 23.632812 L 159.371094 23.914062 L 164.339844 23.914062 L 164.433594 23.632812 C 163.964844 23.601562 163.433594 23.507812 163.214844 23.195312 C 162.996094 22.882812 162.683594 22.351562 162.683594 21.851562 C 162.683594 21.570312 162.683594 21.289062 162.746094 21.039062 L 165.152344 11.976562 L 165.277344 11.539062 L 166.746094 23.914062 L 167.339844 23.914062 Z M 174.746094 11.976562 "/>
<path fill-rule="nonzero" fill="rgb(0%, 0%, 0%)" fill-opacity="1" d="M 185.316406 24.246094 L 184.816406 24.246094 C 184.785156 24.589844 184.628906 25.433594 184.441406 25.589844 C 184.316406 25.652344 183.191406 25.652344 183.003906 25.652344 L 180.316406 25.652344 C 181.847656 24.308594 182.347656 23.902344 183.222656 23.214844 C 184.316406 22.371094 185.316406 21.464844 185.316406 20.089844 C 185.316406 18.339844 183.785156 17.246094 181.910156 17.246094 C 180.097656 17.246094 178.878906 18.527344 178.878906 19.839844 C 178.878906 20.589844 179.503906 20.683594 179.660156 20.683594 C 180.003906 20.683594 180.441406 20.433594 180.441406 19.902344 C 180.441406 19.652344 180.316406 19.121094 179.566406 19.121094 C 180.035156 18.089844 181.003906 17.777344 181.691406 17.777344 C 183.160156 17.777344 183.910156 18.902344 183.910156 20.089844 C 183.910156 21.339844 183.003906 22.339844 182.535156 22.871094 L 179.035156 26.339844 C 178.878906 26.464844 178.878906 26.496094 178.878906 26.902344 L 184.878906 26.902344 Z M 185.316406 24.246094 "/>
<path fill-rule="nonzero" fill="rgb(0%, 0%, 0%)" fill-opacity="1" d="M 203.242188 23.226562 L 198.804688 18.789062 L 203.242188 14.351562 L 202.460938 13.539062 L 198.023438 18.007812 L 193.585938 13.539062 L 192.804688 14.351562 L 197.210938 18.789062 L 192.804688 23.226562 L 193.585938 24.007812 L 198.023438 19.570312 L 202.460938 24.007812 Z M 203.242188 23.226562 "/>
<path fill-rule="nonzero" fill="rgb(0%, 0%, 0%)" fill-opacity="1" d="M 219.007812 15.320312 C 219.007812 12.445312 218.132812 10.132812 215.976562 10.132812 C 214.289062 10.132812 212.476562 11.726562 212.476562 12.601562 C 212.476562 13.257812 213.007812 13.539062 213.414062 13.539062 C 213.820312 13.539062 214.070312 13.195312 214.132812 13.132812 C 214.070312 13.101562 213.945312 12.914062 213.945312 12.632812 C 213.945312 12.445312 214.289062 10.726562 216.007812 10.726562 C 217.445312 10.726562 217.757812 12.570312 217.757812 14.195312 C 217.757812 15.414062 217.601562 16.476562 217.601562 16.507812 L 217.570312 16.507812 C 217.570312 16.476562 216.789062 15.257812 215.226562 15.257812 C 211.226562 15.257812 209.570312 19.132812 209.570312 21.195312 C 209.570312 23.039062 210.664062 24.226562 212.882812 24.226562 C 216.320312 24.226562 219.007812 20.757812 219.007812 15.320312 Z M 216.726562 17.570312 C 216.726562 18.101562 216.226562 23.757812 213.007812 23.757812 C 211.882812 23.757812 211.382812 23.101562 211.382812 21.851562 C 211.382812 20.570312 212.195312 15.726562 215.070312 15.726562 C 216.195312 15.726562 216.726562 16.382812 216.726562 17.570312 Z M 216.726562 17.570312 "/>
<path fill-rule="nonzero" fill="rgb(0%, 0%, 0%)" fill-opacity="1" d="M 235.964844 23.914062 L 229.402344 10.070312 L 227.621094 10.070312 L 221.058594 23.914062 Z M 233.214844 22.257812 L 223.371094 22.257812 L 226.214844 16.164062 C 227.339844 13.789062 228.058594 12.257812 228.277344 11.445312 C 228.371094 11.726562 228.496094 12.132812 229.589844 14.476562 Z M 233.214844 22.257812 "/>
<path fill-rule="nonzero" fill="rgb(0%, 0%, 0%)" fill-opacity="1" d="M 243.691406 16.683594 L 243.691406 16.152344 L 243.128906 16.152344 C 241.691406 16.152344 241.691406 15.964844 241.691406 15.496094 L 241.691406 7.433594 C 241.691406 7.058594 241.660156 7.027344 241.253906 7.027344 C 240.316406 7.964844 239.003906 7.964844 238.410156 7.964844 L 238.410156 8.496094 C 238.753906 8.496094 239.722656 8.496094 240.503906 8.089844 L 240.503906 15.496094 C 240.503906 15.964844 240.503906 16.152344 239.066406 16.152344 L 238.503906 16.152344 L 238.503906 16.683594 L 241.097656 16.621094 Z M 243.691406 16.683594 "/>
<path fill-rule="nonzero" fill="rgb(0%, 0%, 0%)" fill-opacity="1" d="M 326 11.976562 L 326.4375 11.320312 L 323.84375 21.226562 C 323.71875 21.695312 323.625 22.039062 323.46875 22.320312 C 323.3125 22.789062 322.90625 23.289062 322.46875 23.476562 C 322.25 23.570312 321.9375 23.632812 321.625 23.632812 L 321.53125 23.914062 L 327.28125 23.914062 L 327.375 23.632812 C 326.75 23.632812 326.25 23.570312 326 23.382812 C 325.71875 23.164062 325.65625 22.726562 325.65625 22.320312 C 325.65625 22.007812 325.71875 21.570312 325.875 21.039062 L 327.84375 13.570312 C 328 12.945312 328.125 12.445312 328.25 12.070312 C 328.46875 11.476562 328.90625 10.820312 329.34375 10.507812 C 329.5625 10.382812 329.84375 10.351562 330.1875 10.351562 L 330.28125 10.070312 L 326.6875 10.070312 L 320 20.789062 L 319.71875 20.789062 L 318.4375 10.070312 L 314.15625 10.070312 L 314.0625 10.351562 C 314.6875 10.351562 315.09375 10.351562 315.3125 10.476562 C 315.59375 10.601562 315.9375 11.101562 315.9375 11.476562 C 315.9375 11.789062 315.875 12.289062 315.6875 12.945312 L 313.5 21.226562 C 313.34375 21.851562 312.84375 22.539062 312.375 22.945312 C 311.9375 23.351562 311.25 23.632812 310.6875 23.632812 L 310.625 23.914062 L 315.59375 23.914062 L 315.6875 23.632812 C 315.21875 23.601562 314.6875 23.507812 314.46875 23.195312 C 314.25 22.882812 313.9375 22.351562 313.9375 21.851562 C 313.9375 21.570312 313.9375 21.289062 314 21.039062 L 316.40625 11.976562 L 316.53125 11.539062 L 318 23.914062 L 318.59375 23.914062 Z M 326 11.976562 "/>
<path fill-rule="nonzero" fill="rgb(0%, 0%, 0%)" fill-opacity="1" d="M 336.570312 24.246094 L 336.070312 24.246094 C 336.039062 24.589844 335.882812 25.433594 335.695312 25.589844 C 335.570312 25.652344 334.445312 25.652344 334.257812 25.652344 L 331.570312 25.652344 C 333.101562 24.308594 333.601562 23.902344 334.476562 23.214844 C 335.570312 22.371094 336.570312 21.464844 336.570312 20.089844 C 336.570312 18.339844 335.039062 17.246094 333.164062 17.246094 C 331.351562 17.246094 330.132812 18.527344 330.132812 19.839844 C 330.132812 20.589844 330.757812 20.683594 330.914062 20.683594 C 331.257812 20.683594 331.695312 20.433594 331.695312 19.902344 C 331.695312 19.652344 331.570312 19.121094 330.820312 19.121094 C 331.289062 18.089844 332.257812 17.777344 332.945312 17.777344 C 334.414062 17.777344 335.164062 18.902344 335.164062 20.089844 C 335.164062 21.339844 334.257812 22.339844 333.789062 22.871094 L 330.289062 26.339844 C 330.132812 26.464844 330.132812 26.496094 330.132812 26.902344 L 336.132812 26.902344 Z M 336.570312 24.246094 "/>
<path fill-rule="nonzero" fill="rgb(0%, 0%, 0%)" fill-opacity="1" d="M 28.523438 79.339844 L 28.960938 78.683594 L 26.367188 88.589844 C 26.242188 89.058594 26.148438 89.402344 25.992188 89.683594 C 25.835938 90.152344 25.429688 90.652344 24.992188 90.839844 C 24.773438 90.933594 24.460938 90.996094 24.148438 90.996094 L 24.054688 91.277344 L 29.804688 91.277344 L 29.898438 90.996094 C 29.273438 90.996094 28.773438 90.933594 28.523438 90.746094 C 28.242188 90.527344 28.179688 90.089844 28.179688 89.683594 C 28.179688 89.371094 28.242188 88.933594 28.398438 88.402344 L 30.367188 80.933594 C 30.523438 80.308594 30.648438 79.808594 30.773438 79.433594 C 30.992188 78.839844 31.429688 78.183594 31.867188 77.871094 C 32.085938 77.746094 32.367188 77.714844 32.710938 77.714844 L 32.804688 77.433594 L 29.210938 77.433594 L 22.523438 88.152344 L 22.242188 88.152344 L 20.960938 77.433594 L 16.679688 77.433594 L 16.585938 77.714844 C 17.210938 77.714844 17.617188 77.714844 17.835938 77.839844 C 18.117188 77.964844 18.460938 78.464844 18.460938 78.839844 C 18.460938 79.152344 18.398438 79.652344 18.210938 80.308594 L 16.023438 88.589844 C 15.867188 89.214844 15.367188 89.902344 14.898438 90.308594 C 14.460938 90.714844 13.773438 90.996094 13.210938 90.996094 L 13.148438 91.277344 L 18.117188 91.277344 L 18.210938 90.996094 C 17.742188 90.964844 17.210938 90.871094 16.992188 90.558594 C 16.773438 90.246094 16.460938 89.714844 16.460938 89.214844 C 16.460938 88.933594 16.460938 88.652344 16.523438 88.402344 L 18.929688 79.339844 L 19.054688 78.902344 L 20.523438 91.277344 L 21.117188 91.277344 Z M 28.523438 79.339844 "/>
<path fill-rule="nonzero" fill="rgb(0%, 0%, 0%)" fill-opacity="1" d="M 39.25 89.640625 C 39.25 88.046875 39.0625 86.890625 38.40625 85.859375 C 37.9375 85.203125 37.03125 84.609375 35.875 84.609375 C 32.5 84.609375 32.5 88.578125 32.5 89.640625 C 32.5 90.671875 32.5 94.546875 35.875 94.546875 C 39.25 94.546875 39.25 90.671875 39.25 89.640625 Z M 37.9375 89.453125 C 37.9375 90.515625 37.9375 91.578125 37.75 92.515625 C 37.4375 93.828125 36.46875 94.140625 35.875 94.140625 C 35.21875 94.140625 34.3125 93.765625 34.03125 92.578125 C 33.8125 91.703125 33.8125 90.515625 33.8125 89.453125 C 33.8125 88.390625 33.8125 87.265625 34.03125 86.484375 C 34.34375 85.328125 35.28125 85.015625 35.875 85.015625 C 36.65625 85.015625 37.40625 85.515625 37.6875 86.359375 C 37.90625 87.140625 37.9375 88.171875 37.9375 89.453125 Z M 37.9375 89.453125 "/>
<path fill-rule="nonzero" fill="rgb(0%, 0%, 0%)" fill-opacity="1" d="M 57.5625 84.683594 L 57.5625 83.589844 L 47.375 83.589844 L 47.375 84.683594 Z M 57.5625 88.746094 L 57.5625 87.621094 L 47.375 87.621094 L 47.375 88.746094 Z M 57.5625 88.746094 "/>
<path fill-rule="nonzero" fill="rgb(0%, 0%, 0%)" fill-opacity="1" d="M 79.550781 91.277344 L 79.550781 78.089844 L 76.644531 78.089844 L 72.457031 89.746094 L 72.394531 89.746094 L 68.394531 78.089844 L 65.300781 78.089844 L 65.300781 91.277344 L 66.175781 91.277344 L 66.175781 81.933594 L 66.207031 81.933594 L 69.457031 91.277344 L 72.832031 91.277344 L 76.207031 81.871094 L 76.238281 81.871094 L 76.238281 91.277344 Z M 78.675781 90.402344 L 77.113281 90.402344 L 77.113281 78.964844 L 78.675781 78.964844 Z M 71.738281 90.402344 L 70.082031 90.402344 L 66.519531 80.183594 L 66.113281 78.964844 L 67.707031 78.964844 Z M 71.738281 90.402344 "/>
<path fill-rule="nonzero" fill="rgb(0%, 0%, 0%)" fill-opacity="1" d="M 88.03125 89.640625 C 88.03125 88.046875 87.84375 86.890625 87.1875 85.859375 C 86.71875 85.203125 85.8125 84.609375 84.65625 84.609375 C 81.28125 84.609375 81.28125 88.578125 81.28125 89.640625 C 81.28125 90.671875 81.28125 94.546875 84.65625 94.546875 C 88.03125 94.546875 88.03125 90.671875 88.03125 89.640625 Z M 86.71875 89.453125 C 86.71875 90.515625 86.71875 91.578125 86.53125 92.515625 C 86.21875 93.828125 85.25 94.140625 84.65625 94.140625 C 84 94.140625 83.09375 93.765625 82.8125 92.578125 C 82.59375 91.703125 82.59375 90.515625 82.59375 89.453125 C 82.59375 88.390625 82.59375 87.265625 82.8125 86.484375 C 83.125 85.328125 84.0625 85.015625 84.65625 85.015625 C 85.4375 85.015625 86.1875 85.515625 86.46875 86.359375 C 86.6875 87.140625 86.71875 88.171875 86.71875 89.453125 Z M 86.71875 89.453125 "/>
<path fill-rule="nonzero" fill="rgb(0%, 0%, 0%)" fill-opacity="1" d="M 205.667969 91.277344 L 205.667969 78.089844 L 202.761719 78.089844 L 198.574219 89.746094 L 198.511719 89.746094 L 194.511719 78.089844 L 191.417969 78.089844 L 191.417969 91.277344 L 192.292969 91.277344 L 192.292969 81.933594 L 192.324219 81.933594 L 195.574219 91.277344 L 198.949219 91.277344 L 202.324219 81.871094 L 202.355469 81.871094 L 202.355469 91.277344 Z M 204.792969 90.402344 L 203.230469 90.402344 L 203.230469 78.964844 L 204.792969 78.964844 Z M 197.855469 90.402344 L 196.199219 90.402344 L 192.636719 80.183594 L 192.230469 78.964844 L 193.824219 78.964844 Z M 197.855469 90.402344 "/>
<path fill-rule="nonzero" fill="rgb(0%, 0%, 0%)" fill-opacity="1" d="M 213.523438 94.265625 L 213.523438 93.734375 L 212.960938 93.734375 C 211.523438 93.734375 211.523438 93.546875 211.523438 93.078125 L 211.523438 85.015625 C 211.523438 84.640625 211.492188 84.609375 211.085938 84.609375 C 210.148438 85.546875 208.835938 85.546875 208.242188 85.546875 L 208.242188 86.078125 C 208.585938 86.078125 209.554688 86.078125 210.335938 85.671875 L 210.335938 93.078125 C 210.335938 93.546875 210.335938 93.734375 208.898438 93.734375 L 208.335938 93.734375 L 208.335938 94.265625 L 210.929688 94.203125 Z M 213.523438 94.265625 "/>
<path fill-rule="nonzero" fill="rgb(0%, 0%, 0%)" fill-opacity="1" d="M 327.5 91.277344 L 327.5 78.089844 L 324.59375 78.089844 L 320.40625 89.746094 L 320.34375 89.746094 L 316.34375 78.089844 L 313.25 78.089844 L 313.25 91.277344 L 314.125 91.277344 L 314.125 81.933594 L 314.15625 81.933594 L 317.40625 91.277344 L 320.78125 91.277344 L 324.15625 81.871094 L 324.1875 81.871094 L 324.1875 91.277344 Z M 326.625 90.402344 L 325.0625 90.402344 L 325.0625 78.964844 L 326.625 78.964844 Z M 319.6875 90.402344 L 318.03125 90.402344 L 314.46875 80.183594 L 314.0625 78.964844 L 315.65625 78.964844 Z M 319.6875 90.402344 "/>
<path fill-rule="nonzero" fill="rgb(0%, 0%, 0%)" fill-opacity="1" d="M 335.824219 91.609375 L 335.324219 91.609375 C 335.292969 91.953125 335.136719 92.796875 334.949219 92.953125 C 334.824219 93.015625 333.699219 93.015625 333.511719 93.015625 L 330.824219 93.015625 C 332.355469 91.671875 332.855469 91.265625 333.730469 90.578125 C 334.824219 89.734375 335.824219 88.828125 335.824219 87.453125 C 335.824219 85.703125 334.292969 84.609375 332.417969 84.609375 C 330.605469 84.609375 329.386719 85.890625 329.386719 87.203125 C 329.386719 87.953125 330.011719 88.046875 330.167969 88.046875 C 330.511719 88.046875 330.949219 87.796875 330.949219 87.265625 C 330.949219 87.015625 330.824219 86.484375 330.074219 86.484375 C 330.542969 85.453125 331.511719 85.140625 332.199219 85.140625 C 333.667969 85.140625 334.417969 86.265625 334.417969 87.453125 C 334.417969 88.703125 333.511719 89.703125 333.042969 90.234375 L 329.542969 93.703125 C 329.386719 93.828125 329.386719 93.859375 329.386719 94.265625 L 335.386719 94.265625 Z M 335.824219 91.609375 "/>
<path fill-rule="nonzero" fill="rgb(0%, 0%, 0%)" fill-opacity="1" d="M 23.492188 149.398438 L 23.929688 148.742188 L 21.335938 158.648438 C 21.210938 159.117188 21.117188 159.460938 20.960938 159.742188 C 20.804688 160.210938 20.398438 160.710938 19.960938 160.898438 C 19.742188 160.992188 19.429688 161.054688 19.117188 161.054688 L 19.023438 161.335938 L 24.773438 161.335938 L 24.867188 161.054688 C 24.242188 161.054688 23.742188 160.992188 23.492188 160.804688 C 23.210938 160.585938 23.148438 160.148438 23.148438 159.742188 C 23.148438 159.429688 23.210938 158.992188 23.367188 158.460938 L 25.335938 150.992188 C 25.492188 150.367188 25.617188 149.867188 25.742188 149.492188 C 25.960938 148.898438 26.398438 148.242188 26.835938 147.929688 C 27.054688 147.804688 27.335938 147.773438 27.679688 147.773438 L 27.773438 147.492188 L 24.179688 147.492188 L 17.492188 158.210938 L 17.210938 158.210938 L 15.929688 147.492188 L 11.648438 147.492188 L 11.554688 147.773438 C 12.179688 147.773438 12.585938 147.773438 12.804688 147.898438 C 13.085938 148.023438 13.429688 148.523438 13.429688 148.898438 C 13.429688 149.210938 13.367188 149.710938 13.179688 150.367188 L 10.992188 158.648438 C 10.835938 159.273438 10.335938 159.960938 9.867188 160.367188 C 9.429688 160.773438 8.742188 161.054688 8.179688 161.054688 L 8.117188 161.335938 L 13.085938 161.335938 L 13.179688 161.054688 C 12.710938 161.023438 12.179688 160.929688 11.960938 160.617188 C 11.742188 160.304688 11.429688 159.773438 11.429688 159.273438 C 11.429688 158.992188 11.429688 158.710938 11.492188 158.460938 L 13.898438 149.398438 L 14.023438 148.960938 L 15.492188 161.335938 L 16.085938 161.335938 Z M 23.492188 149.398438 "/>
<path fill-rule="nonzero" fill="rgb(0%, 0%, 0%)" fill-opacity="1" d="M 33.589844 164.324219 L 33.589844 163.792969 L 33.027344 163.792969 C 31.589844 163.792969 31.589844 163.605469 31.589844 163.136719 L 31.589844 155.074219 C 31.589844 154.699219 31.558594 154.667969 31.152344 154.667969 C 30.214844 155.605469 28.902344 155.605469 28.308594 155.605469 L 28.308594 156.136719 C 28.652344 156.136719 29.621094 156.136719 30.402344 155.730469 L 30.402344 163.136719 C 30.402344 163.605469 30.402344 163.792969 28.964844 163.792969 L 28.402344 163.792969 L 28.402344 164.324219 L 30.996094 164.261719 Z M 33.589844 164.324219 "/>
<path fill-rule="nonzero" fill="rgb(0%, 0%, 0%)" fill-opacity="1" d="M 51.988281 160.648438 L 47.550781 156.210938 L 51.988281 151.773438 L 51.207031 150.960938 L 46.769531 155.429688 L 42.332031 150.960938 L 41.550781 151.773438 L 45.957031 156.210938 L 41.550781 160.648438 L 42.332031 161.429688 L 46.769531 156.992188 L 51.207031 161.429688 Z M 51.988281 160.648438 "/>
<path fill-rule="nonzero" fill="rgb(0%, 0%, 0%)" fill-opacity="1" d="M 67.753906 152.742188 C 67.753906 149.867188 66.878906 147.554688 64.722656 147.554688 C 63.035156 147.554688 61.222656 149.148438 61.222656 150.023438 C 61.222656 150.679688 61.753906 150.960938 62.160156 150.960938 C 62.566406 150.960938 62.816406 150.617188 62.878906 150.554688 C 62.816406 150.523438 62.691406 150.335938 62.691406 150.054688 C 62.691406 149.867188 63.035156 148.148438 64.753906 148.148438 C 66.191406 148.148438 66.503906 149.992188 66.503906 151.617188 C 66.503906 152.835938 66.347656 153.898438 66.347656 153.929688 L 66.316406 153.929688 C 66.316406 153.898438 65.535156 152.679688 63.972656 152.679688 C 59.972656 152.679688 58.316406 156.554688 58.316406 158.617188 C 58.316406 160.460938 59.410156 161.648438 61.628906 161.648438 C 65.066406 161.648438 67.753906 158.179688 67.753906 152.742188 Z M 65.472656 154.992188 C 65.472656 155.523438 64.972656 161.179688 61.753906 161.179688 C 60.628906 161.179688 60.128906 160.523438 60.128906 159.273438 C 60.128906 157.992188 60.941406 153.148438 63.816406 153.148438 C 64.941406 153.148438 65.472656 153.804688 65.472656 154.992188 Z M 65.472656 154.992188 "/>
<path fill-rule="nonzero" fill="rgb(0%, 0%, 0%)" fill-opacity="1" d="M 84.710938 161.335938 L 78.148438 147.492188 L 76.367188 147.492188 L 69.804688 161.335938 Z M 81.960938 159.679688 L 72.117188 159.679688 L 74.960938 153.585938 C 76.085938 151.210938 76.804688 149.679688 77.023438 148.867188 C 77.117188 149.148438 77.242188 149.554688 78.335938 151.898438 Z M 81.960938 159.679688 "/>
<path fill-rule="nonzero" fill="rgb(0%, 0%, 0%)" fill-opacity="1" d="M 93.0625 149.480469 C 93.0625 147.886719 92.875 146.730469 92.21875 145.699219 C 91.75 145.042969 90.84375 144.449219 89.6875 144.449219 C 86.3125 144.449219 86.3125 148.417969 86.3125 149.480469 C 86.3125 150.511719 86.3125 154.386719 89.6875 154.386719 C 93.0625 154.386719 93.0625 150.511719 93.0625 149.480469 Z M 91.75 149.292969 C 91.75 150.355469 91.75 151.417969 91.5625 152.355469 C 91.25 153.667969 90.28125 153.980469 89.6875 153.980469 C 89.03125 153.980469 88.125 153.605469 87.84375 152.417969 C 87.625 151.542969 87.625 150.355469 87.625 149.292969 C 87.625 148.230469 87.625 147.105469 87.84375 146.324219 C 88.15625 145.167969 89.09375 144.855469 89.6875 144.855469 C 90.46875 144.855469 91.21875 145.355469 91.5 146.199219 C 91.71875 146.980469 91.75 148.011719 91.75 149.292969 Z M 91.75 149.292969 "/>
<path fill-rule="nonzero" fill="rgb(0%, 0%, 0%)" fill-opacity="1" d="M 204.171875 149.398438 L 204.609375 148.742188 L 202.015625 158.648438 C 201.890625 159.117188 201.796875 159.460938 201.640625 159.742188 C 201.484375 160.210938 201.078125 160.710938 200.640625 160.898438 C 200.421875 160.992188 200.109375 161.054688 199.796875 161.054688 L 199.703125 161.335938 L 205.453125 161.335938 L 205.546875 161.054688 C 204.921875 161.054688 204.421875 160.992188 204.171875 160.804688 C 203.890625 160.585938 203.828125 160.148438 203.828125 159.742188 C 203.828125 159.429688 203.890625 158.992188 204.046875 158.460938 L 206.015625 150.992188 C 206.171875 150.367188 206.296875 149.867188 206.421875 149.492188 C 206.640625 148.898438 207.078125 148.242188 207.515625 147.929688 C 207.734375 147.804688 208.015625 147.773438 208.359375 147.773438 L 208.453125 147.492188 L 204.859375 147.492188 L 198.171875 158.210938 L 197.890625 158.210938 L 196.609375 147.492188 L 192.328125 147.492188 L 192.234375 147.773438 C 192.859375 147.773438 193.265625 147.773438 193.484375 147.898438 C 193.765625 148.023438 194.109375 148.523438 194.109375 148.898438 C 194.109375 149.210938 194.046875 149.710938 193.859375 150.367188 L 191.671875 158.648438 C 191.515625 159.273438 191.015625 159.960938 190.546875 160.367188 C 190.109375 160.773438 189.421875 161.054688 188.859375 161.054688 L 188.796875 161.335938 L 193.765625 161.335938 L 193.859375 161.054688 C 193.390625 161.023438 192.859375 160.929688 192.640625 160.617188 C 192.421875 160.304688 192.109375 159.773438 192.109375 159.273438 C 192.109375 158.992188 192.109375 158.710938 192.171875 158.460938 L 194.578125 149.398438 L 194.703125 148.960938 L 196.171875 161.335938 L 196.765625 161.335938 Z M 204.171875 149.398438 "/>
<path fill-rule="nonzero" fill="rgb(0%, 0%, 0%)" fill-opacity="1" d="M 214.269531 164.324219 L 214.269531 163.792969 L 213.707031 163.792969 C 212.269531 163.792969 212.269531 163.605469 212.269531 163.136719 L 212.269531 155.074219 C 212.269531 154.699219 212.238281 154.667969 211.832031 154.667969 C 210.894531 155.605469 209.582031 155.605469 208.988281 155.605469 L 208.988281 156.136719 C 209.332031 156.136719 210.300781 156.136719 211.082031 155.730469 L 211.082031 163.136719 C 211.082031 163.605469 211.082031 163.792969 209.644531 163.792969 L 209.082031 163.792969 L 209.082031 164.324219 L 211.675781 164.261719 Z M 214.269531 164.324219 "/>
<path fill="none" stroke-width="0.5579" stroke-linecap="butt" stroke-linejoin="miter" stroke="rgb(0%, 0%, 0%)" stroke-opacity="1" stroke-miterlimit="10" d="M 40.768967 33.51347 L 63.725998 33.51347 " transform="matrix(2, 0, 0, -2, 173.548004, 85.816002)"/>
<path fill="none" stroke-width="0.5579" stroke-linecap="round" stroke-linejoin="round" stroke="rgb(0%, 0%, 0%)" stroke-opacity="1" stroke-miterlimit="10" d="M -2.902267 3.349345 C -2.371017 1.337626 -1.19133 0.392314 0.0000762939 0.00168896 C -1.19133 -0.388936 -2.371017 -1.338155 -2.902267 -3.345967 " transform="matrix(2, 0, 0, -2, 301.554535, 18.79244)"/>
<path fill-rule="nonzero" fill="rgb(0%, 0%, 0%)" fill-opacity="1" d="M 275.417969 7.4375 C 275.417969 5.625 273.917969 4.15625 272.074219 4.15625 C 271.261719 4.15625 270.417969 4.46875 269.824219 5.03125 L 269.824219 4.15625 L 267.636719 4.3125 L 267.636719 4.84375 C 268.636719 4.84375 268.730469 4.90625 268.730469 5.53125 L 268.730469 12.21875 C 268.730469 12.84375 268.574219 12.84375 267.636719 12.84375 L 267.636719 13.375 C 267.636719 13.375 268.667969 13.3125 269.292969 13.3125 C 269.824219 13.3125 270.824219 13.375 270.949219 13.375 L 270.949219 12.84375 C 270.011719 12.84375 269.855469 12.84375 269.855469 12.21875 L 269.855469 9.875 C 269.949219 9.9375 270.636719 10.71875 271.855469 10.71875 C 273.761719 10.71875 275.417969 9.28125 275.417969 7.4375 Z M 274.074219 7.4375 C 274.074219 9.09375 272.980469 10.3125 271.761719 10.3125 C 270.480469 10.3125 269.917969 9.1875 269.855469 9.09375 L 269.855469 5.71875 C 270.292969 5 271.136719 4.625 271.917969 4.625 C 273.136719 4.625 274.074219 5.90625 274.074219 7.4375 Z M 274.074219 7.4375 "/>
<path fill-rule="nonzero" fill="rgb(0%, 0%, 0%)" fill-opacity="1" d="M 282.003906 5.09375 C 282.003906 4.59375 281.535156 4.15625 280.878906 4.15625 C 280.128906 4.15625 279.347656 4.59375 278.910156 5.71875 L 278.878906 5.71875 L 278.878906 4.15625 L 276.816406 4.3125 L 276.816406 4.84375 C 277.785156 4.84375 277.910156 4.9375 277.910156 5.65625 L 277.910156 9.40625 C 277.910156 10.03125 277.753906 10.03125 276.816406 10.03125 L 276.816406 10.5625 C 276.878906 10.5625 277.878906 10.5 278.472656 10.5 L 280.347656 10.5625 L 280.347656 10.03125 L 280.066406 10.03125 C 279.003906 10.03125 279.003906 9.875 279.003906 9.375 L 279.003906 7.25 C 279.003906 6.03125 279.566406 4.5625 280.941406 4.5625 C 280.816406 4.65625 280.691406 4.84375 280.691406 5.09375 C 280.691406 5.5625 281.066406 5.75 281.347656 5.75 C 281.691406 5.75 282.003906 5.53125 282.003906 5.09375 Z M 282.003906 5.09375 "/>
<path fill-rule="nonzero" fill="rgb(0%, 0%, 0%)" fill-opacity="1" d="M 288.121094 13.941406 L 288.121094 13.503906 L 287.652344 13.503906 C 286.527344 13.503906 286.527344 13.378906 286.527344 13.003906 L 286.527344 6.972656 C 286.527344 6.660156 286.496094 6.660156 286.152344 6.660156 C 285.433594 7.347656 284.308594 7.347656 283.902344 7.347656 L 283.902344 7.785156 C 284.214844 7.785156 284.933594 7.785156 285.589844 7.472656 L 285.589844 13.003906 C 285.589844 13.378906 285.589844 13.503906 284.464844 13.503906 L 283.996094 13.503906 L 283.996094 13.941406 C 284.589844 13.910156 285.433594 13.910156 286.058594 13.910156 C 286.683594 13.910156 287.527344 13.910156 288.121094 13.941406 Z M 288.121094 13.941406 "/>
<path fill="none" stroke-width="0.5579" stroke-linecap="butt" stroke-linejoin="miter" stroke="rgb(0%, 0%, 0%)" stroke-opacity="1" stroke-miterlimit="10" d="M 14.710373 25.60722 L 14.710373 8.212688 " transform="matrix(2, 0, 0, -2, 173.548004, 85.816002)"/>
<path fill="none" stroke-width="0.5579" stroke-linecap="round" stroke-linejoin="round" stroke="rgb(0%, 0%, 0%)" stroke-opacity="1" stroke-miterlimit="10" d="M -2.89996 3.345963 C -2.372616 1.33815 -1.189022 0.388931 -0.00152206 -0.00169373 C -1.189022 -0.392319 -2.372616 -1.337631 -2.89996 -3.34935 " transform="matrix(0, 2, 2, 0, 202.972137, 69.948357)"/>
<path fill-rule="nonzero" fill="rgb(0%, 0%, 0%)" fill-opacity="1" d="M 191.007812 50.289062 C 191.007812 48.195312 190.351562 46.476562 188.789062 46.476562 C 187.570312 46.476562 186.257812 47.632812 186.257812 48.289062 C 186.257812 48.789062 186.632812 48.976562 186.914062 48.976562 C 187.226562 48.976562 187.414062 48.726562 187.445312 48.695312 C 187.382812 48.664062 187.320312 48.507812 187.320312 48.320312 C 187.320312 48.195312 187.570312 46.914062 188.820312 46.914062 C 189.882812 46.914062 190.101562 48.257812 190.101562 49.445312 C 190.101562 50.320312 189.976562 51.132812 189.976562 51.132812 L 189.945312 51.132812 C 189.945312 51.132812 189.382812 50.226562 188.226562 50.226562 C 185.320312 50.226562 184.132812 53.039062 184.132812 54.539062 C 184.132812 55.914062 184.914062 56.757812 186.539062 56.757812 C 189.039062 56.757812 191.007812 54.226562 191.007812 50.289062 Z M 189.351562 51.914062 C 189.351562 52.289062 188.976562 56.414062 186.632812 56.414062 C 185.820312 56.414062 185.445312 55.945312 185.445312 55.039062 C 185.445312 54.101562 186.039062 50.570312 188.132812 50.570312 C 188.945312 50.570312 189.351562 51.070312 189.351562 51.914062 Z M 189.351562 51.914062 "/>
<path fill-rule="nonzero" fill="rgb(0%, 0%, 0%)" fill-opacity="1" d="M 195.957031 58.71875 L 195.957031 58.28125 L 195.488281 58.28125 C 194.363281 58.28125 194.363281 58.15625 194.363281 57.78125 L 194.363281 51.75 C 194.363281 51.4375 194.332031 51.4375 193.988281 51.4375 C 193.269531 52.125 192.144531 52.125 191.738281 52.125 L 191.738281 52.5625 C 192.050781 52.5625 192.769531 52.5625 193.425781 52.25 L 193.425781 57.78125 C 193.425781 58.15625 193.425781 58.28125 192.300781 58.28125 L 191.832031 58.28125 L 191.832031 58.71875 C 192.425781 58.6875 193.269531 58.6875 193.894531 58.6875 C 194.519531 58.6875 195.363281 58.6875 195.957031 58.71875 Z M 195.957031 58.71875 "/>
<path fill="none" stroke-width="0.5579" stroke-linecap="butt" stroke-linejoin="miter" stroke="rgb(0%, 0%, 0%)" stroke-opacity="1" stroke-miterlimit="10" d="M 75.628342 25.60722 L 75.628342 8.212688 " transform="matrix(2, 0, 0, -2, 173.548004, 85.816002)"/>
<path fill="none" stroke-width="0.5579" stroke-linecap="round" stroke-linejoin="round" stroke="rgb(0%, 0%, 0%)" stroke-opacity="1" stroke-miterlimit="10" d="M -2.89996 3.347778 C -2.372616 1.339966 -1.189022 0.390747 -0.00152206 0.00012207 C -1.189022 -0.390503 -2.372616 -1.339722 -2.89996 -3.347534 " transform="matrix(0, 2, 2, 0, 324.804443, 69.948357)"/>
<path fill-rule="nonzero" fill="rgb(0%, 0%, 0%)" fill-opacity="1" d="M 335.59375 49.929688 C 335.59375 49.679688 335.40625 49.398438 335.125 49.398438 C 334.8125 49.398438 333.59375 50.617188 333.1875 50.835938 C 333.1875 50.023438 333.59375 49.210938 333.59375 48.742188 C 333.59375 48.429688 333.40625 48.242188 333.09375 48.242188 C 332.78125 48.242188 332.625 48.429688 332.625 48.742188 C 332.625 49.304688 332.96875 50.054688 332.96875 50.835938 C 332.5 50.585938 331.375 49.367188 331.0625 49.367188 C 330.8125 49.367188 330.5625 49.585938 330.5625 49.867188 C 330.5625 50.367188 332.28125 50.710938 332.84375 51.023438 C 332.25 51.398438 331.09375 51.554688 330.8125 51.742188 C 330.6875 51.867188 330.5625 51.992188 330.5625 52.179688 C 330.5625 52.429688 330.75 52.679688 331.03125 52.679688 C 331.34375 52.679688 332.53125 51.492188 332.96875 51.242188 C 332.96875 52.054688 332.5625 52.867188 332.5625 53.367188 C 332.5625 53.648438 332.78125 53.867188 333.0625 53.867188 C 333.375 53.867188 333.53125 53.648438 333.53125 53.367188 C 333.53125 52.773438 333.1875 52.023438 333.1875 51.242188 C 333.65625 51.492188 334.8125 52.710938 335.09375 52.710938 C 335.34375 52.710938 335.59375 52.492188 335.59375 52.210938 C 335.59375 52.023438 335.46875 51.898438 335.3125 51.804688 C 334.9375 51.554688 333.9375 51.398438 333.3125 51.023438 C 334 50.617188 334.90625 50.585938 335.34375 50.335938 C 335.5 50.242188 335.59375 50.117188 335.59375 49.929688 Z M 335.59375 49.929688 "/>
<path fill-rule="nonzero" fill="rgb(0%, 0%, 0%)" fill-opacity="1" d="M 342.414062 54.890625 L 342.007812 54.890625 C 341.976562 55.046875 341.882812 55.765625 341.695312 55.890625 C 341.632812 55.953125 340.726562 55.953125 340.601562 55.953125 L 338.539062 55.953125 L 339.945312 54.828125 C 340.320312 54.515625 341.289062 53.828125 341.632812 53.484375 C 341.945312 53.171875 342.414062 52.609375 342.414062 51.828125 C 342.414062 50.453125 341.164062 49.671875 339.695312 49.671875 C 338.289062 49.671875 337.289062 50.578125 337.289062 51.609375 C 337.289062 52.171875 337.757812 52.234375 337.882812 52.234375 C 338.164062 52.234375 338.476562 52.046875 338.476562 51.640625 C 338.476562 51.421875 338.351562 51.078125 337.851562 51.078125 C 338.101562 50.515625 338.789062 50.078125 339.539062 50.078125 C 340.695312 50.078125 341.289062 50.953125 341.289062 51.828125 C 341.289062 52.609375 340.789062 53.421875 340.007812 54.109375 L 337.414062 56.484375 C 337.320312 56.609375 337.289062 56.609375 337.289062 56.953125 L 342.070312 56.953125 Z M 342.414062 54.890625 "/>
<path fill="none" stroke-width="0.5579" stroke-linecap="butt" stroke-linejoin="miter" stroke="rgb(0%, 0%, 0%)" stroke-opacity="1" stroke-miterlimit="10" d="M -37.375565 -0.170124 L 3.183029 -0.170124 " transform="matrix(2, 0, 0, -2, 173.548004, 85.816002)"/>
<path fill="none" stroke-width="0.5579" stroke-linecap="round" stroke-linejoin="round" stroke="rgb(0%, 0%, 0%)" stroke-opacity="1" stroke-miterlimit="10" d="M -2.902687 3.346901 C -2.371437 1.339088 -1.19175 0.38987 -0.000343323 -0.00075531 C -1.19175 -0.39138 -2.371437 -1.340599 -2.902687 -3.348412 " transform="matrix(2, 0, 0, -2, 180.469437, 86.154739)"/>
<path fill="none" stroke-width="2.49017" stroke-linecap="butt" stroke-linejoin="miter" stroke="rgb(0%, 0%, 0%)" stroke-opacity="1" stroke-miterlimit="10" d="M -23.066971 -17.701374 L -19.48494 -19.36153 " transform="matrix(2, 0, 0, -2, 173.548004, 85.816002)"/>
<path fill="none" stroke-width="1.37434" stroke-linecap="butt" stroke-linejoin="miter" stroke="rgb(100%, 100%, 100%)" stroke-opacity="1" stroke-miterlimit="10" d="M -23.066971 -17.701374 L -19.48494 -19.36153 " transform="matrix(2, 0, 0, -2, 173.548004, 85.816002)"/>
<path fill="none" stroke-width="0.5579" stroke-linecap="round" stroke-linejoin="round" stroke="rgb(0%, 0%, 0%)" stroke-opacity="1" stroke-miterlimit="10" d="M -1.294652 2.561824 C -0.667496 1.207766 1.022911 0.0491202 1.987994 0.00103255 C 1.025225 -0.0488246 -0.668073 -1.207647 -1.294051 -2.560932 " transform="matrix(1.81472, 0.84052, 0.84052, -1.81472, 134.578979, 124.541862)"/>
<path fill-rule="nonzero" fill="rgb(0%, 0%, 0%)" fill-opacity="1" d="M 117.710938 139.410156 C 118.960938 139.410156 119.648438 138.441406 120.085938 137.722656 L 119.804688 137.535156 C 119.523438 137.941406 119.023438 138.816406 118.523438 138.816406 C 118.242188 138.816406 118.148438 138.441406 118.148438 138.253906 C 118.148438 137.941406 119.273438 134.660156 119.273438 134.222656 C 119.273438 133.441406 118.992188 132.941406 118.210938 132.941406 C 117.867188 132.941406 117.273438 133.066406 116.960938 133.253906 C 116.648438 133.472656 116.367188 133.753906 116.117188 134.097656 L 116.054688 134.253906 L 117.523438 128.597656 L 115.367188 128.722656 L 115.335938 128.941406 C 115.742188 128.941406 115.929688 129.066406 116.054688 129.160156 C 116.242188 129.253906 116.335938 129.472656 116.335938 129.628906 C 116.335938 129.910156 116.242188 130.253906 116.148438 130.503906 L 113.710938 139.285156 L 114.554688 139.285156 C 115.085938 137.628906 115.648438 135.628906 116.429688 134.378906 C 116.742188 133.816406 117.273438 133.285156 117.929688 133.285156 C 118.492188 133.285156 118.335938 134.253906 118.242188 134.691406 C 118.179688 134.910156 118.085938 135.222656 117.929688 135.628906 C 117.429688 137.253906 117.117188 138.003906 117.117188 138.660156 C 117.117188 139.128906 117.273438 139.410156 117.710938 139.410156 Z M 117.710938 139.410156 "/>
<path fill-rule="nonzero" fill="rgb(0%, 0%, 0%)" fill-opacity="1" d="M 126.039062 141.464844 L 126.039062 141.027344 L 125.570312 141.027344 C 124.445312 141.027344 124.445312 140.902344 124.445312 140.527344 L 124.445312 134.496094 C 124.445312 134.183594 124.414062 134.183594 124.070312 134.183594 C 123.351562 134.871094 122.226562 134.871094 121.820312 134.871094 L 121.820312 135.308594 C 122.132812 135.308594 122.851562 135.308594 123.507812 134.996094 L 123.507812 140.527344 C 123.507812 140.902344 123.507812 141.027344 122.382812 141.027344 L 121.914062 141.027344 L 121.914062 141.464844 C 122.507812 141.433594 123.351562 141.433594 123.976562 141.433594 C 124.601562 141.433594 125.445312 141.433594 126.039062 141.464844 Z M 126.039062 141.464844 "/>
<path fill="none" stroke-width="2.49017" stroke-linecap="butt" stroke-linejoin="miter" stroke="rgb(0%, 0%, 0%)" stroke-opacity="1" stroke-miterlimit="10" d="M 40.507248 14.095501 L 47.475998 17.947063 " transform="matrix(2, 0, 0, -2, 173.548004, 85.816002)"/>
<path fill="none" stroke-width="1.37434" stroke-linecap="butt" stroke-linejoin="miter" stroke="rgb(100%, 100%, 100%)" stroke-opacity="1" stroke-miterlimit="10" d="M 40.507248 14.095501 L 47.475998 17.947063 " transform="matrix(2, 0, 0, -2, 173.548004, 85.816002)"/>
<path fill="none" stroke-width="0.5579" stroke-linecap="round" stroke-linejoin="round" stroke="rgb(0%, 0%, 0%)" stroke-opacity="1" stroke-miterlimit="10" d="M -1.292823 2.561047 C -0.667213 1.206226 1.022655 0.0484763 1.991015 -0.000498209 C 1.022085 -0.0494137 -0.667869 -1.208368 -1.293956 -2.558394 " transform="matrix(1.75016, -0.9679, -0.9679, -1.75016, 268.499298, 49.918419)"/>
<path fill-rule="nonzero" fill="rgb(0%, 0%, 0%)" fill-opacity="1" d="M 248.171875 45.765625 C 249.421875 45.765625 250.109375 44.796875 250.546875 44.078125 L 250.265625 43.890625 C 249.984375 44.296875 249.484375 45.171875 248.984375 45.171875 C 248.703125 45.171875 248.609375 44.796875 248.609375 44.609375 C 248.609375 44.296875 249.734375 41.015625 249.734375 40.578125 C 249.734375 39.796875 249.453125 39.296875 248.671875 39.296875 C 248.328125 39.296875 247.734375 39.421875 247.421875 39.609375 C 247.109375 39.828125 246.828125 40.109375 246.578125 40.453125 L 246.515625 40.609375 L 247.984375 34.953125 L 245.828125 35.078125 L 245.796875 35.296875 C 246.203125 35.296875 246.390625 35.421875 246.515625 35.515625 C 246.703125 35.609375 246.796875 35.828125 246.796875 35.984375 C 246.796875 36.265625 246.703125 36.609375 246.609375 36.859375 L 244.171875 45.640625 L 245.015625 45.640625 C 245.546875 43.984375 246.109375 41.984375 246.890625 40.734375 C 247.203125 40.171875 247.734375 39.640625 248.390625 39.640625 C 248.953125 39.640625 248.796875 40.609375 248.703125 41.046875 C 248.640625 41.265625 248.546875 41.578125 248.390625 41.984375 C 247.890625 43.609375 247.578125 44.359375 247.578125 45.015625 C 247.578125 45.484375 247.734375 45.765625 248.171875 45.765625 Z M 248.171875 45.765625 "/>
<path fill-rule="nonzero" fill="rgb(0%, 0%, 0%)" fill-opacity="1" d="M 256.875 45.761719 L 256.46875 45.761719 C 256.4375 45.917969 256.34375 46.636719 256.15625 46.761719 C 256.09375 46.824219 255.1875 46.824219 255.0625 46.824219 L 253 46.824219 L 254.40625 45.699219 C 254.78125 45.386719 255.75 44.699219 256.09375 44.355469 C 256.40625 44.042969 256.875 43.480469 256.875 42.699219 C 256.875 41.324219 255.625 40.542969 254.15625 40.542969 C 252.75 40.542969 251.75 41.449219 251.75 42.480469 C 251.75 43.042969 252.21875 43.105469 252.34375 43.105469 C 252.625 43.105469 252.9375 42.917969 252.9375 42.511719 C 252.9375 42.292969 252.8125 41.949219 252.3125 41.949219 C 252.5625 41.386719 253.25 40.949219 254 40.949219 C 255.15625 40.949219 255.75 41.824219 255.75 42.699219 C 255.75 43.480469 255.25 44.292969 254.46875 44.980469 L 251.875 47.355469 C 251.78125 47.480469 251.75 47.480469 251.75 47.824219 L 256.53125 47.824219 Z M 256.875 45.761719 "/>
<path fill="none" stroke-width="0.5579" stroke-linecap="butt" stroke-linejoin="miter" stroke="rgb(0%, 0%, 0%)" stroke-opacity="1" stroke-miterlimit="10" d="M 25.683029 -0.170124 L 64.097092 -0.170124 " transform="matrix(2, 0, 0, -2, 173.548004, 85.816002)"/>
<path fill="none" stroke-width="0.5579" stroke-linecap="round" stroke-linejoin="round" stroke="rgb(0%, 0%, 0%)" stroke-opacity="1" stroke-miterlimit="10" d="M -2.900879 3.346901 C -2.369629 1.339088 -1.189941 0.38987 0.00146484 -0.00075531 C -1.189941 -0.39138 -2.369629 -1.340599 -2.900879 -3.348412 " transform="matrix(2, 0, 0, -2, 302.301758, 86.154739)"/>
<path fill-rule="nonzero" fill="rgb(0%, 0%, 0%)" fill-opacity="1" d="M 171.527344 105.898438 L 172.152344 106.523438 L 175.746094 102.929688 L 172.121094 99.304688 L 171.527344 99.898438 L 174.527344 102.898438 Z M 171.527344 105.898438 "/>
<path fill-rule="nonzero" fill="rgb(0%, 0%, 0%)" fill-opacity="1" d="M 291.828125 73.316406 L 291.828125 74.191406 L 296.921875 74.191406 L 296.921875 69.097656 L 296.046875 69.097656 L 296.046875 73.316406 Z M 291.828125 73.316406 "/>
<path fill="none" stroke-width="0.5579" stroke-linecap="butt" stroke-linejoin="miter" stroke="rgb(0%, 0%, 0%)" stroke-opacity="1" stroke-miterlimit="10" d="M -60.914627 -25.607624 L -60.914627 -8.631062 " transform="matrix(2, 0, 0, -2, 173.548004, 85.816002)"/>
<path fill="none" stroke-width="0.5579" stroke-linecap="round" stroke-linejoin="round" stroke="rgb(0%, 0%, 0%)" stroke-opacity="1" stroke-miterlimit="10" d="M -2.899876 3.346142 C -2.372532 1.338329 -1.188938 0.389111 -0.00143814 -0.00151443 C -1.188938 -0.392139 -2.372532 -1.337452 -2.899876 -3.349171 " transform="matrix(0, -2, -2, 0, 51.715721, 102.520561)"/>
<path fill-rule="nonzero" fill="rgb(0%, 0%, 0%)" fill-opacity="1" d="M 39.753906 117.230469 C 39.753906 115.136719 39.097656 113.417969 37.535156 113.417969 C 36.316406 113.417969 35.003906 114.574219 35.003906 115.230469 C 35.003906 115.730469 35.378906 115.917969 35.660156 115.917969 C 35.972656 115.917969 36.160156 115.667969 36.191406 115.636719 C 36.128906 115.605469 36.066406 115.449219 36.066406 115.261719 C 36.066406 115.136719 36.316406 113.855469 37.566406 113.855469 C 38.628906 113.855469 38.847656 115.199219 38.847656 116.386719 C 38.847656 117.261719 38.722656 118.074219 38.722656 118.074219 L 38.691406 118.074219 C 38.691406 118.074219 38.128906 117.167969 36.972656 117.167969 C 34.066406 117.167969 32.878906 119.980469 32.878906 121.480469 C 32.878906 122.855469 33.660156 123.699219 35.285156 123.699219 C 37.785156 123.699219 39.753906 121.167969 39.753906 117.230469 Z M 38.097656 118.855469 C 38.097656 119.230469 37.722656 123.355469 35.378906 123.355469 C 34.566406 123.355469 34.191406 122.886719 34.191406 121.980469 C 34.191406 121.042969 34.785156 117.511719 36.878906 117.511719 C 37.691406 117.511719 38.097656 118.011719 38.097656 118.855469 Z M 38.097656 118.855469 "/>
<path fill-rule="nonzero" fill="rgb(0%, 0%, 0%)" fill-opacity="1" d="M 45.203125 122.164062 C 45.203125 121.351562 45.203125 118.382812 42.515625 118.382812 C 39.828125 118.382812 39.828125 121.351562 39.828125 122.164062 C 39.828125 122.945312 39.828125 125.882812 42.515625 125.882812 C 45.203125 125.882812 45.203125 122.945312 45.203125 122.164062 Z M 44.171875 122.007812 C 44.171875 122.726562 44.171875 123.820312 43.984375 124.445312 C 43.671875 125.414062 42.890625 125.539062 42.515625 125.539062 C 42.046875 125.539062 41.296875 125.320312 41.046875 124.414062 C 40.859375 123.789062 40.859375 122.695312 40.859375 122.007812 C 40.859375 121.289062 40.859375 120.445312 41.015625 119.851562 C 41.296875 118.851562 42.140625 118.726562 42.515625 118.726562 C 43.015625 118.726562 43.734375 118.976562 43.984375 119.789062 C 44.140625 120.382812 44.171875 121.164062 44.171875 122.007812 Z M 44.171875 122.007812 "/>
<path fill="none" stroke-width="0.5579" stroke-linecap="butt" stroke-linejoin="miter" stroke="rgb(0%, 0%, 0%)" stroke-opacity="1" stroke-miterlimit="10" d="M -34.85994 -35.201374 L 2.808029 -35.201374 " transform="matrix(2, 0, 0, -2, 173.548004, 85.816002)"/>
<path fill="none" stroke-width="0.5579" stroke-linecap="round" stroke-linejoin="round" stroke="rgb(0%, 0%, 0%)" stroke-opacity="1" stroke-miterlimit="10" d="M -2.900169 3.346107 C -2.372826 1.338295 -1.189232 0.389076 -0.00173187 -0.00154877 C -1.189232 -0.392174 -2.372826 -1.337486 -2.900169 -3.349205 " transform="matrix(2, 0, 0, -2, 179.722214, 156.215652)"/>
<path fill-rule="nonzero" fill="rgb(0%, 0%, 0%)" fill-opacity="1" d="M 138.875 164.203125 C 138.875 162.390625 137.375 160.921875 135.53125 160.921875 C 134.71875 160.921875 133.875 161.234375 133.28125 161.796875 L 133.28125 160.921875 L 131.09375 161.078125 L 131.09375 161.609375 C 132.09375 161.609375 132.1875 161.671875 132.1875 162.296875 L 132.1875 168.984375 C 132.1875 169.609375 132.03125 169.609375 131.09375 169.609375 L 131.09375 170.140625 C 131.09375 170.140625 132.125 170.078125 132.75 170.078125 C 133.28125 170.078125 134.28125 170.140625 134.40625 170.140625 L 134.40625 169.609375 C 133.46875 169.609375 133.3125 169.609375 133.3125 168.984375 L 133.3125 166.640625 C 133.40625 166.703125 134.09375 167.484375 135.3125 167.484375 C 137.21875 167.484375 138.875 166.046875 138.875 164.203125 Z M 137.53125 164.203125 C 137.53125 165.859375 136.4375 167.078125 135.21875 167.078125 C 133.9375 167.078125 133.375 165.953125 133.3125 165.859375 L 133.3125 162.484375 C 133.75 161.765625 134.59375 161.390625 135.375 161.390625 C 136.59375 161.390625 137.53125 162.671875 137.53125 164.203125 Z M 137.53125 164.203125 "/>
<path fill-rule="nonzero" fill="rgb(0%, 0%, 0%)" fill-opacity="1" d="M 145.457031 161.859375 C 145.457031 161.359375 144.988281 160.921875 144.332031 160.921875 C 143.582031 160.921875 142.800781 161.359375 142.363281 162.484375 L 142.332031 162.484375 L 142.332031 160.921875 L 140.269531 161.078125 L 140.269531 161.609375 C 141.238281 161.609375 141.363281 161.703125 141.363281 162.421875 L 141.363281 166.171875 C 141.363281 166.796875 141.207031 166.796875 140.269531 166.796875 L 140.269531 167.328125 C 140.332031 167.328125 141.332031 167.265625 141.925781 167.265625 L 143.800781 167.328125 L 143.800781 166.796875 L 143.519531 166.796875 C 142.457031 166.796875 142.457031 166.640625 142.457031 166.140625 L 142.457031 164.015625 C 142.457031 162.796875 143.019531 161.328125 144.394531 161.328125 C 144.269531 161.421875 144.144531 161.609375 144.144531 161.859375 C 144.144531 162.328125 144.519531 162.515625 144.800781 162.515625 C 145.144531 162.515625 145.457031 162.296875 145.457031 161.859375 Z M 145.457031 161.859375 "/>
<path fill-rule="nonzero" fill="rgb(0%, 0%, 0%)" fill-opacity="1" d="M 151.574219 170.707031 L 151.574219 170.269531 L 151.105469 170.269531 C 149.980469 170.269531 149.980469 170.144531 149.980469 169.769531 L 149.980469 163.738281 C 149.980469 163.425781 149.949219 163.425781 149.605469 163.425781 C 148.886719 164.113281 147.761719 164.113281 147.355469 164.113281 L 147.355469 164.550781 C 147.667969 164.550781 148.386719 164.550781 149.042969 164.238281 L 149.042969 169.769531 C 149.042969 170.144531 149.042969 170.269531 147.917969 170.269531 L 147.449219 170.269531 L 147.449219 170.707031 C 148.042969 170.675781 148.886719 170.675781 149.511719 170.675781 C 150.136719 170.675781 150.980469 170.675781 151.574219 170.707031 Z M 151.574219 170.707031 "/>
<path fill="none" stroke-width="0.5579" stroke-linecap="butt" stroke-linejoin="miter" stroke="rgb(0%, 0%, 0%)" stroke-opacity="1" stroke-miterlimit="10" d="M 14.710373 -26.95528 L 14.710373 -8.631062 " transform="matrix(2, 0, 0, -2, 173.548004, 85.816002)"/>
<path fill="none" stroke-width="0.5579" stroke-linecap="round" stroke-linejoin="round" stroke="rgb(0%, 0%, 0%)" stroke-opacity="1" stroke-miterlimit="10" d="M -2.899876 3.34935 C -2.372532 1.337631 -1.188938 0.392319 -0.00143814 0.00169373 C -1.188938 -0.388931 -2.372532 -1.33815 -2.899876 -3.345963 " transform="matrix(0, -2, -2, 0, 202.972137, 102.520561)"/>
<path fill-rule="nonzero" fill="rgb(0%, 0%, 0%)" fill-opacity="1" d="M 213.761719 118.21875 C 213.761719 117.96875 213.574219 117.6875 213.292969 117.6875 C 212.980469 117.6875 211.761719 118.90625 211.355469 119.125 C 211.355469 118.3125 211.761719 117.5 211.761719 117.03125 C 211.761719 116.71875 211.574219 116.53125 211.261719 116.53125 C 210.949219 116.53125 210.792969 116.71875 210.792969 117.03125 C 210.792969 117.59375 211.136719 118.34375 211.136719 119.125 C 210.667969 118.875 209.542969 117.65625 209.230469 117.65625 C 208.980469 117.65625 208.730469 117.875 208.730469 118.15625 C 208.730469 118.65625 210.449219 119 211.011719 119.3125 C 210.417969 119.6875 209.261719 119.84375 208.980469 120.03125 C 208.855469 120.15625 208.730469 120.28125 208.730469 120.46875 C 208.730469 120.71875 208.917969 120.96875 209.199219 120.96875 C 209.511719 120.96875 210.699219 119.78125 211.136719 119.53125 C 211.136719 120.34375 210.730469 121.15625 210.730469 121.65625 C 210.730469 121.9375 210.949219 122.15625 211.230469 122.15625 C 211.542969 122.15625 211.699219 121.9375 211.699219 121.65625 C 211.699219 121.0625 211.355469 120.3125 211.355469 119.53125 C 211.824219 119.78125 212.980469 121 213.261719 121 C 213.511719 121 213.761719 120.78125 213.761719 120.5 C 213.761719 120.3125 213.636719 120.1875 213.480469 120.09375 C 213.105469 119.84375 212.105469 119.6875 211.480469 119.3125 C 212.167969 118.90625 213.074219 118.875 213.511719 118.625 C 213.667969 118.53125 213.761719 118.40625 213.761719 118.21875 Z M 213.761719 118.21875 "/>
<path fill-rule="nonzero" fill="rgb(0%, 0%, 0%)" fill-opacity="1" d="M 220.207031 125.246094 L 220.207031 124.808594 L 219.738281 124.808594 C 218.613281 124.808594 218.613281 124.683594 218.613281 124.308594 L 218.613281 118.277344 C 218.613281 117.964844 218.582031 117.964844 218.238281 117.964844 C 217.519531 118.652344 216.394531 118.652344 215.988281 118.652344 L 215.988281 119.089844 C 216.300781 119.089844 217.019531 119.089844 217.675781 118.777344 L 217.675781 124.308594 C 217.675781 124.683594 217.675781 124.808594 216.550781 124.808594 L 216.082031 124.808594 L 216.082031 125.246094 C 216.675781 125.214844 217.519531 125.214844 218.144531 125.214844 C 218.769531 125.214844 219.613281 125.214844 220.207031 125.246094 Z M 220.207031 125.246094 "/>
</svg>
