<?xml version="1.0" encoding="UTF-8"?>
<svg xmlns="http://www.w3.org/2000/svg" xmlns:xlink="http://www.w3.org/1999/xlink" width="197.240005" height="104.940002" viewBox="0 0 197.240005 104.940002">
<defs>
<clipPath id="clip-0">
<path clip-rule="nonzero" d="M 32 0 L 194 0 L 194 104.9375 L 32 104.9375 Z M 32 0 "/>
</clipPath>
</defs>
<path fill-rule="nonzero" fill="rgb(0%, 0%, 0%)" fill-opacity="1" d="M 28.527344 9.277344 L 28.964844 8.621094 L 26.371094 18.527344 C 26.246094 18.996094 26.152344 19.339844 25.996094 19.621094 C 25.839844 20.089844 25.433594 20.589844 24.996094 20.777344 C 24.777344 20.871094 24.464844 20.933594 24.152344 20.933594 L 24.058594 21.214844 L 29.808594 21.214844 L 29.902344 20.933594 C 29.277344 20.933594 28.777344 20.871094 28.527344 20.683594 C 28.246094 20.464844 28.183594 20.027344 28.183594 19.621094 C 28.183594 19.308594 28.246094 18.871094 28.402344 18.339844 L 30.371094 10.871094 C 30.527344 10.246094 30.652344 9.746094 30.777344 9.371094 C 30.996094 8.777344 31.433594 8.121094 31.871094 7.808594 C 32.089844 7.683594 32.371094 7.652344 32.714844 7.652344 L 32.808594 7.371094 L 29.214844 7.371094 L 22.527344 18.089844 L 22.246094 18.089844 L 20.964844 7.371094 L 16.683594 7.371094 L 16.589844 7.652344 C 17.214844 7.652344 17.621094 7.652344 17.839844 7.777344 C 18.121094 7.902344 18.464844 8.402344 18.464844 8.777344 C 18.464844 9.089844 18.402344 9.589844 18.214844 10.246094 L 16.027344 18.527344 C 15.871094 19.152344 15.371094 19.839844 14.902344 20.246094 C 14.464844 20.652344 13.777344 20.933594 13.214844 20.933594 L 13.152344 21.214844 L 18.121094 21.214844 L 18.214844 20.933594 C 17.746094 20.902344 17.214844 20.808594 16.996094 20.496094 C 16.777344 20.183594 16.464844 19.652344 16.464844 19.152344 C 16.464844 18.871094 16.464844 18.589844 16.527344 18.339844 L 18.933594 9.277344 L 19.058594 8.839844 L 20.527344 21.214844 L 21.121094 21.214844 Z M 28.527344 9.277344 "/>
<path fill-rule="nonzero" fill="rgb(0%, 0%, 0%)" fill-opacity="1" d="M 39.253906 19.578125 C 39.253906 17.984375 39.066406 16.828125 38.410156 15.796875 C 37.941406 15.140625 37.035156 14.546875 35.878906 14.546875 C 32.503906 14.546875 32.503906 18.515625 32.503906 19.578125 C 32.503906 20.609375 32.503906 24.484375 35.878906 24.484375 C 39.253906 24.484375 39.253906 20.609375 39.253906 19.578125 Z M 37.941406 19.390625 C 37.941406 20.453125 37.941406 21.515625 37.753906 22.453125 C 37.441406 23.765625 36.472656 24.078125 35.878906 24.078125 C 35.222656 24.078125 34.316406 23.703125 34.035156 22.515625 C 33.816406 21.640625 33.816406 20.453125 33.816406 19.390625 C 33.816406 18.328125 33.816406 17.203125 34.035156 16.421875 C 34.347656 15.265625 35.285156 14.953125 35.878906 14.953125 C 36.660156 14.953125 37.410156 15.453125 37.691406 16.296875 C 37.910156 17.078125 37.941406 18.109375 37.941406 19.390625 Z M 37.941406 19.390625 "/>
<path fill-rule="nonzero" fill="rgb(0%, 0%, 0%)" fill-opacity="1" d="M 57.5625 14.621094 L 57.5625 13.527344 L 47.375 13.527344 L 47.375 14.621094 Z M 57.5625 18.683594 L 57.5625 17.558594 L 47.375 17.558594 L 47.375 18.683594 Z M 57.5625 18.683594 "/>
<path fill-rule="nonzero" fill="rgb(0%, 0%, 0%)" fill-opacity="1" d="M 79.550781 21.214844 L 79.550781 8.027344 L 76.644531 8.027344 L 72.457031 19.683594 L 72.394531 19.683594 L 68.394531 8.027344 L 65.300781 8.027344 L 65.300781 21.214844 L 66.175781 21.214844 L 66.175781 11.871094 L 66.207031 11.871094 L 69.457031 21.214844 L 72.832031 21.214844 L 76.207031 11.808594 L 76.238281 11.808594 L 76.238281 21.214844 Z M 78.675781 20.339844 L 77.113281 20.339844 L 77.113281 8.902344 L 78.675781 8.902344 Z M 71.738281 20.339844 L 70.082031 20.339844 L 66.519531 10.121094 L 66.113281 8.902344 L 67.707031 8.902344 Z M 71.738281 20.339844 "/>
<path fill-rule="nonzero" fill="rgb(0%, 0%, 0%)" fill-opacity="1" d="M 88.03125 19.578125 C 88.03125 17.984375 87.84375 16.828125 87.1875 15.796875 C 86.71875 15.140625 85.8125 14.546875 84.65625 14.546875 C 81.28125 14.546875 81.28125 18.515625 81.28125 19.578125 C 81.28125 20.609375 81.28125 24.484375 84.65625 24.484375 C 88.03125 24.484375 88.03125 20.609375 88.03125 19.578125 Z M 86.71875 19.390625 C 86.71875 20.453125 86.71875 21.515625 86.53125 22.453125 C 86.21875 23.765625 85.25 24.078125 84.65625 24.078125 C 84 24.078125 83.09375 23.703125 82.8125 22.515625 C 82.59375 21.640625 82.59375 20.453125 82.59375 19.390625 C 82.59375 18.328125 82.59375 17.203125 82.8125 16.421875 C 83.125 15.265625 84.0625 14.953125 84.65625 14.953125 C 85.4375 14.953125 86.1875 15.453125 86.46875 16.296875 C 86.6875 17.078125 86.71875 18.109375 86.71875 19.390625 Z M 86.71875 19.390625 "/>
<path fill-rule="nonzero" fill="rgb(0%, 0%, 0%)" fill-opacity="1" d="M 176.246094 21.214844 L 176.246094 8.027344 L 173.339844 8.027344 L 169.152344 19.683594 L 169.089844 19.683594 L 165.089844 8.027344 L 161.996094 8.027344 L 161.996094 21.214844 L 162.871094 21.214844 L 162.871094 11.871094 L 162.902344 11.871094 L 166.152344 21.214844 L 169.527344 21.214844 L 172.902344 11.808594 L 172.933594 11.808594 L 172.933594 21.214844 Z M 175.371094 20.339844 L 173.808594 20.339844 L 173.808594 8.902344 L 175.371094 8.902344 Z M 168.433594 20.339844 L 166.777344 20.339844 L 163.214844 10.121094 L 162.808594 8.902344 L 164.402344 8.902344 Z M 168.433594 20.339844 "/>
<path fill-rule="nonzero" fill="rgb(0%, 0%, 0%)" fill-opacity="1" d="M 184.101562 24.203125 L 184.101562 23.671875 L 183.539062 23.671875 C 182.101562 23.671875 182.101562 23.484375 182.101562 23.015625 L 182.101562 14.953125 C 182.101562 14.578125 182.070312 14.546875 181.664062 14.546875 C 180.726562 15.484375 179.414062 15.484375 178.820312 15.484375 L 178.820312 16.015625 C 179.164062 16.015625 180.132812 16.015625 180.914062 15.609375 L 180.914062 23.015625 C 180.914062 23.484375 180.914062 23.671875 179.476562 23.671875 L 178.914062 23.671875 L 178.914062 24.203125 L 181.507812 24.140625 Z M 184.101562 24.203125 "/>
<path fill-rule="nonzero" fill="rgb(0%, 0%, 0%)" fill-opacity="1" d="M 23.492188 79.339844 L 23.929688 78.683594 L 21.335938 88.589844 C 21.210938 89.058594 21.117188 89.402344 20.960938 89.683594 C 20.804688 90.152344 20.398438 90.652344 19.960938 90.839844 C 19.742188 90.933594 19.429688 90.996094 19.117188 90.996094 L 19.023438 91.277344 L 24.773438 91.277344 L 24.867188 90.996094 C 24.242188 90.996094 23.742188 90.933594 23.492188 90.746094 C 23.210938 90.527344 23.148438 90.089844 23.148438 89.683594 C 23.148438 89.371094 23.210938 88.933594 23.367188 88.402344 L 25.335938 80.933594 C 25.492188 80.308594 25.617188 79.808594 25.742188 79.433594 C 25.960938 78.839844 26.398438 78.183594 26.835938 77.871094 C 27.054688 77.746094 27.335938 77.714844 27.679688 77.714844 L 27.773438 77.433594 L 24.179688 77.433594 L 17.492188 88.152344 L 17.210938 88.152344 L 15.929688 77.433594 L 11.648438 77.433594 L 11.554688 77.714844 C 12.179688 77.714844 12.585938 77.714844 12.804688 77.839844 C 13.085938 77.964844 13.429688 78.464844 13.429688 78.839844 C 13.429688 79.152344 13.367188 79.652344 13.179688 80.308594 L 10.992188 88.589844 C 10.835938 89.214844 10.335938 89.902344 9.867188 90.308594 C 9.429688 90.714844 8.742188 90.996094 8.179688 90.996094 L 8.117188 91.277344 L 13.085938 91.277344 L 13.179688 90.996094 C 12.710938 90.964844 12.179688 90.871094 11.960938 90.558594 C 11.742188 90.246094 11.429688 89.714844 11.429688 89.214844 C 11.429688 88.933594 11.429688 88.652344 11.492188 88.402344 L 13.898438 79.339844 L 14.023438 78.902344 L 15.492188 91.277344 L 16.085938 91.277344 Z M 23.492188 79.339844 "/>
<path fill-rule="nonzero" fill="rgb(0%, 0%, 0%)" fill-opacity="1" d="M 33.59375 94.265625 L 33.59375 93.734375 L 33.03125 93.734375 C 31.59375 93.734375 31.59375 93.546875 31.59375 93.078125 L 31.59375 85.015625 C 31.59375 84.640625 31.5625 84.609375 31.15625 84.609375 C 30.21875 85.546875 28.90625 85.546875 28.3125 85.546875 L 28.3125 86.078125 C 28.65625 86.078125 29.625 86.078125 30.40625 85.671875 L 30.40625 93.078125 C 30.40625 93.546875 30.40625 93.734375 28.96875 93.734375 L 28.40625 93.734375 L 28.40625 94.265625 L 31 94.203125 Z M 33.59375 94.265625 "/>
<path fill-rule="nonzero" fill="rgb(0%, 0%, 0%)" fill-opacity="1" d="M 51.988281 90.589844 L 47.550781 86.152344 L 51.988281 81.714844 L 51.207031 80.902344 L 46.769531 85.371094 L 42.332031 80.902344 L 41.550781 81.714844 L 45.957031 86.152344 L 41.550781 90.589844 L 42.332031 91.371094 L 46.769531 86.933594 L 51.207031 91.371094 Z M 51.988281 90.589844 "/>
<path fill-rule="nonzero" fill="rgb(0%, 0%, 0%)" fill-opacity="1" d="M 67.753906 82.683594 C 67.753906 79.808594 66.878906 77.496094 64.722656 77.496094 C 63.035156 77.496094 61.222656 79.089844 61.222656 79.964844 C 61.222656 80.621094 61.753906 80.902344 62.160156 80.902344 C 62.566406 80.902344 62.816406 80.558594 62.878906 80.496094 C 62.816406 80.464844 62.691406 80.277344 62.691406 79.996094 C 62.691406 79.808594 63.035156 78.089844 64.753906 78.089844 C 66.191406 78.089844 66.503906 79.933594 66.503906 81.558594 C 66.503906 82.777344 66.347656 83.839844 66.347656 83.871094 L 66.316406 83.871094 C 66.316406 83.839844 65.535156 82.621094 63.972656 82.621094 C 59.972656 82.621094 58.316406 86.496094 58.316406 88.558594 C 58.316406 90.402344 59.410156 91.589844 61.628906 91.589844 C 65.066406 91.589844 67.753906 88.121094 67.753906 82.683594 Z M 65.472656 84.933594 C 65.472656 85.464844 64.972656 91.121094 61.753906 91.121094 C 60.628906 91.121094 60.128906 90.464844 60.128906 89.214844 C 60.128906 87.933594 60.941406 83.089844 63.816406 83.089844 C 64.941406 83.089844 65.472656 83.746094 65.472656 84.933594 Z M 65.472656 84.933594 "/>
<path fill-rule="nonzero" fill="rgb(0%, 0%, 0%)" fill-opacity="1" d="M 84.710938 91.277344 L 78.148438 77.433594 L 76.367188 77.433594 L 69.804688 91.277344 Z M 81.960938 89.621094 L 72.117188 89.621094 L 74.960938 83.527344 C 76.085938 81.152344 76.804688 79.621094 77.023438 78.808594 C 77.117188 79.089844 77.242188 79.496094 78.335938 81.839844 Z M 81.960938 89.621094 "/>
<path fill-rule="nonzero" fill="rgb(0%, 0%, 0%)" fill-opacity="1" d="M 93.066406 79.417969 C 93.066406 77.824219 92.878906 76.667969 92.222656 75.636719 C 91.753906 74.980469 90.847656 74.386719 89.691406 74.386719 C 86.316406 74.386719 86.316406 78.355469 86.316406 79.417969 C 86.316406 80.449219 86.316406 84.324219 89.691406 84.324219 C 93.066406 84.324219 93.066406 80.449219 93.066406 79.417969 Z M 91.753906 79.230469 C 91.753906 80.292969 91.753906 81.355469 91.566406 82.292969 C 91.253906 83.605469 90.285156 83.917969 89.691406 83.917969 C 89.035156 83.917969 88.128906 83.542969 87.847656 82.355469 C 87.628906 81.480469 87.628906 80.292969 87.628906 79.230469 C 87.628906 78.167969 87.628906 77.042969 87.847656 76.261719 C 88.160156 75.105469 89.097656 74.792969 89.691406 74.792969 C 90.472656 74.792969 91.222656 75.292969 91.503906 76.136719 C 91.722656 76.917969 91.753906 77.949219 91.753906 79.230469 Z M 91.753906 79.230469 "/>
<path fill-rule="nonzero" fill="rgb(0%, 0%, 0%)" fill-opacity="1" d="M 174.746094 79.339844 L 175.183594 78.683594 L 172.589844 88.589844 C 172.464844 89.058594 172.371094 89.402344 172.214844 89.683594 C 172.058594 90.152344 171.652344 90.652344 171.214844 90.839844 C 170.996094 90.933594 170.683594 90.996094 170.371094 90.996094 L 170.277344 91.277344 L 176.027344 91.277344 L 176.121094 90.996094 C 175.496094 90.996094 174.996094 90.933594 174.746094 90.746094 C 174.464844 90.527344 174.402344 90.089844 174.402344 89.683594 C 174.402344 89.371094 174.464844 88.933594 174.621094 88.402344 L 176.589844 80.933594 C 176.746094 80.308594 176.871094 79.808594 176.996094 79.433594 C 177.214844 78.839844 177.652344 78.183594 178.089844 77.871094 C 178.308594 77.746094 178.589844 77.714844 178.933594 77.714844 L 179.027344 77.433594 L 175.433594 77.433594 L 168.746094 88.152344 L 168.464844 88.152344 L 167.183594 77.433594 L 162.902344 77.433594 L 162.808594 77.714844 C 163.433594 77.714844 163.839844 77.714844 164.058594 77.839844 C 164.339844 77.964844 164.683594 78.464844 164.683594 78.839844 C 164.683594 79.152344 164.621094 79.652344 164.433594 80.308594 L 162.246094 88.589844 C 162.089844 89.214844 161.589844 89.902344 161.121094 90.308594 C 160.683594 90.714844 159.996094 90.996094 159.433594 90.996094 L 159.371094 91.277344 L 164.339844 91.277344 L 164.433594 90.996094 C 163.964844 90.964844 163.433594 90.871094 163.214844 90.558594 C 162.996094 90.246094 162.683594 89.714844 162.683594 89.214844 C 162.683594 88.933594 162.683594 88.652344 162.746094 88.402344 L 165.152344 79.339844 L 165.277344 78.902344 L 166.746094 91.277344 L 167.339844 91.277344 Z M 174.746094 79.339844 "/>
<path fill-rule="nonzero" fill="rgb(0%, 0%, 0%)" fill-opacity="1" d="M 184.847656 94.265625 L 184.847656 93.734375 L 184.285156 93.734375 C 182.847656 93.734375 182.847656 93.546875 182.847656 93.078125 L 182.847656 85.015625 C 182.847656 84.640625 182.816406 84.609375 182.410156 84.609375 C 181.472656 85.546875 180.160156 85.546875 179.566406 85.546875 L 179.566406 86.078125 C 179.910156 86.078125 180.878906 86.078125 181.660156 85.671875 L 181.660156 93.078125 C 181.660156 93.546875 181.660156 93.734375 180.222656 93.734375 L 179.660156 93.734375 L 179.660156 94.265625 L 182.253906 94.203125 Z M 184.847656 94.265625 "/>
<path fill="none" stroke-width="0.5579" stroke-linecap="butt" stroke-linejoin="miter" stroke="rgb(0%, 0%, 0%)" stroke-opacity="1" stroke-miterlimit="10" d="M 0.438438 17.346125 L 26.282188 17.346125 " transform="matrix(2, 0, 0, -2, 97.919998, 50.785999)"/>
<path fill="none" stroke-width="0.5579" stroke-linecap="round" stroke-linejoin="round" stroke="rgb(0%, 0%, 0%)" stroke-opacity="1" stroke-miterlimit="10" d="M -2.901665 3.347951 C -2.370415 1.340138 -1.190727 0.39092 0.000679016 0.000294685 C -1.190727 -0.39033 -2.370415 -1.339549 -2.901665 -3.347362 " transform="matrix(2, 0, 0, -2, 151.045517, 16.094339)"/>
<g clip-path="url(#clip-0)">
<path fill="none" stroke-width="2.49017" stroke-linecap="butt" stroke-linejoin="miter" stroke="rgb(0%, 0%, 0%)" stroke-opacity="1" stroke-miterlimit="10" d="M 2.731407 2.48675 L 12.411095 -3.079657 " transform="matrix(2, 0, 0, -2, 97.919998, 50.785999)"/>
</g>
<path fill="none" stroke-width="1.37434" stroke-linecap="butt" stroke-linejoin="miter" stroke="rgb(100%, 100%, 100%)" stroke-opacity="1" stroke-miterlimit="10" d="M 2.731407 2.48675 L 12.411095 -3.079657 " transform="matrix(2, 0, 0, -2, 97.919998, 50.785999)"/>
<path fill="none" stroke-width="0.5579" stroke-linecap="round" stroke-linejoin="round" stroke="rgb(0%, 0%, 0%)" stroke-opacity="1" stroke-miterlimit="10" d="M -1.295606 2.558687 C -0.667265 1.207639 1.02263 0.0480453 1.991336 0.00133527 C 1.024842 -0.0498235 -0.666318 -1.207254 -1.294358 -2.559882 " transform="matrix(1.73364, 0.9971, 0.9971, -1.73364, 122.741722, 56.946442)"/>
<path fill-rule="nonzero" fill="rgb(0%, 0%, 0%)" fill-opacity="1" d="M 99.683594 68.082031 C 100.933594 68.082031 101.621094 67.113281 102.058594 66.394531 L 101.777344 66.207031 C 101.496094 66.613281 100.996094 67.488281 100.496094 67.488281 C 100.214844 67.488281 100.121094 67.113281 100.121094 66.925781 C 100.121094 66.613281 101.246094 63.332031 101.246094 62.894531 C 101.246094 62.113281 100.964844 61.613281 100.183594 61.613281 C 99.839844 61.613281 99.246094 61.738281 98.933594 61.925781 C 98.621094 62.144531 98.339844 62.425781 98.089844 62.769531 L 98.027344 62.925781 L 99.496094 57.269531 L 97.339844 57.394531 L 97.308594 57.613281 C 97.714844 57.613281 97.902344 57.738281 98.027344 57.832031 C 98.214844 57.925781 98.308594 58.144531 98.308594 58.300781 C 98.308594 58.582031 98.214844 58.925781 98.121094 59.175781 L 95.683594 67.957031 L 96.527344 67.957031 C 97.058594 66.300781 97.621094 64.300781 98.402344 63.050781 C 98.714844 62.488281 99.246094 61.957031 99.902344 61.957031 C 100.464844 61.957031 100.308594 62.925781 100.214844 63.363281 C 100.152344 63.582031 100.058594 63.894531 99.902344 64.300781 C 99.402344 65.925781 99.089844 66.675781 99.089844 67.332031 C 99.089844 67.800781 99.246094 68.082031 99.683594 68.082031 Z M 99.683594 68.082031 "/>
<path fill-rule="nonzero" fill="rgb(0%, 0%, 0%)" fill-opacity="1" d="M 108.015625 70.140625 L 108.015625 69.703125 L 107.546875 69.703125 C 106.421875 69.703125 106.421875 69.578125 106.421875 69.203125 L 106.421875 63.171875 C 106.421875 62.859375 106.390625 62.859375 106.046875 62.859375 C 105.328125 63.546875 104.203125 63.546875 103.796875 63.546875 L 103.796875 63.984375 C 104.109375 63.984375 104.828125 63.984375 105.484375 63.671875 L 105.484375 69.203125 C 105.484375 69.578125 105.484375 69.703125 104.359375 69.703125 L 103.890625 69.703125 L 103.890625 70.140625 C 104.484375 70.109375 105.328125 70.109375 105.953125 70.109375 C 106.578125 70.109375 107.421875 70.109375 108.015625 70.140625 Z M 108.015625 70.140625 "/>
<path fill-rule="nonzero" fill="rgb(0%, 0%, 0%)" fill-opacity="1" d="M 147.507812 35.605469 L 148.382812 35.605469 L 148.382812 30.511719 L 143.289062 30.511719 L 143.289062 31.386719 L 147.507812 31.386719 Z M 147.507812 35.605469 "/>
<path fill="none" stroke-width="0.5579" stroke-linecap="butt" stroke-linejoin="miter" stroke="rgb(0%, 0%, 0%)" stroke-opacity="1" stroke-miterlimit="10" d="M -23.100624 -8.091375 L -23.100624 8.885187 " transform="matrix(2, 0, 0, -2, 97.919998, 50.785999)"/>
<path fill="none" stroke-width="0.5579" stroke-linecap="round" stroke-linejoin="round" stroke="rgb(0%, 0%, 0%)" stroke-opacity="1" stroke-miterlimit="10" d="M -2.902733 3.346241 C -2.371483 1.338428 -1.191795 0.38921 -0.000389099 -0.00141525 C -1.191795 -0.39204 -2.371483 -1.337353 -2.902733 -3.349072 " transform="matrix(0, -2, -2, 0, 51.715919, 32.460159)"/>
<path fill-rule="nonzero" fill="rgb(0%, 0%, 0%)" fill-opacity="1" d="M 39.753906 47.171875 C 39.753906 45.078125 39.097656 43.359375 37.535156 43.359375 C 36.316406 43.359375 35.003906 44.515625 35.003906 45.171875 C 35.003906 45.671875 35.378906 45.859375 35.660156 45.859375 C 35.972656 45.859375 36.160156 45.609375 36.191406 45.578125 C 36.128906 45.546875 36.066406 45.390625 36.066406 45.203125 C 36.066406 45.078125 36.316406 43.796875 37.566406 43.796875 C 38.628906 43.796875 38.847656 45.140625 38.847656 46.328125 C 38.847656 47.203125 38.722656 48.015625 38.722656 48.015625 L 38.691406 48.015625 C 38.691406 48.015625 38.128906 47.109375 36.972656 47.109375 C 34.066406 47.109375 32.878906 49.921875 32.878906 51.421875 C 32.878906 52.796875 33.660156 53.640625 35.285156 53.640625 C 37.785156 53.640625 39.753906 51.109375 39.753906 47.171875 Z M 38.097656 48.796875 C 38.097656 49.171875 37.722656 53.296875 35.378906 53.296875 C 34.566406 53.296875 34.191406 52.828125 34.191406 51.921875 C 34.191406 50.984375 34.785156 47.453125 36.878906 47.453125 C 37.691406 47.453125 38.097656 47.953125 38.097656 48.796875 Z M 38.097656 48.796875 "/>
<path fill-rule="nonzero" fill="rgb(0%, 0%, 0%)" fill-opacity="1" d="M 45.203125 52.105469 C 45.203125 51.292969 45.203125 48.324219 42.515625 48.324219 C 39.828125 48.324219 39.828125 51.292969 39.828125 52.105469 C 39.828125 52.886719 39.828125 55.824219 42.515625 55.824219 C 45.203125 55.824219 45.203125 52.886719 45.203125 52.105469 Z M 44.171875 51.949219 C 44.171875 52.667969 44.171875 53.761719 43.984375 54.386719 C 43.671875 55.355469 42.890625 55.480469 42.515625 55.480469 C 42.046875 55.480469 41.296875 55.261719 41.046875 54.355469 C 40.859375 53.730469 40.859375 52.636719 40.859375 51.949219 C 40.859375 51.230469 40.859375 50.386719 41.015625 49.792969 C 41.296875 48.792969 42.140625 48.667969 42.515625 48.667969 C 43.015625 48.667969 43.734375 48.917969 43.984375 49.730469 C 44.140625 50.324219 44.171875 51.105469 44.171875 51.949219 Z M 44.171875 51.949219 "/>
<path fill="none" stroke-width="0.5579" stroke-linecap="butt" stroke-linejoin="miter" stroke="rgb(0%, 0%, 0%)" stroke-opacity="1" stroke-miterlimit="10" d="M 2.95797 -17.685125 L 25.911095 -17.685125 " transform="matrix(2, 0, 0, -2, 97.919998, 50.785999)"/>
<path fill="none" stroke-width="0.5579" stroke-linecap="round" stroke-linejoin="round" stroke="rgb(0%, 0%, 0%)" stroke-opacity="1" stroke-miterlimit="10" d="M -2.903053 3.34713 C -2.371803 1.339317 -1.18821 0.390099 -0.000709534 -0.000526428 C -1.18821 -0.391151 -2.371803 -1.34037 -2.903053 -3.348183 " transform="matrix(2, 0, 0, -2, 150.298294, 86.155197)"/>
<path fill-rule="nonzero" fill="rgb(0%, 0%, 0%)" fill-opacity="1" d="M 124.160156 94.144531 C 124.160156 92.332031 122.660156 90.863281 120.816406 90.863281 C 120.003906 90.863281 119.160156 91.175781 118.566406 91.738281 L 118.566406 90.863281 L 116.378906 91.019531 L 116.378906 91.550781 C 117.378906 91.550781 117.472656 91.613281 117.472656 92.238281 L 117.472656 98.925781 C 117.472656 99.550781 117.316406 99.550781 116.378906 99.550781 L 116.378906 100.082031 C 116.378906 100.082031 117.410156 100.019531 118.035156 100.019531 C 118.566406 100.019531 119.566406 100.082031 119.691406 100.082031 L 119.691406 99.550781 C 118.753906 99.550781 118.597656 99.550781 118.597656 98.925781 L 118.597656 96.582031 C 118.691406 96.644531 119.378906 97.425781 120.597656 97.425781 C 122.503906 97.425781 124.160156 95.988281 124.160156 94.144531 Z M 122.816406 94.144531 C 122.816406 95.800781 121.722656 97.019531 120.503906 97.019531 C 119.222656 97.019531 118.660156 95.894531 118.597656 95.800781 L 118.597656 92.425781 C 119.035156 91.707031 119.878906 91.332031 120.660156 91.332031 C 121.878906 91.332031 122.816406 92.613281 122.816406 94.144531 Z M 122.816406 94.144531 "/>
<path fill-rule="nonzero" fill="rgb(0%, 0%, 0%)" fill-opacity="1" d="M 130.746094 91.800781 C 130.746094 91.300781 130.277344 90.863281 129.621094 90.863281 C 128.871094 90.863281 128.089844 91.300781 127.652344 92.425781 L 127.621094 92.425781 L 127.621094 90.863281 L 125.558594 91.019531 L 125.558594 91.550781 C 126.527344 91.550781 126.652344 91.644531 126.652344 92.363281 L 126.652344 96.113281 C 126.652344 96.738281 126.496094 96.738281 125.558594 96.738281 L 125.558594 97.269531 C 125.621094 97.269531 126.621094 97.207031 127.214844 97.207031 L 129.089844 97.269531 L 129.089844 96.738281 L 128.808594 96.738281 C 127.746094 96.738281 127.746094 96.582031 127.746094 96.082031 L 127.746094 93.957031 C 127.746094 92.738281 128.308594 91.269531 129.683594 91.269531 C 129.558594 91.363281 129.433594 91.550781 129.433594 91.800781 C 129.433594 92.269531 129.808594 92.457031 130.089844 92.457031 C 130.433594 92.457031 130.746094 92.238281 130.746094 91.800781 Z M 130.746094 91.800781 "/>
<path fill-rule="nonzero" fill="rgb(0%, 0%, 0%)" fill-opacity="1" d="M 136.867188 100.644531 L 136.867188 100.207031 L 136.398438 100.207031 C 135.273438 100.207031 135.273438 100.082031 135.273438 99.707031 L 135.273438 93.675781 C 135.273438 93.363281 135.242188 93.363281 134.898438 93.363281 C 134.179688 94.050781 133.054688 94.050781 132.648438 94.050781 L 132.648438 94.488281 C 132.960938 94.488281 133.679688 94.488281 134.335938 94.175781 L 134.335938 99.707031 C 134.335938 100.082031 134.335938 100.207031 133.210938 100.207031 L 132.742188 100.207031 L 132.742188 100.644531 C 133.335938 100.613281 134.179688 100.613281 134.804688 100.613281 C 135.429688 100.613281 136.273438 100.613281 136.867188 100.644531 Z M 136.867188 100.644531 "/>
<path fill="none" stroke-width="0.5579" stroke-linecap="butt" stroke-linejoin="miter" stroke="rgb(0%, 0%, 0%)" stroke-opacity="1" stroke-miterlimit="10" d="M 37.813438 -9.442938 L 37.813438 8.885187 " transform="matrix(2, 0, 0, -2, 97.919998, 50.785999)"/>
<path fill="none" stroke-width="0.5579" stroke-linecap="round" stroke-linejoin="round" stroke="rgb(0%, 0%, 0%)" stroke-opacity="1" stroke-miterlimit="10" d="M -2.902733 3.34832 C -2.371483 1.340508 -1.191795 0.391289 -0.000389099 0.000663757 C -1.191795 -0.389961 -2.371483 -1.33918 -2.902733 -3.346992 " transform="matrix(0, -2, -2, 0, 173.548203, 32.460159)"/>
<path fill-rule="nonzero" fill="rgb(0%, 0%, 0%)" fill-opacity="1" d="M 184.335938 48.160156 C 184.335938 47.910156 184.148438 47.628906 183.867188 47.628906 C 183.554688 47.628906 182.335938 48.847656 181.929688 49.066406 C 181.929688 48.253906 182.335938 47.441406 182.335938 46.972656 C 182.335938 46.660156 182.148438 46.472656 181.835938 46.472656 C 181.523438 46.472656 181.367188 46.660156 181.367188 46.972656 C 181.367188 47.535156 181.710938 48.285156 181.710938 49.066406 C 181.242188 48.816406 180.117188 47.597656 179.804688 47.597656 C 179.554688 47.597656 179.304688 47.816406 179.304688 48.097656 C 179.304688 48.597656 181.023438 48.941406 181.585938 49.253906 C 180.992188 49.628906 179.835938 49.785156 179.554688 49.972656 C 179.429688 50.097656 179.304688 50.222656 179.304688 50.410156 C 179.304688 50.660156 179.492188 50.910156 179.773438 50.910156 C 180.085938 50.910156 181.273438 49.722656 181.710938 49.472656 C 181.710938 50.285156 181.304688 51.097656 181.304688 51.597656 C 181.304688 51.878906 181.523438 52.097656 181.804688 52.097656 C 182.117188 52.097656 182.273438 51.878906 182.273438 51.597656 C 182.273438 51.003906 181.929688 50.253906 181.929688 49.472656 C 182.398438 49.722656 183.554688 50.941406 183.835938 50.941406 C 184.085938 50.941406 184.335938 50.722656 184.335938 50.441406 C 184.335938 50.253906 184.210938 50.128906 184.054688 50.035156 C 183.679688 49.785156 182.679688 49.628906 182.054688 49.253906 C 182.742188 48.847656 183.648438 48.816406 184.085938 48.566406 C 184.242188 48.472656 184.335938 48.347656 184.335938 48.160156 Z M 184.335938 48.160156 "/>
<path fill-rule="nonzero" fill="rgb(0%, 0%, 0%)" fill-opacity="1" d="M 190.785156 55.1875 L 190.785156 54.75 L 190.316406 54.75 C 189.191406 54.75 189.191406 54.625 189.191406 54.25 L 189.191406 48.21875 C 189.191406 47.90625 189.160156 47.90625 188.816406 47.90625 C 188.097656 48.59375 186.972656 48.59375 186.566406 48.59375 L 186.566406 49.03125 C 186.878906 49.03125 187.597656 49.03125 188.253906 48.71875 L 188.253906 54.25 C 188.253906 54.625 188.253906 54.75 187.128906 54.75 L 186.660156 54.75 L 186.660156 55.1875 C 187.253906 55.15625 188.097656 55.15625 188.722656 55.15625 C 189.347656 55.15625 190.191406 55.15625 190.785156 55.1875 Z M 190.785156 55.1875 "/>
</svg>
