<?xml version="1.0" encoding="UTF-8"?>
<svg xmlns="http://www.w3.org/2000/svg" xmlns:xlink="http://www.w3.org/1999/xlink" width="238.639999" height="116.940002" viewBox="0 0 238.639999 116.940002">
<path fill-rule="nonzero" fill="rgb(0%, 0%, 0%)" fill-opacity="1" d="M 58.003906 15.339844 C 58.160156 14.777344 58.222656 14.652344 58.472656 14.589844 C 58.660156 14.558594 59.316406 14.558594 59.722656 14.558594 C 61.753906 14.558594 62.628906 14.621094 62.628906 16.183594 C 62.628906 16.496094 62.566406 17.277344 62.472656 17.777344 C 62.472656 17.871094 62.410156 18.089844 62.410156 18.152344 C 62.410156 18.277344 62.472656 18.433594 62.660156 18.433594 C 62.878906 18.433594 62.910156 18.277344 62.972656 17.964844 L 63.503906 14.496094 C 63.535156 14.402344 63.535156 14.214844 63.535156 14.152344 C 63.535156 13.933594 63.347656 13.933594 63.003906 13.933594 L 51.941406 13.933594 C 51.472656 13.933594 51.441406 13.964844 51.285156 14.339844 L 50.097656 17.839844 C 50.097656 17.871094 49.972656 18.152344 49.972656 18.214844 C 49.972656 18.308594 50.097656 18.433594 50.222656 18.433594 C 50.410156 18.433594 50.441406 18.308594 50.566406 17.996094 C 51.628906 14.902344 52.160156 14.558594 55.097656 14.558594 L 55.878906 14.558594 C 56.441406 14.558594 56.441406 14.621094 56.441406 14.808594 C 56.441406 14.902344 56.378906 15.152344 56.347656 15.214844 L 53.691406 25.871094 C 53.503906 26.589844 53.441406 26.808594 51.316406 26.808594 C 50.597656 26.808594 50.472656 26.808594 50.472656 27.183594 C 50.472656 27.433594 50.691406 27.433594 50.816406 27.433594 C 51.347656 27.433594 51.910156 27.402344 52.441406 27.402344 C 53.003906 27.402344 53.597656 27.371094 54.160156 27.371094 C 54.722656 27.371094 55.253906 27.402344 55.816406 27.402344 C 56.378906 27.402344 56.972656 27.433594 57.535156 27.433594 C 57.722656 27.433594 57.972656 27.433594 57.972656 27.027344 C 57.972656 26.808594 57.816406 26.808594 57.285156 26.808594 C 56.816406 26.808594 56.535156 26.808594 56.035156 26.777344 C 55.441406 26.714844 55.285156 26.652344 55.285156 26.339844 C 55.285156 26.308594 55.285156 26.214844 55.378906 25.933594 Z M 58.003906 15.339844 "/>
<path fill-rule="nonzero" fill="rgb(0%, 0%, 0%)" fill-opacity="1" d="M 65.675781 21.707031 C 65.675781 21.488281 65.488281 21.175781 65.113281 21.175781 C 64.738281 21.175781 64.332031 21.550781 64.332031 21.957031 C 64.332031 22.175781 64.488281 22.488281 64.894531 22.488281 C 65.269531 22.488281 65.675781 22.082031 65.675781 21.707031 Z M 62.832031 28.800781 C 62.769531 28.988281 62.707031 29.144531 62.707031 29.394531 C 62.707031 30.050781 63.238281 30.550781 64.019531 30.550781 C 65.394531 30.550781 66.019531 28.644531 66.019531 28.425781 C 66.019531 28.238281 65.832031 28.238281 65.800781 28.238281 C 65.613281 28.238281 65.582031 28.332031 65.519531 28.488281 C 65.207031 29.613281 64.613281 30.175781 64.050781 30.175781 C 63.769531 30.175781 63.707031 29.988281 63.707031 29.675781 C 63.707031 29.363281 63.800781 29.113281 63.925781 28.800781 C 64.082031 28.425781 64.238281 28.050781 64.363281 27.675781 C 64.488281 27.332031 65.019531 26.082031 65.050781 25.894531 C 65.113281 25.769531 65.144531 25.613281 65.144531 25.457031 C 65.144531 24.800781 64.582031 24.269531 63.832031 24.269531 C 62.425781 24.269531 61.800781 26.175781 61.800781 26.425781 C 61.800781 26.582031 61.988281 26.582031 62.050781 26.582031 C 62.238281 26.582031 62.238281 26.519531 62.300781 26.363281 C 62.644531 25.175781 63.269531 24.675781 63.769531 24.675781 C 63.988281 24.675781 64.113281 24.769531 64.113281 25.144531 C 64.113281 25.488281 64.050781 25.675781 63.707031 26.550781 Z M 62.832031 28.800781 "/>
<path fill-rule="nonzero" fill="rgb(0%, 0%, 0%)" fill-opacity="1" d="M 170.707031 15.339844 C 170.863281 14.777344 170.925781 14.652344 171.175781 14.589844 C 171.363281 14.558594 172.019531 14.558594 172.425781 14.558594 C 174.457031 14.558594 175.332031 14.621094 175.332031 16.183594 C 175.332031 16.496094 175.269531 17.277344 175.175781 17.777344 C 175.175781 17.871094 175.113281 18.089844 175.113281 18.152344 C 175.113281 18.277344 175.175781 18.433594 175.363281 18.433594 C 175.582031 18.433594 175.613281 18.277344 175.675781 17.964844 L 176.207031 14.496094 C 176.238281 14.402344 176.238281 14.214844 176.238281 14.152344 C 176.238281 13.933594 176.050781 13.933594 175.707031 13.933594 L 164.644531 13.933594 C 164.175781 13.933594 164.144531 13.964844 163.988281 14.339844 L 162.800781 17.839844 C 162.800781 17.871094 162.675781 18.152344 162.675781 18.214844 C 162.675781 18.308594 162.800781 18.433594 162.925781 18.433594 C 163.113281 18.433594 163.144531 18.308594 163.269531 17.996094 C 164.332031 14.902344 164.863281 14.558594 167.800781 14.558594 L 168.582031 14.558594 C 169.144531 14.558594 169.144531 14.621094 169.144531 14.808594 C 169.144531 14.902344 169.082031 15.152344 169.050781 15.214844 L 166.394531 25.871094 C 166.207031 26.589844 166.144531 26.808594 164.019531 26.808594 C 163.300781 26.808594 163.175781 26.808594 163.175781 27.183594 C 163.175781 27.433594 163.394531 27.433594 163.519531 27.433594 C 164.050781 27.433594 164.613281 27.402344 165.144531 27.402344 C 165.707031 27.402344 166.300781 27.371094 166.863281 27.371094 C 167.425781 27.371094 167.957031 27.402344 168.519531 27.402344 C 169.082031 27.402344 169.675781 27.433594 170.238281 27.433594 C 170.425781 27.433594 170.675781 27.433594 170.675781 27.027344 C 170.675781 26.808594 170.519531 26.808594 169.988281 26.808594 C 169.519531 26.808594 169.238281 26.808594 168.738281 26.777344 C 168.144531 26.714844 167.988281 26.652344 167.988281 26.339844 C 167.988281 26.308594 167.988281 26.214844 168.082031 25.933594 Z M 170.707031 15.339844 "/>
<path fill-rule="nonzero" fill="rgb(0%, 0%, 0%)" fill-opacity="1" d="M 179.976562 21.707031 C 179.976562 21.488281 179.789062 21.175781 179.414062 21.175781 C 179.007812 21.175781 178.632812 21.582031 178.632812 21.957031 C 178.632812 22.175781 178.789062 22.488281 179.195312 22.488281 C 179.570312 22.488281 179.976562 22.113281 179.976562 21.707031 Z M 177.007812 31.113281 C 176.789062 32.082031 176.039062 32.863281 175.226562 32.863281 C 175.039062 32.863281 174.882812 32.863281 174.726562 32.800781 C 175.070312 32.613281 175.195312 32.300781 175.195312 32.082031 C 175.195312 31.738281 174.914062 31.582031 174.632812 31.582031 C 174.226562 31.582031 173.851562 31.957031 173.851562 32.394531 C 173.851562 32.925781 174.382812 33.269531 175.226562 33.269531 C 176.070312 33.269531 177.695312 32.769531 178.132812 31.082031 L 179.382812 26.082031 C 179.414062 25.925781 179.445312 25.800781 179.445312 25.582031 C 179.445312 24.832031 178.789062 24.269531 177.976562 24.269531 C 176.414062 24.269531 175.539062 26.207031 175.539062 26.425781 C 175.539062 26.582031 175.726562 26.582031 175.757812 26.582031 C 175.914062 26.582031 175.945312 26.550781 176.039062 26.332031 C 176.382812 25.519531 177.101562 24.675781 177.914062 24.675781 C 178.257812 24.675781 178.382812 24.894531 178.382812 25.363281 C 178.382812 25.519531 178.382812 25.707031 178.351562 25.769531 Z M 177.007812 31.113281 "/>
<path fill-rule="nonzero" fill="rgb(0%, 0%, 0%)" fill-opacity="1" d="M 40.28125 85.449219 C 40.3125 85.355469 40.375 85.292969 40.375 85.230469 C 40.375 85.136719 40.3125 85.074219 40.21875 85.074219 C 39.5 85.074219 38.5625 85.386719 37.71875 85.917969 C 36.78125 86.480469 36.03125 87.230469 35.46875 87.980469 C 34.875 88.855469 34.5625 89.667969 34.5625 90.386719 C 34.5625 90.792969 34.65625 91.167969 34.84375 91.480469 C 35.40625 92.511719 36.65625 92.949219 38.1875 92.949219 C 38.53125 92.949219 38.90625 92.917969 39.28125 92.855469 C 39.28125 92.980469 39.3125 93.105469 39.34375 93.199219 C 39.5625 94.105469 40.3125 94.574219 41.46875 94.574219 C 42.3125 94.574219 43.03125 94.167969 43.75 93.542969 C 43.125 94.636719 42.84375 95.699219 42.09375 96.761719 C 41.40625 97.730469 40.125 98.542969 39.25 98.542969 C 37.5 98.542969 36.125 98.199219 36.125 97.292969 C 36.125 97.105469 36.1875 96.886719 36.3125 96.636719 C 36.4375 96.855469 36.65625 96.949219 36.90625 96.949219 C 37.40625 96.949219 38 96.542969 38 96.167969 C 38 95.667969 37.71875 95.480469 37.34375 95.480469 C 36.9375 95.480469 36.46875 95.730469 36.21875 96.074219 C 35.84375 96.574219 35.6875 97.011719 35.6875 97.355469 C 35.6875 98.574219 37.4375 98.980469 39.1875 98.980469 C 40.75 98.980469 42.8125 98.386719 43.78125 96.980469 C 44.78125 95.542969 44.40625 94.417969 45.34375 93.074219 C 46 92.167969 46.21875 91.042969 47.34375 90.386719 C 47.375 90.355469 47.40625 90.292969 47.40625 90.261719 L 47.375 90.074219 C 47.375 90.074219 47.375 90.074219 47.375 90.042969 C 47.34375 89.980469 47.28125 89.917969 47.21875 89.917969 C 47.1875 89.917969 47.15625 89.917969 47.125 89.949219 C 46.21875 90.480469 45.5 91.167969 44.90625 91.917969 C 43.8125 93.011719 42.75 94.136719 41.53125 94.136719 C 40.875 94.136719 40.53125 93.761719 40.53125 93.230469 L 40.53125 93.105469 C 40.5625 92.949219 40.625 92.730469 40.6875 92.542969 C 41.6875 92.230469 42.71875 91.730469 43.71875 91.136719 C 45.65625 89.980469 47.40625 88.417969 48.5625 86.792969 C 48.875 86.355469 49.03125 85.917969 49.03125 85.511719 C 49.03125 85.324219 49 85.167969 48.9375 85.011719 C 48.71875 84.480469 48.125 84.261719 47.4375 84.261719 C 46.40625 84.261719 45.125 85.105469 44.0625 85.980469 C 42.53125 87.230469 41.3125 88.667969 40.3125 90.074219 C 39.71875 90.886719 39.375 91.699219 39.28125 92.417969 C 38.9375 92.480469 38.59375 92.511719 38.28125 92.511719 C 36.9375 92.511719 35.96875 92.105469 35.625 91.292969 C 35.5625 91.105469 35.53125 90.886719 35.53125 90.667969 C 35.53125 89.980469 35.875 89.105469 36.53125 88.167969 C 37 87.511719 37.5625 86.824219 38.3125 86.261719 C 38.9375 85.792969 39.625 85.511719 40.15625 85.511719 C 40.21875 85.511719 40.25 85.480469 40.28125 85.449219 Z M 42 90.261719 C 42.96875 88.917969 44.125 87.292969 45.09375 86.292969 C 45.875 85.449219 46.71875 84.699219 47.34375 84.699219 C 47.8125 84.699219 48.09375 84.886719 48.125 85.167969 L 48.125 85.261719 C 48.125 85.605469 47.875 86.074219 47.53125 86.574219 C 46.4375 88.105469 44.9375 89.636719 43.125 90.792969 C 42.40625 91.261719 41.65625 91.636719 40.9375 91.917969 C 41.21875 91.417969 41.59375 90.855469 42 90.261719 Z M 42 90.261719 "/>
<path fill-rule="nonzero" fill="rgb(0%, 0%, 0%)" fill-opacity="1" d="M 56.535156 103.324219 C 56.535156 103.261719 56.535156 103.230469 56.191406 102.886719 C 53.722656 100.386719 53.066406 96.605469 53.066406 93.542969 C 53.066406 90.074219 53.816406 86.605469 56.285156 84.136719 C 56.535156 83.886719 56.535156 83.855469 56.535156 83.792969 C 56.535156 83.636719 56.472656 83.574219 56.347656 83.574219 C 56.128906 83.574219 54.347656 84.949219 53.160156 87.480469 C 52.160156 89.667969 51.910156 91.886719 51.910156 93.542969 C 51.910156 95.105469 52.128906 97.511719 53.222656 99.792969 C 54.441406 102.230469 56.128906 103.542969 56.347656 103.542969 C 56.472656 103.542969 56.535156 103.480469 56.535156 103.324219 Z M 56.535156 103.324219 "/>
<path fill-rule="nonzero" fill="rgb(0%, 0%, 0%)" fill-opacity="1" d="M 59.441406 97.355469 C 59.378906 97.667969 59.253906 98.136719 59.253906 98.230469 C 59.253906 98.574219 59.535156 98.761719 59.847656 98.761719 C 60.097656 98.761719 60.441406 98.605469 60.597656 98.199219 C 60.597656 98.167969 60.847656 97.230469 60.972656 96.730469 L 61.410156 94.949219 C 61.503906 94.480469 61.628906 94.042969 61.753906 93.605469 C 61.816406 93.261719 61.972656 92.667969 62.003906 92.605469 C 62.285156 91.980469 63.347656 90.167969 65.253906 90.167969 C 66.160156 90.167969 66.316406 90.917969 66.316406 91.574219 C 66.316406 92.074219 66.191406 92.636719 66.035156 93.230469 L 65.472656 95.542969 L 65.066406 97.042969 C 65.003906 97.449219 64.816406 98.136719 64.816406 98.230469 C 64.816406 98.574219 65.097656 98.761719 65.378906 98.761719 C 66.003906 98.761719 66.128906 98.261719 66.285156 97.636719 C 66.566406 96.511719 67.316406 93.605469 67.472656 92.824219 C 67.535156 92.574219 68.597656 90.167969 70.785156 90.167969 C 71.628906 90.167969 71.847656 90.855469 71.847656 91.574219 C 71.847656 92.699219 71.003906 94.980469 70.597656 96.042969 C 70.441406 96.511719 70.347656 96.730469 70.347656 97.136719 C 70.347656 98.074219 71.035156 98.761719 71.972656 98.761719 C 73.847656 98.761719 74.597656 95.855469 74.597656 95.699219 C 74.597656 95.480469 74.410156 95.480469 74.347656 95.480469 C 74.160156 95.480469 74.160156 95.542969 74.066406 95.855469 C 73.753906 96.917969 73.128906 98.324219 72.035156 98.324219 C 71.691406 98.324219 71.535156 98.136719 71.535156 97.667969 C 71.535156 97.167969 71.722656 96.699219 71.910156 96.261719 C 72.285156 95.199219 73.128906 93.011719 73.128906 91.855469 C 73.128906 90.574219 72.316406 89.730469 70.816406 89.730469 C 69.347656 89.730469 68.316406 90.605469 67.566406 91.667969 C 67.566406 91.417969 67.503906 90.730469 66.941406 90.261719 C 66.441406 89.824219 65.816406 89.730469 65.316406 89.730469 C 63.503906 89.730469 62.535156 91.011719 62.191406 91.480469 C 62.097656 90.324219 61.253906 89.730469 60.347656 89.730469 C 59.441406 89.730469 59.066406 90.511719 58.878906 90.855469 C 58.535156 91.574219 58.285156 92.730469 58.285156 92.792969 C 58.285156 93.011719 58.472656 93.011719 58.503906 93.011719 C 58.722656 93.011719 58.722656 92.980469 58.847656 92.542969 C 59.191406 91.136719 59.597656 90.167969 60.316406 90.167969 C 60.628906 90.167969 60.910156 90.324219 60.910156 91.074219 C 60.910156 91.511719 60.847656 91.730469 60.597656 92.761719 Z M 59.441406 97.355469 "/>
<path fill-rule="nonzero" fill="rgb(0%, 0%, 0%)" fill-opacity="1" d="M 80.9375 93.542969 C 80.9375 92.011719 80.71875 89.605469 79.625 87.324219 C 78.4375 84.886719 76.71875 83.574219 76.53125 83.574219 C 76.40625 83.574219 76.3125 83.667969 76.3125 83.792969 C 76.3125 83.855469 76.3125 83.886719 76.6875 84.261719 C 78.65625 86.230469 79.78125 89.386719 79.78125 93.542969 C 79.78125 96.980469 79.0625 100.480469 76.59375 102.980469 C 76.3125 103.230469 76.3125 103.261719 76.3125 103.324219 C 76.3125 103.449219 76.40625 103.542969 76.53125 103.542969 C 76.71875 103.542969 78.53125 102.167969 79.6875 99.636719 C 80.71875 97.449219 80.9375 95.230469 80.9375 93.542969 Z M 80.9375 93.542969 "/>
<path fill-rule="nonzero" fill="rgb(0%, 0%, 0%)" fill-opacity="1" d="M 153.867188 85.449219 C 153.898438 85.355469 153.960938 85.292969 153.960938 85.230469 C 153.960938 85.136719 153.898438 85.074219 153.804688 85.074219 C 153.085938 85.074219 152.148438 85.386719 151.304688 85.917969 C 150.367188 86.480469 149.617188 87.230469 149.054688 87.980469 C 148.460938 88.855469 148.148438 89.667969 148.148438 90.386719 C 148.148438 90.792969 148.242188 91.167969 148.429688 91.480469 C 148.992188 92.511719 150.242188 92.949219 151.773438 92.949219 C 152.117188 92.949219 152.492188 92.917969 152.867188 92.855469 C 152.867188 92.980469 152.898438 93.105469 152.929688 93.199219 C 153.148438 94.105469 153.898438 94.574219 155.054688 94.574219 C 155.898438 94.574219 156.617188 94.167969 157.335938 93.542969 C 156.710938 94.636719 156.429688 95.699219 155.679688 96.761719 C 154.992188 97.730469 153.710938 98.542969 152.835938 98.542969 C 151.085938 98.542969 149.710938 98.199219 149.710938 97.292969 C 149.710938 97.105469 149.773438 96.886719 149.898438 96.636719 C 150.023438 96.855469 150.242188 96.949219 150.492188 96.949219 C 150.992188 96.949219 151.585938 96.542969 151.585938 96.167969 C 151.585938 95.667969 151.304688 95.480469 150.929688 95.480469 C 150.523438 95.480469 150.054688 95.730469 149.804688 96.074219 C 149.429688 96.574219 149.273438 97.011719 149.273438 97.355469 C 149.273438 98.574219 151.023438 98.980469 152.773438 98.980469 C 154.335938 98.980469 156.398438 98.386719 157.367188 96.980469 C 158.367188 95.542969 157.992188 94.417969 158.929688 93.074219 C 159.585938 92.167969 159.804688 91.042969 160.929688 90.386719 C 160.960938 90.355469 160.992188 90.292969 160.992188 90.261719 L 160.960938 90.074219 C 160.960938 90.074219 160.960938 90.074219 160.960938 90.042969 C 160.929688 89.980469 160.867188 89.917969 160.804688 89.917969 C 160.773438 89.917969 160.742188 89.917969 160.710938 89.949219 C 159.804688 90.480469 159.085938 91.167969 158.492188 91.917969 C 157.398438 93.011719 156.335938 94.136719 155.117188 94.136719 C 154.460938 94.136719 154.117188 93.761719 154.117188 93.230469 L 154.117188 93.105469 C 154.148438 92.949219 154.210938 92.730469 154.273438 92.542969 C 155.273438 92.230469 156.304688 91.730469 157.304688 91.136719 C 159.242188 89.980469 160.992188 88.417969 162.148438 86.792969 C 162.460938 86.355469 162.617188 85.917969 162.617188 85.511719 C 162.617188 85.324219 162.585938 85.167969 162.523438 85.011719 C 162.304688 84.480469 161.710938 84.261719 161.023438 84.261719 C 159.992188 84.261719 158.710938 85.105469 157.648438 85.980469 C 156.117188 87.230469 154.898438 88.667969 153.898438 90.074219 C 153.304688 90.886719 152.960938 91.699219 152.867188 92.417969 C 152.523438 92.480469 152.179688 92.511719 151.867188 92.511719 C 150.523438 92.511719 149.554688 92.105469 149.210938 91.292969 C 149.148438 91.105469 149.117188 90.886719 149.117188 90.667969 C 149.117188 89.980469 149.460938 89.105469 150.117188 88.167969 C 150.585938 87.511719 151.148438 86.824219 151.898438 86.261719 C 152.523438 85.792969 153.210938 85.511719 153.742188 85.511719 C 153.804688 85.511719 153.835938 85.480469 153.867188 85.449219 Z M 155.585938 90.261719 C 156.554688 88.917969 157.710938 87.292969 158.679688 86.292969 C 159.460938 85.449219 160.304688 84.699219 160.929688 84.699219 C 161.398438 84.699219 161.679688 84.886719 161.710938 85.167969 L 161.710938 85.261719 C 161.710938 85.605469 161.460938 86.074219 161.117188 86.574219 C 160.023438 88.105469 158.523438 89.636719 156.710938 90.792969 C 155.992188 91.261719 155.242188 91.636719 154.523438 91.917969 C 154.804688 91.417969 155.179688 90.855469 155.585938 90.261719 Z M 155.585938 90.261719 "/>
<path fill-rule="nonzero" fill="rgb(0%, 0%, 0%)" fill-opacity="1" d="M 170.121094 103.324219 C 170.121094 103.261719 170.121094 103.230469 169.777344 102.886719 C 167.308594 100.386719 166.652344 96.605469 166.652344 93.542969 C 166.652344 90.074219 167.402344 86.605469 169.871094 84.136719 C 170.121094 83.886719 170.121094 83.855469 170.121094 83.792969 C 170.121094 83.636719 170.058594 83.574219 169.933594 83.574219 C 169.714844 83.574219 167.933594 84.949219 166.746094 87.480469 C 165.746094 89.667969 165.496094 91.886719 165.496094 93.542969 C 165.496094 95.105469 165.714844 97.511719 166.808594 99.792969 C 168.027344 102.230469 169.714844 103.542969 169.933594 103.542969 C 170.058594 103.542969 170.121094 103.480469 170.121094 103.324219 Z M 170.121094 103.324219 "/>
<path fill-rule="nonzero" fill="rgb(0%, 0%, 0%)" fill-opacity="1" d="M 173.027344 97.355469 C 172.964844 97.667969 172.839844 98.136719 172.839844 98.230469 C 172.839844 98.574219 173.121094 98.761719 173.433594 98.761719 C 173.683594 98.761719 174.027344 98.605469 174.183594 98.199219 C 174.183594 98.167969 174.433594 97.230469 174.558594 96.730469 L 174.996094 94.949219 C 175.089844 94.480469 175.214844 94.042969 175.339844 93.605469 C 175.402344 93.261719 175.558594 92.667969 175.589844 92.605469 C 175.871094 91.980469 176.933594 90.167969 178.839844 90.167969 C 179.746094 90.167969 179.902344 90.917969 179.902344 91.574219 C 179.902344 92.074219 179.777344 92.636719 179.621094 93.230469 L 179.058594 95.542969 L 178.652344 97.042969 C 178.589844 97.449219 178.402344 98.136719 178.402344 98.230469 C 178.402344 98.574219 178.683594 98.761719 178.964844 98.761719 C 179.589844 98.761719 179.714844 98.261719 179.871094 97.636719 C 180.152344 96.511719 180.902344 93.605469 181.058594 92.824219 C 181.121094 92.574219 182.183594 90.167969 184.371094 90.167969 C 185.214844 90.167969 185.433594 90.855469 185.433594 91.574219 C 185.433594 92.699219 184.589844 94.980469 184.183594 96.042969 C 184.027344 96.511719 183.933594 96.730469 183.933594 97.136719 C 183.933594 98.074219 184.621094 98.761719 185.558594 98.761719 C 187.433594 98.761719 188.183594 95.855469 188.183594 95.699219 C 188.183594 95.480469 187.996094 95.480469 187.933594 95.480469 C 187.746094 95.480469 187.746094 95.542969 187.652344 95.855469 C 187.339844 96.917969 186.714844 98.324219 185.621094 98.324219 C 185.277344 98.324219 185.121094 98.136719 185.121094 97.667969 C 185.121094 97.167969 185.308594 96.699219 185.496094 96.261719 C 185.871094 95.199219 186.714844 93.011719 186.714844 91.855469 C 186.714844 90.574219 185.902344 89.730469 184.402344 89.730469 C 182.933594 89.730469 181.902344 90.605469 181.152344 91.667969 C 181.152344 91.417969 181.089844 90.730469 180.527344 90.261719 C 180.027344 89.824219 179.402344 89.730469 178.902344 89.730469 C 177.089844 89.730469 176.121094 91.011719 175.777344 91.480469 C 175.683594 90.324219 174.839844 89.730469 173.933594 89.730469 C 173.027344 89.730469 172.652344 90.511719 172.464844 90.855469 C 172.121094 91.574219 171.871094 92.730469 171.871094 92.792969 C 171.871094 93.011719 172.058594 93.011719 172.089844 93.011719 C 172.308594 93.011719 172.308594 92.980469 172.433594 92.542969 C 172.777344 91.136719 173.183594 90.167969 173.902344 90.167969 C 174.214844 90.167969 174.496094 90.324219 174.496094 91.074219 C 174.496094 91.511719 174.433594 91.730469 174.183594 92.761719 Z M 173.027344 97.355469 "/>
<path fill-rule="nonzero" fill="rgb(0%, 0%, 0%)" fill-opacity="1" d="M 194.523438 93.542969 C 194.523438 92.011719 194.304688 89.605469 193.210938 87.324219 C 192.023438 84.886719 190.304688 83.574219 190.117188 83.574219 C 189.992188 83.574219 189.898438 83.667969 189.898438 83.792969 C 189.898438 83.855469 189.898438 83.886719 190.273438 84.261719 C 192.242188 86.230469 193.367188 89.386719 193.367188 93.542969 C 193.367188 96.980469 192.648438 100.480469 190.179688 102.980469 C 189.898438 103.230469 189.898438 103.261719 189.898438 103.324219 C 189.898438 103.449219 189.992188 103.542969 190.117188 103.542969 C 190.304688 103.542969 192.117188 102.167969 193.273438 99.636719 C 194.304688 97.449219 194.523438 95.230469 194.523438 93.542969 Z M 194.523438 93.542969 "/>
<path fill="none" stroke-width="0.39848" stroke-linecap="butt" stroke-linejoin="miter" stroke="rgb(0%, 0%, 0%)" stroke-opacity="1" stroke-miterlimit="10" d="M -19.334187 18.109438 L 18.493938 18.109438 " transform="matrix(2, 0, 0, -2, 115.433998, 58.672001)"/>
<path fill="none" stroke-width="0.39848" stroke-linecap="round" stroke-linejoin="round" stroke="rgb(0%, 0%, 0%)" stroke-opacity="1" stroke-miterlimit="10" d="M -2.071716 2.390332 C -1.69281 0.956738 -0.84906 0.277051 -0.00140381 -0.000292778 C -0.84906 -0.277637 -1.69281 -0.957324 -2.071716 -2.390918 " transform="matrix(2, 0, 0, -2, 152.82312, 22.452539)"/>
<path fill-rule="nonzero" fill="rgb(0%, 0%, 0%)" fill-opacity="1" d="M 110.6875 5.390625 C 110.78125 4.984375 110.8125 4.953125 111.125 4.921875 C 111.1875 4.921875 111.65625 4.921875 111.9375 4.921875 C 112.8125 4.921875 113.15625 4.921875 113.5 5.015625 C 114.125 5.203125 114.15625 5.609375 114.15625 6.109375 C 114.15625 6.328125 114.15625 6.515625 114.0625 7.234375 L 114.03125 7.390625 C 114.03125 7.546875 114.125 7.609375 114.28125 7.609375 C 114.5 7.609375 114.5 7.484375 114.53125 7.265625 L 114.90625 4.609375 C 114.90625 4.421875 114.75 4.421875 114.5 4.421875 L 105.9375 4.421875 C 105.59375 4.421875 105.5625 4.421875 105.46875 4.703125 L 104.5625 7.171875 C 104.5625 7.234375 104.5 7.359375 104.5 7.421875 C 104.5 7.484375 104.53125 7.609375 104.75 7.609375 C 104.9375 7.609375 104.9375 7.546875 105.03125 7.265625 C 105.84375 5.046875 106.3125 4.921875 108.4375 4.921875 L 109 4.921875 C 109.4375 4.921875 109.4375 4.921875 109.4375 5.046875 C 109.4375 5.046875 109.4375 5.140625 109.375 5.328125 L 107.53125 12.671875 C 107.40625 13.171875 107.375 13.328125 105.90625 13.328125 C 105.40625 13.328125 105.28125 13.328125 105.28125 13.640625 C 105.28125 13.671875 105.3125 13.828125 105.53125 13.828125 C 105.90625 13.828125 106.34375 13.796875 106.71875 13.796875 C 107.125 13.796875 107.53125 13.765625 107.90625 13.765625 C 108.3125 13.765625 108.78125 13.765625 109.1875 13.796875 C 109.5625 13.796875 109.96875 13.828125 110.34375 13.828125 C 110.46875 13.828125 110.65625 13.828125 110.65625 13.515625 C 110.65625 13.328125 110.53125 13.328125 110.09375 13.328125 C 109.84375 13.328125 109.5625 13.296875 109.28125 13.296875 C 108.8125 13.265625 108.78125 13.203125 108.78125 13.046875 C 108.78125 12.921875 108.78125 12.921875 108.84375 12.703125 Z M 110.6875 5.390625 "/>
<path fill-rule="nonzero" fill="rgb(0%, 0%, 0%)" fill-opacity="1" d="M 118.414062 9.601562 C 118.414062 9.382812 118.226562 9.164062 117.976562 9.164062 C 117.664062 9.164062 117.351562 9.476562 117.351562 9.757812 C 117.351562 10.007812 117.539062 10.195312 117.789062 10.195312 C 118.132812 10.195312 118.414062 9.882812 118.414062 9.601562 Z M 116.226562 16.257812 C 116.039062 17.039062 115.414062 17.539062 114.820312 17.539062 C 114.632812 17.539062 114.539062 17.507812 114.445312 17.476562 C 114.695312 17.320312 114.757812 17.070312 114.757812 16.945312 C 114.757812 16.789062 114.632812 16.539062 114.320312 16.539062 C 113.976562 16.539062 113.695312 16.851562 113.695312 17.164062 C 113.695312 17.601562 114.132812 17.851562 114.820312 17.851562 C 115.507812 17.851562 116.789062 17.507812 117.101562 16.289062 L 118.007812 12.695312 C 118.007812 12.601562 118.039062 12.507812 118.039062 12.382812 C 118.039062 11.820312 117.507812 11.414062 116.820312 11.414062 C 115.601562 11.414062 114.882812 12.757812 114.882812 12.945312 C 114.882812 13.101562 115.039062 13.101562 115.070312 13.101562 C 115.226562 13.101562 115.257812 13.070312 115.289062 12.945312 C 115.757812 11.976562 116.445312 11.757812 116.789062 11.757812 C 117.164062 11.757812 117.195312 12.101562 117.195312 12.289062 C 117.195312 12.414062 117.195312 12.445312 117.164062 12.539062 Z M 116.226562 16.257812 "/>
<path fill-rule="nonzero" fill="rgb(0%, 0%, 0%)" fill-opacity="1" d="M 123.703125 9.601562 C 123.703125 9.351562 123.546875 9.164062 123.265625 9.164062 C 122.984375 9.164062 122.671875 9.445312 122.671875 9.757812 C 122.671875 10.039062 122.890625 10.195312 123.109375 10.195312 C 123.421875 10.195312 123.703125 9.914062 123.703125 9.601562 Z M 124.171875 14.382812 C 124.171875 14.257812 124.015625 14.257812 123.984375 14.257812 C 123.796875 14.257812 123.796875 14.289062 123.734375 14.476562 C 123.578125 15.007812 123.109375 15.601562 122.609375 15.601562 C 122.390625 15.601562 122.328125 15.445312 122.328125 15.226562 C 122.328125 15.007812 122.359375 14.882812 122.453125 14.695312 C 122.515625 14.507812 122.609375 14.320312 122.671875 14.164062 C 122.703125 14.070312 123.078125 13.164062 123.234375 12.789062 C 123.296875 12.601562 123.359375 12.445312 123.359375 12.289062 C 123.359375 11.820312 122.890625 11.414062 122.265625 11.414062 C 121.234375 11.414062 120.671875 12.695312 120.671875 12.945312 C 120.671875 13.101562 120.828125 13.101562 120.890625 13.101562 C 121.046875 13.101562 121.046875 13.039062 121.109375 12.914062 C 121.328125 12.195312 121.796875 11.757812 122.234375 11.757812 C 122.421875 11.757812 122.546875 11.851562 122.546875 12.132812 C 122.546875 12.164062 122.546875 12.289062 122.484375 12.476562 C 122.421875 12.664062 121.953125 13.726562 121.828125 14.070312 C 121.734375 14.257812 121.734375 14.257812 121.609375 14.601562 C 121.546875 14.757812 121.484375 14.882812 121.484375 15.039062 C 121.484375 15.570312 121.984375 15.945312 122.578125 15.945312 C 123.609375 15.945312 124.171875 14.632812 124.171875 14.382812 Z M 124.171875 14.382812 "/>
<path fill="none" stroke-width="0.39848" stroke-linecap="butt" stroke-linejoin="miter" stroke="rgb(0%, 0%, 0%)" stroke-opacity="1" stroke-miterlimit="10" d="M -28.396687 10.277407 L -28.396687 -8.214781 " transform="matrix(2, 0, 0, -2, 115.433998, 58.672001)"/>
<path fill="none" stroke-width="0.39848" stroke-linecap="round" stroke-linejoin="round" stroke="rgb(0%, 0%, 0%)" stroke-opacity="1" stroke-miterlimit="10" d="M -2.072083 2.390877 C -1.693176 0.957283 -0.849426 0.277596 -0.00177002 0.00025177 C -0.849426 -0.277092 -1.693176 -0.956779 -2.072083 -2.390373 " transform="matrix(0, 2, 2, 0, 58.640121, 75.50354)"/>
<path fill-rule="nonzero" fill="rgb(0%, 0%, 0%)" fill-opacity="1" d="M 9.230469 50.058594 C 6.605469 51.902344 5.886719 54.871094 5.886719 56.996094 C 5.886719 58.964844 6.480469 62.027344 9.230469 63.964844 C 9.355469 63.964844 9.511719 63.964844 9.511719 63.808594 C 9.511719 63.714844 9.480469 63.683594 9.386719 63.589844 C 7.511719 61.902344 6.855469 59.558594 6.855469 57.027344 C 6.855469 53.246094 8.292969 51.402344 9.417969 50.371094 C 9.480469 50.308594 9.511719 50.277344 9.511719 50.214844 C 9.511719 50.058594 9.355469 50.058594 9.230469 50.058594 Z M 9.230469 50.058594 "/>
<path fill-rule="nonzero" fill="rgb(0%, 0%, 0%)" fill-opacity="1" d="M 14.894531 57.964844 L 14.894531 57.027344 L 10.800781 57.027344 L 10.800781 57.964844 Z M 14.894531 57.964844 "/>
<path fill-rule="nonzero" fill="rgb(0%, 0%, 0%)" fill-opacity="1" d="M 17.140625 50.058594 C 17.046875 50.058594 16.890625 50.058594 16.890625 50.214844 C 16.890625 50.277344 16.921875 50.308594 17.015625 50.433594 C 18.203125 51.527344 19.546875 53.402344 19.546875 56.996094 C 19.546875 59.902344 18.640625 62.121094 17.140625 63.464844 C 16.890625 63.714844 16.890625 63.714844 16.890625 63.808594 C 16.890625 63.871094 16.921875 63.964844 17.046875 63.964844 C 17.234375 63.964844 18.546875 63.058594 19.484375 61.308594 C 20.078125 60.152344 20.484375 58.652344 20.484375 57.027344 C 20.484375 55.058594 19.890625 51.996094 17.140625 50.058594 Z M 17.140625 50.058594 "/>
<path fill-rule="nonzero" fill="rgb(0%, 0%, 0%)" fill-opacity="1" d="M 32.492188 57.339844 C 32.710938 57.339844 33.054688 57.339844 33.054688 57.027344 C 33.054688 56.652344 32.710938 56.652344 32.492188 56.652344 L 24.179688 56.652344 C 23.960938 56.652344 23.617188 56.652344 23.617188 56.996094 C 23.617188 57.339844 23.929688 57.339844 24.179688 57.339844 Z M 32.492188 57.339844 "/>
<path fill-rule="nonzero" fill="rgb(0%, 0%, 0%)" fill-opacity="1" d="M 42.320312 55.183594 L 43.632812 53.839844 C 45.414062 52.089844 45.976562 51.558594 47.226562 51.464844 C 47.414062 51.464844 47.570312 51.464844 47.570312 51.183594 C 47.570312 51.027344 47.414062 50.964844 47.382812 50.964844 C 46.976562 50.964844 46.476562 51.027344 46.070312 51.027344 C 45.695312 51.027344 44.820312 50.964844 44.445312 50.964844 C 44.351562 50.964844 44.164062 51.027344 44.164062 51.277344 C 44.164062 51.308594 44.164062 51.464844 44.382812 51.464844 C 44.507812 51.496094 44.851562 51.527344 44.851562 51.839844 C 44.851562 52.027344 44.632812 52.246094 44.507812 52.402344 C 44.382812 52.496094 42.632812 54.214844 42.101562 54.746094 L 40.695312 52.027344 C 40.664062 51.964844 40.632812 51.871094 40.632812 51.839844 C 40.632812 51.714844 40.882812 51.496094 41.382812 51.464844 C 41.476562 51.464844 41.664062 51.464844 41.664062 51.183594 C 41.664062 51.152344 41.664062 50.964844 41.414062 50.964844 C 41.132812 50.964844 40.789062 51.027344 40.507812 51.027344 C 40.195312 51.027344 39.882812 51.027344 39.601562 51.027344 C 39.351562 51.027344 39.007812 51.027344 38.757812 51.027344 C 38.539062 50.996094 38.226562 50.964844 38.007812 50.964844 C 37.945312 50.964844 37.726562 50.964844 37.726562 51.277344 C 37.726562 51.464844 37.914062 51.464844 38.132812 51.464844 C 38.945312 51.464844 39.007812 51.621094 39.132812 51.902344 L 41.101562 55.746094 L 40.320312 56.527344 C 40.039062 56.777344 39.382812 57.402344 39.132812 57.652344 C 37.445312 59.339844 36.882812 59.933594 35.601562 59.996094 C 35.414062 59.996094 35.257812 59.996094 35.257812 60.308594 C 35.257812 60.371094 35.320312 60.496094 35.476562 60.496094 C 35.851562 60.496094 36.351562 60.433594 36.757812 60.433594 C 37.007812 60.433594 37.351562 60.433594 37.570312 60.464844 C 37.820312 60.464844 38.132812 60.496094 38.382812 60.496094 C 38.445312 60.496094 38.664062 60.496094 38.664062 60.214844 C 38.664062 59.996094 38.507812 59.996094 38.414062 59.996094 C 38.289062 59.964844 37.976562 59.933594 37.976562 59.652344 C 37.976562 59.433594 38.164062 59.246094 38.476562 58.933594 L 41.289062 56.152344 L 42.976562 59.464844 C 43.070312 59.589844 43.070312 59.621094 43.070312 59.652344 C 43.070312 59.714844 42.820312 59.964844 42.320312 59.996094 C 42.195312 59.996094 42.039062 59.996094 42.039062 60.308594 C 42.039062 60.308594 42.039062 60.496094 42.257812 60.496094 C 42.570312 60.496094 42.914062 60.464844 43.195312 60.464844 C 43.476562 60.464844 43.820312 60.433594 44.101562 60.433594 C 44.351562 60.433594 44.664062 60.433594 44.914062 60.464844 C 45.164062 60.464844 45.445312 60.496094 45.664062 60.496094 C 45.757812 60.496094 45.976562 60.496094 45.976562 60.183594 C 45.976562 59.996094 45.789062 59.996094 45.570312 59.996094 C 44.757812 59.996094 44.695312 59.839844 44.570312 59.589844 Z M 42.320312 55.183594 "/>
<path fill-rule="nonzero" fill="rgb(0%, 0%, 0%)" fill-opacity="1" d="M 51.574219 56.269531 C 51.574219 56.019531 51.417969 55.832031 51.136719 55.832031 C 50.855469 55.832031 50.542969 56.113281 50.542969 56.425781 C 50.542969 56.707031 50.761719 56.863281 50.980469 56.863281 C 51.292969 56.863281 51.574219 56.582031 51.574219 56.269531 Z M 52.042969 61.050781 C 52.042969 60.925781 51.886719 60.925781 51.855469 60.925781 C 51.667969 60.925781 51.667969 60.957031 51.605469 61.144531 C 51.449219 61.675781 50.980469 62.269531 50.480469 62.269531 C 50.261719 62.269531 50.199219 62.113281 50.199219 61.894531 C 50.199219 61.675781 50.230469 61.550781 50.324219 61.363281 C 50.386719 61.175781 50.480469 60.988281 50.542969 60.832031 C 50.574219 60.738281 50.949219 59.832031 51.105469 59.457031 C 51.167969 59.269531 51.230469 59.113281 51.230469 58.957031 C 51.230469 58.488281 50.761719 58.082031 50.136719 58.082031 C 49.105469 58.082031 48.542969 59.363281 48.542969 59.613281 C 48.542969 59.769531 48.699219 59.769531 48.761719 59.769531 C 48.917969 59.769531 48.917969 59.707031 48.980469 59.582031 C 49.199219 58.863281 49.667969 58.425781 50.105469 58.425781 C 50.292969 58.425781 50.417969 58.519531 50.417969 58.800781 C 50.417969 58.832031 50.417969 58.957031 50.355469 59.144531 C 50.292969 59.332031 49.824219 60.394531 49.699219 60.738281 C 49.605469 60.925781 49.605469 60.925781 49.480469 61.269531 C 49.417969 61.425781 49.355469 61.550781 49.355469 61.707031 C 49.355469 62.238281 49.855469 62.613281 50.449219 62.613281 C 51.480469 62.613281 52.042969 61.300781 52.042969 61.050781 Z M 52.042969 61.050781 "/>
<path fill="none" stroke-width="0.39848" stroke-linecap="butt" stroke-linejoin="miter" stroke="rgb(0%, 0%, 0%)" stroke-opacity="1" stroke-miterlimit="10" d="M 28.396282 8.918032 L 28.396282 -8.214781 " transform="matrix(2, 0, 0, -2, 115.433998, 58.672001)"/>
<path fill="none" stroke-width="0.39848" stroke-linecap="round" stroke-linejoin="round" stroke="rgb(0%, 0%, 0%)" stroke-opacity="1" stroke-miterlimit="10" d="M -2.072083 2.389969 C -1.693176 0.956375 -0.849426 0.280594 -0.00177002 -0.000656128 C -0.849426 -0.278 -1.693176 -0.957687 -2.072083 -2.391281 " transform="matrix(0, 2, 2, 0, 172.227875, 75.50354)"/>
<path fill-rule="nonzero" fill="rgb(0%, 0%, 0%)" fill-opacity="1" d="M 181.859375 51.195312 C 179.234375 53.039062 178.515625 56.007812 178.515625 58.132812 C 178.515625 60.101562 179.109375 63.164062 181.859375 65.101562 C 181.984375 65.101562 182.140625 65.101562 182.140625 64.945312 C 182.140625 64.851562 182.109375 64.820312 182.015625 64.726562 C 180.140625 63.039062 179.484375 60.695312 179.484375 58.164062 C 179.484375 54.382812 180.921875 52.539062 182.046875 51.507812 C 182.109375 51.445312 182.140625 51.414062 182.140625 51.351562 C 182.140625 51.195312 181.984375 51.195312 181.859375 51.195312 Z M 181.859375 51.195312 "/>
<path fill-rule="nonzero" fill="rgb(0%, 0%, 0%)" fill-opacity="1" d="M 187.523438 59.101562 L 187.523438 58.164062 L 183.429688 58.164062 L 183.429688 59.101562 Z M 187.523438 59.101562 "/>
<path fill-rule="nonzero" fill="rgb(0%, 0%, 0%)" fill-opacity="1" d="M 189.769531 51.195312 C 189.675781 51.195312 189.519531 51.195312 189.519531 51.351562 C 189.519531 51.414062 189.550781 51.445312 189.644531 51.570312 C 190.832031 52.664062 192.175781 54.539062 192.175781 58.132812 C 192.175781 61.039062 191.269531 63.257812 189.769531 64.601562 C 189.519531 64.851562 189.519531 64.851562 189.519531 64.945312 C 189.519531 65.007812 189.550781 65.101562 189.675781 65.101562 C 189.863281 65.101562 191.175781 64.195312 192.113281 62.445312 C 192.707031 61.289062 193.113281 59.789062 193.113281 58.164062 C 193.113281 56.195312 192.519531 53.132812 189.769531 51.195312 Z M 189.769531 51.195312 "/>
<path fill-rule="nonzero" fill="rgb(0%, 0%, 0%)" fill-opacity="1" d="M 205.117188 58.476562 C 205.335938 58.476562 205.679688 58.476562 205.679688 58.164062 C 205.679688 57.789062 205.335938 57.789062 205.117188 57.789062 L 196.804688 57.789062 C 196.585938 57.789062 196.242188 57.789062 196.242188 58.132812 C 196.242188 58.476562 196.554688 58.476562 196.804688 58.476562 Z M 205.117188 58.476562 "/>
<path fill-rule="nonzero" fill="rgb(0%, 0%, 0%)" fill-opacity="1" d="M 214.949219 56.320312 L 216.261719 54.976562 C 218.042969 53.226562 218.605469 52.695312 219.855469 52.601562 C 220.042969 52.601562 220.199219 52.601562 220.199219 52.320312 C 220.199219 52.164062 220.042969 52.101562 220.011719 52.101562 C 219.605469 52.101562 219.105469 52.164062 218.699219 52.164062 C 218.324219 52.164062 217.449219 52.101562 217.074219 52.101562 C 216.980469 52.101562 216.792969 52.164062 216.792969 52.414062 C 216.792969 52.445312 216.792969 52.601562 217.011719 52.601562 C 217.136719 52.632812 217.480469 52.664062 217.480469 52.976562 C 217.480469 53.164062 217.261719 53.382812 217.136719 53.539062 C 217.011719 53.632812 215.261719 55.351562 214.730469 55.882812 L 213.324219 53.164062 C 213.292969 53.101562 213.261719 53.007812 213.261719 52.976562 C 213.261719 52.851562 213.511719 52.632812 214.011719 52.601562 C 214.105469 52.601562 214.292969 52.601562 214.292969 52.320312 C 214.292969 52.289062 214.292969 52.101562 214.042969 52.101562 C 213.761719 52.101562 213.417969 52.164062 213.136719 52.164062 C 212.824219 52.164062 212.511719 52.164062 212.230469 52.164062 C 211.980469 52.164062 211.636719 52.164062 211.386719 52.164062 C 211.167969 52.132812 210.855469 52.101562 210.636719 52.101562 C 210.574219 52.101562 210.355469 52.101562 210.355469 52.414062 C 210.355469 52.601562 210.542969 52.601562 210.761719 52.601562 C 211.574219 52.601562 211.636719 52.757812 211.761719 53.039062 L 213.730469 56.882812 L 212.949219 57.664062 C 212.667969 57.914062 212.011719 58.539062 211.761719 58.789062 C 210.074219 60.476562 209.511719 61.070312 208.230469 61.132812 C 208.042969 61.132812 207.886719 61.132812 207.886719 61.445312 C 207.886719 61.507812 207.949219 61.632812 208.105469 61.632812 C 208.480469 61.632812 208.980469 61.570312 209.386719 61.570312 C 209.636719 61.570312 209.980469 61.570312 210.199219 61.601562 C 210.449219 61.601562 210.761719 61.632812 211.011719 61.632812 C 211.074219 61.632812 211.292969 61.632812 211.292969 61.351562 C 211.292969 61.132812 211.136719 61.132812 211.042969 61.132812 C 210.917969 61.101562 210.605469 61.070312 210.605469 60.789062 C 210.605469 60.570312 210.792969 60.382812 211.105469 60.070312 L 213.917969 57.289062 L 215.605469 60.601562 C 215.699219 60.726562 215.699219 60.757812 215.699219 60.789062 C 215.699219 60.851562 215.449219 61.101562 214.949219 61.132812 C 214.824219 61.132812 214.667969 61.132812 214.667969 61.445312 C 214.667969 61.445312 214.667969 61.632812 214.886719 61.632812 C 215.199219 61.632812 215.542969 61.601562 215.824219 61.601562 C 216.105469 61.601562 216.449219 61.570312 216.730469 61.570312 C 216.980469 61.570312 217.292969 61.570312 217.542969 61.601562 C 217.792969 61.601562 218.074219 61.632812 218.292969 61.632812 C 218.386719 61.632812 218.605469 61.632812 218.605469 61.320312 C 218.605469 61.132812 218.417969 61.132812 218.199219 61.132812 C 217.386719 61.132812 217.324219 60.976562 217.199219 60.726562 Z M 214.949219 56.320312 "/>
<path fill-rule="nonzero" fill="rgb(0%, 0%, 0%)" fill-opacity="1" d="M 225.359375 57.40625 C 225.359375 57.1875 225.171875 56.96875 224.921875 56.96875 C 224.609375 56.96875 224.296875 57.28125 224.296875 57.5625 C 224.296875 57.8125 224.484375 58 224.734375 58 C 225.078125 58 225.359375 57.6875 225.359375 57.40625 Z M 223.171875 64.0625 C 222.984375 64.84375 222.359375 65.34375 221.765625 65.34375 C 221.578125 65.34375 221.484375 65.3125 221.390625 65.28125 C 221.640625 65.125 221.703125 64.875 221.703125 64.75 C 221.703125 64.59375 221.578125 64.34375 221.265625 64.34375 C 220.921875 64.34375 220.640625 64.65625 220.640625 64.96875 C 220.640625 65.40625 221.078125 65.65625 221.765625 65.65625 C 222.453125 65.65625 223.734375 65.3125 224.046875 64.09375 L 224.953125 60.5 C 224.953125 60.40625 224.984375 60.3125 224.984375 60.1875 C 224.984375 59.625 224.453125 59.21875 223.765625 59.21875 C 222.546875 59.21875 221.828125 60.5625 221.828125 60.75 C 221.828125 60.90625 221.984375 60.90625 222.015625 60.90625 C 222.171875 60.90625 222.203125 60.875 222.234375 60.75 C 222.703125 59.78125 223.390625 59.5625 223.734375 59.5625 C 224.109375 59.5625 224.140625 59.90625 224.140625 60.09375 C 224.140625 60.21875 224.140625 60.25 224.109375 60.34375 Z M 223.171875 64.0625 "/>
<path fill="none" stroke-width="0.39848" stroke-linecap="butt" stroke-linejoin="miter" stroke="rgb(0%, 0%, 0%)" stroke-opacity="1" stroke-miterlimit="10" d="M -11.756062 -17.44525 L 11.35722 -17.44525 " transform="matrix(2, 0, 0, -2, 115.433998, 58.672001)"/>
<path fill="none" stroke-width="0.39848" stroke-linecap="round" stroke-linejoin="round" stroke="rgb(0%, 0%, 0%)" stroke-opacity="1" stroke-miterlimit="10" d="M -2.070679 2.390903 C -1.691772 0.95731 -0.848022 0.277622 -0.000366211 0.000278473 C -0.848022 -0.277065 -1.691772 -0.956753 -2.070679 -2.390347 " transform="matrix(2, 0, 0, -2, 138.547607, 93.563057)"/>
<path fill-rule="nonzero" fill="rgb(0%, 0%, 0%)" fill-opacity="1" d="M 94.828125 98.277344 C 92.203125 100.121094 91.484375 103.089844 91.484375 105.214844 C 91.484375 107.183594 92.078125 110.246094 94.828125 112.183594 C 94.953125 112.183594 95.109375 112.183594 95.109375 112.027344 C 95.109375 111.933594 95.078125 111.902344 94.984375 111.808594 C 93.109375 110.121094 92.453125 107.777344 92.453125 105.246094 C 92.453125 101.464844 93.890625 99.621094 95.015625 98.589844 C 95.078125 98.527344 95.109375 98.496094 95.109375 98.433594 C 95.109375 98.277344 94.953125 98.277344 94.828125 98.277344 Z M 94.828125 98.277344 "/>
<path fill-rule="nonzero" fill="rgb(0%, 0%, 0%)" fill-opacity="1" d="M 100.496094 106.183594 L 100.496094 105.246094 L 96.402344 105.246094 L 96.402344 106.183594 Z M 100.496094 106.183594 "/>
<path fill-rule="nonzero" fill="rgb(0%, 0%, 0%)" fill-opacity="1" d="M 102.738281 98.277344 C 102.644531 98.277344 102.488281 98.277344 102.488281 98.433594 C 102.488281 98.496094 102.519531 98.527344 102.613281 98.652344 C 103.800781 99.746094 105.144531 101.621094 105.144531 105.214844 C 105.144531 108.121094 104.238281 110.339844 102.738281 111.683594 C 102.488281 111.933594 102.488281 111.933594 102.488281 112.027344 C 102.488281 112.089844 102.519531 112.183594 102.644531 112.183594 C 102.832031 112.183594 104.144531 111.277344 105.082031 109.527344 C 105.675781 108.371094 106.082031 106.871094 106.082031 105.246094 C 106.082031 103.277344 105.488281 100.214844 102.738281 98.277344 Z M 102.738281 98.277344 "/>
<path fill-rule="nonzero" fill="rgb(0%, 0%, 0%)" fill-opacity="1" d="M 114.148438 105.558594 L 118.429688 105.558594 C 118.617188 105.558594 118.929688 105.558594 118.929688 105.246094 C 118.929688 104.871094 118.617188 104.871094 118.429688 104.871094 L 114.148438 104.871094 L 114.148438 100.589844 C 114.148438 100.433594 114.148438 100.089844 113.835938 100.089844 C 113.492188 100.089844 113.492188 100.402344 113.492188 100.589844 L 113.492188 104.871094 L 109.210938 104.871094 C 109.023438 104.871094 108.679688 104.871094 108.679688 105.214844 C 108.679688 105.558594 108.992188 105.558594 109.210938 105.558594 L 113.492188 105.558594 L 113.492188 109.839844 C 113.492188 110.027344 113.492188 110.371094 113.804688 110.371094 C 114.148438 110.371094 114.148438 110.027344 114.148438 109.839844 Z M 114.148438 105.558594 "/>
<path fill-rule="nonzero" fill="rgb(0%, 0%, 0%)" fill-opacity="1" d="M 120.699219 110.964844 C 120.636719 111.152344 120.636719 111.246094 120.636719 111.246094 C 120.636719 111.558594 120.886719 111.683594 121.105469 111.683594 C 121.636719 111.683594 121.730469 111.277344 121.824219 110.839844 C 122.011719 110.121094 122.417969 108.527344 122.542969 107.996094 C 122.667969 108.183594 123.136719 108.839844 124.074219 108.839844 C 125.886719 108.839844 127.761719 106.964844 127.761719 104.933594 C 127.761719 103.433594 126.792969 102.558594 125.542969 102.558594 C 124.199219 102.558594 122.511719 103.777344 122.011719 105.746094 Z M 124.074219 108.464844 C 123.042969 108.464844 122.730469 107.433594 122.730469 107.246094 C 122.730469 107.214844 122.824219 106.902344 122.855469 106.746094 C 123.292969 105.027344 123.355469 104.714844 123.761719 104.089844 C 124.261719 103.371094 124.980469 102.964844 125.511719 102.964844 C 126.105469 102.964844 126.636719 103.371094 126.636719 104.371094 C 126.636719 104.996094 126.261719 106.558594 125.855469 107.246094 C 125.199219 108.246094 124.511719 108.464844 124.074219 108.464844 Z M 124.074219 108.464844 "/>
<path fill-rule="nonzero" fill="rgb(0%, 0%, 0%)" fill-opacity="1" d="M 133.308594 104.488281 C 133.308594 104.269531 133.121094 104.050781 132.871094 104.050781 C 132.558594 104.050781 132.246094 104.363281 132.246094 104.644531 C 132.246094 104.894531 132.433594 105.082031 132.683594 105.082031 C 133.027344 105.082031 133.308594 104.769531 133.308594 104.488281 Z M 131.121094 111.144531 C 130.933594 111.925781 130.308594 112.425781 129.714844 112.425781 C 129.527344 112.425781 129.433594 112.394531 129.339844 112.363281 C 129.589844 112.207031 129.652344 111.957031 129.652344 111.832031 C 129.652344 111.675781 129.527344 111.425781 129.214844 111.425781 C 128.871094 111.425781 128.589844 111.738281 128.589844 112.050781 C 128.589844 112.488281 129.027344 112.738281 129.714844 112.738281 C 130.402344 112.738281 131.683594 112.394531 131.996094 111.175781 L 132.902344 107.582031 C 132.902344 107.488281 132.933594 107.394531 132.933594 107.269531 C 132.933594 106.707031 132.402344 106.300781 131.714844 106.300781 C 130.496094 106.300781 129.777344 107.644531 129.777344 107.832031 C 129.777344 107.988281 129.933594 107.988281 129.964844 107.988281 C 130.121094 107.988281 130.152344 107.957031 130.183594 107.832031 C 130.652344 106.863281 131.339844 106.644531 131.683594 106.644531 C 132.058594 106.644531 132.089844 106.988281 132.089844 107.175781 C 132.089844 107.300781 132.089844 107.332031 132.058594 107.425781 Z M 131.121094 111.144531 "/>
<path fill-rule="nonzero" fill="rgb(0%, 0%, 0%)" fill-opacity="1" d="M 138.589844 104.488281 C 138.589844 104.238281 138.433594 104.050781 138.152344 104.050781 C 137.871094 104.050781 137.558594 104.332031 137.558594 104.644531 C 137.558594 104.925781 137.777344 105.082031 137.996094 105.082031 C 138.308594 105.082031 138.589844 104.800781 138.589844 104.488281 Z M 139.058594 109.269531 C 139.058594 109.144531 138.902344 109.144531 138.871094 109.144531 C 138.683594 109.144531 138.683594 109.175781 138.621094 109.363281 C 138.464844 109.894531 137.996094 110.488281 137.496094 110.488281 C 137.277344 110.488281 137.214844 110.332031 137.214844 110.113281 C 137.214844 109.894531 137.246094 109.769531 137.339844 109.582031 C 137.402344 109.394531 137.496094 109.207031 137.558594 109.050781 C 137.589844 108.957031 137.964844 108.050781 138.121094 107.675781 C 138.183594 107.488281 138.246094 107.332031 138.246094 107.175781 C 138.246094 106.707031 137.777344 106.300781 137.152344 106.300781 C 136.121094 106.300781 135.558594 107.582031 135.558594 107.832031 C 135.558594 107.988281 135.714844 107.988281 135.777344 107.988281 C 135.933594 107.988281 135.933594 107.925781 135.996094 107.800781 C 136.214844 107.082031 136.683594 106.644531 137.121094 106.644531 C 137.308594 106.644531 137.433594 106.738281 137.433594 107.019531 C 137.433594 107.050781 137.433594 107.175781 137.371094 107.363281 C 137.308594 107.550781 136.839844 108.613281 136.714844 108.957031 C 136.621094 109.144531 136.621094 109.144531 136.496094 109.488281 C 136.433594 109.644531 136.371094 109.769531 136.371094 109.925781 C 136.371094 110.457031 136.871094 110.832031 137.464844 110.832031 C 138.496094 110.832031 139.058594 109.519531 139.058594 109.269531 Z M 139.058594 109.269531 "/>
</svg>
