<?xml version="1.0" encoding="UTF-8"?>
<svg xmlns="http://www.w3.org/2000/svg" xmlns:xlink="http://www.w3.org/1999/xlink" width="226.119995" height="118.339996" viewBox="0 0 226.119995 118.339996">
<path fill-rule="nonzero" fill="rgb(0%, 0%, 0%)" fill-opacity="1" d="M 50.960938 26.054688 L 53.179688 17.773438 C 53.273438 17.335938 53.398438 16.992188 53.523438 16.742188 C 53.898438 15.992188 54.179688 15.492188 55.210938 15.492188 C 57.460938 15.492188 57.992188 16.742188 57.992188 18.898438 L 58.460938 18.898438 L 58.804688 15.085938 L 46.804688 15.085938 L 45.085938 18.898438 L 45.585938 18.898438 C 46.554688 17.117188 47.742188 15.492188 50.492188 15.492188 C 51.273438 15.492188 51.523438 15.867188 51.523438 16.648438 C 51.523438 16.929688 51.460938 17.273438 51.367188 17.710938 L 49.085938 26.242188 C 48.804688 27.242188 48.335938 28.304688 47.335938 28.523438 C 47.054688 28.585938 46.742188 28.648438 46.398438 28.648438 L 46.304688 28.929688 L 52.585938 28.929688 L 52.679688 28.648438 C 51.898438 28.648438 51.367188 28.585938 51.054688 28.398438 C 50.742188 28.242188 50.679688 27.710938 50.679688 27.335938 C 50.679688 26.867188 50.835938 26.523438 50.960938 26.054688 Z M 50.960938 26.054688 "/>
<path fill-rule="nonzero" fill="rgb(0%, 0%, 0%)" fill-opacity="1" d="M 57.761719 32.046875 C 59.074219 32.015625 59.761719 30.890625 60.105469 30.109375 L 59.855469 29.984375 C 59.636719 30.328125 59.105469 31.390625 58.511719 31.390625 C 58.386719 31.390625 58.199219 31.171875 58.199219 31.015625 C 58.199219 30.734375 58.386719 30.171875 58.480469 29.953125 L 59.417969 27.203125 C 59.574219 26.796875 59.636719 26.609375 59.636719 26.359375 C 59.636719 25.921875 59.605469 25.578125 59.136719 25.578125 C 58.230469 25.578125 57.136719 26.671875 56.824219 27.390625 L 57.105469 27.546875 C 57.292969 27.265625 57.824219 26.453125 58.167969 26.453125 C 58.386719 26.453125 58.449219 26.609375 58.449219 26.765625 C 58.480469 26.984375 58.355469 27.390625 58.261719 27.671875 L 57.292969 30.421875 C 57.167969 30.765625 57.105469 31.078125 57.105469 31.265625 C 57.105469 31.765625 57.292969 32.046875 57.761719 32.046875 Z M 60.542969 22.953125 C 60.542969 22.546875 60.199219 22.171875 59.792969 22.171875 C 59.386719 22.171875 59.042969 22.546875 59.042969 22.953125 C 59.042969 23.359375 59.417969 23.671875 59.792969 23.671875 C 60.136719 23.671875 60.542969 23.296875 60.542969 22.953125 Z M 60.542969 22.953125 "/>
<path fill-rule="nonzero" fill="rgb(0%, 0%, 0%)" fill-opacity="1" d="M 161.789062 26.054688 L 164.007812 17.773438 C 164.101562 17.335938 164.226562 16.992188 164.351562 16.742188 C 164.726562 15.992188 165.007812 15.492188 166.039062 15.492188 C 168.289062 15.492188 168.820312 16.742188 168.820312 18.898438 L 169.289062 18.898438 L 169.632812 15.085938 L 157.632812 15.085938 L 155.914062 18.898438 L 156.414062 18.898438 C 157.382812 17.117188 158.570312 15.492188 161.320312 15.492188 C 162.101562 15.492188 162.351562 15.867188 162.351562 16.648438 C 162.351562 16.929688 162.289062 17.273438 162.195312 17.710938 L 159.914062 26.242188 C 159.632812 27.242188 159.164062 28.304688 158.164062 28.523438 C 157.882812 28.585938 157.570312 28.648438 157.226562 28.648438 L 157.132812 28.929688 L 163.414062 28.929688 L 163.507812 28.648438 C 162.726562 28.648438 162.195312 28.585938 161.882812 28.398438 C 161.570312 28.242188 161.507812 27.710938 161.507812 27.335938 C 161.507812 26.867188 161.664062 26.523438 161.789062 26.054688 Z M 161.789062 26.054688 "/>
<path fill-rule="nonzero" fill="rgb(0%, 0%, 0%)" fill-opacity="1" d="M 172.472656 22.953125 C 172.472656 22.546875 172.160156 22.171875 171.722656 22.171875 C 171.316406 22.171875 171.003906 22.546875 171.003906 22.953125 C 171.003906 23.328125 171.347656 23.671875 171.722656 23.671875 C 172.097656 23.671875 172.472656 23.328125 172.472656 22.953125 Z M 166.691406 34.078125 C 166.691406 34.609375 167.253906 34.984375 167.816406 34.984375 C 168.503906 34.984375 169.003906 34.515625 169.378906 34.140625 C 169.816406 33.640625 170.191406 33.015625 170.378906 32.328125 L 171.347656 28.796875 C 171.503906 28.171875 171.628906 27.703125 171.722656 27.265625 C 171.847656 26.859375 171.910156 26.515625 171.910156 26.234375 C 171.910156 25.890625 171.753906 25.578125 171.347656 25.578125 C 170.535156 25.578125 169.441406 26.703125 169.097656 27.390625 L 169.347656 27.578125 C 169.566406 27.296875 170.035156 26.453125 170.503906 26.453125 C 170.628906 26.453125 170.753906 26.671875 170.753906 26.828125 C 170.753906 27.265625 170.660156 27.578125 170.535156 28.015625 L 169.097656 33.234375 C 169.003906 33.671875 168.722656 34.578125 168.253906 34.578125 C 168.128906 34.578125 168.066406 34.515625 168.003906 34.421875 C 167.785156 34.140625 167.972656 33.390625 167.285156 33.390625 C 166.878906 33.390625 166.691406 33.703125 166.691406 34.078125 Z M 166.691406 34.078125 "/>
<path fill-rule="nonzero" fill="rgb(0%, 0%, 0%)" fill-opacity="1" d="M 36.628906 86.414062 C 36.660156 86.320312 36.722656 86.257812 36.722656 86.195312 C 36.722656 86.101562 36.660156 86.039062 36.566406 86.039062 C 35.847656 86.039062 34.910156 86.351562 34.066406 86.882812 C 33.128906 87.445312 32.378906 88.195312 31.816406 88.945312 C 31.222656 89.820312 30.910156 90.632812 30.910156 91.351562 C 30.910156 91.757812 31.003906 92.132812 31.191406 92.445312 C 31.753906 93.476562 33.003906 93.914062 34.535156 93.914062 C 34.878906 93.914062 35.253906 93.882812 35.628906 93.820312 C 35.628906 93.945312 35.660156 94.070312 35.691406 94.164062 C 35.910156 95.070312 36.660156 95.539062 37.816406 95.539062 C 38.660156 95.539062 39.378906 95.132812 40.097656 94.507812 C 39.472656 95.601562 39.191406 96.664062 38.441406 97.726562 C 37.753906 98.695312 36.472656 99.507812 35.597656 99.507812 C 33.847656 99.507812 32.472656 99.164062 32.472656 98.257812 C 32.472656 98.070312 32.535156 97.851562 32.660156 97.601562 C 32.785156 97.820312 33.003906 97.914062 33.253906 97.914062 C 33.753906 97.914062 34.347656 97.507812 34.347656 97.132812 C 34.347656 96.632812 34.066406 96.445312 33.691406 96.445312 C 33.285156 96.445312 32.816406 96.695312 32.566406 97.039062 C 32.191406 97.539062 32.035156 97.976562 32.035156 98.320312 C 32.035156 99.539062 33.785156 99.945312 35.535156 99.945312 C 37.097656 99.945312 39.160156 99.351562 40.128906 97.945312 C 41.128906 96.507812 40.753906 95.382812 41.691406 94.039062 C 42.347656 93.132812 42.566406 92.007812 43.691406 91.351562 C 43.722656 91.320312 43.753906 91.257812 43.753906 91.226562 L 43.722656 91.039062 C 43.722656 91.039062 43.722656 91.039062 43.722656 91.007812 C 43.691406 90.945312 43.628906 90.882812 43.566406 90.882812 C 43.535156 90.882812 43.503906 90.882812 43.472656 90.914062 C 42.566406 91.445312 41.847656 92.132812 41.253906 92.882812 C 40.160156 93.976562 39.097656 95.101562 37.878906 95.101562 C 37.222656 95.101562 36.878906 94.726562 36.878906 94.195312 L 36.878906 94.070312 C 36.910156 93.914062 36.972656 93.695312 37.035156 93.507812 C 38.035156 93.195312 39.066406 92.695312 40.066406 92.101562 C 42.003906 90.945312 43.753906 89.382812 44.910156 87.757812 C 45.222656 87.320312 45.378906 86.882812 45.378906 86.476562 C 45.378906 86.289062 45.347656 86.132812 45.285156 85.976562 C 45.066406 85.445312 44.472656 85.226562 43.785156 85.226562 C 42.753906 85.226562 41.472656 86.070312 40.410156 86.945312 C 38.878906 88.195312 37.660156 89.632812 36.660156 91.039062 C 36.066406 91.851562 35.722656 92.664062 35.628906 93.382812 C 35.285156 93.445312 34.941406 93.476562 34.628906 93.476562 C 33.285156 93.476562 32.316406 93.070312 31.972656 92.257812 C 31.910156 92.070312 31.878906 91.851562 31.878906 91.632812 C 31.878906 90.945312 32.222656 90.070312 32.878906 89.132812 C 33.347656 88.476562 33.910156 87.789062 34.660156 87.226562 C 35.285156 86.757812 35.972656 86.476562 36.503906 86.476562 C 36.566406 86.476562 36.597656 86.445312 36.628906 86.414062 Z M 38.347656 91.226562 C 39.316406 89.882812 40.472656 88.257812 41.441406 87.257812 C 42.222656 86.414062 43.066406 85.664062 43.691406 85.664062 C 44.160156 85.664062 44.441406 85.851562 44.472656 86.132812 L 44.472656 86.226562 C 44.472656 86.570312 44.222656 87.039062 43.878906 87.539062 C 42.785156 89.070312 41.285156 90.601562 39.472656 91.757812 C 38.753906 92.226562 38.003906 92.601562 37.285156 92.882812 C 37.566406 92.382812 37.941406 91.820312 38.347656 91.226562 Z M 38.347656 91.226562 "/>
<path fill-rule="nonzero" fill="rgb(0%, 0%, 0%)" fill-opacity="1" d="M 53.160156 85.226562 C 50.285156 87.101562 48.253906 90.320312 48.253906 94.382812 C 48.253906 98.101562 50.347656 101.851562 53.097656 103.539062 L 53.347656 103.226562 C 50.722656 101.132812 49.941406 98.726562 49.941406 94.320312 C 49.941406 89.882812 50.785156 87.601562 53.347656 85.539062 Z M 53.160156 85.226562 "/>
<path fill-rule="nonzero" fill="rgb(0%, 0%, 0%)" fill-opacity="1" d="M 64.996094 99.664062 C 66.652344 99.664062 67.746094 97.757812 68.308594 96.757812 L 67.964844 96.507812 C 67.527344 97.164062 66.589844 98.820312 65.902344 98.820312 C 65.652344 98.820312 65.746094 98.320312 65.746094 98.101562 C 65.746094 98.007812 65.746094 97.882812 65.746094 97.820312 C 66.027344 96.695312 66.558594 95.351562 66.902344 94.164062 C 67.089844 93.539062 67.371094 92.914062 67.371094 92.195312 C 67.371094 91.320312 66.964844 90.820312 66.089844 90.820312 C 65.433594 90.820312 64.933594 91.101562 64.496094 91.476562 C 63.871094 92.039062 63.402344 92.664062 62.902344 93.539062 L 62.839844 93.507812 C 62.996094 92.914062 63.089844 92.789062 63.089844 92.257812 C 63.089844 91.382812 62.621094 90.820312 61.746094 90.820312 C 60.652344 90.820312 59.621094 91.632812 58.621094 93.476562 L 58.589844 93.414062 C 58.746094 92.976562 58.808594 92.601562 58.808594 92.070312 C 58.808594 91.289062 58.652344 90.820312 57.871094 90.820312 C 56.214844 90.820312 55.496094 92.539062 54.964844 94.039062 L 55.308594 94.132812 C 55.527344 93.382812 56.496094 91.226562 57.339844 91.226562 C 57.558594 91.226562 57.652344 91.789062 57.652344 92.101562 C 57.652344 92.195312 57.621094 92.382812 57.558594 92.539062 C 57.246094 93.695312 56.933594 94.632812 56.558594 95.820312 L 55.402344 99.507812 L 56.714844 99.507812 L 58.089844 95.445312 C 58.652344 94.007812 59.527344 92.539062 60.589844 91.601562 C 60.902344 91.351562 61.183594 91.257812 61.402344 91.257812 C 62.058594 91.257812 61.902344 92.882812 61.746094 93.351562 C 61.496094 94.320312 61.183594 95.132812 60.808594 96.289062 L 59.746094 99.507812 L 61.089844 99.507812 C 61.589844 98.007812 61.964844 96.539062 62.464844 95.289062 C 62.933594 94.039062 63.871094 92.601562 64.652344 91.820312 C 65.089844 91.445312 65.402344 91.257812 65.683594 91.257812 C 65.902344 91.257812 66.121094 91.414062 66.121094 91.726562 C 66.121094 92.507812 65.777344 93.257812 65.496094 94.132812 C 65.089844 95.351562 64.714844 96.257812 64.433594 97.289062 C 64.339844 97.757812 64.214844 98.007812 64.214844 98.414062 C 64.214844 99.101562 64.402344 99.664062 64.996094 99.664062 Z M 64.996094 99.664062 "/>
<path fill-rule="nonzero" fill="rgb(0%, 0%, 0%)" fill-opacity="1" d="M 70.050781 85.226562 L 69.894531 85.539062 C 72.457031 87.601562 73.269531 89.882812 73.269531 94.320312 C 73.269531 98.726562 72.519531 101.132812 69.894531 103.226562 L 70.113281 103.539062 C 72.863281 101.851562 74.988281 98.101562 74.988281 94.382812 C 74.988281 90.320312 72.957031 87.101562 70.050781 85.226562 Z M 70.050781 85.226562 "/>
<path fill-rule="nonzero" fill="rgb(0%, 0%, 0%)" fill-opacity="1" d="M 147.867188 86.414062 C 147.898438 86.320312 147.960938 86.257812 147.960938 86.195312 C 147.960938 86.101562 147.898438 86.039062 147.804688 86.039062 C 147.085938 86.039062 146.148438 86.351562 145.304688 86.882812 C 144.367188 87.445312 143.617188 88.195312 143.054688 88.945312 C 142.460938 89.820312 142.148438 90.632812 142.148438 91.351562 C 142.148438 91.757812 142.242188 92.132812 142.429688 92.445312 C 142.992188 93.476562 144.242188 93.914062 145.773438 93.914062 C 146.117188 93.914062 146.492188 93.882812 146.867188 93.820312 C 146.867188 93.945312 146.898438 94.070312 146.929688 94.164062 C 147.148438 95.070312 147.898438 95.539062 149.054688 95.539062 C 149.898438 95.539062 150.617188 95.132812 151.335938 94.507812 C 150.710938 95.601562 150.429688 96.664062 149.679688 97.726562 C 148.992188 98.695312 147.710938 99.507812 146.835938 99.507812 C 145.085938 99.507812 143.710938 99.164062 143.710938 98.257812 C 143.710938 98.070312 143.773438 97.851562 143.898438 97.601562 C 144.023438 97.820312 144.242188 97.914062 144.492188 97.914062 C 144.992188 97.914062 145.585938 97.507812 145.585938 97.132812 C 145.585938 96.632812 145.304688 96.445312 144.929688 96.445312 C 144.523438 96.445312 144.054688 96.695312 143.804688 97.039062 C 143.429688 97.539062 143.273438 97.976562 143.273438 98.320312 C 143.273438 99.539062 145.023438 99.945312 146.773438 99.945312 C 148.335938 99.945312 150.398438 99.351562 151.367188 97.945312 C 152.367188 96.507812 151.992188 95.382812 152.929688 94.039062 C 153.585938 93.132812 153.804688 92.007812 154.929688 91.351562 C 154.960938 91.320312 154.992188 91.257812 154.992188 91.226562 L 154.960938 91.039062 C 154.960938 91.039062 154.960938 91.039062 154.960938 91.007812 C 154.929688 90.945312 154.867188 90.882812 154.804688 90.882812 C 154.773438 90.882812 154.742188 90.882812 154.710938 90.914062 C 153.804688 91.445312 153.085938 92.132812 152.492188 92.882812 C 151.398438 93.976562 150.335938 95.101562 149.117188 95.101562 C 148.460938 95.101562 148.117188 94.726562 148.117188 94.195312 L 148.117188 94.070312 C 148.148438 93.914062 148.210938 93.695312 148.273438 93.507812 C 149.273438 93.195312 150.304688 92.695312 151.304688 92.101562 C 153.242188 90.945312 154.992188 89.382812 156.148438 87.757812 C 156.460938 87.320312 156.617188 86.882812 156.617188 86.476562 C 156.617188 86.289062 156.585938 86.132812 156.523438 85.976562 C 156.304688 85.445312 155.710938 85.226562 155.023438 85.226562 C 153.992188 85.226562 152.710938 86.070312 151.648438 86.945312 C 150.117188 88.195312 148.898438 89.632812 147.898438 91.039062 C 147.304688 91.851562 146.960938 92.664062 146.867188 93.382812 C 146.523438 93.445312 146.179688 93.476562 145.867188 93.476562 C 144.523438 93.476562 143.554688 93.070312 143.210938 92.257812 C 143.148438 92.070312 143.117188 91.851562 143.117188 91.632812 C 143.117188 90.945312 143.460938 90.070312 144.117188 89.132812 C 144.585938 88.476562 145.148438 87.789062 145.898438 87.226562 C 146.523438 86.757812 147.210938 86.476562 147.742188 86.476562 C 147.804688 86.476562 147.835938 86.445312 147.867188 86.414062 Z M 149.585938 91.226562 C 150.554688 89.882812 151.710938 88.257812 152.679688 87.257812 C 153.460938 86.414062 154.304688 85.664062 154.929688 85.664062 C 155.398438 85.664062 155.679688 85.851562 155.710938 86.132812 L 155.710938 86.226562 C 155.710938 86.570312 155.460938 87.039062 155.117188 87.539062 C 154.023438 89.070312 152.523438 90.601562 150.710938 91.757812 C 149.992188 92.226562 149.242188 92.601562 148.523438 92.882812 C 148.804688 92.382812 149.179688 91.820312 149.585938 91.226562 Z M 149.585938 91.226562 "/>
<path fill-rule="nonzero" fill="rgb(0%, 0%, 0%)" fill-opacity="1" d="M 164.398438 85.226562 C 161.523438 87.101562 159.492188 90.320312 159.492188 94.382812 C 159.492188 98.101562 161.585938 101.851562 164.335938 103.539062 L 164.585938 103.226562 C 161.960938 101.132812 161.179688 98.726562 161.179688 94.320312 C 161.179688 89.882812 162.023438 87.601562 164.585938 85.539062 Z M 164.398438 85.226562 "/>
<path fill-rule="nonzero" fill="rgb(0%, 0%, 0%)" fill-opacity="1" d="M 176.238281 99.664062 C 177.894531 99.664062 178.988281 97.757812 179.550781 96.757812 L 179.207031 96.507812 C 178.769531 97.164062 177.832031 98.820312 177.144531 98.820312 C 176.894531 98.820312 176.988281 98.320312 176.988281 98.101562 C 176.988281 98.007812 176.988281 97.882812 176.988281 97.820312 C 177.269531 96.695312 177.800781 95.351562 178.144531 94.164062 C 178.332031 93.539062 178.613281 92.914062 178.613281 92.195312 C 178.613281 91.320312 178.207031 90.820312 177.332031 90.820312 C 176.675781 90.820312 176.175781 91.101562 175.738281 91.476562 C 175.113281 92.039062 174.644531 92.664062 174.144531 93.539062 L 174.082031 93.507812 C 174.238281 92.914062 174.332031 92.789062 174.332031 92.257812 C 174.332031 91.382812 173.863281 90.820312 172.988281 90.820312 C 171.894531 90.820312 170.863281 91.632812 169.863281 93.476562 L 169.832031 93.414062 C 169.988281 92.976562 170.050781 92.601562 170.050781 92.070312 C 170.050781 91.289062 169.894531 90.820312 169.113281 90.820312 C 167.457031 90.820312 166.738281 92.539062 166.207031 94.039062 L 166.550781 94.132812 C 166.769531 93.382812 167.738281 91.226562 168.582031 91.226562 C 168.800781 91.226562 168.894531 91.789062 168.894531 92.101562 C 168.894531 92.195312 168.863281 92.382812 168.800781 92.539062 C 168.488281 93.695312 168.175781 94.632812 167.800781 95.820312 L 166.644531 99.507812 L 167.957031 99.507812 L 169.332031 95.445312 C 169.894531 94.007812 170.769531 92.539062 171.832031 91.601562 C 172.144531 91.351562 172.425781 91.257812 172.644531 91.257812 C 173.300781 91.257812 173.144531 92.882812 172.988281 93.351562 C 172.738281 94.320312 172.425781 95.132812 172.050781 96.289062 L 170.988281 99.507812 L 172.332031 99.507812 C 172.832031 98.007812 173.207031 96.539062 173.707031 95.289062 C 174.175781 94.039062 175.113281 92.601562 175.894531 91.820312 C 176.332031 91.445312 176.644531 91.257812 176.925781 91.257812 C 177.144531 91.257812 177.363281 91.414062 177.363281 91.726562 C 177.363281 92.507812 177.019531 93.257812 176.738281 94.132812 C 176.332031 95.351562 175.957031 96.257812 175.675781 97.289062 C 175.582031 97.757812 175.457031 98.007812 175.457031 98.414062 C 175.457031 99.101562 175.644531 99.664062 176.238281 99.664062 Z M 176.238281 99.664062 "/>
<path fill-rule="nonzero" fill="rgb(0%, 0%, 0%)" fill-opacity="1" d="M 181.292969 85.226562 L 181.136719 85.539062 C 183.699219 87.601562 184.511719 89.882812 184.511719 94.320312 C 184.511719 98.726562 183.761719 101.132812 181.136719 103.226562 L 181.355469 103.539062 C 184.105469 101.851562 186.230469 98.101562 186.230469 94.382812 C 186.230469 90.320312 184.199219 87.101562 181.292969 85.226562 Z M 181.292969 85.226562 "/>
<path fill="none" stroke-width="0.5579" stroke-linecap="butt" stroke-linejoin="miter" stroke="rgb(0%, 0%, 0%)" stroke-opacity="1" stroke-miterlimit="10" d="M -18.947468 17.70475 L 18.185345 17.70475 " transform="matrix(2, 0, 0, -2, 109.433998, 59.222)"/>
<path fill="none" stroke-width="0.5579" stroke-linecap="round" stroke-linejoin="round" stroke="rgb(0%, 0%, 0%)" stroke-opacity="1" stroke-miterlimit="10" d="M -2.899879 3.345877 C -2.372536 1.338064 -1.188942 0.388845 -0.00144196 -0.00177956 C -1.188942 -0.392405 -2.372536 -1.337717 -2.899879 -3.34553 " transform="matrix(2, 0, 0, -2, 146.362259, 23.808941)"/>
<path fill-rule="nonzero" fill="rgb(0%, 0%, 0%)" fill-opacity="1" d="M 104.742188 12.347656 L 106.335938 6.316406 C 106.429688 6.003906 106.523438 5.753906 106.585938 5.535156 C 106.867188 5.003906 107.085938 4.660156 107.835938 4.660156 C 109.492188 4.660156 109.867188 5.535156 109.867188 7.128906 L 110.210938 7.128906 L 110.460938 4.347656 L 101.710938 4.347656 L 100.460938 7.128906 L 100.835938 7.128906 C 101.523438 5.816406 102.367188 4.660156 104.398438 4.660156 C 104.960938 4.660156 105.148438 4.910156 105.148438 5.503906 C 105.148438 5.691406 105.085938 5.941406 105.023438 6.285156 L 103.367188 12.472656 C 103.179688 13.222656 102.804688 14.003906 102.085938 14.160156 C 101.898438 14.191406 101.679688 14.222656 101.398438 14.222656 L 101.335938 14.441406 L 105.898438 14.441406 L 105.992188 14.222656 C 105.429688 14.222656 105.023438 14.191406 104.804688 14.066406 C 104.585938 13.941406 104.523438 13.566406 104.523438 13.285156 C 104.523438 12.941406 104.648438 12.691406 104.742188 12.347656 Z M 104.742188 12.347656 "/>
<path fill-rule="nonzero" fill="rgb(0%, 0%, 0%)" fill-opacity="1" d="M 112.660156 9.898438 C 112.660156 9.617188 112.441406 9.335938 112.097656 9.335938 C 111.816406 9.335938 111.535156 9.585938 111.535156 9.898438 C 111.535156 10.210938 111.816406 10.460938 112.097656 10.460938 C 112.378906 10.460938 112.660156 10.179688 112.660156 9.898438 Z M 108.316406 18.304688 C 108.316406 18.710938 108.722656 18.992188 109.160156 18.992188 C 109.660156 18.992188 110.066406 18.648438 110.347656 18.367188 C 110.660156 17.992188 110.941406 17.523438 111.066406 16.992188 L 111.816406 14.304688 C 111.941406 13.867188 112.035156 13.492188 112.097656 13.179688 C 112.191406 12.867188 112.253906 12.585938 112.253906 12.398438 C 112.253906 12.117188 112.128906 11.898438 111.816406 11.898438 C 111.191406 11.898438 110.378906 12.742188 110.128906 13.242188 L 110.316406 13.398438 C 110.472656 13.179688 110.847656 12.554688 111.191406 12.554688 C 111.285156 12.554688 111.378906 12.710938 111.378906 12.835938 C 111.378906 13.179688 111.285156 13.398438 111.222656 13.742188 L 110.128906 17.679688 C 110.035156 17.992188 109.816406 18.679688 109.472656 18.679688 C 109.410156 18.679688 109.347656 18.617188 109.285156 18.554688 C 109.128906 18.367188 109.253906 17.773438 108.753906 17.773438 C 108.441406 17.773438 108.316406 18.023438 108.316406 18.304688 Z M 108.316406 18.304688 "/>
<path fill-rule="nonzero" fill="rgb(0%, 0%, 0%)" fill-opacity="1" d="M 114.171875 16.773438 C 115.140625 16.742188 115.640625 15.898438 115.921875 15.304688 L 115.734375 15.210938 C 115.578125 15.460938 115.171875 16.273438 114.703125 16.273438 C 114.609375 16.273438 114.484375 16.117188 114.484375 15.992188 C 114.484375 15.773438 114.609375 15.367188 114.671875 15.179688 L 115.421875 13.117188 C 115.515625 12.804688 115.546875 12.679688 115.546875 12.492188 C 115.546875 12.148438 115.546875 11.898438 115.203125 11.898438 C 114.484375 11.898438 113.671875 12.710938 113.421875 13.242188 L 113.640625 13.367188 C 113.796875 13.148438 114.203125 12.554688 114.453125 12.554688 C 114.640625 12.554688 114.671875 12.679688 114.671875 12.773438 C 114.703125 12.960938 114.609375 13.273438 114.515625 13.460938 L 113.796875 15.523438 C 113.703125 15.804688 113.640625 16.054688 113.640625 16.179688 C 113.640625 16.554688 113.796875 16.773438 114.171875 16.773438 Z M 116.234375 9.898438 C 116.234375 9.617188 115.984375 9.335938 115.671875 9.335938 C 115.359375 9.335938 115.109375 9.585938 115.109375 9.898438 C 115.109375 10.210938 115.390625 10.460938 115.671875 10.460938 C 115.953125 10.460938 116.234375 10.179688 116.234375 9.898438 Z M 116.234375 9.898438 "/>
<path fill="none" stroke-width="0.5579" stroke-linecap="butt" stroke-linejoin="miter" stroke="rgb(0%, 0%, 0%)" stroke-opacity="1" stroke-miterlimit="10" d="M -27.810749 9.747719 L -27.810749 -8.685875 " transform="matrix(2, 0, 0, -2, 109.433998, 59.222)"/>
<path fill="none" stroke-width="0.5579" stroke-linecap="round" stroke-linejoin="round" stroke="rgb(0%, 0%, 0%)" stroke-opacity="1" stroke-miterlimit="10" d="M -2.900917 3.347027 C -2.369667 1.339214 -1.18998 0.389996 0.0014267 -0.000629425 C -1.18998 -0.391254 -2.369667 -1.340473 -2.900917 -3.348286 " transform="matrix(0, 2, 2, 0, 53.813759, 77.153397)"/>
<path fill-rule="nonzero" fill="rgb(0%, 0%, 0%)" fill-opacity="1" d="M 9.738281 52.027344 C 7.644531 53.371094 6.144531 55.746094 6.144531 58.683594 C 6.144531 61.402344 7.707031 64.121094 9.707031 65.371094 L 9.863281 65.121094 C 7.957031 63.621094 7.394531 61.871094 7.394531 58.652344 C 7.394531 55.433594 7.988281 53.746094 9.863281 52.246094 Z M 9.738281 52.027344 "/>
<path fill-rule="nonzero" fill="rgb(0%, 0%, 0%)" fill-opacity="1" d="M 15.589844 59.808594 L 15.589844 58.808594 L 11.308594 58.808594 L 11.308594 59.808594 Z M 15.589844 59.808594 "/>
<path fill-rule="nonzero" fill="rgb(0%, 0%, 0%)" fill-opacity="1" d="M 17.917969 52.027344 L 17.761719 52.246094 C 19.636719 53.746094 20.261719 55.433594 20.261719 58.652344 C 20.261719 61.871094 19.699219 63.621094 17.761719 65.121094 L 17.949219 65.371094 C 19.949219 64.121094 21.511719 61.402344 21.511719 58.683594 C 21.511719 55.746094 20.011719 53.371094 17.917969 52.027344 Z M 17.917969 52.027344 "/>
<path fill-rule="nonzero" fill="rgb(0%, 0%, 0%)" fill-opacity="1" d="M 32.273438 59.121094 L 32.273438 58.277344 L 24.835938 58.277344 L 24.835938 59.121094 Z M 32.273438 59.121094 "/>
<path fill-rule="nonzero" fill="rgb(0%, 0%, 0%)" fill-opacity="1" d="M 41.535156 60.371094 L 39.941406 56.714844 L 42.253906 54.089844 C 42.535156 53.808594 42.691406 53.589844 42.910156 53.402344 C 43.097656 53.183594 43.347656 52.996094 43.503906 52.871094 C 43.691406 52.746094 44.035156 52.683594 44.191406 52.621094 C 44.378906 52.558594 44.535156 52.527344 44.722656 52.527344 L 44.785156 52.339844 L 41.410156 52.339844 L 41.347656 52.527344 C 41.847656 52.527344 42.222656 52.902344 42.222656 53.152344 C 42.222656 53.308594 42.128906 53.527344 41.941406 53.808594 C 41.753906 54.089844 41.347656 54.558594 40.941406 55.027344 L 39.785156 56.339844 L 39.097656 54.839844 C 38.816406 54.214844 38.566406 53.683594 38.566406 53.402344 C 38.566406 52.964844 39.035156 52.527344 39.660156 52.527344 L 39.691406 52.339844 L 35.628906 52.339844 L 35.566406 52.527344 C 35.785156 52.527344 35.972656 52.558594 36.128906 52.589844 C 36.535156 52.714844 36.691406 53.089844 36.910156 53.464844 C 37.035156 53.652344 37.160156 53.871094 37.316406 54.152344 L 38.816406 57.464844 L 35.660156 61.027344 C 35.441406 61.277344 35.253906 61.464844 35.097656 61.621094 C 34.878906 61.871094 34.597656 62.058594 34.222656 62.152344 C 34.066406 62.183594 33.878906 62.214844 33.628906 62.214844 L 33.566406 62.433594 L 37.347656 62.433594 L 37.410156 62.214844 C 37.066406 62.214844 36.816406 62.183594 36.628906 62.121094 C 36.347656 62.058594 36.128906 61.777344 36.128906 61.464844 C 36.128906 61.246094 36.285156 61.027344 36.535156 60.714844 C 36.816406 60.371094 37.347656 59.746094 37.847656 59.183594 L 39.003906 57.902344 L 40.066406 60.464844 C 40.128906 60.621094 40.191406 60.777344 40.253906 60.964844 C 40.285156 61.121094 40.316406 61.246094 40.316406 61.371094 C 40.316406 61.808594 39.878906 62.214844 39.160156 62.214844 L 39.097656 62.433594 L 43.410156 62.433594 L 43.472656 62.214844 C 43.253906 62.214844 43.035156 62.214844 42.847656 62.152344 C 42.410156 61.996094 42.191406 61.558594 41.941406 61.183594 C 41.816406 60.964844 41.660156 60.683594 41.535156 60.371094 Z M 41.535156 60.371094 "/>
<path fill-rule="nonzero" fill="rgb(0%, 0%, 0%)" fill-opacity="1" d="M 45.128906 64.765625 C 46.097656 64.734375 46.597656 63.890625 46.878906 63.296875 L 46.691406 63.203125 C 46.535156 63.453125 46.128906 64.265625 45.660156 64.265625 C 45.566406 64.265625 45.441406 64.109375 45.441406 63.984375 C 45.441406 63.765625 45.566406 63.359375 45.628906 63.171875 L 46.378906 61.109375 C 46.472656 60.796875 46.503906 60.671875 46.503906 60.484375 C 46.503906 60.140625 46.503906 59.890625 46.160156 59.890625 C 45.441406 59.890625 44.628906 60.703125 44.378906 61.234375 L 44.597656 61.359375 C 44.753906 61.140625 45.160156 60.546875 45.410156 60.546875 C 45.597656 60.546875 45.628906 60.671875 45.628906 60.765625 C 45.660156 60.953125 45.566406 61.265625 45.472656 61.453125 L 44.753906 63.515625 C 44.660156 63.796875 44.597656 64.046875 44.597656 64.171875 C 44.597656 64.546875 44.753906 64.765625 45.128906 64.765625 Z M 47.191406 57.890625 C 47.191406 57.609375 46.941406 57.328125 46.628906 57.328125 C 46.316406 57.328125 46.066406 57.578125 46.066406 57.890625 C 46.066406 58.203125 46.347656 58.453125 46.628906 58.453125 C 46.910156 58.453125 47.191406 58.171875 47.191406 57.890625 Z M 47.191406 57.890625 "/>
<path fill="none" stroke-width="0.5579" stroke-linecap="butt" stroke-linejoin="miter" stroke="rgb(0%, 0%, 0%)" stroke-opacity="1" stroke-miterlimit="10" d="M 27.810345 8.290688 L 27.810345 -8.685875 " transform="matrix(2, 0, 0, -2, 109.433998, 59.222)"/>
<path fill="none" stroke-width="0.5579" stroke-linecap="round" stroke-linejoin="round" stroke="rgb(0%, 0%, 0%)" stroke-opacity="1" stroke-miterlimit="10" d="M -2.900917 3.347878 C -2.369667 1.340065 -1.18998 0.390846 0.0014267 0.000221252 C -1.18998 -0.390404 -2.369667 -1.339622 -2.900917 -3.347435 " transform="matrix(0, 2, 2, 0, 165.054245, 77.153397)"/>
<path fill-rule="nonzero" fill="rgb(0%, 0%, 0%)" fill-opacity="1" d="M 175.347656 52.65625 C 173.253906 54 171.753906 56.375 171.753906 59.3125 C 171.753906 62.03125 173.316406 64.75 175.316406 66 L 175.472656 65.75 C 173.566406 64.25 173.003906 62.5 173.003906 59.28125 C 173.003906 56.0625 173.597656 54.375 175.472656 52.875 Z M 175.347656 52.65625 "/>
<path fill-rule="nonzero" fill="rgb(0%, 0%, 0%)" fill-opacity="1" d="M 181.203125 60.4375 L 181.203125 59.4375 L 176.921875 59.4375 L 176.921875 60.4375 Z M 181.203125 60.4375 "/>
<path fill-rule="nonzero" fill="rgb(0%, 0%, 0%)" fill-opacity="1" d="M 183.53125 52.65625 L 183.375 52.875 C 185.25 54.375 185.875 56.0625 185.875 59.28125 C 185.875 62.5 185.3125 64.25 183.375 65.75 L 183.5625 66 C 185.5625 64.75 187.125 62.03125 187.125 59.3125 C 187.125 56.375 185.625 54 183.53125 52.65625 Z M 183.53125 52.65625 "/>
<path fill-rule="nonzero" fill="rgb(0%, 0%, 0%)" fill-opacity="1" d="M 197.886719 59.75 L 197.886719 58.90625 L 190.449219 58.90625 L 190.449219 59.75 Z M 197.886719 59.75 "/>
<path fill-rule="nonzero" fill="rgb(0%, 0%, 0%)" fill-opacity="1" d="M 207.148438 61 L 205.554688 57.34375 L 207.867188 54.71875 C 208.148438 54.4375 208.304688 54.21875 208.523438 54.03125 C 208.710938 53.8125 208.960938 53.625 209.117188 53.5 C 209.304688 53.375 209.648438 53.3125 209.804688 53.25 C 209.992188 53.1875 210.148438 53.15625 210.335938 53.15625 L 210.398438 52.96875 L 207.023438 52.96875 L 206.960938 53.15625 C 207.460938 53.15625 207.835938 53.53125 207.835938 53.78125 C 207.835938 53.9375 207.742188 54.15625 207.554688 54.4375 C 207.367188 54.71875 206.960938 55.1875 206.554688 55.65625 L 205.398438 56.96875 L 204.710938 55.46875 C 204.429688 54.84375 204.179688 54.3125 204.179688 54.03125 C 204.179688 53.59375 204.648438 53.15625 205.273438 53.15625 L 205.304688 52.96875 L 201.242188 52.96875 L 201.179688 53.15625 C 201.398438 53.15625 201.585938 53.1875 201.742188 53.21875 C 202.148438 53.34375 202.304688 53.71875 202.523438 54.09375 C 202.648438 54.28125 202.773438 54.5 202.929688 54.78125 L 204.429688 58.09375 L 201.273438 61.65625 C 201.054688 61.90625 200.867188 62.09375 200.710938 62.25 C 200.492188 62.5 200.210938 62.6875 199.835938 62.78125 C 199.679688 62.8125 199.492188 62.84375 199.242188 62.84375 L 199.179688 63.0625 L 202.960938 63.0625 L 203.023438 62.84375 C 202.679688 62.84375 202.429688 62.8125 202.242188 62.75 C 201.960938 62.6875 201.742188 62.40625 201.742188 62.09375 C 201.742188 61.875 201.898438 61.65625 202.148438 61.34375 C 202.429688 61 202.960938 60.375 203.460938 59.8125 L 204.617188 58.53125 L 205.679688 61.09375 C 205.742188 61.25 205.804688 61.40625 205.867188 61.59375 C 205.898438 61.75 205.929688 61.875 205.929688 62 C 205.929688 62.4375 205.492188 62.84375 204.773438 62.84375 L 204.710938 63.0625 L 209.023438 63.0625 L 209.085938 62.84375 C 208.867188 62.84375 208.648438 62.84375 208.460938 62.78125 C 208.023438 62.625 207.804688 62.1875 207.554688 61.8125 C 207.429688 61.59375 207.273438 61.3125 207.148438 61 Z M 207.148438 61 "/>
<path fill-rule="nonzero" fill="rgb(0%, 0%, 0%)" fill-opacity="1" d="M 213.636719 58.519531 C 213.636719 58.238281 213.417969 57.957031 213.074219 57.957031 C 212.792969 57.957031 212.511719 58.207031 212.511719 58.519531 C 212.511719 58.832031 212.792969 59.082031 213.074219 59.082031 C 213.355469 59.082031 213.636719 58.800781 213.636719 58.519531 Z M 209.292969 66.925781 C 209.292969 67.332031 209.699219 67.613281 210.136719 67.613281 C 210.636719 67.613281 211.042969 67.269531 211.324219 66.988281 C 211.636719 66.613281 211.917969 66.144531 212.042969 65.613281 L 212.792969 62.925781 C 212.917969 62.488281 213.011719 62.113281 213.074219 61.800781 C 213.167969 61.488281 213.230469 61.207031 213.230469 61.019531 C 213.230469 60.738281 213.105469 60.519531 212.792969 60.519531 C 212.167969 60.519531 211.355469 61.363281 211.105469 61.863281 L 211.292969 62.019531 C 211.449219 61.800781 211.824219 61.175781 212.167969 61.175781 C 212.261719 61.175781 212.355469 61.332031 212.355469 61.457031 C 212.355469 61.800781 212.261719 62.019531 212.199219 62.363281 L 211.105469 66.300781 C 211.011719 66.613281 210.792969 67.300781 210.449219 67.300781 C 210.386719 67.300781 210.324219 67.238281 210.261719 67.175781 C 210.105469 66.988281 210.230469 66.394531 209.730469 66.394531 C 209.417969 66.394531 209.292969 66.644531 209.292969 66.925781 Z M 209.292969 66.925781 "/>
<path fill="none" stroke-width="0.5579" stroke-linecap="butt" stroke-linejoin="miter" stroke="rgb(0%, 0%, 0%)" stroke-opacity="1" stroke-miterlimit="10" d="M -11.756062 -17.580406 L 11.197063 -17.580406 " transform="matrix(2, 0, 0, -2, 109.433998, 59.222)"/>
<path fill="none" stroke-width="0.5579" stroke-linecap="round" stroke-linejoin="round" stroke="rgb(0%, 0%, 0%)" stroke-opacity="1" stroke-miterlimit="10" d="M -2.901108 3.349239 C -2.369858 1.337521 -1.19017 0.392208 0.00123596 0.0015831 C -1.19017 -0.389042 -2.369858 -1.338261 -2.901108 -3.346073 " transform="matrix(2, 0, 0, -2, 132.388153, 94.385979)"/>
<path fill-rule="nonzero" fill="rgb(0%, 0%, 0%)" fill-opacity="1" d="M 91.746094 99.121094 C 89.652344 100.464844 88.152344 102.839844 88.152344 105.777344 C 88.152344 108.496094 89.714844 111.214844 91.714844 112.464844 L 91.871094 112.214844 C 89.964844 110.714844 89.402344 108.964844 89.402344 105.746094 C 89.402344 102.527344 89.996094 100.839844 91.871094 99.339844 Z M 91.746094 99.121094 "/>
<path fill-rule="nonzero" fill="rgb(0%, 0%, 0%)" fill-opacity="1" d="M 97.597656 106.902344 L 97.597656 105.902344 L 93.316406 105.902344 L 93.316406 106.902344 Z M 97.597656 106.902344 "/>
<path fill-rule="nonzero" fill="rgb(0%, 0%, 0%)" fill-opacity="1" d="M 99.925781 99.121094 L 99.769531 99.339844 C 101.644531 100.839844 102.269531 102.527344 102.269531 105.746094 C 102.269531 108.964844 101.707031 110.714844 99.769531 112.214844 L 99.957031 112.464844 C 101.957031 111.214844 103.519531 108.496094 103.519531 105.777344 C 103.519531 102.839844 102.019531 100.464844 99.925781 99.121094 Z M 99.925781 99.121094 "/>
<path fill-rule="nonzero" fill="rgb(0%, 0%, 0%)" fill-opacity="1" d="M 108.980469 105.371094 L 105.792969 105.371094 L 105.792969 106.339844 L 108.980469 106.339844 L 108.980469 109.527344 L 109.917969 109.527344 L 109.917969 106.339844 L 113.105469 106.339844 L 113.105469 105.371094 L 109.917969 105.371094 L 109.917969 102.183594 L 108.980469 102.183594 Z M 108.980469 105.371094 "/>
<path fill-rule="nonzero" fill="rgb(0%, 0%, 0%)" fill-opacity="1" d="M 122.261719 105.308594 C 122.261719 104.683594 121.886719 103.121094 120.011719 103.121094 C 117.980469 103.121094 116.542969 104.558594 115.980469 106.933594 L 115.386719 109.527344 C 115.261719 109.996094 114.917969 111.371094 114.324219 112.527344 L 115.792969 112.527344 L 116.699219 109.152344 L 116.730469 109.152344 C 116.730469 109.152344 117.074219 109.683594 118.199219 109.683594 C 120.449219 109.683594 122.261719 107.464844 122.261719 105.308594 Z M 121.136719 105.339844 C 121.136719 106.402344 120.542969 109.308594 118.542969 109.308594 C 117.261719 109.308594 117.167969 107.839844 117.167969 107.527344 C 117.167969 106.402344 117.730469 103.464844 119.792969 103.464844 C 121.011719 103.464844 121.136719 104.746094 121.136719 105.339844 Z M 121.136719 105.339844 "/>
<path fill-rule="nonzero" fill="rgb(0%, 0%, 0%)" fill-opacity="1" d="M 127.210938 104.984375 C 127.210938 104.703125 126.992188 104.421875 126.648438 104.421875 C 126.367188 104.421875 126.085938 104.671875 126.085938 104.984375 C 126.085938 105.296875 126.367188 105.546875 126.648438 105.546875 C 126.929688 105.546875 127.210938 105.265625 127.210938 104.984375 Z M 122.867188 113.390625 C 122.867188 113.796875 123.273438 114.078125 123.710938 114.078125 C 124.210938 114.078125 124.617188 113.734375 124.898438 113.453125 C 125.210938 113.078125 125.492188 112.609375 125.617188 112.078125 L 126.367188 109.390625 C 126.492188 108.953125 126.585938 108.578125 126.648438 108.265625 C 126.742188 107.953125 126.804688 107.671875 126.804688 107.484375 C 126.804688 107.203125 126.679688 106.984375 126.367188 106.984375 C 125.742188 106.984375 124.929688 107.828125 124.679688 108.328125 L 124.867188 108.484375 C 125.023438 108.265625 125.398438 107.640625 125.742188 107.640625 C 125.835938 107.640625 125.929688 107.796875 125.929688 107.921875 C 125.929688 108.265625 125.835938 108.484375 125.773438 108.828125 L 124.679688 112.765625 C 124.585938 113.078125 124.367188 113.765625 124.023438 113.765625 C 123.960938 113.765625 123.898438 113.703125 123.835938 113.640625 C 123.679688 113.453125 123.804688 112.859375 123.304688 112.859375 C 122.992188 112.859375 122.867188 113.109375 122.867188 113.390625 Z M 122.867188 113.390625 "/>
<path fill-rule="nonzero" fill="rgb(0%, 0%, 0%)" fill-opacity="1" d="M 128.722656 111.859375 C 129.691406 111.828125 130.191406 110.984375 130.472656 110.390625 L 130.285156 110.296875 C 130.128906 110.546875 129.722656 111.359375 129.253906 111.359375 C 129.160156 111.359375 129.035156 111.203125 129.035156 111.078125 C 129.035156 110.859375 129.160156 110.453125 129.222656 110.265625 L 129.972656 108.203125 C 130.066406 107.890625 130.097656 107.765625 130.097656 107.578125 C 130.097656 107.234375 130.097656 106.984375 129.753906 106.984375 C 129.035156 106.984375 128.222656 107.796875 127.972656 108.328125 L 128.191406 108.453125 C 128.347656 108.234375 128.753906 107.640625 129.003906 107.640625 C 129.191406 107.640625 129.222656 107.765625 129.222656 107.859375 C 129.253906 108.046875 129.160156 108.359375 129.066406 108.546875 L 128.347656 110.609375 C 128.253906 110.890625 128.191406 111.140625 128.191406 111.265625 C 128.191406 111.640625 128.347656 111.859375 128.722656 111.859375 Z M 130.785156 104.984375 C 130.785156 104.703125 130.535156 104.421875 130.222656 104.421875 C 129.910156 104.421875 129.660156 104.671875 129.660156 104.984375 C 129.660156 105.296875 129.941406 105.546875 130.222656 105.546875 C 130.503906 105.546875 130.785156 105.265625 130.785156 104.984375 Z M 130.785156 104.984375 "/>
</svg>
