<?xml version="1.0" encoding="UTF-8"?>
<svg xmlns="http://www.w3.org/2000/svg" xmlns:xlink="http://www.w3.org/1999/xlink" width="351.059998" height="174.160004" viewBox="0 0 351.059998 174.160004">
<defs>
<clipPath id="clip-0">
<path clip-rule="nonzero" d="M 49 48 L 193 48 L 193 174.15625 L 49 174.15625 Z M 49 48 "/>
</clipPath>
</defs>
<path fill-rule="nonzero" fill="rgb(0%, 0%, 0%)" fill-opacity="1" d="M 170.953125 11.972656 L 171.390625 11.316406 L 168.796875 21.222656 C 168.671875 21.691406 168.578125 22.035156 168.421875 22.316406 C 168.265625 22.785156 167.859375 23.285156 167.421875 23.472656 C 167.203125 23.566406 166.890625 23.628906 166.578125 23.628906 L 166.484375 23.910156 L 172.234375 23.910156 L 172.328125 23.628906 C 171.703125 23.628906 171.203125 23.566406 170.953125 23.378906 C 170.671875 23.160156 170.609375 22.722656 170.609375 22.316406 C 170.609375 22.003906 170.671875 21.566406 170.828125 21.035156 L 172.796875 13.566406 C 172.953125 12.941406 173.078125 12.441406 173.203125 12.066406 C 173.421875 11.472656 173.859375 10.816406 174.296875 10.503906 C 174.515625 10.378906 174.796875 10.347656 175.140625 10.347656 L 175.234375 10.066406 L 171.640625 10.066406 L 164.953125 20.785156 L 164.671875 20.785156 L 163.390625 10.066406 L 159.109375 10.066406 L 159.015625 10.347656 C 159.640625 10.347656 160.046875 10.347656 160.265625 10.472656 C 160.546875 10.597656 160.890625 11.097656 160.890625 11.472656 C 160.890625 11.785156 160.828125 12.285156 160.640625 12.941406 L 158.453125 21.222656 C 158.296875 21.847656 157.796875 22.535156 157.328125 22.941406 C 156.890625 23.347656 156.203125 23.628906 155.640625 23.628906 L 155.578125 23.910156 L 160.546875 23.910156 L 160.640625 23.628906 C 160.171875 23.597656 159.640625 23.503906 159.421875 23.191406 C 159.203125 22.878906 158.890625 22.347656 158.890625 21.847656 C 158.890625 21.566406 158.890625 21.285156 158.953125 21.035156 L 161.359375 11.972656 L 161.484375 11.535156 L 162.953125 23.910156 L 163.546875 23.910156 Z M 170.953125 11.972656 "/>
<path fill-rule="nonzero" fill="rgb(0%, 0%, 0%)" fill-opacity="1" d="M 181.523438 24.246094 L 181.023438 24.246094 C 180.992188 24.589844 180.835938 25.433594 180.648438 25.589844 C 180.523438 25.652344 179.398438 25.652344 179.210938 25.652344 L 176.523438 25.652344 C 178.054688 24.308594 178.554688 23.902344 179.429688 23.214844 C 180.523438 22.371094 181.523438 21.464844 181.523438 20.089844 C 181.523438 18.339844 179.992188 17.246094 178.117188 17.246094 C 176.304688 17.246094 175.085938 18.527344 175.085938 19.839844 C 175.085938 20.589844 175.710938 20.683594 175.867188 20.683594 C 176.210938 20.683594 176.648438 20.433594 176.648438 19.902344 C 176.648438 19.652344 176.523438 19.121094 175.773438 19.121094 C 176.242188 18.089844 177.210938 17.777344 177.898438 17.777344 C 179.367188 17.777344 180.117188 18.902344 180.117188 20.089844 C 180.117188 21.339844 179.210938 22.339844 178.742188 22.871094 L 175.242188 26.339844 C 175.085938 26.464844 175.085938 26.496094 175.085938 26.902344 L 181.085938 26.902344 Z M 181.523438 24.246094 "/>
<path fill-rule="nonzero" fill="rgb(0%, 0%, 0%)" fill-opacity="1" d="M 199.449219 23.222656 L 195.011719 18.785156 L 199.449219 14.347656 L 198.667969 13.535156 L 194.230469 18.003906 L 189.792969 13.535156 L 189.011719 14.347656 L 193.417969 18.785156 L 189.011719 23.222656 L 189.792969 24.003906 L 194.230469 19.566406 L 198.667969 24.003906 Z M 199.449219 23.222656 "/>
<path fill-rule="nonzero" fill="rgb(0%, 0%, 0%)" fill-opacity="1" d="M 215.214844 15.316406 C 215.214844 12.441406 214.339844 10.128906 212.183594 10.128906 C 210.496094 10.128906 208.683594 11.722656 208.683594 12.597656 C 208.683594 13.253906 209.214844 13.535156 209.621094 13.535156 C 210.027344 13.535156 210.277344 13.191406 210.339844 13.128906 C 210.277344 13.097656 210.152344 12.910156 210.152344 12.628906 C 210.152344 12.441406 210.496094 10.722656 212.214844 10.722656 C 213.652344 10.722656 213.964844 12.566406 213.964844 14.191406 C 213.964844 15.410156 213.808594 16.472656 213.808594 16.503906 L 213.777344 16.503906 C 213.777344 16.472656 212.996094 15.253906 211.433594 15.253906 C 207.433594 15.253906 205.777344 19.128906 205.777344 21.191406 C 205.777344 23.035156 206.871094 24.222656 209.089844 24.222656 C 212.527344 24.222656 215.214844 20.753906 215.214844 15.316406 Z M 212.933594 17.566406 C 212.933594 18.097656 212.433594 23.753906 209.214844 23.753906 C 208.089844 23.753906 207.589844 23.097656 207.589844 21.847656 C 207.589844 20.566406 208.402344 15.722656 211.277344 15.722656 C 212.402344 15.722656 212.933594 16.378906 212.933594 17.566406 Z M 212.933594 17.566406 "/>
<path fill-rule="nonzero" fill="rgb(0%, 0%, 0%)" fill-opacity="1" d="M 228.738281 23.910156 L 223.175781 10.441406 L 222.832031 10.441406 L 216.894531 23.910156 Z M 226.425781 23.066406 L 218.207031 23.066406 L 222.488281 13.410156 Z M 226.425781 23.066406 "/>
<path fill-rule="nonzero" fill="rgb(0%, 0%, 0%)" fill-opacity="1" d="M 236.578125 14.023438 L 236.078125 14.023438 C 236.046875 14.367188 235.890625 15.210938 235.703125 15.367188 C 235.578125 15.429688 234.453125 15.429688 234.265625 15.429688 L 231.578125 15.429688 C 233.109375 14.085938 233.609375 13.679688 234.484375 12.992188 C 235.578125 12.148438 236.578125 11.242188 236.578125 9.867188 C 236.578125 8.117188 235.046875 7.023438 233.171875 7.023438 C 231.359375 7.023438 230.140625 8.304688 230.140625 9.617188 C 230.140625 10.367188 230.765625 10.460938 230.921875 10.460938 C 231.265625 10.460938 231.703125 10.210938 231.703125 9.679688 C 231.703125 9.429688 231.578125 8.898438 230.828125 8.898438 C 231.296875 7.867188 232.265625 7.554688 232.953125 7.554688 C 234.421875 7.554688 235.171875 8.679688 235.171875 9.867188 C 235.171875 11.117188 234.265625 12.117188 233.796875 12.648438 L 230.296875 16.117188 C 230.140625 16.242188 230.140625 16.273438 230.140625 16.679688 L 236.140625 16.679688 Z M 236.578125 14.023438 "/>
<path fill-rule="nonzero" fill="rgb(0%, 0%, 0%)" fill-opacity="1" d="M 318.417969 11.972656 L 318.855469 11.316406 L 316.261719 21.222656 C 316.136719 21.691406 316.042969 22.035156 315.886719 22.316406 C 315.730469 22.785156 315.324219 23.285156 314.886719 23.472656 C 314.667969 23.566406 314.355469 23.628906 314.042969 23.628906 L 313.949219 23.910156 L 319.699219 23.910156 L 319.792969 23.628906 C 319.167969 23.628906 318.667969 23.566406 318.417969 23.378906 C 318.136719 23.160156 318.074219 22.722656 318.074219 22.316406 C 318.074219 22.003906 318.136719 21.566406 318.292969 21.035156 L 320.261719 13.566406 C 320.417969 12.941406 320.542969 12.441406 320.667969 12.066406 C 320.886719 11.472656 321.324219 10.816406 321.761719 10.503906 C 321.980469 10.378906 322.261719 10.347656 322.605469 10.347656 L 322.699219 10.066406 L 319.105469 10.066406 L 312.417969 20.785156 L 312.136719 20.785156 L 310.855469 10.066406 L 306.574219 10.066406 L 306.480469 10.347656 C 307.105469 10.347656 307.511719 10.347656 307.730469 10.472656 C 308.011719 10.597656 308.355469 11.097656 308.355469 11.472656 C 308.355469 11.785156 308.292969 12.285156 308.105469 12.941406 L 305.917969 21.222656 C 305.761719 21.847656 305.261719 22.535156 304.792969 22.941406 C 304.355469 23.347656 303.667969 23.628906 303.105469 23.628906 L 303.042969 23.910156 L 308.011719 23.910156 L 308.105469 23.628906 C 307.636719 23.597656 307.105469 23.503906 306.886719 23.191406 C 306.667969 22.878906 306.355469 22.347656 306.355469 21.847656 C 306.355469 21.566406 306.355469 21.285156 306.417969 21.035156 L 308.824219 11.972656 L 308.949219 11.535156 L 310.417969 23.910156 L 311.011719 23.910156 Z M 318.417969 11.972656 "/>
<path fill-rule="nonzero" fill="rgb(0%, 0%, 0%)" fill-opacity="1" d="M 328.984375 24.246094 L 328.484375 24.246094 C 328.453125 24.589844 328.296875 25.433594 328.109375 25.589844 C 327.984375 25.652344 326.859375 25.652344 326.671875 25.652344 L 323.984375 25.652344 C 325.515625 24.308594 326.015625 23.902344 326.890625 23.214844 C 327.984375 22.371094 328.984375 21.464844 328.984375 20.089844 C 328.984375 18.339844 327.453125 17.246094 325.578125 17.246094 C 323.765625 17.246094 322.546875 18.527344 322.546875 19.839844 C 322.546875 20.589844 323.171875 20.683594 323.328125 20.683594 C 323.671875 20.683594 324.109375 20.433594 324.109375 19.902344 C 324.109375 19.652344 323.984375 19.121094 323.234375 19.121094 C 323.703125 18.089844 324.671875 17.777344 325.359375 17.777344 C 326.828125 17.777344 327.578125 18.902344 327.578125 20.089844 C 327.578125 21.339844 326.671875 22.339844 326.203125 22.871094 L 322.703125 26.339844 C 322.546875 26.464844 322.546875 26.496094 322.546875 26.902344 L 328.546875 26.902344 Z M 328.984375 24.246094 "/>
<path fill-rule="nonzero" fill="rgb(0%, 0%, 0%)" fill-opacity="1" d="M 52.515625 90.4375 L 52.515625 77.25 L 49.609375 77.25 L 45.421875 88.90625 L 45.359375 88.90625 L 41.359375 77.25 L 38.265625 77.25 L 38.265625 90.4375 L 39.140625 90.4375 L 39.140625 81.09375 L 39.171875 81.09375 L 42.421875 90.4375 L 45.796875 90.4375 L 49.171875 81.03125 L 49.203125 81.03125 L 49.203125 90.4375 Z M 51.640625 89.5625 L 50.078125 89.5625 L 50.078125 78.125 L 51.640625 78.125 Z M 44.703125 89.5625 L 43.046875 89.5625 L 39.484375 79.34375 L 39.078125 78.125 L 40.671875 78.125 Z M 44.703125 89.5625 "/>
<path fill-rule="nonzero" fill="rgb(0%, 0%, 0%)" fill-opacity="1" d="M 60.996094 88.800781 C 60.996094 87.207031 60.808594 86.050781 60.152344 85.019531 C 59.683594 84.363281 58.777344 83.769531 57.621094 83.769531 C 54.246094 83.769531 54.246094 87.738281 54.246094 88.800781 C 54.246094 89.832031 54.246094 93.707031 57.621094 93.707031 C 60.996094 93.707031 60.996094 89.832031 60.996094 88.800781 Z M 59.683594 88.613281 C 59.683594 89.675781 59.683594 90.738281 59.496094 91.675781 C 59.183594 92.988281 58.214844 93.300781 57.621094 93.300781 C 56.964844 93.300781 56.058594 92.925781 55.777344 91.738281 C 55.558594 90.863281 55.558594 89.675781 55.558594 88.613281 C 55.558594 87.550781 55.558594 86.425781 55.777344 85.644531 C 56.089844 84.488281 57.027344 84.175781 57.621094 84.175781 C 58.402344 84.175781 59.152344 84.675781 59.433594 85.519531 C 59.652344 86.300781 59.683594 87.332031 59.683594 88.613281 Z M 59.683594 88.613281 "/>
<path fill-rule="nonzero" fill="rgb(0%, 0%, 0%)" fill-opacity="1" d="M 199.980469 90.4375 L 199.980469 77.25 L 197.074219 77.25 L 192.886719 88.90625 L 192.824219 88.90625 L 188.824219 77.25 L 185.730469 77.25 L 185.730469 90.4375 L 186.605469 90.4375 L 186.605469 81.09375 L 186.636719 81.09375 L 189.886719 90.4375 L 193.261719 90.4375 L 196.636719 81.03125 L 196.667969 81.03125 L 196.667969 90.4375 Z M 199.105469 89.5625 L 197.542969 89.5625 L 197.542969 78.125 L 199.105469 78.125 Z M 192.167969 89.5625 L 190.511719 89.5625 L 186.949219 79.34375 L 186.542969 78.125 L 188.136719 78.125 Z M 192.167969 89.5625 "/>
<path fill-rule="nonzero" fill="rgb(0%, 0%, 0%)" fill-opacity="1" d="M 207.835938 93.425781 L 207.835938 92.894531 L 207.273438 92.894531 C 205.835938 92.894531 205.835938 92.707031 205.835938 92.238281 L 205.835938 84.175781 C 205.835938 83.800781 205.804688 83.769531 205.398438 83.769531 C 204.460938 84.707031 203.148438 84.707031 202.554688 84.707031 L 202.554688 85.238281 C 202.898438 85.238281 203.867188 85.238281 204.648438 84.832031 L 204.648438 92.238281 C 204.648438 92.707031 204.648438 92.894531 203.210938 92.894531 L 202.648438 92.894531 L 202.648438 93.425781 L 205.242188 93.363281 Z M 207.835938 93.425781 "/>
<path fill-rule="nonzero" fill="rgb(0%, 0%, 0%)" fill-opacity="1" d="M 319.914062 90.4375 L 319.914062 77.25 L 317.007812 77.25 L 312.820312 88.90625 L 312.757812 88.90625 L 308.757812 77.25 L 305.664062 77.25 L 305.664062 90.4375 L 306.539062 90.4375 L 306.539062 81.09375 L 306.570312 81.09375 L 309.820312 90.4375 L 313.195312 90.4375 L 316.570312 81.03125 L 316.601562 81.03125 L 316.601562 90.4375 Z M 319.039062 89.5625 L 317.476562 89.5625 L 317.476562 78.125 L 319.039062 78.125 Z M 312.101562 89.5625 L 310.445312 89.5625 L 306.882812 79.34375 L 306.476562 78.125 L 308.070312 78.125 Z M 312.101562 89.5625 "/>
<path fill-rule="nonzero" fill="rgb(0%, 0%, 0%)" fill-opacity="1" d="M 328.238281 90.769531 L 327.738281 90.769531 C 327.707031 91.113281 327.550781 91.957031 327.363281 92.113281 C 327.238281 92.175781 326.113281 92.175781 325.925781 92.175781 L 323.238281 92.175781 C 324.769531 90.832031 325.269531 90.425781 326.144531 89.738281 C 327.238281 88.894531 328.238281 87.988281 328.238281 86.613281 C 328.238281 84.863281 326.707031 83.769531 324.832031 83.769531 C 323.019531 83.769531 321.800781 85.050781 321.800781 86.363281 C 321.800781 87.113281 322.425781 87.207031 322.582031 87.207031 C 322.925781 87.207031 323.363281 86.957031 323.363281 86.425781 C 323.363281 86.175781 323.238281 85.644531 322.488281 85.644531 C 322.957031 84.613281 323.925781 84.300781 324.613281 84.300781 C 326.082031 84.300781 326.832031 85.425781 326.832031 86.613281 C 326.832031 87.863281 325.925781 88.863281 325.457031 89.394531 L 321.957031 92.863281 C 321.800781 92.988281 321.800781 93.019531 321.800781 93.425781 L 327.800781 93.425781 Z M 328.238281 90.769531 "/>
<path fill-rule="nonzero" fill="rgb(0%, 0%, 0%)" fill-opacity="1" d="M 23.492188 148.558594 L 23.929688 147.902344 L 21.335938 157.808594 C 21.210938 158.277344 21.117188 158.621094 20.960938 158.902344 C 20.804688 159.371094 20.398438 159.871094 19.960938 160.058594 C 19.742188 160.152344 19.429688 160.214844 19.117188 160.214844 L 19.023438 160.496094 L 24.773438 160.496094 L 24.867188 160.214844 C 24.242188 160.214844 23.742188 160.152344 23.492188 159.964844 C 23.210938 159.746094 23.148438 159.308594 23.148438 158.902344 C 23.148438 158.589844 23.210938 158.152344 23.367188 157.621094 L 25.335938 150.152344 C 25.492188 149.527344 25.617188 149.027344 25.742188 148.652344 C 25.960938 148.058594 26.398438 147.402344 26.835938 147.089844 C 27.054688 146.964844 27.335938 146.933594 27.679688 146.933594 L 27.773438 146.652344 L 24.179688 146.652344 L 17.492188 157.371094 L 17.210938 157.371094 L 15.929688 146.652344 L 11.648438 146.652344 L 11.554688 146.933594 C 12.179688 146.933594 12.585938 146.933594 12.804688 147.058594 C 13.085938 147.183594 13.429688 147.683594 13.429688 148.058594 C 13.429688 148.371094 13.367188 148.871094 13.179688 149.527344 L 10.992188 157.808594 C 10.835938 158.433594 10.335938 159.121094 9.867188 159.527344 C 9.429688 159.933594 8.742188 160.214844 8.179688 160.214844 L 8.117188 160.496094 L 13.085938 160.496094 L 13.179688 160.214844 C 12.710938 160.183594 12.179688 160.089844 11.960938 159.777344 C 11.742188 159.464844 11.429688 158.933594 11.429688 158.433594 C 11.429688 158.152344 11.429688 157.871094 11.492188 157.621094 L 13.898438 148.558594 L 14.023438 148.121094 L 15.492188 160.496094 L 16.085938 160.496094 Z M 23.492188 148.558594 "/>
<path fill-rule="nonzero" fill="rgb(0%, 0%, 0%)" fill-opacity="1" d="M 33.589844 163.484375 L 33.589844 162.953125 L 33.027344 162.953125 C 31.589844 162.953125 31.589844 162.765625 31.589844 162.296875 L 31.589844 154.234375 C 31.589844 153.859375 31.558594 153.828125 31.152344 153.828125 C 30.214844 154.765625 28.902344 154.765625 28.308594 154.765625 L 28.308594 155.296875 C 28.652344 155.296875 29.621094 155.296875 30.402344 154.890625 L 30.402344 162.296875 C 30.402344 162.765625 30.402344 162.953125 28.964844 162.953125 L 28.402344 162.953125 L 28.402344 163.484375 L 30.996094 163.421875 Z M 33.589844 163.484375 "/>
<path fill-rule="nonzero" fill="rgb(0%, 0%, 0%)" fill-opacity="1" d="M 51.988281 159.808594 L 47.550781 155.371094 L 51.988281 150.933594 L 51.207031 150.121094 L 46.769531 154.589844 L 42.332031 150.121094 L 41.550781 150.933594 L 45.957031 155.371094 L 41.550781 159.808594 L 42.332031 160.589844 L 46.769531 156.152344 L 51.207031 160.589844 Z M 51.988281 159.808594 "/>
<path fill-rule="nonzero" fill="rgb(0%, 0%, 0%)" fill-opacity="1" d="M 67.753906 151.902344 C 67.753906 149.027344 66.878906 146.714844 64.722656 146.714844 C 63.035156 146.714844 61.222656 148.308594 61.222656 149.183594 C 61.222656 149.839844 61.753906 150.121094 62.160156 150.121094 C 62.566406 150.121094 62.816406 149.777344 62.878906 149.714844 C 62.816406 149.683594 62.691406 149.496094 62.691406 149.214844 C 62.691406 149.027344 63.035156 147.308594 64.753906 147.308594 C 66.191406 147.308594 66.503906 149.152344 66.503906 150.777344 C 66.503906 151.996094 66.347656 153.058594 66.347656 153.089844 L 66.316406 153.089844 C 66.316406 153.058594 65.535156 151.839844 63.972656 151.839844 C 59.972656 151.839844 58.316406 155.714844 58.316406 157.777344 C 58.316406 159.621094 59.410156 160.808594 61.628906 160.808594 C 65.066406 160.808594 67.753906 157.339844 67.753906 151.902344 Z M 65.472656 154.152344 C 65.472656 154.683594 64.972656 160.339844 61.753906 160.339844 C 60.628906 160.339844 60.128906 159.683594 60.128906 158.433594 C 60.128906 157.152344 60.941406 152.308594 63.816406 152.308594 C 64.941406 152.308594 65.472656 152.964844 65.472656 154.152344 Z M 65.472656 154.152344 "/>
<path fill-rule="nonzero" fill="rgb(0%, 0%, 0%)" fill-opacity="1" d="M 81.273438 160.496094 L 75.710938 147.027344 L 75.367188 147.027344 L 69.429688 160.496094 Z M 78.960938 159.652344 L 70.742188 159.652344 L 75.023438 149.996094 Z M 78.960938 159.652344 "/>
<path fill-rule="nonzero" fill="rgb(0%, 0%, 0%)" fill-opacity="1" d="M 88.648438 153.265625 L 88.648438 152.734375 L 88.085938 152.734375 C 86.648438 152.734375 86.648438 152.546875 86.648438 152.078125 L 86.648438 144.015625 C 86.648438 143.640625 86.617188 143.609375 86.210938 143.609375 C 85.273438 144.546875 83.960938 144.546875 83.367188 144.546875 L 83.367188 145.078125 C 83.710938 145.078125 84.679688 145.078125 85.460938 144.671875 L 85.460938 152.078125 C 85.460938 152.546875 85.460938 152.734375 84.023438 152.734375 L 83.460938 152.734375 L 83.460938 153.265625 L 86.054688 153.203125 Z M 88.648438 153.265625 "/>
<path fill-rule="nonzero" fill="rgb(0%, 0%, 0%)" fill-opacity="1" d="M 198.480469 148.558594 L 198.917969 147.902344 L 196.324219 157.808594 C 196.199219 158.277344 196.105469 158.621094 195.949219 158.902344 C 195.792969 159.371094 195.386719 159.871094 194.949219 160.058594 C 194.730469 160.152344 194.417969 160.214844 194.105469 160.214844 L 194.011719 160.496094 L 199.761719 160.496094 L 199.855469 160.214844 C 199.230469 160.214844 198.730469 160.152344 198.480469 159.964844 C 198.199219 159.746094 198.136719 159.308594 198.136719 158.902344 C 198.136719 158.589844 198.199219 158.152344 198.355469 157.621094 L 200.324219 150.152344 C 200.480469 149.527344 200.605469 149.027344 200.730469 148.652344 C 200.949219 148.058594 201.386719 147.402344 201.824219 147.089844 C 202.042969 146.964844 202.324219 146.933594 202.667969 146.933594 L 202.761719 146.652344 L 199.167969 146.652344 L 192.480469 157.371094 L 192.199219 157.371094 L 190.917969 146.652344 L 186.636719 146.652344 L 186.542969 146.933594 C 187.167969 146.933594 187.574219 146.933594 187.792969 147.058594 C 188.074219 147.183594 188.417969 147.683594 188.417969 148.058594 C 188.417969 148.371094 188.355469 148.871094 188.167969 149.527344 L 185.980469 157.808594 C 185.824219 158.433594 185.324219 159.121094 184.855469 159.527344 C 184.417969 159.933594 183.730469 160.214844 183.167969 160.214844 L 183.105469 160.496094 L 188.074219 160.496094 L 188.167969 160.214844 C 187.699219 160.183594 187.167969 160.089844 186.949219 159.777344 C 186.730469 159.464844 186.417969 158.933594 186.417969 158.433594 C 186.417969 158.152344 186.417969 157.871094 186.480469 157.621094 L 188.886719 148.558594 L 189.011719 148.121094 L 190.480469 160.496094 L 191.074219 160.496094 Z M 198.480469 148.558594 "/>
<path fill-rule="nonzero" fill="rgb(0%, 0%, 0%)" fill-opacity="1" d="M 208.582031 163.484375 L 208.582031 162.953125 L 208.019531 162.953125 C 206.582031 162.953125 206.582031 162.765625 206.582031 162.296875 L 206.582031 154.234375 C 206.582031 153.859375 206.550781 153.828125 206.144531 153.828125 C 205.207031 154.765625 203.894531 154.765625 203.300781 154.765625 L 203.300781 155.296875 C 203.644531 155.296875 204.613281 155.296875 205.394531 154.890625 L 205.394531 162.296875 C 205.394531 162.765625 205.394531 162.953125 203.957031 162.953125 L 203.394531 162.953125 L 203.394531 163.484375 L 205.988281 163.421875 Z M 208.582031 163.484375 "/>
<path fill="none" stroke-width="0.5579" stroke-linecap="butt" stroke-linejoin="miter" stroke="rgb(0%, 0%, 0%)" stroke-opacity="1" stroke-miterlimit="10" d="M 38.875908 33.303471 L 61.829033 33.303471 " transform="matrix(2, 0, 0, -2, 169.755997, 85.396004)"/>
<path fill="none" stroke-width="0.5579" stroke-linecap="round" stroke-linejoin="round" stroke="rgb(0%, 0%, 0%)" stroke-opacity="1" stroke-miterlimit="10" d="M -2.899414 3.348575 C -2.37207 1.340762 -1.188477 0.391543 -0.000976562 0.000918388 C -1.188477 -0.389707 -2.37207 -1.338925 -2.899414 -3.346738 " transform="matrix(2, 0, 0, -2, 293.970703, 18.790899)"/>
<path fill-rule="nonzero" fill="rgb(0%, 0%, 0%)" fill-opacity="1" d="M 267.835938 7.4375 C 267.835938 5.625 266.335938 4.15625 264.492188 4.15625 C 263.679688 4.15625 262.835938 4.46875 262.242188 5.03125 L 262.242188 4.15625 L 260.054688 4.3125 L 260.054688 4.84375 C 261.054688 4.84375 261.148438 4.90625 261.148438 5.53125 L 261.148438 12.21875 C 261.148438 12.84375 260.992188 12.84375 260.054688 12.84375 L 260.054688 13.375 C 260.054688 13.375 261.085938 13.3125 261.710938 13.3125 C 262.242188 13.3125 263.242188 13.375 263.367188 13.375 L 263.367188 12.84375 C 262.429688 12.84375 262.273438 12.84375 262.273438 12.21875 L 262.273438 9.875 C 262.367188 9.9375 263.054688 10.71875 264.273438 10.71875 C 266.179688 10.71875 267.835938 9.28125 267.835938 7.4375 Z M 266.492188 7.4375 C 266.492188 9.09375 265.398438 10.3125 264.179688 10.3125 C 262.898438 10.3125 262.335938 9.1875 262.273438 9.09375 L 262.273438 5.71875 C 262.710938 5 263.554688 4.625 264.335938 4.625 C 265.554688 4.625 266.492188 5.90625 266.492188 7.4375 Z M 266.492188 7.4375 "/>
<path fill-rule="nonzero" fill="rgb(0%, 0%, 0%)" fill-opacity="1" d="M 274.417969 5.09375 C 274.417969 4.59375 273.949219 4.15625 273.292969 4.15625 C 272.542969 4.15625 271.761719 4.59375 271.324219 5.71875 L 271.292969 5.71875 L 271.292969 4.15625 L 269.230469 4.3125 L 269.230469 4.84375 C 270.199219 4.84375 270.324219 4.9375 270.324219 5.65625 L 270.324219 9.40625 C 270.324219 10.03125 270.167969 10.03125 269.230469 10.03125 L 269.230469 10.5625 C 269.292969 10.5625 270.292969 10.5 270.886719 10.5 L 272.761719 10.5625 L 272.761719 10.03125 L 272.480469 10.03125 C 271.417969 10.03125 271.417969 9.875 271.417969 9.375 L 271.417969 7.25 C 271.417969 6.03125 271.980469 4.5625 273.355469 4.5625 C 273.230469 4.65625 273.105469 4.84375 273.105469 5.09375 C 273.105469 5.5625 273.480469 5.75 273.761719 5.75 C 274.105469 5.75 274.417969 5.53125 274.417969 5.09375 Z M 274.417969 5.09375 "/>
<path fill-rule="nonzero" fill="rgb(0%, 0%, 0%)" fill-opacity="1" d="M 280.535156 13.9375 L 280.535156 13.5 L 280.066406 13.5 C 278.941406 13.5 278.941406 13.375 278.941406 13 L 278.941406 6.96875 C 278.941406 6.65625 278.910156 6.65625 278.566406 6.65625 C 277.847656 7.34375 276.722656 7.34375 276.316406 7.34375 L 276.316406 7.78125 C 276.628906 7.78125 277.347656 7.78125 278.003906 7.46875 L 278.003906 13 C 278.003906 13.375 278.003906 13.5 276.878906 13.5 L 276.410156 13.5 L 276.410156 13.9375 C 277.003906 13.90625 277.847656 13.90625 278.472656 13.90625 C 279.097656 13.90625 279.941406 13.90625 280.535156 13.9375 Z M 280.535156 13.9375 "/>
<path fill="none" stroke-width="0.5579" stroke-linecap="butt" stroke-linejoin="miter" stroke="rgb(0%, 0%, 0%)" stroke-opacity="1" stroke-miterlimit="10" d="M 13.762627 25.397221 L 13.762627 8.420658 " transform="matrix(2, 0, 0, -2, 169.755997, 85.396004)"/>
<path fill="none" stroke-width="0.5579" stroke-linecap="round" stroke-linejoin="round" stroke="rgb(0%, 0%, 0%)" stroke-opacity="1" stroke-miterlimit="10" d="M -2.902607 3.346169 C -2.371357 1.338356 -1.191669 0.389137 -0.000263214 -0.00148773 C -1.191669 -0.392113 -2.371357 -1.337425 -2.902607 -3.349144 " transform="matrix(0, 2, 2, 0, 197.284225, 69.109901)"/>
<path fill-rule="nonzero" fill="rgb(0%, 0%, 0%)" fill-opacity="1" d="M 183.992188 55.8125 L 180.617188 46.1875 L 178.179688 46.1875 L 174.679688 55.8125 L 175.335938 55.8125 L 176.460938 52.78125 L 180.367188 52.78125 L 181.492188 55.8125 Z M 183.117188 55.1875 L 181.898438 55.1875 L 178.960938 46.84375 L 180.179688 46.84375 Z M 180.148438 52.125 L 176.710938 52.125 L 178.429688 47.3125 L 178.460938 47.3125 Z M 180.148438 52.125 "/>
<path fill-rule="nonzero" fill="rgb(0%, 0%, 0%)" fill-opacity="1" d="M 190.269531 57.996094 L 190.269531 57.558594 L 189.800781 57.558594 C 188.675781 57.558594 188.675781 57.433594 188.675781 57.058594 L 188.675781 51.027344 C 188.675781 50.714844 188.644531 50.714844 188.300781 50.714844 C 187.582031 51.402344 186.457031 51.402344 186.050781 51.402344 L 186.050781 51.839844 C 186.363281 51.839844 187.082031 51.839844 187.738281 51.527344 L 187.738281 57.058594 C 187.738281 57.433594 187.738281 57.558594 186.613281 57.558594 L 186.144531 57.558594 L 186.144531 57.996094 C 186.738281 57.964844 187.582031 57.964844 188.207031 57.964844 C 188.832031 57.964844 189.675781 57.964844 190.269531 57.996094 Z M 190.269531 57.996094 "/>
<path fill="none" stroke-width="0.5579" stroke-linecap="butt" stroke-linejoin="miter" stroke="rgb(0%, 0%, 0%)" stroke-opacity="1" stroke-miterlimit="10" d="M 73.731377 25.397221 L 73.731377 8.420658 " transform="matrix(2, 0, 0, -2, 169.755997, 85.396004)"/>
<path fill="none" stroke-width="0.5579" stroke-linecap="round" stroke-linejoin="round" stroke="rgb(0%, 0%, 0%)" stroke-opacity="1" stroke-miterlimit="10" d="M -2.902607 3.346725 C -2.371357 1.338913 -1.191669 0.389694 -0.000263214 -0.000930786 C -1.191669 -0.391556 -2.371357 -1.340775 -2.902607 -3.348587 " transform="matrix(0, 2, 2, 0, 317.220612, 69.109901)"/>
<path fill-rule="nonzero" fill="rgb(0%, 0%, 0%)" fill-opacity="1" d="M 328.007812 47.910156 C 328.007812 47.660156 327.820312 47.378906 327.539062 47.378906 C 327.226562 47.378906 326.007812 48.597656 325.601562 48.816406 C 325.601562 48.003906 326.007812 47.191406 326.007812 46.722656 C 326.007812 46.410156 325.820312 46.222656 325.507812 46.222656 C 325.195312 46.222656 325.039062 46.410156 325.039062 46.722656 C 325.039062 47.285156 325.382812 48.035156 325.382812 48.816406 C 324.914062 48.566406 323.789062 47.347656 323.476562 47.347656 C 323.226562 47.347656 322.976562 47.566406 322.976562 47.847656 C 322.976562 48.347656 324.695312 48.691406 325.257812 49.003906 C 324.664062 49.378906 323.507812 49.535156 323.226562 49.722656 C 323.101562 49.847656 322.976562 49.972656 322.976562 50.160156 C 322.976562 50.410156 323.164062 50.660156 323.445312 50.660156 C 323.757812 50.660156 324.945312 49.472656 325.382812 49.222656 C 325.382812 50.035156 324.976562 50.847656 324.976562 51.347656 C 324.976562 51.628906 325.195312 51.847656 325.476562 51.847656 C 325.789062 51.847656 325.945312 51.628906 325.945312 51.347656 C 325.945312 50.753906 325.601562 50.003906 325.601562 49.222656 C 326.070312 49.472656 327.226562 50.691406 327.507812 50.691406 C 327.757812 50.691406 328.007812 50.472656 328.007812 50.191406 C 328.007812 50.003906 327.882812 49.878906 327.726562 49.785156 C 327.351562 49.535156 326.351562 49.378906 325.726562 49.003906 C 326.414062 48.597656 327.320312 48.566406 327.757812 48.316406 C 327.914062 48.222656 328.007812 48.097656 328.007812 47.910156 Z M 328.007812 47.910156 "/>
<path fill-rule="nonzero" fill="rgb(0%, 0%, 0%)" fill-opacity="1" d="M 337.546875 54.9375 L 337.546875 47.6875 L 335.921875 47.6875 L 333.640625 54.09375 L 333.609375 54.09375 L 331.390625 47.6875 L 329.703125 47.6875 L 329.703125 54.9375 L 330.171875 54.9375 L 330.171875 49.78125 L 330.203125 49.78125 L 331.984375 54.9375 L 333.859375 54.9375 L 335.703125 49.75 L 335.703125 54.9375 Z M 337.046875 54.46875 L 336.203125 54.46875 L 336.203125 48.15625 L 337.046875 48.15625 Z M 333.234375 54.46875 L 332.328125 54.46875 L 330.359375 48.8125 L 330.140625 48.15625 L 331.015625 48.15625 Z M 333.234375 54.46875 "/>
<path fill-rule="nonzero" fill="rgb(0%, 0%, 0%)" fill-opacity="1" d="M 343.980469 56.070312 L 343.574219 56.070312 C 343.542969 56.226562 343.449219 56.945312 343.261719 57.070312 C 343.199219 57.132812 342.292969 57.132812 342.167969 57.132812 L 340.105469 57.132812 L 341.511719 56.007812 C 341.886719 55.695312 342.855469 55.007812 343.199219 54.664062 C 343.511719 54.351562 343.980469 53.789062 343.980469 53.007812 C 343.980469 51.632812 342.730469 50.851562 341.261719 50.851562 C 339.855469 50.851562 338.855469 51.757812 338.855469 52.789062 C 338.855469 53.351562 339.324219 53.414062 339.449219 53.414062 C 339.730469 53.414062 340.042969 53.226562 340.042969 52.820312 C 340.042969 52.601562 339.917969 52.257812 339.417969 52.257812 C 339.667969 51.695312 340.355469 51.257812 341.105469 51.257812 C 342.261719 51.257812 342.855469 52.132812 342.855469 53.007812 C 342.855469 53.789062 342.355469 54.601562 341.574219 55.289062 L 338.980469 57.664062 C 338.886719 57.789062 338.855469 57.789062 338.855469 58.132812 L 343.636719 58.132812 Z M 343.980469 56.070312 "/>
<path fill="none" stroke-width="0.5579" stroke-linecap="butt" stroke-linejoin="miter" stroke="rgb(0%, 0%, 0%)" stroke-opacity="1" stroke-miterlimit="10" d="M -48.995186 0.0417519 L 2.235283 0.0417519 " transform="matrix(2, 0, 0, -2, 169.755997, 85.396004)"/>
<path fill="none" stroke-width="0.5579" stroke-linecap="round" stroke-linejoin="round" stroke="rgb(0%, 0%, 0%)" stroke-opacity="1" stroke-miterlimit="10" d="M -2.902481 3.345661 C -2.371231 1.337849 -1.191544 0.38863 -0.000137329 0.00191116 C -1.191544 -0.388714 -2.371231 -1.337933 -2.902481 -3.345745 " transform="matrix(2, 0, 0, -2, 174.781525, 85.316322)"/>
<g clip-path="url(#clip-0)">
<path fill="none" stroke-width="2.49017" stroke-linecap="butt" stroke-linejoin="miter" stroke="rgb(0%, 0%, 0%)" stroke-opacity="1" stroke-miterlimit="10" d="M -24.702217 -16.716061 L -23.924873 -17.083248 " transform="matrix(2, 0, 0, -2, 169.755997, 85.396004)"/>
</g>
<path fill="none" stroke-width="1.37434" stroke-linecap="butt" stroke-linejoin="miter" stroke="rgb(100%, 100%, 100%)" stroke-opacity="1" stroke-miterlimit="10" d="M -24.702217 -16.716061 L -23.924873 -17.083248 " transform="matrix(2, 0, 0, -2, 169.755997, 85.396004)"/>
<path fill="none" stroke-width="0.5579" stroke-linecap="round" stroke-linejoin="round" stroke="rgb(0%, 0%, 0%)" stroke-opacity="1" stroke-miterlimit="10" d="M -1.294048 2.560841 C -0.667646 1.20632 1.025069 0.0471278 1.990419 -0.000154452 C 1.023146 -0.0489392 -0.667025 -1.206813 -1.295223 -2.560683 " transform="matrix(1.8063, 0.8584, 0.8584, -1.8063, 121.904839, 119.564583)"/>
<path fill-rule="nonzero" fill="rgb(0%, 0%, 0%)" fill-opacity="1" d="M 107.835938 135.742188 C 109.085938 135.742188 109.773438 134.773438 110.210938 134.054688 L 109.929688 133.867188 C 109.648438 134.273438 109.148438 135.148438 108.648438 135.148438 C 108.367188 135.148438 108.273438 134.773438 108.273438 134.585938 C 108.273438 134.273438 109.398438 130.992188 109.398438 130.554688 C 109.398438 129.773438 109.117188 129.273438 108.335938 129.273438 C 107.992188 129.273438 107.398438 129.398438 107.085938 129.585938 C 106.773438 129.804688 106.492188 130.085938 106.242188 130.429688 L 106.179688 130.585938 L 107.648438 124.929688 L 105.492188 125.054688 L 105.460938 125.273438 C 105.867188 125.273438 106.054688 125.398438 106.179688 125.492188 C 106.367188 125.585938 106.460938 125.804688 106.460938 125.960938 C 106.460938 126.242188 106.367188 126.585938 106.273438 126.835938 L 103.835938 135.617188 L 104.679688 135.617188 C 105.210938 133.960938 105.773438 131.960938 106.554688 130.710938 C 106.867188 130.148438 107.398438 129.617188 108.054688 129.617188 C 108.617188 129.617188 108.460938 130.585938 108.367188 131.023438 C 108.304688 131.242188 108.210938 131.554688 108.054688 131.960938 C 107.554688 133.585938 107.242188 134.335938 107.242188 134.992188 C 107.242188 135.460938 107.398438 135.742188 107.835938 135.742188 Z M 107.835938 135.742188 "/>
<path fill-rule="nonzero" fill="rgb(0%, 0%, 0%)" fill-opacity="1" d="M 116.164062 137.800781 L 116.164062 137.363281 L 115.695312 137.363281 C 114.570312 137.363281 114.570312 137.238281 114.570312 136.863281 L 114.570312 130.832031 C 114.570312 130.519531 114.539062 130.519531 114.195312 130.519531 C 113.476562 131.207031 112.351562 131.207031 111.945312 131.207031 L 111.945312 131.644531 C 112.257812 131.644531 112.976562 131.644531 113.632812 131.332031 L 113.632812 136.863281 C 113.632812 137.238281 113.632812 137.363281 112.507812 137.363281 L 112.039062 137.363281 L 112.039062 137.800781 C 112.632812 137.769531 113.476562 137.769531 114.101562 137.769531 C 114.726562 137.769531 115.570312 137.769531 116.164062 137.800781 Z M 116.164062 137.800781 "/>
<path fill="none" stroke-width="2.49017" stroke-linecap="butt" stroke-linejoin="miter" stroke="rgb(0%, 0%, 0%)" stroke-opacity="1" stroke-miterlimit="10" d="M 39.547783 14.338627 L 45.594658 17.694096 " transform="matrix(2, 0, 0, -2, 169.755997, 85.396004)"/>
<path fill="none" stroke-width="1.37434" stroke-linecap="butt" stroke-linejoin="miter" stroke="rgb(100%, 100%, 100%)" stroke-opacity="1" stroke-miterlimit="10" d="M 39.547783 14.338627 L 45.594658 17.694096 " transform="matrix(2, 0, 0, -2, 169.755997, 85.396004)"/>
<path fill="none" stroke-width="0.5579" stroke-linecap="round" stroke-linejoin="round" stroke="rgb(0%, 0%, 0%)" stroke-opacity="1" stroke-miterlimit="10" d="M -1.293099 2.561055 C -0.6675 1.208758 1.024162 0.0467218 1.990939 0.00169231 C 1.025349 -0.0477523 -0.668146 -1.207747 -1.29462 -2.562209 " transform="matrix(1.74878, -0.97036, -0.97036, -1.74878, 260.941803, 50.005199)"/>
<path fill-rule="nonzero" fill="rgb(0%, 0%, 0%)" fill-opacity="1" d="M 241.535156 45.351562 C 242.785156 45.351562 243.472656 44.382812 243.910156 43.664062 L 243.628906 43.476562 C 243.347656 43.882812 242.847656 44.757812 242.347656 44.757812 C 242.066406 44.757812 241.972656 44.382812 241.972656 44.195312 C 241.972656 43.882812 243.097656 40.601562 243.097656 40.164062 C 243.097656 39.382812 242.816406 38.882812 242.035156 38.882812 C 241.691406 38.882812 241.097656 39.007812 240.785156 39.195312 C 240.472656 39.414062 240.191406 39.695312 239.941406 40.039062 L 239.878906 40.195312 L 241.347656 34.539062 L 239.191406 34.664062 L 239.160156 34.882812 C 239.566406 34.882812 239.753906 35.007812 239.878906 35.101562 C 240.066406 35.195312 240.160156 35.414062 240.160156 35.570312 C 240.160156 35.851562 240.066406 36.195312 239.972656 36.445312 L 237.535156 45.226562 L 238.378906 45.226562 C 238.910156 43.570312 239.472656 41.570312 240.253906 40.320312 C 240.566406 39.757812 241.097656 39.226562 241.753906 39.226562 C 242.316406 39.226562 242.160156 40.195312 242.066406 40.632812 C 242.003906 40.851562 241.910156 41.164062 241.753906 41.570312 C 241.253906 43.195312 240.941406 43.945312 240.941406 44.601562 C 240.941406 45.070312 241.097656 45.351562 241.535156 45.351562 Z M 241.535156 45.351562 "/>
<path fill-rule="nonzero" fill="rgb(0%, 0%, 0%)" fill-opacity="1" d="M 250.238281 45.34375 L 249.832031 45.34375 C 249.800781 45.5 249.707031 46.21875 249.519531 46.34375 C 249.457031 46.40625 248.550781 46.40625 248.425781 46.40625 L 246.363281 46.40625 L 247.769531 45.28125 C 248.144531 44.96875 249.113281 44.28125 249.457031 43.9375 C 249.769531 43.625 250.238281 43.0625 250.238281 42.28125 C 250.238281 40.90625 248.988281 40.125 247.519531 40.125 C 246.113281 40.125 245.113281 41.03125 245.113281 42.0625 C 245.113281 42.625 245.582031 42.6875 245.707031 42.6875 C 245.988281 42.6875 246.300781 42.5 246.300781 42.09375 C 246.300781 41.875 246.175781 41.53125 245.675781 41.53125 C 245.925781 40.96875 246.613281 40.53125 247.363281 40.53125 C 248.519531 40.53125 249.113281 41.40625 249.113281 42.28125 C 249.113281 43.0625 248.613281 43.875 247.832031 44.5625 L 245.238281 46.9375 C 245.144531 47.0625 245.113281 47.0625 245.113281 47.40625 L 249.894531 47.40625 Z M 250.238281 45.34375 "/>
<path fill="none" stroke-width="0.5579" stroke-linecap="butt" stroke-linejoin="miter" stroke="rgb(0%, 0%, 0%)" stroke-opacity="1" stroke-miterlimit="10" d="M 24.735283 0.0417519 L 62.200127 0.0417519 " transform="matrix(2, 0, 0, -2, 169.755997, 85.396004)"/>
<path fill="none" stroke-width="0.5579" stroke-linecap="round" stroke-linejoin="round" stroke="rgb(0%, 0%, 0%)" stroke-opacity="1" stroke-miterlimit="10" d="M -2.901901 3.345661 C -2.370651 1.337849 -1.190964 0.38863 0.000442505 0.00191116 C -1.190964 -0.388714 -2.370651 -1.337933 -2.901901 -3.345745 " transform="matrix(2, 0, 0, -2, 294.717865, 85.316322)"/>
<path fill-rule="nonzero" fill="rgb(0%, 0%, 0%)" fill-opacity="1" d="M 166.183594 105.289062 L 166.808594 105.914062 L 170.402344 102.320312 L 166.777344 98.695312 L 166.183594 99.289062 L 169.183594 102.289062 Z M 166.183594 105.289062 "/>
<path fill-rule="nonzero" fill="rgb(0%, 0%, 0%)" fill-opacity="1" d="M 284.472656 72.554688 L 284.472656 73.429688 L 289.566406 73.429688 L 289.566406 68.335938 L 288.691406 68.335938 L 288.691406 72.554688 Z M 284.472656 72.554688 "/>
<path fill="none" stroke-width="0.5579" stroke-linecap="butt" stroke-linejoin="miter" stroke="rgb(0%, 0%, 0%)" stroke-opacity="1" stroke-miterlimit="10" d="M -59.967842 -25.399654 L -59.967842 -8.423092 " transform="matrix(2, 0, 0, -2, 169.755997, 85.396004)"/>
<path fill="none" stroke-width="0.5579" stroke-linecap="round" stroke-linejoin="round" stroke="rgb(0%, 0%, 0%)" stroke-opacity="1" stroke-miterlimit="10" d="M -2.901138 3.347309 C -2.369888 1.339497 -1.190201 0.390278 0.00120544 -0.000347137 C -1.190201 -0.390972 -2.369888 -1.340191 -2.901138 -3.348003 " transform="matrix(0, -2, -2, 0, 49.819618, 101.682098)"/>
<path fill-rule="nonzero" fill="rgb(0%, 0%, 0%)" fill-opacity="1" d="M 34.523438 114.730469 C 35.210938 114.730469 35.085938 116.011719 34.960938 116.574219 C 34.929688 116.855469 34.773438 117.199219 34.679688 117.511719 C 34.335938 118.699219 33.273438 120.574219 32.460938 120.574219 C 31.867188 120.574219 31.710938 119.636719 31.710938 119.136719 C 31.710938 118.730469 31.742188 118.292969 31.898438 117.855469 C 32.273438 116.855469 33.304688 114.730469 34.523438 114.730469 Z M 34.398438 114.449219 C 33.992188 114.449219 33.554688 114.605469 33.117188 114.917969 C 32.679688 115.199219 32.273438 115.574219 31.929688 116.011719 C 31.304688 116.761719 30.710938 117.949219 30.710938 119.199219 C 30.710938 120.167969 31.054688 120.917969 31.992188 120.917969 C 33.242188 120.917969 33.710938 120.042969 34.117188 119.386719 C 33.929688 120.292969 34.054688 120.917969 34.679688 120.917969 C 35.023438 120.917969 35.367188 120.761719 35.773438 120.449219 C 36.148438 120.136719 36.523438 119.667969 36.835938 119.105469 L 36.648438 118.949219 C 36.398438 119.355469 35.773438 120.292969 35.367188 120.292969 C 35.148438 120.292969 35.085938 119.949219 35.085938 119.730469 C 35.085938 118.855469 35.679688 117.355469 35.992188 116.386719 L 36.679688 114.574219 L 35.710938 114.574219 L 35.460938 115.230469 C 35.273438 114.761719 34.992188 114.449219 34.398438 114.449219 Z M 34.398438 114.449219 "/>
<path fill-rule="nonzero" fill="rgb(0%, 0%, 0%)" fill-opacity="1" d="M 43.304688 119.476562 C 43.304688 118.664062 43.304688 115.695312 40.617188 115.695312 C 37.929688 115.695312 37.929688 118.664062 37.929688 119.476562 C 37.929688 120.257812 37.929688 123.195312 40.617188 123.195312 C 43.304688 123.195312 43.304688 120.257812 43.304688 119.476562 Z M 42.273438 119.320312 C 42.273438 120.039062 42.273438 121.132812 42.085938 121.757812 C 41.773438 122.726562 40.992188 122.851562 40.617188 122.851562 C 40.148438 122.851562 39.398438 122.632812 39.148438 121.726562 C 38.960938 121.101562 38.960938 120.007812 38.960938 119.320312 C 38.960938 118.601562 38.960938 117.757812 39.117188 117.164062 C 39.398438 116.164062 40.242188 116.039062 40.617188 116.039062 C 41.117188 116.039062 41.835938 116.289062 42.085938 117.101562 C 42.242188 117.695312 42.273438 118.476562 42.273438 119.320312 Z M 42.273438 119.320312 "/>
<path fill="none" stroke-width="0.5579" stroke-linecap="butt" stroke-linejoin="miter" stroke="rgb(0%, 0%, 0%)" stroke-opacity="1" stroke-miterlimit="10" d="M -34.858467 -34.989498 L 1.860283 -34.989498 " transform="matrix(2, 0, 0, -2, 169.755997, 85.396004)"/>
<path fill="none" stroke-width="0.5579" stroke-linecap="round" stroke-linejoin="round" stroke="rgb(0%, 0%, 0%)" stroke-opacity="1" stroke-miterlimit="10" d="M -2.899971 3.348755 C -2.372627 1.337036 -1.189034 0.391724 -0.00153351 0.00109863 C -1.189034 -0.389526 -2.372627 -1.338745 -2.899971 -3.346558 " transform="matrix(2, 0, 0, -2, 174.034317, 155.377197)"/>
<path fill-rule="nonzero" fill="rgb(0%, 0%, 0%)" fill-opacity="1" d="M 134.132812 163.367188 C 134.132812 161.554688 132.632812 160.085938 130.789062 160.085938 C 129.976562 160.085938 129.132812 160.398438 128.539062 160.960938 L 128.539062 160.085938 L 126.351562 160.242188 L 126.351562 160.773438 C 127.351562 160.773438 127.445312 160.835938 127.445312 161.460938 L 127.445312 168.148438 C 127.445312 168.773438 127.289062 168.773438 126.351562 168.773438 L 126.351562 169.304688 C 126.351562 169.304688 127.382812 169.242188 128.007812 169.242188 C 128.539062 169.242188 129.539062 169.304688 129.664062 169.304688 L 129.664062 168.773438 C 128.726562 168.773438 128.570312 168.773438 128.570312 168.148438 L 128.570312 165.804688 C 128.664062 165.867188 129.351562 166.648438 130.570312 166.648438 C 132.476562 166.648438 134.132812 165.210938 134.132812 163.367188 Z M 132.789062 163.367188 C 132.789062 165.023438 131.695312 166.242188 130.476562 166.242188 C 129.195312 166.242188 128.632812 165.117188 128.570312 165.023438 L 128.570312 161.648438 C 129.007812 160.929688 129.851562 160.554688 130.632812 160.554688 C 131.851562 160.554688 132.789062 161.835938 132.789062 163.367188 Z M 132.789062 163.367188 "/>
<path fill-rule="nonzero" fill="rgb(0%, 0%, 0%)" fill-opacity="1" d="M 140.71875 161.023438 C 140.71875 160.523438 140.25 160.085938 139.59375 160.085938 C 138.84375 160.085938 138.0625 160.523438 137.625 161.648438 L 137.59375 161.648438 L 137.59375 160.085938 L 135.53125 160.242188 L 135.53125 160.773438 C 136.5 160.773438 136.625 160.867188 136.625 161.585938 L 136.625 165.335938 C 136.625 165.960938 136.46875 165.960938 135.53125 165.960938 L 135.53125 166.492188 C 135.59375 166.492188 136.59375 166.429688 137.1875 166.429688 L 139.0625 166.492188 L 139.0625 165.960938 L 138.78125 165.960938 C 137.71875 165.960938 137.71875 165.804688 137.71875 165.304688 L 137.71875 163.179688 C 137.71875 161.960938 138.28125 160.492188 139.65625 160.492188 C 139.53125 160.585938 139.40625 160.773438 139.40625 161.023438 C 139.40625 161.492188 139.78125 161.679688 140.0625 161.679688 C 140.40625 161.679688 140.71875 161.460938 140.71875 161.023438 Z M 140.71875 161.023438 "/>
<path fill-rule="nonzero" fill="rgb(0%, 0%, 0%)" fill-opacity="1" d="M 146.835938 169.867188 L 146.835938 169.429688 L 146.367188 169.429688 C 145.242188 169.429688 145.242188 169.304688 145.242188 168.929688 L 145.242188 162.898438 C 145.242188 162.585938 145.210938 162.585938 144.867188 162.585938 C 144.148438 163.273438 143.023438 163.273438 142.617188 163.273438 L 142.617188 163.710938 C 142.929688 163.710938 143.648438 163.710938 144.304688 163.398438 L 144.304688 168.929688 C 144.304688 169.304688 144.304688 169.429688 143.179688 169.429688 L 142.710938 169.429688 L 142.710938 169.867188 C 143.304688 169.835938 144.148438 169.835938 144.773438 169.835938 C 145.398438 169.835938 146.242188 169.835938 146.835938 169.867188 Z M 146.835938 169.867188 "/>
<path fill="none" stroke-width="0.5579" stroke-linecap="butt" stroke-linejoin="miter" stroke="rgb(0%, 0%, 0%)" stroke-opacity="1" stroke-miterlimit="10" d="M 13.762627 -26.747311 L 13.762627 -8.423092 " transform="matrix(2, 0, 0, -2, 169.755997, 85.396004)"/>
<path fill="none" stroke-width="0.5579" stroke-linecap="round" stroke-linejoin="round" stroke="rgb(0%, 0%, 0%)" stroke-opacity="1" stroke-miterlimit="10" d="M -2.901138 3.349144 C -2.369888 1.337425 -1.190201 0.392113 0.00120544 0.00148773 C -1.190201 -0.389137 -2.369888 -1.338356 -2.901138 -3.346169 " transform="matrix(0, -2, -2, 0, 197.284225, 101.682098)"/>
<path fill-rule="nonzero" fill="rgb(0%, 0%, 0%)" fill-opacity="1" d="M 208.074219 115.785156 C 208.074219 115.535156 207.886719 115.253906 207.605469 115.253906 C 207.292969 115.253906 206.074219 116.472656 205.667969 116.691406 C 205.667969 115.878906 206.074219 115.066406 206.074219 114.597656 C 206.074219 114.285156 205.886719 114.097656 205.574219 114.097656 C 205.261719 114.097656 205.105469 114.285156 205.105469 114.597656 C 205.105469 115.160156 205.449219 115.910156 205.449219 116.691406 C 204.980469 116.441406 203.855469 115.222656 203.542969 115.222656 C 203.292969 115.222656 203.042969 115.441406 203.042969 115.722656 C 203.042969 116.222656 204.761719 116.566406 205.324219 116.878906 C 204.730469 117.253906 203.574219 117.410156 203.292969 117.597656 C 203.167969 117.722656 203.042969 117.847656 203.042969 118.035156 C 203.042969 118.285156 203.230469 118.535156 203.511719 118.535156 C 203.824219 118.535156 205.011719 117.347656 205.449219 117.097656 C 205.449219 117.910156 205.042969 118.722656 205.042969 119.222656 C 205.042969 119.503906 205.261719 119.722656 205.542969 119.722656 C 205.855469 119.722656 206.011719 119.503906 206.011719 119.222656 C 206.011719 118.628906 205.667969 117.878906 205.667969 117.097656 C 206.136719 117.347656 207.292969 118.566406 207.574219 118.566406 C 207.824219 118.566406 208.074219 118.347656 208.074219 118.066406 C 208.074219 117.878906 207.949219 117.753906 207.792969 117.660156 C 207.417969 117.410156 206.417969 117.253906 205.792969 116.878906 C 206.480469 116.472656 207.386719 116.441406 207.824219 116.191406 C 207.980469 116.097656 208.074219 115.972656 208.074219 115.785156 Z M 208.074219 115.785156 "/>
<path fill-rule="nonzero" fill="rgb(0%, 0%, 0%)" fill-opacity="1" d="M 217.609375 122.808594 L 217.609375 115.558594 L 215.984375 115.558594 L 213.703125 121.964844 L 213.671875 121.964844 L 211.453125 115.558594 L 209.765625 115.558594 L 209.765625 122.808594 L 210.234375 122.808594 L 210.234375 117.652344 L 210.265625 117.652344 L 212.046875 122.808594 L 213.921875 122.808594 L 215.765625 117.621094 L 215.765625 122.808594 Z M 217.109375 122.339844 L 216.265625 122.339844 L 216.265625 116.027344 L 217.109375 116.027344 Z M 213.296875 122.339844 L 212.390625 122.339844 L 210.421875 116.683594 L 210.203125 116.027344 L 211.078125 116.027344 Z M 213.296875 122.339844 "/>
<path fill-rule="nonzero" fill="rgb(0%, 0%, 0%)" fill-opacity="1" d="M 223.667969 126.007812 L 223.667969 125.570312 L 223.199219 125.570312 C 222.074219 125.570312 222.074219 125.445312 222.074219 125.070312 L 222.074219 119.039062 C 222.074219 118.726562 222.042969 118.726562 221.699219 118.726562 C 220.980469 119.414062 219.855469 119.414062 219.449219 119.414062 L 219.449219 119.851562 C 219.761719 119.851562 220.480469 119.851562 221.136719 119.539062 L 221.136719 125.070312 C 221.136719 125.445312 221.136719 125.570312 220.011719 125.570312 L 219.542969 125.570312 L 219.542969 126.007812 C 220.136719 125.976562 220.980469 125.976562 221.605469 125.976562 C 222.230469 125.976562 223.074219 125.976562 223.667969 126.007812 Z M 223.667969 126.007812 "/>
</svg>
