<?xml version="1.0" encoding="UTF-8"?>
<svg xmlns="http://www.w3.org/2000/svg" xmlns:xlink="http://www.w3.org/1999/xlink" width="423.480011" height="173.199997" viewBox="0 0 423.480011 173.199997">
<defs>
<clipPath id="clip-0">
<path clip-rule="nonzero" d="M 108 47 L 271 47 L 271 173.203125 L 108 173.203125 Z M 108 47 "/>
</clipPath>
</defs>
<path fill-rule="nonzero" fill="rgb(0%, 0%, 0%)" fill-opacity="1" d="M 12.398438 18.683594 C 12.398438 18.121094 11.929688 17.652344 11.367188 17.652344 C 10.773438 17.652344 10.304688 18.121094 10.304688 18.683594 C 10.304688 19.277344 10.773438 19.746094 11.367188 19.746094 C 11.929688 19.746094 12.398438 19.277344 12.398438 18.683594 Z M 12.398438 18.683594 "/>
<path fill-rule="nonzero" fill="rgb(0%, 0%, 0%)" fill-opacity="1" d="M 21.222656 18.683594 C 21.222656 18.121094 20.753906 17.652344 20.191406 17.652344 C 19.597656 17.652344 19.128906 18.121094 19.128906 18.683594 C 19.128906 19.277344 19.597656 19.746094 20.191406 19.746094 C 20.753906 19.746094 21.222656 19.277344 21.222656 18.683594 Z M 21.222656 18.683594 "/>
<path fill-rule="nonzero" fill="rgb(0%, 0%, 0%)" fill-opacity="1" d="M 30.070312 18.683594 C 30.070312 18.121094 29.601562 17.652344 29.039062 17.652344 C 28.445312 17.652344 27.976562 18.121094 27.976562 18.683594 C 27.976562 19.277344 28.445312 19.746094 29.039062 19.746094 C 29.601562 19.746094 30.070312 19.277344 30.070312 18.683594 Z M 30.070312 18.683594 "/>
<path fill-rule="nonzero" fill="rgb(0%, 0%, 0%)" fill-opacity="1" d="M 115.296875 11.589844 C 115.484375 10.871094 115.515625 10.683594 117.015625 10.683594 C 117.453125 10.683594 117.640625 10.683594 117.640625 10.277344 C 117.640625 10.058594 117.453125 10.058594 117.109375 10.058594 L 114.484375 10.058594 C 113.953125 10.058594 113.921875 10.058594 113.703125 10.433594 L 106.421875 21.808594 L 104.859375 10.527344 C 104.796875 10.058594 104.765625 10.058594 104.234375 10.058594 L 101.515625 10.058594 C 101.140625 10.058594 100.921875 10.058594 100.921875 10.433594 C 100.921875 10.683594 101.109375 10.683594 101.484375 10.683594 C 101.765625 10.683594 102.109375 10.714844 102.359375 10.714844 C 102.671875 10.777344 102.796875 10.808594 102.796875 11.058594 C 102.796875 11.121094 102.765625 11.183594 102.703125 11.433594 L 100.171875 21.558594 C 99.984375 22.371094 99.640625 22.996094 98.015625 23.058594 C 97.921875 23.058594 97.671875 23.089844 97.671875 23.433594 C 97.671875 23.621094 97.796875 23.683594 97.953125 23.683594 C 98.578125 23.683594 99.265625 23.621094 99.953125 23.621094 C 100.609375 23.621094 101.328125 23.683594 101.984375 23.683594 C 102.078125 23.683594 102.359375 23.683594 102.359375 23.277344 C 102.359375 23.058594 102.140625 23.058594 101.984375 23.058594 C 100.859375 23.058594 100.640625 22.652344 100.640625 22.183594 C 100.640625 22.058594 100.640625 21.933594 100.703125 21.714844 L 103.421875 10.871094 L 103.453125 10.871094 L 105.171875 23.214844 C 105.203125 23.464844 105.234375 23.683594 105.453125 23.683594 C 105.671875 23.683594 105.796875 23.464844 105.890625 23.339844 L 113.953125 10.714844 L 113.984375 10.714844 L 111.109375 22.121094 C 110.921875 22.902344 110.890625 23.058594 109.296875 23.058594 C 108.984375 23.058594 108.765625 23.058594 108.765625 23.433594 C 108.765625 23.683594 108.984375 23.683594 109.046875 23.683594 C 109.609375 23.683594 110.953125 23.621094 111.515625 23.621094 C 112.328125 23.621094 113.203125 23.683594 114.015625 23.683594 C 114.140625 23.683594 114.390625 23.683594 114.390625 23.277344 C 114.390625 23.058594 114.203125 23.058594 113.828125 23.058594 C 113.109375 23.058594 112.546875 23.058594 112.546875 22.714844 C 112.546875 22.621094 112.546875 22.589844 112.640625 22.214844 Z M 115.296875 11.589844 "/>
<path fill-rule="nonzero" fill="rgb(0%, 0%, 0%)" fill-opacity="1" d="M 117.84375 25.796875 C 117.8125 25.984375 117.71875 26.328125 117.71875 26.359375 C 117.71875 26.671875 117.96875 26.796875 118.1875 26.796875 C 118.4375 26.796875 118.65625 26.640625 118.75 26.515625 C 118.8125 26.390625 118.90625 25.921875 119 25.640625 C 119.0625 25.390625 119.21875 24.734375 119.28125 24.390625 C 119.375 24.078125 119.46875 23.765625 119.53125 23.453125 C 119.6875 22.890625 119.71875 22.765625 120.125 22.203125 C 120.5 21.640625 121.15625 20.921875 122.21875 20.921875 C 123 20.921875 123.03125 21.640625 123.03125 21.890625 C 123.03125 22.734375 122.4375 24.265625 122.21875 24.859375 C 122.0625 25.265625 122 25.390625 122 25.609375 C 122 26.359375 122.59375 26.796875 123.3125 26.796875 C 124.71875 26.796875 125.3125 24.890625 125.3125 24.671875 C 125.3125 24.484375 125.15625 24.484375 125.09375 24.484375 C 124.90625 24.484375 124.90625 24.578125 124.84375 24.734375 C 124.53125 25.859375 123.90625 26.421875 123.375 26.421875 C 123.0625 26.421875 123 26.234375 123 25.921875 C 123 25.609375 123.09375 25.421875 123.34375 24.796875 C 123.5 24.359375 124.0625 22.890625 124.0625 22.109375 C 124.0625 20.765625 123 20.515625 122.25 20.515625 C 121.09375 20.515625 120.3125 21.234375 119.90625 21.796875 C 119.8125 20.828125 119 20.515625 118.40625 20.515625 C 117.8125 20.515625 117.5 20.953125 117.3125 21.265625 C 117 21.796875 116.8125 22.578125 116.8125 22.671875 C 116.8125 22.828125 117 22.828125 117.0625 22.828125 C 117.25 22.828125 117.25 22.796875 117.34375 22.421875 C 117.5625 21.609375 117.84375 20.921875 118.375 20.921875 C 118.75 20.921875 118.84375 21.234375 118.84375 21.609375 C 118.84375 21.859375 118.71875 22.390625 118.59375 22.765625 C 118.5 23.140625 118.375 23.703125 118.3125 24.015625 Z M 117.84375 25.796875 "/>
<path fill-rule="nonzero" fill="rgb(0%, 0%, 0%)" fill-opacity="1" d="M 136.382812 23.515625 C 136.601562 23.515625 136.945312 23.515625 136.945312 23.203125 C 136.945312 22.828125 136.601562 22.828125 136.382812 22.828125 L 128.070312 22.828125 C 127.851562 22.828125 127.507812 22.828125 127.507812 23.171875 C 127.507812 23.515625 127.820312 23.515625 128.070312 23.515625 Z M 136.382812 23.515625 "/>
<path fill-rule="nonzero" fill="rgb(0%, 0%, 0%)" fill-opacity="1" d="M 145.492188 24.140625 L 145.023438 24.140625 C 144.992188 24.453125 144.835938 25.265625 144.648438 25.390625 C 144.554688 25.484375 143.492188 25.484375 143.273438 25.484375 L 140.710938 25.484375 C 142.179688 24.203125 142.679688 23.796875 143.492188 23.140625 C 144.523438 22.328125 145.492188 21.453125 145.492188 20.140625 C 145.492188 18.453125 144.023438 17.421875 142.242188 17.421875 C 140.523438 17.421875 139.335938 18.640625 139.335938 19.921875 C 139.335938 20.609375 139.929688 20.703125 140.085938 20.703125 C 140.398438 20.703125 140.804688 20.453125 140.804688 19.953125 C 140.804688 19.703125 140.710938 19.203125 139.992188 19.203125 C 140.429688 18.234375 141.367188 17.921875 142.023438 17.921875 C 143.429688 17.921875 144.148438 19.015625 144.148438 20.140625 C 144.148438 21.359375 143.273438 22.296875 142.835938 22.796875 L 139.492188 26.140625 C 139.335938 26.265625 139.335938 26.296875 139.335938 26.671875 L 145.085938 26.671875 Z M 145.492188 24.140625 "/>
<path fill-rule="nonzero" fill="rgb(0%, 0%, 0%)" fill-opacity="1" d="M 230.863281 11.589844 C 231.050781 10.871094 231.082031 10.683594 232.582031 10.683594 C 233.019531 10.683594 233.207031 10.683594 233.207031 10.277344 C 233.207031 10.058594 233.019531 10.058594 232.675781 10.058594 L 230.050781 10.058594 C 229.519531 10.058594 229.488281 10.058594 229.269531 10.433594 L 221.988281 21.808594 L 220.425781 10.527344 C 220.363281 10.058594 220.332031 10.058594 219.800781 10.058594 L 217.082031 10.058594 C 216.707031 10.058594 216.488281 10.058594 216.488281 10.433594 C 216.488281 10.683594 216.675781 10.683594 217.050781 10.683594 C 217.332031 10.683594 217.675781 10.714844 217.925781 10.714844 C 218.238281 10.777344 218.363281 10.808594 218.363281 11.058594 C 218.363281 11.121094 218.332031 11.183594 218.269531 11.433594 L 215.738281 21.558594 C 215.550781 22.371094 215.207031 22.996094 213.582031 23.058594 C 213.488281 23.058594 213.238281 23.089844 213.238281 23.433594 C 213.238281 23.621094 213.363281 23.683594 213.519531 23.683594 C 214.144531 23.683594 214.832031 23.621094 215.519531 23.621094 C 216.175781 23.621094 216.894531 23.683594 217.550781 23.683594 C 217.644531 23.683594 217.925781 23.683594 217.925781 23.277344 C 217.925781 23.058594 217.707031 23.058594 217.550781 23.058594 C 216.425781 23.058594 216.207031 22.652344 216.207031 22.183594 C 216.207031 22.058594 216.207031 21.933594 216.269531 21.714844 L 218.988281 10.871094 L 219.019531 10.871094 L 220.738281 23.214844 C 220.769531 23.464844 220.800781 23.683594 221.019531 23.683594 C 221.238281 23.683594 221.363281 23.464844 221.457031 23.339844 L 229.519531 10.714844 L 229.550781 10.714844 L 226.675781 22.121094 C 226.488281 22.902344 226.457031 23.058594 224.863281 23.058594 C 224.550781 23.058594 224.332031 23.058594 224.332031 23.433594 C 224.332031 23.683594 224.550781 23.683594 224.613281 23.683594 C 225.175781 23.683594 226.519531 23.621094 227.082031 23.621094 C 227.894531 23.621094 228.769531 23.683594 229.582031 23.683594 C 229.707031 23.683594 229.957031 23.683594 229.957031 23.277344 C 229.957031 23.058594 229.769531 23.058594 229.394531 23.058594 C 228.675781 23.058594 228.113281 23.058594 228.113281 22.714844 C 228.113281 22.621094 228.113281 22.589844 228.207031 22.214844 Z M 230.863281 11.589844 "/>
<path fill-rule="nonzero" fill="rgb(0%, 0%, 0%)" fill-opacity="1" d="M 233.410156 25.796875 C 233.378906 25.984375 233.285156 26.328125 233.285156 26.359375 C 233.285156 26.671875 233.535156 26.796875 233.753906 26.796875 C 234.003906 26.796875 234.222656 26.640625 234.316406 26.515625 C 234.378906 26.390625 234.472656 25.921875 234.566406 25.640625 C 234.628906 25.390625 234.785156 24.734375 234.847656 24.390625 C 234.941406 24.078125 235.035156 23.765625 235.097656 23.453125 C 235.253906 22.890625 235.285156 22.765625 235.691406 22.203125 C 236.066406 21.640625 236.722656 20.921875 237.785156 20.921875 C 238.566406 20.921875 238.597656 21.640625 238.597656 21.890625 C 238.597656 22.734375 238.003906 24.265625 237.785156 24.859375 C 237.628906 25.265625 237.566406 25.390625 237.566406 25.609375 C 237.566406 26.359375 238.160156 26.796875 238.878906 26.796875 C 240.285156 26.796875 240.878906 24.890625 240.878906 24.671875 C 240.878906 24.484375 240.722656 24.484375 240.660156 24.484375 C 240.472656 24.484375 240.472656 24.578125 240.410156 24.734375 C 240.097656 25.859375 239.472656 26.421875 238.941406 26.421875 C 238.628906 26.421875 238.566406 26.234375 238.566406 25.921875 C 238.566406 25.609375 238.660156 25.421875 238.910156 24.796875 C 239.066406 24.359375 239.628906 22.890625 239.628906 22.109375 C 239.628906 20.765625 238.566406 20.515625 237.816406 20.515625 C 236.660156 20.515625 235.878906 21.234375 235.472656 21.796875 C 235.378906 20.828125 234.566406 20.515625 233.972656 20.515625 C 233.378906 20.515625 233.066406 20.953125 232.878906 21.265625 C 232.566406 21.796875 232.378906 22.578125 232.378906 22.671875 C 232.378906 22.828125 232.566406 22.828125 232.628906 22.828125 C 232.816406 22.828125 232.816406 22.796875 232.910156 22.421875 C 233.128906 21.609375 233.410156 20.921875 233.941406 20.921875 C 234.316406 20.921875 234.410156 21.234375 234.410156 21.609375 C 234.410156 21.859375 234.285156 22.390625 234.160156 22.765625 C 234.066406 23.140625 233.941406 23.703125 233.878906 24.015625 Z M 233.410156 25.796875 "/>
<path fill-rule="nonzero" fill="rgb(0%, 0%, 0%)" fill-opacity="1" d="M 254.746094 18.152344 L 250.777344 14.183594 C 250.527344 13.933594 250.496094 13.902344 250.339844 13.902344 C 250.121094 13.902344 249.933594 14.058594 249.933594 14.308594 C 249.933594 14.433594 249.964844 14.464844 250.183594 14.683594 L 254.183594 18.683594 L 250.183594 22.714844 C 249.964844 22.933594 249.933594 22.964844 249.933594 23.089844 C 249.933594 23.339844 250.121094 23.496094 250.339844 23.496094 C 250.496094 23.496094 250.527344 23.464844 250.777344 23.214844 L 254.746094 19.246094 L 258.871094 23.371094 C 258.902344 23.402344 259.027344 23.496094 259.152344 23.496094 C 259.402344 23.496094 259.558594 23.339844 259.558594 23.089844 C 259.558594 23.058594 259.558594 22.996094 259.496094 22.871094 C 259.464844 22.839844 256.308594 19.714844 255.308594 18.683594 L 258.964844 15.058594 C 259.058594 14.933594 259.371094 14.683594 259.464844 14.558594 C 259.464844 14.527344 259.558594 14.433594 259.558594 14.308594 C 259.558594 14.058594 259.402344 13.902344 259.152344 13.902344 C 258.996094 13.902344 258.933594 13.964844 258.714844 14.183594 Z M 254.746094 18.152344 "/>
<path fill-rule="nonzero" fill="rgb(0%, 0%, 0%)" fill-opacity="1" d="M 276.144531 16.933594 C 275.957031 15.683594 275.144531 14.558594 273.582031 14.558594 C 272.363281 14.558594 271.082031 14.902344 269.519531 16.433594 C 267.863281 18.089844 267.738281 19.964844 267.738281 20.558594 C 267.738281 21.808594 268.613281 24.121094 271.394531 24.121094 C 276.144531 24.121094 278.207031 17.433594 278.207031 14.558594 C 278.207031 11.402344 276.363281 9.402344 273.894531 9.402344 C 271.019531 9.402344 270.082031 11.996094 270.082031 12.558594 C 270.082031 12.839844 270.269531 13.246094 270.863281 13.246094 C 271.519531 13.246094 271.925781 12.652344 271.925781 12.214844 C 271.925781 11.496094 271.300781 11.496094 270.988281 11.496094 C 271.863281 10.027344 273.300781 9.902344 273.863281 9.902344 C 275.332031 9.902344 276.707031 10.933594 276.707031 13.527344 C 276.707031 14.308594 276.582031 15.308594 276.175781 16.933594 Z M 271.457031 23.558594 C 269.269531 23.558594 269.269531 21.496094 269.269531 21.308594 C 269.269531 20.777344 269.769531 17.996094 270.582031 16.777344 C 271.363281 15.652344 272.363281 14.996094 273.582031 14.996094 C 275.769531 14.996094 275.800781 17.246094 275.800781 17.652344 C 275.800781 19.089844 274.519531 23.558594 271.457031 23.558594 Z M 271.457031 23.558594 "/>
<path fill-rule="nonzero" fill="rgb(0%, 0%, 0%)" fill-opacity="1" d="M 287.421875 9.777344 C 287.296875 9.496094 287.234375 9.402344 286.890625 9.402344 C 286.578125 9.402344 286.515625 9.496094 286.390625 9.777344 L 279.640625 23.277344 C 279.546875 23.464844 279.546875 23.496094 279.546875 23.527344 C 279.546875 23.683594 279.671875 23.683594 279.984375 23.683594 L 293.828125 23.683594 C 294.140625 23.683594 294.265625 23.683594 294.265625 23.527344 C 294.265625 23.496094 294.265625 23.464844 294.171875 23.277344 Z M 286.265625 11.402344 L 291.640625 22.183594 L 280.890625 22.183594 Z M 286.265625 11.402344 "/>
<path fill-rule="nonzero" fill="rgb(0%, 0%, 0%)" fill-opacity="1" d="M 296.902344 15.578125 C 296.871094 15.765625 296.777344 16.109375 296.777344 16.140625 C 296.777344 16.453125 297.027344 16.578125 297.246094 16.578125 C 297.496094 16.578125 297.714844 16.421875 297.808594 16.296875 C 297.871094 16.171875 297.964844 15.703125 298.058594 15.421875 C 298.121094 15.171875 298.277344 14.515625 298.339844 14.171875 C 298.433594 13.859375 298.527344 13.546875 298.589844 13.234375 C 298.746094 12.671875 298.777344 12.546875 299.183594 11.984375 C 299.558594 11.421875 300.214844 10.703125 301.277344 10.703125 C 302.058594 10.703125 302.089844 11.421875 302.089844 11.671875 C 302.089844 12.515625 301.496094 14.046875 301.277344 14.640625 C 301.121094 15.046875 301.058594 15.171875 301.058594 15.390625 C 301.058594 16.140625 301.652344 16.578125 302.371094 16.578125 C 303.777344 16.578125 304.371094 14.671875 304.371094 14.453125 C 304.371094 14.265625 304.214844 14.265625 304.152344 14.265625 C 303.964844 14.265625 303.964844 14.359375 303.902344 14.515625 C 303.589844 15.640625 302.964844 16.203125 302.433594 16.203125 C 302.121094 16.203125 302.058594 16.015625 302.058594 15.703125 C 302.058594 15.390625 302.152344 15.203125 302.402344 14.578125 C 302.558594 14.140625 303.121094 12.671875 303.121094 11.890625 C 303.121094 10.546875 302.058594 10.296875 301.308594 10.296875 C 300.152344 10.296875 299.371094 11.015625 298.964844 11.578125 C 298.871094 10.609375 298.058594 10.296875 297.464844 10.296875 C 296.871094 10.296875 296.558594 10.734375 296.371094 11.046875 C 296.058594 11.578125 295.871094 12.359375 295.871094 12.453125 C 295.871094 12.609375 296.058594 12.609375 296.121094 12.609375 C 296.308594 12.609375 296.308594 12.578125 296.402344 12.203125 C 296.621094 11.390625 296.902344 10.703125 297.433594 10.703125 C 297.808594 10.703125 297.902344 11.015625 297.902344 11.390625 C 297.902344 11.640625 297.777344 12.171875 297.652344 12.546875 C 297.558594 12.921875 297.433594 13.484375 297.371094 13.796875 Z M 296.902344 15.578125 "/>
<path fill-rule="nonzero" fill="rgb(0%, 0%, 0%)" fill-opacity="1" d="M 389.527344 11.589844 C 389.714844 10.871094 389.746094 10.683594 391.246094 10.683594 C 391.683594 10.683594 391.871094 10.683594 391.871094 10.277344 C 391.871094 10.058594 391.683594 10.058594 391.339844 10.058594 L 388.714844 10.058594 C 388.183594 10.058594 388.152344 10.058594 387.933594 10.433594 L 380.652344 21.808594 L 379.089844 10.527344 C 379.027344 10.058594 378.996094 10.058594 378.464844 10.058594 L 375.746094 10.058594 C 375.371094 10.058594 375.152344 10.058594 375.152344 10.433594 C 375.152344 10.683594 375.339844 10.683594 375.714844 10.683594 C 375.996094 10.683594 376.339844 10.714844 376.589844 10.714844 C 376.902344 10.777344 377.027344 10.808594 377.027344 11.058594 C 377.027344 11.121094 376.996094 11.183594 376.933594 11.433594 L 374.402344 21.558594 C 374.214844 22.371094 373.871094 22.996094 372.246094 23.058594 C 372.152344 23.058594 371.902344 23.089844 371.902344 23.433594 C 371.902344 23.621094 372.027344 23.683594 372.183594 23.683594 C 372.808594 23.683594 373.496094 23.621094 374.183594 23.621094 C 374.839844 23.621094 375.558594 23.683594 376.214844 23.683594 C 376.308594 23.683594 376.589844 23.683594 376.589844 23.277344 C 376.589844 23.058594 376.371094 23.058594 376.214844 23.058594 C 375.089844 23.058594 374.871094 22.652344 374.871094 22.183594 C 374.871094 22.058594 374.871094 21.933594 374.933594 21.714844 L 377.652344 10.871094 L 377.683594 10.871094 L 379.402344 23.214844 C 379.433594 23.464844 379.464844 23.683594 379.683594 23.683594 C 379.902344 23.683594 380.027344 23.464844 380.121094 23.339844 L 388.183594 10.714844 L 388.214844 10.714844 L 385.339844 22.121094 C 385.152344 22.902344 385.121094 23.058594 383.527344 23.058594 C 383.214844 23.058594 382.996094 23.058594 382.996094 23.433594 C 382.996094 23.683594 383.214844 23.683594 383.277344 23.683594 C 383.839844 23.683594 385.183594 23.621094 385.746094 23.621094 C 386.558594 23.621094 387.433594 23.683594 388.246094 23.683594 C 388.371094 23.683594 388.621094 23.683594 388.621094 23.277344 C 388.621094 23.058594 388.433594 23.058594 388.058594 23.058594 C 387.339844 23.058594 386.777344 23.058594 386.777344 22.714844 C 386.777344 22.621094 386.777344 22.589844 386.871094 22.214844 Z M 389.527344 11.589844 "/>
<path fill-rule="nonzero" fill="rgb(0%, 0%, 0%)" fill-opacity="1" d="M 392.074219 25.796875 C 392.042969 25.984375 391.949219 26.328125 391.949219 26.359375 C 391.949219 26.671875 392.199219 26.796875 392.417969 26.796875 C 392.667969 26.796875 392.886719 26.640625 392.980469 26.515625 C 393.042969 26.390625 393.136719 25.921875 393.230469 25.640625 C 393.292969 25.390625 393.449219 24.734375 393.511719 24.390625 C 393.605469 24.078125 393.699219 23.765625 393.761719 23.453125 C 393.917969 22.890625 393.949219 22.765625 394.355469 22.203125 C 394.730469 21.640625 395.386719 20.921875 396.449219 20.921875 C 397.230469 20.921875 397.261719 21.640625 397.261719 21.890625 C 397.261719 22.734375 396.667969 24.265625 396.449219 24.859375 C 396.292969 25.265625 396.230469 25.390625 396.230469 25.609375 C 396.230469 26.359375 396.824219 26.796875 397.542969 26.796875 C 398.949219 26.796875 399.542969 24.890625 399.542969 24.671875 C 399.542969 24.484375 399.386719 24.484375 399.324219 24.484375 C 399.136719 24.484375 399.136719 24.578125 399.074219 24.734375 C 398.761719 25.859375 398.136719 26.421875 397.605469 26.421875 C 397.292969 26.421875 397.230469 26.234375 397.230469 25.921875 C 397.230469 25.609375 397.324219 25.421875 397.574219 24.796875 C 397.730469 24.359375 398.292969 22.890625 398.292969 22.109375 C 398.292969 20.765625 397.230469 20.515625 396.480469 20.515625 C 395.324219 20.515625 394.542969 21.234375 394.136719 21.796875 C 394.042969 20.828125 393.230469 20.515625 392.636719 20.515625 C 392.042969 20.515625 391.730469 20.953125 391.542969 21.265625 C 391.230469 21.796875 391.042969 22.578125 391.042969 22.671875 C 391.042969 22.828125 391.230469 22.828125 391.292969 22.828125 C 391.480469 22.828125 391.480469 22.796875 391.574219 22.421875 C 391.792969 21.609375 392.074219 20.921875 392.605469 20.921875 C 392.980469 20.921875 393.074219 21.234375 393.074219 21.609375 C 393.074219 21.859375 392.949219 22.390625 392.824219 22.765625 C 392.730469 23.140625 392.605469 23.703125 392.542969 24.015625 Z M 392.074219 25.796875 "/>
<path fill-rule="nonzero" fill="rgb(0%, 0%, 0%)" fill-opacity="1" d="M 12.398438 87.523438 C 12.398438 86.960938 11.929688 86.492188 11.367188 86.492188 C 10.773438 86.492188 10.304688 86.960938 10.304688 87.523438 C 10.304688 88.117188 10.773438 88.585938 11.367188 88.585938 C 11.929688 88.585938 12.398438 88.117188 12.398438 87.523438 Z M 12.398438 87.523438 "/>
<path fill-rule="nonzero" fill="rgb(0%, 0%, 0%)" fill-opacity="1" d="M 21.222656 87.523438 C 21.222656 86.960938 20.753906 86.492188 20.191406 86.492188 C 19.597656 86.492188 19.128906 86.960938 19.128906 87.523438 C 19.128906 88.117188 19.597656 88.585938 20.191406 88.585938 C 20.753906 88.585938 21.222656 88.117188 21.222656 87.523438 Z M 21.222656 87.523438 "/>
<path fill-rule="nonzero" fill="rgb(0%, 0%, 0%)" fill-opacity="1" d="M 30.070312 87.523438 C 30.070312 86.960938 29.601562 86.492188 29.039062 86.492188 C 28.445312 86.492188 27.976562 86.960938 27.976562 87.523438 C 27.976562 88.117188 28.445312 88.585938 29.039062 88.585938 C 29.601562 88.585938 30.070312 88.117188 30.070312 87.523438 Z M 30.070312 87.523438 "/>
<path fill-rule="nonzero" fill="rgb(0%, 0%, 0%)" fill-opacity="1" d="M 106.367188 88.335938 L 102.554688 79.273438 C 102.398438 78.867188 102.398438 78.867188 101.835938 78.867188 L 98.148438 78.867188 C 97.773438 78.867188 97.492188 78.867188 97.492188 79.210938 C 97.492188 79.554688 97.835938 79.554688 97.929688 79.554688 C 98.179688 79.554688 98.710938 79.617188 99.148438 79.773438 L 99.148438 90.398438 C 99.148438 90.835938 99.148438 91.710938 97.804688 91.835938 C 97.429688 91.867188 97.429688 92.148438 97.429688 92.179688 C 97.429688 92.523438 97.742188 92.523438 98.117188 92.523438 L 101.179688 92.523438 C 101.554688 92.523438 101.835938 92.523438 101.835938 92.179688 C 101.835938 91.992188 101.679688 91.835938 101.523438 91.835938 C 99.992188 91.710938 99.992188 90.867188 99.992188 90.398438 L 99.992188 80.492188 L 100.023438 80.460938 L 104.867188 92.117188 C 105.054688 92.460938 105.179688 92.523438 105.304688 92.523438 C 105.554688 92.523438 105.585938 92.367188 105.710938 92.117188 L 110.585938 80.460938 L 110.617188 80.492188 L 110.617188 90.398438 C 110.617188 90.835938 110.617188 91.710938 109.242188 91.835938 C 108.867188 91.867188 108.867188 92.148438 108.867188 92.179688 C 108.867188 92.523438 109.179688 92.523438 109.554688 92.523438 L 114.867188 92.523438 C 115.242188 92.523438 115.523438 92.523438 115.523438 92.179688 C 115.523438 91.992188 115.367188 91.835938 115.210938 91.835938 C 113.679688 91.710938 113.679688 90.867188 113.679688 90.398438 L 113.679688 80.992188 C 113.679688 80.554688 113.679688 79.679688 115.023438 79.554688 C 115.242188 79.554688 115.398438 79.429688 115.398438 79.210938 C 115.398438 78.867188 115.117188 78.867188 114.742188 78.867188 L 110.898438 78.867188 C 110.398438 78.867188 110.335938 78.867188 110.179688 79.273438 Z M 105.773438 88.710938 C 105.929688 89.023438 105.960938 89.054688 106.210938 89.148438 L 105.304688 91.242188 L 105.273438 91.242188 L 100.742188 80.398438 C 100.648438 80.148438 100.460938 79.804688 100.210938 79.554688 L 101.929688 79.554688 Z M 99.742188 91.835938 L 99.429688 91.835938 C 99.460938 91.773438 99.492188 91.710938 99.523438 91.679688 C 99.554688 91.648438 99.554688 91.617188 99.585938 91.617188 Z M 111.304688 79.554688 L 113.429688 79.554688 C 112.960938 80.054688 112.960938 80.585938 112.960938 80.929688 L 112.960938 90.460938 C 112.960938 90.804688 112.960938 91.335938 113.429688 91.835938 L 110.867188 91.835938 C 111.304688 91.335938 111.304688 90.804688 111.304688 90.460938 Z M 111.304688 79.554688 "/>
<path fill-rule="nonzero" fill="rgb(0%, 0%, 0%)" fill-opacity="1" d="M 117.589844 94.636719 C 117.558594 94.824219 117.464844 95.167969 117.464844 95.199219 C 117.464844 95.511719 117.714844 95.636719 117.933594 95.636719 C 118.183594 95.636719 118.402344 95.480469 118.496094 95.355469 C 118.558594 95.230469 118.652344 94.761719 118.746094 94.480469 C 118.808594 94.230469 118.964844 93.574219 119.027344 93.230469 C 119.121094 92.917969 119.214844 92.605469 119.277344 92.292969 C 119.433594 91.730469 119.464844 91.605469 119.871094 91.042969 C 120.246094 90.480469 120.902344 89.761719 121.964844 89.761719 C 122.746094 89.761719 122.777344 90.480469 122.777344 90.730469 C 122.777344 91.574219 122.183594 93.105469 121.964844 93.699219 C 121.808594 94.105469 121.746094 94.230469 121.746094 94.449219 C 121.746094 95.199219 122.339844 95.636719 123.058594 95.636719 C 124.464844 95.636719 125.058594 93.730469 125.058594 93.511719 C 125.058594 93.324219 124.902344 93.324219 124.839844 93.324219 C 124.652344 93.324219 124.652344 93.417969 124.589844 93.574219 C 124.277344 94.699219 123.652344 95.261719 123.121094 95.261719 C 122.808594 95.261719 122.746094 95.074219 122.746094 94.761719 C 122.746094 94.449219 122.839844 94.261719 123.089844 93.636719 C 123.246094 93.199219 123.808594 91.730469 123.808594 90.949219 C 123.808594 89.605469 122.746094 89.355469 121.996094 89.355469 C 120.839844 89.355469 120.058594 90.074219 119.652344 90.636719 C 119.558594 89.667969 118.746094 89.355469 118.152344 89.355469 C 117.558594 89.355469 117.246094 89.792969 117.058594 90.105469 C 116.746094 90.636719 116.558594 91.417969 116.558594 91.511719 C 116.558594 91.667969 116.746094 91.667969 116.808594 91.667969 C 116.996094 91.667969 116.996094 91.636719 117.089844 91.261719 C 117.308594 90.449219 117.589844 89.761719 118.121094 89.761719 C 118.496094 89.761719 118.589844 90.074219 118.589844 90.449219 C 118.589844 90.699219 118.464844 91.230469 118.339844 91.605469 C 118.246094 91.980469 118.121094 92.542969 118.058594 92.855469 Z M 117.589844 94.636719 "/>
<path fill-rule="nonzero" fill="rgb(0%, 0%, 0%)" fill-opacity="1" d="M 136.128906 92.355469 C 136.347656 92.355469 136.691406 92.355469 136.691406 92.042969 C 136.691406 91.667969 136.347656 91.667969 136.128906 91.667969 L 127.816406 91.667969 C 127.597656 91.667969 127.253906 91.667969 127.253906 92.011719 C 127.253906 92.355469 127.566406 92.355469 127.816406 92.355469 Z M 136.128906 92.355469 "/>
<path fill-rule="nonzero" fill="rgb(0%, 0%, 0%)" fill-opacity="1" d="M 145.238281 92.980469 L 144.769531 92.980469 C 144.738281 93.292969 144.582031 94.105469 144.394531 94.230469 C 144.300781 94.324219 143.238281 94.324219 143.019531 94.324219 L 140.457031 94.324219 C 141.925781 93.042969 142.425781 92.636719 143.238281 91.980469 C 144.269531 91.167969 145.238281 90.292969 145.238281 88.980469 C 145.238281 87.292969 143.769531 86.261719 141.988281 86.261719 C 140.269531 86.261719 139.082031 87.480469 139.082031 88.761719 C 139.082031 89.449219 139.675781 89.542969 139.832031 89.542969 C 140.144531 89.542969 140.550781 89.292969 140.550781 88.792969 C 140.550781 88.542969 140.457031 88.042969 139.738281 88.042969 C 140.175781 87.074219 141.113281 86.761719 141.769531 86.761719 C 143.175781 86.761719 143.894531 87.855469 143.894531 88.980469 C 143.894531 90.199219 143.019531 91.136719 142.582031 91.636719 L 139.238281 94.980469 C 139.082031 95.105469 139.082031 95.136719 139.082031 95.511719 L 144.832031 95.511719 Z M 145.238281 92.980469 "/>
<path fill-rule="nonzero" fill="rgb(0%, 0%, 0%)" fill-opacity="1" d="M 243.480469 88.335938 L 239.667969 79.273438 C 239.511719 78.867188 239.511719 78.867188 238.949219 78.867188 L 235.261719 78.867188 C 234.886719 78.867188 234.605469 78.867188 234.605469 79.210938 C 234.605469 79.554688 234.949219 79.554688 235.042969 79.554688 C 235.292969 79.554688 235.824219 79.617188 236.261719 79.773438 L 236.261719 90.398438 C 236.261719 90.835938 236.261719 91.710938 234.917969 91.835938 C 234.542969 91.867188 234.542969 92.148438 234.542969 92.179688 C 234.542969 92.523438 234.855469 92.523438 235.230469 92.523438 L 238.292969 92.523438 C 238.667969 92.523438 238.949219 92.523438 238.949219 92.179688 C 238.949219 91.992188 238.792969 91.835938 238.636719 91.835938 C 237.105469 91.710938 237.105469 90.867188 237.105469 90.398438 L 237.105469 80.492188 L 237.136719 80.460938 L 241.980469 92.117188 C 242.167969 92.460938 242.292969 92.523438 242.417969 92.523438 C 242.667969 92.523438 242.699219 92.367188 242.824219 92.117188 L 247.699219 80.460938 L 247.730469 80.492188 L 247.730469 90.398438 C 247.730469 90.835938 247.730469 91.710938 246.355469 91.835938 C 245.980469 91.867188 245.980469 92.148438 245.980469 92.179688 C 245.980469 92.523438 246.292969 92.523438 246.667969 92.523438 L 251.980469 92.523438 C 252.355469 92.523438 252.636719 92.523438 252.636719 92.179688 C 252.636719 91.992188 252.480469 91.835938 252.324219 91.835938 C 250.792969 91.710938 250.792969 90.867188 250.792969 90.398438 L 250.792969 80.992188 C 250.792969 80.554688 250.792969 79.679688 252.136719 79.554688 C 252.355469 79.554688 252.511719 79.429688 252.511719 79.210938 C 252.511719 78.867188 252.230469 78.867188 251.855469 78.867188 L 248.011719 78.867188 C 247.511719 78.867188 247.449219 78.867188 247.292969 79.273438 Z M 242.886719 88.710938 C 243.042969 89.023438 243.074219 89.054688 243.324219 89.148438 L 242.417969 91.242188 L 242.386719 91.242188 L 237.855469 80.398438 C 237.761719 80.148438 237.574219 79.804688 237.324219 79.554688 L 239.042969 79.554688 Z M 236.855469 91.835938 L 236.542969 91.835938 C 236.574219 91.773438 236.605469 91.710938 236.636719 91.679688 C 236.667969 91.648438 236.667969 91.617188 236.699219 91.617188 Z M 248.417969 79.554688 L 250.542969 79.554688 C 250.074219 80.054688 250.074219 80.585938 250.074219 80.929688 L 250.074219 90.460938 C 250.074219 90.804688 250.074219 91.335938 250.542969 91.835938 L 247.980469 91.835938 C 248.417969 91.335938 248.417969 90.804688 248.417969 90.460938 Z M 248.417969 79.554688 "/>
<path fill-rule="nonzero" fill="rgb(0%, 0%, 0%)" fill-opacity="1" d="M 254.703125 94.636719 C 254.671875 94.824219 254.578125 95.167969 254.578125 95.199219 C 254.578125 95.511719 254.828125 95.636719 255.046875 95.636719 C 255.296875 95.636719 255.515625 95.480469 255.609375 95.355469 C 255.671875 95.230469 255.765625 94.761719 255.859375 94.480469 C 255.921875 94.230469 256.078125 93.574219 256.140625 93.230469 C 256.234375 92.917969 256.328125 92.605469 256.390625 92.292969 C 256.546875 91.730469 256.578125 91.605469 256.984375 91.042969 C 257.359375 90.480469 258.015625 89.761719 259.078125 89.761719 C 259.859375 89.761719 259.890625 90.480469 259.890625 90.730469 C 259.890625 91.574219 259.296875 93.105469 259.078125 93.699219 C 258.921875 94.105469 258.859375 94.230469 258.859375 94.449219 C 258.859375 95.199219 259.453125 95.636719 260.171875 95.636719 C 261.578125 95.636719 262.171875 93.730469 262.171875 93.511719 C 262.171875 93.324219 262.015625 93.324219 261.953125 93.324219 C 261.765625 93.324219 261.765625 93.417969 261.703125 93.574219 C 261.390625 94.699219 260.765625 95.261719 260.234375 95.261719 C 259.921875 95.261719 259.859375 95.074219 259.859375 94.761719 C 259.859375 94.449219 259.953125 94.261719 260.203125 93.636719 C 260.359375 93.199219 260.921875 91.730469 260.921875 90.949219 C 260.921875 89.605469 259.859375 89.355469 259.109375 89.355469 C 257.953125 89.355469 257.171875 90.074219 256.765625 90.636719 C 256.671875 89.667969 255.859375 89.355469 255.265625 89.355469 C 254.671875 89.355469 254.359375 89.792969 254.171875 90.105469 C 253.859375 90.636719 253.671875 91.417969 253.671875 91.511719 C 253.671875 91.667969 253.859375 91.667969 253.921875 91.667969 C 254.109375 91.667969 254.109375 91.636719 254.203125 91.261719 C 254.421875 90.449219 254.703125 89.761719 255.234375 89.761719 C 255.609375 89.761719 255.703125 90.074219 255.703125 90.449219 C 255.703125 90.699219 255.578125 91.230469 255.453125 91.605469 C 255.359375 91.980469 255.234375 92.542969 255.171875 92.855469 Z M 254.703125 94.636719 "/>
<path fill-rule="nonzero" fill="rgb(0%, 0%, 0%)" fill-opacity="1" d="M 273.242188 92.355469 C 273.460938 92.355469 273.804688 92.355469 273.804688 92.042969 C 273.804688 91.667969 273.460938 91.667969 273.242188 91.667969 L 264.929688 91.667969 C 264.710938 91.667969 264.367188 91.667969 264.367188 92.011719 C 264.367188 92.355469 264.679688 92.355469 264.929688 92.355469 Z M 273.242188 92.355469 "/>
<path fill-rule="nonzero" fill="rgb(0%, 0%, 0%)" fill-opacity="1" d="M 279.976562 86.636719 C 279.976562 86.261719 279.976562 86.261719 279.570312 86.261719 C 278.664062 87.136719 277.414062 87.136719 276.851562 87.136719 L 276.851562 87.636719 C 277.164062 87.636719 278.101562 87.636719 278.851562 87.261719 L 278.851562 94.355469 C 278.851562 94.824219 278.851562 95.011719 277.476562 95.011719 L 276.945312 95.011719 L 276.945312 95.511719 C 277.195312 95.511719 278.914062 95.449219 279.414062 95.449219 C 279.851562 95.449219 281.601562 95.511719 281.914062 95.511719 L 281.914062 95.011719 L 281.382812 95.011719 C 279.976562 95.011719 279.976562 94.824219 279.976562 94.355469 Z M 279.976562 86.636719 "/>
<path fill-rule="nonzero" fill="rgb(0%, 0%, 0%)" fill-opacity="1" d="M 380.59375 88.335938 L 376.78125 79.273438 C 376.625 78.867188 376.625 78.867188 376.0625 78.867188 L 372.375 78.867188 C 372 78.867188 371.71875 78.867188 371.71875 79.210938 C 371.71875 79.554688 372.0625 79.554688 372.15625 79.554688 C 372.40625 79.554688 372.9375 79.617188 373.375 79.773438 L 373.375 90.398438 C 373.375 90.835938 373.375 91.710938 372.03125 91.835938 C 371.65625 91.867188 371.65625 92.148438 371.65625 92.179688 C 371.65625 92.523438 371.96875 92.523438 372.34375 92.523438 L 375.40625 92.523438 C 375.78125 92.523438 376.0625 92.523438 376.0625 92.179688 C 376.0625 91.992188 375.90625 91.835938 375.75 91.835938 C 374.21875 91.710938 374.21875 90.867188 374.21875 90.398438 L 374.21875 80.492188 L 374.25 80.460938 L 379.09375 92.117188 C 379.28125 92.460938 379.40625 92.523438 379.53125 92.523438 C 379.78125 92.523438 379.8125 92.367188 379.9375 92.117188 L 384.8125 80.460938 L 384.84375 80.492188 L 384.84375 90.398438 C 384.84375 90.835938 384.84375 91.710938 383.46875 91.835938 C 383.09375 91.867188 383.09375 92.148438 383.09375 92.179688 C 383.09375 92.523438 383.40625 92.523438 383.78125 92.523438 L 389.09375 92.523438 C 389.46875 92.523438 389.75 92.523438 389.75 92.179688 C 389.75 91.992188 389.59375 91.835938 389.4375 91.835938 C 387.90625 91.710938 387.90625 90.867188 387.90625 90.398438 L 387.90625 80.992188 C 387.90625 80.554688 387.90625 79.679688 389.25 79.554688 C 389.46875 79.554688 389.625 79.429688 389.625 79.210938 C 389.625 78.867188 389.34375 78.867188 388.96875 78.867188 L 385.125 78.867188 C 384.625 78.867188 384.5625 78.867188 384.40625 79.273438 Z M 380 88.710938 C 380.15625 89.023438 380.1875 89.054688 380.4375 89.148438 L 379.53125 91.242188 L 379.5 91.242188 L 374.96875 80.398438 C 374.875 80.148438 374.6875 79.804688 374.4375 79.554688 L 376.15625 79.554688 Z M 373.96875 91.835938 L 373.65625 91.835938 C 373.6875 91.773438 373.71875 91.710938 373.75 91.679688 C 373.78125 91.648438 373.78125 91.617188 373.8125 91.617188 Z M 385.53125 79.554688 L 387.65625 79.554688 C 387.1875 80.054688 387.1875 80.585938 387.1875 80.929688 L 387.1875 90.460938 C 387.1875 90.804688 387.1875 91.335938 387.65625 91.835938 L 385.09375 91.835938 C 385.53125 91.335938 385.53125 90.804688 385.53125 90.460938 Z M 385.53125 79.554688 "/>
<path fill-rule="nonzero" fill="rgb(0%, 0%, 0%)" fill-opacity="1" d="M 391.820312 94.636719 C 391.789062 94.824219 391.695312 95.167969 391.695312 95.199219 C 391.695312 95.511719 391.945312 95.636719 392.164062 95.636719 C 392.414062 95.636719 392.632812 95.480469 392.726562 95.355469 C 392.789062 95.230469 392.882812 94.761719 392.976562 94.480469 C 393.039062 94.230469 393.195312 93.574219 393.257812 93.230469 C 393.351562 92.917969 393.445312 92.605469 393.507812 92.292969 C 393.664062 91.730469 393.695312 91.605469 394.101562 91.042969 C 394.476562 90.480469 395.132812 89.761719 396.195312 89.761719 C 396.976562 89.761719 397.007812 90.480469 397.007812 90.730469 C 397.007812 91.574219 396.414062 93.105469 396.195312 93.699219 C 396.039062 94.105469 395.976562 94.230469 395.976562 94.449219 C 395.976562 95.199219 396.570312 95.636719 397.289062 95.636719 C 398.695312 95.636719 399.289062 93.730469 399.289062 93.511719 C 399.289062 93.324219 399.132812 93.324219 399.070312 93.324219 C 398.882812 93.324219 398.882812 93.417969 398.820312 93.574219 C 398.507812 94.699219 397.882812 95.261719 397.351562 95.261719 C 397.039062 95.261719 396.976562 95.074219 396.976562 94.761719 C 396.976562 94.449219 397.070312 94.261719 397.320312 93.636719 C 397.476562 93.199219 398.039062 91.730469 398.039062 90.949219 C 398.039062 89.605469 396.976562 89.355469 396.226562 89.355469 C 395.070312 89.355469 394.289062 90.074219 393.882812 90.636719 C 393.789062 89.667969 392.976562 89.355469 392.382812 89.355469 C 391.789062 89.355469 391.476562 89.792969 391.289062 90.105469 C 390.976562 90.636719 390.789062 91.417969 390.789062 91.511719 C 390.789062 91.667969 390.976562 91.667969 391.039062 91.667969 C 391.226562 91.667969 391.226562 91.636719 391.320312 91.261719 C 391.539062 90.449219 391.820312 89.761719 392.351562 89.761719 C 392.726562 89.761719 392.820312 90.074219 392.820312 90.449219 C 392.820312 90.699219 392.695312 91.230469 392.570312 91.605469 C 392.476562 91.980469 392.351562 92.542969 392.289062 92.855469 Z M 391.820312 94.636719 "/>
<path fill-rule="nonzero" fill="rgb(0%, 0%, 0%)" fill-opacity="1" d="M 114.300781 156.253906 C 114.300781 155.691406 113.832031 155.222656 113.269531 155.222656 C 112.675781 155.222656 112.207031 155.691406 112.207031 156.253906 C 112.207031 156.847656 112.675781 157.316406 113.269531 157.316406 C 113.832031 157.316406 114.300781 156.847656 114.300781 156.253906 Z M 114.300781 156.253906 "/>
<path fill-rule="nonzero" fill="rgb(0%, 0%, 0%)" fill-opacity="1" d="M 123.128906 156.253906 C 123.128906 155.691406 122.660156 155.222656 122.097656 155.222656 C 121.503906 155.222656 121.035156 155.691406 121.035156 156.253906 C 121.035156 156.847656 121.503906 157.316406 122.097656 157.316406 C 122.660156 157.316406 123.128906 156.847656 123.128906 156.253906 Z M 123.128906 156.253906 "/>
<path fill-rule="nonzero" fill="rgb(0%, 0%, 0%)" fill-opacity="1" d="M 131.976562 156.253906 C 131.976562 155.691406 131.507812 155.222656 130.945312 155.222656 C 130.351562 155.222656 129.882812 155.691406 129.882812 156.253906 C 129.882812 156.847656 130.351562 157.316406 130.945312 157.316406 C 131.507812 157.316406 131.976562 156.847656 131.976562 156.253906 Z M 131.976562 156.253906 "/>
<path fill-rule="nonzero" fill="rgb(0%, 0%, 0%)" fill-opacity="1" d="M 252.410156 149.160156 C 252.597656 148.441406 252.628906 148.253906 254.128906 148.253906 C 254.566406 148.253906 254.753906 148.253906 254.753906 147.847656 C 254.753906 147.628906 254.566406 147.628906 254.222656 147.628906 L 251.597656 147.628906 C 251.066406 147.628906 251.035156 147.628906 250.816406 148.003906 L 243.535156 159.378906 L 241.972656 148.097656 C 241.910156 147.628906 241.878906 147.628906 241.347656 147.628906 L 238.628906 147.628906 C 238.253906 147.628906 238.035156 147.628906 238.035156 148.003906 C 238.035156 148.253906 238.222656 148.253906 238.597656 148.253906 C 238.878906 148.253906 239.222656 148.285156 239.472656 148.285156 C 239.785156 148.347656 239.910156 148.378906 239.910156 148.628906 C 239.910156 148.691406 239.878906 148.753906 239.816406 149.003906 L 237.285156 159.128906 C 237.097656 159.941406 236.753906 160.566406 235.128906 160.628906 C 235.035156 160.628906 234.785156 160.660156 234.785156 161.003906 C 234.785156 161.191406 234.910156 161.253906 235.066406 161.253906 C 235.691406 161.253906 236.378906 161.191406 237.066406 161.191406 C 237.722656 161.191406 238.441406 161.253906 239.097656 161.253906 C 239.191406 161.253906 239.472656 161.253906 239.472656 160.847656 C 239.472656 160.628906 239.253906 160.628906 239.097656 160.628906 C 237.972656 160.628906 237.753906 160.222656 237.753906 159.753906 C 237.753906 159.628906 237.753906 159.503906 237.816406 159.285156 L 240.535156 148.441406 L 240.566406 148.441406 L 242.285156 160.785156 C 242.316406 161.035156 242.347656 161.253906 242.566406 161.253906 C 242.785156 161.253906 242.910156 161.035156 243.003906 160.910156 L 251.066406 148.285156 L 251.097656 148.285156 L 248.222656 159.691406 C 248.035156 160.472656 248.003906 160.628906 246.410156 160.628906 C 246.097656 160.628906 245.878906 160.628906 245.878906 161.003906 C 245.878906 161.253906 246.097656 161.253906 246.160156 161.253906 C 246.722656 161.253906 248.066406 161.191406 248.628906 161.191406 C 249.441406 161.191406 250.316406 161.253906 251.128906 161.253906 C 251.253906 161.253906 251.503906 161.253906 251.503906 160.847656 C 251.503906 160.628906 251.316406 160.628906 250.941406 160.628906 C 250.222656 160.628906 249.660156 160.628906 249.660156 160.285156 C 249.660156 160.191406 249.660156 160.160156 249.753906 159.785156 Z M 252.410156 149.160156 "/>
<path fill-rule="nonzero" fill="rgb(0%, 0%, 0%)" fill-opacity="1" d="M 254.960938 163.363281 C 254.929688 163.550781 254.835938 163.894531 254.835938 163.925781 C 254.835938 164.238281 255.085938 164.363281 255.304688 164.363281 C 255.554688 164.363281 255.773438 164.207031 255.867188 164.082031 C 255.929688 163.957031 256.023438 163.488281 256.117188 163.207031 C 256.179688 162.957031 256.335938 162.300781 256.398438 161.957031 C 256.492188 161.644531 256.585938 161.332031 256.648438 161.019531 C 256.804688 160.457031 256.835938 160.332031 257.242188 159.769531 C 257.617188 159.207031 258.273438 158.488281 259.335938 158.488281 C 260.117188 158.488281 260.148438 159.207031 260.148438 159.457031 C 260.148438 160.300781 259.554688 161.832031 259.335938 162.425781 C 259.179688 162.832031 259.117188 162.957031 259.117188 163.175781 C 259.117188 163.925781 259.710938 164.363281 260.429688 164.363281 C 261.835938 164.363281 262.429688 162.457031 262.429688 162.238281 C 262.429688 162.050781 262.273438 162.050781 262.210938 162.050781 C 262.023438 162.050781 262.023438 162.144531 261.960938 162.300781 C 261.648438 163.425781 261.023438 163.988281 260.492188 163.988281 C 260.179688 163.988281 260.117188 163.800781 260.117188 163.488281 C 260.117188 163.175781 260.210938 162.988281 260.460938 162.363281 C 260.617188 161.925781 261.179688 160.457031 261.179688 159.675781 C 261.179688 158.332031 260.117188 158.082031 259.367188 158.082031 C 258.210938 158.082031 257.429688 158.800781 257.023438 159.363281 C 256.929688 158.394531 256.117188 158.082031 255.523438 158.082031 C 254.929688 158.082031 254.617188 158.519531 254.429688 158.832031 C 254.117188 159.363281 253.929688 160.144531 253.929688 160.238281 C 253.929688 160.394531 254.117188 160.394531 254.179688 160.394531 C 254.367188 160.394531 254.367188 160.363281 254.460938 159.988281 C 254.679688 159.175781 254.960938 158.488281 255.492188 158.488281 C 255.867188 158.488281 255.960938 158.800781 255.960938 159.175781 C 255.960938 159.425781 255.835938 159.957031 255.710938 160.332031 C 255.617188 160.707031 255.492188 161.269531 255.429688 161.582031 Z M 254.960938 163.363281 "/>
<path fill-rule="nonzero" fill="rgb(0%, 0%, 0%)" fill-opacity="1" d="M 273.496094 161.082031 C 273.714844 161.082031 274.058594 161.082031 274.058594 160.769531 C 274.058594 160.394531 273.714844 160.394531 273.496094 160.394531 L 265.183594 160.394531 C 264.964844 160.394531 264.621094 160.394531 264.621094 160.738281 C 264.621094 161.082031 264.933594 161.082031 265.183594 161.082031 Z M 273.496094 161.082031 "/>
<path fill-rule="nonzero" fill="rgb(0%, 0%, 0%)" fill-opacity="1" d="M 280.230469 155.363281 C 280.230469 154.988281 280.230469 154.988281 279.824219 154.988281 C 278.917969 155.863281 277.667969 155.863281 277.105469 155.863281 L 277.105469 156.363281 C 277.417969 156.363281 278.355469 156.363281 279.105469 155.988281 L 279.105469 163.082031 C 279.105469 163.550781 279.105469 163.738281 277.730469 163.738281 L 277.199219 163.738281 L 277.199219 164.238281 C 277.449219 164.238281 279.167969 164.175781 279.667969 164.175781 C 280.105469 164.175781 281.855469 164.238281 282.167969 164.238281 L 282.167969 163.738281 L 281.636719 163.738281 C 280.230469 163.738281 280.230469 163.550781 280.230469 163.082031 Z M 280.230469 155.363281 "/>
<path fill="none" stroke-width="0.39848" stroke-linecap="butt" stroke-linejoin="miter" stroke="rgb(0%, 0%, 0%)" stroke-opacity="1" stroke-miterlimit="10" d="M -82.045845 34.588345 L -58.932564 34.588345 " transform="matrix(2, 0, 0, -2, 204.912003, 87.872002)"/>
<path fill="none" stroke-width="0.39848" stroke-linecap="round" stroke-linejoin="round" stroke="rgb(0%, 0%, 0%)" stroke-opacity="1" stroke-miterlimit="10" d="M -2.073563 2.392319 C -1.694656 0.954819 -0.850906 0.279037 0.000656128 0.00169373 C -0.850906 -0.279556 -1.694656 -0.955338 -2.073563 -2.392838 " transform="matrix(2, 0, 0, -2, 87.444, 18.6987)"/>
<path fill="none" stroke-width="0.39848" stroke-linecap="butt" stroke-linejoin="miter" stroke="rgb(0%, 0%, 0%)" stroke-opacity="1" stroke-miterlimit="10" d="M -41.397408 25.920376 L -41.397408 8.787563 " transform="matrix(2, 0, 0, -2, 204.912003, 87.872002)"/>
<path fill="none" stroke-width="0.39848" stroke-linecap="round" stroke-linejoin="round" stroke="rgb(0%, 0%, 0%)" stroke-opacity="1" stroke-miterlimit="10" d="M -2.071728 2.391598 C -1.692822 0.958004 -0.849072 0.278316 -0.00141525 0.000972748 C -0.849072 -0.280277 -1.692822 -0.956059 -2.071728 -2.389652 " transform="matrix(0, 2, 2, 0, 122.115242, 70.698143)"/>
<path fill-rule="nonzero" fill="rgb(0%, 0%, 0%)" fill-opacity="1" d="M 131.308594 49.875 C 132.464844 49.375 132.964844 49.1875 133.308594 49 C 133.589844 48.90625 133.714844 48.84375 133.714844 48.5625 C 133.714844 48.34375 133.527344 48.125 133.277344 48.125 C 133.183594 48.125 133.152344 48.125 132.996094 48.25 L 131.089844 49.53125 L 131.308594 47.46875 C 131.339844 47.21875 131.308594 46.875 130.871094 46.875 C 130.714844 46.875 130.433594 46.96875 130.433594 47.28125 C 130.433594 47.40625 130.496094 47.8125 130.527344 47.96875 C 130.558594 48.1875 130.652344 49.21875 130.683594 49.53125 L 128.777344 48.25 C 128.652344 48.1875 128.621094 48.125 128.496094 48.125 C 128.214844 48.125 128.058594 48.34375 128.058594 48.5625 C 128.058594 48.84375 128.214844 48.9375 128.339844 48.96875 L 130.433594 49.875 C 129.308594 50.375 128.777344 50.5625 128.433594 50.71875 C 128.183594 50.84375 128.058594 50.90625 128.058594 51.15625 C 128.058594 51.40625 128.214844 51.59375 128.496094 51.59375 C 128.589844 51.59375 128.621094 51.59375 128.777344 51.46875 L 130.683594 50.21875 L 130.433594 52.4375 C 130.433594 52.75 130.714844 52.875 130.871094 52.875 C 131.058594 52.875 131.308594 52.75 131.308594 52.4375 C 131.308594 52.3125 131.246094 51.90625 131.246094 51.78125 C 131.214844 51.53125 131.121094 50.53125 131.089844 50.21875 L 132.746094 51.3125 C 133.121094 51.59375 133.152344 51.59375 133.277344 51.59375 C 133.527344 51.59375 133.714844 51.40625 133.714844 51.15625 C 133.714844 50.875 133.527344 50.8125 133.402344 50.75 Z M 131.308594 49.875 "/>
<path fill-rule="nonzero" fill="rgb(0%, 0%, 0%)" fill-opacity="1" d="M 139.628906 53.308594 L 137.722656 48.777344 C 137.628906 48.558594 137.628906 48.558594 137.347656 48.558594 L 135.503906 48.558594 C 135.316406 48.558594 135.160156 48.558594 135.160156 48.746094 C 135.160156 48.933594 135.347656 48.933594 135.410156 48.933594 C 135.535156 48.933594 135.785156 48.933594 136.003906 49.027344 L 136.003906 54.339844 C 136.003906 54.558594 136.003906 54.996094 135.316406 55.058594 C 135.128906 55.058594 135.128906 55.214844 135.128906 55.214844 C 135.128906 55.402344 135.316406 55.402344 135.472656 55.402344 L 137.035156 55.402344 C 137.191406 55.402344 137.347656 55.402344 137.347656 55.214844 C 137.347656 55.121094 137.285156 55.058594 137.191406 55.058594 C 136.441406 54.996094 136.441406 54.589844 136.441406 54.339844 L 136.441406 49.371094 L 138.878906 55.183594 C 138.941406 55.371094 139.035156 55.402344 139.066406 55.402344 C 139.191406 55.402344 139.222656 55.308594 139.285156 55.214844 L 141.722656 49.371094 L 141.722656 54.339844 C 141.722656 54.558594 141.722656 54.996094 141.066406 55.058594 C 140.878906 55.058594 140.878906 55.214844 140.878906 55.214844 C 140.878906 55.402344 141.035156 55.402344 141.191406 55.402344 L 143.878906 55.402344 C 144.035156 55.402344 144.191406 55.402344 144.191406 55.214844 C 144.191406 55.121094 144.128906 55.058594 144.035156 55.058594 C 143.253906 54.996094 143.253906 54.589844 143.253906 54.339844 L 143.253906 49.621094 C 143.253906 49.433594 143.253906 48.996094 143.941406 48.933594 C 144.035156 48.902344 144.128906 48.871094 144.128906 48.746094 C 144.128906 48.558594 143.972656 48.558594 143.816406 48.558594 L 141.878906 48.558594 C 141.628906 48.558594 141.597656 48.558594 141.503906 48.777344 Z M 139.316406 53.496094 C 139.410156 53.652344 139.410156 53.652344 139.535156 53.714844 L 139.097656 54.777344 L 139.066406 54.777344 L 136.785156 49.339844 C 136.753906 49.214844 136.660156 49.027344 136.535156 48.933594 L 137.410156 48.933594 Z M 136.316406 55.058594 L 136.128906 55.058594 C 136.160156 55.027344 136.191406 54.996094 136.191406 54.964844 C 136.222656 54.964844 136.222656 54.964844 136.222656 54.933594 Z M 142.066406 48.933594 L 143.128906 48.933594 C 142.910156 49.183594 142.910156 49.433594 142.910156 49.621094 L 142.910156 54.371094 C 142.910156 54.558594 142.910156 54.808594 143.160156 55.058594 L 141.847656 55.058594 C 142.066406 54.808594 142.066406 54.558594 142.066406 54.371094 Z M 142.066406 48.933594 "/>
<path fill-rule="nonzero" fill="rgb(0%, 0%, 0%)" fill-opacity="1" d="M 146.316406 57.644531 C 146.253906 57.894531 146.160156 58.332031 146.160156 58.363281 C 146.160156 58.582031 146.347656 58.738281 146.535156 58.738281 C 146.660156 58.738281 146.878906 58.644531 147.003906 58.394531 C 147.003906 58.332031 147.128906 57.863281 147.191406 57.613281 C 147.535156 56.269531 147.535156 56.238281 147.535156 56.207031 C 147.691406 55.957031 148.410156 54.550781 149.597656 54.550781 C 150.097656 54.550781 150.316406 54.800781 150.316406 55.269531 C 150.316406 55.832031 149.878906 56.863281 149.660156 57.425781 C 149.597656 57.550781 149.566406 57.675781 149.566406 57.832031 C 149.566406 58.363281 150.066406 58.738281 150.660156 58.738281 C 151.722656 58.738281 152.253906 57.425781 152.253906 57.175781 C 152.253906 57.050781 152.097656 57.050781 152.066406 57.050781 C 151.878906 57.050781 151.878906 57.082031 151.816406 57.269531 C 151.628906 57.863281 151.160156 58.394531 150.691406 58.394531 C 150.472656 58.394531 150.378906 58.238281 150.378906 58.019531 C 150.378906 57.800781 150.441406 57.707031 150.535156 57.488281 C 150.691406 57.082031 151.160156 55.957031 151.160156 55.394531 C 151.160156 54.644531 150.628906 54.207031 149.660156 54.207031 C 148.753906 54.207031 148.128906 54.769531 147.785156 55.207031 C 147.753906 54.363281 146.941406 54.207031 146.566406 54.207031 C 145.566406 54.207031 145.285156 55.738281 145.285156 55.738281 C 145.285156 55.894531 145.441406 55.894531 145.503906 55.894531 C 145.660156 55.894531 145.691406 55.832031 145.722656 55.707031 C 145.878906 55.113281 146.097656 54.550781 146.535156 54.550781 C 146.847656 54.550781 146.941406 54.863281 146.941406 55.082031 C 146.941406 55.207031 146.816406 55.582031 146.785156 55.863281 C 146.691406 56.113281 146.597656 56.519531 146.566406 56.738281 Z M 146.316406 57.644531 "/>
<path fill-rule="nonzero" fill="rgb(0%, 0%, 0%)" fill-opacity="1" d="M 161.9375 56.394531 C 162.09375 56.394531 162.34375 56.394531 162.34375 56.113281 C 162.34375 55.832031 162.09375 55.832031 161.9375 55.832031 L 155.1875 55.832031 C 155.03125 55.832031 154.75 55.832031 154.75 56.113281 C 154.75 56.394531 155.03125 56.394531 155.1875 56.394531 Z M 161.9375 56.394531 "/>
<path fill-rule="nonzero" fill="rgb(0%, 0%, 0%)" fill-opacity="1" d="M 169.824219 56.675781 L 169.386719 56.675781 C 169.386719 56.863281 169.261719 57.488281 169.105469 57.582031 C 169.042969 57.644531 168.199219 57.644531 168.042969 57.644531 L 166.105469 57.644531 C 166.761719 57.175781 167.480469 56.613281 168.074219 56.207031 C 168.980469 55.582031 169.824219 55.019531 169.824219 53.957031 C 169.824219 52.675781 168.605469 51.988281 167.199219 51.988281 C 165.855469 51.988281 164.855469 52.738281 164.855469 53.738281 C 164.855469 54.238281 165.292969 54.332031 165.449219 54.332031 C 165.699219 54.332031 166.011719 54.144531 166.011719 53.738281 C 166.011719 53.394531 165.761719 53.175781 165.449219 53.175781 C 165.730469 52.707031 166.324219 52.425781 166.980469 52.425781 C 167.949219 52.425781 168.761719 52.988281 168.761719 53.957031 C 168.761719 54.800781 168.167969 55.457031 167.417969 56.082031 L 164.980469 58.144531 C 164.886719 58.238281 164.855469 58.238281 164.855469 58.300781 L 164.855469 58.613281 L 169.480469 58.613281 Z M 169.824219 56.675781 "/>
<path fill="none" stroke-width="0.39848" stroke-linecap="butt" stroke-linejoin="miter" stroke="rgb(0%, 0%, 0%)" stroke-opacity="1" stroke-miterlimit="10" d="M 55.071342 34.588345 L 78.184624 34.588345 " transform="matrix(2, 0, 0, -2, 204.912003, 87.872002)"/>
<path fill="none" stroke-width="0.39848" stroke-linecap="round" stroke-linejoin="round" stroke="rgb(0%, 0%, 0%)" stroke-opacity="1" stroke-miterlimit="10" d="M -2.0728 2.392319 C -1.693893 0.954819 -0.850143 0.279037 0.00141907 0.00169373 C -0.850143 -0.279556 -1.693893 -0.955338 -2.0728 -2.392838 " transform="matrix(2, 0, 0, -2, 361.676849, 18.6987)"/>
<path fill-rule="nonzero" fill="rgb(0%, 0%, 0%)" fill-opacity="1" d="M 331.035156 12.484375 C 330.128906 12.484375 330.003906 12.484375 330.003906 11.890625 L 330.003906 9.640625 C 330.066406 9.703125 330.722656 10.421875 331.878906 10.421875 C 333.722656 10.421875 335.285156 9.046875 335.285156 7.296875 C 335.285156 5.578125 333.878906 4.140625 332.097656 4.140625 C 331.316406 4.140625 330.503906 4.453125 329.941406 5.015625 L 329.941406 4.140625 L 327.847656 4.296875 L 327.847656 4.796875 C 328.816406 4.796875 328.878906 4.890625 328.878906 5.453125 L 328.878906 11.890625 C 328.878906 12.484375 328.753906 12.484375 327.847656 12.484375 L 327.847656 13.015625 C 327.878906 13.015625 328.847656 12.953125 329.441406 12.953125 C 329.941406 12.953125 330.910156 12.984375 331.035156 13.015625 Z M 330.003906 5.640625 C 330.410156 4.953125 331.222656 4.609375 331.941406 4.609375 C 333.128906 4.609375 334.035156 5.828125 334.035156 7.296875 C 334.035156 8.890625 332.972656 10.046875 331.816406 10.046875 C 330.566406 10.046875 330.035156 8.984375 330.003906 8.890625 Z M 330.003906 5.640625 "/>
<path fill-rule="nonzero" fill="rgb(0%, 0%, 0%)" fill-opacity="1" d="M 338.730469 7.109375 C 338.730469 5.953125 339.261719 4.546875 340.605469 4.546875 C 340.480469 4.640625 340.355469 4.828125 340.355469 5.046875 C 340.355469 5.515625 340.730469 5.671875 340.980469 5.671875 C 341.324219 5.671875 341.636719 5.453125 341.636719 5.046875 C 341.636719 4.578125 341.167969 4.140625 340.511719 4.140625 C 339.824219 4.140625 339.042969 4.578125 338.636719 5.640625 L 338.636719 4.140625 L 336.636719 4.296875 L 336.636719 4.796875 C 337.574219 4.796875 337.667969 4.890625 337.667969 5.578125 L 337.667969 9.203125 C 337.667969 9.796875 337.542969 9.796875 336.636719 9.796875 L 336.636719 10.296875 C 336.699219 10.296875 337.636719 10.234375 338.230469 10.234375 C 338.824219 10.234375 339.417969 10.265625 340.042969 10.296875 L 340.042969 9.796875 L 339.761719 9.796875 C 338.730469 9.796875 338.730469 9.640625 338.730469 9.171875 Z M 338.730469 7.109375 "/>
<path fill-rule="nonzero" fill="rgb(0%, 0%, 0%)" fill-opacity="1" d="M 346.15625 7.664062 C 346.15625 7.382812 346.125 7.382812 345.78125 7.382812 C 345.09375 8.007812 343.96875 8.007812 343.78125 8.007812 L 343.625 8.007812 L 343.625 8.445312 L 343.78125 8.445312 C 344 8.445312 344.65625 8.414062 345.25 8.164062 L 345.25 13.164062 C 345.25 13.445312 345.25 13.570312 344.1875 13.570312 L 343.6875 13.570312 L 343.6875 14.007812 C 344.21875 13.976562 345.125 13.976562 345.6875 13.976562 C 346.28125 13.976562 347.15625 13.976562 347.71875 14.007812 L 347.71875 13.570312 L 347.21875 13.570312 C 346.15625 13.570312 346.15625 13.445312 346.15625 13.164062 Z M 346.15625 7.664062 "/>
<path fill="none" stroke-width="0.39848" stroke-linecap="butt" stroke-linejoin="miter" stroke="rgb(0%, 0%, 0%)" stroke-opacity="1" stroke-miterlimit="10" d="M 27.161186 26.752407 L 27.161186 8.787563 " transform="matrix(2, 0, 0, -2, 204.912003, 87.872002)"/>
<path fill="none" stroke-width="0.39848" stroke-linecap="round" stroke-linejoin="round" stroke="rgb(0%, 0%, 0%)" stroke-opacity="1" stroke-miterlimit="10" d="M -2.071728 2.391968 C -1.692822 0.954468 -0.849072 0.278687 -0.00141525 0.00134277 C -0.849072 -0.279907 -1.692822 -0.955688 -2.071728 -2.389282 " transform="matrix(0, 2, 2, 0, 259.231689, 70.698143)"/>
<path fill-rule="nonzero" fill="rgb(0%, 0%, 0%)" fill-opacity="1" d="M 222.246094 46.210938 C 222.152344 45.960938 222.121094 45.898438 221.964844 45.898438 C 221.808594 45.898438 221.746094 46.023438 221.652344 46.179688 L 218.496094 54.523438 C 218.308594 54.960938 218.027344 55.179688 217.652344 55.210938 C 217.589844 55.210938 217.371094 55.242188 217.371094 55.460938 C 217.371094 55.710938 217.589844 55.710938 217.839844 55.710938 L 220.058594 55.710938 C 220.308594 55.710938 220.527344 55.710938 220.527344 55.460938 C 220.527344 55.242188 220.339844 55.242188 220.214844 55.210938 C 220.027344 55.210938 219.683594 55.148438 219.683594 54.304688 C 219.683594 53.867188 219.777344 53.398438 219.871094 52.960938 L 222.933594 52.960938 C 223.433594 54.335938 223.433594 54.554688 223.464844 54.835938 C 223.121094 55.179688 222.746094 55.210938 222.589844 55.210938 C 222.433594 55.242188 222.339844 55.335938 222.339844 55.460938 C 222.339844 55.710938 222.558594 55.710938 222.808594 55.710938 L 226.433594 55.710938 C 226.683594 55.710938 226.933594 55.710938 226.933594 55.460938 C 226.933594 55.273438 226.746094 55.242188 226.621094 55.210938 C 226.308594 55.179688 226.058594 54.929688 225.777344 54.304688 Z M 220.027344 52.492188 C 220.339844 51.242188 220.777344 50.054688 221.246094 48.898438 C 221.683594 49.835938 222.527344 51.835938 222.746094 52.492188 Z M 219.183594 54.023438 L 219.214844 54.054688 L 219.214844 54.179688 C 219.183594 54.210938 219.183594 54.242188 219.183594 54.304688 C 219.183594 54.367188 219.183594 54.898438 219.402344 55.210938 L 218.652344 55.210938 C 218.808594 55.023438 218.871094 54.867188 218.964844 54.648438 Z M 221.464844 48.148438 L 221.964844 46.804688 L 225.339844 54.492188 C 225.402344 54.648438 225.558594 54.960938 225.746094 55.210938 L 223.777344 55.210938 C 223.902344 55.148438 223.964844 54.929688 223.964844 54.773438 C 223.964844 53.929688 222.746094 51.085938 222.152344 49.710938 Z M 221.464844 48.148438 "/>
<path fill-rule="nonzero" fill="rgb(0%, 0%, 0%)" fill-opacity="1" d="M 229.128906 56.734375 C 229.066406 56.984375 228.972656 57.421875 228.972656 57.453125 C 228.972656 57.671875 229.160156 57.828125 229.347656 57.828125 C 229.472656 57.828125 229.691406 57.734375 229.816406 57.484375 C 229.816406 57.421875 229.941406 56.953125 230.003906 56.703125 C 230.347656 55.359375 230.347656 55.328125 230.347656 55.296875 C 230.503906 55.046875 231.222656 53.640625 232.410156 53.640625 C 232.910156 53.640625 233.128906 53.890625 233.128906 54.359375 C 233.128906 54.921875 232.691406 55.953125 232.472656 56.515625 C 232.410156 56.640625 232.378906 56.765625 232.378906 56.921875 C 232.378906 57.453125 232.878906 57.828125 233.472656 57.828125 C 234.535156 57.828125 235.066406 56.515625 235.066406 56.265625 C 235.066406 56.140625 234.910156 56.140625 234.878906 56.140625 C 234.691406 56.140625 234.691406 56.171875 234.628906 56.359375 C 234.441406 56.953125 233.972656 57.484375 233.503906 57.484375 C 233.285156 57.484375 233.191406 57.328125 233.191406 57.109375 C 233.191406 56.890625 233.253906 56.796875 233.347656 56.578125 C 233.503906 56.171875 233.972656 55.046875 233.972656 54.484375 C 233.972656 53.734375 233.441406 53.296875 232.472656 53.296875 C 231.566406 53.296875 230.941406 53.859375 230.597656 54.296875 C 230.566406 53.453125 229.753906 53.296875 229.378906 53.296875 C 228.378906 53.296875 228.097656 54.828125 228.097656 54.828125 C 228.097656 54.984375 228.253906 54.984375 228.316406 54.984375 C 228.472656 54.984375 228.503906 54.921875 228.535156 54.796875 C 228.691406 54.203125 228.910156 53.640625 229.347656 53.640625 C 229.660156 53.640625 229.753906 53.953125 229.753906 54.171875 C 229.753906 54.296875 229.628906 54.671875 229.597656 54.953125 C 229.503906 55.203125 229.410156 55.609375 229.378906 55.828125 Z M 229.128906 56.734375 "/>
<path fill-rule="nonzero" fill="rgb(0%, 0%, 0%)" fill-opacity="1" d="M 244.75 55.484375 C 244.90625 55.484375 245.15625 55.484375 245.15625 55.203125 C 245.15625 54.921875 244.90625 54.921875 244.75 54.921875 L 238 54.921875 C 237.84375 54.921875 237.5625 54.921875 237.5625 55.203125 C 237.5625 55.484375 237.84375 55.484375 238 55.484375 Z M 244.75 55.484375 "/>
<path fill-rule="nonzero" fill="rgb(0%, 0%, 0%)" fill-opacity="1" d="M 250.730469 51.359375 C 250.730469 51.078125 250.699219 51.078125 250.355469 51.078125 C 249.667969 51.703125 248.542969 51.703125 248.355469 51.703125 L 248.199219 51.703125 L 248.199219 52.140625 L 248.355469 52.140625 C 248.574219 52.140625 249.230469 52.109375 249.824219 51.859375 L 249.824219 56.859375 C 249.824219 57.140625 249.824219 57.265625 248.761719 57.265625 L 248.261719 57.265625 L 248.261719 57.703125 C 248.792969 57.671875 249.699219 57.671875 250.261719 57.671875 C 250.855469 57.671875 251.730469 57.671875 252.292969 57.703125 L 252.292969 57.265625 L 251.792969 57.265625 C 250.730469 57.265625 250.730469 57.140625 250.730469 56.859375 Z M 250.730469 51.359375 "/>
<path fill="none" stroke-width="0.39848" stroke-linecap="butt" stroke-linejoin="miter" stroke="rgb(0%, 0%, 0%)" stroke-opacity="1" stroke-miterlimit="10" d="M 90.618217 26.752407 L 90.618217 8.787563 " transform="matrix(2, 0, 0, -2, 204.912003, 87.872002)"/>
<path fill="none" stroke-width="0.39848" stroke-linecap="round" stroke-linejoin="round" stroke="rgb(0%, 0%, 0%)" stroke-opacity="1" stroke-miterlimit="10" d="M -2.071728 2.389816 C -1.692822 0.956223 -0.849072 0.280441 -0.00141525 -0.000808716 C -0.849072 -0.278152 -1.692822 -0.95784 -2.071728 -2.391434 " transform="matrix(0, 2, 2, 0, 386.150055, 70.698143)"/>
<path fill-rule="nonzero" fill="rgb(0%, 0%, 0%)" fill-opacity="1" d="M 395.34375 50.480469 C 396.5 49.980469 397 49.792969 397.34375 49.605469 C 397.625 49.511719 397.75 49.449219 397.75 49.167969 C 397.75 48.949219 397.5625 48.730469 397.3125 48.730469 C 397.21875 48.730469 397.1875 48.730469 397.03125 48.855469 L 395.125 50.136719 L 395.34375 48.074219 C 395.375 47.824219 395.34375 47.480469 394.90625 47.480469 C 394.75 47.480469 394.46875 47.574219 394.46875 47.886719 C 394.46875 48.011719 394.53125 48.417969 394.5625 48.574219 C 394.59375 48.792969 394.6875 49.824219 394.71875 50.136719 L 392.8125 48.855469 C 392.6875 48.792969 392.65625 48.730469 392.53125 48.730469 C 392.25 48.730469 392.09375 48.949219 392.09375 49.167969 C 392.09375 49.449219 392.25 49.542969 392.375 49.574219 L 394.46875 50.480469 C 393.34375 50.980469 392.8125 51.167969 392.46875 51.324219 C 392.21875 51.449219 392.09375 51.511719 392.09375 51.761719 C 392.09375 52.011719 392.25 52.199219 392.53125 52.199219 C 392.625 52.199219 392.65625 52.199219 392.8125 52.074219 L 394.71875 50.824219 L 394.46875 53.042969 C 394.46875 53.355469 394.75 53.480469 394.90625 53.480469 C 395.09375 53.480469 395.34375 53.355469 395.34375 53.042969 C 395.34375 52.917969 395.28125 52.511719 395.28125 52.386719 C 395.25 52.136719 395.15625 51.136719 395.125 50.824219 L 396.78125 51.917969 C 397.15625 52.199219 397.1875 52.199219 397.3125 52.199219 C 397.5625 52.199219 397.75 52.011719 397.75 51.761719 C 397.75 51.480469 397.5625 51.417969 397.4375 51.355469 Z M 395.34375 50.480469 "/>
<path fill-rule="nonzero" fill="rgb(0%, 0%, 0%)" fill-opacity="1" d="M 403.664062 53.917969 L 401.757812 49.386719 C 401.664062 49.167969 401.664062 49.167969 401.382812 49.167969 L 399.539062 49.167969 C 399.351562 49.167969 399.195312 49.167969 399.195312 49.355469 C 399.195312 49.542969 399.382812 49.542969 399.445312 49.542969 C 399.570312 49.542969 399.820312 49.542969 400.039062 49.636719 L 400.039062 54.949219 C 400.039062 55.167969 400.039062 55.605469 399.351562 55.667969 C 399.164062 55.667969 399.164062 55.824219 399.164062 55.824219 C 399.164062 56.011719 399.351562 56.011719 399.507812 56.011719 L 401.070312 56.011719 C 401.226562 56.011719 401.382812 56.011719 401.382812 55.824219 C 401.382812 55.730469 401.320312 55.667969 401.226562 55.667969 C 400.476562 55.605469 400.476562 55.199219 400.476562 54.949219 L 400.476562 49.980469 L 402.914062 55.792969 C 402.976562 55.980469 403.070312 56.011719 403.101562 56.011719 C 403.226562 56.011719 403.257812 55.917969 403.320312 55.824219 L 405.757812 49.980469 L 405.757812 54.949219 C 405.757812 55.167969 405.757812 55.605469 405.101562 55.667969 C 404.914062 55.667969 404.914062 55.824219 404.914062 55.824219 C 404.914062 56.011719 405.070312 56.011719 405.226562 56.011719 L 407.914062 56.011719 C 408.070312 56.011719 408.226562 56.011719 408.226562 55.824219 C 408.226562 55.730469 408.164062 55.667969 408.070312 55.667969 C 407.289062 55.605469 407.289062 55.199219 407.289062 54.949219 L 407.289062 50.230469 C 407.289062 50.042969 407.289062 49.605469 407.976562 49.542969 C 408.070312 49.511719 408.164062 49.480469 408.164062 49.355469 C 408.164062 49.167969 408.007812 49.167969 407.851562 49.167969 L 405.914062 49.167969 C 405.664062 49.167969 405.632812 49.167969 405.539062 49.386719 Z M 403.351562 54.105469 C 403.445312 54.261719 403.445312 54.261719 403.570312 54.324219 L 403.132812 55.386719 L 403.101562 55.386719 L 400.820312 49.949219 C 400.789062 49.824219 400.695312 49.636719 400.570312 49.542969 L 401.445312 49.542969 Z M 400.351562 55.667969 L 400.164062 55.667969 C 400.195312 55.636719 400.226562 55.605469 400.226562 55.574219 C 400.257812 55.574219 400.257812 55.574219 400.257812 55.542969 Z M 406.101562 49.542969 L 407.164062 49.542969 C 406.945312 49.792969 406.945312 50.042969 406.945312 50.230469 L 406.945312 54.980469 C 406.945312 55.167969 406.945312 55.417969 407.195312 55.667969 L 405.882812 55.667969 C 406.101562 55.417969 406.101562 55.167969 406.101562 54.980469 Z M 406.101562 49.542969 "/>
<path fill-rule="nonzero" fill="rgb(0%, 0%, 0%)" fill-opacity="1" d="M 410.351562 57.035156 C 410.289062 57.285156 410.195312 57.722656 410.195312 57.753906 C 410.195312 57.972656 410.382812 58.128906 410.570312 58.128906 C 410.695312 58.128906 410.914062 58.035156 411.039062 57.785156 C 411.039062 57.722656 411.164062 57.253906 411.226562 57.003906 C 411.570312 55.660156 411.570312 55.628906 411.570312 55.597656 C 411.726562 55.347656 412.445312 53.941406 413.632812 53.941406 C 414.132812 53.941406 414.351562 54.191406 414.351562 54.660156 C 414.351562 55.222656 413.914062 56.253906 413.695312 56.816406 C 413.632812 56.941406 413.601562 57.066406 413.601562 57.222656 C 413.601562 57.753906 414.101562 58.128906 414.695312 58.128906 C 415.757812 58.128906 416.289062 56.816406 416.289062 56.566406 C 416.289062 56.441406 416.132812 56.441406 416.101562 56.441406 C 415.914062 56.441406 415.914062 56.472656 415.851562 56.660156 C 415.664062 57.253906 415.195312 57.785156 414.726562 57.785156 C 414.507812 57.785156 414.414062 57.628906 414.414062 57.410156 C 414.414062 57.191406 414.476562 57.097656 414.570312 56.878906 C 414.726562 56.472656 415.195312 55.347656 415.195312 54.785156 C 415.195312 54.035156 414.664062 53.597656 413.695312 53.597656 C 412.789062 53.597656 412.164062 54.160156 411.820312 54.597656 C 411.789062 53.753906 410.976562 53.597656 410.601562 53.597656 C 409.601562 53.597656 409.320312 55.128906 409.320312 55.128906 C 409.320312 55.285156 409.476562 55.285156 409.539062 55.285156 C 409.695312 55.285156 409.726562 55.222656 409.757812 55.097656 C 409.914062 54.503906 410.132812 53.941406 410.570312 53.941406 C 410.882812 53.941406 410.976562 54.253906 410.976562 54.472656 C 410.976562 54.597656 410.851562 54.972656 410.820312 55.253906 C 410.726562 55.503906 410.632812 55.910156 410.601562 56.128906 Z M 410.351562 57.035156 "/>
<path fill="none" stroke-width="2.33075" stroke-linecap="butt" stroke-linejoin="miter" stroke="rgb(0%, 0%, 0%)" stroke-opacity="1" stroke-miterlimit="10" d="M -77.178658 10.412563 L -62.635689 20.236782 " transform="matrix(2, 0, 0, -2, 204.912003, 87.872002)"/>
<path fill="none" stroke-width="1.53377" stroke-linecap="butt" stroke-linejoin="miter" stroke="rgb(100%, 100%, 100%)" stroke-opacity="1" stroke-miterlimit="10" d="M -77.178658 10.412563 L -62.635689 20.236782 " transform="matrix(2, 0, 0, -2, 204.912003, 87.872002)"/>
<path fill="none" stroke-width="0.39848" stroke-linecap="round" stroke-linejoin="round" stroke="rgb(0%, 0%, 0%)" stroke-opacity="1" stroke-miterlimit="10" d="M -1.295897 2.558945 C -0.668052 1.206267 1.024919 0.0487001 1.991064 -0.000453026 C 1.024326 -0.0498906 -0.667412 -1.207671 -1.294212 -2.561465 " transform="matrix(1.65734, -1.11936, -1.11936, -1.65734, 79.637123, 47.399841)"/>
<path fill-rule="nonzero" fill="rgb(0%, 0%, 0%)" fill-opacity="1" d="M 29.917969 38.402344 C 29.917969 38.371094 29.949219 38.183594 29.949219 38.183594 C 29.949219 38.089844 29.917969 37.964844 29.730469 37.964844 C 29.449219 37.964844 28.292969 38.089844 27.949219 38.121094 C 27.855469 38.121094 27.636719 38.152344 27.636719 38.433594 C 27.636719 38.621094 27.855469 38.621094 28.011719 38.621094 C 28.667969 38.621094 28.667969 38.746094 28.667969 38.839844 C 28.667969 38.933594 28.636719 39.027344 28.636719 39.152344 L 26.667969 47.027344 C 26.574219 47.277344 26.574219 47.308594 26.574219 47.339844 C 26.574219 47.558594 26.761719 47.777344 27.074219 47.777344 C 27.230469 47.777344 27.480469 47.714844 27.636719 47.433594 C 27.667969 47.339844 27.792969 46.839844 27.855469 46.558594 L 28.199219 45.308594 C 28.230469 45.089844 28.386719 44.558594 28.417969 44.371094 C 28.542969 43.839844 28.542969 43.808594 28.824219 43.371094 C 29.292969 42.683594 29.980469 41.902344 31.074219 41.902344 C 31.855469 41.902344 31.886719 42.527344 31.886719 42.871094 C 31.886719 43.714844 31.292969 45.246094 31.074219 45.839844 C 30.917969 46.246094 30.855469 46.371094 30.855469 46.589844 C 30.855469 47.339844 31.480469 47.777344 32.167969 47.777344 C 33.574219 47.777344 34.199219 45.871094 34.199219 45.652344 C 34.199219 45.464844 34.011719 45.464844 33.949219 45.464844 C 33.761719 45.464844 33.761719 45.558594 33.699219 45.714844 C 33.386719 46.839844 32.761719 47.402344 32.230469 47.402344 C 31.917969 47.402344 31.855469 47.214844 31.855469 46.902344 C 31.855469 46.589844 31.949219 46.402344 32.199219 45.777344 C 32.355469 45.339844 32.917969 43.871094 32.917969 43.089844 C 32.917969 42.871094 32.917969 42.277344 32.417969 41.871094 C 32.167969 41.714844 31.761719 41.496094 31.105469 41.496094 C 30.105469 41.496094 29.355469 42.058594 28.855469 42.652344 Z M 29.917969 38.402344 "/>
<path fill-rule="nonzero" fill="rgb(0%, 0%, 0%)" fill-opacity="1" d="M 36.808594 48.675781 C 36.746094 48.925781 36.652344 49.363281 36.652344 49.394531 C 36.652344 49.613281 36.839844 49.769531 37.027344 49.769531 C 37.152344 49.769531 37.371094 49.675781 37.496094 49.425781 C 37.496094 49.363281 37.621094 48.894531 37.683594 48.644531 C 38.027344 47.300781 38.027344 47.269531 38.027344 47.238281 C 38.183594 46.988281 38.902344 45.582031 40.089844 45.582031 C 40.589844 45.582031 40.808594 45.832031 40.808594 46.300781 C 40.808594 46.863281 40.371094 47.894531 40.152344 48.457031 C 40.089844 48.582031 40.058594 48.707031 40.058594 48.863281 C 40.058594 49.394531 40.558594 49.769531 41.152344 49.769531 C 42.214844 49.769531 42.746094 48.457031 42.746094 48.207031 C 42.746094 48.082031 42.589844 48.082031 42.558594 48.082031 C 42.371094 48.082031 42.371094 48.113281 42.308594 48.300781 C 42.121094 48.894531 41.652344 49.425781 41.183594 49.425781 C 40.964844 49.425781 40.871094 49.269531 40.871094 49.050781 C 40.871094 48.832031 40.933594 48.738281 41.027344 48.519531 C 41.183594 48.113281 41.652344 46.988281 41.652344 46.425781 C 41.652344 45.675781 41.121094 45.238281 40.152344 45.238281 C 39.246094 45.238281 38.621094 45.800781 38.277344 46.238281 C 38.246094 45.394531 37.433594 45.238281 37.058594 45.238281 C 36.058594 45.238281 35.777344 46.769531 35.777344 46.769531 C 35.777344 46.925781 35.933594 46.925781 35.996094 46.925781 C 36.152344 46.925781 36.183594 46.863281 36.214844 46.738281 C 36.371094 46.144531 36.589844 45.582031 37.027344 45.582031 C 37.339844 45.582031 37.433594 45.894531 37.433594 46.113281 C 37.433594 46.238281 37.308594 46.613281 37.277344 46.894531 C 37.183594 47.144531 37.089844 47.550781 37.058594 47.769531 Z M 36.808594 48.675781 "/>
<path fill-rule="nonzero" fill="rgb(0%, 0%, 0%)" fill-opacity="1" d="M 52.425781 47.425781 C 52.582031 47.425781 52.832031 47.425781 52.832031 47.144531 C 52.832031 46.863281 52.582031 46.863281 52.425781 46.863281 L 45.675781 46.863281 C 45.519531 46.863281 45.238281 46.863281 45.238281 47.144531 C 45.238281 47.425781 45.519531 47.425781 45.675781 47.425781 Z M 52.425781 47.425781 "/>
<path fill-rule="nonzero" fill="rgb(0%, 0%, 0%)" fill-opacity="1" d="M 60.3125 47.707031 L 59.875 47.707031 C 59.875 47.894531 59.75 48.519531 59.59375 48.613281 C 59.53125 48.675781 58.6875 48.675781 58.53125 48.675781 L 56.59375 48.675781 C 57.25 48.207031 57.96875 47.644531 58.5625 47.238281 C 59.46875 46.613281 60.3125 46.050781 60.3125 44.988281 C 60.3125 43.707031 59.09375 43.019531 57.6875 43.019531 C 56.34375 43.019531 55.34375 43.769531 55.34375 44.769531 C 55.34375 45.269531 55.78125 45.363281 55.9375 45.363281 C 56.1875 45.363281 56.5 45.175781 56.5 44.769531 C 56.5 44.425781 56.25 44.207031 55.9375 44.207031 C 56.21875 43.738281 56.8125 43.457031 57.46875 43.457031 C 58.4375 43.457031 59.25 44.019531 59.25 44.988281 C 59.25 45.832031 58.65625 46.488281 57.90625 47.113281 L 55.46875 49.175781 C 55.375 49.269531 55.34375 49.269531 55.34375 49.332031 L 55.34375 49.644531 L 59.96875 49.644531 Z M 60.3125 47.707031 "/>
<path fill="none" stroke-width="0.39848" stroke-linecap="butt" stroke-linejoin="miter" stroke="rgb(0%, 0%, 0%)" stroke-opacity="1" stroke-miterlimit="10" d="M -82.045845 0.16647 L -58.803658 0.16647 " transform="matrix(2, 0, 0, -2, 204.912003, 87.872002)"/>
<path fill="none" stroke-width="0.39848" stroke-linecap="round" stroke-linejoin="round" stroke="rgb(0%, 0%, 0%)" stroke-opacity="1" stroke-miterlimit="10" d="M -2.072655 2.391064 C -1.693748 0.95747 -0.849998 0.277782 0.00156403 0.00043869 C -0.849998 -0.280811 -1.693748 -0.956593 -2.072655 -2.390186 " transform="matrix(2, 0, 0, -2, 87.699997, 87.53994)"/>
<path fill-rule="nonzero" fill="rgb(0%, 0%, 0%)" fill-opacity="1" d="M 88.003906 70.328125 C 87.785156 70.328125 87.441406 70.328125 87.441406 70.640625 C 87.441406 71.015625 87.753906 71.015625 88.003906 71.015625 L 92.878906 71.015625 C 93.347656 71.015625 93.410156 70.921875 93.410156 70.484375 L 93.410156 65.546875 C 93.410156 65.328125 93.410156 65.015625 93.097656 65.015625 C 92.722656 65.015625 92.722656 65.390625 92.722656 65.609375 L 92.722656 70.328125 Z M 88.003906 70.328125 "/>
<path fill="none" stroke-width="0.39848" stroke-linecap="butt" stroke-linejoin="miter" stroke="rgb(0%, 0%, 0%)" stroke-opacity="1" stroke-miterlimit="10" d="M -24.389595 0.16647 L 9.75103 0.16647 " transform="matrix(2, 0, 0, -2, 204.912003, 87.872002)"/>
<path fill="none" stroke-width="0.39848" stroke-linecap="round" stroke-linejoin="round" stroke="rgb(0%, 0%, 0%)" stroke-opacity="1" stroke-miterlimit="10" d="M -2.072266 2.391064 C -1.693359 0.95747 -0.849609 0.277782 -0.00195312 0.00043869 C -0.849609 -0.280811 -1.693359 -0.956593 -2.072266 -2.390186 " transform="matrix(2, 0, 0, -2, 224.816406, 87.53994)"/>
<g clip-path="url(#clip-0)">
<path fill="none" stroke-width="2.33075" stroke-linecap="butt" stroke-linejoin="miter" stroke="rgb(0%, 0%, 0%)" stroke-opacity="1" stroke-miterlimit="10" d="M -15.483345 -12.821812 L 0.0127487 -20.587437 " transform="matrix(2, 0, 0, -2, 204.912003, 87.872002)"/>
</g>
<path fill="none" stroke-width="1.53377" stroke-linecap="butt" stroke-linejoin="miter" stroke="rgb(100%, 100%, 100%)" stroke-opacity="1" stroke-miterlimit="10" d="M -15.483345 -12.821812 L 0.0127487 -20.587437 " transform="matrix(2, 0, 0, -2, 204.912003, 87.872002)"/>
<path fill="none" stroke-width="0.39848" stroke-linecap="round" stroke-linejoin="round" stroke="rgb(0%, 0%, 0%)" stroke-opacity="1" stroke-miterlimit="10" d="M -1.29574 2.558983 C -0.66728 1.209118 1.024947 0.0471886 1.989358 -0.00256534 C 1.025038 -0.0488983 -0.666747 -1.207033 -1.294402 -2.561578 " transform="matrix(1.7879, 0.89606, 0.89606, -1.7879, 204.937714, 129.048767)"/>
<path fill-rule="nonzero" fill="rgb(0%, 0%, 0%)" fill-opacity="1" d="M 154.40625 127.390625 C 154.40625 127.359375 154.4375 127.171875 154.4375 127.171875 C 154.4375 127.078125 154.40625 126.953125 154.21875 126.953125 C 153.9375 126.953125 152.78125 127.078125 152.4375 127.109375 C 152.34375 127.109375 152.125 127.140625 152.125 127.421875 C 152.125 127.609375 152.34375 127.609375 152.5 127.609375 C 153.15625 127.609375 153.15625 127.734375 153.15625 127.828125 C 153.15625 127.921875 153.125 128.015625 153.125 128.140625 L 151.15625 136.015625 C 151.0625 136.265625 151.0625 136.296875 151.0625 136.328125 C 151.0625 136.546875 151.25 136.765625 151.5625 136.765625 C 151.71875 136.765625 151.96875 136.703125 152.125 136.421875 C 152.15625 136.328125 152.28125 135.828125 152.34375 135.546875 L 152.6875 134.296875 C 152.71875 134.078125 152.875 133.546875 152.90625 133.359375 C 153.03125 132.828125 153.03125 132.796875 153.3125 132.359375 C 153.78125 131.671875 154.46875 130.890625 155.5625 130.890625 C 156.34375 130.890625 156.375 131.515625 156.375 131.859375 C 156.375 132.703125 155.78125 134.234375 155.5625 134.828125 C 155.40625 135.234375 155.34375 135.359375 155.34375 135.578125 C 155.34375 136.328125 155.96875 136.765625 156.65625 136.765625 C 158.0625 136.765625 158.6875 134.859375 158.6875 134.640625 C 158.6875 134.453125 158.5 134.453125 158.4375 134.453125 C 158.25 134.453125 158.25 134.546875 158.1875 134.703125 C 157.875 135.828125 157.25 136.390625 156.71875 136.390625 C 156.40625 136.390625 156.34375 136.203125 156.34375 135.890625 C 156.34375 135.578125 156.4375 135.390625 156.6875 134.765625 C 156.84375 134.328125 157.40625 132.859375 157.40625 132.078125 C 157.40625 131.859375 157.40625 131.265625 156.90625 130.859375 C 156.65625 130.703125 156.25 130.484375 155.59375 130.484375 C 154.59375 130.484375 153.84375 131.046875 153.34375 131.640625 Z M 154.40625 127.390625 "/>
<path fill-rule="nonzero" fill="rgb(0%, 0%, 0%)" fill-opacity="1" d="M 161.296875 137.664062 C 161.234375 137.914062 161.140625 138.351562 161.140625 138.382812 C 161.140625 138.601562 161.328125 138.757812 161.515625 138.757812 C 161.640625 138.757812 161.859375 138.664062 161.984375 138.414062 C 161.984375 138.351562 162.109375 137.882812 162.171875 137.632812 C 162.515625 136.289062 162.515625 136.257812 162.515625 136.226562 C 162.671875 135.976562 163.390625 134.570312 164.578125 134.570312 C 165.078125 134.570312 165.296875 134.820312 165.296875 135.289062 C 165.296875 135.851562 164.859375 136.882812 164.640625 137.445312 C 164.578125 137.570312 164.546875 137.695312 164.546875 137.851562 C 164.546875 138.382812 165.046875 138.757812 165.640625 138.757812 C 166.703125 138.757812 167.234375 137.445312 167.234375 137.195312 C 167.234375 137.070312 167.078125 137.070312 167.046875 137.070312 C 166.859375 137.070312 166.859375 137.101562 166.796875 137.289062 C 166.609375 137.882812 166.140625 138.414062 165.671875 138.414062 C 165.453125 138.414062 165.359375 138.257812 165.359375 138.039062 C 165.359375 137.820312 165.421875 137.726562 165.515625 137.507812 C 165.671875 137.101562 166.140625 135.976562 166.140625 135.414062 C 166.140625 134.664062 165.609375 134.226562 164.640625 134.226562 C 163.734375 134.226562 163.109375 134.789062 162.765625 135.226562 C 162.734375 134.382812 161.921875 134.226562 161.546875 134.226562 C 160.546875 134.226562 160.265625 135.757812 160.265625 135.757812 C 160.265625 135.914062 160.421875 135.914062 160.484375 135.914062 C 160.640625 135.914062 160.671875 135.851562 160.703125 135.726562 C 160.859375 135.132812 161.078125 134.570312 161.515625 134.570312 C 161.828125 134.570312 161.921875 134.882812 161.921875 135.101562 C 161.921875 135.226562 161.796875 135.601562 161.765625 135.882812 C 161.671875 136.132812 161.578125 136.539062 161.546875 136.757812 Z M 161.296875 137.664062 "/>
<path fill-rule="nonzero" fill="rgb(0%, 0%, 0%)" fill-opacity="1" d="M 176.917969 136.414062 C 177.074219 136.414062 177.324219 136.414062 177.324219 136.132812 C 177.324219 135.851562 177.074219 135.851562 176.917969 135.851562 L 170.167969 135.851562 C 170.011719 135.851562 169.730469 135.851562 169.730469 136.132812 C 169.730469 136.414062 170.011719 136.414062 170.167969 136.414062 Z M 176.917969 136.414062 "/>
<path fill-rule="nonzero" fill="rgb(0%, 0%, 0%)" fill-opacity="1" d="M 182.898438 132.289062 C 182.898438 132.007812 182.867188 132.007812 182.523438 132.007812 C 181.835938 132.632812 180.710938 132.632812 180.523438 132.632812 L 180.367188 132.632812 L 180.367188 133.070312 L 180.523438 133.070312 C 180.742188 133.070312 181.398438 133.039062 181.992188 132.789062 L 181.992188 137.789062 C 181.992188 138.070312 181.992188 138.195312 180.929688 138.195312 L 180.429688 138.195312 L 180.429688 138.632812 C 180.960938 138.601562 181.867188 138.601562 182.429688 138.601562 C 183.023438 138.601562 183.898438 138.601562 184.460938 138.632812 L 184.460938 138.195312 L 183.960938 138.195312 C 182.898438 138.195312 182.898438 138.070312 182.898438 137.789062 Z M 182.898438 132.289062 "/>
<path fill="none" stroke-width="2.33075" stroke-linecap="butt" stroke-linejoin="miter" stroke="rgb(0%, 0%, 0%)" stroke-opacity="1" stroke-miterlimit="10" d="M 51.067436 13.139126 L 67.899467 22.268032 " transform="matrix(2, 0, 0, -2, 204.912003, 87.872002)"/>
<path fill="none" stroke-width="1.53377" stroke-linecap="butt" stroke-linejoin="miter" stroke="rgb(100%, 100%, 100%)" stroke-opacity="1" stroke-miterlimit="10" d="M 51.067436 13.139126 L 67.899467 22.268032 " transform="matrix(2, 0, 0, -2, 204.912003, 87.872002)"/>
<path fill="none" stroke-width="0.39848" stroke-linecap="round" stroke-linejoin="round" stroke="rgb(0%, 0%, 0%)" stroke-opacity="1" stroke-miterlimit="10" d="M -1.29686 2.559842 C -0.665511 1.208525 1.024488 0.0473466 1.989533 -0.000614278 C 1.024714 -0.0505493 -0.665837 -1.208955 -1.296541 -2.560076 " transform="matrix(1.7579, -0.95358, -0.95358, -1.7579, 340.712952, 43.333599)"/>
<path fill-rule="nonzero" fill="rgb(0%, 0%, 0%)" fill-opacity="1" d="M 306.386719 35.484375 C 306.386719 35.453125 306.417969 35.265625 306.417969 35.265625 C 306.417969 35.171875 306.386719 35.046875 306.199219 35.046875 C 305.917969 35.046875 304.761719 35.171875 304.417969 35.203125 C 304.324219 35.203125 304.105469 35.234375 304.105469 35.515625 C 304.105469 35.703125 304.324219 35.703125 304.480469 35.703125 C 305.136719 35.703125 305.136719 35.828125 305.136719 35.921875 C 305.136719 36.015625 305.105469 36.109375 305.105469 36.234375 L 303.136719 44.109375 C 303.042969 44.359375 303.042969 44.390625 303.042969 44.421875 C 303.042969 44.640625 303.230469 44.859375 303.542969 44.859375 C 303.699219 44.859375 303.949219 44.796875 304.105469 44.515625 C 304.136719 44.421875 304.261719 43.921875 304.324219 43.640625 L 304.667969 42.390625 C 304.699219 42.171875 304.855469 41.640625 304.886719 41.453125 C 305.011719 40.921875 305.011719 40.890625 305.292969 40.453125 C 305.761719 39.765625 306.449219 38.984375 307.542969 38.984375 C 308.324219 38.984375 308.355469 39.609375 308.355469 39.953125 C 308.355469 40.796875 307.761719 42.328125 307.542969 42.921875 C 307.386719 43.328125 307.324219 43.453125 307.324219 43.671875 C 307.324219 44.421875 307.949219 44.859375 308.636719 44.859375 C 310.042969 44.859375 310.667969 42.953125 310.667969 42.734375 C 310.667969 42.546875 310.480469 42.546875 310.417969 42.546875 C 310.230469 42.546875 310.230469 42.640625 310.167969 42.796875 C 309.855469 43.921875 309.230469 44.484375 308.699219 44.484375 C 308.386719 44.484375 308.324219 44.296875 308.324219 43.984375 C 308.324219 43.671875 308.417969 43.484375 308.667969 42.859375 C 308.824219 42.421875 309.386719 40.953125 309.386719 40.171875 C 309.386719 39.953125 309.386719 39.359375 308.886719 38.953125 C 308.636719 38.796875 308.230469 38.578125 307.574219 38.578125 C 306.574219 38.578125 305.824219 39.140625 305.324219 39.734375 Z M 306.386719 35.484375 "/>
<path fill-rule="nonzero" fill="rgb(0%, 0%, 0%)" fill-opacity="1" d="M 313.277344 45.757812 C 313.214844 46.007812 313.121094 46.445312 313.121094 46.476562 C 313.121094 46.695312 313.308594 46.851562 313.496094 46.851562 C 313.621094 46.851562 313.839844 46.757812 313.964844 46.507812 C 313.964844 46.445312 314.089844 45.976562 314.152344 45.726562 C 314.496094 44.382812 314.496094 44.351562 314.496094 44.320312 C 314.652344 44.070312 315.371094 42.664062 316.558594 42.664062 C 317.058594 42.664062 317.277344 42.914062 317.277344 43.382812 C 317.277344 43.945312 316.839844 44.976562 316.621094 45.539062 C 316.558594 45.664062 316.527344 45.789062 316.527344 45.945312 C 316.527344 46.476562 317.027344 46.851562 317.621094 46.851562 C 318.683594 46.851562 319.214844 45.539062 319.214844 45.289062 C 319.214844 45.164062 319.058594 45.164062 319.027344 45.164062 C 318.839844 45.164062 318.839844 45.195312 318.777344 45.382812 C 318.589844 45.976562 318.121094 46.507812 317.652344 46.507812 C 317.433594 46.507812 317.339844 46.351562 317.339844 46.132812 C 317.339844 45.914062 317.402344 45.820312 317.496094 45.601562 C 317.652344 45.195312 318.121094 44.070312 318.121094 43.507812 C 318.121094 42.757812 317.589844 42.320312 316.621094 42.320312 C 315.714844 42.320312 315.089844 42.882812 314.746094 43.320312 C 314.714844 42.476562 313.902344 42.320312 313.527344 42.320312 C 312.527344 42.320312 312.246094 43.851562 312.246094 43.851562 C 312.246094 44.007812 312.402344 44.007812 312.464844 44.007812 C 312.621094 44.007812 312.652344 43.945312 312.683594 43.820312 C 312.839844 43.226562 313.058594 42.664062 313.496094 42.664062 C 313.808594 42.664062 313.902344 42.976562 313.902344 43.195312 C 313.902344 43.320312 313.777344 43.695312 313.746094 43.976562 C 313.652344 44.226562 313.558594 44.632812 313.527344 44.851562 Z M 313.277344 45.757812 "/>
<path fill="none" stroke-width="0.39848" stroke-linecap="butt" stroke-linejoin="miter" stroke="rgb(0%, 0%, 0%)" stroke-opacity="1" stroke-miterlimit="10" d="M 44.168999 0.16647 L 78.309624 0.16647 " transform="matrix(2, 0, 0, -2, 204.912003, 87.872002)"/>
<path fill="none" stroke-width="0.39848" stroke-linecap="round" stroke-linejoin="round" stroke="rgb(0%, 0%, 0%)" stroke-opacity="1" stroke-miterlimit="10" d="M -2.071869 2.391064 C -1.692963 0.95747 -0.849213 0.277782 -0.0015564 0.00043869 C -0.849213 -0.280811 -1.692963 -0.956593 -2.071869 -2.390186 " transform="matrix(2, 0, 0, -2, 361.9328, 87.53994)"/>
<path fill-rule="nonzero" fill="rgb(0%, 0%, 0%)" fill-opacity="1" d="M 219.101562 112.167969 C 219.101562 112.386719 219.101562 112.730469 219.414062 112.730469 C 219.789062 112.730469 219.789062 112.417969 219.789062 112.167969 L 219.789062 107.292969 C 219.789062 106.824219 219.695312 106.761719 219.257812 106.761719 L 214.320312 106.761719 C 214.101562 106.761719 213.789062 106.761719 213.789062 107.074219 C 213.789062 107.449219 214.164062 107.449219 214.382812 107.449219 L 219.101562 107.449219 Z M 219.101562 112.167969 "/>
<path fill-rule="nonzero" fill="rgb(0%, 0%, 0%)" fill-opacity="1" d="M 350.632812 73.792969 C 350.414062 73.792969 350.070312 73.792969 350.070312 74.105469 C 350.070312 74.480469 350.382812 74.480469 350.632812 74.480469 L 355.507812 74.480469 C 355.976562 74.480469 356.039062 74.386719 356.039062 73.949219 L 356.039062 69.011719 C 356.039062 68.792969 356.039062 68.480469 355.726562 68.480469 C 355.351562 68.480469 355.351562 68.855469 355.351562 69.074219 L 355.351562 73.792969 Z M 350.632812 73.792969 "/>
<path fill="none" stroke-width="0.39848" stroke-linecap="butt" stroke-linejoin="miter" stroke="rgb(0%, 0%, 0%)" stroke-opacity="1" stroke-miterlimit="10" d="M -31.09272 -34.200718 L 9.62603 -34.200718 " transform="matrix(2, 0, 0, -2, 204.912003, 87.872002)"/>
<path fill="none" stroke-width="0.39848" stroke-linecap="round" stroke-linejoin="round" stroke="rgb(0%, 0%, 0%)" stroke-opacity="1" stroke-miterlimit="10" d="M -2.073166 2.38913 C -1.69426 0.955536 -0.85051 0.279755 0.00105286 -0.00149536 C -0.85051 -0.278839 -1.69426 -0.95462 -2.073166 -2.39212 " transform="matrix(2, 0, 0, -2, 224.560394, 156.270447)"/>
<path fill="none" stroke-width="0.39848" stroke-linecap="butt" stroke-linejoin="miter" stroke="rgb(0%, 0%, 0%)" stroke-opacity="1" stroke-miterlimit="10" d="M 27.161186 -26.032749 L 27.161186 -8.89603 " transform="matrix(2, 0, 0, -2, 204.912003, 87.872002)"/>
<path fill="none" stroke-width="0.39848" stroke-linecap="round" stroke-linejoin="round" stroke="rgb(0%, 0%, 0%)" stroke-opacity="1" stroke-miterlimit="10" d="M -2.073402 2.389282 C -1.694496 0.955688 -0.850746 0.279907 0.000816345 -0.00134277 C -0.850746 -0.278687 -1.694496 -0.954468 -2.073402 -2.391968 " transform="matrix(0, -2, -2, 0, 259.231689, 105.267258)"/>
<path fill-rule="nonzero" fill="rgb(0%, 0%, 0%)" fill-opacity="1" d="M 268.425781 118.714844 C 269.582031 118.214844 270.082031 118.027344 270.425781 117.839844 C 270.707031 117.746094 270.832031 117.683594 270.832031 117.402344 C 270.832031 117.183594 270.644531 116.964844 270.394531 116.964844 C 270.300781 116.964844 270.269531 116.964844 270.113281 117.089844 L 268.207031 118.371094 L 268.425781 116.308594 C 268.457031 116.058594 268.425781 115.714844 267.988281 115.714844 C 267.832031 115.714844 267.550781 115.808594 267.550781 116.121094 C 267.550781 116.246094 267.613281 116.652344 267.644531 116.808594 C 267.675781 117.027344 267.769531 118.058594 267.800781 118.371094 L 265.894531 117.089844 C 265.769531 117.027344 265.738281 116.964844 265.613281 116.964844 C 265.332031 116.964844 265.175781 117.183594 265.175781 117.402344 C 265.175781 117.683594 265.332031 117.777344 265.457031 117.808594 L 267.550781 118.714844 C 266.425781 119.214844 265.894531 119.402344 265.550781 119.558594 C 265.300781 119.683594 265.175781 119.746094 265.175781 119.996094 C 265.175781 120.246094 265.332031 120.433594 265.613281 120.433594 C 265.707031 120.433594 265.738281 120.433594 265.894531 120.308594 L 267.800781 119.058594 L 267.550781 121.277344 C 267.550781 121.589844 267.832031 121.714844 267.988281 121.714844 C 268.175781 121.714844 268.425781 121.589844 268.425781 121.277344 C 268.425781 121.152344 268.363281 120.746094 268.363281 120.621094 C 268.332031 120.371094 268.238281 119.371094 268.207031 119.058594 L 269.863281 120.152344 C 270.238281 120.433594 270.269531 120.433594 270.394531 120.433594 C 270.644531 120.433594 270.832031 120.246094 270.832031 119.996094 C 270.832031 119.714844 270.644531 119.652344 270.519531 119.589844 Z M 268.425781 118.714844 "/>
<path fill-rule="nonzero" fill="rgb(0%, 0%, 0%)" fill-opacity="1" d="M 276.746094 122.148438 L 274.839844 117.617188 C 274.746094 117.398438 274.746094 117.398438 274.464844 117.398438 L 272.621094 117.398438 C 272.433594 117.398438 272.277344 117.398438 272.277344 117.585938 C 272.277344 117.773438 272.464844 117.773438 272.527344 117.773438 C 272.652344 117.773438 272.902344 117.773438 273.121094 117.867188 L 273.121094 123.179688 C 273.121094 123.398438 273.121094 123.835938 272.433594 123.898438 C 272.246094 123.898438 272.246094 124.054688 272.246094 124.054688 C 272.246094 124.242188 272.433594 124.242188 272.589844 124.242188 L 274.152344 124.242188 C 274.308594 124.242188 274.464844 124.242188 274.464844 124.054688 C 274.464844 123.960938 274.402344 123.898438 274.308594 123.898438 C 273.558594 123.835938 273.558594 123.429688 273.558594 123.179688 L 273.558594 118.210938 L 275.996094 124.023438 C 276.058594 124.210938 276.152344 124.242188 276.183594 124.242188 C 276.308594 124.242188 276.339844 124.148438 276.402344 124.054688 L 278.839844 118.210938 L 278.839844 123.179688 C 278.839844 123.398438 278.839844 123.835938 278.183594 123.898438 C 277.996094 123.898438 277.996094 124.054688 277.996094 124.054688 C 277.996094 124.242188 278.152344 124.242188 278.308594 124.242188 L 280.996094 124.242188 C 281.152344 124.242188 281.308594 124.242188 281.308594 124.054688 C 281.308594 123.960938 281.246094 123.898438 281.152344 123.898438 C 280.371094 123.835938 280.371094 123.429688 280.371094 123.179688 L 280.371094 118.460938 C 280.371094 118.273438 280.371094 117.835938 281.058594 117.773438 C 281.152344 117.742188 281.246094 117.710938 281.246094 117.585938 C 281.246094 117.398438 281.089844 117.398438 280.933594 117.398438 L 278.996094 117.398438 C 278.746094 117.398438 278.714844 117.398438 278.621094 117.617188 Z M 276.433594 122.335938 C 276.527344 122.492188 276.527344 122.492188 276.652344 122.554688 L 276.214844 123.617188 L 276.183594 123.617188 L 273.902344 118.179688 C 273.871094 118.054688 273.777344 117.867188 273.652344 117.773438 L 274.527344 117.773438 Z M 273.433594 123.898438 L 273.246094 123.898438 C 273.277344 123.867188 273.308594 123.835938 273.308594 123.804688 C 273.339844 123.804688 273.339844 123.804688 273.339844 123.773438 Z M 279.183594 117.773438 L 280.246094 117.773438 C 280.027344 118.023438 280.027344 118.273438 280.027344 118.460938 L 280.027344 123.210938 C 280.027344 123.398438 280.027344 123.648438 280.277344 123.898438 L 278.964844 123.898438 C 279.183594 123.648438 279.183594 123.398438 279.183594 123.210938 Z M 279.183594 117.773438 "/>
<path fill-rule="nonzero" fill="rgb(0%, 0%, 0%)" fill-opacity="1" d="M 283.433594 126.484375 C 283.371094 126.734375 283.277344 127.171875 283.277344 127.203125 C 283.277344 127.421875 283.464844 127.578125 283.652344 127.578125 C 283.777344 127.578125 283.996094 127.484375 284.121094 127.234375 C 284.121094 127.171875 284.246094 126.703125 284.308594 126.453125 C 284.652344 125.109375 284.652344 125.078125 284.652344 125.046875 C 284.808594 124.796875 285.527344 123.390625 286.714844 123.390625 C 287.214844 123.390625 287.433594 123.640625 287.433594 124.109375 C 287.433594 124.671875 286.996094 125.703125 286.777344 126.265625 C 286.714844 126.390625 286.683594 126.515625 286.683594 126.671875 C 286.683594 127.203125 287.183594 127.578125 287.777344 127.578125 C 288.839844 127.578125 289.371094 126.265625 289.371094 126.015625 C 289.371094 125.890625 289.214844 125.890625 289.183594 125.890625 C 288.996094 125.890625 288.996094 125.921875 288.933594 126.109375 C 288.746094 126.703125 288.277344 127.234375 287.808594 127.234375 C 287.589844 127.234375 287.496094 127.078125 287.496094 126.859375 C 287.496094 126.640625 287.558594 126.546875 287.652344 126.328125 C 287.808594 125.921875 288.277344 124.796875 288.277344 124.234375 C 288.277344 123.484375 287.746094 123.046875 286.777344 123.046875 C 285.871094 123.046875 285.246094 123.609375 284.902344 124.046875 C 284.871094 123.203125 284.058594 123.046875 283.683594 123.046875 C 282.683594 123.046875 282.402344 124.578125 282.402344 124.578125 C 282.402344 124.734375 282.558594 124.734375 282.621094 124.734375 C 282.777344 124.734375 282.808594 124.671875 282.839844 124.546875 C 282.996094 123.953125 283.214844 123.390625 283.652344 123.390625 C 283.964844 123.390625 284.058594 123.703125 284.058594 123.921875 C 284.058594 124.046875 283.933594 124.421875 283.902344 124.703125 C 283.808594 124.953125 283.714844 125.359375 283.683594 125.578125 Z M 283.433594 126.484375 "/>
<path fill-rule="nonzero" fill="rgb(0%, 0%, 0%)" fill-opacity="1" d="M 299.054688 125.234375 C 299.210938 125.234375 299.460938 125.234375 299.460938 124.953125 C 299.460938 124.671875 299.210938 124.671875 299.054688 124.671875 L 292.304688 124.671875 C 292.148438 124.671875 291.867188 124.671875 291.867188 124.953125 C 291.867188 125.234375 292.148438 125.234375 292.304688 125.234375 Z M 299.054688 125.234375 "/>
<path fill-rule="nonzero" fill="rgb(0%, 0%, 0%)" fill-opacity="1" d="M 305.03125 121.109375 C 305.03125 120.828125 305 120.828125 304.65625 120.828125 C 303.96875 121.453125 302.84375 121.453125 302.65625 121.453125 L 302.5 121.453125 L 302.5 121.890625 L 302.65625 121.890625 C 302.875 121.890625 303.53125 121.859375 304.125 121.609375 L 304.125 126.609375 C 304.125 126.890625 304.125 127.015625 303.0625 127.015625 L 302.5625 127.015625 L 302.5625 127.453125 C 303.09375 127.421875 304 127.421875 304.5625 127.421875 C 305.15625 127.421875 306.03125 127.421875 306.59375 127.453125 L 306.59375 127.015625 L 306.09375 127.015625 C 305.03125 127.015625 305.03125 126.890625 305.03125 126.609375 Z M 305.03125 121.109375 "/>
</svg>
