<?xml version="1.0" encoding="UTF-8"?>
<svg xmlns="http://www.w3.org/2000/svg" xmlns:xlink="http://www.w3.org/1999/xlink" width="401.119995" height="168.399994" viewBox="0 0 401.119995 168.399994">
<defs>
<clipPath id="clip-0">
<path clip-rule="nonzero" d="M 96 40 L 266 40 L 266 168.398438 L 96 168.398438 Z M 96 40 "/>
</clipPath>
</defs>
<path fill-rule="nonzero" fill="rgb(0%, 0%, 0%)" fill-opacity="1" d="M 12.378906 18.804688 C 12.378906 18.179688 11.878906 17.648438 11.285156 17.648438 C 10.691406 17.648438 10.191406 18.148438 10.191406 18.804688 C 10.191406 19.554688 10.847656 19.867188 11.285156 19.867188 C 11.691406 19.867188 12.378906 19.523438 12.378906 18.804688 Z M 12.378906 18.804688 "/>
<path fill-rule="nonzero" fill="rgb(0%, 0%, 0%)" fill-opacity="1" d="M 21.066406 18.804688 C 21.066406 18.179688 20.566406 17.648438 19.972656 17.648438 C 19.378906 17.648438 18.878906 18.148438 18.878906 18.804688 C 18.878906 19.554688 19.535156 19.867188 19.972656 19.867188 C 20.378906 19.867188 21.066406 19.523438 21.066406 18.804688 Z M 21.066406 18.804688 "/>
<path fill-rule="nonzero" fill="rgb(0%, 0%, 0%)" fill-opacity="1" d="M 29.773438 18.804688 C 29.773438 18.179688 29.273438 17.648438 28.679688 17.648438 C 28.085938 17.648438 27.585938 18.148438 27.585938 18.804688 C 27.585938 19.554688 28.242188 19.867188 28.679688 19.867188 C 29.085938 19.867188 29.773438 19.523438 29.773438 18.804688 Z M 29.773438 18.804688 "/>
<path fill-rule="nonzero" fill="rgb(0%, 0%, 0%)" fill-opacity="1" d="M 111.269531 11.960938 L 111.707031 11.304688 L 109.113281 21.210938 C 108.988281 21.679688 108.894531 22.023438 108.738281 22.304688 C 108.582031 22.773438 108.175781 23.273438 107.738281 23.460938 C 107.519531 23.554688 107.207031 23.617188 106.894531 23.617188 L 106.800781 23.898438 L 112.550781 23.898438 L 112.644531 23.617188 C 112.019531 23.617188 111.519531 23.554688 111.269531 23.367188 C 110.988281 23.148438 110.925781 22.710938 110.925781 22.304688 C 110.925781 21.992188 110.988281 21.554688 111.144531 21.023438 L 113.113281 13.554688 C 113.269531 12.929688 113.394531 12.429688 113.519531 12.054688 C 113.738281 11.460938 114.175781 10.804688 114.613281 10.492188 C 114.832031 10.367188 115.113281 10.335938 115.457031 10.335938 L 115.550781 10.054688 L 111.957031 10.054688 L 105.269531 20.773438 L 104.988281 20.773438 L 103.707031 10.054688 L 99.425781 10.054688 L 99.332031 10.335938 C 99.957031 10.335938 100.363281 10.335938 100.582031 10.460938 C 100.863281 10.585938 101.207031 11.085938 101.207031 11.460938 C 101.207031 11.773438 101.144531 12.273438 100.957031 12.929688 L 98.769531 21.210938 C 98.613281 21.835938 98.113281 22.523438 97.644531 22.929688 C 97.207031 23.335938 96.519531 23.617188 95.957031 23.617188 L 95.894531 23.898438 L 100.863281 23.898438 L 100.957031 23.617188 C 100.488281 23.585938 99.957031 23.492188 99.738281 23.179688 C 99.519531 22.867188 99.207031 22.335938 99.207031 21.835938 C 99.207031 21.554688 99.207031 21.273438 99.269531 21.023438 L 101.675781 11.960938 L 101.800781 11.523438 L 103.269531 23.898438 L 103.863281 23.898438 Z M 111.269531 11.960938 "/>
<path fill-rule="nonzero" fill="rgb(0%, 0%, 0%)" fill-opacity="1" d="M 119.292969 27.011719 C 120.574219 27.011719 121.199219 25.792969 121.574219 25.105469 L 121.355469 24.980469 C 121.042969 25.417969 120.480469 26.417969 120.042969 26.417969 C 119.824219 26.417969 119.824219 26.042969 119.824219 25.917969 C 119.824219 25.761719 119.886719 25.511719 120.011719 25.136719 C 120.105469 24.792969 120.230469 24.386719 120.417969 23.824219 C 120.636719 23.042969 120.886719 22.011719 120.886719 21.480469 C 120.886719 20.855469 120.667969 20.542969 120.011719 20.542969 C 118.917969 20.542969 118.074219 21.449219 117.511719 22.449219 L 117.480469 22.386719 C 117.574219 22.105469 117.605469 21.886719 117.605469 21.480469 C 117.605469 20.886719 117.511719 20.542969 116.917969 20.542969 C 115.574219 20.542969 115.199219 21.792969 114.824219 22.917969 L 115.136719 22.980469 C 115.292969 22.417969 115.824219 20.886719 116.480469 20.886719 C 116.605469 20.886719 116.761719 21.011719 116.761719 21.230469 C 116.761719 21.511719 116.667969 22.042969 116.574219 22.324219 C 116.386719 22.949219 116.261719 23.511719 116.011719 24.199219 L 115.136719 26.886719 L 116.105469 26.886719 L 116.949219 24.386719 C 117.261719 23.605469 117.761719 22.480469 118.261719 21.855469 C 118.574219 21.480469 119.136719 20.855469 119.636719 20.855469 C 119.824219 20.855469 119.949219 21.011719 119.949219 21.292969 C 119.949219 21.355469 119.917969 21.605469 119.917969 21.667969 C 119.824219 22.167969 119.699219 22.542969 119.574219 22.980469 C 119.261719 24.042969 119.105469 24.761719 118.792969 25.730469 C 118.792969 25.855469 118.730469 25.980469 118.730469 26.074219 C 118.730469 26.574219 118.824219 27.011719 119.292969 27.011719 Z M 119.292969 27.011719 "/>
<path fill-rule="nonzero" fill="rgb(0%, 0%, 0%)" fill-opacity="1" d="M 131.492188 23.574219 L 131.492188 22.730469 L 124.054688 22.730469 L 124.054688 23.574219 Z M 131.492188 23.574219 "/>
<path fill-rule="nonzero" fill="rgb(0%, 0%, 0%)" fill-opacity="1" d="M 140.324219 24.230469 L 139.824219 24.230469 C 139.792969 24.574219 139.636719 25.417969 139.449219 25.574219 C 139.324219 25.636719 138.199219 25.636719 138.011719 25.636719 L 135.324219 25.636719 C 136.855469 24.292969 137.355469 23.886719 138.230469 23.199219 C 139.324219 22.355469 140.324219 21.449219 140.324219 20.074219 C 140.324219 18.324219 138.792969 17.230469 136.917969 17.230469 C 135.105469 17.230469 133.886719 18.511719 133.886719 19.824219 C 133.886719 20.574219 134.511719 20.667969 134.667969 20.667969 C 135.011719 20.667969 135.449219 20.417969 135.449219 19.886719 C 135.449219 19.636719 135.324219 19.105469 134.574219 19.105469 C 135.042969 18.074219 136.011719 17.761719 136.699219 17.761719 C 138.167969 17.761719 138.917969 18.886719 138.917969 20.074219 C 138.917969 21.324219 138.011719 22.324219 137.542969 22.855469 L 134.042969 26.324219 C 133.886719 26.449219 133.886719 26.480469 133.886719 26.886719 L 139.886719 26.886719 Z M 140.324219 24.230469 "/>
<path fill-rule="nonzero" fill="rgb(0%, 0%, 0%)" fill-opacity="1" d="M 222.164062 11.960938 L 222.601562 11.304688 L 220.007812 21.210938 C 219.882812 21.679688 219.789062 22.023438 219.632812 22.304688 C 219.476562 22.773438 219.070312 23.273438 218.632812 23.460938 C 218.414062 23.554688 218.101562 23.617188 217.789062 23.617188 L 217.695312 23.898438 L 223.445312 23.898438 L 223.539062 23.617188 C 222.914062 23.617188 222.414062 23.554688 222.164062 23.367188 C 221.882812 23.148438 221.820312 22.710938 221.820312 22.304688 C 221.820312 21.992188 221.882812 21.554688 222.039062 21.023438 L 224.007812 13.554688 C 224.164062 12.929688 224.289062 12.429688 224.414062 12.054688 C 224.632812 11.460938 225.070312 10.804688 225.507812 10.492188 C 225.726562 10.367188 226.007812 10.335938 226.351562 10.335938 L 226.445312 10.054688 L 222.851562 10.054688 L 216.164062 20.773438 L 215.882812 20.773438 L 214.601562 10.054688 L 210.320312 10.054688 L 210.226562 10.335938 C 210.851562 10.335938 211.257812 10.335938 211.476562 10.460938 C 211.757812 10.585938 212.101562 11.085938 212.101562 11.460938 C 212.101562 11.773438 212.039062 12.273438 211.851562 12.929688 L 209.664062 21.210938 C 209.507812 21.835938 209.007812 22.523438 208.539062 22.929688 C 208.101562 23.335938 207.414062 23.617188 206.851562 23.617188 L 206.789062 23.898438 L 211.757812 23.898438 L 211.851562 23.617188 C 211.382812 23.585938 210.851562 23.492188 210.632812 23.179688 C 210.414062 22.867188 210.101562 22.335938 210.101562 21.835938 C 210.101562 21.554688 210.101562 21.273438 210.164062 21.023438 L 212.570312 11.960938 L 212.695312 11.523438 L 214.164062 23.898438 L 214.757812 23.898438 Z M 222.164062 11.960938 "/>
<path fill-rule="nonzero" fill="rgb(0%, 0%, 0%)" fill-opacity="1" d="M 230.191406 27.011719 C 231.472656 27.011719 232.097656 25.792969 232.472656 25.105469 L 232.253906 24.980469 C 231.941406 25.417969 231.378906 26.417969 230.941406 26.417969 C 230.722656 26.417969 230.722656 26.042969 230.722656 25.917969 C 230.722656 25.761719 230.785156 25.511719 230.910156 25.136719 C 231.003906 24.792969 231.128906 24.386719 231.316406 23.824219 C 231.535156 23.042969 231.785156 22.011719 231.785156 21.480469 C 231.785156 20.855469 231.566406 20.542969 230.910156 20.542969 C 229.816406 20.542969 228.972656 21.449219 228.410156 22.449219 L 228.378906 22.386719 C 228.472656 22.105469 228.503906 21.886719 228.503906 21.480469 C 228.503906 20.886719 228.410156 20.542969 227.816406 20.542969 C 226.472656 20.542969 226.097656 21.792969 225.722656 22.917969 L 226.035156 22.980469 C 226.191406 22.417969 226.722656 20.886719 227.378906 20.886719 C 227.503906 20.886719 227.660156 21.011719 227.660156 21.230469 C 227.660156 21.511719 227.566406 22.042969 227.472656 22.324219 C 227.285156 22.949219 227.160156 23.511719 226.910156 24.199219 L 226.035156 26.886719 L 227.003906 26.886719 L 227.847656 24.386719 C 228.160156 23.605469 228.660156 22.480469 229.160156 21.855469 C 229.472656 21.480469 230.035156 20.855469 230.535156 20.855469 C 230.722656 20.855469 230.847656 21.011719 230.847656 21.292969 C 230.847656 21.355469 230.816406 21.605469 230.816406 21.667969 C 230.722656 22.167969 230.597656 22.542969 230.472656 22.980469 C 230.160156 24.042969 230.003906 24.761719 229.691406 25.730469 C 229.691406 25.855469 229.628906 25.980469 229.628906 26.074219 C 229.628906 26.574219 229.722656 27.011719 230.191406 27.011719 Z M 230.191406 27.011719 "/>
<path fill-rule="nonzero" fill="rgb(0%, 0%, 0%)" fill-opacity="1" d="M 250.445312 23.210938 L 246.007812 18.773438 L 250.445312 14.335938 L 249.664062 13.523438 L 245.226562 17.992188 L 240.789062 13.523438 L 240.007812 14.335938 L 244.414062 18.773438 L 240.007812 23.210938 L 240.789062 23.992188 L 245.226562 19.554688 L 249.664062 23.992188 Z M 250.445312 23.210938 "/>
<path fill-rule="nonzero" fill="rgb(0%, 0%, 0%)" fill-opacity="1" d="M 266.214844 15.304688 C 266.214844 12.429688 265.339844 10.117188 263.183594 10.117188 C 261.496094 10.117188 259.683594 11.710938 259.683594 12.585938 C 259.683594 13.242188 260.214844 13.523438 260.621094 13.523438 C 261.027344 13.523438 261.277344 13.179688 261.339844 13.117188 C 261.277344 13.085938 261.152344 12.898438 261.152344 12.617188 C 261.152344 12.429688 261.496094 10.710938 263.214844 10.710938 C 264.652344 10.710938 264.964844 12.554688 264.964844 14.179688 C 264.964844 15.398438 264.808594 16.460938 264.808594 16.492188 L 264.777344 16.492188 C 264.777344 16.460938 263.996094 15.242188 262.433594 15.242188 C 258.433594 15.242188 256.777344 19.117188 256.777344 21.179688 C 256.777344 23.023438 257.871094 24.210938 260.089844 24.210938 C 263.527344 24.210938 266.214844 20.742188 266.214844 15.304688 Z M 263.933594 17.554688 C 263.933594 18.085938 263.433594 23.742188 260.214844 23.742188 C 259.089844 23.742188 258.589844 23.085938 258.589844 21.835938 C 258.589844 20.554688 259.402344 15.710938 262.277344 15.710938 C 263.402344 15.710938 263.933594 16.367188 263.933594 17.554688 Z M 263.933594 17.554688 "/>
<path fill-rule="nonzero" fill="rgb(0%, 0%, 0%)" fill-opacity="1" d="M 279.734375 23.898438 L 274.171875 10.429688 L 273.828125 10.429688 L 267.890625 23.898438 Z M 277.421875 23.054688 L 269.203125 23.054688 L 273.484375 13.398438 Z M 277.421875 23.054688 "/>
<path fill-rule="nonzero" fill="rgb(0%, 0%, 0%)" fill-opacity="1" d="M 285.035156 16.789062 C 286.316406 16.789062 286.941406 15.570312 287.316406 14.882812 L 287.097656 14.757812 C 286.785156 15.195312 286.222656 16.195312 285.785156 16.195312 C 285.566406 16.195312 285.566406 15.820312 285.566406 15.695312 C 285.566406 15.539062 285.628906 15.289062 285.753906 14.914062 C 285.847656 14.570312 285.972656 14.164062 286.160156 13.601562 C 286.378906 12.820312 286.628906 11.789062 286.628906 11.257812 C 286.628906 10.632812 286.410156 10.320312 285.753906 10.320312 C 284.660156 10.320312 283.816406 11.226562 283.253906 12.226562 L 283.222656 12.164062 C 283.316406 11.882812 283.347656 11.664062 283.347656 11.257812 C 283.347656 10.664062 283.253906 10.320312 282.660156 10.320312 C 281.316406 10.320312 280.941406 11.570312 280.566406 12.695312 L 280.878906 12.757812 C 281.035156 12.195312 281.566406 10.664062 282.222656 10.664062 C 282.347656 10.664062 282.503906 10.789062 282.503906 11.007812 C 282.503906 11.289062 282.410156 11.820312 282.316406 12.101562 C 282.128906 12.726562 282.003906 13.289062 281.753906 13.976562 L 280.878906 16.664062 L 281.847656 16.664062 L 282.691406 14.164062 C 283.003906 13.382812 283.503906 12.257812 284.003906 11.632812 C 284.316406 11.257812 284.878906 10.632812 285.378906 10.632812 C 285.566406 10.632812 285.691406 10.789062 285.691406 11.070312 C 285.691406 11.132812 285.660156 11.382812 285.660156 11.445312 C 285.566406 11.945312 285.441406 12.320312 285.316406 12.757812 C 285.003906 13.820312 284.847656 14.539062 284.535156 15.507812 C 284.535156 15.632812 284.472656 15.757812 284.472656 15.851562 C 284.472656 16.351562 284.566406 16.789062 285.035156 16.789062 Z M 285.035156 16.789062 "/>
<path fill-rule="nonzero" fill="rgb(0%, 0%, 0%)" fill-opacity="1" d="M 369.207031 11.960938 L 369.644531 11.304688 L 367.050781 21.210938 C 366.925781 21.679688 366.832031 22.023438 366.675781 22.304688 C 366.519531 22.773438 366.113281 23.273438 365.675781 23.460938 C 365.457031 23.554688 365.144531 23.617188 364.832031 23.617188 L 364.738281 23.898438 L 370.488281 23.898438 L 370.582031 23.617188 C 369.957031 23.617188 369.457031 23.554688 369.207031 23.367188 C 368.925781 23.148438 368.863281 22.710938 368.863281 22.304688 C 368.863281 21.992188 368.925781 21.554688 369.082031 21.023438 L 371.050781 13.554688 C 371.207031 12.929688 371.332031 12.429688 371.457031 12.054688 C 371.675781 11.460938 372.113281 10.804688 372.550781 10.492188 C 372.769531 10.367188 373.050781 10.335938 373.394531 10.335938 L 373.488281 10.054688 L 369.894531 10.054688 L 363.207031 20.773438 L 362.925781 20.773438 L 361.644531 10.054688 L 357.363281 10.054688 L 357.269531 10.335938 C 357.894531 10.335938 358.300781 10.335938 358.519531 10.460938 C 358.800781 10.585938 359.144531 11.085938 359.144531 11.460938 C 359.144531 11.773438 359.082031 12.273438 358.894531 12.929688 L 356.707031 21.210938 C 356.550781 21.835938 356.050781 22.523438 355.582031 22.929688 C 355.144531 23.335938 354.457031 23.617188 353.894531 23.617188 L 353.832031 23.898438 L 358.800781 23.898438 L 358.894531 23.617188 C 358.425781 23.585938 357.894531 23.492188 357.675781 23.179688 C 357.457031 22.867188 357.144531 22.335938 357.144531 21.835938 C 357.144531 21.554688 357.144531 21.273438 357.207031 21.023438 L 359.613281 11.960938 L 359.738281 11.523438 L 361.207031 23.898438 L 361.800781 23.898438 Z M 369.207031 11.960938 "/>
<path fill-rule="nonzero" fill="rgb(0%, 0%, 0%)" fill-opacity="1" d="M 377.234375 27.011719 C 378.515625 27.011719 379.140625 25.792969 379.515625 25.105469 L 379.296875 24.980469 C 378.984375 25.417969 378.421875 26.417969 377.984375 26.417969 C 377.765625 26.417969 377.765625 26.042969 377.765625 25.917969 C 377.765625 25.761719 377.828125 25.511719 377.953125 25.136719 C 378.046875 24.792969 378.171875 24.386719 378.359375 23.824219 C 378.578125 23.042969 378.828125 22.011719 378.828125 21.480469 C 378.828125 20.855469 378.609375 20.542969 377.953125 20.542969 C 376.859375 20.542969 376.015625 21.449219 375.453125 22.449219 L 375.421875 22.386719 C 375.515625 22.105469 375.546875 21.886719 375.546875 21.480469 C 375.546875 20.886719 375.453125 20.542969 374.859375 20.542969 C 373.515625 20.542969 373.140625 21.792969 372.765625 22.917969 L 373.078125 22.980469 C 373.234375 22.417969 373.765625 20.886719 374.421875 20.886719 C 374.546875 20.886719 374.703125 21.011719 374.703125 21.230469 C 374.703125 21.511719 374.609375 22.042969 374.515625 22.324219 C 374.328125 22.949219 374.203125 23.511719 373.953125 24.199219 L 373.078125 26.886719 L 374.046875 26.886719 L 374.890625 24.386719 C 375.203125 23.605469 375.703125 22.480469 376.203125 21.855469 C 376.515625 21.480469 377.078125 20.855469 377.578125 20.855469 C 377.765625 20.855469 377.890625 21.011719 377.890625 21.292969 C 377.890625 21.355469 377.859375 21.605469 377.859375 21.667969 C 377.765625 22.167969 377.640625 22.542969 377.515625 22.980469 C 377.203125 24.042969 377.046875 24.761719 376.734375 25.730469 C 376.734375 25.855469 376.671875 25.980469 376.671875 26.074219 C 376.671875 26.574219 376.765625 27.011719 377.234375 27.011719 Z M 377.234375 27.011719 "/>
<path fill-rule="nonzero" fill="rgb(0%, 0%, 0%)" fill-opacity="1" d="M 12.378906 85.4375 C 12.378906 84.8125 11.878906 84.28125 11.285156 84.28125 C 10.691406 84.28125 10.191406 84.78125 10.191406 85.4375 C 10.191406 86.1875 10.847656 86.5 11.285156 86.5 C 11.691406 86.5 12.378906 86.15625 12.378906 85.4375 Z M 12.378906 85.4375 "/>
<path fill-rule="nonzero" fill="rgb(0%, 0%, 0%)" fill-opacity="1" d="M 21.066406 85.4375 C 21.066406 84.8125 20.566406 84.28125 19.972656 84.28125 C 19.378906 84.28125 18.878906 84.78125 18.878906 85.4375 C 18.878906 86.1875 19.535156 86.5 19.972656 86.5 C 20.378906 86.5 21.066406 86.15625 21.066406 85.4375 Z M 21.066406 85.4375 "/>
<path fill-rule="nonzero" fill="rgb(0%, 0%, 0%)" fill-opacity="1" d="M 29.773438 85.4375 C 29.773438 84.8125 29.273438 84.28125 28.679688 84.28125 C 28.085938 84.28125 27.585938 84.78125 27.585938 85.4375 C 27.585938 86.1875 28.242188 86.5 28.679688 86.5 C 29.085938 86.5 29.773438 86.15625 29.773438 85.4375 Z M 29.773438 85.4375 "/>
<path fill-rule="nonzero" fill="rgb(0%, 0%, 0%)" fill-opacity="1" d="M 112.765625 90.53125 L 112.765625 77.34375 L 109.859375 77.34375 L 105.671875 89 L 105.609375 89 L 101.609375 77.34375 L 98.515625 77.34375 L 98.515625 90.53125 L 99.390625 90.53125 L 99.390625 81.1875 L 99.421875 81.1875 L 102.671875 90.53125 L 106.046875 90.53125 L 109.421875 81.125 L 109.453125 81.125 L 109.453125 90.53125 Z M 111.890625 89.65625 L 110.328125 89.65625 L 110.328125 78.21875 L 111.890625 78.21875 Z M 104.953125 89.65625 L 103.296875 89.65625 L 99.734375 79.4375 L 99.328125 78.21875 L 100.921875 78.21875 Z M 104.953125 89.65625 "/>
<path fill-rule="nonzero" fill="rgb(0%, 0%, 0%)" fill-opacity="1" d="M 118.546875 93.644531 C 119.828125 93.644531 120.453125 92.425781 120.828125 91.738281 L 120.609375 91.613281 C 120.296875 92.050781 119.734375 93.050781 119.296875 93.050781 C 119.078125 93.050781 119.078125 92.675781 119.078125 92.550781 C 119.078125 92.394531 119.140625 92.144531 119.265625 91.769531 C 119.359375 91.425781 119.484375 91.019531 119.671875 90.457031 C 119.890625 89.675781 120.140625 88.644531 120.140625 88.113281 C 120.140625 87.488281 119.921875 87.175781 119.265625 87.175781 C 118.171875 87.175781 117.328125 88.082031 116.765625 89.082031 L 116.734375 89.019531 C 116.828125 88.738281 116.859375 88.519531 116.859375 88.113281 C 116.859375 87.519531 116.765625 87.175781 116.171875 87.175781 C 114.828125 87.175781 114.453125 88.425781 114.078125 89.550781 L 114.390625 89.613281 C 114.546875 89.050781 115.078125 87.519531 115.734375 87.519531 C 115.859375 87.519531 116.015625 87.644531 116.015625 87.863281 C 116.015625 88.144531 115.921875 88.675781 115.828125 88.957031 C 115.640625 89.582031 115.515625 90.144531 115.265625 90.832031 L 114.390625 93.519531 L 115.359375 93.519531 L 116.203125 91.019531 C 116.515625 90.238281 117.015625 89.113281 117.515625 88.488281 C 117.828125 88.113281 118.390625 87.488281 118.890625 87.488281 C 119.078125 87.488281 119.203125 87.644531 119.203125 87.925781 C 119.203125 87.988281 119.171875 88.238281 119.171875 88.300781 C 119.078125 88.800781 118.953125 89.175781 118.828125 89.613281 C 118.515625 90.675781 118.359375 91.394531 118.046875 92.363281 C 118.046875 92.488281 117.984375 92.613281 117.984375 92.707031 C 117.984375 93.207031 118.078125 93.644531 118.546875 93.644531 Z M 118.546875 93.644531 "/>
<path fill-rule="nonzero" fill="rgb(0%, 0%, 0%)" fill-opacity="1" d="M 130.746094 90.207031 L 130.746094 89.363281 L 123.308594 89.363281 L 123.308594 90.207031 Z M 130.746094 90.207031 "/>
<path fill-rule="nonzero" fill="rgb(0%, 0%, 0%)" fill-opacity="1" d="M 139.578125 90.863281 L 139.078125 90.863281 C 139.046875 91.207031 138.890625 92.050781 138.703125 92.207031 C 138.578125 92.269531 137.453125 92.269531 137.265625 92.269531 L 134.578125 92.269531 C 136.109375 90.925781 136.609375 90.519531 137.484375 89.832031 C 138.578125 88.988281 139.578125 88.082031 139.578125 86.707031 C 139.578125 84.957031 138.046875 83.863281 136.171875 83.863281 C 134.359375 83.863281 133.140625 85.144531 133.140625 86.457031 C 133.140625 87.207031 133.765625 87.300781 133.921875 87.300781 C 134.265625 87.300781 134.703125 87.050781 134.703125 86.519531 C 134.703125 86.269531 134.578125 85.738281 133.828125 85.738281 C 134.296875 84.707031 135.265625 84.394531 135.953125 84.394531 C 137.421875 84.394531 138.171875 85.519531 138.171875 86.707031 C 138.171875 87.957031 137.265625 88.957031 136.796875 89.488281 L 133.296875 92.957031 C 133.140625 93.082031 133.140625 93.113281 133.140625 93.519531 L 139.140625 93.519531 Z M 139.578125 90.863281 "/>
<path fill-rule="nonzero" fill="rgb(0%, 0%, 0%)" fill-opacity="1" d="M 241.734375 90.53125 L 241.734375 77.34375 L 238.828125 77.34375 L 234.640625 89 L 234.578125 89 L 230.578125 77.34375 L 227.484375 77.34375 L 227.484375 90.53125 L 228.359375 90.53125 L 228.359375 81.1875 L 228.390625 81.1875 L 231.640625 90.53125 L 235.015625 90.53125 L 238.390625 81.125 L 238.421875 81.125 L 238.421875 90.53125 Z M 240.859375 89.65625 L 239.296875 89.65625 L 239.296875 78.21875 L 240.859375 78.21875 Z M 233.921875 89.65625 L 232.265625 89.65625 L 228.703125 79.4375 L 228.296875 78.21875 L 229.890625 78.21875 Z M 233.921875 89.65625 "/>
<path fill-rule="nonzero" fill="rgb(0%, 0%, 0%)" fill-opacity="1" d="M 247.515625 93.644531 C 248.796875 93.644531 249.421875 92.425781 249.796875 91.738281 L 249.578125 91.613281 C 249.265625 92.050781 248.703125 93.050781 248.265625 93.050781 C 248.046875 93.050781 248.046875 92.675781 248.046875 92.550781 C 248.046875 92.394531 248.109375 92.144531 248.234375 91.769531 C 248.328125 91.425781 248.453125 91.019531 248.640625 90.457031 C 248.859375 89.675781 249.109375 88.644531 249.109375 88.113281 C 249.109375 87.488281 248.890625 87.175781 248.234375 87.175781 C 247.140625 87.175781 246.296875 88.082031 245.734375 89.082031 L 245.703125 89.019531 C 245.796875 88.738281 245.828125 88.519531 245.828125 88.113281 C 245.828125 87.519531 245.734375 87.175781 245.140625 87.175781 C 243.796875 87.175781 243.421875 88.425781 243.046875 89.550781 L 243.359375 89.613281 C 243.515625 89.050781 244.046875 87.519531 244.703125 87.519531 C 244.828125 87.519531 244.984375 87.644531 244.984375 87.863281 C 244.984375 88.144531 244.890625 88.675781 244.796875 88.957031 C 244.609375 89.582031 244.484375 90.144531 244.234375 90.832031 L 243.359375 93.519531 L 244.328125 93.519531 L 245.171875 91.019531 C 245.484375 90.238281 245.984375 89.113281 246.484375 88.488281 C 246.796875 88.113281 247.359375 87.488281 247.859375 87.488281 C 248.046875 87.488281 248.171875 87.644531 248.171875 87.925781 C 248.171875 87.988281 248.140625 88.238281 248.140625 88.300781 C 248.046875 88.800781 247.921875 89.175781 247.796875 89.613281 C 247.484375 90.675781 247.328125 91.394531 247.015625 92.363281 C 247.015625 92.488281 246.953125 92.613281 246.953125 92.707031 C 246.953125 93.207031 247.046875 93.644531 247.515625 93.644531 Z M 247.515625 93.644531 "/>
<path fill-rule="nonzero" fill="rgb(0%, 0%, 0%)" fill-opacity="1" d="M 259.714844 90.207031 L 259.714844 89.363281 L 252.277344 89.363281 L 252.277344 90.207031 Z M 259.714844 90.207031 "/>
<path fill-rule="nonzero" fill="rgb(0%, 0%, 0%)" fill-opacity="1" d="M 268.078125 93.519531 L 268.078125 92.988281 L 267.515625 92.988281 C 266.078125 92.988281 266.078125 92.800781 266.078125 92.332031 L 266.078125 84.269531 C 266.078125 83.894531 266.046875 83.863281 265.640625 83.863281 C 264.703125 84.800781 263.390625 84.800781 262.796875 84.800781 L 262.796875 85.332031 C 263.140625 85.332031 264.109375 85.332031 264.890625 84.925781 L 264.890625 92.332031 C 264.890625 92.800781 264.890625 92.988281 263.453125 92.988281 L 262.890625 92.988281 L 262.890625 93.519531 L 265.484375 93.457031 Z M 268.078125 93.519531 "/>
<path fill-rule="nonzero" fill="rgb(0%, 0%, 0%)" fill-opacity="1" d="M 370.703125 90.53125 L 370.703125 77.34375 L 367.796875 77.34375 L 363.609375 89 L 363.546875 89 L 359.546875 77.34375 L 356.453125 77.34375 L 356.453125 90.53125 L 357.328125 90.53125 L 357.328125 81.1875 L 357.359375 81.1875 L 360.609375 90.53125 L 363.984375 90.53125 L 367.359375 81.125 L 367.390625 81.125 L 367.390625 90.53125 Z M 369.828125 89.65625 L 368.265625 89.65625 L 368.265625 78.21875 L 369.828125 78.21875 Z M 362.890625 89.65625 L 361.234375 89.65625 L 357.671875 79.4375 L 357.265625 78.21875 L 358.859375 78.21875 Z M 362.890625 89.65625 "/>
<path fill-rule="nonzero" fill="rgb(0%, 0%, 0%)" fill-opacity="1" d="M 376.484375 93.644531 C 377.765625 93.644531 378.390625 92.425781 378.765625 91.738281 L 378.546875 91.613281 C 378.234375 92.050781 377.671875 93.050781 377.234375 93.050781 C 377.015625 93.050781 377.015625 92.675781 377.015625 92.550781 C 377.015625 92.394531 377.078125 92.144531 377.203125 91.769531 C 377.296875 91.425781 377.421875 91.019531 377.609375 90.457031 C 377.828125 89.675781 378.078125 88.644531 378.078125 88.113281 C 378.078125 87.488281 377.859375 87.175781 377.203125 87.175781 C 376.109375 87.175781 375.265625 88.082031 374.703125 89.082031 L 374.671875 89.019531 C 374.765625 88.738281 374.796875 88.519531 374.796875 88.113281 C 374.796875 87.519531 374.703125 87.175781 374.109375 87.175781 C 372.765625 87.175781 372.390625 88.425781 372.015625 89.550781 L 372.328125 89.613281 C 372.484375 89.050781 373.015625 87.519531 373.671875 87.519531 C 373.796875 87.519531 373.953125 87.644531 373.953125 87.863281 C 373.953125 88.144531 373.859375 88.675781 373.765625 88.957031 C 373.578125 89.582031 373.453125 90.144531 373.203125 90.832031 L 372.328125 93.519531 L 373.296875 93.519531 L 374.140625 91.019531 C 374.453125 90.238281 374.953125 89.113281 375.453125 88.488281 C 375.765625 88.113281 376.328125 87.488281 376.828125 87.488281 C 377.015625 87.488281 377.140625 87.644531 377.140625 87.925781 C 377.140625 87.988281 377.109375 88.238281 377.109375 88.300781 C 377.015625 88.800781 376.890625 89.175781 376.765625 89.613281 C 376.453125 90.675781 376.296875 91.394531 375.984375 92.363281 C 375.984375 92.488281 375.921875 92.613281 375.921875 92.707031 C 375.921875 93.207031 376.015625 93.644531 376.484375 93.644531 Z M 376.484375 93.644531 "/>
<path fill-rule="nonzero" fill="rgb(0%, 0%, 0%)" fill-opacity="1" d="M 111.714844 152.910156 C 111.714844 152.285156 111.214844 151.753906 110.621094 151.753906 C 110.027344 151.753906 109.527344 152.253906 109.527344 152.910156 C 109.527344 153.660156 110.183594 153.972656 110.621094 153.972656 C 111.027344 153.972656 111.714844 153.628906 111.714844 152.910156 Z M 111.714844 152.910156 "/>
<path fill-rule="nonzero" fill="rgb(0%, 0%, 0%)" fill-opacity="1" d="M 120.402344 152.910156 C 120.402344 152.285156 119.902344 151.753906 119.308594 151.753906 C 118.714844 151.753906 118.214844 152.253906 118.214844 152.910156 C 118.214844 153.660156 118.871094 153.972656 119.308594 153.972656 C 119.714844 153.972656 120.402344 153.628906 120.402344 152.910156 Z M 120.402344 152.910156 "/>
<path fill-rule="nonzero" fill="rgb(0%, 0%, 0%)" fill-opacity="1" d="M 129.109375 152.910156 C 129.109375 152.285156 128.609375 151.753906 128.015625 151.753906 C 127.421875 151.753906 126.921875 152.253906 126.921875 152.910156 C 126.921875 153.660156 127.578125 153.972656 128.015625 153.972656 C 128.421875 153.972656 129.109375 153.628906 129.109375 152.910156 Z M 129.109375 152.910156 "/>
<path fill-rule="nonzero" fill="rgb(0%, 0%, 0%)" fill-opacity="1" d="M 240.234375 146.066406 L 240.671875 145.410156 L 238.078125 155.316406 C 237.953125 155.785156 237.859375 156.128906 237.703125 156.410156 C 237.546875 156.878906 237.140625 157.378906 236.703125 157.566406 C 236.484375 157.660156 236.171875 157.722656 235.859375 157.722656 L 235.765625 158.003906 L 241.515625 158.003906 L 241.609375 157.722656 C 240.984375 157.722656 240.484375 157.660156 240.234375 157.472656 C 239.953125 157.253906 239.890625 156.816406 239.890625 156.410156 C 239.890625 156.097656 239.953125 155.660156 240.109375 155.128906 L 242.078125 147.660156 C 242.234375 147.035156 242.359375 146.535156 242.484375 146.160156 C 242.703125 145.566406 243.140625 144.910156 243.578125 144.597656 C 243.796875 144.472656 244.078125 144.441406 244.421875 144.441406 L 244.515625 144.160156 L 240.921875 144.160156 L 234.234375 154.878906 L 233.953125 154.878906 L 232.671875 144.160156 L 228.390625 144.160156 L 228.296875 144.441406 C 228.921875 144.441406 229.328125 144.441406 229.546875 144.566406 C 229.828125 144.691406 230.171875 145.191406 230.171875 145.566406 C 230.171875 145.878906 230.109375 146.378906 229.921875 147.035156 L 227.734375 155.316406 C 227.578125 155.941406 227.078125 156.628906 226.609375 157.035156 C 226.171875 157.441406 225.484375 157.722656 224.921875 157.722656 L 224.859375 158.003906 L 229.828125 158.003906 L 229.921875 157.722656 C 229.453125 157.691406 228.921875 157.597656 228.703125 157.285156 C 228.484375 156.972656 228.171875 156.441406 228.171875 155.941406 C 228.171875 155.660156 228.171875 155.378906 228.234375 155.128906 L 230.640625 146.066406 L 230.765625 145.628906 L 232.234375 158.003906 L 232.828125 158.003906 Z M 240.234375 146.066406 "/>
<path fill-rule="nonzero" fill="rgb(0%, 0%, 0%)" fill-opacity="1" d="M 248.265625 161.117188 C 249.546875 161.117188 250.171875 159.898438 250.546875 159.210938 L 250.328125 159.085938 C 250.015625 159.523438 249.453125 160.523438 249.015625 160.523438 C 248.796875 160.523438 248.796875 160.148438 248.796875 160.023438 C 248.796875 159.867188 248.859375 159.617188 248.984375 159.242188 C 249.078125 158.898438 249.203125 158.492188 249.390625 157.929688 C 249.609375 157.148438 249.859375 156.117188 249.859375 155.585938 C 249.859375 154.960938 249.640625 154.648438 248.984375 154.648438 C 247.890625 154.648438 247.046875 155.554688 246.484375 156.554688 L 246.453125 156.492188 C 246.546875 156.210938 246.578125 155.992188 246.578125 155.585938 C 246.578125 154.992188 246.484375 154.648438 245.890625 154.648438 C 244.546875 154.648438 244.171875 155.898438 243.796875 157.023438 L 244.109375 157.085938 C 244.265625 156.523438 244.796875 154.992188 245.453125 154.992188 C 245.578125 154.992188 245.734375 155.117188 245.734375 155.335938 C 245.734375 155.617188 245.640625 156.148438 245.546875 156.429688 C 245.359375 157.054688 245.234375 157.617188 244.984375 158.304688 L 244.109375 160.992188 L 245.078125 160.992188 L 245.921875 158.492188 C 246.234375 157.710938 246.734375 156.585938 247.234375 155.960938 C 247.546875 155.585938 248.109375 154.960938 248.609375 154.960938 C 248.796875 154.960938 248.921875 155.117188 248.921875 155.398438 C 248.921875 155.460938 248.890625 155.710938 248.890625 155.773438 C 248.796875 156.273438 248.671875 156.648438 248.546875 157.085938 C 248.234375 158.148438 248.078125 158.867188 247.765625 159.835938 C 247.765625 159.960938 247.703125 160.085938 247.703125 160.179688 C 247.703125 160.679688 247.796875 161.117188 248.265625 161.117188 Z M 248.265625 161.117188 "/>
<path fill-rule="nonzero" fill="rgb(0%, 0%, 0%)" fill-opacity="1" d="M 260.460938 157.679688 L 260.460938 156.835938 L 253.023438 156.835938 L 253.023438 157.679688 Z M 260.460938 157.679688 "/>
<path fill-rule="nonzero" fill="rgb(0%, 0%, 0%)" fill-opacity="1" d="M 268.824219 160.992188 L 268.824219 160.460938 L 268.261719 160.460938 C 266.824219 160.460938 266.824219 160.273438 266.824219 159.804688 L 266.824219 151.742188 C 266.824219 151.367188 266.792969 151.335938 266.386719 151.335938 C 265.449219 152.273438 264.136719 152.273438 263.542969 152.273438 L 263.542969 152.804688 C 263.886719 152.804688 264.855469 152.804688 265.636719 152.398438 L 265.636719 159.804688 C 265.636719 160.273438 265.636719 160.460938 264.199219 160.460938 L 263.636719 160.460938 L 263.636719 160.992188 L 266.230469 160.929688 Z M 268.824219 160.992188 "/>
<path fill="none" stroke-width="0.5579" stroke-linecap="butt" stroke-linejoin="miter" stroke="rgb(0%, 0%, 0%)" stroke-opacity="1" stroke-miterlimit="10" d="M -77.347221 33.385281 L -54.39019 33.385281 " transform="matrix(2, 0, 0, -2, 195.046005, 85.543999)"/>
<path fill="none" stroke-width="0.5579" stroke-linecap="round" stroke-linejoin="round" stroke="rgb(0%, 0%, 0%)" stroke-opacity="1" stroke-miterlimit="10" d="M -2.902168 3.348598 C -2.370918 1.340785 -1.191231 0.391566 0.000175476 0.000941277 C -1.191231 -0.389684 -2.370918 -1.338902 -2.902168 -3.346715 " transform="matrix(2, 0, 0, -2, 86.819962, 18.77532)"/>
<path fill="none" stroke-width="0.5579" stroke-linecap="butt" stroke-linejoin="miter" stroke="rgb(0%, 0%, 0%)" stroke-opacity="1" stroke-miterlimit="10" d="M -37.866753 25.424343 L -37.866753 8.447781 " transform="matrix(2, 0, 0, -2, 195.046005, 85.543999)"/>
<path fill="none" stroke-width="0.5579" stroke-linecap="round" stroke-linejoin="round" stroke="rgb(0%, 0%, 0%)" stroke-opacity="1" stroke-miterlimit="10" d="M -2.902481 3.347115 C -2.371231 1.339302 -1.191544 0.390083 -0.000137329 -0.000541687 C -1.191544 -0.391167 -2.371231 -1.340385 -2.902481 -3.348198 " transform="matrix(0, 2, 2, 0, 119.313583, 69.2034)"/>
<path fill-rule="nonzero" fill="rgb(0%, 0%, 0%)" fill-opacity="1" d="M 130.101562 47.960938 C 130.101562 47.710938 129.914062 47.429688 129.632812 47.429688 C 129.320312 47.429688 128.101562 48.648438 127.695312 48.867188 C 127.695312 48.054688 128.101562 47.242188 128.101562 46.773438 C 128.101562 46.460938 127.914062 46.273438 127.601562 46.273438 C 127.289062 46.273438 127.132812 46.460938 127.132812 46.773438 C 127.132812 47.335938 127.476562 48.085938 127.476562 48.867188 C 127.007812 48.617188 125.882812 47.398438 125.570312 47.398438 C 125.320312 47.398438 125.070312 47.617188 125.070312 47.898438 C 125.070312 48.398438 126.789062 48.742188 127.351562 49.054688 C 126.757812 49.429688 125.601562 49.585938 125.320312 49.773438 C 125.195312 49.898438 125.070312 50.023438 125.070312 50.210938 C 125.070312 50.460938 125.257812 50.710938 125.539062 50.710938 C 125.851562 50.710938 127.039062 49.523438 127.476562 49.273438 C 127.476562 50.085938 127.070312 50.898438 127.070312 51.398438 C 127.070312 51.679688 127.289062 51.898438 127.570312 51.898438 C 127.882812 51.898438 128.039062 51.679688 128.039062 51.398438 C 128.039062 50.804688 127.695312 50.054688 127.695312 49.273438 C 128.164062 49.523438 129.320312 50.742188 129.601562 50.742188 C 129.851562 50.742188 130.101562 50.523438 130.101562 50.242188 C 130.101562 50.054688 129.976562 49.929688 129.820312 49.835938 C 129.445312 49.585938 128.445312 49.429688 127.820312 49.054688 C 128.507812 48.648438 129.414062 48.617188 129.851562 48.367188 C 130.007812 48.273438 130.101562 48.148438 130.101562 47.960938 Z M 130.101562 47.960938 "/>
<path fill-rule="nonzero" fill="rgb(0%, 0%, 0%)" fill-opacity="1" d="M 139.640625 54.988281 L 139.640625 47.738281 L 138.015625 47.738281 L 135.734375 54.144531 L 135.703125 54.144531 L 133.484375 47.738281 L 131.796875 47.738281 L 131.796875 54.988281 L 132.265625 54.988281 L 132.265625 49.832031 L 132.296875 49.832031 L 134.078125 54.988281 L 135.953125 54.988281 L 137.796875 49.800781 L 137.796875 54.988281 Z M 139.140625 54.519531 L 138.296875 54.519531 L 138.296875 48.207031 L 139.140625 48.207031 Z M 135.328125 54.519531 L 134.421875 54.519531 L 132.453125 48.863281 L 132.234375 48.207031 L 133.109375 48.207031 Z M 135.328125 54.519531 "/>
<path fill-rule="nonzero" fill="rgb(0%, 0%, 0%)" fill-opacity="1" d="M 143.777344 58.277344 C 144.777344 58.277344 145.246094 57.339844 145.527344 56.839844 L 145.371094 56.746094 C 145.121094 57.089844 144.683594 57.808594 144.339844 57.808594 C 144.183594 57.808594 144.183594 57.527344 144.183594 57.433594 C 144.183594 57.339844 144.246094 57.152344 144.339844 56.871094 C 144.402344 56.589844 144.496094 56.277344 144.621094 55.871094 C 144.808594 55.277344 144.996094 54.496094 144.996094 54.121094 C 144.996094 53.652344 144.808594 53.402344 144.339844 53.402344 C 143.496094 53.402344 142.871094 54.089844 142.433594 54.839844 L 142.402344 54.808594 C 142.496094 54.558594 142.527344 54.402344 142.527344 54.089844 C 142.527344 53.652344 142.433594 53.402344 141.996094 53.402344 C 140.964844 53.402344 140.714844 54.339844 140.433594 55.183594 L 140.652344 55.246094 C 140.777344 54.808594 141.183594 53.652344 141.683594 53.652344 C 141.777344 53.652344 141.871094 53.746094 141.871094 53.902344 C 141.871094 54.121094 141.808594 54.527344 141.746094 54.746094 C 141.589844 55.214844 141.496094 55.621094 141.308594 56.152344 L 140.652344 58.183594 L 141.371094 58.183594 L 142.027344 56.308594 C 142.246094 55.714844 142.652344 54.871094 142.996094 54.371094 C 143.246094 54.089844 143.683594 53.652344 144.058594 53.652344 C 144.214844 53.652344 144.277344 53.746094 144.277344 53.964844 C 144.277344 54.027344 144.277344 54.183594 144.246094 54.246094 C 144.214844 54.621094 144.089844 54.902344 143.996094 55.246094 C 143.777344 56.027344 143.652344 56.589844 143.433594 57.308594 C 143.402344 57.402344 143.371094 57.496094 143.371094 57.558594 C 143.371094 57.933594 143.433594 58.277344 143.777344 58.277344 Z M 143.777344 58.277344 "/>
<path fill-rule="nonzero" fill="rgb(0%, 0%, 0%)" fill-opacity="1" d="M 152.96875 55.683594 L 152.96875 55.058594 L 147.375 55.058594 L 147.375 55.683594 Z M 152.96875 55.683594 "/>
<path fill-rule="nonzero" fill="rgb(0%, 0%, 0%)" fill-opacity="1" d="M 160.003906 56.121094 L 159.597656 56.121094 C 159.566406 56.277344 159.472656 56.996094 159.285156 57.121094 C 159.222656 57.183594 158.316406 57.183594 158.191406 57.183594 L 156.128906 57.183594 L 157.535156 56.058594 C 157.910156 55.746094 158.878906 55.058594 159.222656 54.714844 C 159.535156 54.402344 160.003906 53.839844 160.003906 53.058594 C 160.003906 51.683594 158.753906 50.902344 157.285156 50.902344 C 155.878906 50.902344 154.878906 51.808594 154.878906 52.839844 C 154.878906 53.402344 155.347656 53.464844 155.472656 53.464844 C 155.753906 53.464844 156.066406 53.277344 156.066406 52.871094 C 156.066406 52.652344 155.941406 52.308594 155.441406 52.308594 C 155.691406 51.746094 156.378906 51.308594 157.128906 51.308594 C 158.285156 51.308594 158.878906 52.183594 158.878906 53.058594 C 158.878906 53.839844 158.378906 54.652344 157.597656 55.339844 L 155.003906 57.714844 C 154.910156 57.839844 154.878906 57.839844 154.878906 58.183594 L 159.660156 58.183594 Z M 160.003906 56.121094 "/>
<path fill="none" stroke-width="0.5579" stroke-linecap="butt" stroke-linejoin="miter" stroke="rgb(0%, 0%, 0%)" stroke-opacity="1" stroke-miterlimit="10" d="M 51.625435 33.385281 L 74.57856 33.385281 " transform="matrix(2, 0, 0, -2, 195.046005, 85.543999)"/>
<path fill="none" stroke-width="0.5579" stroke-linecap="round" stroke-linejoin="round" stroke="rgb(0%, 0%, 0%)" stroke-opacity="1" stroke-miterlimit="10" d="M -2.899704 3.348598 C -2.37236 1.340785 -1.188766 0.391566 -0.00126648 0.000941277 C -1.188766 -0.389684 -2.37236 -1.338902 -2.899704 -3.346715 " transform="matrix(2, 0, 0, -2, 344.760345, 18.77532)"/>
<path fill-rule="nonzero" fill="rgb(0%, 0%, 0%)" fill-opacity="1" d="M 318.625 7.421875 C 318.625 5.609375 317.125 4.140625 315.28125 4.140625 C 314.46875 4.140625 313.625 4.453125 313.03125 5.015625 L 313.03125 4.140625 L 310.84375 4.296875 L 310.84375 4.828125 C 311.84375 4.828125 311.9375 4.890625 311.9375 5.515625 L 311.9375 12.203125 C 311.9375 12.828125 311.78125 12.828125 310.84375 12.828125 L 310.84375 13.359375 C 310.84375 13.359375 311.875 13.296875 312.5 13.296875 C 313.03125 13.296875 314.03125 13.359375 314.15625 13.359375 L 314.15625 12.828125 C 313.21875 12.828125 313.0625 12.828125 313.0625 12.203125 L 313.0625 9.859375 C 313.15625 9.921875 313.84375 10.703125 315.0625 10.703125 C 316.96875 10.703125 318.625 9.265625 318.625 7.421875 Z M 317.28125 7.421875 C 317.28125 9.078125 316.1875 10.296875 314.96875 10.296875 C 313.6875 10.296875 313.125 9.171875 313.0625 9.078125 L 313.0625 5.703125 C 313.5 4.984375 314.34375 4.609375 315.125 4.609375 C 316.34375 4.609375 317.28125 5.890625 317.28125 7.421875 Z M 317.28125 7.421875 "/>
<path fill-rule="nonzero" fill="rgb(0%, 0%, 0%)" fill-opacity="1" d="M 325.207031 5.078125 C 325.207031 4.578125 324.738281 4.140625 324.082031 4.140625 C 323.332031 4.140625 322.550781 4.578125 322.113281 5.703125 L 322.082031 5.703125 L 322.082031 4.140625 L 320.019531 4.296875 L 320.019531 4.828125 C 320.988281 4.828125 321.113281 4.921875 321.113281 5.640625 L 321.113281 9.390625 C 321.113281 10.015625 320.957031 10.015625 320.019531 10.015625 L 320.019531 10.546875 C 320.082031 10.546875 321.082031 10.484375 321.675781 10.484375 L 323.550781 10.546875 L 323.550781 10.015625 L 323.269531 10.015625 C 322.207031 10.015625 322.207031 9.859375 322.207031 9.359375 L 322.207031 7.234375 C 322.207031 6.015625 322.769531 4.546875 324.144531 4.546875 C 324.019531 4.640625 323.894531 4.828125 323.894531 5.078125 C 323.894531 5.546875 324.269531 5.734375 324.550781 5.734375 C 324.894531 5.734375 325.207031 5.515625 325.207031 5.078125 Z M 325.207031 5.078125 "/>
<path fill-rule="nonzero" fill="rgb(0%, 0%, 0%)" fill-opacity="1" d="M 331.324219 13.925781 L 331.324219 13.488281 L 330.855469 13.488281 C 329.730469 13.488281 329.730469 13.363281 329.730469 12.988281 L 329.730469 6.957031 C 329.730469 6.644531 329.699219 6.644531 329.355469 6.644531 C 328.636719 7.332031 327.511719 7.332031 327.105469 7.332031 L 327.105469 7.769531 C 327.417969 7.769531 328.136719 7.769531 328.792969 7.457031 L 328.792969 12.988281 C 328.792969 13.363281 328.792969 13.488281 327.667969 13.488281 L 327.199219 13.488281 L 327.199219 13.925781 C 327.792969 13.894531 328.636719 13.894531 329.261719 13.894531 C 329.886719 13.894531 330.730469 13.894531 331.324219 13.925781 Z M 331.324219 13.925781 "/>
<path fill="none" stroke-width="0.5579" stroke-linecap="butt" stroke-linejoin="miter" stroke="rgb(0%, 0%, 0%)" stroke-opacity="1" stroke-miterlimit="10" d="M 26.617622 25.424343 L 26.617622 8.447781 " transform="matrix(2, 0, 0, -2, 195.046005, 85.543999)"/>
<path fill="none" stroke-width="0.5579" stroke-linecap="round" stroke-linejoin="round" stroke="rgb(0%, 0%, 0%)" stroke-opacity="1" stroke-miterlimit="10" d="M -2.902481 3.346405 C -2.371231 1.338593 -1.191544 0.389374 -0.000137329 -0.00125122 C -1.191544 -0.391876 -2.371231 -1.337189 -2.902481 -3.348907 " transform="matrix(0, 2, 2, 0, 248.283752, 69.2034)"/>
<path fill-rule="nonzero" fill="rgb(0%, 0%, 0%)" fill-opacity="1" d="M 221.0625 55.867188 L 217.6875 46.242188 L 215.25 46.242188 L 211.75 55.867188 L 212.40625 55.867188 L 213.53125 52.835938 L 217.4375 52.835938 L 218.5625 55.867188 Z M 220.1875 55.242188 L 218.96875 55.242188 L 216.03125 46.898438 L 217.25 46.898438 Z M 217.21875 52.179688 L 213.78125 52.179688 L 215.5 47.367188 L 215.53125 47.367188 Z M 217.21875 52.179688 "/>
<path fill-rule="nonzero" fill="rgb(0%, 0%, 0%)" fill-opacity="1" d="M 225.421875 58.140625 C 226.421875 58.140625 226.890625 57.203125 227.171875 56.703125 L 227.015625 56.609375 C 226.765625 56.953125 226.328125 57.671875 225.984375 57.671875 C 225.828125 57.671875 225.828125 57.390625 225.828125 57.296875 C 225.828125 57.203125 225.890625 57.015625 225.984375 56.734375 C 226.046875 56.453125 226.140625 56.140625 226.265625 55.734375 C 226.453125 55.140625 226.640625 54.359375 226.640625 53.984375 C 226.640625 53.515625 226.453125 53.265625 225.984375 53.265625 C 225.140625 53.265625 224.515625 53.953125 224.078125 54.703125 L 224.046875 54.671875 C 224.140625 54.421875 224.171875 54.265625 224.171875 53.953125 C 224.171875 53.515625 224.078125 53.265625 223.640625 53.265625 C 222.609375 53.265625 222.359375 54.203125 222.078125 55.046875 L 222.296875 55.109375 C 222.421875 54.671875 222.828125 53.515625 223.328125 53.515625 C 223.421875 53.515625 223.515625 53.609375 223.515625 53.765625 C 223.515625 53.984375 223.453125 54.390625 223.390625 54.609375 C 223.234375 55.078125 223.140625 55.484375 222.953125 56.015625 L 222.296875 58.046875 L 223.015625 58.046875 L 223.671875 56.171875 C 223.890625 55.578125 224.296875 54.734375 224.640625 54.234375 C 224.890625 53.953125 225.328125 53.515625 225.703125 53.515625 C 225.859375 53.515625 225.921875 53.609375 225.921875 53.828125 C 225.921875 53.890625 225.921875 54.046875 225.890625 54.109375 C 225.859375 54.484375 225.734375 54.765625 225.640625 55.109375 C 225.421875 55.890625 225.296875 56.453125 225.078125 57.171875 C 225.046875 57.265625 225.015625 57.359375 225.015625 57.421875 C 225.015625 57.796875 225.078125 58.140625 225.421875 58.140625 Z M 225.421875 58.140625 "/>
<path fill-rule="nonzero" fill="rgb(0%, 0%, 0%)" fill-opacity="1" d="M 234.609375 55.546875 L 234.609375 54.921875 L 229.015625 54.921875 L 229.015625 55.546875 Z M 234.609375 55.546875 "/>
<path fill-rule="nonzero" fill="rgb(0%, 0%, 0%)" fill-opacity="1" d="M 241.269531 58.046875 L 241.269531 57.609375 L 240.800781 57.609375 C 239.675781 57.609375 239.675781 57.484375 239.675781 57.109375 L 239.675781 51.078125 C 239.675781 50.765625 239.644531 50.765625 239.300781 50.765625 C 238.582031 51.453125 237.457031 51.453125 237.050781 51.453125 L 237.050781 51.890625 C 237.363281 51.890625 238.082031 51.890625 238.738281 51.578125 L 238.738281 57.109375 C 238.738281 57.484375 238.738281 57.609375 237.613281 57.609375 L 237.144531 57.609375 L 237.144531 58.046875 C 237.738281 58.015625 238.582031 58.015625 239.207031 58.015625 C 239.832031 58.015625 240.675781 58.015625 241.269531 58.046875 Z M 241.269531 58.046875 "/>
<path fill="none" stroke-width="0.5579" stroke-linecap="butt" stroke-linejoin="miter" stroke="rgb(0%, 0%, 0%)" stroke-opacity="1" stroke-miterlimit="10" d="M 86.430122 25.424343 L 86.430122 8.447781 " transform="matrix(2, 0, 0, -2, 195.046005, 85.543999)"/>
<path fill="none" stroke-width="0.5579" stroke-linecap="round" stroke-linejoin="round" stroke="rgb(0%, 0%, 0%)" stroke-opacity="1" stroke-miterlimit="10" d="M -2.902481 3.348114 C -2.371231 1.340302 -1.191544 0.391083 -0.000137329 0.000457764 C -1.191544 -0.390167 -2.371231 -1.339386 -2.902481 -3.347198 " transform="matrix(0, 2, 2, 0, 367.905334, 69.2034)"/>
<path fill-rule="nonzero" fill="rgb(0%, 0%, 0%)" fill-opacity="1" d="M 378.695312 48.738281 C 378.695312 48.488281 378.507812 48.207031 378.226562 48.207031 C 377.914062 48.207031 376.695312 49.425781 376.289062 49.644531 C 376.289062 48.832031 376.695312 48.019531 376.695312 47.550781 C 376.695312 47.238281 376.507812 47.050781 376.195312 47.050781 C 375.882812 47.050781 375.726562 47.238281 375.726562 47.550781 C 375.726562 48.113281 376.070312 48.863281 376.070312 49.644531 C 375.601562 49.394531 374.476562 48.175781 374.164062 48.175781 C 373.914062 48.175781 373.664062 48.394531 373.664062 48.675781 C 373.664062 49.175781 375.382812 49.519531 375.945312 49.832031 C 375.351562 50.207031 374.195312 50.363281 373.914062 50.550781 C 373.789062 50.675781 373.664062 50.800781 373.664062 50.988281 C 373.664062 51.238281 373.851562 51.488281 374.132812 51.488281 C 374.445312 51.488281 375.632812 50.300781 376.070312 50.050781 C 376.070312 50.863281 375.664062 51.675781 375.664062 52.175781 C 375.664062 52.457031 375.882812 52.675781 376.164062 52.675781 C 376.476562 52.675781 376.632812 52.457031 376.632812 52.175781 C 376.632812 51.582031 376.289062 50.832031 376.289062 50.050781 C 376.757812 50.300781 377.914062 51.519531 378.195312 51.519531 C 378.445312 51.519531 378.695312 51.300781 378.695312 51.019531 C 378.695312 50.832031 378.570312 50.707031 378.414062 50.613281 C 378.039062 50.363281 377.039062 50.207031 376.414062 49.832031 C 377.101562 49.425781 378.007812 49.394531 378.445312 49.144531 C 378.601562 49.050781 378.695312 48.925781 378.695312 48.738281 Z M 378.695312 48.738281 "/>
<path fill-rule="nonzero" fill="rgb(0%, 0%, 0%)" fill-opacity="1" d="M 388.234375 55.765625 L 388.234375 48.515625 L 386.609375 48.515625 L 384.328125 54.921875 L 384.296875 54.921875 L 382.078125 48.515625 L 380.390625 48.515625 L 380.390625 55.765625 L 380.859375 55.765625 L 380.859375 50.609375 L 380.890625 50.609375 L 382.671875 55.765625 L 384.546875 55.765625 L 386.390625 50.578125 L 386.390625 55.765625 Z M 387.734375 55.296875 L 386.890625 55.296875 L 386.890625 48.984375 L 387.734375 48.984375 Z M 383.921875 55.296875 L 383.015625 55.296875 L 381.046875 49.640625 L 380.828125 48.984375 L 381.703125 48.984375 Z M 383.921875 55.296875 "/>
<path fill-rule="nonzero" fill="rgb(0%, 0%, 0%)" fill-opacity="1" d="M 392.367188 57.5 C 393.367188 57.5 393.835938 56.5625 394.117188 56.0625 L 393.960938 55.96875 C 393.710938 56.3125 393.273438 57.03125 392.929688 57.03125 C 392.773438 57.03125 392.773438 56.75 392.773438 56.65625 C 392.773438 56.5625 392.835938 56.375 392.929688 56.09375 C 392.992188 55.8125 393.085938 55.5 393.210938 55.09375 C 393.398438 54.5 393.585938 53.71875 393.585938 53.34375 C 393.585938 52.875 393.398438 52.625 392.929688 52.625 C 392.085938 52.625 391.460938 53.3125 391.023438 54.0625 L 390.992188 54.03125 C 391.085938 53.78125 391.117188 53.625 391.117188 53.3125 C 391.117188 52.875 391.023438 52.625 390.585938 52.625 C 389.554688 52.625 389.304688 53.5625 389.023438 54.40625 L 389.242188 54.46875 C 389.367188 54.03125 389.773438 52.875 390.273438 52.875 C 390.367188 52.875 390.460938 52.96875 390.460938 53.125 C 390.460938 53.34375 390.398438 53.75 390.335938 53.96875 C 390.179688 54.4375 390.085938 54.84375 389.898438 55.375 L 389.242188 57.40625 L 389.960938 57.40625 L 390.617188 55.53125 C 390.835938 54.9375 391.242188 54.09375 391.585938 53.59375 C 391.835938 53.3125 392.273438 52.875 392.648438 52.875 C 392.804688 52.875 392.867188 52.96875 392.867188 53.1875 C 392.867188 53.25 392.867188 53.40625 392.835938 53.46875 C 392.804688 53.84375 392.679688 54.125 392.585938 54.46875 C 392.367188 55.25 392.242188 55.8125 392.023438 56.53125 C 391.992188 56.625 391.960938 56.71875 391.960938 56.78125 C 391.960938 57.15625 392.023438 57.5 392.367188 57.5 Z M 392.367188 57.5 "/>
<path fill="none" stroke-width="2.49017" stroke-linecap="butt" stroke-linejoin="miter" stroke="rgb(0%, 0%, 0%)" stroke-opacity="1" stroke-miterlimit="10" d="M -74.538628 8.783718 L -58.230034 19.721218 " transform="matrix(2, 0, 0, -2, 195.046005, 85.543999)"/>
<path fill="none" stroke-width="1.37434" stroke-linecap="butt" stroke-linejoin="miter" stroke="rgb(100%, 100%, 100%)" stroke-opacity="1" stroke-miterlimit="10" d="M -74.538628 8.783718 L -58.230034 19.721218 " transform="matrix(2, 0, 0, -2, 195.046005, 85.543999)"/>
<path fill="none" stroke-width="0.5579" stroke-linecap="round" stroke-linejoin="round" stroke="rgb(0%, 0%, 0%)" stroke-opacity="1" stroke-miterlimit="10" d="M -1.294172 2.559413 C -0.667351 1.207692 1.02504 0.0491198 1.989176 -0.00014284 C 1.024766 -0.0494737 -0.664299 -1.207334 -1.2932 -2.558823 " transform="matrix(1.66094, -1.11396, -1.11396, -1.66094, 78.586563, 46.098438)"/>
<path fill-rule="nonzero" fill="rgb(0%, 0%, 0%)" fill-opacity="1" d="M 34.890625 48.78125 C 36.140625 48.78125 36.828125 47.8125 37.265625 47.09375 L 36.984375 46.90625 C 36.703125 47.3125 36.203125 48.1875 35.703125 48.1875 C 35.421875 48.1875 35.328125 47.8125 35.328125 47.625 C 35.328125 47.3125 36.453125 44.03125 36.453125 43.59375 C 36.453125 42.8125 36.171875 42.3125 35.390625 42.3125 C 35.046875 42.3125 34.453125 42.4375 34.140625 42.625 C 33.828125 42.84375 33.546875 43.125 33.296875 43.46875 L 33.234375 43.625 L 34.703125 37.96875 L 32.546875 38.09375 L 32.515625 38.3125 C 32.921875 38.3125 33.109375 38.4375 33.234375 38.53125 C 33.421875 38.625 33.515625 38.84375 33.515625 39 C 33.515625 39.28125 33.421875 39.625 33.328125 39.875 L 30.890625 48.65625 L 31.734375 48.65625 C 32.265625 47 32.828125 45 33.609375 43.75 C 33.921875 43.1875 34.453125 42.65625 35.109375 42.65625 C 35.671875 42.65625 35.515625 43.625 35.421875 44.0625 C 35.359375 44.28125 35.265625 44.59375 35.109375 45 C 34.609375 46.625 34.296875 47.375 34.296875 48.03125 C 34.296875 48.5 34.453125 48.78125 34.890625 48.78125 Z M 34.890625 48.78125 "/>
<path fill-rule="nonzero" fill="rgb(0%, 0%, 0%)" fill-opacity="1" d="M 41.296875 50.933594 C 42.296875 50.933594 42.765625 49.996094 43.046875 49.496094 L 42.890625 49.402344 C 42.640625 49.746094 42.203125 50.464844 41.859375 50.464844 C 41.703125 50.464844 41.703125 50.183594 41.703125 50.089844 C 41.703125 49.996094 41.765625 49.808594 41.859375 49.527344 C 41.921875 49.246094 42.015625 48.933594 42.140625 48.527344 C 42.328125 47.933594 42.515625 47.152344 42.515625 46.777344 C 42.515625 46.308594 42.328125 46.058594 41.859375 46.058594 C 41.015625 46.058594 40.390625 46.746094 39.953125 47.496094 L 39.921875 47.464844 C 40.015625 47.214844 40.046875 47.058594 40.046875 46.746094 C 40.046875 46.308594 39.953125 46.058594 39.515625 46.058594 C 38.484375 46.058594 38.234375 46.996094 37.953125 47.839844 L 38.171875 47.902344 C 38.296875 47.464844 38.703125 46.308594 39.203125 46.308594 C 39.296875 46.308594 39.390625 46.402344 39.390625 46.558594 C 39.390625 46.777344 39.328125 47.183594 39.265625 47.402344 C 39.109375 47.871094 39.015625 48.277344 38.828125 48.808594 L 38.171875 50.839844 L 38.890625 50.839844 L 39.546875 48.964844 C 39.765625 48.371094 40.171875 47.527344 40.515625 47.027344 C 40.765625 46.746094 41.203125 46.308594 41.578125 46.308594 C 41.734375 46.308594 41.796875 46.402344 41.796875 46.621094 C 41.796875 46.683594 41.796875 46.839844 41.765625 46.902344 C 41.734375 47.277344 41.609375 47.558594 41.515625 47.902344 C 41.296875 48.683594 41.171875 49.246094 40.953125 49.964844 C 40.921875 50.058594 40.890625 50.152344 40.890625 50.214844 C 40.890625 50.589844 40.953125 50.933594 41.296875 50.933594 Z M 41.296875 50.933594 "/>
<path fill-rule="nonzero" fill="rgb(0%, 0%, 0%)" fill-opacity="1" d="M 50.488281 48.339844 L 50.488281 47.714844 L 44.894531 47.714844 L 44.894531 48.339844 Z M 50.488281 48.339844 "/>
<path fill-rule="nonzero" fill="rgb(0%, 0%, 0%)" fill-opacity="1" d="M 57.523438 48.777344 L 57.117188 48.777344 C 57.085938 48.933594 56.992188 49.652344 56.804688 49.777344 C 56.742188 49.839844 55.835938 49.839844 55.710938 49.839844 L 53.648438 49.839844 L 55.054688 48.714844 C 55.429688 48.402344 56.398438 47.714844 56.742188 47.371094 C 57.054688 47.058594 57.523438 46.496094 57.523438 45.714844 C 57.523438 44.339844 56.273438 43.558594 54.804688 43.558594 C 53.398438 43.558594 52.398438 44.464844 52.398438 45.496094 C 52.398438 46.058594 52.867188 46.121094 52.992188 46.121094 C 53.273438 46.121094 53.585938 45.933594 53.585938 45.527344 C 53.585938 45.308594 53.460938 44.964844 52.960938 44.964844 C 53.210938 44.402344 53.898438 43.964844 54.648438 43.964844 C 55.804688 43.964844 56.398438 44.839844 56.398438 45.714844 C 56.398438 46.496094 55.898438 47.308594 55.117188 47.996094 L 52.523438 50.371094 C 52.429688 50.496094 52.398438 50.496094 52.398438 50.839844 L 57.179688 50.839844 Z M 57.523438 48.777344 "/>
<path fill="none" stroke-width="0.5579" stroke-linecap="butt" stroke-linejoin="miter" stroke="rgb(0%, 0%, 0%)" stroke-opacity="1" stroke-miterlimit="10" d="M -77.347221 0.0688744 L -54.019096 0.0688744 " transform="matrix(2, 0, 0, -2, 195.046005, 85.543999)"/>
<path fill="none" stroke-width="0.5579" stroke-linecap="round" stroke-linejoin="round" stroke="rgb(0%, 0%, 0%)" stroke-opacity="1" stroke-miterlimit="10" d="M -2.900776 3.345516 C -2.369526 1.337704 -1.189838 0.392391 0.00156784 0.0017662 C -1.189838 -0.388859 -2.369526 -1.338078 -2.900776 -3.34589 " transform="matrix(2, 0, 0, -2, 87.567177, 85.409782)"/>
<path fill-rule="nonzero" fill="rgb(0%, 0%, 0%)" fill-opacity="1" d="M 86.757812 69.210938 L 86.757812 70.085938 L 91.851562 70.085938 L 91.851562 64.992188 L 90.976562 64.992188 L 90.976562 69.210938 Z M 86.757812 69.210938 "/>
<path fill="none" stroke-width="0.5579" stroke-linecap="butt" stroke-linejoin="miter" stroke="rgb(0%, 0%, 0%)" stroke-opacity="1" stroke-miterlimit="10" d="M -22.273003 0.0688744 L 10.465279 0.0688744 " transform="matrix(2, 0, 0, -2, 195.046005, 85.543999)"/>
<path fill="none" stroke-width="0.5579" stroke-linecap="round" stroke-linejoin="round" stroke="rgb(0%, 0%, 0%)" stroke-opacity="1" stroke-miterlimit="10" d="M -2.901489 3.345516 C -2.370239 1.337704 -1.190552 0.392391 0.000854492 0.0017662 C -1.190552 -0.388859 -2.370239 -1.338078 -2.901489 -3.34589 " transform="matrix(2, 0, 0, -2, 216.537354, 85.409782)"/>
<g clip-path="url(#clip-0)">
<path fill="none" stroke-width="2.49017" stroke-linecap="butt" stroke-linejoin="miter" stroke="rgb(0%, 0%, 0%)" stroke-opacity="1" stroke-miterlimit="10" d="M -13.82769 -12.509251 L 0.0277786 -19.755344 " transform="matrix(2, 0, 0, -2, 195.046005, 85.543999)"/>
</g>
<path fill="none" stroke-width="1.37434" stroke-linecap="butt" stroke-linejoin="miter" stroke="rgb(100%, 100%, 100%)" stroke-opacity="1" stroke-miterlimit="10" d="M -13.82769 -12.509251 L 0.0277786 -19.755344 " transform="matrix(2, 0, 0, -2, 195.046005, 85.543999)"/>
<path fill="none" stroke-width="0.5579" stroke-linecap="round" stroke-linejoin="round" stroke="rgb(0%, 0%, 0%)" stroke-opacity="1" stroke-miterlimit="10" d="M -1.295594 2.559573 C -0.668032 1.208167 1.023638 0.0474795 1.990723 0.0022824 C 1.025397 -0.0485899 -0.665758 -1.206562 -1.294501 -2.558253 " transform="matrix(1.7721, 0.92698, 0.92698, -1.7721, 195.102936, 125.057121)"/>
<path fill-rule="nonzero" fill="rgb(0%, 0%, 0%)" fill-opacity="1" d="M 153.988281 134.433594 C 155.238281 134.433594 155.925781 133.464844 156.363281 132.746094 L 156.082031 132.558594 C 155.800781 132.964844 155.300781 133.839844 154.800781 133.839844 C 154.519531 133.839844 154.425781 133.464844 154.425781 133.277344 C 154.425781 132.964844 155.550781 129.683594 155.550781 129.246094 C 155.550781 128.464844 155.269531 127.964844 154.488281 127.964844 C 154.144531 127.964844 153.550781 128.089844 153.238281 128.277344 C 152.925781 128.496094 152.644531 128.777344 152.394531 129.121094 L 152.332031 129.277344 L 153.800781 123.621094 L 151.644531 123.746094 L 151.613281 123.964844 C 152.019531 123.964844 152.207031 124.089844 152.332031 124.183594 C 152.519531 124.277344 152.613281 124.496094 152.613281 124.652344 C 152.613281 124.933594 152.519531 125.277344 152.425781 125.527344 L 149.988281 134.308594 L 150.832031 134.308594 C 151.363281 132.652344 151.925781 130.652344 152.707031 129.402344 C 153.019531 128.839844 153.550781 128.308594 154.207031 128.308594 C 154.769531 128.308594 154.613281 129.277344 154.519531 129.714844 C 154.457031 129.933594 154.363281 130.246094 154.207031 130.652344 C 153.707031 132.277344 153.394531 133.027344 153.394531 133.683594 C 153.394531 134.152344 153.550781 134.433594 153.988281 134.433594 Z M 153.988281 134.433594 "/>
<path fill-rule="nonzero" fill="rgb(0%, 0%, 0%)" fill-opacity="1" d="M 160.394531 136.585938 C 161.394531 136.585938 161.863281 135.648438 162.144531 135.148438 L 161.988281 135.054688 C 161.738281 135.398438 161.300781 136.117188 160.957031 136.117188 C 160.800781 136.117188 160.800781 135.835938 160.800781 135.742188 C 160.800781 135.648438 160.863281 135.460938 160.957031 135.179688 C 161.019531 134.898438 161.113281 134.585938 161.238281 134.179688 C 161.425781 133.585938 161.613281 132.804688 161.613281 132.429688 C 161.613281 131.960938 161.425781 131.710938 160.957031 131.710938 C 160.113281 131.710938 159.488281 132.398438 159.050781 133.148438 L 159.019531 133.117188 C 159.113281 132.867188 159.144531 132.710938 159.144531 132.398438 C 159.144531 131.960938 159.050781 131.710938 158.613281 131.710938 C 157.582031 131.710938 157.332031 132.648438 157.050781 133.492188 L 157.269531 133.554688 C 157.394531 133.117188 157.800781 131.960938 158.300781 131.960938 C 158.394531 131.960938 158.488281 132.054688 158.488281 132.210938 C 158.488281 132.429688 158.425781 132.835938 158.363281 133.054688 C 158.207031 133.523438 158.113281 133.929688 157.925781 134.460938 L 157.269531 136.492188 L 157.988281 136.492188 L 158.644531 134.617188 C 158.863281 134.023438 159.269531 133.179688 159.613281 132.679688 C 159.863281 132.398438 160.300781 131.960938 160.675781 131.960938 C 160.832031 131.960938 160.894531 132.054688 160.894531 132.273438 C 160.894531 132.335938 160.894531 132.492188 160.863281 132.554688 C 160.832031 132.929688 160.707031 133.210938 160.613281 133.554688 C 160.394531 134.335938 160.269531 134.898438 160.050781 135.617188 C 160.019531 135.710938 159.988281 135.804688 159.988281 135.867188 C 159.988281 136.242188 160.050781 136.585938 160.394531 136.585938 Z M 160.394531 136.585938 "/>
<path fill-rule="nonzero" fill="rgb(0%, 0%, 0%)" fill-opacity="1" d="M 169.585938 133.992188 L 169.585938 133.367188 L 163.992188 133.367188 L 163.992188 133.992188 Z M 169.585938 133.992188 "/>
<path fill-rule="nonzero" fill="rgb(0%, 0%, 0%)" fill-opacity="1" d="M 176.246094 136.492188 L 176.246094 136.054688 L 175.777344 136.054688 C 174.652344 136.054688 174.652344 135.929688 174.652344 135.554688 L 174.652344 129.523438 C 174.652344 129.210938 174.621094 129.210938 174.277344 129.210938 C 173.558594 129.898438 172.433594 129.898438 172.027344 129.898438 L 172.027344 130.335938 C 172.339844 130.335938 173.058594 130.335938 173.714844 130.023438 L 173.714844 135.554688 C 173.714844 135.929688 173.714844 136.054688 172.589844 136.054688 L 172.121094 136.054688 L 172.121094 136.492188 C 172.714844 136.460938 173.558594 136.460938 174.183594 136.460938 C 174.808594 136.460938 175.652344 136.460938 176.246094 136.492188 Z M 176.246094 136.492188 "/>
<path fill="none" stroke-width="2.49017" stroke-linecap="butt" stroke-linejoin="miter" stroke="rgb(0%, 0%, 0%)" stroke-opacity="1" stroke-miterlimit="10" d="M 49.363716 12.740749 L 64.449654 21.143093 " transform="matrix(2, 0, 0, -2, 195.046005, 85.543999)"/>
<path fill="none" stroke-width="1.37434" stroke-linecap="butt" stroke-linejoin="miter" stroke="rgb(100%, 100%, 100%)" stroke-opacity="1" stroke-miterlimit="10" d="M 49.363716 12.740749 L 64.449654 21.143093 " transform="matrix(2, 0, 0, -2, 195.046005, 85.543999)"/>
<path fill="none" stroke-width="0.5579" stroke-linecap="round" stroke-linejoin="round" stroke="rgb(0%, 0%, 0%)" stroke-opacity="1" stroke-miterlimit="10" d="M -1.293275 2.561045 C -0.666539 1.205793 1.023558 0.0496341 1.988359 -0.000435265 C 1.022685 -0.0482546 -0.665939 -1.209202 -1.292793 -2.559198 " transform="matrix(1.74714, -0.9733, -0.9733, -1.74714, 323.94751, 43.254822)"/>
<path fill-rule="nonzero" fill="rgb(0%, 0%, 0%)" fill-opacity="1" d="M 296.113281 43.566406 C 297.363281 43.566406 298.050781 42.597656 298.488281 41.878906 L 298.207031 41.691406 C 297.925781 42.097656 297.425781 42.972656 296.925781 42.972656 C 296.644531 42.972656 296.550781 42.597656 296.550781 42.410156 C 296.550781 42.097656 297.675781 38.816406 297.675781 38.378906 C 297.675781 37.597656 297.394531 37.097656 296.613281 37.097656 C 296.269531 37.097656 295.675781 37.222656 295.363281 37.410156 C 295.050781 37.628906 294.769531 37.910156 294.519531 38.253906 L 294.457031 38.410156 L 295.925781 32.753906 L 293.769531 32.878906 L 293.738281 33.097656 C 294.144531 33.097656 294.332031 33.222656 294.457031 33.316406 C 294.644531 33.410156 294.738281 33.628906 294.738281 33.785156 C 294.738281 34.066406 294.644531 34.410156 294.550781 34.660156 L 292.113281 43.441406 L 292.957031 43.441406 C 293.488281 41.785156 294.050781 39.785156 294.832031 38.535156 C 295.144531 37.972656 295.675781 37.441406 296.332031 37.441406 C 296.894531 37.441406 296.738281 38.410156 296.644531 38.847656 C 296.582031 39.066406 296.488281 39.378906 296.332031 39.785156 C 295.832031 41.410156 295.519531 42.160156 295.519531 42.816406 C 295.519531 43.285156 295.675781 43.566406 296.113281 43.566406 Z M 296.113281 43.566406 "/>
<path fill-rule="nonzero" fill="rgb(0%, 0%, 0%)" fill-opacity="1" d="M 302.519531 45.714844 C 303.519531 45.714844 303.988281 44.777344 304.269531 44.277344 L 304.113281 44.183594 C 303.863281 44.527344 303.425781 45.246094 303.082031 45.246094 C 302.925781 45.246094 302.925781 44.964844 302.925781 44.871094 C 302.925781 44.777344 302.988281 44.589844 303.082031 44.308594 C 303.144531 44.027344 303.238281 43.714844 303.363281 43.308594 C 303.550781 42.714844 303.738281 41.933594 303.738281 41.558594 C 303.738281 41.089844 303.550781 40.839844 303.082031 40.839844 C 302.238281 40.839844 301.613281 41.527344 301.175781 42.277344 L 301.144531 42.246094 C 301.238281 41.996094 301.269531 41.839844 301.269531 41.527344 C 301.269531 41.089844 301.175781 40.839844 300.738281 40.839844 C 299.707031 40.839844 299.457031 41.777344 299.175781 42.621094 L 299.394531 42.683594 C 299.519531 42.246094 299.925781 41.089844 300.425781 41.089844 C 300.519531 41.089844 300.613281 41.183594 300.613281 41.339844 C 300.613281 41.558594 300.550781 41.964844 300.488281 42.183594 C 300.332031 42.652344 300.238281 43.058594 300.050781 43.589844 L 299.394531 45.621094 L 300.113281 45.621094 L 300.769531 43.746094 C 300.988281 43.152344 301.394531 42.308594 301.738281 41.808594 C 301.988281 41.527344 302.425781 41.089844 302.800781 41.089844 C 302.957031 41.089844 303.019531 41.183594 303.019531 41.402344 C 303.019531 41.464844 303.019531 41.621094 302.988281 41.683594 C 302.957031 42.058594 302.832031 42.339844 302.738281 42.683594 C 302.519531 43.464844 302.394531 44.027344 302.175781 44.746094 C 302.144531 44.839844 302.113281 44.933594 302.113281 44.996094 C 302.113281 45.371094 302.175781 45.714844 302.519531 45.714844 Z M 302.519531 45.714844 "/>
<path fill="none" stroke-width="0.5579" stroke-linecap="butt" stroke-linejoin="miter" stroke="rgb(0%, 0%, 0%)" stroke-opacity="1" stroke-miterlimit="10" d="M 42.211372 0.0688744 L 74.95356 0.0688744 " transform="matrix(2, 0, 0, -2, 195.046005, 85.543999)"/>
<path fill="none" stroke-width="0.5579" stroke-linecap="round" stroke-linejoin="round" stroke="rgb(0%, 0%, 0%)" stroke-opacity="1" stroke-miterlimit="10" d="M -2.902222 3.345516 C -2.370972 1.337704 -1.191284 0.392391 0.00012207 0.0017662 C -1.191284 -0.388859 -2.370972 -1.338078 -2.902222 -3.34589 " transform="matrix(2, 0, 0, -2, 345.507568, 85.409782)"/>
<path fill-rule="nonzero" fill="rgb(0%, 0%, 0%)" fill-opacity="1" d="M 211.808594 108.820312 L 212.683594 108.820312 L 212.683594 103.726562 L 207.589844 103.726562 L 207.589844 104.601562 L 211.808594 104.601562 Z M 211.808594 108.820312 "/>
<path fill-rule="nonzero" fill="rgb(0%, 0%, 0%)" fill-opacity="1" d="M 335.296875 72.648438 L 335.296875 73.523438 L 340.390625 73.523438 L 340.390625 68.429688 L 339.515625 68.429688 L 339.515625 72.648438 Z M 335.296875 72.648438 "/>
<path fill="none" stroke-width="0.5579" stroke-linecap="butt" stroke-linejoin="miter" stroke="rgb(0%, 0%, 0%)" stroke-opacity="1" stroke-miterlimit="10" d="M -27.679253 -33.669407 L 10.094185 -33.669407 " transform="matrix(2, 0, 0, -2, 195.046005, 85.543999)"/>
<path fill="none" stroke-width="0.5579" stroke-linecap="round" stroke-linejoin="round" stroke="rgb(0%, 0%, 0%)" stroke-opacity="1" stroke-miterlimit="10" d="M -2.902885 3.346809 C -2.371635 1.338997 -1.188042 0.389778 -0.000541687 -0.000846863 C -1.188042 -0.391472 -2.371635 -1.340691 -2.902885 -3.348503 " transform="matrix(2, 0, 0, -2, 215.790146, 152.881119)"/>
<path fill="none" stroke-width="0.5579" stroke-linecap="butt" stroke-linejoin="miter" stroke="rgb(0%, 0%, 0%)" stroke-opacity="1" stroke-miterlimit="10" d="M 26.617622 -25.427219 L 26.617622 -8.450657 " transform="matrix(2, 0, 0, -2, 195.046005, 85.543999)"/>
<path fill="none" stroke-width="0.5579" stroke-linecap="round" stroke-linejoin="round" stroke="rgb(0%, 0%, 0%)" stroke-opacity="1" stroke-miterlimit="10" d="M -2.901451 3.348907 C -2.370201 1.337189 -1.190514 0.391876 0.000892639 0.00125122 C -1.190514 -0.389374 -2.370201 -1.338593 -2.901451 -3.346405 " transform="matrix(0, -2, -2, 0, 248.283752, 101.884598)"/>
<path fill-rule="nonzero" fill="rgb(0%, 0%, 0%)" fill-opacity="1" d="M 259.074219 114.597656 C 259.074219 114.347656 258.886719 114.066406 258.605469 114.066406 C 258.292969 114.066406 257.074219 115.285156 256.667969 115.503906 C 256.667969 114.691406 257.074219 113.878906 257.074219 113.410156 C 257.074219 113.097656 256.886719 112.910156 256.574219 112.910156 C 256.261719 112.910156 256.105469 113.097656 256.105469 113.410156 C 256.105469 113.972656 256.449219 114.722656 256.449219 115.503906 C 255.980469 115.253906 254.855469 114.035156 254.542969 114.035156 C 254.292969 114.035156 254.042969 114.253906 254.042969 114.535156 C 254.042969 115.035156 255.761719 115.378906 256.324219 115.691406 C 255.730469 116.066406 254.574219 116.222656 254.292969 116.410156 C 254.167969 116.535156 254.042969 116.660156 254.042969 116.847656 C 254.042969 117.097656 254.230469 117.347656 254.511719 117.347656 C 254.824219 117.347656 256.011719 116.160156 256.449219 115.910156 C 256.449219 116.722656 256.042969 117.535156 256.042969 118.035156 C 256.042969 118.316406 256.261719 118.535156 256.542969 118.535156 C 256.855469 118.535156 257.011719 118.316406 257.011719 118.035156 C 257.011719 117.441406 256.667969 116.691406 256.667969 115.910156 C 257.136719 116.160156 258.292969 117.378906 258.574219 117.378906 C 258.824219 117.378906 259.074219 117.160156 259.074219 116.878906 C 259.074219 116.691406 258.949219 116.566406 258.792969 116.472656 C 258.417969 116.222656 257.417969 116.066406 256.792969 115.691406 C 257.480469 115.285156 258.386719 115.253906 258.824219 115.003906 C 258.980469 114.910156 259.074219 114.785156 259.074219 114.597656 Z M 259.074219 114.597656 "/>
<path fill-rule="nonzero" fill="rgb(0%, 0%, 0%)" fill-opacity="1" d="M 268.609375 121.621094 L 268.609375 114.371094 L 266.984375 114.371094 L 264.703125 120.777344 L 264.671875 120.777344 L 262.453125 114.371094 L 260.765625 114.371094 L 260.765625 121.621094 L 261.234375 121.621094 L 261.234375 116.464844 L 261.265625 116.464844 L 263.046875 121.621094 L 264.921875 121.621094 L 266.765625 116.433594 L 266.765625 121.621094 Z M 268.109375 121.152344 L 267.265625 121.152344 L 267.265625 114.839844 L 268.109375 114.839844 Z M 264.296875 121.152344 L 263.390625 121.152344 L 261.421875 115.496094 L 261.203125 114.839844 L 262.078125 114.839844 Z M 264.296875 121.152344 "/>
<path fill-rule="nonzero" fill="rgb(0%, 0%, 0%)" fill-opacity="1" d="M 272.746094 124.910156 C 273.746094 124.910156 274.214844 123.972656 274.496094 123.472656 L 274.339844 123.378906 C 274.089844 123.722656 273.652344 124.441406 273.308594 124.441406 C 273.152344 124.441406 273.152344 124.160156 273.152344 124.066406 C 273.152344 123.972656 273.214844 123.785156 273.308594 123.503906 C 273.371094 123.222656 273.464844 122.910156 273.589844 122.503906 C 273.777344 121.910156 273.964844 121.128906 273.964844 120.753906 C 273.964844 120.285156 273.777344 120.035156 273.308594 120.035156 C 272.464844 120.035156 271.839844 120.722656 271.402344 121.472656 L 271.371094 121.441406 C 271.464844 121.191406 271.496094 121.035156 271.496094 120.722656 C 271.496094 120.285156 271.402344 120.035156 270.964844 120.035156 C 269.933594 120.035156 269.683594 120.972656 269.402344 121.816406 L 269.621094 121.878906 C 269.746094 121.441406 270.152344 120.285156 270.652344 120.285156 C 270.746094 120.285156 270.839844 120.378906 270.839844 120.535156 C 270.839844 120.753906 270.777344 121.160156 270.714844 121.378906 C 270.558594 121.847656 270.464844 122.253906 270.277344 122.785156 L 269.621094 124.816406 L 270.339844 124.816406 L 270.996094 122.941406 C 271.214844 122.347656 271.621094 121.503906 271.964844 121.003906 C 272.214844 120.722656 272.652344 120.285156 273.027344 120.285156 C 273.183594 120.285156 273.246094 120.378906 273.246094 120.597656 C 273.246094 120.660156 273.246094 120.816406 273.214844 120.878906 C 273.183594 121.253906 273.058594 121.535156 272.964844 121.878906 C 272.746094 122.660156 272.621094 123.222656 272.402344 123.941406 C 272.371094 124.035156 272.339844 124.128906 272.339844 124.191406 C 272.339844 124.566406 272.402344 124.910156 272.746094 124.910156 Z M 272.746094 124.910156 "/>
<path fill-rule="nonzero" fill="rgb(0%, 0%, 0%)" fill-opacity="1" d="M 281.9375 122.316406 L 281.9375 121.691406 L 276.34375 121.691406 L 276.34375 122.316406 Z M 281.9375 122.316406 "/>
<path fill-rule="nonzero" fill="rgb(0%, 0%, 0%)" fill-opacity="1" d="M 288.597656 124.816406 L 288.597656 124.378906 L 288.128906 124.378906 C 287.003906 124.378906 287.003906 124.253906 287.003906 123.878906 L 287.003906 117.847656 C 287.003906 117.535156 286.972656 117.535156 286.628906 117.535156 C 285.910156 118.222656 284.785156 118.222656 284.378906 118.222656 L 284.378906 118.660156 C 284.691406 118.660156 285.410156 118.660156 286.066406 118.347656 L 286.066406 123.878906 C 286.066406 124.253906 286.066406 124.378906 284.941406 124.378906 L 284.472656 124.378906 L 284.472656 124.816406 C 285.066406 124.785156 285.910156 124.785156 286.535156 124.785156 C 287.160156 124.785156 288.003906 124.785156 288.597656 124.816406 Z M 288.597656 124.816406 "/>
</svg>
