<?xml version="1.0" encoding="UTF-8"?>
<svg xmlns="http://www.w3.org/2000/svg" xmlns:xlink="http://www.w3.org/1999/xlink" width="387.920013" height="158.320007" viewBox="0 0 387.920013 158.320007">
<path fill-rule="nonzero" fill="rgb(0%, 0%, 0%)" fill-opacity="1" d="M 309.417969 12.59375 C 309.417969 10.46875 310.230469 9 311.167969 7.75 C 311.355469 7.5 311.824219 7.125 311.824219 7 C 311.824219 6.8125 311.761719 6.78125 311.605469 6.78125 C 311.511719 6.78125 311.386719 6.875 311.292969 6.90625 C 311.230469 6.96875 311.105469 7.09375 310.855469 7.3125 C 310.699219 7.46875 310.511719 7.5625 310.292969 7.5625 C 309.917969 7.5625 309.699219 7.46875 309.480469 7.25 C 309.230469 6.9375 308.980469 6.78125 308.511719 6.78125 C 307.667969 6.78125 306.792969 7.53125 306.792969 8.28125 C 306.792969 8.84375 307.167969 8.96875 307.542969 8.96875 C 307.917969 8.96875 308.105469 8.78125 308.105469 8.34375 C 308.105469 8.0625 307.792969 8.03125 307.792969 7.84375 C 307.792969 7.71875 307.855469 7.5625 308.105469 7.5625 C 308.667969 7.5625 308.917969 8.15625 309.136719 8.21875 C 309.449219 8.3125 309.542969 8.28125 309.949219 8.1875 L 310.199219 8.09375 C 309.605469 9 308.761719 10.375 308.417969 11.1875 C 308.074219 12.03125 307.917969 12.75 307.917969 13.34375 C 307.917969 13.6875 307.980469 14 308.042969 14.25 C 308.324219 15 308.855469 15.625 309.886719 15.625 C 312.449219 15.625 313.480469 13.28125 314.261719 11.75 C 314.699219 10.78125 315.042969 9.59375 315.042969 8.28125 C 315.042969 7.40625 314.917969 6.78125 314.105469 6.78125 C 313.542969 6.78125 313.261719 7.09375 313.261719 7.6875 C 313.261719 8.4375 313.636719 8.90625 313.636719 9.71875 C 313.636719 11.5625 312.480469 15.09375 310.480469 15.125 C 309.449219 15.15625 309.417969 13.5 309.417969 12.59375 Z M 309.417969 12.59375 "/>
<path fill-rule="nonzero" fill="rgb(0%, 0%, 0%)" fill-opacity="1" d="M 322.644531 15.800781 L 322.144531 15.800781 C 322.113281 16.144531 321.957031 16.988281 321.769531 17.144531 C 321.644531 17.207031 320.519531 17.207031 320.332031 17.207031 L 317.644531 17.207031 C 319.175781 15.863281 319.675781 15.457031 320.550781 14.769531 C 321.644531 13.925781 322.644531 13.019531 322.644531 11.644531 C 322.644531 9.894531 321.113281 8.800781 319.238281 8.800781 C 317.425781 8.800781 316.207031 10.082031 316.207031 11.394531 C 316.207031 12.144531 316.832031 12.238281 316.988281 12.238281 C 317.332031 12.238281 317.769531 11.988281 317.769531 11.457031 C 317.769531 11.207031 317.644531 10.675781 316.894531 10.675781 C 317.363281 9.644531 318.332031 9.332031 319.019531 9.332031 C 320.488281 9.332031 321.238281 10.457031 321.238281 11.644531 C 321.238281 12.894531 320.332031 13.894531 319.863281 14.425781 L 316.363281 17.894531 C 316.207031 18.019531 316.207031 18.050781 316.207031 18.457031 L 322.207031 18.457031 Z M 322.644531 15.800781 "/>
<path fill-rule="nonzero" fill="rgb(0%, 0%, 0%)" fill-opacity="1" d="M 252.722656 144.660156 C 252.722656 142.535156 253.535156 141.066406 254.472656 139.816406 C 254.660156 139.566406 255.128906 139.191406 255.128906 139.066406 C 255.128906 138.878906 255.066406 138.847656 254.910156 138.847656 C 254.816406 138.847656 254.691406 138.941406 254.597656 138.972656 C 254.535156 139.035156 254.410156 139.160156 254.160156 139.378906 C 254.003906 139.535156 253.816406 139.628906 253.597656 139.628906 C 253.222656 139.628906 253.003906 139.535156 252.785156 139.316406 C 252.535156 139.003906 252.285156 138.847656 251.816406 138.847656 C 250.972656 138.847656 250.097656 139.597656 250.097656 140.347656 C 250.097656 140.910156 250.472656 141.035156 250.847656 141.035156 C 251.222656 141.035156 251.410156 140.847656 251.410156 140.410156 C 251.410156 140.128906 251.097656 140.097656 251.097656 139.910156 C 251.097656 139.785156 251.160156 139.628906 251.410156 139.628906 C 251.972656 139.628906 252.222656 140.222656 252.441406 140.285156 C 252.753906 140.378906 252.847656 140.347656 253.253906 140.253906 L 253.503906 140.160156 C 252.910156 141.066406 252.066406 142.441406 251.722656 143.253906 C 251.378906 144.097656 251.222656 144.816406 251.222656 145.410156 C 251.222656 145.753906 251.285156 146.066406 251.347656 146.316406 C 251.628906 147.066406 252.160156 147.691406 253.191406 147.691406 C 255.753906 147.691406 256.785156 145.347656 257.566406 143.816406 C 258.003906 142.847656 258.347656 141.660156 258.347656 140.347656 C 258.347656 139.472656 258.222656 138.847656 257.410156 138.847656 C 256.847656 138.847656 256.566406 139.160156 256.566406 139.753906 C 256.566406 140.503906 256.941406 140.972656 256.941406 141.785156 C 256.941406 143.628906 255.785156 147.160156 253.785156 147.191406 C 252.753906 147.222656 252.722656 145.566406 252.722656 144.660156 Z M 252.722656 144.660156 "/>
<path fill-rule="nonzero" fill="rgb(0%, 0%, 0%)" fill-opacity="1" d="M 265.480469 150.523438 L 265.480469 149.992188 L 264.917969 149.992188 C 263.480469 149.992188 263.480469 149.804688 263.480469 149.335938 L 263.480469 141.273438 C 263.480469 140.898438 263.449219 140.867188 263.042969 140.867188 C 262.105469 141.804688 260.792969 141.804688 260.199219 141.804688 L 260.199219 142.335938 C 260.542969 142.335938 261.511719 142.335938 262.292969 141.929688 L 262.292969 149.335938 C 262.292969 149.804688 262.292969 149.992188 260.855469 149.992188 L 260.292969 149.992188 L 260.292969 150.523438 L 262.886719 150.460938 Z M 265.480469 150.523438 "/>
<path fill-rule="nonzero" fill="rgb(0%, 0%, 0%)" fill-opacity="1" d="M 366.109375 144.660156 C 366.109375 142.535156 366.921875 141.066406 367.859375 139.816406 C 368.046875 139.566406 368.515625 139.191406 368.515625 139.066406 C 368.515625 138.878906 368.453125 138.847656 368.296875 138.847656 C 368.203125 138.847656 368.078125 138.941406 367.984375 138.972656 C 367.921875 139.035156 367.796875 139.160156 367.546875 139.378906 C 367.390625 139.535156 367.203125 139.628906 366.984375 139.628906 C 366.609375 139.628906 366.390625 139.535156 366.171875 139.316406 C 365.921875 139.003906 365.671875 138.847656 365.203125 138.847656 C 364.359375 138.847656 363.484375 139.597656 363.484375 140.347656 C 363.484375 140.910156 363.859375 141.035156 364.234375 141.035156 C 364.609375 141.035156 364.796875 140.847656 364.796875 140.410156 C 364.796875 140.128906 364.484375 140.097656 364.484375 139.910156 C 364.484375 139.785156 364.546875 139.628906 364.796875 139.628906 C 365.359375 139.628906 365.609375 140.222656 365.828125 140.285156 C 366.140625 140.378906 366.234375 140.347656 366.640625 140.253906 L 366.890625 140.160156 C 366.296875 141.066406 365.453125 142.441406 365.109375 143.253906 C 364.765625 144.097656 364.609375 144.816406 364.609375 145.410156 C 364.609375 145.753906 364.671875 146.066406 364.734375 146.316406 C 365.015625 147.066406 365.546875 147.691406 366.578125 147.691406 C 369.140625 147.691406 370.171875 145.347656 370.953125 143.816406 C 371.390625 142.847656 371.734375 141.660156 371.734375 140.347656 C 371.734375 139.472656 371.609375 138.847656 370.796875 138.847656 C 370.234375 138.847656 369.953125 139.160156 369.953125 139.753906 C 369.953125 140.503906 370.328125 140.972656 370.328125 141.785156 C 370.328125 143.628906 369.171875 147.160156 367.171875 147.191406 C 366.140625 147.222656 366.109375 145.566406 366.109375 144.660156 Z M 366.109375 144.660156 "/>
<path fill-rule="nonzero" fill="rgb(0%, 0%, 0%)" fill-opacity="1" d="M 379.460938 148.023438 C 379.460938 146.867188 378.523438 145.742188 376.929688 145.398438 C 378.460938 144.867188 379.023438 143.773438 379.023438 142.867188 C 379.023438 141.742188 377.679688 140.867188 376.085938 140.867188 C 374.460938 140.867188 373.242188 141.648438 373.242188 142.835938 C 373.242188 143.304688 373.554688 143.585938 373.992188 143.585938 C 374.429688 143.585938 374.710938 143.273438 374.710938 142.835938 C 374.710938 142.429688 374.429688 142.117188 373.992188 142.085938 C 374.492188 141.460938 375.492188 141.304688 376.023438 141.304688 C 376.679688 141.304688 377.585938 141.617188 377.585938 142.867188 C 377.585938 143.492188 377.398438 144.148438 377.023438 144.617188 C 376.554688 145.148438 376.148438 145.179688 375.398438 145.242188 C 375.054688 145.273438 375.023438 145.273438 374.929688 145.273438 C 374.929688 145.273438 374.804688 145.304688 374.804688 145.460938 C 374.804688 145.679688 374.929688 145.679688 375.179688 145.679688 L 375.960938 145.679688 C 377.085938 145.679688 377.898438 146.460938 377.898438 148.023438 C 377.898438 149.804688 376.867188 150.335938 376.023438 150.335938 C 375.429688 150.335938 374.148438 150.179688 373.554688 149.335938 C 374.242188 149.304688 374.398438 148.835938 374.398438 148.523438 C 374.398438 148.054688 374.054688 147.710938 373.585938 147.710938 C 373.179688 147.710938 372.773438 147.960938 372.773438 148.554688 C 372.773438 149.929688 374.273438 150.804688 376.054688 150.804688 C 378.054688 150.804688 379.460938 149.460938 379.460938 148.023438 Z M 379.460938 148.023438 "/>
<path fill-rule="nonzero" fill="rgb(0%, 0%, 0%)" fill-opacity="1" d="M 308.464844 86.15625 L 308.402344 86.4375 L 314.683594 86.4375 L 314.777344 86.15625 C 313.964844 86.15625 313.402344 85.96875 313.089844 85.75 C 312.777344 85.5 312.589844 85.1875 312.589844 84.75 C 312.589844 84.46875 312.652344 84.15625 312.746094 83.78125 L 313.964844 79.375 L 315.402344 79.375 C 316.777344 79.375 316.839844 80.90625 316.683594 82.34375 L 317.089844 82.34375 L 318.371094 76.65625 L 317.964844 76.65625 C 317.433594 77.8125 316.871094 78.875 315.277344 78.875 L 314.089844 78.875 L 315.589844 73 L 317.933594 73 C 318.308594 73 318.652344 73 318.933594 73.125 C 320.058594 73.625 320.964844 74.84375 321.121094 76.21875 L 321.558594 76.21875 L 321.558594 72.59375 L 311.746094 72.59375 L 311.683594 72.875 C 312.308594 72.875 312.746094 73.03125 312.996094 73.25 C 313.246094 73.40625 313.402344 73.6875 313.402344 74.0625 C 313.402344 74.25 313.402344 74.4375 313.371094 74.6875 C 313.308594 74.90625 313.246094 75.1875 313.152344 75.46875 L 310.964844 83.78125 C 310.871094 84.21875 310.746094 84.5625 310.621094 84.8125 C 310.402344 85.34375 309.964844 85.75 309.558594 85.96875 C 309.277344 86.09375 308.871094 86.15625 308.464844 86.15625 Z M 308.464844 86.15625 "/>
<path fill="none" stroke-width="0.3985" stroke-linecap="butt" stroke-linejoin="miter" stroke="rgb(0%, 0%, 0%)" stroke-opacity="1" stroke-miterlimit="10" d="M 29.496811 47.102627 L 53.85228 4.926846 " transform="matrix(2, 0, 0, -2, 259.022003, 127.674004)"/>
<path fill-rule="nonzero" fill="rgb(0%, 0%, 0%)" fill-opacity="1" stroke-width="0.3985" stroke-linecap="butt" stroke-linejoin="miter" stroke="rgb(0%, 0%, 0%)" stroke-opacity="1" stroke-miterlimit="10" d="M 4.690747 -0.000732388 L 0.64166 1.525249 L 1.971131 -0.000169571 L 0.643974 -1.525308 Z M 4.690747 -0.000732388 " transform="matrix(1.00004, 1.732, 1.732, -1.00004, 364.849396, 114.578018)"/>
<path fill-rule="nonzero" fill="rgb(0%, 0%, 0%)" fill-opacity="1" d="M 356.675781 59.863281 C 355.144531 59.863281 353.957031 60.957031 353.207031 61.863281 C 352.363281 62.863281 351.707031 64.363281 351.707031 66.082031 C 351.707031 67.707031 352.269531 68.707031 353.832031 68.707031 C 355.207031 68.707031 356.488281 67.707031 357.269531 66.425781 L 356.957031 66.207031 C 356.425781 66.988281 355.332031 68.269531 354.238281 68.269531 C 353.425781 68.269531 353.082031 67.582031 353.082031 66.425781 C 353.082031 66.113281 353.144531 65.488281 353.175781 65.175781 C 355.144531 64.769531 358.425781 63.488281 358.425781 61.238281 C 358.425781 60.332031 357.613281 59.863281 356.675781 59.863281 Z M 356.488281 60.300781 C 356.863281 60.300781 357.207031 60.644531 357.207031 61.082031 C 357.207031 62.863281 354.957031 64.175781 353.269531 64.707031 C 353.644531 63.332031 354.863281 60.300781 356.488281 60.300781 Z M 356.488281 60.300781 "/>
<path fill-rule="nonzero" fill="rgb(0%, 0%, 0%)" fill-opacity="1" d="M 365.957031 68.882812 L 365.457031 68.882812 C 365.425781 69.226562 365.269531 70.070312 365.082031 70.226562 C 364.957031 70.289062 363.832031 70.289062 363.644531 70.289062 L 360.957031 70.289062 C 362.488281 68.945312 362.988281 68.539062 363.863281 67.851562 C 364.957031 67.007812 365.957031 66.101562 365.957031 64.726562 C 365.957031 62.976562 364.425781 61.882812 362.550781 61.882812 C 360.738281 61.882812 359.519531 63.164062 359.519531 64.476562 C 359.519531 65.226562 360.144531 65.320312 360.300781 65.320312 C 360.644531 65.320312 361.082031 65.070312 361.082031 64.539062 C 361.082031 64.289062 360.957031 63.757812 360.207031 63.757812 C 360.675781 62.726562 361.644531 62.414062 362.332031 62.414062 C 363.800781 62.414062 364.550781 63.539062 364.550781 64.726562 C 364.550781 65.976562 363.644531 66.976562 363.175781 67.507812 L 359.675781 70.976562 C 359.519531 71.101562 359.519531 71.132812 359.519531 71.539062 L 365.519531 71.539062 Z M 365.957031 68.882812 "/>
<path fill-rule="nonzero" fill="rgb(0%, 0%, 0%)" fill-opacity="1" d="M 374.363281 69.039062 C 374.363281 67.882812 373.425781 66.757812 371.832031 66.414062 C 373.363281 65.882812 373.925781 64.789062 373.925781 63.882812 C 373.925781 62.757812 372.582031 61.882812 370.988281 61.882812 C 369.363281 61.882812 368.144531 62.664062 368.144531 63.851562 C 368.144531 64.320312 368.457031 64.601562 368.894531 64.601562 C 369.332031 64.601562 369.613281 64.289062 369.613281 63.851562 C 369.613281 63.445312 369.332031 63.132812 368.894531 63.101562 C 369.394531 62.476562 370.394531 62.320312 370.925781 62.320312 C 371.582031 62.320312 372.488281 62.632812 372.488281 63.882812 C 372.488281 64.507812 372.300781 65.164062 371.925781 65.632812 C 371.457031 66.164062 371.050781 66.195312 370.300781 66.257812 C 369.957031 66.289062 369.925781 66.289062 369.832031 66.289062 C 369.832031 66.289062 369.707031 66.320312 369.707031 66.476562 C 369.707031 66.695312 369.832031 66.695312 370.082031 66.695312 L 370.863281 66.695312 C 371.988281 66.695312 372.800781 67.476562 372.800781 69.039062 C 372.800781 70.820312 371.769531 71.351562 370.925781 71.351562 C 370.332031 71.351562 369.050781 71.195312 368.457031 70.351562 C 369.144531 70.320312 369.300781 69.851562 369.300781 69.539062 C 369.300781 69.070312 368.957031 68.726562 368.488281 68.726562 C 368.082031 68.726562 367.675781 68.976562 367.675781 69.570312 C 367.675781 70.945312 369.175781 71.820312 370.957031 71.820312 C 372.957031 71.820312 374.363281 70.476562 374.363281 69.039062 Z M 374.363281 69.039062 "/>
<path fill="none" stroke-width="0.3985" stroke-linecap="butt" stroke-linejoin="miter" stroke="rgb(0%, 0%, 0%)" stroke-opacity="1" stroke-miterlimit="10" d="M 1.149155 1.993252 L 25.504623 44.172939 " transform="matrix(2, 0, 0, -2, 259.022003, 127.674004)"/>
<path fill-rule="nonzero" fill="rgb(0%, 0%, 0%)" fill-opacity="1" stroke-width="0.3985" stroke-linecap="butt" stroke-linejoin="miter" stroke="rgb(0%, 0%, 0%)" stroke-opacity="1" stroke-miterlimit="10" d="M 4.695106 -0.000274842 L 0.642997 1.52573 L 1.97549 -0.000837658 L 0.644065 -1.522873 Z M 4.695106 -0.000274842 " transform="matrix(1.00004, -1.732, -1.732, -1.00004, 308.155792, 42.576962)"/>
<path fill-rule="nonzero" fill="rgb(0%, 0%, 0%)" fill-opacity="1" d="M 260.832031 59.863281 C 259.300781 59.863281 258.113281 60.957031 257.363281 61.863281 C 256.519531 62.863281 255.863281 64.363281 255.863281 66.082031 C 255.863281 67.707031 256.425781 68.707031 257.988281 68.707031 C 259.363281 68.707031 260.644531 67.707031 261.425781 66.425781 L 261.113281 66.207031 C 260.582031 66.988281 259.488281 68.269531 258.394531 68.269531 C 257.582031 68.269531 257.238281 67.582031 257.238281 66.425781 C 257.238281 66.113281 257.300781 65.488281 257.332031 65.175781 C 259.300781 64.769531 262.582031 63.488281 262.582031 61.238281 C 262.582031 60.332031 261.769531 59.863281 260.832031 59.863281 Z M 260.644531 60.300781 C 261.019531 60.300781 261.363281 60.644531 261.363281 61.082031 C 261.363281 62.863281 259.113281 64.175781 257.425781 64.707031 C 257.800781 63.332031 259.019531 60.300781 260.644531 60.300781 Z M 260.644531 60.300781 "/>
<path fill-rule="nonzero" fill="rgb(0%, 0%, 0%)" fill-opacity="1" d="M 269.644531 71.539062 L 269.644531 71.007812 L 269.082031 71.007812 C 267.644531 71.007812 267.644531 70.820312 267.644531 70.351562 L 267.644531 62.289062 C 267.644531 61.914062 267.613281 61.882812 267.207031 61.882812 C 266.269531 62.820312 264.957031 62.820312 264.363281 62.820312 L 264.363281 63.351562 C 264.707031 63.351562 265.675781 63.351562 266.457031 62.945312 L 266.457031 70.351562 C 266.457031 70.820312 266.457031 71.007812 265.019531 71.007812 L 264.457031 71.007812 L 264.457031 71.539062 L 267.050781 71.476562 Z M 269.644531 71.539062 "/>
<path fill-rule="nonzero" fill="rgb(0%, 0%, 0%)" fill-opacity="1" d="M 278.394531 68.882812 L 277.894531 68.882812 C 277.863281 69.226562 277.707031 70.070312 277.519531 70.226562 C 277.394531 70.289062 276.269531 70.289062 276.082031 70.289062 L 273.394531 70.289062 C 274.925781 68.945312 275.425781 68.539062 276.300781 67.851562 C 277.394531 67.007812 278.394531 66.101562 278.394531 64.726562 C 278.394531 62.976562 276.863281 61.882812 274.988281 61.882812 C 273.175781 61.882812 271.957031 63.164062 271.957031 64.476562 C 271.957031 65.226562 272.582031 65.320312 272.738281 65.320312 C 273.082031 65.320312 273.519531 65.070312 273.519531 64.539062 C 273.519531 64.289062 273.394531 63.757812 272.644531 63.757812 C 273.113281 62.726562 274.082031 62.414062 274.769531 62.414062 C 276.238281 62.414062 276.988281 63.539062 276.988281 64.726562 C 276.988281 65.976562 276.082031 66.976562 275.613281 67.507812 L 272.113281 70.976562 C 271.957031 71.101562 271.957031 71.132812 271.957031 71.539062 L 277.957031 71.539062 Z M 278.394531 68.882812 "/>
<path fill="none" stroke-width="0.3985" stroke-linecap="butt" stroke-linejoin="miter" stroke="rgb(0%, 0%, 0%)" stroke-opacity="1" stroke-miterlimit="10" d="M 54.699936 0.0010643 L 5.379623 0.0010643 " transform="matrix(2, 0, 0, -2, 259.022003, 127.674004)"/>
<path fill-rule="nonzero" fill="rgb(0%, 0%, 0%)" fill-opacity="1" stroke-width="0.3985" stroke-linecap="butt" stroke-linejoin="miter" stroke="rgb(0%, 0%, 0%)" stroke-opacity="1" stroke-miterlimit="10" d="M 4.693573 -0.0010643 L 0.642792 1.526279 L 1.974823 -0.0010643 L 0.642792 -1.524502 Z M 4.693573 -0.0010643 " transform="matrix(-2, 0, 0, 2, 273.527771, 127.674004)"/>
<path fill-rule="nonzero" fill="rgb(0%, 0%, 0%)" fill-opacity="1" d="M 308.753906 108.957031 C 307.222656 108.957031 306.035156 110.050781 305.285156 110.957031 C 304.441406 111.957031 303.785156 113.457031 303.785156 115.175781 C 303.785156 116.800781 304.347656 117.800781 305.910156 117.800781 C 307.285156 117.800781 308.566406 116.800781 309.347656 115.519531 L 309.035156 115.300781 C 308.503906 116.082031 307.410156 117.363281 306.316406 117.363281 C 305.503906 117.363281 305.160156 116.675781 305.160156 115.519531 C 305.160156 115.207031 305.222656 114.582031 305.253906 114.269531 C 307.222656 113.863281 310.503906 112.582031 310.503906 110.332031 C 310.503906 109.425781 309.691406 108.957031 308.753906 108.957031 Z M 308.566406 109.394531 C 308.941406 109.394531 309.285156 109.738281 309.285156 110.175781 C 309.285156 111.957031 307.035156 113.269531 305.347656 113.800781 C 305.722656 112.425781 306.941406 109.394531 308.566406 109.394531 Z M 308.566406 109.394531 "/>
<path fill-rule="nonzero" fill="rgb(0%, 0%, 0%)" fill-opacity="1" d="M 318.160156 118.132812 C 318.160156 116.976562 317.222656 115.851562 315.628906 115.507812 C 317.160156 114.976562 317.722656 113.882812 317.722656 112.976562 C 317.722656 111.851562 316.378906 110.976562 314.785156 110.976562 C 313.160156 110.976562 311.941406 111.757812 311.941406 112.945312 C 311.941406 113.414062 312.253906 113.695312 312.691406 113.695312 C 313.128906 113.695312 313.410156 113.382812 313.410156 112.945312 C 313.410156 112.539062 313.128906 112.226562 312.691406 112.195312 C 313.191406 111.570312 314.191406 111.414062 314.722656 111.414062 C 315.378906 111.414062 316.285156 111.726562 316.285156 112.976562 C 316.285156 113.601562 316.097656 114.257812 315.722656 114.726562 C 315.253906 115.257812 314.847656 115.289062 314.097656 115.351562 C 313.753906 115.382812 313.722656 115.382812 313.628906 115.382812 C 313.628906 115.382812 313.503906 115.414062 313.503906 115.570312 C 313.503906 115.789062 313.628906 115.789062 313.878906 115.789062 L 314.660156 115.789062 C 315.785156 115.789062 316.597656 116.570312 316.597656 118.132812 C 316.597656 119.914062 315.566406 120.445312 314.722656 120.445312 C 314.128906 120.445312 312.847656 120.289062 312.253906 119.445312 C 312.941406 119.414062 313.097656 118.945312 313.097656 118.632812 C 313.097656 118.164062 312.753906 117.820312 312.285156 117.820312 C 311.878906 117.820312 311.472656 118.070312 311.472656 118.664062 C 311.472656 120.039062 312.972656 120.914062 314.753906 120.914062 C 316.753906 120.914062 318.160156 119.570312 318.160156 118.132812 Z M 318.160156 118.132812 "/>
<path fill-rule="nonzero" fill="rgb(0%, 0%, 0%)" fill-opacity="1" d="M 325.847656 120.632812 L 325.847656 120.101562 L 325.285156 120.101562 C 323.847656 120.101562 323.847656 119.914062 323.847656 119.445312 L 323.847656 111.382812 C 323.847656 111.007812 323.816406 110.976562 323.410156 110.976562 C 322.472656 111.914062 321.160156 111.914062 320.566406 111.914062 L 320.566406 112.445312 C 320.910156 112.445312 321.878906 112.445312 322.660156 112.039062 L 322.660156 119.445312 C 322.660156 119.914062 322.660156 120.101562 321.222656 120.101562 L 320.660156 120.101562 L 320.660156 120.632812 L 323.253906 120.570312 Z M 325.847656 120.632812 "/>
<path fill-rule="nonzero" fill="rgb(0%, 0%, 0%)" fill-opacity="1" d="M 16.917969 132.175781 C 18.574219 132.175781 19.667969 130.269531 20.230469 129.269531 L 19.886719 129.019531 C 19.449219 129.675781 18.511719 131.332031 17.824219 131.332031 C 17.574219 131.332031 17.667969 130.832031 17.667969 130.613281 C 17.667969 130.519531 17.667969 130.394531 17.667969 130.332031 C 17.949219 129.207031 18.480469 127.863281 18.824219 126.675781 C 19.011719 126.050781 19.292969 125.425781 19.292969 124.707031 C 19.292969 123.832031 18.886719 123.332031 18.011719 123.332031 C 17.355469 123.332031 16.855469 123.613281 16.417969 123.988281 C 15.792969 124.550781 15.324219 125.175781 14.824219 126.050781 L 14.761719 126.019531 C 14.917969 125.425781 15.011719 125.300781 15.011719 124.769531 C 15.011719 123.894531 14.542969 123.332031 13.667969 123.332031 C 12.574219 123.332031 11.542969 124.144531 10.542969 125.988281 L 10.511719 125.925781 C 10.667969 125.488281 10.730469 125.113281 10.730469 124.582031 C 10.730469 123.800781 10.574219 123.332031 9.792969 123.332031 C 8.136719 123.332031 7.417969 125.050781 6.886719 126.550781 L 7.230469 126.644531 C 7.449219 125.894531 8.417969 123.738281 9.261719 123.738281 C 9.480469 123.738281 9.574219 124.300781 9.574219 124.613281 C 9.574219 124.707031 9.542969 124.894531 9.480469 125.050781 C 9.167969 126.207031 8.855469 127.144531 8.480469 128.332031 L 7.324219 132.019531 L 8.636719 132.019531 L 10.011719 127.957031 C 10.574219 126.519531 11.449219 125.050781 12.511719 124.113281 C 12.824219 123.863281 13.105469 123.769531 13.324219 123.769531 C 13.980469 123.769531 13.824219 125.394531 13.667969 125.863281 C 13.417969 126.832031 13.105469 127.644531 12.730469 128.800781 L 11.667969 132.019531 L 13.011719 132.019531 C 13.511719 130.519531 13.886719 129.050781 14.386719 127.800781 C 14.855469 126.550781 15.792969 125.113281 16.574219 124.332031 C 17.011719 123.957031 17.324219 123.769531 17.605469 123.769531 C 17.824219 123.769531 18.042969 123.925781 18.042969 124.238281 C 18.042969 125.019531 17.699219 125.769531 17.417969 126.644531 C 17.011719 127.863281 16.636719 128.769531 16.355469 129.800781 C 16.261719 130.269531 16.136719 130.519531 16.136719 130.925781 C 16.136719 131.613281 16.324219 132.175781 16.917969 132.175781 Z M 16.917969 132.175781 "/>
<path fill-rule="nonzero" fill="rgb(0%, 0%, 0%)" fill-opacity="1" d="M 93.304688 140.128906 C 93.304688 139.410156 92.710938 138.847656 91.960938 138.847656 C 91.554688 138.847656 91.117188 139.035156 90.679688 139.316406 C 90.273438 139.597656 89.835938 140.003906 89.554688 140.503906 C 89.554688 139.597656 88.992188 138.847656 88.148438 138.847656 C 86.617188 138.847656 85.335938 140.410156 84.867188 141.472656 L 85.148438 141.628906 C 85.617188 140.941406 86.585938 139.347656 87.804688 139.347656 C 88.148438 139.347656 88.304688 140.066406 88.304688 140.660156 C 88.304688 141.066406 88.242188 141.566406 88.023438 142.222656 L 87.585938 143.785156 C 87.367188 144.566406 87.054688 145.628906 86.617188 146.160156 C 86.398438 146.503906 86.054688 147.066406 85.554688 147.066406 C 84.992188 147.066406 84.554688 146.941406 84.710938 146.410156 C 84.835938 146.003906 84.742188 145.410156 84.179688 145.410156 C 83.554688 145.410156 83.335938 145.847656 83.335938 146.441406 C 83.335938 147.191406 83.960938 147.691406 84.742188 147.691406 C 86.117188 147.691406 87.085938 146.660156 87.585938 145.753906 L 87.648438 145.785156 C 87.773438 146.847656 88.304688 147.691406 89.429688 147.691406 C 90.992188 147.691406 92.148438 146.160156 92.710938 145.253906 L 92.460938 145.003906 C 91.804688 145.847656 90.898438 147.222656 89.804688 147.222656 C 89.242188 147.222656 88.960938 146.410156 88.960938 145.566406 C 88.960938 145.128906 89.023438 144.535156 89.179688 143.785156 L 89.429688 142.816406 C 89.585938 142.066406 89.898438 141.160156 90.273438 140.628906 C 90.523438 140.253906 91.023438 139.378906 91.523438 139.378906 C 92.085938 139.378906 92.054688 139.785156 91.992188 140.191406 C 91.960938 140.722656 92.179688 140.972656 92.617188 140.972656 C 93.117188 140.972656 93.304688 140.597656 93.304688 140.128906 Z M 93.304688 140.128906 "/>
<path fill-rule="nonzero" fill="rgb(0%, 0%, 0%)" fill-opacity="1" d="M 196.210938 150.441406 C 196.210938 151.222656 196.835938 151.722656 197.679688 151.722656 C 198.273438 151.722656 198.742188 151.472656 199.398438 150.941406 C 200.492188 150.035156 202.179688 147.941406 203.179688 146.347656 C 203.679688 145.503906 204.179688 144.691406 204.585938 143.941406 C 205.085938 142.878906 206.054688 141.066406 206.054688 140.003906 C 206.054688 139.691406 205.992188 139.441406 205.867188 139.191406 C 205.742188 138.910156 205.523438 138.847656 205.242188 138.847656 C 205.023438 138.847656 204.835938 138.941406 204.648438 139.128906 C 204.460938 139.316406 204.367188 139.566406 204.367188 139.972656 C 204.367188 140.566406 204.679688 141.222656 204.679688 141.753906 C 204.679688 142.535156 204.367188 143.253906 204.085938 143.878906 C 203.742188 144.535156 203.429688 145.066406 202.992188 145.785156 L 202.867188 145.785156 L 202.429688 143.222656 C 202.273438 142.472656 201.992188 141.035156 201.867188 140.472656 C 201.585938 139.566406 201.429688 138.847656 200.085938 138.847656 C 198.523438 138.847656 198.273438 141.222656 197.929688 142.253906 L 198.335938 142.410156 C 198.523438 141.628906 199.117188 139.316406 199.742188 139.316406 C 200.179688 139.316406 200.398438 140.691406 200.460938 141.003906 C 200.554688 141.378906 200.679688 141.941406 200.835938 142.816406 L 201.617188 147.535156 C 201.148438 148.597656 200.054688 149.753906 199.242188 150.441406 C 198.929688 150.660156 198.492188 150.753906 198.273438 150.753906 C 198.117188 150.753906 198.023438 150.691406 197.960938 150.566406 C 197.679688 150.191406 197.679688 149.535156 197.023438 149.535156 C 196.492188 149.535156 196.210938 149.941406 196.210938 150.441406 Z M 196.210938 150.441406 "/>
<path fill-rule="nonzero" fill="rgb(0%, 0%, 0%)" fill-opacity="1" d="M 143.371094 12.773438 C 143.777344 12.773438 143.996094 12.617188 143.996094 12.210938 C 143.996094 11.554688 143.277344 11.710938 143.058594 11.210938 C 142.933594 10.960938 143.183594 10.742188 143.527344 10.742188 C 144.714844 10.742188 145.402344 12.054688 147.027344 12.054688 L 142.433594 16.304688 C 141.964844 16.773438 141.496094 17.335938 141.496094 17.835938 C 141.496094 18.148438 141.746094 18.304688 141.871094 18.304688 C 142.839844 18.304688 142.183594 17.210938 143.121094 17.210938 C 144.371094 17.210938 145.089844 18.460938 146.527344 18.460938 C 148.121094 18.460938 148.683594 16.867188 148.996094 15.554688 L 148.621094 15.523438 C 148.308594 16.304688 147.871094 17.085938 147.027344 17.085938 C 145.808594 17.085938 144.714844 15.992188 143.496094 15.992188 C 145.308594 14.242188 146.871094 12.835938 148.621094 11.148438 C 148.839844 10.867188 149.121094 10.617188 149.121094 10.273438 C 149.121094 9.929688 148.996094 9.773438 148.777344 9.773438 C 148.402344 9.773438 148.308594 10.085938 148.183594 10.304688 C 148.027344 10.554688 147.683594 10.804688 147.277344 10.804688 C 146.183594 10.804688 145.371094 9.617188 143.933594 9.617188 C 142.996094 9.617188 142.152344 10.335938 142.152344 11.523438 C 142.152344 12.273438 142.621094 12.773438 143.371094 12.773438 Z M 143.371094 12.773438 "/>
<path fill="none" stroke-width="0.3985" stroke-linecap="butt" stroke-linejoin="miter" stroke="rgb(0%, 0%, 0%)" stroke-opacity="1" stroke-miterlimit="10" d="M -111.393814 0.0010643 L -90.421158 0.0010643 " transform="matrix(2, 0, 0, -2, 259.022003, 127.674004)"/>
<path fill-rule="nonzero" fill="rgb(0%, 0%, 0%)" fill-opacity="1" stroke-width="0.3985" stroke-linecap="butt" stroke-linejoin="miter" stroke="rgb(0%, 0%, 0%)" stroke-opacity="1" stroke-miterlimit="10" d="M 4.692474 0.0010643 L 0.641693 1.524502 L 1.973724 0.0010643 L 0.641693 -1.526279 Z M 4.692474 0.0010643 " transform="matrix(2, 0, 0, -2, 74.435364, 127.674004)"/>
<path fill-rule="nonzero" fill="rgb(0%, 0%, 0%)" fill-opacity="1" d="M 58.972656 109.007812 L 56.066406 119.601562 C 55.847656 120.195312 55.347656 120.351562 54.503906 120.351562 L 54.441406 120.632812 L 59.003906 120.632812 L 59.066406 120.351562 C 58.191406 120.320312 57.472656 120.289062 57.472656 119.601562 C 57.472656 119.507812 57.472656 119.414062 57.472656 119.320312 C 57.535156 119.226562 57.535156 119.070312 57.597656 118.914062 L 58.316406 116.320312 C 60.003906 116.101562 61.535156 115.320312 62.566406 114.414062 C 63.503906 113.601562 64.441406 112.382812 64.441406 110.726562 C 64.441406 108.945312 63.316406 107.914062 61.535156 107.914062 C 61.191406 107.914062 60.847656 107.945312 60.503906 108.039062 L 61.097656 105.882812 L 59.847656 105.882812 L 59.128906 108.382812 C 58.597656 108.632812 58.035156 108.976562 57.535156 109.351562 C 57.035156 109.726562 56.660156 110.132812 56.222656 110.570312 L 56.597656 110.882812 C 57.222656 110.226562 58.160156 109.445312 58.972656 109.007812 Z M 62.910156 110.851562 C 62.910156 112.039062 62.285156 113.445312 61.597656 114.164062 C 60.847656 114.914062 59.628906 115.664062 58.441406 115.882812 L 60.410156 108.507812 C 60.535156 108.476562 60.691406 108.476562 60.785156 108.476562 C 60.941406 108.414062 61.097656 108.414062 61.222656 108.414062 C 62.472656 108.414062 62.910156 109.664062 62.910156 110.851562 Z M 62.910156 110.851562 "/>
<path fill="none" stroke-width="0.3985" stroke-linecap="butt" stroke-linejoin="miter" stroke="rgb(0%, 0%, 0%)" stroke-opacity="1" stroke-miterlimit="10" d="M -83.046158 0.0010643 L -33.725845 0.0010643 " transform="matrix(2, 0, 0, -2, 259.022003, 127.674004)"/>
<path fill-rule="nonzero" fill="rgb(0%, 0%, 0%)" fill-opacity="1" stroke-width="0.3985" stroke-linecap="butt" stroke-linejoin="miter" stroke="rgb(0%, 0%, 0%)" stroke-opacity="1" stroke-miterlimit="10" d="M 4.694168 0.0010643 L 0.643387 1.524502 L 1.971512 0.0010643 L 0.643387 -1.526279 Z M 4.694168 0.0010643 " transform="matrix(2, 0, 0, -2, 187.822601, 127.674004)"/>
<path fill-rule="nonzero" fill="rgb(0%, 0%, 0%)" fill-opacity="1" d="M 139.640625 105.933594 C 138.109375 105.933594 136.921875 107.027344 136.171875 107.933594 C 135.328125 108.933594 134.671875 110.433594 134.671875 112.152344 C 134.671875 113.777344 135.234375 114.777344 136.796875 114.777344 C 138.171875 114.777344 139.453125 113.777344 140.234375 112.496094 L 139.921875 112.277344 C 139.390625 113.058594 138.296875 114.339844 137.203125 114.339844 C 136.390625 114.339844 136.046875 113.652344 136.046875 112.496094 C 136.046875 112.183594 136.109375 111.558594 136.140625 111.246094 C 138.109375 110.839844 141.390625 109.558594 141.390625 107.308594 C 141.390625 106.402344 140.578125 105.933594 139.640625 105.933594 Z M 139.453125 106.371094 C 139.828125 106.371094 140.171875 106.714844 140.171875 107.152344 C 140.171875 108.933594 137.921875 110.246094 136.234375 110.777344 C 136.609375 109.402344 137.828125 106.371094 139.453125 106.371094 Z M 139.453125 106.371094 "/>
<path fill-rule="nonzero" fill="rgb(0%, 0%, 0%)" fill-opacity="1" d="M 148.597656 112.203125 C 148.597656 111.671875 148.160156 111.265625 147.628906 111.265625 C 147.347656 111.265625 147.003906 111.390625 146.722656 111.609375 C 146.410156 111.828125 146.097656 112.109375 145.878906 112.484375 C 145.878906 111.828125 145.472656 111.265625 144.847656 111.265625 C 143.753906 111.265625 142.785156 112.421875 142.472656 113.203125 L 142.660156 113.296875 C 143.003906 112.828125 143.722656 111.640625 144.597656 111.640625 C 144.847656 111.640625 144.972656 112.171875 144.972656 112.609375 C 144.972656 112.890625 144.910156 113.265625 144.785156 113.734375 L 144.441406 114.890625 C 144.285156 115.453125 144.035156 116.203125 143.753906 116.609375 C 143.597656 116.859375 143.316406 117.265625 142.972656 117.265625 C 142.566406 117.265625 142.253906 117.203125 142.347656 116.796875 C 142.441406 116.484375 142.378906 116.078125 141.941406 116.078125 C 141.535156 116.078125 141.347656 116.359375 141.347656 116.796875 C 141.347656 117.359375 141.816406 117.734375 142.378906 117.734375 C 143.378906 117.734375 144.066406 116.984375 144.441406 116.328125 L 144.472656 116.328125 C 144.597656 117.109375 144.972656 117.734375 145.785156 117.734375 C 146.941406 117.734375 147.753906 116.609375 148.191406 115.953125 L 148.003906 115.765625 C 147.535156 116.390625 146.847656 117.390625 146.066406 117.390625 C 145.660156 117.390625 145.441406 116.765625 145.441406 116.171875 C 145.441406 115.859375 145.472656 115.421875 145.628906 114.890625 L 145.785156 114.171875 C 145.878906 113.609375 146.128906 112.953125 146.410156 112.578125 C 146.566406 112.296875 146.941406 111.671875 147.316406 111.671875 C 147.722656 111.671875 147.691406 111.953125 147.660156 112.265625 C 147.628906 112.640625 147.785156 112.828125 148.128906 112.828125 C 148.472656 112.828125 148.597656 112.546875 148.597656 112.203125 Z M 148.597656 112.203125 "/>
<path fill-rule="nonzero" fill="rgb(0%, 0%, 0%)" fill-opacity="1" d="M 148.265625 119.734375 C 148.265625 120.296875 148.734375 120.671875 149.359375 120.671875 C 149.796875 120.671875 150.140625 120.484375 150.609375 120.109375 C 151.421875 119.421875 152.640625 117.921875 153.359375 116.734375 C 153.734375 116.140625 154.078125 115.546875 154.359375 114.984375 C 154.765625 114.234375 155.453125 112.890625 155.453125 112.109375 C 155.453125 111.890625 155.390625 111.703125 155.328125 111.515625 C 155.234375 111.328125 155.046875 111.265625 154.859375 111.265625 C 154.703125 111.265625 154.578125 111.359375 154.421875 111.484375 C 154.296875 111.609375 154.234375 111.796875 154.234375 112.109375 C 154.234375 112.546875 154.453125 113.015625 154.453125 113.390625 C 154.453125 113.984375 154.234375 114.484375 154.015625 114.953125 C 153.765625 115.421875 153.546875 115.796875 153.203125 116.359375 L 153.109375 116.359375 L 152.796875 114.453125 C 152.703125 113.921875 152.484375 112.859375 152.390625 112.453125 C 152.203125 111.796875 152.078125 111.265625 151.109375 111.265625 C 149.984375 111.265625 149.796875 113.015625 149.546875 113.765625 L 149.828125 113.859375 C 149.953125 113.296875 150.390625 111.609375 150.859375 111.609375 C 151.171875 111.609375 151.328125 112.609375 151.390625 112.828125 C 151.453125 113.140625 151.546875 113.515625 151.640625 114.171875 L 152.234375 117.609375 C 151.890625 118.390625 151.078125 119.234375 150.484375 119.703125 C 150.265625 119.890625 149.953125 119.953125 149.796875 119.953125 C 149.671875 119.953125 149.609375 119.890625 149.546875 119.828125 C 149.359375 119.546875 149.359375 119.078125 148.890625 119.078125 C 148.484375 119.078125 148.265625 119.359375 148.265625 119.734375 Z M 148.265625 119.734375 "/>
<path fill="none" stroke-width="0.3985" stroke-linecap="butt" stroke-linejoin="miter" stroke="rgb(0%, 0%, 0%)" stroke-opacity="1" stroke-dasharray="2.98883 2.98883" stroke-miterlimit="10" d="M -83.889908 1.993252 L -59.538345 44.172939 " transform="matrix(2, 0, 0, -2, 259.022003, 127.674004)"/>
<path fill-rule="nonzero" fill="rgb(0%, 0%, 0%)" fill-opacity="1" stroke-width="0.3985" stroke-linecap="butt" stroke-linejoin="miter" stroke="rgb(0%, 0%, 0%)" stroke-opacity="1" stroke-miterlimit="10" d="M 4.693836 0.00192536 L 0.64368 1.524547 L 1.97422 0.00136254 L 0.644748 -1.524056 Z M 4.693836 0.00192536 " transform="matrix(1.00004, -1.732, -1.732, -1.00004, 138.074936, 42.576962)"/>
<path fill-rule="nonzero" fill="rgb(0%, 0%, 0%)" fill-opacity="1" d="M 92.785156 59.753906 C 91.253906 59.753906 90.066406 60.847656 89.316406 61.753906 C 88.472656 62.753906 87.816406 64.253906 87.816406 65.972656 C 87.816406 67.597656 88.378906 68.597656 89.941406 68.597656 C 91.316406 68.597656 92.597656 67.597656 93.378906 66.316406 L 93.066406 66.097656 C 92.535156 66.878906 91.441406 68.160156 90.347656 68.160156 C 89.535156 68.160156 89.191406 67.472656 89.191406 66.316406 C 89.191406 66.003906 89.253906 65.378906 89.285156 65.066406 C 91.253906 64.660156 94.535156 63.378906 94.535156 61.128906 C 94.535156 60.222656 93.722656 59.753906 92.785156 59.753906 Z M 92.597656 60.191406 C 92.972656 60.191406 93.316406 60.535156 93.316406 60.972656 C 93.316406 62.753906 91.066406 64.066406 89.378906 64.597656 C 89.753906 63.222656 90.972656 60.191406 92.597656 60.191406 Z M 92.597656 60.191406 "/>
<path fill-rule="nonzero" fill="rgb(0%, 0%, 0%)" fill-opacity="1" d="M 101.742188 66.023438 C 101.742188 65.492188 101.304688 65.085938 100.773438 65.085938 C 100.492188 65.085938 100.148438 65.210938 99.867188 65.429688 C 99.554688 65.648438 99.242188 65.929688 99.023438 66.304688 C 99.023438 65.648438 98.617188 65.085938 97.992188 65.085938 C 96.898438 65.085938 95.929688 66.242188 95.617188 67.023438 L 95.804688 67.117188 C 96.148438 66.648438 96.867188 65.460938 97.742188 65.460938 C 97.992188 65.460938 98.117188 65.992188 98.117188 66.429688 C 98.117188 66.710938 98.054688 67.085938 97.929688 67.554688 L 97.585938 68.710938 C 97.429688 69.273438 97.179688 70.023438 96.898438 70.429688 C 96.742188 70.679688 96.460938 71.085938 96.117188 71.085938 C 95.710938 71.085938 95.398438 71.023438 95.492188 70.617188 C 95.585938 70.304688 95.523438 69.898438 95.085938 69.898438 C 94.679688 69.898438 94.492188 70.179688 94.492188 70.617188 C 94.492188 71.179688 94.960938 71.554688 95.523438 71.554688 C 96.523438 71.554688 97.210938 70.804688 97.585938 70.148438 L 97.617188 70.148438 C 97.742188 70.929688 98.117188 71.554688 98.929688 71.554688 C 100.085938 71.554688 100.898438 70.429688 101.335938 69.773438 L 101.148438 69.585938 C 100.679688 70.210938 99.992188 71.210938 99.210938 71.210938 C 98.804688 71.210938 98.585938 70.585938 98.585938 69.992188 C 98.585938 69.679688 98.617188 69.242188 98.773438 68.710938 L 98.929688 67.992188 C 99.023438 67.429688 99.273438 66.773438 99.554688 66.398438 C 99.710938 66.117188 100.085938 65.492188 100.460938 65.492188 C 100.867188 65.492188 100.835938 65.773438 100.804688 66.085938 C 100.773438 66.460938 100.929688 66.648438 101.273438 66.648438 C 101.617188 66.648438 101.742188 66.367188 101.742188 66.023438 Z M 101.742188 66.023438 "/>
<path fill-rule="nonzero" fill="rgb(0%, 0%, 0%)" fill-opacity="1" d="M 104.160156 67.398438 C 104.472656 67.398438 104.628906 67.273438 104.628906 66.992188 C 104.628906 66.523438 104.097656 66.617188 103.972656 66.242188 C 103.878906 66.054688 104.035156 65.929688 104.285156 65.929688 C 105.160156 65.929688 105.660156 66.867188 106.847656 66.867188 L 103.503906 69.992188 C 103.128906 70.304688 102.816406 70.742188 102.816406 71.085938 C 102.816406 71.304688 103.003906 71.429688 103.097656 71.429688 C 103.785156 71.429688 103.316406 70.617188 103.972656 70.617188 C 104.910156 70.617188 105.410156 71.554688 106.472656 71.554688 C 107.628906 71.554688 108.035156 70.398438 108.285156 69.429688 L 108.003906 69.398438 C 107.785156 69.992188 107.472656 70.554688 106.847656 70.554688 C 105.941406 70.554688 105.160156 69.742188 104.285156 69.742188 C 105.597656 68.492188 106.722656 67.460938 108.003906 66.210938 C 108.160156 66.023438 108.347656 65.835938 108.347656 65.585938 C 108.347656 65.335938 108.285156 65.210938 108.128906 65.210938 C 107.847656 65.210938 107.785156 65.429688 107.691406 65.617188 C 107.566406 65.804688 107.316406 65.960938 107.035156 65.960938 C 106.222656 65.960938 105.628906 65.085938 104.597656 65.085938 C 103.910156 65.085938 103.285156 65.617188 103.285156 66.492188 C 103.285156 67.054688 103.628906 67.398438 104.160156 67.398438 Z M 104.160156 67.398438 "/>
<path fill="none" stroke-width="0.3985" stroke-linecap="butt" stroke-linejoin="miter" stroke="rgb(0%, 0%, 0%)" stroke-opacity="1" stroke-dasharray="2.98883 2.98883" stroke-miterlimit="10" d="M -55.542252 47.102627 L -31.190689 4.926846 " transform="matrix(2, 0, 0, -2, 259.022003, 127.674004)"/>
<path fill-rule="nonzero" fill="rgb(0%, 0%, 0%)" fill-opacity="1" stroke-width="0.3985" stroke-linecap="butt" stroke-linejoin="miter" stroke="rgb(0%, 0%, 0%)" stroke-opacity="1" stroke-miterlimit="10" d="M 4.691419 0.000430482 L 0.642331 1.526412 L 1.971803 0.000993298 L 0.644645 -1.524145 Z M 4.691419 0.000430482 " transform="matrix(1.00004, 1.732, 1.732, -1.00004, 194.768585, 114.578018)"/>
<path fill-rule="nonzero" fill="rgb(0%, 0%, 0%)" fill-opacity="1" d="M 186.597656 56.835938 C 185.066406 56.835938 183.878906 57.929688 183.128906 58.835938 C 182.285156 59.835938 181.628906 61.335938 181.628906 63.054688 C 181.628906 64.679688 182.191406 65.679688 183.753906 65.679688 C 185.128906 65.679688 186.410156 64.679688 187.191406 63.398438 L 186.878906 63.179688 C 186.347656 63.960938 185.253906 65.242188 184.160156 65.242188 C 183.347656 65.242188 183.003906 64.554688 183.003906 63.398438 C 183.003906 63.085938 183.066406 62.460938 183.097656 62.148438 C 185.066406 61.742188 188.347656 60.460938 188.347656 58.210938 C 188.347656 57.304688 187.535156 56.835938 186.597656 56.835938 Z M 186.410156 57.273438 C 186.785156 57.273438 187.128906 57.617188 187.128906 58.054688 C 187.128906 59.835938 184.878906 61.148438 183.191406 61.679688 C 183.566406 60.304688 184.785156 57.273438 186.410156 57.273438 Z M 186.410156 57.273438 "/>
<path fill-rule="nonzero" fill="rgb(0%, 0%, 0%)" fill-opacity="1" d="M 190.261719 64.480469 C 190.574219 64.480469 190.730469 64.355469 190.730469 64.074219 C 190.730469 63.605469 190.199219 63.699219 190.074219 63.324219 C 189.980469 63.136719 190.136719 63.011719 190.386719 63.011719 C 191.261719 63.011719 191.761719 63.949219 192.949219 63.949219 L 189.605469 67.074219 C 189.230469 67.386719 188.917969 67.824219 188.917969 68.167969 C 188.917969 68.386719 189.105469 68.511719 189.199219 68.511719 C 189.886719 68.511719 189.417969 67.699219 190.074219 67.699219 C 191.011719 67.699219 191.511719 68.636719 192.574219 68.636719 C 193.730469 68.636719 194.136719 67.480469 194.386719 66.511719 L 194.105469 66.480469 C 193.886719 67.074219 193.574219 67.636719 192.949219 67.636719 C 192.042969 67.636719 191.261719 66.824219 190.386719 66.824219 C 191.699219 65.574219 192.824219 64.542969 194.105469 63.292969 C 194.261719 63.105469 194.449219 62.917969 194.449219 62.667969 C 194.449219 62.417969 194.386719 62.292969 194.230469 62.292969 C 193.949219 62.292969 193.886719 62.511719 193.792969 62.699219 C 193.667969 62.886719 193.417969 63.042969 193.136719 63.042969 C 192.324219 63.042969 191.730469 62.167969 190.699219 62.167969 C 190.011719 62.167969 189.386719 62.699219 189.386719 63.574219 C 189.386719 64.136719 189.730469 64.480469 190.261719 64.480469 Z M 190.261719 64.480469 "/>
<path fill-rule="nonzero" fill="rgb(0%, 0%, 0%)" fill-opacity="1" d="M 194.304688 70.636719 C 194.304688 71.199219 194.773438 71.574219 195.398438 71.574219 C 195.835938 71.574219 196.179688 71.386719 196.648438 71.011719 C 197.460938 70.324219 198.679688 68.824219 199.398438 67.636719 C 199.773438 67.042969 200.117188 66.449219 200.398438 65.886719 C 200.804688 65.136719 201.492188 63.792969 201.492188 63.011719 C 201.492188 62.792969 201.429688 62.605469 201.367188 62.417969 C 201.273438 62.230469 201.085938 62.167969 200.898438 62.167969 C 200.742188 62.167969 200.617188 62.261719 200.460938 62.386719 C 200.335938 62.511719 200.273438 62.699219 200.273438 63.011719 C 200.273438 63.449219 200.492188 63.917969 200.492188 64.292969 C 200.492188 64.886719 200.273438 65.386719 200.054688 65.855469 C 199.804688 66.324219 199.585938 66.699219 199.242188 67.261719 L 199.148438 67.261719 L 198.835938 65.355469 C 198.742188 64.824219 198.523438 63.761719 198.429688 63.355469 C 198.242188 62.699219 198.117188 62.167969 197.148438 62.167969 C 196.023438 62.167969 195.835938 63.917969 195.585938 64.667969 L 195.867188 64.761719 C 195.992188 64.199219 196.429688 62.511719 196.898438 62.511719 C 197.210938 62.511719 197.367188 63.511719 197.429688 63.730469 C 197.492188 64.042969 197.585938 64.417969 197.679688 65.074219 L 198.273438 68.511719 C 197.929688 69.292969 197.117188 70.136719 196.523438 70.605469 C 196.304688 70.792969 195.992188 70.855469 195.835938 70.855469 C 195.710938 70.855469 195.648438 70.792969 195.585938 70.730469 C 195.398438 70.449219 195.398438 69.980469 194.929688 69.980469 C 194.523438 69.980469 194.304688 70.261719 194.304688 70.636719 Z M 194.304688 70.636719 "/>
<path fill="none" stroke-width="0.3985" stroke-linecap="butt" stroke-linejoin="miter" stroke="rgb(0%, 0%, 0%)" stroke-opacity="1" stroke-miterlimit="10" d="M -26.354752 0.0010643 L -5.378189 0.0010643 " transform="matrix(2, 0, 0, -2, 259.022003, 127.674004)"/>
<path fill-rule="nonzero" fill="rgb(0%, 0%, 0%)" fill-opacity="1" stroke-width="0.3985" stroke-linecap="butt" stroke-linejoin="miter" stroke="rgb(0%, 0%, 0%)" stroke-opacity="1" stroke-miterlimit="10" d="M 4.691101 0.0010643 L 0.644226 1.524502 L 1.972351 0.0010643 L 0.644226 -1.526279 Z M 4.691101 0.0010643 " transform="matrix(2, 0, 0, -2, 244.516235, 127.674004)"/>
<path fill-rule="nonzero" fill="rgb(0%, 0%, 0%)" fill-opacity="1" d="M 231.011719 119.757812 C 231.011719 119.664062 231.074219 119.445312 231.136719 119.195312 L 234.136719 107.914062 L 233.042969 107.914062 L 232.574219 109.070312 C 232.386719 108.664062 232.167969 108.382812 231.886719 108.164062 C 231.636719 108.007812 231.324219 107.914062 230.949219 107.914062 C 229.542969 107.914062 228.417969 109.007812 227.730469 109.914062 C 226.980469 110.945312 226.230469 112.445312 226.230469 114.132812 C 226.230469 115.695312 226.824219 116.757812 228.324219 116.757812 C 229.542969 116.757812 230.355469 116.070312 230.824219 115.195312 L 230.917969 115.226562 L 229.730469 119.601562 C 229.542969 120.195312 229.074219 120.351562 228.230469 120.351562 L 228.167969 120.632812 L 232.355469 120.632812 L 232.386719 120.351562 C 231.699219 120.320312 231.011719 120.289062 231.011719 119.757812 Z M 231.011719 108.257812 C 231.636719 108.257812 232.136719 108.851562 232.136719 109.914062 C 232.136719 110.507812 231.949219 111.726562 231.761719 112.320312 C 231.355469 113.570312 230.136719 116.320312 228.824219 116.320312 C 228.199219 116.320312 227.699219 115.695312 227.699219 114.632812 C 227.699219 114.039062 227.792969 113.039062 227.980469 112.382812 C 228.386719 111.132812 229.511719 108.257812 231.011719 108.257812 Z M 231.011719 108.257812 "/>
<path fill-rule="nonzero" fill="rgb(0%, 0%, 0%)" fill-opacity="1" d="M 263.007812 127.671875 C 263.007812 125.476562 261.226562 123.6875 259.023438 123.6875 C 256.820312 123.6875 255.039062 125.476562 255.039062 127.671875 C 255.039062 129.875 256.820312 131.65625 259.023438 131.65625 C 261.226562 131.65625 263.007812 129.875 263.007812 127.671875 Z M 263.007812 127.671875 "/>
<path fill-rule="nonzero" fill="rgb(0%, 0%, 0%)" fill-opacity="1" d="M 319.703125 29.484375 C 319.703125 27.28125 317.914062 25.492188 315.71875 25.492188 C 313.515625 25.492188 311.734375 27.28125 311.734375 29.484375 C 311.734375 31.679688 313.515625 33.46875 315.71875 33.46875 C 317.914062 33.46875 319.703125 31.679688 319.703125 29.484375 Z M 319.703125 29.484375 "/>
<path fill-rule="nonzero" fill="rgb(0%, 0%, 0%)" fill-opacity="1" d="M 376.390625 127.671875 C 376.390625 125.476562 374.609375 123.6875 372.40625 123.6875 C 370.210938 123.6875 368.421875 125.476562 368.421875 127.671875 C 368.421875 129.875 370.210938 131.65625 372.40625 131.65625 C 374.609375 131.65625 376.390625 129.875 376.390625 127.671875 Z M 376.390625 127.671875 "/>
<path fill-rule="nonzero" fill="rgb(0%, 0%, 0%)" fill-opacity="1" d="M 36.234375 127.671875 C 36.234375 125.476562 34.445312 123.6875 32.25 123.6875 C 30.046875 123.6875 28.265625 125.476562 28.265625 127.671875 C 28.265625 129.875 30.046875 131.65625 32.25 131.65625 C 34.445312 131.65625 36.234375 129.875 36.234375 127.671875 Z M 36.234375 127.671875 "/>
<path fill-rule="nonzero" fill="rgb(0%, 0%, 0%)" fill-opacity="1" d="M 92.929688 127.671875 C 92.929688 125.476562 91.140625 123.6875 88.9375 123.6875 C 86.742188 123.6875 84.953125 125.476562 84.953125 127.671875 C 84.953125 129.875 86.742188 131.65625 88.9375 131.65625 C 91.140625 131.65625 92.929688 129.875 92.929688 127.671875 Z M 92.929688 127.671875 "/>
<path fill-rule="nonzero" fill="rgb(0%, 0%, 0%)" fill-opacity="1" d="M 206.3125 127.671875 C 206.3125 125.476562 204.53125 123.6875 202.328125 123.6875 C 200.125 123.6875 198.34375 125.476562 198.34375 127.671875 C 198.34375 129.875 200.125 131.65625 202.328125 131.65625 C 204.53125 131.65625 206.3125 129.875 206.3125 127.671875 Z M 206.3125 127.671875 "/>
<path fill-rule="nonzero" fill="rgb(0%, 0%, 0%)" fill-opacity="1" d="M 149.617188 29.484375 C 149.617188 27.28125 147.835938 25.492188 145.632812 25.492188 C 143.4375 25.492188 141.648438 27.28125 141.648438 29.484375 C 141.648438 31.679688 143.4375 33.46875 145.632812 33.46875 C 147.835938 33.46875 149.617188 31.679688 149.617188 29.484375 Z M 149.617188 29.484375 "/>
</svg>
