<?xml version="1.0" encoding="UTF-8"?>
<svg xmlns="http://www.w3.org/2000/svg" xmlns:xlink="http://www.w3.org/1999/xlink" width="212.899994" height="101.139999" viewBox="0 0 212.899994 101.139999">
<defs>
<clipPath id="clip-0">
<path clip-rule="nonzero" d="M 42 0 L 192 0 L 192 101.140625 L 42 101.140625 Z M 42 0 "/>
</clipPath>
</defs>
<path fill-rule="nonzero" fill="rgb(0%, 0%, 0%)" fill-opacity="1" d="M 27.054688 11.578125 C 27.242188 10.859375 27.273438 10.671875 28.773438 10.671875 C 29.210938 10.671875 29.398438 10.671875 29.398438 10.265625 C 29.398438 10.046875 29.210938 10.046875 28.867188 10.046875 L 26.242188 10.046875 C 25.710938 10.046875 25.679688 10.046875 25.460938 10.421875 L 18.179688 21.796875 L 16.617188 10.515625 C 16.554688 10.046875 16.523438 10.046875 15.992188 10.046875 L 13.273438 10.046875 C 12.898438 10.046875 12.679688 10.046875 12.679688 10.421875 C 12.679688 10.671875 12.867188 10.671875 13.242188 10.671875 C 13.523438 10.671875 13.867188 10.703125 14.117188 10.703125 C 14.429688 10.765625 14.554688 10.796875 14.554688 11.046875 C 14.554688 11.109375 14.523438 11.171875 14.460938 11.421875 L 11.929688 21.546875 C 11.742188 22.359375 11.398438 22.984375 9.773438 23.046875 C 9.679688 23.046875 9.429688 23.078125 9.429688 23.421875 C 9.429688 23.609375 9.554688 23.671875 9.710938 23.671875 C 10.335938 23.671875 11.023438 23.609375 11.710938 23.609375 C 12.367188 23.609375 13.085938 23.671875 13.742188 23.671875 C 13.835938 23.671875 14.117188 23.671875 14.117188 23.265625 C 14.117188 23.046875 13.898438 23.046875 13.742188 23.046875 C 12.617188 23.046875 12.398438 22.640625 12.398438 22.171875 C 12.398438 22.046875 12.398438 21.921875 12.460938 21.703125 L 15.179688 10.859375 L 15.210938 10.859375 L 16.929688 23.203125 C 16.960938 23.453125 16.992188 23.671875 17.210938 23.671875 C 17.429688 23.671875 17.554688 23.453125 17.648438 23.328125 L 25.710938 10.703125 L 25.742188 10.703125 L 22.867188 22.109375 C 22.679688 22.890625 22.648438 23.046875 21.054688 23.046875 C 20.742188 23.046875 20.523438 23.046875 20.523438 23.421875 C 20.523438 23.671875 20.742188 23.671875 20.804688 23.671875 C 21.367188 23.671875 22.710938 23.609375 23.273438 23.609375 C 24.085938 23.609375 24.960938 23.671875 25.773438 23.671875 C 25.898438 23.671875 26.148438 23.671875 26.148438 23.265625 C 26.148438 23.046875 25.960938 23.046875 25.585938 23.046875 C 24.867188 23.046875 24.304688 23.046875 24.304688 22.703125 C 24.304688 22.609375 24.304688 22.578125 24.398438 22.203125 Z M 27.054688 11.578125 "/>
<path fill-rule="nonzero" fill="rgb(0%, 0%, 0%)" fill-opacity="1" d="M 32.570312 17.785156 C 32.570312 17.410156 32.570312 17.410156 32.164062 17.410156 C 31.257812 18.285156 30.007812 18.285156 29.445312 18.285156 L 29.445312 18.785156 C 29.757812 18.785156 30.695312 18.785156 31.445312 18.410156 L 31.445312 25.503906 C 31.445312 25.972656 31.445312 26.160156 30.070312 26.160156 L 29.539062 26.160156 L 29.539062 26.660156 C 29.789062 26.660156 31.507812 26.597656 32.007812 26.597656 C 32.445312 26.597656 34.195312 26.660156 34.507812 26.660156 L 34.507812 26.160156 L 33.976562 26.160156 C 32.570312 26.160156 32.570312 25.972656 32.570312 25.503906 Z M 32.570312 17.785156 "/>
<path fill-rule="nonzero" fill="rgb(0%, 0%, 0%)" fill-opacity="1" d="M 49.035156 18.140625 L 45.066406 14.171875 C 44.816406 13.921875 44.785156 13.890625 44.628906 13.890625 C 44.410156 13.890625 44.222656 14.046875 44.222656 14.296875 C 44.222656 14.421875 44.253906 14.453125 44.472656 14.671875 L 48.472656 18.671875 L 44.472656 22.703125 C 44.253906 22.921875 44.222656 22.953125 44.222656 23.078125 C 44.222656 23.328125 44.410156 23.484375 44.628906 23.484375 C 44.785156 23.484375 44.816406 23.453125 45.066406 23.203125 L 49.035156 19.234375 L 53.160156 23.359375 C 53.191406 23.390625 53.316406 23.484375 53.441406 23.484375 C 53.691406 23.484375 53.847656 23.328125 53.847656 23.078125 C 53.847656 23.046875 53.847656 22.984375 53.785156 22.859375 C 53.753906 22.828125 50.597656 19.703125 49.597656 18.671875 L 53.253906 15.046875 C 53.347656 14.921875 53.660156 14.671875 53.753906 14.546875 C 53.753906 14.515625 53.847656 14.421875 53.847656 14.296875 C 53.847656 14.046875 53.691406 13.890625 53.441406 13.890625 C 53.285156 13.890625 53.222656 13.953125 53.003906 14.171875 Z M 49.035156 18.140625 "/>
<path fill-rule="nonzero" fill="rgb(0%, 0%, 0%)" fill-opacity="1" d="M 70.425781 16.921875 C 70.238281 15.671875 69.425781 14.546875 67.863281 14.546875 C 66.644531 14.546875 65.363281 14.890625 63.800781 16.421875 C 62.144531 18.078125 62.019531 19.953125 62.019531 20.546875 C 62.019531 21.796875 62.894531 24.109375 65.675781 24.109375 C 70.425781 24.109375 72.488281 17.421875 72.488281 14.546875 C 72.488281 11.390625 70.644531 9.390625 68.175781 9.390625 C 65.300781 9.390625 64.363281 11.984375 64.363281 12.546875 C 64.363281 12.828125 64.550781 13.234375 65.144531 13.234375 C 65.800781 13.234375 66.207031 12.640625 66.207031 12.203125 C 66.207031 11.484375 65.582031 11.484375 65.269531 11.484375 C 66.144531 10.015625 67.582031 9.890625 68.144531 9.890625 C 69.613281 9.890625 70.988281 10.921875 70.988281 13.515625 C 70.988281 14.296875 70.863281 15.296875 70.457031 16.921875 Z M 65.738281 23.546875 C 63.550781 23.546875 63.550781 21.484375 63.550781 21.296875 C 63.550781 20.765625 64.050781 17.984375 64.863281 16.765625 C 65.644531 15.640625 66.644531 14.984375 67.863281 14.984375 C 70.050781 14.984375 70.082031 17.234375 70.082031 17.640625 C 70.082031 19.078125 68.800781 23.546875 65.738281 23.546875 Z M 65.738281 23.546875 "/>
<path fill-rule="nonzero" fill="rgb(0%, 0%, 0%)" fill-opacity="1" d="M 81.707031 9.765625 C 81.582031 9.484375 81.519531 9.390625 81.175781 9.390625 C 80.863281 9.390625 80.800781 9.484375 80.675781 9.765625 L 73.925781 23.265625 C 73.832031 23.453125 73.832031 23.484375 73.832031 23.515625 C 73.832031 23.671875 73.957031 23.671875 74.269531 23.671875 L 88.113281 23.671875 C 88.425781 23.671875 88.550781 23.671875 88.550781 23.515625 C 88.550781 23.484375 88.550781 23.453125 88.457031 23.265625 Z M 80.550781 11.390625 L 85.925781 22.171875 L 75.175781 22.171875 Z M 80.550781 11.390625 "/>
<path fill-rule="nonzero" fill="rgb(0%, 0%, 0%)" fill-opacity="1" d="M 94.152344 7.566406 C 94.152344 7.191406 94.152344 7.191406 93.746094 7.191406 C 92.839844 8.066406 91.589844 8.066406 91.027344 8.066406 L 91.027344 8.566406 C 91.339844 8.566406 92.277344 8.566406 93.027344 8.191406 L 93.027344 15.285156 C 93.027344 15.753906 93.027344 15.941406 91.652344 15.941406 L 91.121094 15.941406 L 91.121094 16.441406 C 91.371094 16.441406 93.089844 16.378906 93.589844 16.378906 C 94.027344 16.378906 95.777344 16.441406 96.089844 16.441406 L 96.089844 15.941406 L 95.558594 15.941406 C 94.152344 15.941406 94.152344 15.753906 94.152344 15.285156 Z M 94.152344 7.566406 "/>
<path fill-rule="nonzero" fill="rgb(0%, 0%, 0%)" fill-opacity="1" d="M 181.902344 11.578125 C 182.089844 10.859375 182.121094 10.671875 183.621094 10.671875 C 184.058594 10.671875 184.246094 10.671875 184.246094 10.265625 C 184.246094 10.046875 184.058594 10.046875 183.714844 10.046875 L 181.089844 10.046875 C 180.558594 10.046875 180.527344 10.046875 180.308594 10.421875 L 173.027344 21.796875 L 171.464844 10.515625 C 171.402344 10.046875 171.371094 10.046875 170.839844 10.046875 L 168.121094 10.046875 C 167.746094 10.046875 167.527344 10.046875 167.527344 10.421875 C 167.527344 10.671875 167.714844 10.671875 168.089844 10.671875 C 168.371094 10.671875 168.714844 10.703125 168.964844 10.703125 C 169.277344 10.765625 169.402344 10.796875 169.402344 11.046875 C 169.402344 11.109375 169.371094 11.171875 169.308594 11.421875 L 166.777344 21.546875 C 166.589844 22.359375 166.246094 22.984375 164.621094 23.046875 C 164.527344 23.046875 164.277344 23.078125 164.277344 23.421875 C 164.277344 23.609375 164.402344 23.671875 164.558594 23.671875 C 165.183594 23.671875 165.871094 23.609375 166.558594 23.609375 C 167.214844 23.609375 167.933594 23.671875 168.589844 23.671875 C 168.683594 23.671875 168.964844 23.671875 168.964844 23.265625 C 168.964844 23.046875 168.746094 23.046875 168.589844 23.046875 C 167.464844 23.046875 167.246094 22.640625 167.246094 22.171875 C 167.246094 22.046875 167.246094 21.921875 167.308594 21.703125 L 170.027344 10.859375 L 170.058594 10.859375 L 171.777344 23.203125 C 171.808594 23.453125 171.839844 23.671875 172.058594 23.671875 C 172.277344 23.671875 172.402344 23.453125 172.496094 23.328125 L 180.558594 10.703125 L 180.589844 10.703125 L 177.714844 22.109375 C 177.527344 22.890625 177.496094 23.046875 175.902344 23.046875 C 175.589844 23.046875 175.371094 23.046875 175.371094 23.421875 C 175.371094 23.671875 175.589844 23.671875 175.652344 23.671875 C 176.214844 23.671875 177.558594 23.609375 178.121094 23.609375 C 178.933594 23.609375 179.808594 23.671875 180.621094 23.671875 C 180.746094 23.671875 180.996094 23.671875 180.996094 23.265625 C 180.996094 23.046875 180.808594 23.046875 180.433594 23.046875 C 179.714844 23.046875 179.152344 23.046875 179.152344 22.703125 C 179.152344 22.609375 179.152344 22.578125 179.246094 22.203125 Z M 181.902344 11.578125 "/>
<path fill-rule="nonzero" fill="rgb(0%, 0%, 0%)" fill-opacity="1" d="M 187.421875 17.785156 C 187.421875 17.410156 187.421875 17.410156 187.015625 17.410156 C 186.109375 18.285156 184.859375 18.285156 184.296875 18.285156 L 184.296875 18.785156 C 184.609375 18.785156 185.546875 18.785156 186.296875 18.410156 L 186.296875 25.503906 C 186.296875 25.972656 186.296875 26.160156 184.921875 26.160156 L 184.390625 26.160156 L 184.390625 26.660156 C 184.640625 26.660156 186.359375 26.597656 186.859375 26.597656 C 187.296875 26.597656 189.046875 26.660156 189.359375 26.660156 L 189.359375 26.160156 L 188.828125 26.160156 C 187.421875 26.160156 187.421875 25.972656 187.421875 25.503906 Z M 187.421875 17.785156 "/>
<path fill-rule="nonzero" fill="rgb(0%, 0%, 0%)" fill-opacity="1" d="M 30.683594 78.757812 C 30.871094 78.039062 30.902344 77.851562 32.402344 77.851562 C 32.839844 77.851562 33.027344 77.851562 33.027344 77.445312 C 33.027344 77.226562 32.839844 77.226562 32.496094 77.226562 L 29.871094 77.226562 C 29.339844 77.226562 29.308594 77.226562 29.089844 77.601562 L 21.808594 88.976562 L 20.246094 77.695312 C 20.183594 77.226562 20.152344 77.226562 19.621094 77.226562 L 16.902344 77.226562 C 16.527344 77.226562 16.308594 77.226562 16.308594 77.601562 C 16.308594 77.851562 16.496094 77.851562 16.871094 77.851562 C 17.152344 77.851562 17.496094 77.882812 17.746094 77.882812 C 18.058594 77.945312 18.183594 77.976562 18.183594 78.226562 C 18.183594 78.289062 18.152344 78.351562 18.089844 78.601562 L 15.558594 88.726562 C 15.371094 89.539062 15.027344 90.164062 13.402344 90.226562 C 13.308594 90.226562 13.058594 90.257812 13.058594 90.601562 C 13.058594 90.789062 13.183594 90.851562 13.339844 90.851562 C 13.964844 90.851562 14.652344 90.789062 15.339844 90.789062 C 15.996094 90.789062 16.714844 90.851562 17.371094 90.851562 C 17.464844 90.851562 17.746094 90.851562 17.746094 90.445312 C 17.746094 90.226562 17.527344 90.226562 17.371094 90.226562 C 16.246094 90.226562 16.027344 89.820312 16.027344 89.351562 C 16.027344 89.226562 16.027344 89.101562 16.089844 88.882812 L 18.808594 78.039062 L 18.839844 78.039062 L 20.558594 90.382812 C 20.589844 90.632812 20.621094 90.851562 20.839844 90.851562 C 21.058594 90.851562 21.183594 90.632812 21.277344 90.507812 L 29.339844 77.882812 L 29.371094 77.882812 L 26.496094 89.289062 C 26.308594 90.070312 26.277344 90.226562 24.683594 90.226562 C 24.371094 90.226562 24.152344 90.226562 24.152344 90.601562 C 24.152344 90.851562 24.371094 90.851562 24.433594 90.851562 C 24.996094 90.851562 26.339844 90.789062 26.902344 90.789062 C 27.714844 90.789062 28.589844 90.851562 29.402344 90.851562 C 29.527344 90.851562 29.777344 90.851562 29.777344 90.445312 C 29.777344 90.226562 29.589844 90.226562 29.214844 90.226562 C 28.496094 90.226562 27.933594 90.226562 27.933594 89.882812 C 27.933594 89.789062 27.933594 89.757812 28.027344 89.382812 Z M 30.683594 78.757812 "/>
<path fill-rule="nonzero" fill="rgb(0%, 0%, 0%)" fill-opacity="1" d="M 38.734375 89.402344 C 38.734375 87.871094 38.546875 86.746094 37.921875 85.777344 C 37.484375 85.152344 36.609375 84.589844 35.515625 84.589844 C 32.265625 84.589844 32.265625 88.402344 32.265625 89.402344 C 32.265625 90.402344 32.265625 94.121094 35.515625 94.121094 C 38.734375 94.121094 38.734375 90.402344 38.734375 89.402344 Z M 35.515625 93.714844 C 34.859375 93.714844 34.015625 93.339844 33.734375 92.214844 C 33.546875 91.402344 33.546875 90.246094 33.546875 89.214844 C 33.546875 88.183594 33.546875 87.121094 33.734375 86.371094 C 34.046875 85.277344 34.921875 84.964844 35.515625 84.964844 C 36.265625 84.964844 36.984375 85.433594 37.234375 86.246094 C 37.453125 86.996094 37.484375 87.996094 37.484375 89.214844 C 37.484375 90.246094 37.484375 91.277344 37.296875 92.152344 C 37.015625 93.433594 36.078125 93.714844 35.515625 93.714844 Z M 35.515625 93.714844 "/>
<path fill-rule="nonzero" fill="rgb(0%, 0%, 0%)" fill-opacity="1" d="M 59.707031 84.320312 C 60.019531 84.320312 60.394531 84.320312 60.394531 83.945312 C 60.394531 83.539062 60.019531 83.539062 59.738281 83.539062 L 47.800781 83.539062 C 47.519531 83.539062 47.144531 83.539062 47.144531 83.945312 C 47.144531 84.320312 47.519531 84.320312 47.800781 84.320312 Z M 59.738281 88.195312 C 60.019531 88.195312 60.394531 88.195312 60.394531 87.789062 C 60.394531 87.414062 60.019531 87.414062 59.707031 87.414062 L 47.800781 87.414062 C 47.519531 87.414062 47.144531 87.414062 47.144531 87.789062 C 47.144531 88.195312 47.519531 88.195312 47.800781 88.195312 Z M 59.738281 88.195312 "/>
<path fill-rule="nonzero" fill="rgb(0%, 0%, 0%)" fill-opacity="1" d="M 76.332031 86.664062 L 72.519531 77.601562 C 72.363281 77.195312 72.363281 77.195312 71.800781 77.195312 L 68.113281 77.195312 C 67.738281 77.195312 67.457031 77.195312 67.457031 77.539062 C 67.457031 77.882812 67.800781 77.882812 67.894531 77.882812 C 68.144531 77.882812 68.675781 77.945312 69.113281 78.101562 L 69.113281 88.726562 C 69.113281 89.164062 69.113281 90.039062 67.769531 90.164062 C 67.394531 90.195312 67.394531 90.476562 67.394531 90.507812 C 67.394531 90.851562 67.707031 90.851562 68.082031 90.851562 L 71.144531 90.851562 C 71.519531 90.851562 71.800781 90.851562 71.800781 90.507812 C 71.800781 90.320312 71.644531 90.164062 71.488281 90.164062 C 69.957031 90.039062 69.957031 89.195312 69.957031 88.726562 L 69.957031 78.820312 L 69.988281 78.789062 L 74.832031 90.445312 C 75.019531 90.789062 75.144531 90.851562 75.269531 90.851562 C 75.519531 90.851562 75.550781 90.695312 75.675781 90.445312 L 80.550781 78.789062 L 80.582031 78.820312 L 80.582031 88.726562 C 80.582031 89.164062 80.582031 90.039062 79.207031 90.164062 C 78.832031 90.195312 78.832031 90.476562 78.832031 90.507812 C 78.832031 90.851562 79.144531 90.851562 79.519531 90.851562 L 84.832031 90.851562 C 85.207031 90.851562 85.488281 90.851562 85.488281 90.507812 C 85.488281 90.320312 85.332031 90.164062 85.175781 90.164062 C 83.644531 90.039062 83.644531 89.195312 83.644531 88.726562 L 83.644531 79.320312 C 83.644531 78.882812 83.644531 78.007812 84.988281 77.882812 C 85.207031 77.882812 85.363281 77.757812 85.363281 77.539062 C 85.363281 77.195312 85.082031 77.195312 84.707031 77.195312 L 80.863281 77.195312 C 80.363281 77.195312 80.300781 77.195312 80.144531 77.601562 Z M 75.738281 87.039062 C 75.894531 87.351562 75.925781 87.382812 76.175781 87.476562 L 75.269531 89.570312 L 75.238281 89.570312 L 70.707031 78.726562 C 70.613281 78.476562 70.425781 78.132812 70.175781 77.882812 L 71.894531 77.882812 Z M 69.707031 90.164062 L 69.394531 90.164062 C 69.425781 90.101562 69.457031 90.039062 69.488281 90.007812 C 69.519531 89.976562 69.519531 89.945312 69.550781 89.945312 Z M 81.269531 77.882812 L 83.394531 77.882812 C 82.925781 78.382812 82.925781 78.914062 82.925781 79.257812 L 82.925781 88.789062 C 82.925781 89.132812 82.925781 89.664062 83.394531 90.164062 L 80.832031 90.164062 C 81.269531 89.664062 81.269531 89.132812 81.269531 88.789062 Z M 81.269531 77.882812 "/>
<path fill-rule="nonzero" fill="rgb(0%, 0%, 0%)" fill-opacity="1" d="M 93.058594 89.402344 C 93.058594 87.871094 92.871094 86.746094 92.246094 85.777344 C 91.808594 85.152344 90.933594 84.589844 89.839844 84.589844 C 86.589844 84.589844 86.589844 88.402344 86.589844 89.402344 C 86.589844 90.402344 86.589844 94.121094 89.839844 94.121094 C 93.058594 94.121094 93.058594 90.402344 93.058594 89.402344 Z M 89.839844 93.714844 C 89.183594 93.714844 88.339844 93.339844 88.058594 92.214844 C 87.871094 91.402344 87.871094 90.246094 87.871094 89.214844 C 87.871094 88.183594 87.871094 87.121094 88.058594 86.371094 C 88.371094 85.277344 89.246094 84.964844 89.839844 84.964844 C 90.589844 84.964844 91.308594 85.433594 91.558594 86.246094 C 91.777344 86.996094 91.808594 87.996094 91.808594 89.214844 C 91.808594 90.246094 91.808594 91.277344 91.621094 92.152344 C 91.339844 93.433594 90.402344 93.714844 89.839844 93.714844 Z M 89.839844 93.714844 "/>
<path fill-rule="nonzero" fill="rgb(0%, 0%, 0%)" fill-opacity="1" d="M 172.972656 86.664062 L 169.160156 77.601562 C 169.003906 77.195312 169.003906 77.195312 168.441406 77.195312 L 164.753906 77.195312 C 164.378906 77.195312 164.097656 77.195312 164.097656 77.539062 C 164.097656 77.882812 164.441406 77.882812 164.535156 77.882812 C 164.785156 77.882812 165.316406 77.945312 165.753906 78.101562 L 165.753906 88.726562 C 165.753906 89.164062 165.753906 90.039062 164.410156 90.164062 C 164.035156 90.195312 164.035156 90.476562 164.035156 90.507812 C 164.035156 90.851562 164.347656 90.851562 164.722656 90.851562 L 167.785156 90.851562 C 168.160156 90.851562 168.441406 90.851562 168.441406 90.507812 C 168.441406 90.320312 168.285156 90.164062 168.128906 90.164062 C 166.597656 90.039062 166.597656 89.195312 166.597656 88.726562 L 166.597656 78.820312 L 166.628906 78.789062 L 171.472656 90.445312 C 171.660156 90.789062 171.785156 90.851562 171.910156 90.851562 C 172.160156 90.851562 172.191406 90.695312 172.316406 90.445312 L 177.191406 78.789062 L 177.222656 78.820312 L 177.222656 88.726562 C 177.222656 89.164062 177.222656 90.039062 175.847656 90.164062 C 175.472656 90.195312 175.472656 90.476562 175.472656 90.507812 C 175.472656 90.851562 175.785156 90.851562 176.160156 90.851562 L 181.472656 90.851562 C 181.847656 90.851562 182.128906 90.851562 182.128906 90.507812 C 182.128906 90.320312 181.972656 90.164062 181.816406 90.164062 C 180.285156 90.039062 180.285156 89.195312 180.285156 88.726562 L 180.285156 79.320312 C 180.285156 78.882812 180.285156 78.007812 181.628906 77.882812 C 181.847656 77.882812 182.003906 77.757812 182.003906 77.539062 C 182.003906 77.195312 181.722656 77.195312 181.347656 77.195312 L 177.503906 77.195312 C 177.003906 77.195312 176.941406 77.195312 176.785156 77.601562 Z M 172.378906 87.039062 C 172.535156 87.351562 172.566406 87.382812 172.816406 87.476562 L 171.910156 89.570312 L 171.878906 89.570312 L 167.347656 78.726562 C 167.253906 78.476562 167.066406 78.132812 166.816406 77.882812 L 168.535156 77.882812 Z M 166.347656 90.164062 L 166.035156 90.164062 C 166.066406 90.101562 166.097656 90.039062 166.128906 90.007812 C 166.160156 89.976562 166.160156 89.945312 166.191406 89.945312 Z M 177.910156 77.882812 L 180.035156 77.882812 C 179.566406 78.382812 179.566406 78.914062 179.566406 79.257812 L 179.566406 88.789062 C 179.566406 89.132812 179.566406 89.664062 180.035156 90.164062 L 177.472656 90.164062 C 177.910156 89.664062 177.910156 89.132812 177.910156 88.789062 Z M 177.910156 77.882812 "/>
<path fill-rule="nonzero" fill="rgb(0%, 0%, 0%)" fill-opacity="1" d="M 187.164062 84.964844 C 187.164062 84.589844 187.164062 84.589844 186.757812 84.589844 C 185.851562 85.464844 184.601562 85.464844 184.039062 85.464844 L 184.039062 85.964844 C 184.351562 85.964844 185.289062 85.964844 186.039062 85.589844 L 186.039062 92.683594 C 186.039062 93.152344 186.039062 93.339844 184.664062 93.339844 L 184.132812 93.339844 L 184.132812 93.839844 C 184.382812 93.839844 186.101562 93.777344 186.601562 93.777344 C 187.039062 93.777344 188.789062 93.839844 189.101562 93.839844 L 189.101562 93.339844 L 188.570312 93.339844 C 187.164062 93.339844 187.164062 93.152344 187.164062 92.683594 Z M 187.164062 84.964844 "/>
<path fill="none" stroke-width="0.39848" stroke-linecap="butt" stroke-linejoin="miter" stroke="rgb(0%, 0%, 0%)" stroke-opacity="1" stroke-miterlimit="10" d="M 3.637936 15.97925 L 26.751217 15.97925 " transform="matrix(2, 0, 0, -2, 100.146004, 50.646)"/>
<path fill="none" stroke-width="0.39848" stroke-linecap="round" stroke-linejoin="round" stroke="rgb(0%, 0%, 0%)" stroke-opacity="1" stroke-miterlimit="10" d="M -2.072235 2.391665 C -1.693329 0.958072 -0.849579 0.278384 -0.00192261 0.00104046 C -0.849579 -0.28021 -1.693329 -0.955991 -2.072235 -2.389585 " transform="matrix(2, 0, 0, -2, 154.05072, 18.689581)"/>
<path fill-rule="nonzero" fill="rgb(0%, 0%, 0%)" fill-opacity="1" d="M 123.410156 12.476562 C 122.503906 12.476562 122.378906 12.476562 122.378906 11.882812 L 122.378906 9.632812 C 122.441406 9.695312 123.097656 10.414062 124.253906 10.414062 C 126.097656 10.414062 127.660156 9.039062 127.660156 7.289062 C 127.660156 5.570312 126.253906 4.132812 124.472656 4.132812 C 123.691406 4.132812 122.878906 4.445312 122.316406 5.007812 L 122.316406 4.132812 L 120.222656 4.289062 L 120.222656 4.789062 C 121.191406 4.789062 121.253906 4.882812 121.253906 5.445312 L 121.253906 11.882812 C 121.253906 12.476562 121.128906 12.476562 120.222656 12.476562 L 120.222656 13.007812 C 120.253906 13.007812 121.222656 12.945312 121.816406 12.945312 C 122.316406 12.945312 123.285156 12.976562 123.410156 13.007812 Z M 122.378906 5.632812 C 122.785156 4.945312 123.597656 4.601562 124.316406 4.601562 C 125.503906 4.601562 126.410156 5.820312 126.410156 7.289062 C 126.410156 8.882812 125.347656 10.039062 124.191406 10.039062 C 122.941406 10.039062 122.410156 8.976562 122.378906 8.882812 Z M 122.378906 5.632812 "/>
<path fill-rule="nonzero" fill="rgb(0%, 0%, 0%)" fill-opacity="1" d="M 131.105469 7.101562 C 131.105469 5.945312 131.636719 4.539062 132.980469 4.539062 C 132.855469 4.632812 132.730469 4.820312 132.730469 5.039062 C 132.730469 5.507812 133.105469 5.664062 133.355469 5.664062 C 133.699219 5.664062 134.011719 5.445312 134.011719 5.039062 C 134.011719 4.570312 133.542969 4.132812 132.886719 4.132812 C 132.199219 4.132812 131.417969 4.570312 131.011719 5.632812 L 131.011719 4.132812 L 129.011719 4.289062 L 129.011719 4.789062 C 129.949219 4.789062 130.042969 4.882812 130.042969 5.570312 L 130.042969 9.195312 C 130.042969 9.789062 129.917969 9.789062 129.011719 9.789062 L 129.011719 10.289062 C 129.074219 10.289062 130.011719 10.226562 130.605469 10.226562 C 131.199219 10.226562 131.792969 10.257812 132.417969 10.289062 L 132.417969 9.789062 L 132.136719 9.789062 C 131.105469 9.789062 131.105469 9.632812 131.105469 9.164062 Z M 131.105469 7.101562 "/>
<path fill-rule="nonzero" fill="rgb(0%, 0%, 0%)" fill-opacity="1" d="M 138.53125 7.652344 C 138.53125 7.371094 138.5 7.371094 138.15625 7.371094 C 137.46875 7.996094 136.34375 7.996094 136.15625 7.996094 L 136 7.996094 L 136 8.433594 L 136.15625 8.433594 C 136.375 8.433594 137.03125 8.402344 137.625 8.152344 L 137.625 13.152344 C 137.625 13.433594 137.625 13.558594 136.5625 13.558594 L 136.0625 13.558594 L 136.0625 13.996094 C 136.59375 13.964844 137.5 13.964844 138.0625 13.964844 C 138.65625 13.964844 139.53125 13.964844 140.09375 13.996094 L 140.09375 13.558594 L 139.59375 13.558594 C 138.53125 13.558594 138.53125 13.433594 138.53125 13.152344 Z M 138.53125 7.652344 "/>
<path fill="none" stroke-width="0.39848" stroke-linecap="butt" stroke-linejoin="miter" stroke="rgb(0%, 0%, 0%)" stroke-opacity="1" stroke-miterlimit="10" d="M -23.315189 8.143312 L -23.315189 -8.993406 " transform="matrix(2, 0, 0, -2, 100.146004, 50.646)"/>
<path fill="none" stroke-width="0.39848" stroke-linecap="round" stroke-linejoin="round" stroke="rgb(0%, 0%, 0%)" stroke-opacity="1" stroke-miterlimit="10" d="M -2.072845 2.392027 C -1.693939 0.954527 -0.850189 0.278746 0.00137329 0.0014019 C -0.850189 -0.279848 -1.693939 -0.955629 -2.072845 -2.389223 " transform="matrix(0, 2, 2, 0, 53.512821, 69.028503)"/>
<path fill-rule="nonzero" fill="rgb(0%, 0%, 0%)" fill-opacity="1" d="M 36.09375 46.199219 C 36 45.949219 35.96875 45.886719 35.8125 45.886719 C 35.65625 45.886719 35.59375 46.011719 35.5 46.167969 L 32.34375 54.511719 C 32.15625 54.949219 31.875 55.167969 31.5 55.199219 C 31.4375 55.199219 31.21875 55.230469 31.21875 55.449219 C 31.21875 55.699219 31.4375 55.699219 31.6875 55.699219 L 33.90625 55.699219 C 34.15625 55.699219 34.375 55.699219 34.375 55.449219 C 34.375 55.230469 34.1875 55.230469 34.0625 55.199219 C 33.875 55.199219 33.53125 55.136719 33.53125 54.292969 C 33.53125 53.855469 33.625 53.386719 33.71875 52.949219 L 36.78125 52.949219 C 37.28125 54.324219 37.28125 54.542969 37.3125 54.824219 C 36.96875 55.167969 36.59375 55.199219 36.4375 55.199219 C 36.28125 55.230469 36.1875 55.324219 36.1875 55.449219 C 36.1875 55.699219 36.40625 55.699219 36.65625 55.699219 L 40.28125 55.699219 C 40.53125 55.699219 40.78125 55.699219 40.78125 55.449219 C 40.78125 55.261719 40.59375 55.230469 40.46875 55.199219 C 40.15625 55.167969 39.90625 54.917969 39.625 54.292969 Z M 33.875 52.480469 C 34.1875 51.230469 34.625 50.042969 35.09375 48.886719 C 35.53125 49.824219 36.375 51.824219 36.59375 52.480469 Z M 33.03125 54.011719 L 33.0625 54.042969 L 33.0625 54.167969 C 33.03125 54.199219 33.03125 54.230469 33.03125 54.292969 C 33.03125 54.355469 33.03125 54.886719 33.25 55.199219 L 32.5 55.199219 C 32.65625 55.011719 32.71875 54.855469 32.8125 54.636719 Z M 35.3125 48.136719 L 35.8125 46.792969 L 39.1875 54.480469 C 39.25 54.636719 39.40625 54.949219 39.59375 55.199219 L 37.625 55.199219 C 37.75 55.136719 37.8125 54.917969 37.8125 54.761719 C 37.8125 53.917969 36.59375 51.074219 36 49.699219 Z M 35.3125 48.136719 "/>
<path fill-rule="nonzero" fill="rgb(0%, 0%, 0%)" fill-opacity="1" d="M 47.042969 54.503906 C 47.042969 53.785156 47.042969 51.066406 44.417969 51.066406 C 41.824219 51.066406 41.824219 53.785156 41.824219 54.503906 C 41.824219 55.222656 41.824219 57.910156 44.417969 57.910156 C 47.042969 57.910156 47.042969 55.222656 47.042969 54.503906 Z M 44.417969 57.566406 C 44.074219 57.566406 43.230469 57.441406 42.980469 56.441406 C 42.824219 55.910156 42.824219 55.191406 42.824219 54.378906 C 42.824219 53.628906 42.824219 52.941406 42.980469 52.378906 C 43.230469 51.535156 44.011719 51.378906 44.417969 51.378906 C 45.167969 51.378906 45.699219 51.753906 45.886719 52.472656 C 46.042969 52.972656 46.042969 53.785156 46.042969 54.378906 C 46.042969 55.066406 46.042969 55.878906 45.886719 56.472656 C 45.636719 57.441406 44.824219 57.566406 44.417969 57.566406 Z M 44.417969 57.566406 "/>
<path fill="none" stroke-width="0.39848" stroke-linecap="butt" stroke-linejoin="miter" stroke="rgb(0%, 0%, 0%)" stroke-opacity="1" stroke-miterlimit="10" d="M 38.712154 8.143312 L 38.712154 -8.993406 " transform="matrix(2, 0, 0, -2, 100.146004, 50.646)"/>
<path fill="none" stroke-width="0.39848" stroke-linecap="round" stroke-linejoin="round" stroke="rgb(0%, 0%, 0%)" stroke-opacity="1" stroke-miterlimit="10" d="M -2.072845 2.39064 C -1.693939 0.957047 -0.850189 0.277359 0.00137329 0.0000152588 C -0.850189 -0.277328 -1.693939 -0.957016 -2.072845 -2.39061 " transform="matrix(0, 2, 2, 0, 177.570282, 69.028503)"/>
<path fill-rule="nonzero" fill="rgb(0%, 0%, 0%)" fill-opacity="1" d="M 186.761719 49.144531 C 187.917969 48.644531 188.417969 48.457031 188.761719 48.269531 C 189.042969 48.175781 189.167969 48.113281 189.167969 47.832031 C 189.167969 47.613281 188.980469 47.394531 188.730469 47.394531 C 188.636719 47.394531 188.605469 47.394531 188.449219 47.519531 L 186.542969 48.800781 L 186.761719 46.738281 C 186.792969 46.488281 186.761719 46.144531 186.324219 46.144531 C 186.167969 46.144531 185.886719 46.238281 185.886719 46.550781 C 185.886719 46.675781 185.949219 47.082031 185.980469 47.238281 C 186.011719 47.457031 186.105469 48.488281 186.136719 48.800781 L 184.230469 47.519531 C 184.105469 47.457031 184.074219 47.394531 183.949219 47.394531 C 183.667969 47.394531 183.511719 47.613281 183.511719 47.832031 C 183.511719 48.113281 183.667969 48.207031 183.792969 48.238281 L 185.886719 49.144531 C 184.761719 49.644531 184.230469 49.832031 183.886719 49.988281 C 183.636719 50.113281 183.511719 50.175781 183.511719 50.425781 C 183.511719 50.675781 183.667969 50.863281 183.949219 50.863281 C 184.042969 50.863281 184.074219 50.863281 184.230469 50.738281 L 186.136719 49.488281 L 185.886719 51.707031 C 185.886719 52.019531 186.167969 52.144531 186.324219 52.144531 C 186.511719 52.144531 186.761719 52.019531 186.761719 51.707031 C 186.761719 51.582031 186.699219 51.175781 186.699219 51.050781 C 186.667969 50.800781 186.574219 49.800781 186.542969 49.488281 L 188.199219 50.582031 C 188.574219 50.863281 188.605469 50.863281 188.730469 50.863281 C 188.980469 50.863281 189.167969 50.675781 189.167969 50.425781 C 189.167969 50.144531 188.980469 50.082031 188.855469 50.019531 Z M 186.761719 49.144531 "/>
<path fill-rule="nonzero" fill="rgb(0%, 0%, 0%)" fill-opacity="1" d="M 195.082031 52.578125 L 193.175781 48.046875 C 193.082031 47.828125 193.082031 47.828125 192.800781 47.828125 L 190.957031 47.828125 C 190.769531 47.828125 190.613281 47.828125 190.613281 48.015625 C 190.613281 48.203125 190.800781 48.203125 190.863281 48.203125 C 190.988281 48.203125 191.238281 48.203125 191.457031 48.296875 L 191.457031 53.609375 C 191.457031 53.828125 191.457031 54.265625 190.769531 54.328125 C 190.582031 54.328125 190.582031 54.484375 190.582031 54.484375 C 190.582031 54.671875 190.769531 54.671875 190.925781 54.671875 L 192.488281 54.671875 C 192.644531 54.671875 192.800781 54.671875 192.800781 54.484375 C 192.800781 54.390625 192.738281 54.328125 192.644531 54.328125 C 191.894531 54.265625 191.894531 53.859375 191.894531 53.609375 L 191.894531 48.640625 L 194.332031 54.453125 C 194.394531 54.640625 194.488281 54.671875 194.519531 54.671875 C 194.644531 54.671875 194.675781 54.578125 194.738281 54.484375 L 197.175781 48.640625 L 197.175781 53.609375 C 197.175781 53.828125 197.175781 54.265625 196.519531 54.328125 C 196.332031 54.328125 196.332031 54.484375 196.332031 54.484375 C 196.332031 54.671875 196.488281 54.671875 196.644531 54.671875 L 199.332031 54.671875 C 199.488281 54.671875 199.644531 54.671875 199.644531 54.484375 C 199.644531 54.390625 199.582031 54.328125 199.488281 54.328125 C 198.707031 54.265625 198.707031 53.859375 198.707031 53.609375 L 198.707031 48.890625 C 198.707031 48.703125 198.707031 48.265625 199.394531 48.203125 C 199.488281 48.171875 199.582031 48.140625 199.582031 48.015625 C 199.582031 47.828125 199.425781 47.828125 199.269531 47.828125 L 197.332031 47.828125 C 197.082031 47.828125 197.050781 47.828125 196.957031 48.046875 Z M 194.769531 52.765625 C 194.863281 52.921875 194.863281 52.921875 194.988281 52.984375 L 194.550781 54.046875 L 194.519531 54.046875 L 192.238281 48.609375 C 192.207031 48.484375 192.113281 48.296875 191.988281 48.203125 L 192.863281 48.203125 Z M 191.769531 54.328125 L 191.582031 54.328125 C 191.613281 54.296875 191.644531 54.265625 191.644531 54.234375 C 191.675781 54.234375 191.675781 54.234375 191.675781 54.203125 Z M 197.519531 48.203125 L 198.582031 48.203125 C 198.363281 48.453125 198.363281 48.703125 198.363281 48.890625 L 198.363281 53.640625 C 198.363281 53.828125 198.363281 54.078125 198.613281 54.328125 L 197.300781 54.328125 C 197.519531 54.078125 197.519531 53.828125 197.519531 53.640625 Z M 197.519531 48.203125 "/>
<path fill-rule="nonzero" fill="rgb(0%, 0%, 0%)" fill-opacity="1" d="M 203.804688 51.316406 C 203.804688 51.035156 203.773438 51.035156 203.429688 51.035156 C 202.742188 51.660156 201.617188 51.660156 201.429688 51.660156 L 201.273438 51.660156 L 201.273438 52.097656 L 201.429688 52.097656 C 201.648438 52.097656 202.304688 52.066406 202.898438 51.816406 L 202.898438 56.816406 C 202.898438 57.097656 202.898438 57.222656 201.835938 57.222656 L 201.335938 57.222656 L 201.335938 57.660156 C 201.867188 57.628906 202.773438 57.628906 203.335938 57.628906 C 203.929688 57.628906 204.804688 57.628906 205.367188 57.660156 L 205.367188 57.222656 L 204.867188 57.222656 C 203.804688 57.222656 203.804688 57.097656 203.804688 56.816406 Z M 203.804688 51.316406 "/>
<g clip-path="url(#clip-0)">
<path fill="none" stroke-width="2.33075" stroke-linecap="butt" stroke-linejoin="miter" stroke="rgb(0%, 0%, 0%)" stroke-opacity="1" stroke-miterlimit="10" d="M 4.122311 -2.747313 L 12.962154 2.037844 " transform="matrix(2, 0, 0, -2, 100.146004, 50.646)"/>
</g>
<path fill="none" stroke-width="1.53377" stroke-linecap="butt" stroke-linejoin="miter" stroke="rgb(100%, 100%, 100%)" stroke-opacity="1" stroke-miterlimit="10" d="M 4.122311 -2.747313 L 12.962154 2.037844 " transform="matrix(2, 0, 0, -2, 100.146004, 50.646)"/>
<path fill="none" stroke-width="0.39848" stroke-linecap="round" stroke-linejoin="round" stroke="rgb(0%, 0%, 0%)" stroke-opacity="1" stroke-miterlimit="10" d="M -1.29694 2.559718 C -0.666497 1.205433 1.026167 0.0489065 1.991234 0.0016333 C 1.023028 -0.0471277 -0.666677 -1.206723 -1.292976 -2.560136 " transform="matrix(1.7586, -0.95234, -0.95234, -1.7586, 126.070084, 46.571079)"/>
<path fill-rule="nonzero" fill="rgb(0%, 0%, 0%)" fill-opacity="1" d="M 128.226562 55.445312 C 128.226562 55.414062 128.257812 55.226562 128.257812 55.226562 C 128.257812 55.132812 128.226562 55.007812 128.039062 55.007812 C 127.757812 55.007812 126.601562 55.132812 126.257812 55.164062 C 126.164062 55.164062 125.945312 55.195312 125.945312 55.476562 C 125.945312 55.664062 126.164062 55.664062 126.320312 55.664062 C 126.976562 55.664062 126.976562 55.789062 126.976562 55.882812 C 126.976562 55.976562 126.945312 56.070312 126.945312 56.195312 L 124.976562 64.070312 C 124.882812 64.320312 124.882812 64.351562 124.882812 64.382812 C 124.882812 64.601562 125.070312 64.820312 125.382812 64.820312 C 125.539062 64.820312 125.789062 64.757812 125.945312 64.476562 C 125.976562 64.382812 126.101562 63.882812 126.164062 63.601562 L 126.507812 62.351562 C 126.539062 62.132812 126.695312 61.601562 126.726562 61.414062 C 126.851562 60.882812 126.851562 60.851562 127.132812 60.414062 C 127.601562 59.726562 128.289062 58.945312 129.382812 58.945312 C 130.164062 58.945312 130.195312 59.570312 130.195312 59.914062 C 130.195312 60.757812 129.601562 62.289062 129.382812 62.882812 C 129.226562 63.289062 129.164062 63.414062 129.164062 63.632812 C 129.164062 64.382812 129.789062 64.820312 130.476562 64.820312 C 131.882812 64.820312 132.507812 62.914062 132.507812 62.695312 C 132.507812 62.507812 132.320312 62.507812 132.257812 62.507812 C 132.070312 62.507812 132.070312 62.601562 132.007812 62.757812 C 131.695312 63.882812 131.070312 64.445312 130.539062 64.445312 C 130.226562 64.445312 130.164062 64.257812 130.164062 63.945312 C 130.164062 63.632812 130.257812 63.445312 130.507812 62.820312 C 130.664062 62.382812 131.226562 60.914062 131.226562 60.132812 C 131.226562 59.914062 131.226562 59.320312 130.726562 58.914062 C 130.476562 58.757812 130.070312 58.539062 129.414062 58.539062 C 128.414062 58.539062 127.664062 59.101562 127.164062 59.695312 Z M 128.226562 55.445312 "/>
<path fill-rule="nonzero" fill="rgb(0%, 0%, 0%)" fill-opacity="1" d="M 137.148438 60.34375 C 137.148438 60.0625 137.117188 60.0625 136.773438 60.0625 C 136.085938 60.6875 134.960938 60.6875 134.773438 60.6875 L 134.617188 60.6875 L 134.617188 61.125 L 134.773438 61.125 C 134.992188 61.125 135.648438 61.09375 136.242188 60.84375 L 136.242188 65.84375 C 136.242188 66.125 136.242188 66.25 135.179688 66.25 L 134.679688 66.25 L 134.679688 66.6875 C 135.210938 66.65625 136.117188 66.65625 136.679688 66.65625 C 137.273438 66.65625 138.148438 66.65625 138.710938 66.6875 L 138.710938 66.25 L 138.210938 66.25 C 137.148438 66.25 137.148438 66.125 137.148438 65.84375 Z M 137.148438 60.34375 "/>
<path fill="none" stroke-width="0.39848" stroke-linecap="butt" stroke-linejoin="miter" stroke="rgb(0%, 0%, 0%)" stroke-opacity="1" stroke-miterlimit="10" d="M 1.825436 -17.610594 L 26.880123 -17.610594 " transform="matrix(2, 0, 0, -2, 100.146004, 50.646)"/>
<path fill="none" stroke-width="0.39848" stroke-linecap="round" stroke-linejoin="round" stroke="rgb(0%, 0%, 0%)" stroke-opacity="1" stroke-miterlimit="10" d="M -2.071312 2.3922 C -1.692406 0.9547 -0.848656 0.278919 -0.000999451 0.00157547 C -0.848656 -0.279675 -1.692406 -0.955456 -2.071312 -2.38905 " transform="matrix(2, 0, 0, -2, 154.306686, 85.870338)"/>
<path fill-rule="nonzero" fill="rgb(0%, 0%, 0%)" fill-opacity="1" d="M 150.121094 60.113281 C 149.902344 60.113281 149.558594 60.113281 149.558594 60.425781 C 149.558594 60.800781 149.871094 60.800781 150.121094 60.800781 L 154.996094 60.800781 C 155.464844 60.800781 155.527344 60.707031 155.527344 60.269531 L 155.527344 55.332031 C 155.527344 55.113281 155.527344 54.800781 155.214844 54.800781 C 154.839844 54.800781 154.839844 55.175781 154.839844 55.394531 L 154.839844 60.113281 Z M 150.121094 60.113281 "/>
</svg>
