<?xml version="1.0" encoding="UTF-8"?>
<svg xmlns="http://www.w3.org/2000/svg" xmlns:xlink="http://www.w3.org/1999/xlink" width="200.460007" height="206.759995" viewBox="0 0 200.460007 206.759995">
<defs>
<clipPath id="clip-0">
<path clip-rule="nonzero" d="M 77 85 L 200.460938 85 L 200.460938 204 L 77 204 Z M 77 85 "/>
</clipPath>
<clipPath id="clip-1">
<path clip-rule="nonzero" d="M 77 4 L 200.460938 4 L 200.460938 131 L 77 131 Z M 77 4 "/>
</clipPath>
<clipPath id="clip-2">
<path clip-rule="nonzero" d="M 57 85 L 200.460938 85 L 200.460938 145 L 57 145 Z M 57 85 "/>
</clipPath>
<clipPath id="clip-3">
<path clip-rule="nonzero" d="M 152 83 L 200.460938 83 L 200.460938 134 L 152 134 Z M 152 83 "/>
</clipPath>
<clipPath id="clip-4">
<path clip-rule="nonzero" d="M 74 155 L 126 155 L 126 206.757812 L 74 206.757812 Z M 74 155 "/>
</clipPath>
</defs>
<path fill="none" stroke-width="0.3985" stroke-linecap="butt" stroke-linejoin="miter" stroke="rgb(0%, 0%, 0%)" stroke-opacity="1" stroke-dasharray="0.79701 3.9851" stroke-miterlimit="10" d="M 9.973186 9.268501 L 38.828655 -2.379936 " transform="matrix(2, 0, 0, -2, 100.288002, 103.662003)"/>
<path fill="none" stroke-width="0.3985" stroke-linecap="butt" stroke-linejoin="miter" stroke="rgb(0%, 0%, 0%)" stroke-opacity="1" stroke-dasharray="0.79701 3.9851" stroke-miterlimit="10" d="M 9.973186 9.268501 L 0.000530243 -38.540092 " transform="matrix(2, 0, 0, -2, 100.288002, 103.662003)"/>
<path fill="none" stroke-width="0.3985" stroke-linecap="butt" stroke-linejoin="miter" stroke="rgb(0%, 0%, 0%)" stroke-opacity="1" stroke-dasharray="0.79701 3.9851" stroke-miterlimit="10" d="M 9.973186 9.268501 L -0.00337601 38.538033 " transform="matrix(2, 0, 0, -2, 100.288002, 103.662003)"/>
<path fill="none" stroke-width="0.3985" stroke-linecap="butt" stroke-linejoin="miter" stroke="rgb(0%, 0%, 0%)" stroke-opacity="1" stroke-dasharray="0.79701 3.9851" stroke-miterlimit="10" d="M 9.973186 9.268501 L -38.827595 2.377876 " transform="matrix(2, 0, 0, -2, 100.288002, 103.662003)"/>
<path fill-rule="nonzero" fill="rgb(0%, 0%, 0%)" fill-opacity="1" stroke-width="0.79701" stroke-linecap="butt" stroke-linejoin="miter" stroke="rgb(0%, 25.098039%, 0%)" stroke-opacity="1" stroke-miterlimit="10" d="M 11.379436 9.268501 C 11.379436 10.045845 10.75053 10.674751 9.973186 10.674751 C 9.191936 10.674751 8.56303 10.045845 8.56303 9.268501 C 8.56303 8.487251 9.191936 7.858345 9.973186 7.858345 C 10.75053 7.858345 11.379436 8.487251 11.379436 9.268501 Z M 11.379436 9.268501 " transform="matrix(2, 0, 0, -2, 100.288002, 103.662003)"/>
<path fill-rule="nonzero" fill="rgb(0%, 0%, 94.901961%)" fill-opacity="0.1" d="M 80.34375 122.195312 L 100.289062 180.742188 L 22.632812 98.90625 Z M 80.34375 122.195312 "/>
<path fill-rule="nonzero" fill="rgb(0%, 0%, 94.901961%)" fill-opacity="0.1" d="M 80.34375 122.195312 L 100.28125 26.585938 L 22.632812 98.90625 Z M 80.34375 122.195312 "/>
<path fill-rule="nonzero" fill="rgb(0%, 0%, 94.901961%)" fill-opacity="0.1" d="M 80.34375 122.195312 L 177.945312 108.421875 L 100.28125 26.585938 Z M 80.34375 122.195312 "/>
<path fill-rule="nonzero" fill="rgb(0%, 0%, 94.901961%)" fill-opacity="0.1" d="M 80.34375 122.195312 L 177.945312 108.421875 L 100.289062 180.742188 Z M 80.34375 122.195312 "/>
<g clip-path="url(#clip-0)">
<path fill="none" stroke-width="0.79701" stroke-linecap="butt" stroke-linejoin="miter" stroke="rgb(0%, 0%, 0%)" stroke-opacity="1" stroke-miterlimit="10" d="M 38.828655 -2.379936 L 0.000530243 -38.540092 " transform="matrix(2, 0, 0, -2, 100.288002, 103.662003)"/>
</g>
<g clip-path="url(#clip-1)">
<path fill="none" stroke-width="0.79701" stroke-linecap="butt" stroke-linejoin="miter" stroke="rgb(0%, 0%, 0%)" stroke-opacity="1" stroke-miterlimit="10" d="M 38.828655 -2.379936 L -0.00337601 38.538033 " transform="matrix(2, 0, 0, -2, 100.288002, 103.662003)"/>
</g>
<g clip-path="url(#clip-2)">
<path fill="none" stroke-width="0.79701" stroke-linecap="butt" stroke-linejoin="miter" stroke="rgb(0%, 0%, 0%)" stroke-opacity="1" stroke-miterlimit="10" d="M 38.828655 -2.379936 L -9.972126 -9.266655 " transform="matrix(2, 0, 0, -2, 100.288002, 103.662003)"/>
</g>
<path fill="none" stroke-width="0.79701" stroke-linecap="butt" stroke-linejoin="miter" stroke="rgb(0%, 0%, 0%)" stroke-opacity="1" stroke-miterlimit="10" d="M 0.000530243 -38.540092 L -38.827595 2.377876 " transform="matrix(2, 0, 0, -2, 100.288002, 103.662003)"/>
<path fill="none" stroke-width="0.79701" stroke-linecap="butt" stroke-linejoin="miter" stroke="rgb(0%, 0%, 0%)" stroke-opacity="1" stroke-miterlimit="10" d="M 0.000530243 -38.540092 L -9.972126 -9.266655 " transform="matrix(2, 0, 0, -2, 100.288002, 103.662003)"/>
<path fill="none" stroke-width="0.79701" stroke-linecap="butt" stroke-linejoin="miter" stroke="rgb(0%, 0%, 0%)" stroke-opacity="1" stroke-miterlimit="10" d="M -0.00337601 38.538033 L -38.827595 2.377876 " transform="matrix(2, 0, 0, -2, 100.288002, 103.662003)"/>
<path fill="none" stroke-width="0.79701" stroke-linecap="butt" stroke-linejoin="miter" stroke="rgb(0%, 0%, 0%)" stroke-opacity="1" stroke-miterlimit="10" d="M -0.00337601 38.538033 L -9.972126 -9.266655 " transform="matrix(2, 0, 0, -2, 100.288002, 103.662003)"/>
<path fill="none" stroke-width="0.79701" stroke-linecap="butt" stroke-linejoin="miter" stroke="rgb(0%, 0%, 0%)" stroke-opacity="1" stroke-miterlimit="10" d="M -38.827595 2.377876 L -9.972126 -9.266655 " transform="matrix(2, 0, 0, -2, 100.288002, 103.662003)"/>
<path fill-rule="nonzero" fill="rgb(0%, 0%, 0%)" fill-opacity="1" d="M 180.765625 108.421875 C 180.765625 106.859375 179.5 105.601562 177.945312 105.601562 C 176.390625 105.601562 175.125 106.859375 175.125 108.421875 C 175.125 109.976562 176.390625 111.234375 177.945312 111.234375 C 179.5 111.234375 180.765625 109.976562 180.765625 108.421875 Z M 180.765625 108.421875 "/>
<g clip-path="url(#clip-3)">
<path fill="none" stroke-width="0.79701" stroke-linecap="butt" stroke-linejoin="miter" stroke="rgb(0%, 25.098039%, 0%)" stroke-opacity="1" stroke-miterlimit="10" d="M 40.238811 -2.379936 C 40.238811 -1.598686 39.605999 -0.96978 38.828655 -0.96978 C 38.051311 -0.96978 37.418499 -1.598686 37.418499 -2.379936 C 37.418499 -3.15728 38.051311 -3.786186 38.828655 -3.786186 C 39.605999 -3.786186 40.238811 -3.15728 40.238811 -2.379936 Z M 40.238811 -2.379936 " transform="matrix(2, 0, 0, -2, 100.288002, 103.662003)"/>
</g>
<path fill-rule="nonzero" fill="rgb(0%, 0%, 0%)" fill-opacity="1" d="M 186.882812 104.601562 C 189.101562 104.601562 190.695312 102.632812 191.507812 101.101562 C 191.945312 100.289062 192.351562 99.226562 192.351562 98.070312 C 192.351562 96.695312 191.664062 95.757812 190.320312 95.757812 C 189.070312 95.757812 188.132812 96.476562 187.664062 97.320312 L 187.601562 97.289062 L 189.664062 89.820312 L 186.882812 89.945312 L 186.820312 90.195312 C 187.632812 90.195312 187.976562 90.601562 187.976562 90.976562 C 187.976562 91.257812 187.820312 91.757812 187.757812 92.007812 L 185.601562 99.601562 C 185.382812 100.320312 185.195312 100.914062 185.101562 101.414062 C 185.007812 101.945312 184.914062 102.351562 184.914062 102.601562 C 184.914062 103.789062 185.695312 104.601562 186.882812 104.601562 Z M 189.851562 96.226562 C 191.507812 96.226562 191.070312 98.757812 190.351562 100.507812 C 189.914062 101.632812 188.632812 104.195312 187.132812 104.195312 C 186.507812 104.195312 186.226562 103.757812 186.226562 102.882812 C 186.226562 101.882812 186.570312 100.445312 186.882812 99.695312 C 187.257812 98.914062 187.882812 97.601562 188.414062 97.007812 C 188.757812 96.601562 189.257812 96.226562 189.851562 96.226562 Z M 189.851562 96.226562 "/>
<path fill-rule="nonzero" fill="rgb(0%, 0%, 0%)" fill-opacity="1" d="M 103.109375 180.742188 C 103.109375 179.179688 101.851562 177.921875 100.289062 177.921875 C 98.734375 177.921875 97.476562 179.179688 97.476562 180.742188 C 97.476562 182.296875 98.734375 183.554688 100.289062 183.554688 C 101.851562 183.554688 103.109375 182.296875 103.109375 180.742188 Z M 103.109375 180.742188 "/>
<g clip-path="url(#clip-4)">
<path fill="none" stroke-width="0.79701" stroke-linecap="butt" stroke-linejoin="miter" stroke="rgb(0%, 25.098039%, 0%)" stroke-opacity="1" stroke-miterlimit="10" d="M 1.410686 -38.540092 C 1.410686 -37.758842 0.78178 -37.129936 0.000530243 -37.129936 C -0.776814 -37.129936 -1.40572 -37.758842 -1.40572 -38.540092 C -1.40572 -39.317436 -0.776814 -39.946342 0.000530243 -39.946342 C 0.78178 -39.946342 1.410686 -39.317436 1.410686 -38.540092 Z M 1.410686 -38.540092 " transform="matrix(2, 0, 0, -2, 100.288002, 103.662003)"/>
</g>
<path fill-rule="nonzero" fill="rgb(0%, 0%, 0%)" fill-opacity="1" d="M 94.175781 201.207031 C 94.175781 201.988281 94.800781 202.488281 95.644531 202.488281 C 96.238281 202.488281 96.707031 202.238281 97.363281 201.707031 C 98.457031 200.800781 100.144531 198.707031 101.144531 197.113281 C 101.644531 196.269531 102.144531 195.457031 102.550781 194.707031 C 103.050781 193.644531 104.019531 191.832031 104.019531 190.769531 C 104.019531 190.457031 103.957031 190.207031 103.832031 189.957031 C 103.707031 189.675781 103.488281 189.613281 103.207031 189.613281 C 102.988281 189.613281 102.800781 189.707031 102.613281 189.894531 C 102.425781 190.082031 102.332031 190.332031 102.332031 190.738281 C 102.332031 191.332031 102.644531 191.988281 102.644531 192.519531 C 102.644531 193.300781 102.332031 194.019531 102.050781 194.644531 C 101.707031 195.300781 101.394531 195.832031 100.957031 196.550781 L 100.832031 196.550781 L 100.394531 193.988281 C 100.238281 193.238281 99.957031 191.800781 99.832031 191.238281 C 99.550781 190.332031 99.394531 189.613281 98.050781 189.613281 C 96.488281 189.613281 96.238281 191.988281 95.894531 193.019531 L 96.300781 193.175781 C 96.488281 192.394531 97.082031 190.082031 97.707031 190.082031 C 98.144531 190.082031 98.363281 191.457031 98.425781 191.769531 C 98.519531 192.144531 98.644531 192.707031 98.800781 193.582031 L 99.582031 198.300781 C 99.113281 199.363281 98.019531 200.519531 97.207031 201.207031 C 96.894531 201.425781 96.457031 201.519531 96.238281 201.519531 C 96.082031 201.519531 95.988281 201.457031 95.925781 201.332031 C 95.644531 200.957031 95.644531 200.300781 94.988281 200.300781 C 94.457031 200.300781 94.175781 200.707031 94.175781 201.207031 Z M 94.175781 201.207031 "/>
<path fill-rule="nonzero" fill="rgb(0%, 0%, 0%)" fill-opacity="1" stroke-width="0.79701" stroke-linecap="butt" stroke-linejoin="miter" stroke="rgb(0%, 25.098039%, 0%)" stroke-opacity="1" stroke-miterlimit="10" d="M 1.40678 38.538033 C 1.40678 39.315376 0.777874 39.948189 -0.00337601 39.948189 C -0.78072 39.948189 -1.409626 39.315376 -1.409626 38.538033 C -1.409626 37.760689 -0.78072 37.127876 -0.00337601 37.127876 C 0.777874 37.127876 1.40678 37.760689 1.40678 38.538033 Z M 1.40678 38.538033 " transform="matrix(2, 0, 0, -2, 100.288002, 103.662003)"/>
<path fill-rule="nonzero" fill="rgb(0%, 0%, 0%)" fill-opacity="1" d="M 96.617188 8.058594 C 96.617188 8.058594 94.398438 11.152344 94.398438 13.433594 C 94.398438 14.527344 95.054688 15.589844 96.304688 15.589844 C 97.679688 15.589844 98.648438 14.746094 99.367188 13.871094 C 99.679688 14.808594 100.179688 15.589844 101.273438 15.589844 C 104.148438 15.589844 105.960938 10.121094 105.992188 8.371094 C 106.023438 7.433594 105.867188 6.746094 105.023438 6.746094 C 104.460938 6.746094 104.210938 7.058594 104.210938 7.652344 C 104.210938 8.558594 104.804688 9.339844 104.804688 10.339844 C 104.773438 11.714844 103.304688 15.027344 101.710938 15.027344 C 100.929688 15.027344 100.554688 13.433594 100.429688 12.621094 C 101.023438 11.777344 101.554688 10.839844 101.867188 10.089844 C 102.148438 9.339844 102.335938 8.652344 102.335938 8.089844 C 102.335938 7.339844 102.054688 6.746094 101.398438 6.746094 C 101.117188 6.746094 100.835938 6.871094 100.554688 7.152344 C 99.679688 8.027344 99.085938 9.683594 99.085938 11.433594 C 99.085938 11.652344 99.117188 11.839844 99.117188 12.089844 C 99.117188 12.339844 99.242188 13.121094 99.242188 13.371094 C 98.835938 13.871094 98.335938 14.308594 97.929688 14.589844 C 97.523438 14.871094 97.210938 14.996094 96.929688 14.996094 C 96.179688 14.996094 95.929688 14.183594 95.929688 13.308594 C 95.929688 10.996094 96.679688 9.183594 97.585938 7.683594 C 97.773438 7.433594 98.242188 7.058594 98.242188 6.933594 C 98.242188 6.871094 98.179688 6.746094 98.023438 6.746094 C 97.929688 6.746094 97.804688 6.839844 97.710938 6.871094 C 97.648438 6.933594 97.523438 7.058594 97.273438 7.277344 C 97.117188 7.433594 96.929688 7.527344 96.710938 7.527344 C 96.335938 7.527344 96.117188 7.433594 95.898438 7.214844 C 95.648438 6.902344 95.398438 6.746094 94.929688 6.746094 C 94.085938 6.746094 93.210938 7.496094 93.210938 8.246094 C 93.210938 8.808594 93.585938 8.933594 93.960938 8.933594 C 94.335938 8.933594 94.523438 8.746094 94.523438 8.308594 C 94.523438 8.027344 94.210938 7.996094 94.210938 7.808594 C 94.210938 7.683594 94.273438 7.527344 94.523438 7.527344 C 95.085938 7.527344 95.335938 8.027344 95.554688 8.121094 C 95.835938 8.277344 95.929688 8.246094 96.367188 8.152344 Z M 100.335938 12.089844 C 100.304688 11.652344 100.210938 10.933594 100.210938 10.683594 C 100.210938 10.308594 100.210938 9.964844 100.273438 9.683594 C 100.367188 9.121094 100.679688 7.589844 101.242188 7.589844 C 101.554688 7.589844 101.554688 8.339844 101.554688 8.746094 C 101.554688 9.902344 100.773438 11.308594 100.335938 12.089844 Z M 100.335938 12.089844 "/>
<path fill-rule="nonzero" fill="rgb(0%, 0%, 0%)" fill-opacity="1" stroke-width="0.79701" stroke-linecap="butt" stroke-linejoin="miter" stroke="rgb(0%, 25.098039%, 0%)" stroke-opacity="1" stroke-miterlimit="10" d="M -37.421345 2.377876 C -37.421345 3.15522 -38.050251 3.788033 -38.827595 3.788033 C -39.604939 3.788033 -40.237751 3.15522 -40.237751 2.377876 C -40.237751 1.600533 -39.604939 0.96772 -38.827595 0.96772 C -38.050251 0.96772 -37.421345 1.600533 -37.421345 2.377876 Z M -37.421345 2.377876 " transform="matrix(2, 0, 0, -2, 100.288002, 103.662003)"/>
<path fill-rule="nonzero" fill="rgb(0%, 0%, 0%)" fill-opacity="1" d="M 13.777344 82.488281 C 14.058594 82.300781 14.058594 82.238281 14.339844 82.238281 C 14.496094 82.238281 14.589844 82.238281 14.683594 82.300781 C 14.933594 82.550781 15.089844 83.175781 15.558594 83.175781 C 15.964844 83.175781 16.308594 82.832031 16.308594 82.394531 C 16.308594 81.832031 15.621094 81.363281 15.027344 81.363281 C 14.558594 81.363281 14.058594 81.613281 13.558594 82.207031 C 13.027344 81.613281 12.339844 81.332031 11.558594 81.332031 C 10.433594 81.332031 9.589844 81.832031 8.964844 82.425781 C 8.371094 83.019531 7.808594 83.863281 7.808594 85.019531 C 7.808594 85.925781 8.152344 86.675781 8.964844 87.238281 L 8.933594 87.332031 C 8.214844 87.550781 7.839844 87.738281 7.589844 87.957031 C 7.308594 88.175781 7.152344 88.457031 7.152344 88.769531 C 7.152344 89.238281 7.277344 89.613281 7.839844 89.863281 C 8.402344 90.144531 9.246094 90.363281 10.433594 90.582031 C 11.089844 90.675781 11.558594 90.894531 11.964844 91.113281 C 12.308594 91.394531 12.496094 91.644531 12.496094 91.957031 C 12.496094 92.988281 10.996094 93.769531 9.527344 93.800781 C 7.902344 93.832031 6.871094 93.144531 6.871094 92.050781 C 6.871094 91.363281 7.277344 90.894531 7.871094 90.644531 C 7.527344 90.519531 7.433594 90.457031 7.058594 90.457031 C 6.183594 90.457031 5.621094 91.113281 5.621094 91.957031 C 5.621094 92.300781 5.621094 92.613281 5.808594 92.894531 C 6.527344 93.832031 7.808594 94.238281 9.464844 94.238281 C 10.808594 94.238281 11.808594 93.957031 12.621094 93.425781 C 13.214844 92.988281 13.652344 92.425781 13.652344 91.425781 C 13.652344 90.300781 12.152344 89.613281 11.277344 89.394531 C 10.589844 89.207031 9.808594 88.988281 9.214844 88.769531 C 8.964844 88.707031 8.871094 88.488281 8.871094 88.269531 C 8.871094 87.769531 9.652344 87.769531 10.308594 87.675781 C 12.558594 87.519531 13.933594 86.050781 13.933594 83.675781 C 13.933594 83.238281 13.902344 82.800781 13.777344 82.488281 Z M 9.152344 85.613281 C 9.152344 83.800781 9.996094 81.769531 11.402344 81.769531 C 12.402344 81.769531 12.652344 82.644531 12.652344 83.363281 C 12.652344 85.332031 11.808594 87.144531 10.371094 87.175781 C 9.621094 87.175781 9.152344 86.363281 9.152344 85.613281 Z M 9.152344 85.613281 "/>
<path fill-rule="nonzero" fill="rgb(0%, 0%, 0%)" fill-opacity="1" stroke-width="0.79701" stroke-linecap="butt" stroke-linejoin="miter" stroke="rgb(0%, 25.098039%, 0%)" stroke-opacity="1" stroke-miterlimit="10" d="M -8.56197 -9.266655 C -8.56197 -8.489311 -9.194782 -7.856499 -9.972126 -7.856499 C -10.74947 -7.856499 -11.382282 -8.489311 -11.382282 -9.266655 C -11.382282 -10.043999 -10.74947 -10.676811 -9.972126 -10.676811 C -9.194782 -10.676811 -8.56197 -10.043999 -8.56197 -9.266655 Z M -8.56197 -9.266655 " transform="matrix(2, 0, 0, -2, 100.288002, 103.662003)"/>
<path fill-rule="nonzero" fill="rgb(0%, 0%, 0%)" fill-opacity="1" d="M 74.261719 109.191406 C 74.261719 108.910156 74.167969 108.691406 73.949219 108.472656 C 73.730469 108.253906 73.449219 108.191406 73.167969 108.191406 C 72.605469 108.191406 71.949219 108.597656 71.542969 108.972656 C 71.042969 109.410156 70.542969 110.003906 70.230469 110.660156 L 70.167969 110.628906 C 70.230469 110.410156 70.261719 110.222656 70.261719 110.066406 C 70.292969 109.910156 70.292969 109.722656 70.292969 109.566406 C 70.292969 108.847656 70.167969 108.347656 69.542969 108.347656 C 68.167969 108.347656 66.949219 109.785156 66.605469 110.722656 L 66.886719 110.910156 C 67.167969 110.410156 68.105469 109.035156 68.730469 109.035156 C 68.980469 109.035156 68.980469 109.691406 68.980469 109.972656 C 68.980469 110.066406 68.886719 110.191406 68.886719 110.347656 C 68.574219 111.535156 68.324219 112.441406 67.886719 113.691406 L 66.855469 117.035156 L 68.261719 117.035156 L 68.980469 114.816406 C 69.261719 114.066406 69.511719 113.160156 69.761719 112.535156 C 70.042969 111.910156 70.355469 111.347656 70.636719 110.878906 C 70.980469 110.316406 71.511719 109.347656 72.167969 109.347656 C 72.386719 109.347656 72.417969 109.628906 72.511719 109.722656 L 72.636719 109.878906 C 72.824219 110.066406 72.980469 110.160156 73.324219 110.160156 C 73.886719 110.160156 74.261719 109.722656 74.261719 109.191406 Z M 74.261719 109.191406 "/>
<path fill-rule="nonzero" fill="rgb(0%, 0%, 0%)" fill-opacity="1" stroke-width="0.79701" stroke-linecap="butt" stroke-linejoin="miter" stroke="rgb(0%, 25.098039%, 0%)" stroke-opacity="1" stroke-miterlimit="10" d="M 11.379436 9.268501 C 11.379436 10.045845 10.75053 10.674751 9.973186 10.674751 C 9.191936 10.674751 8.56303 10.045845 8.56303 9.268501 C 8.56303 8.487251 9.191936 7.858345 9.973186 7.858345 C 10.75053 7.858345 11.379436 8.487251 11.379436 9.268501 Z M 11.379436 9.268501 " transform="matrix(2, 0, 0, -2, 100.288002, 103.662003)"/>
<path fill-rule="nonzero" fill="rgb(0%, 0%, 0%)" fill-opacity="1" d="M 128.398438 80.058594 C 129.773438 80.058594 130.929688 79.058594 131.585938 78.183594 C 132.304688 77.246094 133.085938 75.839844 133.085938 74.308594 C 133.085938 73.339844 132.773438 72.558594 132.304688 72.058594 C 131.835938 71.558594 131.304688 71.214844 130.398438 71.214844 C 129.804688 71.214844 129.273438 71.371094 128.679688 71.683594 C 127.585938 72.339844 126.648438 73.464844 126.148438 74.746094 C 125.898438 75.433594 125.804688 76.121094 125.804688 76.839844 C 125.804688 77.777344 126.054688 78.714844 126.554688 79.214844 C 127.023438 79.652344 127.554688 80.058594 128.398438 80.058594 Z M 127.242188 77.621094 C 127.242188 74.246094 128.492188 71.652344 130.398438 71.652344 C 131.148438 71.652344 131.617188 72.121094 131.617188 73.089844 C 131.617188 73.714844 131.679688 74.433594 131.429688 75.402344 C 131.054688 76.714844 130.054688 79.621094 128.523438 79.621094 C 127.742188 79.621094 127.242188 78.527344 127.242188 77.621094 Z M 127.242188 77.621094 "/>
</svg>
